<svg id="Слой_1" data-name="Слой 1" xmlns="http://www.w3.org/2000/svg" viewBox="0 0 1160.99 431.08">
  <defs>
    <style>
      .cls-1 {
        fill: #cd5a80;
      }

      .cls-2, .cls-21, .cls-22, .cls-23, .cls-24, .cls-25, .cls-26, .cls-27, .cls-28, .cls-29, .cls-3, .cls-30, .cls-31, .cls-32, .cls-33, .cls-34, .cls-35, .cls-36, .cls-37, .cls-38, .cls-39, .cls-40, .cls-41, .cls-42 {
        fill: none;
        stroke-miterlimit: 10;
      }

      .cls-2 {
        stroke: #fff;
      }

      .cls-21, .cls-22, .cls-23, .cls-24, .cls-25, .cls-26, .cls-27, .cls-28, .cls-29, .cls-3, .cls-30, .cls-31, .cls-32, .cls-33, .cls-34, .cls-35, .cls-36, .cls-37, .cls-38, .cls-39, .cls-40, .cls-41, .cls-42 {
        stroke: #61bbd6;
      }

      .cls-3 {
        stroke-width: 2px;
      }

      .cls-4 {
        font-size: 34.04px;
        font-family: Roboto-Black, Roboto;
        font-weight: 800;
      }

      .cls-4, .cls-5 {
        fill: #fff;
      }

      .cls-5 {
        font-size: 12.94px;
        font-family: Roboto-Medium, Roboto;
        font-weight: 500;
      }

      .cls-6 {
        letter-spacing: -0.01em;
      }

      .cls-7 {
        letter-spacing: -0.01em;
      }

      .cls-8 {
        letter-spacing: 0.01em;
      }

      .cls-9 {
        letter-spacing: -0.02em;
      }

      .cls-10 {
        letter-spacing: 0.02em;
      }

      .cls-11 {
        letter-spacing: -0.01em;
      }

      .cls-12 {
        letter-spacing: -0.01em;
      }

      .cls-13 {
        letter-spacing: -0.01em;
      }

      .cls-14 {
        letter-spacing: -0.01em;
      }

      .cls-15 {
        letter-spacing: 0em;
      }

      .cls-16 {
        letter-spacing: 0em;
      }

      .cls-17 {
        letter-spacing: -0.01em;
      }

      .cls-18 {
        letter-spacing: -0.02em;
      }

      .cls-19 {
        letter-spacing: -0.01em;
      }

      .cls-20 {
        letter-spacing: 0.01em;
      }

      .cls-21 {
        stroke-width: 0.75px;
      }

      .cls-22 {
        stroke-width: 0.9px;
      }

      .cls-23 {
        stroke-width: 1.06px;
      }

      .cls-24 {
        stroke-width: 1.21px;
      }

      .cls-25 {
        stroke-width: 1.37px;
      }

      .cls-26 {
        stroke-width: 1.52px;
      }

      .cls-27 {
        stroke-width: 1.68px;
      }

      .cls-28 {
        stroke-width: 1.83px;
      }

      .cls-29 {
        stroke-width: 1.99px;
      }

      .cls-30 {
        stroke-width: 2.14px;
      }

      .cls-31 {
        stroke-width: 2.3px;
      }

      .cls-32 {
        stroke-width: 2.45px;
      }

      .cls-33 {
        stroke-width: 2.61px;
      }

      .cls-34 {
        stroke-width: 2.76px;
      }

      .cls-35 {
        stroke-width: 2.92px;
      }

      .cls-36 {
        stroke-width: 3.07px;
      }

      .cls-37 {
        stroke-width: 3.23px;
      }

      .cls-38 {
        stroke-width: 3.38px;
      }

      .cls-39 {
        stroke-width: 3.54px;
      }

      .cls-40 {
        stroke-width: 3.69px;
      }

      .cls-41 {
        stroke-width: 3.85px;
      }

      .cls-42 {
        stroke-width: 4px;
      }
    </style>
  </defs>
  <rect class="cls-1" x="-2.21" y="-0.2" width="1166" height="434"/>
  <g>
    <polyline class="cls-2" points="36.59 38.7 36.59 323.77 1106.8 325.3"/>
    <line class="cls-3" x1="166.44" y1="100.39" x2="166.44" y2="379.49"/>
    <line class="cls-3" x1="37.09" y1="51.14" x2="37.09" y2="379.49"/>
    <line class="cls-3" x1="291.32" y1="130.74" x2="289.4" y2="379.49"/>
    <line class="cls-3" x1="401.77" y1="202.38" x2="399.85" y2="379.49"/>
    <line class="cls-3" x1="515.2" y1="254.12" x2="513.28" y2="379.49"/>
    <line class="cls-3" x1="634.61" y1="263.08" x2="632.69" y2="379.49"/>
    <line class="cls-3" x1="753.02" y1="279.99" x2="751.1" y2="379.49"/>
    <line class="cls-3" x1="870.43" y1="279.99" x2="868.51" y2="379.49"/>
    <line class="cls-3" x1="991.82" y1="285.96" x2="989.9" y2="379.49"/>
    <line class="cls-3" x1="1108.24" y1="308.8" x2="1106.32" y2="379.49"/>
    <text class="cls-4" transform="translate(0 29.12)">28.5%</text>
    <text class="cls-4" transform="translate(145.33 68.88)">24%</text>
    <text class="cls-4" transform="translate(260.73 114.49)">20%</text>
    <text class="cls-4" transform="translate(375.17 187.19)">10%</text>
    <text class="cls-4" transform="translate(494.57 242.11)">5%</text>
    <text class="cls-4" transform="translate(612.57 252.11)">4%</text>
    <text class="cls-4" transform="translate(722.01 265.01)">2.5%</text>
    <text class="cls-4" transform="translate(837.43 265.01)">2.5%</text>
    <text class="cls-4" transform="translate(968.78 265.01)">2%</text>
    <text class="cls-4" transform="translate(1065.3 265.01)">1.5%</text>
    <text class="cls-5" transform="translate(21.77 412.05)">Employee<tspan x="-14.81" y="15.52">O</tspan><tspan class="cls-7" x="-5.87" y="15.52">v</tspan><tspan x="0.44" y="15.52">e</tspan><tspan class="cls-8" x="7.38" y="15.52">r</tspan><tspan x="12.04" y="15.52">w</tspan><tspan class="cls-9" x="21.65" y="15.52">r</tspan><tspan x="25.97" y="15.52">ote Data</tspan></text>
    <text class="cls-5" transform="translate(133.64 412.05)">Compliance<tspan x="15.91" y="15.52">Needs</tspan></text>
    <text class="cls-5" transform="translate(261.7 412.05)">Accidental<tspan x="5.46" y="15.52">Deletion</tspan></text>
    <text class="cls-5" transform="translate(374.63 412.05)">Employee<tspan x="-2.5" y="15.52">Departures</tspan></text>
    <text class="cls-5" transform="translate(474.58 412.05)">Ransomware</text>
    <text class="cls-5" transform="translate(586.57 412.05)">Malicious Delete<tspan class="cls-13" x="16.66" y="15.52">by Insiders</tspan></text>
    <text class="cls-5" transform="translate(713.62 412.05)">Malware from<tspan x="-6.49" y="15.52">Third</tspan><tspan class="cls-17" x="26.79" y="15.52">P</tspan><tspan x="34.99" y="15.52">a</tspan><tspan class="cls-10" x="41.99" y="15.52">r</tspan><tspan x="46.85" y="15.52">ty </tspan><tspan class="cls-18" x="60.67" y="15.52">A</tspan><tspan x="68.98" y="15.52">pp</tspan></text>
    <text class="cls-5" transform="translate(833.66 412.05)">Data Deletion<tspan x="8.86" y="15.52">by Hackers</tspan></text>
    <text class="cls-5" transform="translate(950.9 412.05)">Ended Service<tspan x="1.04" y="15.52">and Data Lost</tspan></text>
    <text class="cls-5" transform="translate(1053.77 412.05)">Outages at Google<tspan x="18.04" y="15.52">or Microsoft</tspan></text>
    <g>
      <path class="cls-21" d="M38.79,56.8s81.33-11.09,123,41c20,25,58.91,2.2,132,38,49,24,52.11,61.37,107,71,57,10,58,53,116,53s99,18,121,10c31.51-11.46,90,17,121,16s118,0,118,0,86,14,118,5,32,26,112,19"/>
      <path class="cls-22" d="M38.94,69.47s83.5-10.57,123.18,39c19,23.81,62.34,2.1,132,36.19,46.67,22.86,55.47,58.45,107.75,67.62,54.28,9.53,61.06,50.48,116.31,50.48s99.74,17.14,120.7,9.52c30-10.91,91.23,16.19,120.75,15.24s117.67,0,117.67,0S964.47,300.9,995,292.32s35.51,25.43,111.7,18.77"/>
      <path class="cls-23" d="M39.08,82.13s85.67-10,123.37,37.1c18.1,22.62,65.78,2,131.92,34.38,44.33,21.71,58.82,55.52,108.49,64.24,51.57,9.05,64.13,48,116.62,48s100.49,16.29,120.4,9.05c28.5-10.37,92.46,15.38,120.51,14.47s117.33,0,117.33,0,88.43,12.67,117.39,4.53,39,24.85,111.4,18.52"/>
      <path class="cls-24" d="M39.22,94.8s87.84-9.51,123.56,35.14c17.14,21.43,69.22,1.89,131.87,32.57,42,20.58,62.19,52.61,109.24,60.86,48.86,8.57,67.21,45.43,116.93,45.43s101.24,15.43,120.1,8.57c27-9.82,93.7,14.57,120.27,13.72s117,0,117,0,89.65,12,117.08,4.28,42.53,24.29,111.11,18.29"/>
      <path class="cls-25" d="M39.37,107.47s90-9,123.74,33.19c16.19,20.24,72.65,1.78,131.83,30.76,39.66,19.43,65.54,49.68,110,57.48,46.14,8.09,70.28,42.9,117.24,42.9s102,14.57,119.8,8.1c25.51-9.28,94.93,13.76,120,13s116.66,0,116.66,0,90.86,11.33,116.77,4,46,23.71,110.8,18"/>
      <path class="cls-26" d="M39.51,120.13s92.18-8.45,123.93,31.24c15.24,19,76.09,1.68,131.78,28.95,37.34,18.29,68.91,46.76,110.73,54.1C449.38,242,479.3,274.8,523.5,274.8s102.74,13.71,119.5,7.62c24-8.73,96.17,12.95,119.78,12.19s116.33,0,116.33,0,92.08,10.67,116.46,3.81,49.56,23.14,110.51,17.81"/>
      <path class="cls-27" d="M39.65,132.8s94.35-7.92,124.12,29.29c14.28,17.85,79.53,1.57,131.74,27.14,35,17.14,72.27,43.83,111.47,50.71,40.72,7.15,76.43,37.86,117.86,37.86s103.49,12.86,119.2,7.14c22.51-8.18,97.4,12.15,119.54,11.43s116,0,116,0,93.3,10,116.16,3.57,53.06,22.57,110.21,17.57"/>
      <path class="cls-28" d="M39.79,145.47s96.52-7.4,124.3,27.33c13.34,16.67,83,1.46,131.7,25.33,32.67,16,75.63,40.92,112.23,47.34,38,6.66,79.49,35.33,118.16,35.33s104.24,12,118.9,6.67c21-7.64,98.63,11.33,119.3,10.66s115.65,0,115.65,0,94.52,9.34,115.85,3.34,56.58,22,109.91,17.33"/>
      <path class="cls-29" d="M39.94,158.13s98.69-6.86,124.48,25.38C176.8,199,250.83,184.87,296.08,207c30.33,14.86,79,38,113,44,35.28,6.19,82.56,32.81,118.47,32.81s105,11.14,118.61,6.19c19.5-7.09,99.86,10.52,119,9.91s115.32,0,115.32,0S976.23,308.56,996,303s62.09,13.43,111.61,9.1"/>
      <path class="cls-30" d="M40.08,170.8s100.86-6.34,124.67,23.43c11.43,14.28,89.85,1.25,131.62,21.71,28,13.72,82.34,35.07,113.71,40.57,32.57,5.72,85.64,30.29,118.78,30.29s105.74,10.29,118.31,5.71c18-6.54,101.09,9.72,118.81,9.15s115,0,115,0,96.95,8,115.23,2.85,65.6,12.86,111.32,8.86"/>
      <path class="cls-31" d="M40.22,183.47s103-5.81,124.86,21.47c10.48,13.1,93.28,1.15,131.57,19.91C322.32,237.42,382.36,257,411.11,262,441,267.28,499.82,289.8,530.2,289.8s106.48,9.43,118,5.24c16.5-6,102.33,8.9,118.56,8.38s114.65,0,114.65,0,98.16,7.33,114.93,2.62,69.11,12.28,111,8.62"/>
      <path class="cls-32" d="M40.37,196.13s105.19-5.28,125,19.53c9.52,11.9,96.72,1,131.53,18.09C320.27,245.18,386,263,412.14,267.56c27.15,4.76,91.78,25.24,119.4,25.24s107.23,8.57,117.71,4.76c15-5.45,103.56,8.1,118.32,7.62s114.31,0,114.31,0,99.38,6.67,114.62,2.38,72.63,11.72,110.72,8.38"/>
      <path class="cls-33" d="M40.51,208.8s107.37-4.75,125.23,17.57c8.57,10.72,100.15.94,131.48,16.29,21,10.28,92.43,26.3,116,30.43C437.6,277.37,508,295.8,532.89,295.8s108,7.71,117.4,4.29c13.5-4.91,104.79,7.28,118.08,6.85s114,0,114,0,100.59,6,114.31,2.15,76.13,11.14,110.42,8.14"/>
      <path class="cls-34" d="M40.65,221.47s109.54-4.23,125.41,15.62c7.62,9.52,103.6.83,131.45,14.47,18.66,9.14,95.78,23.38,116.7,27.05,21.71,3.81,97.92,20.19,120,20.19s108.72,6.86,117.1,3.81c12-4.37,106,6.48,117.84,6.09s113.64,0,113.64,0,101.81,5.34,114,1.91,79.65,10.57,110.13,7.9"/>
      <path class="cls-35" d="M40.79,234.13s111.71-3.69,125.6,13.67c6.67,8.33,107,.73,131.4,12.67,16.34,8,99.15,20.45,117.45,23.66,19,3.34,101,17.67,120.33,17.67s109.47,6,116.8,3.33c10.51-3.82,107.26,5.67,117.6,5.34s113.3,0,113.3,0,103,4.66,113.7,1.66,83.16,10,109.82,7.67"/>
      <path class="cls-36" d="M40.94,246.8s113.88-3.17,125.78,11.71c5.72,7.15,110.47.63,131.36,10.86,14,6.86,102.5,17.54,118.19,20.29,16.28,2.85,104.06,15.14,120.64,15.14s110.22,5.14,116.5,2.86c9-3.28,108.5,4.85,117.35,4.57s113,0,113,0,104.25,4,113.39,1.43,86.67,9.43,109.53,7.43"/>
      <path class="cls-37" d="M41.08,259.47s116.05-2.64,126,9.76c4.76,5.95,113.91.52,131.31,9C310,284,404.23,292.89,417.3,295.18c13.57,2.38,107.14,12.62,121,12.62s111,4.29,116.21,2.38c7.5-2.73,109.72,4.05,117.1,3.81s112.64,0,112.64,0,105.46,3.33,113.08,1.19,90.18,8.86,109.23,7.19"/>
      <path class="cls-38" d="M41.22,272.13s118.22-2.11,126.16,7.81c3.81,4.76,117.35.42,131.27,7.24,9.33,4.57,109.23,11.69,119.68,13.52,10.86,1.91,110.21,10.1,121.26,10.1s111.72,3.43,115.91,1.9c6-2.18,111,3.24,116.86,3.05s112.3,0,112.3,0,106.68,2.67,112.77.95,95.7,2.29,110.94,1"/>
      <path class="cls-39" d="M41.37,284.8s120.38-1.58,126.34,5.86c2.85,3.57,120.78.31,131.23,5.43,7,3.42,112.58,8.76,120.42,10.14,8.15,1.43,113.28,7.57,121.57,7.57s112.47,2.57,115.61,1.43c4.5-1.64,112.19,2.43,116.62,2.28s112,0,112,0,107.9,2,112.47.72,99.2,1.71,110.63.71"/>
      <path class="cls-40" d="M41.51,297.47s122.56-1.06,126.53,3.9c1.9,2.38,124.22.21,131.18,3.62,4.67,2.29,116,5.84,121.18,6.76,5.42.95,116.35,5.05,121.87,5.05s113.21,1.71,115.31.95c3-1.09,113.42,1.62,116.37,1.53s111.63,0,111.63,0,109.12,1.33,112.16.47,102.72,1.15,110.34.48"/>
      <path class="cls-41" d="M41.65,310.13s124.73-.52,126.71,2c1,1.19,127.67.1,131.15,1.81,2.33,1.14,119.3,2.92,121.92,3.38s119.42,2.52,122.18,2.52,114,.86,115,.48c1.5-.55,114.66.81,116.13.76s111.3,0,111.3,0,110.32.66,111.85.24,106.23.57,110,.23"/>
      <line class="cls-42" x1="41.79" y1="322.8" x2="1107.79" y2="322.8"/>
    </g>
  </g>
</svg>
