<svg xmlns="http://www.w3.org/2000/svg" xmlns:xlink="http://www.w3.org/1999/xlink" width="1250" height="940" style="background-color:transparent"><style>.a{fill:none;stroke:#fff;stroke-miterlimit:10}.b{fill:#fff}.c,.d,.e{fill:#dc5a80}.d,.e{stroke:#fff;stroke-width:3;stroke-miterlimit:10}.e{fill:none}</style><g id="Lines"><path id="theMotionPath1" class="a" d="M181.5 359.1v505.2c0 28.4 28.5 51.4 63.7 51.4h158.9c35.2 0 63.7-23 63.7-51.4l-1-264.3"/><path id="theMotionPath2" class="a" d="M979.6 147.7v716.7c0 28.4-28.5 51.4-63.7 51.4h-125c-35.2 0-63.7-23-63.7-51.4V603.3"/><path id="theMotionPath3" class="a" d="M1115.4 480.5V751c0 33.6-28.5 60.8-63.7 60.8H886c-35.2 0-63.7-27.2-63.7-60.8V603.1"/></g><g id="ball_3"><circle class="b" r="11"/><animateTransform begin="animation3.end" id="pause" dur="1s" type="translate" attributeType="XML" attributeName="transform"/><animateMotion id="animation3" begin="0; pause.end + 0.2s" keyTimes="0;1" keySplines="0.36 0.39 0.49 0.73" dur="3s" fill="freeze" restart="whenNotActive"><mpath xlink:href="#theMotionPath3"/></animateMotion></g><g id="ball_2"><circle class="b" r="11"/><animateTransform begin="animation2.end" id="pause" dur="1s" type="translate" attributeType="XML" attributeName="transform"/><animateMotion id="animation2" begin="0; pause.end + 0.1s" keyTimes="0;1" keySplines="0.36 0.39 0.49 0.73" dur="3.5s" fill="freeze" restart="whenNotActive"><mpath xlink:href="#theMotionPath2"/></animateMotion></g><g id="ball_1"><circle class="b" r="11"/><animateTransform begin="animation1.end" id="pause" dur="1s" type="translate" attributeType="XML" attributeName="transform"/><animateMotion id="animation1" begin="0; pause.end" keyTimes="0;1" keySplines="0.36 0.39 0.49 0.73" dur="4s" fill="freeze" restart="whenNotActive"><mpath xlink:href="#theMotionPath1"/></animateMotion></g><g id="Clouds"><g id="right_big_2_"><path class="c" d="M1176 143.9c0-17.7-13.3-32.4-30.4-34.6-2.2-17.1-16.8-30.4-34.6-30.4-6.5 0-12.7 1.8-17.9 4.9-3-20.7-20.8-36.6-42.3-36.6-11.9 0-22.7 4.9-30.5 12.8-7-27.4-31.8-47.7-61.4-47.7-32.9 0-59.9 25-63.1 57.1-4.4-2-9.4-3.2-14.6-3.2-16.6 0-30.5 11.6-34 27.2-1.3-.2-2.7-.2-4-.2-12.3 0-23.1 6.3-29.3 15.9-18.2 1.2-32.5 16.3-32.5 34.8 0 18.7 14.8 34 33.3 34.8h328.1c18.4-.8 33.2-16.1 33.2-34.8z"/><path class="c" d="M957.1 177.6h43v4.5h-43zM963.9 182.2h29.4v9.1h-29.4z"/></g><g id="small_right_2_"><path class="c" d="M1240.3 516.8c0-11.1-8.3-20.3-19.1-21.7-1.4-10.8-10.6-19.1-21.7-19.1-4.1 0-7.9 1.1-11.2 3.1-1.9-13-13.1-23-26.6-23-7.5 0-14.3 3.1-19.2 8-4.4-17.2-20-29.9-38.6-29.9-20.7 0-37.6 15.7-39.6 35.9-2.8-1.3-5.9-2-9.2-2-10.4 0-19.2 7.3-21.4 17.1-.8-.1-1.7-.2-2.5-.2-7.7 0-14.5 4-18.4 10-11.4.8-20.4 10.2-20.4 21.8 0 11.8 9.3 21.4 20.9 21.9h206.1c11.6-.5 20.9-10.1 20.9-21.9z"/><path class="c" d="M1094.8 537.6h43v4.5h-43zM1101.6 542.1h29.4v9.1h-29.4z"/></g><g id="main_2_"><path class="d" d="M915.1 577.2c0-25.3-18.9-46.3-43.4-49.4-3.1-24.5-24-43.4-49.4-43.4-9.3 0-18.1 2.6-25.5 7-4.3-29.6-29.7-52.3-60.5-52.3-17.1 0-32.5 7-43.6 18.3-10-39.1-45.5-68.1-87.7-68.1-47 0-85.6 35.8-90.1 81.5-6.3-2.9-13.4-4.6-20.8-4.6-23.7 0-43.6 16.6-48.6 38.8-1.9-.2-3.8-.3-5.8-.3-17.5 0-32.9 9.1-41.8 22.8-26 1.7-46.5 23.3-46.5 49.7 0 26.7 21.1 48.6 47.5 49.8v.1h468.7v-.1c26.4-1.2 47.5-23 47.5-49.8z"/><path class="e" d="M396.6 527.4c26.3 0 47.5 21.3 47.5 47.5M838.1 627c0-26.3 21.3-47.5 47.5-47.5M797.3 491.2c-10.6 8.7-15.8 21.5-15.8 36.2M693.2 456.1c0 10.6-1.8 20.8-5.2 30.2"/><path class="d" d="M634.3 527.4c0-23.8 19.3-43 43-43s43 19.3 43 43"/><circle class="d" cx="518.9" cy="482.1" r="11.3"/><circle class="d" cx="444.2" cy="593.1" r="11.3"/><circle class="d" cx="518.9" cy="554.6" r="11.3"/><circle class="d" cx="720.4" cy="536.5" r="11.3"/><circle class="d" cx="632.1" cy="534.2" r="11.3"/><circle class="d" cx="781.5" cy="536.5" r="11.3"/><path class="e" d="M444.2 629.3v-24.9M518.9 565.9v62M614 584v45.3M697.7 607.8v18.1M745.3 558v72.4"/><path class="b" d="M445.3 628.2h43v4.5h-43zM452.1 632.7h29.4v9.1h-29.4zM707.9 628.2h43v4.5h-43zM714.7 632.7h29.4v9.1h-29.4zM800.7 628.2h43v4.5h-43zM807.5 632.7h29.4v9.1h-29.4z"/></g><g id="back_left_2_"><path class="c" d="M352.7 361.3c0-15.4-11.5-28.1-26.4-30.1-1.9-14.9-14.6-26.4-30.1-26.4-5.7 0-11 1.6-15.5 4.3-2.6-18-18.1-31.8-36.8-31.8-10.4 0-19.8 4.3-26.5 11.1-6.1-23.8-27.7-41.4-53.4-41.4-28.6 0-52.1 21.8-54.8 49.6-3.9-1.8-8.1-2.8-12.7-2.8-14.4 0-26.5 10.1-29.6 23.6-1.2-.1-2.3-.2-3.5-.2-10.7 0-20 5.5-25.4 13.9-15.8 1-28.3 14.2-28.3 30.2 0 16.3 12.8 29.6 28.9 30.3h285.1c16.2-.8 29-14 29-30.3z"/><path class="c" d="M160 390.5h43v4.5h-43zM166.8 395h29.4v9.1h-29.4z"/></g></g></svg>