<?xml version="1.0" encoding="utf-8"?>
<svg version="1.1" xmlns="http://www.w3.org/2000/svg" xmlns:xlink="http://www.w3.org/1999/xlink" x="0px" y="0px" width="1250px"
	 height="940px" viewBox="0 0 1250 940" style="enable-background:new 0 0 1250 940;" xml:space="preserve">
<style type="text/css">.a{fill:none;stroke:#FFFFFF;stroke-miterlimit:10;}.b{fill:#FFFFFF;}.c{fill:#DC5A80;}.d{fill:#DC5A80;stroke:#FFFFFF;stroke-width:3;stroke-miterlimit:10;}.e{fill:none;stroke:#FFFFFF;stroke-width:3;stroke-miterlimit:10;}svg {background-color: transparent;}</style>
<g id="Lines"><path id="theMotionPath1" class="a" d="M181.5,359.1v505.2c0,28.4,28.5,51.4,63.7,51.4h158.9c35.2,0,63.7-23,63.7-51.4L466.8,600" /><path id="theMotionPath2" class="a" d="M979.6,147.7v716.7c0,28.4-28.5,51.4-63.7,51.4h-125c-35.2,0-63.7-23-63.7-51.4V603.3" /><path id="theMotionPath3" class="a" d="M1115.4,480.5v270.5c0,33.6-28.5,60.8-63.7,60.8H886c-35.2,0-63.7-27.2-63.7-60.8V603.1" /></g>
<g id="ball_3">
	<circle class="b" cx="" cy="" r="11"/>
    <animateTransform begin="animation3.end" id="pause" dur="1s" type="translate" attributeType="XML" attributeName="transform"/>
        <animateMotion
            id="animation3"
            begin="0; pause.end + 0.2s"
            keyTimes="0;1"
            keySplines="0.36 0.39 0.49 0.73"
            dur="3s"
            fill="freeze"
            restart="whenNotActive" >
            <mpath xlink:href="#theMotionPath3"></mpath>
        </animateMotion>
</g>
<g id="ball_2">
	<circle class="b" cx="" cy="" r="11"/>
    <animateTransform begin="animation2.end" id="pause" dur="1s" type="translate" attributeType="XML" attributeName="transform"/>
        <animateMotion
            id="animation2"
            begin="0; pause.end + 0.1s"
            keyTimes="0;1"
            keySplines="0.36 0.39 0.49 0.73"
            dur="3.5s"
            fill="freeze"
            restart="whenNotActive" >
            <mpath xlink:href="#theMotionPath2"></mpath>
        </animateMotion>
</g>
<g id="ball_1">
	<circle class="b" cx="" cy="" r="11"/>
    <animateTransform begin="animation1.end" id="pause" dur="1s" type="translate" attributeType="XML" attributeName="transform"/>
        <animateMotion
            id="animation1"
            begin="0; pause.end"
            keyTimes="0;1"
            keySplines="0.36 0.39 0.49 0.73"
            dur="4s"
            fill="freeze"
            restart="whenNotActive" >
            <mpath xlink:href="#theMotionPath1"></mpath>
        </animateMotion>
</g>
<g id="Clouds">
	<g id="right_big_2_">
		<path class="c" d="M1176,143.9c0-17.7-13.3-32.4-30.4-34.6c-2.2-17.1-16.8-30.4-34.6-30.4c-6.5,0-12.7,1.8-17.9,4.9
			c-3-20.7-20.8-36.6-42.3-36.6c-11.9,0-22.7,4.9-30.5,12.8c-7-27.4-31.8-47.7-61.4-47.7c-32.9,0-59.9,25-63.1,57.1
			c-4.4-2-9.4-3.2-14.6-3.2c-16.6,0-30.5,11.6-34,27.2c-1.3-0.2-2.7-0.2-4-0.2c-12.3,0-23.1,6.3-29.3,15.9
			c-18.2,1.2-32.5,16.3-32.5,34.8c0,18.7,14.8,34,33.3,34.8v0h328.1v0C1161.2,177.9,1176,162.6,1176,143.9z"/>
		<g>
			<rect x="957.1" y="177.6" class="c" width="43" height="4.5"/>
			<rect x="963.9" y="182.2" class="c" width="29.4" height="9.1"/>
		</g>
	</g>
	<g id="small_right_2_">
		<path class="c" d="M1240.3,516.8c0-11.1-8.3-20.3-19.1-21.7c-1.4-10.8-10.6-19.1-21.7-19.1c-4.1,0-7.9,1.1-11.2,3.1
			c-1.9-13-13.1-23-26.6-23c-7.5,0-14.3,3.1-19.2,8c-4.4-17.2-20-29.9-38.6-29.9c-20.7,0-37.6,15.7-39.6,35.9c-2.8-1.3-5.9-2-9.2-2
			c-10.4,0-19.2,7.3-21.4,17.1c-0.8-0.1-1.7-0.2-2.5-0.2c-7.7,0-14.5,4-18.4,10c-11.4,0.8-20.4,10.2-20.4,21.8
			c0,11.8,9.3,21.4,20.9,21.9v0h206.1v0C1231,538.2,1240.3,528.6,1240.3,516.8z"/>
		<g>
			<rect x="1094.8" y="537.6" class="c" width="43" height="4.5"/>
			<rect x="1101.6" y="542.1" class="c" width="29.4" height="9.1"/>
		</g>
	</g>
	<g id="main_2_">
		<path class="d" d="M915.1,577.2c0-25.3-18.9-46.3-43.4-49.4c-3.1-24.5-24-43.4-49.4-43.4c-9.3,0-18.1,2.6-25.5,7
			c-4.3-29.6-29.7-52.3-60.5-52.3c-17.1,0-32.5,7-43.6,18.3c-10-39.1-45.5-68.1-87.7-68.1c-47,0-85.6,35.8-90.1,81.5
			c-6.3-2.9-13.4-4.6-20.8-4.6c-23.7,0-43.6,16.6-48.6,38.8c-1.9-0.2-3.8-0.3-5.8-0.3c-17.5,0-32.9,9.1-41.8,22.8
			c-26,1.7-46.5,23.3-46.5,49.7c0,26.7,21.1,48.6,47.5,49.8v0.1h468.7V627C894,625.8,915.1,604,915.1,577.2z"/>
		<path class="e" d="M396.6,527.4c26.3,0,47.5,21.3,47.5,47.5"/>
		<path class="e" d="M838.1,627c0-26.3,21.3-47.5,47.5-47.5"/>
		<path class="e" d="M797.3,491.2c-10.6,8.7-15.8,21.5-15.8,36.2"/>
		<path class="d" d="M355.9,572.7"/>
		<path class="e" d="M603.8,545.5"/>
		<path class="e" d="M693.2,456.1c0,10.6-1.8,20.8-5.2,30.2"/>
		<path class="d" d="M634.3,527.4c0-23.8,19.3-43,43-43s43,19.3,43,43"/>
		<circle class="d" cx="518.9" cy="482.1" r="11.3"/>
		<circle class="d" cx="444.2" cy="593.1" r="11.3"/>
		<circle class="d" cx="518.9" cy="554.6" r="11.3"/>
		<circle class="d" cx="720.4" cy="536.5" r="11.3"/>
		<circle class="d" cx="632.1" cy="534.2" r="11.3"/>
		<circle class="d" cx="781.5" cy="536.5" r="11.3"/>
		<line class="e" x1="444.2" y1="629.3" x2="444.2" y2="604.4"/>
		<line class="e" x1="518.9" y1="565.9" x2="518.9" y2="627.9"/>
		<line class="e" x1="614" y1="584" x2="614" y2="629.3"/>
		<line class="e" x1="697.7" y1="607.8" x2="697.7" y2="625.9"/>
		<line class="e" x1="745.3" y1="558" x2="745.3" y2="630.4"/>
		<rect x="445.3" y="628.2" class="b" width="43" height="4.5"/>
		<rect x="452.1" y="632.7" class="b" width="29.4" height="9.1"/>
		<rect x="707.9" y="628.2" class="b" width="43" height="4.5"/>
		<rect x="714.7" y="632.7" class="b" width="29.4" height="9.1"/>
		<rect x="800.7" y="628.2" class="b" width="43" height="4.5"/>
		<rect x="807.5" y="632.7" class="b" width="29.4" height="9.1"/>
	</g>
	<g id="back_left_2_">
		<path class="c" d="M352.7,361.3c0-15.4-11.5-28.1-26.4-30.1c-1.9-14.9-14.6-26.4-30.1-26.4c-5.7,0-11,1.6-15.5,4.3
			c-2.6-18-18.1-31.8-36.8-31.8c-10.4,0-19.8,4.3-26.5,11.1c-6.1-23.8-27.7-41.4-53.4-41.4c-28.6,0-52.1,21.8-54.8,49.6
			c-3.9-1.8-8.1-2.8-12.7-2.8c-14.4,0-26.5,10.1-29.6,23.6c-1.2-0.1-2.3-0.2-3.5-0.2c-10.7,0-20,5.5-25.4,13.9
			c-15.8,1-28.3,14.2-28.3,30.2c0,16.3,12.8,29.6,28.9,30.3v0h285.1v0C339.9,390.8,352.7,377.6,352.7,361.3z"/>
		<g>
			<rect x="160" y="390.5" class="c" width="43" height="4.5"/>
			<rect x="166.8" y="395" class="c" width="29.4" height="9.1"/>
		</g>
	</g>
</g>
</svg>
