<?xml version="1.0" encoding="utf-8"?>
<!-- Generator: Adobe Illustrator 21.1.0, SVG Export Plug-In . SVG Version: 6.00 Build 0)  -->
<svg version="1.1" xmlns="http://www.w3.org/2000/svg" xmlns:xlink="http://www.w3.org/1999/xlink" x="0px" y="0px" width="1280px"
	 height="1024px" viewBox="0 0 1280 1024" style="enable-background:new 0 0 1280 1024;" xml:space="preserve">
<style type="text/css">
	.st1{fill:#DC5A80;stroke:#FFFFFF;stroke-width:4;stroke-miterlimit:10;}
	.st2{fill:#61BBD6;stroke:#FFFFFF;stroke-width:4;stroke-miterlimit:10;}
	.st3{fill:#FFFFFF;}
	.st4{fill:none;stroke:#FFFFFF;stroke-width:4;stroke-miterlimit:10;}

</style>
    <g id="CENTER" transform="translate(640 514)">
        
        <animateTransform id="animation1" attributeName="transform" type="scale" values="0; 1" begin="0;animation4.end" dur="2s" additive="sum"></animateTransform>
        <circle r="100" fill="red" opacity="0"></circle>
            <g id="Laptop" transform="translate(-640 -514)">
		<path class="st1" d="M864.2,647.3H424.4c-6.6,0-12-5.4-12-12V381.8c0-6.6,5.4-12,12-12h439.7c6.6,0,12,5.4,12,12v253.5
			C876.2,641.9,870.8,647.3,864.2,647.3z"/>
		<path class="st2" d="M907.3,671.7H383.9c-5.5,0-10-4.5-10-10V656c0-5.5,4.5-10,10-10h523.4c5.5,0,10,4.5,10,10v5.7
			C917.3,667.2,912.8,671.7,907.3,671.7z"/> 
            </g>
            
    </g>
    <g id="CENTER" transform="translate(640 514)">
        <animateTransform id="animation2" attributeName="transform" type="scale" values="0; 1" begin="animation1.end" dur="2s" additive="sum"></animateTransform>
        <circle r="100" fill="red" opacity="0"></circle>
        <g id="Cloud" opacity="0" transform="translate(-640 -514)">
            <path class="st3" d="M800.7,540.2c0-13.6-10.2-24.9-23.4-26.6c-1.7-13.2-12.9-23.4-26.6-23.4c-5,0-9.7,1.4-13.7,3.8
                c-2.3-15.9-16-28.1-32.5-28.1c-9.2,0-17.5,3.8-23.4,9.8c-5.4-21-24.5-36.6-47.2-36.6c-25.3,0-46,19.2-48.5,43.8
                c-3.4-1.6-7.2-2.5-11.2-2.5c-12.8,0-23.4,8.9-26.1,20.9c-1-0.1-2-0.2-3.1-0.2c-9.4,0-17.7,4.9-22.5,12.2c-14,0.9-25,12.5-25,26.7
                c0,14.4,11.3,26.1,25.6,26.7v0h252v0C789.3,566.3,800.7,554.6,800.7,540.2z"/>
            <animate id="in1" dur="1s" attributeName="opacity" from="0" to="1" begin="animation1.end" />
            <animate id="in2" dur="8s" attributeName="opacity" from="1" to="1" begin="in1.end"/>
        </g>
    </g>
<g id="Lines" visibility="hidden">
    <path class="st4" stroke-dasharray="540" stroke-dashoffset="0" d="M409.9,479l-66.2-66.2v-26.3">
        <animate id="animation3" attributeName="stroke-dashoffset" values="540; 0" calcMode="linear" dur="3s" begin="animation2.end"/>
        <animate id="visible1" attributeName="visibility" begin="animation2.end" from="hidden" to="visible" dur="0.1s"/>
        <animate id="visible2" attributeName="visibility" begin="visible1.end" from="visible" to="visible" dur="6.9s"/>
    </path>
    <path class="st4" stroke-dasharray="540" stroke-dashoffset="0" d="M474.2,368.4v-44.9h-73.4V196.4">
        <animate id="animation3" attributeName="stroke-dashoffset" values="540; 0" calcMode="linear" dur="3s" begin="animation2.end"/>
        <animate id="visible1" attributeName="visibility" begin="animation2.end" from="hidden" to="visible" dur="0.1s"/>
        <animate id="visible2" attributeName="visibility" begin="visible1.end" from="visible" to="visible" dur="6.9s"/>
    </path>
	<path class="st4" stroke-dasharray="540" stroke-dashoffset="0" d="M407.3,554.8H291.7">
        <animate id="animation3" attributeName="stroke-dashoffset" values="540; 0" calcMode="linear" dur="3s" begin="animation2.end"/>
        <animate id="visible1" attributeName="visibility" begin="animation2.end" from="hidden" to="visible" dur="0.1s"/>
        <animate id="visible2" attributeName="visibility" begin="visible1.end" from="visible" to="visible" dur="6.9s"/>
    </path>
	<path class="st4" stroke-dasharray="540" stroke-dashoffset="0" d="M411.2,608.9H301.9v105.2">
        <animate id="animation3" attributeName="stroke-dashoffset" values="540; 0" calcMode="linear" dur="3s" begin="animation2.end"/>
        <animate id="visible1" attributeName="visibility" begin="animation2.end" from="hidden" to="visible" dur="0.1s"/>
        <animate id="visible2" attributeName="visibility" begin="visible1.end" from="visible" to="visible" dur="6.9s"/>
    </path>
	<path class="st4" stroke-dasharray="540" stroke-dashoffset="0" d="M732.7,369.7v-42.3h89.5v-57.8">
        <animate id="animation3" attributeName="stroke-dashoffset" values="540; 0" calcMode="linear" dur="3s" begin="animation2.end"/>
        <animate id="visible1" attributeName="visibility" begin="animation2.end" from="hidden" to="visible" dur="0.1s"/>
        <animate id="visible2" attributeName="visibility" begin="visible1.end" from="visible" to="visible" dur="6.9s"/>
    </path>
	<path class="st4" stroke-dasharray="540" stroke-dashoffset="0" d="M878.1,439.2h86.7V339">
        <animate id="animation3" attributeName="stroke-dashoffset" values="540; 0" calcMode="linear" dur="3s" begin="animation2.end"/>
        <animate id="visible1" attributeName="visibility" begin="animation2.end" from="hidden" to="visible" dur="0.1s"/>
        <animate id="visible2" attributeName="visibility" begin="visible1.end" from="visible" to="visible" dur="6.9s"/>
    </path>
	<path class="st4" stroke-dasharray="540" stroke-dashoffset="0" d="M875.5,548.5h90.6">
        <animate id="animation3" attributeName="stroke-dashoffset" values="540; 0" calcMode="linear" dur="3s" begin="animation2.end"/>
        <animate id="visible1" attributeName="visibility" begin="animation2.end" from="hidden" to="visible" dur="0.1s"/>
        <animate id="visible2" attributeName="visibility" begin="visible1.end" from="visible" to="visible" dur="6.9s"/>
    </path>
	<path class="st4" stroke-dasharray="540" stroke-dashoffset="0" d="M879.4,623.1h39.2v-24.6h69.4">
        <animate id="animation3" attributeName="stroke-dashoffset" values="540; 0" calcMode="linear" dur="3s" begin="animation2.end"/>
        <animate id="visible1" attributeName="visibility" begin="animation2.end" from="hidden" to="visible" dur="0.1s"/>
        <animate id="visible2" attributeName="visibility" begin="visible1.end" from="visible" to="visible" dur="6.9s"/>
    </path>
	<path class="st4" stroke-dasharray="540" stroke-dashoffset="0" d="M587.2,368.7v-78.5h-63V151.4">
        <animate id="animation3" attributeName="stroke-dashoffset" values="540; 0" calcMode="linear" dur="3s" begin="animation2.end"/>
        <animate id="visible1" attributeName="visibility" begin="animation2.end" from="hidden" to="visible" dur="0.1s"/>
        <animate id="visible2" attributeName="visibility" begin="visible1.end" from="visible" to="visible" dur="6.9s"/>
    </path>
	<path class="st4" stroke-dasharray="540" stroke-dashoffset="0" d="M860.7,369.8v-53.7h75.8v-85.1">
        <animate id="animation3" attributeName="stroke-dashoffset" values="540; 0" calcMode="linear" dur="3s" begin="animation2.end"/>
        <animate id="visible1" attributeName="visibility" begin="animation2.end" from="hidden" to="visible" dur="0.1s"/>
        <animate id="visible2" attributeName="visibility" begin="visible1.end" from="visible" to="visible" dur="6.9s"/>
    </path>
	<path class="st4" stroke-dasharray="540" stroke-dashoffset="0" d="M503.5,676.6v133.8">
        <animate id="animation3" attributeName="stroke-dashoffset" values="540; 0" calcMode="linear" dur="3s" begin="animation2.end"/>
        <animate id="visible1" attributeName="visibility" begin="animation2.end" from="hidden" to="visible" dur="0.1s"/>
        <animate id="visible2" attributeName="visibility" begin="visible1.end" from="visible" to="visible" dur="6.9s"/>
    </path>
	<path class="st4" stroke-dasharray="540" stroke-dashoffset="0" d="M799.7,671.6v197.9">
        <animate id="animation3" attributeName="stroke-dashoffset" values="540; 0" calcMode="linear" dur="3s" begin="animation2.end"/>
        <animate id="visible1" attributeName="visibility" begin="animation2.end" from="hidden" to="visible" dur="0.1s"/>
        <animate id="visible2" attributeName="visibility" begin="visible1.end" from="visible" to="visible" dur="6.9s"/>
    </path>

</g>
<g id="Circles" opacity="0">
	<circle class="st2" cx="529.3" cy="101.3" r="54"/>
	<circle class="st2" cx="932.7" cy="174.6" r="54"/>
	<circle class="st2" cx="804.2" cy="922.2" r="54"/>
	<circle class="st2" cx="506.2" cy="865.7" r="54"/>
	<circle class="st4" cx="400.2" cy="186.8" r="10.9"/>
	<circle class="st4" cx="343.7" cy="375.6" r="10.9"/>
	<circle class="st4" cx="280.7" cy="552.9" r="10.9"/>
	<circle class="st4" cx="301.3" cy="722.4" r="10.9"/>
	<circle class="st4" cx="998.8" cy="600.4" r="10.9"/>
	<circle class="st4" cx="975.1" cy="549" r="10.9"/>
	<circle class="st4" cx="965.4" cy="328.1" r="10.9"/>
	<circle class="st4" cx="821.6" cy="260" r="10.9"/>
    <animate id="opacity1" dur="1s" attributeName="opacity" from="0" to="1" begin="animation3.end" fill="remove" />
    <animate id="animation4" dur="3s" attributeName="opacity" from="1" to="1" begin="opacity1.end" fill="remove" />
</g>
</svg>
