<?xml version="1.0" encoding="utf-8"?>
<!-- Generator: Adobe Illustrator 21.1.0, SVG Export Plug-In . SVG Version: 6.00 Build 0) -->
<svg version="1.1" id="Contacts_1_" xmlns="http://www.w3.org/2000/svg" xmlns:xlink="http://www.w3.org/1999/xlink" x="0px" y="0px" width="600px" height="600px" viewBox="0 0 600 600" style="enable-background:new 0 0 600 600;" xml:space="preserve">
	<style type="text/css">
		.st0 {fill: none;stroke: #D85080;stroke-width: 1.5;stroke-miterlimit: 10;}
		.st1 {fill: #D85080;}
		.st2 {fill: #FFFFFF;}
		.st3 {fill: #E85C94;}
		#ball_1, #ball_2, #ball_3, #ball_4, #ball_5, #ball_6 {opacity: 0;}
	</style>
	<g id="Lines">
		<path id="theMotionPath6" class="st0" d="M322.7,332.8V503"/>
		<path id="theMotionPath5" class="st0" d="M397.6,331.8V417c0,21.5,17.4,39,39,39h15.1"/>
		<path id="theMotionPath4" class="st0" d="M421.1,315.7H523"/>
		<path id="theMotionPath3" class="st0" d="M359,257.9h100.6c19.5,0,35.3-15.8,35.3-35.3V203"/>
		<path id="theMotionPath2" class="st0" d="M357.4,302V131.8"/>
		<path id="theMotionPath1" class="st0" d="M125.1,96.6v152.2c0,30.2,24.5,54.6,54.6,54.6l0,0"/>
	</g>
	<g id="Icons">
		<g id="Cloud">
			<path
				class="st1"
				d="M434.9,311.3c0-12.4-9.3-22.7-21.3-24.3c-1.5-12-11.8-21.3-24.3-21.3c-4.6,0-8.9,1.3-12.5,3.5
			c-2.1-14.5-14.6-25.7-29.7-25.7c-8.4,0-16,3.4-21.4,9c-4.9-19.2-22.3-33.4-43.1-33.4c-23.1,0-42,17.6-44.3,40
			c-3.1-1.4-6.6-2.2-10.2-2.2c-11.7,0-21.4,8.2-23.9,19.1c-0.9-0.1-1.9-0.2-2.8-0.2c-8.6,0-16.2,4.5-20.5,11.2
			c-12.7,0.8-22.8,11.4-22.8,24.4c0,13.1,10.4,23.9,23.3,24.4l0,0h230.2l0,0C424.5,335.2,434.9,324.4,434.9,311.3z"/>
		</g>
		<g id="Office">
			<path class="st1" d="M410,553.6H237.1c-6.6,0-12-5.4-12-12v-32.4c0-6.6,5.4-12,12-12H410c6.6,0,12,5.4,12,12v32.4
			C422,548.2,416.6,553.6,410,553.6z"/>
			<g>
				<path
					class="st2"
					d="M243.4,534.5L243.4,534.5c0.1,0.1,0.1,0.1,0.2,0.2c6,2.2,11.9,4.4,17.9,6.6c0.2,0.1,0.5,0.1,0.8,0
				c3.2-0.9,6.5-1.8,9.7-2.7c0.3-0.1,0.4-0.3,0.4-0.6c0-9.5,0-19,0-28.5c0-0.4-0.1-0.5-0.5-0.6c-3.2-0.9-6.5-1.9-9.7-2.8
				c-0.2-0.1-0.5,0-0.8,0c-6,2.3-12.1,4.5-18.1,6.8c-0.4,0.1-0.5,0.3-0.5,0.8c0,6.7,0,13.4,0,20.1c0,0.2,0,0.3,0,0.6
				c0.3-0.1,0.5-0.2,0.7-0.3c1.8-0.7,3.5-1.4,5.3-2c0.4-0.1,0.5-0.3,0.5-0.7c0-5.4,0-10.9,0-16.3c0-0.4,0.1-0.5,0.5-0.6
				c2.8-0.6,5.6-1.3,8.4-2c1.2-0.3,2.5-0.6,3.7-0.9c0,8.5,0,17,0,25.5C255.7,536.2,249.5,535.3,243.4,534.5z M309.8,534.3
				c0-4.4,0-8.7,0-13.1c2,0,4,0,6,0c0,4.4,0,8.7,0,13.1c0.8,0,1.6,0,2.4,0c0-4.4,0-8.7,0-13.1c1.2,0,2.3,0,3.5,0c0-0.7,0-1.3,0-2
				c-0.2,0-0.4,0-0.6,0c-0.8,0-1.7,0-2.5,0c-0.2,0-0.4,0-0.4-0.4c0-1,0-2,0.1-3c0.2-1.5,1.1-2.3,2.6-2.2c0.5,0,0.9,0.2,1.4,0.3
				c0-0.3,0-0.7,0-1c0-1.2,0-1.2-1.2-1.3c-2.6-0.3-4.8,1.3-5.3,3.9c-0.2,1-0.1,1.9-0.1,2.9c0,0.3,0,0.5,0,0.8c-1.9,0-3.8,0-5.7,0
				c-0.1,0-0.3-0.2-0.3-0.4c0-1,0-2,0.1-3c0.2-1.6,1.2-2.3,2.7-2.2c0.4,0,0.9,0.2,1.4,0.3c0-0.4,0-0.7,0-1c0-1.1,0-1.1-1.2-1.3
				c-2.6-0.3-4.8,1.2-5.3,3.8c-0.2,1.1-0.1,2.2-0.2,3.3c0,0.4-0.1,0.5-0.5,0.5c-0.7,0-1.3,0-2,0c0,0.7,0,1.3,0,2c0.8,0,1.7,0,2.5,0
				c0,0.3,0,0.5,0,0.6c0,3.9,0,7.9,0,11.8c0,0.1,0,0.3,0,0.4c0,0.1,0.2,0.3,0.3,0.3C308.4,534.3,309,534.3,309.8,534.3z
				 M303.4,523.5c-0.1-1-0.2-2-0.4-3c-0.7-3.2-2.4-5.7-5.5-7c-1.8-0.8-3.7-0.9-5.6-0.6c-3.2,0.5-5.8,2-7.2,5
				c-1.7,3.4-1.9,7-0.6,10.5c0.9,2.7,2.7,4.6,5.5,5.7c1.7,0.7,3.5,0.8,5.4,0.5c3-0.4,5.4-1.9,6.9-4.5
				C302.9,528,303.3,525.8,303.4,523.5z M388.5,515.4c0-0.5,0-1.1,0-1.6c0-0.4-0.1-0.6-0.5-0.7c-1.5-0.4-3.1-0.6-4.6-0.2
				c-2.5,0.5-4.2,2.1-5.4,4.3c-1.2,2.4-1.6,4.9-1.7,7.5c0,2.2,0.2,4.3,1.1,6.3c2.3,4.8,8,4.4,10.4,1.7c1.5-1.7,2-3.7,1.9-5.9
				c-0.2-3.1-2.2-5.5-5.3-5.8c-2.3-0.2-4.2,0.5-5.4,2.6c-0.1,0.1-0.1,0.2-0.2,0.3c0-0.1-0.1-0.2-0.1-0.2c0-0.3,0-0.6,0-1
				c0.1-2.1,0.6-4.1,1.9-5.8c1.2-1.7,2.9-2.5,5-2.2C386.6,514.9,387.5,515.2,388.5,515.4z M355.3,527.4c-0.1-1.1-0.1-2.1-0.2-3.1
				c-0.3-1.8-1-3.4-2.6-4.5c-2.4-1.6-7.1-1.5-9.3,2.4c-1.6,2.8-1.6,5.8-0.4,8.8c0.8,1.9,2.3,3.2,4.4,3.5c0.9,0.2,1.8,0.2,2.7,0.1
				c1.4-0.1,2.8-0.4,4-1.2c0.1-0.1,0.3-0.2,0.3-0.3c0-0.7,0-1.4,0-2.1c-1.3,1-2.6,1.5-4.1,1.6c-3.8,0.3-5.6-2.2-5.5-5.3
				C348.1,527.4,351.7,527.4,355.3,527.4z M392.2,531.4c0,0.6,0,1.2,0,1.8c-0.1,0.6,0.2,0.8,0.7,1c1.6,0.6,3.3,0.6,5,0.4
				c1.4-0.1,2.8-0.6,3.9-1.6c1.9-1.5,2.4-3.6,2.3-5.9c-0.2-2.4-1.4-4.1-3.6-5.1c-1.5-0.6-3-0.7-4.6-0.6c-0.3,0-0.6,0-0.8,0
				c0-0.1,0-0.1,0-0.2c0.1-1.9,0.3-3.8,0.4-5.6c0-0.4,0.2-0.4,0.5-0.4c2.2,0,4.4,0,6.6,0c0.2,0,0.4,0,0.6,0c0-0.7,0-1.4,0-2.1
				c-3.3,0-6.5,0-9.8,0c-0.2,3.5-0.5,7.1-0.7,10.6c0.6,0,1.1-0.1,1.6-0.1c1.3,0,2.6,0,3.9,0.2c2.1,0.3,3.4,1.8,3.5,3.9
				c0.1,2.2-1,4-3,4.7c-1.4,0.5-2.8,0.5-4.2,0C393.7,532.1,393,531.7,392.2,531.4z M363.6,524.4c0.7,0,1.4,0,2,0
				c1.2,0,2.4,0.2,3.5,0.7c0.9,0.4,1.6,1.1,1.9,2c0.7,2.4-0.2,4.6-2.7,5.3c-2.2,0.6-4.3,0.2-6.3-1c-0.2-0.1-0.3-0.2-0.6-0.3
				c0,0.7,0,1.3,0,1.9c-0.1,0.6,0.2,0.8,0.7,1c1.7,0.7,3.4,0.8,5.2,0.7c1.7-0.1,3.2-0.7,4.5-1.8c1.7-1.6,2.2-3.6,1.7-5.8
				c-0.5-2-2-3.1-3.9-3.6c-0.3-0.1-0.5-0.1-0.9-0.2c0.5-0.2,1-0.4,1.4-0.6c2.2-1.1,2.9-3,2.7-5.3c-0.2-2.1-1.4-3.4-3.3-4.1
				c-2.4-0.8-4.8-0.5-7.1,0.6c-0.1,0.1-0.2,0.2-0.2,0.3c0,0.7,0,1.4,0,2.1c0.1,0,0.1,0,0.1,0c0.1-0.1,0.2-0.1,0.3-0.2
				c1.5-1,3.1-1.4,4.9-1.1c1.2,0.2,2.3,0.7,2.7,2c0.7,1.9,0.3,4.6-2.7,5.3c-0.4,0.1-0.7,0.2-1.1,0.2c-0.9,0-1.9,0-2.9,0
				C363.6,523,363.6,523.6,363.6,524.4z M340.3,531.5c-0.7,0.3-1.2,0.6-1.8,0.9c-3.1,1.1-6-0.3-6.8-3.3c-0.2-0.9-0.3-1.9-0.2-2.8
				c0.2-4.3,4.2-6.6,8-4.7c0.3,0.1,0.6,0.3,0.9,0.5c0-0.7,0-1.4,0-2c0-0.3-0.1-0.4-0.4-0.6c-1.2-0.5-2.5-0.6-3.8-0.6
				c-3,0.1-5.6,1.9-6.6,4.8c-0.5,1.5-0.7,3-0.5,4.6c0.8,6.5,7,7.7,11,5.6c0.1-0.1,0.3-0.2,0.3-0.4
				C340.3,532.8,340.3,532.1,340.3,531.5z M324.1,519.2c0,5.1,0,10.1,0,15.1c0.6,0,1.2,0,1.7,0s0.7-0.1,0.7-0.6c0-4.6,0-9.3,0-13.9
				c0-0.1,0-0.2,0-0.3c-0.1-0.1-0.2-0.3-0.3-0.3C325.5,519.2,324.8,519.2,324.1,519.2z M325.3,515.3c0.9,0,1.6-0.6,1.6-1.5
				s-0.7-1.6-1.6-1.6s-1.6,0.7-1.6,1.6C323.7,514.6,324.3,515.3,325.3,515.3z"/>
				<path
					class="st2"
					d="M243.4,534.5c6.1,0.8,12.3,1.7,18.5,2.5c0-8.5,0-17,0-25.5c-1.3,0.3-2.5,0.6-3.7,0.9c-2.8,0.7-5.6,1.3-8.4,2
				c-0.4,0.1-0.5,0.3-0.5,0.6c0,5.4,0,10.9,0,16.3c0,0.4-0.1,0.6-0.5,0.7c-1.8,0.7-3.5,1.4-5.3,2c-0.2,0.1-0.4,0.2-0.7,0.3
				c0-0.2,0-0.4,0-0.6c0-6.7,0-13.4,0-20.1c0-0.4,0.1-0.6,0.5-0.8c6-2.3,12.1-4.5,18.1-6.8c0.2-0.1,0.5-0.1,0.8,0
				c3.2,0.9,6.5,1.9,9.7,2.8c0.4,0.1,0.5,0.3,0.5,0.6c0,9.5,0,19,0,28.5c0,0.3-0.1,0.5-0.4,0.6c-3.2,0.9-6.5,1.8-9.7,2.7
				c-0.2,0.1-0.5,0.1-0.8,0c-6-2.2-11.9-4.4-17.9-6.6C243.5,534.6,243.5,534.6,243.4,534.5L243.4,534.5z"/>
				<path
					class="st2"
					d="M309.8,534.3c-0.8,0-1.4,0-2.1,0c-0.1,0-0.2-0.2-0.3-0.3c0-0.1,0-0.3,0-0.4c0-3.9,0-7.9,0-11.8
				c0-0.2,0-0.4,0-0.6c-0.9,0-1.7,0-2.5,0c0-0.7,0-1.3,0-2c0.7,0,1.4,0,2,0c0.4,0,0.5-0.1,0.5-0.5c0-1.1,0-2.2,0.2-3.3
				c0.5-2.6,2.7-4.1,5.3-3.8c1.2,0.1,1.2,0.1,1.2,1.3c0,0.3,0,0.7,0,1c-0.5-0.1-0.9-0.2-1.4-0.3c-1.6-0.1-2.6,0.7-2.7,2.2
				c-0.1,1-0.1,2-0.1,3c0,0.1,0.2,0.4,0.3,0.4c1.9,0,3.7,0,5.7,0c0-0.3,0-0.6,0-0.8c0-1,0-2,0.1-2.9c0.4-2.6,2.7-4.1,5.3-3.9
				c1.2,0.1,1.2,0.1,1.2,1.3c0,0.3,0,0.7,0,1c-0.5-0.1-1-0.2-1.4-0.3c-1.5-0.1-2.5,0.7-2.6,2.2c-0.1,1-0.1,2-0.1,3
				c0,0.3,0.2,0.4,0.4,0.4c0.8,0,1.7,0,2.5,0c0.2,0,0.4,0,0.6,0c0,0.7,0,1.3,0,2c-1.2,0-2.3,0-3.5,0c0,4.4,0,8.7,0,13.1
				c-0.8,0-1.6,0-2.4,0c0-4.4,0-8.7,0-13.1c-2,0-4,0-6,0C309.8,525.6,309.8,529.9,309.8,534.3z"/>
				<path
					class="st2"
					d="M303.4,523.5c-0.1,2.3-0.5,4.5-1.7,6.5c-1.6,2.7-3.9,4.1-6.9,4.5c-1.8,0.2-3.6,0.1-5.4-0.5
				c-2.7-1-4.5-3-5.5-5.7c-1.2-3.6-1.1-7.1,0.6-10.5c1.5-3,4-4.5,7.2-5c1.9-0.3,3.8-0.1,5.6,0.6c3.1,1.3,4.8,3.8,5.5,7
				C303.2,521.5,303.2,522.5,303.4,523.5z M300.8,523.7c-0.1-0.9-0.1-1.7-0.3-2.6c-0.3-1.7-1-3.3-2.3-4.5c-2.6-2.5-8.4-2.6-11,1.7
				c-1.7,2.9-1.8,6-0.8,9.1c0.9,2.9,2.9,4.6,6,5c3.1,0.3,6.1-0.8,7.5-4.1C300.5,526.8,300.7,525.3,300.8,523.7z"/>
				<path
					class="st2"
					d="M388.5,515.4c-1-0.2-1.9-0.5-2.8-0.6c-2.1-0.3-3.8,0.5-5,2.2c-1.3,1.7-1.7,3.7-1.9,5.8c0,0.3,0,0.6,0,1
				c0,0,0,0.1,0.1,0.2c0.1-0.1,0.2-0.2,0.2-0.3c1.2-2.1,3.1-2.8,5.4-2.6c3.1,0.3,5.1,2.6,5.3,5.8c0.2,2.2-0.4,4.2-1.9,5.9
				c-2.4,2.7-8.2,3.1-10.4-1.7c-0.9-2-1.2-4.1-1.1-6.3c0-2.6,0.4-5.2,1.7-7.5c1.2-2.2,2.9-3.8,5.4-4.3c1.6-0.3,3.1-0.2,4.6,0.2
				c0.4,0.1,0.5,0.3,0.5,0.7C388.5,514.4,388.5,514.9,388.5,515.4z M383.2,523.1c-1.3,0-2.3,0.4-3.2,1.4c-1.8,1.9-1.2,5.3,0.3,6.9
				c2,2.1,5.4,1.5,6.5-1.2c0.5-1.1,0.5-2.2,0.4-3.3C387,524.6,385.5,523.1,383.2,523.1z"/>
				<path
					class="st2"
					d="M355.3,527.4c-3.6,0-7.2,0-10.7,0c-0.1,3.1,1.7,5.6,5.5,5.3c1.5-0.1,2.8-0.7,4.1-1.6c0,0.8,0,1.4,0,2.1
				c0,0.1-0.2,0.3-0.3,0.3c-1.2,0.8-2.6,1.1-4,1.2c-0.9,0-1.8,0-2.7-0.1c-2.1-0.4-3.6-1.6-4.4-3.5c-1.2-3-1.2-5.9,0.4-8.8
				c2.2-4,6.9-4.1,9.3-2.4c1.6,1.1,2.3,2.6,2.6,4.5C355.3,525.2,355.3,526.3,355.3,527.4z M352.8,525.3c0-0.1,0.1-0.1,0-0.2
				c0-0.3,0-0.5-0.1-0.8c-0.2-1.4-0.8-2.7-2.2-3.2c-3.3-1.2-5.7,1.5-5.9,4.1C347.3,525.3,350,525.3,352.8,525.3z"/>
				<path
					class="st2"
					d="M392.2,531.4c0.8,0.3,1.5,0.7,2.2,0.9c1.4,0.5,2.8,0.5,4.2,0c2-0.7,3.1-2.5,3-4.7c-0.1-2-1.4-3.5-3.5-3.9
				c-1.3-0.2-2.6-0.1-3.9-0.2c-0.5,0-1,0.1-1.6,0.1c0.2-3.5,0.5-7.1,0.7-10.6c3.3,0,6.5,0,9.8,0c0,0.7,0,1.4,0,2.1
				c-0.2,0-0.4,0-0.6,0c-2.2,0-4.4,0-6.6,0c-0.3,0-0.5,0.1-0.5,0.4c-0.1,1.9-0.2,3.8-0.4,5.6c0,0,0,0.1,0,0.2c0.3,0,0.6,0,0.8,0
				c1.6-0.1,3.1,0,4.6,0.6c2.3,0.9,3.5,2.6,3.6,5.1c0.2,2.3-0.4,4.3-2.3,5.9c-1.1,0.9-2.4,1.4-3.9,1.6c-1.7,0.2-3.4,0.1-5-0.4
				c-0.5-0.2-0.7-0.4-0.7-1C392.3,532.6,392.2,532,392.2,531.4z"/>
				<path
					class="st2"
					d="M363.6,524.4c0-0.7,0-1.3,0-2.1c1,0,1.9,0,2.9,0c0.4,0,0.7-0.1,1.1-0.2c3-0.7,3.3-3.4,2.7-5.3
				c-0.4-1.3-1.5-1.8-2.7-2c-1.8-0.3-3.4,0.1-4.9,1.1c-0.1,0.1-0.2,0.1-0.3,0.2c0,0,0,0-0.1,0c0-0.7,0-1.4,0-2.1
				c0-0.1,0.1-0.2,0.2-0.3c2.3-1.1,4.7-1.4,7.1-0.6c1.9,0.7,3.1,2,3.3,4.1c0.2,2.3-0.6,4.2-2.7,5.3c-0.4,0.2-0.9,0.4-1.4,0.6
				c0.4,0.1,0.6,0.1,0.9,0.2c2,0.5,3.5,1.6,3.9,3.6c0.5,2.2,0,4.2-1.7,5.8c-1.3,1.2-2.8,1.7-4.5,1.8c-1.8,0.1-3.5,0-5.2-0.7
				c-0.5-0.2-0.8-0.5-0.7-1c0.1-0.6,0-1.2,0-1.9c0.2,0.1,0.4,0.2,0.6,0.3c2,1.2,4.1,1.6,6.3,1c2.5-0.7,3.4-2.9,2.7-5.3
				c-0.3-1-1-1.6-1.9-2c-1.1-0.5-2.3-0.7-3.5-0.7C365,524.3,364.3,524.4,363.6,524.4z"/>
				<path
					class="st2"
					d="M340.3,531.5c0,0.7,0,1.3,0,2c0,0.1-0.2,0.3-0.3,0.4c-4,2-10.2,0.8-11-5.6c-0.2-1.6,0-3.1,0.5-4.6
				c1.1-2.8,3.6-4.6,6.6-4.8c1.3-0.1,2.6,0.1,3.8,0.6c0.3,0.1,0.4,0.2,0.4,0.6c0,0.7,0,1.3,0,2c-0.3-0.2-0.6-0.3-0.9-0.5
				c-3.8-1.9-7.8,0.4-8,4.7c0,0.9,0,1.9,0.2,2.8c0.8,3,3.8,4.4,6.8,3.3C339.1,532.1,339.7,531.8,340.3,531.5z"/>
				<path class="st2" d="M324.1,519.2c0.7,0,1.4,0,2.1,0c0.1,0,0.2,0.2,0.3,0.3c0,0.1,0,0.2,0,0.3c0,4.6,0,9.3,0,13.9
				c0,0.5-0.2,0.7-0.7,0.6c-0.6,0-1.1,0-1.7,0C324.1,529.3,324.1,524.3,324.1,519.2z"/>
				<path class="st2" d="M325.3,515.3c-0.9,0-1.6-0.6-1.6-1.5s0.7-1.6,1.6-1.6s1.6,0.7,1.6,1.6C326.8,514.6,326.2,515.3,325.3,515.3z
				"/>
				<path class="st1" d="M300.8,523.7c0,1.6-0.3,3.1-0.9,4.5c-1.5,3.3-4.4,4.5-7.5,4.1c-3.1-0.3-5-2.1-6-5c-1-3.1-0.9-6.2,0.8-9.1
				c2.5-4.3,8.3-4.2,11-1.7c1.3,1.2,2,2.8,2.3,4.5C300.6,522,300.7,522.9,300.8,523.7z"/>
				<path class="st1" d="M383.2,523.1c2.2,0,3.8,1.5,4,3.8c0.1,1.1,0.1,2.2-0.4,3.3c-1.2,2.7-4.5,3.3-6.5,1.2c-1.5-1.6-2.1-5-0.3-6.9
				C380.9,523.5,382,523.1,383.2,523.1z"/>
				<path class="st1" d="M352.8,525.3c-2.7,0-5.4,0-8.1,0c0.2-2.6,2.6-5.4,5.9-4.1c1.4,0.5,2,1.8,2.2,3.2c0,0.2,0.1,0.5,0.1,0.8
				C352.8,525.1,352.8,525.2,352.8,525.3z"/>
			</g>
		</g>
		<g id="CSV">
			<path class="st1" d="M504.4,419.1h-42c-5.7,0-10.4,4.7-10.4,10.4v76.1c0,5.7,4.7,10.4,10.4,10.4h56.2c5.7,0,10.4-4.7,10.4-10.4
			v-61.9L504.4,419.1z"/>
			<path class="st3" d="M504,419.1v15.6c0,5.7,4.7,10.4,10.4,10.4H529v-1.4l-24.6-24.6H504z"/>
			<g>
				<path class="st2" d="M466.9,480.1h-4.1v-4.3h4.1V480.1z"/>
				<path
					class="st2"
					d="M478.5,480.4c-1.2,0-2.3-0.2-3.4-0.5s-1.9-0.9-2.7-1.6c-0.7-0.7-1.3-1.6-1.7-2.7c-0.4-1.1-0.6-2.3-0.6-3.7
				c0-1.3,0.2-2.5,0.6-3.5s1-2,1.7-2.7s1.6-1.3,2.6-1.7c1.1-0.4,2.2-0.6,3.4-0.6c0.7,0,1.3,0,1.9,0.1s1.1,0.2,1.5,0.3
				c0.5,0.1,0.9,0.3,1.3,0.5s0.8,0.3,1.1,0.5v4h-0.5c-0.2-0.2-0.5-0.4-0.8-0.6s-0.7-0.5-1.1-0.7s-0.8-0.4-1.3-0.6s-1-0.2-1.5-0.2
				c-0.6,0-1.2,0.1-1.7,0.3s-1,0.5-1.5,0.9c-0.4,0.4-0.8,1-1.1,1.7s-0.4,1.5-0.4,2.5s0.1,1.9,0.4,2.6s0.7,1.2,1.1,1.6
				s0.9,0.7,1.5,0.9c0.6,0.2,1.1,0.3,1.6,0.3s1-0.1,1.5-0.2s1-0.4,1.4-0.6s0.7-0.4,1-0.7c0.3-0.2,0.6-0.4,0.8-0.6h0.4v3.9
				c-0.4,0.2-0.8,0.4-1.2,0.5c-0.4,0.2-0.8,0.3-1.2,0.4c-0.5,0.2-1,0.3-1.5,0.4C479.9,480.4,479.3,480.4,478.5,480.4z"/>
				<path
					class="st2"
					d="M500.5,475c0,1.6-0.7,2.9-2.1,3.9s-3.2,1.5-5.6,1.5c-1.4,0-2.5-0.1-3.5-0.4c-1-0.2-2-0.5-2.8-0.9v-3.9h0.5
				c0.9,0.7,1.8,1.2,2.9,1.6s2.1,0.6,3.1,0.6c0.3,0,0.6,0,1-0.1s0.8-0.1,1-0.2c0.3-0.1,0.6-0.3,0.8-0.5s0.3-0.5,0.3-0.9
				s-0.2-0.7-0.5-0.9c-0.3-0.3-0.8-0.5-1.3-0.6c-0.6-0.1-1.3-0.3-2-0.4s-1.3-0.3-1.9-0.5c-1.4-0.4-2.4-1.1-3-1.8
				c-0.6-0.8-0.9-1.7-0.9-2.9c0-1.5,0.7-2.8,2.1-3.7c1.4-1,3.1-1.4,5.3-1.4c1.1,0,2.1,0.1,3.2,0.3c1.1,0.2,2,0.5,2.7,0.8v3.8h-0.5
				c-0.7-0.5-1.5-1-2.4-1.3c-1-0.4-1.9-0.5-2.9-0.5c-0.4,0-0.7,0-1,0.1c-0.3,0-0.7,0.1-1,0.3c-0.3,0.1-0.5,0.3-0.7,0.5
				s-0.3,0.5-0.3,0.8c0,0.4,0.2,0.8,0.5,1s1,0.4,1.9,0.6c0.6,0.1,1.2,0.2,1.7,0.4c0.6,0.1,1.1,0.3,1.8,0.5c1.3,0.4,2.2,1,2.8,1.7
				C500.2,472.9,500.5,473.8,500.5,475z"/>
				<path class="st2" d="M518.2,463.7l-6,16.4h-4.7l-6-16.4h4.4l4,11.5l4-11.5H518.2z"/>
			</g>
		</g>
		<g id="XLSX">
			<path class="st1" d="M572.4,267.3h-42c-5.7,0-10.4,4.7-10.4,10.4v76.1c0,5.7,4.7,10.4,10.4,10.4h56.2c5.7,0,10.4-4.7,10.4-10.4
			v-61.9L572.4,267.3z"/>
			<path class="st3" d="M571.9,267.3v15.6c0,5.7,4.7,10.4,10.4,10.4H597v-1.4l-24.6-24.6H571.9z"/>
			<g>
				<path class="st2" d="M534.9,326.9h-3.1v-3.3h3.1V326.9z"/>
				<path class="st2" d="M549.4,326.9h-3.7l-2.7-4.1l-2.7,4.1h-3.6l4.4-6.3l-4.3-6.2h3.7l2.6,3.9l2.7-3.9h3.6l-4.4,6.1L549.4,326.9z"/>
				<path class="st2" d="M560.2,326.9h-9v-12.5h3.2v10.1h5.8V326.9z"/>
				<path
					class="st2"
					d="M572.2,323c0,1.2-0.5,2.2-1.6,3c-1,0.8-2.5,1.2-4.3,1.2c-1,0-1.9-0.1-2.7-0.3c-0.8-0.2-1.5-0.4-2.2-0.7v-3
				h0.4c0.7,0.5,1.4,0.9,2.2,1.2c0.8,0.3,1.6,0.4,2.4,0.4c0.2,0,0.5,0,0.8-0.1c0.3,0,0.6-0.1,0.8-0.2s0.5-0.2,0.6-0.4
				c0.2-0.2,0.2-0.4,0.2-0.7c0-0.3-0.1-0.5-0.3-0.7s-0.6-0.4-1-0.5c-0.5-0.1-1-0.2-1.5-0.3c-0.5-0.1-1-0.2-1.5-0.4
				c-1.1-0.3-1.8-0.8-2.3-1.4s-0.7-1.3-0.7-2.2c0-1.2,0.5-2.1,1.6-2.9c1-0.7,2.4-1.1,4-1.1c0.8,0,1.6,0.1,2.4,0.2
				c0.8,0.2,1.5,0.4,2.1,0.6v2.9h-0.3c-0.5-0.4-1.1-0.7-1.9-1c-0.7-0.3-1.5-0.4-2.2-0.4c-0.3,0-0.5,0-0.8,0.1
				c-0.3,0-0.5,0.1-0.8,0.2c-0.2,0.1-0.4,0.2-0.6,0.4c-0.2,0.2-0.2,0.4-0.2,0.6c0,0.3,0.1,0.6,0.4,0.8s0.7,0.3,1.4,0.5
				c0.5,0.1,0.9,0.2,1.3,0.3c0.4,0.1,0.9,0.2,1.4,0.4c1,0.3,1.7,0.7,2.1,1.3C572,321.4,572.2,322.1,572.2,323z"/>
				<path class="st2" d="M585.8,326.9H582l-2.7-4.1l-2.7,4.1H573l4.4-6.3l-4.3-6.2h3.7l2.6,3.9l2.7-3.9h3.6l-4.4,6.1L585.8,326.9z"/>
			</g>
		</g>
		<g id="vCard">
			<path class="st1" d="M505.9,109.7h-42c-5.7,0-10.4,4.7-10.4,10.4v76.1c0,5.7,4.7,10.4,10.4,10.4h56.2c5.7,0,10.4-4.7,10.4-10.4
			v-61.9L505.9,109.7z"/>
			<path class="st3" d="M505.4,109.7v15.6c0,5.7,4.7,10.4,10.4,10.4h14.7v-1.4l-24.6-24.6C505.9,109.7,505.4,109.7,505.4,109.7z"/>
			<g>
				<path class="st2" d="M466.8,169.1h-3v-3.2h3V169.1z"/>
				<path class="st2" d="M478.7,160l-3.5,9.1h-3.3l-3.5-9.1h3.1l2.1,6.2l2.1-6.2H478.7z"/>
				<path
					class="st2"
					d="M485.9,169.3c-0.9,0-1.7-0.1-2.5-0.4s-1.4-0.7-1.9-1.2s-1-1.2-1.3-2s-0.4-1.7-0.4-2.7s0.1-1.8,0.4-2.6
				s0.7-1.4,1.2-2c0.5-0.5,1.2-0.9,1.9-1.2c0.8-0.3,1.6-0.4,2.5-0.4c0.5,0,1,0,1.4,0.1s0.8,0.1,1.1,0.2c0.4,0.1,0.7,0.2,1,0.3
				s0.5,0.2,0.8,0.4v2.9h-0.4c-0.2-0.1-0.3-0.3-0.6-0.5s-0.5-0.4-0.8-0.5c-0.3-0.2-0.6-0.3-1-0.4c-0.3-0.1-0.7-0.2-1.1-0.2
				s-0.8,0.1-1.2,0.2c-0.4,0.1-0.8,0.4-1.1,0.7c-0.3,0.3-0.6,0.7-0.8,1.2c-0.2,0.5-0.3,1.1-0.3,1.8c0,0.8,0.1,1.4,0.3,1.9
				c0.2,0.5,0.5,0.9,0.8,1.2s0.7,0.5,1.1,0.6s0.8,0.2,1.2,0.2c0.4,0,0.7-0.1,1.1-0.2c0.4-0.1,0.7-0.3,1-0.5s0.5-0.3,0.7-0.5
				s0.4-0.3,0.6-0.5h0.3v2.9c-0.3,0.1-0.6,0.3-0.9,0.4c-0.3,0.1-0.6,0.2-0.9,0.3c-0.4,0.1-0.8,0.2-1.1,0.3
				C487,169.3,486.5,169.3,485.9,169.3z"/>
				<path
					class="st2"
					d="M497.8,168.1c-0.2,0.1-0.3,0.3-0.6,0.4s-0.4,0.3-0.7,0.4c-0.3,0.1-0.6,0.2-0.9,0.3s-0.6,0.1-1,0.1
				c-0.9,0-1.6-0.3-2.2-0.8s-0.9-1.2-0.9-2c0-0.7,0.1-1.2,0.4-1.6c0.3-0.4,0.7-0.8,1.3-1c0.5-0.2,1.2-0.4,2-0.5s1.6-0.2,2.5-0.2l0,0
				c0-0.5-0.2-0.8-0.6-1s-1-0.3-1.8-0.3c-0.5,0-1,0.1-1.5,0.3s-0.9,0.3-1.2,0.4h-0.3v-2.2c0.3-0.1,0.8-0.2,1.5-0.3s1.4-0.2,2.1-0.2
				c1.7,0,2.8,0.3,3.6,0.8c0.7,0.5,1.1,1.3,1.1,2.4v6.2h-2.9v-1.2H497.8z M497.8,166.7v-1.9c-0.4,0-0.8,0.1-1.3,0.1
				c-0.5,0.1-0.8,0.1-1,0.2c-0.3,0.1-0.5,0.2-0.7,0.4s-0.2,0.4-0.2,0.7c0,0.2,0,0.3,0,0.5c0,0.1,0.1,0.2,0.2,0.3s0.3,0.2,0.4,0.2
				c0.2,0.1,0.4,0.1,0.8,0.1c0.3,0,0.6-0.1,0.9-0.2C497.3,167.1,497.6,166.9,497.8,166.7z"/>
				<path class="st2" d="M509.9,162.8h-0.3c-0.1,0-0.3-0.1-0.6-0.1s-0.5,0-0.7,0c-0.4,0-0.8,0-1.1,0.1c-0.3,0.1-0.7,0.1-1,0.3v6.1
				h-2.9V160h2.9v1.3c0.6-0.5,1.2-0.9,1.7-1.1c0.5-0.2,0.9-0.3,1.3-0.3c0.1,0,0.2,0,0.3,0c0.1,0,0.2,0,0.3,0v2.9H509.9z"/>
				<path
					class="st2"
					d="M520.4,169.1h-2.9v-0.9c-0.5,0.4-1,0.7-1.4,0.9s-0.9,0.3-1.5,0.3c-1.1,0-2-0.4-2.6-1.3c-0.7-0.8-1-2-1-3.4
				c0-0.8,0.1-1.5,0.3-2c0.2-0.6,0.5-1.1,0.9-1.5c0.4-0.4,0.8-0.7,1.3-0.9s1-0.3,1.6-0.3c0.5,0,1,0.1,1.3,0.2
				c0.3,0.1,0.7,0.3,1.1,0.4v-3.9h2.9L520.4,169.1L520.4,169.1z M517.4,166.6v-4.5c-0.2-0.1-0.4-0.1-0.6-0.2c-0.2,0-0.4-0.1-0.6-0.1
				c-0.8,0-1.3,0.2-1.7,0.7s-0.6,1.1-0.6,2s0.2,1.5,0.5,1.9s0.8,0.6,1.5,0.6c0.3,0,0.5,0,0.8-0.1C517,166.9,517.2,166.8,517.4,166.6
				z"/>
			</g>
		</g>
		<g id="PST">
			<g>
				<path class="st1" d="M374.3,54.8h-42c-5.7,0-10.4,4.7-10.4,10.4v76.1c0,5.7,4.7,10.4,10.4,10.4h56.2c5.7,0,10.4-4.7,10.4-10.4
				V79.4L374.3,54.8z"/>
				<path class="st3" d="M373.8,54.8v15.6c0,5.7,4.7,10.4,10.4,10.4h14.7v-1.4l-24.6-24.6C374.3,54.8,373.8,54.8,373.8,54.8z"/>
				<text transform="matrix(1 0 0 1 334.5815 115.7539)" class="st2 st4 st5">.PST</text>
			</g>
			<path class="st1" d="M374.3,54.8h-42c-5.7,0-10.4,4.7-10.4,10.4v76.1c0,5.7,4.7,10.4,10.4,10.4h56.2c5.7,0,10.4-4.7,10.4-10.4
			V79.4L374.3,54.8z"/>
			<path class="st3" d="M373.8,54.8v15.6c0,5.7,4.7,10.4,10.4,10.4h14.7v-1.4l-24.6-24.6C374.3,54.8,373.8,54.8,373.8,54.8z"/>
			<g>
				<path class="st2" d="M336.7,115.8h-4.1v-4.3h4.1V115.8z"/>
				<path
					class="st2"
					d="M354.3,104.5c0,0.7-0.1,1.5-0.4,2.2s-0.6,1.3-1.1,1.8c-0.7,0.6-1.4,1.1-2.2,1.5c-0.8,0.3-1.8,0.5-3,0.5H345
				v5.3h-4.2V99.4h7c1,0,1.9,0.1,2.6,0.3c0.7,0.2,1.3,0.4,1.9,0.8c0.7,0.4,1.2,1,1.5,1.7C354.2,102.8,354.3,103.6,354.3,104.5z
				 M350,104.6c0-0.5-0.1-0.9-0.4-1.2c-0.2-0.3-0.5-0.6-0.9-0.7c-0.4-0.2-0.9-0.3-1.3-0.3s-1,0-1.7,0H345v4.9h1.2
				c0.7,0,1.3,0,1.8-0.1s0.9-0.3,1.2-0.5c0.3-0.2,0.5-0.5,0.6-0.8C349.9,105.5,350,105.1,350,104.6z"/>
				<path
					class="st2"
					d="M370.4,110.6c0,1.6-0.7,2.9-2.1,3.9s-3.2,1.5-5.6,1.5c-1.4,0-2.5-0.1-3.5-0.4c-1-0.2-2-0.5-2.8-0.9v-3.9h0.5
				c0.9,0.7,1.8,1.2,2.9,1.6s2.1,0.6,3.1,0.6c0.3,0,0.6,0,1-0.1s0.8-0.1,1-0.2c0.3-0.1,0.6-0.3,0.8-0.5s0.3-0.5,0.3-0.9
				s-0.2-0.7-0.5-0.9c-0.3-0.3-0.7-0.5-1.3-0.6c-0.6-0.1-1.3-0.3-2-0.4s-1.3-0.3-1.9-0.5c-1.4-0.4-2.4-1.1-3-1.8
				c-0.6-0.8-0.9-1.7-0.9-2.9c0-1.5,0.7-2.8,2.1-3.7c1.4-1,3.1-1.4,5.3-1.4c1.1,0,2.1,0.1,3.2,0.3s2,0.5,2.7,0.8v3.8h-0.5
				c-0.7-0.5-1.5-1-2.4-1.3c-1-0.4-1.9-0.5-2.9-0.5c-0.4,0-0.7,0-1.1,0.1c-0.3,0-0.7,0.1-1,0.3c-0.3,0.1-0.5,0.3-0.7,0.5
				s-0.3,0.5-0.3,0.8c0,0.4,0.2,0.8,0.5,1s1,0.4,1.9,0.6c0.6,0.1,1.2,0.2,1.7,0.4c0.6,0.1,1.1,0.3,1.8,0.5c1.3,0.4,2.2,1,2.8,1.7
				C370.1,108.6,370.4,109.5,370.4,110.6z"/>
				<path class="st2" d="M386.1,102.5H381v13.2h-4.2v-13.2h-5.1v-3.2h14.5L386.1,102.5L386.1,102.5z"/>
			</g>
		</g>
		<g id="Contacts">
			<path class="st1" d="M249.4,98.1H16c-6.6,0-12-5.4-12-12V36.4c0-6.6,5.4-12,12-12h233.4c6.6,0,12,5.4,12,12v49.7
			C261.4,92.7,256,98.1,249.4,98.1z"/>
			<g>
				<path
					class="st2"
					d="M124.5,69.3c-1.2,0-2.3-0.2-3.4-0.5c-1-0.4-1.9-0.9-2.7-1.6c-0.7-0.7-1.3-1.6-1.7-2.7
				c-0.4-1.1-0.6-2.3-0.6-3.7c0-1.3,0.2-2.5,0.6-3.5s1-2,1.7-2.7s1.6-1.3,2.6-1.7c1.1-0.4,2.2-0.6,3.4-0.6c0.7,0,1.3,0,1.9,0.1
				s1.1,0.2,1.5,0.3c0.5,0.1,0.9,0.3,1.3,0.5c0.4,0.2,0.7,0.3,1.1,0.5v4h-0.5c-0.2-0.2-0.5-0.4-0.8-0.6c-0.3-0.2-0.7-0.5-1.1-0.7
				s-0.8-0.4-1.3-0.6c-0.5-0.2-1-0.2-1.5-0.2c-0.6,0-1.2,0.1-1.7,0.3s-1,0.5-1.5,0.9c-0.4,0.4-0.8,1-1.1,1.7s-0.4,1.5-0.4,2.5
				s0.1,1.9,0.4,2.6s0.7,1.2,1.1,1.6s0.9,0.7,1.5,0.9c0.5,0.2,1.1,0.3,1.6,0.3s1-0.1,1.5-0.2c0.5-0.2,1-0.4,1.4-0.6s0.7-0.4,1-0.7
				c0.3-0.2,0.6-0.4,0.8-0.6h0.4v3.9c-0.4,0.2-0.8,0.4-1.2,0.5c-0.4,0.2-0.8,0.3-1.2,0.4c-0.5,0.2-1,0.3-1.5,0.4
				C126,69.2,125.3,69.3,124.5,69.3z"/>
				<path
					class="st2"
					d="M145.8,62.8c0,2-0.6,3.6-1.8,4.8s-2.8,1.8-5,1.8s-3.8-0.6-5-1.8s-1.8-2.8-1.8-4.8c0-2,0.6-3.7,1.8-4.8
				c1.2-1.2,2.9-1.7,5-1.7c2.2,0,3.8,0.6,5,1.8C145.2,59.2,145.8,60.8,145.8,62.8z M140.9,65.8c0.3-0.3,0.4-0.7,0.6-1.1
				c0.1-0.4,0.2-1.1,0.2-1.8s-0.1-1.3-0.2-1.8c-0.1-0.5-0.3-0.9-0.6-1.2c-0.2-0.3-0.5-0.5-0.8-0.6S139.4,59,139,59s-0.7,0.1-1,0.2
				s-0.6,0.3-0.9,0.6c-0.2,0.3-0.4,0.7-0.6,1.2s-0.2,1.1-0.2,1.9c0,0.7,0.1,1.3,0.2,1.8c0.1,0.5,0.3,0.9,0.6,1.2
				c0.2,0.3,0.5,0.5,0.8,0.6s0.7,0.2,1.1,0.2c0.4,0,0.7-0.1,1-0.2C140.4,66.3,140.7,66.1,140.9,65.8z"/>
				<path
					class="st2"
					d="M161,69h-4v-6.1c0-0.5,0-1-0.1-1.5s-0.1-0.9-0.3-1.1c-0.1-0.3-0.4-0.5-0.6-0.6c-0.3-0.1-0.7-0.2-1.2-0.2
				c-0.4,0-0.7,0.1-1.1,0.2c-0.4,0.1-0.8,0.3-1.2,0.6V69h-4V56.6h4V58c0.7-0.5,1.4-1,2-1.3s1.4-0.4,2.2-0.4c1.3,0,2.4,0.4,3.1,1.2
				c0.8,0.8,1.1,1.9,1.1,3.5v8H161z"/>
				<path
					class="st2"
					d="M172.6,68.8c-0.4,0.1-0.9,0.2-1.4,0.3c-0.5,0.1-1.1,0.1-1.7,0.1c-1.5,0-2.7-0.3-3.4-0.9
				c-0.8-0.6-1.1-1.7-1.1-3.2v-5.8h-1.6v-2.7h1.6v-3.5h4v3.5h3.7v2.7H169v4.4c0,0.4,0,0.8,0,1.1s0.1,0.6,0.2,0.9
				c0.1,0.3,0.3,0.5,0.5,0.6c0.3,0.2,0.6,0.2,1.1,0.2c0.2,0,0.5,0,0.8-0.1s0.6-0.2,0.7-0.2h0.3L172.6,68.8L172.6,68.8z"/>
				<path
					class="st2"
					d="M182.4,67.6c-0.2,0.2-0.5,0.4-0.8,0.6s-0.6,0.4-0.9,0.5c-0.4,0.2-0.8,0.3-1.2,0.4s-0.9,0.1-1.4,0.1
				c-1.2,0-2.2-0.4-2.9-1.1c-0.8-0.7-1.2-1.7-1.2-2.8c0-0.9,0.2-1.6,0.6-2.2c0.4-0.6,1-1,1.7-1.4c0.7-0.3,1.6-0.6,2.7-0.7
				c1.1-0.1,2.2-0.2,3.4-0.3v-0.1c0-0.7-0.3-1.2-0.8-1.4c-0.6-0.3-1.4-0.4-2.5-0.4c-0.7,0-1.3,0.1-2.1,0.3c-0.7,0.2-1.3,0.4-1.6,0.5
				H175v-3c0.4-0.1,1.1-0.2,2-0.4s1.9-0.2,2.8-0.2c2.3,0,3.9,0.3,4.9,1s1.5,1.8,1.5,3.3V69h-3.9L182.4,67.6L182.4,67.6z M182.4,65.7
				v-2.6c-0.5,0-1.1,0.1-1.7,0.2c-0.6,0.1-1.1,0.2-1.4,0.3c-0.4,0.1-0.7,0.3-0.9,0.5c-0.2,0.2-0.3,0.5-0.3,0.9c0,0.3,0,0.5,0.1,0.6
				c0,0.2,0.2,0.3,0.3,0.5c0.2,0.1,0.4,0.3,0.6,0.3c0.2,0.1,0.6,0.1,1.1,0.1c0.4,0,0.8-0.1,1.2-0.2C181.8,66.2,182.1,66,182.4,65.7z
				"/>
				<path
					class="st2"
					d="M196.4,69.3c-1.1,0-2.1-0.1-3-0.4s-1.7-0.7-2.3-1.2c-0.7-0.5-1.2-1.2-1.5-2c-0.4-0.8-0.5-1.8-0.5-2.9
				c0-1.2,0.2-2.1,0.6-3s0.9-1.5,1.6-2.1c0.7-0.5,1.4-0.9,2.3-1.1s1.8-0.4,2.7-0.4c0.8,0,1.6,0.1,2.3,0.3s1.4,0.4,2,0.7v3.4H200
				c-0.2-0.1-0.3-0.3-0.6-0.5s-0.5-0.3-0.8-0.5s-0.6-0.3-1-0.4c-0.4-0.1-0.8-0.2-1.3-0.2c-1.1,0-1.9,0.3-2.4,1
				c-0.6,0.7-0.9,1.6-0.9,2.7c0,1.2,0.3,2.1,0.9,2.7c0.6,0.6,1.4,0.9,2.5,0.9c0.5,0,0.9-0.1,1.3-0.2c0.4-0.1,0.7-0.2,1-0.4
				c0.2-0.1,0.5-0.3,0.7-0.5s0.4-0.3,0.5-0.5h0.6v3.4c-0.6,0.3-1.3,0.5-2,0.7C198,69.2,197.2,69.3,196.4,69.3z"/>
				<path
					class="st2"
					d="M211.1,68.8c-0.4,0.1-0.9,0.2-1.4,0.3c-0.5,0.1-1.1,0.1-1.7,0.1c-1.5,0-2.7-0.3-3.4-0.9
				c-0.8-0.6-1.1-1.7-1.1-3.2v-5.8h-1.6v-2.7h1.6v-3.5h4v3.5h3.7v2.7h-3.7v4.4c0,0.4,0,0.8,0,1.1s0.1,0.6,0.2,0.9
				c0.1,0.3,0.3,0.5,0.5,0.6c0.3,0.2,0.6,0.2,1.1,0.2c0.2,0,0.5,0,0.8-0.1s0.6-0.2,0.7-0.2h0.3L211.1,68.8L211.1,68.8z"/>
				<path
					class="st2"
					d="M224.2,65c0,1.3-0.6,2.3-1.7,3.1c-1.1,0.8-2.7,1.2-4.7,1.2c-1.1,0-2.1-0.1-3-0.3s-1.6-0.4-2.2-0.7V65h0.4
				c0.2,0.1,0.4,0.3,0.7,0.5s0.6,0.3,1.1,0.5c0.4,0.2,0.9,0.3,1.4,0.4s1.1,0.2,1.7,0.2c0.8,0,1.4-0.1,1.7-0.3
				c0.4-0.2,0.6-0.4,0.6-0.8c0-0.3-0.1-0.5-0.3-0.7c-0.2-0.1-0.6-0.3-1.3-0.4c-0.3-0.1-0.7-0.1-1.2-0.2s-1-0.2-1.4-0.3
				c-1.1-0.3-2-0.8-2.5-1.4c-0.5-0.6-0.8-1.4-0.8-2.3c0-1.2,0.6-2.2,1.7-3s2.7-1.2,4.6-1.2c0.9,0,1.8,0.1,2.7,0.3
				c0.8,0.2,1.5,0.4,2,0.6V60h-0.3c-0.6-0.4-1.3-0.7-2-1c-0.8-0.3-1.5-0.4-2.3-0.4c-0.6,0-1.2,0.1-1.6,0.3c-0.4,0.2-0.7,0.4-0.7,0.7
				s0.1,0.5,0.3,0.7s0.7,0.3,1.4,0.5c0.4,0.1,0.8,0.2,1.3,0.2c0.5,0.1,0.9,0.2,1.4,0.3c1,0.3,1.8,0.7,2.3,1.3S224.2,64.2,224.2,65z"/>
			</g>
			<g>
				<path
					class="st2"
					d="M69.3,82.6c-0.4-5.2-0.7-10.2-2.2-15.1c-0.5-1.7-1.6-2.8-3.2-3.5c-0.8-0.3-1.6-0.7-2.4-1
				c-1.4-0.6-2.6-0.5-3.9,0.6c-1.9,1.6-4,2.7-6.6,2.6c-2.3-0.1-4.3-1.2-6-2.7c-0.7-0.6-1.5-1-2.4-0.9C39,63,36,65.4,35.3,68.9
				c-0.6,3.2-1,6.4-1.4,9.6c-0.2,1.3-0.2,2.7-0.3,4.1C45.6,82.6,57.3,82.6,69.3,82.6z M93.6,77.7c-0.1-1.4-0.1-2.7-0.3-4
				c-0.5-3.3-1-6.7-1.6-10c-0.3-1.6-1.3-2.9-2.8-3.6c-0.9-0.4-1.8-0.8-2.7-1.2c-1.2-0.5-2.3-0.4-3.3,0.5c-1.9,1.7-4.2,2.8-6.8,2.7
				c-2.5-0.1-4.5-1.2-6.3-2.7c-0.5-0.4-1.1-0.8-1.6-0.8c-2,0.1-3.7,1.1-5.3,2.2C63,61,63,61.1,63,61.1c0.1,0.1,0.2,0.2,0.4,0.2
				c4.6,1.6,6.7,5.1,7.3,9.7c0.3,2.2,0.6,4.4,0.9,6.6C78.8,77.7,86.1,77.7,93.6,77.7z M50.6,43.1c-2.7,0-4.8,1.1-6.3,3.2
				c-3.3,4.2-2.5,10.9,1.6,14.4c4,3.5,9.7,2.6,12.3-2c2-3.6,1.9-7.3-0.1-10.8C56.5,44.9,54,43.2,50.6,43.1z M68.8,49.9
				c0,0.4,0,0.7,0,1.1c0.1,3.3,2.4,6.4,5.4,7.4s6.4,0,8.6-2.7c2.5-3.2,3.1-6.8,1.5-10.6c-2.2-5.3-8.5-6.5-12.6-2.5
				C69.8,44.6,68.8,47.1,68.8,49.9z"/>
				<path
					class="st2"
					d="M69.3,82.6c-12,0-23.7,0-35.7,0c0.1-1.4,0.1-2.8,0.3-4.1c0.4-3.2,0.8-6.4,1.4-9.6c0.7-3.5,3.7-5.9,7.3-6.3
				c1-0.1,1.7,0.3,2.4,0.9c1.7,1.5,3.6,2.5,6,2.7c2.6,0.1,4.7-0.9,6.6-2.6c1.2-1.1,2.5-1.2,3.9-0.6c0.8,0.3,1.6,0.7,2.4,1
				c1.6,0.7,2.7,1.9,3.2,3.5C68.6,72.4,68.9,77.4,69.3,82.6z"/>
				<path
					class="st2"
					d="M93.6,77.7c-7.5,0-14.8,0-22.2,0c-0.3-2.2-0.7-4.4-0.9-6.6c-0.6-4.6-2.7-8.1-7.3-9.7
				c-0.1-0.1-0.3-0.2-0.4-0.2c0,0,0-0.1-0.1-0.3c1.6-1.1,3.3-2.1,5.3-2.2c0.5,0,1.2,0.4,1.6,0.8c1.9,1.5,3.9,2.6,6.3,2.7
				c2.7,0.1,4.9-1,6.8-2.7c1.1-0.9,2.1-1.1,3.3-0.5c0.9,0.4,1.8,0.8,2.7,1.2c1.5,0.7,2.5,2,2.8,3.6c0.6,3.3,1.1,6.7,1.6,10
				C93.5,75,93.5,76.3,93.6,77.7z"/>
				<path class="st2" d="M50.6,43.1c3.4,0.1,5.9,1.8,7.5,4.7c2,3.6,2.1,7.2,0.1,10.8c-2.6,4.6-8.3,5.5-12.3,2
				c-4.1-3.5-4.8-10.2-1.6-14.4C45.8,44.2,47.9,43.1,50.6,43.1z"/>
				<path class="st2" d="M68.8,49.9c0-2.8,0.9-5.3,2.9-7.3c4.1-4,10.5-2.8,12.6,2.5c1.5,3.8,1,7.4-1.5,10.6c-2.2,2.7-5.6,3.7-8.6,2.7
				S69,54.2,68.8,51C68.8,50.6,68.8,50.3,68.8,49.9z"/>
			</g>
		</g>
	</g>
	<g id="arrows">
		<g>
			<path
				class="st2"
				d="M253.6,286l8.4-12.1l8.4,12.1h-5.3c0,13.8,11.2,25,25,25c9.2,0,17.7-5.2,22-13.1l3.7,5.3
			c-0.1,0.2-0.2,0.4-0.4,0.5c-1.9,2.7-4.1,5-6.7,6.9c-5.4,4.1-11.8,6.2-18.6,6.2c-4.2,0-8.2-0.8-12-2.4c-3.7-1.6-7-3.8-9.8-6.6
			c-2.8-2.8-5.1-6.1-6.6-9.8c-1.6-3.8-2.4-7.8-2.4-12H253.6z"/>
			<path
				class="st2"
				d="M266.2,266.5c5.9-7.2,14.6-11.3,23.9-11.3c4.2,0,8.2,0.8,12,2.4c3.7,1.6,7,3.8,9.8,6.6
			c2.8,2.8,5.1,6.1,6.6,9.8c1.6,3.8,2.4,7.8,2.4,12h5.5l-8.4,12.1l-8.4-12.1h5.5c0-13.8-11.2-25-25-25c-7.5,0-14.6,3.3-19.3,9.2
			c-1,1.2-1.9,2.5-2.6,3.8l-3.7-5.3C265.1,268,265.6,267.2,266.2,266.5z"/>

			<animateTransform
				attributeName="transform"
				attributeType="XML"
				begin="animation1.end"
				calcMode="linear"
				dur="1.5s"
				fill="remove"
				from="0 290 286"
				id="animation2"
				repeatCount="2"
				restart="whenNotActive"
				to="360 290 286"
				type="rotate"></animateTransform>
		</g>
	</g>
	<g id="ball_1">
		<circle class="st1" cx="" cy="" r="7"  />

		<animateMotion id="animation1" begin="0s;animation3.end + 1s" calcMode="paced" dur="3s" fill="remove" restart="whenNotActive">
			<mpath xlink:href="#theMotionPath1"></mpath>
		</animateMotion>

		<animate id="animation4" attributeName="visibility" begin="0s;animation3.end + 1s" calcMode="linear" dur="6s" fill="freeze" from="visible" to="hidden" restart="always"></animate>

		<animate attributeName="opacity" from="0" to="1" dur="0.1s" begin="0s" fill="freeze" repeatCount="1"/>
	</g>
	<g id="ball_2">
		<circle class="st1" cx="" cy="" r="7" />

		<animateMotion id="animation3" begin="animation1.end + 1s" calcMode="paced" dur="2s" fill="remove" restart="whenNotActive">
			<mpath xlink:href="#theMotionPath2"></mpath>
		</animateMotion>

		<animate accumulate="none" additive="replace" attributeName="visibility" begin="animation1.end + 1s" calcMode="linear" dur="4s" fill="freeze" from="visible" id="animation4" restart="always" to="hidden"></animate>

		<animate attributeName="opacity" from="0" to="1" dur="0.1s" begin="4" fill="freeze" repeatCount="1"/>
	</g>
	<g id="ball_3">
		<circle class="st1" cx="" cy="" r="7"/>

		<animateMotion id="animation3" begin="animation1.end + 1s" calcMode="paced" dur="2s" fill="remove" visibility="hidden" restart="whenNotActive">
			<mpath xlink:href="#theMotionPath3"></mpath>
		</animateMotion>
		<set attributeName="visibility" from="hidden" to="visible" begin="animation3.begin"/>

		<animate accumulate="none" additive="replace" attributeName="visibility" begin="animation1.end + 1s" calcMode="linear" dur="4s" fill="freeze" from="visible" id="animation4" restart="always" to="hidden"></animate>

		<animate attributeName="opacity" from="0" to="1" dur="0.1s" begin="4" fill="freeze" repeatCount="1"/>
	</g>
	<g id="ball_4">
		<circle class="st1" cx="" cy="" r="7"/>

		<animateMotion id="animation3" begin="animation1.end + 1s" calcMode="paced" dur="2s" fill="remove" visibility="hidden" restart="whenNotActive">
			<mpath xlink:href="#theMotionPath4"></mpath>
		</animateMotion>
		<set attributeName="visibility" from="hidden" to="visible" begin="animation3.begin"/>

		<animate accumulate="none" additive="replace" attributeName="visibility" begin="animation1.end + 1s" calcMode="linear" dur="4s" fill="freeze" from="visible" id="animation4" restart="always" to="hidden"></animate>

		<animate attributeName="opacity" from="0" to="1" dur="0.1s" begin="4" fill="freeze" repeatCount="1"/>
	</g>
	<g id="ball_5">
		<circle class="st1" cx="" cy="" r="7"/>

		<animateMotion id="animation3" begin="animation1.end + 1s" calcMode="paced" dur="2s" fill="remove" visibility="hidden" restart="whenNotActive">
			<mpath xlink:href="#theMotionPath5"></mpath>
		</animateMotion>
		<set attributeName="visibility" from="hidden" to="visible" begin="animation3.begin"/>

		<animate accumulate="none" additive="replace" attributeName="visibility" begin="animation1.end + 1s" calcMode="linear" dur="4s" fill="freeze" from="visible" id="animation4" restart="always" to="hidden"></animate>

		<animate attributeName="opacity" from="0" to="1" dur="0.1s" begin="4" fill="freeze" repeatCount="1"/>
	</g>
	<g id="ball_6">
		<circle class="st1" cx="" cy="" r="7"/>

		<animateMotion id="animation3" begin="animation1.end + 1s" calcMode="paced" dur="2s" fill="remove" visibility="hidden" restart="whenNotActive">
			<mpath xlink:href="#theMotionPath6"></mpath>
		</animateMotion>
		<set attributeName="visibility" from="hidden" to="visible" begin="animation3.begin"/>

		<animate accumulate="none" additive="replace" attributeName="visibility" begin="animation1.end + 1s" calcMode="linear" dur="4s" fill="freeze" from="visible" id="animation4" restart="always" to="hidden"></animate>

		<animate attributeName="opacity" from="0" to="1" dur="0.1s" begin="4" fill="freeze" repeatCount="1"/>
	</g>
</svg>
