<?xml version="1.0" encoding="utf-8"?>
<!-- Generator: Adobe Illustrator 25.1.0, SVG Export Plug-In . SVG Version: 6.00 Build 0)  -->
<svg version="1.1" id="Layer_1" xmlns="http://www.w3.org/2000/svg" xmlns:xlink="http://www.w3.org/1999/xlink" x="0px" y="0px"
	 viewBox="0 0 1211.2 563.8" style="enable-background:new 0 0 1211.2 563.8;" xml:space="preserve">
<style type="text/css">
	.st0{fill:none;stroke:#61BBD6;stroke-width:0.75;stroke-miterlimit:10;}
	.st1{fill:none;stroke:#61BBD6;stroke-width:0.9048;stroke-miterlimit:10;}
	.st2{fill:none;stroke:#61BBD6;stroke-width:1.0595;stroke-miterlimit:10;}
	.st3{fill:none;stroke:#61BBD6;stroke-width:1.2143;stroke-miterlimit:10;}
	.st4{fill:none;stroke:#61BBD6;stroke-width:1.369;stroke-miterlimit:10;}
	.st5{fill:none;stroke:#61BBD6;stroke-width:1.5238;stroke-miterlimit:10;}
	.st6{fill:none;stroke:#61BBD6;stroke-width:1.6786;stroke-miterlimit:10;}
	.st7{fill:none;stroke:#61BBD6;stroke-width:1.8333;stroke-miterlimit:10;}
	.st8{fill:none;stroke:#61BBD6;stroke-width:1.9881;stroke-miterlimit:10;}
	.st9{fill:none;stroke:#61BBD6;stroke-width:2.1429;stroke-miterlimit:10;}
	.st10{fill:none;stroke:#61BBD6;stroke-width:2.2976;stroke-miterlimit:10;}
	.st11{fill:none;stroke:#61BBD6;stroke-width:2.4524;stroke-miterlimit:10;}
	.st12{fill:none;stroke:#61BBD6;stroke-width:2.6071;stroke-miterlimit:10;}
	.st13{fill:none;stroke:#61BBD6;stroke-width:2.7619;stroke-miterlimit:10;}
	.st14{fill:none;stroke:#61BBD6;stroke-width:2.9167;stroke-miterlimit:10;}
	.st15{fill:none;stroke:#61BBD6;stroke-width:3.0714;stroke-miterlimit:10;}
	.st16{fill:none;stroke:#61BBD6;stroke-width:3.2262;stroke-miterlimit:10;}
	.st17{fill:none;stroke:#61BBD6;stroke-width:3.381;stroke-miterlimit:10;}
	.st18{fill:none;stroke:#61BBD6;stroke-width:3.5357;stroke-miterlimit:10;}
	.st19{fill:none;stroke:#61BBD6;stroke-width:3.6905;stroke-miterlimit:10;}
	.st20{fill:none;stroke:#61BBD6;stroke-width:3.8452;stroke-miterlimit:10;}
	.st21{fill:none;stroke:#61BBD6;stroke-width:4;stroke-miterlimit:10;}
	.st22{fill:none;stroke:#FFFFFF;stroke-miterlimit:10;}
	.st23{fill:none;stroke:#61BBD6;stroke-width:2;stroke-miterlimit:10;}
	.st24{fill:#FFFFFF;}
	.st25{font-family:'Roboto-Black';}
	.st26{font-size:34.2089px;}
	.st27{font-family:'Roboto-Medium';}
	.st28{font-size:13px;}
	.st29{font-family:'Roboto-Thin';}
</style>
<g id="Слой_1">
	<g>
		<path class="st0" d="M39.6,62.8c0,0,81.3-11.1,123,41c20,25,58.9,2.2,132,38c49,24,52.1,61.4,107,71c57,10,58,53,116,53
			s99,18,121,10c31.5-11.5,90,17,121,16s118,0,118,0s86,14,118,5s40,12,120,5"/>
		<path class="st1" d="M39.7,75.5c0,0,83.5-10.6,123.2,39c19,23.8,62.3,2.1,132,36.2c46.7,22.9,55.5,58.4,107.7,67.6
			c54.3,9.5,61.1,50.5,116.3,50.5s99.7,17.1,120.7,9.5c30-10.9,91.2,16.2,120.8,15.2s117.7,0,117.7,0s87.2,13.3,117.7,4.8
			c30.5-8.6,43.5,11.4,119.7,4.8"/>
		<path class="st2" d="M39.9,88.1c0,0,85.7-10,123.4,37.1c18.1,22.6,65.8,2,131.9,34.4c44.3,21.7,58.8,55.5,108.5,64.2
			c51.6,9,64.1,48,116.6,48s100.5,16.3,120.4,9c28.5-10.4,92.5,15.4,120.5,14.5s117.3,0,117.3,0s88.4,12.7,117.4,4.5
			c29-8.1,47,10.9,119.4,4.5"/>
		<path class="st3" d="M40,100.8c0,0,87.8-9.5,123.6,35.1c17.1,21.4,69.2,1.9,131.9,32.6c42,20.6,62.2,52.6,109.2,60.9
			c48.9,8.6,67.2,45.4,116.9,45.4s101.2,15.4,120.1,8.6c27-9.8,93.7,14.6,120.3,13.7c26.6-0.9,117,0,117,0s89.6,12,117.1,4.3
			c27.4-7.7,50.5,10.3,119.1,4.3"/>
		<path class="st4" d="M40.2,113.5c0,0,90-9,123.7,33.2c16.2,20.2,72.7,1.8,131.8,30.8c39.7,19.4,65.5,49.7,110,57.5
			c46.1,8.1,70.3,42.9,117.2,42.9c47,0,102,14.6,119.8,8.1c25.5-9.3,94.9,13.8,120,13s116.7,0,116.7,0s90.9,11.3,116.8,4
			s54,9.7,118.8,4"/>
		<path class="st5" d="M40.3,126.1c0,0,92.2-8.4,123.9,31.2c15.2,19,76.1,1.7,131.8,29c37.3,18.3,68.9,46.8,110.7,54.1
			c43.4,7.6,73.3,40.4,117.5,40.4s102.7,13.7,119.5,7.6c24-8.7,96.2,13,119.8,12.2s116.3,0,116.3,0s92.1,10.7,116.5,3.8
			c24.4-6.9,57.6,9.1,118.5,3.8"/>
		<path class="st6" d="M40.4,138.8c0,0,94.3-7.9,124.1,29.3c14.3,17.9,79.5,1.6,131.7,27.1c35,17.1,72.3,43.8,111.5,50.7
			c40.7,7.1,76.4,37.9,117.9,37.9c41.4,0,103.5,12.9,119.2,7.1c22.5-8.2,97.4,12.1,119.5,11.4c22.1-0.7,116,0,116,0
			s93.3,10,116.2,3.6s61.1,8.6,118.2,3.6"/>
		<path class="st7" d="M40.6,151.5c0,0,96.5-7.4,124.3,27.3c13.3,16.7,83,1.5,131.7,25.3c32.7,16,75.6,40.9,112.2,47.3
			c38,6.7,79.5,35.3,118.2,35.3s104.2,12,118.9,6.7c21-7.6,98.6,11.3,119.3,10.7c20.7-0.7,115.7,0,115.7,0s94.5,9.3,115.8,3.3
			s64.6,8,117.9,3.3"/>
		<path class="st8" d="M40.7,164.1c0,0,98.7-6.9,124.5,25.4c12.4,15.5,86.4,1.4,131.7,23.5c30.3,14.9,79,38,113,44
			c35.3,6.2,82.6,32.8,118.5,32.8s105,11.1,118.6,6.2c19.5-7.1,99.9,10.5,119.1,9.9c19.2-0.6,115.3,0,115.3,0s95.7,8.7,115.5,3.1
			c19.8-5.6,68.1,7.4,117.6,3.1"/>
		<path class="st9" d="M40.9,176.8c0,0,100.9-6.3,124.7,23.4c11.4,14.3,89.8,1.3,131.6,21.7c28,13.7,82.3,35.1,113.7,40.6
			c32.6,5.7,85.6,30.3,118.8,30.3c33.1,0,105.7,10.3,118.3,5.7c18-6.5,101.1,9.7,118.8,9.1c17.7-0.6,115,0,115,0s96.9,8,115.2,2.9
			s71.6,6.9,117.3,2.9"/>
		<path class="st10" d="M41,189.5c0,0,103-5.8,124.9,21.5c10.5,13.1,93.3,1.2,131.6,19.9c25.7,12.6,85.7,32.1,114.5,37.2
			c29.9,5.2,88.7,27.8,119.1,27.8c30.4,0,106.5,9.4,118,5.2c16.5-6,102.3,8.9,118.6,8.4s114.6,0,114.6,0s98.2,7.3,114.9,2.6
			c16.8-4.7,75.1,6.3,117,2.6"/>
		<path class="st11" d="M41.2,202.1c0,0,105.2-5.3,125,19.5c9.5,11.9,96.7,1,131.5,18.1c23.3,11.4,89.1,29.2,115.2,33.8
			c27.1,4.8,91.8,25.2,119.4,25.2c27.6,0,107.2,8.6,117.7,4.8c15-5.5,103.6,8.1,118.3,7.6c14.8-0.5,114.3,0,114.3,0
			s99.4,6.7,114.6,2.4c15.2-4.3,78.6,5.7,116.7,2.4"/>
		<path class="st12" d="M41.3,214.8c0,0,107.4-4.8,125.2,17.6c8.6,10.7,100.2,0.9,131.5,16.3c21,10.3,92.4,26.3,116,30.4
			c24.4,4.3,94.9,22.7,119.7,22.7c24.9,0,108,7.7,117.4,4.3c13.5-4.9,104.8,7.3,118.1,6.9c13.3-0.4,114,0,114,0s100.6,6,114.3,2.1
			s82.1,5.1,116.4,2.1"/>
		<path class="st13" d="M41.4,227.5c0,0,109.5-4.2,125.4,15.6c7.6,9.5,103.6,0.8,131.4,14.5c18.7,9.1,95.8,23.4,116.7,27
			c21.7,3.8,97.9,20.2,120,20.2s108.7,6.9,117.1,3.8c12-4.4,106,6.5,117.8,6.1s113.6,0,113.6,0s101.8,5.3,114,1.9
			c12.2-3.4,85.6,4.6,116.1,1.9"/>
		<path class="st14" d="M41.6,240.1c0,0,111.7-3.7,125.6,13.7c6.7,8.3,107,0.7,131.4,12.7c16.3,8,99.1,20.5,117.4,23.7
			c19,3.3,101,17.7,120.3,17.7s109.5,6,116.8,3.3c10.5-3.8,107.3,5.7,117.6,5.3c10.3-0.3,113.3,0,113.3,0s103,4.7,113.7,1.7
			c10.7-3,89.2,4,115.8,1.7"/>
		<path class="st15" d="M41.7,252.8c0,0,113.9-3.2,125.8,11.7c5.7,7.1,110.5,0.6,131.4,10.9c14,6.9,102.5,17.5,118.2,20.3
			c16.3,2.9,104.1,15.1,120.6,15.1c16.6,0,110.2,5.1,116.5,2.9c9-3.3,108.5,4.9,117.3,4.6c8.9-0.3,113,0,113,0s104.2,4,113.4,1.4
			c9.1-2.6,92.7,3.4,115.5,1.4"/>
		<path class="st16" d="M41.9,265.5c0,0,116-2.6,126,9.8c4.8,6,113.9,0.5,131.3,9c11.7,5.7,105.9,14.6,118.9,16.9
			c13.6,2.4,107.1,12.6,120.9,12.6s111,4.3,116.2,2.4c7.5-2.7,109.7,4,117.1,3.8c7.4-0.2,112.6,0,112.6,0s105.5,3.3,113.1,1.2
			s96.2,2.9,115.2,1.2"/>
		<path class="st17" d="M42,278.1c0,0,118.2-2.1,126.2,7.8c3.8,4.8,117.3,0.4,131.3,7.2c9.3,4.6,109.2,11.7,119.7,13.5
			c10.8,2,110.1,10.2,121.2,10.2c11,0,111.7,3.4,115.9,1.9c6-2.2,111,3.2,116.9,3s112.3,0,112.3,0s106.7,2.7,112.8,1
			s99.7,2.3,114.9,1"/>
		<path class="st18" d="M42.2,290.8c0,0,120.4-1.6,126.3,5.9c2.9,3.6,120.8,0.3,131.2,5.4c7,3.4,112.6,8.8,120.4,10.1
			c8.1,1.4,113.3,7.6,121.6,7.6s112.5,2.6,115.6,1.4c4.5-1.6,112.2,2.4,116.6,2.3s112,0,112,0s107.9,2,112.5,0.7
			s103.2,1.7,114.6,0.7"/>
		<path class="st19" d="M42.3,303.5c0,0,122.6-1.1,126.5,3.9c1.9,2.4,124.2,0.2,131.2,3.6c4.7,2.3,115.9,5.8,121.2,6.8
			c5.4,1,116.4,5,121.9,5s113.2,1.7,115.3,1c3-1.1,113.4,1.6,116.4,1.5s111.6,0,111.6,0s109.1,1.3,112.2,0.5
			c3-0.9,106.7,1.1,114.3,0.5"/>
		<path class="st20" d="M42.4,316.1c0,0,124.7-0.5,126.7,2c1,1.2,127.7,0.1,131.1,1.8c2.3,1.1,119.3,2.9,121.9,3.4
			c2.7,0.5,119.4,2.5,122.2,2.5s114,0.9,115,0.5c1.5-0.5,114.7,0.8,116.1,0.8s111.3,0,111.3,0s110.3,0.7,111.9,0.2
			s110.2,0.6,114,0.2"/>
		<line class="st21" x1="42.6" y1="328.8" x2="1112.6" y2="328.8"/>
	</g>
	<polyline class="st22" points="37.6,48.3 37.6,334.8 1204.6,334.8 	"/>
	<line class="st23" x1="168.1" y1="110.3" x2="168.1" y2="390.8"/>
	<line class="st23" x1="38.1" y1="60.8" x2="38.1" y2="390.8"/>
	<line class="st23" x1="293.6" y1="140.8" x2="291.7" y2="390.8"/>
	<line class="st23" x1="404.6" y1="212.8" x2="402.7" y2="390.8"/>
	<line class="st23" x1="518.6" y1="264.8" x2="516.7" y2="390.8"/>
	<path class="st23" d="M577.6,390.8"/>
	<path class="st23" d="M579.5,132.8"/>
	<line class="st23" x1="638.6" y1="273.8" x2="636.7" y2="390.8"/>
	<line class="st23" x1="757.6" y1="290.8" x2="755.7" y2="390.8"/>
	<line class="st23" x1="875.6" y1="290.8" x2="873.7" y2="390.8"/>
	<line class="st23" x1="997.6" y1="296.8" x2="995.7" y2="390.8"/>
	<line class="st23" x1="1114.6" y1="301.8" x2="1112.7" y2="390.8"/>
	<text transform="matrix(1 0 0 1 124.4217 51.7385)" class="st24 st25 st26">28.5%</text>
	<text transform="matrix(1 0 0 1 259.4217 100.7385)" class="st24 st25 st26">24%</text>
	<text transform="matrix(1 0 0 1 380.4217 178.7385)" class="st24 st25 st26">20%</text>
	<text transform="matrix(1 0 0 1 492.4217 239.7385)" class="st24 st25 st26">10%</text>
	<text transform="matrix(1 0 0 1 614.4218 254.7385)" class="st24 st25 st26">5%</text>
	<text transform="matrix(1 0 0 1 726.4218 275.7385)" class="st24 st25 st26">2.5%</text>
	<text transform="matrix(1 0 0 1 842.4218 275.7385)" class="st24 st25 st26">2.5%</text>
	<text transform="matrix(1 0 0 1 974.4216 275.7385)" class="st24 st25 st26">2%</text>
	<text transform="matrix(1 0 0 1 1071.4216 275.7385)" class="st24 st25 st26">1.5%</text>
	<text transform="matrix(1 0 0 1 22.6023 423.5188)" class="st24 st27 st28">Employee </text>
	<text transform="matrix(1 0 0 1 7.7023 439.1188)" class="st24 st27 st28">Overwrote Data</text>
	<text transform="matrix(1 0 0 1 37.5818 524.5188)" class="st24 st29 st28">Source - Based on the Cyber Guardian Consulting Group, LLC. customer survey</text>
	<text transform="matrix(1 0 0 1 135.1111 423.5188)" class="st24 st27 st28">Compliance</text>
	<text transform="matrix(1 0 0 1 151.1111 439.1188)" class="st24 st27 st28">Needs</text>
	<text transform="matrix(1 0 0 1 263.8118 423.5188)" class="st24 st27 st28">Accidental</text>
	<text transform="matrix(1 0 0 1 267.3118 439.1188)" class="st24 st27 st28">Delection</text>
	<text transform="matrix(1 0 0 1 377.2205 423.5188)" class="st24 st27 st28">Employee</text>
	<text transform="matrix(1 0 0 1 373.6205 439.1188)" class="st24 st27 st28">Departures</text>
	<text transform="matrix(1 0 0 1 477.6932 423.5188)" class="st24 st27 st28">Ransomware</text>
	<text transform="matrix(1 0 0 1 590.3051 423.5188)" class="st24 st27 st28">Malicious Delete</text>
	<text transform="matrix(1 0 0 1 607.0051 439.1188)" class="st24 st27 st28">by Insiders</text>
	<text transform="matrix(1 0 0 1 717.8202 423.5188)" class="st24 st27 st28">Maware from</text>
	<text transform="matrix(1 0 0 1 711.42 439.1188)" class="st24 st27 st28">Third Party App</text>
	<text transform="matrix(1 0 0 1 838.6327 423.5188)" class="st24 st27 st28">Data Deletion</text>
	<text transform="matrix(1 0 0 1 845.2325 439.1188)" class="st24 st27 st28">by Hackers</text>
	<text transform="matrix(1 0 0 1 956.5159 423.5188)" class="st24 st27 st28">Ended Service</text>
	<text transform="matrix(1 0 0 1 957.5159 439.1188)" class="st24 st27 st28">and Data Lost</text>
	<text transform="matrix(1 0 0 1 1059.8333 423.5188)" class="st24 st27 st28">Outages at Google</text>
	<text transform="matrix(1 0 0 1 1077.8333 439.1188)" class="st24 st27 st28">or Microsoft</text>
</g>
<g id="Слой_2">
</g>
</svg>
