<?xml version="1.0" encoding="utf-8"?>
<!-- Generator: Adobe Illustrator 25.1.0, SVG Export Plug-In . SVG Version: 6.00 Build 0)  -->
<svg version="1.1" xmlns="http://www.w3.org/2000/svg" xmlns:xlink="http://www.w3.org/1999/xlink" x="0px" y="0px"
	 viewBox="0 0 1456.6 816" style="enable-background:new 0 0 1456.6 816;" xml:space="preserve">
<style type="text/css">
	.st0{fill:#DC5A80;}
	.st1{fill:none;stroke:#61BBD6;stroke-width:0.75;stroke-miterlimit:10;}
	.st2{fill:none;stroke:#61BBD6;stroke-width:0.9048;stroke-miterlimit:10;}
	.st3{fill:none;stroke:#61BBD6;stroke-width:1.0595;stroke-miterlimit:10;}
	.st4{fill:none;stroke:#61BBD6;stroke-width:1.2143;stroke-miterlimit:10;}
	.st5{fill:none;stroke:#61BBD6;stroke-width:1.369;stroke-miterlimit:10;}
	.st6{fill:none;stroke:#61BBD6;stroke-width:1.5238;stroke-miterlimit:10;}
	.st7{fill:none;stroke:#61BBD6;stroke-width:1.6786;stroke-miterlimit:10;}
	.st8{fill:none;stroke:#61BBD6;stroke-width:1.8333;stroke-miterlimit:10;}
	.st9{fill:none;stroke:#61BBD6;stroke-width:1.9881;stroke-miterlimit:10;}
	.st10{fill:none;stroke:#61BBD6;stroke-width:2.1429;stroke-miterlimit:10;}
	.st11{fill:none;stroke:#61BBD6;stroke-width:2.2976;stroke-miterlimit:10;}
	.st12{fill:none;stroke:#61BBD6;stroke-width:2.4524;stroke-miterlimit:10;}
	.st13{fill:none;stroke:#61BBD6;stroke-width:2.6071;stroke-miterlimit:10;}
	.st14{fill:none;stroke:#61BBD6;stroke-width:2.7619;stroke-miterlimit:10;}
	.st15{fill:none;stroke:#61BBD6;stroke-width:2.9167;stroke-miterlimit:10;}
	.st16{fill:none;stroke:#61BBD6;stroke-width:3.0714;stroke-miterlimit:10;}
	.st17{fill:none;stroke:#61BBD6;stroke-width:3.2262;stroke-miterlimit:10;}
	.st18{fill:none;stroke:#61BBD6;stroke-width:3.381;stroke-miterlimit:10;}
	.st19{fill:none;stroke:#61BBD6;stroke-width:3.5357;stroke-miterlimit:10;}
	.st20{fill:none;stroke:#61BBD6;stroke-width:3.6905;stroke-miterlimit:10;}
	.st21{fill:none;stroke:#61BBD6;stroke-width:3.8452;stroke-miterlimit:10;}
	.st22{fill:none;stroke:#61BBD6;stroke-width:4;stroke-miterlimit:10;}
	.st23{fill:none;stroke:#FFFFFF;stroke-miterlimit:10;}
	.st24{fill:none;stroke:#61BBD6;stroke-width:2;stroke-miterlimit:10;}
	.st25{fill:#FFFFFF;}
	.st26{font-family:'Roboto-Black';}
	.st27{font-size:34.2089px;}
	.st28{font-family:'Roboto-Medium';}
	.st29{font-size:13px;}
	.st30{font-family:'Roboto-Thin';}
	.st31{font-size:18px;}
	.st32{font-family:'Roboto-Bold';}
	.st33{font-size:48px;}
</style>
<g id="Слой_1">
	<rect x="0.2" y="-1" class="st0" width="1460" height="817"/>
	<g>
		<path class="st1" d="M130.2,315c0,0,81.3-11.1,123,41c20,25,58.9,2.2,132,38c49,24,52.1,61.4,107,71c57,10,58,53,116,53
			c58,0,99,18,121,10c31.5-11.5,90,17,121,16s118,0,118,0s86,14,118,5s40,12,120,5"/>
		<path class="st2" d="M130.3,327.7c0,0,83.5-10.6,123.2,39c19,23.8,62.3,2.1,132,36.2c46.7,22.9,55.5,58.4,107.7,67.6
			c54.3,9.5,61.1,50.5,116.3,50.5c55.2,0,99.7,17.1,120.7,9.5c30-10.9,91.2,16.2,120.8,15.2s117.7,0,117.7,0s87.2,13.3,117.7,4.8
			c30.5-8.6,43.5,11.4,119.7,4.8"/>
		<path class="st3" d="M130.5,340.3c0,0,85.7-10,123.4,37.1c18.1,22.6,65.8,2,131.9,34.4c44.3,21.7,58.8,55.5,108.5,64.2
			c51.6,9,64.1,48,116.6,48c52.5,0,100.5,16.3,120.4,9c28.5-10.4,92.5,15.4,120.5,14.5c28-0.9,117.3,0,117.3,0s88.4,12.7,117.4,4.5
			c29-8.1,47,10.9,119.4,4.5"/>
		<path class="st4" d="M130.6,353c0,0,87.8-9.5,123.6,35.1c17.1,21.4,69.2,1.9,131.9,32.6c42,20.6,62.2,52.6,109.2,60.9
			c48.9,8.6,67.2,45.4,116.9,45.4c49.7,0,101.2,15.4,120.1,8.6c27-9.8,93.7,14.6,120.3,13.7c26.6-0.9,117,0,117,0s89.6,12,117.1,4.3
			c27.4-7.7,50.5,10.3,119.1,4.3"/>
		<path class="st5" d="M130.8,365.7c0,0,90-9,123.7,33.2c16.2,20.2,72.7,1.8,131.8,30.8c39.7,19.4,65.5,49.7,110,57.5
			c46.1,8.1,70.3,42.9,117.2,42.9c47,0,102,14.6,119.8,8.1c25.5-9.3,94.9,13.8,120,13c25.1-0.8,116.7,0,116.7,0s90.9,11.3,116.8,4
			s54,9.7,118.8,4"/>
		<path class="st6" d="M130.9,378.3c0,0,92.2-8.4,123.9,31.2c15.2,19,76.1,1.7,131.8,29c37.3,18.3,68.9,46.8,110.7,54.1
			c43.4,7.6,73.3,40.4,117.5,40.4c44.2,0,102.7,13.7,119.5,7.6c24-8.7,96.2,13,119.8,12.2c23.6-0.8,116.3,0,116.3,0
			s92.1,10.7,116.5,3.8c24.4-6.9,57.6,9.1,118.5,3.8"/>
		<path class="st7" d="M131,391c0,0,94.3-7.9,124.1,29.3c14.3,17.9,79.5,1.6,131.7,27.1c35,17.1,72.3,43.8,111.5,50.7
			c40.7,7.1,76.4,37.9,117.9,37.9c41.4,0,103.5,12.9,119.2,7.1c22.5-8.2,97.4,12.1,119.5,11.4c22.1-0.7,116,0,116,0
			s93.3,10,116.2,3.6s61.1,8.6,118.2,3.6"/>
		<path class="st8" d="M131.2,403.7c0,0,96.5-7.4,124.3,27.3c13.3,16.7,83,1.5,131.7,25.3c32.7,16,75.6,40.9,112.2,47.3
			c38,6.7,79.5,35.3,118.2,35.3c38.7,0,104.2,12,118.9,6.7c21-7.6,98.6,11.3,119.3,10.7c20.7-0.7,115.7,0,115.7,0
			s94.5,9.3,115.8,3.3s64.6,8,117.9,3.3"/>
		<path class="st9" d="M131.3,416.3c0,0,98.7-6.9,124.5,25.4c12.4,15.5,86.4,1.4,131.7,23.5c30.3,14.9,79,38,113,44
			c35.3,6.2,82.6,32.8,118.5,32.8c35.9,0,105,11.1,118.6,6.2c19.5-7.1,99.9,10.5,119.1,9.9c19.2-0.6,115.3,0,115.3,0
			s95.7,8.7,115.5,3.1c19.8-5.6,68.1,7.4,117.6,3.1"/>
		<path class="st10" d="M131.5,429c0,0,100.9-6.3,124.7,23.4c11.4,14.3,89.8,1.3,131.6,21.7c28,13.7,82.3,35.1,113.7,40.6
			c32.6,5.7,85.6,30.3,118.8,30.3c33.1,0,105.7,10.3,118.3,5.7c18-6.5,101.1,9.7,118.8,9.1c17.7-0.6,115,0,115,0s96.9,8,115.2,2.9
			c18.3-5.1,71.6,6.9,117.3,2.9"/>
		<path class="st11" d="M131.6,441.7c0,0,103-5.8,124.9,21.5c10.5,13.1,93.3,1.2,131.6,19.9c25.7,12.6,85.7,32.1,114.5,37.2
			c29.9,5.2,88.7,27.8,119.1,27.8c30.4,0,106.5,9.4,118,5.2c16.5-6,102.3,8.9,118.6,8.4s114.6,0,114.6,0s98.2,7.3,114.9,2.6
			c16.8-4.7,75.1,6.3,117,2.6"/>
		<path class="st12" d="M131.8,454.3c0,0,105.2-5.3,125,19.5c9.5,11.9,96.7,1,131.5,18.1c23.3,11.4,89.1,29.2,115.2,33.8
			c27.1,4.8,91.8,25.2,119.4,25.2c27.6,0,107.2,8.6,117.7,4.8c15-5.5,103.6,8.1,118.3,7.6c14.8-0.5,114.3,0,114.3,0
			s99.4,6.7,114.6,2.4c15.2-4.3,78.6,5.7,116.7,2.4"/>
		<path class="st13" d="M131.9,467c0,0,107.4-4.8,125.2,17.6c8.6,10.7,100.2,0.9,131.5,16.3c21,10.3,92.4,26.3,116,30.4
			c24.4,4.3,94.9,22.7,119.7,22.7c24.9,0,108,7.7,117.4,4.3c13.5-4.9,104.8,7.3,118.1,6.9c13.3-0.4,114,0,114,0s100.6,6,114.3,2.1
			c13.7-3.9,82.1,5.1,116.4,2.1"/>
		<path class="st14" d="M132,479.7c0,0,109.5-4.2,125.4,15.6c7.6,9.5,103.6,0.8,131.4,14.5c18.7,9.1,95.8,23.4,116.7,27
			c21.7,3.8,97.9,20.2,120,20.2c22.1,0,108.7,6.9,117.1,3.8c12-4.4,106,6.5,117.8,6.1c11.8-0.4,113.6,0,113.6,0s101.8,5.3,114,1.9
			c12.2-3.4,85.6,4.6,116.1,1.9"/>
		<path class="st15" d="M132.2,492.3c0,0,111.7-3.7,125.6,13.7c6.7,8.3,107,0.7,131.4,12.7c16.3,8,99.1,20.5,117.4,23.7
			c19,3.3,101,17.7,120.3,17.7c19.3,0,109.5,6,116.8,3.3c10.5-3.8,107.3,5.7,117.6,5.3c10.3-0.3,113.3,0,113.3,0s103,4.7,113.7,1.7
			c10.7-3,89.2,4,115.8,1.7"/>
		<path class="st16" d="M132.3,505c0,0,113.9-3.2,125.8,11.7c5.7,7.1,110.5,0.6,131.4,10.9c14,6.9,102.5,17.5,118.2,20.3
			c16.3,2.9,104.1,15.1,120.6,15.1c16.6,0,110.2,5.1,116.5,2.9c9-3.3,108.5,4.9,117.3,4.6c8.9-0.3,113,0,113,0s104.2,4,113.4,1.4
			c9.1-2.6,92.7,3.4,115.5,1.4"/>
		<path class="st17" d="M132.5,517.7c0,0,116-2.6,126,9.8c4.8,6,113.9,0.5,131.3,9c11.7,5.7,105.9,14.6,118.9,16.9
			c13.6,2.4,107.1,12.6,120.9,12.6c13.8,0,111,4.3,116.2,2.4c7.5-2.7,109.7,4,117.1,3.8c7.4-0.2,112.6,0,112.6,0
			s105.5,3.3,113.1,1.2c7.6-2.1,96.2,2.9,115.2,1.2"/>
		<path class="st18" d="M132.6,530.3c0,0,118.2-2.1,126.2,7.8c3.8,4.8,117.3,0.4,131.3,7.2c9.3,4.6,109.2,11.7,119.7,13.5
			C520.6,560.8,619.9,569,631,569c11,0,111.7,3.4,115.9,1.9c6-2.2,111,3.2,116.9,3c5.9-0.2,112.3,0,112.3,0s106.7,2.7,112.8,1
			s99.7,2.3,114.9,1"/>
		<path class="st19" d="M132.8,543c0,0,120.4-1.6,126.3,5.9c2.9,3.6,120.8,0.3,131.2,5.4c7,3.4,112.6,8.8,120.4,10.1
			c8.1,1.4,113.3,7.6,121.6,7.6c8.3,0,112.5,2.6,115.6,1.4c4.5-1.6,112.2,2.4,116.6,2.3s112,0,112,0s107.9,2,112.5,0.7
			s103.2,1.7,114.6,0.7"/>
		<path class="st20" d="M132.9,555.7c0,0,122.6-1.1,126.5,3.9c1.9,2.4,124.2,0.2,131.2,3.6c4.7,2.3,115.9,5.8,121.2,6.8
			c5.4,1,116.4,5,121.9,5c5.5,0,113.2,1.7,115.3,1c3-1.1,113.4,1.6,116.4,1.5c3-0.1,111.6,0,111.6,0s109.1,1.3,112.2,0.5
			c3-0.9,106.7,1.1,114.3,0.5"/>
		<path class="st21" d="M133,568.3c0,0,124.7-0.5,126.7,2c1,1.2,127.7,0.1,131.1,1.8c2.3,1.1,119.3,2.9,121.9,3.4
			c2.7,0.5,119.4,2.5,122.2,2.5c2.8,0,114,0.9,115,0.5c1.5-0.5,114.7,0.8,116.1,0.8s111.3,0,111.3,0s110.3,0.7,111.9,0.2
			s110.2,0.6,114,0.2"/>
		<line class="st22" x1="133.2" y1="581" x2="1203.2" y2="581"/>
	</g>
	<polyline class="st23" points="128.2,300.5 128.2,587 1295.2,587 	"/>
	<line class="st24" x1="258.7" y1="362.5" x2="258.7" y2="643"/>
	<line class="st24" x1="128.7" y1="313" x2="128.7" y2="643"/>
	<line class="st24" x1="384.2" y1="393" x2="382.3" y2="643"/>
	<line class="st24" x1="495.2" y1="465" x2="493.3" y2="643"/>
	<line class="st24" x1="609.2" y1="517" x2="607.3" y2="643"/>
	<path class="st24" d="M668.2,643"/>
	<path class="st24" d="M670.1,385"/>
	<line class="st24" x1="729.2" y1="526" x2="727.3" y2="643"/>
	<line class="st24" x1="848.2" y1="543" x2="846.3" y2="643"/>
	<line class="st24" x1="966.2" y1="543" x2="964.3" y2="643"/>
	<line class="st24" x1="1088.2" y1="549" x2="1086.3" y2="643"/>
	<line class="st24" x1="1205.2" y1="554" x2="1203.3" y2="643"/>
	<text transform="matrix(1 0 0 1 215.0217 303.9385)" class="st25 st26 st27">28.5%</text>
	<text transform="matrix(1 0 0 1 350.0217 352.9385)" class="st25 st26 st27">24%</text>
	<text transform="matrix(1 0 0 1 471.0217 430.9385)" class="st25 st26 st27">20%</text>
	<text transform="matrix(1 0 0 1 583.0217 491.9385)" class="st25 st26 st27">10%</text>
	<text transform="matrix(1 0 0 1 705.0217 506.9385)" class="st25 st26 st27">5%</text>
	<text transform="matrix(1 0 0 1 817.0217 527.9385)" class="st25 st26 st27">2.5%</text>
	<text transform="matrix(1 0 0 1 933.0217 527.9385)" class="st25 st26 st27">2.5%</text>
	<text transform="matrix(1 0 0 1 1065.0216 527.9385)" class="st25 st26 st27">2%</text>
	<text transform="matrix(1 0 0 1 1162.0216 527.9385)" class="st25 st26 st27">1.5%</text>
	<text transform="matrix(1 0 0 1 113.2023 675.7188)"><tspan x="0" y="0" class="st25 st28 st29">Employee </tspan><tspan x="-14.9" y="15.6" class="st25 st28 st29">Overwrote Data</tspan></text>
	<text transform="matrix(1 0 0 1 128.1818 776.7188)" class="st25 st30 st29">Source - Based on the Cyber Guardian Consulting Group, LLC. customer survey</text>
	<text transform="matrix(1 0 0 1 128.1818 205.7188)" class="st25 st30 st31">Google, Microsoft, Zoom, and others do not take responsibility for data loss. Data backup is your responsibility.</text>
	<text transform="matrix(1 0 0 1 128.1818 94.7188)"><tspan x="0" y="0" class="st25 st32 st33">WHY SHOULD YOU BACKUP </tspan><tspan x="0" y="57.6" class="st25 st32 st33">G Suite &amp; Office 365 data?  </tspan></text>
	<text transform="matrix(1 0 0 1 225.7111 675.7188)"><tspan x="0" y="0" class="st25 st28 st29">Compliance</tspan><tspan x="16" y="15.6" class="st25 st28 st29">Needs</tspan></text>
	<text transform="matrix(1 0 0 1 354.4118 675.7188)"><tspan x="0" y="0" class="st25 st28 st29">Accidental</tspan><tspan x="3.5" y="15.6" class="st25 st28 st29">Delection</tspan></text>
	<text transform="matrix(1 0 0 1 467.8205 675.7188)"><tspan x="0" y="0" class="st25 st28 st29">Employee</tspan><tspan x="-3.6" y="15.6" class="st25 st28 st29">Departures</tspan></text>
	<text transform="matrix(1 0 0 1 568.2932 675.7188)" class="st25 st28 st29">Ransomware</text>
	<text transform="matrix(1 0 0 1 680.905 675.7188)"><tspan x="0" y="0" class="st25 st28 st29">Malicious Delete</tspan><tspan x="16.7" y="15.6" class="st25 st28 st29">by Insiders</tspan></text>
	<text transform="matrix(1 0 0 1 808.4201 675.7188)"><tspan x="0" y="0" class="st25 st28 st29">Maware from</tspan><tspan x="-6.4" y="15.6" class="st25 st28 st29">Third Party App</tspan></text>
	<text transform="matrix(1 0 0 1 929.2326 675.7188)"><tspan x="0" y="0" class="st25 st28 st29">Data Deletion</tspan><tspan x="6.6" y="15.6" class="st25 st28 st29">by Hackers</tspan></text>
	<text transform="matrix(1 0 0 1 1047.1158 675.7188)"><tspan x="0" y="0" class="st25 st28 st29">Ended Service</tspan><tspan x="1" y="15.6" class="st25 st28 st29">and Data Lost</tspan></text>
	<text transform="matrix(1 0 0 1 1150.4332 675.7188)"><tspan x="0" y="0" class="st25 st28 st29">Outages at Google</tspan><tspan x="18" y="15.6" class="st25 st28 st29">or Microsoft</tspan></text>
</g>
<g id="Слой_2">
</g>
</svg>
