<svg xmlns="http://www.w3.org/2000/svg" viewBox="0 0 906.4 929.4"><defs><style>.cls-1{fill:#675c9d;}.cls-2,.cls-3{fill:none;stroke-miterlimit:10;}.cls-2{stroke:#e94e80;stroke-width:13px;}.cls-3{stroke:#000;stroke-width:3px;}.cls-4{fill:#36bdd9;}.cls-5,.cls-9{fill:#fff;}.cls-6{fill:#dc5980;}.cls-7{fill:#60bcd5;}.cls-8{fill:#655f9d;}.cls-9{font-size:6.66px;font-family:Futura-Bold, Futura;font-weight:700;}.cls-10{letter-spacing:0em;}.cls-11{letter-spacing:-0.02em;}.cls-12{letter-spacing:-0.01em;}.cls-13{letter-spacing:0em;}.cls-14{letter-spacing:0em;}.cls-15{letter-spacing:-0.03em;}.cls-16{letter-spacing:-0.02em;}.cls-17{letter-spacing:-0.04em;}.cls-18{letter-spacing:-0.01em;}</style></defs><g id="Слой_6" data-name="Слой 6"><rect class="cls-1" x="48.7" y="97.8" width="820.6" height="799.05"/></g><g id="big_str" data-name="big str"><polyline class="cls-2" points="54 169.9 253.1 184.6 450.7 199.2 531.2 193.3 526.8 0.1"/><path class="cls-2" d="M806.4,422.1S636.7,144,626.4,129.4,601.5,89.9,576.7,84s-104,11.7-104,11.7l1.5,27.8L701.6,829.8" transform="translate(58.4 97.6)"/><polyline class="cls-2" points="253.1 184.6 267.7 745.1 324.4 864.2"/><line class="cls-2" x1="5.7" y1="249" x2="267.7" y2="745.1"/><line class="cls-2" x1="15.1" y1="486.3" x2="831.2" y2="462.6"/><line class="cls-2" x1="450.7" y1="199.2" x2="493" y2="923.7"/><path class="cls-2" d="M548.9-73.9s93.8,80.6,125,279.2" transform="translate(58.4 97.6)"/><line class="cls-2" x1="317.2" y1="864" x2="904.1" y2="641"/></g><g id="small_str" data-name="small str"><line class="cls-3" x1="459.7" y1="298.7" x2="258.2" y2="315.5"/><path class="cls-3" d="M101,78.8v75.3a22,22,0,0,1-17.4,21.6L-26.9,200" transform="translate(58.4 97.6)"/><polyline class="cls-3" points="156.6 260.5 195.9 261.7 207.1 205.5 158.3 198.8"/><polyline class="cls-3" points="15.2 269.5 104.4 268.4 106.1 257.2"/><path class="cls-3" d="M252.6,382.9l18,27.6a25,25,0,0,1,3.8,18.3h0A18.2,18.2,0,0,1,259,443.6l-14.9,1.9a12.3,12.3,0,0,0-10.8,12.7l1.9,61.1s2.8,15.2,42,15.2,88.7-5.7,88.7-5.7" transform="translate(58.4 97.6)"/><path class="cls-3" d="M265.5,403.7s51.6-4.5,55.5,4.5,5.6,27.5-3.9,29.7-46-.5-46-.5" transform="translate(58.4 97.6)"/><path class="cls-3" d="M263.4,442.7v25.6s-1,17.1,34.6,7.8" transform="translate(58.4 97.6)"/></g><g id="houses"><rect class="cls-4" x="355.4" y="299" width="32.3" height="42.33" transform="translate(37.3 123.9) rotate(-3.9)"/><rect class="cls-4" x="346.6" y="158.4" width="32.3" height="39.78" transform="translate(47 122.9) rotate(-3.9)"/><rect class="cls-4" x="210.3" y="162.3" width="107.1" height="42.33" transform="translate(46.5 116.1) rotate(-3.9)"/><rect class="cls-4" x="491.8" y="122.5" width="31" height="42.33" transform="translate(39.6 275.7) rotate(-19.6)"/><rect class="cls-4" x="508" y="166.5" width="31" height="42.33" transform="translate(25.8 283.7) rotate(-19.6)"/><rect class="cls-4" x="524.8" y="211.1" width="31" height="42.33" transform="translate(11.9 291.9) rotate(-19.6)"/><rect class="cls-4" x="539.9" y="253.3" width="31" height="42.33" transform="translate(-1.4 299.4) rotate(-19.6)"/><rect class="cls-4" x="556.1" y="297.3" width="31" height="42.33" transform="translate(-15.2 307.3) rotate(-19.6)"/><rect class="cls-4" x="690.9" y="296.7" width="31" height="42.33" transform="translate(-5.9 493.4) rotate(-30)"/><rect class="cls-4" x="666" y="255" width="31" height="42.33" transform="matrix(0.87, -0.5, 0.5, 0.87, 11.62, 475.36)"/><rect class="cls-4" x="605" y="324.6" width="22.6" height="42.33" transform="translate(357.2 1074.7) rotate(-92.6)"/><rect class="cls-4" x="653.1" y="332.9" width="22.6" height="23.49" transform="matrix(-0.05, -1, 1, -0.05, 408.61, 1121.6)"/><rect class="cls-4" x="343.6" y="113.9" width="32.3" height="42.33" transform="translate(50 122.6) rotate(-3.9)"/><rect class="cls-4" x="306.7" y="113.6" width="32.3" height="42.33" transform="translate(73 67) rotate(5.6)"/><rect class="cls-4" x="272.3" y="109.7" width="32.3" height="42.33" transform="matrix(1, 0.1, -0.1, 1, 72.44, 70.29)"/><rect class="cls-4" x="239.1" y="106.2" width="32.3" height="42.33" transform="matrix(1, 0.1, -0.1, 1, 71.95, 73.49)"/><rect class="cls-4" x="219.1" y="104.1" width="32.3" height="13.44" transform="translate(70.3 75.3) rotate(5.6)"/><rect class="cls-4" x="253" y="258.9" width="132.4" height="42.33" transform="translate(40 120.2) rotate(-3.9)"/><rect class="cls-4" x="250.5" y="215.1" width="132.4" height="42.33" transform="translate(43 119.9) rotate(-3.9)"/><rect class="cls-4" x="355.2" y="331.1" width="22.1" height="47.47" transform="translate(84.8 832.6) rotate(-92.3)"/><rect class="cls-4" x="436.9" y="331.1" width="22.1" height="47.47" transform="translate(169.8 914.2) rotate(-92.3)"/><polygon class="cls-4" points="574.1 399 593.9 459.6 546.5 461.5 550.8 401.3 574.1 399"/><rect class="cls-4" x="435.7" y="306.4" width="22.1" height="47.47" transform="translate(193.2 887.3) rotate(-92.3)"/><rect class="cls-4" x="441.5" y="289.1" width="8.7" height="47.47" transform="translate(209.5 868.5) rotate(-92.3)"/><rect class="cls-4" x="300" y="330.2" width="48" height="25.55" transform="translate(52.6 778) rotate(-92.3)"/><rect class="cls-4" x="272.7" y="331.3" width="48" height="25.55" transform="translate(23.1 751.9) rotate(-92.3)"/><rect class="cls-4" x="357.7" y="379.4" width="22.1" height="47.47" transform="translate(39.2 885.3) rotate(-92.3)"/><rect class="cls-4" x="439.3" y="374.3" width="22.1" height="47.47" transform="translate(129.1 961.5) rotate(-92.3)"/><rect class="cls-4" x="359.7" y="403.9" width="22.1" height="47.47" transform="translate(16.7 912.8) rotate(-92.3)"/><rect class="cls-4" x="441" y="401" width="22.1" height="47.47" transform="translate(104.1 991) rotate(-92.3)"/><rect class="cls-4" x="428.8" y="484.3" width="59.3" height="47.47" transform="translate(42.3 1098.6) rotate(-94)"/><rect class="cls-4" x="430.7" y="554.9" width="59.3" height="38.54" transform="translate(-15.8 1177.6) rotate(-94.7)"/><rect class="cls-4" x="446.8" y="609.5" width="35.4" height="38.72" transform="translate(-65.8 1241) rotate(-94.7)"/><rect class="cls-4" x="533.5" y="502.6" width="59.3" height="38.54" transform="matrix(-0.31, -0.95, 0.95, -0.31, 303.51, 1318.31)"/><rect class="cls-4" x="614.4" y="492.8" width="59.3" height="38.54" transform="translate(1475 892.9) rotate(161.7)"/><rect class="cls-4" x="586" y="394.2" width="28.9" height="72.59" transform="translate(1364.3 747.7) rotate(161.7)"/><rect class="cls-4" x="630.2" y="532.1" width="59.3" height="50.01" transform="translate(1519.9 975.8) rotate(161.7)"/><polygon class="cls-4" points="607.1 493.1 614.5 515.2 546.2 517.7 545.3 495.6 607.1 493.1"/><rect class="cls-4" x="328.3" y="428.2" width="51.8" height="85.83" transform="translate(-43.9 941.4) rotate(-92.3)"/><rect class="cls-4" x="337.7" y="542" width="51.8" height="85.83" transform="matrix(-0.04, -1, 1, -0.04, -147.98, 1069.2)"/><rect class="cls-4" x="340.2" y="594.7" width="51.8" height="85.83" transform="translate(-198 1126.5) rotate(-92.3)"/><rect class="cls-4" x="297.6" y="468.6" width="19.1" height="76.33" transform="translate(-128.5 931.6) rotate(-92.3)"/><rect class="cls-4" x="217.2" y="563.9" width="48.5" height="44.69" transform="translate(-276.2 948.6) rotate(-92.3)"/><rect class="cls-4" x="218.3" y="403.1" width="36.2" height="28.3" transform="translate(-112.6 767.7) rotate(-92.3)"/><rect class="cls-4" x="159.7" y="400.5" width="36.2" height="28.3" transform="translate(-171 706.5) rotate(-92.3)"/><rect class="cls-4" x="112.9" y="400.5" width="36.2" height="28.3" transform="translate(-219.7 659.8) rotate(-92.3)"/><rect class="cls-4" x="166.7" y="324.1" width="22.1" height="47.47" transform="translate(427.6 785.9) rotate(177.7)"/><rect class="cls-4" x="164.7" y="266" width="22.1" height="47.47" transform="translate(421.3 669.7) rotate(177.7)"/><rect class="cls-4" x="146.9" y="101.9" width="39.4" height="69.1" transform="matrix(-1, 0.04, -0.04, -1, 397.03, 363.65)"/><rect class="cls-4" x="27.2" y="94.3" width="39.4" height="69.1" transform="translate(140.4 359.1) rotate(-174.9)"/><rect class="cls-4" x="170.9" y="244.2" width="14.4" height="19.94" transform="translate(424.7 598.6) rotate(177.7)"/><rect class="cls-4" x="139.7" y="245.3" width="30.1" height="19.94" transform="translate(378 601.8) rotate(177.7)"/><rect class="cls-4" x="111" y="323.6" width="22.1" height="47.47" transform="translate(316.4 787.1) rotate(177.7)"/><rect class="cls-4" x="82.5" y="325.6" width="22.1" height="47.47" transform="translate(259.4 792.3) rotate(177.7)"/><polygon class="cls-4" points="84 377.8 134.3 358.9 146.9 404.6 103.5 416.7 84 377.8"/><polygon class="cls-4" points="292.2 767.8 342.5 749 355.1 794.7 311.7 806.7 292.2 767.8"/><rect class="cls-4" x="212.4" y="324.9" width="22.1" height="47.47" transform="translate(519.2 785.7) rotate(177.7)"/><polygon class="cls-4" points="464.8 209.9 484.8 400.5 573.7 393.3 509.6 209.9 464.8 209.9"/><rect class="cls-4" x="678.8" y="477.5" width="28.8" height="26.55"/><rect class="cls-4" x="730.5" y="477" width="18.4" height="33.29"/><rect class="cls-4" x="754.8" y="475.7" width="19.3" height="35.09"/><rect class="cls-4" x="785.9" y="474.8" width="23.4" height="36.44"/><path class="cls-5" d="M294.6,255.2h-.7a28.8,28.8,0,0,0-28.2,28.6,28.1,28.1,0,0,0,3.7,14.2c1.7,2.9,3.3,5.8,4.7,8.8l20.3,43.8h0l20-43.7c1.4-3,3-5.9,4.6-8.8a28.1,28.1,0,0,0,3.8-14.2A28.8,28.8,0,0,0,294.6,255.2Z" transform="translate(58.4 97.6)"/><polygon class="cls-6" points="334.3 373.6 334.3 385.5 356.9 373 356.9 361.6 334.3 373.6"/><polygon class="cls-7" points="356.9 384.5 356.9 373 367.2 378.6 367.2 390 356.9 384.5"/><polygon class="cls-8" points="346.6 401.2 356.9 395.8 356.9 384.5 346.7 389.9 346.6 401.2"/></g><g id="naming"><text class="cls-9" transform="translate(346 480.1) rotate(-1.9)">JOHN <tspan class="cls-10" x="23.6" y="0">S</tspan><tspan class="cls-11" x="27.9" y="0">T</tspan><tspan x="31.3" y="0">.</tspan></text><text class="cls-9" transform="matrix(1, 0.07, -0.07, 1, 313.02, 191.13)">N F<tspan class="cls-12" x="12" y="0">R</tspan><tspan x="16.6" y="0">ONT </tspan><tspan class="cls-10" x="34.7" y="0">S</tspan><tspan class="cls-11" x="39" y="0">T</tspan><tspan class="cls-13" x="42.4" y="0">.</tspan></text><text class="cls-9" transform="matrix(1, 0.07, -0.07, 1, 120.11, 177.01)">N F<tspan class="cls-12" x="12" y="0">R</tspan><tspan x="16.6" y="0">ONT </tspan><tspan class="cls-10" x="34.7" y="0">S</tspan><tspan class="cls-11" x="39" y="0">T</tspan><tspan class="cls-13" x="42.4" y="0">.</tspan></text><text class="cls-9" transform="translate(171.6 485.4) rotate(-1.9)">JOHN <tspan class="cls-10" x="23.6" y="0">S</tspan><tspan class="cls-11" x="27.9" y="0">T</tspan><tspan class="cls-14" x="31.3" y="0">.</tspan></text><text class="cls-9" transform="translate(530 474.3) rotate(-1.9)">JOHN <tspan class="cls-10" x="23.6" y="0">S</tspan><tspan class="cls-11" x="27.9" y="0">T</tspan><tspan x="31.3" y="0">.</tspan></text><text class="cls-9" transform="matrix(0.29, 0.96, -0.96, 0.29, 554.88, 297.78)"><tspan class="cls-15">F</tspan><tspan x="3.5" y="0">AIR </tspan><tspan class="cls-10" x="18.1" y="0">S</tspan><tspan class="cls-16" x="22.5" y="0">T</tspan><tspan x="25.9" y="0">.</tspan></text><text class="cls-9" transform="translate(455.3 325.3) rotate(86.5)"><tspan class="cls-17">W</tspan><tspan x="7.4" y="0">ALL </tspan><tspan class="cls-10" x="22.1" y="0">S</tspan><tspan class="cls-11" x="26.4" y="0">T</tspan><tspan x="29.8" y="0">.</tspan></text><text class="cls-9" transform="translate(471.7 603.3) rotate(86.5)"><tspan class="cls-17">W</tspan><tspan x="7.4" y="0">ALL </tspan><tspan class="cls-10" x="22.1" y="0">S</tspan><tspan class="cls-11" x="26.4" y="0">T</tspan><tspan x="29.8" y="0">.</tspan></text><text class="cls-9" transform="matrix(0.02, 1, -1, 0.02, 253.85, 327.09)">C<tspan class="cls-12" x="4.4" y="0">R</tspan><tspan class="cls-18" x="9.1" y="0">O</tspan><tspan x="15.2" y="0">WN </tspan><tspan class="cls-10" x="31.1" y="0">S</tspan><tspan class="cls-16" x="35.5" y="0">T</tspan><tspan x="38.9" y="0">.</tspan></text><text class="cls-9" transform="matrix(0.02, 1, -1, 0.02, 261, 579.54)">C<tspan class="cls-12" x="4.4" y="0">R</tspan><tspan class="cls-18" x="9.1" y="0">O</tspan><tspan x="15.2" y="0">WN </tspan><tspan class="cls-10" x="31.1" y="0">S</tspan><tspan class="cls-16" x="35.5" y="0">T</tspan><tspan x="38.9" y="0">.</tspan></text><text class="cls-9" transform="translate(639 559.9) rotate(73.1)"><tspan class="cls-15">F</tspan><tspan x="3.5" y="0">AIR </tspan><tspan class="cls-10" x="18.1" y="0">S</tspan><tspan class="cls-16" x="22.5" y="0">T</tspan><tspan x="25.9" y="0">.</tspan></text><text class="cls-9" transform="translate(717.2 467.8) rotate(-1.9)">JOHN <tspan class="cls-10" x="23.6" y="0">S</tspan><tspan class="cls-11" x="27.9" y="0">T</tspan><tspan x="31.3" y="0">.</tspan></text></g></svg>