<svg id="Слой_1" data-name="Слой 1" xmlns="http://www.w3.org/2000/svg" viewBox="0 0 932.7 785.96">
  <defs>
    <style>
      .cls-1, .cls-10, .cls-11, .cls-12, .cls-13, .cls-14, .cls-15, .cls-16, .cls-17, .cls-18, .cls-19, .cls-2, .cls-20, .cls-21, .cls-22, .cls-23, .cls-24, .cls-3, .cls-4, .cls-5, .cls-6, .cls-7, .cls-8, .cls-9 {
        fill: none;
        stroke: #36bdd9;
        stroke-miterlimit: 10;
      }

      .cls-1 {
        stroke-width: 0.75px;
      }

      .cls-2 {
        stroke-width: 0.9px;
      }

      .cls-3 {
        stroke-width: 1.06px;
      }

      .cls-4 {
        stroke-width: 1.21px;
      }

      .cls-5 {
        stroke-width: 1.37px;
      }

      .cls-6 {
        stroke-width: 1.52px;
      }

      .cls-7 {
        stroke-width: 1.68px;
      }

      .cls-8 {
        stroke-width: 1.83px;
      }

      .cls-9 {
        stroke-width: 1.99px;
      }

      .cls-10 {
        stroke-width: 2.14px;
      }

      .cls-11 {
        stroke-width: 2.3px;
      }

      .cls-12 {
        stroke-width: 2.45px;
      }

      .cls-13 {
        stroke-width: 2.61px;
      }

      .cls-14 {
        stroke-width: 2.76px;
      }

      .cls-15 {
        stroke-width: 2.92px;
      }

      .cls-16 {
        stroke-width: 3.07px;
      }

      .cls-17 {
        stroke-width: 3.23px;
      }

      .cls-18 {
        stroke-width: 3.38px;
      }

      .cls-19 {
        stroke-width: 3.54px;
      }

      .cls-20 {
        stroke-width: 3.69px;
      }

      .cls-21 {
        stroke-width: 3.85px;
      }

      .cls-22 {
        stroke-width: 4px;
      }

      .cls-23 {
        stroke-width: 2px;
      }

      .cls-24 {
        stroke-width: 66px;
      }

      .cls-25 {
        font-size: 32.06px;
        font-family: Roboto-Black, Roboto;
        font-weight: 800;
      }

      .cls-25, .cls-26 {
        fill: #fff;
      }

      .cls-26 {
        font-size: 19.68px;
        font-family: Roboto-Medium, Roboto;
        font-weight: 500;
      }

      .cls-27 {
        letter-spacing: -0.01em;
      }

      .cls-28 {
        letter-spacing: -0.01em;
      }

      .cls-29 {
        letter-spacing: 0em;
      }

      .cls-30 {
        letter-spacing: 0.01em;
      }

      .cls-31 {
        letter-spacing: -0.02em;
      }

      .cls-32 {
        letter-spacing: 0em;
      }

      .cls-33 {
        letter-spacing: 0.02em;
      }

      .cls-34 {
        letter-spacing: -0.01em;
      }

      .cls-35 {
        letter-spacing: -0.01em;
      }

      .cls-36 {
        letter-spacing: -0.01em;
      }

      .cls-37 {
        letter-spacing: -0.01em;
      }

      .cls-38 {
        letter-spacing: 0.02em;
      }

      .cls-39 {
        letter-spacing: -0.02em;
      }

      .cls-40 {
        letter-spacing: -0.01em;
      }

      .cls-41 {
        letter-spacing: 0.01em;
      }
    </style>
  </defs>
  <g>
    <g>
      <path class="cls-1" d="M6.71,42.31s68.49-19.15,103.58,70.8c16.85,43.17,49.61,3.79,111.17,65.62,41.26,41.44,43.88,106,90.11,122.6,48,17.27,48.84,91.52,97.69,91.52s83.37,31.09,101.9,17.27c26.53-19.78,75.79,29.36,101.9,27.63s99.37,0,99.37,0,72.43,24.18,99.38,8.63,33.68,20.73,101.06,8.64"/>
      <path class="cls-2" d="M6.83,64.18s70.32-18.24,103.74,67.43c16,41.11,52.5,3.61,111.13,62.49C261,233.57,268.41,295,312.44,310.87,358.15,327.32,363.86,398,410.39,398s84,29.61,101.65,16.45c25.27-18.84,76.83,28,101.69,26.31s99.09,0,99.09,0,73.45,23,99.12,8.23,36.64,19.73,100.81,8.22"/>
      <path class="cls-3" d="M7,86.05s72.15-17.32,103.9,64.06c15.24,39.06,55.39,3.43,111.09,59.37,37.33,37.5,49.54,95.88,91.37,110.93,43.43,15.62,54,82.8,98.21,82.8s84.63,28.13,101.39,15.63c24-17.9,77.87,26.56,101.49,25s98.81,0,98.81,0,74.48,21.87,98.86,7.81,39.6,18.75,100.55,7.81"/>
      <path class="cls-4" d="M7.07,107.93s74-16.42,104.05,60.68c14.44,37,58.29,3.25,111.06,56.25,35.37,35.52,52.37,90.83,92,105.09,41.15,14.8,56.6,78.44,98.48,78.44S497.91,435,513.79,423.2c22.74-17,78.91,25.16,101.28,23.68s98.53,0,98.53,0,75.5,20.72,98.6,7.4,42.56,17.76,100.3,7.4"/>
      <path class="cls-5" d="M7.19,129.8S83,114.3,111.4,187.11c13.64,34.95,61.19,3.08,111,53.12,33.41,33.55,55.2,85.79,92.62,99.26,38.86,14,59.19,74.08,98.74,74.08s85.89,25.17,100.89,14c21.48-16,79.94,23.77,101.08,22.37s98.24,0,98.24,0,76.52,19.57,98.34,7,45.51,16.77,100,7"/>
      <path class="cls-6" d="M7.31,151.67s77.63-14.59,104.37,54c12.83,32.89,64.08,2.89,111,50,31.44,31.58,58,80.74,93.25,93.41,36.58,13.16,61.77,69.74,99,69.74s86.53,23.68,100.64,13.15c20.22-15.07,81,22.37,100.88,21s98,0,98,0,77.55,18.42,98.08,6.58,48.47,15.79,99.8,6.58"/>
      <path class="cls-7" d="M7.43,173.55S86.89,159.87,112,224.12c12,30.83,67,2.71,111,46.87,29.48,29.6,60.86,75.69,93.88,87.57,34.29,12.34,64.36,65.38,99.25,65.38s87.16,22.2,100.39,12.33c19-14.13,82,21,100.67,19.74s97.68,0,97.68,0,78.57,17.26,97.82,6.16S864,477,912.14,468.34"/>
      <path class="cls-8" d="M7.55,195.42s81.28-12.77,104.68,47.2c11.23,28.78,69.87,2.53,110.91,43.75C250.65,314,286.83,357,317.65,368.1c32,11.51,66.94,61,99.51,61S505,449.84,517.3,440.63c17.69-13.19,83.06,19.57,100.46,18.42s97.4,0,97.4,0,79.6,16.11,97.56,5.75,54.39,13.82,99.3,5.76"/>
      <path class="cls-9" d="M7.67,217.29s83.11-11.85,104.84,43.83c10.42,26.73,72.76,2.35,110.87,40.62,25.55,25.66,66.52,65.61,95.14,75.9,29.71,10.69,69.53,56.66,99.77,56.66S506.7,453.54,518.17,445c16.43-12.25,84.1,18.17,100.26,17.1s97.12,0,97.12,0,80.62,15,97.3,5.35,57.35,12.82,99,5.34"/>
      <path class="cls-10" d="M7.79,239.17s84.94-10.95,105,40.45c9.63,24.67,75.67,2.17,110.84,37.5,23.58,23.68,69.35,60.56,95.77,70.06,27.43,9.87,72.12,52.3,100,52.3s89,17.76,99.63,9.86c15.16-11.3,85.14,16.78,100.06,15.79s96.83,0,96.83,0,81.64,13.82,97,4.94,60.3,11.84,98.8,4.93"/>
      <path class="cls-11" d="M7.91,261s86.77-10,105.15,37.08c8.82,22.62,78.56,2,110.8,34.38,21.62,21.7,72.18,55.51,96.4,64.22,25.14,9,74.7,47.94,100.29,47.94s89.67,16.28,99.38,9c13.9-10.36,86.17,15.38,99.85,14.48s96.55,0,96.55,0,82.67,12.66,96.78,4.52,63.26,10.85,98.55,4.52"/>
      <path class="cls-12" d="M8,282.91s88.6-9.12,105.31,33.72c8,20.55,81.45,1.8,110.76,31.24,19.65,19.74,75,50.47,97,58.39,22.86,8.22,77.3,43.58,100.56,43.58s90.3,14.8,99.12,8.22c12.64-9.42,87.22,14,99.65,13.16s96.27,0,96.27,0,83.69,11.51,96.52,4.11,66.22,9.87,98.3,4.11"/>
      <path class="cls-13" d="M8.15,304.78s90.42-8.2,105.46,30.35c7.22,18.5,84.35,1.62,110.73,28.12C242,381,302.18,408.67,322,415.79,342.57,423.2,401.87,455,422.81,455s90.93,13.32,98.87,7.4c11.37-8.48,88.25,12.58,99.44,11.84s96,0,96,0,84.72,10.36,96.27,3.7,69.17,8.88,98,3.7"/>
      <path class="cls-14" d="M8.27,326.66s92.25-7.3,105.62,27c6.42,16.45,87.24,1.44,110.69,25,15.72,15.79,80.67,40.37,98.28,46.7,18.29,6.58,82.47,34.87,101.08,34.87s91.56,11.84,98.62,6.58c10.11-7.54,89.29,11.18,99.23,10.52s95.71,0,95.71,0,85.74,9.21,96,3.29,72.13,7.9,97.79,3.29"/>
      <path class="cls-15" d="M8.39,348.53s94.08-6.38,105.78,23.6c5.61,14.39,90.14,1.27,110.66,21.87,13.75,13.82,83.49,35.33,98.9,40.87,16,5.76,85,30.51,101.34,30.51s92.19,10.36,98.37,5.76c8.84-6.6,90.32,9.78,99,9.21s95.42,0,95.42,0,86.76,8,95.75,2.87,75.08,6.91,97.54,2.88"/>
      <path class="cls-16" d="M8.51,370.4s95.91-5.47,105.93,20.23c4.82,12.34,93,1.09,110.63,18.75,11.79,11.84,86.32,30.28,99.53,35,13.71,4.93,87.64,26.15,101.6,26.15s92.82,8.88,98.11,4.93c7.58-5.65,91.37,8.39,98.83,7.9s95.14,0,95.14,0,87.79,6.9,95.49,2.46,78,5.93,97.29,2.47"/>
      <path class="cls-17" d="M8.63,392.28s97.73-4.56,106.09,16.85c4,10.28,95.93.91,110.59,15.63,9.82,9.87,89.15,25.23,100.16,29.19,11.43,4.11,90.22,21.79,101.86,21.79s93.45,7.4,97.86,4.11c6.32-4.71,92.4,7,98.62,6.58s94.86,0,94.86,0,88.81,5.76,95.23,2.06,81,4.93,97,2.05"/>
      <path class="cls-18" d="M8.75,414.15S108.31,410.5,115,427.64c3.2,8.22,98.82.72,110.55,12.49,7.86,7.9,92,20.19,100.79,23.36,9.14,3.29,92.81,17.43,102.12,17.43s94.08,5.92,97.61,3.29c5-3.77,93.44,5.59,98.41,5.26s94.58,0,94.58,0,89.84,4.61,95,1.65,84,3.94,96.79,1.64"/>
      <path class="cls-19" d="M8.87,436s101.39-2.73,106.4,10.12c2.41,6.16,101.72.54,110.52,9.37,5.89,5.92,94.81,15.14,101.42,17.52,6.85,2.46,95.4,13.07,102.37,13.07s94.72,4.44,97.36,2.47c3.79-2.83,94.48,4.19,98.21,3.95s94.3,0,94.3,0,90.86,3.45,94.71,1.23,86.92,3,96.54,1.23"/>
      <path class="cls-20" d="M9,457.9s103.21-1.83,106.55,6.74c1.6,4.11,104.61.36,110.48,6.25,3.93,3.95,97.64,10.09,102,11.68,4.58,1.64,98,8.71,102.64,8.71s95.35,3,97.11,1.65c2.53-1.89,95.52,2.79,98,2.63s94,0,94,0,91.88,2.3,94.45.82,89.87,2,96.29.82"/>
      <path class="cls-21" d="M9.12,479.77s105-.91,106.71,3.37c.8,2.06,107.51.18,110.44,3.13,2,2,100.47,5,102.67,5.83s100.58,4.36,102.9,4.36,96,1.48,96.86.82c1.26-.94,96.55,1.4,97.8,1.32s93.73,0,93.73,0,92.91,1.15,94.19.41,92.83,1,96,.41"/>
      <line class="cls-22" x1="9.24" y1="501.64" x2="910.34" y2="501.64"/>
    </g>
    <line class="cls-23" x1="110.36" y1="303.45" x2="110.36" y2="677.81"/>
    <line class="cls-23" x1="8.11" y1="257.07" x2="8.11" y2="566.3"/>
    <line class="cls-23" x1="207.91" y1="332.03" x2="206.29" y2="566.3"/>
    <line class="cls-23" x1="292.98" y1="399.5" x2="291.84" y2="637.53"/>
    <line class="cls-23" x1="383.11" y1="448.23" x2="380.11" y2="749.97"/>
    <line class="cls-23" x1="476.98" y1="456.67" x2="474.82" y2="639.38"/>
    <line class="cls-23" x1="569.09" y1="472.6" x2="567.47" y2="566.3"/>
    <line class="cls-23" x1="661.29" y1="472.6" x2="658.63" y2="704.99"/>
    <line class="cls-23" x1="756.84" y1="478.22" x2="755.23" y2="566.3"/>
    <line class="cls-23" x1="849.14" y1="482.9" x2="846.51" y2="702.16"/>
    <line class="cls-24" x1="139.62" y1="108.07" x2="139.62" y2="500.71"/>
    <line class="cls-24" x1="38.04" y1="38.78" x2="38.04" y2="500.71"/>
    <line class="cls-24" x1="237.68" y1="150.77" x2="236.18" y2="500.71"/>
    <line class="cls-24" x1="324.42" y1="251.55" x2="322.91" y2="500.71"/>
    <line class="cls-24" x1="413.49" y1="324.34" x2="411.99" y2="500.71"/>
    <line class="cls-24" x1="507.26" y1="336.94" x2="505.75" y2="500.71"/>
    <line class="cls-24" x1="600.24" y1="360.73" x2="598.73" y2="500.71"/>
    <line class="cls-24" x1="692.44" y1="360.73" x2="690.93" y2="500.71"/>
    <line class="cls-24" x1="787.77" y1="369.13" x2="786.26" y2="500.71"/>
    <line class="cls-24" x1="879.19" y1="376.13" x2="877.68" y2="500.71"/>
    <text class="cls-25" transform="translate(0 27.42)">28.5%</text>
    <text class="cls-25" transform="translate(112.45 98.64)">24%</text>
    <text class="cls-25" transform="translate(208.97 138.93)">20%</text>
    <text class="cls-25" transform="translate(293.31 243.89)">10%</text>
    <text class="cls-25" transform="translate(392.64 320.73)">5%</text>
    <text class="cls-25" transform="translate(486.34 331.04)">4%</text>
    <text class="cls-25" transform="translate(572.56 346.97)">2.5%</text>
    <text class="cls-25" transform="translate(659.7 346.97)">2.5%</text>
    <text class="cls-25" transform="translate(763.72 353.53)">2%</text>
    <text class="cls-25" transform="translate(842.43 362.9)">1.5%</text>
    <text class="cls-26" transform="translate(5.89 592.28)"><tspan x="2.1">Employee</tspan><tspan x="0" y="23.61">Overwrote</tspan><tspan x="25" y="47.23">Data</tspan></text>
    <text class="cls-26" transform="translate(104.29 704.73)">Compliance<tspan x="25" y="23.61">Needs</tspan></text>
    <text class="cls-26" transform="translate(160.59 597.9)">Accidental<tspan x="5.27" y="23.61">Delection</tspan></text>
    <text class="cls-26" transform="translate(258.08 672.86)">Employee<tspan x="-5.74" y="23.61">Departures</tspan></text>
    <text class="cls-26" transform="translate(313.9 780.63)">Ransomware</text>
    <text class="cls-26" transform="translate(429.21 673.8)">Malicious <tspan x="17.17" y="23.61">Delete</tspan><tspan class="cls-32" x="0" y="47.23">by Insiders</tspan></text>
    <text class="cls-26" transform="translate(537.03 602.58)">Malware<tspan x="-8.59" y="23.61">f</tspan><tspan class="cls-31" x="-1.61" y="23.61">r</tspan><tspan x="4.96" y="23.61">om Third</tspan><tspan class="cls-37" x="-5.5" y="47.23">P</tspan><tspan x="6.98" y="47.23">a</tspan><tspan class="cls-38" x="17.62" y="47.23">r</tspan><tspan class="cls-32" x="25.02" y="47.23">ty </tspan><tspan class="cls-39" x="46.04" y="47.23">A</tspan><tspan x="58.68" y="47.23">pp</tspan></text>
    <text class="cls-26" transform="translate(596.13 742.21)">Data Deletion<tspan class="cls-36" x="10.11" y="23.61">by Hackers</tspan></text>
    <text class="cls-26" transform="translate(677.18 602.58)">Ended Service<tspan x="1.58" y="23.61">and Data Lost</tspan></text>
    <text class="cls-26" transform="translate(769.58 745.96)">Outages at Google<tspan x="27.44" y="23.61">or Microsoft</tspan></text>
  </g>
</svg>
