<svg xmlns="http://www.w3.org/2000/svg" viewBox="0 0 203 160">
  <style>
    .s1,
    .s2 {
      fill: none
    }

    .s2 {
      stroke: #a7a7a7;
      stroke-width: .25px
    }

    .s3 {
      fill: #a7a7a7;
      fill-rule: evenodd
    }

    .s11 {
      fill: #fff
    }

    .s12 {
      fill: #4c4c4c
    }

    .s15 {
      fill: #626262
    }

    .s27 {
      fill: #7c7c7c
    }

    .s31 {
      stroke: #494949;
      stroke-width: .3px
    }
  </style>
  <rect class="s2" x="4.8" y="53" width="194" height="50" rx="12" />
  <rect class="s2" x="4.8" y="106" width="194" height="50" rx="12" />
  <path class="s2" d="M51.2 53v50m49.5-50v50M150 53v50m-98.8 3v50m49.5-50v50m49.3-50v50" />
  <path id="forbes" transform="translate(3 1.1) scale(.0593)"
    d="M175.8 398.5c-39.8-5.6-72.2-19.4-101.4-43.1-10-8.1-25.5-23.7-32.6-33-18.9-24.6-32.3-54.6-38.5-86.2C.9 223.8.6 220.3.6 200c0-20.3.3-23.8 2.7-36.2C11 124.7 28.5 90.2 55 62.6 115.7-.9 207.7-17.8 286.6 19.9c33.1 15.9 61.2 40.7 81.8 72.4 12.9 19.6 23.4 46.3 28.3 71.5 2.4 12.2 2.6 16 2.7 35.7 0 18.5-.3 23.9-2.2 34.1-8.2 45-28.8 82.6-62.3 113.7-27.8 25.8-62.7 43-100.9 49.7-16 2.8-44.1 3.6-58.2 1.5zm43-15.6c43.1-4.6 80.4-22.4 111-52.7 30.4-30.2 48.4-68 53.1-111.4 4.2-38.1-5.1-80.4-24.7-112.8C301.3 11.8 176.9-12.7 89.4 53.1c-40.9 30.7-66.7 76.4-72.3 128.1-3.6 32.3 1.8 64.5 15.9 95.8 17.6 39.1 51.8 73.1 91.4 90.7 30.1 13.4 62.8 18.7 94.4 15.2zM120 276.5c0-33.6.2-38.5 1.5-38.5s1.5 4.9 1.5 38.5-.2 38.5-1.5 38.5-1.5-4.9-1.5-38.5zm34.3 30.6c-3-1.9-3.5-2.6-4.7-8.4-1.5-6.3 2.8-13.8 8.7-15.2 3.6-.9 9.7.3 9.7 1.9 0 1-1.3 1.2-4.9.8-4.3-.4-5.3-.1-7.5 2.1-3.4 3.4-3.7 11.1-.5 15.1 1.8 2.2 2.8 2.6 7.5 2.6 5.2 0 7.1 1.1 3.8 2.4-3.1 1.2-9 .6-12.1-1.3zm21-.5c-2.4-2.1-2.8-3.2-2.8-7.4 0-3.4.6-5.6 1.8-7 4.2-4.6 12.9-2.8 14.5 3 2.9 10.5-5.9 17.9-13.5 11.4zm8.5-1.3c4.8-4.1 2.4-13.3-3.3-13.3-5.3 0-7.3 8.3-3 12.5 2.9 3 3.6 3.1 6.3.8zm12.9 1.9c-2.3-2.6-2.5-17.2-.2-17.2 1.2 0 1.5 1.5 1.5 7.5 0 6.3.3 7.6 1.9 8.5 2.8 1.4 3.8 1.3 6.1-1 1.6-1.6 2-3.3 2-8.5 0-5.1.3-6.5 1.5-6.5s1.5 1.7 1.5 9.5-.3 9.5-1.5 9.5c-.8 0-1.5-.5-1.5-1 0-.7-.6-.7-1.9 0-3 1.6-7.6 1.2-9.4-.8zm21 1.1c-1.2-1.2-.8-17.1.5-17.9.6-.4 1.4-.2 1.6.5.3.9.7.9 1.8 0 1.9-1.5 7.9-1.6 9.8 0 2.1 1.7 2.4 18.5.4 17.9-.8-.3-1.5-3.3-1.8-8.4l-.5-7.9H226c-4.4 0-6 2.8-6 10.8 0 5.3-.7 6.7-2.3 5zm23.8-1.7c-3.4-3.4-3.6-11.3-.2-14.3 2.9-2.6 5.3-3.4 8.3-2.7 3.7.9 3.1 3.5-.6 2.7-4.1-.8-7 1.9-7 6.4 0 5.5 1.5 7.3 6.1 7.3 5.2 0 4.8 2.4-.4 2.8-2.8.2-4.2-.3-6.2-2.2zm15.5-7.1c0-7.8.3-9.5 1.5-9.5s1.5 1.7 1.5 9.5-.3 9.5-1.5 9.5-1.5-1.7-1.5-9.5zm10-4c0-11.3.2-13.5 1.5-13.5s1.5 2.2 1.5 13.5-.2 13.5-1.5 13.5-1.5-2.2-1.5-13.5zm-9.4-9.2c-1.2-1.2-.6-3.3.9-3.3.8 0 1.5.6 1.5 1.4 0 1.7-1.4 2.8-2.4 1.9zm-85-7.8c-2-2.1-2.1-4.9-.1-6.5.9-.7 1.3-2 1-2.9-.2-.9-.1-2.2.4-3 .5-.8.3-2.4-.8-4.2-1.4-2.6-1.5-3.1-.1-5.6 1.5-2.6 2.1-2.8 8.8-3.1 4.5-.2 7.2.1 7.2.8 0 .5-.6 1-1.4 1-1 0-1.4 1.1-1.3 3.5.1 4.3-1.1 5.6-6 6.4-5.7.9-5.1 3.5 1 3.9 3.8.2 5.1.8 6.4 2.8 1.5 2.4 1.5 2.7-.4 5.2-1.7 2.3-2.9 2.7-7.5 3-4.1.2-6-.1-7.2-1.3zm11.9-2.1c.9-.9 1.4-2.1 1.2-2.8-.6-1.9-6.5-3-9.2-1.8-2.6 1.2-3.4 4.7-1.2 5.5 2.7 1.1 7.6.6 9.2-.9zM183 261c1.5-2.8-.4-6-3.5-6-1.4 0-2.9.8-3.5 2-1.5 2.8.4 6 3.5 6 1.4 0 2.9-.8 3.5-2zm68 18.1c0-.5 1.1-1.2 2.5-1.5 4.8-1.2 5-4.9 1-14.4-3.9-9.4-4.1-10.2-2.1-10.2.8 0 2.5 3.1 4.2 7.7 3 8.3 2.7 8.4 6.5-1.9 1.2-3.4 2.6-5.8 3.5-5.8.8 0 1.4.2 1.4.5 0 1.2-8.3 22.3-9.6 24.3-1 1.5-2.4 2.2-4.4 2.2-1.7 0-3-.4-3-.9zm-99.8-17.3c2.2-5.7 4.4-11.3 4.8-12.5 2.2-5.4 3.4-3.9 9.4 11.6 4 10.4 4.2 11.1 2.3 11.1-.8 0-2-1.8-2.7-4-1.3-4-1.3-4-6.5-4-5.1 0-5.2 0-6.8 4-.8 2.2-2.2 4-3 4-1.2 0-.7-2.2 2.5-10.2zm10.8-1.1c0-.2-.8-2.6-1.7-5.3l-1.7-4.9-1.2 3c-2.9 7.3-2.9 7.5 1 7.5 2 0 3.6-.1 3.6-.3zm33.9 10.3c-4.3-2.6-4.8-12.1-.8-16.1 4.4-4.4 12.9-1.1 12.9 5.1v3h-6.5c-7.2 0-7.8.8-4 4.6 2.1 2.1 3.1 2.4 6.1 1.8 2.9-.5 3.6-.4 3.2.7-.5 1.7-8.5 2.3-10.9.9zm8.5-10.9c.9-1.5-.4-4-2.5-4.6-2.5-.8-5.9 1.2-5.9 3.5 0 1.7.7 2 3.9 2 2.2 0 4.2-.4 4.5-.9zm9.6 2.4c0-8.4 1-11.9 2.3-8.2.4 1 .7 1 1.8 0 1.9-1.8 8.4-1.6 10 .3 1.7 2 1.9 16.5.3 17.1-.8.3-1.3-2.1-1.6-7.2-.4-7.7-1.3-9.5-5-9.5-3.4 0-4.8 2.8-4.8 10.1 0 5.5-.3 6.9-1.5 6.9s-1.5-1.7-1.5-9.5zm23.5 7c-3.3-3.2-3.5-10-.4-13.9 1.7-2.1 2.9-2.6 6.5-2.6 3.3 0 4.4.4 4.4 1.6 0 1.2-.7 1.4-2.9.9-4-.9-7.1 2.2-7.1 7s3.1 7.9 7.1 7c2.2-.5 2.9-.3 2.9.9 0 2.7-7.6 2.1-10.5-.9zM155.2 219c-5-3.1-7.2-7.5-7.2-14.5 0-7.9 2.3-12.3 8-15.2 5.2-2.7 9.5-2.9 15-.7 5 2 8 6.7 8.6 13.6.7 6.5-2.4 13.1-7.5 16.5-4.4 3-12.2 3.1-16.9.3zm12.3-2.4c3.6-5.5 3.1-20.7-.9-25.2-5.7-6.8-10.9 4.2-8.6 18.4 1.5 8.6 6.1 12 9.5 6.8zm44.8 3.7c-2.3-.4-2.3-.5-2.3-19.4 0-19.1-.6-22.9-3.6-22.9-3.1 0-.3-1.8 3.8-2.4 2.4-.4 5.3-.9 6.6-1.3 2.1-.5 2.2-.3 2.2 7.1v7.6l2.8-.7c10.4-2.9 17.6 3.1 17.6 14.7.1 11.6-6.9 18.1-18.9 17.9-3.3-.1-7-.4-8.2-.6zm13.5-3.5c6.8-7.4 4.1-26.5-3.7-25.6l-2.6.3-.3 11.5c-.3 13.3.1 16 2.6 16 1 0 2.8-1 4-2.2zm25.6 2.8c-9.1-4-11.8-17.6-5.3-26.7 2.5-3.6 9.7-6.3 14.5-5.6 5.3.9 8 3.1 9.9 8.1 2.7 7.1 2.1 7.6-9 7.6-7.9 0-9.5.3-9.5 1.5 0 2.9 2.8 8.2 5.1 9.9 2.7 1.8 9.1 2.1 12.1.5 3.4-1.8 1.7 1.2-2.2 3.9-3.8 2.5-10.7 2.9-15.6.8zm10.6-22.9c0-3.7-2.4-7.7-4.5-7.7-1.8 0-4.1 3.6-5 7.8l-.7 3.2h5.1c5.1 0 5.1 0 5.1-3.3zm15 23.4c-2.2-.6-2.5-1.3-2.8-5.4-.2-2.8.1-4.7.7-4.7s1.1.4 1.1.9 1.2 2.3 2.6 4c4.3 5.2 12.1 3.7 11.2-2.1-.2-1.6-2-3.2-6.2-5.5-7-3.6-8.6-5.5-8.6-9.8 0-7.9 10.3-13 19.4-9.5 2.2.8 2.6 1.6 2.6 5 0 4.7-1 5.1-2.8 1.1-.7-1.6-2.6-3.4-4.3-4.1-2.5-1.1-3.2-1-4.9.5-4 3.6-2.4 6.2 6.3 10.5 6.5 3.1 8.5 6.4 7.2 11.6-1.4 5.5-6.1 8.4-13.4 8.3-3.1-.1-6.7-.4-8.1-.8zM115.5 219c.3-.5 1.3-1 2-1 2.8 0 3.5-4 3.5-20.2 0-13.2-.3-16.8-1.6-18.6-.8-1.2-2.2-2.2-3-2.2-.8 0-1.4-.4-1.4-1s6.8-1 18.5-1H152v6.5c0 3.6-.4 6.5-.9 6.5s-1.8-1.7-2.8-3.7c-2.4-4.7-5.4-6.3-11.5-6.3-4.3 0-4.8.2-4.8 2.3 0 1.2-.3 5.3-.7 9l-.6 6.8 4.4-.3c3.7-.2 4.6-.8 5.7-3.1 2-4.2 3.2-2.3 3.2 5.4 0 7.2-1.2 8.8-3.2 4.4-1.2-2.6-4.2-4-7.5-3.3-1.6.3-1.8 1.2-1.5 7.3.4 9.3.8 10.3 4.5 11.9 3 1.3 2.3 1.4-9.1 1.5-8 .1-12.1-.3-11.7-.9zm66.9-1.5c2.5-2.3 2.6-2.9 2.6-11.7 0-11-.6-13.5-3.1-14.3-3-1-1.4-2.2 3.8-2.9 2.7-.4 5.6-.9 6.6-1.2 1.4-.4 1.7.1 1.7 2.8.1 3.3.1 3.3 1.8 1.2 2.4-2.8 5.5-4.4 8.6-4.4 3 0 3 0 1.4 5.2-1.1 3.8-1.3 3.9-4.5 3.3-6.8-1.2-7.3-.5-7.3 10.3 0 10.6.4 11.6 4 13.1 1.9.7 0 1-7.9 1l-10.4.1 2.7-2.5zM113 127c-2.4-2.4-2.6-7.2-.4-9.4.8-.9 2.9-1.6 4.4-1.6 6.1 0 7.9 9.3 2.4 11.9-3.4 1.5-4.1 1.4-6.4-.9zm7.1-2.6c.7-2 .6-3.2-.6-5-.8-1.3-2-2.4-2.5-2.4-1.6 0-4 3.1-4 5.4 0 4.8 5.4 6.4 7.1 2zm7.3 3.3c-.3-.8-.4-3.6-.2-6.3.3-4.7.4-4.9 3.6-5.2 1.8-.2 3.2.1 3.2.7s-.9 1.1-2 1.1c-2.9 0-2.7 3.7.3 4.3l2.2.4-2.2.2c-1.7.1-2.3.7-2.3 2.5 0 2.9-1.8 4.4-2.6 2.3zm11.6-5.1V116h3.6c2.1 0 3.3.4 2.9 1-.3.6-1.5 1-2.6 1-2.8 0-2.5 3.7.4 4.3l2.2.4-2.2.2c-1.7.1-2.3.7-2.3 2.5 0 1.4-.4 2.8-1 3.1-.6.4-1-1.8-1-5.9zm10.7 5.7c-1.1-1-.8-12.3.3-12.3.6 0 1 2.8 1 6.5 0 6.5-.1 7.1-1.3 5.8zm8.3-1.3c-4-4-1.4-11 4.1-11 1.6 0 2.9.5 2.9 1.1 0 .6-.7.9-1.5.5-1.6-.6-5.5 2.6-5.5 4.5 0 2.5 2.2 4.9 4.6 4.9 1.4 0 2.2.4 1.9 1-1 1.6-4.4 1.1-6.5-1zm12-4.4c0-3.7.4-6.6 1-6.6s1 2.6 1 5.9c0 3.3-.4 6.3-1 6.6-.6.4-1-1.8-1-5.9zm5.8 5.9c-.9-1 3.5-12.5 4.9-12.5 1.3 0 5.7 10.9 4.8 11.9-.4.3-1.1-.2-1.6-1.2-1.4-2.4-5.4-2.2-6.5.4-.5 1.1-1.2 1.7-1.6 1.4zm6.2-6.9c0-2.4-1.7-2.8-2.3-.6-.3 1.3 0 2 .9 2 .8 0 1.4-.6 1.4-1.4zm8.7 6.7c-1.1-1-.8-12.3.3-12.3.6 0 1 2.5 1 5.5 0 5.2.1 5.5 2.5 5.5 1.4 0 2.5.5 2.5 1 0 1.1-5.3 1.4-6.3.3zm21.9-2.4c-.7-1.9-1.6-4.1-1.9-4.9-.3-.8-.6.4-.6 2.8-.1 6.6-2.1 4.9-2.1-1.8 0-4.7.3-6 1.5-6 .9 0 1.8.8 2.1 1.8.3.9 1.1 3 1.8 4.6l1.2 2.9 1.8-4.7c2.6-6.7 4.6-6.1 4.6 1.4 0 3.3-.4 6-1 6-.5 0-1-1.9-1.1-4.2v-4.3l-1.7 4.2c-2.4 5.8-3 6.1-4.6 2.2zm13.4-3.4V116h3.6c2.1 0 3.3.4 2.9 1-.3.6-1.5 1-2.6 1-1 0-1.9.7-1.9 1.5s.9 1.5 2 1.5 2 .5 2 1c0 .6-.9 1-2 1-1.3 0-2 .7-2 2 0 1.5.7 2 2.6 2 1.4 0 2.3.4 1.9 1-.3.6-1.9 1-3.6 1H226v-6.5zm29.5 5.2c-.4-.8-.5-3.6-.3-6.3.3-5.3 1.5-6.2 6.5-4.9 2.2.5 2.4 1 2 3.4-.3 1.5-.2 3.2.4 3.8 1.5 1.5-1.2 4.2-4.8 4.9-2.4.5-3.4.2-3.8-.9zm6.3-3c.2-1.2-.3-1.7-1.7-1.7-1.5 0-2.1.6-2.1 2.1 0 2.5 3.3 2.2 3.8-.4zm.2-5.2c0-.8-.9-1.5-2-1.5s-2 .7-2 1.5.9 1.5 2 1.5 2-.7 2-1.5zm7 3V116h3.5c1.9 0 3.5.5 3.5 1 0 .6-1.1 1-2.5 1-1.6 0-2.5.6-2.5 1.5s.9 1.5 2.5 1.5c1.4 0 2.5.5 2.5 1 0 .6-1.1 1-2.5 1-1.8 0-2.5.5-2.5 2s.7 2 2.6 2c1.4 0 2.3.4 1.9 1-.3.6-1.9 1-3.6 1H269v-6.5zm12 .1V116h2.9c4 0 5.8 2.3 4.1 5.5-1 1.9-1.1 2.7-.1 3.9.7.9 1.1 2.1.9 2.8-.3.8-1.1.2-2.2-1.5-2.1-3.2-3.6-3.5-3.6-.8 0 1.1-.4 2.3-1 2.6-.6.4-1-1.8-1-5.9zm5.5-2.6c0-.8-.8-1.6-1.7-1.8-1.3-.2-1.8.3-1.8 1.8s.5 2 1.8 1.8c.9-.2 1.7-1 1.7-1.8zm-49.5 1.9c0-5.2.2-6 1.7-5.7 1 .2 2.5 2.2 3.4 4.8l1.7 4.5 1.6-3.9c.9-2.1 1.6-4.2 1.6-4.7s.7-.9 1.5-.9c1.2 0 1.5 1.3 1.5 6 0 6.4-1.9 8.5-2.1 2.3l-.1-3.8-1.5 3.8c-.9 2-2 3.7-2.5 3.7s-1.7-1.9-2.8-4.2l-1.9-4.3v4.3c-.1 2.3-.5 4.2-1.1 4.2-.6 0-1-2.7-1-6.1zm-75-33.5c0-1 2.1-3.9 4.6-6.6 4.1-4.4 4.5-5.1 3.1-6.5-1.1-1.2-1.9-1.2-3.5-.4-2.8 1.5-4.2 1.4-4.2-.4 0-3.3 8.6-4.8 11.4-1.9 2.5 2.4 1.9 5-1.9 9.3-1.9 2.1-3.5 4.1-3.5 4.5 0 .3 1.8.6 4 .6 2.9 0 4 .4 4 1.5 0 1.2-1.4 1.5-7 1.5-5.8 0-7-.3-7-1.6zm21.1-1c-3.1-3.9-2.9-10.7.4-13.9 2.7-2.8 7.9-3.3 10.8-1.1 4.2 3.2 4 14.3-.3 16.6-3.6 1.9-8.7 1.2-10.9-1.6zm8.8-1.8c1.8-2.2 1-9.7-1.2-11-1.5-.9-2.2-.7-3.8 1.3-2.1 2.6-2.4 4.7-.9 8.5 1.1 2.9 4.1 3.4 5.9 1.2zm11.1 2.8c0-1 2.1-3.9 4.6-6.6 3.6-3.9 4.3-5.2 3.4-6.3-.8-1-1.8-1.1-3.6-.4-3.5 1.3-4.4 1.1-4.4-.6 0-3.3 8.6-4.8 11.4-1.9 2.5 2.4 1.9 5-1.9 9.2-1.9 2.2-3.2 4.2-2.8 4.6.3.3 2.1.6 4 .6 2.3 0 3.3.5 3.3 1.5 0 1.2-1.4 1.5-7 1.5-5.8 0-7-.3-7-1.6zm21.8.5c-4.2-2.4-4.2-12.7 0-15.9 5.9-4.7 13.2-.7 13.2 7.3 0 6.1-2.9 9.7-7.8 9.7-2 0-4.5-.5-5.4-1.1zm8.2-3.8c1.5-2.9 1.2-7.7-.6-9.5-3.4-3.4-6.4-1.1-6.4 4.9 0 2.3.5 4.6 1.2 5.3 1.8 1.8 4.6 1.4 5.8-.7z" />
  <g id="aicpa">
    <path
      d="M43.71 24.5l-1-.09a11.52 11.52 0 01-5.57-2.19 11.71 11.71 0 01-4.72-7.55 2.07 2.07 0 010-.22v-.24h3c.14.48.25 1 .43 1.43a8.62 8.62 0 007 5.7 8.5 8.5 0 007.6-2.49 8.61 8.61 0 002.42-4.51c0-.1 0-.15.16-.15h2.95c-.07.35-.12.7-.2 1a11.86 11.86 0 01-9.92 9.12c-.37.06-.75.07-1.12.11h-.11zm8-5.21l-.17.18-.08.08-.13.11.64.59.09-.11-.3-.33a.22.22 0 010-.34v-.13l.21-.08.13.1a3.3 3.3 0 00.3.22.24.24 0 00.31-.16s0-.11-.06-.19c-.15.2-.17.21-.32.09l-.27-.23.13-.18-.13-.1L52 19l-.2-.14-.1.13.16.15zm-3.42 2.87c.09-.1.17-.08.26 0l.29.2c.12.11.21.07.31 0l-.48-.36a.34.34 0 000-.46.32.32 0 00-.42-.11l-.48.21.54 1.16.17-.08zm-4.2 1.39c-.14-.4-.28-.78-.43-1.17 0-.05-.08-.11-.12-.11s-.11.05-.14.1l-.52 1v.16c.06 0 .18-.06.19-.12a.28.28 0 01.37-.2.43.43 0 00.16 0 .19.19 0 01.23.18c.07.16.17.21.31.16zm-6.93-2.47l.14.11c.11-.15.2-.28.3-.4a.19.19 0 01.3 0c.11.08.06.17 0 .26l-.29.41.14.09.29-.39a.2.2 0 01.3-.06c.12.09.07.19 0 .29l-.28.4.15.1c.12-.18.25-.33.35-.5a.31.31 0 00-.2-.46h-.19c-.06-.24-.14-.3-.36-.32l-.14-.19zm13.18.46a.42.42 0 00.42-.37.47.47 0 00-.31-.5.43.43 0 00-.53.23.13.13 0 01-.06.05l-.19.06.82 1.12.15-.11zm-3.78.8a1.21 1.21 0 00.21.63.4.4 0 00.44.17.37.37 0 00.29-.36 1.08 1.08 0 00-.17-.7.4.4 0 00-.49-.21c-.13.05-.23.2-.23.47zm-4.67.84a.54.54 0 00.61.24.36.36 0 00.26-.32.3.3 0 00-.18-.34 1.28 1.28 0 01-.23-.14c0-.05-.11-.16-.09-.21a.27.27 0 01.22-.11c.08 0 .16.07.27.12l.12-.08a.48.48 0 00-.53-.22.36.36 0 00-.15.65l.24.14c.09.05.18.12.11.22a.31.31 0 01-.24.12.81.81 0 01-.29-.15zm2.28.23a.55.55 0 00.69.08.37.37 0 00.16-.36.33.33 0 00-.24-.28 1.61 1.61 0 01-.29-.09.27.27 0 01-.11-.17c0-.06.08-.15.13-.15a1.25 1.25 0 01.37 0l.09-.11a.56.56 0 00-.6-.07.37.37 0 000 .65l.26.08c.1 0 .2.08.17.21a.21.21 0 01-.25.17 1.12 1.12 0 01-.27-.1zm-7.37-4.52l-.5-.64-1 .78.12.15.43-.33.36.46.13-.12-.34-.45.3-.23.38.49zm2.4 3.19c-.3.05-.44-.07-.39-.34l.57.32a.43.43 0 000-.57.45.45 0 00-.6 0 .45.45 0 00.46.78zm10.65-.39c-.15.29-.31.34-.5.16l.56-.34a.42.42 0 00-.5-.29.45.45 0 00-.33.5.47.47 0 00.44.4.46.46 0 00.46-.41zm-8.34.67c-.17-.07-.17-.07-.27.06l-.32.41-.05-.68h-.19c0 .28 0 .53.07.79s-.13.35-.37.28l-.05.12c.18.13.31.13.42 0 .25-.34.5-.66.76-.98zm-5-2.09a.45.45 0 00.45-.45.48.48 0 00-.47-.47.45.45 0 00-.44.46.47.47 0 00.46.46zm15.16.14a.43.43 0 00-.45-.44.45.45 0 00-.46.45.44.44 0 00.46.45.45.45 0 00.45-.46zm-5.73 3c.13 0 .21 0 .24-.14.07-.33.15-.66.22-1a1 1 0 000-.25l-.81.15v.16l.58-.1zm6.87-4.24a.59.59 0 00.21-.1.36.36 0 00.13-.49c-.11-.14-.24-.12-.46.05a.48.48 0 01-.18 0c0-.06 0-.17.08-.19s.12-.11.09-.21a.37.37 0 00-.36.36.32.32 0 00.13.22h.23c.07 0 .1-.09.15-.12a.9.9 0 01.16 0 .47.47 0 010 .17.12.12 0 01-.09.08c-.14.06-.13.11-.09.22zM40.58 21.5l-.49 1.27.16.07.5-1.27zM37.22 20l-.56.63.14.11.22-.25c.2-.22.25-.22.49-.05l.1-.13zm2.21 2.53l.16.06a2.89 2.89 0 00.15-.31c.12-.26.17-.28.44-.19l.09-.17-.34-.05-.17-.11z" />
    <path class="s27"
      d="M54.52 11.94h-1.33c-.14 0-.19 0-.2-.18a8.88 8.88 0 00-7.3-7.89 8.85 8.85 0 00-9.35 4.58 8.53 8.53 0 00-1 3.19c0 .3 0 .3-.34.3h-2.5c-.17 0-.21 0-.19-.21A12 12 0 0133 8.6 11.78 11.78 0 0138.82 2 10.65 10.65 0 0142.51.86a14.76 14.76 0 012-.12A11.88 11.88 0 0155.74 10c.14.59.19 1.21.28 1.82 0 .11-.05.13-.14.13zM37.07 5l.18.08c.16.09.31.18.48.26a.17.17 0 00.14 0 .15.15 0 00.05-.12c-.08-.24-.18-.48-.28-.72-.14 0-.15.12-.11.22s.1.23.16.39l-.35-.2c-.15-.08-.18-.07-.26.09l-.31.29v.06l.45.46a.13.13 0 00.12 0 .11.11 0 000-.11c-.05-.07-.12-.13-.17-.19s-.17-.18 0-.42zm3.12-1.17a.54.54 0 00.54-.56.67.67 0 00-.61-.68.55.55 0 00-.54.56.65.65 0 00.61.71zm1.73-.63c0 .27-.05.32-.41.26-.09.14-.07.18.08.22a.41.41 0 00.52-.48c0-.2-.09-.39-.14-.58s0-.27-.24-.14h-.09a.37.37 0 00-.39.36.45.45 0 00.21.43.4.4 0 00.46-.04zm10.85 2.89c-.3.22-.59.41-.86.62a.16.16 0 00-.06.14c0 .1.11.05.17 0l.3-.2a.8.8 0 010 .15 2.29 2.29 0 01-.14.27c-.08.12 0 .21.08.29l.25-.48a.7.7 0 00.14 0 .35.35 0 00.35-.07.29.29 0 000-.33c0-.13-.14-.25-.23-.39zM36.11 7.36c-.37-.06-.74-.13-1.12-.18a.13.13 0 00-.11.06.23.23 0 000 .14c.13.18.28.35.42.53l.29.37h.06v-.2c-.19-.16-.07-.29 0-.44a.17.17 0 01.23-.11c.12.01.2-.04.23-.17zM34.89 10l-1.18.19a.15.15 0 00-.08.11.32.32 0 00.08.12l.86.57a.23.23 0 00.1 0c.07-.11.06-.2-.05-.24s-.13-.19-.1-.31 0-.25.21-.25.16 0 .16-.19zm17.85-1.8c.09.34.2.44.45.41a.42.42 0 00.35-.61c0-.07-.08-.16-.13-.22s-.11-.06-.14 0c-.31.14-.63.29-.93.45 0 0-.05.09-.07.13s.1 0 .14 0a3.31 3.31 0 00.33-.12zm1.49 1.65c0-.15-.09-.3-.15-.44a.14.14 0 00-.08-.02 3.62 3.62 0 00-.56.17s-.06.08-.1.12a.34.34 0 00.16 0c.12 0 .24-.06.36-.08s.17.13.2.23-.08.1-.14.12l-.32.1a.19.19 0 00-.08.28c.05.1.12.1.2.05s.1-.27.36-.26c.08.06.13.12.18.12s.07-.07.07-.14 0-.05.07-.08l.11-.05v-.14zM36.64 6.59a.36.36 0 00-.51-.32c-.08 0-.14.09-.21.11a.19.19 0 01-.18 0v-.19c0-.06.09 0 .12-.08a.24.24 0 00.05-.14h-.11a.39.39 0 00-.29.28.36.36 0 00.47.43 2.12 2.12 0 01.21-.11h.19a.28.28 0 010 .2s-.1 0-.13.08a.71.71 0 00-.08.15s.09.06.13.06a.47.47 0 00.34-.47zm-2 3a.52.52 0 00.54-.68s-.09-.11-.12-.1S35 8.86 35 9a.3.3 0 01-.21.41.51.51 0 01-.54-.21c-.09-.14-.06-.26.12-.45a.17.17 0 000-.14.09.09 0 00-.11 0 .83.83 0 00-.22.24.6.6 0 00.64.73zm-.39-1.31c.34.17.67.32 1 .47h.11c.01 0 0-.11 0-.13L35 8.39l.1-.22a.32.32 0 00-.16-.41.32.32 0 00-.44.09 4.11 4.11 0 00-.21.42zm14.31-4.23h.06c.08 0 .2 0 .19-.12s-.1-.1-.19-.08a.31.31 0 01-.35-.23.51.51 0 01.25-.55c.17-.08.26 0 .44.15h.15a.12.12 0 000-.12.67.67 0 00-.19-.22.59.59 0 00-.86.45.52.52 0 00.5.72zm-9.64.14a3.56 3.56 0 00.35-.19.13.13 0 00.06-.12.4.4 0 00-.45-.22.41.41 0 00-.26.36.54.54 0 00.3.44.39.39 0 00.48-.21.18.18 0 000-.15c-.07 0-.12 0-.16.07s-.16.13-.32.02zm-2.26 1.94c.11-.13.21-.22.29-.33s0-.11 0-.13a.37.37 0 00-.55 0 .41.41 0 000 .45.46.46 0 00.47.23.37.37 0 00.3-.32c0-.13 0-.17-.16-.12-.01.2-.11.25-.35.22zm16 1.28l.12.18a.67.67 0 00.11.18.2.2 0 00.13.05.9.9 0 00.21-.27.34.34 0 00-.24-.41.48.48 0 00-.56.29.36.36 0 00.2.46h.16c.02 0 0-.11-.08-.15s-.2-.17-.1-.33zm-.87-1.8a.37.37 0 00-.36-.39.47.47 0 00-.46.44.37.37 0 00.37.38.45.45 0 00.4-.43zm-9.2-3a.68.68 0 00-.13 0l-.14.05a.27.27 0 00-.12.33.23.23 0 00.28.16 2.72 2.72 0 00.38-.11c0-.15-.05-.3-.08-.45a.32.32 0 00-.54-.22c-.11.08-.11.12 0 .2.18-.1.19-.1.3.04zm6.77 1a.44.44 0 00-.43.45.37.37 0 00.37.38.44.44 0 00.38-.44.36.36 0 00-.37-.4zm-2.46-.74a.39.39 0 00-.38-.41.44.44 0 00-.41.43.41.41 0 00.38.42.42.42 0 00.41-.44zm6.63 5.75a.42.42 0 00-.44.42.37.37 0 00.39.38.43.43 0 00.44-.42.38.38 0 00-.39-.38zM45.06 2.5a1.34 1.34 0 00-.31 0 .24.24 0 00-.18.28.21.21 0 00.2.21 2.91 2.91 0 00.42 0v-.48c0-.32-.21-.4-.46-.33-.05 0-.07.09-.11.13a.45.45 0 00.16 0c.14.05.22.06.28.19zm4.41 2.08c.08.12.14.12.22 0a1.14 1.14 0 01.21-.28.25.25 0 01.21 0c.09 0 0 .14 0 .21a3.53 3.53 0 00-.21.32v.11a.13.13 0 00.12 0 3.93 3.93 0 00.29-.42.25.25 0 00-.09-.35L50 4a.14.14 0 00-.11 0zm-6.65-2.26c0 .22 0 .46.08.69 0 0 .06.07.09.06a.11.11 0 00.08-.07v-.3-.13a.29.29 0 01.14-.13.2.2 0 01.12.12c0 .14 0 .28.07.42s.06.06.09.08.07-.07.07-.1a3.87 3.87 0 000-.49.26.26 0 00-.31-.22zm4.67 1.26c0-.19.12-.37.16-.57a.22.22 0 00-.17-.28 1.18 1.18 0 00-.31-.08s-.08 0-.1.07c-.06.19-.13.38-.18.57v.13c0 .04.1 0 .12-.09a3.42 3.42 0 01.18-.33c0-.05.13-.06.2-.09s.07.13.06.19-.07.21-.1.32-.02.15.14.16zm-3.33-.75l.32-.41c.09-.13.05-.21-.11-.22a1.71 1.71 0 00-.32 0s-.07.06-.11.1.07.06.11.07h.23c-.13.17-.23.29-.32.42s-.05.22.11.23h.34s.08 0 .11-.07a.35.35 0 00-.11-.1 1 1 0 00-.25-.02zm10 7.76h.08a.38.38 0 000 .15.84.84 0 00.06.14s.12-.07.12-.09a.73.73 0 00-.08-.33.3.3 0 00-.25-.05c-.13 0-.14.14-.16.25s-.06.09-.09.14 0-.12 0-.17v-.06a.18.18 0 00-.07-.1h-.09a.29.29 0 000 .37.38.38 0 00.26.13c.14 0 .2-.11.21-.25s-.04-.07-.03-.13zM38.7 4.44v.06c-.05.09-.13.16-.22.1a.51.51 0 01-.19-.25c0-.1.06-.17.16-.18s.13-.08.1-.17a.36.36 0 00-.45.25.5.5 0 00.28.53.38.38 0 00.46-.14c.06-.13.03-.19-.14-.2zm12.12.11v-.22l-.25.07h-.12c-.02 0 0 .11 0 .21l-.08.11a1.24 1.24 0 00-.19.26c-.06.12 0 .2.12.26s.14 0 .19-.12l-.15-.07.26-.33h.24zm-5.15-2.28c0-.05 0-.13-.06-.15s-.09 0-.12.1a.18.18 0 01-.1.07c-.1 0-.11.13 0 .17s.08.13.07.21 0 .23 0 .34.13.17.24.15.09-.08.14-.14c-.22-.06-.24-.15-.15-.44l.19-.13zm6.63 3.17l-.88.76v.13c0 .05.11 0 .14 0l.77-.66c.1-.09.1-.16-.03-.23zM33.81 9.69h.1l.89.25a.17.17 0 00.2-.01c0-.09 0-.11-.1-.13l-.9-.25c-.15-.04-.19 0-.19.14zm7.41-6.87v-.07s-.07-.08-.12-.09a.56.56 0 00-.33.21c.06.2.13.4.2.59 0 0 .08 0 .12.06a.34.34 0 000-.11 2.46 2.46 0 00-.09-.28c-.05-.13 0-.22.1-.27zM51 4.76l-.45.49c-.09.1-.06.16.06.21l.22-.23c.16-.18.18-.18.39-.06 0-.06.17-.1.06-.2s-.19-.12-.28-.21zM38.32 5c-.15-.2-.29-.38-.44-.56a.13.13 0 00-.12 0v.11l.44.58zm7.61-2.62c0 .23-.1.46-.13.7 0 0 0 .08.07.09s.09 0 .1-.07c0-.19.06-.39.11-.58s-.03-.16-.15-.15zm-2.3.08v.45c0 .14.06.08.09.12s.08-.08.08-.12a3.39 3.39 0 000-.45c0-.08.06-.22-.09-.22s-.04.14-.08.21zm-6 1.94c.06-.07.13-.12.12-.15s-.08-.1-.12-.15-.1.08-.11.13.02.08.08.16zm6.13-2.57h-.06c0 .05-.07.1-.06.15s.06.08.1.11.11-.08.11-.12-.09-.1-.12-.15zm2.49.3c-.08-.06-.13-.12-.16-.11s-.11.07-.11.11.07.11.11.12.06-.07.13-.13z" />
    <path
      d="M42.28 16.77A1.68 1.68 0 1144 18.45a1.64 1.64 0 01-1.72-1.68zm2.89.09a1.31 1.31 0 00-.64-1.24A1.21 1.21 0 0043 16a1.38 1.38 0 00.18 1.76 1.21 1.21 0 002-.88zM41.83 15.42l-.37.34a.7.7 0 00-.72-.26.69.69 0 00-.36.18.43.43 0 00.06.66 1.64 1.64 0 00.3.14c.14.06.29.09.43.14a.83.83 0 01.67.86.94.94 0 01-.73.91 1.39 1.39 0 01-1.11-.11 2.42 2.42 0 01-.35-.26l.38-.32a.84.84 0 00.76.33.61.61 0 00.5-.3.39.39 0 00-.14-.57 2.06 2.06 0 00-.35-.16c-.15-.06-.31-.1-.46-.17a.87.87 0 01-.55-.91.9.9 0 01.65-.78 1.44 1.44 0 011 0 2 2 0 01.39.28zM48.57 17.62l.34.25a1.5 1.5 0 01-1.57.54 1.71 1.71 0 01-.22-3.24 1.53 1.53 0 011.73.41l-.35.27a1 1 0 00-.86-.36 1.16 1.16 0 00-1.09 1 1.24 1.24 0 00.45 1.34 1.09 1.09 0 001.49-.18z" />
    <path class="s27"
      d="M45.51 8l-.24.17h-.05a.8.8 0 00-.13-.19 1.58 1.58 0 00-1.58-.34 1.41 1.41 0 00-1 1.09 1.47 1.47 0 001.38 1.78 1.68 1.68 0 001.36-.51l.24.17a.35.35 0 01-.06.09 2.1 2.1 0 01-2.81.08 1.72 1.72 0 01-.47-1.76 1.67 1.67 0 011.29-1.18 2 2 0 011.87.42c.07.06.12.18.2.18zM49.62 7.41l1.66 3.35c-.29.07-.33.05-.45-.18l-.39-.78a.23.23 0 00-.22-.14H49a.2.2 0 00-.21.13c-.13.26-.26.51-.38.76s-.14.27-.48.22l1.68-3.35zm0 .73L49 9.36h1.28zM40.71 10.76c-.33.06-.33.05-.46-.2s-.26-.5-.38-.76a.22.22 0 00-.22-.14h-1.27a.22.22 0 00-.22.13c-.12.27-.26.53-.39.79s-.16.25-.46.18L39 7.42h.06zm-2.33-1.4h1.27L39 8.14zM46.16 9.09V7.61c0-.14 0-.2.17-.19h1.19a.8.8 0 01.78.85.82.82 0 01-.79.86h-.88c-.13 0-.17.05-.17.17v1.26c0 .11 0 .16-.15.16s-.16 0-.16-.16zm.31-.78v.47c0 .08 0 .13.11.13h.81a.58.58 0 00.61-.57.55.55 0 00-.52-.59 6.76 6.76 0 00-.9 0s-.09.07-.09.12-.02.29-.02.44zM41.08 9.1V7.59c0-.11 0-.17.14-.17s.17 0 .17.17v3c0 .12 0 .18-.16.18s-.15-.07-.15-.18z" />
    <path
      d="M55.42 21.58a.86.86 0 01-.87.89.9.9 0 010-1.8.87.87 0 01.87.91zm-.86-.75a.74.74 0 10.71.74.72.72 0 00-.71-.74zM45.18 20c0-.09.07-.1.15 0a.27.27 0 00.34 0c.07-.06.09-.17.13-.25a.94.94 0 01-.15.06.37.37 0 01-.39-.13.38.38 0 010-.41.34.34 0 01.35-.18l.34.05v.72a.28.28 0 01-.21.29.49.49 0 01-.56-.15zm.35-.85a.26.26 0 000 .51.26.26 0 000-.51zM41.75 19.69v.43c0 .03-.06-.05-.06-.08v-.94l.34-.05a.36.36 0 01.37.21.38.38 0 01-.09.44.34.34 0 01-.41 0zm.51-.28a.26.26 0 00-.26-.25.25.25 0 00-.24.27.24.24 0 00.25.25.27.27 0 00.25-.27zM48.05 19.43a.34.34 0 01-.37.36.37.37 0 110-.74.34.34 0 01.37.38zm-.36-.27a.24.24 0 00-.25.25.25.25 0 10.25-.25zM43.16 19.73l-.27.05a.26.26 0 01-.33-.15c0-.14 0-.25.22-.28h.25c0-.14-.08-.17-.19-.16a.9.9 0 01-.23 0 .33.33 0 01.4-.11c.13 0 .15.17.15.29zm-.16-.29c-.14 0-.29-.05-.34.13 0 0 .08.1.13.12s.21-.07.21-.25zM44.11 19.05a.37.37 0 110 .74.37.37 0 110-.74zm.24.37a.25.25 0 00-.24-.26.25.25 0 00-.26.25.25.25 0 00.26.27.24.24 0 00.24-.26zM40.19 19.31c-.08-.29-.31 0-.46-.13a.37.37 0 01.42-.11c.13 0 .16.15.16.27v.4a2.85 2.85 0 01-.4 0 .19.19 0 01-.21-.18.2.2 0 01.18-.23 2.14 2.14 0 01.31-.02zm0 .13a.74.74 0 00-.26 0s-.1.09-.09.12a.22.22 0 00.12.11c.14.03.22-.05.23-.23zM47.17 19.2h-.33c-.05 0-.06 0-.08.08s0 .06.07.08a.66.66 0 01.2.06c.05 0 .12.11.12.16a.26.26 0 01-.1.2.35.35 0 01-.46-.11.41.41 0 01.15 0c.05 0 .1.05.15 0s.09-.05.14-.08-.07-.09-.11-.11-.11 0-.17-.06a.18.18 0 010-.32.31.31 0 01.42.1zM48.89 19.65c-.2.17-.4.18-.54.05a.41.41 0 010-.53c.12-.15.34-.16.54 0h-.14a.22.22 0 00-.3.06.26.26 0 000 .34.23.23 0 00.3.06s.06.02.14.02zM41.49 19.66a.38.38 0 01-.55 0 .4.4 0 010-.52.38.38 0 01.55 0h-.14a.23.23 0 00-.32.05.26.26 0 000 .34.22.22 0 00.31.05.5.5 0 01.15.08zM46.54 18.65v.08l-.42 1.1a.22.22 0 010-.11l.42-1.07zM44.7 19.05l.13.07.24-.08v.05s-.05.07-.07.07c-.2 0-.22.16-.22.31V19.67a2.8 2.8 0 010-.29zM40.65 19.08v.68c-.12 0-.12 0-.12-.54 0-.14 0-.14.12-.14zM48.28 22l-.18-.39c.14-.06.26-.19.43-.11s.11.16.09.18a3.6 3.6 0 01-.34.32zM43.57 22.51l.19.56h-.45zM50.67 21.11a.29.29 0 01-.26.27.32.32 0 01-.3-.31.3.3 0 01.27-.27.32.32 0 01.29.31zM47.41 22.69c0 .14-.06.25-.2.29a.21.21 0 01-.25-.15 2.75 2.75 0 01-.16-.56.3.3 0 01.14-.23c.11-.07.22 0 .26.12s.14.35.21.53zM39.29 21.85l-.41-.23a.23.23 0 01.31-.09.22.22 0 01.1.32zM49.26 21.72a.26.26 0 01.11-.32.22.22 0 01.31.08zM36.48 20.09a.29.29 0 01-.27-.27.34.34 0 01.31-.29.29.29 0 01.27.27.32.32 0 01-.31.29zM51.5 20.44a.28.28 0 01-.27.26.32.32 0 01-.3-.3.29.29 0 01.27-.26.31.31 0 01.3.3z" />
    <path class="s27"
      d="M40.52 3.3a.35.35 0 01-.33.37.47.47 0 01-.4-.48.34.34 0 01.31-.37.46.46 0 01.42.48zM41.65 3.15a.24.24 0 01-.21-.25.2.2 0 01.21-.2.26.26 0 01.21.26.19.19 0 01-.21.19zM52.44 6.57l.31-.22a2.22 2.22 0 01.1.31s-.1.1-.12.09a1.92 1.92 0 01-.29-.18zM35.09 7.36l.43.08-.14.26zM33.93 10.39l.43-.07-.06.3zM53.07 8.46a.57.57 0 01-.13-.19c0-.1.15-.26.27-.22a.32.32 0 01.19.17c.03.1-.13.24-.33.24zM34.85 8.33l-.33-.16a1.94 1.94 0 01.23-.25.21.21 0 01.14.07 2.55 2.55 0 01-.04.34zM38.78 4a.81.81 0 01.12-.18h.19v.06l-.25.12zM36.5 6v-.18a.61.61 0 01.2-.09v.06l-.2.22zM52.82 7.28a.59.59 0 01.18.13v.18h-.05l-.17-.26zM51.12 5.73c0-.18.13-.34.25-.32a.19.19 0 01.18.18c0 .12-.14.28-.25.26a.51.51 0 01-.18-.12zM42.42 3.07l-.1-.15a1.88 1.88 0 01.18-.12s.08.07.07.09a1 1 0 01-.15.18zM49.49 3.94c0 .15-.11.3-.22.3s-.2-.06-.2-.18a.27.27 0 01.22-.27.17.17 0 01.2.15zM46.52 2.66a.2.2 0 01.2.21.26.26 0 01-.22.25.21.21 0 01-.2-.22.25.25 0 01.22-.24zM53.28 9a.25.25 0 01.26-.23.19.19 0 01.2.19.28.28 0 01-.27.23.19.19 0 01-.19-.19zM45 2.71c0 .12-.08.2-.2.18s-.09-.09-.08-.11.21-.09.28-.07z" />
    <path
      d="M54.41 22.08h-.18v-1h.45a.25.25 0 01.26.22.27.27 0 01-.14.35h-.07l.24.41a.18.18 0 01-.26-.11 1.09 1.09 0 00-.14-.23.61.61 0 00-.16-.11zm0-.9v.05c0 .09 0 .22.06.25a.38.38 0 00.27 0v-.14s-.2-.12-.3-.16z" />
    <path fill="#686868" d="M30.67 12.37h26.78v1.46H30.67z" />
  </g>
  <g id="iso27001">
    <circle class="s31 s1" cx="75" cy="12.8" r="12.05" />
    <circle class="s31" cx="75" cy="12.8" r="8.1" fill="#e8e8e8" />
    <path id="iso" class="s11"
      d="M68.61 9.92h2.44V10h-.44v4.2h.44v.12h-2.44v-.12h.44V10h-.44zm5.24 4.37a1.38 1.38 0 00.71-.17.54.54 0 00.31-.51.58.58 0 00-.33-.53 3.48 3.48 0 00-1-.32 7.23 7.23 0 01-.89-.24 2.57 2.57 0 01-.52-.27 1.14 1.14 0 01-.5-1 1.2 1.2 0 01.51-1 2.17 2.17 0 011.39-.41 4.57 4.57 0 01.88.1 3.51 3.51 0 00.58.1.25.25 0 00.2-.13h.08l.06 1.29h-.13a3.9 3.9 0 00-.8-.89 1.46 1.46 0 00-.92-.33 1.38 1.38 0 00-.76.18.55.55 0 00-.27.48.5.5 0 00.32.46 3.4 3.4 0 00.8.27c.31.06.52.11.62.14l.37.1a2.08 2.08 0 01.36.14l.29.18a1 1 0 01.25.25 1.22 1.22 0 01.21.72 1.32 1.32 0 01-.54 1.1 2.24 2.24 0 01-1.42.42 5.94 5.94 0 01-1-.1l-.66-.09c-.07 0-.14.06-.21.19h-.11l-.08-1.51h.13a3.73 3.73 0 00.9 1 1.89 1.89 0 001.17.38zm5.15.14a3 3 0 01-2-.58 2.07 2.07 0 01-.66-1.66 2.18 2.18 0 01.71-1.71 2.92 2.92 0 012-.63 2.81 2.81 0 012 .6 2.13 2.13 0 01.67 1.68 2.17 2.17 0 01-.67 1.69 2.89 2.89 0 01-2.05.61zm1-2v-.47a4.22 4.22 0 00-.15-1.46.72.72 0 00-.46-.43 1.18 1.18 0 00-.4 0 1.34 1.34 0 00-.42 0 .53.53 0 00-.28.18.87.87 0 00-.18.26 1.5 1.5 0 00-.11.4A9.24 9.24 0 0078 12v.46a5.52 5.52 0 00.08 1.1 1.11 1.11 0 00.19.46.91.91 0 00.77.31.81.81 0 00.82-.42 4.1 4.1 0 00.21-1.51z" />
    <path id="g1" class="s1"
      d="M71.6 9.25c.5-3.35 6.5-3.35 7 0m-5.3 0c.3-3.35 3.3-3.35 3.6 0m-1.8 0V6.8m-2.7.8c.6.7 4.8.7 5.4 0"
      stroke-width=".25" stroke="#fff" />
    <use href="#g1" transform="matrix(1 0 0 -1 0 24.7)" />
    <path
      d="M83.22 12.79a8.26 8.26 0 11-8.1-8.26 8.23 8.23 0 018.1 8.26zm-.28 0a8 8 0 10-7.84 8 8 8 0 007.84-8zm-7.07-9.51h-.18v-1l-.06.12c-.09.25-.18.5-.26.76 0 .06-.06.11-.13.09a.24.24 0 01-.11-.09c-.08-.26-.16-.52-.25-.78V2.3v.93h-.17V2c.26-.05.28 0 .35.18s.15.48.22.73a.61.61 0 01.05.11l.25-.72v-.07c.08-.24.08-.24.34-.22zm-3.45 18.85c-.12-.05-.24-.05-.27-.23a.34.34 0 00-.48-.2.67.67 0 00-.29.58.38.38 0 00.26.32.31.31 0 00.34-.11.21.21 0 01.14 0l.16.06a.6.6 0 01-1 .13.77.77 0 01.07-1 .68.68 0 01.92 0 .52.52 0 01.15.45zm6.82.45c-.1 0-.18.16-.28 0a.45.45 0 01-.56.22.64.64 0 01-.3-.74.42.42 0 01.56-.22c0-.09 0-.16-.08-.23l-.09-.23.25-.1zm-.63-.58c-.16 0-.28.09-.28.22a.42.42 0 00.17.38.19.19 0 00.25 0 .36.36 0 00.11-.23.64.64 0 00-.1-.26c-.04-.11-.12-.11-.15-.11zm5.14-14.15V8c-.16.21-.17.35 0 .5a.19.19 0 00.25.07.17.17 0 00.1-.22L84.08 8a.32.32 0 01.16-.4.34.34 0 01.42.06c.26.23.24.64 0 .74l-.09-.15c.14-.18.15-.3 0-.43a.21.21 0 00-.18-.05.23.23 0 00-.11.18 2.21 2.21 0 00.06.34.33.33 0 01-.15.4.36.36 0 01-.45 0 .5.5 0 01.01-.84zM68.71 4.32c-.07.09-.13.14-.24.06s-.36.09-.36.23a.17.17 0 00.23.16 1.69 1.69 0 00.31-.13.36.36 0 01.46.1.38.38 0 010 .49.48.48 0 01-.78.08l.14-.12c.21.13.35.12.49-.05a.19.19 0 000-.25c0-.1-.14-.1-.23-.07L68.4 5a.32.32 0 01-.4-.12.37.37 0 01-.06-.4.45.45 0 01.77-.16zm3.94 18.37c0 .11 0 .22.09.25A.69.69 0 0073 23a2.55 2.55 0 00.32-.05.47.47 0 01-.66.2.53.53 0 01.47-.94.47.47 0 01.22.64zm.52-.05c0-.18 0-.25-.18-.27a.21.21 0 00-.26.17zm4.12.17c.06.06.12.14.19.15a.5.5 0 00.26-.08l.26-.19a.45.45 0 01-.46.48.53.53 0 01-.11-1 .48.48 0 01.56.46l-.68.17zm0-.21l.22-.05.22-.06c-.06-.14-.14-.2-.27-.16a.21.21 0 00-.2.27zm3.83-17.17L81 5.32l.36-.46c.06-.08.14-.17 0-.27s-.2-.07-.3 0-.24.3-.36.46L80.55 5l.57-.74c.06.06.18.08.09.19a.77.77 0 01.27.07.77.77 0 01.16.25 1 1 0 01.26.08.23.23 0 01.09.36c-.14.2-.29.38-.44.58l-.15-.12.37-.47c.07-.09.11-.18 0-.26a.18.18 0 00-.27 0c-.13.16-.25.32-.38.49zM65.83 9.62l-.07.16-.52-.17c-.17-.06-.25 0-.28.07s0 .21.18.27l.51.18-.05.17-.88-.3v-.15h.11c-.08-.21-.08-.39.16-.49a1.7 1.7 0 010-.22.25.25 0 01.33-.27c.23 0 .45.14.67.21 0 .18 0 .18-.19.13l-.44-.14c-.1 0-.19 0-.23.09a.18.18 0 00.12.24l.48.17zm12.95-5.51c.06 0 .13.08.14.12a.27.27 0 00.28.21c.15 0 .19-.13.24-.26h-.16A.34.34 0 0179 4a.61.61 0 01.33-.7.36.36 0 01.45.24l.06-.08.16.08c-.15.31-.29.61-.45.91a.35.35 0 01-.47.11.36.36 0 01-.3-.45zm.63-.66c-.14 0-.3.21-.3.4s0 .19.13.21a.33.33 0 00.23 0 .91.91 0 00.17-.34c.03-.15-.11-.28-.23-.27zm5.28 9.73h.59c.11 0 .19 0 .2-.15a.16.16 0 00-.17-.19h-.63v-.18h.6c.16 0 .24-.09.2-.21a.22.22 0 00-.22-.14h-.58v-.18h.92v.15h-.1c.16.17.21.34 0 .51a1.15 1.15 0 01.12.25.25.25 0 01-.27.32h-.54c-.15.01-.15 0-.12-.18zM76.21 2.65a.25.25 0 010-.09.4.4 0 01.5-.1c.16.06.21.15.18.34s0 .23 0 .34v.18a.23.23 0 01-.05.12 1 1 0 01-.25-.08 1.23 1.23 0 01-.29 0 .25.25 0 01-.23-.28.24.24 0 01.23-.25h.3c.1 0 .12-.06.12-.09s-.05-.12-.08-.13a.53.53 0 00-.25 0 1 1 0 00-.19.08zm.51.31a1.22 1.22 0 00-.27 0c-.06 0-.1.08-.15.13s.07.12.13.14.28-.04.29-.23zM66.35 8.35a2.8 2.8 0 01-.13.38.24.24 0 01-.33.09.25.25 0 01-.15-.31c0-.09.06-.19.09-.28a.12.12 0 00-.15-.15c-.09 0-.18.2-.13.28s0 .16 0 .23c-.19-.08-.2-.3-.07-.52a.27.27 0 01.39-.07l.35.16a.45.45 0 00.11 0h.16a1.62 1.62 0 01-.1.18s-.05.01-.04.01zM66 8.18a1.43 1.43 0 00-.07.28.17.17 0 00.09.14h.13a.35.35 0 00.07-.23c-.07-.07-.17-.13-.22-.19zm12.47-4.32h-.26a.26.26 0 01-.21-.35.26.26 0 01.33-.21 2 2 0 00.24 0 .22.22 0 00.15-.08.19.19 0 00-.07-.14.2.2 0 00-.26 0h-.21a.3.3 0 01.39-.2c.3.06.39.21.28.5l-.1.28a.49.49 0 000 .17c0 .08 0 .14-.09.12a1.3 1.3 0 01-.19-.09zm.14-.39a.84.84 0 00-.27 0 .17.17 0 00-.15.1.23.23 0 00.08.16c.13.05.34-.01.34-.26zM75.68 22.6v-.15c.14 0 .17-.07.17-.19a.29.29 0 01.39-.24.1.1 0 010 .1.12.12 0 01-.06.08c-.14 0-.12.09-.1.19h.18v.16h-.18l.06.8h-.25c0-.22-.05-.43-.06-.64s.03-.15-.15-.11zm-1.28-.01v-.15c.26 0 .15-.17.19-.3h.24c.06.11-.11.36.2.32v.15h-.21v.53c0 .17.1.08.18.15s0 .16-.18.14-.28-.08-.27-.32 0-.22 0-.33.02-.21-.15-.19zM69.92 4.16l-.54.35a.24.24 0 00.46-.07.59.59 0 01.16-.17.36.36 0 01-.08.44.41.41 0 01-.48.06.6.6 0 01-.29-.43.38.38 0 01.21-.43.44.44 0 01.5.1s.01.09.06.15zm-.24 0c-.11-.14-.22-.17-.33-.1s-.12.2 0 .34zm12.78 2.09a.39.39 0 01-.5 0 .37.37 0 01-.11-.46.94.94 0 01.26-.3.4.4 0 01.54 0 .43.43 0 010 .54l-.12.13-.43-.48A.28.28 0 0082 6a.24.24 0 00.26.14s.11.08.2.11zm.05-.3a.23.23 0 000-.34.21.21 0 00-.31 0zm2.42 5.9a.37.37 0 01-.36-.26.4.4 0 01.09-.44.61.61 0 01.65-.09.41.41 0 01.21.45.45.45 0 01-.47.31l-.1-.61c-.13 0-.23.07-.25.2a.24.24 0 00.14.26l.09.18zm.21-.21c.2-.08.26-.17.22-.29a.22.22 0 00-.28-.15zm-5.09-7.45c-.07.12-.09.23 0 .32a.22.22 0 00.29.06h.19a.38.38 0 01-.47.1.41.41 0 01-.24-.41.61.61 0 01.4-.5.38.38 0 01.43.15.49.49 0 01-.06.56zm.06-.11l.4.23q.09-.24-.06-.33c-.11-.07-.23-.04-.34.1zM64.89 11c.31 0 .51.17.51.44a.42.42 0 01-.49.43.44.44 0 01-.49-.45c0-.32.17-.42.47-.42zm0 .69c.18 0 .3-.08.32-.2a.25.25 0 00-.22-.29.32.32 0 00-.39.07.27.27 0 00.29.42zM67 7.19a.58.58 0 01-.54-.52.43.43 0 01.43-.42.56.56 0 01.54.51.44.44 0 01-.43.43zm-.36-.54A.42.42 0 0067 7a.23.23 0 00.24-.22.45.45 0 00-.4-.37.22.22 0 00-.24.24zm6.71-2.91v-.12c.22-.07.26-.16.15-.37l-.4-.75c.13-.06.21 0 .26.09a3.06 3.06 0 00.27.5.51.51 0 000-.13c0-.14.06-.28.08-.43s.07-.18.21-.15c0 .24-.1.49-.14.74s0 .26-.08.38-.12.27-.35.24zM85 9.42l-1.21.05a.24.24 0 01-.24-.16c0-.11 0-.16.09-.16.13.19.23.2.4 0l.64-.57c.09.11.09.19 0 .29a2 2 0 00-.4.37 5.46 5.46 0 00.56 0c.16-.01.16.04.16.18zm.05.88c0-.09-.09-.15 0-.24A.21.21 0 0085 9.8c-.09-.05-.13 0-.14.09s0 .19 0 .28 0 .24-.17.28a.28.28 0 01-.34-.13.37.37 0 01.12-.6c0 .08.07.14 0 .23s0 .28.08.33.14 0 .15-.1a2.43 2.43 0 000-.27c0-.18 0-.26.19-.3a.28.28 0 01.32.18.35.35 0 01-.16.51zM66.93 5.89l.22-.08a1.55 1.55 0 01.06-.23.28.28 0 01.44-.08c.17.15.33.31.51.46l-.16.17-.42-.39c-.11-.1-.21-.12-.28 0a.22.22 0 000 .32l.39.43-.1.1zm4.66-2.1a1.41 1.41 0 01-.23.18.24.24 0 01-.36-.13c-.1-.21-.18-.43-.28-.65l.17-.07.24.58a.17.17 0 00.2.11.18.18 0 00.16-.19.36.36 0 000-.17c-.06-.15-.13-.31-.19-.47l.16-.08c.11.27.22.54.32.81v.09a.57.57 0 01-.19-.01zM65.25 13c0 .18 0 .19-.12.19h-.74v-.13h.13a.3.3 0 01-.08-.37.29.29 0 01.31-.17h.61v.18h-.6c-.1 0-.19.05-.2.17a.2.2 0 00.18.22h.61zm17.09-6.39l.73-.61.1.13-.07.09h.12a.29.29 0 01.22.23.27.27 0 01-.1.29l-.51.42-.12-.14.44-.36c.13-.11.15-.18.08-.27a.22.22 0 00-.33 0l-.44.35zm-5.12-3.1h-.18l.23-.9c.1 0 .18 0 .16.11a1.15 1.15 0 01.32 0A.24.24 0 0178 3c0 .24-.11.46-.17.7h-.17c0-.19.09-.37.13-.55s0-.24-.1-.28-.24 0-.28.19-.14.26-.19.45zm-6.57.36l.14-.07a.36.36 0 01-.11.47.41.41 0 01-.52 0 .62.62 0 01-.16-.56.42.42 0 01.34-.33.32.32 0 01.37.16c-.08.06-.14.09-.24 0a.21.21 0 00-.2 0 .37.37 0 00-.1.22.46.46 0 00.1.24.24.24 0 00.29.14c.07.01.11-.09.09-.27zm3.15 19.49h-.25c0-.3.07-.59.1-.87s.17 0 .25-.11v.18c.24-.15.24-.15.4-.12v.23h-.09a.25.25 0 00-.31.22c-.05.11-.07.29-.1.47zM64.5 12.2v.14c-.11 0-.14 0-.13-.13-.35-.08-.37-.11-.33-.39h.14c0 .14 0 .22.19.19v-.13h.11v.15l.76.05v.17zm1.06-4.83l.09-.15.23.13.1-.12h.12l-.1.21c.15.09.3.2.46.28s.12 0 .18 0 .08.09.07.12a.23.23 0 01-.24.19l-.16-.08-.42-.26-.1.12-.1-.08v-.12zm18.02-.45l-.07-.12.1-.07.1.1.23-.15.1.14-.22.18.08.15-.1.07-.12-.13-.37.26c-.1.06-.17.13 0 .24l-.12.08c-.19-.19-.19-.3 0-.45zM73 2.5c.1.16 0 .15-.13.17 0 .18.07.35.11.51s.09.07.13.1l.09.06s0 .07-.07.08-.28 0-.32-.17l-.12-.53h-.13V2.6l.14-.06v-.26h.15c.04.05-.08.31.15.22zm12.28 8.38v-.17a4.21 4.21 0 00-.51.12c-.06 0-.09.1-.13.15v.06s-.1 0-.12-.06a.2.2 0 01.06-.29c.14 0 .29-.08.43-.12h.2v-.17l.11-.05.06.13a1.1 1.1 0 01.26 0 .39.39 0 010 .13c-.09.09-.34 0-.24.24zM75.5 23.43h-.26v-.9s.05-.07.08-.08h.18zm1.25-1.12c0 .29.09.56.14.82s0 .19-.13.19h-.1l-.17-1zm-11.47-8.94c0 .2 0 .2-.16.21l-1 .07H64v-.19zm6.54-10.58l.07.14c0-.12.09-.24.25-.25v.14c-.25.17-.27.21-.17.51 0 .11.06.22.1.35h-.17l-.28-.88zm-7.22 7.73h.1l-.09-.35h.2c0 .26 0 .33.3.39l.4.1v.17l-.91-.21zm1.46-3.42l.07-.1.77.51-.1.15zm6.44-3.53l-.23-.89.16-.06c.06.2.11.4.16.59a1.24 1.24 0 010 .16c.08.16.08.16-.09.2zm2.98 18.49v.21h-.26v-.22zm1.23.08h-.24v-.18c.19-.07.23-.05.24.18zM65.91 7l-.15-.1.09-.15.16.09zm6.26-4.68h.17v.17h-.16zm-.96 15.78h1.08v.4h-1.71a.83.83 0 01.32-.74c.18-.15.37-.27.55-.4a1.67 1.67 0 00.28-.25.36.36 0 000-.43.34.34 0 00-.36-.17.34.34 0 00-.29.27c0 .07 0 .19-.06.2a1.53 1.53 0 01-.37 0v-.09a.8.8 0 01.47-.77.93.93 0 011 .14.76.76 0 010 1 3.68 3.68 0 01-.44.34l-.46.36zm2.87-1.95v.35a.14.14 0 010 .1 2.84 2.84 0 00-.71 1.76c0 .11 0 .16-.16.15a2 2 0 00-.35 0 3.43 3.43 0 01.79-1.93h-1c-.09 0-.13 0-.13-.12 0-.37 0-.31.3-.31zm.15 1.19c0-.22.07-.48.15-.73a.71.71 0 01.76-.51.73.73 0 01.73.49 2.07 2.07 0 010 1.47.81.81 0 01-1.51-.06c-.06-.2-.08-.41-.13-.66zm1.32 0c0-.19-.06-.38-.11-.56a.32.32 0 00-.32-.26.34.34 0 00-.32.26 2.24 2.24 0 000 1.15.33.33 0 00.65 0 5.58 5.58 0 00.1-.63zm2.31-.01c0 .22-.06.44-.12.65a.71.71 0 01-.69.56.7.7 0 01-.8-.46 1.91 1.91 0 010-1.62.7.7 0 01.75-.36.73.73 0 01.66.39 2 2 0 01.2.84zm-.46 0c0-.21-.08-.43-.14-.65a.3.3 0 00-.31-.19.31.31 0 00-.28.21 2 2 0 000 1.25.29.29 0 00.31.22.29.29 0 00.3-.23c.05-.2.08-.4.12-.62zm1.8 1.17h-.47V17h-.58v-.34h.18a.54.54 0 00.47-.35.12.12 0 01.15-.1c.31 0 .25 0 .25.24v2.05z"
      fill="#494949" />
  </g>
  <path id="op"
    d="M26.78 40.05a2.63 2.63 0 01.49.87 4 4 0 010 2.32 2.48 2.48 0 01-.49.86 2.13 2.13 0 01-.77.53 2.67 2.67 0 01-1 .18 2.71 2.71 0 01-1-.18 2.08 2.08 0 01-.77-.53 2.33 2.33 0 01-.49-.86 3.77 3.77 0 01-.17-1.16 3.43 3.43 0 01.17-1.15 2.51 2.51 0 01.49-.88 2.21 2.21 0 01.77-.53 2.79 2.79 0 011-.18 2.53 2.53 0 011 .19 2.06 2.06 0 01.77.52zm-.07 2a2.4 2.4 0 00-.46-1.58 1.53 1.53 0 00-1.25-.53 1.56 1.56 0 00-1.26.56 2.46 2.46 0 00-.45 1.58 2.36 2.36 0 00.46 1.58 1.7 1.7 0 002.5 0 2.36 2.36 0 00.46-1.58zm5.8.54a3.62 3.62 0 01-.13 1 1.59 1.59 0 01-1.05 1.1 2.66 2.66 0 01-.84.12 2.57 2.57 0 01-.87-.13 1.47 1.47 0 01-.62-.38 1.65 1.65 0 01-.41-.7 3.26 3.26 0 01-.13-1v-3.15h.7v3.18a2.94 2.94 0 00.06.67 1.3 1.3 0 00.19.45 1 1 0 00.43.35 1.53 1.53 0 00.64.11 1.56 1.56 0 00.64-.11.91.91 0 00.42-.35 1.37 1.37 0 00.2-.46 2.9 2.9 0 00.06-.64v-3.2h.7zm5.68 2.12h-.91l-1.76-2.09h-1v2.09h-.7v-5.26h1.47a4.5 4.5 0 01.8.06 1.78 1.78 0 01.57.22 1.21 1.21 0 01.44.46 1.31 1.31 0 01.16.69 1.53 1.53 0 01-.28.95 1.76 1.76 0 01-.79.58zm-1.64-3.78a.84.84 0 00-.08-.4.68.68 0 00-.26-.3 1.18 1.18 0 00-.36-.14 2.37 2.37 0 00-.49 0h-.82v2h.7a2.4 2.4 0 00.58-.06.84.84 0 00.42-.21 1 1 0 00.24-.34 1.37 1.37 0 00.07-.55zm8.3.07a1.75 1.75 0 01-.13.65 1.47 1.47 0 01-.34.51 1.72 1.72 0 01-.64.41 2.76 2.76 0 01-.93.14h-.7v2h-.7v-5.26h1.42a3.69 3.69 0 01.81.08 1.89 1.89 0 01.58.25 1.38 1.38 0 01.46.5 1.55 1.55 0 01.17.72zm-.73 0a1 1 0 00-.1-.48.83.83 0 00-.29-.33 1.16 1.16 0 00-.38-.15 2.79 2.79 0 00-.55-.05h-.69v2.1h.59a2.48 2.48 0 00.68-.08 1 1 0 00.67-.59 1.16 1.16 0 00.07-.36zm5.61 3.71H49l-.52-1.47H46.2l-.51 1.47H45l1.91-5.26h.93zm-1.47-2.07l-.92-2.58-.93 2.58zm6.62 2.07H54l-1.75-2.09h-1v2.09h-.7v-5.26H52a4.42 4.42 0 01.8.06 1.78 1.78 0 01.57.22 1.32 1.32 0 01.45.46 1.41 1.41 0 01.16.69 1.53 1.53 0 01-.29.95 1.76 1.76 0 01-.79.58zm-1.63-3.78a1 1 0 00-.08-.4.7.7 0 00-.27-.3 1.18 1.18 0 00-.36-.14 2.31 2.31 0 00-.49 0h-.82v2h.71a2.52 2.52 0 00.58-.06.93.93 0 00.42-.21 1.08 1.08 0 00.23-.34 1.36 1.36 0 00.08-.55zm5.85-.86h-1.88v4.64h-.7v-4.64h-1.88v-.62h4.46zm4.71 4.64H63L60.45 40v4.71h-.65v-5.26h1.08l2.28 4.29v-4.29h.65zm4.86 0h-3.46v-5.26h3.46v.62h-2.76v1.44h2.76v.62h-2.76v1.95h2.76zm5.46 0h-.91l-1.76-2.09h-1v2.09h-.7v-5.26h1.47a4.5 4.5 0 01.8.06 1.78 1.78 0 01.57.22 1.21 1.21 0 01.44.46 1.31 1.31 0 01.17.69 1.53 1.53 0 01-.29.95 1.76 1.76 0 01-.79.58zm-1.64-3.78a.84.84 0 00-.08-.4.68.68 0 00-.26-.3 1.18 1.18 0 00-.36-.14 2.37 2.37 0 00-.49 0h-.82v2h.7a2.4 2.4 0 00.58-.06.84.84 0 00.42-.21 1 1 0 00.24-.34 1.37 1.37 0 00.07-.55zm6.14 2.28a1.33 1.33 0 01-.15.6 1.42 1.42 0 01-.4.51 2.08 2.08 0 01-.66.35 2.67 2.67 0 01-.9.13 4.49 4.49 0 01-1-.11 5.07 5.07 0 01-.93-.31v-.88h.05a2.88 2.88 0 00.92.52 3.06 3.06 0 001 .18 1.73 1.73 0 001-.25.75.75 0 00.36-.65.7.7 0 00-.17-.51 1.21 1.21 0 00-.52-.26c-.18-.05-.37-.08-.58-.12L76 42.3a2 2 0 01-1-.51 1.33 1.33 0 01-.34-.93 1.3 1.3 0 01.56-1.08 2.24 2.24 0 011.42-.43 4.46 4.46 0 011 .11 4.67 4.67 0 01.82.26v.83a2.61 2.61 0 00-.78-.43 3.14 3.14 0 00-1-.16 1.62 1.62 0 00-.9.23.73.73 0 00-.34.6.77.77 0 00.17.52 1.12 1.12 0 00.6.28c.15 0 .36.08.64.12l.71.15a1.8 1.8 0 01.88.47 1.22 1.22 0 01.19.88z" />
  <g id="microsoft">
    <path
      d="M46.31 77.81v-.64h-.8v-1l-.77.24v.76h-1.22v-.43c0-.54.46-.73.88-.5v-.68a1.23 1.23 0 00-1.68 1.14v.47h-.56v.64h.56v2.72h.8v-2.72h1.19c.07 1.26-.47 3.34 1.6 2.68v-.65c-.38.26-.86.09-.8-.44v-1.59zM40.37 80c-1.25.07-1.24-2.28 0-2.22s1.22 2.3 0 2.22m0-2.87c-2.31-.15-2.41 3.62-.08 3.52 2.26.14 2.39-3.63.08-3.52m-3.08 0c-1-.11-1.75 1-1 1.76a6.79 6.79 0 00.89.46c.41.22.26.72-.29.67a1.62 1.62 0 01-.92-.33v.77c1.05.56 2.87-.12 2-1.44-.13-.25-.94-.5-1.14-.67-.45-.75.81-.68 1.16-.34v-.74a2.19 2.19 0 00-.77-.14M34 80c-1.26.07-1.25-2.28 0-2.22S35.18 80 34 80m0-2.87c-2.31-.15-2.41 3.62-.08 3.52 2.26.14 2.39-3.63.08-3.52m-3 .66v-.58h-.8v3.36h.8v-1.76c-.06-.69.56-1.26 1.17-.85v-.8a.9.9 0 00-1.16.59zm-2.21-.66c-3 .1-2 4.67.82 3.29v-.72c-2.42 1.51-2.38-3.1 0-1.63v-.77a2 2 0 00-.82-.17m-2.36.08h-.79v3.36h.79v-3.4zM26 75.73a.46.46 0 100 .92.46.46 0 100-.92m-2 1.19v3.61h.81v-4.69h-1.06l-1.42 3.48L21 75.84h-1.22v4.69h.76v-3.61L22 80.53h.57L24 76.92z"
      fill="#6e6e6e" />
    <path d="M13.32 78H9.6v-3.73h3.72z" fill="#7b7b7b" />
    <path d="M17.44 78h-3.73v-3.73h3.73V78z" fill="#a3a3a3" />
    <path d="M13.32 82.1H9.6v-3.72h3.72z" fill="gray" />
    <path d="M17.44 82.1h-3.73v-3.72h3.73v3.72z" fill="#bbb" />
  </g>
  <g id="amazon">
    <path class="s3"
      d="M80.44 82.63A13.42 13.42 0 0172.81 85a13.86 13.86 0 01-9.33-3.56c-.18-.17 0-.41.22-.27a18.5 18.5 0 0016.44 1c.35-.14.64.23.3.48z" />
    <path class="s3"
      d="M81.3 81.65c-.26-.34-1.74-.16-2.4-.08-.2 0-.24-.15-.05-.27a3.66 3.66 0 013.34-.3A3.67 3.67 0 0181 84.13c-.18.14-.34.06-.26-.12.26-.63.83-2.01.56-2.36z" />
    <path
      d="M78.93 75.44v-.81a.19.19 0 01.2-.2h3.62a.21.21 0 01.21.2v.68c0 .12-.1.27-.27.51l-1.87 2.67a4.1 4.1 0 012.06.44.37.37 0 01.18.31v.86a.19.19 0 01-.26.19 4.12 4.12 0 00-3.82 0c-.12.06-.26-.06-.26-.19v-.82a.93.93 0 01.14-.55L81 75.64h-1.85a.21.21 0 01-.22-.2zm-13.18 5h-1.09a.21.21 0 01-.2-.18v-5.62a.21.21 0 01.21-.2h1a.21.21 0 01.2.19v.73a1.5 1.5 0 012.86 0 1.57 1.57 0 011.53-1 1.53 1.53 0 011.27.62 3 3 0 01.27 1.77v3.57a.21.21 0 01-.21.2h-1.04a.21.21 0 01-.19-.2v-3a7.51 7.51 0 000-1.06.58.58 0 00-.65-.48.73.73 0 00-.66.46 3.51 3.51 0 00-.1 1.08v3a.21.21 0 01-.21.2h-1.1a.22.22 0 01-.2-.2v-3c0-.62.1-1.55-.67-1.55s-.76.89-.76 1.55v3a.21.21 0 01-.23.18zm20.33-6.14c1.63 0 2.52 1.39 2.52 3.18s-1 3.09-2.52 3.09-2.47-1.4-2.47-3.14.87-3.13 2.47-3.13zm0 1.16c-.81 0-.86 1.11-.86 1.79s0 2.16.85 2.16.9-1.19.9-1.91a5.4 5.4 0 00-.17-1.5.68.68 0 00-.72-.54zm4.63 5h-1.1a.21.21 0 01-.2-.2v-5.64a.22.22 0 01.21-.19h1a.2.2 0 01.2.16v.86a1.48 1.48 0 011.5-1.13 1.44 1.44 0 011.28.66 3.56 3.56 0 01.29 1.76v3.55a.21.21 0 01-.22.17h-1.04a.21.21 0 01-.2-.17v-3.07c0-.62.07-1.52-.69-1.52a.7.7 0 00-.63.45 2.6 2.6 0 00-.18 1.07v3a.22.22 0 01-.22.2zm-14.66-2.69a2.14 2.14 0 01-.2 1.17.87.87 0 01-.76.5c-.42 0-.67-.32-.67-.8 0-.93.84-1.11 1.63-1.11zm1.11 2.68a.23.23 0 01-.26 0 2.73 2.73 0 01-.63-.74 2.2 2.2 0 01-1.81.8 1.56 1.56 0 01-1.65-1.71A1.88 1.88 0 0174 77a7.71 7.71 0 012.07-.38v-.14a1.38 1.38 0 00-.13-.8.74.74 0 00-.61-.28.83.83 0 00-.89.66c0 .1-.09.2-.19.2l-1.06-.12A.19.19 0 0173 76a2.23 2.23 0 012.46-1.68 2.49 2.49 0 011.66.54 2.36 2.36 0 01.48 1.9v1.71a1.54 1.54 0 00.41 1c.08.1.09.23 0 .29l-.86.72zm-15.51-2.68a2.24 2.24 0 01-.2 1.17.88.88 0 01-.76.5c-.42 0-.67-.32-.67-.8 0-.93.83-1.11 1.63-1.11zm1.1 2.68a.23.23 0 01-.26 0 2.62 2.62 0 01-.64-.74 2.19 2.19 0 01-1.81.8 1.56 1.56 0 01-1.64-1.71 1.86 1.86 0 011.17-1.8 7.64 7.64 0 012.07-.38v-.14a1.38 1.38 0 00-.14-.8.74.74 0 00-.61-.28.82.82 0 00-.88.66c0 .1-.09.2-.19.2l-1.06-.12a.18.18 0 01-.16-.14 2.22 2.22 0 012.45-1.68 2.46 2.46 0 011.66.54 2.33 2.33 0 01.49 1.9v1.71a1.54 1.54 0 00.41 1c.07.1.09.23 0 .29s-.64.53-.86.72z"
      fill-rule="evenodd" />
  </g>
  <path id="ibm"
    d="M105.62 70.91v1h7.3v-1zm8.33 0v1h10.39a3.94 3.94 0 00-2.46-1zm12.43 0v1h6.29l-.37-1zm10.8 0l-.37 1H143v-1zm-31.56 2v1h7.3v-1zm8.33 0v1h11.6a2.58 2.58 0 00-.37-1zm12.43 0v1h7l-.34-1zm10.06 0l-.35 1H143v-1zm-28.72 2v1h3.16v-1zm8.33 0v1h3.15v-1zm6.23 0v1h3.16a3.58 3.58 0 00.2-1zm6.2 0v1h5.6l-.37-1zm7.27 0l-.38 1H141v-1zm-28 2v1h3.16v-1zm8.33 0v1h8.07a3.62 3.62 0 00.89-1zm12.43 0v1h3.16v-.57l.2.57h5.79l.21-.57v.57H141v-1h-5.93l-.31.86-.32-.86zm-20.76 2v1h3.16v-1zm8.33 0v1h9a3.57 3.57 0 00-.89-1zm12.43 0v1h3.16v-1zm3.73 0l.39 1h4.34l.36-1zm5.63 0v1H141v-1zm-30.12 2v1h3.16v-1zm8.33 0v1h3.15v-1zm6.23 0v1h3.36a3.58 3.58 0 00-.2-1zm6.2 0v1h3.16v-1zm4.45 0l.37 1h2.91l.37-1zm4.91 0v1H141v-1zm-32.16 2v1H113v-1zm8.27 0v1h11.23a2.67 2.67 0 00.37-1zm12.49 0v1h5.2v-1zm7.21 0l.38 1h1.48l.36-1zm4.19 0v1h5.26v-1zm-32.16 2v1H113v-1zm8.27 0v1h7.93a4 4 0 002.46-1zm12.49 0v1h5.2v-1zm7.93 0l.37 1h.06l.37-1zm3.47 0v1h5.26v-1z"
    fill="#616161" />
  <g id="dhs">
    <path class="s12"
      d="M183.16 80.18l-.69.21.16.06-.24.15c0-.14.05-.28.07-.42l.37-.31V80l.43-.57-.66.29h.16l-.3.25a4.75 4.75 0 00.05-.53l.37-.41v.17l.34-.63-.6.38h.17l-.3.32a8.59 8.59 0 00-.34-2.71 2.75 2.75 0 01-.93-.12 1.37 1.37 0 01.72.94 1.6 1.6 0 01-1.18-.26 1.43 1.43 0 01.46 1 1.38 1.38 0 01-1-.44 1.56 1.56 0 01.34 1 1.6 1.6 0 01-.93-.51 2.05 2.05 0 01.23 1 1.56 1.56 0 01-.87-.43 2.07 2.07 0 01.17 1 1.45 1.45 0 01-.85-.64 1.77 1.77 0 01.11 1 1.12 1.12 0 01-.7-.62 1.59 1.59 0 01.09 1 .83.83 0 01-.4-.22v.18a2 2 0 01-.14.66l.1.11a1.55 1.55 0 00.58.41c-.08 0-.19.08-.3.09.12.14.37.17.52.32-.12 0-.15.1-.29.08.52.42.95.1 1.42.34a.24.24 0 010 .4s-.07 0 0 0a.23.23 0 000-.28c-.16-.14-.5 0-.68-.08s-.09.44-.37.33-.47-.1-.79-.23c0 .1 0 .18.07.29-.28-.07-.35-.21-.62-.31a1.22 1.22 0 00.09.27c-.23 0-.44-.25-.76-.33l-.32.1a2 2 0 01.5.94 1.1 1.1 0 01-.39-.07 2.08 2.08 0 01.11.66 1.28 1.28 0 01-.42-.18 2.66 2.66 0 010 .69 1.39 1.39 0 01-.45-.33 2.61 2.61 0 01-.19.7 1.56 1.56 0 01-.38-.43 2.71 2.71 0 01-.34.68 1.7 1.7 0 01-.35-.65 1.44 1.44 0 01-.36.4 2.77 2.77 0 01-.18-.7 1.52 1.52 0 01-.45.33 2 2 0 010-.69 1.37 1.37 0 01-.43.18 2.08 2.08 0 01.12-.66 1.17 1.17 0 01-.4.07 2.4 2.4 0 01.51-1l-.27-.08c-.32.09-.53.29-.76.33a1.22 1.22 0 00.09-.27c-.27.1-.34.24-.63.31.05-.11 0-.19.08-.29a3.48 3.48 0 01-.79.25c-.17 0-.18-.23-.24-.28a2.43 2.43 0 00-.61 0 .38.38 0 00-.28.08c-.1.07-.05.25 0 .28a.18.18 0 01-.11-.13.25.25 0 01.08-.27c.12-.13.59-.08.76-.1a1.93 1.93 0 00.74-.29c-.15 0-.17-.07-.29-.09.15-.15.39-.18.51-.32-.1 0-.2-.1-.28-.11a2 2 0 00.57-.39l.09-.11a2.55 2.55 0 01-.15-.84.9.9 0 01-.38.21 1.66 1.66 0 01.07-1 1.06 1.06 0 01-.67.64 1.66 1.66 0 01.08-1 1.45 1.45 0 01-.83.67 2.27 2.27 0 01.14-1 1.5 1.5 0 01-.87.43 2.18 2.18 0 01.24-1 1.68 1.68 0 01-1 .47 3.46 3.46 0 01.36-1 1.86 1.86 0 01-1 .41 1.93 1.93 0 01.46-1 1.69 1.69 0 01-1.14.3 1.54 1.54 0 01.63-.93 3 3 0 01-.88.07A8.45 8.45 0 00166 79a4 4 0 01-.44-.31c.05.42.08 1.08.49 1.24v.34a1.32 1.32 0 00-.75-.19c.2.64.48.69.86.75a1 1 0 000 .17 1.48 1.48 0 00-.72 0 1.16 1.16 0 00.87.54 1.47 1.47 0 00-.75.13 1.19 1.19 0 00.92.35l.05.12a1.34 1.34 0 00-.56.29 1.89 1.89 0 00.73.1.94.94 0 00-.33.52c.18 0 .36 0 .54-.1l.11.19a1 1 0 00-.07.66.89.89 0 00.38-.17l.11.16a1 1 0 00.2.77 1.24 1.24 0 00.19-.26A8.32 8.32 0 00182 81.91l.38-.16v.16l.54-.47-.7.15.15.08-.29.12c.05-.15.1-.3.14-.45l.41-.23v.17l.5-.52-.69.21.16.07-.33.18c0-.16.08-.33.11-.49l.32-.2v.17l.5-.52" />
    <path
      d="M182.76 74a4 4 0 01-.46.13c3.85 6-.82 14.46-8 14.31A9.45 9.45 0 01166.34 74l-.44-.17a9.92 9.92 0 008.36 15.13c7.52.15 12.43-8.57 8.5-14.91m-14-2.63a9.52 9.52 0 0111.47.41l.54-.15a10 10 0 00-12.53-.46l.52.2"
      fill="#4d4d4d" />
    <path
      d="M174.26 92.16A13.13 13.13 0 01161.13 79c.69-17.42 25.57-17.41 26.26 0a13.13 13.13 0 01-13.13 13.13m0-27.13a14 14 0 00-14 14c.74 18.57 27.26 18.56 28 0a14 14 0 00-14-14z"
      fill="#afafaf" />
    <path class="s12"
      d="M170.88 76.22a1.87 1.87 0 01-1.12-2.17 2.33 2.33 0 00.21-1c-.3-.83-1-1.1-1.95-1.45a7.42 7.42 0 01-2.25-1 .77.77 0 00.46.93.93.93 0 00-.64.34 1.57 1.57 0 001 .51 1.44 1.44 0 00-.43.47 2.41 2.41 0 001.17.28 1.57 1.57 0 00-.39.43 4 4 0 001.22.32 2.1 2.1 0 00-.55.56 5.23 5.23 0 001.19.23 1.84 1.84 0 00-.66.64 2.75 2.75 0 001.14.24 1.53 1.53 0 00-.4.64 2.9 2.9 0 001 0 1.86 1.86 0 00-.34.92 2.2 2.2 0 001-.24 1.29 1.29 0 00.05.75 1.59 1.59 0 00.4-.16c0-.42 0-.85-.05-1.21m12.06-5c-1.05.87-3 .79-4.16 1.82a.81.81 0 00-.33.72c0 .4.09.57.1 1.14a1.5 1.5 0 01-.92 1.4v1.09a2.28 2.28 0 00.46.18 1.29 1.29 0 00.05-.75 2.2 2.2 0 001 .24 1.86 1.86 0 00-.34-.92 2.9 2.9 0 001 0 1.53 1.53 0 00-.4-.64 2.75 2.75 0 001.14-.24 1.87 1.87 0 00-.67-.64 5.2 5.2 0 001.07-.25 2.13 2.13 0 00-.56-.56 4 4 0 001.22-.32 1.57 1.57 0 00-.39-.43 2.92 2.92 0 001.17-.28 1.7 1.7 0 00-.43-.47c1-.26 1-.73 1-1.1" />
    <path class="s12"
      d="M179 72.24a8.35 8.35 0 00-9.1-.24 1.4 1.4 0 01.5 1.78 1.59 1.59 0 001.24 2.15c.51-.08 1-.15 1.53-.19.08-.42.93-.7.63-1.16-.08-.29-.86-.57-.92-.1-.33-.46.12-.82.52-.79-.17-.32.65-.31.84-.31.66-.07 1 .84 1.51.49a.62.62 0 01-.63.32 12.85 12.85 0 01.26 1.55 16.85 16.85 0 011.71.23 1.33 1.33 0 00.93-1.62c-.21-.95-.17-1.66.95-2.11" />
    <path class="s12"
      d="M173.48 73.71a.21.21 0 00.15.07l.23-.08a1.48 1.48 0 01.22-.07c-.4-.09-.45 0-.67 0m11.73 1.62a.92.92 0 10-.74-1.69.92.92 0 10.74 1.69m-.51-1.25c1-.4 1.36.54.43 1s-1.37-.56-.43-1zm-.1 2.6l-.18-.74h.11v.21l1.56-.4v-.2h.11l.28 1.11h.08v.15l-.44.11v-.14l.19-.05-.14-.56-.64.16.11.43h.19v.15l-.54.13v-.14h.19l-.11-.43-.71.18.05.18h-.12m-21.77-2l-.07.23c.62.23 1.79.26 1.48 1.22s-1.28.34-1.9.21l-.07.2h-.11l.23-.75h.11l-.06.2c.29 0 1.31.53 1.52.25.61-.89-.72-1-1.25-1.17l-.06.23h-.12l.19-.62h.11m1.77.44a.19.19 0 01-.35-.15c.09-.22.44-.07.35.15m.34-.8l-.07.14-.44-.25.08-.13.18.1c.26-.08.48-.46.22-.63s-.82.32-.93.3c-.61.09-.78-.71-.3-1h-.07l.07-.13.42.24L164 73l-.17-.1c-.24.1-.39.4-.16.55.06.12.6-.19.72-.25.76-.32 1.13.7.44 1.07h.08m.69-1.27a.18.18 0 11-.36 0 .18.18 0 11.36 0m4.32-3.59l-1.18.61-.05-.1.18-.1-.73-1.43-.19.1v-.11l1-.52v-.07l.14-.07.2.39-.13.07L169 68l-.52.27.3.58.4-.2-.09-.17.13-.07.26.49-.14.07-.09-.17-.39.2.31.61.54-.27-.09-.19.13-.07.17.33m1.14-.41l-.77.26v-.11l.2-.07-.5-1.53-.2.07v-.11l.8-.27c.85-.28 1 1 .17 1.07v-.13h.07c.4-.09.11-.92-.25-.74h-.16l.49 1.49.23-.08v.11m2.26-.62h-.11l-1-1.63h-.17l-.4 1.88h-.17v.12l.57-.1v-.12h-.22l.1-.47.67-.12.24.42h-.19v.11l.67-.11v-.12M172 68l.15-.74.38.64zm3.28.39c-.13 0-.18 0-.27-.12l-.39-.61a.51.51 0 00.25-.85c-.18-.23-1-.11-1.29-.14v.12h.21v1.6h-.21v.12h.78v-.12h-.21v-.7h.08c.29.41.43.88.7.82h.36v-.12m-1.13-1.56c.24 0 .5 0 .48.35s-.24.41-.49.37zm2.39 1.9l-.89-.14v-.12h.27l.26-1.53-.48-.08v.23h-.16l.08-.47h.16v.07L177 67v-.08h.15l-.08.47h-.15v-.23l-.48-.08-.26 1.53h.27v.11m2.61.89l-.78-.31v-.1l.21.08.44-1.12-1.06 1-.15-1.47-.42 1.1.21.08v.11l-.6-.23v-.11l.22.08.58-1.49-.22-.09.05-.11.46.18.14 1.45 1-1 .51.2v.11l-.22-.09-.58 1.5.22.09v.11m1.35.88l-1.11-.71.06-.1.18.11.86-1.35-.18-.11.07-.1 1 .62.05-.07.12.08-.23.38-.13-.08.11-.17-.49-.32-.35.56.37.24.1-.16.13.08-.29.46-.13-.08.1-.16-.37-.24-.37.58.5.32.12-.17.12.08-.2.31m-12.73.08l-.18.13-.9-1.23c.66-.75 1.8.5 1.08 1.1m.36-1.22a.92.92 0 00-1.3-.18l-.7.51.07.1.17-.13.95 1.29h.14l.46-.34a.91.91 0 00.21-1.3zm14.75.76l-.08.09.16.15-.78.86.19-1.56-.41-.37-.07.08.14.14v.16l-1 1.09-.17-.16-.08.09.46.42.08-.09-.16-.14.82-.9-.18 1.43.6-.16.7-.78.18.16.08-.08-.47-.43m1.88 2h-.07l-.8-1h.06l-.09-.12-.38.28.1.13.18-.14.29.38-1.23.95-.07-.09h-.11l.46.61.1-.08-.17-.21 1.24-.95.29.39-.18.14.09.12.38-.29-.09-.12m-8.16 19.15h-.15l-.1-.49h.15v.2c.23.15.67.06.62-.25s-.79-.4-.85-.5c-.47-.39 0-1 .58-.91v-.08h.15l.1.47h-.15v-.19c-.23-.11-.55 0-.51.25 0 .12.54.33.67.37.74.36.22 1.31-.51 1v.1m2.84-.89l-1.24.48v-.11l.2-.07-.59-1.5-.2.08v-.11l1.07-.42v-.07l.14-.06.16.41-.13.06-.08-.19-.54.21.24.62.42-.17-.07-.17.14-.06.2.51-.14.06-.07-.18-.42.16.25.64.57-.22-.08-.19.14-.06.14.35m1.86-1.13c-1.32 1.72-3.06-.87-1-1.38l-.06-.1.13-.08.26.43-.13.08-.09-.15c-1.59 0-.14 2.45.69 1.14l-.11-.18.13-.08.2.32m.84-2.88l-.18.16c.41.51 1.4 1.14.63 1.8s-1.27-.37-1.73-.8l-.16.15-.08-.09.58-.53.08.09-.16.14c.24.19.85 1.13 1.17 1 1-.44-.11-1.2-.46-1.64l-.17.16-.08-.09.48-.44.08.09m3.13-1.63l-.37.69-.11-.06.1-.19-1.41-.76-.1.19-.1-.06.37-.69.1.06-.1.18 1.42.77.1-.19.1.06m.71-1.67l-.32.84h-.1l.09-.25-1.46-.55-.17.45.22.08-.06.14-.44-.16v-.15h.08l.46-1.24h-.07l.05-.15.45.17-.06.14-.21-.08-.17.45 1.46.55.09-.25h.11m.5-2l-.15.77h-.12v-.2l-.75-.15-.93.38v.17h-.11l.15-.77h.11v.2l.68-.27-.53-.48v.23h-.12l.13-.64h.11v.2l.66.6.83.16v-.2h.12m-3.82 4.7c.13-.21.33-.38.58-.18s.18.43 0 .62l-.59-.44m1.94 0c-.08.09-.08.16-.26.14h-.73a.51.51 0 00-.53-.71c-.3 0-.69.75-.88 1l.09.07.13-.17 1.29 1-.13.17.1.07.46-.63-.09-.07-.13.17-.56-.42v-.06c.49 0 1 .17 1.08-.08l.21-.28-.09-.07zm-22.1-3l-.19-.75h.11l.05.2.72-.17-.22-.88-.71.17.05.2h-.12l-.18-.76h.11v.2l1.56-.38v-.21h.12l.18.75h-.11l-.05-.2-.69.17.22.88.68-.17-.05-.2h.12l.18.76h-.11v-.21l-1.56.38.05.21h-.11m1.66 1.75a.92.92 0 10-.76-1.68.92.92 0 10.76 1.68m-.6-1.32c.95-.41 1.37.51.44 1s-1.38-.51-.44-1zm1.31 4l-.49-.67.1-.07.13.19 1-.71-1.45.3.67-1.32-.95.69.14.19-.1.07-.38-.52.1-.07.14.19 1.3-1-.14-.19.09-.07.29.4-.66 1.3 1.39-.29.33.45-.1.07-.35-.05-1.3.94.13.19-.09.07m1.45 1.43l-1-.9.08-.09.16.14 1.09-1.18-.16-.14.08-.09.85.78.05-.06.11.11-.3.32-.11-.1.14-.15-.43-.39-.45.48.33.31.13-.14.11.1-.37.4-.11-.1.13-.14-.33-.3-.47.5.45.41.14-.15.11.1-.25.28m1.73 1.09l-1.14-.72.06-.1.18.12.9-1.33-.18-.12.07-.1.64.44-.06.09-.17-.11-.88 1.29.5.33.11-.17.13.09-.21.3m2 .86h-.11l.11-1.91-.15-.07-1.4 1.33-.15-.08v.11l.52.24.05-.11-.2-.09.35-.34.62.28v.49l-.18-.08-.05.1.62.28.05-.1m-.9-1.09l.55-.52-.05.74zm2.83 1.75h-.19l-.63-1.55-.28 1.18.22.05v.12l-.61-.15v-.11h.23l.34-1.42-.06-.16h-.19v-.11l.54.13.58 1.46.27-1.14h-.22v-.12l.62.15v.11h-.23l-.41 1.71m1.74.13a.92.92 0 10.07-1.83h-.87v.12h.12l-.06 1.6h-.21v.11h.86m-.21-1.63c1.12-.13 1.06 1.76-.06 1.53z" />
    <path class="s11"
      d="M174.26 83.19h-.09a.7.7 0 00-.54-.54l-1.25-.39a1.79 1.79 0 01-1.27-1.71c-.08-1.15-.19-3.17-.23-4.46a15.13 15.13 0 016.76 0c0 1.29-.16 3.31-.24 4.46a1.77 1.77 0 01-1.27 1.71l-1.24.39a.67.67 0 00-.54.54h-.09" />
    <path class="s15"
      d="M174 80.25l-.17-.08-.1-.28-.24-.1-.28-.25-.16.18-.24.06-.13.2-.19.21-.27.14-.18.31-.1.13-.18.14-.1-.1-.1.1-.14.24a13 13 0 01-.24-2.53 16.05 16.05 0 012.95-.33v2.11s-.09 0-.13-.15" />
    <path d="M174.16 81.27h-2.66c.44 1 1.9.83 2.66 1.45v-1.45" fill="#797979" />
    <path class="s12"
      d="M177 80.24a.82.82 0 01.26-.16c0-.25 0-.52.05-.79a1 1 0 01-.66.3c-.42 0-.54-.28-.89-.3s-.8.55-1.36.2v.75c.56.46.77-.13 1.36-.15s.81.58 1.24.15m-2.14 1.7a.86.86 0 01-.46-.13v.91c.54-.45 1.35-.41 2.09-.82-.32 0-.45-.28-.73-.29s-.54.34-.9.33" />
    <path class="s15"
      d="M177 79.1a.76.76 0 01.33-.19v-.29a16.15 16.15 0 00-2.95-.33v.8h.08c.44.38.78-.2 1.28-.2s.81.58 1.24.16m-2.6 1.54v.77c.56.46.78-.12 1.36-.15s.76.55 1.18.2a1.79 1.79 0 00.29-.92v-.05a.81.81 0 01-.56.23c-.42 0-.54-.28-.89-.31s-.8.56-1.36.21" />
    <path class="s12"
      d="M171.19 78.42c0-.78-.07-1.56-.1-2.17a14.69 14.69 0 016.33 0c0 .61-.06 1.39-.1 2.17a15.07 15.07 0 00-6.13 0" />
    <path class="s11"
      d="M171.81 76.76v-.17l-.16-.07h.17v-.17l.07.15h.16l-.12.11.08.15-.15-.09-.11.13m1-.14l-.14-.09-.12.12v-.16l-.16-.08h.17v-.17l.06.16h.17l-.13.11.07.15m.78-.06l-.14-.1-.12.12v-.16l-.15-.09h.17v-.17l.06.16h.16l-.13.1.07.15m.77 0l-.13-.11-.13.11.06-.16-.14-.1h.17v-.16.16h.17l-.14.1.06.16m2.21.09l-.15.08.09-.15-.13-.11h.17l.07-.15v.17h.17l-.15.08v.16l-.11-.12m-.84-.17l-.14-.11h.17l.06-.16v.17h.17l-.15.08v.16l-.12-.12-.14.09.08-.15m-.79-.06l-.13-.1h.17l.05-.17v.17h.17l-.14.09v.16l-.13-.12-.14.1.07-.15M171.92 78v-.16l-.15-.07h.16v-.17l.07.16h.17l-.13.12.08.14-.14-.08-.12.12m1-.12l-.14-.1-.12.12v-.16l-.15-.08h.17v-.17l.06.16h.16l-.13.1.08.16m.74-.06l-.13-.1-.13.12.05-.16-.14-.09h.17v-.17.16h.17l-.14.1.07.15m.75 0l-.13-.11-.13.11.06-.16-.15-.09h.17v-.16.16h.17l-.14.09.06.16m2.12.08l-.15.08.08-.14-.12-.12h.16l.07-.15v.17h.17l-.16.07v.16l-.11-.12m-.82-.16l-.13-.11h.17l.06-.16v.17h.55l-.15.08v.16l-.12-.12-.14.09.07-.15m-.75-.06l-.13-.1h.16l.06-.16v.16h.17l-.15.08v.16l-.12-.11-.14.1.07-.16m-2.68-.41v-.16l-.15-.08h.17v-.17l.07.16h.16l-.13.11.09.15-.15-.09-.12.12m-.74.12v-.17l-.16-.06h.17v-.17l.07.15h.16l-.12.11.08.15-.14-.09-.12.13m1.75-.22l-.14-.1-.13.12.05-.16-.15-.08h.17v-.17l.06.16h.17l-.14.11.08.15m.74 0l-.14-.1-.12.11.05-.16-.14-.09h.16v-.17l.05.16h.17L174 77l.07.15m.74 0l-.13-.11-.13.1.06-.15-.13-.1h.16v-.16.17h.17l-.14.09.05.16m2.11.13l-.15.08.09-.14-.12-.12h.16l.07-.16v.17h.17l-.16.07v.17l-.11-.13m-.81-.18L176 77h.17l.06-.15v.17h.16l-.15.07v.17l-.11-.12-.15.09.08-.16m-.75-.07l-.13-.11h.17v-.16.16h.17l-.15.08.05.16-.12-.11-.14.09.07-.15m-8.61 3.91c.25-.35.72-.43.51-1.38a1 1 0 00-.51 1.38m0-2.38a1.11 1.11 0 00-.52.62 1 1 0 01.25.69 1.22 1.22 0 00.27-1.31m.32 3.3a1 1 0 00-.77-.14 2.77 2.77 0 01.78.15m1.1 1.2c0 .38.23.81-.21 1.42 0 .07-.05.23.18 0 .45-.53.07-1 0-1.41m-.9.61a1.27 1.27 0 01.43-.72c.17-.14.26-.19.12 0a4.38 4.38 0 00-.55.76m.52.65A1.41 1.41 0 01168 83a3.35 3.35 0 00-.37 1.26m-.75-3.15a.16.16 0 00-.31.07c0 .2.35.14.31-.07m1.37.22v-.75a1.17 1.17 0 00-.43 1.36h-.06a.16.16 0 00-.13.19c0 .21.37.15.32-.06a.16.16 0 00-.07-.11 1.28 1.28 0 01.18-1 3.1 3.1 0 00-.1 1.17 1 1 0 00.18-.26 1 1 0 00.05.23 1.11 1.11 0 01.51-1 2.08 2.08 0 00-.46 1 1.49 1.49 0 00.67-1.31 1.25 1.25 0 00-.65.48m.31 1a.17.17 0 00-.34.07.17.17 0 00.34-.07m-.06.52a.17.17 0 00-.34.06c0 .22.39.16.34-.06m-.96-2.45a1.08 1.08 0 00-.41 1c-.17 0-.11.3.05.26a1 1 0 00.12.25 2 2 0 01-.06-.34 1.2 1.2 0 01.18-.76 4.15 4.15 0 00-.05 1.23c.1-.38.65-.55.17-1.54m1.39 2.23c0-.17-.3-.11-.26.05a.13.13 0 00.26-.05m-.74 0a.12.12 0 00-.24 0c0 .15.28.1.24 0m-1.67-1.69a.12.12 0 00-.11-.09 1.16 1.16 0 00-.83-.52 3.73 3.73 0 01.8.52.11.11 0 10.05.22.11.11 0 00.09-.13m0-.78a.13.13 0 00-.17-.11 1.39 1.39 0 00-.6-.93 6.62 6.62 0 01.58.94c-.3.19.2.45.19.1m.42 1.44a.11.11 0 00-.2 0 1.15 1.15 0 00-.81-.34 3.58 3.58 0 01.8.36c-.08.18.24.23.21 0m.31.46a.16.16 0 00-.32.06c0 .21.37.14.32-.06m.24.28a.11.11 0 00-.21 0 1.6 1.6 0 00-1 .16 4.85 4.85 0 01.95-.14.11.11 0 00.22 0m.33.19a.16.16 0 00-.18-.12.16.16 0 00-.11.18 1.16 1.16 0 00-.87.34 2.84 2.84 0 01.88-.32.15.15 0 00.29-.07m2.07.74a3 3 0 011.18 1.64.53.53 0 00-.34-.11 2.23 2.23 0 00-.89-1.47.55.55 0 01.08-.2m-.52.53c.32.17.41-.22.28-.33 0 .09 0 .28-.13.28s-.3-.13-.14-.3c-.1 0-.18.16-.28.07l-.09-.12c0-.09.08-.15.14-.18h-.22c-.09 0-.17-.26 0-.29a.74.74 0 01.15 0 .22.22 0 010-.08c-.09 0-.27 0-.3.06s0 .45.23.36l-.05.06c-.05.06.23.42.34.21a.41.41 0 000 .08c0 .09.05.13.13.16m-.17-.73a.18.18 0 01.22 0 .4.4 0 000 .28c-.15 0-.18-.17-.19-.25m.25 0a.15.15 0 00.14-.1c.08-.14.1.11 0 .11a.17.17 0 01-.17 0m0 .15a.33.33 0 01-.14.22s.2.08.21 0a.77.77 0 00-.07-.24m9.4-.22a.45.45 0 010 .28.27.27 0 00.2-.26.18.18 0 00-.22 0m0 0a.16.16 0 01-.15-.1s-.06-.07-.06 0v.12a.2.2 0 00.18 0m0 .29a.35.35 0 01-.06-.14.82.82 0 00-.06.24c0 .06.16 0 .2 0s-.06 0-.08-.08m2.84-2.59l.16.05-2.42 1.91h-.06a.22.22 0 010 .08c.07 0 .22 0 .22.09 0 .25-.13.22-.34.17.06 0 .17.11.13.19-.12.23-.18.14-.36 0a.28.28 0 010 .09v.14c-.23.14-.35 0-.3-.21-.06 0-.1.18 0 .3s.55 0 .4-.2a.34.34 0 00.06.06c.13.09.4-.25.23-.32h.1c.12 0 .3-.42 0-.43l2.41-1.9V81l.44-.58-.66.29m-1.29.59l1.7-2.16v.16l.29-.66-.58.44h.17l-1.54 2-.37.56a4.12 4.12 0 01.28-.31m-.17.61l.44-.34 1.42-1.32v.17l.38-.61-.63.34h.16l-1.43 1.32c-.12.15-.25.28-.37.41m1.58-.31l-2 1-.08.06v.06l2.08-1v.16l.54-.47-.71.15.15.07m-3 2.12a.12.12 0 01-.08 0l-.36.74h-.13l-.42.81.2-.06.08.2.4-.82-.05-.14.36-.74m1.42-1.4l.46-.23 1.33-.87v.17l.48-.53-.68.23.16.06-1.45.94-.29.23m-1.56 1.22a.53.53 0 010-.13l-.47.52-.14.05-.66.66h.2v.16l.55-.72h.11l.41-.49m.88-1l.24-.19 2.34-2.55v.16l.34-.63-.6.38h.16l-2.44 2.68a.83.83 0 00-.07.13m-2.09 1.75l.87-.61.25-.27-1.09.72h-.14l-.77.48h.19v.15l.56-.48h.1m-.72.08l.35-.22.32-.22h.11l1-.61-1 .52h-.13l-.83.39.18.07v.11m3.92-4.81h.17l-1.5 3h.05l1.5-3 .08.15.14-.7-.47.54m.18.51h.17l-.86 1.33-.31.63 1.32-2v.16l.24-.68-.54.48" />
  </g>
  <path id="ingram"
    d="M45.29 128.05c0-.3.86-.31.82 0s-.86.3-.82 0zm1.06 0c0-.66-1.29-.76-1.3 0s1.31.73 1.3 0zm-1.06 1.5c0-.14 0-.44.16-.42s.17.28.16.42zm.54 0v-.22l.5-.19v-.33l-.55.23a.38.38 0 00-.71.24v.56h1.26v-.29zm-.29.57c-.78.06-.56 1.16.16 1.08.7.08.93-1 .19-1.08v.29c.43.09.22.52-.16.46s-.62-.41-.16-.44v-.31zm.79 1.37h-1.27v.29h1.27zm0 1.27v.2l-1 .31h1v.25h-1.27v-.47l.76-.22-.76-.23v-.47h1.27v.3h-1zm-26.07.77h-4.78c-.38-1.38-1.16-4.29-1.16-4.29v4.29h-2v-5.92h3.4l1.11 4.17v-4.17h2v.9a3.11 3.11 0 001.43 5zm23.28-5.92v5.92h-2v-4.64l-1.18 4.64h-1.97l-1.18-4.64v4.64h-3.62l-.36-1.28H31.3l-.36 1.28h-3.43c-.12-.53 0-2.13-.9-2H26v2h-3.51a8.79 8.79 0 002.45-1l-.73-2.8-2 .52.42 1.58c-1.15.7-2.23-.27-2.19-1.51 0-1.58 2-1.93 3.17-1.78l-.24-.92h4.09c3-.06 2.7 2.94.85 3.12a1.42 1.42 0 011.05.72s1.25-3.55 1.36-3.88h3.18l1.32 3.71v-3.71h3.38s.78 3.24.79 3.24c.26-1.08.77-3.24.77-3.24zm-34.35 0h2.27v5.92H9.18zm23.06 1.27l-.63 2h1.31l-.64-2zM26 130.19h.67c.56 0 .79-.28.79-.63 0-.76-.95-.62-1.46-.63v1.26"
    fill="#6b6b6b" />
  <path id="cisco"
    d="M70.88 137.6h-1.31v-5.18h1.31v5.18zm10.54-3.7c-3.34-1.54-3.37 3.74 0 2.21v1.4c-5.2 1.48-5.28-6.46 0-5zm-13.65 0c-3.34-1.54-3.36 3.74 0 2.21v1.4c-5.2 1.48-5.27-6.46 0-5zm17.76-.26a1.37 1.37 0 000 2.73 1.37 1.37 0 000-2.73m2.74 1.36c0 3.55-5.45 3.54-5.48 0s5.44-3.55 5.48 0m-12.44-1.42a5.13 5.13 0 00-1-.15c-1.08 0-1 .77-.21.91l.36.12A1.56 1.56 0 0176.2 136c0 2-2.55 1.86-3.56 1.6v-1.19a5.57 5.57 0 001.24.19c1.1 0 1.26-.76.36-1-2.22-.37-2.18-3.23.32-3.23a5.4 5.4 0 011.27.17zm-13.39-6.73a.65.65 0 00-1.3 0v1.36a.65.65 0 001.3 0zm3.56-1.78a.65.65 0 00-1.3 0v3.14a.65.65 0 001.3 0v-3.14zm3.57-2.45a.65.65 0 00-1.3 0v6.88a.65.65 0 001.3 0zm3.56 2.45a.65.65 0 00-1.3 0v3.14a.65.65 0 001.3 0v-3.14zm3.56 1.78a.65.65 0 00-1.29 0v1.36a.65.65 0 001.29 0zm3.57-1.78a.65.65 0 00-1.3 0v3.14a.65.65 0 001.3 0v-3.14zm3.56-2.45a.65.65 0 00-1.29 0v6.88a.65.65 0 101.29 0zm3.57 2.45a.65.65 0 00-1.3 0v3.14a.65.65 0 101.3 0v-3.14zm3.61 1.78a.65.65 0 00-1.29 0c.07.7-.31 2 .64 2s.58-1.31.65-2zm-.8 10.07v.08H90v.6h-.09v-.6h-.24v-.08zm0 0h.15l.2.55.19-.55H91v.68h-.1v-.6l-.21.56h-.09l-.2-.56v.56h-.1z"
    fill="#4a4a4a" />
  <path id="godaddy"
    d="M106.7 125.75c-3.3.79-2.66 5.17-.72 7.21a4.41 4.41 0 007.13-.36 6.19 6.19 0 001.34-3.92c-.22-2.85-2.82-3.7-5-2.29a4.2 4.2 0 00-2.71-.64zm1.07.91a3.55 3.55 0 01.7.23l.15.07a7.28 7.28 0 00-1.78 2.78 6 6 0 00-.18 2.61c-1.74-1.59-2.26-6.24 1.11-5.69zm4.36 0c2.24.61 1.44 4.4 0 5.67a5.46 5.46 0 00-.24-2.78c-.07-.12-.21-.51-.3-.66s-.17-.27-.27-.23-1.92 1.18-2 1.2-.2.25-.06.46.24.43.38.42.63-.38 1.1-.69a2.64 2.64 0 01.26-.16c.53 1.08.4 3.16-.84 3.67a1.84 1.84 0 01-2.4-.8c-1.22-2.54 1.44-6.65 4.33-6.1zm6.81.88a2.24 2.24 0 00-.91.23 2.71 2.71 0 00-1.27 3.89 2.57 2.57 0 004 .41c0 .23 0 .56.11.69s.7 0 .75 0 .09-.14.09-1.19v-1.09c0-.03-.17 0-1.07 0h-1l-.06.06c-.07 0-.08.75 0 .74s.09.06.41.06a.89.89 0 01.34 0 1.27 1.27 0 01-.44.33 1.61 1.61 0 11.62-2.35c.12.21.15.22.35.15a3.18 3.18 0 00.74-.32 2.45 2.45 0 00-2.62-1.58zm7.3.12h-.06v5.07c1.85 0 3.72.23 4.49-1.43a2.55 2.55 0 00-1.77-3.63 6.61 6.61 0 00-1.62-.09h-1.12zm2.51 1a1.53 1.53 0 011 1 1.88 1.88 0 01-.1 1.29 1.56 1.56 0 01-.95.73 8.66 8.66 0 01-1.44.06v-3.09a4.73 4.73 0 01.65 0 3.32 3.32 0 01.84.06zm9.55-1.08c-.1 0-.1.08-.11 1v.9c-1.44-1.38-3.51.6-2.61 2.32a1.61 1.61 0 002.61.53.68.68 0 00.05.32c0 .06 0 .06.47.06h.47a14.79 14.79 0 000-2.52c0-2.46 0-2.48-.06-2.53s-.07-.06-.44-.06zm-.61 2.5c.81.37.64 1.77-.33 1.75-1.35 0-1-2.23.33-1.75zm4.74-2.45l-.06.06v1.8l-.13-.12a1.64 1.64 0 00-2.28.34 1.1 1.1 0 01-.14.17 2.17 2.17 0 00-.27 1.27c.11 1.35 1.85 2.26 2.81 1.2 0 .07 0 .32.11.35a4.31 4.31 0 00.88 0c.08-.05.09-.18.09-2.56 0-2.54 0-2.51-.12-2.56h-.42c-.37 0-.39 0-.45.06zm-.59 2.45a1.26 1.26 0 01.51.57.86.86 0 01-1.57.71c-.37-.68.31-1.61 1.06-1.28zm6-1.73v.15c.12.2.12.23.23 0v.11c0 .1 0 .11.06.11s0 0 0-.19-.08-.23-.17-.09l-.06.1v-.09a.26.26 0 00-.07-.11h-.07zm-24.23.73a1.94 1.94 0 00-1.52 1.42 1.91 1.91 0 000 .89 2.18 2.18 0 001.11 1.26 2 2 0 002.09-.32 1.9 1.9 0 00-1.68-3.25zm.66 1l.17.09a.89.89 0 01-.31 1.63.9.9 0 01-.5-1.7.83.83 0 01.64 0zm8.56-1a1.92 1.92 0 00-.49 3.62c0 .07.55.17.8.15a1.33 1.33 0 00.92-.48.83.83 0 000 .32c0 .06.05.06.49.06s.45 0 .48-.05a7.13 7.13 0 00.05-1.74c0-1.61 0-1.7-.05-1.74s-.12-.05-.47-.05c-.51 0-.54 0-.54.22v.14a1.4 1.4 0 00-1.23-.45zm.69 1c1.06.49.48 2.14-.65 1.67a.94.94 0 01.11-1.68.9.9 0 01.5.05zm10.23-.9c-.09.05-.08.14 0 .57.72 2.31.89 2.85.93 2.91s.06.07.33.07h.27a1.71 1.71 0 000 .18.56.56 0 01-.89.33c-.22-.11-.32-.12-.39 0-.26.37-.56.62 0 .85a1.61 1.61 0 002.38-1.33c.17-.64 1-3.59 1-3.48a.15.15 0 000-.08h-.49c-.37 0-.45 0-.49.05s-.09.14-.33 1.07-.41 1.54-.42 1.54-.21-.7-.57-2a1.51 1.51 0 00-.12-.35l-.05-.14c0-.18-.08-.19-.61-.19a3.11 3.11 0 00-.5 0z" />
  <path id="spectrum" transform="matrix(.035 0 0 .035 158 128.5)"
    d="M166.3 193.4c0 8.2-6.3 15.6-15.6 15.6h-15.6V94.3c1.8-30.5 12.9-54.8 59.3-56.5 20 .2 34.6 8.2 43.2 18.2 9.2 11.9 13.1 26.8 13.1 45.6 0 19.3-4.6 35-13.8 47-9.2 11.6-21 17.5-35.4 17.5-21.6 0-32.1-9-35-10.7-.2 1.1-.2 38-.2 38m52.5-90.4c0-11.9-2.1-37.3-26.7-37.3-23.3 0-25.8 24.7-25.8 37.3 0 31.9 18.1 35.9 26.7 35.9 22.3.1 25.8-23.6 25.8-35.9M18.3 152.7c10.3 8.8 25.9 13.2 46.7 13.2 20.1 0 35.7-4.2 46.7-12.8 11-9.1 16.5-22 16.5-38.5 0-7.6-1.4-14.6-5-21.1-3.2-5.8-8.7-11.4-15.4-14.7-4.2-2.1-6.8-3-12-4.6-5.6-1.7-33.6-9.3-36.4-10.1-15.5-3.8-25.4-8.9-25.5-18.2.8-17.8 17.4-19.2 26.6-19.2 9.4 0 16.9 1.9 22.4 5.9 9.8 7.6 8.7 17.4 8.7 17.4h31.1c-.6-15.2-6.1-27.6-16.5-37.1C96.3 4.2 81.9 0 63.2 0c-19.8 0-35 4.1-45.4 12.3C7.4 20.9 2.2 32.7 2.2 47.7c0 19.2 9.1 30.5 17.4 35.7 5 3 16.4 7.6 31.1 10.5l12.4 2.7c21.5 5.2 33.8 11.8 33.4 22.5-.2 6.4-2.4 11.3-7.3 14.6-4.4 3-12 5-21.5 5-10.7 0-19.1-2.1-25.2-6.4-5.8-3.6-9.3-10-10.5-19.2H0c.9 17.6 7 30.7 18.3 39.6m295.6-87.9c19.7-.2 22.7 16.5 23.3 24.7h-46.7s-.4-24.3 23.4-24.7m1.4 73.8c-7.9-.4-23-1.9-24.4-28.4h79.4v-9.5c-.5-19.9-5.3-34.8-14.6-45.9-10-11-24.3-16.5-42.6-16.5-17.4 0-31 5.6-40.8 16.9-9.4 11-14.2 26.3-14.2 45.8 0 20.4 4.8 36.2 14.6 47.2 9.7 11.3 23.3 16.9 40.8 16.9 14.3 0 26.3-3.5 35.7-10.5 9.4-6.7 15.9-16.5 19.3-29.3h-27.6c-4.1 11.5-14.4 13.9-25.6 13.3m532.3 24.5h-31.8V84.7c0-9-3.7-21.2-21.6-21.2-17.6 0-21.2 13.8-21.2 21.2V163h-32.2V91.1c0-20.8 6.1-33.6 16.3-41.9 10-8.2 22.9-10.9 36.1-11.5 7 0 13.9.7 20.7 2.3 6.7 1.5 12.9 4.6 18.4 9.2 4.6-3.9 10-6.8 16.3-8.5 6.2-1.6 12.8-2.9 19.5-2.9 39.3-.2 55.1 17.8 56.4 23.5V163h-18.2c-4.6 0-15.6-3.1-15.6-15.6V84.7c0-8.8-3-21.2-21.6-21.2-18.4 0-21.6 13.8-21.6 21.2v78.4zm-389.7-37.8H488s-8.1 39.8-53.7 39.8c-45.5 0-56.7-36.5-56.7-60.5s4.2-65 54.9-66.4C479.3 37.5 487 78 487 78h-32.1s-3.1-13.7-22.2-13.2c-19.1.4-24.1 18.3-24.1 35.4 0 17 4.2 38.3 25.4 38.3 20.4.7 22.2-10.2 23.9-13.2m167.3-84.4h32.1v77.9s-1.1 21 21.1 21c20.9 0 21.5-18.8 21.5-20.2V56s1-15.1 15-15.1h16.8v72.4c-.2 3.9 4.1 51.9-53.2 51.7-56.8 0-52.8-48.5-53.2-51.3V40.9zM527 73.5h18.8V41.4h-18.7V20.7c0-5.6-3.1-15.5-15.1-15.5h-16.5V140c0 14 5.4 22.4 17.2 22.4H527V73.5zm52.5 89.2V99.9c0-9.1 2.1-15.8 6.4-20.1 4.2-4.2 10.8-6.4 19.7-6.4h10.5V40.7s-16.6-.4-28.6 3.2c-7.7 2.3-14.5 5.5-20.4 10-6.1 4.8-10.9 11.3-14.4 19.4-3.5 8.1-5.2 18.1-5.2 30v59.1h32zM933.7 61.3V163l67-50.9"
    fill="#838383" />
</svg>