<svg xmlns="http://www.w3.org/2000/svg" viewBox="0 0 161.04 69.65"><style>.c1,.c16,.c2,.c21{fill:none}.c2{stroke:#a7a7a7}.c2,.c21{stroke-miterlimit:10}.c16,.c2,.c21{stroke-width:.25px}.c17,.c3{fill:#fff}.c3,.c4{fill-rule:evenodd}.c5{fill:#5d5d5d}.c16{stroke-miterlimit:3.86;stroke:#fff}.c21{stroke:#000}text{font-family:Arial,Helvetica,sans-serif;font-size:2.2px;text-anchor:middle}</style><rect class="c2" x="2" y="2.78" width="155.11" height="59.22" rx="12"/><path class="c2" d="M31.41 2.78v58.88M62.8 2.78v58.88M94.2 2.78v58.88m31.39-58.88v58.88M3.91 33.35H155.2"/><g id="IAPP"><path d="M6.97 8.03h19.7v8.83H6.97z"/><path class="c17" d="M11.06 8a2.24 2.24 0 01-.06 3.27c-.78.78-1.6 1.52-2.41 2.28a1.22 1.22 0 01-.19.12l.05.08h2.75c0-.42 0-.83.11-1.24a3.1 3.1 0 01.74-1.73 2.26 2.26 0 013.88 1.64v2.4a2.31 2.31 0 01-.93 1.85l-.22.19h-2.21a2.63 2.63 0 01-1.14-1.69c-.06-.27-.2-.29-.41-.29H7.1V13.3c.61-.57 1.22-1.13 1.82-1.71.43-.42.86-.84 1.25-1.29a.93.93 0 00.14-1.11 1 1 0 00-1.07-.5 1 1 0 00-.9.65l-.13.33-1.11-.12v-.73L7.7 8zm1.23 5.58c.14.58.23 1.16.42 1.71a1 1 0 001 .68 1.05 1.05 0 001-.72 3.87 3.87 0 00.28-2 5.3 5.3 0 00-.31-1.42 1.27 1.27 0 00-.59-.62 1 1 0 00-1.38.63 16.29 16.29 0 00-.42 1.77zm8.41-2.04c.28.05.6-.19.76.22.67-.34 1.17-.34 1.48 0a1.19 1.19 0 010 1.35c-.28.39-.75.43-1.57.12v.62c0 .2-.11.28-.3.25s-.43.11-.43-.23c.06-.76.06-1.51.06-2.33zm.72 1a.5.5 0 00.5.56.51.51 0 00.51-.55.53.53 0 00-.49-.59.51.51 0 00-.52.55zm2.73.69v.85h-.69v-2.54c.26 0 .57-.19.74.22.64-.36 1.14-.35 1.47 0a1.18 1.18 0 01.06 1.32c-.3.42-.73.47-1.58.15zm1-.71c0-.37-.19-.6-.51-.59s-.49.23-.49.58.18.54.49.55a.47.47 0 00.51-.54zm-6.93-.43a.49.49 0 01.45-.5 5.35 5.35 0 011.2 0 .56.56 0 01.49.64v1.23l-.84-.12a5.14 5.14 0 01-.79.12c-.42 0-.63-.19-.64-.54a.62.62 0 01.6-.65h.94A.36.36 0 0019 12c-.22.18-.48.09-.78.09zm1.43.47a6 6 0 00-.67.1c-.06 0-.12.11-.13.17A.25.25 0 0019 13c.25.15.58 0 .65-.44zm-1.85-1.01v1.7c0 .07-.27.13-.42.16s-.29 0-.29-.2v-1.48c0-.06.11-.17.17-.18a5.22 5.22 0 01.54 0zm-.35-.22a.51.51 0 01-.55-.52.54.54 0 01.51-.54.57.57 0 01.56.53.55.55 0 01-.52.53z"/><text><tspan x="16.5" y="24.6">The International</tspan> <tspan x="16.5" y="27.3">Association of Privacy</tspan> <tspan x="16.5" y="30">Professionals</tspan></text></g><g id="APWG"><path fill="#999" d="M37.11 10.11h18.58v6.3H37.11z"/><path d="M55.8 10.03v6.27m-18.42-6.27v6.27m-1.22.3h20.78M36 10.1h20.94" stroke="#585858" stroke-miterlimit="3.86" fill="none"/><path class="c16 c3" d="M40.81 14.05h-1.48l.74-1.68zm.22.48l.47 1h.55l-2-4.33-2 4.33h.55l.48-1zM42.92 11.88h.14c.51 0 1.13.07 1.13.72s-.57.77-1.11.77h-.16zm0 1.95h.3c.78 0 1.45-.34 1.45-1.21s-.39-1.21-1.67-1.21h-.6v4.16h.52z"/><path class="c17" d="M45.29 11.41h-.56l1.72 4.33 1.18-3.05 1.17 3.05 1.73-4.33h-.56l-1.17 2.98-1.17-3.07-1.18 3.07-1.16-2.98z"/><path class="c16 c3" d="M52.93 13.48V14H54a1.4 1.4 0 01-1.36 1.23A1.69 1.69 0 0151 13.49a1.64 1.64 0 013-1l.36-.35a2.19 2.19 0 00-1.69-.8 2.17 2.17 0 00-.06 4.33 1.93 1.93 0 002-2v-.16z"/><path d="M55.45 18.16a.58.58 0 01.19.19.6.6 0 01.07.27.48.48 0 01-.15.37.52.52 0 01-.38.14.54.54 0 01-.38-.13.47.47 0 01-.14-.36.6.6 0 01.06-.27.52.52 0 01.2-.19.5.5 0 01.27-.08.59.59 0 01.26.07m.24 0a.75.75 0 00-.24-.21.67.67 0 00-.28-.06.69.69 0 00-.34.09.72.72 0 00-.26.26.69.69 0 000 .68.64.64 0 00.25.24.6.6 0 00.34.09.73.73 0 00.3-.06.6.6 0 00.23-.19v.07a.67.67 0 010 .32.38.38 0 01-.17.16.54.54 0 01-.29.07.56.56 0 01-.3-.07.52.52 0 01-.2-.19h-.23a.72.72 0 00.16.24.75.75 0 00.22.13.94.94 0 00.3.05.82.82 0 00.4-.1.57.57 0 00.24-.29 1.28 1.28 0 000-.41V18h-.18zm-2 1.09h.18v-.44a2.3 2.3 0 010-.47.47.47 0 01.12-.21.23.23 0 01.16-.07h.09l.16-.07a.3.3 0 00-.15-.05.32.32 0 00-.18.06.44.44 0 00-.16.17V18h-.18zm-.58-1a.56.56 0 01.15.39.54.54 0 01-.25.46.6.6 0 01-.27.07.52.52 0 01-.25-.07.61.61 0 01-.2-.19.68.68 0 01-.07-.27.57.57 0 01.16-.39.49.49 0 01.36-.15.5.5 0 01.37.15m-.88-.1a.72.72 0 00-.18.48.73.73 0 00.19.49.66.66 0 00.51.21.64.64 0 00.49-.21.7.7 0 00.2-.49.68.68 0 00-.19-.48.63.63 0 00-.5-.22.67.67 0 00-.52.22m-.73.92a.14.14 0 000 .11.13.13 0 000 .1.16.16 0 00.11 0 .12.12 0 00.1 0 .11.11 0 000-.1.12.12 0 000-.11.12.12 0 00-.1 0 .15.15 0 00-.11 0m-.86-.91a.58.58 0 01.19.19.6.6 0 01.06.27.48.48 0 01-.14.37.56.56 0 01-.38.14A.54.54 0 0150 19a.48.48 0 01-.15-.36.5.5 0 01.07-.27.46.46 0 01.2-.19.5.5 0 01.27-.08.59.59 0 01.26.07m.24 0a.68.68 0 00-.25-.21.61.61 0 00-.28-.06.72.72 0 00-.34.09.69.69 0 00-.25.26.69.69 0 000 .68.7.7 0 00.59.33.77.77 0 00.3-.06.6.6 0 00.23-.19v.07a.82.82 0 01-.05.32.38.38 0 01-.17.16.56.56 0 01-.3.07.52.52 0 01-.29-.07.46.46 0 01-.2-.19h-.18a.9.9 0 00.15.24 1 1 0 00.23.13.9.9 0 00.3.05.82.82 0 00.4-.1.51.51 0 00.23-.29 1 1 0 00.05-.41V18h-.17zm-2.84 1.09l.42-.95.42.95.69-1.26h-.18l-.42 1-.43-1-.42 1-.41-1h-.17zm-1.14-1.12a.5.5 0 01.19.19.54.54 0 01.07.27.5.5 0 01-.07.27.48.48 0 01-.2.2.43.43 0 01-.25.07.5.5 0 01-.27-.07.61.61 0 01-.2-.19.6.6 0 01-.06-.27.53.53 0 01.52-.55.5.5 0 01.27.08M46 19.78h.17v-.71a.72.72 0 00.24.19.59.59 0 00.29.07.63.63 0 00.48-.21.64.64 0 00.2-.49.66.66 0 00-.2-.5.66.66 0 00-.48-.2.54.54 0 00-.29.07.79.79 0 00-.24.21V18H46zm-.7-1.53a.53.53 0 01.15.39.6.6 0 01-.06.27.52.52 0 01-.2.19.5.5 0 01-.27.07.51.51 0 01-.26-.07.52.52 0 01-.19-.2.5.5 0 01-.07-.27.54.54 0 01.07-.27.5.5 0 01.19-.19.5.5 0 01.64.08m.14-.29v.25a.66.66 0 00-.24-.21.6.6 0 00-.3-.07.66.66 0 00-.48.2.66.66 0 00-.2.5.68.68 0 00.68.7.59.59 0 00.29-.07.72.72 0 00.24-.19v.22h.17V18zm-1.77 1.11a.14.14 0 000 .11.13.13 0 000 .1.16.16 0 00.11 0 .18.18 0 00.11 0 .13.13 0 000-.1.14.14 0 000-.11.17.17 0 00-.11 0 .15.15 0 00-.11 0m-1.77.22l.43-.95.42.95.63-1.29h-.18l-.41 1-.43-1-.43 1-.4-1h-.18zm-2.08 0l.43-.95.42.95.63-1.29h-.18l-.41 1-.43-1-.43 1-.4-1h-.18zm-2.08 0l.43-.95.42.95.63-1.29H39l-.41 1-.43-1-.43 1-.4-1h-.18z" fill="#1d1d1d"/><text><tspan x="47.8" y="26.2">Anti-Phishing Working</tspan> <tspan x="47.4" y="28.9">Group</tspan></text></g><g id="IACR"><path d="M78.2 7.22a6 6 0 11-6 6 6 6 0 016-6z" fill="#343434" fill-rule="evenodd"/><path class="c3" d="M74.05 11.3h-.18V11h.18v.3zm-.18 1.62v-1.45h.18v1.45zm3.52 1.47a.57.57 0 00-.16-.4.53.53 0 00-.38-.17.54.54 0 00-.4.17.6.6 0 00-.16.43.57.57 0 00.16.41.53.53 0 00.39.16.54.54 0 00.39-.17.6.6 0 00.16-.43zm0 .51a.54.54 0 01-.23.19.71.71 0 01-.32.07.72.72 0 01-.53-.21.76.76 0 01-.21-.54.73.73 0 01.75-.76.62.62 0 01.31.07.6.6 0 01.23.19v-.23h.18v1.45h-.18v-.23zm4.38 2.62h-.19v-1.44h.18v.16a.4.4 0 01.15-.14.36.36 0 01.19 0v.2a.34.34 0 00-.25.1.46.46 0 00-.08.29v.87zm-1.86-8.79a.63.63 0 00-.21-.24.56.56 0 00-.3-.07.46.46 0 00-.37.17.57.57 0 00-.16.42.56.56 0 00.16.41.47.47 0 00.38.17.58.58 0 00.3-.08.56.56 0 00.2-.23h.2a.8.8 0 01-.26.36.71.71 0 01-.43.13.75.75 0 01-.53-.22.76.76 0 01-.21-.55.75.75 0 01.75-.77.67.67 0 01.41.13.72.72 0 01.27.36zm-7.89 6.83h11.96v.19H72.02v-.19z"/><path class="c3" d="M75.44 18.97V7.01h.19v11.96h-.19zm2.62.31V7.17h.19v12.11h-.19zm2.52.12V7.29h.19V19.4h-.19z"/><path class="c3" d="M72.52 10.63h11.96v.19H72.52v-.19zm-.41 2.41h12.13v.19H72.11v-.19z"/><circle cx="78.15" cy="19.93" r=".55"/><path d="M76.65 19.32l-.24.82-.11-.03.24-.82.11.03zm-.32-.08l-.32.8-.11-.04-.16-.8-.26.63-.1-.04.32-.8.11.04.17.8.25-.63.1.04zm-.99-.42l-.35.67.24.13-.04.09-.6-.32.05-.09.25.13.35-.66.1.05zm-.46-.25l-.5.7-.51-.36.06-.09.41.3.16-.21-.39-.28.06-.08.39.28.17-.24-.43-.31.06-.08.52.37zm-.65-.47l-.56.65-.28-.25a.46.46 0 01-.12-.13.19.19 0 010-.13.34.34 0 01.06-.12.21.21 0 01.14-.07.29.29 0 01.19.05.25.25 0 010-.07v-.42l.11.09v.21a.82.82 0 000 .14.21.21 0 000 .08v.1l.1.08.25-.28.08.07zm-.39.29l-.19-.16a.26.26 0 00-.1-.07.14.14 0 00-.09 0 .08.08 0 00-.06 0 .13.13 0 000 .1.28.28 0 00.08.12l.21.18.19-.21zm-.24-.87l-.65.55-.08-.09.23-.78-.52.44-.07-.09.66-.55.07.09-.22.78.51-.44.07.09zm-.5-.59l-.9.18-.07-.11.55-.75.06.11-.16.22.19.31.27-.06.06.1zm-.43 0l-.15-.25-.16.2a1 1 0 01-.12.15l.17-.05.26-.05zm-.09-.88l-.67.35.12.25-.09.04-.3-.6.08-.05.13.26.68-.35.05.1zm-.22-.48l-.8.3-.04-.1.8-.31.04.11zm-.53-.15a.46.46 0 01-.35 0 .37.37 0 01-.19-.26.41.41 0 010-.22.34.34 0 01.11-.18.53.53 0 01.21-.11.65.65 0 01.24 0 .33.33 0 01.19.11.32.32 0 01.1.18.36.36 0 010 .23.42.42 0 01-.11.18.47.47 0 01-.2.1zm0-.11a.4.4 0 00.22-.14.31.31 0 000-.23.28.28 0 00-.14-.18.35.35 0 00-.27 0 .34.34 0 00-.17.08.3.3 0 00-.09.13.43.43 0 000 .16.3.3 0 00.13.18.4.4 0 00.29 0zm.16-.93l-.86.1-.01-.11.61-.53-.67.08-.01-.11.85-.1.02.12-.62.53.67-.09.02.11zm-.09-.77l-.9-.31v-.13l.85-.36v.13l-.26.1v.36l.26.09v.12zm-.35-.24v-.29l-.23.09-.18.07h.16l.26.09zm.35-.65l-.85-.12.02-.11.75.1.06-.42.09.02-.07.53zm.1-.79l-.73-.55v-.12l.92-.1v.12h-.28l-.1.34.22.17v.11zm-.27-.33l.08-.28h-.44a.42.42 0 01.14.09l.22.16zM72 11v-.11a.14.14 0 00.11 0 .2.2 0 00.09-.05.36.36 0 00.08-.12.43.43 0 000-.11.24.24 0 000-.09.1.1 0 00-.06 0H72.07a.65.65 0 00-.09.13.81.81 0 01-.12.13.16.16 0 01-.1.05.17.17 0 01-.12 0 .14.14 0 01-.09-.08.18.18 0 010-.13.5.5 0 010-.16.34.34 0 01.09-.14.24.24 0 01.13-.07.23.23 0 01.14 0v.1a.19.19 0 00-.13 0 .28.28 0 00-.1.13.28.28 0 000 .15.14.14 0 00.07.08h.08a.45.45 0 00.12-.14l.12-.16a.42.42 0 01.13-.07.25.25 0 01.12 0 .18.18 0 01.11.08.23.23 0 010 .14.26.26 0 010 .17.55.55 0 01-.1.17.27.27 0 01-.14.07.29.29 0 01-.19.03zm.31-.78v-.1a.23.23 0 00.11 0 .26.26 0 00.1 0l.09-.1a.76.76 0 000-.11.13.13 0 000-.09.1.1 0 000-.06h-.15l-.12.11-.13.12a.27.27 0 01-.12 0 .12.12 0 01-.1 0 .28.28 0 01-.09-.1.27.27 0 010-.13.34.34 0 01.1-.13.36.36 0 01.11-.13.27.27 0 01.14-.05.35.35 0 01.14 0v.1a.17.17 0 00-.14 0 .21.21 0 00-.11.1.26.26 0 000 .15.15.15 0 00.06.09.11.11 0 00.08 0 .54.54 0 00.14-.12.7.7 0 01.15-.13.21.21 0 01.13-.05.27.27 0 01.12 0 .22.22 0 01.09.1.24.24 0 010 .15.37.37 0 010 .16 1 1 0 01-.13.15.3.3 0 01-.15 0 .29.29 0 01-.16 0zm.32-.82a.44.44 0 01-.18-.3.34.34 0 01.09-.3.41.41 0 01.39-.15.57.57 0 01.36.3.39.39 0 010 .21.4.4 0 01-.09.2.46.46 0 01-.18.13.41.41 0 01-.22 0 .54.54 0 01-.2-.1zm.08-.09a.3.3 0 00.29.09.26.26 0 00.2-.1.27.27 0 00.07-.22.46.46 0 00-.15-.23.7.7 0 00-.17-.09.3.3 0 00-.16 0 .28.28 0 00-.13.09.26.26 0 00-.06.21.38.38 0 00.16.24zm1.1-1.04l.1-.06a.47.47 0 010 .25.33.33 0 01-.12.2.33.33 0 01-.41.09.62.62 0 01-.19-.14.5.5 0 01-.12-.21.37.37 0 010-.21.63.63 0 01.17-.19.42.42 0 01.2-.1.35.35 0 01.22.06l-.07.09a.22.22 0 00-.29 0 .29.29 0 00-.08.14.22.22 0 000 .16.71.71 0 00.1.14.79.79 0 00.15.12.3.3 0 00.16 0 .24.24 0 00.13-.07.22.22 0 00.08-.15.3.3 0 000-.18zm.4.04l-.53-.67.09-.07.53.67-.09.07zm.17-.13l-.22-.89.1-.07.78.5-.11.07-.23-.15-.29.2.07.27-.1.07zm0-.43l.24-.17-.21-.14-.15-.11a.75.75 0 010 .16l.07.26zm.87-.12l-.34-.67-.26.12-.04-.09.6-.31.05.1-.25.12.34.68-.1.05zm.47-.24l-.3-.8.1-.04.31.8-.11.04zm.15-.53a.46.46 0 010-.35.42.42 0 01.25-.2.45.45 0 01.23 0 .36.36 0 01.18.12.7.7 0 01.11.21.65.65 0 010 .24.45.45 0 01-.11.19.39.39 0 01-.19.1.41.41 0 01-.22 0 .36.36 0 01-.12-.12.44.44 0 01-.1-.19zm.11 0a.38.38 0 00.14.22.31.31 0 00.23 0 .28.28 0 00.18-.14.36.36 0 000-.27.38.38 0 00-.08-.17.38.38 0 00-.13-.09.22.22 0 00-.16 0 .27.27 0 00-.18.13.4.4 0 000 .29zm.93.14l-.11-.85.12-.01.53.61-.09-.67.11-.01.11.85-.12.02-.53-.62.08.67-.1.01zm1.2-.12l.02-.85.57.01v.1l-.46-.01-.01.27h.41l-.01.1h-.4l-.01.39-.11-.01zm.77-.39a.45.45 0 01.17-.31.41.41 0 01.31-.06.37.37 0 01.2.09.44.44 0 01.12.18.49.49 0 010 .24.43.43 0 01-.09.22.37.37 0 01-.17.13.54.54 0 01-.22 0 .37.37 0 01-.2-.08.4.4 0 01-.11-.19.41.41 0 010-.22zm.11 0a.34.34 0 000 .25.27.27 0 00.41.07.35.35 0 00.13-.23.6.6 0 000-.19.32.32 0 00-.08-.14.35.35 0 00-.15-.07.29.29 0 00-.22 0 .38.38 0 00-.13.26zm.77.58l.24-.82.36.12a.4.4 0 01.16.08.18.18 0 01.07.1.23.23 0 010 .14.26.26 0 01-.1.13.33.33 0 01-.2 0v.07a.5.5 0 01.11.11l.07.27h-.13v-.21a.59.59 0 00-.05-.13.34.34 0 000-.08h-.19l-.12.36h-.1zm.24-.42l.23.07h.2a.12.12 0 000-.07.14.14 0 000-.11.23.23 0 00-.12-.08l-.26-.08-.05.27zm1.56.85l.09.08a.46.46 0 01-.22.13.39.39 0 01-.23 0 .45.45 0 01-.2-.19.36.36 0 010-.21.79.79 0 010-.22.43.43 0 01.16-.19.34.34 0 01.19-.07.46.46 0 01.21 0 .38.38 0 01.17.16.32.32 0 010 .22h-.11a.21.21 0 000-.16.19.19 0 00-.1-.1.28.28 0 00-.17 0 .23.23 0 00-.14.07.45.45 0 00-.1.14.76.76 0 00-.06.18.29.29 0 000 .16.35.35 0 00.11.1.21.21 0 00.17 0 .26.26 0 00.16-.1zm.08.41l.49-.7.31.21a.52.52 0 01.13.12.14.14 0 010 .12.2.2 0 010 .13.22.22 0 01-.14.09.29.29 0 01-.19 0v.08a.66.66 0 010 .15v.27l-.12-.08V7.83L82 7.66l-.27.34-.09-.06zm.36-.33l.2.14.11.06a.11.11 0 00.08 0h.06a.1.1 0 000-.1s0-.08-.09-.12l-.22-.15-.14.17zm.48 1.01l.25-.27.1-.59.1.1-.06.3v.17l.13-.05.29-.07.1.09-.59.13-.24.26-.09-.07zm.4.41l.67-.54.2.25.08.11a.19.19 0 010 .1.15.15 0 010 .11.22.22 0 01-.07.09.28.28 0 01-.19.07.39.39 0 01-.21-.19l-.14-.17-.22.23-.12-.06zm.42-.2l.14.18c0 .05.09.09.13.09a.14.14 0 00.12 0 .21.21 0 00.06-.08.28.28 0 000-.09l-.06-.09-.14-.17-.24.19zm.19.98l.64-.41-.16-.24.09-.05.37.57-.09.05-.15-.24-.64.42-.06-.1zm.63.22a.47.47 0 01.36 0 .38.38 0 01.23.22.39.39 0 010 .21.36.36 0 01-.08.2.58.58 0 01-.19.15.68.68 0 01-.23 0 .48.48 0 01-.21-.07.43.43 0 01-.13-.17.35.35 0 010-.22.39.39 0 01.08-.2.52.52 0 01.17-.13zm0 .1a.39.39 0 00-.18.18.31.31 0 000 .23.28.28 0 00.17.15.33.33 0 00.27 0 .45.45 0 00.15-.11.26.26 0 00.07-.15.21.21 0 000-.15.28.28 0 00-.16-.16.46.46 0 00-.29 0zm0 .95l.81-.29.04.11-.72.26.15.39-.1.04-.18-.51zm.61.53a.53.53 0 01.36.05.39.39 0 01.17.27.41.41 0 010 .22.37.37 0 01-.13.17.5.5 0 01-.22.1.65.65 0 01-.24 0 .36.36 0 01-.18-.12.34.34 0 01-.09-.19.4.4 0 010-.22.46.46 0 01.13-.18.72.72 0 01.2-.09zm0 .12a.33.33 0 00-.23.13.28.28 0 000 .22.29.29 0 00.13.19.39.39 0 00.27 0 .29.29 0 00.17-.07.23.23 0 00.1-.12.22.22 0 000-.16.26.26 0 00-.12-.19.32.32 0 00-.28 0zm.11 1.3h.1v.36h-.32a.62.62 0 01-.11-.17 1.16 1.16 0 010-.18.59.59 0 01.05-.23.29.29 0 01.15-.16.44.44 0 01.23-.06.45.45 0 01.23 0 .31.31 0 01.17.15.38.38 0 01.06.22.88.88 0 010 .17.36.36 0 01-.08.12.46.46 0 01-.14.07v-.1l.1-.05a.19.19 0 00.05-.09.22.22 0 000-.12.28.28 0 000-.13.15.15 0 00-.06-.09h-.09a.47.47 0 00-.17 0 .48.48 0 00-.19.05.25.25 0 00-.11.12.22.22 0 000 .16.32.32 0 000 .14.54.54 0 00.06.11h.16V13zm-.35.56l.86.06-.01.12-.86-.06.01-.12zm.18.97v.11a.36.36 0 01-.18-.16.38.38 0 010-.24.41.41 0 01.1-.21.29.29 0 01.18-.1.65.65 0 01.24 0 .73.73 0 01.22.09.38.38 0 01.12.17.53.53 0 010 .22.36.36 0 01-.11.2.34.34 0 01-.2.09v-.12a.26.26 0 00.15-.06.21.21 0 00.07-.13.24.24 0 000-.17.25.25 0 00-.11-.12l-.25-.1a.45.45 0 00-.2 0 .21.21 0 00-.13.07.27.27 0 00-.07.14.25.25 0 000 .17.2.2 0 00.14.11zm-.42.52l.8.31-.14.35a.4.4 0 01-.08.16.24.24 0 01-.11.06.23.23 0 01-.14 0 .21.21 0 01-.12-.11.3.3 0 010-.19h-.2l-.27.06v-.14h.42v-.18l-.35-.13v-.11zm.4.28l-.08.23a.27.27 0 000 .12.24.24 0 000 .08.18.18 0 00.07.05.14.14 0 00.11 0 .23.23 0 00.08-.12l.1-.25-.27-.1zm-.73.53l.76.39-.28.55-.09-.04.23-.45-.23-.12-.22.42-.09-.04.22-.43-.26-.13-.24.47-.09-.05.29-.57zm-.13.83l-.05.09a.23.23 0 00-.11 0 .19.19 0 00-.1 0 .28.28 0 00-.1.09.54.54 0 00-.05.11.14.14 0 000 .09.1.1 0 00.05.06.06.06 0 00.07 0h.09l.12-.1a.54.54 0 01.14-.11h.22a.39.39 0 01.08.1.32.32 0 010 .14.61.61 0 01-.07.14.34.34 0 01-.12.12.19.19 0 01-.14 0 .25.25 0 01-.14 0l.06-.09a.21.21 0 00.13 0 .19.19 0 00.12-.1.27.27 0 00.06-.14.14.14 0 000-.1.11.11 0 00-.08 0 .53.53 0 00-.15.1l-.15.13a.25.25 0 01-.14 0 .28.28 0 01-.12 0 .31.31 0 01-.08-.11.22.22 0 010-.14.33.33 0 01.07-.16.6.6 0 01.13-.14.29.29 0 01.16 0 .3.3 0 01.15.05zm-.72.51l.65.56-.4.47-.07-.06.32-.39-.2-.17-.3.36-.08-.06.3-.36-.22-.19-.34.4-.08-.06.42-.5zm-.47.53l.31.86-.09.08-.82-.41.1-.09.24.13.28-.23-.1-.26.09-.08zm0 .43l-.22.19.23.12.16.09a.69.69 0 01-.07-.15l-.1-.25zm-.69.15l.47.72-.32.21a.52.52 0 01-.16.07.17.17 0 01-.12 0 .22.22 0 01-.1-.09.2.2 0 010-.16.3.3 0 01.11-.17h-.22l-.25-.12.12-.08.19.09.13.06h.2l.11-.07-.21-.32.09-.06zm.17.46l-.21.14a.36.36 0 00-.09.08.11.11 0 000 .08.11.11 0 000 .07.1.1 0 00.09.06h.14l.22-.15-.15-.24zm-1.33.53h-.11a.41.41 0 010-.25.4.4 0 01.18-.16.39.39 0 01.23 0 .33.33 0 01.19.09.53.53 0 01.13.19.53.53 0 01.06.23.48.48 0 01-.07.2.37.37 0 01-.17.13.36.36 0 01-.22 0 .39.39 0 01-.19-.12l.09-.07a.24.24 0 00.14.09.24.24 0 00.14 0 .26.26 0 00.13-.12.21.21 0 000-.15.42.42 0 000-.16.5.5 0 00-.11-.16A.21.21 0 0081 19a.25.25 0 00-.15 0 .3.3 0 00-.13.12.39.39 0 000 .19zm-.36-.16l.24.82-.11.03-.1-.34-.42.13.09.34-.11.03-.23-.83.11-.03.11.39.43-.12-.11-.39.1-.03z" fill="#1d1d1d" fill-rule="evenodd"/><text><tspan x="78.2" y="24.6">The International</tspan> <tspan x="78.2" y="27.3">Association for</tspan> <tspan x="78.2" y="30">Cryptologic Research</tspan></text></g><path class="c3" d="M102.43 3.35h18.01v18.01h-18.01V3.35z"/><path class="c4" d="M111.24 14.59h5.46l-3.87-6.75-2.5 4.24V9.79a2.34 2.34 0 01-1.64.88v3.92h2.11l2-3.43 1 1.78h-1.65l-.94 1.65zM106.7 9.8v4.79h1.63v-3.92a2.33 2.33 0 01-1.63-.87z"/><path class="c4" d="M109.58 6.36a2.1 2.1 0 00-1.06-.28 2.1 2.1 0 00-1.11.34 2.17 2.17 0 00-.67.68 2.09 2.09 0 00-.32 1.16 2.14 2.14 0 103.21-1.89zm.1.16a2.19 2.19 0 01.49.47.89.89 0 01.08.17.57.57 0 010 .26 2.8 2.8 0 00-.57-.5.48.48 0 000-.33v-.07zm-.46.83a2.47 2.47 0 01-.8.37l-.28-1h.11a3.54 3.54 0 011 .73zm-.9-.78v-.05a3.17 3.17 0 011.23.44 1.12 1.12 0 01-.29.34 3.42 3.42 0 00-1-.73zm1 .84a4.14 4.14 0 01.46.69 3.29 3.29 0 01-1.08.52l-.22-.81a2.43 2.43 0 00.84-.4zm.5.77a3.61 3.61 0 01.22.68 3.48 3.48 0 01-1.13.52l-.19-.68a3.3 3.3 0 001.1-.52zm-.44-.82a1.27 1.27 0 00.31-.36 2.42 2.42 0 01.57.52 1.39 1.39 0 01-.41.53 3.25 3.25 0 00-.47-.69zm.18-.94a.39.39 0 01.12.19.5.5 0 010 .27 3.13 3.13 0 00-1.23-.43 8.4 8.4 0 01.83-.17 1.38 1.38 0 01.3.14zm-.72-.25h.25l-.71.16c.1 0 .34-.17.43-.2zm-.78 0a1.68 1.68 0 01.45-.06h.12l-.35.18h-.19v-.12zm-.09 0v.12a.55.55 0 00-.17.1h-.38a2 2 0 01.51-.23zm-1 1.43a3.06 3.06 0 01.85-1 3.73 3.73 0 00-.48 1.11 1 1 0 01-.42-.14zm.41.22a3.11 3.11 0 00-.06.84 1.3 1.3 0 01-.62-.24 2.55 2.55 0 01.24-.76 1.15 1.15 0 00.44.16zm-.18-1.25l.09-.07h.47l-.69.21.13-.12zm-.41.47a1.46 1.46 0 01.16-.21c.24-.1.68-.23.79-.26a3.36 3.36 0 00-.84 1 .49.49 0 01-.14-.21.49.49 0 010-.29zm-.32 1a1.94 1.94 0 01.21-.8.34.34 0 000 .1.59.59 0 00.18.27 2.49 2.49 0 00-.25.74.49.49 0 01-.14-.24.17.17 0 010-.07zm0 .26a.5.5 0 00.14.15 2.8 2.8 0 000 .4 2.07 2.07 0 01-.11-.55zm.21.21a1.52 1.52 0 00.65.24 3.36 3.36 0 00.13.7 1.15 1.15 0 01-.77-.38 2.5 2.5 0 010-.56zm.62 1.3a2.27 2.27 0 01-.52-.55 1.36 1.36 0 00.71.28c.06.16.12.29.16.39a1.8 1.8 0 01-.35-.12zm.41.24h-.09.08zm1.32.11a2.42 2.42 0 01-.47.06 2.18 2.18 0 01-.72-.12v-.06A3.2 3.2 0 00109 10l.05.2zm-.08-.29a3.09 3.09 0 01-1.19.08 2.28 2.28 0 01-.17-.4 3.72 3.72 0 001.25-.11l.11.43zm-.14-.53a3.5 3.5 0 01-1.25.12 3 3 0 01-.15-.7 3.09 3.09 0 001.22-.1l.18.68zm-.2-.76a3.42 3.42 0 01-1.2.1 3.33 3.33 0 010-.84 2.75 2.75 0 00.93-.07l.22.81zm-.24-.9a2.57 2.57 0 01-.89.08 3.35 3.35 0 01.47-1.11h.14l.28 1zm-.27-1.12h-.27c-.02 0 .08-.13.22-.17s.25 0 .27 0-.08.13-.22.17zm2 2.94a2.16 2.16 0 01-1 .64v-.15a3.16 3.16 0 001-.51.15.15 0 010 .07zm0-.18a3 3 0 01-1.06.53l-.12-.43A3.71 3.71 0 00110 9a2.84 2.84 0 010 .42zm.09.07l.06-.06-.06.09zm.23-.4a1.46 1.46 0 01-.24.27c0-.11 0-.26-.05-.42a1.43 1.43 0 00.47-.58 1.83 1.83 0 01-.18.73zm-.31-.25a3.5 3.5 0 00-.24-.68 1.54 1.54 0 00.44-.53 2.18 2.18 0 01.27.48 1 1 0 01-.47.73zm.46-1a2.54 2.54 0 00-.23-.34.52.52 0 000-.21 2 2 0 01.19.55zm2.75.12h.36v.05h-.15v.39h-.06v-.39h-.15v-.05zm.79.44v-.37l-.11.37h-.06l-.12-.37v.37h-.06v-.44h.08l.13.37.13-.37h.08v.44zm-8.94 7.1a1.34 1.34 0 000 .19h-.43v1.18h-.32v-1.18H104a1.34 1.34 0 000-.19h1.17zm1.19.82v.54H106v-.63a.19.19 0 00-.21-.21.29.29 0 00-.26.15 1.71 1.71 0 00-.07.59v.1h-.29V15.37h.3v.53-.06a.42.42 0 01.36-.14c.26 0 .39.11.39.32a1.72 1.72 0 010 .2zm1.23.01h-.75v.06a.29.29 0 00.32.3h.35v.21a1.48 1.48 0 01-.34 0 .8.8 0 01-.23 0 .45.45 0 01-.34-.48.61.61 0 01.16-.43.56.56 0 01.4-.14c.3 0 .48.16.48.43a.34.34 0 010 .1zm-.26-.12q0-.24-.21-.24c-.15 0-.23.08-.27.25h.48zm1.31-.24v.89h-.33v-1.39h.32v.5zm1.36.36a1.35 1.35 0 000 .23v.3h-.29a2.26 2.26 0 000-.27v-.33a.2.2 0 00-.22-.23.29.29 0 00-.28.23v.6h-.3a4.74 4.74 0 000-.55 4 4 0 000-.49h.29v.18l.05-.07a.42.42 0 01.35-.13q.39 0 .39.33v.2zm.71-.33c-.12 0-.19 0-.19.1s0 .07.09.12l.08.06.12.1a.31.31 0 01.11.22c0 .17-.16.28-.4.28h-.34v-.23h.06a.79.79 0 00.24.05c.11 0 .17-.05.17-.12a.11.11 0 000-.07l-.09-.07h-.06a.69.69 0 01-.12-.11.3.3 0 01-.1-.2c0-.17.15-.27.39-.27h.3v.21a.6.6 0 00-.22 0zm1.06-.13v.16h-.26v.29a1.58 1.58 0 000 .19c0 .11 0 .16.12.16a.56.56 0 00.15 0 .75.75 0 010 .11v.1a1.11 1.11 0 01-.23 0c-.21 0-.3-.08-.3-.25a.51.51 0 010-.1v-.5h-.15v-.2h.15a.57.57 0 000-.14v-.06h.18v.25h.26zm.46.07v.92h-.31a.71.71 0 010-.12v-.92h.3a.38.38 0 010 .12zm0-.46v.17H112v-.19h.3zm.86.39v.16h-.26v.29a1.58 1.58 0 000 .19c0 .11 0 .16.12.16h.15a.75.75 0 010 .11v.1a1 1 0 01-.23 0c-.2 0-.29-.08-.29-.25v-.6h-.14v-.2h.15v-.2h.19v.25h.26zm1.21.3v.69h-.3v-.17.06a.4.4 0 01-.34.13c-.25 0-.38-.11-.38-.32v-.51a1.93 1.93 0 000-.23h.29v.44a1.16 1.16 0 000 .17c0 .15.07.22.21.22a.27.27 0 00.27-.22 1.67 1.67 0 000-.31v-.3h.29v.35zm.87-.3v.16h-.26v.29a1.58 1.58 0 000 .19c0 .11 0 .16.12.16h.15a.75.75 0 010 .11v.1a1.11 1.11 0 01-.23 0c-.21 0-.3-.08-.3-.25a.51.51 0 010-.1v-.5h-.15v-.2h.15a.57.57 0 000-.14v-.06h.18v.25h.26zm1.13.46h-.75v.06a.29.29 0 00.32.3h.35a.29.29 0 000 .11v.1a1.55 1.55 0 01-.34 0 .8.8 0 01-.23 0 .45.45 0 01-.34-.48.57.57 0 01.16-.43.54.54 0 01.4-.14.41.41 0 01.47.43v.1zm-.27-.12q0-.24-.21-.24c-.14 0-.23.08-.26.25h.44zm1.47.67a.51.51 0 01-.55-.52.54.54 0 01.59-.56.5.5 0 01.55.52.54.54 0 01-.59.56zm0-.87c-.18 0-.29.14-.29.36s.1.31.27.31.29-.14.29-.37-.1-.3-.27-.3zm1.27-.4c-.11 0-.15.05-.15.18h.25v.2h-.24v.86h-.29v-.83h-.12v-.2h.13a1 1 0 010-.21c0-.11.14-.17.31-.17h.24a1.48 1.48 0 010 .2.41.41 0 00-.17 0zm-15.2 2.22v.89h-.33v-1.39h.32v.5zm1.35.36v.53h-.29a2.26 2.26 0 000-.27V18.02a.2.2 0 00-.22-.23.29.29 0 00-.28.23v.6h-.3v-1.04h.29v.18-.07a.43.43 0 01.35-.13q.39 0 .39.33v.2zm.87-.46v.16h-.26v.29a1.58 1.58 0 000 .19c0 .11 0 .16.12.16a.56.56 0 00.15 0 .75.75 0 010 .11v.1a1.11 1.11 0 01-.23 0c-.21 0-.3-.08-.3-.25a.46.46 0 010-.1v-.5h-.15v-.2h.15a.61.61 0 000-.14v-.06h.18v.25h.26zm1.13.46h-.75v.06a.29.29 0 00.32.3h.13a.82.82 0 00.22-.06v.22a1.55 1.55 0 01-.34 0 .8.8 0 01-.23 0 .45.45 0 01-.34-.48.57.57 0 01.16-.43.54.54 0 01.4-.14.41.41 0 01.47.43v.1zm-.27-.12q0-.24-.21-.24c-.14 0-.23.08-.26.25h.47zm1.01-.18a.26.26 0 00-.26.21.37.37 0 000 .12v.5h-.29v-1.04h.27v.15-.06a.31.31 0 01.25-.11h.08v.24a.26.26 0 00-.11 0zm1.34.3v.53h-.29V18c0-.15-.07-.23-.22-.23a.28.28 0 00-.27.23 1.48 1.48 0 000 .32v.28h-.29v-1.04h.29v.18l.05-.07a.45.45 0 01.35-.13q.39 0 .39.33a1.92 1.92 0 010 .2zm1.15.03a1.94 1.94 0 010 .22 2.62 2.62 0 010 .28h-.28v-.54a.41.41 0 01-.15.07h-.08c-.16 0-.23.1-.23.18s.07.13.18.13a.5.5 0 00.16 0 1 1 0 000 .12.65.65 0 01-.19 0c-.24 0-.37-.1-.37-.3a.23.23 0 01.07-.17.75.75 0 01.43-.18c.17 0 .23-.08.23-.15s-.07-.12-.18-.12h-.15a1.23 1.23 0 00-.26.08.13.13 0 000-.06v-.09h.09a1.45 1.45 0 01.35 0c.28 0 .41.09.41.27v.29zm.57-.4v.9h-.3V17.23h.29v.49zm2.12.9h-.27c0-.09 0-.11-.06-.21s-.06-.17-.11-.29h-.53v.08l-.1.21a1.14 1.14 0 00-.06.14v.07h-.34l.27-.51.22-.42c.13-.25.15-.29.23-.46h.37v.09l.13.38.14.38.15.42.05.12zm-.52-.78v-.4.07l-.16.33v.07h.39v-.07zm1.74.09v.69h-.27v-.17.06a.44.44 0 01-.34.13c-.25 0-.38-.11-.38-.32a1.77 1.77 0 010-.19v-.32a1.93 1.93 0 000-.23h.29V18a1.16 1.16 0 000 .17.19.19 0 00.22.22.26.26 0 00.26-.22 2.57 2.57 0 000-.31v-.3h.29v.35zm1.26-.22v.91H115v-.18.06a.42.42 0 01-.32.14.44.44 0 01-.45-.47.69.69 0 01.17-.45.63.63 0 01.46-.16.82.82 0 01.21 0v-.35h.29v.48zm-.43 0a.37.37 0 00-.39.4.25.25 0 00.24.28.25.25 0 00.23-.14 1 1 0 00.07-.46v-.06a.39.39 0 00-.15 0zm.99-.01v.92h-.31a.68.68 0 000-.12v-.92h.3v.12zm0-.46v.17h-.29v-.2h.3zm.86.39v.16h-.26v.48c0 .11 0 .16.12.16h.15a.75.75 0 010 .11v.1a1 1 0 01-.23 0c-.2 0-.29-.08-.29-.25v-.6h-.15v-.2h.16a.71.71 0 010-.14v-.06h.19v.25h.25zm.65 1.01a.51.51 0 01-.55-.52.54.54 0 01.59-.56.5.5 0 01.55.52.54.54 0 01-.59.56zm0-.87c-.19 0-.3.13-.3.36s.1.31.27.31.29-.14.29-.37-.1-.3-.26-.3zm1.34.02a.26.26 0 00-.25.21.35.35 0 000 .12v.5h-.29v-1.04h.28v.15s0-.05.05-.06a.3.3 0 01.24-.11h.08a1.41 1.41 0 000 .2.23.23 0 00-.11 0zm.68-.03c-.12 0-.18 0-.18.1s0 .07.09.12l.08.06.12.1a.31.31 0 01.11.22c0 .17-.16.28-.4.28h-.34v-.23h.06a.74.74 0 00.23 0c.12 0 .18 0 .18-.11a.11.11 0 000-.07l-.09-.07-.06-.05A.69.69 0 01119 18a.3.3 0 01-.1-.2c0-.17.15-.27.38-.27h.31v.21a.66.66 0 00-.23 0z"/><text><tspan x="110.8" y="26.2">The Institute of</tspan> <tspan x="110.8" y="28.9">Internal Auditors</tspan></text><g id="IMI"><circle cx="141.32" cy="13.67" r="7.9" stroke-width=".3" class="c1 c21"/><circle cx="141.32" cy="13.67" r="6.75" class="c1 c21"/><path d="M143.57 16.44h-.88v-4l-.94 4h-.94l-.92-4v4H139v-5.19h1.36c.07 0 .09 0 .11.09l.66 2.75.15.61a.3.3 0 010 .09l.86-3.53h1.45zm-5.57-.01h-1v-5.18h1zm7.49.01h-1v-5.18h1z"/><path id="tp-1" class="c1" d="M134.57 13.67a6.75 6.75 0 1113.5 0"/><text dy=".38"><textPath startOffset="50%" href="#tp-1" font-size="1" font-family="Helvetica-Bold,Helvetica" font-weight="700" fill="#fff">IDENTITY MANAGEMENT INSTITUTE</textPath></text><text><tspan x="141.8" y="26.2">Identity Management</tspan> <tspan x="141.8" y="28.9">Institute</tspan></text></g><g id="ISACA"><path class="c21" d="M8 40.42a.63.63 0 01.25.74.63.63 0 01-.81.4.64.64 0 01-.4-.81.65.65 0 01.31-.36m1.4.71a.64.64 0 01.35-.7.64.64 0 11.56 1.14.6.6 0 01-.47 0m2.38-.22a.65.65 0 01-.74.26.64.64 0 01.41-1.22.65.65 0 01.36.31m-3.78 2.71a.66.66 0 01-.71-.38.65.65 0 01.3-.86.63.63 0 01.85.29.6.6 0 010 .47m.74.39a.64.64 0 01-.26-.74A.64.64 0 1110 43a.62.62 0 01-.31.36m1.97-.75a.64.64 0 01-1.2.41.63.63 0 01.29-.85.62.62 0 01.48 0m-4.18 2.35A.64.64 0 118 45a.67.67 0 01-.48 0m2.48-.76a.63.63 0 11-.43-.48m1.32-.02a.64.64 0 11-.44.91.6.6 0 010-.47"/><path d="M13.37 41.17h.57v3.13h-.57zm5.05-.17h.07l1.63 3.28h-.76l-.22-.62h-1.25l-.23.62h-.74zm-.34 2.13H19L18.52 42zM24.53 41h.07l1.64 3.28h-.77l-.22-.62H24l-.23.62H23zm-.33 2.13h.86L24.64 42zm-8.2-.6l-.42-.13a1.15 1.15 0 01-.31-.12.29.29 0 01-.12-.25.36.36 0 01.12-.29.45.45 0 01.31-.1.56.56 0 01.3.08.4.4 0 01.17.26.06.06 0 00.1 0l.27-.42a.8.8 0 00-.15-.21.92.92 0 00-.65-.26.82.82 0 00-.69.28 1 1 0 00-.24.69.88.88 0 00.24.68 1.7 1.7 0 00.52.24l.26.07a.85.85 0 01.33.15.28.28 0 01.11.24.38.38 0 01-.22.36.76.76 0 01-.29 0 .45.45 0 01-.42-.19l-.06-.13h-.05l-.29.45a.64.64 0 00.1.13 1 1 0 00.74.28.89.89 0 00.71-.28 1 1 0 00.25-.71.9.9 0 00-.21-.64 1.05 1.05 0 00-.41-.18zm6.39 1.05a.72.72 0 01-.59.24.8.8 0 01-.62-.27 1.19 1.19 0 01-.25-.81 1.29 1.29 0 01.24-.84.74.74 0 01.63-.3.8.8 0 01.6.21l.09.13a.08.08 0 00.15 0l.33-.51a1.66 1.66 0 00-1.2-.4 1.58 1.58 0 00-1.11.4 1.66 1.66 0 00-.5 1.29A1.7 1.7 0 0020.6 44a1.63 1.63 0 001.21.45 1.53 1.53 0 001-.33 1.14 1.14 0 00.19-.19l-.57-.36z"/><text><tspan x="16.5" y="50">Information Systems</tspan> <tspan x="16.5" y="52.7">Audit and Control</tspan> <tspan x="16.5" y="55.2">Association</tspan></text></g><path class="c17" d="M51 43.59h-.07a2 2 0 01-.7.37 2.85 2.85 0 01-1.23.13 2.52 2.52 0 01-.88-.28 1.7 1.7 0 01-.79-.92 2.2 2.2 0 01-.09-1 1.67 1.67 0 01.46-1 2.15 2.15 0 011.3-.55 2.63 2.63 0 011 0 2.28 2.28 0 011 .45h.08v-.76a3.84 3.84 0 00-2-.32 3 3 0 00-1.09.31 2.22 2.22 0 00-1.26 1.84 3 3 0 000 1.14 2.16 2.16 0 001 1.32 2.8 2.8 0 001.43.42 4 4 0 00.84-.06 4.11 4.11 0 001-.32v-.67a.08.08 0 000-.1zm-.49 2.1l.4.23.22-.18a6.31 6.31 0 001.11-1.08 3.85 3.85 0 00.76-1.24 4.54 4.54 0 00.18-1 4 4 0 000-.69 3.78 3.78 0 00-.36-1.09 5.82 5.82 0 00-1.14-1.52 5.19 5.19 0 00-.89-.72h-.06l-.3.17a6 6 0 011.1 1.32 4.54 4.54 0 01.68 2.15 4 4 0 01-.21 1.49 4.35 4.35 0 01-1.2 1.91zm-8.69 0h-.05a4.84 4.84 0 01-.81-.88 4.18 4.18 0 01-.76-3.08 4.74 4.74 0 01.45-1.41A5.88 5.88 0 0142 38.61h.06l-.32-.19h-.07a5.61 5.61 0 00-.89.72 5.37 5.37 0 00-1.11 1.48 3.63 3.63 0 00-.41 1.32 4.25 4.25 0 00.03 1.06 3.92 3.92 0 00.86 1.8 7.17 7.17 0 001.25 1.15h.05l.12-.07zm1.52-2.16v.75l.12.07a2.22 2.22 0 001.4.29 1.24 1.24 0 00.9-.55 1.55 1.55 0 00.29-1.09 1 1 0 00-.35-.64 3.11 3.11 0 00-.52-.34l-.64-.35a1.25 1.25 0 01-.41-.35.75.75 0 01-.13-.52.56.56 0 01.48-.48 1.85 1.85 0 01.47 0 1.1 1.1 0 01.39.09 1.56 1.56 0 01.54.38v-.74a2.35 2.35 0 00-1.32-.32 1.22 1.22 0 00-.93.5 1.4 1.4 0 00-.27 1 .71.71 0 00.1.37 1.53 1.53 0 00.56.54c.2.11.4.22.59.34l.53.33a.66.66 0 01.18.19.84.84 0 01.12.6.68.68 0 01-.68.61 1.69 1.69 0 01-.71-.13 1.76 1.76 0 01-.66-.48zm-1 1.2v-5h-.66v5zm11.16-4.84a.34.34 0 01.39-.15.2.2 0 01.15.16.5.5 0 010 .17 1 1 0 01-.16.34l-.49.75v.06h1V41h-.65v-.05l.33-.53a1 1 0 00.18-.4.38.38 0 00-.23-.46.86.86 0 00-.32 0 .62.62 0 00-.23.07.39.39 0 00-.14.17zm2 .22a.47.47 0 00-.47-.47.48.48 0 00-.47.47.47.47 0 00.47.47.46.46 0 00.49-.47z"/><path d="M51 43.59v.67a4.11 4.11 0 01-1 .32 4 4 0 01-.84.06 2.8 2.8 0 01-1.43-.42 2.16 2.16 0 01-1-1.32 3 3 0 01-.07-1.07 2.22 2.22 0 011.26-1.84 3 3 0 011.08-.23 3.84 3.84 0 012 .32v.76h-.08a2.28 2.28 0 00-1-.45 2.63 2.63 0 00-1 0 2.15 2.15 0 00-1.23.61 1.67 1.67 0 00-.46 1 2.2 2.2 0 00.09 1 1.7 1.7 0 00.79.92 2.52 2.52 0 00.88.28 2.85 2.85 0 001.26-.2 2 2 0 00.7-.37z"/><path d="M50.53 45.69l.27-.25a4.35 4.35 0 001.2-1.91 4 4 0 00.18-1.45 4.54 4.54 0 00-.68-2.15 6 6 0 00-1.1-1.32l.3-.17h.06a5.19 5.19 0 01.89.72 5.82 5.82 0 011.14 1.52 3.78 3.78 0 01.36 1.09 4 4 0 010 .69 4.54 4.54 0 01-.18 1 3.85 3.85 0 01-.66 1.23 6.31 6.31 0 01-1.11 1.08l-.22.18zm-8.69 0l-.27.15-.12.07h-.05a7.17 7.17 0 01-1.25-1.15 3.92 3.92 0 01-.86-1.8 4.25 4.25 0 01-.06-1.07 3.63 3.63 0 01.41-1.32 5.37 5.37 0 011.11-1.48 5.61 5.61 0 01.89-.72h.07l.32.19h-.06a5.88 5.88 0 00-1.3 1.67 4.74 4.74 0 00-.45 1.41 4.18 4.18 0 00.78 3.13 4.84 4.84 0 00.81.88zm1.52-2.16a1.76 1.76 0 00.66.48 1.69 1.69 0 00.71.13.68.68 0 00.68-.61.84.84 0 00-.12-.6.66.66 0 00-.18-.19l-.53-.33c-.19-.12-.39-.23-.59-.34a1.53 1.53 0 01-.56-.54.71.71 0 01-.1-.37 1.4 1.4 0 01.27-1 1.22 1.22 0 01.93-.5 2.35 2.35 0 011.37.34v.74a1.56 1.56 0 00-.54-.38 1.1 1.1 0 00-.39-.09 1.85 1.85 0 00-.47 0 .56.56 0 00-.48.48.75.75 0 00.13.56 1.25 1.25 0 00.41.35l.64.35a3.11 3.11 0 01.52.34 1 1 0 01.35.64 1.55 1.55 0 01-.25 1.13 1.24 1.24 0 01-.9.55 2.22 2.22 0 01-1.4-.29l-.12-.07v-.75a.08.08 0 01-.04-.03z"/><path d="M42.39 44.73h-.66v-5h.66zm11.16-4.84l-.14-.12a.39.39 0 01.14-.17.62.62 0 01.23-.07.86.86 0 01.32 0 .38.38 0 01.23.46 1 1 0 01-.18.4l-.33.53v.05h.65v.18h-1v-.06l.49-.75a1 1 0 00.16-.34.5.5 0 000-.17.2.2 0 00-.15-.16.34.34 0 00-.39.15zm1.97.22a.46.46 0 01-.47.47.47.47 0 01-.47-.47.48.48 0 01.47-.47.47.47 0 01.47.47zm-.86 0a.4.4 0 10.79 0 .4.4 0 00-.4-.4.39.39 0 00-.39.4z"/><path class="c17" d="M54.66 40.11a.39.39 0 01.39-.4.4.4 0 01.4.4.4.4 0 11-.79 0zm.31.28v-.21h.09l.11.18h.1l-.15-.25a.16.16 0 00.08-.18.14.14 0 00-.12-.12h-.21v.54z"/><path d="M55 40.39h-.08v-.54h.21a.14.14 0 01.12.12.16.16 0 01-.08.18l.15.25h-.1l-.11-.18h-.09zm0-.31h.11c.06 0 .08 0 .08-.08s0-.1-.06-.11H55z"/><path class="c17" d="M55 40.08v-.2h.13s.07 0 .06.11 0 .07-.08.08z"/><text><tspan x="47" y="50">International</tspan> <tspan x="47" y="52.7">Information System</tspan> <tspan x="47" y="55.2">Security Certification</tspan> <tspan x="47.8" y="57.9">Consortium</tspan></text><g id="ISSA"><path class="c5" d="M77.85 46.28h-.12l.45-1h.1l.44 1h-.12l-.11-.28H78zm.15-.37h.45l-.22-.54zm1.45.37h-.09v-.12a.35.35 0 01-.27.13.36.36 0 110-.71.35.35 0 01.27.13v-.53h.09zm-.36-.07a.26.26 0 00.27-.27.26.26 0 00-.27-.27.25.25 0 00-.26.27.26.26 0 00.26.27m.82.07h-.11l-.27-.68h.11l.22.57.22-.57h.11l-.28.68zm.79-.42c0-.11-.06-.17-.18-.17a.3.3 0 00-.2.08l-.06-.07a.4.4 0 01.29-.1.23.23 0 01.24.24v.46h-.09a.41.41 0 010-.11.26.26 0 01-.24.13.21.21 0 01-.23-.2c0-.22.25-.24.42-.24zm0 .08c-.1 0-.32 0-.32.14s.08.13.16.13a.2.2 0 00.16-.21v-.05zm.36-.34v.11a.26.26 0 01.23-.13c.17 0 .25.1.25.27v.43h-.09v-.38c0-.15 0-.23-.19-.23s-.2 0-.2.26v.35H81v-.68zm1.15.16a.19.19 0 00-.17-.09.25.25 0 00-.25.27.25.25 0 00.25.27.19.19 0 00.17-.09l.08.06a.33.33 0 01-.25.12.34.34 0 01-.35-.36.33.33 0 01.35-.35.3.3 0 01.25.11zm.23-.35a.07.07 0 110-.14.07.07 0 010 .14m0 .87h-.1v-.68h.1zm.32-.68v.11a.25.25 0 01.22-.13.24.24 0 01.26.27v.43h-.1v-.38c0-.15 0-.23-.18-.23s-.21 0-.21.26v.35h-.09v-.68zm.72.81a.3.3 0 00.26.13.24.24 0 00.26-.27v-.12a.3.3 0 01-.26.13.35.35 0 010-.7.33.33 0 01.26.13v-.11h.1v.67a.32.32 0 01-.37.35.44.44 0 01-.33-.13zm.26-.22a.26.26 0 10-.25-.26.26.26 0 00.25.26m1.75-.07a.45.45 0 01-.38.18.54.54 0 010-1.07.43.43 0 01.36.16l-.09.06a.37.37 0 00-.27-.13.42.42 0 00-.42.44.41.41 0 00.42.44.33.33 0 00.3-.15zm.12-.94h.1v1.09h-.1zM86 46a.25.25 0 00.25.25.24.24 0 00.21-.12l.08.06a.36.36 0 01-.29.15.35.35 0 01-.35-.36.33.33 0 01.34-.35.31.31 0 01.32.33H86zm.46-.07a.2.2 0 00-.22-.22.23.23 0 00-.24.22zm.61-.07a.15.15 0 00-.17-.17.32.32 0 00-.21.08l-.06-.07a.42.42 0 01.29-.1.23.23 0 01.25.24v.46h-.09a.41.41 0 010-.11.26.26 0 01-.24.13.22.22 0 01-.24-.2c0-.22.26-.24.42-.24zm0 .08c-.09 0-.31 0-.31.14s.08.13.16.13a.19.19 0 00.2-.22v-.05zm.36-.34v.11a.25.25 0 01.22-.13.24.24 0 01.26.27v.43h-.1v-.38c0-.15 0-.23-.18-.23s-.21 0-.21.26v.35h-.09v-.53a.81.81 0 000-.15zm.76.69a.08.08 0 010-.16.08.08 0 010 .16m-10.34.5h.34a.52.52 0 110 1h-.34zm.11.93h.2a.42.42 0 00.46-.42.41.41 0 00-.46-.41H78z"/><path class="c5" d="M78.87 47.35v-.21H79v.12a.23.23 0 01.22-.14h.07v.09a.21.21 0 00-.21.21v.39h-.09zm.48-.35a.07.07 0 110-.14.07.07 0 110 .14m.05.87h-.09v-.68h.09zm.48-.06h-.11l-.27-.67h.11l.21.57h.01l.21-.57h.11l-.27.67zm.41-.81a.07.07 0 010-.14.07.07 0 010 .14m0 .87h-.09v-.68h.09zm.32-.73a.37.37 0 010 .11.25.25 0 01.22-.13.24.24 0 01.26.27v.43H81v-.38c0-.15 0-.23-.18-.23s-.2 0-.2.26v.35h-.1v-.68zm.72.86a.3.3 0 00.26.13.24.24 0 00.26-.27v-.12a.3.3 0 01-.26.13.35.35 0 01-.35-.35.34.34 0 01.35-.35.3.3 0 01.26.13v-.11h.09v.67a.32.32 0 01-.36.35.41.41 0 01-.32-.13zm.26-.22a.25.25 0 00.26-.26.25.25 0 00-.26-.27.26.26 0 00-.25.27.26.26 0 00.25.26m.9-.99h.1v1.02h-.1zm.39.35v.11a.28.28 0 01.23-.13.24.24 0 01.26.27v.43h-.1v-.38c0-.15 0-.23-.18-.23s-.21 0-.21.26v.35h-.09v-.68zm.75 0a.37.37 0 010 .11.26.26 0 01.22-.13.24.24 0 01.26.27v.43H84v-.38c0-.15 0-.23-.18-.23s-.2 0-.2.26v.35h-.1v-.53a.81.81 0 000-.15zm.99.69a.36.36 0 11.36-.35.34.34 0 01-.36.35m0-.62a.25.25 0 00-.26.27.26.26 0 10.51 0 .24.24 0 00-.25-.27m.78.6h-.11l-.27-.67h.11l.22.57.21-.57h.11l-.27.67zm.78-.41c0-.11-.06-.17-.18-.17a.3.3 0 00-.2.08l-.06-.07a.4.4 0 01.29-.1.23.23 0 01.25.24v.31a.71.71 0 000 .15h-.1v-.11a.25.25 0 01-.24.13.21.21 0 01-.23-.2c0-.22.26-.23.42-.23h.05zm-.05.08c-.09 0-.31 0-.31.14a.14.14 0 00.15.13.2.2 0 00.21-.22v-.05zm.67-.26h-.2v.4c0 .11 0 .13.1.13h.1v.09h-.13a.16.16 0 01-.17-.18v-.43h-.14v-.08h.14V47h.1v.19h.2zm.14-.22a.07.07 0 010-.14.07.07 0 010 .14m0 .87h-.1v-.68H87zm.55-.04a.36.36 0 11.36-.35.34.34 0 01-.36.35m0-.62a.25.25 0 00-.25.27.26.26 0 10.51 0 .25.25 0 00-.26-.27m.58-.07v.11a.26.26 0 01.23-.13c.17 0 .25.1.25.27v.43h-.09v-.38c0-.15 0-.23-.18-.23s-.21 0-.21.26v.35H88v-.68zm.76.68a.07.07 0 01-.08-.07.07.07 0 01.08-.08.07.07 0 01.07.08.07.07 0 01-.07.07"/><path fill="#404040" d="M69.05 37.33v6.83h2.06v-.32a4.2 4.2 0 01-.73-.52l-.16-.14.14-.17.75-.9V40.8a1.91 1.91 0 01-.49-1.35 2.25 2.25 0 01.49-1.45v-.68h-2.06z"/><path fill="#797979" d="M70.85 39.44c0 1.4 1.11 1.81 2.56 2.14.92.21 1.14.36 1.14.65 0 .29-.27.46-.78.46a3.52 3.52 0 01-2.2-.81l-1 1.25a4.77 4.77 0 003.18 1.12 3 3 0 002.16-.74l-.26-.21-.16-.15.14-.17.85-1c0-1.22-1-1.71-2.52-2.05-.94-.21-1.17-.35-1.17-.66 0-.25.22-.44.68-.44a3.43 3.43 0 011.89.66L76 38a4.27 4.27 0 00-2.49-.69c-1.63 0-2.63.91-2.63 2.17M83.44 39.56l.75 1.93h-1.52zm-.89-2.23l-2.89 6.83h2l.46-1.16h2.62l.49 1.21h2l-2.89-6.83z"/><path fill="#797979" d="M76.08 39.44c0 1.4 1.12 1.81 2.56 2.14.92.21 1.14.36 1.14.65 0 .29-.27.46-.77.46a3.5 3.5 0 01-2.2-.81l-1 1.25a4.81 4.81 0 003.22 1 3.15 3.15 0 00.44 0l.07-.18 1.43-3.39a5.17 5.17 0 00-1.77-.65c-.94-.21-1.17-.35-1.17-.66 0-.24.22-.43.68-.43a3.38 3.38 0 011.89.66l.61-1.48a4.33 4.33 0 00-2.5-.69c-1.63 0-2.63.91-2.63 2.17"/><path class="c5" d="M85.11 37.92a.28.28 0 01-.29-.29.29.29 0 11.57 0 .28.28 0 01-.28.29m0-.53a.24.24 0 10.22.24.23.23 0 00-.22-.24m-.06.4v-.32h.12c.08 0 .12 0 .12.1a.08.08 0 01-.09.08l.09.14h-.06l-.08-.13v.13zm.06-.18h-.06v.09z"/><text><tspan x="78.7" y="52.7">Information Systems</tspan> <tspan x="78.1" y="55.2">Security Association</tspan></text></g><g id="OWASP"><path class="c17" d="M98.16 42.64a3.58 3.58 0 103.59-3.57 3.6 3.6 0 00-3.59 3.57zm10.9-1.64v2.43a.56.56 0 00.5.6 1.26 1.26 0 001.29-.29.71.71 0 00.53.31 2.66 2.66 0 00.63 0c.45-.06.62-.28.62-.74V41h-.36v2.34a.37.37 0 01-.21.38 1.13 1.13 0 01-.81 0c-.2-.08-.21-.28-.21-.47V41h-.36v2.21a1.07 1.07 0 010 .25.32.32 0 01-.28.28 2.12 2.12 0 01-.56 0c-.25 0-.35-.16-.37-.41V41zm6.56 3v-2.41c0-.37-.18-.54-.55-.62a3.28 3.28 0 00-1.17 0 .65.65 0 00-.64.75v2.3h.37v-1.08h1.64v1.12zm.59-1v.4a.57.57 0 00.48.58 2.85 2.85 0 001.42 0 .57.57 0 00.45-.56 2.44 2.44 0 000-.27.65.65 0 00-.62-.74l-.89-.14c-.4-.05-.54-.12-.48-.66a.34.34 0 01.27-.32 2.11 2.11 0 011.06 0 .35.35 0 01.28.35v.22h.36v-.21a.57.57 0 00-.43-.62 2.71 2.71 0 00-1.52 0 .61.61 0 00-.32.25 1.17 1.17 0 000 .9.65.65 0 00.57.37l.85.14c.46.07.55.18.52.63a.38.38 0 01-.35.4 2.42 2.42 0 01-.93 0 .39.39 0 01-.34-.39v-.34zm-7.77-.5v-.85a.58.58 0 00-.49-.63 2.42 2.42 0 00-.6-.09 2.33 2.33 0 00-.91.11.55.55 0 00-.37.47v1.9a.49.49 0 00.37.48 2.69 2.69 0 001.59 0 .49.49 0 00.39-.48c.03-.23.02-.55.02-.87zm10.73-1.5v3h.36v-.87h1.28a.7.7 0 00.69-.77v-.55a.7.7 0 00-.72-.81h-1.61zm2.83 3.6a.5.5 0 00-.48-.52.5.5 0 00-.49.51.51.51 0 00.48.52.5.5 0 00.49-.51z"/><path d="M98.16 42.64a3.58 3.58 0 113.51 3.58 3.58 3.58 0 01-3.51-3.58zm3.57 3a3 3 0 10-3-3 3 3 0 003 3.02zm7.33-4.64h.37v2.35c0 .25.12.39.37.41a2.12 2.12 0 00.56 0 .32.32 0 00.28-.28 1.07 1.07 0 000-.25V41h.36v2.24c0 .19 0 .39.21.47a1.13 1.13 0 00.81 0 .37.37 0 00.21-.38V41h.36v2.31c0 .46-.17.68-.62.74a2.66 2.66 0 01-.63 0 .71.71 0 01-.53-.31 1.26 1.26 0 01-1.29.29.56.56 0 01-.5-.6v-2.29zm6.56 3.06h-.36v-1.12h-1.64v1.12h-.37v-2.3a.65.65 0 01.64-.75 3.28 3.28 0 011.17 0c.37.08.55.25.55.62.02.81.01 1.61.01 2.43zm-.37-1.45v-.94a.35.35 0 00-.3-.35 2.2 2.2 0 00-1 0 .34.34 0 00-.29.34v.95zm.96.39h.35v.34a.39.39 0 00.34.39 2.42 2.42 0 00.93 0 .38.38 0 00.35-.4c0-.45-.06-.56-.52-.63l-.85-.14a.65.65 0 01-.57-.37 1.17 1.17 0 010-.9.61.61 0 01.32-.25 2.71 2.71 0 011.52 0 .57.57 0 01.43.62v.21h-.36v-.22a.35.35 0 00-.28-.35 2.11 2.11 0 00-1.06 0 .34.34 0 00-.27.32c-.06.54.08.61.48.66l.89.14a.65.65 0 01.62.74 2.44 2.44 0 010 .27.57.57 0 01-.45.56 2.85 2.85 0 01-1.42 0 .57.57 0 01-.48-.58c.02-.1.03-.23.03-.41zm-7.77-.46v1a.49.49 0 01-.39.48 2.69 2.69 0 01-1.59 0 .49.49 0 01-.37-.48v-1.9a.55.55 0 01.37-.47 2.33 2.33 0 01.91-.11 2.42 2.42 0 01.6.09.58.58 0 01.49.63v.85zm-.35 0v-.8c0-.26-.11-.41-.36-.43a6.15 6.15 0 00-1 0 .35.35 0 00-.32.36 5.76 5.76 0 000 .59v1c0 .31.11.46.41.49a4.83 4.83 0 00.85 0c.27 0 .38-.18.39-.45zM119.17 41h1.64a.7.7 0 01.72.81v.55a.7.7 0 01-.69.77h-1.28V44h-.36zm.37 1.88h1.18a.41.41 0 00.42-.41 4.15 4.15 0 000-.61.5.5 0 00-.55-.56h-1.07zM122 44.6a.5.5 0 01-.49.51.51.51 0 01-.48-.52.5.5 0 01.49-.51.5.5 0 01.48.52zm-.07 0a.43.43 0 00-.41-.44.42.42 0 00-.41.43.43.43 0 00.41.44.43.43 0 00.41-.43z"/><path class="c17" d="M101.73 45.66a3 3 0 113-2.95 3 3 0 01-3 2.95zM100.29 44a4.21 4.21 0 001.78-1.16c.16-.2.34-.38.27-.67l.17.07c0 .24 0 .48-.07.71a.7.7 0 01-.09.29.83.83 0 00-.11.63 2.73 2.73 0 00.55 1.18 1 1 0 00.14.12 10 10 0 00-.19-3 .83.83 0 00.45.47c0-.06-.11-.1-.16-.16l-.13-.17.5.11c-.16-.15-.41-.07-.46-.33a.63.63 0 00.55 0h-.19l-.24-.05c-.12 0-.11-.13-.1-.23a.3.3 0 000-.13c.28.05.42 0 .53-.23v-.24c.14-.12.3 0 .46.05a.39.39 0 00-.55-.06.64.64 0 00-.13-.15l-.13-.12c.12-.27.09-.44-.1-.56.12.18.2.34.07.49a.56.56 0 00-.2-.08c-.12 0-.3.28-.28.41a.51.51 0 000 .13c-.47.09-.43-.24-.41-.55v.54c-.22 0-.13-.3-.29-.44l.13.51-.36-.31c.09.25.3.34.49.46a10 10 0 00-2.94-.2v.06a.23.23 0 00.07.07 2.6 2.6 0 001.16.55.72.72 0 00.54 0 1.08 1.08 0 01.55-.17 3.13 3.13 0 00.43 0c.14 0 .19 0 .21.15a.6.6 0 00-.57.19 3.57 3.57 0 00-.94 1.14c-.18.25-.29.48-.41.68zm14.96-1.39h-1.63v-.95a.34.34 0 01.29-.34 2.2 2.2 0 011 0 .35.35 0 01.3.35zm-7.16-.07v.78c0 .27-.12.42-.39.45a4.83 4.83 0 01-.85 0c-.3 0-.41-.18-.41-.49v-1a5.76 5.76 0 010-.59.35.35 0 01.32-.36 6.15 6.15 0 011 0c.25 0 .35.17.36.43v.8zm11.45.36v-1.6h1.07a.5.5 0 01.55.56 4.15 4.15 0 010 .61.41.41 0 01-.42.41h-.91zm2.39 1.7a.43.43 0 01-.41.43.43.43 0 01-.41-.44.42.42 0 01.41-.43.43.43 0 01.41.44zm-.61-.31v.53l.06.07c.06.07 0 0 0-.08a.61.61 0 000-.14c.11 0 .19 0 .18.13s0 .1.12.07a2 2 0 010-.24.06.06 0 010-.06c.07-.16 0-.26-.16-.28z"/><path d="M100.29 44c.12-.23.23-.46.35-.68a3.57 3.57 0 01.94-1.14.6.6 0 01.57-.19c0-.14-.07-.18-.21-.15a3.13 3.13 0 01-.43 0 1.08 1.08 0 00-.55.17.72.72 0 01-.54 0 2.6 2.6 0 01-1.16-.55.23.23 0 01-.07-.07v-.06a10 10 0 012.94.2c-.19-.12-.4-.21-.49-.46l.36.31-.13-.51c.16.14.07.41.29.44v-.54c0 .31-.06.64.41.55a.51.51 0 010-.13c0-.13.16-.4.28-.41a.56.56 0 01.2.08c.13-.15 0-.31-.07-.49.19.12.22.29.1.56l.13.12a.64.64 0 01.13.15.39.39 0 01.55.06c-.16-.08-.32-.17-.46-.05 0 .09.07.19 0 .24-.11.23-.25.28-.53.23a.3.3 0 010 .13c0 .1 0 .19.1.23l.24.05h.19a.63.63 0 01-.55 0c0 .26.3.18.46.33l-.5-.11.13.17c0 .06.11.1.16.16a.83.83 0 01-.45-.47 10 10 0 01.19 3 1 1 0 01-.14-.12 2.73 2.73 0 01-.55-1.18.83.83 0 01.11-.63.7.7 0 00.09-.29c0-.23 0-.47.07-.71l-.17-.07c.07.29-.11.47-.27.67a4.21 4.21 0 01-1.72 1.16zm21.03.29h.2c.17 0 .23.12.16.28a.06.06 0 000 .06 2 2 0 000 .24c-.1 0-.13 0-.12-.07s-.07-.15-.18-.13a.61.61 0 010 .14v.08c0 .08-.06 0-.06-.07zm.12.06v.24l.17-.11z"/><path class="c17" d="M121.44 44.35l.17.13-.17.11z"/><text><tspan x="110.5" y="52">The Open Web</tspan> <tspan x="110.5" y="54.7">Application Security</tspan> <tspan x="110.5" y="57.2">Project</tspan></text></g><g id="wicys"><path d="M250 102c-5-2-7-3-9-8-3-7-1-15 6-19 6-2 17-1 15 3h-4c-7-2-14 3-14 10 0 5 1 8 5 10h10c2-1 4 0 4 2s-10 3-13 2zm78 0c-4-1-9-6-10-11-1-10 5-17 14-17 7 0 11 4 13 11v4h-22l1 3c1 4 4 6 9 6h10l-2 3c-2 1-10 2-13 1zm12-18c0-2-2-5-5-6-4-1-8 0-10 3-3 5-3 5 6 5 7 0 9 0 9-2zm39 18c-4-2-5-5-1-4 10 2 13 1 12-4 0-2-2-3-6-5-7-2-9-4-9-8s4-7 10-7c5 0 9 1 8 3l-2 2c-4-2-9-2-10-1-4 4-3 5 8 9 4 2 6 5 6 9-2 5-9 8-16 6zm28 0c-11-3-13-20-4-26 9-5 19-1 21 9v4h-11c-10 0-11 0-11 2 0 6 10 10 16 7 3-2 3-2 3 0 1 2 1 3-4 4h-10zm12-17l-2-5c-4-4-9-4-13 0-4 5-3 6 7 6l8-1zm18 17c-5-2-7-3-9-8-3-7-1-15 6-19 6-2 17-1 15 3h-4c-7-2-14 3-14 10 0 5 1 8 5 10h10c2-1 4 0 4 2s-10 3-13 2zm24 0c-5-2-7-6-7-18 0-9 0-10 2-10s2 1 2 10 0 10 3 13c2 3 7 3 10 0 2-2 3-3 3-12 0-10 0-11 2-11s2 1 2 9c0 11-1 15-4 17-4 2-9 3-13 2zm-185-5c0-5-1-6-5-13-8-10-8-10-5-10 2 0 4 2 7 7l5 5 5-6c3-5 5-6 7-6s2 0-3 7l-6 8-1 7c0 5 0 6-2 6s-2-1-2-5zm18-9V74h8c6 0 8 1 10 2 2 3 3 7 0 10-1 1-1 1 1 3 2 1 3 3 3 5 0 6-3 8-14 8h-8V88zm16 10c2-1 3-5 1-7l-7-1h-6v9h5l7-1zm-1-13c3-4-1-8-7-8h-4v9h5l6-1zm39 3V74l9 1 11 1c4 4 3 12-2 14l-2 1 4 6 3 5h-2c-2 0-4-1-6-5-3-4-4-5-7-5h-3v5c0 5 0 5-2 5h-3V88zm17-1l1-5-1-4h-12v10h5l7-1zm118 1V74h9c11 1 13 2 13 9 0 3 0 4-3 6l-3 3 4 5 3 5h-2c-2 0-4-1-6-5-3-5-3-5-7-5h-4v5c0 4 0 5-2 5s-2-1-2-14zm17-1l1-4c0-4-2-5-8-5h-6v10h6l7-1zm10 1c0-13 0-14 2-14s2 1 2 14 0 14-2 14-2-1-2-14zm16 2V78h-5c-3 0-5-1-5-2 1-1 3-2 12-2 11 0 12 0 12 2s-1 2-5 2h-5v12c0 11 0 12-2 12s-2-1-2-12zm27 7c0-5 0-6-6-14-6-9-6-9-3-9 2 0 3 1 6 7l5 6 5-6c3-6 5-7 7-7 3 0 3 0-5 10-4 7-5 8-5 13 0 4 0 5-2 5s-2-1-2-5zM244 60c-4-3-5-6-5-17 0-9 0-10 2-10s2 1 2 10c0 11 1 14 7 14 5 0 6-3 6-14 0-9 0-10 2-10s2 1 2 9c0 11 1 14 6 15 6 0 7-2 7-14 0-9 0-10 2-10s2 1 2 11c0 11 0 11-3 14-4 4-10 4-13 1l-3-3-2 3c-3 2-8 3-12 1zm45-1c-10-5-10-20 0-25 5-2 8-3 13 0 10 4 12 17 3 24-4 3-11 4-16 1zm14-5c2-2 3-4 3-7 0-8-7-13-14-10-4 2-6 5-6 10 0 6 4 10 10 10 3 0 5-1 7-3zm12-7c0-13 0-14 2-14l2 2 2-1 7-1c3 0 5 0 7 2l2 3 2-3c4-3 10-4 14-1s5 7 5 18c0 7-1 9-2 9s-2-1-2-10c-1-13-2-15-8-15s-7 2-8 15c0 9 0 10-2 10-1 0-2-2-2-11 0-10-1-11-2-13-4-2-9-1-11 2-2 2-2 4-2 12 0 9 0 10-2 10s-2-1-2-14zm53 12c-11-7-8-24 5-27 7-1 14 4 15 12v4h-11c-11 0-11 0-10 2 0 1 1 4 3 5 2 2 3 2 7 2l7-1h2c1 2 0 2-2 4-5 2-12 1-16-1zm15-17c0-3-4-6-8-6-3 0-4 1-6 3l-3 4 8 1c8 0 9 0 9-2zm9 18l-1-14c0-12 0-13 2-13l2 2c0 2 0 2 4-1 3-2 4-2 7-2 8 1 10 6 10 20 0 8-1 9-2 9-2 0-2-1-3-11 0-8-1-11-2-12-2-3-7-3-10 0-2 2-2 3-3 12 0 8-1 10-2 11l-2-1zm40-13c0-13 0-14 2-14s2 1 2 14 0 14-2 14-2-1-2-14zm10 13l-1-14c0-12 0-13 2-13l2 2v2l2-2c5-4 14-3 17 2l1 13c0 10 0 11-2 11-1-1-2-2-2-11 0-10-1-11-2-13-3-2-7-1-11 1-2 3-2 3-3 13 0 9-1 12-3 9z" transform="matrix(.037 0 0 .037 129.3 38.5)" fill="#242424"/><g fill="#6d6d6d"><path d="M114 269a159 159 0 01-68-70A222 222 0 0124 79v-5l41-17 50-21 9-4 18 8 50 21 32 13v46h29v17h-7c-6 0-7 0-7 2a1992 1992 0 0117 54l13-30 13-32 5 1h4l13 30 13 31c0 1 7-20 16-54 0-2-1-2-7-2h-7v-17h44v17h-11l-3 10-25 82c0 2-1 2-5 2h-5l-14-33-14-34-14 34-14 33h-10l-26-87c-1-3-1-3-4 8a163 163 0 01-88 120l-6 2-10-5z" transform="matrix(.037 0 0 .037 129.3 38.5)"/><path d="M359 230c-7-2-11-6-11-14l4-18 3-15-5-1-5-1 2-7 1-7h29l-6 23-6 25c0 2 1 2 3 2s3-1 5-4l2-4h4c4 2 4 2 0 10-4 9-12 13-20 11zm6-71c-3-1-6-6-6-10 0-2 1-4 4-7s3-3 7-3c10 2 13 14 5 19-4 2-6 2-10 1z" transform="matrix(.037 0 0 .037 129.3 38.5)"/></g><g fill="#929292"><path d="M114 269a159 159 0 01-68-70A222 222 0 0124 79v-5l41-17 50-21 9-4 18 8 50 21 32 13v20l-1 23v3h-15v17h6c5 0 6 0 6 4a170 170 0 01-27 73c-15 23-41 47-62 57l-7 3-10-5zm9-47v-16h-3a32 32 0 01-28-32c0-9 2-15 8-21 4-5 12-10 15-10l1 6-1 5c-2 0-9 6-11 10-4 8-3 17 3 24 4 4 10 8 14 8 2 0 2 0 2-5l-1-5c-3 0-4-4-4-28v-25l3-2c2-3 2-3 2-12v-10h-6c-15 2-27 8-38 19a65 65 0 0040 110h4v-16zm355 27c-4-1-9-6-9-9s3-8 5-8c3-2 6-1 9 1l2 2 3-3c5-6 5-6-6-30l-10-21h-8v-14h32v13h-4l-4 1 12 26c1 1 12-24 12-26l-4-1h-4v-13h32v14h-8l-6 15-15 30c-8 17-12 21-19 23h-10z" transform="matrix(.037 0 0 .037 129.3 38.5)"/><path d="M430 231a55 55 0 01-47-35c-3-9-4-25-2-35 7-28 34-46 64-42 14 2 23 7 30 15 6 7 5 19-2 22-9 5-19-1-18-12v-4l-5-2c-4-2-7-2-15-2s-10 1-15 3c-13 7-20 18-21 33-1 25 16 43 40 42 10-1 19-4 26-10l3-4 7 6 6 6-5 5a61 61 0 01-46 14zm122-1c-15-4-27-16-24-26 0-4 5-9 8-9 4-1 10 1 12 4 2 2 2 4 2 8 0 5 0 5 3 7 4 2 18 3 23 1 7-3 9-6 10-12 1-9-4-13-21-19-15-6-19-8-25-13-6-6-8-12-8-21s3-16 10-22 13-8 26-8c12 0 19 2 26 7 5 3 6 5 8 10 5 11-4 21-14 17-5-2-7-7-7-12 1-4 1-4-3-5-5-2-17-2-21 0-5 3-7 7-7 13 1 7 6 10 22 17 15 6 24 11 28 16 2 4 5 13 5 17 0 5-3 14-6 18-3 5-11 10-18 12s-22 2-29 0z" transform="matrix(.037 0 0 .037 129.3 38.5)"/></g><g fill="#b6b6b6"><path d="M114 269a159 159 0 01-68-70A222 222 0 0124 79v-5l50-21 50-21v26h3c5 0 18 4 24 7l14 11c6 6 9 9 12 17l4 8 1 22v22l-3-5-8-10-5-6v-9l-3-14c-5-14-18-25-34-27h-5v35h-5c-6 0-15 2-24 7-10 4-23 17-28 28-7 12-9 25-7 38a65 65 0 0056 56l8 1v35l-10-5z" transform="matrix(.037 0 0 .037 129.3 38.5)"/><path d="M115 205c-13-4-22-15-23-29s6-26 20-31l4-2v5c0 4 0 5-4 7-12 7-14 23-6 33s22 11 32 2c11-9 9-28-4-35-4-2-4-2-4-7v-5h3c5 1 13 7 17 13 11 17 5 39-13 48-6 2-14 3-22 1z" transform="matrix(.037 0 0 .037 129.3 38.5)"/><path d="M122 186l-2-2v-52l2-2c3-1 3-1 5 1 2 1 2 3 2 26l-1 27c-1 2-3 3-6 2z" transform="matrix(.037 0 0 .037 129.3 38.5)"/></g><g fill="#dbdbdb"><path d="M124 201c0-5 0-5 3-5 4 0 12-5 14-9 4-5 6-12 4-18-1-5-6-12-11-15-3-1-3-1-3-6s0-5 2-4c9 2 18 11 21 19 2 8 2 17-1 24-4 10-17 19-27 19-2 0-2 0-2-5z" transform="matrix(.037 0 0 .037 129.3 38.5)"/><path d="M124 158c0-24 0-28 2-28s3 5 3 28c0 20 0 24-2 26l-2 2-1-28zm-60-31c0-22 1-25 6-37 9-17 29-30 47-32h7v16l-7 1c-22 4-36 21-36 44 0 6 0 6-5 12l-9 12-3 6v-22z" transform="matrix(.037 0 0 .037 129.3 38.5)"/></g><g fill="#fff"><path d="M124 202c0-5 0-5 3-6 20-4 26-30 8-41-4-2-4-3-4-7v-5l4 2c14 5 21 17 20 31-1 15-12 27-27 30h-4v-4z" transform="matrix(.037 0 0 .037 129.3 38.5)"/><path d="M124 158l1-28c3 0 3 3 3 28s0 28-3 28l-1-28zm-59-32c0-17 0-21 2-26 7-22 27-38 51-41l5-1v16h-3c-5 0-14 3-19 6-6 3-14 12-17 19-2 4-2 7-3 15 0 10 0 11-3 14l-8 10-5 7v-19z" transform="matrix(.037 0 0 .037 129.3 38.5)"/></g><text><tspan x="141.1" y="54.7">Women in Cybersecurity</tspan></text></g></svg>