<svg xmlns="http://www.w3.org/2000/svg" xmlns:xlink="http://www.w3.org/1999/xlink" viewBox="0 0 378.14 285.4"><defs><style>.cls-1,.cls-4{fill:none;stroke:red;stroke-miterlimit:10;}.cls-2{isolation:isolate;}.cls-3{clip-path:url(#clip-path);}.cls-4{stroke-width:0.25px;}.cls-5{clip-path:url(#clip-path-2);}.cls-6{clip-path:url(#clip-path-3);}.cls-7{clip-path:url(#clip-path-4);}.cls-8{clip-path:url(#clip-path-5);}.cls-9{clip-path:url(#clip-path-6);}.cls-10{clip-path:url(#clip-path-7);}.cls-11{clip-path:url(#clip-path-8);}.cls-12{clip-path:url(#clip-path-9);}.cls-13{clip-path:url(#clip-path-10);}.cls-14{clip-path:url(#clip-path-11);}.cls-15{clip-path:url(#clip-path-12);}.cls-16{clip-path:url(#clip-path-13);}.cls-17{clip-path:url(#clip-path-14);}.cls-18{clip-path:url(#clip-path-15);}.cls-19{clip-path:url(#clip-path-16);}.cls-20{clip-path:url(#clip-path-17);}.cls-21{clip-path:url(#clip-path-18);}.cls-22{clip-path:url(#clip-path-19);}.cls-23{clip-path:url(#clip-path-20);}.cls-24{clip-path:url(#clip-path-21);}.cls-25{clip-path:url(#clip-path-22);}.cls-26{clip-path:url(#clip-path-23);}.cls-27{clip-path:url(#clip-path-24);}.cls-28{clip-path:url(#clip-path-25);}.cls-29{clip-path:url(#clip-path-26);}.cls-30{clip-path:url(#clip-path-27);}.cls-31{clip-path:url(#clip-path-28);}.cls-32{clip-path:url(#clip-path-29);}.cls-33{clip-path:url(#clip-path-30);}.cls-34{clip-path:url(#clip-path-31);}.cls-35{clip-path:url(#clip-path-32);}.cls-36{clip-path:url(#clip-path-33);}.cls-37{clip-path:url(#clip-path-34);}.cls-38{clip-path:url(#clip-path-35);}.cls-39{clip-path:url(#clip-path-36);}.cls-40{clip-path:url(#clip-path-37);}.cls-41{clip-path:url(#clip-path-38);}.cls-42{clip-path:url(#clip-path-39);}.cls-43{clip-path:url(#clip-path-40);}.cls-44{clip-path:url(#clip-path-41);}.cls-45{clip-path:url(#clip-path-42);}.cls-46{clip-path:url(#clip-path-43);}.cls-47{clip-path:url(#clip-path-44);}.cls-48{clip-path:url(#clip-path-45);}.cls-49{clip-path:url(#clip-path-46);}.cls-50{clip-path:url(#clip-path-47);}.cls-51{clip-path:url(#clip-path-48);}.cls-52{clip-path:url(#clip-path-49);}.cls-53{clip-path:url(#clip-path-50);}.cls-54{clip-path:url(#clip-path-51);}.cls-55{clip-path:url(#clip-path-52);}.cls-56{clip-path:url(#clip-path-53);}.cls-57{clip-path:url(#clip-path-54);}.cls-58{clip-path:url(#clip-path-55);}.cls-59{clip-path:url(#clip-path-56);}.cls-60{clip-path:url(#clip-path-57);}.cls-61{clip-path:url(#clip-path-58);}.cls-62{clip-path:url(#clip-path-59);}.cls-63{clip-path:url(#clip-path-60);}.cls-64{clip-path:url(#clip-path-61);}.cls-65{clip-path:url(#clip-path-62);}.cls-66{clip-path:url(#clip-path-63);}.cls-67{clip-path:url(#clip-path-64);}.cls-68{clip-path:url(#clip-path-65);}.cls-69{clip-path:url(#clip-path-66);}.cls-70{clip-path:url(#clip-path-67);}.cls-71{clip-path:url(#clip-path-68);}.cls-72{clip-path:url(#clip-path-69);}.cls-73{clip-path:url(#clip-path-70);}.cls-74{clip-path:url(#clip-path-71);}.cls-75{clip-path:url(#clip-path-72);}.cls-76{clip-path:url(#clip-path-73);}.cls-77{clip-path:url(#clip-path-74);}.cls-78{clip-path:url(#clip-path-75);}.cls-79{clip-path:url(#clip-path-76);}.cls-80{clip-path:url(#clip-path-77);}.cls-81{clip-path:url(#clip-path-78);}.cls-82{clip-path:url(#clip-path-79);}.cls-83{clip-path:url(#clip-path-80);}.cls-84{clip-path:url(#clip-path-81);}.cls-85{clip-path:url(#clip-path-82);}.cls-86{clip-path:url(#clip-path-83);}.cls-87{clip-path:url(#clip-path-84);}.cls-88{clip-path:url(#clip-path-85);}.cls-89{clip-path:url(#clip-path-86);}.cls-90{clip-path:url(#clip-path-87);}</style><clipPath id="clip-path" transform="translate(96.68)"><polygon class="cls-1" points="41.36 28.44 33.7 111.56 83.26 107.23 81.59 125.44 11.28 131.59 20.62 30.25 41.36 28.44"/></clipPath><clipPath id="clip-path-2" transform="translate(96.68)"><polygon class="cls-1" points="31.25 19.15 23.6 102.27 73.16 97.94 71.48 116.16 1.17 122.31 10.51 20.96 31.25 19.15"/></clipPath><clipPath id="clip-path-3" transform="translate(96.68)"><polygon class="cls-1" points="31.25 19.15 41.36 28.44 33.7 111.56 23.6 102.27 31.25 19.15"/></clipPath><clipPath id="clip-path-4" transform="translate(96.68)"><polygon class="cls-1" points="23.6 102.27 73.16 97.94 83.26 107.23 33.7 111.56 23.6 102.27"/></clipPath><clipPath id="clip-path-5" transform="translate(96.68)"><polygon class="cls-1" points="73.16 97.94 83.26 107.23 81.59 125.44 71.48 116.16 73.16 97.94"/></clipPath><clipPath id="clip-path-6" transform="translate(96.68)"><polygon class="cls-1" points="71.48 116.16 81.59 125.44 11.28 131.59 1.17 122.31 71.48 116.16"/></clipPath><clipPath id="clip-path-7" transform="translate(96.68)"><polygon class="cls-1" points="1.17 122.31 10.51 20.96 20.62 30.25 11.28 131.59 1.17 122.31"/></clipPath><clipPath id="clip-path-8" transform="translate(96.68)"><polygon class="cls-1" points="10.51 20.96 31.25 19.15 41.36 28.44 20.62 30.25 10.51 20.96"/></clipPath><clipPath id="clip-path-9" transform="translate(96.68)"><path class="cls-1" d="M156.72,18.35l25.78,98.27-22.49,2-4.63-20.25-36.56,3.19-8.64,21.42-21.7,1.9L133.25,20.4ZM126.07,83.57l25.43-2.23-8.87-38.78-16.56,41"/></clipPath><clipPath id="clip-path-10" transform="translate(96.68)"><path class="cls-1" d="M146.61,9.06l25.79,98.27-22.5,2L145.28,89l-36.56,3.2-8.65,21.41-21.7,1.9L123.15,11.11ZM116,74.28l25.42-2.23-8.86-38.78L116,74.28"/></clipPath><clipPath id="clip-path-11" transform="translate(96.68)"><polygon class="cls-1" points="146.61 9.06 156.72 18.35 182.5 116.61 172.4 107.33 146.61 9.06"/></clipPath><clipPath id="clip-path-12" transform="translate(96.68)"><polygon class="cls-1" points="172.4 107.33 182.5 116.61 160.01 118.58 149.9 109.3 172.4 107.33"/></clipPath><clipPath id="clip-path-13" transform="translate(96.68)"><polygon class="cls-1" points="149.9 109.3 145.28 89.04 155.38 98.33 160.01 118.58 149.9 109.3"/></clipPath><clipPath id="clip-path-14" transform="translate(96.68)"><polygon class="cls-1" points="145.28 89.04 155.38 98.33 118.83 101.52 108.72 92.24 145.28 89.04"/></clipPath><clipPath id="clip-path-15" transform="translate(96.68)"><polygon class="cls-1" points="108.72 92.24 118.83 101.52 110.18 122.94 100.07 113.66 108.72 92.24"/></clipPath><clipPath id="clip-path-16" transform="translate(96.68)"><polygon class="cls-1" points="100.07 113.66 110.18 122.94 88.48 124.84 78.37 115.55 100.07 113.66"/></clipPath><clipPath id="clip-path-17" transform="translate(96.68)"><polygon class="cls-1" points="78.37 115.55 123.15 11.11 133.25 20.4 88.48 124.84 78.37 115.55"/></clipPath><clipPath id="clip-path-18" transform="translate(96.68)"><polygon class="cls-1" points="123.15 11.11 146.61 9.06 156.72 18.35 133.25 20.4 123.15 11.11"/></clipPath><clipPath id="clip-path-19" transform="translate(96.68)"><polygon class="cls-1" points="115.97 74.28 141.39 72.05 151.5 81.34 126.07 83.56 115.97 74.28"/></clipPath><clipPath id="clip-path-20" transform="translate(96.68)"><polygon class="cls-1" points="141.39 72.05 132.53 33.27 142.63 42.56 151.5 81.34 141.39 72.05"/></clipPath><clipPath id="clip-path-21" transform="translate(96.68)"><polygon class="cls-1" points="132.53 33.27 142.63 42.56 126.07 83.56 115.97 74.28 132.53 33.27"/></clipPath><clipPath id="clip-path-22" transform="translate(96.68)"><path class="cls-1" d="M277.2,63.25q3.3,5.79,2.5,14.51a34.79,34.79,0,0,1-5.91,16.55A36.25,36.25,0,0,1,266,102.9,33.54,33.54,0,0,1,254.35,109a72.6,72.6,0,0,1-14.16,2.6l-44.73,3.91L204.8,14.14l48-4.2q18.14-1.3,24.74,8.55,4,6.06,3.12,15.07-.86,9.27-6,15.32a30.75,30.75,0,0,1-8.1,6.44Q273.9,57.47,277.2,63.25Zm-26,28.13q6.82-3.88,7.69-13.23.74-7.91-5.32-10.31c-2.25-.89-5.51-1.17-9.76-.85l-24.44,2.14-2.49,27L241,94a25.74,25.74,0,0,0,10.21-2.66M223,30l-2.06,22.35L245,50.24a22.34,22.34,0,0,0,10.74-3.43Q260,44,260.63,37.56q.64-7.08-4.47-8.89a34.79,34.79,0,0,0-11.59-.55L223,30"/></clipPath><clipPath id="clip-path-23" transform="translate(96.68)"><path class="cls-1" d="M267.1,54q3.3,5.79,2.5,14.51A35,35,0,0,1,263.69,85a36.29,36.29,0,0,1-7.77,8.59,33.37,33.37,0,0,1-11.68,6.07,72.49,72.49,0,0,1-14.15,2.6l-44.73,3.91L194.69,4.85l48-4.2Q260.79-.65,267.4,9.2q4,6.06,3.13,15.07-.86,9.27-6,15.32A30.61,30.61,0,0,1,256.45,46Q263.8,48.18,267.1,54Zm-26,28.13q6.83-3.89,7.69-13.22.72-7.91-5.33-10.32c-2.25-.89-5.51-1.17-9.76-.85l-24.43,2.14-2.49,27,24.1-2.11a25.84,25.84,0,0,0,10.22-2.66M212.87,20.72l-2.06,22.35L234.94,41a22.48,22.48,0,0,0,10.73-3.43q4.26-2.87,4.85-9.26.64-7.08-4.47-8.88a34.69,34.69,0,0,0-11.58-.56l-21.6,1.89"/></clipPath><clipPath id="clip-path-24" transform="translate(96.68)"><path class="cls-1" d="M267.1,54l10.1,9.29q3.3,5.79,2.5,14.51a34.79,34.79,0,0,1-5.91,16.55L263.69,85a35,35,0,0,0,5.91-16.55Q270.4,59.76,267.1,54Z"/></clipPath><clipPath id="clip-path-25" transform="translate(96.68)"><path class="cls-1" d="M263.69,85l10.1,9.29A36.25,36.25,0,0,1,266,102.9,33.54,33.54,0,0,1,254.35,109a72.6,72.6,0,0,1-14.16,2.6l-10.1-9.29a72.49,72.49,0,0,0,14.15-2.6,33.37,33.37,0,0,0,11.68-6.07A36.29,36.29,0,0,0,263.69,85Z"/></clipPath><clipPath id="clip-path-26" transform="translate(96.68)"><polygon class="cls-1" points="230.09 102.28 240.19 111.57 195.46 115.48 185.36 106.19 230.09 102.28"/></clipPath><clipPath id="clip-path-27" transform="translate(96.68)"><polygon class="cls-1" points="185.36 106.19 194.69 4.85 204.8 14.14 195.46 115.48 185.36 106.19"/></clipPath><clipPath id="clip-path-28" transform="translate(96.68)"><polygon class="cls-1" points="194.69 4.85 242.67 0.65 252.77 9.94 204.8 14.14 194.69 4.85"/></clipPath><clipPath id="clip-path-29" transform="translate(96.68)"><path class="cls-1" d="M264.75,6.11l10.11,9.29a16.76,16.76,0,0,1,2.65,3.09q4,6.06,3.12,15.07-.86,9.27-6,15.32a30.75,30.75,0,0,1-8.1,6.44L256.45,46a30.61,30.61,0,0,0,8.11-6.44q5.12-6,6-15.32.83-9-3.13-15.07A17.44,17.44,0,0,0,264.75,6.11Z"/></clipPath><clipPath id="clip-path-30" transform="translate(96.68)"><path class="cls-1" d="M274.86,15.4q-7.11-6.54-22.09-5.46L242.67.65q15-1.08,22.08,5.46Z"/></clipPath><clipPath id="clip-path-31" transform="translate(96.68)"><path class="cls-1" d="M264.06,50.15l10.11,9.28a15.85,15.85,0,0,1,3,3.82L267.1,54A15.65,15.65,0,0,0,264.06,50.15Z"/></clipPath><clipPath id="clip-path-32" transform="translate(96.68)"><path class="cls-1" d="M274.17,59.43a19,19,0,0,0-7.61-4.11L256.45,46a18.85,18.85,0,0,1,7.61,4.12Z"/></clipPath><clipPath id="clip-path-33" transform="translate(96.68)"><path class="cls-1" d="M246.23,60.24l10.1,9.29a9,9,0,0,0-2.76-1.69c-2.25-.89-5.51-1.17-9.76-.85L233.7,57.7c4.25-.32,7.51,0,9.76.85A9,9,0,0,1,246.23,60.24Z"/></clipPath><clipPath id="clip-path-34" transform="translate(96.68)"><path class="cls-1" d="M256.33,69.53q3.09,2.85,2.56,8.62-.86,9.36-7.69,13.23l-10.1-9.29q6.83-3.89,7.69-13.22.53-5.79-2.56-8.63Z"/></clipPath><clipPath id="clip-path-35" transform="translate(96.68)"><polygon class="cls-1" points="233.7 57.7 243.81 66.99 219.37 69.13 209.27 59.84 233.7 57.7"/></clipPath><clipPath id="clip-path-36" transform="translate(96.68)"><polygon class="cls-1" points="209.27 59.84 219.37 69.13 216.88 96.15 206.78 86.86 209.27 59.84"/></clipPath><clipPath id="clip-path-37" transform="translate(96.68)"><polygon class="cls-1" points="206.78 86.86 230.88 84.75 240.99 94.04 216.88 96.15 206.78 86.86"/></clipPath><clipPath id="clip-path-38" transform="translate(96.68)"><path class="cls-1" d="M230.88,84.75a25.84,25.84,0,0,0,10.22-2.66l10.1,9.29A25.74,25.74,0,0,1,241,94Z"/></clipPath><clipPath id="clip-path-39" transform="translate(96.68)"><polygon class="cls-1" points="212.87 20.72 222.98 30.01 220.92 52.35 210.81 43.07 212.87 20.72"/></clipPath><clipPath id="clip-path-40" transform="translate(96.68)"><polygon class="cls-1" points="210.81 43.07 234.94 40.96 245.04 50.24 220.92 52.35 210.81 43.07"/></clipPath><clipPath id="clip-path-41" transform="translate(96.68)"><path class="cls-1" d="M248.43,20.77l10.1,9.29a6.94,6.94,0,0,0-2.37-1.39l-10.11-9.28A6.87,6.87,0,0,1,248.43,20.77Z"/></clipPath><clipPath id="clip-path-42" transform="translate(96.68)"><path class="cls-1" d="M258.53,30.06q2.57,2.36,2.1,7.5-.6,6.39-4.85,9.25A22.34,22.34,0,0,1,245,50.24L234.94,41a22.48,22.48,0,0,0,10.73-3.43q4.26-2.87,4.85-9.26c.32-3.42-.38-5.93-2.09-7.5Z"/></clipPath><clipPath id="clip-path-43" transform="translate(96.68)"><path class="cls-1" d="M246.05,19.39l10.11,9.28a34.79,34.79,0,0,0-11.59-.55l-10.1-9.29A34.69,34.69,0,0,1,246.05,19.39Z"/></clipPath><clipPath id="clip-path-44" transform="translate(96.68)"><polygon class="cls-1" points="234.47 18.83 244.57 28.12 222.98 30.01 212.87 20.72 234.47 18.83"/></clipPath><clipPath id="clip-path-45" transform="translate(96.68)"><path class="cls-1" d="M96.39,183.37q4.35,13,2.33,34.91-2,21.32-8.63,36-12.72,28-40,30.42Q37,285.88,27.37,279T17.58,257.2l22.68-2a11.38,11.38,0,0,0,3.53,8q3.23,2.93,9.05,2.42,11.25-1,17-14,3.11-7.18,5-20.61a32,32,0,0,1-7.19,6.66A34,34,0,0,1,51.53,243Q37.7,244.2,27.9,235.45t-8.14-27Q21.5,189.59,33.33,177a43.64,43.64,0,0,1,29-14.14Q88.75,160.5,96.39,183.37ZM67.32,220.23q8.22-5.7,9.36-18.1.91-10-3.14-15.39T61.5,182a18.25,18.25,0,0,0-10.29,4.2q-7,5.76-8.17,18.15-1,10.46,2.75,15.31t12.42,4.1a18.54,18.54,0,0,0,9.11-3.53"/></clipPath><clipPath id="clip-path-46" transform="translate(96.68)"><path class="cls-1" d="M86.29,174.09Q90.64,187,88.62,209q-2,21.3-8.63,36-12.73,28-40,30.42-13,1.14-22.68-5.77t-9.8-21.77l22.68-2a11.35,11.35,0,0,0,3.54,8q3.21,2.94,9.05,2.42,11.25-1,17-14,3.12-7.19,5-20.6a32.38,32.38,0,0,1-7.19,6.65,34,34,0,0,1-16.09,5.26q-13.82,1.22-23.63-7.53t-8.13-27q1.74-18.88,13.56-31.52a43.63,43.63,0,0,1,29-14.15Q78.64,151.21,86.29,174.09ZM57.22,210.94q8.2-5.7,9.35-18.1.92-10-3.14-15.39t-12-4.74a18.22,18.22,0,0,0-10.28,4.2q-7,5.76-8.18,18.15-1,10.45,2.76,15.31t12.41,4.1a18.48,18.48,0,0,0,9.12-3.53"/></clipPath><clipPath id="clip-path-47" transform="translate(96.68)"><path class="cls-1" d="M15.12,267.94q-7.53-6.92-7.65-20l10.11,9.29q.11,13.11,7.65,20Z"/></clipPath><clipPath id="clip-path-48" transform="translate(96.68)"><path class="cls-1" d="M25.23,277.23l-10.11-9.29a21.49,21.49,0,0,0,2.15,1.74q9.66,6.92,22.68,5.77Q67.26,273.07,80,245q6.66-14.73,8.63-36,2-22-2.33-34.91l10.1,9.28q4.35,13,2.33,34.91-2,21.32-8.63,36-12.72,28-40,30.42Q37,285.88,27.37,279A21.36,21.36,0,0,1,25.23,277.23Z"/></clipPath><clipPath id="clip-path-49" transform="translate(96.68)"><polygon class="cls-1" points="7.47 247.91 30.15 245.93 40.26 255.22 17.57 257.2 7.47 247.91"/></clipPath><clipPath id="clip-path-50" transform="translate(96.68)"><path class="cls-1" d="M30.15,245.93l10.11,9.29a11.38,11.38,0,0,0,3.53,8L33.69,254A11.35,11.35,0,0,1,30.15,245.93Z"/></clipPath><clipPath id="clip-path-51" transform="translate(96.68)"><path class="cls-1" d="M33.69,254q3.21,2.94,9.05,2.42,11.25-1,17-14,3.12-7.19,5-20.6l10.1,9.28q-1.86,13.42-5,20.61-5.73,13-17,14-5.84.51-9.05-2.42Z"/></clipPath><clipPath id="clip-path-52" transform="translate(96.68)"><path class="cls-1" d="M17.53,225.92Q8,217.18,9.66,199.19q1.74-18.88,13.56-31.52a43.63,43.63,0,0,1,29-14.15q16.56-1.46,25.75,7l10.1,9.29q-9.18-8.45-25.74-7a43.64,43.64,0,0,0-29,14.14q-11.82,12.66-13.57,31.53-1.65,18,7.87,26.73Z"/></clipPath><clipPath id="clip-path-53" transform="translate(96.68)"><path class="cls-1" d="M27.63,235.21l-10.1-9.29.26.24q9.81,8.75,23.63,7.53a34,34,0,0,0,16.09-5.26,32.38,32.38,0,0,0,7.19-6.65l10.1,9.28a32,32,0,0,1-7.19,6.66A34,34,0,0,1,51.53,243Q37.7,244.2,27.9,235.45Z"/></clipPath><clipPath id="clip-path-54" transform="translate(96.68)"><path class="cls-1" d="M78,160.51l10.1,9.29a31.55,31.55,0,0,1,8.33,13.57l-10.1-9.28A31.68,31.68,0,0,0,78,160.51Z"/></clipPath><clipPath id="clip-path-55" transform="translate(96.68)"><path class="cls-1" d="M61.9,175.74,72,185q-3.91-3.6-10.5-3a18.25,18.25,0,0,0-10.29,4.2q-7,5.76-8.17,18.15-1,10.46,2.75,15.31A10,10,0,0,0,47,220.93l-10.11-9.29a9.91,9.91,0,0,1-1.15-1.27q-3.72-4.86-2.76-15.31,1.16-12.39,8.18-18.15a18.22,18.22,0,0,1,10.28-4.2Q58,172.14,61.9,175.74Z"/></clipPath><clipPath id="clip-path-56" transform="translate(96.68)"><path class="cls-1" d="M72,185a11.55,11.55,0,0,1,1.54,1.71q4.06,5.43,3.14,15.39-1.14,12.39-9.36,18.1l-10.1-9.29q8.2-5.7,9.35-18.1.92-10-3.14-15.39a12.59,12.59,0,0,0-1.53-1.71Z"/></clipPath><clipPath id="clip-path-57" transform="translate(96.68)"><path class="cls-1" d="M36.84,211.64q3.79,3.48,11.26,2.83a18.48,18.48,0,0,0,9.12-3.53l10.1,9.29a18.54,18.54,0,0,1-9.11,3.53q-7.47.65-11.26-2.83Z"/></clipPath><clipPath id="clip-path-58" transform="translate(96.68)"><path class="cls-1" d="M184,219.58a33.28,33.28,0,0,1,2.68,17.53q-1.36,14.82-13.16,26.18t-31.21,13.06q-19.42,1.69-28.46-7.84t-7.67-24.36a41.83,41.83,0,0,1,6-18.29,36.47,36.47,0,0,1,14-13.2q-7.89-4.92-9.81-11.31A31.89,31.89,0,0,1,115,189.22q1.19-12.81,11.54-22.67t27.72-11.39q17.37-1.51,26.07,6.69t7.51,21a39,39,0,0,1-3.66,12.58q-3.1,6.83-11.95,12.41A24.85,24.85,0,0,1,184,219.58Zm-26.33,31.88q4.88-5.18,5.67-13.84.84-9-3.25-13.25c-2.72-2.84-6.64-4.05-11.75-3.6a19.4,19.4,0,0,0-12.61,5.73q-4.94,5-5.77,14-.8,8.67,3.19,13.06T145,257.31a19.08,19.08,0,0,0,12.7-5.85m-16.17-72.79a17.52,17.52,0,0,0-4.89,11.23q-.6,6.4,2.92,10.11t10.4,3.11a16.82,16.82,0,0,0,11.14-5,17.57,17.57,0,0,0,4.77-10.79q.65-7-2.8-10.56t-10.41-3a17.19,17.19,0,0,0-11.13,4.88"/></clipPath><clipPath id="clip-path-59" transform="translate(96.68)"><path class="cls-1" d="M173.87,210.3a33.34,33.34,0,0,1,2.69,17.52Q175.2,242.64,163.4,254t-31.22,13.06q-19.43,1.69-28.46-7.84t-7.67-24.36a41.89,41.89,0,0,1,6.06-18.28,36.25,36.25,0,0,1,14-13.2q-7.91-4.94-9.81-11.32a31.89,31.89,0,0,1-1.39-12.13q1.18-12.81,11.53-22.67t27.73-11.39q17.37-1.51,26.06,6.69t7.52,21a39.5,39.5,0,0,1-3.66,12.57Q171,193,162.15,198.54A24.81,24.81,0,0,1,173.87,210.3Zm-26.32,31.87q4.88-5.17,5.67-13.83.83-9-3.26-13.26t-11.75-3.6a19.35,19.35,0,0,0-12.6,5.73q-5,5.06-5.77,14c-.54,5.77.53,10.13,3.19,13.05s6.6,4.17,11.82,3.71a19.1,19.1,0,0,0,12.7-5.85m-16.18-72.79a17.65,17.65,0,0,0-4.89,11.23q-.58,6.4,2.93,10.11t10.39,3.11a16.8,16.8,0,0,0,11.15-5,17.48,17.48,0,0,0,4.76-10.79c.43-4.64-.51-8.16-2.79-10.56s-5.77-3.39-10.42-3a17.22,17.22,0,0,0-11.13,4.88"/></clipPath><clipPath id="clip-path-60" transform="translate(96.68)"><path class="cls-1" d="M104.83,260.31c-.38-.35-.75-.71-1.11-1.09q-9-9.53-7.67-24.36a41.89,41.89,0,0,1,6.06-18.28,36.25,36.25,0,0,1,14-13.2l10.1,9.28a36.47,36.47,0,0,0-14,13.2,41.83,41.83,0,0,0-6,18.29q-1.36,14.82,7.67,24.36c.35.38.72.74,1.1,1.09Z"/></clipPath><clipPath id="clip-path-61" transform="translate(96.68)"><path class="cls-1" d="M114.93,269.6l-10.1-9.29q9.08,8.35,27.35,6.75,19.44-1.69,31.22-13.06t13.16-26.18a33.34,33.34,0,0,0-2.69-17.52L184,219.58a33.28,33.28,0,0,1,2.68,17.53q-1.36,14.82-13.16,26.18t-31.21,13.06Q124,277.94,114.93,269.6Z"/></clipPath><clipPath id="clip-path-62" transform="translate(96.68)"><path class="cls-1" d="M111.5,199.91a17.59,17.59,0,0,1-5.19-7.85,31.89,31.89,0,0,1-1.39-12.13q1.18-12.81,11.53-22.67t27.73-11.39q17.16-1.5,25.85,6.49l10.11,9.29q-8.7-8-25.86-6.49-17.35,1.51-27.72,11.39T115,189.22a31.89,31.89,0,0,0,1.39,12.13,17.53,17.53,0,0,0,5.2,7.85Z"/></clipPath><clipPath id="clip-path-63" transform="translate(96.68)"><path class="cls-1" d="M121.61,209.2l-10.11-9.29a31.62,31.62,0,0,0,4.62,3.47l10.1,9.28A31,31,0,0,1,121.61,209.2Z"/></clipPath><clipPath id="clip-path-64" transform="translate(96.68)"><path class="cls-1" d="M170,152.36l10.11,9.29.21.2q8.68,8.19,7.51,21a39,39,0,0,1-3.66,12.58q-3.1,6.83-11.95,12.41l-10.1-9.29Q171,193,174.1,186.13a39.5,39.5,0,0,0,3.66-12.57q1.17-12.81-7.52-21Z"/></clipPath><clipPath id="clip-path-65" transform="translate(96.68)"><path class="cls-1" d="M168.39,202.81l10.1,9.29a23.91,23.91,0,0,1,5.49,7.48l-10.11-9.28A23.65,23.65,0,0,0,168.39,202.81Z"/></clipPath><clipPath id="clip-path-66" transform="translate(96.68)"><path class="cls-1" d="M178.49,212.1a27.38,27.38,0,0,0-6.24-4.27l-10.1-9.29a27.38,27.38,0,0,1,6.24,4.27Z"/></clipPath><clipPath id="clip-path-67" transform="translate(96.68)"><path class="cls-1" d="M149.45,214.57l10.1,9.29q-4-3.72-11.23-3.09a19.4,19.4,0,0,0-12.61,5.73q-4.94,5-5.77,14-.8,8.67,3.19,13.06c.23.25.46.48.7.7L123.72,245a9.13,9.13,0,0,1-.69-.7c-2.66-2.92-3.73-7.28-3.19-13.05q.82-9,5.77-14a19.35,19.35,0,0,1,12.6-5.73C143,211.06,146.75,212.1,149.45,214.57Z"/></clipPath><clipPath id="clip-path-68" transform="translate(96.68)"><path class="cls-1" d="M159.55,223.86c.18.16.35.33.52.51q4.08,4.26,3.25,13.25-.8,8.67-5.67,13.84l-10.1-9.29q4.88-5.17,5.67-13.83.83-9-3.26-13.26c-.16-.18-.34-.35-.51-.51Z"/></clipPath><clipPath id="clip-path-69" transform="translate(96.68)"><path class="cls-1" d="M123.72,245q4,3.65,11.13,3a19.1,19.1,0,0,0,12.7-5.85l10.1,9.29a19.08,19.08,0,0,1-12.7,5.85q-7.17.63-11.12-3Z"/></clipPath><clipPath id="clip-path-70" transform="translate(96.68)"><path class="cls-1" d="M129.88,191.19q3.48,3.21,9.92,2.64a16.8,16.8,0,0,0,11.15-5,17.48,17.48,0,0,0,4.76-10.79c.43-4.64-.51-8.16-2.79-10.56l-.42-.41,10.1,9.29a5.44,5.44,0,0,1,.42.41q3.43,3.6,2.8,10.56a17.57,17.57,0,0,1-4.77,10.79,16.82,16.82,0,0,1-11.14,5c-4.3.38-7.6-.51-9.92-2.64Z"/></clipPath><clipPath id="clip-path-71" transform="translate(96.68)"><path class="cls-1" d="M140,200.48l-10.11-9.29-.47-.47q-3.52-3.71-2.93-10.11a17.65,17.65,0,0,1,4.89-11.23l10.11,9.29a17.52,17.52,0,0,0-4.89,11.23q-.6,6.4,2.92,10.11C139.66,200.17,139.82,200.33,140,200.48Z"/></clipPath><clipPath id="clip-path-72" transform="translate(96.68)"><path class="cls-1" d="M152.5,167.08l10.1,9.29q-3.43-3.15-10-2.58a17.19,17.19,0,0,0-11.13,4.88l-10.11-9.29a17.22,17.22,0,0,1,11.13-4.88Q149.07,163.93,152.5,167.08Z"/></clipPath><clipPath id="clip-path-73" transform="translate(96.68)"><path class="cls-1" d="M280.28,146.23l-1.81,19.6L231.18,170l-6.51,26a60.06,60.06,0,0,1,8.64-5.33,38.07,38.07,0,0,1,12.21-2.92q14.37-1.24,24.15,7.61T277.73,223q-1.5,16.29-13,30t-32,15.49q-16.51,1.44-26.3-6.62T197,237.33l22.68-2q.66,7.41,4.11,11.17t10.78,3.12A18.23,18.23,0,0,0,248,242.47a29.23,29.23,0,0,0,5.83-15.58q.82-9-2.75-14.83T238.76,207a23.91,23.91,0,0,0-7.27,1.68,18.46,18.46,0,0,0-8.71,7.91l-20.32.81,14.11-65.6Z"/></clipPath><clipPath id="clip-path-74" transform="translate(96.68)"><path class="cls-1" d="M270.18,136.94l-1.81,19.61-47.3,4.13-6.5,26a59.41,59.41,0,0,1,8.64-5.34,37.76,37.76,0,0,1,12.21-2.91q14.36-1.26,24.14,7.61t8.06,27.57q-1.5,16.29-13,30t-32,15.49q-16.51,1.46-26.3-6.62T186.92,228l22.68-2q.66,7.42,4.11,11.18t10.77,3.11a18.24,18.24,0,0,0,13.43-7.16,29.27,29.27,0,0,0,5.82-15.58c.56-6-.37-10.93-2.74-14.83s-6.5-5.57-12.34-5.06a24,24,0,0,0-7.27,1.68,18.55,18.55,0,0,0-8.71,7.91l-20.31.82,14.1-65.6Z"/></clipPath><clipPath id="clip-path-75" transform="translate(96.68)"><polygon class="cls-1" points="270.18 136.94 280.28 146.23 278.47 165.83 268.37 156.55 270.18 136.94"/></clipPath><clipPath id="clip-path-76" transform="translate(96.68)"><polygon class="cls-1" points="268.37 156.55 278.47 165.83 231.18 169.97 221.07 160.68 268.37 156.55"/></clipPath><clipPath id="clip-path-77" transform="translate(96.68)"><polygon class="cls-1" points="221.07 160.68 231.18 169.97 224.67 196.01 214.57 186.73 221.07 160.68"/></clipPath><clipPath id="clip-path-78" transform="translate(96.68)"><path class="cls-1" d="M195.38,251.66q-8.77-8.06-8.46-23.62l10.1,9.29q-.3,15.55,8.47,23.62Z"/></clipPath><clipPath id="clip-path-79" transform="translate(96.68)"><path class="cls-1" d="M205.49,261l-10.11-9.29c.32.3.65.59,1,.86q9.8,8.07,26.3,6.62,20.51-1.78,32-15.49t13-30q1.72-18.71-8.06-27.57l10.11,9.28q9.78,8.87,8.06,27.58-1.5,16.29-13,30t-32,15.49q-16.51,1.44-26.3-6.62C206.14,261.53,205.81,261.25,205.49,261Z"/></clipPath><clipPath id="clip-path-80" transform="translate(96.68)"><path class="cls-1" d="M214.57,186.73a59.41,59.41,0,0,1,8.64-5.34,37.76,37.76,0,0,1,12.21-2.91q14.36-1.26,24.14,7.61l10.11,9.28q-9.78-8.87-24.15-7.61a38.07,38.07,0,0,0-12.21,2.92,60.06,60.06,0,0,0-8.64,5.33Z"/></clipPath><clipPath id="clip-path-81" transform="translate(96.68)"><polygon class="cls-1" points="186.92 228.04 209.6 226.05 219.7 235.34 197.02 237.32 186.92 228.04"/></clipPath><clipPath id="clip-path-82" transform="translate(96.68)"><path class="cls-1" d="M214.24,237.75q3.45,3.18,10.24,2.59a18.24,18.24,0,0,0,13.43-7.16,29.27,29.27,0,0,0,5.82-15.58c.56-6-.37-10.93-2.74-14.83a11,11,0,0,0-1.86-2.28l10.1,9.29a10.41,10.41,0,0,1,1.86,2.28q3.57,5.83,2.75,14.83A29.23,29.23,0,0,1,248,242.47a18.23,18.23,0,0,1-13.42,7.16q-6.79.6-10.25-2.59Z"/></clipPath><clipPath id="clip-path-83" transform="translate(96.68)"><path class="cls-1" d="M224.34,247l-10.1-9.29a6.5,6.5,0,0,1-.53-.52q-3.45-3.76-4.11-11.18l10.1,9.29q.66,7.41,4.11,11.17C224,246.7,224.16,246.87,224.34,247Z"/></clipPath><clipPath id="clip-path-84" transform="translate(96.68)"><path class="cls-1" d="M239.13,200.49l10.1,9.29q-3.67-3.37-10.47-2.78a23.91,23.91,0,0,0-7.27,1.68,18.46,18.46,0,0,0-8.71,7.91l-10.11-9.29a18.55,18.55,0,0,1,8.71-7.91,24,24,0,0,1,7.27-1.68Q235.45,197.11,239.13,200.49Z"/></clipPath><clipPath id="clip-path-85" transform="translate(96.68)"><polygon class="cls-1" points="212.67 207.3 222.78 216.59 202.46 217.4 192.36 208.12 212.67 207.3"/></clipPath><clipPath id="clip-path-86" transform="translate(96.68)"><polygon class="cls-1" points="192.36 208.12 206.46 142.52 216.57 151.8 202.46 217.4 192.36 208.12"/></clipPath><clipPath id="clip-path-87" transform="translate(96.68)"><polygon class="cls-1" points="206.46 142.52 270.18 136.94 280.28 146.23 216.57 151.8 206.46 142.52"/></clipPath></defs><g id="Layer_2" data-name="Layer 2"><g id="Слой_2" data-name="Слой 2"><g class="cls-2"><g class="cls-2"><g class="cls-3"><polygon class="cls-4" points="138.04 28.44 130.38 111.56 179.95 107.23 178.27 125.44 107.96 131.59 117.3 30.25 138.04 28.44"/><path class="cls-4" d="M-41.13,86.05c-5.91.52-10.14-.57-12.72-3.27s-3.59-7-3-12.87q1-10.47,8-15.43a20.82,20.82,0,0,1,10.41-3.7c5.42-.47,9.53.79,12.34,3.81s4,7.33,3.45,12.94q-1,10.47-9.24,15.41a21.12,21.12,0,0,1-9.23,3.11m3.21-51.48Q-55.38,36.1-67.22,47a40.15,40.15,0,0,0-13.32,26.8q-1.41,15.39,8.72,22.63t24.19,6a39.78,39.78,0,0,0,16.3-4.69A31.41,31.41,0,0,0-24.1,92q-1.7,11.34-4.76,17.46-5.61,11.07-17.07,12.08-5.93.52-9.25-1.9a9,9,0,0,1-3.73-6.74l-23.08,2q.38,12.52,10.33,18.21t23.2,4.52q27.78-2.43,40.3-26.27Q-1.61,98.83.05,80.82,1.76,62.27-2.88,51.4q-8.15-19.17-35-16.83" transform="translate(96.68)"/><path class="cls-4" d="M47.78,113q-8,.7-12.1-3t-3.46-11q.7-7.59,5.65-11.93a21.64,21.64,0,0,1,12.75-5c5.2-.46,9.21.5,12,2.85s4,6.07,3.53,11.13a17.41,17.41,0,0,1-5.55,11.76q-4.89,4.44-12.85,5.13M52,67.25q-7,.61-10.64-2.47T38.18,56.3A13.76,13.76,0,0,1,43,46.75q4.25-3.68,11.26-4.28c4.73-.42,8.27.37,10.65,2.36s3.39,4.94,3,8.87a13.71,13.71,0,0,1-4.69,9.17c-2.79,2.51-6.55,4-11.27,4.38m3.69-40.52Q38,28.28,27.58,36.75T16.2,56.05a22.67,22.67,0,0,0,1.6,10.21q2.06,5.35,10.18,9.4A35,35,0,0,0,13.92,87,31.43,31.43,0,0,0,8,102.53Q6.89,115.06,16.24,123t29.12,6.19q19.77-1.74,31.6-11.5T90,95.37a24,24,0,0,0-3-14.75q-3.78-6.39-12.13-9.73,8.91-4.86,12-10.66A28.64,28.64,0,0,0,90.3,49.56q1-10.8-8-17.6T55.65,26.73" transform="translate(96.68)"/><path class="cls-4" d="M183.86,17.27,119,22.94,105.72,78.5l20.69-1a17.86,17.86,0,0,1,8.75-6.81,28.09,28.09,0,0,1,7.37-1.53q8.92-.78,12.66,4.09t3,12.47A22.15,22.15,0,0,1,152.53,99q-5,5.49-13.56,6.24c-5,.43-8.64-.38-11-2.47s-3.84-5.19-4.37-9.36l-23.08,2q-.06,13.86,10,20.52t26.89,5.18q20.88-1.83,32.33-13.56T182.49,82q1.45-15.81-8.65-23.15t-24.72-6a44.85,44.85,0,0,0-12.39,2.65A62,62,0,0,0,128,60.12l6.22-22.07,48.11-4.21,1.52-16.57" transform="translate(96.68)"/></g><polygon class="cls-1" points="138.04 28.44 130.38 111.56 179.95 107.23 178.27 125.44 107.96 131.59 117.3 30.25 138.04 28.44"/></g><g class="cls-2"><g class="cls-5"><polygon class="cls-4" points="127.94 19.15 120.28 102.27 169.84 97.94 168.16 116.16 97.86 122.31 107.19 20.96 127.94 19.15"/><polyline class="cls-4" points="30.19 27.92 9.44 29.73 0.14 130.64 70.49 124.49 72.16 106.34 22.57 110.68 30.19 27.92"/><path class="cls-4" d="M18.31,82.77,34.86,41.93l8.89,38.61L18.31,82.77M49,17.82,25.46,19.87l-44.75,104L2.42,122l8.64-21.33,36.58-3.2,4.64,20.17,22.51-2L49,17.82" transform="translate(96.68)"/><path class="cls-4" d="M109.19,95.26l2.48-26.91,24.45-2.14c4.26-.32,7.51,0,9.77.85q6,2.39,5.33,10.26-.85,9.32-7.69,13.17a26,26,0,0,1-10.22,2.66l-24.12,2.11m4-43.61,2.05-22.25,21.61-1.89a34.77,34.77,0,0,1,11.59.55q5.13,1.79,4.48,8.84-.58,6.38-4.86,9.22a22.55,22.55,0,0,1-10.73,3.42l-24.14,2.11M145.07,9.41l-48,4.2L87.77,114.52l44.75-3.92a72,72,0,0,0,14.17-2.6,33.29,33.29,0,0,0,11.69-6,36.06,36.06,0,0,0,7.76-8.55,34.68,34.68,0,0,0,5.91-16.48q.8-8.69-2.51-14.45t-10.66-7.89A31,31,0,0,0,167,48.17q5.12-6,6-15.26.82-9-3.14-15-6.6-9.83-24.75-8.5" transform="translate(96.68)"/></g><polygon class="cls-1" points="127.94 19.15 120.28 102.27 169.84 97.94 168.16 116.16 97.86 122.31 107.19 20.96 127.94 19.15"/></g><g class="cls-2"><g class="cls-6"><polygon class="cls-4" points="127.94 19.15 138.04 28.44 130.38 111.56 120.28 102.27 127.94 19.15"/></g><polygon class="cls-1" points="127.94 19.15 138.04 28.44 130.38 111.56 120.28 102.27 127.94 19.15"/></g><g class="cls-2"><g class="cls-7"><polygon class="cls-4" points="120.28 102.27 169.84 97.94 179.95 107.23 130.38 111.56 120.28 102.27"/></g><polygon class="cls-1" points="120.28 102.27 169.84 97.94 179.95 107.23 130.38 111.56 120.28 102.27"/></g><g class="cls-2"><g class="cls-8"><polygon class="cls-4" points="169.84 97.94 179.95 107.23 178.27 125.44 168.16 116.16 169.84 97.94"/></g><polygon class="cls-1" points="169.84 97.94 179.95 107.23 178.27 125.44 168.16 116.16 169.84 97.94"/></g><g class="cls-2"><g class="cls-9"><polygon class="cls-4" points="168.16 116.16 178.27 125.44 107.96 131.59 97.86 122.31 168.16 116.16"/></g><polygon class="cls-1" points="168.16 116.16 178.27 125.44 107.96 131.59 97.86 122.31 168.16 116.16"/></g><g class="cls-2"><g class="cls-10"><polygon class="cls-4" points="97.86 122.31 107.19 20.96 117.3 30.25 107.96 131.59 97.86 122.31"/></g><polygon class="cls-1" points="97.86 122.31 107.19 20.96 117.3 30.25 107.96 131.59 97.86 122.31"/></g><g class="cls-2"><g class="cls-11"><polygon class="cls-4" points="107.19 20.96 127.94 19.15 138.04 28.44 117.3 30.25 107.19 20.96"/></g><polygon class="cls-1" points="107.19 20.96 127.94 19.15 138.04 28.44 117.3 30.25 107.19 20.96"/></g><g class="cls-2"><g class="cls-12"><path class="cls-4" d="M156.72,18.35l25.78,98.27-22.49,2-4.63-20.25-36.56,3.19-8.64,21.42-21.7,1.9L133.25,20.4ZM126.07,83.57l25.43-2.23-8.87-38.78-16.56,41" transform="translate(96.68)"/></g><path class="cls-1" d="M156.72,18.35l25.78,98.27-22.49,2-4.63-20.25-36.56,3.19-8.64,21.42-21.7,1.9L133.25,20.4ZM126.07,83.57l25.43-2.23-8.87-38.78-16.56,41" transform="translate(96.68)"/></g><g class="cls-2"><g class="cls-13"><path class="cls-4" d="M146.61,9.06l25.79,98.27-22.5,2L145.28,89l-36.56,3.2-8.65,21.41-21.7,1.9L123.15,11.11ZM116,74.28l25.42-2.23-8.86-38.78L116,74.28" transform="translate(96.68)"/></g><path class="cls-1" d="M146.61,9.06l25.79,98.27-22.5,2L145.28,89l-36.56,3.2-8.65,21.41-21.7,1.9L123.15,11.11ZM116,74.28l25.42-2.23-8.86-38.78L116,74.28" transform="translate(96.68)"/></g><g class="cls-2"><g class="cls-14"><polygon class="cls-4" points="243.3 9.06 253.4 18.35 279.19 116.61 269.08 107.33 243.3 9.06"/></g><polygon class="cls-1" points="243.3 9.06 253.4 18.35 279.19 116.61 269.08 107.33 243.3 9.06"/></g><g class="cls-2"><g class="cls-15"><polygon class="cls-4" points="269.08 107.33 279.19 116.61 256.69 118.58 246.59 109.3 269.08 107.33"/></g><polygon class="cls-1" points="269.08 107.33 279.19 116.61 256.69 118.58 246.59 109.3 269.08 107.33"/></g><g class="cls-2"><g class="cls-16"><polygon class="cls-4" points="246.59 109.3 241.96 89.04 252.06 98.33 256.69 118.58 246.59 109.3"/></g><polygon class="cls-1" points="246.59 109.3 241.96 89.04 252.06 98.33 256.69 118.58 246.59 109.3"/></g><g class="cls-2"><g class="cls-17"><polygon class="cls-4" points="241.96 89.04 252.06 98.33 215.51 101.52 205.4 92.24 241.96 89.04"/></g><polygon class="cls-1" points="241.96 89.04 252.06 98.33 215.51 101.52 205.4 92.24 241.96 89.04"/></g><g class="cls-2"><g class="cls-18"><polygon class="cls-4" points="205.4 92.24 215.51 101.52 206.86 122.94 196.76 113.66 205.4 92.24"/></g><polygon class="cls-1" points="205.4 92.24 215.51 101.52 206.86 122.94 196.76 113.66 205.4 92.24"/></g><g class="cls-2"><g class="cls-19"><polygon class="cls-4" points="196.76 113.66 206.86 122.94 185.16 124.84 175.06 115.55 196.76 113.66"/></g><polygon class="cls-1" points="196.76 113.66 206.86 122.94 185.16 124.84 175.06 115.55 196.76 113.66"/></g><g class="cls-2"><g class="cls-20"><polygon class="cls-4" points="175.06 115.55 219.83 11.11 229.94 20.4 185.16 124.84 175.06 115.55"/></g><polygon class="cls-1" points="175.06 115.55 219.83 11.11 229.94 20.4 185.16 124.84 175.06 115.55"/></g><g class="cls-2"><g class="cls-21"><polygon class="cls-4" points="219.83 11.11 243.3 9.06 253.4 18.35 229.94 20.4 219.83 11.11"/></g><polygon class="cls-1" points="219.83 11.11 243.3 9.06 253.4 18.35 229.94 20.4 219.83 11.11"/></g><g class="cls-2"><g class="cls-22"><polygon class="cls-4" points="212.65 74.28 238.08 72.05 248.18 81.34 222.75 83.56 212.65 74.28"/></g><polygon class="cls-1" points="212.65 74.28 238.08 72.05 248.18 81.34 222.75 83.56 212.65 74.28"/></g><g class="cls-2"><g class="cls-23"><polygon class="cls-4" points="238.08 72.05 229.21 33.27 239.31 42.56 248.18 81.34 238.08 72.05"/></g><polygon class="cls-1" points="238.08 72.05 229.21 33.27 239.31 42.56 248.18 81.34 238.08 72.05"/></g><g class="cls-2"><g class="cls-24"><polygon class="cls-4" points="229.21 33.27 239.31 42.56 222.75 83.56 212.65 74.28 229.21 33.27"/></g><polygon class="cls-1" points="229.21 33.27 239.31 42.56 222.75 83.56 212.65 74.28 229.21 33.27"/></g><g class="cls-2"><g class="cls-25"><path class="cls-4" d="M277.2,63.25q3.3,5.79,2.5,14.51a34.79,34.79,0,0,1-5.91,16.55A36.25,36.25,0,0,1,266,102.9,33.54,33.54,0,0,1,254.35,109a72.6,72.6,0,0,1-14.16,2.6l-44.73,3.91L204.8,14.14l48-4.2q18.14-1.3,24.74,8.55,4,6.06,3.12,15.07-.86,9.27-6,15.32a30.75,30.75,0,0,1-8.1,6.44Q273.9,57.47,277.2,63.25Zm-26,28.13q6.82-3.88,7.69-13.23.74-7.91-5.32-10.31c-2.25-.89-5.51-1.17-9.76-.85l-24.44,2.14-2.49,27L241,94a25.74,25.74,0,0,0,10.21-2.66M223,30l-2.06,22.35L245,50.24a22.34,22.34,0,0,0,10.74-3.43Q260,44,260.63,37.56q.64-7.08-4.47-8.89a34.79,34.79,0,0,0-11.59-.55L223,30" transform="translate(96.68)"/></g><path class="cls-1" d="M277.2,63.25q3.3,5.79,2.5,14.51a34.79,34.79,0,0,1-5.91,16.55A36.25,36.25,0,0,1,266,102.9,33.54,33.54,0,0,1,254.35,109a72.6,72.6,0,0,1-14.16,2.6l-44.73,3.91L204.8,14.14l48-4.2q18.14-1.3,24.74,8.55,4,6.06,3.12,15.07-.86,9.27-6,15.32a30.75,30.75,0,0,1-8.1,6.44Q273.9,57.47,277.2,63.25Zm-26,28.13q6.82-3.88,7.69-13.23.74-7.91-5.32-10.31c-2.25-.89-5.51-1.17-9.76-.85l-24.44,2.14-2.49,27L241,94a25.74,25.74,0,0,0,10.21-2.66M223,30l-2.06,22.35L245,50.24a22.34,22.34,0,0,0,10.74-3.43Q260,44,260.63,37.56q.64-7.08-4.47-8.89a34.79,34.79,0,0,0-11.59-.55L223,30" transform="translate(96.68)"/></g><g class="cls-2"><g class="cls-26"><path class="cls-4" d="M267.1,54q3.3,5.79,2.5,14.51A35,35,0,0,1,263.69,85a36.29,36.29,0,0,1-7.77,8.59,33.37,33.37,0,0,1-11.68,6.07,72.49,72.49,0,0,1-14.15,2.6l-44.73,3.91L194.69,4.85l48-4.2Q260.79-.65,267.4,9.2q4,6.06,3.13,15.07-.86,9.27-6,15.32A30.61,30.61,0,0,1,256.45,46Q263.8,48.18,267.1,54Zm-26,28.13q6.83-3.89,7.69-13.22.72-7.91-5.33-10.32c-2.25-.89-5.51-1.17-9.76-.85l-24.43,2.14-2.49,27,24.1-2.11a25.84,25.84,0,0,0,10.22-2.66M212.87,20.72l-2.06,22.35L234.94,41a22.48,22.48,0,0,0,10.73-3.43q4.26-2.87,4.85-9.26.64-7.08-4.47-8.88a34.69,34.69,0,0,0-11.58-.56l-21.6,1.89" transform="translate(96.68)"/></g><path class="cls-1" d="M267.1,54q3.3,5.79,2.5,14.51A35,35,0,0,1,263.69,85a36.29,36.29,0,0,1-7.77,8.59,33.37,33.37,0,0,1-11.68,6.07,72.49,72.49,0,0,1-14.15,2.6l-44.73,3.91L194.69,4.85l48-4.2Q260.79-.65,267.4,9.2q4,6.06,3.13,15.07-.86,9.27-6,15.32A30.61,30.61,0,0,1,256.45,46Q263.8,48.18,267.1,54Zm-26,28.13q6.83-3.89,7.69-13.22.72-7.91-5.33-10.32c-2.25-.89-5.51-1.17-9.76-.85l-24.43,2.14-2.49,27,24.1-2.11a25.84,25.84,0,0,0,10.22-2.66M212.87,20.72l-2.06,22.35L234.94,41a22.48,22.48,0,0,0,10.73-3.43q4.26-2.87,4.85-9.26.64-7.08-4.47-8.88a34.69,34.69,0,0,0-11.58-.56l-21.6,1.89" transform="translate(96.68)"/></g><g class="cls-2"><g class="cls-27"><g class="cls-2"><path class="cls-4" d="M267.1,54l10.1,9.29q3.3,5.79,2.5,14.51l-10.1-9.29Q270.4,59.76,267.1,54Z" transform="translate(96.68)"/><line class="cls-4" x1="365.53" y1="58.15" x2="375.63" y2="67.43"/><line class="cls-4" x1="366.36" y1="62.98" x2="376.46" y2="72.27"/><path class="cls-4" d="M269.6,68.47l10.1,9.29a34.79,34.79,0,0,1-5.91,16.55L263.69,85A35,35,0,0,0,269.6,68.47Z" transform="translate(96.68)"/><line class="cls-4" x1="365.25" y1="74.32" x2="375.36" y2="83.6"/><line class="cls-4" x1="363.28" y1="79.83" x2="373.39" y2="89.12"/></g><path class="cls-4" d="M267.1,54l10.1,9.29q3.3,5.79,2.5,14.51a34.79,34.79,0,0,1-5.91,16.55L263.69,85a35,35,0,0,0,5.91-16.55Q270.4,59.76,267.1,54Z" transform="translate(96.68)"/></g><path class="cls-1" d="M267.1,54l10.1,9.29q3.3,5.79,2.5,14.51a34.79,34.79,0,0,1-5.91,16.55L263.69,85a35,35,0,0,0,5.91-16.55Q270.4,59.76,267.1,54Z" transform="translate(96.68)"/></g><g class="cls-2"><g class="cls-28"><g class="cls-2"><path class="cls-4" d="M263.69,85l10.1,9.29A36.25,36.25,0,0,1,266,102.9l-10.11-9.29A36.29,36.29,0,0,0,263.69,85Z" transform="translate(96.68)"/><line class="cls-4" x1="358.06" y1="88.19" x2="368.17" y2="97.48"/><line class="cls-4" x1="355.47" y1="91.05" x2="365.58" y2="100.34"/><path class="cls-4" d="M255.92,93.61,266,102.9A33.54,33.54,0,0,1,254.35,109l-10.11-9.29A33.37,33.37,0,0,0,255.92,93.61Z" transform="translate(96.68)"/><line class="cls-4" x1="349.04" y1="96.12" x2="359.15" y2="105.41"/><line class="cls-4" x1="345.15" y1="98.14" x2="355.25" y2="107.43"/><path class="cls-4" d="M244.24,99.68,254.35,109a72.6,72.6,0,0,1-14.16,2.6l-10.1-9.29A72.49,72.49,0,0,0,244.24,99.68Z" transform="translate(96.68)"/><line class="cls-4" x1="336.42" y1="100.83" x2="346.53" y2="110.12"/><line class="cls-4" x1="331.71" y1="101.7" x2="341.81" y2="110.99"/></g><path class="cls-4" d="M263.69,85l10.1,9.29A36.25,36.25,0,0,1,266,102.9,33.54,33.54,0,0,1,254.35,109a72.6,72.6,0,0,1-14.16,2.6l-10.1-9.29a72.49,72.49,0,0,0,14.15-2.6,33.37,33.37,0,0,0,11.68-6.07A36.29,36.29,0,0,0,263.69,85Z" transform="translate(96.68)"/></g><path class="cls-1" d="M263.69,85l10.1,9.29A36.25,36.25,0,0,1,266,102.9,33.54,33.54,0,0,1,254.35,109a72.6,72.6,0,0,1-14.16,2.6l-10.1-9.29a72.49,72.49,0,0,0,14.15-2.6,33.37,33.37,0,0,0,11.68-6.07A36.29,36.29,0,0,0,263.69,85Z" transform="translate(96.68)"/></g><g class="cls-2"><g class="cls-29"><polygon class="cls-4" points="326.77 102.28 336.88 111.57 292.15 115.48 282.04 106.19 326.77 102.28"/></g><polygon class="cls-1" points="326.77 102.28 336.88 111.57 292.15 115.48 282.04 106.19 326.77 102.28"/></g><g class="cls-2"><g class="cls-30"><polygon class="cls-4" points="282.04 106.19 291.38 4.85 301.48 14.14 292.15 115.48 282.04 106.19"/></g><polygon class="cls-1" points="282.04 106.19 291.38 4.85 301.48 14.14 292.15 115.48 282.04 106.19"/></g><g class="cls-2"><g class="cls-31"><polygon class="cls-4" points="291.38 4.85 339.35 0.65 349.45 9.94 301.48 14.14 291.38 4.85"/></g><polygon class="cls-1" points="291.38 4.85 339.35 0.65 349.45 9.94 301.48 14.14 291.38 4.85"/></g><g class="cls-2"><g class="cls-32"><g class="cls-2"><path class="cls-4" d="M242.67.65l10.1,9.29q18.14-1.3,24.74,8.55L267.4,9.2Q260.8-.65,242.67.65Z" transform="translate(96.68)"/><path class="cls-4" d="M267.4,9.2l10.11,9.29q4,6.06,3.12,15.07l-10.1-9.29Q271.36,15.27,267.4,9.2Z" transform="translate(96.68)"/><line class="cls-4" x1="366.19" y1="13.57" x2="376.3" y2="22.86"/><line class="cls-4" x1="367.23" y1="18.59" x2="377.34" y2="27.88"/><path class="cls-4" d="M270.53,24.27l10.1,9.29q-.86,9.27-6,15.32l-10.1-9.29Q269.68,33.55,270.53,24.27Z" transform="translate(96.68)"/><line class="cls-4" x1="366.17" y1="30.1" x2="376.27" y2="39.38"/><line class="cls-4" x1="364.18" y1="35.2" x2="374.28" y2="44.49"/><path class="cls-4" d="M264.56,39.59l10.1,9.29a30.75,30.75,0,0,1-8.1,6.44L256.45,46A30.61,30.61,0,0,0,264.56,39.59Z" transform="translate(96.68)"/><line class="cls-4" x1="359.07" y1="41.81" x2="369.18" y2="51.1"/><line class="cls-4" x1="356.37" y1="43.96" x2="366.47" y2="53.25"/></g><path class="cls-4" d="M264.75,6.11l10.11,9.29a16.76,16.76,0,0,1,2.65,3.09q4,6.06,3.12,15.07-.86,9.27-6,15.32a30.75,30.75,0,0,1-8.1,6.44L256.45,46a30.61,30.61,0,0,0,8.11-6.44q5.12-6,6-15.32.83-9-3.13-15.07A17.44,17.44,0,0,0,264.75,6.11Z" transform="translate(96.68)"/></g><path class="cls-1" d="M264.75,6.11l10.11,9.29a16.76,16.76,0,0,1,2.65,3.09q4,6.06,3.12,15.07-.86,9.27-6,15.32a30.75,30.75,0,0,1-8.1,6.44L256.45,46a30.61,30.61,0,0,0,8.11-6.44q5.12-6,6-15.32.83-9-3.13-15.07A17.44,17.44,0,0,0,264.75,6.11Z" transform="translate(96.68)"/></g><g class="cls-2"><g class="cls-33"><g class="cls-2"><path class="cls-4" d="M242.67.65l10.1,9.29q18.14-1.3,24.74,8.55L267.4,9.2Q260.8-.65,242.67.65Z" transform="translate(96.68)"/><line class="cls-4" x1="350.16" y1="1.02" x2="360.26" y2="10.31"/><line class="cls-4" x1="358.4" y1="3.87" x2="368.51" y2="13.16"/></g><path class="cls-4" d="M274.86,15.4q-7.11-6.54-22.09-5.46L242.67.65q15-1.08,22.08,5.46Z" transform="translate(96.68)"/></g><path class="cls-1" d="M274.86,15.4q-7.11-6.54-22.09-5.46L242.67.65q15-1.08,22.08,5.46Z" transform="translate(96.68)"/></g><g class="cls-2"><g class="cls-34"><g class="cls-2"><path class="cls-4" d="M256.45,46l10.11,9.29q7.33,2.15,10.64,7.93L267.1,54Q263.8,48.19,256.45,46Z" transform="translate(96.68)"/><line class="cls-4" x1="361.13" y1="50.51" x2="371.24" y2="59.8"/></g><path class="cls-4" d="M264.06,50.15l10.11,9.28a15.85,15.85,0,0,1,3,3.82L267.1,54A15.65,15.65,0,0,0,264.06,50.15Z" transform="translate(96.68)"/></g><path class="cls-1" d="M264.06,50.15l10.11,9.28a15.85,15.85,0,0,1,3,3.82L267.1,54A15.65,15.65,0,0,0,264.06,50.15Z" transform="translate(96.68)"/></g><g class="cls-2"><g class="cls-35"><g class="cls-2"><path class="cls-4" d="M256.45,46l10.11,9.29q7.33,2.15,10.64,7.93L267.1,54Q263.8,48.19,256.45,46Z" transform="translate(96.68)"/><line class="cls-4" x1="357.58" y1="47.87" x2="367.69" y2="57.16"/></g><path class="cls-4" d="M274.17,59.43a19,19,0,0,0-7.61-4.11L256.45,46a18.85,18.85,0,0,1,7.61,4.12Z" transform="translate(96.68)"/></g><path class="cls-1" d="M274.17,59.43a19,19,0,0,0-7.61-4.11L256.45,46a18.85,18.85,0,0,1,7.61,4.12Z" transform="translate(96.68)"/></g><g class="cls-2"><g class="cls-36"><g class="cls-2"><path class="cls-4" d="M248.79,68.87l10.1,9.28q.74-7.91-5.32-10.31l-10.11-9.29Q249.52,61,248.79,68.87Z" transform="translate(96.68)"/><path class="cls-4" d="M243.46,58.55l10.11,9.29c-2.25-.89-5.51-1.17-9.76-.85L233.7,57.7C238,57.38,241.21,57.66,243.46,58.55Z" transform="translate(96.68)"/><line class="cls-4" x1="337.56" y1="57.86" x2="347.67" y2="67.15"/><line class="cls-4" x1="334.31" y1="57.58" x2="344.41" y2="66.87"/></g><path class="cls-4" d="M246.23,60.24l10.1,9.29a9,9,0,0,0-2.76-1.69c-2.25-.89-5.51-1.17-9.76-.85L233.7,57.7c4.25-.32,7.51,0,9.76.85A9,9,0,0,1,246.23,60.24Z" transform="translate(96.68)"/></g><path class="cls-1" d="M246.23,60.24l10.1,9.29a9,9,0,0,0-2.76-1.69c-2.25-.89-5.51-1.17-9.76-.85L233.7,57.7c4.25-.32,7.51,0,9.76.85A9,9,0,0,1,246.23,60.24Z" transform="translate(96.68)"/></g><g class="cls-2"><g class="cls-37"><g class="cls-2"><path class="cls-4" d="M241.1,82.09l10.1,9.29q6.82-3.88,7.69-13.23l-10.1-9.28Q247.92,78.21,241.1,82.09Z" transform="translate(96.68)"/><line class="cls-4" x1="341.67" y1="78.9" x2="351.77" y2="88.18"/><line class="cls-4" x1="344.23" y1="74.49" x2="354.34" y2="83.78"/><path class="cls-4" d="M248.79,68.87l10.1,9.28q.74-7.91-5.32-10.31l-10.11-9.29Q249.52,61,248.79,68.87Z" transform="translate(96.68)"/><line class="cls-4" x1="345.2" y1="64.21" x2="355.31" y2="73.49"/><line class="cls-4" x1="343.43" y1="60.77" x2="353.53" y2="70.06"/></g><path class="cls-4" d="M256.33,69.53q3.09,2.85,2.56,8.62-.86,9.36-7.69,13.23l-10.1-9.29q6.83-3.89,7.69-13.22.53-5.79-2.56-8.63Z" transform="translate(96.68)"/></g><path class="cls-1" d="M256.33,69.53q3.09,2.85,2.56,8.62-.86,9.36-7.69,13.23l-10.1-9.29q6.83-3.89,7.69-13.22.53-5.79-2.56-8.63Z" transform="translate(96.68)"/></g><g class="cls-2"><g class="cls-38"><polygon class="cls-4" points="330.39 57.7 340.49 66.99 316.06 69.13 305.95 59.84 330.39 57.7"/></g><polygon class="cls-1" points="330.39 57.7 340.49 66.99 316.06 69.13 305.95 59.84 330.39 57.7"/></g><g class="cls-2"><g class="cls-39"><polygon class="cls-4" points="305.95 59.84 316.06 69.13 313.57 96.15 303.46 86.86 305.95 59.84"/></g><polygon class="cls-1" points="305.95 59.84 316.06 69.13 313.57 96.15 303.46 86.86 305.95 59.84"/></g><g class="cls-2"><g class="cls-40"><polygon class="cls-4" points="303.46 86.86 327.56 84.75 337.67 94.04 313.57 96.15 303.46 86.86"/></g><polygon class="cls-1" points="303.46 86.86 327.56 84.75 337.67 94.04 313.57 96.15 303.46 86.86"/></g><g class="cls-2"><g class="cls-41"><g class="cls-2"><path class="cls-4" d="M230.88,84.75,241,94a25.74,25.74,0,0,0,10.21-2.66l-10.1-9.29A25.84,25.84,0,0,1,230.88,84.75Z" transform="translate(96.68)"/><line class="cls-4" x1="331.57" y1="84.2" x2="341.67" y2="93.49"/><line class="cls-4" x1="334.97" y1="83.32" x2="345.08" y2="92.61"/></g><path class="cls-4" d="M230.88,84.75a25.84,25.84,0,0,0,10.22-2.66l10.1,9.29A25.74,25.74,0,0,1,241,94Z" transform="translate(96.68)"/></g><path class="cls-1" d="M230.88,84.75a25.84,25.84,0,0,0,10.22-2.66l10.1,9.29A25.74,25.74,0,0,1,241,94Z" transform="translate(96.68)"/></g><g class="cls-2"><g class="cls-42"><polygon class="cls-4" points="309.56 20.72 319.66 30.01 317.6 52.35 307.5 43.07 309.56 20.72"/></g><polygon class="cls-1" points="309.56 20.72 319.66 30.01 317.6 52.35 307.5 43.07 309.56 20.72"/></g><g class="cls-2"><g class="cls-43"><polygon class="cls-4" points="307.5 43.07 331.62 40.96 341.73 50.24 317.6 52.35 307.5 43.07"/></g><polygon class="cls-1" points="307.5 43.07 331.62 40.96 341.73 50.24 317.6 52.35 307.5 43.07"/></g><g class="cls-2"><g class="cls-44"><g class="cls-2"><path class="cls-4" d="M250.52,28.27l10.11,9.29q.64-7.08-4.47-8.89l-10.11-9.28Q251.17,21.19,250.52,28.27Z" transform="translate(96.68)"/></g><path class="cls-4" d="M248.43,20.77l10.1,9.29a6.94,6.94,0,0,0-2.37-1.39l-10.11-9.28A6.87,6.87,0,0,1,248.43,20.77Z" transform="translate(96.68)"/></g><path class="cls-1" d="M248.43,20.77l10.1,9.29a6.94,6.94,0,0,0-2.37-1.39l-10.11-9.28A6.87,6.87,0,0,1,248.43,20.77Z" transform="translate(96.68)"/></g><g class="cls-2"><g class="cls-45"><g class="cls-2"><path class="cls-4" d="M234.94,41,245,50.24a22.34,22.34,0,0,0,10.74-3.43l-10.11-9.28A22.48,22.48,0,0,1,234.94,41Z" transform="translate(96.68)"/><line class="cls-4" x1="335.69" y1="40.32" x2="345.79" y2="49.61"/><line class="cls-4" x1="339.27" y1="39.18" x2="349.37" y2="48.47"/><path class="cls-4" d="M245.67,37.53l10.11,9.28Q260,44,260.63,37.56l-10.11-9.29Q249.94,34.66,245.67,37.53Z" transform="translate(96.68)"/><line class="cls-4" x1="344.79" y1="35.23" x2="354.89" y2="44.51"/><line class="cls-4" x1="346.4" y1="32.14" x2="356.51" y2="41.43"/><path class="cls-4" d="M250.52,28.27l10.11,9.29q.64-7.08-4.47-8.89l-10.11-9.28Q251.17,21.19,250.52,28.27Z" transform="translate(96.68)"/><line class="cls-4" x1="347" y1="24.14" x2="357.1" y2="33.43"/><line class="cls-4" x1="345.51" y1="21.17" x2="355.61" y2="30.46"/></g><path class="cls-4" d="M258.53,30.06q2.57,2.36,2.1,7.5-.6,6.39-4.85,9.25A22.34,22.34,0,0,1,245,50.24L234.94,41a22.48,22.48,0,0,0,10.73-3.43q4.26-2.87,4.85-9.26c.32-3.42-.38-5.93-2.09-7.5Z" transform="translate(96.68)"/></g><path class="cls-1" d="M258.53,30.06q2.57,2.36,2.1,7.5-.6,6.39-4.85,9.25A22.34,22.34,0,0,1,245,50.24L234.94,41a22.48,22.48,0,0,0,10.73-3.43q4.26-2.87,4.85-9.26c.32-3.42-.38-5.93-2.09-7.5Z" transform="translate(96.68)"/></g><g class="cls-2"><g class="cls-46"><g class="cls-2"><path class="cls-4" d="M246.05,19.39l10.11,9.28a34.79,34.79,0,0,0-11.59-.55l-10.1-9.29A34.69,34.69,0,0,1,246.05,19.39Z" transform="translate(96.68)"/><line class="cls-4" x1="339.47" y1="18.8" x2="349.57" y2="28.09"/><line class="cls-4" x1="335.61" y1="18.62" x2="345.71" y2="27.9"/></g><path class="cls-4" d="M246.05,19.39l10.11,9.28a34.79,34.79,0,0,0-11.59-.55l-10.1-9.29A34.69,34.69,0,0,1,246.05,19.39Z" transform="translate(96.68)"/></g><path class="cls-1" d="M246.05,19.39l10.11,9.28a34.79,34.79,0,0,0-11.59-.55l-10.1-9.29A34.69,34.69,0,0,1,246.05,19.39Z" transform="translate(96.68)"/></g><g class="cls-2"><g class="cls-47"><polygon class="cls-4" points="331.15 18.83 341.26 28.12 319.66 30.01 309.56 20.72 331.15 18.83"/></g><polygon class="cls-1" points="331.15 18.83 341.26 28.12 319.66 30.01 309.56 20.72 331.15 18.83"/></g></g><g class="cls-2"><g class="cls-2"><g class="cls-48"><path class="cls-4" d="M96.39,183.37q4.35,13,2.33,34.91-2,21.32-8.63,36-12.72,28-40,30.42Q37,285.88,27.37,279T17.58,257.2l22.68-2a11.38,11.38,0,0,0,3.53,8q3.23,2.93,9.05,2.42,11.25-1,17-14,3.11-7.18,5-20.61a32,32,0,0,1-7.19,6.66A34,34,0,0,1,51.53,243Q37.7,244.2,27.9,235.45t-8.14-27Q21.5,189.59,33.33,177a43.64,43.64,0,0,1,29-14.14Q88.75,160.5,96.39,183.37ZM67.32,220.23q8.22-5.7,9.36-18.1.91-10-3.14-15.39T61.5,182a18.25,18.25,0,0,0-10.29,4.2q-7,5.76-8.17,18.15-1,10.46,2.75,15.31t12.42,4.1a18.54,18.54,0,0,0,9.11-3.53" transform="translate(96.68)"/><path class="cls-4" d="M-33.93,231.79c-5.91.52-10.14-.57-12.72-3.27s-3.59-7-3-12.87q1-10.47,8-15.43a20.82,20.82,0,0,1,10.42-3.7c5.41-.47,9.52.79,12.33,3.81s4,7.33,3.45,12.94q-1,10.47-9.24,15.41a21.12,21.12,0,0,1-9.23,3.11m3.21-51.48q-17.46,1.53-29.3,12.38a40.15,40.15,0,0,0-13.32,26.8q-1.41,15.39,8.72,22.63t24.19,6a39.87,39.87,0,0,0,16.31-4.69,31.58,31.58,0,0,0,7.22-5.72q-1.7,11.34-4.76,17.46-5.61,11.07-17.07,12.08-5.93.53-9.25-1.9a9,9,0,0,1-3.73-6.74l-23.08,2q.38,12.53,10.33,18.21t23.2,4.52q27.78-2.43,40.3-26.27,6.56-12.52,8.21-30.53Q9,208,4.32,197.14q-8.15-19.17-35-16.83" transform="translate(96.68)"/><path class="cls-4" d="M55,258.78q-8,.71-12.1-2.95t-3.46-11q.7-7.59,5.65-11.93a21.64,21.64,0,0,1,12.75-5c5.2-.46,9.22.5,12,2.85s4,6.07,3.53,11.13a17.41,17.41,0,0,1-5.55,11.76q-4.89,4.44-12.85,5.13M59.16,213q-7,.62-10.64-2.47T45.38,202a13.76,13.76,0,0,1,4.8-9.55q4.24-3.68,11.26-4.28c4.73-.42,8.27.37,10.65,2.36s3.39,4.94,3,8.87a13.71,13.71,0,0,1-4.69,9.17c-2.79,2.51-6.54,4-11.27,4.38m3.69-40.52q-17.67,1.54-28.07,10T23.4,201.79A22.67,22.67,0,0,0,25,212q2.05,5.35,10.18,9.4a35,35,0,0,0-14.06,11.35,31.43,31.43,0,0,0-5.88,15.52q-1.15,12.53,8.2,20.43t29.13,6.19q19.75-1.74,31.59-11.5t13-22.28a24,24,0,0,0-3-14.75Q90.35,220,82,216.63q8.91-4.86,12-10.66A28.78,28.78,0,0,0,97.5,195.3q1-10.8-8-17.6t-26.66-5.23" transform="translate(96.68)"/><path class="cls-4" d="M191.06,163l-64.82,5.67-13.32,55.56,20.69-1a17.9,17.9,0,0,1,8.75-6.81,28.18,28.18,0,0,1,7.37-1.53q8.93-.78,12.66,4.09t3,12.47a22.15,22.15,0,0,1-5.68,13.23q-5,5.49-13.56,6.24c-5,.43-8.64-.38-11-2.47s-3.84-5.19-4.37-9.36l-23.08,2q-.06,13.86,10,20.52t26.89,5.18Q165.5,265,177,253.27t12.74-25.49Q191.15,212,181,204.63t-24.72-6a44.85,44.85,0,0,0-12.39,2.65,62,62,0,0,0-8.72,4.63l6.22-22.07,48.11-4.21L191.06,163" transform="translate(96.68)"/></g><path class="cls-1" d="M96.39,183.37q4.35,13,2.33,34.91-2,21.32-8.63,36-12.72,28-40,30.42Q37,285.88,27.37,279T17.58,257.2l22.68-2a11.38,11.38,0,0,0,3.53,8q3.23,2.93,9.05,2.42,11.25-1,17-14,3.11-7.18,5-20.61a32,32,0,0,1-7.19,6.66A34,34,0,0,1,51.53,243Q37.7,244.2,27.9,235.45t-8.14-27Q21.5,189.59,33.33,177a43.64,43.64,0,0,1,29-14.14Q88.75,160.5,96.39,183.37ZM67.32,220.23q8.22-5.7,9.36-18.1.91-10-3.14-15.39T61.5,182a18.25,18.25,0,0,0-10.29,4.2q-7,5.76-8.17,18.15-1,10.46,2.75,15.31t12.42,4.1a18.54,18.54,0,0,0,9.11-3.53" transform="translate(96.68)"/></g><g class="cls-2"><g class="cls-49"><path class="cls-4" d="M86.29,174.09Q90.64,187,88.62,209q-2,21.3-8.63,36-12.73,28-40,30.42-13,1.14-22.68-5.77t-9.8-21.77l22.68-2a11.35,11.35,0,0,0,3.54,8q3.21,2.94,9.05,2.42,11.25-1,17-14,3.12-7.19,5-20.6a32.38,32.38,0,0,1-7.19,6.65,34,34,0,0,1-16.09,5.26q-13.82,1.22-23.63-7.53t-8.13-27q1.74-18.88,13.56-31.52a43.63,43.63,0,0,1,29-14.15Q78.64,151.21,86.29,174.09ZM57.22,210.94q8.2-5.7,9.35-18.1.92-10-3.14-15.39t-12-4.74a18.22,18.22,0,0,0-10.28,4.2q-7,5.76-8.18,18.15-1,10.45,2.76,15.31t12.41,4.1a18.48,18.48,0,0,0,9.12-3.53" transform="translate(96.68)"/><polyline class="cls-4" points="37.39 173.66 16.64 175.47 7.34 276.38 77.69 270.23 79.36 252.08 29.77 256.42 37.39 173.66"/><path class="cls-4" d="M25.51,228.51l16.55-40.84L51,226.28l-25.44,2.23m30.64-64.95-23.49,2.05-44.75,104,21.71-1.89,8.64-21.34,36.58-3.2,4.64,20.17,22.51-2L56.15,163.56" transform="translate(96.68)"/><path class="cls-4" d="M116.39,241l2.48-26.91L143.32,212q6.39-.48,9.77.85,6,2.38,5.33,10.26-.85,9.31-7.69,13.17a26,26,0,0,1-10.22,2.66L116.39,241m4-43.61,2-22.25,21.61-1.89a34.77,34.77,0,0,1,11.59.55q5.13,1.78,4.48,8.84-.58,6.38-4.86,9.22a22.55,22.55,0,0,1-10.73,3.42l-24.14,2.11m31.86-42.24-48,4.2L95,260.26l44.75-3.92a72,72,0,0,0,14.17-2.6,33.29,33.29,0,0,0,11.69-6.05,36.06,36.06,0,0,0,7.76-8.55,34.68,34.68,0,0,0,5.91-16.48q.8-8.68-2.51-14.45t-10.66-7.89a30.8,30.8,0,0,0,8.11-6.41q5.12-6,6-15.26.83-9-3.14-15-6.6-9.83-24.75-8.5" transform="translate(96.68)"/></g><path class="cls-1" d="M86.29,174.09Q90.64,187,88.62,209q-2,21.3-8.63,36-12.73,28-40,30.42-13,1.14-22.68-5.77t-9.8-21.77l22.68-2a11.35,11.35,0,0,0,3.54,8q3.21,2.94,9.05,2.42,11.25-1,17-14,3.12-7.19,5-20.6a32.38,32.38,0,0,1-7.19,6.65,34,34,0,0,1-16.09,5.26q-13.82,1.22-23.63-7.53t-8.13-27q1.74-18.88,13.56-31.52a43.63,43.63,0,0,1,29-14.15Q78.64,151.21,86.29,174.09ZM57.22,210.94q8.2-5.7,9.35-18.1.92-10-3.14-15.39t-12-4.74a18.22,18.22,0,0,0-10.28,4.2q-7,5.76-8.18,18.15-1,10.45,2.76,15.31t12.41,4.1a18.48,18.48,0,0,0,9.12-3.53" transform="translate(96.68)"/></g><g class="cls-2"><g class="cls-50"><g class="cls-2"><path class="cls-4" d="M17.27,269.68,27.37,279q-9.66-6.92-9.79-21.77L7.47,247.91Q7.61,262.77,17.27,269.68Z" transform="translate(96.68)"/><line class="cls-4" x1="108.57" y1="264.19" x2="118.67" y2="273.48"/><line class="cls-4" x1="105.3" y1="256.94" x2="115.41" y2="266.22"/></g><path class="cls-4" d="M15.12,267.94q-7.53-6.92-7.65-20l10.11,9.29q.11,13.11,7.65,20Z" transform="translate(96.68)"/></g><path class="cls-1" d="M15.12,267.94q-7.53-6.92-7.65-20l10.11,9.29q.11,13.11,7.65,20Z" transform="translate(96.68)"/></g><g class="cls-2"><g class="cls-51"><g class="cls-2"><path class="cls-4" d="M86.29,174.09l10.1,9.28q4.35,13,2.33,34.91L88.62,209Q90.63,187,86.29,174.09Z" transform="translate(96.68)"/><line class="cls-4" x1="185.16" y1="183.72" x2="195.27" y2="193.01"/><line class="cls-4" x1="185.94" y1="195.36" x2="196.04" y2="204.65"/><path class="cls-4" d="M88.62,209l10.1,9.28q-2,21.32-8.63,36L80,245Q86.65,230.3,88.62,209Z" transform="translate(96.68)"/><line class="cls-4" x1="183.47" y1="222.47" x2="193.57" y2="231.76"/><line class="cls-4" x1="180.59" y1="234.48" x2="190.7" y2="243.77"/><path class="cls-4" d="M80,245l10.1,9.29q-12.72,28-40,30.42L40,275.45Q67.26,273.07,80,245Z" transform="translate(96.68)"/><line class="cls-4" x1="166.57" y1="260.87" x2="176.67" y2="270.15"/><line class="cls-4" x1="153.22" y1="271.01" x2="163.33" y2="280.3"/><path class="cls-4" d="M40,275.45l10.11,9.29Q37,285.88,27.37,279l-10.1-9.29Q26.93,276.6,40,275.45Z" transform="translate(96.68)"/><line class="cls-4" x1="128.33" y1="275.32" x2="138.43" y2="284.6"/><line class="cls-4" x1="120.77" y1="273.39" x2="130.87" y2="282.68"/><path class="cls-4" d="M17.27,269.68,27.37,279q-9.66-6.92-9.79-21.77L7.47,247.91Q7.61,262.77,17.27,269.68Z" transform="translate(96.68)"/></g><path class="cls-4" d="M25.23,277.23l-10.11-9.29a21.49,21.49,0,0,0,2.15,1.74q9.66,6.92,22.68,5.77Q67.26,273.07,80,245q6.66-14.73,8.63-36,2-22-2.33-34.91l10.1,9.28q4.35,13,2.33,34.91-2,21.32-8.63,36-12.72,28-40,30.42Q37,285.88,27.37,279A21.36,21.36,0,0,1,25.23,277.23Z" transform="translate(96.68)"/></g><path class="cls-1" d="M25.23,277.23l-10.11-9.29a21.49,21.49,0,0,0,2.15,1.74q9.66,6.92,22.68,5.77Q67.26,273.07,80,245q6.66-14.73,8.63-36,2-22-2.33-34.91l10.1,9.28q4.35,13,2.33,34.91-2,21.32-8.63,36-12.72,28-40,30.42Q37,285.88,27.37,279A21.36,21.36,0,0,1,25.23,277.23Z" transform="translate(96.68)"/></g><g class="cls-2"><g class="cls-52"><polygon class="cls-4" points="104.15 247.91 126.83 245.93 136.94 255.22 114.26 257.2 104.15 247.91"/></g><polygon class="cls-1" points="104.15 247.91 126.83 245.93 136.94 255.22 114.26 257.2 104.15 247.91"/></g><g class="cls-2"><g class="cls-53"><g class="cls-2"><path class="cls-4" d="M30.15,245.93l10.11,9.29a11.38,11.38,0,0,0,3.53,8L33.69,254A11.35,11.35,0,0,1,30.15,245.93Z" transform="translate(96.68)"/><line class="cls-4" x1="127.37" y1="249.1" x2="137.47" y2="258.39"/><line class="cls-4" x1="128.55" y1="251.78" x2="138.65" y2="261.07"/></g><path class="cls-4" d="M30.15,245.93l10.11,9.29a11.38,11.38,0,0,0,3.53,8L33.69,254A11.35,11.35,0,0,1,30.15,245.93Z" transform="translate(96.68)"/></g><path class="cls-1" d="M30.15,245.93l10.11,9.29a11.38,11.38,0,0,0,3.53,8L33.69,254A11.35,11.35,0,0,1,30.15,245.93Z" transform="translate(96.68)"/></g><g class="cls-2"><g class="cls-54"><g class="cls-2"><path class="cls-4" d="M33.69,254l10.1,9.29q3.23,2.93,9.05,2.42l-10.1-9.29Q36.91,256.91,33.69,254Z" transform="translate(96.68)"/><line class="cls-4" x1="132.81" y1="255.55" x2="142.91" y2="264.84"/><line class="cls-4" x1="135.82" y1="256.36" x2="145.93" y2="265.65"/><path class="cls-4" d="M42.74,256.4l10.1,9.29q11.25-1,17-14l-10.11-9.29Q54,255.42,42.74,256.4Z" transform="translate(96.68)"/><line class="cls-4" x1="146.31" y1="254.41" x2="156.41" y2="263.69"/><line class="cls-4" x1="151.97" y1="249.73" x2="162.07" y2="259.02"/><path class="cls-4" d="M59.71,242.38l10.11,9.29q3.11-7.18,5-20.61l-10.1-9.28Q62.83,235.21,59.71,242.38Z" transform="translate(96.68)"/><line class="cls-4" x1="158.33" y1="236.9" x2="168.44" y2="246.19"/><line class="cls-4" x1="160" y1="230.03" x2="170.1" y2="239.32"/></g><path class="cls-4" d="M33.69,254q3.21,2.94,9.05,2.42,11.25-1,17-14,3.12-7.19,5-20.6l10.1,9.28q-1.86,13.42-5,20.61-5.73,13-17,14-5.84.51-9.05-2.42Z" transform="translate(96.68)"/></g><path class="cls-1" d="M33.69,254q3.21,2.94,9.05,2.42,11.25-1,17-14,3.12-7.19,5-20.6l10.1,9.28q-1.86,13.42-5,20.61-5.73,13-17,14-5.84.51-9.05-2.42Z" transform="translate(96.68)"/></g><g class="cls-2"><g class="cls-55"><g class="cls-2"><path class="cls-4" d="M17.79,226.16l10.11,9.29q-9.82-8.74-8.14-27l-10.1-9.29Q8,217.42,17.79,226.16Z" transform="translate(96.68)"/><line class="cls-4" x1="109.21" y1="219.28" x2="119.32" y2="228.57"/><line class="cls-4" x1="106.5" y1="210.29" x2="116.6" y2="219.58"/><path class="cls-4" d="M9.66,199.19l10.1,9.29Q21.5,189.59,33.33,177l-10.11-9.28Q11.4,180.32,9.66,199.19Z" transform="translate(96.68)"/><line class="cls-4" x1="108.62" y1="187.3" x2="118.73" y2="196.59"/><line class="cls-4" x1="113.14" y1="176.79" x2="123.25" y2="186.08"/><path class="cls-4" d="M23.22,167.67,33.33,177a43.64,43.64,0,0,1,29-14.14l-10.11-9.29A43.63,43.63,0,0,0,23.22,167.67Z" transform="translate(96.68)"/><line class="cls-4" x1="128.38" y1="160.48" x2="138.48" y2="169.76"/><line class="cls-4" x1="138.04" y1="155.76" x2="148.15" y2="165.05"/><path class="cls-4" d="M52.21,153.52l10.11,9.29q26.43-2.31,34.07,20.56l-10.1-9.28Q78.64,151.2,52.21,153.52Z" transform="translate(96.68)"/><line class="cls-4" x1="164.43" y1="154.78" x2="174.54" y2="164.07"/></g><path class="cls-4" d="M17.53,225.92Q8,217.18,9.66,199.19q1.74-18.88,13.56-31.52a43.63,43.63,0,0,1,29-14.15q16.56-1.46,25.75,7l10.1,9.29q-9.18-8.45-25.74-7a43.64,43.64,0,0,0-29,14.14q-11.82,12.66-13.57,31.53-1.65,18,7.87,26.73Z" transform="translate(96.68)"/></g><path class="cls-1" d="M17.53,225.92Q8,217.18,9.66,199.19q1.74-18.88,13.56-31.52a43.63,43.63,0,0,1,29-14.15q16.56-1.46,25.75,7l10.1,9.29q-9.18-8.45-25.74-7a43.64,43.64,0,0,0-29,14.14q-11.82,12.66-13.57,31.53-1.65,18,7.87,26.73Z" transform="translate(96.68)"/></g><g class="cls-2"><g class="cls-56"><g class="cls-2"><path class="cls-4" d="M64.7,221.78l10.1,9.28a32,32,0,0,1-7.19,6.66l-10.1-9.29A32.38,32.38,0,0,0,64.7,221.78Z" transform="translate(96.68)"/><line class="cls-4" x1="159.04" y1="224.4" x2="169.14" y2="233.69"/><line class="cls-4" x1="156.64" y1="226.62" x2="166.75" y2="235.91"/><path class="cls-4" d="M57.51,228.43l10.1,9.29A34,34,0,0,1,51.53,243l-10.11-9.29A34,34,0,0,0,57.51,228.43Z" transform="translate(96.68)"/><line class="cls-4" x1="149.41" y1="230.99" x2="159.51" y2="240.28"/><line class="cls-4" x1="144.04" y1="232.75" x2="154.15" y2="242.03"/><path class="cls-4" d="M41.42,233.69,51.53,243Q37.7,244.2,27.9,235.45l-10.11-9.29Q27.6,234.91,41.42,233.69Z" transform="translate(96.68)"/><line class="cls-4" x1="129.34" y1="233.39" x2="139.44" y2="242.68"/><line class="cls-4" x1="121.46" y1="230.88" x2="131.57" y2="240.17"/><path class="cls-4" d="M17.79,226.16l10.11,9.29q-9.82-8.74-8.14-27l-10.1-9.29Q8,217.42,17.79,226.16Z" transform="translate(96.68)"/></g><path class="cls-4" d="M27.63,235.21l-10.1-9.29.26.24q9.81,8.75,23.63,7.53a34,34,0,0,0,16.09-5.26,32.38,32.38,0,0,0,7.19-6.65l10.1,9.28a32,32,0,0,1-7.19,6.66A34,34,0,0,1,51.53,243Q37.7,244.2,27.9,235.45Z" transform="translate(96.68)"/></g><path class="cls-1" d="M27.63,235.21l-10.1-9.29.26.24q9.81,8.75,23.63,7.53a34,34,0,0,0,16.09-5.26,32.38,32.38,0,0,0,7.19-6.65l10.1,9.28a32,32,0,0,1-7.19,6.66A34,34,0,0,1,51.53,243Q37.7,244.2,27.9,235.45Z" transform="translate(96.68)"/></g><g class="cls-2"><g class="cls-57"><g class="cls-2"><path class="cls-4" d="M52.21,153.52l10.11,9.29q26.43-2.31,34.07,20.56l-10.1-9.28Q78.64,151.2,52.21,153.52Z" transform="translate(96.68)"/><line class="cls-4" x1="175.79" y1="161.63" x2="185.89" y2="170.92"/></g><path class="cls-4" d="M78,160.51l10.1,9.29a31.55,31.55,0,0,1,8.33,13.57l-10.1-9.28A31.68,31.68,0,0,0,78,160.51Z" transform="translate(96.68)"/></g><path class="cls-1" d="M78,160.51l10.1,9.29a31.55,31.55,0,0,1,8.33,13.57l-10.1-9.28A31.68,31.68,0,0,0,78,160.51Z" transform="translate(96.68)"/></g><g class="cls-2"><g class="cls-58"><g class="cls-2"><path class="cls-4" d="M63.43,177.45l10.11,9.29q-4-5.43-12-4.74l-10.11-9.29Q59.39,172,63.43,177.45Z" transform="translate(96.68)"/><line class="cls-4" x1="156.98" y1="174.51" x2="167.08" y2="183.8"/><line class="cls-4" x1="152.96" y1="172.93" x2="163.07" y2="182.22"/><path class="cls-4" d="M51.39,172.71,61.5,182a18.25,18.25,0,0,0-10.29,4.2l-10.1-9.29A18.22,18.22,0,0,1,51.39,172.71Z" transform="translate(96.68)"/><line class="cls-4" x1="144.34" y1="173.41" x2="154.45" y2="182.7"/><line class="cls-4" x1="140.91" y1="174.81" x2="151.02" y2="184.09"/><path class="cls-4" d="M41.11,176.91l10.1,9.29q-7,5.76-8.17,18.15l-10.11-9.29Q34.09,182.67,41.11,176.91Z" transform="translate(96.68)"/><line class="cls-4" x1="133.76" y1="181.49" x2="143.86" y2="190.78"/><line class="cls-4" x1="131.03" y1="187.54" x2="141.14" y2="196.83"/><path class="cls-4" d="M32.93,195.06,43,204.35q-1,10.46,2.75,15.31l-10.1-9.29Q32,205.51,32.93,195.06Z" transform="translate(96.68)"/><line class="cls-4" x1="129.5" y1="201.41" x2="139.6" y2="210.7"/><line class="cls-4" x1="130.41" y1="206.51" x2="140.52" y2="215.8"/><path class="cls-4" d="M35.69,210.37l10.1,9.29q3.7,4.86,12.42,4.1L48.1,214.47Q39.4,215.24,35.69,210.37Z" transform="translate(96.68)"/></g><path class="cls-4" d="M61.9,175.74,72,185q-3.91-3.6-10.5-3a18.25,18.25,0,0,0-10.29,4.2q-7,5.76-8.17,18.15-1,10.46,2.75,15.31A10,10,0,0,0,47,220.93l-10.11-9.29a9.91,9.91,0,0,1-1.15-1.27q-3.72-4.86-2.76-15.31,1.16-12.39,8.18-18.15a18.22,18.22,0,0,1,10.28-4.2Q58,172.14,61.9,175.74Z" transform="translate(96.68)"/></g><path class="cls-1" d="M61.9,175.74,72,185q-3.91-3.6-10.5-3a18.25,18.25,0,0,0-10.29,4.2q-7,5.76-8.17,18.15-1,10.46,2.75,15.31A10,10,0,0,0,47,220.93l-10.11-9.29a9.91,9.91,0,0,1-1.15-1.27q-3.72-4.86-2.76-15.31,1.16-12.39,8.18-18.15a18.22,18.22,0,0,1,10.28-4.2Q58,172.14,61.9,175.74Z" transform="translate(96.68)"/></g><g class="cls-2"><g class="cls-59"><g class="cls-2"><path class="cls-4" d="M57.22,210.94l10.1,9.29q8.22-5.7,9.36-18.1l-10.11-9.29Q65.43,205.23,57.22,210.94Z" transform="translate(96.68)"/><line class="cls-4" x1="158.59" y1="206.39" x2="168.7" y2="215.68"/><line class="cls-4" x1="161.71" y1="200.36" x2="171.81" y2="209.65"/><path class="cls-4" d="M66.57,192.84l10.11,9.29q.91-10-3.14-15.39l-10.11-9.29Q67.5,182.88,66.57,192.84Z" transform="translate(96.68)"/><line class="cls-4" x1="163.32" y1="186.71" x2="173.42" y2="195.99"/><line class="cls-4" x1="162.27" y1="181.57" x2="172.38" y2="190.86"/><path class="cls-4" d="M63.43,177.45l10.11,9.29q-4-5.43-12-4.74l-10.11-9.29Q59.39,172,63.43,177.45Z" transform="translate(96.68)"/></g><path class="cls-4" d="M72,185a11.55,11.55,0,0,1,1.54,1.71q4.06,5.43,3.14,15.39-1.14,12.39-9.36,18.1l-10.1-9.29q8.2-5.7,9.35-18.1.92-10-3.14-15.39a12.59,12.59,0,0,0-1.53-1.71Z" transform="translate(96.68)"/></g><path class="cls-1" d="M72,185a11.55,11.55,0,0,1,1.54,1.71q4.06,5.43,3.14,15.39-1.14,12.39-9.36,18.1l-10.1-9.29q8.2-5.7,9.35-18.1.92-10-3.14-15.39a12.59,12.59,0,0,0-1.53-1.71Z" transform="translate(96.68)"/></g><g class="cls-2"><g class="cls-60"><g class="cls-2"><path class="cls-4" d="M35.69,210.37l10.1,9.29q3.7,4.86,12.42,4.1L48.1,214.47Q39.4,215.24,35.69,210.37Z" transform="translate(96.68)"/><line class="cls-4" x1="135.4" y1="212.99" x2="145.5" y2="222.27"/><line class="cls-4" x1="139.54" y1="214.35" x2="149.64" y2="223.64"/><path class="cls-4" d="M48.1,214.47l10.11,9.29a18.54,18.54,0,0,0,9.11-3.53l-10.1-9.29A18.48,18.48,0,0,1,48.1,214.47Z" transform="translate(96.68)"/><line class="cls-4" x1="147.89" y1="213.89" x2="158" y2="223.18"/><line class="cls-4" x1="150.93" y1="212.72" x2="161.04" y2="222"/></g><path class="cls-4" d="M36.84,211.64q3.79,3.48,11.26,2.83a18.48,18.48,0,0,0,9.12-3.53l10.1,9.29a18.54,18.54,0,0,1-9.11,3.53q-7.47.65-11.26-2.83Z" transform="translate(96.68)"/></g><path class="cls-1" d="M36.84,211.64q3.79,3.48,11.26,2.83a18.48,18.48,0,0,0,9.12-3.53l10.1,9.29a18.54,18.54,0,0,1-9.11,3.53q-7.47.65-11.26-2.83Z" transform="translate(96.68)"/></g><g class="cls-2"><g class="cls-61"><path class="cls-4" d="M184,219.58a33.28,33.28,0,0,1,2.68,17.53q-1.36,14.82-13.16,26.18t-31.21,13.06q-19.42,1.69-28.46-7.84t-7.67-24.36a41.83,41.83,0,0,1,6-18.29,36.47,36.47,0,0,1,14-13.2q-7.89-4.92-9.81-11.31A31.89,31.89,0,0,1,115,189.22q1.19-12.81,11.54-22.67t27.72-11.39q17.37-1.51,26.07,6.69t7.51,21a39,39,0,0,1-3.66,12.58q-3.1,6.83-11.95,12.41A24.85,24.85,0,0,1,184,219.58Zm-26.33,31.88q4.88-5.18,5.67-13.84.84-9-3.25-13.25c-2.72-2.84-6.64-4.05-11.75-3.6a19.4,19.4,0,0,0-12.61,5.73q-4.94,5-5.77,14-.8,8.67,3.19,13.06T145,257.31a19.08,19.08,0,0,0,12.7-5.85m-16.17-72.79a17.52,17.52,0,0,0-4.89,11.23q-.6,6.4,2.92,10.11t10.4,3.11a16.82,16.82,0,0,0,11.14-5,17.57,17.57,0,0,0,4.77-10.79q.65-7-2.8-10.56t-10.41-3a17.19,17.19,0,0,0-11.13,4.88" transform="translate(96.68)"/></g><path class="cls-1" d="M184,219.58a33.28,33.28,0,0,1,2.68,17.53q-1.36,14.82-13.16,26.18t-31.21,13.06q-19.42,1.69-28.46-7.84t-7.67-24.36a41.83,41.83,0,0,1,6-18.29,36.47,36.47,0,0,1,14-13.2q-7.89-4.92-9.81-11.31A31.89,31.89,0,0,1,115,189.22q1.19-12.81,11.54-22.67t27.72-11.39q17.37-1.51,26.07,6.69t7.51,21a39,39,0,0,1-3.66,12.58q-3.1,6.83-11.95,12.41A24.85,24.85,0,0,1,184,219.58Zm-26.33,31.88q4.88-5.18,5.67-13.84.84-9-3.25-13.25c-2.72-2.84-6.64-4.05-11.75-3.6a19.4,19.4,0,0,0-12.61,5.73q-4.94,5-5.77,14-.8,8.67,3.19,13.06T145,257.31a19.08,19.08,0,0,0,12.7-5.85m-16.17-72.79a17.52,17.52,0,0,0-4.89,11.23q-.6,6.4,2.92,10.11t10.4,3.11a16.82,16.82,0,0,0,11.14-5,17.57,17.57,0,0,0,4.77-10.79q.65-7-2.8-10.56t-10.41-3a17.19,17.19,0,0,0-11.13,4.88" transform="translate(96.68)"/></g><g class="cls-2"><g class="cls-62"><path class="cls-4" d="M173.87,210.3a33.34,33.34,0,0,1,2.69,17.52Q175.2,242.64,163.4,254t-31.22,13.06q-19.43,1.69-28.46-7.84t-7.67-24.36a41.89,41.89,0,0,1,6.06-18.28,36.25,36.25,0,0,1,14-13.2q-7.91-4.94-9.81-11.32a31.89,31.89,0,0,1-1.39-12.13q1.18-12.81,11.53-22.67t27.73-11.39q17.37-1.51,26.06,6.69t7.52,21a39.5,39.5,0,0,1-3.66,12.57Q171,193,162.15,198.54A24.81,24.81,0,0,1,173.87,210.3Zm-26.32,31.87q4.88-5.17,5.67-13.83.83-9-3.26-13.26t-11.75-3.6a19.35,19.35,0,0,0-12.6,5.73q-5,5.06-5.77,14c-.54,5.77.53,10.13,3.19,13.05s6.6,4.17,11.82,3.71a19.1,19.1,0,0,0,12.7-5.85m-16.18-72.79a17.65,17.65,0,0,0-4.89,11.23q-.58,6.4,2.93,10.11t10.39,3.11a16.8,16.8,0,0,0,11.15-5,17.48,17.48,0,0,0,4.76-10.79c.43-4.64-.51-8.16-2.79-10.56s-5.77-3.39-10.42-3a17.22,17.22,0,0,0-11.13,4.88" transform="translate(96.68)"/></g><path class="cls-1" d="M173.87,210.3a33.34,33.34,0,0,1,2.69,17.52Q175.2,242.64,163.4,254t-31.22,13.06q-19.43,1.69-28.46-7.84t-7.67-24.36a41.89,41.89,0,0,1,6.06-18.28,36.25,36.25,0,0,1,14-13.2q-7.91-4.94-9.81-11.32a31.89,31.89,0,0,1-1.39-12.13q1.18-12.81,11.53-22.67t27.73-11.39q17.37-1.51,26.06,6.69t7.52,21a39.5,39.5,0,0,1-3.66,12.57Q171,193,162.15,198.54A24.81,24.81,0,0,1,173.87,210.3Zm-26.32,31.87q4.88-5.17,5.67-13.83.83-9-3.26-13.26t-11.75-3.6a19.35,19.35,0,0,0-12.6,5.73q-5,5.06-5.77,14c-.54,5.77.53,10.13,3.19,13.05s6.6,4.17,11.82,3.71a19.1,19.1,0,0,0,12.7-5.85m-16.18-72.79a17.65,17.65,0,0,0-4.89,11.23q-.58,6.4,2.93,10.11t10.39,3.11a16.8,16.8,0,0,0,11.15-5,17.48,17.48,0,0,0,4.76-10.79c.43-4.64-.51-8.16-2.79-10.56s-5.77-3.39-10.42-3a17.22,17.22,0,0,0-11.13,4.88" transform="translate(96.68)"/></g><g class="cls-2"><g class="cls-63"><g class="cls-2"><path class="cls-4" d="M132.18,267.06l10.11,9.29q-19.42,1.69-28.46-7.84l-10.11-9.29Q112.75,268.76,132.18,267.06Z" transform="translate(96.68)"/><path class="cls-4" d="M103.72,259.22l10.11,9.29q-9-9.52-7.67-24.36l-10.11-9.29Q94.69,249.68,103.72,259.22Z" transform="translate(96.68)"/><line class="cls-4" x1="195.54" y1="252.28" x2="205.64" y2="261.57"/><line class="cls-4" x1="192.98" y1="244.16" x2="203.09" y2="253.45"/><path class="cls-4" d="M96.05,234.86l10.11,9.29a41.83,41.83,0,0,1,6-18.29l-10.1-9.28A41.89,41.89,0,0,0,96.05,234.86Z" transform="translate(96.68)"/><line class="cls-4" x1="193.81" y1="228.44" x2="203.92" y2="237.73"/><line class="cls-4" x1="195.83" y1="222.34" x2="205.94" y2="231.63"/><path class="cls-4" d="M102.11,216.58l10.1,9.28a36.47,36.47,0,0,1,14-13.2l-10.1-9.28A36.25,36.25,0,0,0,102.11,216.58Z" transform="translate(96.68)"/><line class="cls-4" x1="202.63" y1="211.37" x2="212.74" y2="220.66"/><line class="cls-4" x1="207.3" y1="206.97" x2="217.41" y2="216.26"/></g><path class="cls-4" d="M104.83,260.31c-.38-.35-.75-.71-1.11-1.09q-9-9.53-7.67-24.36a41.89,41.89,0,0,1,6.06-18.28,36.25,36.25,0,0,1,14-13.2l10.1,9.28a36.47,36.47,0,0,0-14,13.2,41.83,41.83,0,0,0-6,18.29q-1.36,14.82,7.67,24.36c.35.38.72.74,1.1,1.09Z" transform="translate(96.68)"/></g><path class="cls-1" d="M104.83,260.31c-.38-.35-.75-.71-1.11-1.09q-9-9.53-7.67-24.36a41.89,41.89,0,0,1,6.06-18.28,36.25,36.25,0,0,1,14-13.2l10.1,9.28a36.47,36.47,0,0,0-14,13.2,41.83,41.83,0,0,0-6,18.29q-1.36,14.82,7.67,24.36c.35.38.72.74,1.1,1.09Z" transform="translate(96.68)"/></g><g class="cls-2"><g class="cls-64"><g class="cls-2"><path class="cls-4" d="M173.87,210.3,184,219.58a33.28,33.28,0,0,1,2.68,17.53l-10.1-9.29A33.34,33.34,0,0,0,173.87,210.3Z" transform="translate(96.68)"/><line class="cls-4" x1="272.45" y1="215.64" x2="282.56" y2="224.93"/><line class="cls-4" x1="273.35" y1="221.48" x2="283.45" y2="230.77"/><path class="cls-4" d="M176.56,227.82l10.1,9.29q-1.36,14.82-13.16,26.18L163.4,254Q175.19,242.65,176.56,227.82Z" transform="translate(96.68)"/><line class="cls-4" x1="271.17" y1="237.32" x2="281.28" y2="246.61"/><line class="cls-4" x1="266.79" y1="246.04" x2="276.89" y2="255.33"/><path class="cls-4" d="M163.4,254l10.1,9.29q-11.77,11.35-31.21,13.06l-10.11-9.29Q151.62,265.37,163.4,254Z" transform="translate(96.68)"/><line class="cls-4" x1="251.38" y1="260.5" x2="261.48" y2="269.79"/><line class="cls-4" x1="240.97" y1="264.85" x2="251.07" y2="274.14"/><path class="cls-4" d="M132.18,267.06l10.11,9.29q-19.42,1.69-28.46-7.84l-10.11-9.29Q112.75,268.76,132.18,267.06Z" transform="translate(96.68)"/><line class="cls-4" x1="217.07" y1="266.94" x2="227.17" y2="276.23"/><line class="cls-4" x1="207.58" y1="264.33" x2="217.69" y2="273.62"/></g><path class="cls-4" d="M114.93,269.6l-10.1-9.29q9.08,8.35,27.35,6.75,19.44-1.69,31.22-13.06t13.16-26.18a33.34,33.34,0,0,0-2.69-17.52L184,219.58a33.28,33.28,0,0,1,2.68,17.53q-1.36,14.82-13.16,26.18t-31.21,13.06Q124,277.94,114.93,269.6Z" transform="translate(96.68)"/></g><path class="cls-1" d="M114.93,269.6l-10.1-9.29q9.08,8.35,27.35,6.75,19.44-1.69,31.22-13.06t13.16-26.18a33.34,33.34,0,0,0-2.69-17.52L184,219.58a33.28,33.28,0,0,1,2.68,17.53q-1.36,14.82-13.16,26.18t-31.21,13.06Q124,277.94,114.93,269.6Z" transform="translate(96.68)"/></g><g class="cls-2"><g class="cls-65"><g class="cls-2"><path class="cls-4" d="M116.12,203.38l10.1,9.28q-7.89-4.92-9.81-11.31l-10.1-9.29Q108.22,198.45,116.12,203.38Z" transform="translate(96.68)"/><line class="cls-4" x1="204.93" y1="196.16" x2="215.04" y2="205.44"/><path class="cls-4" d="M106.31,192.06l10.1,9.29A31.89,31.89,0,0,1,115,189.22l-10.1-9.29A31.89,31.89,0,0,0,106.31,192.06Z" transform="translate(96.68)"/><line class="cls-4" x1="201.98" y1="187.88" x2="212.09" y2="197.16"/><line class="cls-4" x1="201.52" y1="183.83" x2="211.63" y2="193.12"/><path class="cls-4" d="M104.92,179.93l10.1,9.29q1.19-12.81,11.54-22.67l-10.11-9.29Q106.1,167.13,104.92,179.93Z" transform="translate(96.68)"/><line class="cls-4" x1="203.41" y1="171.72" x2="213.51" y2="181.01"/><line class="cls-4" x1="207.25" y1="164.17" x2="217.36" y2="173.45"/><path class="cls-4" d="M116.45,157.26l10.11,9.29q10.35-9.87,27.72-11.39l-10.1-9.29Q126.81,147.4,116.45,157.26Z" transform="translate(96.68)"/><line class="cls-4" x1="220.82" y1="151.61" x2="230.92" y2="160.9"/><line class="cls-4" x1="230.06" y1="147.82" x2="240.17" y2="157.1"/><path class="cls-4" d="M144.18,145.87l10.1,9.29q17.37-1.51,26.07,6.69l-10.11-9.29Q161.55,144.36,144.18,145.87Z" transform="translate(96.68)"/><line class="cls-4" x1="251.48" y1="145.94" x2="261.58" y2="155.23"/><line class="cls-4" x1="260.17" y1="148.17" x2="270.27" y2="157.46"/></g><path class="cls-4" d="M111.5,199.91a17.59,17.59,0,0,1-5.19-7.85,31.89,31.89,0,0,1-1.39-12.13q1.18-12.81,11.53-22.67t27.73-11.39q17.16-1.5,25.85,6.49l10.11,9.29q-8.7-8-25.86-6.49-17.35,1.51-27.72,11.39T115,189.22a31.89,31.89,0,0,0,1.39,12.13,17.53,17.53,0,0,0,5.2,7.85Z" transform="translate(96.68)"/></g><path class="cls-1" d="M111.5,199.91a17.59,17.59,0,0,1-5.19-7.85,31.89,31.89,0,0,1-1.39-12.13q1.18-12.81,11.53-22.67t27.73-11.39q17.16-1.5,25.85,6.49l10.11,9.29q-8.7-8-25.86-6.49-17.35,1.51-27.72,11.39T115,189.22a31.89,31.89,0,0,0,1.39,12.13,17.53,17.53,0,0,0,5.2,7.85Z" transform="translate(96.68)"/></g><g class="cls-2"><g class="cls-66"><g class="cls-2"><path class="cls-4" d="M116.12,203.38l10.1,9.28q-7.89-4.92-9.81-11.31l-10.1-9.29Q108.22,198.45,116.12,203.38Z" transform="translate(96.68)"/><line class="cls-4" x1="208.2" y1="199.93" x2="218.31" y2="209.22"/></g><path class="cls-4" d="M121.61,209.2l-10.11-9.29a31.62,31.62,0,0,0,4.62,3.47l10.1,9.28A31,31,0,0,1,121.61,209.2Z" transform="translate(96.68)"/></g><path class="cls-1" d="M121.61,209.2l-10.11-9.29a31.62,31.62,0,0,0,4.62,3.47l10.1,9.28A31,31,0,0,1,121.61,209.2Z" transform="translate(96.68)"/></g><g class="cls-2"><g class="cls-67"><g class="cls-2"><path class="cls-4" d="M144.18,145.87l10.1,9.29q17.37-1.51,26.07,6.69l-10.11-9.29Q161.55,144.36,144.18,145.87Z" transform="translate(96.68)"/><path class="cls-4" d="M170.24,152.56l10.11,9.29q8.68,8.19,7.51,21l-10.1-9.28Q178.93,160.75,170.24,152.56Z" transform="translate(96.68)"/><line class="cls-4" x1="271.62" y1="158.53" x2="281.73" y2="167.82"/><line class="cls-4" x1="274.13" y1="165.53" x2="284.23" y2="174.82"/><path class="cls-4" d="M177.76,173.56l10.1,9.28a39,39,0,0,1-3.66,12.58l-10.1-9.29A39.5,39.5,0,0,0,177.76,173.56Z" transform="translate(96.68)"/><line class="cls-4" x1="273.8" y1="177.51" x2="283.9" y2="186.8"/><line class="cls-4" x1="272.58" y1="181.7" x2="282.68" y2="190.99"/><path class="cls-4" d="M174.1,186.13l10.1,9.29q-3.1,6.83-11.95,12.41l-10.1-9.29Q171,193,174.1,186.13Z" transform="translate(96.68)"/><line class="cls-4" x1="268.07" y1="190.54" x2="278.17" y2="199.83"/><line class="cls-4" x1="264.08" y1="194.68" x2="274.19" y2="203.97"/></g><path class="cls-4" d="M170,152.36l10.11,9.29.21.2q8.68,8.19,7.51,21a39,39,0,0,1-3.66,12.58q-3.1,6.83-11.95,12.41l-10.1-9.29Q171,193,174.1,186.13a39.5,39.5,0,0,0,3.66-12.57q1.17-12.81-7.52-21Z" transform="translate(96.68)"/></g><path class="cls-1" d="M170,152.36l10.11,9.29.21.2q8.68,8.19,7.51,21a39,39,0,0,1-3.66,12.58q-3.1,6.83-11.95,12.41l-10.1-9.29Q171,193,174.1,186.13a39.5,39.5,0,0,0,3.66-12.57q1.17-12.81-7.52-21Z" transform="translate(96.68)"/></g><g class="cls-2"><g class="cls-68"><g class="cls-2"><path class="cls-4" d="M162.15,198.54l10.1,9.29A24.85,24.85,0,0,1,184,219.58l-10.11-9.28A24.81,24.81,0,0,0,162.15,198.54Z" transform="translate(96.68)"/><line class="cls-4" x1="267.66" y1="205.59" x2="277.76" y2="214.88"/></g><path class="cls-4" d="M168.39,202.81l10.1,9.29a23.91,23.91,0,0,1,5.49,7.48l-10.11-9.28A23.65,23.65,0,0,0,168.39,202.81Z" transform="translate(96.68)"/></g><path class="cls-1" d="M168.39,202.81l10.1,9.29a23.91,23.91,0,0,1,5.49,7.48l-10.11-9.28A23.65,23.65,0,0,0,168.39,202.81Z" transform="translate(96.68)"/></g><g class="cls-2"><g class="cls-69"><g class="cls-2"><path class="cls-4" d="M162.15,198.54l10.1,9.29A24.85,24.85,0,0,1,184,219.58l-10.11-9.28A24.81,24.81,0,0,0,162.15,198.54Z" transform="translate(96.68)"/><line class="cls-4" x1="263.75" y1="201.68" x2="273.85" y2="210.96"/></g><path class="cls-4" d="M178.49,212.1a27.38,27.38,0,0,0-6.24-4.27l-10.1-9.29a27.38,27.38,0,0,1,6.24,4.27Z" transform="translate(96.68)"/></g><path class="cls-1" d="M178.49,212.1a27.38,27.38,0,0,0-6.24-4.27l-10.1-9.29a27.38,27.38,0,0,1,6.24,4.27Z" transform="translate(96.68)"/></g><g class="cls-2"><g class="cls-70"><g class="cls-2"><path class="cls-4" d="M150,215.08l10.11,9.29c-2.72-2.84-6.64-4.05-11.75-3.6l-10.11-9.29Q145.89,210.82,150,215.08Z" transform="translate(96.68)"/><line class="cls-4" x1="243.53" y1="212.79" x2="253.63" y2="222.07"/><line class="cls-4" x1="239.61" y1="211.59" x2="249.72" y2="220.87"/><path class="cls-4" d="M138.21,211.48l10.11,9.29a19.4,19.4,0,0,0-12.61,5.73l-10.1-9.29A19.35,19.35,0,0,1,138.21,211.48Z" transform="translate(96.68)"/><line class="cls-4" x1="230.09" y1="212.42" x2="240.19" y2="221.71"/><line class="cls-4" x1="225.89" y1="214.33" x2="235.99" y2="223.62"/><path class="cls-4" d="M125.61,217.21l10.1,9.29q-4.94,5-5.77,14l-10.1-9.28Q120.67,222.26,125.61,217.21Z" transform="translate(96.68)"/><line class="cls-4" x1="219.45" y1="221.02" x2="229.56" y2="230.3"/><line class="cls-4" x1="217.53" y1="225.7" x2="227.63" y2="234.99"/><path class="cls-4" d="M119.84,231.26l10.1,9.28q-.8,8.67,3.19,13.06L123,244.31C120.37,241.39,119.3,237,119.84,231.26Z" transform="translate(96.68)"/><line class="cls-4" x1="216.52" y1="236.56" x2="226.62" y2="245.85"/><line class="cls-4" x1="217.58" y1="240.91" x2="227.69" y2="250.2"/><path class="cls-4" d="M123,244.31l10.1,9.29q4,4.39,11.82,3.71L134.85,248Q127,248.71,123,244.31Z" transform="translate(96.68)"/></g><path class="cls-4" d="M149.45,214.57l10.1,9.29q-4-3.72-11.23-3.09a19.4,19.4,0,0,0-12.61,5.73q-4.94,5-5.77,14-.8,8.67,3.19,13.06c.23.25.46.48.7.7L123.72,245a9.13,9.13,0,0,1-.69-.7c-2.66-2.92-3.73-7.28-3.19-13.05q.82-9,5.77-14a19.35,19.35,0,0,1,12.6-5.73C143,211.06,146.75,212.1,149.45,214.57Z" transform="translate(96.68)"/></g><path class="cls-1" d="M149.45,214.57l10.1,9.29q-4-3.72-11.23-3.09a19.4,19.4,0,0,0-12.61,5.73q-4.94,5-5.77,14-.8,8.67,3.19,13.06c.23.25.46.48.7.7L123.72,245a9.13,9.13,0,0,1-.69-.7c-2.66-2.92-3.73-7.28-3.19-13.05q.82-9,5.77-14a19.35,19.35,0,0,1,12.6-5.73C143,211.06,146.75,212.1,149.45,214.57Z" transform="translate(96.68)"/></g><g class="cls-2"><g class="cls-71"><g class="cls-2"><path class="cls-4" d="M147.55,242.17l10.1,9.29q4.88-5.18,5.67-13.84l-10.1-9.28Q152.43,237,147.55,242.17Z" transform="translate(96.68)"/><line class="cls-4" x1="247.03" y1="238.33" x2="257.13" y2="247.62"/><line class="cls-4" x1="248.92" y1="233.72" x2="259.02" y2="243.01"/><path class="cls-4" d="M153.22,228.34l10.1,9.28q.84-9-3.25-13.25L150,215.08Q154.06,219.34,153.22,228.34Z" transform="translate(96.68)"/><line class="cls-4" x1="249.91" y1="222.87" x2="260.02" y2="232.15"/><line class="cls-4" x1="248.82" y1="218.45" x2="258.93" y2="227.73"/><path class="cls-4" d="M150,215.08l10.11,9.29c-2.72-2.84-6.64-4.05-11.75-3.6l-10.11-9.29Q145.89,210.82,150,215.08Z" transform="translate(96.68)"/></g><path class="cls-4" d="M159.55,223.86c.18.16.35.33.52.51q4.08,4.26,3.25,13.25-.8,8.67-5.67,13.84l-10.1-9.29q4.88-5.17,5.67-13.83.83-9-3.26-13.26c-.16-.18-.34-.35-.51-.51Z" transform="translate(96.68)"/></g><path class="cls-1" d="M159.55,223.86c.18.16.35.33.52.51q4.08,4.26,3.25,13.25-.8,8.67-5.67,13.84l-10.1-9.29q4.88-5.17,5.67-13.83.83-9-3.26-13.26c-.16-.18-.34-.35-.51-.51Z" transform="translate(96.68)"/></g><g class="cls-2"><g class="cls-72"><g class="cls-2"><path class="cls-4" d="M123,244.31l10.1,9.29q4,4.39,11.82,3.71L134.85,248Q127,248.71,123,244.31Z" transform="translate(96.68)"/><line class="cls-4" x1="222.8" y1="246.68" x2="232.9" y2="255.97"/><line class="cls-4" x1="226.74" y1="247.91" x2="236.84" y2="257.2"/><path class="cls-4" d="M134.85,248l10.1,9.29a19.08,19.08,0,0,0,12.7-5.85l-10.1-9.29A19.1,19.1,0,0,1,134.85,248Z" transform="translate(96.68)"/><line class="cls-4" x1="236.42" y1="247.07" x2="246.53" y2="256.35"/><line class="cls-4" x1="240.66" y1="245.11" x2="250.76" y2="254.4"/></g><path class="cls-4" d="M123.72,245q4,3.65,11.13,3a19.1,19.1,0,0,0,12.7-5.85l10.1,9.29a19.08,19.08,0,0,1-12.7,5.85q-7.17.63-11.12-3Z" transform="translate(96.68)"/></g><path class="cls-1" d="M123.72,245q4,3.65,11.13,3a19.1,19.1,0,0,0,12.7-5.85l10.1,9.29a19.08,19.08,0,0,1-12.7,5.85q-7.17.63-11.12-3Z" transform="translate(96.68)"/></g><g class="cls-2"><g class="cls-73"><g class="cls-2"><path class="cls-4" d="M129.41,190.72l10.1,9.29q3.51,3.7,10.4,3.11l-10.11-9.29Q132.92,194.43,129.41,190.72Z" transform="translate(96.68)"/><line class="cls-4" x1="228.8" y1="192.72" x2="238.91" y2="202.01"/><line class="cls-4" x1="232.27" y1="193.75" x2="242.37" y2="203.04"/><path class="cls-4" d="M139.8,193.83l10.11,9.29a16.82,16.82,0,0,0,11.14-5L151,188.84A16.8,16.8,0,0,1,139.8,193.83Z" transform="translate(96.68)"/><line class="cls-4" x1="240.82" y1="193.01" x2="250.93" y2="202.29"/><line class="cls-4" x1="244.54" y1="191.34" x2="254.64" y2="200.63"/><path class="cls-4" d="M151,188.84l10.1,9.29a17.57,17.57,0,0,0,4.77-10.79l-10.11-9.29A17.48,17.48,0,0,1,151,188.84Z" transform="translate(96.68)"/><line class="cls-4" x1="250.02" y1="185.69" x2="260.12" y2="194.98"/><line class="cls-4" x1="251.6" y1="182.1" x2="261.71" y2="191.38"/><path class="cls-4" d="M155.71,178.05l10.11,9.29q.65-7-2.8-10.56l-10.1-9.29C155.2,169.89,156.14,173.41,155.71,178.05Z" transform="translate(96.68)"/><line class="cls-4" x1="252.37" y1="173.78" x2="262.48" y2="183.07"/><line class="cls-4" x1="251.44" y1="170.26" x2="261.54" y2="179.55"/><path class="cls-4" d="M152.92,167.49l10.1,9.29q-3.44-3.6-10.41-3L142.5,164.5Q149.48,163.9,152.92,167.49Z" transform="translate(96.68)"/></g><path class="cls-4" d="M129.88,191.19q3.48,3.21,9.92,2.64a16.8,16.8,0,0,0,11.15-5,17.48,17.48,0,0,0,4.76-10.79c.43-4.64-.51-8.16-2.79-10.56l-.42-.41,10.1,9.29a5.44,5.44,0,0,1,.42.41q3.43,3.6,2.8,10.56a17.57,17.57,0,0,1-4.77,10.79,16.82,16.82,0,0,1-11.14,5c-4.3.38-7.6-.51-9.92-2.64Z" transform="translate(96.68)"/></g><path class="cls-1" d="M129.88,191.19q3.48,3.21,9.92,2.64a16.8,16.8,0,0,0,11.15-5,17.48,17.48,0,0,0,4.76-10.79c.43-4.64-.51-8.16-2.79-10.56l-.42-.41,10.1,9.29a5.44,5.44,0,0,1,.42.41q3.43,3.6,2.8,10.56a17.57,17.57,0,0,1-4.77,10.79,16.82,16.82,0,0,1-11.14,5c-4.3.38-7.6-.51-9.92-2.64Z" transform="translate(96.68)"/></g><g class="cls-2"><g class="cls-74"><g class="cls-2"><path class="cls-4" d="M131.37,169.38l10.11,9.29a17.52,17.52,0,0,0-4.89,11.23l-10.11-9.29A17.65,17.65,0,0,1,131.37,169.38Z" transform="translate(96.68)"/><line class="cls-4" x1="225.62" y1="172.52" x2="235.73" y2="181.81"/><line class="cls-4" x1="223.99" y1="176.27" x2="234.1" y2="185.55"/><path class="cls-4" d="M126.48,180.61l10.11,9.29q-.6,6.4,2.92,10.11l-10.1-9.29Q125.89,187,126.48,180.61Z" transform="translate(96.68)"/><line class="cls-4" x1="223.23" y1="184.58" x2="233.33" y2="193.87"/><line class="cls-4" x1="224.2" y1="187.95" x2="234.31" y2="197.24"/><path class="cls-4" d="M129.41,190.72l10.1,9.29q3.51,3.7,10.4,3.11l-10.11-9.29Q132.92,194.43,129.41,190.72Z" transform="translate(96.68)"/></g><path class="cls-4" d="M140,200.48l-10.11-9.29-.47-.47q-3.52-3.71-2.93-10.11a17.65,17.65,0,0,1,4.89-11.23l10.11,9.29a17.52,17.52,0,0,0-4.89,11.23q-.6,6.4,2.92,10.11C139.66,200.17,139.82,200.33,140,200.48Z" transform="translate(96.68)"/></g><path class="cls-1" d="M140,200.48l-10.11-9.29-.47-.47q-3.52-3.71-2.93-10.11a17.65,17.65,0,0,1,4.89-11.23l10.11,9.29a17.52,17.52,0,0,0-4.89,11.23q-.6,6.4,2.92,10.11C139.66,200.17,139.82,200.33,140,200.48Z" transform="translate(96.68)"/></g><g class="cls-2"><g class="cls-75"><g class="cls-2"><path class="cls-4" d="M152.92,167.49l10.1,9.29q-3.44-3.6-10.41-3L142.5,164.5Q149.48,163.9,152.92,167.49Z" transform="translate(96.68)"/><line class="cls-4" x1="246.91" y1="165.56" x2="257.02" y2="174.85"/><line class="cls-4" x1="243.44" y1="164.56" x2="253.55" y2="173.85"/><path class="cls-4" d="M142.5,164.5l10.11,9.29a17.19,17.19,0,0,0-11.13,4.88l-10.11-9.29A17.22,17.22,0,0,1,142.5,164.5Z" transform="translate(96.68)"/><line class="cls-4" x1="234.89" y1="165.31" x2="244.99" y2="174.6"/><line class="cls-4" x1="231.18" y1="166.94" x2="241.28" y2="176.22"/></g><path class="cls-4" d="M152.5,167.08l10.1,9.29q-3.43-3.15-10-2.58a17.19,17.19,0,0,0-11.13,4.88l-10.11-9.29a17.22,17.22,0,0,1,11.13-4.88Q149.07,163.93,152.5,167.08Z" transform="translate(96.68)"/></g><path class="cls-1" d="M152.5,167.08l10.1,9.29q-3.43-3.15-10-2.58a17.19,17.19,0,0,0-11.13,4.88l-10.11-9.29a17.22,17.22,0,0,1,11.13-4.88Q149.07,163.93,152.5,167.08Z" transform="translate(96.68)"/></g><g class="cls-2"><g class="cls-76"><path class="cls-4" d="M280.28,146.23l-1.81,19.6L231.18,170l-6.51,26a60.06,60.06,0,0,1,8.64-5.33,38.07,38.07,0,0,1,12.21-2.92q14.37-1.24,24.15,7.61T277.73,223q-1.5,16.29-13,30t-32,15.49q-16.51,1.44-26.3-6.62T197,237.33l22.68-2q.66,7.41,4.11,11.17t10.78,3.12A18.23,18.23,0,0,0,248,242.47a29.23,29.23,0,0,0,5.83-15.58q.82-9-2.75-14.83T238.76,207a23.91,23.91,0,0,0-7.27,1.68,18.46,18.46,0,0,0-8.71,7.91l-20.32.81,14.11-65.6Z" transform="translate(96.68)"/></g><path class="cls-1" d="M280.28,146.23l-1.81,19.6L231.18,170l-6.51,26a60.06,60.06,0,0,1,8.64-5.33,38.07,38.07,0,0,1,12.21-2.92q14.37-1.24,24.15,7.61T277.73,223q-1.5,16.29-13,30t-32,15.49q-16.51,1.44-26.3-6.62T197,237.33l22.68-2q.66,7.41,4.11,11.17t10.78,3.12A18.23,18.23,0,0,0,248,242.47a29.23,29.23,0,0,0,5.83-15.58q.82-9-2.75-14.83T238.76,207a23.91,23.91,0,0,0-7.27,1.68,18.46,18.46,0,0,0-8.71,7.91l-20.32.81,14.11-65.6Z" transform="translate(96.68)"/></g><g class="cls-2"><g class="cls-77"><path class="cls-4" d="M270.18,136.94l-1.81,19.61-47.3,4.13-6.5,26a59.41,59.41,0,0,1,8.64-5.34,37.76,37.76,0,0,1,12.21-2.91q14.36-1.26,24.14,7.61t8.06,27.57q-1.5,16.29-13,30t-32,15.49q-16.51,1.46-26.3-6.62T186.92,228l22.68-2q.66,7.42,4.11,11.18t10.77,3.11a18.24,18.24,0,0,0,13.43-7.16,29.27,29.27,0,0,0,5.82-15.58c.56-6-.37-10.93-2.74-14.83s-6.5-5.57-12.34-5.06a24,24,0,0,0-7.27,1.68,18.55,18.55,0,0,0-8.71,7.91l-20.31.82,14.1-65.6Z" transform="translate(96.68)"/></g><path class="cls-1" d="M270.18,136.94l-1.81,19.61-47.3,4.13-6.5,26a59.41,59.41,0,0,1,8.64-5.34,37.76,37.76,0,0,1,12.21-2.91q14.36-1.26,24.14,7.61t8.06,27.57q-1.5,16.29-13,30t-32,15.49q-16.51,1.46-26.3-6.62T186.92,228l22.68-2q.66,7.42,4.11,11.18t10.77,3.11a18.24,18.24,0,0,0,13.43-7.16,29.27,29.27,0,0,0,5.82-15.58c.56-6-.37-10.93-2.74-14.83s-6.5-5.57-12.34-5.06a24,24,0,0,0-7.27,1.68,18.55,18.55,0,0,0-8.71,7.91l-20.31.82,14.1-65.6Z" transform="translate(96.68)"/></g><g class="cls-2"><g class="cls-78"><polygon class="cls-4" points="366.86 136.94 376.96 146.23 375.16 165.83 365.05 156.55 366.86 136.94"/></g><polygon class="cls-1" points="366.86 136.94 376.96 146.23 375.16 165.83 365.05 156.55 366.86 136.94"/></g><g class="cls-2"><g class="cls-79"><polygon class="cls-4" points="365.05 156.55 375.16 165.83 327.86 169.97 317.76 160.68 365.05 156.55"/></g><polygon class="cls-1" points="365.05 156.55 375.16 165.83 327.86 169.97 317.76 160.68 365.05 156.55"/></g><g class="cls-2"><g class="cls-80"><polygon class="cls-4" points="317.76 160.68 327.86 169.97 321.36 196.01 311.25 186.73 317.76 160.68"/></g><polygon class="cls-1" points="317.76 160.68 327.86 169.97 321.36 196.01 311.25 186.73 317.76 160.68"/></g><g class="cls-2"><g class="cls-81"><g class="cls-2"><path class="cls-4" d="M196.37,252.52l10.11,9.29q-9.78-8.07-9.46-24.48L186.92,228Q186.59,244.45,196.37,252.52Z" transform="translate(96.68)"/><line class="cls-4" x1="287.66" y1="246.22" x2="297.76" y2="255.51"/><line class="cls-4" x1="284.51" y1="238.06" x2="294.61" y2="247.34"/></g><path class="cls-4" d="M195.38,251.66q-8.77-8.06-8.46-23.62l10.1,9.29q-.3,15.55,8.47,23.62Z" transform="translate(96.68)"/></g><path class="cls-1" d="M195.38,251.66q-8.77-8.06-8.46-23.62l10.1,9.29q-.3,15.55,8.47,23.62Z" transform="translate(96.68)"/></g><g class="cls-2"><g class="cls-82"><g class="cls-2"><path class="cls-4" d="M259.56,186.09l10.11,9.28q9.78,8.87,8.06,27.58l-10.11-9.29Q269.34,195,259.56,186.09Z" transform="translate(96.68)"/><line class="cls-4" x1="361.49" y1="193.09" x2="371.6" y2="202.38"/><line class="cls-4" x1="364.18" y1="202.28" x2="374.28" y2="211.57"/><path class="cls-4" d="M267.62,213.66,277.73,223q-1.5,16.29-13,30l-10.11-9.29Q266.11,229.94,267.62,213.66Z" transform="translate(96.68)"/><line class="cls-4" x1="362.2" y1="224.23" x2="372.3" y2="233.52"/><line class="cls-4" x1="357.87" y1="234.23" x2="367.98" y2="243.52"/><path class="cls-4" d="M254.65,243.65l10.11,9.29q-11.47,13.69-32,15.49l-10.11-9.29Q243.18,257.36,254.65,243.65Z" transform="translate(96.68)"/><line class="cls-4" x1="342.68" y1="251.46" x2="352.79" y2="260.75"/><line class="cls-4" x1="332.02" y1="256.62" x2="342.13" y2="265.91"/><path class="cls-4" d="M222.67,259.14l10.11,9.29q-16.51,1.44-26.3-6.62l-10.11-9.29Q206.17,260.59,222.67,259.14Z" transform="translate(96.68)"/><line class="cls-4" x1="309.09" y1="259.05" x2="319.2" y2="268.34"/><line class="cls-4" x1="300.33" y1="256.84" x2="310.43" y2="266.13"/><path class="cls-4" d="M196.37,252.52l10.11,9.29q-9.78-8.07-9.46-24.48L186.92,228Q186.59,244.45,196.37,252.52Z" transform="translate(96.68)"/></g><path class="cls-4" d="M205.49,261l-10.11-9.29c.32.3.65.59,1,.86q9.8,8.07,26.3,6.62,20.51-1.78,32-15.49t13-30q1.72-18.71-8.06-27.57l10.11,9.28q9.78,8.87,8.06,27.58-1.5,16.29-13,30t-32,15.49q-16.51,1.44-26.3-6.62C206.14,261.53,205.81,261.25,205.49,261Z" transform="translate(96.68)"/></g><path class="cls-1" d="M205.49,261l-10.11-9.29c.32.3.65.59,1,.86q9.8,8.07,26.3,6.62,20.51-1.78,32-15.49t13-30q1.72-18.71-8.06-27.57l10.11,9.28q9.78,8.87,8.06,27.58-1.5,16.29-13,30t-32,15.49q-16.51,1.44-26.3-6.62C206.14,261.53,205.81,261.25,205.49,261Z" transform="translate(96.68)"/></g><g class="cls-2"><g class="cls-83"><g class="cls-2"><path class="cls-4" d="M214.57,186.73l10.1,9.28a60.06,60.06,0,0,1,8.64-5.33l-10.1-9.29A59.41,59.41,0,0,0,214.57,186.73Z" transform="translate(96.68)"/><line class="cls-4" x1="314.69" y1="184.38" x2="324.8" y2="193.67"/><line class="cls-4" x1="317.57" y1="182.6" x2="327.68" y2="191.89"/><path class="cls-4" d="M223.21,181.39l10.1,9.29a38.07,38.07,0,0,1,12.21-2.92l-10.1-9.28A37.76,37.76,0,0,0,223.21,181.39Z" transform="translate(96.68)"/><line class="cls-4" x1="323.52" y1="180.05" x2="333.63" y2="189.33"/><line class="cls-4" x1="327.59" y1="179.07" x2="337.7" y2="188.36"/><path class="cls-4" d="M235.42,178.48l10.1,9.28q14.37-1.24,24.15,7.61l-10.11-9.28Q249.78,177.23,235.42,178.48Z" transform="translate(96.68)"/><line class="cls-4" x1="341.17" y1="178.76" x2="351.27" y2="188.05"/><line class="cls-4" x1="349.22" y1="181.3" x2="359.32" y2="190.59"/></g><path class="cls-4" d="M214.57,186.73a59.41,59.41,0,0,1,8.64-5.34,37.76,37.76,0,0,1,12.21-2.91q14.36-1.26,24.14,7.61l10.11,9.28q-9.78-8.87-24.15-7.61a38.07,38.07,0,0,0-12.21,2.92,60.06,60.06,0,0,0-8.64,5.33Z" transform="translate(96.68)"/></g><path class="cls-1" d="M214.57,186.73a59.41,59.41,0,0,1,8.64-5.34,37.76,37.76,0,0,1,12.21-2.91q14.36-1.26,24.14,7.61l10.11,9.28q-9.78-8.87-24.15-7.61a38.07,38.07,0,0,0-12.21,2.92,60.06,60.06,0,0,0-8.64,5.33Z" transform="translate(96.68)"/></g><g class="cls-2"><g class="cls-84"><polygon class="cls-4" points="283.6 228.04 306.28 226.05 316.39 235.34 293.71 237.32 283.6 228.04"/></g><polygon class="cls-1" points="283.6 228.04 306.28 226.05 316.39 235.34 293.71 237.32 283.6 228.04"/></g><g class="cls-2"><g class="cls-85"><g class="cls-2"><path class="cls-4" d="M213.71,237.23l10.1,9.28q3.45,3.77,10.78,3.12l-10.11-9.29Q217.16,241,213.71,237.23Z" transform="translate(96.68)"/><line class="cls-4" x1="313.12" y1="239.24" x2="323.23" y2="248.53"/><line class="cls-4" x1="316.71" y1="240.28" x2="326.82" y2="249.57"/><path class="cls-4" d="M224.48,240.34l10.11,9.29A18.23,18.23,0,0,0,248,242.47l-10.1-9.29A18.24,18.24,0,0,1,224.48,240.34Z" transform="translate(96.68)"/><line class="cls-4" x1="326.41" y1="239.22" x2="336.52" y2="248.51"/><line class="cls-4" x1="330.89" y1="236.83" x2="340.99" y2="246.12"/><path class="cls-4" d="M237.91,233.18l10.1,9.29a29.23,29.23,0,0,0,5.83-15.58l-10.11-9.29A29.27,29.27,0,0,1,237.91,233.18Z" transform="translate(96.68)"/><line class="cls-4" x1="337.45" y1="228.59" x2="347.56" y2="237.88"/><line class="cls-4" x1="339.39" y1="223.4" x2="349.5" y2="232.69"/><path class="cls-4" d="M243.73,217.6l10.11,9.29q.82-9-2.75-14.83L241,202.77C243.36,206.67,244.29,211.61,243.73,217.6Z" transform="translate(96.68)"/><line class="cls-4" x1="340.48" y1="211.96" x2="350.58" y2="221.25"/><line class="cls-4" x1="339.56" y1="207.02" x2="349.67" y2="216.3"/><path class="cls-4" d="M241,202.77l10.1,9.29q-3.57-5.82-12.33-5.06l-10.11-9.29Q237.41,196.95,241,202.77Z" transform="translate(96.68)"/></g><path class="cls-4" d="M214.24,237.75q3.45,3.18,10.24,2.59a18.24,18.24,0,0,0,13.43-7.16,29.27,29.27,0,0,0,5.82-15.58c.56-6-.37-10.93-2.74-14.83a11,11,0,0,0-1.86-2.28l10.1,9.29a10.41,10.41,0,0,1,1.86,2.28q3.57,5.83,2.75,14.83A29.23,29.23,0,0,1,248,242.47a18.23,18.23,0,0,1-13.42,7.16q-6.79.6-10.25-2.59Z" transform="translate(96.68)"/></g><path class="cls-1" d="M214.24,237.75q3.45,3.18,10.24,2.59a18.24,18.24,0,0,0,13.43-7.16,29.27,29.27,0,0,0,5.82-15.58c.56-6-.37-10.93-2.74-14.83a11,11,0,0,0-1.86-2.28l10.1,9.29a10.41,10.41,0,0,1,1.86,2.28q3.57,5.83,2.75,14.83A29.23,29.23,0,0,1,248,242.47a18.23,18.23,0,0,1-13.42,7.16q-6.79.6-10.25-2.59Z" transform="translate(96.68)"/></g><g class="cls-2"><g class="cls-86"><g class="cls-2"><path class="cls-4" d="M209.6,226.05l10.1,9.29q.66,7.41,4.11,11.17l-10.1-9.28Q210.26,233.47,209.6,226.05Z" transform="translate(96.68)"/><line class="cls-4" x1="307.03" y1="230.59" x2="317.14" y2="239.88"/><line class="cls-4" x1="308.4" y1="234.32" x2="318.51" y2="243.6"/><path class="cls-4" d="M213.71,237.23l10.1,9.28q3.45,3.77,10.78,3.12l-10.11-9.29Q217.16,241,213.71,237.23Z" transform="translate(96.68)"/></g><path class="cls-4" d="M224.34,247l-10.1-9.29a6.5,6.5,0,0,1-.53-.52q-3.45-3.76-4.11-11.18l10.1,9.29q.66,7.41,4.11,11.17C224,246.7,224.16,246.87,224.34,247Z" transform="translate(96.68)"/></g><path class="cls-1" d="M224.34,247l-10.1-9.29a6.5,6.5,0,0,1-.53-.52q-3.45-3.76-4.11-11.18l10.1,9.29q.66,7.41,4.11,11.17C224,246.7,224.16,246.87,224.34,247Z" transform="translate(96.68)"/></g><g class="cls-2"><g class="cls-87"><g class="cls-2"><path class="cls-4" d="M241,202.77l10.1,9.29q-3.57-5.82-12.33-5.06l-10.11-9.29Q237.41,196.95,241,202.77Z" transform="translate(96.68)"/><line class="cls-4" x1="334.71" y1="199.62" x2="344.82" y2="208.91"/><line class="cls-4" x1="330.6" y1="197.93" x2="340.7" y2="207.22"/><path class="cls-4" d="M228.65,197.71,238.76,207a23.91,23.91,0,0,0-7.27,1.68l-10.11-9.29A24,24,0,0,1,228.65,197.71Z" transform="translate(96.68)"/><line class="cls-4" x1="322.68" y1="198.06" x2="332.79" y2="207.34"/><line class="cls-4" x1="320.26" y1="198.62" x2="330.37" y2="207.9"/><path class="cls-4" d="M221.38,199.39l10.11,9.29a18.46,18.46,0,0,0-8.71,7.91l-10.11-9.29A18.55,18.55,0,0,1,221.38,199.39Z" transform="translate(96.68)"/><line class="cls-4" x1="314.65" y1="201.34" x2="324.75" y2="210.63"/><line class="cls-4" x1="311.74" y1="203.98" x2="321.85" y2="213.27"/></g><path class="cls-4" d="M239.13,200.49l10.1,9.29q-3.67-3.37-10.47-2.78a23.91,23.91,0,0,0-7.27,1.68,18.46,18.46,0,0,0-8.71,7.91l-10.11-9.29a18.55,18.55,0,0,1,8.71-7.91,24,24,0,0,1,7.27-1.68Q235.45,197.11,239.13,200.49Z" transform="translate(96.68)"/></g><path class="cls-1" d="M239.13,200.49l10.1,9.29q-3.67-3.37-10.47-2.78a23.91,23.91,0,0,0-7.27,1.68,18.46,18.46,0,0,0-8.71,7.91l-10.11-9.29a18.55,18.55,0,0,1,8.71-7.91,24,24,0,0,1,7.27-1.68Q235.45,197.11,239.13,200.49Z" transform="translate(96.68)"/></g><g class="cls-2"><g class="cls-88"><polygon class="cls-4" points="309.36 207.3 319.46 216.59 299.14 217.4 289.04 208.12 309.36 207.3"/></g><polygon class="cls-1" points="309.36 207.3 319.46 216.59 299.14 217.4 289.04 208.12 309.36 207.3"/></g><g class="cls-2"><g class="cls-89"><polygon class="cls-4" points="289.04 208.12 303.15 142.52 313.25 151.8 299.14 217.4 289.04 208.12"/></g><polygon class="cls-1" points="289.04 208.12 303.15 142.52 313.25 151.8 299.14 217.4 289.04 208.12"/></g><g class="cls-2"><g class="cls-90"><polygon class="cls-4" points="303.15 142.52 366.86 136.94 376.96 146.23 313.25 151.8 303.15 142.52"/></g><polygon class="cls-1" points="303.15 142.52 366.86 136.94 376.96 146.23 313.25 151.8 303.15 142.52"/></g></g></g></g></svg>