<svg xmlns="http://www.w3.org/2000/svg" viewBox="0 0 1125 914"  xmlns:v="https://vecta.io/nano"><defs><clipPath id="A"><path d="M-1.02-2.4h1123.16v916.08H-1.02z" fill="none"/></clipPath></defs><g clip-path="url(#A)" fill="none" stroke-miterlimit="10"><path d="M-8.94,255.91S316.18,120.83,572.72,443.06s563.87,349.45,849.12,91.64" stroke="#ff1d25"/><path d="M1471.42,556.71c-109,98.5-247.27,152.53-371.32,139.14-171-18.45-346.66-55.92-507.75-220.11-85.23-86.88-146-176.9-239.65-215.24-187.87-76.94-363.4,1.6-374.39-2.89" stroke="#fe1d24"/><path d="M1521 578.73c-100.6 90.92-255 142.11-384.43 105.51-169.51-48-355-37.33-524.58-175.82-93.35-76.26-129.79-199.94-237.38-246.75-193.73-84.3-387.07 6.63-409-2.35" stroke="#fd1d24"/><path d="M1570.57,600.75c-92.21,83.35-262.41,132.85-397.52,71.87-167.69-75.69-365.33-18.38-541.43-131.52C529.17,475.27,518,318.31,396.52,262.84,196.77,171.64-14.22,274.5-47.19,261" stroke="#fc1d23"/><path d="M1620.15,622.77c-83.83,75.77-270,124.6-410.62,38.23-166.17-102.08-377.42,1.52-558.28-87.23C538.73,518.56,553.77,328.29,418.43,264,212.53,166.22-16,280.7-59.94,262.72" stroke="#fb1d23"/><path d="M1669.73 644.79c-75.45 68.21-278.11 117.08-423.73 4.59-165.21-127.63-390.94 22.78-575.11-42.93-123.44-44-81.42-268-230.55-341.27C228.18 161-17.74 286.9-72.69 264.43" stroke="#fa1d22"/><path d="M1719.31,666.81c-67.07,60.61-286.76,110-436.83-29-164.85-152.73-405.39,45.59-592,1.37-134.91-32-65.42-290.49-228.27-372.78C243.76,156-19.5,293.1-85.44,266.13" stroke="#f91d22"/><path d="M1768.89,688.83C1710.21,741.87,1473,792,1319,626.14,1154,448.48,898.79,696,710.15,671.81,563.52,653,660.67,359,484.16,267.53,259.28,151-21.27,299.3-98.18,267.84" stroke="#f91d21"/><path d="M1818.46,710.85c-50.29,45.46-305.5,96.39-463-96.33C1189.86,412,920.64,710,729.79,704.48,571.52,700,696.19,369.42,506.07,268.7c-231.33-122.57-529.1,36.8-617,.84" stroke="#f81d20"/><path d="M1868,732.87c-41.91,37.88-315.43,89.65-476.13-130C1225.44,375.4,943,724.85,749.42,737.16,579.86,748,731.66,379.94,528,269.87,290.15,141.33-24.79,311.7-123.68,271.25" stroke="#f71d20"/><path d="M1917.62,754.89c-33.53,30.3-325.62,82.9-489.23-163.6C1260.77,338.76,966,740.39,769.06,769.84c-180.34,27-2-379.3-219.16-498.8C305.53,136.58-26.55,317.9-136.43,273" stroke="#f61d1f"/><path d="M1967.2 776.91c-25.15 22.73-336 76.09-502.34-197.24C1295.92 302 989.78 756.31 788.69 802.52c-190.51 43.78 13.76-401.31-216.88-530.31-250.93-140.34-600.12 51.89-721 2.45" stroke="#f51d1f"/><path d="M2016.78,798.93c-16.77,15.15-346.55,69.23-515.44-230.88-170.42-302.84-487,204.34-693,267.15-200.08,61,29.46-423.27-214.6-561.82-257.53-146.19-623.79,56.92-755.65,3" stroke="#f41d1e"/><path d="M2066.35,820.94c-8.38,7.58-357.2,62.32-528.53-264.51C1365.81,228.3,1039.49,788.5,828,867.87c-209.12,78.47,45.11-445.16-212.33-593.32-264.14-152-647.46,61.95-790.31,3.52" stroke="#f31d1e"/><path d="M2115.93,843s-368,55.35-541.64-298.15-509,259.72-726.7,355.74,60.74-467-210.05-624.83-671.13,67-825,4" stroke="#f21d1d"/><path d="M-186.27,277.58C-33.1,340.23,365.47,117.87,635.48,276c90.83,53.16,119.81,152,126.59,255.94,13.3,205.05-59.93,430.4,84.31,366.77,140.55-62,329.93-338.76,493.14-432,89.61-51.19,171.29-47.12,232.73,77.89C1745.49,897.13,2112,842.64,2112.87,841.64" stroke="#f11d1d"/><path d="M-185.11,275.38c152.5,62.38,549.29-157.55,818.52.81C724,329.42,753,428,760,531.7c13.63,204.39-58.85,428.64,85.2,365.09,140.59-62,329.79-338,492.79-430.62,89.45-50.85,170.94-46.54,232.24,78.18,172.8,351.61,537.94,298,539.61,296" stroke="#f01d1e"/><path d="M-184,273.18c151.83,62.11,546.85-155.38,815.31,3.24,90.29,53.3,119.36,151.72,126.53,255.08C771.82,735.23,700.1,958.38,844,894.91c140.62-62,329.66-337.34,492.43-429.25,89.31-50.51,170.6-46,231.76,78.46C1740.52,894.79,2104.24,842,2106.74,839" stroke="#ef1e1e"/><path d="M-182.8,271c151.16,61.84,544.4-153.21,812.08,5.67,90,53.37,119.13,151.61,126.5,254.65,14.27,203.07-56.69,425.12,87,361.74C983.41,831,1172.28,556.4,1334.82,465.14c89.16-50.17,170.25-45.39,231.29,78.75C1738,893.61,2100.34,841.67,2103.68,837.66" stroke="#ee1e1e"/><path d="M-181.64,268.79c150.49,61.55,542-151.06,808.86,8.1C717,330.32,746.12,428.37,753.68,531.1c14.59,202.41-55.61,423.36,87.86,360.06,140.7-62.1,329.4-335.93,491.71-426.54,89-49.82,169.91-44.81,230.81,79,171.48,348.78,532.39,297.68,536.56,292.67" stroke="#ed1e1e"/><path d="M-180.48,266.59C-30.66,327.87,359,117.7,625.16,277.12c89.48,53.49,118.67,151.37,126.42,253.78,14.92,201.75-54.53,421.6,88.75,358.38,140.74-62.12,329.27-335.21,491.35-425.18,88.87-49.48,169.56-44.23,230.34,79.33C1733.06,891.26,2092.55,841,2097.56,835" stroke="#ec1e1f"/><path d="M-179.33,264.39c149.16,61,537.06-146.72,802.42,13C712.3,330.91,741.53,428.6,749.49,530.7,764.73,731.79,696,950.54,839.12,887.4c140.78-62.14,329.13-334.5,491-423.82,88.72-49.13,169.22-43.65,229.86,79.62,170.6,346.89,528.68,297.49,534.52,290.48" stroke="#eb1e1f"/><path d="M-178.17 262.19C-29.68 322.93 356.44 117.63 621 277.58c89 53.63 118.24 151.14 126.39 252.92C763 730.93 695 948.59 837.9 885.52c140.82-62.17 329-333.79 490.64-422.46 88.57-48.79 168.88-43.08 229.38 79.91 170.16 345.94 526.83 297.4 533.51 289.38" stroke="#ea1e1f"/><path d="M-177,260c147.82,60.46,532.17-142.4,796,17.82,88.67,53.69,118,151,126.33,252.48,15.89,199.77-51.3,416.33,91.4,353.34,140.86-62.19,328.88-333.08,490.28-421.1,88.43-48.44,168.53-42.5,228.91,80.2,169.72,345,525,297.3,532.49,288.29" stroke="#e91f1f"/><path d="M-175.86 257.8C-28.71 318 353.87 117.56 616.9 278.05 705.3 331.81 734.65 429 743.2 530.1c16.21 199.11-50.2 414.57 92.28 351.66 140.9-62.21 328.75-332.37 489.92-419.76 88.28-48.1 168.19-41.92 228.43 80.49 169.28 344 523.13 297.21 531.48 287.19" stroke="#e81f20"/><path d="M-174.7,255.6c146.48,59.92,527.28-138.07,789.53,22.68C703,332.11,732.36,429.06,741.1,529.91c16.53,198.44-49.14,412.8,93.17,350,140.94-62.23,328.61-331.65,489.57-418.38,88.13-47.75,167.83-41.34,227.94,80.78,168.85,343.11,521.28,297.11,530.46,286.09" stroke="#e71f20"/><path d="M-173.54,253.4c145.81,59.65,524.83-135.9,786.31,25.11,87.86,53.9,117.3,150.67,126.23,251.2,16.86,197.78-48.06,411,94.06,348.3,141-62.26,328.48-331,489.21-417,88-47.41,167.49-40.76,227.47,81.06,168.4,342.18,519.43,297,529.44,285" stroke="#e61f20"/><path d="M-172.38,251.21C-27.24,310.57,350,117.46,610.71,278.75c87.58,53.95,117.06,150.55,126.2,250.76,17.17,197.12-47,409.28,94.94,346.62,141-62.29,328.35-330.24,488.85-415.67,87.83-47.06,167.15-40.18,227,81.35,168,341.23,517.58,296.93,528.43,283.91" stroke="#e51f20"/><path d="M-171.23,249c144.48,59.09,519.94-131.58,779.87,30C696,333,725.69,429.39,734.81,529.31c17.92,196.42-45.91,407.52,95.83,344.94,141.05-62.31,328.22-329.53,488.49-414.31,87.69-46.72,166.8-39.6,226.51,81.64,167.53,340.29,515.73,296.84,527.42,282.82" stroke="#e41f21"/><path d="M-170.07,246.81c143.81,58.82,517.49-129.41,776.65,32.4,87,54.09,116.83,150.3,126.13,249.9C751,724.87,687.88,934.87,829.43,872.37,970.52,810,1157.51,543.55,1317.56,459.42c87.54-46.37,166.46-39,226,81.93,167.08,339.34,513.87,296.74,526.4,281.72" stroke="#e32021"/><path d="M-168.91,244.61c143.14,58.55,515-127.25,773.42,34.83,86.77,54.16,116.63,150.18,126.1,249.47,18.63,195.1-43.74,404,97.61,341.58,141.13-62.35,328-328.1,487.77-411.59,87.39-46,166.11-38.44,225.56,82.22,166.64,338.4,512,296.65,525.38,280.62" stroke="#e22021"/><path d="M-167.75,242.42c142.46,58.27,512.59-125.09,770.2,37.26,86.5,54.22,116.41,150.05,126.07,249,19,194.43-42.67,402.24,98.49,339.9s327.82-327.39,487.41-410.23c87.25-45.69,165.77-37.86,225.08,82.51,166.21,337.45,510.18,296.56,524.37,279.53" stroke="#e12021"/><path d="M-166.6,240.22c141.8,58,510.16-122.93,767,39.69,86.23,54.29,116.2,149.94,126,248.6C745.75,722.28,684.83,929,825.8,866.73c141.21-62.4,327.69-326.68,487.05-408.87,87.1-45.34,165.43-37.28,224.61,82.8,165.76,336.51,508.32,296.46,523.35,278.43" stroke="#e02022"/><path d="M-165.44,238c141.13,57.73,507.71-120.76,763.76,42.12,86,54.35,116,149.82,126,248.17C744,721.42,683.81,927,824.59,864.85c141.24-62.42,327.72-325.65,486.69-407.51,87-44.82,165.08-36.7,224.13,83.09C1700.74,876,2041.89,836.8,2057.75,817.76" stroke="#df2022"/><path d="M-164.28,235.82C-23.82,293.28,341,117.23,596.25,280.37c85.69,54.42,115.77,149.7,126,247.74,20,192.44-39.44,397,101.14,334.87C964.66,800.53,1151,538.05,1309.72,456.82c86.89-44.47,164.73-36.12,223.64,83.38C1698.25,874.82,2038,836.47,2054.68,816.44" stroke="#de2022"/><path d="M-163.12,233.62c139.79,57.19,502.81-116.43,757.31,47,85.42,54.48,115.55,149.58,125.94,247.3,20.38,191.78-38.36,395.2,102,333.19,141.33-62.47,327.48-324.2,486-404.8,86.75-44.11,164.38-35.54,223.17,83.67,164.44,333.68,502.77,296.18,520.3,275.14" stroke="#dd2122"/><path d="M-162 231.43c139.13 56.9 500.37-114.27 754.1 49.41C677.27 335.39 707.46 430.3 718 527.71c20.77 191.11-37.24 393.44 103 331.51 141.37-62.49 327.36-323.47 485.63-403.44 86.61-43.76 164-35 222.69 84 164 332.73 500.92 296.08 519.29 274" stroke="#dc2123"/><path d="M-160.81,229.23c138.46,56.63,497.92-112.1,750.87,51.84,84.88,54.62,115.12,149.34,125.87,246.44C737,718,679.74,919.19,819.74,857.34,961.15,794.82,1147,534.6,1305,455.26c86.46-43.4,163.7-34.38,222.21,84.25,163.57,331.79,499.08,296,518.28,273" stroke="#db2123"/><path d="M-159.65,227C-21.87,283.39,335.82,117.09,588,281.3c84.6,54.69,114.91,149.23,125.84,246,21.43,189.79-35.12,389.92,104.69,328.15,141.44-62.54,327.11-322,484.91-400.72,86.32-43.05,163.35-33.8,221.74,84.54,163.12,330.84,497.22,295.89,517.25,271.85" stroke="#da2123"/><path d="M-158.49,224.83c137.11,56.09,493-107.77,744.42,56.71,84.34,54.74,114.7,149.1,125.81,245.57,21.79,189.12-34,388.16,105.58,326.47,141.48-62.56,327-321.29,484.55-399.36,86.18-42.7,163-33.22,221.26,84.82C1685.82,869,2018.5,834.85,2039.37,809.81" stroke="#d92124"/><path d="M-157.34,222.64C-20.89,278.45,333.24,117,583.87,281.77c84.06,54.81,114.48,149,125.77,245.14,22.14,188.46-33,386.4,106.47,324.79,141.52-62.58,326.85-320.56,484.19-398,86-42.34,162.66-32.64,220.79,85.11,162.24,329,493.52,295.71,515.22,269.67" stroke="#d82124"/><path d="M-156.18,220.44C-20.4,276,332,117,581.8,282c83.8,54.88,114.27,148.86,125.75,244.72C730,714.5,675.66,911.35,814.9,849.82c141.56-62.6,326.73-319.83,483.83-396.64,85.89-42,162.32-32.06,220.31,85.4,161.81,328,491.67,295.62,514.21,268.57" stroke="#d72224"/><path d="M-155,218.24c135.11,55.27,485.69-101.28,734.76,64,83.52,54.95,114,148.75,125.71,244.29C728.29,713.64,674.65,909.39,813.69,848c141.6-62.63,326.6-319.11,483.47-395.29,85.75-41.64,162-31.48,219.83,85.69,161.37,327.08,489.82,295.52,513.19,267.48" stroke="#d62224"/><path d="M-153.86,216c134.44,55,482.9-98.6,731.54,66.43,83.13,55.18,113.83,148.62,125.67,243.85,23.19,186.45-29.72,381.11,109.13,319.75C954.11,783.41,1139,527.69,1295.6,452.14c85.6-41.28,161.62-30.9,219.35,86,160.92,326.13,488,295.43,512.17,266.38" stroke="#d52225"/><path d="M-152.71,213.85c133.78,54.71,480.45-96.43,728.32,68.85C658.47,338,689.23,431.2,701.26,526.12c23.53,185.79-28.65,379.35,110,318.07C952.94,781.51,1137.62,526.54,1294,451.62c85.45-40.93,161.28-30.32,218.87,86.27C1673.39,863.08,1999,833.23,2024.06,803.17" stroke="#d42225"/><path d="M-151.55,211.65c133.1,54.44,478-94.25,725.1,71.28,82.58,55.33,113.4,148.38,125.61,243C723.05,711,671.59,903.51,810.06,842.31c141.71-62.7,326.22-316.92,482.4-391.21,85.31-40.57,160.93-29.74,218.39,86.56C1670.9,861.9,1995.12,832.9,2021,801.85" stroke="#d32225"/><path d="M-150.39,209.45C-18,263.62,325.13,117.38,571.48,283.16c82.32,55.4,113.19,148.27,125.58,242.56,24.24,184.46-26.49,375.83,111.79,314.71,141.75-62.72,326.1-316.2,482-389.85,85.17-40.22,160.59-29.16,217.92,86.85,159.6,323.3,482.41,295.15,509.12,263.09" stroke="#d22225"/><path d="M-149.23,207.25c131.76,53.9,473.06-89.89,718.65,76.15,82,55.46,113,148.14,125.54,242.12,24.59,183.79-25.41,374.08,112.67,313,141.8-62.74,326-315.47,481.69-388.49,85-39.87,160.24-28.58,217.44,87.14,159.17,322.35,480.57,295,508.11,262" stroke="#d12326"/><path d="M-148.08,205.06c131.1,53.62,470.61-87.72,715.43,78.57,81.77,55.53,112.76,148,125.52,241.69,24.94,183.13-24.33,372.32,113.55,311.35,141.83-62.77,325.85-314.74,481.33-387.13,84.88-39.51,159.9-28,217,87.43,158.73,321.41,478.72,295,507.1,260.9" stroke="#d02326"/><path d="M-146.92 202.86c130.43 53.35 468.15-85.54 712.21 81 81.49 55.61 112.54 147.9 125.48 241.26 25.29 182.46-23.25 370.56 114.44 309.67 141.87-62.79 325.73-314 481-385.77 84.74-39.16 159.56-27.43 216.49 87.72 158.3 320.47 476.83 294.86 506.05 259.8" stroke="#cf2326"/><path d="M-145.76,200.66c129.76,53.08,465.69-83.36,709,83.43,81.22,55.68,112.33,147.79,125.45,240.83,25.64,181.8-22.17,368.8,115.33,308,141.91-62.82,325.6-313.29,480.61-384.41,84.59-38.82,159.21-26.86,216,88,157.85,319.52,475,294.77,505.06,258.71" stroke="#ce2326"/><path d="M-144.6,198.46c129.09,52.81,463.23-81.18,705.76,85.87C642.1,340.07,673.27,432,686.58,524.72c26,181.13-21.1,367,116.21,306.32,142-62.84,325.47-312.56,480.25-383,84.45-38.46,158.87-26.28,215.53,88.29C1656,854.86,1971.74,831,2002.62,793.89" stroke="#cd2327"/><path d="M-143.45,196.27c128.42,52.52,460.78-79,702.55,88.29,80.66,55.82,111.89,147.54,125.38,240,26.33,180.47-20,365.28,117.1,304.64,142-62.86,325.35-311.84,479.9-381.69,84.3-38.11,158.51-25.7,215,88.57,157,317.64,471.31,294.59,503,256.52" stroke="#cc2327"/><path d="M-142.29,194.07C-14.54,246.32,316,117.24,557,284.79c80.39,55.89,111.68,147.42,125.35,239.53,26.69,179.8-18.94,363.52,118,303,142-62.89,325.22-311.11,479.54-380.33,84.15-37.76,158.17-25.12,214.57,88.86,156.53,316.7,469.46,294.49,502,255.43" stroke="#cb2427"/><path d="M-141.13,191.87C-14,243.85,314.73,117.22,555,285c80.11,56,111.46,147.31,125.31,239.1,27,179.13-17.85,361.76,118.88,301.28,142.06-62.91,325.09-310.38,479.18-379,84-37.4,157.83-24.54,214.09,89.15,156.1,315.75,467.62,294.4,501,254.33" stroke="#ca2427"/><path d="M-140,189.67c126.41,51.71,453.4-72.47,692.87,95.59,79.84,56,111.25,147.18,125.29,238.66,27.38,178.47-16.78,360,119.76,299.6,142.1-62.93,325-309.65,478.82-377.61,83.86-37.05,157.48-24,213.62,89.44,155.65,314.81,465.76,294.3,500,253.23" stroke="#c92428"/><path d="M-138.82,187.48c125.75,51.43,451-70.3,689.66,98,79.56,56.1,111,147.06,125.25,238.23,27.73,177.8-15.7,358.24,120.65,297.92,142.14-62.95,324.84-308.92,478.46-376.25,83.72-36.7,157.14-23.38,213.14,89.73,155.21,313.87,463.91,294.21,499,252.14" stroke="#c82428"/><path d="M-137.66,185.28c125.08,51.16,448.49-68.12,686.43,100.44,79.3,56.17,110.82,146.94,125.22,237.8C702.07,700.65,659.37,880,795.53,819.76c142.18-63,324.71-308.2,478.1-374.89,83.58-36.34,156.79-22.8,212.67,90,154.77,312.92,462.06,294.12,498,251" stroke="#c72428"/><path d="M-136.5,183.08C-12.09,234,309.53,117.14,546.71,286c79,56.24,110.6,146.82,125.19,237.38C700.32,699.79,658.35,878,794.32,817.89c142.22-63,324.58-307.48,477.74-373.54,83.43-36,156.45-22.22,212.19,90.31,154.33,312,460.21,294,496.93,250" stroke="#c62428"/><path d="M-135.34,180.88c123.73,50.62,443.57-63.76,680,105.31C623.39,342.5,655,432.88,669.8,523.13c28.77,175.79-12.47,353,123.31,292.88,142.25-63,324.45-306.75,477.38-372.18,83.29-35.64,156.11-21.64,211.71,90.6,153.89,311,458.36,293.93,495.92,248.85" stroke="#c52529"/><path d="M-134.19,178.69C-11.12,229,306.93,117.1,542.58,286.42,621.05,342.8,652.75,433,667.7,522.93c29.12,175.12-11.38,351.19,124.19,291.2,142.3-63,324.33-306,477-370.82,83.14-35.28,155.76-21.06,211.24,90.89C1633.61,844.29,1936.66,828,1975.06,782" stroke="#c42529"/><path d="M-133,176.49c122.4,50.06,438.66-59.41,673.55,110.16,78.19,56.45,110,146.46,125.09,236.08,29.46,174.46-10.31,349.43,125.07,289.52C933,749.18,1114.89,507,1267.36,442.79c83-34.93,155.41-20.48,210.75,91.18,153,309.14,454.66,293.74,493.89,246.66" stroke="#c32529"/><path d="M-131.87,174.29c121.73,49.79,436.2-57.23,670.32,112.59,77.92,56.52,109.74,146.34,125.06,235.65,29.81,173.79-9.23,347.67,126,287.84,142.38-63.09,324.08-304.57,476.32-368.1,82.85-34.58,155.06-19.9,210.27,91.47,152.58,308.2,452.81,293.64,492.87,245.56" stroke="#c2252a"/><path d="M-130.72,172.09C-9.65,221.61,303,117,536.39,287.12c77.64,56.59,109.52,146.21,125,235.21,30.16,173.12-8.15,345.91,126.85,286.16,142.42-63.12,324-303.84,476-366.74,82.7-34.22,154.72-19.32,209.8,91.76C1626.15,840.77,1925,827.06,1965.87,778" stroke="#c1252a"/><path d="M-129.56,169.89C-9.16,219.14,301.73,117,534.32,287.35c77.37,56.66,109.31,146.09,125,234.78,30.51,172.46-7.07,344.15,127.74,284.48,142.45-63.14,323.82-303.11,475.6-365.38,82.56-33.87,154.38-18.74,209.32,92,151.69,306.31,449.11,293.45,490.84,243.37" stroke="#c0252a"/><path d="M-128.4,167.7c119.73,49,428.82-50.71,660.66,119.88,77.09,56.73,109.08,146,125,234.35,30.85,171.79-6,342.39,128.62,282.8,142.49-63.16,323.69-302.38,475.24-364,82.41-33.52,154-18.16,208.84,92.34,151.26,305.37,447.26,293.36,489.83,242.27" stroke="#bf262a"/><path d="M-127.24,165.5C-8.19,214.2,299.12,117,530.19,287.81,607,344.61,639.06,433.66,655.12,521.73c31.2,171.12-4.91,340.63,129.51,281.13,142.53-63.19,323.56-301.67,474.88-362.67,82.27-33.16,153.69-17.58,208.37,92.62,150.81,304.43,445.4,293.27,488.81,241.19" stroke="#be262b"/><path d="M-126.09,163.3C-7.7,211.73,297.82,117,528.13,288.05,604.68,344.91,636.78,433.78,653,521.53,684.57,692,649.19,860.4,783.42,801,926,737.77,1106.85,500,1257.94,439.67c82.12-32.81,153.34-17,207.89,92.91,150.37,303.49,443.55,293.18,487.79,240.09" stroke="#bd262b"/><path d="M-124.93,161.1c117.72,48.16,421.45-44.18,651,127.18,76.27,56.94,108.43,145.61,124.86,233.05,31.89,169.79-2.76,337.11,131.28,277.77,142.61-63.24,323.3-300.21,474.16-360,82-32.46,153-16.42,207.41,93.2,149.94,302.54,441.71,293.08,486.78,239" stroke="#bc262b"/><path d="M-123.77,158.91c117.05,47.87,419-42,647.77,129.6,76,57,108.22,145.49,124.83,232.62C681.07,690.25,647.15,856.48,781,797.22,923.65,734,1104.17,497.73,1254.8,438.63c81.83-32.11,152.66-15.84,206.94,93.49,149.49,301.6,439.85,293,485.76,237.9" stroke="#bb262b"/><path d="M-122.61,156.71c116.38,47.6,416.53-39.83,644.55,132,75.72,57.08,108,145.37,124.79,232.19,32.58,168.45-.6,333.59,133.06,274.41,142.68-63.28,323-298.76,473.45-357.23,81.68-31.75,152.3-15.26,206.45,93.78,149.06,300.66,438,292.9,484.75,236.8" stroke="#ba262c"/><path d="M-121.46,154.51C-5.74,201.84,292.62,116.85,519.87,289c75.45,57.14,107.79,145.24,124.76,231.75,32.93,167.78.48,331.83,134,272.73,142.72-63.3,322.91-298,473.09-355.87,81.53-31.4,152-14.68,206,94.07,148.62,299.71,436.16,292.8,483.73,235.7" stroke="#b9272c"/><path d="M-120.3,152.31c115.05,47.06,411.62-35.48,638.11,136.9C593,346.42,625.37,434.33,642.54,520.53c33.27,167.12,1.56,330.08,134.82,271.05,142.77-63.32,322.79-297.31,472.74-354.51,81.39-31.05,151.61-14.1,205.5,94.36C1603.77,830.2,1889.9,824.14,1938.31,766" stroke="#b8272c"/><path d="M-119.14,150.12C-4.77,196.9,290,116.81,515.74,289.44c74.9,57.28,107.35,145,124.7,230.89,33.62,166.45,2.64,328.32,135.71,269.37C919,726.35,1098.81,493.12,1248.53,436.55c81.24-30.69,151.27-13.52,205,94.65C1601.29,829,1886,823.81,1935.25,764.71" stroke="#b7272c"/><path d="M-118,147.92c113.7,46.51,406.7-31.14,631.66,141.75C588.3,347,620.81,434.55,638.34,520.14c34,165.77,3.72,326.55,136.6,267.69C917.79,724.45,1097.47,492,1247,436c81.1-30.34,150.93-12.94,204.54,94.94,147.3,296.88,430.6,292.52,480.69,232.41" stroke="#b6272d"/><path d="M-116.83,145.72c113,46.24,404.25-29,628.44,144.19,74.35,57.42,106.92,144.75,124.64,230C670.55,685,641,844.73,773.73,786c142.88-63.4,322.4-295.14,471.66-350.44,80.95-30,150.58-12.36,204.07,95.23,146.85,295.93,428.75,292.42,479.66,231.32" stroke="#b5272d"/><path d="M-115.67,143.52c112.37,46,401.79-26.79,625.22,146.62,74.08,57.49,106.69,144.63,124.6,229.6,34.65,164.43,5.87,323,138.37,264.33,142.92-63.42,322.27-294.41,471.3-349.08,80.8-29.64,150.24-11.78,203.59,95.52,146.42,295,426.9,292.33,478.65,230.22" stroke="#b4282d"/><path d="M-114.51 141.33c111.7 45.69 399.33-24.62 622 149 73.8 57.6 106.51 144.55 124.56 229.21 35 163.76 7 321.27 139.26 262.65 143-63.44 322.14-293.68 470.94-347.72 80.66-29.28 149.89-11.21 203.12 95.81 146 294 425 292.23 477.63 229.13" stroke="#b3282d"/><path d="M-113.35,139.13c111,45.41,396.87-22.44,618.77,151.47C579,348.23,611.68,435,630,519.34c35.34,163.09,8,319.51,140.15,261,143-63.47,322-293,470.58-346.36,80.51-28.93,149.55-10.63,202.64,96.1,145.54,293.1,423.2,292.14,476.62,228" stroke="#b2282e"/><path d="M-112.2,136.93c110.37,45.14,394.43-20.27,615.56,153.91,73.25,57.69,106,144.27,124.5,228.3,35.68,162.43,9.11,317.75,141,259.29,143-63.49,321.88-292.23,470.23-345,80.36-28.58,149.2-10.05,202.15,96.38,145.1,292.17,421.35,292.05,475.6,226.94" stroke="#b1282e"/><path d="M-111,134.73c109.69,44.87,392-18.09,612.33,156.34,73,57.76,105.82,144.15,124.47,227.87,36,161.76,10.19,316,141.92,257.61,143.07-63.51,321.75-291.5,469.87-343.64,80.21-28.23,148.85-9.47,201.68,96.67,144.65,291.22,419.49,292,474.58,225.85" stroke="#b0282e"/><path d="M-109.88,132.54c109,44.59,389.51-15.93,609.11,158.76,72.7,57.84,105.6,144,124.43,227.44C660,679.83,634.93,833,766.47,774.67,909.58,711.14,1088.09,483.89,1236,432.39c80.06-27.88,148.51-8.89,201.2,97,144.22,290.28,417.64,291.86,473.57,224.75" stroke="#af282e"/><path d="M-108.72,130.34c108.35,44.32,387-13.76,605.88,161.19,72.43,57.91,105.39,143.91,124.41,227C658.28,679,633.91,831,765.26,772.8c143.15-63.56,321.48-290.06,469.15-340.93,79.92-27.52,148.16-8.31,200.72,97.25,143.78,289.33,415.8,291.77,472.56,223.65" stroke="#ae292f"/><path d="M-107.57,128.14C.12,172.19,277,116.56,495.1,291.77c72.15,58,105.17,143.78,124.37,226.57,37,159.75,13.42,310.71,144.58,252.58,143.19-63.58,321.35-289.34,468.79-339.56,79.77-27.18,147.82-7.74,200.25,97.53C1576.42,817.28,1847,820.57,1904.62,751.45" stroke="#ad292f"/><path d="M-106.41 125.94C.61 169.72 275.73 116.53 493 292c71.92 58 105 143.66 124.37 226.14 37.4 159.08 14.51 309 145.47 250.9 143.23-63.61 321.22-288.61 468.43-338.2 79.63-26.83 147.48-7.16 199.77 97.82 142.9 287.44 412.09 291.58 470.52 221.46" stroke="#ac292f"/><path d="M-105.25,123.75C1.1,167.25,274.43,116.51,491,292.23c71.61,58.11,104.73,143.54,124.31,225.71C653,676.35,630.86,825.13,761.62,767.16c143.28-63.63,321.1-287.88,468.08-336.84,79.48-26.48,147.13-6.58,199.29,98.11,142.46,286.5,410.25,291.49,469.51,220.37" stroke="#ab2930"/><path d="M-104.09,121.55c105.68,43.22,377.22-5.07,593,170.91,71.33,58.18,104.51,143.42,124.27,225.28,38.08,157.74,16.66,305.43,147.23,247.54,143.31-63.65,321-287.16,467.72-335.48,79.33-26.13,146.79-6,198.82,98.4,142,285.56,408.39,291.39,468.49,219.27" stroke="#aa2930"/><path d="M-102.94,119.35c105,43,374.77-2.9,589.78,173.35C557.9,350.94,591.13,436,611.08,517.54,649.5,674.61,628.82,821.21,759.2,763.4,902.55,699.73,1080,477,1226.56,429.28c79.19-25.77,146.44-5.42,198.34,98.69,141.58,284.61,406.54,291.3,467.47,218.17" stroke="#a92930"/><path d="M-101.78,117.15c104.34,42.68,372.31-.72,586.56,175.78C555.56,351.24,588.85,436.1,609,517.34c38.77,156.4,18.82,301.91,149,244.18,143.39-63.69,320.7-285.71,467-332.76,79-25.42,146.09-4.84,197.85,99,141.14,283.67,404.69,291.2,466.46,217.08" stroke="#a82a30"/><path d="M-100.62 115c103.67 42.36 369.85 1.4 583.33 178.16 70.51 58.38 103.85 143 124.18 224 39.1 155.73 19.89 300.15 149.89 242.5 143.43-63.72 320.57-285 466.65-331.4 78.88-25.07 145.75-4.26 197.38 99.27 140.7 282.72 402.84 291.11 465.44 216" stroke="#a72a31"/><path d="M-99.46,112.76c103,42.13,367.39,3.61,580.11,180.63C550.88,351.84,584.28,436.32,604.79,517c39.44,155,21,298.38,150.78,240.82C899,694,1076,473.5,1221.86,427.72c78.74-24.72,145.4-3.68,196.9,99.56,140.26,281.78,401,291,464.43,214.88" stroke="#a62a31"/><path d="M-98.31,110.56C4,152.42,266.63,116.35,478.58,293.63c70,58.51,103.42,142.8,124.11,223.12,39.79,154.38,22.06,296.62,151.67,239.14,143.5-63.77,320.3-283.54,465.93-328.69,78.59-24.37,145.06-3.1,196.42,99.85C1556.53,807.88,1815.85,818,1880.12,740.84" stroke="#a52a31"/><path d="M-97.15,108.36c101.67,41.59,362.49,8,573.67,185.5,69.69,58.58,103.19,142.68,124.08,222.69C640.72,670.26,623.73,811.41,753.15,754c143.54-63.79,320.17-282.82,465.57-327.33,78.44-24,144.71-2.52,196,100.13,139.38,279.9,397.29,290.83,462.39,212.7" stroke="#a42a31"/><path d="M-96,106.16C5,147.48,264,116.29,474.46,294.09c69.41,58.65,103,142.55,124,222.26,40.46,153,24.21,293.1,153.44,235.78,143.58-63.81,320-282.09,465.21-326,78.3-23.66,144.37-1.94,195.47,100.42,138.94,279,395.44,290.74,461.38,211.6" stroke="#a32a32"/><path d="M-94.83,104C5.49,145,262.74,116.26,472.39,294.32c69.14,58.72,102.75,142.43,124,221.83,40.8,152.37,25.29,291.34,154.33,234.1,143.62-63.84,319.9-281.37,464.85-324.61,78.15-23.31,144-1.36,195,100.71,138.5,278,393.58,290.64,460.36,210.51" stroke="#a22b32"/><path d="M-93.68,101.77c99.66,40.76,355.12,14.47,564,192.79,68.86,58.78,102.53,142.3,124,221.39,41.14,151.7,26.37,289.58,155.22,232.42C893.18,684.51,1069.29,467.72,1214,425.12c78-23,143.68-.78,194.52,101,138.06,277.07,391.73,290.55,459.34,209.41" stroke="#a12b32"/><path d="M-92.52,99.57c99,40.49,352.66,16.64,560.78,195.22,68.59,58.85,102.31,142.18,124,221,41.48,151,27.45,287.82,156.1,230.74C892,682.61,1067.94,466.57,1212.44,424.6c77.85-22.61,143.34-.2,194,101.29C1544.1,802,1796.37,816.35,1864.81,734.21" stroke="#a02b32"/><path d="M-91.36,97.37C7,137.59,258.84,116.18,466.2,295c68.32,58.92,102.09,142.06,123.91,220.53,41.82,150.36,28.53,286.07,157,229.06,143.74-63.9,319.51-279.2,463.79-320.53,77.7-22.26,143,.38,193.56,101.58,137.18,275.18,388,290.36,457.31,207.22" stroke="#9f2b33"/><path d="M-90.2,95.18c97.65,39.94,347.74,21,554.33,200.07,68,59,101.87,141.94,123.88,220.1C630.17,665,617.62,799.66,745.88,742.74c143.78-63.93,319.38-278.48,463.43-319.18,77.55-21.91,142.64,1,193.08,101.87,136.74,274.23,386.18,290.27,456.3,206.12" stroke="#9e2b33"/><path d="M-89,93c97,39.67,345.3,23.14,551.12,202.51,67.77,59.05,101.65,141.81,123.85,219.66,42.49,149,30.68,282.55,158.75,225.71,143.82-64,319.24-277.76,463.07-317.82,77.4-21.56,142.3,1.54,192.6,102.16,136.3,273.29,384.34,290.17,455.29,205" stroke="#9d2b33"/><path d="M-87.89,90.78C8.43,130.18,255,116.09,460,295.72,527.5,354.84,561.43,437.41,583.82,515c42.83,148.35,31.76,280.79,159.64,224,143.86-64,319.11-277,462.71-316.46,77.25-21.21,141.95,2.12,192.13,102.45,135.86,272.34,382.48,290.08,454.26,203.93" stroke="#9c2c33"/><path d="M-86.73,88.58C8.91,127.71,253.65,116.06,457.94,296c67.22,59.19,101.21,141.57,123.78,218.8,43.17,147.68,32.84,279,160.53,222.35,143.89-64,319-276.31,462.35-315.1,77.11-20.86,141.61,2.7,191.65,102.74,135.42,271.4,380.63,290,453.25,202.83" stroke="#9b2c34"/><path d="M-85.57,86.39C9.4,125.24,252.35,116,455.88,296.18c67,59.26,101,141.45,123.75,218.37,43.5,147,33.92,277.27,161.41,220.67,143.93-64,318.84-275.59,462-313.74,77-20.51,141.26,3.28,191.17,103C1529.19,795,1773,814.4,1846.44,726.25" stroke="#9a2c34"/><path d="M-84.42,84.19C9.89,122.76,251.06,116,453.81,296.42c66.68,59.32,100.77,141.32,123.72,217.93,43.84,146.34,35,275.51,162.3,219,144-64,318.7-274.87,461.63-312.38,76.81-20.16,140.92,3.86,190.7,103.32,134.54,269.51,376.93,289.79,451.22,200.64" stroke="#992c34"/><path d="M-83.26,82c93.64,38.3,333,34,535,214.66,66.4,59.39,100.54,141.2,123.68,217.5,44.18,145.67,36.08,273.75,163.19,217.31,144-64.07,318.57-274.14,461.27-311,76.66-19.81,140.57,4.44,190.22,103.61,134.1,268.57,375.08,289.7,450.2,199.55" stroke="#982c34"/><path d="M-82.1,79.79c93,38,330.56,36.16,531.78,217.09C515.81,356.34,550,438,573.33,514c44.52,145,37.16,272,164.08,215.63,144.05-64.09,318.43-273.42,460.91-309.66,76.51-19.46,140.23,5,189.74,103.89,133.67,267.63,373.23,289.61,449.19,198.46" stroke="#972c35"/><path d="M-80.95,77.6c92.31,37.75,328.11,38.32,528.57,219.51,65.85,59.53,100.1,141,123.62,216.64,44.84,144.32,38.23,270.23,165,214C880.29,663.59,1054.5,455,1196.76,419.4c76.36-19.11,139.88,5.59,189.26,104.18,133.22,266.69,371.38,289.52,448.17,197.36" stroke="#962d35"/><path d="M-79.79,75.4c91.64,37.48,325.66,40.48,525.34,222,65.59,59.59,99.88,140.83,123.59,216.21C614.32,657.2,608.45,782,735,725.83c144.12-64.14,318.16-272,460.2-307,76.21-18.76,139.53,6.17,188.78,104.47,132.79,265.74,369.53,289.42,447.16,196.27" stroke="#952d35"/><path d="M-78.63,73.2c91,37.21,323.2,42.65,522.12,224.38C508.8,357.24,543.14,438.28,567,513.36c45.52,143,40.4,266.7,166.74,210.59,144.16-64.16,318-271.27,459.84-305.59,76.06-18.41,139.19,6.75,188.3,104.76,132.35,264.8,367.68,289.33,446.14,195.17" stroke="#942d36"/><path d="M-77.47,71c90.29,36.94,320.74,44.82,518.9,226.81,65,59.73,99.43,140.58,123.52,215.35,45.85,142.3,41.47,264.94,167.62,208.91,144.2-64.19,317.89-270.54,459.48-304.23,75.91-18.06,138.84,7.33,187.83,105.05C1511.78,786.75,1745.7,812.12,1825,717" stroke="#932d36"/><path d="M-76.32 68.81C13.31 105.47 242 115.79 439.36 298c64.76 59.84 99.21 140.5 123.49 215C609 654.59 605.4 776.14 731.35 720.19 875.6 656 1049.11 450.37 1190.48 417.32c75.76-17.71 138.5 7.91 187.35 105.34 131.47 262.91 364 289.14 444.11 193" stroke="#922d36"/><path d="M-75.16,66.61C13.8,103,240.68,115.76,437.3,298.28c64.48,59.86,99,140.33,123.45,214.48,46.52,141,43.63,261.42,169.39,205.55,144.29-64.23,317.63-269.1,458.77-301.51,75.61-17.36,138.16,8.49,186.88,105.63,131,262,362.12,289.05,443.09,191.88" stroke="#912d36"/><path d="M-74,64.41c88.29,36.11,313.38,51.32,509.23,234.1,64.22,59.93,98.76,140.21,123.42,214,46.86,140.29,44.71,259.66,170.28,203.87,144.32-64.25,317.49-268.38,458.41-300.15,75.47-17,137.81,9.07,186.4,105.92C1504.32,783.22,1734,811.15,1815.81,713" stroke="#902e37"/><path d="M-72.84,62.21c87.62,35.84,310.92,53.49,506,236.53,63.94,60,98.54,140.09,123.39,213.62C603.74,652,602.34,770.26,727.72,714.55c144.36-64.27,317.35-267.66,458.05-298.79,75.32-16.66,137.47,9.65,185.92,106.21,130.15,260.08,358.43,288.86,441.06,189.69" stroke="#8f2e37"/><path d="M-71.69,60c87,35.57,308.48,55.66,502.79,239,63.67,60.06,98.32,140,123.36,213.19C602,651.1,601.33,768.3,726.51,712.68c144.4-64.31,317.22-266.95,457.69-297.44,75.17-16.31,137.12,10.23,185.45,106.5,129.7,259.13,356.57,288.76,440,188.59" stroke="#8e2e37"/><path d="M-70.53 57.82c86.28 35.29 306 57.81 499.57 241.39 63.39 60.12 98.09 139.84 123.32 212.79 47.85 138.23 47.95 254.34 172.94 198.8 144.44-64.33 317.08-266.23 457.34-296.08 75-16 136.77 10.81 185 106.79 129.27 258.19 354.72 288.67 439 187.5" stroke="#8d2e37"/><path d="M-69.37,55.62c85.61,35,303.57,60,496.35,243.82,63.12,60.19,97.86,139.72,123.29,212.32,48.18,137.6,49,252.62,173.82,197.16,144.48-64.35,316.94-265.51,457-294.71,74.86-15.62,136.43,11.38,184.48,107.07,128.83,257.25,352.88,288.57,438,186.4" stroke="#8c2e38"/><path d="M-68.21,53.42C16.73,88.17,232.9,115.57,424.91,299.67c62.85,60.26,97.64,139.59,123.26,211.89C596.68,648.49,598.27,762.42,722.88,707c144.51-64.37,316.81-264.79,456.62-293.35,74.71-15.27,136.08,12,184,107.36,128.38,256.3,351,288.48,437,185.3" stroke="#8b2e38"/><path d="M-67.06,51.22C17.22,85.7,231.6,115.54,422.85,299.9c62.57,60.33,97.42,139.47,123.22,211.46,48.85,136.26,51.18,249.1,175.6,193.8,144.55-64.39,316.67-264.07,456.26-292,74.56-14.92,135.74,12.54,183.53,107.65,128,255.36,349.17,288.38,436,184.21" stroke="#8a2f38"/><path d="M-65.9,49c83.61,34.2,296.21,66.47,486.68,251.11,62.3,60.39,97.2,139.34,123.2,211,49.17,135.59,52.25,247.34,176.48,192.12,144.59-64.42,316.53-263.35,455.9-290.63,74.41-14.57,135.39,13.12,183.05,107.93,127.51,254.42,347.32,288.3,435,183.12" stroke="#892f38"/><path d="M-64.74,46.83C18.2,80.75,229,115.47,418.72,300.37c62,60.46,97,139.22,123.16,210.59,49.5,134.92,53.34,245.58,177.37,190.44,144.63-64.44,316.4-262.63,455.54-289.27,74.26-14.23,135,13.7,182.58,108.22,127.06,253.48,345.47,288.2,433.94,182" stroke="#882f39"/><path d="M-63.58,44.63c82.27,33.65,291.3,70.81,480.23,256,61.76,60.52,96.75,139.1,123.13,210.16C589.62,645,594.2,754.58,718,699.52c144.67-64.46,316.26-261.91,455.18-287.91,74.12-13.88,134.71,14.28,182.1,108.51C1482,772.65,1698.94,808.23,1788.25,701.05" stroke="#872f39"/><path d="M-62.43,42.43c81.61,33.38,288.85,73,477,258.4,61.48,60.59,96.52,139,123.09,209.73,50.17,133.57,55.5,242.06,179.14,187.09,144.72-64.49,316.13-261.2,454.83-286.56,74-13.53,134.36,14.86,181.62,108.8,126.19,251.59,341.77,288,431.92,179.83" stroke="#862f39"/><path d="M-61.27,40.24c80.93,33.1,286.4,75.13,473.79,260.83,61.22,60.65,96.3,138.85,123.07,209.3,50.49,132.89,56.57,240.3,180,185.4,144.75-64.51,316-260.48,454.47-285.2,73.82-13.18,134,15.44,181.15,109.09C1477,770.3,1691.15,807.58,1782.13,698.4" stroke="#852f39"/><path d="M-60.11,38c80.26,32.83,283.94,77.3,470.57,263.26C471.4,362,506.53,440,533.49,510.17c50.82,132.22,57.65,238.54,180.91,183.72,144.79-64.54,315.86-259.76,454.12-283.84,73.66-12.83,133.66,16,180.66,109.38,125.31,249.7,338.07,287.83,429.88,177.64" stroke="#84303a"/><path d="M-58.95,35.84C20.64,68.4,222.54,115.3,408.4,301.53c60.66,60.79,95.84,138.6,123,208.44,51.15,131.55,58.73,236.78,181.8,182C858,627.45,1028.91,433,1167,409.53c73.51-12.48,133.32,16.6,180.18,109.67C1472,768,1683.35,806.93,1776,695.74" stroke="#83303a"/><path d="M-57.8,33.64c78.93,32.29,279,81.63,464.13,268.12,60.39,60.85,95.62,138.48,123,208,51.47,130.88,59.81,235,182.68,180.36,144.87-64.58,315.58-258.32,453.4-281.12,73.36-12.14,133,17.18,179.71,110,124.43,247.81,334.36,287.64,427.85,175.45" stroke="#82303a"/><path d="M-56.64,31.45C21.62,63.46,220,115.23,404.27,302c60.12,60.91,95.39,138.35,122.93,207.57C579,639.78,588.09,742.83,710.77,688.25c144.91-64.6,315.44-257.61,453-279.76C1237,396.7,1296.44,426.25,1343,518.74c124,246.87,332.52,287.54,426.84,174.35" stroke="#81303a"/><path d="M-55.48 29.25c77.59 31.73 274.13 86 457.68 273 59.85 61 95.17 138.23 122.9 207.14 52.13 129.53 62 231.5 184.46 177 144.94-64.62 315.3-256.89 452.68-278.4 73.06-11.44 132.29 18.34 178.75 110.54 123.55 245.9 330.67 287.47 425.82 173.23" stroke="#80303b"/><path d="M-54.32,27.05C22.6,58.51,217.36,115.16,400.14,302.46,459.71,363.51,495.08,440.57,523,509.17c52.46,128.86,63,229.74,185.35,175.32,145-64.64,315.16-256.17,452.32-277,72.91-11.09,131.94,18.92,178.28,110.83,123.11,245,328.81,287.35,424.8,172.16" stroke="#7f303b"/><path d="M-53.17,24.85C23.08,56,216.06,115.13,398.07,302.69c59.31,61.12,94.72,138,122.84,206.28C573.69,637.16,585,737,707.14,682.62c145-64.68,315-255.46,452-275.69,72.76-10.75,131.6,19.5,177.8,111.12,122.67,244,327,287.26,423.79,171.06" stroke="#7e313b"/><path d="M-52,22.66c75.58,30.91,266.78,92.43,448,280.27,59,61.17,94.49,137.86,122.8,205.84C571.92,636.29,584,735,705.93,680.74,851,616,1020.82,426,1157.53,406.41c72.61-10.4,131.26,20.08,177.33,111.41C1457.09,760.91,1660,805,1757.63,687.78" stroke="#7d313c"/><path d="M-50.85,20.46c74.91,30.64,264.33,94.6,444.79,282.7C452.7,364.4,488.2,440.89,516.71,508.57,570.15,635.42,583,733,704.72,678.86c145.1-64.72,314.75-254,451.24-273,72.46-10.05,130.91,20.66,176.85,111.69,121.79,242.16,323.26,287.08,421.76,168.88" stroke="#7c313c"/><path d="M-49.69,18.26C24.55,48.63,212.18,115,391.88,303.39c58.49,61.31,94,137.61,122.74,205C568.38,634.55,582,731.07,703.51,677c145.13-64.74,314.61-253.31,450.89-271.61,72.3-9.71,130.56,21.23,176.36,112,121.35,241.21,321.41,287,420.74,167.78" stroke="#7b313c"/><path d="M-48.54,16.06C25,46.16,210.89,115,389.82,303.62,448,365,483.62,441.11,512.52,508.17,566.6,633.68,581,729.11,702.3,675.1c145.17-64.76,314.47-252.6,450.53-270.25,72.15-9.36,130.21,21.81,175.89,112.27C1449.63,757.39,1648.28,804,1748.44,683.81" stroke="#7a313c"/><path d="M-47.38,13.87c72.91,29.82,257,101.08,435.13,290C445.69,365.29,481.33,441.22,510.42,508c54.41,124.84,69.52,219.18,190.66,165.25,145.22-64.79,314.34-251.88,450.18-268.89,72-9,129.87,22.39,175.41,112.56,120.47,239.32,317.71,286.79,418.71,165.59" stroke="#79323d"/><path d="M-46.22,11.67C26,41.22,208.3,114.91,385.69,304.09c57.67,61.5,93.35,137.24,122.64,203.68,54.73,124.17,70.59,217.42,191.54,163.57,145.26-64.81,314.2-251.17,449.82-267.53,71.85-8.67,129.53,23,174.93,112.85,120,238.38,315.86,286.7,417.7,164.49" stroke="#78323d"/><path d="M-45.06,9.47C26.5,38.74,207,114.88,383.62,304.32c57.4,61.57,93.12,137.12,122.61,203.25,55,123.49,71.67,215.66,192.43,161.89C844,604.63,1012.72,419,1148.12,403.29c71.7-8.32,129.18,23.55,174.46,113.14,119.59,237.43,314,286.61,416.67,163.4" stroke="#77323d"/><path d="M-43.91,7.27c70.9,29,249.63,107.57,425.47,297.28,57.12,61.64,92.89,137,122.57,202.82,55.38,122.82,72.76,213.9,193.32,160.22,145.33-64.86,313.92-249.75,449.1-264.82,71.55-8,128.84,24.13,174,113.43,119.15,236.49,312.16,286.51,415.66,162.3" stroke="#76323d"/><path d="M-42.75,5.08C27.48,33.8,204.43,114.8,379.49,304.79,436.35,366.48,472.16,441.66,502,507.18c55.7,122.14,73.84,212.13,194.21,158.53C841.61,600.83,1010,416.68,1145,402.25c71.4-7.63,128.49,24.71,173.5,113.72,118.72,235.55,310.31,286.42,414.65,161.2" stroke="#75323e"/><path d="M-41.59,2.88C28,31.33,203.13,114.77,377.43,305,434,366.78,469.86,441.77,499.94,507,556,628.45,574.85,717.35,695,663.83c145.41-64.91,313.64-248.32,448.38-262.1,71.25-7.28,128.15,25.29,173,114,118.27,234.6,308.45,286.32,413.63,160.11" stroke="#74323e"/><path d="M-40.43.68c68.89,28.18,242.27,114.05,415.8,304.57,56.31,61.83,92.2,136.63,122.47,201.53,56.34,120.8,76,208.61,196,155.17,145.45-64.93,313.51-247.6,448-260.74,71.1-6.94,127.81,25.87,172.55,114.3C1432.22,749.17,1621,801.74,1727,674.52" stroke="#73333e"/><path d="M-39.28-1.52C29,26.39,200.55,114.69,373.3,305.48c56,61.89,92,136.5,122.44,201.1,56.67,120.13,77.07,206.85,196.87,153.49,145.49-65,313.37-246.89,447.67-259.38,70.94-6.59,127.45,26.45,172.06,114.59C1429.74,748,1617.1,801.41,1723.94,673.2" stroke="#72333e"/><path d="M-38.12-3.72C29.44,23.92,199.26,114.65,371.24,305.72,427,367.67,463,442.09,493.65,506.38c57,119.46,78.14,205.09,197.75,151.81,145.53-65,313.23-246.18,447.31-258,70.79-6.25,127.11,27,171.59,114.88,117,231.77,302.9,286,410.58,156.82" stroke="#71333f"/><path d="M-37-5.91C29.92,21.45,198,114.61,369.17,306c55.5,62,91.52,136.25,122.38,200.23C548.85,625,570.78,709.51,690.19,656.31c145.56-65,313.09-245.46,447-256.66,70.64-5.9,126.76,27.61,171.11,115.17,116.51,230.82,301.06,285.94,409.57,155.72" stroke="#70333f"/><path d="M-35.8-8.11C30.41,19,196.68,114.58,367.11,306.18c55.22,62.08,91.28,136.13,122.34,199.8C547.07,624.1,569.76,707.55,689,654.43c145.6-65,312.95-244.75,446.59-255.3,70.49-5.56,126.42,28.19,170.63,115.45,116.08,229.89,299.21,285.86,408.55,154.64" stroke="#6f333f"/><path d="M-34.65-10.31C30.9,16.5,195.38,114.54,365,306.41c55,62.15,91.06,136,122.31,199.37,57.95,117.45,81.39,199.81,200.42,146.78,145.64-65,312.81-244,446.23-253.95,70.34-5.21,126.08,28.77,170.16,115.74,115.63,228.94,297.35,285.76,407.53,153.54" stroke="#6e333f"/><path d="M-33.49-12.51C31.39,14,194.09,114.5,363,306.64c54.68,62.22,90.82,135.89,122.28,198.94,58.26,116.78,82.46,198.05,201.29,145.1,145.69-65.07,312.68-243.33,445.88-252.59,70.18-4.87,125.73,29.35,169.68,116,115.2,228,295.5,285.67,406.52,152.44" stroke="#6d3440"/><path d="M-32.33-14.7C31.88,11.56,192.8,114.46,360.91,306.88c54.41,62.27,90.6,135.76,122.25,198.5,58.58,116.11,83.54,196.3,202.18,143.42,145.73-65.09,312.54-242.62,445.52-251.22,70-4.53,125.39,29.92,169.21,116.31,114.75,227.06,293.65,285.57,405.5,151.35" stroke="#6c3440"/><path d="M-31.18-16.9c63.55,26,222.69,131.32,390,324C413,369.45,449.21,442.75,481.06,505.18,540,620.62,565.68,699.72,684.13,646.92,829.89,581.81,996.53,405,1129.29,397.06c69.88-4.19,125,30.5,168.73,116.6,114.31,226.11,291.8,285.48,404.48,150.25" stroke="#6b3440"/><path d="M-30-19.1C32.86 6.62 190.22 114.38 356.79 307.34 410.65 369.75 446.92 442.86 479 505c59.18 114.75 85.67 192.76 203.92 140 145.8-65.14 312.26-241.2 444.8-248.5 69.73-3.85 124.7 31.08 168.25 116.89 113.88 225.17 290 285.39 403.47 149.15" stroke="#6a3440"/><path d="M-28.86-21.3C33.34,4.15,188.93,114.34,354.72,307.57,408.32,370,444.62,443,476.87,504.78c59.53,114.1,86.78,191,204.84,138.38C827.55,578,993.83,402.67,1126.16,396c69.57-3.5,124.35,31.66,167.77,117.18,113.43,224.22,288.1,285.29,402.45,148.06" stroke="#693441"/><path d="M-27.7-23.49C33.83,1.68,187.64,114.3,352.66,307.81,406,370.34,442.32,443.08,474.77,504.58,534.62,618,562.63,693.84,680.5,641.28c145.88-65.18,312-239.78,444.09-245.78,69.42-3.16,124,32.24,167.29,117.47,113,223.28,286.25,285.2,401.44,147" stroke="#683441"/><path d="M-26.55-25.69C34.32-.79,186.35,114.26,350.59,308c53.06,62.6,89.44,135.15,122.09,196.34,60.16,112.77,88.93,187.5,206.61,135C825.21,574.2,991.13,400.33,1123,395c69.27-2.82,123.66,32.82,166.81,117.76,112.56,222.33,284.4,285.1,400.42,145.87" stroke="#673541"/><path d="M-25.39-27.89C34.81-3.27,185.06,114.22,348.53,308.27c52.78,62.66,89.2,135,122.05,195.91,60.47,112.1,90,185.74,207.5,133.35C824,572.3,989.78,399.16,1121.45,394.46c69.12-2.47,123.31,33.4,166.34,118.05,112.11,221.39,282.54,285,399.4,144.77" stroke="#663542"/><path d="M-24.23-30.09C35.3-5.74,183.78,114.18,346.46,308.5c52.52,62.73,89,134.91,122,195.49,60.79,111.42,91.09,184,208.39,131.66,146-65.26,311.56-237.66,443-241.71,69-2.13,123,34,165.86,118.34,111.68,220.45,280.7,284.91,398.39,143.67" stroke="#653542"/><path d="M-23.07-32.28c58.86,24.07,205.56,146.42,367.47,341,52.24,62.78,88.74,134.78,122,195.05,61.11,110.75,92.18,182.21,209.28,130,146-65.28,311.42-236.95,442.65-240.35,68.82-1.79,122.62,34.56,165.38,118.63,111.24,219.5,278.85,284.82,397.38,142.58" stroke="#643542"/><path d="M-21.92-34.48C36.28-10.68,181.2,114.1,342.34,309c52,62.85,88.5,134.66,122,194.62C525.7,613.67,557.54,684,674.45,631.89c146.07-65.3,311.27-236.24,442.29-239,68.67-1.44,122.28,35.14,164.91,118.92,110.79,218.56,277,284.72,396.35,141.48" stroke="#633542"/><path d="M-20.76-36.68c57.52,23.53,200.67,150.74,361,345.88,51.7,62.92,88.27,134.54,121.92,194.19C523.92,612.81,556.52,682.08,673.24,630c146.11-65.32,311.13-235.53,441.93-237.63,68.52-1.1,121.94,35.72,164.43,119.2C1390,729.2,1554.75,796.22,1674.94,652" stroke="#623543"/><path d="M-19.6-38.88C37.25-15.62 178.62 114 338.21 309.43c51.43 63 88 134.42 121.88 193.76C522.14 611.94 555.5 680.12 672 628.13c146.18-65.34 311.1-231.65 441.6-236.27 68.33-2.42 121.59 36.3 164 119.49 109.92 216.68 273.3 284.54 394.33 139.3" stroke="#613643"/><path d="M-18.44-41.07C37.74-18.09,177.33,114,336.14,309.67,387.3,372.71,423.94,444,458,503c62.35,108.08,96.48,175.17,212.81,123.26C817,560.88,981.73,395.3,1112,391.34c68.18-2.08,121.24,36.88,163.47,119.78C1385,726.85,1547,795.57,1668.82,649.32" stroke="#603643"/><path d="M-17.29-43.27C38.23-20.56,176.05,113.94,334.08,309.9,385,373,421.65,444.07,455.9,502.79,518.56,610.2,553.46,676.2,669.6,624.37,815.83,559,980.37,394.12,1110.47,390.82c68-1.73,120.89,37.45,163,120.07,109,214.79,269.59,284.35,392.29,137.11" stroke="#5f3643"/><path d="M-16.13-45.47C38.72-23,174.76,113.9,332,310.13c50.62,63.17,87.34,134.06,121.79,192.46,63,106.75,98.65,171.65,214.59,119.91C814.66,557.08,979,392.94,1108.9,390.3c67.89-1.38,120.55,38,162.51,120.36,108.6,213.85,267.75,284.26,391.28,136" stroke="#5e3644"/><path d="M-15-47.67C39.21-25.51,173.47,113.86,330,310.36c50.35,63.24,87.1,133.94,121.75,192C515,608.47,551.43,672.28,667.18,620.62c146.31-65.44,310.45-228.86,440.15-230.84,67.75-1,120.21,38.61,162,120.65,108.16,212.9,265.89,284.17,390.26,134.91" stroke="#5d3644"/><path d="M-13.81-49.86C39.7-28,172.19,113.82,327.88,310.6,378,373.89,414.75,444.41,449.61,502.19,513.2,607.61,550.41,670.32,666,618.74c146.35-65.46,310.3-231.3,439.79-229.48,67.6.95,119.86,39.19,161.56,120.94,107.72,212,264,284.07,389.25,133.82" stroke="#5c3644"/><path d="M-12.66-52.06C40.18-30.45,170.9,113.77,325.82,310.83,375.63,374.19,412.45,444.52,447.51,502c63.91,104.75,101.88,166.37,217.25,114.87,146.38-65.49,310.16-230.59,439.43-228.12,67.45,1.29,119.52,39.77,161.09,121.23,107.27,211,262.19,284,388.23,132.72" stroke="#5b3744"/><path d="M-11.5-54.26c52.17,21.34,181.11,168,335.26,365.32,49.54,63.42,86.39,133.57,121.65,190.73C509.63,605.87,548.37,666.4,663.55,615c146.42-65.51,310-229.89,439.07-226.76,67.3,1.63,119.17,40.35,160.61,121.52,106.84,210.07,260.34,283.88,387.21,131.62" stroke="#5a3745"/><path d="M-10.34-56.46c51.5 21.07 178.67 170.15 332 367.75 49.27 63.49 86.16 133.45 121.63 190.3 64.52 103.42 104 162.85 219 111.51C808.75 547.57 972.17 383.92 1101 387.7c67.15 2 118.83 40.93 160.13 121.81 106.4 209.12 258.49 283.79 386.2 130.53" stroke="#593745"/><path d="M-9.18-58.66C41.65-37.86,167,113.65,319.63,311.53c49,63.54,85.92,133.33,121.59,189.86,64.83,102.76,105.11,161.09,219.91,109.83,146.5-65.55,309.74-228.48,438.35-224,67,2.31,118.49,41.51,159.66,122.1,106,208.18,256.63,283.69,385.18,129.43" stroke="#583745"/><path d="M-8-60.85C42.14-40.33,165.76,113.61,317.56,311.76,366.29,375.37,403.25,445,439.12,501.19c65.14,102.09,106.2,159.33,220.8,108.15,146.54-65.57,309.6-227.77,438-222.68,66.84,2.65,118.13,42.09,159.17,122.39,105.52,207.23,254.79,283.6,384.17,128.33" stroke="#573745"/><path d="M-6.87-63c49.5 20.2 171.34 176.56 322.37 375C364 375.66 400.94 445.08 437 501c65.47 101.42 107.3 157.56 221.71 106.47 146.57-65.6 309.46-227.08 437.64-221.33 66.69 3 117.79 42.67 158.69 122.68 105.08 206.29 252.94 283.5 383.15 127.24" stroke="#563746"/><path d="M-5.71-65.25c48.83,20,168.9,178.77,319.14,377.47,48.2,63.74,85.21,133,121.5,188.57C500.68,601.55,543.28,656.6,657.5,605.59c146.61-65.63,309.32-226.38,437.28-220,66.54,3.33,117.44,43.25,158.22,123C1357.64,713.94,1504.08,792,1635.13,634.73" stroke="#553846"/><path d="M-4.55-67.45C43.6-47.75,161.9,113.48,311.37,312.46c47.92,63.79,85,132.85,121.46,188.14,66.06,100.09,109.43,154,223.45,103.11C802.94,538.06,965.47,378,1093.21,385.1c66.39,3.67,117.1,43.83,157.74,123.25,104.2,204.41,249.24,283.32,381.12,125.06" stroke="#543846"/><path d="M-3.4-69.64c47.49,19.42,164,183.07,312.71,382.33C357,376.55,394,445.42,430.73,500.4c66.37,99.43,110.51,152.29,224.34,101.43,146.7-65.67,309-225,436.57-217.25,66.24,4,116.76,44.41,157.26,123.54,103.76,203.47,247.39,283.23,380.11,124" stroke="#533846"/><path d="M-2.24-71.84C44.58-52.69,159.33,113.39,307.24,312.92c47.39,63.93,84.5,132.61,121.4,187.28C495.31,599,540.22,650.73,653.86,600c146.74-65.69,308.92-224.27,436.21-215.89,66.09,4.35,116.41,45,156.79,123.83C1350.18,710.41,1492.39,791,1625.94,630.75" stroke="#523847"/><path d="M-1.08-74C45.07-55.16,158.05,113.35,305.18,313.15c47.11,64,84.25,132.5,121.36,186.85,67,98.1,112.67,148.77,226.11,98.07,146.77-65.71,308.78-223.56,435.85-214.53,65.94,4.69,116.07,45.57,156.31,124.12,102.88,201.58,243.69,283,378.07,121.77" stroke="#513847"/><path d="M.08-76.24c45.48,18.61,156.69,189.54,303,389.63,46.85,64.05,84,132.37,121.33,186.41,67.28,97.44,113.75,147,227,96.39C798.25,530.45,960.08,373.33,1086.93,383c65.79,5,115.72,46.15,155.83,124.41,102.45,200.63,241.84,283,377.06,120.67" stroke="#503847"/><path d="M1.23-78.43C46.05-60.1,155.48,113.26,301.05,313.62c46.57,64.11,83.78,132.26,121.3,186,67.58,96.78,114.82,145.25,227.88,94.71,146.85-65.76,308.5-222.16,435.13-211.81,65.64,5.37,115.38,46.73,155.36,124.7,102,199.69,240,282.85,376,119.57" stroke="#4f3948"/><path d="M2.39-80.63C46.54-62.57,154.2,113.22,299,313.85,345.29,378,382.53,446,420.25,499.4c67.89,96.12,115.9,143.49,228.77,93C795.91,526.65,957.38,371,1083.8,382c65.48,5.71,115,47.31,154.87,125,101.56,198.75,238.13,282.76,375,118.48" stroke="#4e3948"/><path d="M3.55-82.83C47-65,152.92,113.17,296.92,314.08c46,64.24,83.3,132,121.23,185.12,68.19,95.46,117,141.73,229.66,91.36C794.74,524.75,956,369.79,1082.23,381.46c65.33,6.05,114.68,47.89,154.39,125.28,101.13,197.8,236.29,282.66,374,117.38" stroke="#4d3948"/><path d="M4.71-85c42.8,17.51,146.93,198.16,290.14,399.35,45.78,64.3,83.07,131.9,121.2,184.68,68.5,94.8,118.06,140,230.55,89.68,147-65.83,308.08-220.07,434.06-207.74,65.18,6.39,114.34,48.47,153.92,125.57,100.68,196.86,234.43,282.57,373,116.29" stroke="#4c3948"/><path d="M5.86-87.22C48-70,150.36,113.08,292.79,314.55,338.29,378.91,375.61,446.33,414,498.8c68.79,94.14,119.14,138.21,231.43,88,147-65.86,307.94-219.37,433.7-206.37,65,6.71,114,49,153.44,125.85,100.24,195.91,232.58,282.47,372,115.19" stroke="#4b3949"/><path d="M7-89.42c41.47,17,142,202.46,283.71,404.2C336,379.21,373.31,446.45,411.86,498.6c69.1,93.48,120.22,136.45,232.32,86.32,147-65.88,307.8-218.67,433.34-205,64.88,7,113.65,49.62,153,126.14,99.81,195,230.74,282.38,371,114.09" stroke="#4a3949"/><path d="M8.18-91.62C49-74.93,147.79,113,288.66,315c45,64.49,82.35,131.56,121.1,183.39C479.16,591.22,531.06,633.09,643,583c147.08-65.9,307.67-218,433-203.65,64.73,7.39,113.31,50.2,152.49,126.43,99.36,194,228.88,282.28,369.94,113" stroke="#493a49"/><path d="M9.34-93.82C49.47-77.4,146.51,113,286.6,315.25c44.69,64.54,82.1,131.43,121.07,183,69.69,92.16,122.37,132.93,234.09,83,147.12-65.92,307.53-217.27,432.62-202.29,64.58,7.73,113,50.78,152,126.72,98.93,193.08,227,282.19,368.93,111.9" stroke="#483a49"/><path d="M10.49-96C50-79.87,145.23,112.91,284.53,315.48,329,380.09,366.4,446.8,405.57,498c70,91.5,123.45,131.17,235,81.28,147.17-65.94,307.4-216.57,432.27-200.93,64.43,8.07,112.62,51.36,151.54,127,98.48,192.15,225.17,282.1,367.91,110.81" stroke="#473a4a"/><path d="M11.65-98.21C50.44-82.34,144,112.86,282.47,315.71c44.16,64.67,81.62,131.2,121,182.09,70.3,90.85,124.53,129.41,235.86,79.61,147.2-66,307.26-215.89,431.91-199.58,64.28,8.4,112.27,51.94,151.06,127.29,98,191.2,223.33,282,366.89,109.72" stroke="#463a4a"/><path d="M12.81-100.41C50.93-84.81,142.67,112.82,280.4,315.94c43.9,64.74,81.39,131.09,121,181.66C472,587.79,527,625.25,638.12,575.53c147.24-66,307.12-215.19,431.56-198.22,64.12,8.74,111.92,52.52,150.57,127.58,97.61,190.26,221.48,281.91,365.88,108.62" stroke="#453a4a"/><path d="M14-102.61C51.42-87.29,141.39,112.77,278.34,316.18,322,381,359.48,447.15,399.28,497.41,470.17,586.93,526,623.29,636.91,573.65c147.28-66,307-214.49,431.2-196.86,64,9.08,111.58,53.1,150.1,127.87,97.16,189.31,219.62,281.82,364.86,107.52" stroke="#443b4a"/><path d="M15.12-104.8c36.79,15,125,217.53,261.15,421.21,43.36,64.86,80.9,130.86,120.91,180.8C468.38,586.08,525,621.33,635.7,571.77,783,505.73,942.55,358,1066.54,376.27c63.82,9.41,111.23,53.67,149.62,128.16C1312.88,692.8,1433.94,786.16,1580,610.86" stroke="#433b4b"/><path d="M16.28-107C52.4-92.23 138.83 112.68 274.21 316.64 317.3 381.56 354.87 447.38 395.08 497c71.5 88.21 128.85 122.36 239.41 72.88C781.85 503.83 941.2 356.79 1065 375.75c63.67 9.75 110.89 54.25 149.14 128.45 96.26 187.42 215.86 281.63 362.8 105.33" stroke="#423b4b"/><path d="M17.44-109.2C52.89-94.7,137.55,112.64,272.15,316.87,315,381.86,352.56,447.5,393,496.81c71.79,87.56,129.92,120.6,240.29,71.2,147.39-66.09,306.57-212.4,430.12-192.78,63.52,10.09,110.54,54.83,148.67,128.74,95.84,186.48,214.07,281.54,361.81,104.24" stroke="#413b4b"/><path d="M18.59-111.4c34.79,14.23,117.69,224,251.49,428.51,42.56,65,80.17,130.51,120.81,179.5,72.09,86.91,131,118.84,241.18,69.52C779.5,500,938.51,354.42,1061.83,374.71c63.37,10.42,110.2,55.41,148.19,129,95.41,185.53,212.22,281.44,360.8,103.14" stroke="#403b4b"/><path d="M19.75-113.6C53.86-99.64,135,112.54,268,317.34c42.29,65.11,79.93,130.4,120.77,179.07,72.39,86.25,132.09,117.08,242.07,67.84,147.47-66.13,306.3-211,429.4-190.06,63.23,10.76,109.86,56,147.71,129.32,95,184.59,210.38,281.35,359.79,102" stroke="#3f3b4c"/><path d="M20.91-115.79C54.35-102.11,133.72,112.5,266,317.57c42,65.17,79.69,130.29,120.75,178.64,72.68,85.6,133.16,115.32,243,66.17,147.51-66.16,306.17-210.32,429-188.71,63.08,11.09,109.51,56.57,147.24,129.61,94.52,183.65,208.52,281.25,358.76,101" stroke="#3e3c4c"/><path d="M22.07-118c32.77 13.42 110.37 230.45 241.82 435.8C305.64 383 343.33 448 384.6 496c73 85 134.24 113.56 243.84 64.49 147.55-66.18 306-209.63 428.68-187.35 62.93 11.43 109.17 57.15 146.76 129.9 94.09 182.7 206.67 281.16 357.75 99.85" stroke="#3d3c4c"/><path d="M23.22-120.19c32.11,13.13,108,232.6,238.6,438.23C303.31,383.33,341,448.1,382.5,495.81c73.28,84.3,135.32,111.8,244.73,62.81,147.59-66.21,305.89-208.94,428.33-186,62.77,11.76,108.81,57.73,146.27,130.19,93.65,181.76,204.83,281.06,356.74,98.75" stroke="#3c3c4c"/><path d="M24.38-122.39c31.44,12.86,105.51,234.75,235.38,440.66,41.22,65.35,79,130,120.64,177.34C454,579.25,516.8,605.65,626,556.74c147.63-66.23,305.77-208.24,428-184.63,62.62,12.1,108.47,58.31,145.8,130.48,93.2,180.81,203,281,355.72,97.66" stroke="#3b3c4d"/><path d="M25.54-124.58C56.31-112,128.61,112.31,257.7,318.5c40.95,65.42,78.71,129.84,120.61,176.91,73.86,83,137.47,108.29,246.49,59.45,147.67-66.25,305.63-207.55,427.62-183.27,62.47,12.43,108.13,58.89,145.32,130.76,92.77,179.88,201.12,280.88,354.71,96.57" stroke="#3a3c4d"/><path d="M26.7-126.78c30.1,12.31,100.64,239.05,228.93,445.51,40.69,65.48,78.47,129.73,120.58,176.48C450.37,577.55,514.77,601.74,623.59,553c147.71-66.27,305.5-206.85,427.26-181.91,62.33,12.77,107.78,59.47,144.84,131.05C1288,681.05,1395,782.91,1549.38,597.6" stroke="#393c4d"/><path d="M27.85-129c29.43,12,98.21,241.2,225.72,448C294,384.51,331.79,448.58,374.11,495c74.46,81.7,139.64,104.77,248.27,56.09,147.75-66.29,305.36-206.16,426.9-180.55,62.18,13.1,107.44,60.05,144.37,131.34,91.89,178,197.42,280.69,352.67,94.38" stroke="#383d4e"/><path d="M29-131.18c28.77 11.77 95.79 243.36 222.5 450.38 40.16 65.6 78 129.5 120.52 175.61 74.75 81.05 140.71 103 249.15 54.41C769 482.9 926.4 343.75 1047.71 370c62 13.44 107.09 60.63 143.89 131.63 91.45 177.05 195.57 280.6 351.66 93.28" stroke="#373d4e"/><path d="M30.17-133.37c28.09,11.49,93.34,245.5,219.27,452.8,39.89,65.66,77.74,129.39,120.48,175.18,75,80.4,141.79,101.25,250,52.74C767.78,481,925.05,342.56,1046.14,369.51c61.88,13.77,106.75,61.21,143.42,131.92,91,176.1,193.71,280.51,350.64,92.19" stroke="#363d4e"/><path d="M31.33-135.57c27.42,11.22,90.91,247.65,216,455.23C287,385.39,324.87,449,367.82,494.41c75.34,79.75,142.87,99.49,250.93,51.06,147.86-66.37,305-204.1,425.82-176.48,61.74,14.11,106.41,61.79,142.94,132.21,90.57,175.16,191.87,280.41,349.62,91.09" stroke="#353d4e"/><path d="M32.48-137.77C59.24-126.83,121,112,245.31,319.9c39.35,65.78,77.25,129.17,120.41,174.32,75.64,79.1,144,97.72,251.82,49.37C765.44,477.2,922.37,340.19,1043,368.47c61.59,14.44,106.06,62.37,142.46,132.5,90.13,174.21,190,280.32,348.61,90" stroke="#343d4f"/><path d="M33.64-140c26.09,10.67,86.05,252,209.6,460.1C282.33,386,320.25,449.19,363.63,494c75.92,78.45,145,96,252.7,47.69C764.27,475.3,921,339,1041.44,368c61.43,14.78,105.71,62.95,142,132.79C1273.11,674,1371.58,781,1531,589.64" stroke="#333d4f"/><path d="M34.8-142.16c25.42,10.39,83.61,254.1,206.38,462.52,38.82,65.91,76.76,129,120.35,173.46,76.22,77.81,146.11,94.2,253.59,46,148-66.44,304.56-202,424.75-172.4,61.28,15.11,105.36,63.53,141.5,133.08,89.25,172.32,186.31,280.13,346.58,87.8" stroke="#323e4f"/><path d="M36-144.36c24.74,10.12,81.18,256.26,203.16,465,38.55,66,76.51,128.85,120.31,173C436,570.78,506.62,586.06,613.91,538c148-66.46,304.43-201.33,424.39-171,61.14,15.44,105,64.11,141,133.37,88.81,171.38,184.47,280,345.56,86.7" stroke="#313e4f"/><path d="M37.11-146.56c24.08,9.85,78.76,258.41,199.94,467.39,38.29,66,76.27,128.73,120.29,172.59,76.8,76.52,148.26,90.68,255.36,42.65,148-66.48,304.3-200.64,424-169.68,61,15.78,104.68,64.69,140.55,133.66,88.37,170.44,182.61,279.94,344.54,85.61" stroke="#303e50"/><path d="M38.27-148.76C61.68-139.18,114.6,111.8,235,321.06c38,66.09,76,128.63,120.25,172.16,77.1,75.88,149.34,88.92,256.25,41,148.09-66.5,304.16-200,423.67-168.32,60.84,16.11,104.33,65.27,140.07,134,87.93,169.49,180.76,279.84,343.53,84.51" stroke="#2f3e50"/><path d="M39.43-150.95c22.74 9.3 73.89 262.71 193.49 472.24C270.68 387.45 308.7 449.81 353.14 493c77.39 75.23 150.42 87.16 257.13 39.3 148.14-66.53 304-199.27 423.32-167 60.7 16.44 104 65.85 139.59 134.24 87.49 168.6 178.92 279.8 342.52 83.46" stroke="#2e3e50"/><path d="M40.59-153.15c22.07,9,71.46,264.86,190.27,474.67,37.49,66.22,75.53,128.42,120.19,171.3,77.68,74.59,151.5,85.4,258,37.62C757.24,463.89,913,331.86,1032,364.83c60.55,16.78,103.64,66.43,139.12,134.52,87,167.61,177.06,279.66,341.49,82.33" stroke="#2d3e50"/><path d="M41.74-155.35c21.41,8.76,69,267,187,477.11C266,388,304.08,450.07,349,492.62c78,74,152.58,83.64,258.9,35.94C756.06,462,911.63,330.67,1030.45,364.31c60.41,17.11,103.3,67,138.64,134.81,86.61,166.67,175.21,279.57,340.48,81.23" stroke="#2c3f51"/><path d="M42.9-157.55C63.64-149.07,109.51,111.61,226.73,322c37,66.34,75,128.2,120.12,170.43,78.27,73.31,153.66,81.88,259.79,34.26,148.25-66.6,303.65-197.2,422.24-162.89,60.26,17.44,102.95,67.59,138.16,135.1,86.18,165.72,173.36,279.47,339.47,80.14" stroke="#2b3f51"/><path d="M44.06-159.74c20.06,8.2,64.18,271.31,180.61,482,36.69,66.4,74.79,128.1,120.08,170,78.56,72.67,154.74,80.12,260.68,32.58C753.72,458.18,909,328.28,1027.32,363.28c60.1,17.76,102.6,68.16,137.68,135.38,85.73,164.78,171.51,279.38,338.45,79" stroke="#2a3f51"/><path d="M45.22-161.94C64.61-154 107 111.52 222.6 322.45c36.4 66.47 74.55 128 120.06 169.55 78.85 72 155.81 78.36 261.56 30.9 148.33-66.64 303.39-195.83 421.53-160.16 60 18.1 102.26 68.74 137.2 135.67 85.29 163.84 169.66 279.29 337.43 77.94" stroke="#293f51"/><path d="M46.37-164.14c18.73,7.66,59.33,275.61,174.17,486.83,36.17,66.52,74.3,127.89,120,169.13C419.7,563.22,497.45,568.42,603,521c148.37-66.66,303.26-195.14,421.17-158.8,59.81,18.43,101.91,69.32,136.72,136,84.86,162.89,167.81,279.19,336.42,76.85" stroke="#283f52"/><path d="M47.53-166.34c18.06,7.39,56.9,277.77,170.94,489.26,35.91,66.59,74.06,127.78,120,168.7,79.44,70.76,158,74.84,263.34,27.54,148.41-66.69,303.13-194.45,420.81-157.44,59.67,18.76,101.57,69.89,136.25,136.25,84.41,161.95,166,279.1,335.4,75.75" stroke="#273f52"/><path d="M48.69-168.54c17.39,7.12,54.47,279.92,167.72,491.69,35.64,66.65,73.8,127.68,120,168.27,79.72,70.12,159.05,73.08,264.22,25.87C749,450.57,903.59,323.52,1021,361.2c59.52,19.09,101.22,70.47,135.77,136.54,84,161,164.11,279,334.39,74.66" stroke="#264052"/><path d="M49.85-170.73c16.72,6.84,52,282.06,164.49,494.11C249.72,390.09,287.9,451,334.27,491.22c80,69.49,160.13,71.32,265.11,24.19,148.48-66.74,302.87-193.09,420.09-154.73,59.38,19.42,100.88,71.05,135.29,136.83,83.54,160.06,162.26,278.91,333.37,73.56" stroke="#254052"/><path d="M51-172.93c16.06,6.57,49.62,284.21,161.28,496.55,35.11,66.77,73.31,127.47,119.89,167.4,80.31,68.85,161.21,69.56,266,22.51,148.52-66.76,302.74-192.4,419.73-153.37,59.23,19.76,100.54,71.63,134.82,137.12,83.09,159.11,160.4,278.81,332.35,72.46" stroke="#244053"/><path d="M52.16-175.13c15.38,6.29,47.2,286.37,158.05,499,34.85,66.83,73.07,127.37,119.86,167C410.68,559,492.36,558.62,597,511.65c148.56-66.78,302.62-191.71,419.37-152,59.09,20.09,100.19,72.21,134.34,137.41,82.66,158.17,158.56,278.72,331.34,71.37" stroke="#234053"/><path d="M53.32-177.33c14.71,6,44.77,288.52,154.83,501.41C242.73,391,281,451.35,328,490.63c80.89,67.58,163.36,66,267.76,19.14,148.61-66.81,302.5-191,419-150.65,59,20.42,99.85,72.79,133.87,137.7C1230.84,654,1305.33,775.44,1479,567.09" stroke="#224053"/><path d="M54.48-179.52c14,5.74,42.34,290.66,151.61,503.83,34.32,67,72.57,127.18,119.79,166.12,81.18,66.95,164.45,64.28,268.65,17.46C743.17,441.06,896.9,317.55,1013.2,358.6c58.79,20.75,99.49,73.37,133.38,138,81.77,156.28,154.85,278.53,329.3,69.17" stroke="#214054"/><path d="M55.63-181.72C69-176.25,95.55,111.09,204,324.55c34.06,67,72.33,127.07,119.76,165.68,81.48,66.32,165.53,62.52,269.54,15.78C742,439.16,895.57,316.35,1011.63,358.08c58.65,21.08,99.15,73.95,132.9,138.27,81.34,155.35,153,278.44,328.29,68.09" stroke="#204154"/><path d="M56.79-183.92c12.71,5.2,37.5,295,145.17,508.7C235.75,391.86,274,451.75,321.69,490c81.76,65.68,166.6,60.76,270.42,14.1,148.72-66.87,302.12-189,417.95-146.57,58.5,21.41,98.81,74.53,132.43,138.56,80.89,154.4,151.15,278.35,327.27,67" stroke="#1f4154"/><path d="M58-186.12C70-181.19,93,111,199.89,325c33.53,67.14,71.84,126.87,119.7,164.82,82.06,65.05,167.68,59,271.31,12.43C739.66,435.36,892.89,314,1008.49,357c58.36,21.75,98.46,75.11,132,138.85,80.45,153.46,149.3,278.25,326.26,65.89" stroke="#1e4154"/><path d="M59.11-188.31C70.48-183.66,91.76,111,197.83,325.24,231.09,392.45,269.42,452,317.49,489.63c82.35,64.43,168.76,57.24,272.2,10.75,148.8-66.93,301.87-187.61,417.23-143.86,58.22,22.08,98.12,75.69,131.47,139.14,80,152.51,147.45,278.16,325.24,64.8" stroke="#1d4155"/><path d="M60.26-190.51c10.7,4.38,30.23,301.42,135.5,516,33,67.26,71.34,126.67,119.64,164,82.64,63.8,169.83,55.48,273.08,9.07C737.31,431.55,890.22,311.58,1005.35,356c58.08,22.41,97.77,76.27,131,139.43C1215.92,647,1282,773.5,1460.57,559.13" stroke="#1c4155"/><path d="M61.42-192.71c10,4.11,28.21,303.37,132.28,518.42C226.56,393,264.79,452.28,313.3,489.23c82.93,63.17,170.92,53.72,274,7.39,148.87-67,301.62-186.24,416.51-141.14,57.93,22.74,97.43,76.85,130.52,139.72,79.14,150.62,143.75,278,323.21,62.61" stroke="#1b4155"/><path d="M62.58-194.91c9.36,3.83,25.76,305.54,129.06,520.85C224.23,393.27,262.48,452.42,311.2,489c83.23,62.54,172,52,274.86,5.71C735,427.75,887.55,309.19,1002.21,355c57.79,23.07,97.09,77.43,130,140,78.7,149.68,141.9,277.88,322.2,61.51" stroke="#1a4255"/><path d="M63.74-197.1c8.69,3.55,23.32,307.69,125.83,523.27,32.32,67.4,70.6,126.38,119.53,162.66,83.52,61.92,173.08,50.2,275.75,4,148.95-67,301.37-184.87,415.79-138.42,57.65,23.4,96.74,78,129.57,140.3,78.25,148.74,140,277.78,321.18,60.41" stroke="#194256"/><path d="M64.89-199.3c8,3.28,20.88,309.86,122.62,525.71,32.05,67.46,70.35,126.28,119.5,162.22,83.81,61.29,174.15,48.44,276.63,2.35,149-67,301.25-184.19,415.44-137.06,57.5,23.73,96.39,78.59,129.08,140.59,77.82,147.79,138.2,277.69,320.16,59.32" stroke="#184256"/><path d="M66.05-201.5c7.36,3,18.43,312,119.39,528.14,31.78,67.53,70.11,126.19,119.47,161.79,84.1,60.67,175.23,46.68,277.52.67,149-67.06,301.12-183.5,415.08-135.7,57.35,24.06,96,79.17,128.6,140.88,77.38,146.85,136.35,277.59,319.15,58.22" stroke="#174256"/><path d="M67.21-203.7c6.69,2.74,16,314.19,116.17,530.57C214.89,394.46,253.24,453,302.81,488.23c84.4,60,176.31,44.92,278.41-1,149.06-67.09,301-182.83,414.72-134.35,57.21,24.39,95.7,79.75,128.13,141.17C1201,640,1258.56,771.55,1442.2,551.17" stroke="#164256"/><path d="M68.36-205.89c6,2.46,13.54,316.35,113,533,31.24,67.66,69.62,126,119.41,160.93,84.68,59.42,177.39,43.16,279.28-2.68,149.11-67.11,300.89-182.14,414.37-133,57.07,24.72,95.36,80.33,127.65,141.46,76.5,145,132.65,277.4,317.12,56" stroke="#154257"/><path d="M69.52-208.09c5.35,2.19,11.09,318.52,109.73,535.43,31,67.72,69.37,125.9,119.37,160.49,85,58.8,178.47,41.4,280.17-4.36C727.94,416.34,879.56,302,992.8,351.84c56.93,25.05,95,80.91,127.17,141.75,76.06,144,130.8,277.31,316.1,54.93" stroke="#144357"/><path d="M70.68-210.29c4.68,1.92,8.64,320.68,106.5,537.86,30.7,67.79,69.13,125.81,119.34,160.07,85.28,58.17,179.55,39.63,281.06-6.05,149.19-67.16,300.74-181,413.65-130.27,56.83,25.28,94.67,81.49,126.7,142,75.62,143.07,128.94,277.21,315.08,53.84" stroke="#134357"/><path d="M71.84-212.49c4,1.64,6.19,322.85,103.28,540.29,30.43,67.86,68.88,125.72,119.3,159.64,85.57,57.55,180.63,37.87,282-7.73C725.6,412.53,877,299.44,989.66,350.8c56.69,25.63,94.32,82.07,126.22,142.32C1191.06,635.26,1243,770.25,1430,545.87" stroke="#124357"/><path d="M73-214.68c3.35,1.36,3.75,325,100.07,542.71C203.21,396,241.68,453.66,292.33,487.24c85.86,56.93,181.7,36.11,282.83-9.41,149.26-67.2,300.47-179.55,412.93-127.55,56.54,26,94,82.65,125.75,142.61,74.73,141.19,125.24,277,313.05,51.65" stroke="#114358"/><path d="M74.15-216.88c2.68,1.09,1.31,327.17,96.84,545.15,29.89,68,68.38,125.53,119.24,158.77C376.39,543.35,473,521.39,574,476c149.3-67.22,300.34-178.84,412.57-126.19,56.39,26.32,93.64,83.23,125.27,142.9,74.3,140.25,123.39,276.94,312,50.56" stroke="#104358"/><path d="M75.31-219.08c2,.82-1.14,329.34,93.62,547.58C198.54,396.55,237,454,288.13,486.84,374.5,542.67,472,519.43,572.74,474.07,722.08,406.83,873,295.94,985,349.24c56.24,26.66,93.28,83.81,124.78,143.19,73.86,139.3,121.55,276.85,311,49.46" stroke="#0f4358"/><path d="M76.47-221.28c1.33.55-3.59,331.5,90.39,550,29.35,68.12,67.86,125.4,119.18,157.91C372.73,541.81,471,517.47,571.53,472.2c149.38-67.28,300.08-177.43,411.86-123.48,56.09,27,92.94,84.39,124.31,143.48,73.41,138.36,119.69,276.75,310,48.36" stroke="#0e4458"/><path d="M77.62-223.47c.67.27-6,333.66,87.18,552.43,29.07,68.19,67.63,125.28,119.14,157.48,87,54.51,186,29.07,286.38-16.12C719.74,403,870.26,293.6,981.82,348.2c55.95,27.35,92.59,85,123.83,143.77,73,137.41,117.84,276.66,309,47.27" stroke="#0d4459"/><path d="M78.78-225.67S64.19,352,281.84,486.24,794.31,255.41,980.25,347.68s157,519.41,431.32,190.23" stroke="#0c4459"/></g></svg>