<svg xmlns="http://www.w3.org/2000/svg" viewBox="0 0 1127.58 749.83"  fill="none" stroke-miterlimit="10" xmlns:v="https://vecta.io/nano"><path d="M2046.84 167.38s-214.94 278.84-597.73 126.79-663-22.87-782.31 342.64" stroke="#ff1d25"/><path d="M612.84,642.35c45.59-139.63,138.71-255.26,253-305.33,157.57-69,328.59-123.82,550-61.44,117.15,33,214.66,80.89,315,67.61,201.25-26.65,314.5-182.06,326.27-183.63" stroke="#fe1d24"/><path d="M558.88 647.9C601 519 709.49 397.81 840 365.24c170.9-42.67 326.6-144.13 542.54-108.24 118.91 19.76 212 109 328.64 96.09 210-23.18 332.55-198.2 356.09-201.32" stroke="#fd1d24"/><path d="M504.91,653.44c38.58-118.16,161.64-245.73,309.19-260,183.13-17.7,327.57-128.28,535.16-155.07,120.77-15.58,209.33,136.83,342.33,124.55,218.65-20.18,350.58-214.32,385.89-219" stroke="#fc1d23"/><path d="M451 659c35-107.43 172.87-222.57 337.23-237.33C982.46 404.23 1122.59 276.23 1316 219.8c120.33-35.11 206.63 164.53 356 153 227.27-17.52 368.62-230.46 415.69-236.71" stroke="#fb1d23"/><path d="M397,664.53c31.56-96.68,183.1-239.85,365.36-214.64,206.8,28.6,327.89-214.13,520.35-248.68,129-23.16,203.91,192.09,369.7,181.49,235.87-15.09,386.66-246.59,445.51-254.41" stroke="#fa1d22"/><path d="M343,670.07c28.05-85.93,194.13-238,393.46-192,219,50.57,329.08-241.09,512.94-295.48,132.95-39.33,201.18,219.51,383.39,210,244.46-12.82,404.7-262.72,475.31-272.09" stroke="#f91d22"/><path d="M289.06,675.61C313.6,600.42,494.54,439,710.61,506.32,942.1,578.44,1040.43,236.8,1216.14,164c136.58-56.56,198.45,246.83,397.07,238.43,253.06-10.7,422.75-278.85,505.13-289.79" stroke="#f91d21"/><path d="M235.09,681.16c21-64.45,217.16-235.52,449.64-146.63,244.37,93.44,329.81-299,498.13-389.1,139.57-74.74,195.73,274,410.76,266.9,261.66-8.67,440.78-295,534.93-307.49" stroke="#f81d20"/><path d="M181.13,686.7c17.53-53.71,229.11-234.61,477.73-124,257.55,114.64,328.89-329,490.72-435.91C1291.33,33.19,1342.59,428,1574,422.2c270.26-6.71,458.82-311.11,564.74-325.18" stroke="#f71d20"/><path d="M127.17,692.24c14-43,241.31-233.81,505.82-101.28,271,135.78,327.06-359.24,483.3-482.71,143.06-113,190.3,328.12,438.14,323.83C1833.31,427.26,2031.29,104.84,2149,89.2" stroke="#f61d1f"/><path d="M73.2,697.78c10.52-32.22,253.71-233.07,533.91-78.6C891.74,776.08,931.51,229.73,1083,89.66,1226.54-43,1270.59,444.7,1534.84,442c287.49-3,494.9-343.38,624.35-360.57" stroke="#f51d1f"/><path d="M19.24,703.33c7-21.48,266.26-232.36,562-55.93,298.43,178,321-419.44,468.49-576.33C1193-81.34,1234.62,455.31,1515.24,451.84c296.11-3.67,512.94-359.51,654.17-378.27" stroke="#f41d1e"/><path d="M-34.73,708.87c3.51-10.74,279-231.66,590.1-33.26,312.38,199.19,317-449.1,461.08-623.14,142.43-172,182.17,409.92,479.2,409.24,304.77-.69,531-375.64,684-396" stroke="#f31d1e"/><path d="M-88.69,714.41S203.06,483.46,529.5,703.83,842,225.41,983.17,33.88s179.47,435.4,492.89,437.71,549-391.77,713.78-413.66" stroke="#f21d1d"/><path d="M2189.93,60.42c-164,21.78-399.06,413.36-711.69,410.42-312.44-2.74-351.09-627.3-492-436.62C855.82,209.61,856.86,814.48,604,739.11c-22-6.55-46-18.27-72.09-35.86C206.07,483.6-85.09,712.41-85.37,714" stroke="#f11d1d"/><path d="M2190,62.9c-163.33,21.69-397.74,410.76-709.59,407.18-311.47-3.15-349.9-625-491.19-435.52C858.77,209.5,859,813.4,606.31,738.42c-22-6.53-46-18.2-72.08-35.75-325.15-218.93-615.71,7.74-616.29,11" stroke="#f01d1e"/><path d="M2190.1 65.38c-162.61 21.6-396.43 408.16-707.5 404-310.5-3.58-349-622.85-490.34-434.43-130.78 174.26-131.09 777.37-383.59 702.77-22-6.49-46-18.13-72.07-35.63-324.51-218.2-614.48 6.32-615.34 11.21" stroke="#ef1e1e"/><path d="M2190.19,67.86c-161.9,21.51-395.12,405.56-705.41,400.71-309.52-4-348-620.72-489.49-433.33C864.19,208.92,863.32,811.24,611,737c-22-6.45-46-18.06-72-35.51C215.1,484-74.27,706.41-75.42,712.93" stroke="#ee1e1e"/><path d="M2190.28,70.34C2029.1,91.75,1796.47,473.3,1487,467.82c-308.55-4.42-347.12-618.6-488.64-432.24-131.42,173.06-132.85,774.58-385,700.75-22-6.42-46-18-72-35.4-323.23-216.76-612,3.47-613.45,11.63" stroke="#ed1e1e"/><path d="M2190.37 72.83c-160.47 21.31-392.49 399.72-701.23 394.23-307.57-5.46-346.2-616.46-487.79-431.14-131.74 172.43-133.72 773.16-385.62 699.71-22.06-6.38-46-17.92-72-35.28-322.59-216-610.78 2-612.5 11.83" stroke="#ec1e1f"/><path d="M2190.46,75.31c-159.75,21.22-391.17,397-699.14,391-306.59-6-345.28-614.34-486.94-430C872.31,208.07,869.78,808,618.08,734.93c-22.06-6.35-46-17.85-72-35.16-322-215.31-609.54.63-611.55,12" stroke="#eb1e1f"/><path d="M2190.54 77.79c-159 21.12-389.85 394.31-697 387.76-305.66-6.55-344.41-612.2-486.13-428.95C875 207.79 871.94 806.92 620.43 734.24c-22.06-6.32-46-17.78-72-35-321.29-214.64-608.29-.84-610.59 12.2" stroke="#ea1e1f"/><path d="M2190.63 80.27c-158.31 21-388.54 391.6-695 384.53-304.63-7-343.44-610.08-485.23-427.86-132.73 170.57-136.35 768.9-387.65 696.6-22.07-6.28-46-17.71-72-34.93-320.6-213.87-607.01-2.21-609.59 12.46" stroke="#e91f1f"/><path d="M2190.72 82.76c-157.6 20.93-387.22 388.89-692.87 381.24-303.65-7.56-342.53-607.95-484.38-426.76-133.06 170-137.23 767.48-388.33 695.56-22.07-6.24-46-17.64-71.95-34.81-320-213.15-605.84-3.64-608.71 12.67" stroke="#e81f20"/><path d="M2190.81,85.24C2033.93,106.08,1804.9,471.42,1500,463.29c-302.68-8.08-341.62-605.83-483.53-425.67C883.11,207,878.4,803.68,627.5,732.15c-22.08-6.21-46-17.57-71.94-34.7C236.17,485-49,692.39-52.21,710.33" stroke="#e71f20"/><path d="M2190.9,87.72c-156.17,20.74-384.59,383.48-688.69,374.81-301.7-8.6-340.71-603.69-482.68-424.57-133.72,168.72-139,764.64-389.68,693.49-22.08-6.18-46-17.45-71.92-34.58C238.75,485.82-45.44,690.39-48.89,710" stroke="#e61f20"/><path d="M2191,90.2c-155.45,20.65-383.27,380.78-686.6,371.58-300.72-9.13-339.81-601.57-481.83-423.48C888.5,206.4,882.85,801,632.2,730.75c-22.07-6.18-46-17.37-71.9-34.46C241.72,486-41.84,688.39-45.57,709.58" stroke="#e51f20"/><path d="M2191.07,92.68c-154.73,20.56-382,378.07-684.5,368.34-299.74-9.64-338.91-599.44-481-422.38C891.19,206.13,885,799.89,634.56,730.06c-22.08-6.16-46-17.3-71.89-34.35-318-209.5-600.91-9.32-604.93,13.5" stroke="#e41f21"/><path d="M2191.16,95.17c-154,20.45-380.63,375.36-682.41,365.1C1210,450.1,1170.74-137,1028.62,39,893.88,205.86,887.18,798.77,636.91,729.36c-22.08-6.13-46-17.22-71.87-34.23-317.36-208.73-599.67-10.75-604,13.71" stroke="#e32021"/><path d="M2191.25 97.65C2038 118 1811.94 470.31 1510.93 459.51c-297.79-10.68-337.11-595.18-479.28-420.19-135.08 166.27-142.31 758.33-392.39 689.34-22.08-6.09-46-17.15-71.85-34.11C250.65 486.6-31 682.38-35.63 708.47" stroke="#e22021"/><path d="M2191.34,100.13c-152.59,20.27-378,370-678.23,358.63-296.81-11.21-336.22-593.06-478.44-419.1C899.25,205.32,891.5,796.54,641.62,728c-22.09-6.06-46-17.07-71.84-34C253.63,486.79-27.43,680.38-32.31,708.09" stroke="#e12021"/><path d="M2191.43,102.61C2039.56,122.78,1814.75,469.87,1515.29,458,1219.46,446.28,1180-132.93,1037.7,40,901.94,205.05,893.67,795.42,644,727.27c-22.09-6-46-17-71.82-33.87C256.61,487-23.82,678.38-29,707.72" stroke="#e02022"/><path d="M2191.52 105.1c-151.16 20.07-375.36 364.54-674 352.15C1222.62 445 1183-131.56 1040.73 40.34c-136.11 164.44-144.9 754-394.41 686.23-22.09-6-46-16.92-71.8-33.75-314.93-205.65-594.74-16.44-600.2 14.53" stroke="#df2022"/><path d="M2191.6,107.58c-150.43,20-374,361.84-671.95,348.91-293.87-12.75-333.55-586.68-475.89-415.81C907.3,204.51,898,793.19,648.68,725.87c-22.1-6-46-16.85-71.79-33.63C262.56,487.37-16.61,674.37-22.36,707" stroke="#de2022"/><path d="M2191.69,110.06C2042,130,1819,469.2,1521.83,455.74c-292.89-13.28-332.67-584.56-475-414.72C910,204.25,900.16,792.08,651,725.18c-22.1-5.94-46-16.78-71.77-33.52C265.54,487.56-13,672.37-19,706.61" stroke="#dd2122"/><path d="M2191.78,112.54C2042.78,132.33,1820.39,469,1524,455c-291.91-13.79-331.79-582.43-474.19-413.62C912.65,204,902.32,791,653.38,724.48c-22.1-5.9-46-16.7-71.75-33.4-313.11-203.33-591-20.71-597.36,15.16" stroke="#dc2123"/><path d="M2191.87,115c-148.29,19.7-370.07,353.74-665.68,339.21-290.92-14.31-330.91-580.31-473.34-412.53-137.53,162-148.37,748.15-397.11,682.08-22.11-5.87-46-16.62-71.74-33.28C271.5,487.94-5.8,668.37-12.41,705.86" stroke="#db2123"/><path d="M2192,117.51c-147.57,19.6-368.75,351-663.59,336-289.94-14.82-330-578.18-472.49-411.43C918,203.45,906.64,788.73,658.09,723.09c-22.11-5.84-46-16.55-71.72-33.17C274.48,488.13-2.2,666.37-9.09,705.49" stroke="#da2123"/><path d="M2192.05,120c-146.86,19.5-367.43,348.34-661.5,332.73-289-15.34-329.16-576.06-471.64-410.34-138.24,160.81-150.11,745.24-398.46,680-22.12-5.81-46.05-16.48-71.71-33-311.28-201-587.34-25-594.52,15.78" stroke="#d92124"/><path d="M2192.13,122.47C2046,141.88,1826,468.11,1532.73,452c-288-15.85-328.29-573.93-470.79-409.24-138.61,160.21-151,743.79-399.14,679-22.12-5.77-46-16.4-71.69-32.93C280.44,488.51,5,662.36-2.46,704.75" stroke="#d82124"/><path d="M2192.22,125c-145.42,19.32-364.78,342.94-657.31,326.26-287-16.37-327.43-571.82-469.94-408.15C926,202.67,913.13,785.39,665.15,721c-22.12-5.75-46-16.33-71.67-32.82C283.42,488.7,8.61,660.36.86,704.38" stroke="#d72224"/><path d="M2192.31,127.44c-144.7,19.22-363.46,340.23-655.22,323-286-16.88-326.56-569.69-469.09-407-139.34,159-152.71,740.88-400.49,676.9-22.13-5.72-46-16.25-71.66-32.7C286.4,488.89,12.22,658.36,4.17,704" stroke="#d62224"/><path d="M2192.4 129.92c-144 19.12-362.13 337.53-653.13 319.78-285-17.39-325.7-567.57-468.24-406-139.71 158.45-153.58 739.47-401.17 675.9-22.13-5.68-46.05-16.18-71.64-32.58-308.84-197.94-582.4-30.66-590.73 16.61" stroke="#d52225"/><path d="M2192.49,132.4c-143.28,19-360.81,334.84-651,316.54-284-17.9-324.84-565.45-467.39-404.86C934,201.9,919.61,782.06,672.21,718.91c-22.14-5.66-46.05-16.11-71.62-32.47C292.37,489.27,19.42,654.35,10.81,703.26" stroke="#d42225"/><path d="M2192.57 134.88C2050 153.82 1833.09 467 1543.63 448.19c-283.06-18.42-324-563.33-466.54-403.77-140.45 157.22-155.32 736.52-402.52 673.79-22.15-5.62-46.06-16-71.61-32.35C295.35 489.46 23 652.35 14.12 702.89" stroke="#d32225"/><path d="M2192.66 137.36c-141.84 18.84-358.15 329.44-646.85 310.07-282.08-18.92-323.13-561.21-465.69-402.67-140.83 156.62-156.19 735.07-403.2 672.75-22.15-5.59-46.06-16-71.59-32.23-307-195.63-578.7-34.93-587.89 17.24" stroke="#d22225"/><path d="M2192.75 139.85c-141.12 18.74-356.83 326.74-644.75 306.83-281.1-19.44-322.29-559.09-464.85-401.58-141.21 156-157.06 733.62-403.88 671.71-22.15-5.55-46.06-15.88-71.57-32.11-306.39-194.87-577.47-36.35-586.94 17.45" stroke="#d12326"/><path d="M2192.84 142.33c-140.41 18.65-355.5 324-642.67 303.59-280.11-19.94-321.43-557-464-400.48-141.58 155.44-157.92 732.17-404.54 670.68-22.16-5.53-46.06-15.81-71.56-32C304.3 490 33.84 646.35 24.07 701.78" stroke="#d02326"/><path d="M2192.93,144.81c-139.69,18.55-354.18,321.35-640.58,300.36-279.12-20.46-320.59-554.86-463.14-399.39C947.24,200.62,930.41,776.5,684,715.42c-22.16-5.49-46.06-15.73-71.54-31.88-305.16-193.33-575-39.2-585.05,17.86" stroke="#cf2326"/><path d="M2193 147.29c-139 18.46-352.85 318.65-638.49 297.12-278.14-21-319.75-552.73-462.29-398.29-142.33 154.25-159.65 729.27-405.89 668.6-22.16-5.46-46.06-15.66-71.52-31.76C310.26 490.4 41.05 642.34 30.71 701" stroke="#ce2326"/><path d="M2193.1,149.78c-138.25,18.36-351.52,316-636.39,293.88C1279.56,422.18,1237.8-107,1095.27,46.46,952.53,200.12,934.73,774.28,688.69,714c-22.17-5.43-46.07-15.59-71.51-31.65C313.25,490.58,44.65,640.34,34,700.66" stroke="#cd2327"/><path d="M2193.19 152.26c-137.54 18.27-350.19 313.26-634.3 290.64-276.17-22-318.07-548.5-460.59-396.1C955.17 199.87 936.89 773.17 691 713.33c-22.17-5.4-46.07-15.51-71.49-31.52-303.32-191-571.3-43.47-582.21 18.48" stroke="#cc2327"/><path d="M2193.28,154.74c-136.82,18.17-348.86,310.56-632.21,287.41-275.18-22.49-317.24-546.39-459.74-395C957.81,199.62,939.05,772.06,693.4,712.63c-22.18-5.36-46.08-15.43-71.48-31.4C319.22,491,51.86,636.34,40.66,699.92" stroke="#cb2427"/><path d="M2193.37,157.22c-136.11,18.08-347.53,307.87-630.12,284.17-274.19-23-316.41-544.27-458.89-393.91C960.44,199.37,941.21,771,695.75,711.94c-22.18-5.34-46.07-15.37-71.46-31.29C322.2,491.14,55.46,634.33,44,699.55" stroke="#ca2427"/><path d="M2193.46 159.7c-135.39 18-346.21 305.18-628 280.94-273.21-23.5-315.58-542.17-458-392.82-144.31 151.3-164 722-409.29 663.42-22.18-5.3-46.07-15.29-71.45-31.17-301.53-188.75-567.66-47.74-579.43 19.1" stroke="#c92428"/><path d="M2193.55,162.19c-134.68,17.88-344.88,302.48-625.94,277.69-272.22-24-314.76-540-457.19-391.72-144.71,150.71-164.89,720.58-410,662.38-22.19-5.27-46.08-15.21-71.44-31C328.17,491.51,62.67,630.33,50.6,698.8" stroke="#c82428"/><path d="M2193.63 164.67c-134 17.79-343.54 299.79-623.84 274.46-271.23-24.51-313.94-537.94-456.34-390.63-145.11 150.13-165.77 719.13-410.64 661.35-22.19-5.24-46.08-15.14-71.42-30.94-300.23-187.22-565.12-50.58-577.47 19.52" stroke="#c72428"/><path d="M2193.72,167.15c-133.24,17.7-342.21,297.1-621.75,271.22-270.24-25-313.12-535.83-455.49-389.53C971,198.38,949.84,766.52,705.16,709.15c-22.19-5.21-46.08-15.07-71.4-30.82-299.61-186.45-563.88-52-576.52,19.73" stroke="#c62428"/><path d="M2193.81,169.63c-132.53,17.6-340.88,294.41-619.66,268C1304.9,412.1,1261.84-96.1,1119.51,49.18c-145.92,149-167.51,716.24-412,659.27-22.2-5.17-46.09-15-71.39-30.7-299-185.69-562.65-53.43-575.58,19.94" stroke="#c52529"/><path d="M2193.9 172.11c-131.81 17.51-339.55 291.72-617.57 264.75-268.27-26-311.5-531.61-453.79-387.34-146.33 148.37-168.38 714.79-412.67 658.24-22.2-5.15-46.08-14.92-71.37-30.59-298.38-184.93-561.42-54.85-574.63 20.14" stroke="#c42529"/><path d="M2194 174.6c-131.1 17.41-338.22 289-615.48 261.51-267.29-26.52-310.7-529.51-452.95-386.25-146.74 147.78-169.25 713.34-413.35 657.2-22.22-5.06-46.08-14.85-71.35-30.47-297.76-184.17-560.18-56.27-573.68 20.35" stroke="#c32529"/><path d="M2194.08,177.08c-130.38,17.32-336.89,286.33-613.39,258.27C1314.4,408.33,1270.81-92,1128.6,50.2c-147.15,147.2-170.13,711.9-414,656.16-22.22-5.07-46.09-14.77-71.34-30.35C346.1,492.61,84.29,618.32,70.5,696.57" stroke="#c2252a"/><path d="M2194.16 179.56c-129.66 17.22-335.55 283.64-611.29 255-265.3-27.52-309.08-525.3-451.24-384.06-147.57 146.65-171 710.5-414.7 655.16-22.22-5-46.09-14.69-71.32-30.23C349.08 492.79 87.89 616.32 73.82 696.2" stroke="#c1252a"/><path d="M2194.25,182c-128.94,17.13-334.22,281-609.2,251.8-264.31-28-308.28-523.19-450.39-383-148,146-171.87,709-415.38,654.09-22.22-5-46.09-14.62-71.3-30.12C352.07,493,91.5,614.31,77.14,695.83" stroke="#c0252a"/><path d="M2194.34,184.53c-128.23,17-332.88,278.26-607.11,248.56C1323.91,404.57,1279.75-88,1137.69,51.22,989.28,196.67,965,758.78,721.64,704.27c-22.23-5-46.1-14.55-71.29-30-295.29-181.12-555.25-62-569.9,21.19" stroke="#bf262a"/><path d="M2194.43,187c-127.51,16.93-331.55,275.57-605,245.32-262.33-29-306.69-519-448.69-380.77C991.89,196.42,967.1,757.68,724,703.57c-22.23-4.94-46.09-14.47-71.27-29.88-294.67-180.36-554-63.38-568.95,21.39" stroke="#be262b"/><path d="M2194.52,189.49c-126.8,16.84-330.22,272.89-602.93,242.09-261.33-29.51-305.9-516.89-447.84-379.68-149.25,144.28-174.49,704.67-417.4,651-22.24-4.92-46.1-14.4-71.26-29.77-294-179.6-552.78-64.8-568,21.6" stroke="#bd262b"/><path d="M2194.61,192c-126.08,16.75-328.88,270.2-600.84,238.85-260.34-30-305.11-514.79-447-378.58C997.1,195.94,971.42,755.47,728.7,702.18c-22.24-4.88-46.1-14.33-71.24-29.65C364,493.69,105.91,606.31,90.4,694.34" stroke="#bc262b"/><path d="M2194.69,194.45C2069.33,211.11,1867.15,462,1596,430.07c-259.35-30.5-304.33-512.69-446.14-377.49C999.7,195.7,973.57,754.37,731.05,701.48c-22.24-4.85-46.1-14.25-71.22-29.53C367,493.87,109.52,604.3,93.72,694" stroke="#bb262b"/><path d="M2194.78 196.94c-124.64 16.55-326.21 264.83-596.66 232.37-258.35-31-303.53-510.59-445.28-376.39-150.55 142.54-177.11 700.34-419.43 647.87-22.25-4.82-46.11-14.18-71.21-29.42C370 494.05 113.12 602.3 97 693.6" stroke="#ba262c"/><path d="M2194.87,199.42C2070.94,215.88,1870,461.56,1600.3,428.56c-257.36-31.49-302.76-508.5-444.43-375.3-151,142-178,698.9-420.11,646.83-22.25-4.79-46.1-14.1-71.19-29.3C373,494.23,116.72,600.3,100.35,693.23" stroke="#b9272c"/><path d="M2195,201.9c-123.22,16.37-323.54,259.46-592.48,225.91-256.36-32-302-506.41-443.58-374.21C1007.48,195,980,751.06,738.11,699.39c-22.25-4.75-46.1-14-71.17-29.18-291-175.8-546.61-71.91-563.27,22.64" stroke="#b8272c"/><path d="M2195.05,204.38c-122.5,16.27-322.2,256.78-590.39,222.67-255.37-32.48-301.21-504.31-442.73-373.11C1010.07,194.73,982.2,750,740.47,698.7c-22.26-4.72-46.11-14-71.16-29.06C379,494.58,123.93,596.3,107,692.48" stroke="#b7272c"/><path d="M2195.14 206.87C2073.35 223 1874.28 461 1606.84 426.3c-254.38-33-300.44-502.23-441.88-372-152.3 140.19-180.6 694.56-422.14 643.7-22.27-4.69-46.11-13.88-71.14-28.94C382 494.76 127.54 594.29 110.3 692.11" stroke="#b6272d"/><path d="M2195.22 209.35C2074.16 225.43 1875.7 460.76 1609 425.54c-253.38-33.46-299.67-500.13-441-370.91-152.76 139.62-181.49 693.12-422.83 642.67-22.27-4.65-46.11-13.81-71.12-28.82C385 494.94 131.14 592.29 113.62 691.74" stroke="#b5272d"/><path d="M2195.31,211.83c-120.35,16-318.18,248.73-584.11,213-252.39-34-298.91-498-440.18-369.82-153.2,139-182.35,691.68-423.49,641.64-22.28-4.63-46.11-13.74-71.11-28.71C388,495.12,134.74,590.29,116.94,691.37" stroke="#b4282d"/><path d="M2195.4 214.31c-119.63 15.89-316.84 246.05-582 209.72-251.4-34.44-298.15-496-439.33-368.72-153.67 138.46-183.25 690.24-424.19 640.6-22.28-4.59-46.11-13.66-71.09-28.59-287.83-172-540.44-79-558.54 23.68" stroke="#b3282d"/><path d="M2195.49,216.79c-118.92,15.8-315.51,243.37-579.93,206.49-250.4-34.93-297.39-493.88-438.48-367.63C1023,193.53,993,744.45,752.24,695.21c-22.29-4.56-46.12-13.59-71.08-28.47C394,495.47,142,586.29,123.57,690.62" stroke="#b2282e"/><path d="M2195.58 219.28C2077.38 235 1881.41 460 1617.74 422.52 1368.33 387.1 1321.1-69.27 1180.11 56c-154.56 137.3-185 687.36-425.52 638.53-22.29-4.53-46.12-13.53-71.06-28.37-286.59-170.52-538-81.88-556.65 24.09" stroke="#b1282e"/><path d="M2195.67 221.76c-117.49 15.6-312.83 238-575.75 200-248.41-35.9-295.92-489.7-436.78-365.43-155 136.71-185.85 685.92-426.2 637.49-22.29-4.49-46.11-13.44-71-28.24-286-169.76-536.74-83.3-555.7 24.3" stroke="#b0282e"/><path d="M2195.75,224.24C2079,239.75,1884.27,459.57,1622.1,421,1374.69,384.62,1327-66.62,1186.17,56.67,1030.69,192.8,999.44,741.16,759.3,693.12c-22.3-4.46-46.12-13.37-71-28.12-285.34-169-535.51-84.72-554.75,24.51" stroke="#af282e"/><path d="M2195.84,226.72c-116.05,15.42-310.14,232.65-571.56,193.54C1377.86,383.38,1329.88-65.29,1189.2,57c-155.94,135.55-187.6,683.05-427.55,635.41-22.3-4.42-46.12-13.29-71-28-284.71-168.25-534.27-86.14-553.81,24.72" stroke="#ae292f"/><path d="M2195.93,229.21c-115.33,15.31-308.8,230-569.47,190.29C1381,382.14,1332.8-64,1192.22,57.35,1035.82,192.32,1003.75,739,764,691.73c-22.3-4.4-46.12-13.22-71-27.89-284.09-167.5-533-87.56-552.86,24.93" stroke="#ad292f"/><path d="M2196 231.69c-114.6 15.22-307.44 227.31-567.36 187.06-244.43-37.84-292.92-481.4-433.39-361.06C1038.38 192.08 1005.91 737.86 766.36 691c-22.31-4.36-46.13-13.15-71-27.77-283.46-166.75-531.81-89-551.91 25.13" stroke="#ac292f"/><path d="M2196.11,234.17C2082.21,249.3,1890,458.79,1630.82,418c-243.43-38.32-292.18-479.32-432.54-360-157.34,133.81-190.22,678.73-429.57,632.3-22.32-4.32-46.12-13.07-71-27.65-282.84-166-530.57-90.41-551,25.34" stroke="#ab2930"/><path d="M2196.19,236.65c-113.18,15-304.77,222-563.19,180.59C1390.57,378.43,1341.55-60,1201.31,58.37c-157.82,133.22-191.09,677.3-430.25,631.27-22.32-4.3-46.12-13-70.94-27.54-282.21-165.24-529.34-91.83-550,25.55" stroke="#aa2930"/><path d="M2196.28 239.13c-112.47 14.94-303.43 219.28-561.1 177.35-241.44-39.28-290.72-475.18-430.84-357.77-158.3 132.64-192 675.86-430.92 630.23-22.33-4.26-46.13-12.93-70.93-27.42C420.91 497 174.38 568.27 153.42 687.28" stroke="#a92930"/><path d="M2196.37,241.62c-111.75,14.84-302.09,216.6-559,174.11-240.44-39.77-290-473.11-430-356.68-158.78,132.06-192.85,674.42-431.6,629.19-22.33-4.23-46.13-12.85-70.91-27.3-281-163.74-526.87-94.67-548.13,26" stroke="#a82a30"/><path d="M2196.46,244.1C2085.42,258.85,1895.72,458,1639.54,415c-239.44-40.24-289.28-471-429.14-355.58-159.26,131.47-193.72,673-432.28,628.16-22.33-4.2-46.12-12.78-70.89-27.19-280.33-163-525.64-96.1-547.18,26.17" stroke="#a72a31"/><path d="M2196.55,246.58c-110.32,14.65-299.4,211.26-554.83,167.64-238.44-40.72-288.56-469-428.29-354.49-159.75,130.89-194.6,671.55-432.95,627.12-22.34-4.16-46.13-12.71-70.88-27.07-279.7-162.24-524.4-97.52-546.23,26.38" stroke="#a62a31"/><path d="M2196.64 249.06c-109.64 14.56-298.06 208.59-552.74 164.4-237.44-41.19-287.84-466.92-427.44-353.39-160.23 130.3-195.46 670.12-433.63 626.08C760.49 682 736.7 673.52 712 659.2c-279.1-161.49-523.2-98.94-545.32 26.59" stroke="#a52a31"/><path d="M2196.72,251.55C2087.84,266,1900,457.46,1646.08,412.71,1409.63,371,1359-52.15,1219.49,60.41c-160.73,129.72-196.35,668.68-434.3,625.05-22.35-4.1-46.14-12.57-70.85-26.84C435.9,497.88,192.4,558.26,170,685.42" stroke="#a42a31"/><path d="M2196.81 254c-108.17 14.39-295.36 203.27-548.55 158-235.45-42.14-286.41-462.8-425.74-351.2-161.22 129.13-197.23 667.25-435 624-22.35-4.07-46.13-12.49-70.83-26.72-277.82-160-520.7-101.78-543.39 27" stroke="#a32a32"/><path d="M2196.9 256.51c-107.45 14.27-294 200.58-546.46 154.69C1416 368.58 1364.73-49.54 1225.55 61.09c-161.72 128.54-198.1 665.81-435.66 623-22.36-4-46.13-12.41-70.82-26.59-277.18-159.28-519.46-103.25-542.44 27.18" stroke="#a22b32"/><path d="M2197,259c-106.74,14.18-292.67,197.91-544.37,151.45-233.45-43.09-285-458.68-424-349-162.22,128-199,664.38-436.33,621.94-22.37-4-46.14-12.35-70.81-26.48C444.89,498.38,203.21,552.25,180,684.3" stroke="#a12b32"/><path d="M2197.08,261.47c-106,14.09-291.33,195.25-542.28,148.22-232.45-43.57-284.3-456.63-423.19-347.92-162.72,127.37-199.86,663-437,620.9-22.37-4-46.13-12.27-70.79-26.36-275.92-157.76-517-106.06-540.54,27.62" stroke="#a02b32"/><path d="M2197.17,264c-105.31,14-290,192.57-540.19,145-231.45-44-283.6-454.58-422.34-346.82C1071.41,188.89,1033.9,723.62,797,682c-22.37-3.93-46.13-12.19-70.77-26.24-275.29-157-515.76-107.48-539.6,27.83" stroke="#9f2b33"/><path d="M2197.25,266.44c-104.58,13.89-288.63,189.91-538.09,141.74-230.45-44.51-282.91-452.53-421.49-345.73-163.73,126.18-201.61,660.08-438.36,618.82-22.38-3.89-46.14-12.12-70.76-26.12C453.89,498.89,214,546.25,189.9,683.19" stroke="#9e2b33"/><path d="M2197.34,268.92c-103.87,13.8-287.28,187.25-536,138.5-229.45-45-282.21-450.48-420.64-344.63-164.25,125.59-202.49,658.65-439,617.79-22.38-3.87-46.14-12.05-70.74-26-274-155.52-513.29-110.33-537.7,28.25" stroke="#9d2b33"/><path d="M2197.43 271.4c-103.16 13.7-285.94 184.6-533.91 135.27C1435.07 361.23 1382-41.77 1243.73 63.13 1079 188.13 1040.36 720.35 804 679.88c-22.38-3.83-46.13-12-70.72-25.89-273.38-154.77-512.05-111.75-536.75 28.46" stroke="#9c2c33"/><path d="M2197.52,273.88c-102.44,13.61-284.59,181.93-531.82,132C1438.25,360,1384.86-40.49,1246.76,63.47c-165.28,124.41-204.24,655.78-440.39,615.71-22.39-3.8-46.14-11.9-70.71-25.77-272.76-154-510.82-113.17-535.81,28.66" stroke="#9b2c34"/><path d="M2197.61 276.37c-101.73 13.51-283.24 179.26-529.73 128.79-226.45-46.37-280.15-444.36-418.09-341.35C1084 187.62 1044.67 718.16 808.72 678.49c-22.39-3.77-46.14-11.83-70.69-25.66C465.9 499.55 228.44 538.24 203.17 681.7" stroke="#9a2c34"/><path d="M2197.7,278.85c-101,13.42-281.9,176.6-527.64,125.55-225.45-46.83-279.47-442.32-417.24-340.25-166.32,123.21-206,652.92-441.75,613.64-22.4-3.73-46.14-11.76-70.67-25.54C468.9,499.71,232,536.24,206.48,681.33" stroke="#992c34"/><path d="M2197.78,281.33c-100.29,13.32-280.54,174-525.54,122.32-224.45-47.3-278.8-440.29-416.39-339.16C1089,187.11,1049,716,813.43,677.09c-22.41-3.7-46.14-11.68-70.66-25.42C471.91,499.87,235.65,534.23,209.8,681" stroke="#982c34"/><path d="M2197.87,283.81C2098.3,297,1918.68,455.1,1674.42,402.89,1451,355.13,1396.3-35.36,1258.88,64.83c-167.37,122-207.76,650.06-443.1,611.57-22.41-3.67-46.14-11.62-70.64-25.31-270.23-151-505.89-118.86-532,29.5" stroke="#972c35"/><path d="M2198 286.3c-98.86 13.13-277.84 168.63-521.36 115.84-222.44-48.22-277.45-436.22-414.69-337C1094 186.59 1053.28 713.8 818.14 675.7c-22.42-3.63-46.15-11.54-70.63-25.19-269.6-150.31-504.65-120.28-531.08 29.71" stroke="#962d35"/><path d="M2198.05,288.78c-98.14,13-276.5,166-519.27,112.6C1457.34,352.7,1402-32.81,1264.94,65.51,1096.5,186.33,1055.43,712.71,820.49,675c-22.42-3.6-46.14-11.46-70.61-25.07-269-149.57-503.42-121.7-530.13,29.91" stroke="#952d35"/><path d="M2198.14 291.26C2100.71 304.2 1923 454.58 1681 400.63c-220.44-49.14-276.11-432.16-413-334.78-169 120.21-210.39 645.78-445.13 608.46-22.42-3.57-46.14-11.4-70.59-25-268.36-148.79-502.22-123.08-529.22 30.16" stroke="#942d36"/><path d="M2198.23 293.74c-96.71 12.85-273.8 160.67-515.09 106.13C1463.7 350.28 1407.69-30.27 1271 66.19c-169.51 119.61-211.27 644.35-445.8 607.42-22.43-3.53-46.15-11.32-70.58-24.84-267.69-148.09-500.95-124.55-528.24 30.33" stroke="#932d36"/><path d="M2198.31,296.22c-96,12.75-272.44,158-513,102.9C1466.88,349.07,1410.53-29,1274,66.53c-170,119-212.15,642.92-446.48,606.38-22.43-3.5-46.14-11.25-70.56-24.72-267.06-147.34-499.72-126-527.29,30.54" stroke="#922d36"/><path d="M2198.4,298.71c-95.27,12.65-271.09,155.36-510.9,99.65-217.43-50.5-274.13-426.09-410.44-331.49-170.6,118.39-213,641.49-447.16,605.35-22.44-3.47-46.14-11.18-70.54-24.61C492.94,501,260.87,520.22,233,678.36" stroke="#912d36"/><path d="M2198.49 301.19c-94.56 12.56-269.74 152.71-508.81 96.42-216.43-51-273.47-424.08-409.59-330.4-171.15 117.79-213.9 640.06-447.83 604.31-22.45-3.43-46.15-11.11-70.53-24.49-265.79-145.87-497.25-128.81-525.4 31" stroke="#902e37"/><path d="M2198.58 303.67c-93.84 12.47-268.39 150.06-506.72 93.18-215.43-51.41-272.86-422.06-408.74-329.3-171.7 117.17-214.78 638.64-448.51 603.27-22.45-3.39-46.15-11-70.51-24.37C499 501.32 268.08 516.22 239.65 677.61" stroke="#8f2e37"/><path d="M2198.67,306.15c-93.13,12.37-267,147.42-504.63,90-214.43-51.87-272.17-420-407.89-328.21C1113.9,184.45,1070.49,705.1,837,670.13c-22.45-3.37-46.14-11-70.49-24.26C502,501.48,271.69,514.21,243,677.24" stroke="#8e2e37"/><path d="M2198.76 308.64c-92.42 12.27-265.69 144.76-502.54 86.7-213.43-52.31-271.52-418-407-327.11-172.85 115.94-216.58 635.77-449.9 601.2-22.46-3.33-46.15-10.89-70.48-24.13C505 501.64 275.29 512.21 246.28 676.87" stroke="#8d2e37"/><path d="M2198.84 311.12c-91.69 12.18-264.33 142.12-500.45 83.47-212.41-52.76-270.87-416-406.18-326-173.37 115.31-217.42 634.34-450.54 600.14-22.46-3.29-46.15-10.81-70.46-24C508 501.8 278.89 510.21 249.6 676.5" stroke="#8c2e38"/><path d="M2198.93,313.6c-91,12.08-263,139.48-498.36,80.23-211.41-53.21-270.23-414-405.33-324.92C1121.31,183.62,1076.94,701.84,844,668c-22.46-3.26-46.14-10.74-70.44-23.89C511,502,282.5,508.21,252.91,676.13" stroke="#8b2e38"/><path d="M2199,316.08c-90.26,12-261.63,136.83-496.27,77-210.41-53.66-269.59-412-404.48-323.83-174.49,114.08-219.18,631.51-451.89,598.09-22.47-3.23-46.15-10.67-70.43-23.78C514,502.11,286.1,506.21,256.23,675.75" stroke="#8a2f38"/><path d="M2199.11,318.56c-89.55,11.9-260.28,134.19-494.18,73.76-209.4-54.1-269-410-403.63-322.73-175.06,113.46-220,630.08-452.57,597.05-22.48-3.19-46.15-10.6-70.41-23.66C517,502.27,289.7,504.2,259.55,675.38" stroke="#892f38"/><path d="M2199.2,321.05c-88.83,11.79-258.93,131.54-492.09,70.52-208.4-54.55-268.32-408-402.78-321.64-175.63,112.83-220.93,628.66-453.24,596-22.49-3.16-46.15-10.52-70.4-23.54C520,502.42,293.31,502.2,262.86,675" stroke="#882f39"/><path d="M2199.29,323.53c-88.12,11.7-257.58,128.91-490,67.28-207.4-55-267.68-406-401.93-320.54-176.2,112.21-221.81,627.24-453.92,595-22.49-3.13-46.15-10.46-70.38-23.43C523,502.58,296.91,500.2,266.18,674.64" stroke="#872f39"/><path d="M2199.37,326c-87.39,11.61-256.22,126.27-487.9,64.05-206.39-55.43-267.06-404-401.08-319.45-176.78,111.57-222.69,625.81-454.6,593.94-22.49-3.09-46.15-10.38-70.36-23.31-259.41-138.51-484.91-143-515.93,33" stroke="#862f39"/><path d="M2199.46 328.49c-86.68 11.51-254.86 123.63-485.81 60.81-205.39-55.87-266.43-402-400.23-318.35-177.36 110.94-223.57 624.39-455.27 592.9-22.5-3.05-46.15-10.31-70.35-23.19C529 502.88 304.12 496.2 272.81 673.9" stroke="#852f39"/><path d="M2199.55,331c-86,11.41-253.51,121-483.72,57.57C1511.44,332.24,1450-11.52,1316.45,71.29,1138.51,181.6,1092,694.26,860.5,663.16c-22.5-3-46.15-10.24-70.33-23.08C532,503,307.72,494.19,276.13,673.52" stroke="#84303a"/><path d="M2199.64 333.46c-85.25 11.32-252.16 118.36-481.63 54.33-203.38-56.74-265.18-398.08-398.53-316.16C1141 181.3 1094.15 693.18 862.85 662.46c-22.5-3-46.15-10.17-70.31-23-257.49-136.27-481.21-147.27-513.09 33.69" stroke="#83303a"/><path d="M2199.73 335.94c-84.53 11.23-250.81 115.73-479.54 51.1C1517.81 329.86 1455.63-9.07 1322.51 72c-179.11 109-226.21 620.09-457.3 589.76-22.52-3-46.15-10.09-70.3-22.84-256.85-135.58-480-148.73-512.15 33.86" stroke="#82303a"/><path d="M2199.81,338.42c-83.81,11.13-249.45,113.1-477.44,47.86C1521,328.67,1458.42-7.84,1325.54,72.31c-179.7,108.38-227.09,618.7-458,588.76-22.52-2.92-46.15-10-70.28-22.73-256.21-134.85-478.75-150.15-511.2,34.07" stroke="#81303a"/><path d="M2199.9,340.9c-83.09,11-248.1,110.47-475.35,44.63-200.38-58-263.33-392.15-396-312.88-180.29,107.73-228,617.28-458.66,587.72a207.34,207.34,0,0,1-70.26-22.61C544.08,503.64,322.14,486.19,289.4,672" stroke="#80303b"/><path d="M2200,343.39c-82.38,10.94-246.74,107.83-473.26,41.38C1527.36,326.29,1464-5.41,1331.6,73c-180.88,107.08-228.85,615.86-459.33,586.68A206.94,206.94,0,0,1,802,637.18c-254.93-133.39-476.28-153-509.31,34.49" stroke="#7f303b"/><path d="M2200.08,345.87c-81.67,10.85-245.39,105.2-471.17,38.15C1530.54,325.11,1466.8-4.19,1334.63,73.33,1153.15,179.76,1104.9,687.77,874.62,659a206.6,206.6,0,0,1-70.23-22.38C550.11,503.94,329.34,482.18,296,671.29" stroke="#7e313b"/><path d="M2200.17 348.35c-81 10.75-244 102.58-469.08 34.92-197.37-59.35-261.5-386.27-393.43-309.6-182.08 105.78-230.61 613-460.69 584.61A206.29 206.29 0 0 1 806.76 636C553.12 504.09 333 480.18 299.34 670.92" stroke="#7d313c"/><path d="M2200.26,350.83c-80.24,10.66-242.69,99.95-467,31.68C1536.91,322.74,1472.38-1.77,1340.69,74,1158,179.13,1109.2,685.61,879.33,657.58a205.9,205.9,0,0,1-70.2-22.14c-253-131.2-472.58-157.26-506.47,35.11" stroke="#7c313c"/><path d="M2200.34 353.32c-79.51 10.56-241.33 97.32-464.89 28.44-195.36-60.2-260.29-382.32-391.73-307.41-183.29 104.45-232.37 610.18-462 582.53a205.65 205.65 0 0 1-70.19-22C559.15 504.39 340.16 476.18 306 670.18" stroke="#7b313c"/><path d="M2200.43,355.8c-78.8,10.46-240,94.7-462.8,25.2C1543.27,320.38,1477.94.64,1346.75,74.69,1162.85,178.48,1113.5,683.45,884,656.19a205.3,205.3,0,0,1-70.18-21.91c-251.7-129.75-470.1-160.11-504.57,35.53" stroke="#7a313c"/><path d="M2200.52,358.28c-78.08,10.37-238.62,92.08-460.71,22C1546.45,319.2,1480.72,1.84,1349.77,75c-184.5,103.12-234.12,607.34-463.38,580.46a204.94,204.94,0,0,1-70.16-21.79c-251.06-129-468.87-161.53-503.62,35.74" stroke="#79323d"/><path d="M2200.61,360.76C2123.24,371,1963.34,450.23,1742,379.49,1549.64,318,1483.5,3,1352.8,75.37c-185.11,102.45-235,605.93-464.06,579.42a204.84,204.84,0,0,1-70.14-21.66c-250.41-128.3-467.63-163-502.67,35.93" stroke="#78323d"/><path d="M2200.7,363.24c-76.65,10.18-235.92,86.85-456.53,15.5-191.35-61.89-257.89-374.51-388.34-303C1170.11,177.48,1120,680.22,891.1,654.1A204.72,204.72,0,0,1,821,632.55C571.2,505,354.57,468.17,319.24,668.69" stroke="#77323d"/><path d="M2200.79,365.73C2124.85,375.81,1966.22,450,1746.35,378,1556,315.67,1489.05,5.42,1358.86,76.05,1172.52,177.14,1122.1,679.14,893.45,653.4A204.15,204.15,0,0,1,823.34,632c-249.12-126.85-465.17-165.8-500.78,36.35" stroke="#76323d"/><path d="M2200.87 368.21c-75.21 10-233.21 81.61-452.34 9-189.35-62.71-256.71-370.6-386.64-300.82-187 100.41-237.64 601.68-466.09 576.31a203.87 203.87 0 0 1-70.09-21.31C577.23 505.26 361.78 464.16 325.88 668" stroke="#75323e"/><path d="M2201 370.69c-74.5 9.9-231.86 79-450.25 5.78-188.39-63.14-256.16-368.67-385.83-299.74C1177.33 176.45 1126.4 677 898.16 652a204 204 0 0 1-70.08-21.2c-247.83-125.4-462.7-168.64-498.89 36.78" stroke="#74323e"/><path d="M2201.05,373.17c-73.78,9.8-230.51,76.39-448.16,2.55C1565.55,312.16,1497.36,9,1368,77.07c-188.21,99-239.4,598.84-467.44,574.24a203.41,203.41,0,0,1-70.06-21.08C583.27,505.55,369,460.16,332.51,667.21" stroke="#73333e"/><path d="M2201.14,375.65c-73.07,9.71-229.15,73.78-446.07-.69C1568.73,311,1500.13,10.16,1371,77.41c-188.84,98.33-240.28,597.43-468.12,573.2a203.07,203.07,0,0,1-70-21c-246.54-124-460.23-171.49-497,37.18" stroke="#72333e"/><path d="M2201.23,378.14c-72.36,9.61-227.8,71.16-444-3.93C1571.91,309.82,1502.89,11.34,1374,77.75c-189.47,97.64-241.16,596-468.79,572.17a202.75,202.75,0,0,1-70-20.85c-245.89-123.24-459-172.91-496.05,37.39" stroke="#71333f"/><path d="M2201.32,380.62c-71.64,9.51-226.45,68.56-441.89-7.17C1575.09,308.66,1505.65,12.51,1377,78.09c-190.1,96.93-242,594.6-469.47,571.13a202.47,202.47,0,0,1-70-20.73C592.32,506,379.8,454.15,342.46,666.09" stroke="#70333f"/><path d="M2201.4,383.1c-70.92,9.42-225.09,65.95-439.79-10.4-183.34-65.21-253.2-359-381.54-294.27-190.74,96.22-242.92,593.18-470.15,570.09a202.14,202.14,0,0,1-70-20.61c-244.6-121.8-456.53-175.76-494.15,37.81" stroke="#6f333f"/><path d="M2201.49 385.58c-70.2 9.33-223.74 63.35-437.7-13.64-182.34-65.61-252.62-357.09-380.69-293.17-191.38 95.51-243.8 591.77-470.82 569.06a202.11 202.11 0 0 1-70-20.5c-243.95-121.08-455.3-177.18-493.21 38" stroke="#6e333f"/><path d="M2201.58,388.07c-69.49,9.23-222.39,60.74-435.61-16.88-181.34-66-252-355.17-379.84-292.08-192,94.8-244.68,590.36-471.5,568a201.72,201.72,0,0,1-70-20.38C601.37,506.39,390.61,448.15,352.41,665" stroke="#6d3440"/><path d="M2201.67 390.55c-68.77 9.13-221 58.14-433.52-20.12-180.34-66.42-251.46-353.25-379-291-192.65 94.1-245.55 588.96-472.15 567a201.17 201.17 0 0 1-70-20.26c-242.65-119.64-452.83-180-491.31 38.43" stroke="#6c3440"/><path d="M2201.76 393c-68.06 9-219.7 55.55-431.43-23.35-179.33-66.8-250.89-351.31-378.14-289.86-193.3 93.35-246.44 587.53-472.85 565.94a200.91 200.91 0 0 1-69.93-20.14c-242-118.92-451.59-181.45-490.41 38.64" stroke="#6b3440"/><path d="M2201.85 395.51c-67.34 8.95-218.35 52.95-429.34-26.59-178.34-67.23-250.31-349.43-377.29-288.79-194 92.62-247.32 586.12-473.53 564.91a200.84 200.84 0 0 1-69.91-20c-241.35-118.24-450.36-182.9-489.42 38.82" stroke="#6a3440"/><path d="M2201.93,398c-66.62,8.85-217,50.36-427.24-29.82C1597.35,300.54,1525,20.65,1398.25,80.47c-194.6,91.89-248.2,584.7-474.2,563.87a200.57,200.57,0,0,1-69.9-19.91C613.45,506.94,405,440.14,365.68,663.49" stroke="#693441"/><path d="M2202,400.48c-65.9,8.75-215.64,47.75-425.15-33.07-176.35-68-249.17-345.61-375.59-286.6C1206,172,1152.19,664.1,926.4,643.64a200.26,200.26,0,0,1-69.88-19.79C616.47,507.08,408.63,438.14,369,663.12" stroke="#683441"/><path d="M2202.11,403c-65.19,8.66-214.29,45.16-423.06-36.3-175.35-68.43-248.6-343.72-374.74-285.51-195.9,90.4-250,581.88-475.56,561.8a200,200,0,0,1-69.86-19.68c-239.4-116.06-446.66-187.13-486.58,39.47" stroke="#673541"/><path d="M2202.2 405.44c-64.47 8.56-212.95 42.57-421-39.54-174.35-68.82-248-341.81-373.89-284.41-196.53 89.65-250.82 580.51-476.2 560.76a199.67 199.67 0 0 1-69.85-19.56c-238.75-115.34-445.43-188.55-485.64 39.68" stroke="#663542"/><path d="M2202.29,407.92c-63.76,8.47-211.6,40-418.88-42.77-173.35-69.22-247.47-339.92-373-283.32-197.22,88.9-251.73,579.06-476.91,559.72a199.37,199.37,0,0,1-69.83-19.44c-238.1-114.63-444.19-190-484.69,39.89" stroke="#653542"/><path d="M2202.38,410.41c-63,8.37-210.26,37.39-416.79-46-172.36-69.6-246.9-338-372.19-282.22-197.87,88.14-252.61,577.65-477.59,558.69A199.15,199.15,0,0,1,866,621.53c-237.45-113.92-443-191.4-483.74,40.1" stroke="#643542"/><path d="M2202.46,412.89c-62.32,8.28-208.9,34.81-414.69-49.25-171.36-70-246.34-336.14-371.34-281.13-198.54,87.37-253.49,576.24-478.26,557.65a199,199,0,0,1-69.8-19.2c-236.8-113.22-441.72-192.83-482.8,40.3" stroke="#633542"/><path d="M2202.55,415.37c-61.61,8.18-207.56,32.23-412.6-52.49-170.37-70.38-245.78-334.25-370.49-280-199.2,86.6-254.37,574.83-478.94,556.61a199,199,0,0,1-69.78-19.08c-236.15-112.5-440.49-194.25-481.85,40.51" stroke="#623543"/><path d="M2202.64,417.85c-60.89,8.09-206.21,29.65-410.51-55.72-169.37-70.78-245.21-332.37-369.64-278.94C1222.63,169,1167.24,656.61,942.87,638.77a198.75,198.75,0,0,1-69.76-19C637.62,508,433.85,424.13,392.21,660.51" stroke="#613643"/><path d="M2202.73,420.33c-60.18,8-204.87,27.07-408.42-59-168.38-71.16-244.65-330.49-368.79-277.84-200.53,85.05-256.13,572-480.29,554.54a198.51,198.51,0,0,1-69.75-18.85c-234.84-111.08-438-197.1-480,40.92" stroke="#603643"/><path d="M2202.82,422.82c-59.46,7.89-203.53,24.48-406.33-62.2C1629.11,289.07,1552.4,32,1428.55,83.87c-201.2,84.26-257,570.61-481,553.5a198.17,198.17,0,0,1-69.73-18.73c-234.19-110.37-436.79-198.52-479,41.13" stroke="#5f3643"/><path d="M2202.9,425.3c-58.74,7.8-202.18,21.91-404.24-65.44-166.38-71.92-243.52-326.74-367.08-275.65-201.87,83.47-257.89,569.2-481.64,552.47a198.17,198.17,0,0,1-69.72-18.62C646.68,508.4,444.66,418.12,402.16,659.4" stroke="#5e3644"/><path d="M2203,427.78c-58,7.71-200.83,19.34-402.15-68.67-165.39-72.31-243-324.87-366.23-274.56C1232.07,167.22,1175.84,652.34,952.29,636a197.68,197.68,0,0,1-69.7-18.5C649.71,508.52,448.27,416.12,405.47,659" stroke="#5d3644"/><path d="M2203.08,430.26c-57.31,7.62-199.49,16.77-400.06-71.91-164.4-72.68-242.4-323-365.38-273.46-203.22,81.86-259.65,566.38-483,550.39A197.46,197.46,0,0,1,885,616.9C652.73,508.65,451.87,414.12,408.79,658.66" stroke="#5c3644"/><path d="M2203.17,432.75c-56.59,7.51-198.15,14.19-398-75.15-163.41-73.07-241.85-321.14-364.53-272.37-203.89,81.05-260.53,565-483.67,549.36a197.41,197.41,0,0,1-69.67-18.27c-231.57-107.54-431.85-204.21-475.22,42" stroke="#5b3744"/><path d="M2203.26,435.23c-55.88,7.42-196.82,11.62-395.88-78.39C1645,283.4,1566.09,37.57,1443.7,85.57c-204.57,80.24-261.41,563.57-484.35,548.32a197.2,197.2,0,0,1-69.65-18.15C658.78,508.9,459.08,410.11,415.42,657.91" stroke="#5a3745"/><path d="M2203.35,437.71c-55.16,7.33-195.48,9.06-393.79-81.62-161.43-73.82-240.74-317.42-362.83-270.18-205.25,79.41-262.3,562.17-485,547.28a196.93,196.93,0,0,1-69.63-18C661.81,509,462.68,408.11,418.74,657.54" stroke="#593745"/><path d="M2203.43,440.19c-54.44,7.23-194.13,6.5-391.69-84.86-160.44-74.19-240.18-315.56-362-269.08C1243.83,164.83,1186.58,647,964.06,632.49a196.66,196.66,0,0,1-69.62-17.91C664.83,509.15,466.29,406.11,422.06,657.17" stroke="#583745"/><path d="M2203.52,442.67c-53.72,7.14-192.8,3.93-389.6-88.09C1654.47,280,1574.3,40.87,1452.79,86.59,1246.18,164.34,1188.73,646,966.41,631.8a196.63,196.63,0,0,1-69.6-17.8C667.86,509.28,469.89,404.11,425.37,656.8" stroke="#573745"/><path d="M2203.61,445.16c-53,7-191.46,1.37-387.51-91.34C1657.64,278.89,1577,42,1455.82,86.93c-207.29,76.9-264.94,558-487.06,544.17a196.21,196.21,0,0,1-69.58-17.68c-228.3-104-425.69-211.32-470.49,43" stroke="#563746"/><path d="M2203.7,447.64c-52.29,6.94-190.13-1.19-385.42-94.57-157.48-75.3-238.52-310-359.43-265.8-208,76.06-265.82,556.55-487.73,543.13a196,196,0,0,1-69.57-17.56C673.91,509.52,477.1,400.1,432,656.05" stroke="#553846"/><path d="M2203.79,450.12c-51.58,6.85-188.8-3.74-383.33-97.81-156.49-75.67-238-308.17-358.58-264.7-208.66,75.2-266.7,555.14-488.41,542.1a196.09,196.09,0,0,1-69.56-17.45c-227-102.61-423.21-214.16-468.59,43.42" stroke="#543846"/><path d="M2203.88 452.6c-50.87 6.76-187.46-6.3-381.24-101-155.51-76-237.41-306.34-357.73-263.61-209.35 74.3-267.58 553.7-489.09 541.01a195.83 195.83 0 0 1-69.54-17.33C680 509.77 484.31 396.1 438.64 655.31" stroke="#533846"/><path d="M2204,455.09c-50.14,6.66-186.12-8.86-379.14-104.29C1670.3,274.41,1588,46.31,1467.94,88.29c-210,73.47-268.46,552.34-489.76,540a195.64,195.64,0,0,1-69.53-17.21C683,509.89,487.91,394.1,442,654.94" stroke="#523847"/><path d="M2204.05,457.57c-49.43,6.56-184.79-11.41-377.05-107.52-153.54-76.76-236.3-302.67-356-261.42-210.73,72.59-269.34,550.93-490.44,539A195.36,195.36,0,0,1,911,610.52C686,510,491.51,392.09,445.27,654.57" stroke="#513847"/><path d="M2204.14,460.05c-48.71,6.47-183.47-13.95-375-110.76C1676.62,272.17,1593.43,48.46,1474,89c-211.42,71.71-270.22,549.53-491.11,537.95a195.17,195.17,0,0,1-69.5-17C689,510.12,495.12,390.09,448.59,654.2" stroke="#503847"/><path d="M2204.23,462.53c-48,6.38-182.14-16.5-372.87-114-151.58-77.48-235.2-299-354.33-259.23-212.11,70.82-271.1,548.13-491.79,536.91a194.93,194.93,0,0,1-69.48-16.86c-223.69-99.12-417-221.27-463.85,44.46" stroke="#4f3948"/><path d="M2204.32 465c-47.28 6.28-180.81-19-370.78-117.23-150.6-77.83-234.64-297.17-353.48-258.12-212.8 69.92-272 546.73-492.47 535.88a195.38 195.38 0 0 1-69.46-16.74c-223-98.43-415.81-222.7-462.91 44.66" stroke="#4e3948"/><path d="M2204.41,467.5c-46.57,6.18-179.49-21.59-368.69-120.47-149.62-78.2-234.09-295.36-352.63-257C1269.6,159,1210.23,635.32,990,624.83a195.14,195.14,0,0,1-69.45-16.62c-222.37-97.73-414.57-224.12-462,44.87" stroke="#4d3948"/><path d="M2204.49,470c-45.84,6.09-178.16-24.13-366.59-123.71-148.64-78.55-233.54-293.54-351.78-255.94-214.18,68.11-273.74,543.93-493.82,533.8a195,195,0,0,1-69.43-16.5c-221.71-97-413.34-225.55-461,45.08" stroke="#4c3948"/><path d="M2204.58,472.46c-45.13,6-176.84-26.66-364.5-126.94-147.66-78.9-233-291.73-350.93-254.85-214.88,67.19-274.62,542.53-494.5,532.77a194.7,194.7,0,0,1-69.41-16.39c-221-96.34-412.1-227-460.07,45.29" stroke="#4b3949"/><path d="M2204.67,474.94c-44.41,5.9-175.52-29.2-362.41-130.18C1695.57,265.51,1609.83,54.85,1492.18,91,1276.61,157.27,1216.68,632.14,997,622.74a194.52,194.52,0,0,1-69.4-16.27C707.21,510.82,516.74,378.08,468.49,652" stroke="#4a3949"/><path d="M2204.76,477.42c-43.7,5.81-174.2-31.73-360.32-133.41C1698.73,264.4,1612.56,55.9,1495.21,91.35,1279,156.67,1218.83,631.08,999.36,622A194.3,194.3,0,0,1,930,605.89c-219.74-95-409.64-229.81-458.18,45.7" stroke="#493a49"/><path d="M2204.85,479.91c-43,5.71-172.88-34.27-358.23-136.66C1701.88,263.3,1615.3,57,1498.24,91.69,1281.28,156.07,1221,630,1001.71,621.34a194.13,194.13,0,0,1-69.36-16C713.27,511.05,524,374.08,475.12,651.22" stroke="#483a49"/><path d="M2204.94,482.39c-42.27,5.61-171.57-36.8-356.14-139.89C1705,262.2,1618,58,1501.27,92c-217.65,63.43-278.14,536.93-497.2,528.62a194.14,194.14,0,0,1-69.35-15.92C716.3,511.16,527.55,372.07,478.44,650.85" stroke="#473a4a"/><path d="M2205 484.87c-41.55 5.52-170.25-39.32-354-143.13-142.82-80.64-230.23-282.69-346.7-249.37C1286 154.84 1225.28 627.9 1006.42 620a194 194 0 0 1-69.33-15.8c-217.76-92.88-405.94-234.08-455.34 46.33" stroke="#463a4a"/><path d="M2205.11,487.35c-40.83,5.43-168.93-41.85-352-146.36-141.83-81-229.66-280.9-345.84-248.28-219,61.51-279.89,534.13-498.54,526.54a193.81,193.81,0,0,1-69.32-15.68c-217.09-92.19-404.7-235.5-454.39,46.54" stroke="#453a4a"/><path d="M2205.2,489.84c-40.12,5.32-167.62-44.38-349.86-149.61-140.86-81.33-229.1-279.1-345-247.18-219.73,60.53-280.77,532.73-499.22,525.51A193.79,193.79,0,0,1,941.83,603c-216.43-91.5-403.47-236.92-453.44,46.74" stroke="#443b4a"/><path d="M2205.29,492.32c-39.4,5.23-166.32-46.9-347.77-152.84C1717.63,257.8,1629,62.16,1513.38,93.39c-220.43,59.55-281.65,531.34-499.9,524.47a193.62,193.62,0,0,1-69.28-15.45c-215.77-90.82-402.23-238.34-452.5,47" stroke="#433b4b"/><path d="M2205.38,494.8c-38.69,5.14-165-49.42-345.68-156.07-138.93-82-228-275.53-343.29-245-221.12,58.56-282.53,529.94-500.57,523.43a193.42,193.42,0,0,1-69.27-15.33C731.46,511.7,545.57,362.06,495,649" stroke="#423b4b"/><path d="M2205.47,497.28c-38,5.05-163.71-51.93-343.59-159.31-138-82.35-227.43-273.74-342.44-243.9-221.82,57.56-283.41,528.54-501.25,522.4a193.5,193.5,0,0,1-69.25-15.22c-214.45-89.44-399.77-241.19-450.6,47.37" stroke="#413b4b"/><path d="M2205.55,499.76c-37.25,4.95-162.39-54.44-341.49-162.54-137-82.7-226.87-272-341.59-242.81C1300,151,1238.18,621.56,1020.54,615.77a193.3,193.3,0,0,1-69.23-15.1c-213.79-88.76-398.53-242.61-449.66,47.58" stroke="#403b4b"/><path d="M2205.64,502.25c-36.53,4.85-161.09-57-339.4-165.79-136-83-226.31-270.18-340.74-241.71-223.21,55.54-285.17,525.75-502.6,520.32a193.16,193.16,0,0,1-69.22-15C740.55,512,556.38,356.06,505,647.88" stroke="#3f3b4c"/><path d="M2205.73 504.73c-35.82 4.76-159.8-59.47-337.31-169-135.08-83.39-225.74-268.43-339.89-240.64-223.9 54.51-286 524.36-503.28 519.29a193.19 193.19 0 0 1-69.2-14.87C743.59 512.12 560 354.06 508.29 647.5" stroke="#3e3c4c"/><path d="M2205.82,507.21c-35.1,4.66-158.5-62-335.22-172.26-134.12-83.69-225.18-266.63-339-239.52-224.59,53.48-286.93,523-504,518.25a193,193,0,0,1-69.18-14.75c-211.8-86.7-394.83-246.88-446.82,48.2" stroke="#3d3c4c"/><path d="M2205.91,509.69c-34.39,4.57-157.21-64.48-333.13-175.49-133.16-84-224.62-264.86-338.19-238.43C1309.3,148.21,1246.78,617.34,1030,613a192.86,192.86,0,0,1-69.17-14.63c-211.14-86-393.6-248.3-445.87,48.41" stroke="#3c3c4c"/><path d="M2206 512.18c-33.67 4.47-155.92-67-331-178.74-132.21-84.36-224-263.09-337.34-237.33-226 51.39-288.69 520.17-505.31 516.18a192.91 192.91 0 0 1-69.15-14.52c-210.51-85.34-392.4-249.72-444.96 48.62" stroke="#3b3c4d"/><path d="M2206.08 514.66c-32.95 4.37-154.62-69.5-328.94-182-131.26-84.66-223.49-261.3-336.49-236.21-226.67 50.33-289.57 518.78-506 515.14a192.77 192.77 0 0 1-69.13-14.4C755.72 512.53 574.4 346.05 521.55 646" stroke="#3a3c4d"/><path d="M2206.17,517.14c-32.23,4.28-153.33-72-326.85-185.21-130.3-85-222.92-259.56-335.64-235.14-227.36,49.26-290.45,517.39-506.66,514.1a192.8,192.8,0,0,1-69.12-14.27c-209.15-84-389.9-252.57-443,49" stroke="#393c4d"/><path d="M2206.26,519.62c-31.52,4.19-152.05-74.49-324.76-188.44-129.35-85.35-222.35-257.8-334.79-234-228,48.19-291.33,516-507.34,513.06A192.66,192.66,0,0,1,970.27,596c-208.48-83.31-388.66-254-442.08,49.23" stroke="#383d4e"/><path d="M2206.35,522.1c-30.81,4.1-150.77-77-322.67-191.68-128.4-85.67-221.78-256-333.94-232.95-228.74,47.1-292.21,514.6-508,512a192.56,192.56,0,0,1-69.09-14C764.82,512.83,585.21,340,531.5,644.9" stroke="#373d4e"/><path d="M2206.44,524.59c-30.09,4-149.49-79.49-320.58-194.92-127.46-86-221.21-254.29-333.09-231.86-229.42,46-293.08,513.21-508.69,511A192.39,192.39,0,0,1,975,594.88c-207.16-82-386.2-256.84-440.19,49.65" stroke="#363d4e"/><path d="M2206.52 527.07c-29.37 3.9-148.2-82-318.48-198.16-126.51-86.31-220.63-252.53-332.24-230.76-230.11 44.9-294 511.82-509.37 510a192.22 192.22 0 0 1-69.05-13.8C770.89 513 592.42 336 538.14 644.16" stroke="#353d4e"/><path d="M2206.61,529.55c-28.65,3.81-146.93-84.46-316.39-201.39-125.57-86.64-220.06-250.79-331.39-229.67C1328,142.28,1264,608.92,1048.79,607.41a192.29,192.29,0,0,1-69-13.69C773.92,513.12,596,334,541.45,643.79" stroke="#343d4f"/><path d="M2206.7,532c-27.94,3.71-145.65-86.95-314.3-204.63-124.63-87-219.48-249-330.54-228.57-231.47,42.67-295.72,509-510.72,507.88a192.17,192.17,0,0,1-69-13.57C777,513.21,599.63,332,544.77,643.42" stroke="#333d4f"/><path d="M2206.79,534.52c-27.22,3.61-144.39-89.44-312.21-207.87-123.69-87.28-218.9-247.3-329.69-227.48-232.15,41.54-296.6,507.64-511.4,506.84a192.05,192.05,0,0,1-69-13.45C780,513.3,603.23,330,548.08,643" stroke="#323e4f"/><path d="M2206.88,537c-26.51,3.52-143.12-91.93-310.12-211.11C1774,238.3,1678.44,80.34,1567.92,99.51c-232.83,40.4-297.48,506.25-512.07,505.81a192.14,192.14,0,0,1-69-13.34C783,513.4,606.83,328,551.4,642.67" stroke="#313e4f"/><path d="M2207,539.48c-25.79,3.43-141.86-94.41-308-214.34-121.8-87.92-217.73-243.82-328-225.29-233.51,39.25-298.36,504.86-512.75,504.77a192.24,192.24,0,0,1-69-13.22C786.06,513.49,610.44,326,554.72,642.3" stroke="#303e50"/><path d="M2207.05,542c-25.07,3.33-140.59-96.88-305.94-217.58C1780.24,236.15,1684,82.31,1574,100.19c-234.18,38.09-299.23,503.47-513.43,503.73a192.13,192.13,0,0,1-68.95-13.1C789.1,513.58,614,324,558,641.93" stroke="#2f3e50"/><path d="M2207.14 544.44c-24.35 3.24-139.33-99.36-303.85-220.81-119.94-88.55-216.56-240.34-326.29-223.1-234.86 36.92-300.11 502.08-514.1 502.7a192.22 192.22 0 0 1-68.94-13C792.13 513.67 617.64 322 561.35 641.56" stroke="#2e3e50"/><path d="M2207.23,546.93c-23.64,3.14-138.08-101.84-301.76-224.06-119-88.86-216-238.61-325.43-222-235.53,35.74-301,500.7-514.78,501.66a192.17,192.17,0,0,1-68.93-12.87C795.17,513.76,621.25,320,564.67,641.18" stroke="#2d3e50"/><path d="M2207.32,549.41c-22.92,3-136.82-104.32-299.67-227.29-118.08-89.18-215.38-236.88-324.58-220.91-236.19,34.56-301.87,499.31-515.46,500.62a192,192,0,0,1-68.91-12.75C798.21,513.85,624.85,318,568,640.81" stroke="#2c3f51"/><path d="M2207.41 551.89c-22.21 3-135.58-106.79-297.58-230.53C1792.68 231.87 1695 86.21 1586.1 101.55c-236.86 33.36-302.75 497.92-516.1 499.59-23 .17-46-4.11-68.9-12.64-199.86-74.57-372.64-272.5-429.8 51.94" stroke="#2b3f51"/><path d="M2207.5 554.37c-21.5 2.86-134.33-109.25-295.5-233.76-116.23-89.8-214.19-233.43-322.88-218.72-237.52 32.16-303.62 496.53-516.81 498.55-23 .22-46-4-68.88-12.52C804.28 514 632.06 314 574.62 640.07" stroke="#2a3f51"/><path d="M2207.58,556.86c-20.77,2.75-133.08-111.73-293.39-237-115.31-90.11-213.6-231.7-322-217.62-238.18,30.94-304.5,495.14-517.48,497.51-23,.26-46-4-68.87-12.4C807.32,514.1,635.66,312,577.93,639.7" stroke="#293f51"/><path d="M2207.67 559.34c-20.06 2.66-131.84-114.2-291.3-240.24-114.39-90.43-213-230-321.18-216.53-238.84 29.72-305.38 493.76-518.19 496.48-23 .29-46-3.91-68.85-12.29-197.8-72.57-368.88-276.76-426.9 52.57" stroke="#283f52"/><path d="M2207.76 561.82c-19.34 2.57-130.61-116.66-289.21-243.48-113.47-90.73-212.4-228.26-320.33-215.43-239.49 28.49-306.22 492.37-518.84 495.44-23 .33-46-3.85-68.83-12.17C813.39 514.27 642.87 308 584.57 639" stroke="#273f52"/><path d="M2207.85,564.3c-18.63,2.48-129.38-119.12-287.12-246.71-112.56-91-211.79-226.55-319.48-214.34-240.14,27.24-307.13,491-519.51,494.4-23,.37-46-3.78-68.82-12-196.5-71.25-366.45-279.59-425,53" stroke="#264052"/><path d="M2207.94 566.78c-17.91 2.38-128.15-121.58-285-249.95-111.67-91.35-211.21-224.83-318.66-213.24-240.79 26-308 489.6-520.19 493.36-23 .41-46-3.71-68.8-11.93C819.46 514.44 650.08 304 591.2 638.21" stroke="#254052"/><path d="M2208 569.27c-17.2 2.28-126.92-124-282.94-253.19-110.7-91.66-210.54-223.08-317.75-212.15-241.43 24.73-308.89 488.21-520.87 492.33-23 .44-46-3.66-68.78-11.81C822.5 514.52 653.68 302 594.52 637.84" stroke="#244053"/><path d="M2208.11,571.75c-16.47,2.19-125.69-126.51-280.84-256.43-109.82-92-210-221.41-316.93-211-242.07,23.46-309.76,486.83-521.54,491.29-23,.49-46-3.59-68.77-11.69C825.54,514.6,657.29,300,597.83,637.47" stroke="#234053"/><path d="M2208.2,574.23c-15.76,2.09-124.47-129-278.75-259.66-108.92-92.28-209.35-219.71-316.08-210-242.71,22.18-310.64,485.44-522.22,490.25-23,.53-46-3.52-68.75-11.57C828.57,514.67,660.89,298,601.15,637.1" stroke="#224053"/><path d="M2208.29 576.71c-15 2-123.26-131.41-276.66-262.9-108-92.58-208.73-218-315.23-208.86-243.34 20.89-311.52 484.05-522.9 489.22-23 .56-46-3.47-68.73-11.46-193.16-68-360.28-286.71-420.3 54" stroke="#214054"/><path d="M2208.38,579.2c-14.33,1.9-122.05-133.88-274.57-266.14-107.11-92.89-208.11-216.3-314.38-207.77C1375.46,124.88,1307,588,1095.86,593.47c-23,.6-46-3.4-68.72-11.34-192.49-67.3-359-288.13-419.36,54.22" stroke="#204154"/><path d="M2208.47,581.68c-13.61,1.81-120.84-136.33-272.48-269.38-106.21-93.19-207.48-214.59-313.53-206.67-244.6,18.29-313.27,481.29-524.25,487.14-23,.64-46-3.33-68.7-11.22C837.68,514.9,671.7,292,611.1,636" stroke="#1f4154"/><path d="M2208.56,584.16c-12.9,1.71-119.64-138.78-270.39-272.61-105.31-93.5-206.86-212.9-312.68-205.58-245.22,17-314.15,479.91-524.93,486.11-23,.67-46-3.28-68.68-11.11C840.72,515,675.3,290,614.42,635.61" stroke="#1e4154"/><path d="M2208.64,586.64c-12.17,1.62-118.43-141.22-268.29-275.85C1835.93,217,1734.12,99.6,1628.52,106.31c-245.84,15.64-315,478.52-525.6,485.07-23,.72-46-3.21-68.67-11C843.76,515.05,678.91,288,617.73,635.24" stroke="#1d4155"/><path d="M2208.73,589.12c-11.46,1.53-117.24-143.67-266.2-279.08-103.53-94.11-205.6-209.5-311-203.39-246.45,14.31-315.9,477.14-526.28,484-23,.76-46-3.15-68.65-10.87C846.8,515.12,682.51,286,621.05,634.87" stroke="#1c4155"/><path d="M2208.82,591.61c-10.75,1.42-116.05-146.13-264.11-282.33-102.64-94.41-205-207.8-310.13-202.29-247.06,13-316.78,475.76-526.95,483-23,.79-46-3.09-68.64-10.76-189.16-64-352.87-295.24-414.63,55.26" stroke="#1b4155"/><path d="M2208.91,594.09c-10,1.33-114.86-148.57-262-285.56-101.75-94.72-204.32-206.12-309.28-201.2C1390,118.94,1320,581.71,1110,589.29c-23,.83-46-3-68.62-10.64C852.87,515.26,689.72,282,627.68,634.12" stroke="#1a4255"/><path d="M2209,596.57c-9.32,1.24-113.68-151-259.93-288.8-100.87-95-203.68-204.42-308.43-200.1-248.26,10.25-318.53,473-528.31,480.92-23,.87-46-3-68.6-10.52C855.91,515.33,693.32,280,631,633.75" stroke="#194256"/><path d="M2209.09,599.05c-8.6,1.14-112.5-153.45-257.84-292-100-95.33-203-202.73-307.58-199-248.85,8.88-319.4,471.61-529,479.89-23,.9-46-2.91-68.59-10.41C859,515.4,696.93,278,634.31,633.38" stroke="#184256"/><path d="M2209.17,601.53c-7.88,1.05-111.31-155.89-255.74-295.27-99.1-95.63-202.38-201-306.73-197.91-249.44,7.5-320.28,470.23-529.66,478.85-23,.95-46-2.84-68.57-10.29C862,515.47,700.53,276,637.63,633" stroke="#174256"/><path d="M2209.26,604c-7.16,1-110.14-158.34-253.65-298.51-98.23-95.94-201.73-199.36-305.88-196.82C1399.7,114.8,1328.6,578,1119.39,586.5c-23,1-46-2.78-68.55-10.17C865,515.54,704.13,274,641,632.64" stroke="#164256"/><path d="M2209.35,606.5c-6.45.86-109-160.78-251.56-301.75-97.35-96.24-201.08-197.67-305-195.72-250.61,4.72-322,467.85-531,476.77-23,1.07-46-2.71-68.54-10C868.06,515.6,707.74,272,644.26,632.26" stroke="#154257"/><path d="M2209.44,609c-5.73.76-107.81-163.22-249.47-305-96.48-96.55-200.42-196-304.18-194.63-251.18,3.31-322.89,466.43-531.69,475.74-23,1.1-46-2.66-68.52-9.94-184.48-59.51-344.24-305.2-408,56.72" stroke="#144357"/><path d="M2209.53,611.46c-5,.67-106.66-165.66-247.38-308.22-95.61-96.85-199.76-194.3-303.33-193.53-251.75,1.9-323.76,465-532.37,474.7-23,1.14-46-2.59-68.5-9.82C874.13,515.73,715,268,650.9,631.52" stroke="#134357"/><path d="M2209.61,614c-4.29.57-105.49-168.11-245.28-311.46-94.75-97.16-199.09-192.63-302.48-192.44-252.31.48-324.64,463.59-533,473.66-23.06,1.18-46-2.53-68.49-9.7-183.15-58.22-341.77-308-406.11,57.14" stroke="#124357"/><path d="M2209.7,616.43c-3.58.47-104.34-170.54-243.19-314.7-93.88-97.46-198.42-190.94-301.64-191.34-252.86-1-325.5,462.17-533.71,472.63-23.06,1.2-45.94-2.48-68.47-9.59C880.21,515.85,722.15,264,657.53,630.78" stroke="#114358"/><path d="M2209.79,618.91c-2.86.38-103.2-173-241.1-317.93-93-97.77-197.75-189.27-300.79-190.25-253.41-2.39-326.38,460.75-534.39,471.59-23.06,1.24-45.92-2.46-68.45-9.47C883.35,515.57,725.76,262,660.85,630.4" stroke="#104358"/><path d="M2209.88,621.39c-2.15.29-102.06-175.41-239-321.17-92.16-98.07-197.07-187.59-299.94-189.15-254-3.84-327.26,459.33-535.06,470.55-23.08,1.28-45.93-2.38-68.44-9.34C886.36,515.71,729.36,260,664.16,630" stroke="#0f4358"/><path d="M2210,623.87c-1.43.19-100.92-177.85-236.92-324.4-91.3-98.39-196.39-185.92-299.09-188.06-254.5-5.29-328.13,457.91-535.74,469.52-23.08,1.31-45.93-2.32-68.42-9.23C889.37,515.85,733,258,667.48,629.66" stroke="#0e4458"/><path d="M2210.06,626.36c-.72.09-100-180.12-234.83-327.65-90.57-98.58-195.7-184.24-298.24-187-255-6.75-329,456.49-536.41,468.48-23.09,1.34-45.93-2.25-68.41-9.11C892.38,516,736.57,256,670.8,629.29" stroke="#0d4459"/><path d="M2210.14 628.84S1935.59 120.32 1680 112.09s-329.88 455.07-537.09 467.44-394.45-372.59-468.8 49.39" stroke="#0c4459"/></svg>