<svg xmlns="http://www.w3.org/2000/svg" xmlns:xlink="http://www.w3.org/1999/xlink" viewBox="0 0 426.87 433.49" xmlns:v="https://vecta.io/nano"><style><![CDATA[.B{isolation:isolate}.Am{fill:none}.An{stroke:red}.Ao{stroke-miterlimit:10}.Ap{stroke-width:.25}]]></style><defs><clipPath id="A"><path d="M62.29 42.99l-11.65 126.4 75.37-6.59-2.55 27.7-106.92 9.36 14.2-154.11 31.55-2.76z" class="Am An Ao"/></clipPath><clipPath id="B"><path d="M46.92 28.86L35.27 155.27l75.37-6.59-2.55 27.7-106.92 9.35 14.2-154.11 31.55-2.76z" class="Am An Ao"/></clipPath><clipPath id="C"><path d="M46.92 28.86l15.37 14.13-11.65 126.4-15.37-14.12L46.92 28.86z" class="Am An Ao"/></clipPath><clipPath id="D"><path d="M35.27 155.27l75.37-6.59 15.37 14.12-75.37 6.59-15.37-14.12z" class="Am An Ao"/></clipPath><clipPath id="E"><path d="M110.64 148.68l15.37 14.12-2.55 27.7-15.37-14.12 2.55-27.7z" class="Am An Ao"/></clipPath><clipPath id="F"><path d="M108.09 176.38l15.37 14.12-106.92 9.36-15.37-14.13 106.92-9.35z" class="Am An Ao"/></clipPath><clipPath id="G"><path d="M1.17 185.73l14.2-154.11 15.37 14.13-14.2 154.11-15.37-14.13z" class="Am An Ao"/></clipPath><clipPath id="H"><path d="M15.37 31.62l31.55-2.76 15.37 14.13-31.55 2.76-15.37-14.13z" class="Am An Ao"/></clipPath><clipPath id="I"><path d="M237.71 27.64l39.21 149.44-34.21 3-7-30.81-55.59 4.87-13.18 32.56-33 2.89L202 30.76zm-46.6 99.18l38.66-3.39-13.48-59-25.18 62.36" class="Am An Ao"/></clipPath><clipPath id="J"><path d="M222.34 13.51L261.55 163l-34.2 3-7-30.81-55.63 4.81-13.15 32.58-33 2.88 68.09-158.82zm-46.6 99.18l38.67-3.38-13.49-59-25.18 62.35" class="Am An Ao"/></clipPath><clipPath id="K"><path d="M222.34 13.51l15.37 14.13 39.21 149.44-15.37-14.13-39.21-149.44z" class="Am An Ao"/></clipPath><clipPath id="L"><path d="M261.55 162.95l15.37 14.13-34.2 2.99-15.37-14.12 34.2-3z" class="Am An Ao"/></clipPath><clipPath id="M"><path d="M227.35 165.95l-7.04-30.81 15.37 14.12 7.04 30.81-15.37-14.12z" class="Am An Ao"/></clipPath><clipPath id="N"><path d="M220.31 135.14l15.37 14.12-55.59 4.87L164.72 140l55.59-4.86z" class="Am An Ao"/></clipPath><clipPath id="O"><path d="M164.72 140l15.37 14.13-13.15 32.57-15.37-14.13L164.72 140z" class="Am An Ao"/></clipPath><clipPath id="P"><path d="M151.57 172.57l15.37 14.13-33 2.89-15.37-14.13 33-2.89z" class="Am An Ao"/></clipPath><clipPath id="Q"><path d="M118.57 175.46l68.09-158.82 15.37 14.12-68.09 158.83-15.37-14.13z" class="Am An Ao"/></clipPath><clipPath id="R"><path d="M186.66 16.64l35.68-3.13 15.37 14.13-35.68 3.12-15.37-14.12z" class="Am An Ao"/></clipPath><clipPath id="S"><path d="M175.74 112.69l38.67-3.38 15.36 14.13-38.66 3.38-15.37-14.13z" class="Am An Ao"/></clipPath><clipPath id="T"><path d="M214.41 109.31l-13.49-58.97 15.37 14.12 13.48 58.98-15.36-14.13z" class="Am An Ao"/></clipPath><clipPath id="U"><path d="M200.92 50.34l15.37 14.12-25.18 62.36-15.37-14.13 25.18-62.35z" class="Am An Ao"/></clipPath><clipPath id="V"><path d="M420.93,95.93q5,8.79,3.8,22.06a53.09,53.09,0,0,1-9,25.16,55.15,55.15,0,0,1-11.81,13.07,50.7,50.7,0,0,1-17.77,9.23,109.7,109.7,0,0,1-21.52,4l-68,5.95,14.2-154.11,72.95-6.38q27.57-2,37.61,13,6,9.23,4.76,22.92-1.31,14.11-9.08,23.3a46.59,46.59,0,0,1-12.32,9.79Q415.91,87.13,420.93,95.93ZM381.39,138.7q10.39-5.89,11.7-20.11,1.11-12-8.1-15.69c-3.42-1.35-8.38-1.78-14.84-1.29L333,104.86,329.21,146l36.65-3.21q9.81-.86,15.53-4M338.47,45.37l-3.13,34L372,76.15q9.83-.87,16.32-5.22t7.37-14.07q1-10.77-6.79-13.51-6.78-1.8-17.62-.85l-32.84,2.87" class="Am An Ao"/></clipPath><clipPath id="W"><path d="M405.57,81.8q5,8.81,3.79,22.07a53,53,0,0,1-9,25.16,54.89,54.89,0,0,1-11.81,13.06,50.58,50.58,0,0,1-17.76,9.23,109.79,109.79,0,0,1-21.53,4l-68,5.95L295.46,7.12l73-6.39q27.57-2,37.62,13,6,9.21,4.75,22.92-1.29,14.1-9.07,23.3a46.85,46.85,0,0,1-12.33,9.79Q400.54,73,405.57,81.8ZM366,124.57q10.38-5.89,11.69-20.1,1.11-12-8.1-15.69c-3.42-1.35-8.37-1.79-14.84-1.29l-37.16,3.25-3.78,41.09,36.65-3.21q9.81-.85,15.54-4.05M323.11,31.25l-3.14,34L356.66,62q9.82-.85,16.32-5.21t7.38-14.08q1-10.75-6.8-13.51-6.76-1.78-17.61-.84l-32.84,2.87" class="Am An Ao"/></clipPath><clipPath id="X"><path d="M405.57 81.8l15.36 14.13q5 8.79 3.8 22.06a53.09 53.09 0 0 1-9 25.16L400.38 129a53 53 0 0 0 9-25.16q1.21-13.24-3.81-22.04z" class="Am An Ao"/></clipPath><clipPath id="Y"><path d="M400.38,129l15.37,14.12a55.15,55.15,0,0,1-11.81,13.07,50.7,50.7,0,0,1-17.77,9.23,109.7,109.7,0,0,1-21.52,4l-15.37-14.12a109.79,109.79,0,0,0,21.53-4,50.58,50.58,0,0,0,17.76-9.23A54.89,54.89,0,0,0,400.38,129Z" class="Am An Ao"/></clipPath><clipPath id="Z"><path d="M349.28 155.28l15.37 14.12-68.02 5.95-15.37-14.12 68.02-5.95z" class="Am An Ao"/></clipPath><clipPath id="a"><path d="M281.26 161.23l14.2-154.11 15.37 14.12-14.2 154.11-15.37-14.12z" class="Am An Ao"/></clipPath><clipPath id="b"><path d="M295.46 7.12L368.41.73l15.37 14.13-72.95 6.38-15.37-14.12z" class="Am An Ao"/></clipPath><clipPath id="c"><path d="M402,9l15.37,14.12a26.21,26.21,0,0,1,4,4.7q6,9.23,4.76,22.92-1.31,14.11-9.08,23.3a46.59,46.59,0,0,1-12.32,9.79L389.38,69.74A46.85,46.85,0,0,0,401.71,60q7.77-9.2,9.07-23.3Q412,23,406,13.73A26,26,0,0,0,402,9Z" class="Am An Ao"/></clipPath><clipPath id="d"><path d="M417.37,23.15q-10.81-9.93-33.59-8.29L368.41.73Q391.18-.9,402,9Z" class="Am An Ao"/></clipPath><clipPath id="e"><path d="M401,76l15.37,14.12a24,24,0,0,1,4.61,5.81L405.57,81.8A23.9,23.9,0,0,0,401,76Z" class="Am An Ao"/></clipPath><clipPath id="f"><path d="M416.32,90.12a28.78,28.78,0,0,0-11.57-6.26L389.38,69.74A28.59,28.59,0,0,1,401,76Z" class="Am An Ao"/></clipPath><clipPath id="g"><path d="M373.83 91.35l15.36 14.13a13.54 13.54 0 0 0-4.2-2.58c-3.42-1.35-8.38-1.78-14.84-1.29l-15.37-14.12c6.47-.5 11.42-.06 14.84 1.29a13.69 13.69 0 0 1 4.21 2.57z" class="Am An Ao"/></clipPath><clipPath id="h"><path d="M389.19,105.48q4.71,4.32,3.9,13.11-1.32,14.21-11.7,20.11L366,124.57q10.38-5.89,11.69-20.1.81-8.79-3.89-13.12Z" class="Am An Ao"/></clipPath><clipPath id="i"><path d="M354.78 87.49l15.37 14.12-37.16 3.25-15.37-14.12 37.16-3.25z" class="Am An Ao"/></clipPath><clipPath id="j"><path d="M317.62 90.74l15.37 14.12-3.79 41.09-15.36-14.12 3.78-41.09z" class="Am An Ao"/></clipPath><clipPath id="k"><path d="M313.84 131.83l36.65-3.21 15.37 14.12-36.66 3.21-15.36-14.12z" class="Am An Ao"/></clipPath><clipPath id="l"><path d="M350.49,128.62q9.81-.85,15.54-4.05l15.36,14.13q-5.72,3.2-15.53,4Z" class="Am An Ao"/></clipPath><clipPath id="m"><path d="M323.11 31.25l15.36 14.13-3.13 33.98-15.37-14.13 3.14-33.98z" class="Am An Ao"/></clipPath><clipPath id="n"><path d="M319.97 65.23l36.69-3.21 15.37 14.13-36.69 3.21-15.37-14.13z" class="Am An Ao"/></clipPath><clipPath id="o"><path d="M377.17 31.33l15.37 14.12a10.44 10.44 0 0 0-3.61-2.1l-15.37-14.13a10.13 10.13 0 0 1 3.61 2.11z" class="Am An Ao"/></clipPath><clipPath id="p"><path d="M392.54,45.45q3.9,3.59,3.18,11.41-.89,9.7-7.37,14.07T372,76.15L356.66,62q9.82-.85,16.32-5.21t7.38-14.08q.72-7.81-3.19-11.4Z" class="Am An Ao"/></clipPath><clipPath id="q"><path d="M373.56 29.22l15.37 14.13q-6.78-1.8-17.62-.85L356 28.38q10.78-.96 17.56.84z" class="Am An Ao"/></clipPath><clipPath id="r"><path d="M355.95 28.38l15.36 14.12-32.84 2.88-15.36-14.13 32.84-2.87z" class="Am An Ao"/></clipPath><clipPath id="s"><path d="M146,278.6q6.61,19.69,3.54,53.09-3,32.38-13.12,54.79Q117,429.11,75.51,432.74,55.71,434.48,41,424t-14.9-33.1l34.49-3q.48,7.78,5.38,12.24t13.75,3.69q17.12-1.5,25.82-21.33,4.74-10.92,7.58-31.33a48.78,48.78,0,0,1-10.93,10.12Q92,368,77.75,369.24q-21,1.85-35.94-11.45t-12.37-41q2.65-28.71,20.63-47.94a66.43,66.43,0,0,1,44.09-21.51Q134.35,243.81,146,278.6Zm-44.2,56Q114.25,326,116,307.12q1.4-15.15-4.77-23.41t-18.31-7.2a27.82,27.82,0,0,0-15.64,6.38q-10.69,8.76-12.43,27.61Q63.37,326.4,69,333.78T87.91,340a28.12,28.12,0,0,0,13.86-5.37" class="Am An Ao"/></clipPath><clipPath id="t"><path d="M130.6,264.47q6.61,19.69,3.55,53.09-3,32.4-13.13,54.8Q101.69,415,60.14,418.62q-19.8,1.74-34.49-8.77t-14.9-33.11l34.49-3c.32,5.19,2.12,9.26,5.38,12.24s7.84,4.2,13.76,3.68q17.12-1.5,25.81-21.32,4.74-10.92,7.59-31.34a48.86,48.86,0,0,1-10.94,10.13q-10.26,6.76-24.46,8-21,1.83-35.94-11.46t-12.36-41q2.64-28.71,20.62-47.94A66.38,66.38,0,0,1,78.79,233.2Q119,229.68,130.6,264.47Zm-44.2,56q12.5-8.65,14.23-27.51,1.4-15.15-4.78-23.41t-18.3-7.2a27.75,27.75,0,0,0-15.65,6.38q-10.68,8.76-12.43,27.6-1.45,15.9,4.19,23.28t18.88,6.23a28,28,0,0,0,13.86-5.37" class="Am An Ao"/></clipPath><clipPath id="u"><path d="M22.38,407.2q-11.44-10.53-11.63-30.46l15.37,14.13q.16,19.92,11.63,30.45Z" class="Am An Ao"/></clipPath><clipPath id="v"><path d="M37.75 421.32L22.38 407.2a35.32 35.32 0 0 0 3.27 2.65q14.68 10.5 34.49 8.77Q101.68 415 121 372.36q10.14-22.39 13.13-54.8 3.07-33.37-3.55-53.09L146 278.6q6.61 19.69 3.54 53.09-3 32.38-13.12 54.79-19.42 42.63-60.91 46.26Q55.71 434.48 41 424a34 34 0 0 1-3.25-2.68z" class="Am An Ao"/></clipPath><clipPath id="w"><path d="M10.75 376.74l34.49-3.01 15.36 14.12-34.48 3.02-15.37-14.13z" class="Am An Ao"/></clipPath><clipPath id="x"><path d="M45.24 373.73l15.37 14.12q.48 7.78 5.38 12.24L50.62 386c-3.26-3-5.06-7.08-5.38-12.27z" class="Am An Ao"/></clipPath><clipPath id="y"><path d="M50.62,386q4.89,4.45,13.76,3.68,17.12-1.5,25.81-21.32,4.74-10.92,7.59-31.34l15.36,14.13q-2.83,20.42-7.58,31.33-8.7,19.83-25.82,21.33-8.86.77-13.75-3.69Z" class="Am An Ao"/></clipPath><clipPath id="z"><path d="M26,343.3q-14.47-13.31-12-40.65,2.64-28.71,20.62-47.94A66.38,66.38,0,0,1,78.79,233.2Q104,231,117.94,243.83L133.31,258q-14-12.84-39.15-10.64a66.43,66.43,0,0,0-44.09,21.51q-18,19.25-20.63,47.94-2.52,27.35,12,40.66Z" class="Am An Ao"/></clipPath><clipPath id="AA"><path d="M41.41 357.43L26 343.3q15.37 13.7 36.38 11.82 14.2-1.25 24.46-8A48.86 48.86 0 0 0 97.78 337l15.36 14.13a48.78 48.78 0 0 1-10.93 10.12Q92 368 77.75 369.24q-21 1.85-35.94-11.45z" class="Am An Ao"/></clipPath><clipPath id="AB"><path d="M117.94 243.83L133.31 258q8.33 7.65 12.66 20.64l-15.37-14.17q-4.34-12.99-12.66-20.64z" class="Am An Ao"/></clipPath><clipPath id="AC"><path d="M93.51 267l15.37 14.13q-6-5.48-16-4.6a27.82 27.82 0 0 0-15.64 6.38q-10.69 8.76-12.43 27.61-1.44 15.88 4.19 23.26a13.91 13.91 0 0 0 1.75 1.92l-15.34-14.12a15.32 15.32 0 0 1-1.75-1.93q-5.65-7.38-4.19-23.28 1.74-18.84 12.43-27.6a27.75 27.75 0 0 1 15.65-6.38q10.01-.88 15.96 4.61z" class="Am An Ao"/></clipPath><clipPath id="AD"><path d="M108.88 281.11a18.89 18.89 0 0 1 2.34 2.6q6.18 8.29 4.78 23.41-1.74 18.84-14.22 27.52L86.4 320.51q12.5-8.65 14.23-27.51 1.4-15.15-4.78-23.41a19 19 0 0 0-2.34-2.59z" class="Am An Ao"/></clipPath><clipPath id="AE"><path d="M55.41,321.58q5.78,5.3,17.13,4.3a28,28,0,0,0,13.86-5.37l15.37,14.13A28.12,28.12,0,0,1,87.91,340q-11.37,1-17.13-4.31Z" class="Am An Ao"/></clipPath><clipPath id="AF"><path d="M279.17,333.66q5.47,11.61,4.08,26.65-2.08,22.54-20,39.81T215.76,420q-29.53,2.59-43.28-11.92t-11.66-37A63.94,63.94,0,0,1,170,343.21a55.33,55.33,0,0,1,21.31-20.07q-12-7.5-14.92-17.21a48.26,48.26,0,0,1-2.11-18.45Q176.1,268,191.84,253T234,235.7q26.42-2.32,39.63,10.16t11.43,31.93a59.66,59.66,0,0,1-5.56,19.12q-4.74,10.38-18.18,18.88Q273.71,322,279.17,333.66Zm-40,48.47q7.41-7.86,8.62-21,1.26-13.68-4.95-20.16t-17.87-5.47a29.44,29.44,0,0,0-19.17,8.71q-7.52,7.68-8.78,21.36-1.22,13.17,4.85,19.85t18,5.64q11.91-1,19.32-8.9M214.53,271.44q-6.47,6.48-7.43,17.08-.9,9.74,4.44,15.38t15.81,4.72q10.6-.92,17-7.59a26.6,26.6,0,0,0,7.25-16.4q1-10.59-4.25-16.06T231.46,264q-10.47.93-16.93,7.42" class="Am An Ao"/></clipPath><clipPath id="AG"><path d="M263.8,319.54q5.47,11.61,4.08,26.65-2.08,22.53-20,39.81T200.4,405.86q-29.55,2.58-43.28-11.92t-11.66-37a63.64,63.64,0,0,1,9.21-27.81A55.23,55.23,0,0,1,176,309q-12-7.5-14.92-17.21a48.28,48.28,0,0,1-2.11-18.45q1.8-19.47,17.54-34.47t42.16-17.32q26.42-2.31,39.64,10.17t11.42,31.93a59.47,59.47,0,0,1-5.56,19.12Q259.4,293.15,246,301.67A37.74,37.74,0,0,1,263.8,319.54Zm-40,48.47q7.41-7.86,8.62-21,1.26-13.67-4.95-20.16t-17.87-5.47a29.46,29.46,0,0,0-19.17,8.71q-7.52,7.68-8.78,21.36-1.22,13.17,4.86,19.86t18,5.64q11.91-1.05,19.32-8.9m-24.6-110.7q-6.46,6.49-7.44,17.08-.9,9.75,4.45,15.38T212,294.5q10.59-.93,16.95-7.59a26.67,26.67,0,0,0,7.24-16.41q1-10.59-4.25-16.05t-15.84-4.55q-10.47.91-16.92,7.41" class="Am An Ao"/></clipPath><clipPath id="AH"><path d="M158.8 395.6l-1.68-1.66q-13.76-14.49-11.66-37a63.64 63.64 0 0 1 9.21-27.81A55.23 55.23 0 0 1 176 309l15.37 14.12A55.33 55.33 0 0 0 170 343.21a63.94 63.94 0 0 0-9.18 27.79q-2.07 22.55 11.66 37l1.69 1.66z" class="Am An Ao"/></clipPath><clipPath id="AI"><path d="M174.17,409.72,158.8,395.6q13.81,12.69,41.6,10.26Q230,403.27,247.87,386t20-39.81q1.38-15-4.08-26.65l15.37,14.12q5.47,11.61,4.08,26.65-2.08,22.54-20,39.81T215.76,420Q188,422.41,174.17,409.72Z" class="Am An Ao"/></clipPath><clipPath id="AJ"><path d="M169,303.75a26.77,26.77,0,0,1-7.9-11.94,48.28,48.28,0,0,1-2.11-18.45q1.8-19.47,17.54-34.47t42.16-17.32q26.1-2.28,39.31,9.87l15.37,14.12Q260.11,233.41,234,235.7,207.6,238,191.84,253t-17.53,34.46a48.26,48.26,0,0,0,2.11,18.45,26.63,26.63,0,0,0,7.9,11.94Z" class="Am An Ao"/></clipPath><clipPath id="AK"><path d="M184.32 317.87L169 303.75a47.93 47.93 0 0 0 7 5.27l15.37 14.12a47.23 47.23 0 0 1-7.05-5.27z" class="Am An Ao"/></clipPath><clipPath id="AL"><path d="M258 231.44l15.69 14.42q13.23 12.46 11.43 31.93a59.66 59.66 0 0 1-5.56 19.12q-4.74 10.38-18.18 18.88L246 301.67q13.41-8.51 18.17-18.88a59.47 59.47 0 0 0 5.56-19.12q1.8-19.47-11.42-31.93z" class="Am An Ao"/></clipPath><clipPath id="AM"><path d="M255.46 308.16l15.37 14.12a36.3 36.3 0 0 1 8.34 11.38l-15.37-14.12a36.18 36.18 0 0 0-8.34-11.38z" class="Am An Ao"/></clipPath><clipPath id="AN"><path d="M270.83,322.28a41.89,41.89,0,0,0-9.5-6.49L246,301.67a41.72,41.72,0,0,1,9.49,6.49Z" class="Am An Ao"/></clipPath><clipPath id="AO"><path d="M226.65 326L242 340.16q-6.14-5.64-17.08-4.69a29.44 29.44 0 0 0-19.17 8.71q-7.52 7.68-8.78 21.36-1.22 13.17 4.85 19.85c.34.38.7.73 1.06 1.07l-15.36-14.13c-.37-.33-.72-.69-1.06-1.06q-6.07-6.67-4.86-19.86 1.26-13.67 8.78-21.36a29.46 29.46 0 0 1 19.17-8.71q10.97-.94 17.1 4.66z" class="Am An Ao"/></clipPath><clipPath id="AP"><path d="M242 340.16l.79.78q6.21 6.48 4.95 20.16-1.22 13.17-8.62 21L223.77 368q7.41-7.86 8.62-21 1.26-13.67-4.95-20.16c-.25-.27-.52-.52-.79-.77z" class="Am An Ao"/></clipPath><clipPath id="AQ"><path d="M187.54,372.33q6,5.54,16.91,4.58,11.91-1.05,19.32-8.9l15.37,14.12q-7.42,7.86-19.32,8.9-10.9,1-16.92-4.57Z" class="Am An Ao"/></clipPath><clipPath id="AR"><path d="M196.9 290.48q5.29 4.88 15.09 4 10.59-.93 16.95-7.59a26.67 26.67 0 0 0 7.24-16.41q1-10.59-4.25-16.05l-.64-.63 15.37 14.2.64.62q5.22 5.48 4.25 16.06A26.6 26.6 0 0 1 244.3 301q-6.35 6.68-17 7.59-9.79.87-15.08-4z" class="Am An Ao"/></clipPath><clipPath id="AS"><path d="M212.27 304.61l-15.37-14.13a9.63 9.63 0 0 1-.72-.71q-5.35-5.64-4.45-15.38 1-10.59 7.44-17.08l15.36 14.13q-6.47 6.48-7.43 17.08-.9 9.74 4.44 15.38l.73.71z" class="Am An Ao"/></clipPath><clipPath id="AT"><path d="M231.29 253.82L246.66 268q-5.22-4.8-15.2-3.93-10.47.93-16.93 7.42l-15.36-14.13q6.45-6.5 16.92-7.41 9.98-.95 15.2 3.87z" class="Am An Ao"/></clipPath><clipPath id="AU"><path d="M425.61,222.11l-2.74,29.81-71.93,6.3-9.89,39.6a90.54,90.54,0,0,1,13.14-8.12,57.75,57.75,0,0,1,18.57-4.43q21.84-1.9,36.71,11.58t12.26,41.93q-2.28,24.77-19.72,45.6t-48.64,23.56q-25.11,2.21-40-10.06T299,360.64l34.49-3q1,11.28,6.25,17t16.39,4.74a27.73,27.73,0,0,0,20.41-10.89q7.57-9.76,8.86-23.69,1.26-13.66-4.17-22.55t-18.76-7.7a36.54,36.54,0,0,0-11.06,2.56,28.05,28.05,0,0,0-13.24,12l-30.9,1.24,21.45-99.76Z" class="Am An Ao"/></clipPath><clipPath id="AV"><path d="M410.25,208,407.5,237.8l-71.92,6.29-9.9,39.61a90.18,90.18,0,0,1,13.14-8.12,57.82,57.82,0,0,1,18.57-4.43q21.84-1.92,36.72,11.57t12.25,41.94q-2.28,24.76-19.72,45.6T338,393.82Q312.9,396,298,383.76t-14.37-37.24l34.48-3q1,11.28,6.26,17t16.38,4.74q12.86-1.12,20.42-10.89T370,330.65q1.26-13.68-4.18-22.55t-18.76-7.7A36.19,36.19,0,0,0,336.05,303a28.13,28.13,0,0,0-13.25,12l-30.89,1.24,21.45-99.76Z" class="Am An Ao"/></clipPath><clipPath id="AW"><path d="M410.25 207.99l15.36 14.12-2.74 29.81-15.37-14.12 2.75-29.81z" class="Am An Ao"/></clipPath><clipPath id="AX"><path d="M407.5 237.8l15.37 14.12-71.93 6.3-15.36-14.13 71.92-6.29z" class="Am An Ao"/></clipPath><clipPath id="AY"><path d="M335.58 244.09l15.36 14.13-9.89 39.6-15.37-14.12 9.9-39.61z" class="Am An Ao"/></clipPath><clipPath id="AZ"><path d="M296.51,382.44q-13.35-12.26-12.87-35.92L299,360.64q-.47,23.67,12.87,35.93Z" class="Am An Ao"/></clipPath><clipPath id="Aa"><path d="M311.87 396.57l-15.36-14.13q.74.68 1.5 1.32Q312.9 396 338 393.82q31.19-2.73 48.63-23.56 17.44-20.83 19.72-45.6 2.63-28.46-12.25-41.94l15.36 14.13q14.88 13.47 12.26 41.93-2.28 24.77-19.72 45.6-17.44 20.83-48.64 23.56-25.11 2.21-40-10.06l-1.49-1.31z" class="Am An Ao"/></clipPath><clipPath id="Ab"><path d="M325.68,283.7a90.18,90.18,0,0,1,13.14-8.12,57.82,57.82,0,0,1,18.57-4.43q21.84-1.92,36.72,11.57l15.36,14.13q-14.87-13.49-36.71-11.58a57.75,57.75,0,0,0-18.57,4.43,90.54,90.54,0,0,0-13.14,8.12Z" class="Am An Ao"/></clipPath><clipPath id="Ac"><path d="M283.63 346.52l34.49-3.02 15.37 14.12-34.49 3.02-15.37-14.12z" class="Am An Ao"/></clipPath><clipPath id="Ad"><path d="M325.18,361.29q5.26,4.84,15.58,3.94,12.86-1.12,20.42-10.89T370,330.65q1.26-13.68-4.18-22.55a16.07,16.07,0,0,0-2.83-3.47l15.37,14.13a16.06,16.06,0,0,1,2.83,3.46q5.41,8.88,4.17,22.55-1.27,13.92-8.86,23.69a27.73,27.73,0,0,1-20.41,10.89q-10.32.91-15.58-3.93Z" class="Am An Ao"/></clipPath><clipPath id="Ae"><path d="M340.55 375.42l-15.37-14.13a10.06 10.06 0 0 1-.8-.8q-5.25-5.7-6.26-17l15.37 14.12q1 11.28 6.25 17 .39.39.81.81z" class="Am An Ao"/></clipPath><clipPath id="Af"><path d="M363 304.63l15.37 14.13q-5.59-5.14-15.93-4.24a36.54 36.54 0 0 0-11.06 2.56 28.05 28.05 0 0 0-13.24 12L322.8 315a28.13 28.13 0 0 1 13.25-12 36.19 36.19 0 0 1 11.05-2.55q10.34-.96 15.9 4.18z" class="Am An Ao"/></clipPath><clipPath id="Ag"><path d="M322.8 314.98l15.37 14.13-30.9 1.24-15.37-14.13 30.9-1.24z" class="Am An Ao"/></clipPath><clipPath id="Ah"><path d="M291.9 316.22l21.46-99.75 15.36 14.12-21.45 99.76-15.37-14.13z" class="Am An Ao"/></clipPath><clipPath id="Ai"><path d="M313.36 216.47l96.89-8.48 15.36 14.12-96.89 8.48-15.36-14.12z" class="Am An Ao"/></clipPath><path id="Aj" d="M62.29 42.99l-11.65 126.4 75.37-6.59-2.55 27.7-106.92 9.36 14.2-154.11 31.55-2.76z"/><path id="Ak" d="M46.92 28.86L35.27 155.27l75.37-6.59-2.55 27.7-106.92 9.35 14.2-154.11 31.55-2.76z"/><path id="Al" d="M237.71 27.64l39.21 149.44-34.21 3-7-30.81-55.59 4.87-13.18 32.56-33 2.89L202 30.76zm-46.6 99.18l38.66-3.39-13.48-59-25.18 62.36"/><path id="Am" d="M222.34 13.51L261.55 163l-34.2 3-7-30.81-55.63 4.81-13.15 32.58-33 2.88 68.09-158.82zm-46.6 99.18l38.67-3.38-13.49-59-25.18 62.35"/><path id="An" d="M420.93,95.93q5,8.79,3.8,22.06a53.09,53.09,0,0,1-9,25.16,55.15,55.15,0,0,1-11.81,13.07,50.7,50.7,0,0,1-17.77,9.23,109.7,109.7,0,0,1-21.52,4l-68,5.95,14.2-154.11,72.95-6.38q27.57-2,37.61,13,6,9.23,4.76,22.92-1.31,14.11-9.08,23.3a46.59,46.59,0,0,1-12.32,9.79Q415.91,87.13,420.93,95.93ZM381.39,138.7q10.39-5.89,11.7-20.11,1.11-12-8.1-15.69c-3.42-1.35-8.38-1.78-14.84-1.29L333,104.86,329.21,146l36.65-3.21q9.81-.86,15.53-4M338.47,45.37l-3.13,34L372,76.15q9.83-.87,16.32-5.22t7.37-14.07q1-10.77-6.79-13.51-6.78-1.8-17.62-.85l-32.84,2.87"/><path id="Ao" d="M405.57,81.8q5,8.81,3.79,22.07a53,53,0,0,1-9,25.16,54.89,54.89,0,0,1-11.81,13.06,50.58,50.58,0,0,1-17.76,9.23,109.79,109.79,0,0,1-21.53,4l-68,5.95L295.46,7.12l73-6.39q27.57-2,37.62,13,6,9.21,4.75,22.92-1.29,14.1-9.07,23.3a46.85,46.85,0,0,1-12.33,9.79Q400.54,73,405.57,81.8ZM366,124.57q10.38-5.89,11.69-20.1,1.11-12-8.1-15.69c-3.42-1.35-8.37-1.79-14.84-1.29l-37.16,3.25-3.78,41.09,36.65-3.21q9.81-.85,15.54-4.05M323.11,31.25l-3.14,34L356.66,62q9.82-.85,16.32-5.21t7.38-14.08q1-10.75-6.8-13.51-6.76-1.78-17.61-.84l-32.84,2.87"/><path id="Ap" d="M405.57 81.8l15.36 14.13q5 8.79 3.8 22.06a53.09 53.09 0 0 1-9 25.16L400.38 129a53 53 0 0 0 9-25.16q1.21-13.24-3.81-22.04z"/><path id="Aq" d="M400.38,129l15.37,14.12a55.15,55.15,0,0,1-11.81,13.07,50.7,50.7,0,0,1-17.77,9.23,109.7,109.7,0,0,1-21.52,4l-15.37-14.12a109.79,109.79,0,0,0,21.53-4,50.58,50.58,0,0,0,17.76-9.23A54.89,54.89,0,0,0,400.38,129Z"/><path id="Ar" d="M402,9l15.37,14.12a26.21,26.21,0,0,1,4,4.7q6,9.23,4.76,22.92-1.31,14.11-9.08,23.3a46.59,46.59,0,0,1-12.32,9.79L389.38,69.74A46.85,46.85,0,0,0,401.71,60q7.77-9.2,9.07-23.3Q412,23,406,13.73A26,26,0,0,0,402,9Z"/><path id="As" d="M389.38 69.74l15.37 14.12q11.16 3.27 16.18 12.07L405.57 81.8q-5.02-8.8-16.19-12.06z"/><path id="At" d="M373.83 91.35l15.36 14.13a13.54 13.54 0 0 0-4.2-2.58c-3.42-1.35-8.38-1.78-14.84-1.29l-15.37-14.12c6.47-.5 11.42-.06 14.84 1.29a13.69 13.69 0 0 1 4.21 2.57z"/><path id="Au" d="M389.19,105.48q4.71,4.32,3.9,13.11-1.32,14.21-11.7,20.11L366,124.57q10.38-5.89,11.69-20.1.81-8.79-3.89-13.12Z"/><path id="Av" d="M377.17 31.33l15.37 14.12a10.44 10.44 0 0 0-3.61-2.1l-15.37-14.13a10.13 10.13 0 0 1 3.61 2.11z"/><path id="Aw" d="M392.54,45.45q3.9,3.59,3.18,11.41-.89,9.7-7.37,14.07T372,76.15L356.66,62q9.82-.85,16.32-5.21t7.38-14.08q.72-7.81-3.19-11.4Z"/><path id="Ax" d="M373.56 29.22l15.37 14.13q-6.78-1.8-17.62-.85L356 28.38q10.78-.96 17.56.84z"/><path id="Ay" d="M146,278.6q6.61,19.69,3.54,53.09-3,32.38-13.12,54.79Q117,429.11,75.51,432.74,55.71,434.48,41,424t-14.9-33.1l34.49-3q.48,7.78,5.38,12.24t13.75,3.69q17.12-1.5,25.82-21.33,4.74-10.92,7.58-31.33a48.78,48.78,0,0,1-10.93,10.12Q92,368,77.75,369.24q-21,1.85-35.94-11.45t-12.37-41q2.65-28.71,20.63-47.94a66.43,66.43,0,0,1,44.09-21.51Q134.35,243.81,146,278.6Zm-44.2,56Q114.25,326,116,307.12q1.4-15.15-4.77-23.41t-18.31-7.2a27.82,27.82,0,0,0-15.64,6.38q-10.69,8.76-12.43,27.61Q63.37,326.4,69,333.78T87.91,340a28.12,28.12,0,0,0,13.86-5.37"/><path id="Az" d="M130.6,264.47q6.61,19.69,3.55,53.09-3,32.4-13.13,54.8Q101.69,415,60.14,418.62q-19.8,1.74-34.49-8.77t-14.9-33.11l34.49-3c.32,5.19,2.12,9.26,5.38,12.24s7.84,4.2,13.76,3.68q17.12-1.5,25.81-21.32,4.74-10.92,7.59-31.34a48.86,48.86,0,0,1-10.94,10.13q-10.26,6.76-24.46,8-21,1.83-35.94-11.46t-12.36-41q2.64-28.71,20.62-47.94A66.38,66.38,0,0,1,78.79,233.2Q119,229.68,130.6,264.47Zm-44.2,56q12.5-8.65,14.23-27.51,1.4-15.15-4.78-23.41t-18.3-7.2a27.75,27.75,0,0,0-15.65,6.38q-10.68,8.76-12.43,27.6-1.45,15.9,4.19,23.28t18.88,6.23a28,28,0,0,0,13.86-5.37"/><path id="BA" d="M37.75 421.32L22.38 407.2a35.32 35.32 0 0 0 3.27 2.65q14.68 10.5 34.49 8.77Q101.68 415 121 372.36q10.14-22.39 13.13-54.8 3.07-33.37-3.55-53.09L146 278.6q6.61 19.69 3.54 53.09-3 32.38-13.12 54.79-19.42 42.63-60.91 46.26Q55.71 434.48 41 424a34 34 0 0 1-3.25-2.68z"/><path id="BB" d="M45.24 373.73l15.37 14.12q.48 7.78 5.38 12.24L50.62 386c-3.26-3-5.06-7.08-5.38-12.27z"/><path id="BC" d="M50.62,386q4.89,4.45,13.76,3.68,17.12-1.5,25.81-21.32,4.74-10.92,7.59-31.34l15.36,14.13q-2.83,20.42-7.58,31.33-8.7,19.83-25.82,21.33-8.86.77-13.75-3.69Z"/><path id="BD" d="M26.44 343.66l15.37 14.13q-14.93-13.31-12.37-41l-15.36-14.14q-2.57 27.72 12.36 41.01z"/><path id="BE" d="M78.79,233.2l15.37,14.12q40.19-3.51,51.81,31.28L130.6,264.47Q119,229.69,78.79,233.2Z"/><path id="BF" d="M26,343.3q-14.47-13.31-12-40.65,2.64-28.71,20.62-47.94A66.38,66.38,0,0,1,78.79,233.2Q104,231,117.94,243.83L133.31,258q-14-12.84-39.15-10.64a66.43,66.43,0,0,0-44.09,21.51q-18,19.25-20.63,47.94-2.52,27.35,12,40.66Z"/><path id="BG" d="M41.41 357.43L26 343.3q15.37 13.7 36.38 11.82 14.2-1.25 24.46-8A48.86 48.86 0 0 0 97.78 337l15.36 14.13a48.78 48.78 0 0 1-10.93 10.12Q92 368 77.75 369.24q-21 1.85-35.94-11.45z"/><path id="BH" d="M117.94 243.83L133.31 258q8.33 7.65 12.66 20.64l-15.37-14.17q-4.34-12.99-12.66-20.64z"/><path id="BI" d="M93.51 267l15.37 14.13q-6-5.48-16-4.6a27.82 27.82 0 0 0-15.64 6.38q-10.69 8.76-12.43 27.61-1.44 15.88 4.19 23.26a13.91 13.91 0 0 0 1.75 1.92l-15.34-14.12a15.32 15.32 0 0 1-1.75-1.93q-5.65-7.38-4.19-23.28 1.74-18.84 12.43-27.6a27.75 27.75 0 0 1 15.65-6.38q10.01-.88 15.96 4.61z"/><path id="BJ" d="M108.88 281.11a18.89 18.89 0 0 1 2.34 2.6q6.18 8.29 4.78 23.41-1.74 18.84-14.22 27.52L86.4 320.51q12.5-8.65 14.23-27.51 1.4-15.15-4.78-23.41a19 19 0 0 0-2.34-2.59z"/><path id="BK" d="M55.41,321.58q5.78,5.3,17.13,4.3a28,28,0,0,0,13.86-5.37l15.37,14.13A28.12,28.12,0,0,1,87.91,340q-11.37,1-17.13-4.31Z"/><path id="BL" d="M279.17,333.66q5.47,11.61,4.08,26.65-2.08,22.54-20,39.81T215.76,420q-29.53,2.59-43.28-11.92t-11.66-37A63.94,63.94,0,0,1,170,343.21a55.33,55.33,0,0,1,21.31-20.07q-12-7.5-14.92-17.21a48.26,48.26,0,0,1-2.11-18.45Q176.1,268,191.84,253T234,235.7q26.42-2.32,39.63,10.16t11.43,31.93a59.66,59.66,0,0,1-5.56,19.12q-4.74,10.38-18.18,18.88Q273.71,322,279.17,333.66Zm-40,48.47q7.41-7.86,8.62-21,1.26-13.68-4.95-20.16t-17.87-5.47a29.44,29.44,0,0,0-19.17,8.71q-7.52,7.68-8.78,21.36-1.22,13.17,4.85,19.85t18,5.64q11.91-1,19.32-8.9M214.53,271.44q-6.47,6.48-7.43,17.08-.9,9.74,4.44,15.38t15.81,4.72q10.6-.92,17-7.59a26.6,26.6,0,0,0,7.25-16.4q1-10.59-4.25-16.06T231.46,264q-10.47.93-16.93,7.42"/><path id="BM" d="M263.8,319.54q5.47,11.61,4.08,26.65-2.08,22.53-20,39.81T200.4,405.86q-29.55,2.58-43.28-11.92t-11.66-37a63.64,63.64,0,0,1,9.21-27.81A55.23,55.23,0,0,1,176,309q-12-7.5-14.92-17.21a48.28,48.28,0,0,1-2.11-18.45q1.8-19.47,17.54-34.47t42.16-17.32q26.42-2.31,39.64,10.17t11.42,31.93a59.47,59.47,0,0,1-5.56,19.12Q259.4,293.15,246,301.67A37.74,37.74,0,0,1,263.8,319.54Zm-40,48.47q7.41-7.86,8.62-21,1.26-13.67-4.95-20.16t-17.87-5.47a29.46,29.46,0,0,0-19.17,8.71q-7.52,7.68-8.78,21.36-1.22,13.17,4.86,19.86t18,5.64q11.91-1.05,19.32-8.9m-24.6-110.7q-6.46,6.49-7.44,17.08-.9,9.75,4.45,15.38T212,294.5q10.59-.93,16.95-7.59a26.67,26.67,0,0,0,7.24-16.41q1-10.59-4.25-16.05t-15.84-4.55q-10.47.91-16.92,7.41"/><path id="BN" d="M200.4 405.86L215.76 420q-29.53 2.59-43.28-11.92l-15.36-14.12q13.74 14.49 43.28 11.9z"/><path id="BO" d="M158.8 395.6l-1.68-1.66q-13.76-14.49-11.66-37a63.64 63.64 0 0 1 9.21-27.81A55.23 55.23 0 0 1 176 309l15.37 14.12A55.33 55.33 0 0 0 170 343.21a63.94 63.94 0 0 0-9.18 27.79q-2.07 22.55 11.66 37l1.69 1.66z"/><path id="BP" d="M174.17,409.72,158.8,395.6q13.81,12.69,41.6,10.26Q230,403.27,247.87,386t20-39.81q1.38-15-4.08-26.65l15.37,14.12q5.47,11.61,4.08,26.65-2.08,22.54-20,39.81T215.76,420Q188,422.41,174.17,409.72Z"/><path id="BQ" d="M218.64 221.57L234 235.7q26.42-2.32 39.63 10.16l-15.36-14.12q-13.2-12.48-39.63-10.17z"/><path id="BR" d="M169,303.75a26.77,26.77,0,0,1-7.9-11.94,48.28,48.28,0,0,1-2.11-18.45q1.8-19.47,17.54-34.47t42.16-17.32q26.1-2.28,39.31,9.87l15.37,14.12Q260.11,233.41,234,235.7,207.6,238,191.84,253t-17.53,34.46a48.26,48.26,0,0,0,2.11,18.45,26.63,26.63,0,0,0,7.9,11.94Z"/><path id="BS" d="M184.32 317.87L169 303.75a47.93 47.93 0 0 0 7 5.27l15.37 14.12a47.23 47.23 0 0 1-7.05-5.27z"/><path id="BT" d="M258 231.44l15.69 14.42q13.23 12.46 11.43 31.93a59.66 59.66 0 0 1-5.56 19.12q-4.74 10.38-18.18 18.88L246 301.67q13.41-8.51 18.17-18.88a59.47 59.47 0 0 0 5.56-19.12q1.8-19.47-11.42-31.93z"/><path id="BU" d="M246 301.67l15.36 14.12q12.38 6.25 17.84 17.87l-15.4-14.12a37.74 37.74 0 0 0-17.8-17.87z"/><path id="BV" d="M255.46 308.16l15.37 14.12a36.3 36.3 0 0 1 8.34 11.38l-15.37-14.12a36.18 36.18 0 0 0-8.34-11.38z"/><path id="BW" d="M227.44 326.81l15.37 14.13q-6.21-6.48-17.87-5.47l-15.37-14.13q11.67-1.02 17.87 5.47z"/><path id="BX" d="M226.65 326L242 340.16q-6.14-5.64-17.08-4.69a29.44 29.44 0 0 0-19.17 8.71q-7.52 7.68-8.78 21.36-1.22 13.17 4.85 19.85c.34.38.7.73 1.06 1.07l-15.36-14.13c-.37-.33-.72-.69-1.06-1.06q-6.07-6.67-4.86-19.86 1.26-13.67 8.78-21.36a29.46 29.46 0 0 1 19.17-8.71q10.97-.94 17.1 4.66z"/><path id="BY" d="M242 340.16l.79.78q6.21 6.48 4.95 20.16-1.22 13.17-8.62 21L223.77 368q7.41-7.86 8.62-21 1.26-13.67-4.95-20.16c-.25-.27-.52-.52-.79-.77z"/><path id="BZ" d="M187.54,372.33q6,5.54,16.91,4.58,11.91-1.05,19.32-8.9l15.37,14.12q-7.42,7.86-19.32,8.9-10.9,1-16.92-4.57Z"/><path id="Ba" d="M231.93 254.45l15.37 14.12q-5.24-5.47-15.84-4.55l-15.37-14.12q10.61-.9 15.84 4.55z"/><path id="Bb" d="M196.9 290.48q5.29 4.88 15.09 4 10.59-.93 16.95-7.59a26.67 26.67 0 0 0 7.24-16.41q1-10.59-4.25-16.05l-.64-.63 15.37 14.2.64.62q5.22 5.48 4.25 16.06A26.6 26.6 0 0 1 244.3 301q-6.35 6.68-17 7.59-9.79.87-15.08-4z"/><path id="Bc" d="M212.27 304.61l-15.37-14.13a9.63 9.63 0 0 1-.72-.71q-5.35-5.64-4.45-15.38 1-10.59 7.44-17.08l15.36 14.13q-6.47 6.48-7.43 17.08-.9 9.74 4.44 15.38l.73.71z"/><path id="Bd" d="M231.29 253.82L246.66 268q-5.22-4.8-15.2-3.93-10.47.93-16.93 7.42l-15.36-14.13q6.45-6.5 16.92-7.41 9.98-.95 15.2 3.87z"/><path id="Be" d="M425.61,222.11l-2.74,29.81-71.93,6.3-9.89,39.6a90.54,90.54,0,0,1,13.14-8.12,57.75,57.75,0,0,1,18.57-4.43q21.84-1.9,36.71,11.58t12.26,41.93q-2.28,24.77-19.72,45.6t-48.64,23.56q-25.11,2.21-40-10.06T299,360.64l34.49-3q1,11.28,6.25,17t16.39,4.74a27.73,27.73,0,0,0,20.41-10.89q7.57-9.76,8.86-23.69,1.26-13.66-4.17-22.55t-18.76-7.7a36.54,36.54,0,0,0-11.06,2.56,28.05,28.05,0,0,0-13.24,12l-30.9,1.24,21.45-99.76Z"/><path id="Bf" d="M410.25,208,407.5,237.8l-71.92,6.29-9.9,39.61a90.18,90.18,0,0,1,13.14-8.12,57.82,57.82,0,0,1,18.57-4.43q21.84-1.92,36.72,11.57t12.25,41.94q-2.28,24.76-19.72,45.6T338,393.82Q312.9,396,298,383.76t-14.37-37.24l34.48-3q1,11.28,6.26,17t16.38,4.74q12.86-1.12,20.42-10.89T370,330.65q1.26-13.68-4.18-22.55t-18.76-7.7A36.19,36.19,0,0,0,336.05,303a28.13,28.13,0,0,0-13.25,12l-30.89,1.24,21.45-99.76Z"/><path id="Bg" d="M298 383.76l15.37 14.12q-14.85-12.27-14.37-37.24l-15.36-14.12q-.49 24.96 14.36 37.24z"/><path id="Bh" d="M311.87 396.57l-15.36-14.13q.74.68 1.5 1.32Q312.9 396 338 393.82q31.19-2.73 48.63-23.56 17.44-20.83 19.72-45.6 2.63-28.46-12.25-41.94l15.36 14.13q14.88 13.47 12.26 41.93-2.28 24.77-19.72 45.6-17.44 20.83-48.64 23.56-25.11 2.21-40-10.06l-1.49-1.31z"/><path id="Bi" d="M325.68,283.7a90.18,90.18,0,0,1,13.14-8.12,57.82,57.82,0,0,1,18.57-4.43q21.84-1.92,36.72,11.57l15.36,14.13q-14.87-13.49-36.71-11.58a57.75,57.75,0,0,0-18.57,4.43,90.54,90.54,0,0,0-13.14,8.12Z"/><path id="Bj" d="M324.38 360.49l15.36 14.12q5.25 5.72 16.39 4.74l-15.37-14.12q-11.14.98-16.38-4.74z"/><path id="Bk" d="M325.18,361.29q5.26,4.84,15.58,3.94,12.86-1.12,20.42-10.89T370,330.65q1.26-13.68-4.18-22.55a16.07,16.07,0,0,0-2.83-3.47l15.37,14.13a16.06,16.06,0,0,1,2.83,3.46q5.41,8.88,4.17,22.55-1.27,13.92-8.86,23.69a27.73,27.73,0,0,1-20.41,10.89q-10.32.91-15.58-3.93Z"/><path id="Bl" d="M340.55 375.42l-15.37-14.13a10.06 10.06 0 0 1-.8-.8q-5.25-5.7-6.26-17l15.37 14.12q1 11.28 6.25 17 .39.39.81.81z"/><path id="Bm" d="M363 304.63l15.37 14.13q-5.59-5.14-15.93-4.24a36.54 36.54 0 0 0-11.06 2.56 28.05 28.05 0 0 0-13.24 12L322.8 315a28.13 28.13 0 0 1 13.25-12 36.19 36.19 0 0 1 11.05-2.55q10.34-.96 15.9 4.18z"/></defs><g class="B Am An Ao"><g><g clip-path="url(#A)" class="Ap"><use xlink:href="#Aj"/><g><path d="M-63.16 130.6q-13.47 1.18-19.34-5c-3.9-4.1-5.46-10.62-4.63-19.57q1.47-15.93 12.21-23.48A31.7 31.7 0 0 1-59.07 77q12.34-1.08 18.76 5.79c4.29 4.59 6 11.14 5.24 19.68q-1.47 15.93-14 23.43a32 32 0 0 1-14 4.74m4.88-78.28q-26.55 2.31-44.56 18.81a61.11 61.11 0 0 0-20.24 40.75q-2.16 23.43 13.25 34.42 15.41 10.99 36.74 9.09 14.46-1.27 24.8-7.13a47.5 47.5 0 0 0 11-8.71q-2.56 17.26-7.22 26.55Q-53 183-70.46 184.52q-9 .79-14.07-2.89a13.67 13.67 0 0 1-5.67-10.25l-35.1 3.07q.58 19.05 15.71 27.69 15.13 8.64 35.28 6.86 42.26-3.71 61.29-40 10-19 12.49-46.42Q2.06 94.42-5 77.9-17.38 48.74-58.28 52.32M72 171.64q-12.11 1.06-18.4-4.48-6.29-5.54-5.25-16.68 1.05-11.55 8.59-18.15 7.54-6.6 19.39-7.64 11.86-1 18.29 4.34 6.43 5.34 5.38 16.97-1 11.14-8.45 17.88-7.45 6.74-19.55 7.76M78.41 102q-10.66.93-16.19-3.75-5.53-4.68-4.77-12.9a20.94 20.94 0 0 1 7.3-14.52q6.47-5.58 17.13-6.51 10.66-.93 16.19 3.59 5.42 4.55 4.6 13.48a20.79 20.79 0 0 1-7.13 14q-6.36 5.73-17.13 6.66M84 40.38q-26.86 2.36-42.66 15.25Q25.54 68.52 24 85a34.43 34.43 0 0 0 2.44 15.54q3.13 8.14 15.48 14.29a53.27 53.27 0 0 0-21.38 17.25 47.74 47.74 0 0 0-8.94 23.61q-1.76 19.05 12.47 31.07 14.23 12.02 44.29 9.4 30-2.62 48-17.48 18-14.86 19.75-33.89 1.17-12.69-4.58-22.42-5.75-9.73-18.46-14.8 13.56-7.4 18.22-16.21 4.66-8.81 5.35-16.22 1.52-16.44-12.14-26.77-13.66-10.33-40.5-7.99M279 26l-98.57 8.62-20.26 84.49 31.46-1.52a27.15 27.15 0 0 1 13.3-10.34 43 43 0 0 1 11.21-2.33q13.58-1.2 19.25 6.21 5.67 7.41 4.6 19a33.67 33.67 0 0 1-8.64 20.11q-7.54 8.35-20.62 9.5-11.33 1-16.76-3.75c-3.64-3.16-5.84-7.91-6.65-14.23l-35.09 3.07q-.09 21.08 15.25 31.19 15.34 10.11 40.9 7.88 31.74-2.77 49.16-20.62 17.42-17.85 19.36-38.78 2.22-24-13.16-35.2-15.38-11.2-37.58-9.2a68.42 68.42 0 0 0-18.85 4 96.85 96.85 0 0 0-13.26 7l9.46-33.56 73.16-6.4L279 26"/></g></g><use xlink:href="#Aj"/></g><g><g clip-path="url(#B)" class="Ap"><use xlink:href="#Ak"/><g><path d="M27.23 125.6L52.4 63.51l13.52 58.71-38.69 3.38m46.59-98.77L38.11 30-29.95 188.13l33-2.89 13.16-32.44 55.63-4.87 7.06 30.68 34.23-3L73.82 26.83m91.62 117.77l3.77-40.92 37.17-3.25q9.74-.74 14.86 1.28 9.21 3.63 8.11 15.61-1.31 14.16-11.69 20-5.73 3.18-15.55 4l-36.67 3.21m6.11-66.31l3.12-33.84 32.85-2.88q10.86-.95 17.63.84Q233 45.13 232 55.86q-.9 9.67-7.39 14-6.49 4.33-16.32 5.19l-36.71 3.22M220 14.05l-73 6.38-14.14 153.46 68-6a109.9 109.9 0 0 0 21.54-4 50.77 50.77 0 0 0 17.78-9.2 54.44 54.44 0 0 0 11.81-13 52.66 52.66 0 0 0 9-25.05q1.22-13.23-3.82-22-5.04-8.77-16.2-12A46.89 46.89 0 0 0 253.34 73q7.77-9.15 9.07-23.2 1.26-13.65-4.77-22.82Q247.59 12 220 14.05"/></g></g><use xlink:href="#Ak"/></g><g><g clip-path="url(#C)" class="Ap"><path d="M46.92 28.86l15.37 14.13-11.65 126.4-15.37-14.12L46.92 28.86z"/></g><path d="M46.92 28.86l15.37 14.13-11.65 126.4-15.37-14.12L46.92 28.86z"/></g><g><g clip-path="url(#D)" class="Ap"><path d="M35.27 155.27l75.37-6.59 15.37 14.12-75.37 6.59-15.37-14.12z"/></g><path d="M35.27 155.27l75.37-6.59 15.37 14.12-75.37 6.59-15.37-14.12z"/></g><g><g clip-path="url(#E)" class="Ap"><path d="M110.64 148.68l15.37 14.12-2.55 27.7-15.37-14.12 2.55-27.7z"/></g><path d="M110.64 148.68l15.37 14.12-2.55 27.7-15.37-14.12 2.55-27.7z"/></g><g><g clip-path="url(#F)" class="Ap"><path d="M108.09 176.38l15.37 14.12-106.92 9.36-15.37-14.13 106.92-9.35z"/></g><path d="M108.09 176.38l15.37 14.12-106.92 9.36-15.37-14.13 106.92-9.35z"/></g><g><g clip-path="url(#G)" class="Ap"><path d="M1.17 185.73l14.2-154.11 15.37 14.13-14.2 154.11-15.37-14.13z"/></g><path d="M1.17 185.73l14.2-154.11 15.37 14.13-14.2 154.11-15.37-14.13z"/></g><g><g clip-path="url(#H)" class="Ap"><path d="M15.37 31.62l31.55-2.76 15.37 14.13-31.55 2.76-15.37-14.13z"/></g><path d="M15.37 31.62l31.55-2.76 15.37 14.13-31.55 2.76-15.37-14.13z"/></g><g><g clip-path="url(#I)" class="Ap"><use xlink:href="#Al"/></g><use xlink:href="#Al"/></g><g><g clip-path="url(#J)" class="Ap"><use xlink:href="#Am"/></g><use xlink:href="#Am"/></g><g><g clip-path="url(#K)" class="Ap"><path d="M222.34 13.51l15.37 14.13 39.21 149.44-15.37-14.13-39.21-149.44z"/></g><path d="M222.34 13.51l15.37 14.13 39.21 149.44-15.37-14.13-39.21-149.44z"/></g><g><g clip-path="url(#L)" class="Ap"><path d="M261.55 162.95l15.37 14.13-34.2 2.99-15.37-14.12 34.2-3z"/></g><path d="M261.55 162.95l15.37 14.13-34.2 2.99-15.37-14.12 34.2-3z"/></g><g><g clip-path="url(#M)" class="Ap"><path d="M227.35 165.95l-7.04-30.81 15.37 14.12 7.04 30.81-15.37-14.12z"/></g><path d="M227.35 165.95l-7.04-30.81 15.37 14.12 7.04 30.81-15.37-14.12z"/></g><g><g clip-path="url(#N)" class="Ap"><path d="M220.31 135.14l15.37 14.12-55.59 4.87L164.72 140l55.59-4.86z"/></g><path d="M220.31 135.14l15.37 14.12-55.59 4.87L164.72 140l55.59-4.86z"/></g><g><g clip-path="url(#O)" class="Ap"><path d="M164.72 140l15.37 14.13-13.15 32.57-15.37-14.13L164.72 140z"/></g><path d="M164.72 140l15.37 14.13-13.15 32.57-15.37-14.13L164.72 140z"/></g><g><g clip-path="url(#P)" class="Ap"><path d="M151.57 172.57l15.37 14.13-33 2.89-15.37-14.13 33-2.89z"/></g><path d="M151.57 172.57l15.37 14.13-33 2.89-15.37-14.13 33-2.89z"/></g><g><g clip-path="url(#Q)" class="Ap"><path d="M118.57 175.46l68.09-158.82 15.37 14.12-68.09 158.83-15.37-14.13z"/></g><path d="M118.57 175.46l68.09-158.82 15.37 14.12-68.09 158.83-15.37-14.13z"/></g><g><g clip-path="url(#R)" class="Ap"><path d="M186.66 16.64l35.68-3.13 15.37 14.13-35.68 3.12-15.37-14.12z"/></g><path d="M186.66 16.64l35.68-3.13 15.37 14.13-35.68 3.12-15.37-14.12z"/></g><g><g clip-path="url(#S)" class="Ap"><path d="M175.74 112.69l38.67-3.38 15.36 14.13-38.66 3.38-15.37-14.13z"/></g><path d="M175.74 112.69l38.67-3.38 15.36 14.13-38.66 3.38-15.37-14.13z"/></g><g><g clip-path="url(#T)" class="Ap"><path d="M214.41 109.31l-13.49-58.97 15.37 14.12 13.48 58.98-15.36-14.13z"/></g><path d="M214.41 109.31l-13.49-58.97 15.37 14.12 13.48 58.98-15.36-14.13z"/></g><g><g clip-path="url(#U)" class="Ap"><path d="M200.92 50.34l15.37 14.12-25.18 62.36-15.37-14.13 25.18-62.35z"/></g><path d="M200.92 50.34l15.37 14.12-25.18 62.36-15.37-14.13 25.18-62.35z"/></g><g><g clip-path="url(#V)" class="Ap"><use xlink:href="#An"/></g><use xlink:href="#An"/></g><g><g clip-path="url(#W)" class="Ap"><use xlink:href="#Ao"/></g><use xlink:href="#Ao"/></g><g><g clip-path="url(#X)" class="Ap"><g class="B"><g><path d="M405.57 81.8l15.36 14.13q5 8.79 3.8 22.06l-15.37-14.12q1.23-13.27-3.79-22.07z"/><path d="M408.22 88.16l15.37 14.13m-14.1-6.77l15.36 14.12"/></g><g><path d="M409.36 103.87L424.73 118a53.09 53.09 0 0 1-9 25.16L400.38 129a53 53 0 0 0 8.98-25.13z"/><path d="M407.8 112.75l15.37 14.13m-18.36-5.74l15.37 14.12"/></g></g><use xlink:href="#Ap"/></g><use xlink:href="#Ap"/></g><g><g clip-path="url(#Y)" class="Ap"><g class="B"><g><path d="M400.38,129l15.37,14.12a55.15,55.15,0,0,1-11.81,13.07l-15.37-14.13A54.89,54.89,0,0,0,400.38,129Z"/><path d="M396.87 133.85l15.37 14.13m-19.31-9.77l15.37 14.12"/></g><g><path d="M388.57 142.09l15.37 14.13a50.7 50.7 0 0 1-17.77 9.23l-15.36-14.13a50.58 50.58 0 0 0 17.76-9.23z"/><path d="M383.15 145.91l15.37 14.12m-21.29-11.05l15.37 14.13"/></g><g><path d="M370.81 151.32l15.36 14.13a109.7 109.7 0 0 1-21.52 4l-15.37-14.12a109.79 109.79 0 0 0 21.53-4.01z"/><path d="M363.96 153.07l15.37 14.13m-22.54-12.81l15.36 14.13"/></g></g><use xlink:href="#Aq"/></g><use xlink:href="#Aq"/></g><g><g clip-path="url(#Z)" class="Ap"><path d="M349.28 155.28l15.37 14.12-68.02 5.95-15.37-14.12 68.02-5.95z"/></g><path d="M349.28 155.28l15.37 14.12-68.02 5.95-15.37-14.12 68.02-5.95z"/></g><g><g clip-path="url(#a)" class="Ap"><path d="M281.26 161.23l14.2-154.11 15.37 14.12-14.2 154.11-15.37-14.12z"/></g><path d="M281.26 161.23l14.2-154.11 15.37 14.12-14.2 154.11-15.37-14.12z"/></g><g><g clip-path="url(#b)" class="Ap"><path d="M295.46 7.12L368.41.73l15.37 14.13-72.95 6.38-15.37-14.12z"/></g><path d="M295.46 7.12L368.41.73l15.37 14.13-72.95 6.38-15.37-14.12z"/></g><g><g clip-path="url(#c)" class="Ap"><g class="B"><path d="M368.41.73l15.37,14.13q27.57-2,37.61,13L406,13.73Q396-1.25,368.41.73Z"/><g><path d="M406,13.73l15.36,14.12q6,9.23,4.76,22.92L410.78,36.65Q412,23,406,13.73Z"/><path d="M409.23 20.37L424.6 34.5m-13.78-6.49l15.36 14.13"/></g><g><path d="M410.78 36.65l15.37 14.12q-1.31 14.11-9.08 23.3L401.71 60q7.77-9.24 9.07-23.35z"/><path d="M409.2 45.51l15.36 14.12m-18.39-6.36l15.37 14.13"/></g><g><path d="M401.71,60l15.36,14.12a46.59,46.59,0,0,1-12.32,9.79L389.38,69.74A46.85,46.85,0,0,0,401.71,60Z"/><path d="M398.4 63.33l15.37 14.12m-19.48-10.86l15.37 14.12"/></g></g><use xlink:href="#Ar"/></g><use xlink:href="#Ar"/></g><g><g clip-path="url(#d)" class="Ap"><g class="B"><path d="M368.41.73l15.37,14.13q27.57-2,37.61,13L406,13.73Q396-1.25,368.41.73Z"/><path d="M384.85 1.29l15.36 14.13m-2.83-9.8l15.37 14.13"/></g><path d="M417.37,23.15q-10.81-9.93-33.59-8.29L368.41.73Q391.18-.9,402,9Z"/></g><path d="M417.37,23.15q-10.81-9.93-33.59-8.29L368.41.73Q391.18-.9,402,9Z"/></g><g><g clip-path="url(#e)" class="Ap"><g class="B"><use xlink:href="#As"/><path d="M401.54 76.55l15.36 14.13"/></g><path d="M401,76l15.37,14.12a24,24,0,0,1,4.61,5.81L405.57,81.8A23.9,23.9,0,0,0,401,76Z"/></g><path d="M401,76l15.37,14.12a24,24,0,0,1,4.61,5.81L405.57,81.8A23.9,23.9,0,0,0,401,76Z"/></g><g><g clip-path="url(#f)" class="Ap"><g class="B"><use xlink:href="#As"/><path d="M396.14 72.53l15.37 14.13"/></g><path d="M416.32,90.12a28.78,28.78,0,0,0-11.57-6.26L389.38,69.74A28.59,28.59,0,0,1,401,76Z"/></g><path d="M416.32,90.12a28.78,28.78,0,0,0-11.57-6.26L389.38,69.74A28.59,28.59,0,0,1,401,76Z"/></g><g><g clip-path="url(#g)" class="Ap"><g class="B"><path d="M377.72 104.47l15.37 14.12q1.11-12-8.1-15.69l-15.37-14.12q9.21 3.66 8.1 15.69z"/><g><path d="M369.62 88.78L385 102.9c-3.42-1.35-8.38-1.78-14.84-1.29l-15.38-14.12c6.47-.49 11.42-.06 14.84 1.29z"/><path d="M365.69 87.73l15.37 14.13M360.74 87.3l15.37 14.13"/></g></g><use xlink:href="#At"/></g><use xlink:href="#At"/></g><g><g clip-path="url(#h)" class="Ap"><g class="B"><g><path d="M366 124.57l15.36 14.13q10.39-5.89 11.7-20.11l-15.37-14.12q-1.27 14.21-11.69 20.1z"/><path d="M371.94 119.72l15.37 14.12m-11.47-20.82l15.37 14.12"/></g><g><path d="M377.72 104.47l15.37 14.12q1.11-12-8.1-15.69l-15.37-14.12q9.21 3.66 8.1 15.69z"/><path d="M377.31 97.38l15.37 14.12m-18.07-19.35l15.37 14.12"/></g></g><use xlink:href="#Au"/></g><use xlink:href="#Au"/></g><g><g clip-path="url(#i)" class="Ap"><path d="M354.78 87.49l15.37 14.12-37.16 3.25-15.37-14.12 37.16-3.25z"/></g><path d="M354.78 87.49l15.37 14.12-37.16 3.25-15.37-14.12 37.16-3.25z"/></g><g><g clip-path="url(#j)" class="Ap"><path d="M317.62 90.74l15.37 14.12-3.79 41.09-15.36-14.12 3.78-41.09z"/></g><path d="M317.62 90.74l15.37 14.12-3.79 41.09-15.36-14.12 3.78-41.09z"/></g><g><g clip-path="url(#k)" class="Ap"><path d="M313.84 131.83l36.65-3.21 15.37 14.12-36.66 3.21-15.36-14.12z"/></g><path d="M313.84 131.83l36.65-3.21 15.37 14.12-36.66 3.21-15.36-14.12z"/></g><g><g clip-path="url(#l)" class="Ap"><g class="B"><path d="M350.49 128.62l15.37 14.12q9.81-.86 15.53-4L366 124.57q-5.68 3.2-15.51 4.05z"/><path d="M356.58 127.79l15.37 14.12m-10.19-15.47l15.37 14.12"/></g><path d="M350.49,128.62q9.81-.85,15.54-4.05l15.36,14.13q-5.72,3.2-15.53,4Z"/></g><path d="M350.49,128.62q9.81-.85,15.54-4.05l15.36,14.13q-5.72,3.2-15.53,4Z"/></g><g><g clip-path="url(#m)" class="Ap"><path d="M323.11 31.25l15.36 14.13-3.13 33.98-15.37-14.13 3.14-33.98z"/></g><path d="M323.11 31.25l15.36 14.13-3.13 33.98-15.37-14.13 3.14-33.98z"/></g><g><g clip-path="url(#n)" class="Ap"><path d="M319.97 65.23l36.69-3.21 15.37 14.13-36.69 3.21-15.37-14.13z"/></g><path d="M319.97 65.23l36.69-3.21 15.37 14.13-36.69 3.21-15.37-14.13z"/></g><g><g clip-path="url(#o)" class="Ap"><g class="B"><path d="M380.36 42.73l15.36 14.13q1-10.77-6.79-13.51l-15.37-14.13q7.79 2.78 6.8 13.51z"/></g><use xlink:href="#Av"/></g><use xlink:href="#Av"/></g><g><g clip-path="url(#p)" class="Ap"><g class="B"><g><path d="M356.66 62L372 76.15q9.83-.87 16.32-5.22L373 56.81q-6.5 4.35-16.34 5.19z"/><path d="M362.84 61.06l15.37 14.13m-9.92-15.87l15.36 14.13"/></g><g><path d="M373 56.81l15.37 14.12q6.48-4.35 7.37-14.07l-15.38-14.13q-.9 9.72-7.36 14.08z"/><path d="M376.68 53.31l15.37 14.12m-12.91-18.81l15.37 14.12"/></g><g><path d="M380.36 42.73l15.36 14.13q1-10.77-6.79-13.51l-15.37-14.13q7.79 2.78 6.8 13.51z"/><path d="M380.04 36.45l15.37 14.12m-17.63-18.63l15.36 14.12"/></g></g><use xlink:href="#Aw"/></g><use xlink:href="#Aw"/></g><g><g clip-path="url(#q)" class="Ap"><g class="B"><use xlink:href="#Ax"/><path d="M368.59 28.33l15.37 14.12m-21.24-14.4l15.37 14.12"/></g><use xlink:href="#Ax"/></g><use xlink:href="#Ax"/></g><g><g clip-path="url(#r)" class="Ap"><path d="M355.95 28.38l15.36 14.12-32.84 2.88-15.36-14.13 32.84-2.87z"/></g><path d="M355.95 28.38l15.36 14.12-32.84 2.88-15.36-14.13 32.84-2.87z"/></g></g><g class="B Am An Ao"><g><g clip-path="url(#s)" class="Ap"><use xlink:href="#Ay"/><g><path d="M-52.21 352.23q-13.47 1.18-19.34-5c-3.9-4.1-5.46-10.62-4.63-19.57q1.47-15.93 12.21-23.48a31.7 31.7 0 0 1 15.84-5.62q12.36-1.08 18.77 5.79c4.29 4.59 6 11.14 5.24 19.68q-1.47 15.93-14 23.43a32.19 32.19 0 0 1-14 4.74m4.88-78.29q-26.55 2.32-44.56 18.82a61.07 61.07 0 0 0-20.24 40.75q-2.16 23.43 13.25 34.42 15.41 10.99 36.78 9.13 14.46-1.28 24.8-7.13a47.5 47.5 0 0 0 11-8.71q-2.57 17.26-7.23 26.55-8.54 16.86-26 18.38-9 .8-14.07-2.9A13.63 13.63 0 0 1-79.25 393l-35.1 3.07q.59 19.05 15.71 27.69 15.12 8.64 35.28 6.88Q-21.1 427-2.07 390.7q10-19.05 12.49-46.42Q13 316 6 299.53q-12.39-29.16-53.29-25.59M83 393.27q-12.1 1.07-18.4-4.48-6.3-5.55-5.27-16.69 1.06-11.55 8.6-18.14 7.54-6.59 19.39-7.64 11.87-1 18.29 4.34 6.42 5.34 5.39 16.93-1 11.15-8.45 17.88-7.45 6.73-19.55 7.8m6.37-69.64q-10.67.93-16.19-3.75-5.52-4.68-4.78-12.88a20.94 20.94 0 0 1 7.3-14.52q6.47-5.58 17.13-6.51 10.66-.93 16.17 3.57 5.42 4.54 4.6 13.48a20.79 20.79 0 0 1-7.13 14q-6.36 5.73-17.13 6.66M95 262q-26.88 2.36-42.68 15.24Q36.52 290.12 35 306.6a34.39 34.39 0 0 0 2.44 15.53q3.14 8.14 15.48 14.29a53.37 53.37 0 0 0-21.38 17.26 47.74 47.74 0 0 0-8.94 23.61q-1.78 19.05 12.4 31.07 14.18 12.02 44.29 9.4 30-2.62 48-17.48 18-14.86 19.75-33.89 1.17-12.7-4.58-22.42-5.75-9.72-18.46-14.8 13.55-7.4 18.22-16.21 4.67-8.81 5.35-16.22 1.51-16.44-12.14-26.77Q121.78 259.64 95 262m194.94-14.37l-98.57 8.63-20.26 84.49 31.46-1.52a27.12 27.12 0 0 1 13.3-10.35 43.88 43.88 0 0 1 11.21-2.33q13.57-1.19 19.25 6.22 5.68 7.41 4.6 19a33.73 33.73 0 0 1-8.64 20.12q-7.54 8.36-20.62 9.5-11.32 1-16.76-3.76c-3.64-3.15-5.84-7.9-6.65-14.23l-35.09 3.07q-.1 21.07 15.25 31.2 15.35 10.13 40.9 7.88 31.74-2.77 49.16-20.62 17.42-17.85 19.37-38.76 2.22-24.06-13.16-35.2-15.38-11.14-37.58-9.21a68.4 68.4 0 0 0-18.85 4 96.85 96.85 0 0 0-13.26 7l9.46-33.56 73.16-6.4 2.32-25.2"/></g></g><use xlink:href="#Ay"/></g><g><g clip-path="url(#t)" class="Ap"><use xlink:href="#Az"/><g><path d="M38.18 347.23l25.17-62.09 13.52 58.71-38.69 3.38m46.59-98.77l-35.71 3.13L-19 409.76l33-2.89 13.15-32.45 55.63-4.86 7.06 30.68 34.23-3-39.3-148.78m91.62 117.77l3.77-40.92 37.17-3.25c6.49-.5 11.43-.07 14.86 1.28Q241.4 327 240.3 339q-1.3 14.1-11.69 20-5.73 3.18-15.55 4l-36.67 3.21m6.11-66.32l3.12-33.83 32.85-2.88q10.86-.94 17.63.84 7.82 2.71 6.82 13.44-.9 9.69-7.39 14-6.49 4.31-16.32 5.2l-36.71 3.21m48.44-64.24l-73 6.39-14.13 153.5 68.05-6a109.9 109.9 0 0 0 21.54-4 50.75 50.75 0 0 0 17.78-9.19 54.44 54.44 0 0 0 11.81-13 52.66 52.66 0 0 0 9-25q1.21-13.23-3.82-22-5.03-8.77-16.2-12a46.66 46.66 0 0 0 12.33-9.75q7.79-9.15 9.08-23.2 1.26-13.65-4.77-22.82-10.05-14.92-37.65-12.93"/></g></g><use xlink:href="#Az"/></g><g><g clip-path="url(#u)" class="Ap"><g class="B"><path d="M25.65 409.85L41 424q-14.7-10.52-14.9-33.1l-15.35-14.16q.2 22.59 14.9 33.11z"/><path d="M17.46 401.5l15.37 14.12m-20.34-25.16l15.37 14.13"/></g><path d="M22.38,407.2q-11.44-10.53-11.63-30.46l15.37,14.13q.16,19.92,11.63,30.45Z"/></g><path d="M22.38,407.2q-11.44-10.53-11.63-30.46l15.37,14.13q.16,19.92,11.63,30.45Z"/></g><g><g clip-path="url(#v)" class="Ap"><g class="B"><g><path d="M130.6 264.47L146 278.6q6.61 19.69 3.54 53.09l-15.36-14.13q3.04-33.37-3.58-53.09z"/><path d="M133.94 279.13l15.37 14.12m-14.19 3.57l15.37 14.13"/></g><g><path d="M134.15 317.56l15.36 14.13q-3 32.38-13.12 54.79L121 372.36q10.16-22.36 13.15-54.8z"/><path d="M131.36 338.05l15.37 14.12m-19.74 4.15l15.37 14.12"/></g><g><path d="M121,372.36l15.37,14.12Q117,429.11,75.51,432.74L60.14,418.62Q101.68,415,121,372.36Z"/><path d="M105.66 396.44l15.37 14.13m-35.66 1.29l15.36 14.13"/></g><g><path d="M60.14 418.62l15.37 14.12Q55.71 434.48 41 424l-15.35-14.15q14.68 10.5 34.49 8.77z"/><path d="M47.51 418.42l15.37 14.12m-26.87-17.05l15.37 14.12"/></g><path d="M25.65 409.85L41 424q-14.7-10.52-14.9-33.1l-15.35-14.16q.2 22.59 14.9 33.11z"/></g><use xlink:href="#BA"/></g><use xlink:href="#BA"/></g><g><g clip-path="url(#w)" class="Ap"><path d="M10.75 376.74l34.49-3.01 15.36 14.12-34.48 3.02-15.37-14.13z"/></g><path d="M10.75 376.74l34.49-3.01 15.36 14.12-34.48 3.02-15.37-14.13z"/></g><g><g clip-path="url(#x)" class="Ap"><g class="B"><use xlink:href="#BB"/><path d="M46.05 378.55l15.37 14.12m-13.57-10.04l15.36 14.12"/></g><use xlink:href="#BB"/></g><use xlink:href="#BB"/></g><g><g clip-path="url(#y)" class="Ap"><g class="B"><g><path d="M50.62 386L66 400.09q4.89 4.47 13.75 3.69l-15.37-14.13q-8.88.78-13.76-3.65z"/><path d="M54.32 388.36l15.37 14.13m-10.78-12.9l15.36 14.12"/></g><g><path d="M64.38 389.65l15.36 14.13q17.12-1.5 25.82-21.33l-15.37-14.12q-8.7 19.83-25.81 21.32z"/><path d="M74.85 386.62l15.37 14.12m-6.76-21.23l15.36 14.12"/></g><g><path d="M90.19 368.33l15.37 14.12q4.74-10.92 7.58-31.33L97.78 337q-2.85 20.42-7.59 31.33z"/><path d="M93.14 359.99l15.37 14.13m-12.84-24.57l15.37 14.12"/></g></g><use xlink:href="#BC"/></g><use xlink:href="#BC"/></g><g><g clip-path="url(#z)" class="Ap"><g class="B"><g><use xlink:href="#BD"/><path d="M18.44 333.2l15.36 14.12m-19.48-27.79l15.36 14.12"/></g><g><path d="M14.08 302.65l15.36 14.12q2.65-28.71 20.63-47.94L34.7 254.71q-17.97 19.23-20.62 47.94z"/><path d="M17.54 284.56l15.37 14.13m-8.49-30.11l15.37 14.13"/></g><g><path d="M34.7,254.71l15.37,14.12a66.43,66.43,0,0,1,44.09-21.51L78.79,233.2A66.38,66.38,0,0,0,34.7,254.71Z"/><path d="M47.59 243.78l15.36 14.12m-.67-21.29l15.37 14.12"/></g><g><use xlink:href="#BE"/><path d="M102.41 235.11l15.37 14.13"/></g></g><use xlink:href="#BF"/></g><use xlink:href="#BF"/></g><g><g clip-path="url(#AA)" class="Ap"><g class="B"><g><path d="M97.78,337l15.36,14.13a48.78,48.78,0,0,1-10.93,10.12L86.84,347.12A48.86,48.86,0,0,0,97.78,337Z"/><path d="M94.21 340.99l15.37 14.12m-19.01-10.75l15.36 14.13"/></g><g><path d="M86.84 347.12l15.37 14.12q-10.21 6.76-24.46 8l-15.37-14.12q14.2-1.24 24.46-8z"/><path d="M79.56 351.01l15.37 14.13m-23.52-11.46l15.37 14.12"/></g><g><path d="M62.38,355.12l15.37,14.12q-21,1.85-35.94-11.45L26.44,343.66Q41.37,357,62.38,355.12Z"/><path d="M49.05 354.66l15.36 14.13m-27.34-17.94l15.37 14.12"/></g><use xlink:href="#BD"/></g><use xlink:href="#BG"/></g><use xlink:href="#BG"/></g><g><g clip-path="url(#AB)" class="Ap"><g class="B"><use xlink:href="#BE"/><path d="M119.68 245.54l15.37 14.12"/></g><use xlink:href="#BH"/></g><use xlink:href="#BH"/></g><g><g clip-path="url(#AC)" class="Ap"><g class="B"><g><path d="M95.85 269.59l15.37 14.12q-6.16-8.25-18.31-7.2l-15.36-14.12q12.14-1.06 18.3 7.2z"/><path d="M91.08 265.12l15.36 14.12m-21.46-16.52l15.36 14.12"/></g><g><path d="M77.55 262.39l15.36 14.12a27.82 27.82 0 0 0-15.64 6.38L61.9 268.77a27.75 27.75 0 0 1 15.65-6.38z"/><path d="M71.86 263.44l15.37 14.13m-20.58-12l15.37 14.12"/></g><g><path d="M61.9 268.77l15.37 14.12q-10.69 8.76-12.43 27.61l-15.37-14.13q1.74-18.84 12.43-27.6z"/><path d="M55.77 275.73l15.37 14.12m-19.51-4.92l15.36 14.12"/></g><g><path d="M49.47 296.37l15.37 14.13q-1.47 15.9 4.16 23.28l-15.34-14.13q-5.66-7.38-4.19-23.28z"/><path d="M49.29 306.03l15.36 14.12m-13.97-6.36l15.37 14.12"/></g><path d="M53.66,319.65,69,333.78q5.64,7.38,18.88,6.23L72.54,325.88Q59.3,327,53.66,319.65Z"/></g><use xlink:href="#BI"/></g><use xlink:href="#BI"/></g><g><g clip-path="url(#AD)" class="Ap"><g class="B"><g><path d="M86.4 320.51l15.37 14.13Q114.25 326 116 307.12L100.63 293q-1.74 18.84-14.23 27.51z"/><path d="M93.53 313.61l15.37 14.12m-10.63-23.3l15.37 14.12"/></g><g><path d="M100.63 293L116 307.12q1.4-15.15-4.77-23.41l-15.38-14.12q6.15 8.27 4.78 23.41z"/><path d="M100.72 283.66l15.36 14.13m-16.95-21.93l15.36 14.12"/></g><path d="M95.85 269.59l15.37 14.12q-6.16-8.25-18.31-7.2l-15.36-14.12q12.14-1.06 18.3 7.2z"/></g><use xlink:href="#BJ"/></g><use xlink:href="#BJ"/></g><g><g clip-path="url(#AE)" class="Ap"><g class="B"><g><path d="M53.66,319.65,69,333.78q5.64,7.38,18.88,6.23L72.54,325.88Q59.3,327,53.66,319.65Z"/><path d="M58.26 323.63l15.37 14.12m-9.08-12.05l15.37 14.13"/></g><g><path d="M72.54 325.88L87.91 340a28.12 28.12 0 0 0 13.86-5.37L86.4 320.51a28 28 0 0 1-13.86 5.37z"/><path d="M77.26 325.01l15.37 14.12m-10.75-15.91l15.37 14.12"/></g></g><use xlink:href="#BK"/></g><use xlink:href="#BK"/></g><g><g clip-path="url(#AF)" class="Ap"><use xlink:href="#BL"/></g><use xlink:href="#BL"/></g><g><g clip-path="url(#AG)" class="Ap"><use xlink:href="#BM"/></g><use xlink:href="#BM"/></g><g><g clip-path="url(#AH)" class="Ap"><g class="B"><use xlink:href="#BN"/><g><path d="M157.12 393.94l15.36 14.12q-13.74-14.49-11.66-37l-15.36-14.16q-2.08 22.53 11.66 37.04z"/><path d="M149.71 383.38l15.37 14.13m-19.25-26.48l15.36 14.13"/></g><g><path d="M145.46 356.9l15.36 14.1a63.94 63.94 0 0 1 9.18-27.79l-15.36-14.12a63.64 63.64 0 0 0-9.18 27.81z"/><path d="M147.1 347.13l15.36 14.12m-12.29-23.4l15.36 14.13"/></g><g><path d="M154.67 329.09L170 343.21a55.33 55.33 0 0 1 21.31-20.07L176 309a55.23 55.23 0 0 0-21.33 20.09z"/><path d="M160.51 321.18l15.37 14.12m-8.27-20.81l15.37 14.12"/></g></g><use xlink:href="#BO"/></g><use xlink:href="#BO"/></g><g><g clip-path="url(#AI)" class="Ap"><g class="B"><g><path d="M263.8 319.54l15.37 14.12q5.47 11.61 4.08 26.65l-15.37-14.12q1.38-15.03-4.08-26.65z"/><path d="M266.68 327.66l15.37 14.12m-14.01-5.24l15.37 14.13"/></g><g><path d="M267.88 346.19l15.37 14.12q-2.08 22.54-20 39.81L247.87 386q17.94-17.26 20.01-39.81z"/><path d="M264.73 360.63l15.37 14.12m-22.04-.85l15.37 14.13"/></g><g><path d="M247.87,386l15.37,14.12Q245.32,417.4,215.76,420L200.4,405.86Q230,403.27,247.87,386Z"/><path d="M234.63 395.88L250 410.01m-31.2-7.51l15.37 14.13"/></g><g><use xlink:href="#BN"/><path d="M182.46 405.68l15.37 14.13m-29.8-18.1l15.37 14.12"/></g></g><use xlink:href="#BP"/></g><use xlink:href="#BP"/></g><g><g clip-path="url(#AJ)" class="Ap"><g class="B"><g><path d="M176,309l15.37,14.12q-12-7.5-14.92-17.21l-15.37-14.12Q164,301.52,176,309Z"/><path d="M164 298.03l15.37 14.13"/></g><g><path d="M161.05 291.81l15.37 14.12a48.26 48.26 0 0 1-2.11-18.45l-15.37-14.12a48.28 48.28 0 0 0 2.11 18.45z"/><path d="M159.52 285.44l15.36 14.13m-16.06-20.28l15.36 14.13"/></g><g><path d="M158.94 273.36l15.37 14.12Q176.1 268 191.84 253l-15.36-14.13q-15.75 15.02-17.54 34.49z"/><path d="M161.69 260.88L177.05 275m-9.52-25.61l15.37 14.12"/></g><g><path d="M176.48 238.89L191.84 253q15.75-15 42.16-17.3l-15.37-14.13q-26.39 2.31-42.15 17.32z"/><path d="M188.16 230.3l15.37 14.12m-1.31-19.9l15.37 14.13"/></g><g><use xlink:href="#BQ"/><path d="M234.79 221.67l15.36 14.13M248 225.06l15.36 14.13"/></g></g><use xlink:href="#BR"/></g><use xlink:href="#BR"/></g><g><g clip-path="url(#AK)" class="Ap"><g class="B"><path d="M176,309l15.37,14.12q-12-7.5-14.92-17.21l-15.37-14.12Q164,301.52,176,309Z"/><path d="M168.97 303.77l15.37 14.12"/></g><use xlink:href="#BS"/></g><use xlink:href="#BS"/></g><g><g clip-path="url(#AL)" class="Ap"><g class="B"><use xlink:href="#BQ"/><g><path d="M258.28 231.74l15.36 14.12q13.23 12.46 11.43 31.93l-15.37-14.12q1.8-19.47-11.42-31.93z"/><path d="M265.42 240.82l15.37 14.13m-11.56-3.48l15.37 14.12"/></g><g><path d="M269.7 263.67l15.37 14.12a59.66 59.66 0 0 1-5.56 19.12l-15.37-14.12a59.47 59.47 0 0 0 5.56-19.12z"/><path d="M268.73 269.68l15.37 14.12m-17.22-7.75l15.36 14.12"/></g><g><path d="M264.14 282.79l15.37 14.12q-4.74 10.38-18.18 18.88L246 301.67q13.38-8.51 18.14-18.88z"/><path d="M260.01 289.5l15.37 14.12m-21.43-7.83l15.37 14.12"/></g></g><use xlink:href="#BT"/></g><use xlink:href="#BT"/></g><g><g clip-path="url(#AM)" class="Ap"><g class="B"><use xlink:href="#BU"/><path d="M259.39 312.39l15.37 14.12"/></g><use xlink:href="#BV"/></g><use xlink:href="#BV"/></g><g><g clip-path="url(#AN)" class="Ap"><g class="B"><use xlink:href="#BU"/><path d="M253.45 306.43l15.36 14.12"/></g><path d="M270.83,322.28a41.89,41.89,0,0,0-9.5-6.49L246,301.67a41.72,41.72,0,0,1,9.49,6.49Z"/></g><path d="M270.83,322.28a41.89,41.89,0,0,0-9.5-6.49L246,301.67a41.72,41.72,0,0,1,9.49,6.49Z"/></g><g><g clip-path="url(#AO)" class="Ap"><g class="B"><g><use xlink:href="#BW"/><path d="M222.7 323.32l15.36 14.13m-21.32-15.95l15.37 14.12"/></g><g><path d="M209.57 321.34l15.37 14.13a29.44 29.44 0 0 0-19.17 8.71l-15.37-14.13a29.46 29.46 0 0 1 19.17-8.71z"/><path d="M202.26 322.77l15.37 14.12m-21.76-11.22l15.37 14.12"/></g><g><path d="M190.4 330.05l15.37 14.13q-7.52 7.68-8.78 21.36l-15.37-14.13q1.26-13.66 8.78-21.36z"/><path d="M186.08 335.84l15.37 14.12m-18.29-7l15.37 14.13"/></g><g><path d="M181.62 351.41L197 365.54q-1.22 13.17 4.85 19.85l-15.36-14.12q-6.08-6.67-4.87-19.86z"/><path d="M181.62 359.47l15.37 14.13m-13.75-7.51l15.37 14.13"/></g><path d="M186.48 371.27l15.36 14.12q6.07 6.67 18 5.64l-15.37-14.12q-11.91 1.04-17.99-5.64z"/></g><use xlink:href="#BX"/></g><use xlink:href="#BX"/></g><g><g clip-path="url(#AP)" class="Ap"><g class="B"><g><path d="M223.77 368l15.37 14.12q7.41-7.86 8.62-21L232.39 347q-1.21 13.14-8.62 21z"/><path d="M228.02 362.18l15.37 14.12m-12.5-21.14l15.37 14.13"/></g><g><path d="M232.39 347l15.37 14.13q1.26-13.68-4.95-20.16l-15.37-14.13q6.21 6.45 4.95 20.16z"/><path d="M232.4 338.65l15.37 14.13m-17.02-20.85l15.37 14.13"/></g><use xlink:href="#BW"/></g><use xlink:href="#BY"/></g><use xlink:href="#BY"/></g><g><g clip-path="url(#AQ)" class="Ap"><g class="B"><g><path d="M186.48 371.27l15.36 14.12q6.07 6.67 18 5.64l-15.37-14.12q-11.91 1.04-17.99-5.64z"/><path d="M191.17 374.86l15.37 14.13m-9.37-12.25l15.36 14.13"/></g><g><path d="M204.45 376.91L219.82 391q11.91-1 19.32-8.9L223.77 368q-7.41 7.86-19.32 8.91z"/><path d="M211.89 375.45l15.37 14.13m-8.93-17.09l15.37 14.12"/></g></g><use xlink:href="#BZ"/></g><use xlink:href="#BZ"/></g><g><g clip-path="url(#AR)" class="Ap"><g class="B"><g><path d="M196.18 289.77l15.36 14.13q5.34 5.64 15.81 4.72L212 294.5q-10.49.92-15.82-4.73z"/><path d="M200.3 292.81l15.37 14.12m-10.1-12.55l15.37 14.13"/></g><g><path d="M212 294.5l15.36 14.12q10.6-.92 17-7.59L229 286.91q-6.42 6.66-17 7.59z"/><path d="M218.58 293.24l15.37 14.13m-9.72-16.66l15.37 14.13"/></g><g><path d="M228.94 286.91L244.3 301a26.6 26.6 0 0 0 7.25-16.4l-15.37-14.1a26.67 26.67 0 0 1-7.24 16.41z"/><path d="M232.56 282.12l15.37 14.13m-12.95-19.59l15.36 14.12"/></g><g><path d="M236.18 270.5l15.37 14.13q1-10.59-4.25-16.06l-15.37-14.12q5.22 5.46 4.25 16.05z"/><path d="M236.14 264.01l15.37 14.13m-16.79-19.48l15.37 14.12"/></g><use xlink:href="#Ba"/></g><use xlink:href="#Bb"/></g><use xlink:href="#Bb"/></g><g><g clip-path="url(#AS)" class="Ap"><g class="B"><g><path d="M199.17 257.31l15.36 14.13q-6.47 6.48-7.43 17.08l-15.37-14.13q.98-10.59 7.44-17.08z"/><path d="M195.47 262.09l15.36 14.13m-17.84-8.43l15.36 14.12"/></g><g><path d="M191.73 274.39l15.37 14.13q-.9 9.74 4.44 15.38l-15.36-14.13q-5.35-5.64-4.45-15.38z"/><path d="M191.82 280.43l15.37 14.13m-13.88-9l15.36 14.12"/></g><path d="M196.18 289.77l15.36 14.13q5.34 5.64 15.81 4.72L212 294.5q-10.49.92-15.82-4.73z"/></g><use xlink:href="#Bc"/></g><use xlink:href="#Bc"/></g><g><g clip-path="url(#AT)" class="Ap"><g class="B"><g><use xlink:href="#Ba"/><path d="M227.84 251.51l15.37 14.12m-20.65-15.64l15.37 14.13"/></g><g><path d="M216.09 249.9l15.37 14.1q-10.47.93-16.93 7.42l-15.36-14.13q6.45-6.47 16.92-7.39z"/><path d="M209.56 251.13l15.36 14.12m-21-11.65l15.36 14.12"/></g></g><use xlink:href="#Bd"/></g><use xlink:href="#Bd"/></g><g><g clip-path="url(#AU)" class="Ap"><use xlink:href="#Be"/></g><use xlink:href="#Be"/></g><g><g clip-path="url(#AV)" class="Ap"><use xlink:href="#Bf"/></g><use xlink:href="#Bf"/></g><g><g clip-path="url(#AW)" class="Ap"><path d="M410.25 207.99l15.36 14.12-2.74 29.81-15.37-14.12 2.75-29.81z"/></g><path d="M410.25 207.99l15.36 14.12-2.74 29.81-15.37-14.12 2.75-29.81z"/></g><g><g clip-path="url(#AX)" class="Ap"><path d="M407.5 237.8l15.37 14.12-71.93 6.3-15.36-14.13 71.92-6.29z"/></g><path d="M407.5 237.8l15.37 14.12-71.93 6.3-15.36-14.13 71.92-6.29z"/></g><g><g clip-path="url(#AY)" class="Ap"><path d="M335.58 244.09l15.36 14.13-9.89 39.6-15.37-14.12 9.9-39.61z"/></g><path d="M335.58 244.09l15.36 14.13-9.89 39.6-15.37-14.12 9.9-39.61z"/></g><g><g clip-path="url(#AZ)" class="Ap"><g class="B"><use xlink:href="#Bg"/><path d="M289.81 374.16l15.36 14.13m-20.16-26.54l15.37 14.13"/></g><path d="M296.51,382.44q-13.35-12.26-12.87-35.92L299,360.64q-.47,23.67,12.87,35.93Z"/></g><path d="M296.51,382.44q-13.35-12.26-12.87-35.92L299,360.64q-.47,23.67,12.87,35.93Z"/></g><g><g clip-path="url(#Aa)" class="Ap"><g class="B"><g><path d="M394.11 282.72l15.36 14.13q14.88 13.47 12.26 41.93l-15.37-14.12q2.64-28.45-12.25-41.94z"/><path d="M402.08 293.37l15.37 14.13m-11.28-.15l15.36 14.13"/></g><g><path d="M406.36 324.66l15.37 14.12q-2.28 24.77-19.72 45.6l-15.37-14.12q17.43-20.83 19.72-45.6z"/><path d="M403.16 340.73l15.36 14.12m-21.94 1.08l15.37 14.12"/></g><g><path d="M386.64 370.26L402 384.38q-17.44 20.83-48.64 23.56L338 393.82q31.2-2.73 48.64-23.56z"/><path d="M373.48 382.14l15.37 14.12m-31.58-6.27l15.37 14.12"/></g><g><path d="M338 393.82l15.36 14.12q-25.11 2.21-40-10.06L298 383.76q14.9 12.24 40 10.06z"/><path d="M322.4 393.68l15.37 14.12m-28.7-17.48l15.37 14.13"/></g><use xlink:href="#Bg"/></g><use xlink:href="#Bh"/></g><use xlink:href="#Bh"/></g><g><g clip-path="url(#Ab)" class="Ap"><g class="B"><g><path d="M325.68 283.7l15.37 14.12a90.54 90.54 0 0 1 13.14-8.12l-15.37-14.12a90.18 90.18 0 0 0-13.14 8.12z"/><path d="M330.91 280.13l15.37 14.12m-10.99-16.83l15.37 14.13"/></g><g><path d="M338.82 275.58l15.37 14.12a57.75 57.75 0 0 1 18.57-4.43l-15.37-14.12a57.82 57.82 0 0 0-18.57 4.43z"/><path d="M344.34 273.54l15.37 14.12m-9.18-15.6l15.37 14.12"/></g><g><path d="M357.39 271.15l15.37 14.12q21.84-1.9 36.71 11.58l-15.36-14.13q-14.88-13.48-36.72-11.57z"/><path d="M371.18 271.59l15.36 14.12m-3.12-10.27l15.36 14.13"/></g></g><use xlink:href="#Bi"/></g><use xlink:href="#Bi"/></g><g><g clip-path="url(#Ac)" class="Ap"><path d="M283.63 346.52l34.49-3.02 15.37 14.12-34.49 3.02-15.37-14.12z"/></g><path d="M283.63 346.52l34.49-3.02 15.37 14.12-34.49 3.02-15.37-14.12z"/></g><g><g clip-path="url(#Ad)" class="Ap"><g class="B"><g><use xlink:href="#Bj"/><path d="M328.53 363.55l15.36 14.13m-9.9-12.54l15.37 14.12"/></g><g><path d="M340.76 365.23l15.37 14.12a27.73 27.73 0 0 0 20.41-10.89l-15.36-14.12q-7.57 9.77-20.42 10.89z"/><path d="M348.74 363.52l15.37 14.12m-8.57-17.75l15.37 14.12"/></g><g><path d="M361.18 354.34l15.36 14.12q7.57-9.76 8.86-23.69L370 330.65q-1.25 13.92-8.82 23.69z"/><path d="M365.52 347.36l15.37 14.13m-12.41-22.02l15.37 14.12"/></g><g><path d="M370 330.65l15.36 14.12q1.26-13.66-4.17-22.55l-15.33-14.12q5.43 8.9 4.14 22.55z"/><path d="M370.13 322.07l15.37 14.12m-16.76-21.64l15.36 14.13"/></g><path d="M365.86 308.1l15.37 14.12q-5.44-8.87-18.76-7.7L347.1 300.4q13.32-1.17 18.76 7.7z"/></g><use xlink:href="#Bk"/></g><use xlink:href="#Bk"/></g><g><g clip-path="url(#Ae)" class="Ap"><g class="B"><g><path d="M318.12 343.5l15.37 14.12q1 11.28 6.25 17l-15.36-14.12q-5.25-5.71-6.26-17z"/><path d="M319.27 350.4l15.36 14.12m-13.28-8.45l15.37 14.12"/></g><use xlink:href="#Bj"/></g><use xlink:href="#Bl"/></g><use xlink:href="#Bl"/></g><g><g clip-path="url(#Af)" class="Ap"><g class="B"><g><path d="M365.86 308.1l15.37 14.12q-5.44-8.87-18.76-7.7L347.1 300.4q13.32-1.17 18.76 7.7z"/><path d="M361.36 303.3l15.37 14.13m-21.62-16.7l15.36 14.13"/></g><g><path d="M347.1 300.4l15.37 14.12a36.54 36.54 0 0 0-11.06 2.56L336.05 303a36.19 36.19 0 0 1 11.05-2.6z"/><path d="M343.07 300.92l15.37 14.13m-19.06-13.27l15.37 14.12"/></g><g><path d="M336.05 303l15.36 14.13a28.05 28.05 0 0 0-13.24 12L322.8 315a28.13 28.13 0 0 1 13.25-12z"/><path d="M330.85 305.92l15.36 14.13m-19.78-10.12l15.37 14.13"/></g></g><use xlink:href="#Bm"/></g><use xlink:href="#Bm"/></g><g><g clip-path="url(#Ag)" class="Ap"><path d="M322.8 314.98l15.37 14.13-30.9 1.24-15.37-14.13 30.9-1.24z"/></g><path d="M322.8 314.98l15.37 14.13-30.9 1.24-15.37-14.13 30.9-1.24z"/></g><g><g clip-path="url(#Ah)" class="Ap"><path d="M291.9 316.22l21.46-99.75 15.36 14.12-21.45 99.76-15.37-14.13z"/></g><path d="M291.9 316.22l21.46-99.75 15.36 14.12-21.45 99.76-15.37-14.13z"/></g><g><g clip-path="url(#Ai)" class="Ap"><path d="M313.36 216.47l96.89-8.48 15.36 14.12-96.89 8.48-15.36-14.12z"/></g><path d="M313.36 216.47l96.89-8.48 15.36 14.12-96.89 8.48-15.36-14.12z"/></g></g></svg>