<svg xmlns="http://www.w3.org/2000/svg" shape-rendering="geometricPrecision" text-rendering="geometricPrecision" viewBox="0 0 638 765"><path fill="#d9e0e2" d="M478.4 763c-1.5-1.1-2.5-2.8-2.5-3.6V758l-4-1.2c-2-.8-8.8-1.8-14.7-2.7l-10.9-1.3-14.2-5.5-1.7-4.4-34.2-1.6-14.4-3.8 1.5-1.3-6.7-4-11.6 1 3.8 2-1.9 3.8-7.7 2.1-4.5-1.2v-2a5 5 0 0 1 1.8-3.5c1-.8 1.5-1.4 1.2-1.4l-16-1.3c-8.3-.7-16.9-1.3-19-1.6-2 0-3.8-.4-5.6-1.1l-1.7-.8-1.9 2.7-3.8-.9c-2.2-.3-6.4-1.9-9.4-3.5l-5.8-2.8-14-1.6v-2.8l-3 3.6-5.4-2.7.9-3.8-5.8-2.3-1 .7c-.5.5-2.5.8-4.4 1a25 25 0 0 0-5.8 1l-2.4.9-2.1-5.5-1.7 3-6 .7-5.8.8-1 1c-.4.6-1.7 1-3 1h-2l-1.9-3c-1-1.6-2.3-3-3-3h-1.4l1.7 2.3c.7 1.4 1.5 3.5 1.5 4.8v2.5h-4.4l-6.2-5.2-2 1.5-7.3-4.5-10.9 1.4 1.7-6.8-2.4-1.5c-1.5-.8-3-1.5-3.7-1.5h-1l-2 11.4-4-.2h-4l-.9-5.3H173l-1.2-2.9-4.4 2.7c-1.7 1.1-3.5 2-5.4 2.6h-1.4v-3.8l-4 .8c-2.4.4-4.6 1.2-5 1.7-.5.6-2.4 1.3-4.2 1.8l-3.5.8v-1c0-.8-1-1.6-2.4-2l-2.3-.7 2.1 3-6.2-4.3-8.6.7-1-5.6-7.6 1.6-4.1-2.8-3.2 1.6-6.4-1.3c-3.6-.7-8.4-2-11-3-2.4-.8-7.6-2.3-11.2-3l-6.6-1.6-2.8 4h-4.4v-5.6l-8.7-1.9c-4.8-1-11.2-2.1-14-2.5l-5.4-.7 4.6 2.4h-8.3v-3.8l-7.6 1.4v-2.6l-7.9 1.5 2-4.6-3.5-1c-1.8-.3-6.4-.9-10-1l-6.7-.1-1.9-2.8-2.3.1q-1.2.2.7-677.9l6.5 1.6L8 12.2l4 4.4c2.3 2.4 6.8 7.2 10.2 10.4l6 6 8.5 3.5a52 52 0 0 0 11 3.7h2.5l4.2 7.7 9.4 7.5-1 2.1c-.6 1.3-2.3 3-4 4L56 63l3.3 2.6v7.8l1.8.8c1 .6 3.6.8 5.8.7l3.7-.3 4.6 2.3v9.9l12.1 3.3 5-1.3 1.7 3.4 6.2-1.2-1.4-1.6h6v2.8l3.9 1.2 14.2-1.3-1.5-1.8 6.8-2.6c3.8-1.4 8-3.4 9.3-4.5l2.4-1.8h8.8l8 6.4c4.3 3.6 10.8 8.2 14.4 10.4l6.5 4 4.3-2.8 2.8 1.4 1.3-2.7 10 1.7 5.4 10.1 9.4 1.6 1.7 3.2c2.7 5.5 9.2 15 12.9 18.8l3.3 3.5 1 6.9-11.6 2a61.5 61.5 0 0 0-12.9 3l-1.2 1 2.9-.9c1.6-.4 7.4-1.4 12.8-2.1l10-1.3 9.1 1.8-5.4 1.6 3 2.2c1.8 1.3 3.2 2.7 3.2 3.2v1l-4 .8q-2.5.3-28.5 5.6l3.7 1v2.3c0 1.2.3 2.2.6 2.2q.5 0 25.8-9.5h10.7l-3.3 1.8.3 2.6c.2 1.6.8 3.1 1.4 3.6l1 .8 1.4-1.6c.9-1 1.5-1.6 1.7-1.2l1.2 7.1-2.8-1.3 1.6 3.6c.9 1.9 2.8 4.4 4.3 5.4l2.8 2 10.3 1.1c5.6.6 15.7 2.2 22.3 3.5 13.6 2.7 14.8 2.8 11.6 1.2l-2.3-1.2h6.6l2-2.6 5.7 1.1 9.1-3.5 9.4 1.6 2.3 4.2c2.3 4.5 6.7 9.9 12 14.6 2.7 2.9 5 6 6.8 9.5q2 3.6 9.8 16.1l26.6 1.8 7.2 4.1-1 12 9.8 6.7-2.1 9.1 4.7 3.6-.3 14c-.2 7.8-.6 16-1 18.4l-.4 4.4 4.1 1.2v3.7l-6.2 4.9 4 3a15 15 0 0 0 5.4 2.8c1.4 0 1.5.5 1.8 5.1l.2 2.6 6.2 2.4.9 9.8-3 6.3c-4.3 8.8-3 8.8 2 0l3.9-7.3 6.8.7-.9 2.2 6.5 2 1.5 4.7h4.3l-.7 7.2h-2c-3.3 0-1.9 1.6 4.5 5.3l6.2 3.6 4.8 7.6 3 1.2c1.7.7 5.7 2 8.7 3l5.6 1.7 1 3.4c.5 1.7 2 5.3 3.4 7.8l2.6 4.5 5.9-1.2 8.5 4v6.2l5.3 4.3c5.3 4.3 8.3 5.5 8.3 3.4v-1.1l8.9-2.9 1.6-3.3 5.1 1.6-1.9-2.5 4.5-2.9 6.4-.3c7.5-.4 10.7-.9 11.8-2l.7-.8 5.6 1.8 5.6 1.8 1 3.7a50.8 50.8 0 0 0 10.1 17.4h1l1.1 4.2c.5 2.3 2.4 7.5 4.3 11.6l3.3 7.4 5.2-.7 5 1.8c2.5 1 7.2 2 10.1 2.4l5.2.6 5.3 5.4-1.6 7.9 3.1 2.9v14.2c0 4.7-1.2 29.6-1.5 30.3-.2.3 0 1.5.1 2.8l.3 2.2-3.3-1.6v7.2l5.6 2.3 3.6-2.8 7.3 6.5h6.2v3.1l4.6 2.6c2.5 1.6 4.5 3.2 4.5 4 0 .6-2.6 3.3-6 6.1-3.1 2.8-6 5.8-8.7 9l-3 3.9 3.3 9.6-4.5 3.2a62 62 0 0 0-15 15.3l-2.6 4 3.2 3.1-2 1.5h3.5v8l-10.6 5 1.6 3.4-3.4 2c-1.9 1-4.6 1.8-5.8 1.8h-2.6l-3.6 3.1c-2 1.7-5.2 3.6-7 4.2l-3.5 1-.1 2.6a15 15 0 0 0 .1 4c.2.6.3 2.1.5 3.2l.1 2.1h2.5l-2.3 4.4c-2.9 5.4-2.1 4.9-8.3 5.7l-5.3.7-23.8 9.4h-6.1l-8.8 6.6-1 4.1q-.5 2.3-41.1 50.2l.4 2.7h2.3c1.2 0 3.2.6 4.3 1.4l1.8 1.5v3.9c0 2.1-.6 5.7-1.4 7.8l-1.5 3.8h2.9v3.5c0 4.1-2.8 10.8-5.6 13.3l-2.1 2 2.4.7c1.3.4 4 .7 5.9.7h3.3l4.9 3 1.8 6.5h-4.9l-4.5 3c-5.3 3.6-6 3.6-9.3.8Z"/><path fill="#a73a24" d="m90.4 320.8.3-.6-2.5.3-2.5.4-.7-1-.8-1 .6-1.2.6-1.3-3.8.8-3.8.7-.5-.6-.6-.5.5-.5c.3-.3 3.7-1.2 7.4-2 3.8-.9 8.5-2 10.5-2.7l3.5-1.2v-1l.4-28.3.5-1 .4-1h-.4c-.3 0-2.1 2.4-4 5.2s-4.3 6-5.3 7l-1.8 1.8-2-2 1.6-3 1.5-3 5.4-7.2 5.4-7.1.6-2.4.7-2.4 1.4-.7 1.4-.6 1.7-2.8 1.8-2.8.6.3.7.2.2 1.4.2 1.5 1-.3 1.2-.3.4.9.2.8-.8 1.7c-.4.8-1.9 2.8-3.2 4.3l-2.3 2.6v4c0 2-.4 7.4-1 11.8l-1.2 13.7-.4 5.7-.5.7-.4.7h.3c.3 0 2-.4 3.9-1l3.4-.8 2.1.2 2 .2v1.6l-1.6 1a15 15 0 0 0-2.9 2c-.7.7-2.8 2-4.7 3l-3.4 1.7-1.1 3.8-1 .1-1 .3-1.5-2-3.3 1.2c-3.6 1.4-4 1.5-3.4.7Zm59.3-8.8-3-1.4-3.4-4.8-.9-2.9-.8-2.9v-4.8l-.1-5-1.6 3.9-1.7 3.9-3.2 4.7-3.2 4.9-1.9 1.4-1.7 1.4 1 .4c1 .4 1.3 1.4.3 1.4l-10.6-4.7-2.5-1-3.4-4-.7-2.4-.6-2.4.3-4 .3-4.2 2.3-7 2.4-7 1.7-3c1.2-2 2.6-4 4-5.8l2.2-2.8 4.2-2.6 2.7.7 2.6.7 2.1 2 2 2 2 4 1.7 4 .5 5.5c.2 3 .5 5.1.5 4.6.7-2 1.6-4 2.6-6l2.5-5 2.5-3.6 2.6-3.4 5.4-3.6 2.4-.3 2.4-.4 3.3 1.1c1.8.7 4 1.7 5 2.4l1.6 1.2 1.2 2.4 1.2 2.5.3 6 .4 5.9-1 3.9-.9 3.8-1.4 3a63 63 0 0 1-4.3 6.7l-2.8 3.7-6.8 6.6-2 .8c-1.2.4-2.7.8-3.4.8h-1.3l-3-1.3Zm-20.8-7 1.7-2 2-4.4c1.3-2.4 3.2-7 4.4-10.3l2.3-6v-5.2l-1-2.7-.9-2.7-3.4-2.8h-3.3l-1.7 2.3-1.7 2.4-1.8 4.5-1.7 4.4-.5 3.8-.6 3.7.6 5.3.5 5.2 1 2.9c1.4 4.5 1.6 4.6 4 1.6h.1Zm28.4-2.8 2.4-1.3 4-4.3 3.9-4.2 1.5-3c.8-1.8 2-4.4 2.4-5.9l1-2.7v-1.9c0-1-.2-2.7-.4-3.7l-.4-1.8-1.5-1.7-1.6-1.7h-4.1l-2.3 1.4-2.2 1.5-2.4 3.3a48 48 0 0 0-4 6.2l-1.4 3h-1l.3-1c.1-.5.5-1.9.6-3 .6-2.4 3.4-8 4.6-9l.9-.8v-2.2h-2l-1.6 2c-2.4 3-6 9.9-7.6 14.6l-1.6 4.3v9.9l1 1.2c.7.7 2 1.6 3 2l1.6.8 4.6-.6 2.3-1.4ZM92 359.7l-4.2-1.3-3.2-1.7-3.1-1.7-3.8-3.7-3.7-3.7-4-5.7-4.2-5.8-7.6-6-5.2-6.4-1.7-3.5-1.6-3.5-.8-4-.9-3.8v-7.5l.6-3.4c.3-1.9 1.4-5.8 2.4-8.8l1.7-5.4 3.7-7.4L60 269l4-5.5c2.2-3 5.2-7.4 6.7-9.9 6-10 13.3-18.6 21.4-25l4.2-3.4 4.6-2.2 4.6-2.1 3.4-.7c2-.3 3.9-.8 4.3-.9 1-.3 15.8-.4 33.8-.1l12.3.2 4.6 1.6a72 72 0 0 1 8 3.4l3.4 1.7 4.3 4.4 4.4 4.2 2.7 4.6c1.4 2.5 3.4 6.5 4.4 8.8l1.8 4.3 1.2 5.4 1.2 5.5v26.2l-1.2 7.1c-.7 4-1.8 8.8-2.5 11l-1.1 3.7.6 1.8h-1l-3.5 7.1-3.5 7-3.3 3.6-3.2 3.4-4 2.7c-2.1 1.4-6.3 3.8-9.1 5.3L158 345l-5 1.8-5 1.7-3.8.7-3.9.6-6.9 2.8a168 168 0 0 1-23 7.7l-4.2.8h-10l-4.2-1.3v-.1Zm20.9-3.1 10.8-3.7 6.9-2.4-2-.4c-1-.2-6.8-.7-12.8-1-20.6-1.3-30.4-3.2-40-7.8-1.6-.7-3-1.4-3.4-1.4H72l3.5 4.6 3.6 4.6 2.8 2.2 2.8 2.3 3.1 1.4c1.7.8 4.4 1.9 6 2.3l3.1.9 6-.3 6-.2 4-1.1Zm63.4-28.8 3-3 3-2.8 1.9-4.6 1.9-4.5.5-5.5.8.5.7-2c1-3.5 2.3-12.5 2.7-18.6l.3-5.8-1-5.7-.8-5.7-3-8.5-2.8-8.4-1.9-3.9-1.9-3.7-6.2-8-3.3-2.6a53 53 0 0 0-21.4-10.6l-4.8-1.3h-2.1c-1.2 0-4 .2-6.5.6l-4.4.7v.4c0 .2 1.9 1 4.3 1.7l4.4 1.3 3 2 3 1.8.7 1.8.7 1.7-.6 2.1-.6 2 1.4 1h-2l-.3 1c-.2.6-.8 1.5-1.5 2.1l-1.1 1-.7-.7.8-1a14 14 0 0 0 2.2-6.8v-1.7l-1-.9a33 33 0 0 0-10.3-4.7l-4.8-1.4h-3.4c-1.8 0-3.7.1-4.2.3l-1 .3.4.5.3.4-1-.2-1.1-.3-6.2 3.2-6.3 3-6.3 4.2-6.2 4.2-7.6 7.6-2 3.2c-1 1.7-2.1 3.2-2.4 3.2-1 0-.3-1.7 2.3-5.9l2.7-4.3 2.8-3a61 61 0 0 1 12.4-9.9 27 27 0 0 0 4.4-3.1c-7.4 3-14.3 7.3-20.3 12.5l-3.6 3-5 5.8-5.2 6-2.4 4c-3 5.1-7 14.6-9.9 22.8l-2 6-.6 4.7-.7 4.6.6 5c.4 2.6 1.2 6.8 1.8 9.2l1.1 4.5 1.8 3.7c.9 2 2.7 5.5 4 7.7l2.3 4.1 10 5.2 12 4 5.7.9c3.1.5 10.3 1.2 16 1.7l10.3.8h17.4l36.8-18.9Zm54.9 324.4c-.1 1-.9 2-2.1 2h-11.2v4.8h-1.5v-12.5h12.8c1 0 2 .9 2 2v3.7Zm-1.7.4c.2-.1.2-.3.2-.4v-3.5c0-.2 0-.4-.2-.5-.1-.2-.3-.2-.4-.2h-11.2v4.7h11.2l.4-.2v.1Zm4 6.4v-12.6h1.5V659h-1.5Zm19.1-12.6V659H250l-10.3-11.1h-.4V659h-1.5v-12.5h2.7l10.2 11h.5v-11.1h1.4Zm7.8 5.5h8.2c1 .1 2 1 2 2.1v1.9l-.1 1.2c0 1-.9 2-2 2a99 99 0 0 1-10.9 0c-1.1-.1-2-.9-2-2.1-.2-2.8-.2-5.7 0-8.6 0-1.1.9-2 2-2a99 99 0 0 1 10.9 0c1.1 0 2.1.9 2.1 2v1.1h-1.5v-1l-.2-.5c-3.7-.2-7.5-.3-11.2-.2l-.5.2c-.2 3.1-.2 6.3 0 9.4 3.7.3 7.5.3 11.2.2.2 0 .3 0 .5-.2l.2-.5v-2.7c0-.2 0-.4-.2-.5-.1-.1-.3-.3-.5-.3h-8v-1.5Zm13.2 7.1v-11.1h-1v-1.4h13.7c1 0 2 .9 2 2v8.5c0 1-1 2-2 2h-12.7Zm13.3-2v-8.3l-.2-.5c-.2-.2-.3-.2-.5-.2H275v9.6h11.3c.2 0 .3 0 .5-.2l.2-.4h-.1Zm6.5-9.1-.5.2c-.2 3.1-.2 6.3 0 9.4 3.7.3 7.5.3 11.2.2l.5-.1c.2-3 .3-6 .2-9l-.2-.5-5.8-.3-5.4.1Zm10.9-1.4c1 0 2 .9 2 2 .1 2.9.1 5.7 0 8.7 0 1-1 2-2 2-3.7.2-7.3.2-11 0-1.1-.1-2-.9-2-2.1-.2-2.8-.2-5.7 0-8.6 0-1.1.9-2.1 2-2.1l11 .1Zm21.3-.1V659h-1.5v-11.1h-.2L318 659h-1.4l-5.9-11.1h-.3V659H309v-12.5h2.8l5.7 10.8 5.7-10.9h2.4Zm4.4-62.5h8.2c1 .1 2 1 2 2.1v1.9l-.1 1.2c0 1-.9 2-2 2a99 99 0 0 1-10.9 0c-1.1-.1-2-.9-2-2.1-.2-2.8-.2-5.7 0-8.6 0-1.1.9-2 2-2a99 99 0 0 1 10.9 0c1.1 0 2.1.9 2.1 2v1.1h-1.5v-1l-.2-.5c-3.7-.2-7.5-.3-11.2-.2l-.5.2c-.2 3.1-.2 6.3 0 9.4 3.7.3 7.5.3 11.2.2.2 0 .4 0 .5-.2.2-.1.2-.3.2-.5l.1-1v-1.7c-.1-.2-.1-.4-.3-.5-.1-.2-.2-.2-.5-.2h-8v-1.6Zm15-4.1-.5.2c-.2 3.1-.2 6.3 0 9.4 3.7.3 7.5.3 11.2.2l.5-.1c.2-3 .3-6 .2-9l-.2-.5-5.8-.3-5.4.1Zm-.1-1.4a99 99 0 0 1 10.9 0 2 2 0 0 1 2 2c.2 2.9.2 5.7 0 8.7 0 1-.9 2-2 2a99 99 0 0 1-10.9 0c-1.1-.1-2-.9-2-2.1-.2-2.8-.2-5.7 0-8.6 0-1.1.9-2.1 2-2.1v.1Zm18 1.4-.5.2c-.2 3.1-.2 6.3 0 9.4 3.7.3 7.5.3 11.2.2l.5-.1c.2-3 .3-6 .2-9l-.2-.5-5.8-.3-5.4.1Zm10.8-1.4a2 2 0 0 1 2 2c.2 2.9.2 5.7 0 8.7 0 1-.9 2-2 2a99 99 0 0 1-10.9 0c-1.1-.1-2-.9-2-2.1-.2-2.8-.2-5.7 0-8.6 0-1.1.9-2.1 2-2.1l10.9.1Zm9.8 5.6h8.2c1 .1 2 1 2 2.1v3c0 1-1 2-2 2-3.7.2-7.3.2-11 0-1-.1-2-.9-2-2.1-.2-2.8-.2-5.7 0-8.6 0-1.1 1-2 2-2 3.7-.2 7.3-.2 11 0 1 0 2 .9 2 2l.1 1.1h-1.6v-1l-.2-.5c-3.7-.2-7.5-.3-11.2-.2l-.5.2c-.2 3.1-.2 6.3 0 9.4 3.7.3 7.5.3 11.2.2.2 0 .4 0 .5-.2.1-.1.3-.3.3-.5v-2.7l-.2-.5c-.2-.2-.3-.2-.5-.2h-8.1V584Zm23.2 7h-10.3v-12.5h1.4v11h8.9v1.5Zm3.2-11.1v4.1h10.4v1.5h-10.4v4h10.4v1.5h-11.9v-12.6h11.9v1.5h-10.4Zm-70.1 17.6v3.7c-.1 1-.9 2-2.1 2h-11.2v4.8H325v-12.5h12.9c1 0 2 .9 2 2h-.1Zm-1.5 4.1.1-.4v-3.5l-.1-.5c-.2-.2-.4-.2-.5-.2h-11.2v4.7h11.2l.5-.2v.1Zm13.3 3.7h-9l-1.3 2.7h-1.6l5.8-12.6h3.2l5.8 12.6h-1.6l-1.3-2.7Zm-.7-1.5-3.1-7h-1.4l-3.2 7h7.7Zm9.9-2.8h8.1c1.1.1 2 1 2 2.1v3c0 1-1 2-2 2-3.7.2-7.3.2-11 0-1-.1-2-.9-2-2.1-.2-2.8-.2-5.7 0-8.6.1-1.1.9-2 2.1-2 3.6-.2 7.2-.2 10.8 0 1.2 0 2.1.9 2.2 2v1.1h-1.6v-1c0-.2 0-.4-.2-.5-3.7-.2-7.5-.3-11.2-.2l-.5.2c-.2 3.1-.2 6.3 0 9.4 3.8.3 7.5.3 11.3.2.1 0 .3 0 .4-.2.2-.1.3-.3.3-.5v-2.7l-.2-.5c-.1-.2-.3-.2-.5-.2h-8V601Zm14.3-4.1v4.1h10.3v1.5h-10.3v4h10.3v1.5h-11.8v-12.6h11.8v1.5h-10.3Zm33.1 5.5h-10.6a2 2 0 0 1-2-2v-3c0-1.1 1-2 2-2 3.5-.2 7-.2 10.6 0 1.1 0 2.1.9 2.1 2v1.1h-1.5v-1l-.2-.5c-3.6-.3-7.3-.3-10.9-.2l-.4.2c-.2.1-.3.3-.3.5v2.8c0 .2 0 .4.2.5l.5.2h10.6c1 0 2 1 2 2v1.9l-.1 1.2c0 1-.9 2-2 2h-10.6c-1.1-.1-2-.9-2.1-2.1v-1.1h1.5v1.1c0 .2.2.3.3.4 3.6.3 7.2.3 10.8.2.2 0 .4 0 .5-.2.2-.1.2-.3.2-.5v-2.8c0-.1 0-.4-.2-.4-.1-.2-.3-.2-.4-.2v-.1Zm19.5-1.2c-.1 1-.9 2-2.1 2h-11.2v4.8h-1.5v-12.5h12.8c1 0 2 .9 2 2v3.7Zm-1.6.4.2-.4v-3.5l-.2-.5c-.2-.2-.4-.2-.5-.2h-11.2v4.7h11.2l.5-.2v.1Zm5.5-4.7v4.1H442v1.5h-10.4v4H442v1.5h-12v-12.6h11.9v1.5h-10.3Zm14 0v4.1H456v1.5h-10.4v4H456v1.5h-11.7v-12.6h11.8v1.5h-10.5Zm13.3 11.1v-11.1h-1v-1.4h13.7c1 0 2 .9 2 2v8.5c-.1 1-.9 2-2.1 2h-12.6Zm13.3-10.3c-.1-.2-.1-.4-.3-.5-.1-.2-.2-.2-.4-.2h-11.2v9.5h11.2c.2 0 .4 0 .4-.2l.3-.4v-8.2Zm-351.9-27.8h8.2c1 .1 2 1 2 2.1v1.9l-.1 1.2c0 1-.9 2-2 2a99 99 0 0 1-10.9 0c-1.1-.1-2-.9-2-2.1-.2-2.8-.2-5.7 0-8.6 0-1.1.9-2 2-2a99 99 0 0 1 10.9 0c1.1 0 2.1.9 2.1 2v1.1H129v-1l-.2-.5c-3.7-.2-7.5-.3-11.2-.2l-.5.2c-.2 3.1-.2 6.3 0 9.4 3.7.3 7.5.3 11.2.2.2 0 .4 0 .5-.2l.2-.5v-2.7c0-.2 0-.4-.2-.5-.1-.2-.3-.2-.5-.2h-8v-1.6Zm23.5-4h-5.2V577h-1.5v-11.1H132v-1.4h11.8v1.4Zm15.7-1.5h2.6V577h-1.5v-11.1h-.2l-5.9 11.1H153l-5.7-11.1h-.3V577h-1.5v-12.6h2.6l5.7 10.8 5.8-10.7-.1-.1Zm7.1 1.5v4.1H177v1.5h-10.4v4H177v1.5h-12v-12.6h11.9v1.5h-10.3Zm23.4-1.5v1.5h-5.2V577h-1.5v-11.1h-5.2v-1.5H190Zm1.7.1h11.8a2 2 0 0 1 2 2v3.7c0 1-.9 2-2 2h-4l7 4.8h-2.7l-7-4.8h-3.6v4.8h-1.5v-12.5Zm11.7 1.5h-10.2v4.7h10.2l.5-.2c.2-.1.2-.3.2-.4v-3.5l-.2-.5c-.1-.2-.3-.2-.5-.2v.1Zm5.1 11v-12.6h1.5V577h-1.5Zm19.7-12.6-7.2 6.3 7.2 6.3h-2.3l-6-5.3-6.1 5.3h-2.2l7.2-6.3-7.2-6.3h2.3l6 5.3 6.1-5.3h2.2ZM79.4 394.2c-.1 2.3-1.9 4.2-4.1 4.2H52.8v9.6h-3v-25.2h25.5c2.2.2 4.1 1.9 4.1 4.2v7.2Zm-2.9-.1v-6.9c0-.4-.2-.7-.4-1-.3-.2-.6-.4-.9-.4H52.8v9.7h22.3a2 2 0 0 0 1-.5c.2-.3.4-.5.4-.9Zm10.5-8.3v8.2h20.7v3H87v8h20.7v3H84v-25.2h23.7v3H87Zm49.1-3c2.2.2 4.1 1.9 4.1 4.2v7.2c-.1 2.3-1.9 4.2-4.1 4.2h-8l14 9.6h-5.3l-14-9.6h-7.3v9.6h-3v-25.2h23.6Zm-20.7 3v9.7h20.5l1-.4c.2-.3.4-.6.4-1v-6.9c0-.4-.2-.7-.4-1-.3-.2-.6-.4-1-.4h-20.5Zm30.2 22.2v-25.2h23.7v3h-20.7v8.2h18.8v3h-18.8v11h-3Zm31.5-22.4c-.4 0-.7.2-1 .4-.3.3-.4.6-.4.9-.3 5.7-.3 11.4 0 17 0 .4.1.7.4 1 .2.2.6.4.9.4 7.2.4 14.3.4 21.5 0 .4 0 .7-.2 1-.4.2-.3.4-.6.4-.9.3-5.7.3-11.4 0-17 0-.4-.2-.7-.4-1-.3-.2-.6-.4-1-.4a188.4 188.4 0 0 0-21.4 0Zm21.6-3c2.2.2 4.1 1.9 4.1 4.2.3 5.8.3 11.5 0 17.3-.1 2.2-1.9 4.1-4.1 4.1-7.3.4-14.5.4-21.8 0-2.2-.1-4-1.9-4.2-4.1-.3-5.8-.3-11.5 0-17.3.2-2.2 2-4.1 4.2-4.2 7.3-.4 14.5-.4 21.8 0Zm33.3.2c2.2.2 4 1.9 4.2 4.2v7.2c-.2 2.3-2 4.2-4.2 4.2h-8l14 9.6h-5.3l-14-9.6h-7.3v9.6h-3v-25.2H232Zm-20.6 3v9.7h20.4l1-.4c.2-.3.4-.6.4-1v-6.9c0-.4-.2-.7-.4-1-.3-.2-.6-.4-1-.4h-20.4Zm63.8-3V408h-3v-22.2h-.5L260 408h-2.9l-11.8-22.2h-.4V408h-3v-25.2h5.2l11.4 21.6 11.4-21.6h5.3Zm27.2 19.8h-18.1l-2.5 5.4h-3.2l11.5-25.2h6.5l11.5 25.2h-3.2l-2.5-5.4Zm-1.3-3-6.4-13.8H292l-6.4 13.8h15.5Zm40-16.8V408h-5.2l-20.6-22.2h-.8V408h-3v-25.2h5.2l20.5 22.2h1v-22.2h2.9Zm32.9 19h3l-.1 2.4c-.1 2.2-1.9 4.1-4.1 4.1-7.3.4-14.5.4-21.8 0-2.2-.1-4-1.9-4.2-4.1-.3-5.8-.3-11.5 0-17.3.2-2.2 2-4.1 4.2-4.2 7.3-.4 14.5-.4 21.8 0 2.2.2 4 1.9 4.2 4.2v2.3h-3v-2.1c0-.4-.2-.7-.4-1-.3-.2-.6-.4-1-.4-7.1-.3-14.3-.3-21.4 0-.4 0-.8.2-1 .4a2 2 0 0 0-.5.9c-.2 6 0 12 .4 18 .3.2.7.4 1 .4 7.2.4 14.3.4 21.5 0 .4 0 .7-.2 1-.4.2-.3.4-.6.4-1v-2.2Zm31.3-16h-20.7v8.2h20.7v3h-20.7v8h20.7v3h-23.7v-25.1h23.7v2.9ZM54.2 420.6c-.4 0-.8.2-1 .4a2 2 0 0 0-.5.9c-.2 6 0 12 .4 18 .3.2.7.4 1 .4 7.2.4 14.3.4 21.5 0 .4 0 .7-.2 1-.4.2-.3.4-.6.4-.9.3-5.7.3-11.4 0-17 0-.4-.2-.7-.4-1-.3-.2-.6-.4-1-.4a188.4 188.4 0 0 0-21.4 0Zm21.6-3c2.2.2 4.1 1.9 4.1 4.2.3 5.8.3 11.5 0 17.3-.1 2.2-1.9 4.1-4.1 4.1-7.3.4-14.5.4-21.8 0-2.2-.1-4-1.9-4.2-4.1-.3-5.8-.3-11.5 0-17.3.2-2.2 2-4.1 4.2-4.2 7.3-.4 14.5-.4 21.8 0Zm39.5.2V443H110l-20.5-22.2h-.7V443h-3v-25.2H91l20.3 22.2h1v-22.2h3Zm24.7 3v8.2h20.7v3H140v8h20.7v3H137v-25.2h23.6v3H140Zm46.7-3h3.3L178.4 443h-3.8l-11.5-25.2h3.2l10.2 22.2 10.2-22.2Zm9.6 3v8.2H217v3h-20.7v8H217v3h-23.6v-25.2H217v3h-20.7Zm49.1-3c2.2.2 4.1 1.9 4.2 4.2v7.2c-.2 2.3-2 4.2-4.2 4.2h-8l14 9.6h-5.3l-14-9.6h-7.3v9.6h-3v-25.2h23.6Zm-20.6 3v9.7h20.4l1-.4c.3-.3.4-.6.4-1v-6.9c0-.4-.1-.7-.4-1-.3-.2-.6-.4-.9-.4h-20.5Zm56.4-3h3v13.8l-.2 7c-.2 2.2-2 4.1-4.2 4.2-7 .3-14 .3-21 0a4.6 4.6 0 0 1-4.3-4.2v-2.3h3v2.1l.4 1c.3.3.6.4 1 .4 6.9.3 13.8.3 20.7 0 .4 0 .7-.1 1-.4.2-.3.4-.6.4-.9l.2-6.6h-22.5c-2.2-.1-4-1.9-4.2-4.1v-10h3v9.7c0 .5.2.8.4 1 .3.3.6.4 1 .4h22.3v-11.1ZM79.4 464.2c-.1 2.3-1.9 4.2-4.1 4.2H52.8v9.6h-3v-25.2h25.5c2.2.2 4.1 1.9 4.1 4.2v7.2Zm-3.3.9c.2-.3.4-.6.4-1v-6.9c0-.4-.2-.7-.4-1-.3-.2-.6-.4-.9-.4H52.8v9.7h22.3a2 2 0 0 0 1-.5v.1Zm28.6 12.9H84v-25.2h3V475h17.7v3Zm25-5.4h-18.2L109 478h-3.2l11.5-25.2h6.6l11.5 25.2h-3.3l-2.4-5.4Zm-1.4-3-6.3-13.8h-2.8l-6.3 13.8h15.4Zm27.9-13.8h-10.4V478h-3v-22.2h-10.3v-3h23.7v3Zm3.4 22.2v-25.2h23.7v3h-20.7v8.2h18.8v3h-18.8v11h-3Zm31.5-22.4c-.4 0-.8.2-1 .4-.3.3-.5.6-.5.9-.2 6 0 12 .4 18 .3.2.7.4 1 .4 7.2.4 14.3.4 21.5 0 .4 0 .7-.2 1-.4.2-.3.4-.6.4-.9.3-5.7.3-11.4 0-17l-.4-1c-.3-.2-.6-.4-1-.4a188.4 188.4 0 0 0-21.4 0Zm21.6-3c2.2.2 4.1 1.9 4.1 4.2.3 5.8.3 11.5 0 17.3-.1 2.2-1.9 4.1-4.1 4.1-7.3.4-14.5.4-21.8 0-2.2-.1-4-1.9-4.2-4.1-.3-5.8-.3-11.5 0-17.3a4.5 4.5 0 0 1 4.2-4.2c7.3-.4 14.5-.4 21.8 0Zm33.3.2c2.2.2 4.1 1.9 4.1 4.2v7.2c-.1 2.3-1.9 4.2-4.1 4.2h-8l14 9.6h-5.3l-14-9.6h-7.3v9.6h-3v-25.2H246Zm-20.7 3v9.7h20.5l1-.4c.2-.3.4-.6.4-1v-6.9c0-.4-.2-.7-.4-1-.3-.2-.6-.4-1-.4h-20.5Zm63.9-3V478h-3v-22.2h-.5L274 478h-2.9l-11.8-22.2h-.4V478h-3v-25.2h5.2l11.4 21.6 11.4-21.6h5.3Zm107.3 75.6-5.8 12.6h-1.8l-5-10.8L379 541h-2l-5.7-12.5h1.6l5.1 11 5.1-11h1.6l5.1 11 5.1-11.1h1.6Zm13.5 1.5h-10.4v4.1H410v1.5h-10.4v4H410v1.5h-11.9v-12.5H410v1.4Zm16 3.6c.7.3 1.1 1 1.1 1.8v3.7c0 1-1 2-2 2h-12.8v-12.5h11.9c1 .1 2 1 2 2.2v2l-.2.8Zm-12.2-3.5v3.3h10.3l.4-.2c.2-.1.2-.3.2-.4v-2c0-.2 0-.4-.2-.5-.1-.2-.3-.2-.5-.2h-10.2Zm11.9 5.5-.2-.5c-.2-.2-.3-.2-.5-.2h-11.2v4.8H425c.2 0 .3 0 .5-.2l.2-.4v-3.5Zm18.7-1.3c-.1 1-.9 2-2.1 2h-11.2v4.8h-1.5v-12.4h12.8c1 0 2 .9 2 2v3.6Zm-1.5 0v-3.5c0-.2 0-.4-.2-.5-.1-.2-.3-.2-.4-.2h-11.2v4.8h11.2l.4-.2c.2-.1.2-.3.2-.4Zm14.6 6.9-1.3-2.7h-9l-1.3 2.7h-1.6l5.7-12.6h3.2l5.8 12.6h-1.5Zm-2.1-4.2-3.1-7h-1.4l-3.2 7h7.7Zm9.8-2.8h8.2c1.1.1 2 1 2 2.1v3c0 1-1 2-2 2-3.7.2-7.3.2-11 0-1-.1-2-.9-2-2.1-.2-2.8-.2-5.7 0-8.6.1-1.1.9-2 2.1-2 3.6-.2 7.2-.2 10.8 0 1.2 0 2.1.9 2.2 2v1.1h-1.6v-1c0-.2 0-.4-.2-.5-3.7-.2-7.5-.3-11.2-.2l-.5.2c-.2 3.1-.2 6.3 0 9.4 3.8.3 7.5.3 11.3.2.1 0 .3 0 .4-.2.2-.1.3-.3.3-.5v-2.7l-.2-.5c-.1-.2-.3-.2-.5-.2h-8.1v-1.5Zm24.7-4.1v-.1h.1l-.1.1Zm0-.1h-10.3v4.1H490v1.5h-10.4v4H490v1.5h-11.9v-12.5h11.8v1.4Zm13.1 0h-5.2V541h-1.5v-11h-5.1v-1.5H503v1.4Zm13.6 0h-10.4v4.1h10.4v1.5h-10.4v4h10.4v1.5h-11.9v-12.5h11.9v1.4Zm14.9 5.5h-10.6a2 2 0 0 1-2-2v-3c0-1.1 1-2 2-2 3.5-.2 7-.2 10.6 0 1.1 0 2.1.9 2.1 2v1.1h-1.5v-1l-.2-.5c-3.6-.3-7.3-.3-10.9-.2l-.5.2-.2.5v2.8c0 .2 0 .4.2.5l.5.2h10.5c1 0 2 1 2 2v2l-.1 1.2c0 1-.9 2-2 2h-10.6c-1.1-.1-2-.9-2.1-2.1V538h1.5v1.1l.2.4c3.6.3 7.3.3 10.9.2.2 0 .3 0 .5-.2l.2-.5v-2.8c0-.1 0-.4-.2-.4-.1-.2-.3-.2-.4-.2l.1-.2Zm15.3-5.5h-5.2V541h-1.5v-11H535v-1.4h11.8v1.3Z"/><circle r="14.5" fill="#a73a24" transform="translate(194.5 639.5)"/><circle r="15" fill="#a73a24" transform="translate(292 587)"/><circle r="14.5" fill="#a73a24" transform="translate(92.5 562.5)"/><circle r="17.5" fill="#a73a24" transform="translate(346.5 525.5)"/><path fill="#fff" d="m346.5 519.8-2.3 7.8h4.7Zm-8.5 14.4 6.5-17.2h4.2l6.6 17.2h-4.1l-1.4-3.7H343l-1.2 3.7H338Z"/><rect width="248" height="50.3" fill="#f3c010" rx="6.7" ry="6.7" transform="translate(385 659)"/><path fill="#fff" d="m425.2 687.7-.3.6c-.1.2-.4.3-.6.3-5 .2-10 0-15-.3a112 112 0 0 1 0-12.6c.1-.2.4-.3.6-.3 4.8-.2 9.6-.2 14.4 0 .2 0 .4 0 .6.3.2.1.3.3.3.6v1.5h2v-1.6a3 3 0 0 0-2.8-2.8c-4.9-.2-9.7-.2-14.6 0a3 3 0 0 0-2.8 2.8c-.2 3.9-.2 7.7 0 11.6a3 3 0 0 0 2.8 2.8c4.9.2 9.7.2 14.6 0a3 3 0 0 0 2.8-2.8v-1.6h-2v1.5Zm21.2 2.7h2.2l-7.7-16.9h-4.4l-7.7 16.9h2.1l1.7-3.6h12.1l1.7 3.6Zm-12.9-5.6 4.3-9.3h1.8l4.2 9.3h-10.3Zm33.8-1.8c.2 0 .4 0 .6.2s.3.4.3.7v2.3l-.1 1.5-.3.6-.6.3c-4.9.2-9.7 0-14.6-.3a1 1 0 0 1-.3-.6v-1.5h-2v1.6a3 3 0 0 0 2.8 2.8c4.7.2 9.5.2 14.2 0a3 3 0 0 0 2.8-2.8v-4a3 3 0 0 0-2.8-2.8h-14.1a1 1 0 0 1-.7-.3.9.9 0 0 1-.2-.6v-3.8c0-.3.1-.5.3-.7l.6-.2c4.9-.2 9.7-.1 14.6.2.2.2.3.4.3.7v1.4h2v-1.5a3 3 0 0 0-2.8-2.8c-4.7-.2-9.5-.2-14.2 0a3 3 0 0 0-2.8 2.8v4a3 3 0 0 0 2.8 2.8h14.2Zm22.2-7.5v-2h-15.9v16.9h16v-2h-14V683h14v-2h-14v-5.5h14ZM520 683c.2 0 .5 0 .6.2.2.2.3.4.3.7v3.8l-.3.6a1 1 0 0 1-.7.3c-4.8.2-9.7 0-14.5-.3a1 1 0 0 1-.3-.6v-1.5h-2v1.6a3 3 0 0 0 2.8 2.8c4.7.2 9.4.2 14.1 0a3 3 0 0 0 2.8-2.8v-4a3 3 0 0 0-2.7-2.8h-14.2a1 1 0 0 1-.6-.3.9.9 0 0 1-.3-.6v-2.4l.1-1.4c0-.3.1-.5.3-.7l.6-.2c4.9-.2 9.7-.1 14.6.2l.3.7v1.4h2v-1.5a3 3 0 0 0-2.9-2.8c-4.7-.2-9.4-.2-14.1 0a3 3 0 0 0-2.8 2.8v4a3 3 0 0 0 2.8 2.8H520Zm4.8-9.5v2h7v14.9h2v-14.9h7v-2Zm18.2 14.1a3 3 0 0 0 2.8 2.8c4.9.2 9.7.2 14.6 0a3 3 0 0 0 2.8-2.8v-14.2h-2v14.1c0 .3-.1.5-.3.6a1 1 0 0 1-.6.3c-4.8.2-9.6.2-14.4 0a1 1 0 0 1-.7-.3.9.9 0 0 1-.2-.6v-14.1h-2v14.2Zm24.4 2.8h17a3 3 0 0 0 2.8-2.8v-11.3a3 3 0 0 0-2.8-2.8h-18.3v2h1.3v15Zm17.9-2.9c0 .3-.2.5-.3.7l-.7.2h-15v-12.9h15c.6 0 1 .4 1 1v11Zm23.2-6.5h-15a.9.9 0 0 1-.5-.3 1 1 0 0 1-.3-.6v-6.6h-2v6.7a3 3 0 0 0 2.8 2.8h15v4.4l-.4.6c-.1.2-.4.3-.6.3-4.8.1-9.7 0-14.5-.3a1 1 0 0 1-.3-.6v-1.5h-2v1.6a3 3 0 0 0 2.8 2.8c4.7.2 9.4.2 14.1 0a3 3 0 0 0 2.8-2.8l.1-4.7v-9.3h-2v7.5Z"/></svg>