<svg xmlns="http://www.w3.org/2000/svg" viewBox="0 0 778 1543"><path fill="#3f8ca8" d="m832 357-7 4h-25l-1 3-1 3 8 8 8 9 1 4-1 5-7 4-8 3h-10l-20-1h-10l-1 8c0 4 0 10 2 11l2 4-9 8c-5 5-8 10-8 11l11 11c13 13 25 26 24 28l-5 4-5 3-10-1-10-1-7-8c-3-4-10-10-15-12l-9-6-2 2-3 1 7 15c3 8 8 17 11 21l6 6 4-3 4-4-3 6-3 6 13 12 13 12-2 6-5 10-4 5-8-3-8-2-4 4-3 6c-1 1 6 6 13 12l15 11-5 3-4 4 1 2 1 3-5-1h-15l-11 3-8-7-9-6-4 5-4 6 4 9 6 10c4 1 19 19 22 26l2 12v7l-6-2-6-2-6 9-6 8-9-4-15-8-6-4-1 3c0 2 1 9 4 15l18 25c7 7 12 14 11 14-3 2-84 0-90-2l-7-2-1-7-1-8 4-12 4-12 1-28 3-29c1-1 6 3 11 8l10 10h8l7 1-8-7-8-8 3-3 3-2-4 1-5 1-3-5-4-5 2 1 3 1-4-7c-5-9-7-9-10-5l-3 4 2-5 3-6-2-3c-2-2-3-27-2-31 0-1 23-5 25-4l4 14c1 8 3 14 4 13s1-7-1-14l-3-13 5-1h8l2 2-5 19-6 18h7l-3 5-4 4-2 12-2 12 6 4 5 4 1-4 1-4 2 4 6 13 5 9-6-16-6-15-3 1h-3v-3l-1-4 4-1 5-2-4 4-4 4 4-2 3-1 3-15 6-29 5-14-5-7c-2-5-3-7-1-5l2 3 18-4 17-4 12-8 11-7-18 7-28 10-9 2 5-11 5-11 4 8 5 8-4-12-4-11h-4l-3-1 2-4 2-4-4 1-3 1-7 20-6 19-8 1-8 2-13-62-14-62c-2 0-1 2 11 62l11 57-1 5-11 1-11 2v-13l-2-63-1-50 12-7 13-7-10 3-11 3-7-33-7-32 5-5 9-4h5l26 80 28 80c2 1 4 7-28-89-13-41-31-91-39-111l-14-35-4 3-4 4 3-6 4-5-3-5-6-17-2-11 5 3 6 3 10-2c6-1 11-3 11-4l-9 1-10 2-1-40v-39l5-4 4-3 6 2c11 4 33 36 31 46-1 6 6 29 8 30l3 1-2 5-1 4 4 4c5 5 6 5 8 0l1-5-9-31-9-32-3-1-3-1 1-3c2-4-4-23-13-46l-3-13c1-2-1-10-4-17l-6-14 4-13 4-13-3-19-3-19 5-4 6-4 16 8c30 14 43 21 47 26 7 8 12 19 10 24-1 4 1 14 7 30l3 9c0 1 1 7 4 13l3 16-2 4 6 7 6 6v7l-1 7 7 8 7 8-1 3-2 5 6 18 13 34 7 18-5 4c-6 4-7 4 8 17l12 11 1 7 1 7 4 2 4 1-27 35-27 35-15 25-15 24-13 34-13 34 2 8 3 8-3 2-3 2 4-1 4-1 15-41 15-41 14-22 38-54 24-32h5l4-1 17 15 16 14v8l-6 4Z"/><path fill="#a73a24" d="M380 878c12 6 24 4 36 8 12-4 1 6 16 3 4-8 9 6 12-5 0-10 17-1 25-4 12 5 8-16 18-11l39 10c14-3 7 2 20 4 11 0 8 5 18 2 9 2-6 6 6 7 10-2 14 5 25 3 8 4 19 5 24 12 7 4 16 9 23 8 3 7 10 6 14 5 5-6 6-9 15-7 2-6 11 15 13 4 2 5 11-2 17-9 4-7 17-9 21 0 7 11 15 24 18 37 2 14 2 30 8 42 8-1 18 4 19 14 3 12 3 24 2 37 7 2 0 25 10 19 4-6 13-20 22-11 5 5 9 4 12 17 4 11 11 22 11 34 11 20 6 45 11 67 5 24 6 50 8 76 2 20-2 35-1 53-3 3-7 16-16 15-8-2-13-10-21-5-4-7-20 4-18 4-3 10-8 3-13 0-5-1-7-5-7-3-1 0-12-5-12 5-4-1-7 9-14 8-9-5-5-10-17-2-7 7-16-6-23-2-11-10-10 4-16 3-8 10-8-3-18-1-9-1-13-11-17-13-4-1-14-5-11 5 1 10-13 25-17 20-10-7-10 15-17 11-8 9-21-5-25-13-5-4-8-10-14-8-4 7-18-8-16-8-5-10-8-4-9-18-1 11-8-12-9-17-5 10-8 21-14 30 0 8-5 21-14 23-6-1-8 1-13-4-3 3-16 23-12 19-7 2-10-12-15-10-5-8-4-7-7-17-1-9-4-7-7-9-4 3-18 2-30 0-12 0-7-8-12-15 2-8 0-15 1-24-8-1-5 10-11 17-1 9 1 14-2 22-9 2-11 12-14 15-12 0-4-4-12-8-4-11-10 7-8 6-3 3-126-352-113-352 2-9 53-45 61-48 13-4 25-8 36-14 8-3 16-3 20-11 7-3 5-18 14-16Z"/><path fill="#f3c010" d="m236 818 16 18c5 1-2 6 7 7 3-4 4 7 7-6 3-3 15 10 17 4 2-10 8-10 11-1 6 5 7 13 14 16l9 12c0 7 7-1 6 8-8 1 8 7 5 11 8 2 8 11 14 16-1 5 3 13 4 17 10-2 2 14 8 11 2 3 2 0 8-6-1 1 7 0 5 9 1 7 2 0 4 4 0 1 9-6 12-12 9-1 8 10 8 16 0 21-2 41-7 61 0 9-5 18-2 26 6-2 6 11 5 15-2 15-5 30-10 44 3 3-3 15-3 22 4 6 7-10 12-10 5-6 4 13 7 11-3 21-2 43-7 65-2 21-7 41-11 61-6 44-18 88-28 131-3 0-3 16-6 15 1 5-9 17-11 10-3-3-2-13-8-10 0-8-8 2-8-1-3 10-5 5-6 4 0-7-4-7-3-10 0-9-2 6-3-4-4-3-4 13-7 6-3 3-3 11-8 4 0-7 2-10-7-6-5 7-6-9-11-8-2-14-6 7-7 1-7 6-2-4-8-6-4-5-4-12-4-20-3 4-2-5-6-3-1 10-5 19-12 26-2 6-6-8-8 0-4 9-10 13-13 2-3-5-2-15-2-21s-4-7-7-7c-2-8-2-11-2-20-1-4-3-1 0-13-3 7-1-3-1-10 3-13-1-11-4 0-8 10-9 23-17 33-2 10-7 4-8 4-2-9-4-4-9 5-4 4-7 11-6 1-1-7-5-9-2-18-2-3 2-12 2-19-1 2-1-5-3-5-2 7-12-4-14-7-7-2 1-12-1-17l7-27c-5 0-5 8-9 14-3 6-3 14-5 18 0 9-9 9-11 16-4 12-6-3-6-2 0 0 1-14-2-9l-6 13c-4 11-7 1-7 4-4 0-1-12-1-16 3-14-4-3-7 3 1 5-11-3-7-9 0-3-4 3-7 10-1 1-10 8-6-5-2-7-1-17-1-25l14-74c-7 6-2-7-6-6-10 3-5-11-5-16-1-9-2-17 0-25-5 4-7 12-7 20-4 5-8 10-9 18-1 10-9 13-8 1 1-13-4-1-8 5-2 7-9 14-7 2 1-11 0-23 4-34-16-9 75-70 9-54 8-31 9-71 31-97-2 10 6-13 7-7 1-3 3-9 7-10 2 10 5-10 8-6-2-9 9-12 8-21 1-8 11-11 9-20 0-7 11-9 8-18 4-6 10-10 11-18 6-3 9-7 10-14 7 0 5-12 13-10 1-6 7-9 13-10 5-6 14-3 16-10-1-12 11-9 18-14 6 6 10-11 13-1 5-4 8-10 12-16 1-1 3-10 6-6Z"/><path fill="#3f8ca8" d="M354 1097c-2-3-3-13-6-5-2 6-7 3-7-2-1-4-2-12-7-6-5-3-7-2-9 4-1 5-7 8-7 1-2-4 5-8 3-13-2-2-6 5-8 7 2 6-2 1-4 8 0 5-9 6-8 0-2-6-4 1-5 5-2 4-5-1-6-6 1-3-14 12-15 4-4-2 26-16 29-13 6 7 3 1-1-3-5-4 26-26 21-32l15-10c7 3 0 7-3 10-9 8 7-5 22-20-3 0 31-12 29-5-2 9-10 12-15 17-7 2 0 7 3 0 4-3 9-6 10-9 6-5 14-8 19-14 3-2 9 0 13-4 4-5 7 2 5 7-2 6-1 14-7 18-6 3-10 9-16 12-3 4-7 4-9 9-4 0-7 6-11 8-3 8-9 2-10 9-2 4-4 9-8 7-11-5-22-11-34-11-5-1 4 2 12 6l22 8c2 4-3 8-3 13-1 1-3 3-4 0Zm-234 59c-1-5-4-9-4-14a172 172 0 0 1 50-12c6 0 6 0 1-3h-16c-9 1-19 5-28 8-3 0-11 8-10 2-5 0-5-15-10-8-2-4-6-7-10-11-3-3-8-3-9-8-4-1-6-6-10-8l-12-8c-6-5-5-14-7-20s4-8 8-4c3 5 10-1 12 5l16 11c3 2 5 6 10 8 2 7 12 4 4 2-3-6-13-8-14-17-2-7 5-4 9-2 3 3 13 2 10 7 0 5 2-4 2-6 2 3 11 5 7 6 16 15 33 30 50 43l-28-24c-3-2-9-7-2-9 4 4 10 6 14 9-4 8-2 4 2 0 8 3 24 21 26 28l12 1h3c-1 0 0-3 1 0v-2l1-1-4-1c-3 1 4-11 1-6 3 1 4 6 3 5l1 1 2-3c-2-4 0-4 3-3l1-2 5-4 1-1v-1l-1-1v1l-1 1h-1l-1-2h1v-1h2v-1l3-2 1-1h2l1-1h4v-1l1 1v-1h2v1l1-1v-2h1l-1-1h-1v1l-1-1v-1h1l1 1v-2l-1 1v-1h-1v1h-1v-1h-2v-1l-1-1h-3v-1h2l1-1h10l1 1v-2h3l1 1v4l-1 2v7h-1l1 1v1h-1l-1-2h-1l-1-1v-3l-1-2v-1l-1-1v3h1v1h-1v3l-1 2-1 1v1h-1l1-1h-1v2l-1-1v1h-1v-1l-1 1h-2v1h1v1h-1l1 1h-1v-1l-1 1h-1v2l-1-1v2h-1v1h-1l2-2h-1l-2 2s-1 0 0 0h-1v1l-2 2c5 2 10 0 13 3 0 5-2 9-3 14v2h1l1-1h-1v-1h1v-1l1-1v2h1l1-1v1h1v-1c0-1 0-1 0 0h-1l2-2v-1h1v-2l1-1h1l1-1v-1h2v1h1v-1h1v-1h1v1h1v-1h5v-1h2l-1 1h2l1-1h3l2 2v-1h3l1 1h-4l-1 1h-1v1l1-1h2v1h1v1l1-1v1h1v1h-3l-5 1h-4l-1 1h-4v1l-2 1h-2v-1l-2 1h-2v1h1v2h-2l-1 1h1l-1 1h-2l-1 1h3l1-1h2v3h2l1-1h-1l-1-1 2-1v-2h1v2l1-1 2-1h1v1h3v2l-1-1v1h-1v1l-2 4h1l2-2 1 1v-1l1-1v-1l2-2 1 1h1v-1h1l-1-1h5v1h3v1h-3l1 1v1h2l2-2v1h2l5-2h7v1l2 1 1 1h1l1 1-2 2v2h-2v1h-1v-1l-1 1h-8v1h1l1-1v2h-2l-1 1h-1l-1 1v1h-2l-11 7-2 1-1 1h1v2h-1l1 1h-1l-1 1h1l-1 1h-1l1 2h-3l-2-2h1v-1h-2l-1 2h-1v1l-1 1-3 2h-2l1-1v-1l-2 2-1-1h-2l-1 1v1l-5 3-1-1h-4v-2l-1 1h-2l-1 1h-1l3-3 1-2v-2h-3v1h-1v1h-1l-1 1v-1l1-2h1v-1h-1l1-1h1v-1h-1l-2 2h-1v-1h1v-3l-1 1h-1v4l-2-2 1-1v-2l1-2 1-1 1 1v-1h1v1h1l1-1v-1l2-1 1-1 1 1h-1l-1 1h1v1l1-1h1v2h1v-1h1v-1l3-3h1l-1 1v2h1l4-4 2 2v-1h1l-1 1h3l1-1-1-1v1h-1l-1-1h-1v-1h4l-1 1h1l1-1-1-1v-1h-1v-1h1l1-1v-1h-1v-2h-1l-1-1v-1l-1 1h-1v-1l1-3v-1h-2v-1h-3l-1 1v-1h-2c-1 5-2 11-5 3l-1-2v-1h-1v1h-1v1l-1-1h-1v-1l1-1h-1l1-1-1-1-1 1v1h-1c0 3-1 6-5 6 1 5-3 3-6-1l-1 2v3h-1v2l-1 1-3 4-2 2 1-2 2-6 1-2v-4l-1 1-1 2-1 3-2 4v4h-1v2l-1 1v1h1l2-2v1h-1v2l-1 1v-1h-1v2l-1 1h-1v1h-1l-1 1v-1h-1l-2 1h-1v-1h-1l-1 1h-1v-1l-1 1h-2v-2l1-2 2-3v-1l2-5 1-1 1 1v-1l1-1 2-5v-1h-1v1h-1v-7h-3c3 5-5 8-7 4 1-5-7-7-4-9-2-2-6-9-9-8 1 5 4 9 3 13 0 7-5 4-6-1-2-5-4-9-9-4-5-6-6 0-8 5 1 4-4 10-6 4-3-9-4 2-7 4-1 3-1 1-3 1Zm-8-78c0-1 0 0 0 0Zm106 87v1h1l-1-1Zm-2-64v-1h3v1h-3Zm6 15h-1v-1l1 1Zm-12 8v-1l-1 1h1Zm17 13h-1l1-1v1Zm-2 0h1v1h-1l-1 1v-1h1v-2h1l-1 1Zm3-4v-1l1 1h-1Z"/><path fill="#fff" d="m102 1277-2-4-1-59v-59H83l-3-3-3-3v-18l2-5 1-6 5-2c6-4 8-5 5-2l-3 2h1l9-2 6-2 1-6 6-26 5-20 7-21 16-43 9-22 12-26 13-25 12-18c14-22 26-37 41-52l11-11 10-6 9-6 8-3 8-2 14 1h13l5 5 5 4 3 7 6 15 2 9 2 24 1 25-1 22c-1 28-3 40-9 72l-5 26h45l-17 1-23 2-6 1v9l6-1 8-2 1-1 35 1h36l5 1 5 2 5 5 4 5 1 5 1 6-1 4-2 4-6 3-16 6-11 3-13 1-40 2-27 1-1 9c-4 19-15 120-15 137v8l-2-4-1-3 1-13c1-20 3-41 6-61l9-70v-3h-46l-4-2-4-2-1-3-1-9v-6l3-4 2-4 6-6 6-5h-23l-8 3c-4 2-8 3-9 2l9-4 8-4h30l7-4 8-3 13-3 14-4 12-61 2-16v-78l-2-11-1-11-3-8-4-9-6-6-6-7-16 1h-16l-8 4c-32 17-70 66-99 127-22 46-42 104-50 146l-1 4 3-1 37-9 9-1h40l2 2 2 2 1 6 2 6-2 5-1 5-6 4-16 9-11 6-11 3c-13 3-32 6-44 6h-9l-1 18-1 18 1 40 1 40 1 5c2 6 1 6-1 1Zm29-127c7 0 15-2 19-3l5-2-7-1-8-1-5-3c-6-3-16-14-19-20-4-8-2-7 3 1l5 7 8 6 7 6 8 2 8 1 2-2 2-3 1-10 1-11-1-6-1-6-2-1-2-1-16 3-17 4-8 3-8 3v3l-4 29v4h8l21-2Zm224-60 21-2 11-3 16-6 4-2 2-3 1-4-1-5-1-5-5-5-5-5h-34l-35-1v15l-2 7-2 8-3 1-3 2-10-1h-10v6l-1 5h36l21-2Z"/><path fill="#305673" d="m256 1280-6-1c-2 1-3-1-5-1l-5-2-3-1-4-3-2-2c-1-1-1-4-3-4l-1-3-6-1c-2 0-1-3-3-3l-5 1s0 3-2 3l-5 1c1 3-3 2-5 2l-4 3h-9c-2-2-4-1-6-1s-2-3-3-3c2 0-4 1-3 2-2 0-4 0-5-2-1-3-3-1-4-3l-1-5c-1-3 7-8 4-7 0 2-2 3-3 4-2 2-1-3-1-4-2-2 1-1 3-2h-2c-2 0-6 0-3-1l4-4 3-4c2 0 3-2 4-3 2-2 4-3 4-5-1-2-4-1-6-1-2 1-3-1-5-1l-6-1c-2 0-1-4 0-5l-1-4c0-1 0-5-2-4l-4 1-3-6c1-2 0 1-1-1-3 1-2-2-1-4-1-2 2-2 0-4-3-2 1-3 1-5 1-1 2-3 4-3 1-2 3-2 3-4 3 0 5 0 5-2 2 0 1-2 4-2-1-4 4 0 3-3 0-2 5 0 4-3 2 1 4-1 5-2h24c1-3 2 1 4 1 1 2 3 2 3 4l5 1c1-3 5-1 3-3l4-2h7c-3-1 2-2 3-1l5 2h9c2 1 4 1 3 4-1-3 3-2 5-2 2-1 2 2 4 2l4 1h5v10l-4 3c-1-3-2 1-3 1 1 2 3 0 4-1 0 1 3 2 1 3l-1 2c-3 1 1-3-1-2-2 0-2 2-3 3l-4-2c0-3 3-2 3-4-1 1-2 3-5 2-3 0 1-2 2-3-1-2-2 1-5 0 0 1-4 2-4 0l-5 2 1-2c1 1 2-1 3-2 1 0-2 2-4 1-2 2-4 5-8 4-1-2 5-2 2-3 2 1 4-1 4-1-1 0 1-2 4-2 2-2 1-2-1-1 1-3 0-2-2-1l-5 3c-2-1-2 2-5 2 0 2-3 1-5 3l-5 4c-2 0-2 3-4 2-1-1 2-3 3-3 4-4 16-12 13-9 2 2 1-1 4-2 2 0 3-2 4-3l-5 2c-1 2-4 1-5 3l-5 3c-2 0-4 2-5 3l-1 1-2 1-3 2c0 2-3 3-3 5 1-1 4-3 4-1 2 2-3 2-2 4l-2 5c2-1 2-3 4-3 1-1 4 1 6 1l5-2c1-2 6-1 3 0l-3 2-1 3-2 3c-2 0-4 4-3 2-1 2-4 3-6 4l4 2c0 2 2-6 5-4-2 1 1 3 3 1 2-1-1-1 3-1 1 3 0 0-2 2l-1 1c-2 2-1 0-3 1-1 1 1 1-2 3-2 2-4 2-4 4l-1 5c0 2 3-1 2-3 0-2 2-2 3-3l5-4c2-1 2-3 4-3h3c-1-1 0 2-3 2 2 0-4-1-2 2-1 2-5 2-5 4-1 1-4 4 0 3 1-1 3-6 7-6-1-1 2-1 4-1 1 0 1-2 1 1v5h-1c0 2-4 1-5 0-3 0-1 2 1 2 3-1 3 1 1 2s-3-2-5-1c-2 0-4 3-1 2h11c-1 1 0 3 1 1l2 2 2-1 1 1c-1-1-2-1-2 1l3 2 5 1c2-1 2 2 5 2l4 2c-2 1 2 1 3 2s-1 1 1 2c0-3 5 0 2 0 3 1-1-2 3-1 2 2 3 1 1 2s-1 4 2 3c2-2 2 0 2 0 2 0 3 3 2 2l5 3c2 0 2 2 4 3 0 1 3 3 2 4-2 1 2 1 3 3l1 1-6 1c-4 2-9 1-14 1 2 2-1 0-4 1h-9Z"/><path fill="#a73a24" d="M201 1253c-3-2-6-1-8-4-1-1 2-3 0-3v-3s-5 3-6 2c2 4-5 4-4 0-1-3 2-6 2-8-1 0 3-6-1-3l-2 7-1 2c0-2 1 3-1 2 0 3-4 2-4 0-1-4 3-5 2-9 2 0-1-2 1 0 1-4-5-3-2-6 1-2-4-3-2-6 2-1 1-4 3-4-2-1 1-1-1-2v3c-2-2 0 3-3 4 1 2-6 1-3-2l3-6 1-4-3 3c-5 2 0-6 0-8 2 0 0-6-1-2-2 2 1-2-1-3v-2c1-3-3 2-1 0-1 2-1-1-2 1 2-1-3 2 0 1-2 1-1 6-2 3v-1c1-3-2 2-2-1l2-3c2 0 0-3 2-5l-1-1c0-1-2 0-3-2h-7c-2 0-4 1-6-1 2 2-3-2 0-2 3 3 7-1 10 1 3 0 0 0 0-1l4 2c2 1 4 4 4 1 3 0 2-5 5-6 1-3 4-5 4-8 3 0 2-5 4-7 0-1 1-6 3-4l-2 8v5l3-9c-1-4 4-3 1 0-2 4-1 8-2 11-1 4 4 2 3 0-1 2-1 0-1-2v-2c1-3 1 0 2 1-1 3 0 2 2 0-1-1 1-1 1-1s4-8 3-3c0 2 3 0 3 1l6-6c1-2 4-5 5-4 1 3-3 5-4 8-2 1-3 6 0 2 1-2 5-7 5-3-2 2-2 6-5 7 0 2-2 5 0 5 1-3 3-1 2 1 2 0 0 3 2 1 1 1-1-2 1-1 1-2 3-3 1-5 2-2 0-5 3-3 0-1 5 4 2 3-1-1 1 2-1 1-3-2 2 1-1 1 1 2-3 4 0 6-2 1 0 5 0 1 1-1 1-8 3-3 0 1 3 2 1 4 2 0-1-7 3-5 2 3 1 6 0 8 1 0 4 4 0 3 2 0-2 1 0-1 0-1-1 4-3 3l-3 10-2 7c0-2 1-3 2-2 5-3 3-8 5-12 0-3 3-3 4-5 1 5-1 10-2 14l-2 11c-1-1-4-1-3 1-3 1-2 5-5 8 0 1-3 0-1 1-3 2-3 3-4 5 0 1-3 3-1 3 0 3 2-4 4-5 2-2 5-5 5-8 2-1 3-4 4-3 0-3 1-1 2-1 0-2-2 3 0 0l2-7c1-1 1-4 1-1v12c-3 1 0 2-2 3l-2 4-4 8-8 6v1c-1 3-3-1-5 3h-1Z"/><path fill="#fff" d="m163 1058 1-1-8 1-7 1-3-3-2-3 2-4 1-4-11 2-12 2-2-1-2-2 2-2 57-15 10-3v-3l1-46 1-43 1-4 1-3h-1l-13 17-16 21-6 6-3-3-3-3 5-9 4-10 17-23 17-22 3-8 2-7 4-2 4-2 6-9 5-9 3 1 2 1v4l1 5 3-1 4-1 1 3 1 2-3 6-10 13-7 8v13l-3 37-4 43-1 18-2 3-1 2h1l12-3 11-3 6 1h7v5l-5 3-9 7-15 9-11 6-2 6-2 6h-3l-3 1-2-3-3-3-10 3c-11 5-12 5-11 2Z"/><path fill="#fff" d="m351 1031-10-5-5-7-6-8-2-9-3-9v-31l-5 12-6 12-10 16-10 15-6 4-5 5 3 1c3 1 4 5 1 5l-14-6-20-9-7-4-5-6-6-6-2-8-2-8 1-12 1-13 7-22 8-23 5-9 13-19 6-9 7-4 7-4 8 2 8 2 7 7 7 6 5 13 6 13 2 17 1 15 8-19 8-16 8-12 8-10 9-6 8-6 8-1 7-1 11 4 15 7 5 4 4 7 4 8 1 19 1 19-3 12-3 12-4 10-14 21-9 12-10 10-11 11-6 2-11 3h-4l-9-4Zm-66-22 5-7 7-14 14-32 7-19v-17l-6-17-5-4-6-5h-10l-6 8-5 7-5 14-6 14-1 12-2 12 2 17 1 16 3 9c5 15 5 15 13 6Zm90-9 7-4 12-14 13-13 5-10 7-18 3-9v-6l-1-12-1-6-5-5-5-5h-13l-7 4-7 5-8 10-12 20-5 10h-3l3-13c2-8 11-26 14-29l3-2v-7h-6l-5 6c-7 9-19 31-24 47l-5 13v31l3 4c2 3 7 5 9 7l6 2 7-1 7-1 8-4Z"/><path fill="#0e0c0b" d="M595 1439c6-17 14-34 15-52 0-22-10-44-17-65-6 18-12 38-27 50-6 13-6-16-6-22-1-7-39 12-43-1-16-27-40-50-65-68 3 26 9 51 16 76 3-7-3-34 5-28-2 11 7 28-5 34-10-9-19-73-24-88a85 85 0 0 0-31-15c-4-15-21 0-6 5 10 4 17 21 22 19 5 20 12 42 1 61-1 9-4 22-14 24-29 19-51-124-21-97 5-12-19-8-25-4-5 12-6-12 8-9 8-3 10 3 19-1 3-11-21-15-8-28 12-21 30-41 39-63 0-7-10-35 1-23 9 19-11 64 26-27 3-10 5-23-5-30-8-3-31 12-26 1 12-7 32-10 38 6 3 29-17 52-29 77l16 101c30 22 57 48 76 80-14-106-32-213-35-320l-20 9c-14-6 2-46-1-29 8-23-7 33 5 24 22-7 44-19 66-24 10-9-7-17-12-5 6-6 15-10 15-3 3-11 9 12-4 10-15 4-28 13-43 16l-1 7c6 117 18 234 41 349 13-27 13-59 21-87-7-92-11-185-30-275 7-10 8 16 10 22l8 56c2-18-1-38 9-54 5 11-6 24-3 36-3 87 27 270 33 248 14-53 22-108 21-163 1-61-3-122-20-180-2-24 15 19 12 26 17 87 17 176 5 263 19-32 44-59 64-89 5-23 17-12 5 3-23 33-54 62-70 100-7 16-3 35 4 50 11 25 14 55 1 80-3 4-5 26-11 17Zm-182-75 10-19c11-17 6-40-1-58-25-51-55 22-19 64l10 13Zm26-124c-3-21-5-42-10-62-12 19-28 38-38 58 0 11 19 12 27 18 7 1 28 21 24 6l-3-20Zm-81-303c0-14-5-19-4-31 1-10-2-22-1-23-6 2-26 17-36 31 10-12 12 0-2 5-3-7 3-16-8-1-17 5 24-29 33-33 7-12 10-4 14-14-1-10-4-14-4-26-1-15 5-11 3-28-7-10 4-15 1-24 12-12 9 1 7 10 1 14-2 19-2 10v59c9-8 29-9 26-24l1-72c7 7 1 24 3 36l-1 43c7-8 2-22 4-32 0-16 3-32 2-47-4-14 10-18 6-1l-4 74c9-5 22-10 18-23 3-25 0-50 6-74 5 4-2 21 0 30l-3 53c28-18 9-63 14-94 7-6-1-26 8-28-2 13 6 15 5 29-1 12 4 20 0 31 2 14 0 30 2 42 9-6 4-22 7-32 3-19 0-17-1-14 4-24 6-50 8-75 3-12 4 18 2 24 0 14-3 30-2 43 0 13-13 51 4 44 15-3 17-14 14-27 0-12 3-20 0-22 0-22-1-44 2-65 5 9 0 24 1 35 1 6-2 35 2 25-2 14-1 30-2 44 15-2 7-19 10-29-2-11-1-18 0-30 0-18-1-36 2-53 7 4 1 23 3 32-1 13-1 24 2 30-2 10-3 20-2 34-5 16 22 0 15-10 2-13-2-22-3-33 5-8 2-24 4-35-1-6 1-33 4-20-2 18-2 36-2 54 5 4-3 20 0 30-2 21 12 2 6-9-1-13 0-25 3-34l5-65c29 3-86 99 0 71l-2 23c-3 15 0 23 13 10 0-12 1-26-2-35 5-8 1-25 2-37-2-13 4-29 3-7l1 41c5-16-2 13 0 18-3 19 3 18 16 8 8-12 0-30 4-43l7-54c7 5-1 23 0 33-3 11 1 22-2 30 2 8-9 36 5 26 15-3 15-15 14-27-5-8 3-17-1-30 1-7-3-36 4-24v45c7 2-6 26 3 26 13-2 15-15 12-23 4 7 3-18 5-25l5-38c-5-13 10 1 2 12l-5 49c3 6-4 21 6 10 7-9 16 3 16-15 1-22 1-46 6-66 4 22-7 52 0 70 9-17 1-45 8-66-2-12 10-38 6-12 0 21-13 62-2 72 0-8 7-1 11-10 13-5 15-17 16-30 5-14 0-50 14-53-5 23-11 46-12 69-2-6 15 9 13-10 0-13 6-21 4-35l1-37c5 8 2 24 2 35v32c-9 18 13 11 5-2 1-17 4-7 6-27 2-14 2-28 6-41 18 0-12 56-1 48 1 10-6 23-1 27 14-3 21-9 18-24 0-17 1-11 2-16 2-10-3-28 5-33-2 10 1 29 1 24 7-9 3-24 12-32 5 7-8 25-1 24l-9 47c11-5 23-6 34-11-1-13 2-28 0-40-3-6 6-32 2-29 9-11 3 14 10 15-1 12 1 9-3 23 2 8-10 34 4 25 10 1 21-26 18-8-6 10-25 9-24 21 1 11 20-3 29-3 6-1 33-13 24-2l-55 16c2 12 2 24 2 36-11-2-4-23-7-32-8-2-21 8-32 11-6 8-2 25 1 35 8 10-10 2-7-8 0-9-3-34-6-13 1 7-5 33-5 14 2-13 5-26-10-13-14 3-4 22-7 33 1 14-8-9-4-17 1-20-17-2-10 10 2 21-7 11-3-4 6-17-20-5-14 6 2 7 4 24-3 12 0-17-6-20-21-11-16 1-7 18-9 29 4 22-8 11-5-5 3-18-6-21-5-2-4 8 7 22-3 21-2-9 4-31-3-31-12 4-27 7-22 23 4 14-4 26-6 7 6-18-8-21-14-7 2 9-4 30 3 30 2 18-11 11-6-4-3-8 7-35-8-24-17 3-13 17-12 29 13 14-10 10-5-5 4-19-8-10-19-5 3 6 1 33-4 22 5-12 0-26-12-13-5 12 4 21 1 30-10 17-7-13-7-21-3-16-10 11-7 18 3 18-13 14-3 4 0-11 4-30-12-18-11 5-1 22-4 33 3 8-4 31-6 13l1-42c-13-1-10 21-4 8 1 5-7 34-8 17 2-14 2-26-14-14-14 3-7 20-9 31-2 6 2 31-6 23 0-7 4-38-1-18-10 9 2-32-11-18-11 6-3 23-5 34 1 6 4 26-5 21l-1-48c-13 3-10 21-5 28-4 22-6 1-6-10 4-17-20-1-19 7-2 12 1 25-1 36-7 0-5-18-9-26 2-18-15 0-23 2-8 8 1 22 3 33-10-1-1 18-2 23 1 4-4 9-6 5Z"/><path fill="#f3c010" d="m423 1541 1-1-2-1-2-1v-10l1-15 1-5 6 1h6v-8l-3-3c-3-4-11-8-18-10l-7-2v-5l1-10 2-18c2-20 9-70 13-84l2-6h2l5 1 3 2h9v-5h3v-3l-8-6-8-6 1-7v-7l2-2 1-2h7v3l1 3v-8h6v10h-6l7 9 8 9 5 3 4 3v1c0 2 7 7 11 8l3 1v-6l-2-4-3-4h-1l-2-1-2-3-8-6-6-5-3-6-4-6v-6l-2-7-2-2h-7l-1 1-1 2h-4l-1-2v-2l2-5 2-5v-13l6-1 7-1h2v8l2-1 2-1 1-2-1-1-1-5v-4l6-1 7-1 11 1 16 1 4 1 4-1 5-1 1-5 1-4h5l4 7 4 7 2-3 3-3h2l6 2 3 1 1-2 2-2h6v2l1 1h11l1-1 1-2h6l-1-3-2-2 1-9 3-11 1-3h2l3 1 2 1v18h4l3 6 4 6h5v4l-1-2-1 1-1 1 2 4 1 3h3l3-1v-1l2-2h1v4c0 5-3 23-6 33l-3 16v7l-4 2-3 2v-2l-1 2-16 13-2 2-1 2h-3l-1 3-2 3-1-1v-1l-3 4-3 5c-9 8-16 17-23 27l-3 3 2 2-3 1-2 2v4h-2l-2 1 1 2v1l-1 1h-2l1 2v1l-2 1-1 1v1l1 1-5 5 2 2h-3l1 1v2l-1 2-2 2 1 1v1h-3l1 1 1 1h-2v6l-2 1-1 2v6l-1 5h-2v2l1 2-1 2c-2 3-2 22-1 37l1 14 1 6h-3l1 1 1 1h-6l-2-1-3-6-1-4v-1l1-2-2-2-1-2v2l-1 1h-1v-2l1-2h-5l1-4 1-5h-3l-1 5v4h-3l1 2 1 3-4 4-8 9-3 4-1-2-2-3 1-1 1-1h-3l1-1v-2h-2v-5l-1 2v2l-2-2-2-2 1 2 1 2h-3l1-3v-2l-2-1-1-1v-3l1-3-1-2v-2l-2 1-2 1v-18l-1-4-1 2-1 2v19l-2 5-2 6-2 3-1 1-2 4-3 3h-1l-1-1v2l-1 3h-3v-1Z"/></svg>