<svg xmlns="http://www.w3.org/2000/svg" viewBox="0 0 400 527"><path fill="#fff" d="M.2 283.6V40l2 1.5 1.2-4.4 2-6 .9-1.8v-3h1.5l.4-3.2h1.2l.8 4 7-.9 2-3.2 1.2-8.4h1.8l1.3 3.1 3.8-.5v-.7l-.3-.8.8-.6c.4-.3 1.3-.8 1.9-1l1.2-.4v1.6l.3 5.1.8 3 .7 3 2-.2c1 0 3.3 0 5 .3l3.5.7.2 1.5.3 1.4v-2.6l.5.4 1 1.3c.3.3.9.5 1 .4l.7-.2.2 7.4-.2 2.1.7 1.4-.4 2.1h1.5l1.3 3.1h1.2l.7-1.9a55 55 0 0 0 2-9.8v-1h.7v-1.6q.9-3.9 1.6-13.2h.5l-.1-5.1.7-1.5c.9-2.3 2.5-7.4 2.2-7.4-.1 0 .2-.9.7-2l1-2 .5.6L63 3.1c1.7 4.3 3 7 4 8l1 1.2 2 5.1c1 2.5 2 5.1 2.8 7.7l2.4 5.9c1 1.7 3 5.8 4.5 9 1.6 3.2 3 5.8 3.2 5.8s1 1.6 1.8 3.6L86 53l2.4.2.7 1.7 2-.2 1.7 2.9v10.5h1.4l-1 2.1h.8c.8 0 2 2 2.4 3.8l.2 1-.4 19.9.6.6.5.8 2.5-8.1.4.8.4.8-.2-1.1-.3-1.2 1-2 1.8-5.6 2.2 2.2 2-.2h3.9l1.7.1.7-1.5a5 5 0 0 1 1.9-2.1l1.2-.7v-2l.7-.7a17 17 0 0 0 1.8-2.3l1-1.6-.8-1.9 2 .5c1.2.4 2.2.9 2.4 1.2l.2.6v-2l1.3-1.2.2 2.8c.2 1.6.2 3.5.2 4.2v1.3l.8.7c.5.5 1.5 1.9 2.2 3.2l1.6 2.5 9 .2.9-6.5h1.2l.3-3.3 2 .5 2.6-6.7.6 1V65l.8-1.3a5 5 0 0 0 .8-2.1v-.9h1.5l3.2 9.2.6-.6c.3-.4.7-.5 1-.3l.3.5.2-3 .9-8.6.6-5.7h.5c.3 0 1 .6 1.5 1.5l2 2.7 1.3 1 2 .4 2 .2 1.7-2.8 3.3-5.3 1.7-2.5V46c.4-2.8.8-5.7 1-8.5l.3-3.5h.6c.3 0 1.3 1.2 2.4 2.6l1.9 2.6.3-.8c.2-.4 1-1.5 1.9-2.3l1.5-1.2.6.5.7.5-.2-1-.2-.9.4-.5a9 9 0 0 1 2-1l1.5-.4.2 3.6.2 3.5.4 1.3.5 1.2v4l1 .7c.7.3 1.3 1 1.4 1.6l.2 1h1.5l.3 2 .4 1.7.2-1.4.3-1.4 1.8 1.5 1.8 1.6 1-2.7c.5-1.5 1.3-3.4 1.9-4.1l1-1.4.7 2.8c.5 1.5.9 3.3.9 4 0 .6.5 2.7 1 4.8l1 3.6 1.5.2 1.6.2.9 2.8c.5 1.6 1 2.9 1.2 2.9s.7.6 1 1.5l1 1.5.4-1c.3-.5 1-1 1.5-1h1l.7-2c.4-1.3.8-2.2 1-2.2l1.4 1 1.3.7 3.8-1.2 3.8-1.4.5 1.2.5 1.2-.3-1.8-.1-2 .2.4c.4.4 1.5-3.9 1.8-6.7l.3-2.6.6-2 .7-1.9 1 .5a4 4 0 0 1 1.4 2c.5 1.5 1 2.1 3.8 4l1.5.9 1.7 2.9 1.8 3 1.8.3 2 .3h.5l-.1 1.8v1.9l.5.4.6.3v-3.4l1.8.2 1.9.2.8-1.5 1-2.1c0-.4.5-1 1-1.3l1-.7.8 3c.5 4 1.4 8 2.5 11.8l1.9 6.6.8-1.1 1-1.2.6.3c1 .4 1.4 2 1.9 7l.4 4.6.8 1.7.8 1.8h1.5l-.2.8-.2 1h.6l.2 3.7.2 3.8.7.5.7.6 2.6-.6 3.5-.8.8-.2v-2.4a22 22 0 0 1 1.3-5.2v.8l.4-1 .4-1.1 1.3 1.5 1.3 1.5 2.7.6c1.5.3 3.3.7 4 .7h1.5l.4 1.3c.2.8.7 1.7 1.2 2l.8.7 1-1.2.8-1 .6-2.7c1-5.7 1.6-11.4 1.7-17.2l.2-2.5.5 1.1.4-2 2.3 1.8 2-.7c2-.6 2.6-.6 6-.2l2 .2.4-2.4 1.4-1 2.6-2.3-.4 2 1.4-.9c.7-.4 1.8-1.2 2.2-1.9l1-1.2.6 1.4-.3-2.1.8-1.4c.5-.9 1-1.5 1.5-1.4h.5v-1.8l.2-2.6a40.2 40.2 0 0 1 1.3-6.5v1l.5-1.2.3-1.2.9 1.5.8 1.4 1.6.7 5 1.9c.4 0 .8.5 1 .8 0 .3.6 1.2 1.2 1.8l1 1.3.2-.8a3 3 0 0 1 1-1.5l.6-.7.4 3h2.9l-.4 2.2h1.4l-.4-2 1.3-1.4.6 1.2c.4.7.7 1.6.7 2.2v1h-1.1l.2.7c0 .4 1 .7 2 .8l1.7.2-.2-.8v-.9l1.9.5v4.9h.5c.3 0 1.2.7 2 1.6l1.4 1.7 2-5.8c2.8-7.4 5.3-15.2 5.3-16.5l-.4-2.2-.4-1.2.4-1.5.4-1.5-.5-1.6 1.2-3h3.5l2-2.9 1.8-6v-3.7l1.3-1.2 1.8 1.2.5-2 .7-1.6c.3.6 1.7-1.2 2-2.5l.4-1.5.5.7.5.6-.2-1.5-.3-1.5.5 1.5.6 1.4 2-2.5c1-1.4 2.2-2.8 3.4-4l.8-1 1.2 4.4-.3 2.7 1.2 1V25l1.6-.8 1.6-.9.5-1.6c.2-.8.5-2.1.5-2.8 0-1.6 1.3-5.2 1.8-5.3h.5l1 2.6 1 2.6h4.8c.5 0 1.3.1 1.7.5l.8.4v253.6l.2 253.7H.2V283.6Z"/><g fill="#82af52" stroke-width="0" font-family="Arial"><text dx="0" dy="0" font-size="15.8" font-weight="100" transform="translate(103.9 356.4)"><tspan y="0">Of the web pages tested.</tspan></text><text dx="0" dy="0" font-size="20" font-weight="700" transform="translate(102.5 329.8)"><tspan y="0">Cleaner than 100%</tspan></text></g><g fill="#82af52" stroke-width="0" font-family="Arial"><text dx="0" dy="0" font-size="15.8" font-weight="100" transform="translate(103.3 258)"><tspan y="0">The same weight as </tspan><tspan x="0" y="15.8">0 sumo wrestlers.</tspan></text><text dx="0" dy="0" font-size="20" font-weight="400" transform="translate(104.3 213.5)"><tspan y="0">Produces </tspan><tspan y="0" font-weight="700">0.7lbs </tspan><tspan y="0" font-family="arial">of </tspan><tspan x="0" y="20" font-family="arial">CO2 per 10K views </tspan></text></g><path fill="#040302" d="M127.7 161.8c-1.3.1-4-.6-1.6-1.2 1 .1 2.7-.2 2.9 1 .1.6-1 0-1.3.2zm-5.9-1.6c-1-.3-2.1-3.6 0-3.4 1.7-.2 1.7 2 1 3.2-.3.3-.7.2-1 .2zm-14.9-3c-1.8-.3.1-1.5 1.1-1.7 1.6-1.2 1.3 2.7-.3 1.8-.2 0-1 .2-.8 0zm1.8-1.5c-2.2-.3-.2 1.3 0 0zm8.4 1.2c-1.2-1-1-2-.4-2.3-.9-.8 2.1-.6 2 .3-.2.9-.5 2.2-1.6 2zm-4.6-2.6c2.3-.8-1 1.5 0 0zm-7.8 1.3c-2.5.2-5-.2-7.6-.2 2-.6 6.8-.6 7.6.2zm8.6-1.8c-1.9-1 1.5-3.3 1.4-.8-.4.4-.7 1-1.4.8zm1.8-1.4c-2-1.6 2.5-3.8 1.7-.9-.4.6-1 1.5-1.7 1zm3.2-.7c-1.4-1.2.2-3 1.7-2.2.3.5-1 2.8-1.7 2.2zm-12.2-.6c-.2-.6 4 .2 1.2.1-.3 0-1 .2-1.2 0zm-3.9-.3c-2-.5 1.4-.3 2.1-.4.8.3 3.2-.1 3 .4h-5.1zm8-1.7c-.3-.9-1.6-3.2.2-2 .5.7.7 2.5-.2 2zm1.7-.6c-1.6-1-1-4.9.5-3.1-.2 1 2.2 4-.5 3.1zm-18.8-3.8c1.4-.1 2.6-.5 3.8-.6 2.4 0 .1.6-1 .3-.4.7-1.5-.1-2 .4m32.6-.4c-3 0 1-3.4 2.5-2.4 1.4.5 1 2.3-.5 1.9-.9 0-1.3.4-2 .5zm-28.2-.4c1.6.2 3-.8 4.4-.6.8 1-1.8.4-2.5.7-.6 0-1.5.2-1.9 0zm20-.2c-.7 0-4 0-2.8-.4 1-.3 1.8.2 2.9 0 .1 0 .2.6-.1.4zm-4.4-.5c1.6-.4.7.8 0 0zm-34.8-.6c-2-.3.7-.1 0 0zm2 0c.5-.6 3.1-.2 3.3-.2-1 .3-2.3.2-3.4.2Zm-.6-.3c.7-.5.2.5 0 0zm21.3-.3c-1-.5-1.4-1.6-2.6-1.9-.8-1.2-2.6-.4-3.9-.7a14 14 0 0 1-4.5 0c1.9 0 3.7-.3 5.6-.4 2.4-.4 5.3-1.8 7.3.2 1.2.5.5 2.7-.7 2.7-.2.4-1 .3-1.2.1zm9.1-.3a5.6 5.6 0 0 1-1.2-4c1.6-.9 2.8.9 2.5 2.4.2 1 0 2.1-1.3 1.6zm22.1-.6c-1.9-1.5-2-4-2.2-6.4-1-4.2 4.9-3.3 3.4-.3.8.2 2.3 1.5 1.5 2.1-1 .8-.4 2.6-1.3 3-.8-2.6-.7 0-.6 1.5.3.4-.8.3-.8.1zm-12.3-1c-2-1.5-.1-3.4 1.9-2.4 1.7.2.1 2.7-1.1 2.4h-.8zm-47.6-.4c-2-.4.1-3.4 2-2.1 1.8.4 1.2 2.6-.7 2.2m-5.7-.6c-1.1-.3-3.1.1-3.2-1-.3-2 1.7-1.3 2.8-1 .4.3 1.2 1 .9 1.5m11.5 0c.7-1.2 2.5.1.1.2m26.9-.9c-1.1-2.7 3.2-1 .7.2-.2 0-.6 0-.7-.2zm-11.7 0c-.5-.5-1.5-.8-2-1.8-.4-1-1.9-.4-1.1-1.5-.3-1.7-1.6.5-2.6.2-2.4 1.5 0-2.2 1.8-1.2 1.4.2 3.5.1 4.4 1.4 1.3.8.4 2.3-.5 3zm-33.9-.2c-1-.2-1.8-3-.8-3.6 1-1 2.2-.2 3.3.1 2.3-.5 3.5 1.2.6 1.5-1.5-1.1-1.4 1.2-3.1 2zm22.6-.6c-.8-1.3-.5-2.7 1.3-2.2 1.6.6 1.3 1.5-.1 1.8-.3.1-.7.5-1.2.4zm36.6-.6c-.8-1.4.3-2.4 1.7-1.7 1.3 1.1-.6 2.1-1.7 1.7zM74 135.2c-.6 1-1.7 2-2.5.6-1.7-1 1.5-.4 2.3-.6h.2zm1.2-.2c1.2-.2 2.7-.3 3.8-.7 2.2-.9.6 1.3-.5 1.9-1.3 1.5-2.3-.4-3.3-1.2zm-17.5 1.5c-1-.6-3.1-.7-3-2 .6-1.7 4-.2 3.7 1.2l-.7.8zm56.8-2.2c.2-1 2.4-.4 3.4-.8 1.3-.6 2.7.5 2.2 2-1 .3-2.5-.6-3.7-.7l-1.9-.5zm23-1.8c1.4-.6 3 .5 1.7 1.5-.3.9-2.9-.3-2.3-.9l.6-.6zm-79 1.7c1.2-2.4 1 2.5 0 0zm89.2.4c-1-2.6 2.9.9 0 .1Zm-21.2-.3c-2.8-2.9 3.5-3.6 1.6-.4-.2.7-1.1.9-1.6.4zm20.2-.2c-1-.7-2.9-.4-2.4-2.8l3.5-2.2c-1.5-1-1.7-4.6-2.4-1.7-1.2 0-3.2 1-2.6-1 0-1.6-.3-3.3.9-4.6 1.6-1.8 2.6 1.7 3.4 2.6.9.5 1.8 1.7 2.3 2.7.3 1.2-.5 2.1-.2 3-.6 1.2-1.5 2.3-2 3.4m1.2-5.4c.9-1-1.5-2.6-1-1.4.5.4.2 1.6 1 1.4zm-63 4.5c1.2-.8 2-1.6-.2-1.6-2.7.1-1.2-.6.6-.5 1.3 0 2.4.3 3-.6 1-.8 1.9-.8 2.6-1.7.7-.4 1.3-1.2 2-1.6 1-1.2 1.9-.7 1.3.8a13 13 0 0 1-7 5.7c-1 .8-1.4.4-2.3-.5zm18.1.4c-1-2.4 3-1.4 1.1.1-.4.5-.8.4-1.1 0zm46.1-1c-.6-1.2.9-2.7 1.9-2 .5.9.8 1.8-.3 2.2-.2.4-1.4 0-1.6-.2zm-39.3.8c-2.3-1.5 2.8-.3 0 0zm11.1-.7c-.4-1-1.5-3.5.3-3.2 1.4-.2 3.2 1.7 1.7 2.8-.4.8-1.3 1-2 .4zm18.7-.3c-1.9-2.9 3.2-2.7 1.5-.3-.4.6-.9.6-1.5.3zm-63.7-1c-1.3.1-3.4 0-1-.2 1.8.2 3.5-.5 5.1 0-1.3.1-2.7.7-4.1.2zm56-.9c-2.4-.5-1.5-3-3.6-3h-9.3c-.5-1.1 1.7-.7 2.6-.8-.3.6-1.9.2.3.3h4.7c1.1-.2 3 .3 4.4.1 1.3-.3 3.1-.7 3.7 1 0 1.2-1.7 2.5-2.8 2.4zm-16.7-1c-.9-.4-1.9-3.8-.1-2.6.9.7 2.5.5 3 1.4.2 1.7-1.7 2.5-2.9 1.2zm11.6 0c-1.8-1 2.8-1.6 1.4-.4-.3.6-1.2.7-1.4.4zm-26.8-.8c-1.6-1.1-1-3.5-1.4-5.3a9 9 0 0 1 4.7-.2c1.5 0 2.6.5 4 .8 2 .1 2.1 1.7.5 3-1.6 1.7-4.1 1.6-6.2 2m34.1-1.7c1-3.5 4.6 0 1.2.9-.7 0-1-.2-1.2-.9zm-53.5.1c2.4 0 4.9-.4 7.3 0h-7.3zm57-2.9c.4-.3 2.3-1 1.7.4-.1.3-.1 2.4-1.3.8l-.4-1.2zm-5 1c-2.6-.5 1.5-.3.4 0h-.4zm-40.2-.2c-1.3-.3-2.6-.3-4.1-.2-1.8 0-1.7-.5.2-.4 1.7 0 3.5 0 5.2.2.4.8-1.4.3-1.3.4zm20-1.3c-1.2-.2 2-.5 2.4-.1 1.7.1-1.5.3-2.3.2z"/><path fill="#876000" d="m113.2 155.8.1-.2h.1c0 .3-.2.3-.2 0Zm-4.2-3.1-.2-.5.1-.5 1.1-.6c.3 0 .3 0 .3.4l-.3.6-.6.6m8-2.4.1-.2.2-.1h.1v.2c-.2 0-.1.2 0 .3h-.2c-.1 0-.2 0-.2-.2Zm-9.4-.1v-1.8h-.2c-.1 0-.2-.1-.1-.2 0-.1 0-.3-.2-.3l-.1-.5v-.4c0-.2.3-.3.8-.3h1.4l.1.3h-.1c-.2 0-.3 0-.2.3.3.3.4.8.2.8q-1.7 2.3-1.7 2Zm10-.4c0-.1 0-.2.2-.2h.1l-.2.3-.1-.1Zm-5.2-2.1-.1-.1c-.2-.2-.2-.4 0-.4.1 0 .3.2.3.4l-.1.2h-.1ZM106 144h.5q-.1 1.5-.5 1.5h-.3m-1.4-.6-.2-.1h-.2l-.1-.2-.2-.2v-.1l1.1-1.3c.3 0 .4 0 .4.4q-.7 1.6-.8 1.5Zm10.2-1.2s-.1-.2 0-.2l.2-.2s0-.1.1 0h.3c.2 0 .2 0 .2.2l-.1.2h-.7Zm-.8-.2v-.1h-.5c-.5 0-.6 0-1-.2-.3-.2-.3-.2-.3-1 0-.3 0-.3-.2-.4h-.2s.2-.2.3-.1v-.1c.2-.1.2-.3.2-.7v-.8l-.2-.5 2.1-1 1 3.6q0 .3-.7.8h-.3c-.2 0 0 .3.1.4l.2.2h-.2l-.3-.1Zm1.7-3.2-.2-2.3h1.4c.2 0 .7.6.8.9 0 .3 0 .4-.6 1l-.4.4h-1Zm2.6-1c-.5 0-.7-.4-.3-.8l1.1-.1q.4.2.5.5s0 .2-.2.3c0 .2-.1.2-.5.2a4 4 0 0 1-.6 0Zm-6.6-1.5-.1-.3c-.2-.1.3-2.5.5-2.7q.2-.2 1.3-.2.7.5.7 1l-.9 1.8-1.5.5Zm5.1-1.1-.2-.2c-.2 0-.5-.3-.5-.4l-.3-1.5h.1s.2.2.2 0c0 0 .6 0 .9.3.2 0 .3.2.6 0h.4c.2.3.4.3 1 .4l1.1.2-1.4 1.2h-1.9Zm-5.6-2.7q.3-1 .6-1h.5l.1.5c0 .2-.6.7-.9.7l-.3-.2Zm-25.7-1.3c0-.2 0-.2.3 0 .2 0 .2 0 0 0h-.3Z"/><path fill="#f7bc00" d="M128.9 161.8c-.6-1-2.3-1-3.4-.6-1 .8-2.3-.2-3.2-.5-.8-.2-1.4-1-2.3-1.2a24 24 0 0 0-2.5-1.6c-.6-.7-1.9-1-2.9-1.6-2-.7-.7-1 .8-2.2 1.6-1.3 4.1-2.5 4.7-4.3.6-.2 1.5-.1 2.4-.5.7-.3 2.8-.7 1.5-1.4-1.3-.4-1-1.6-.9-2.8-.2-1.5 2-1 2.8-.7 1.3-.2 1.4 1 1.9 1.8 1.3 1 0 1.2-1.4.8.3 1.2 2 0 2.7 1.1 0 1-1.1 1.5-2 1.8-.8.4-1.7 1-2.3 1.5l2 1.4c.5.7 1.6 2.7-.2 2.7-1.3-.6-2.6-.4-4.1-.3-.8-.5-1.8-1.1-2.6-1.4-.7 0-3-.6-2.3.2 1 1-2.6-.2-1.7.8.3 1 1.6 3.1 2.4 1 .6-.4 4.1.7 2.3 2 .3 1 .7 3.3 2 2 .2-1.4 1.3-1.1 2.4-.7 1.6.3 3.2.8 4.8 1.3 1.1.3 2.3 1.2.3 1.5-.3 0-1.3.4-1.2 0zm-3-14c-.1-.3-.6.1 0 0zm-20.5 8.6c-2-.9.2-2.2 1.7-1.8a7 7 0 0 0 3.6-.7c-.3-.5-2-.8-1.2-1.5 1-.3.5-1.8-.4-.3-1.2-.3-1-1.3-1-2.2.2-.8 1.4-2.7 1.9-1.4.9 1.7.8-1.5-.5-1.5-.2-.1-2.4.2-1.8.6-.9-.6-1.5-1.6-2.5-2-1-.2-.9-1.5-.2-2.2-.9.2-1 1.7-2.3.6-.1-.4-.7-1-1.2-1.7-1.6-.9 1-.1 1.8 0 1 .5 2 .6 2.9 1.3.6.2 2.3 1.8 2.3 1.5-.7-2-3.3-3.1-4.5-4.7-.1-1.3-2-1.8-3.1-1.8-1.6-.6.6-2.1 1-3.1.6-.6 1.3-3.2 1.9-2 2.3-1.1-.7-1.8-.2-3.6-.8-2 .6-2 2.1-2.3 1.6-.4 3.2-1.4 3.6-3 .4-1 1.8.6 2.5.6 1 .4 2.2.7 2.9 1.2l.2 5.8c-1.8 0-3.5.2-5.1-.5-1.4.4 1 1.1 1.7 1.3-.3 1.5-.1.5 1.2.4.9.4 1.9.6 2.4 1.1 1.1.2.6 2 1.8 2 1.7.6 2.4-1.5 4-1.2 1 .6-.8 2.8-2 2.5 1.1-.4.6 2-.4.8-2 .6 1.7.2.4 1.5-.3 1.6 0 3.1 0 4.8 1.2-.5 1.4-2.2 2-3.3.3-1.4 1.7-1.4 2-2.7.6-1-2-1.2-.2-2.3.6-.6 2.3-2.4 1.3-3-3-.2-6 0-8.7-.4l.6-4.3c1.5 1 3.1.7 4.8 2 .7.7 1.4 2.4 2.4 1 .5-1.1 2-1.3 3-2l4.3-2.3c-.2 1.5 1.3 1.8 2.3 2.5a17 17 0 0 0 2.3-2.4c-.4-1.2 2.3-2.5 1.5-.6 1.9 1.7 3-2 1.2-1.9 1.5-1.2 2.5-1.4 2.9.4 1.8-.2-.2-2.7 1.6-2.6.9-.8 1.6-.6 1 .6.3 2.8-3.6 4.5-5 7-1.1 1-3 .9-4.5 1.4-2.2-.1-2 1.4-2 3-.2 1.6-.9 3.3-.1 4.9.4 1.6-1.5 1.4-2.4 2.1-1.1 0-2.2.4-3.1 1a5 5 0 0 0-4.3 2.7c-1 1.5-2 3.3-3.7 4.3-1.1 1.2-3.2-.3-4 1.8-2.1.5 0 2.4-1.7 2.5-1 .6-1.9 1-3 1.2-1 .1-2 .7-3.3.9-.3 0-.5.2-.7 0zm7.2-7.6c1.3-.5-.7-2 0-2.4.7.6 2 1 2.5 1.6 1 .4 2.6.4 2.8-.8.4-1.2 0-2.5.4-3.8-1.1-.4-2.6.7-3.2 0-1.7-.1.7-1.7-1.3-1.8-1.9 0-2.1-1-.3-1.9.8-1.8-2 1.3-1.7-1-1-1.8-2.8-.4-1.8 1.1.3.9.6 2.2 1.9 2-.3 1.4 1.6 1.2 2.3 1.7-.5.5-1.2 2.4-2 2-1-1-1.6 1-1 1.8.3.5 1 1.6 1.4 1.5zm6-1.5c-.2-1.3-.9 1.2 0 0zm-12.3-2c.5-1.8-.8-.7 0 0zm10.4-5.5c1.8-1-1.7-2.7-1.3-.7 0 1 .5 1.4 1.3.7zm-8-1.6c1.3-1.5-1.9-1.8-.8 0 .1.6.8-.4.8 0zm3.4-.5c.8-.5 1-1.2 1.6-2-1.5-2.4-1.8.9-2 1.2-.3.2-.1 1 .4.8zm15.4-3.3c1.2-1 1-2.7-.9-2.4-1 .4-.5 3 .9 2.4zm-9.4 20.2c.2-.8.6.8 0 0zm-3.6-1.8c-1.5-1.8 2 0 0 0zm-5.6-.4c.3 0-.2-.2 0 0zm12.5-4.4c1-1.8 1-.4 0 0zm-12.1-.6c-.2-.3.5.2 0 0zm-33.7-7.6zm.2 0c0-1.4 1.8-1.2 2.8-1.6 2-.4 4-1.3 6-1.4 1 1-.5 1-1.1 1.4-1 .8-2.5 0-3 1.2-1.5 0-2.8.6-4.5.4 0 0-.6.1-.2 0zm-7-.7c.4-1.4-1.7-1.9-2.9-1.8-.7 1-.6 2-2.2 1.2-1.5.1-2.4-1-.8-1.8 1.2-1.5 2.9.2 4.4-.1 2.2.1 4.3.5 6.5.1 3.3-.1-.9 1.1-2.3 1.3l-2.7 1.1zM61 138c-1-.4-2.5-.5-3.3-1.3 1-1 .1-2.4-1.2-2.5-1.3-1-2.8 2.6-1.8-.7 1.1 0 2 .3 3.2.6 1.1 1 1.3.6 2.8 1 .5.6.8 1.8 1 2.6.2.8-.4.3-.7.3zm25.9-2c-.3-.6 1.6-1.6 2.2-2.4 2-1.6 3.5-3.6 5.2-5.5.7-1-.2-2.2.7-2.6.8-.9 2-1 3-1.4 2.2-.9 1 1.8 1.7 2.9 1.1 1-.8 1.2-1.1 2.3l-4 5.1c-1.8.2-3.9-1-5.1.7-.4.9-1.4 1-2.3 1.3-.3 0-.5-.1-.3-.4zm-5.2-.4c1.5-1 3.5-4.2 4.9-1.8-.3.4-2.2 1-3.1 1.6l-1.8.2zm19.4-5.8c.3-1.1 2.4.7 1.3 1m16-2.9c.7-.6 1.7.3 0 0zm28-3.6c-.8-.8-.7-2.2-1.3-2.9 1.4-.3 1.4 1.6 1.7 2.5 0 .4.3.9-.3.4z"/><path fill="#df5980" d="M130.7 161c-1-.1-1.7-.8-2.8-1-1-.3-2.1-.7-3.2-.8-1-.1-1.9-.6-1.8-1.7.6-.5 2 .4 3 .6 1.3.4 2.4.3 3.5.9 1 .2 2.2.4 2.1 1.5.1.6-1 .7-.8.5zm-11.5-4.7c-1 0-1.3-2.7-.4-1.4.3.5 1 .8 1.6 1.1.5.3-1.1.6-1.2.3zm7.5-.8c0-.6.9.1 0 0zm-3.5-.6c.1-1.3 3.8-3.2 2.6-2.2-1 0-2 2.6-2.6 2.2zm-3.6-1.6c-.5-1.4.4-3 1.5-3.9 1.4 0-1.2 1-1 1.9-.6.5.3 3-.5 2.1zm-4.9-.7c-.6-1-2.2-.3-3.2-.7-.5.2-3 .6-1.4 0 2-.3-1-2.8 1.6-2.1 1.2 0 2.4.5 3.5.3.3-.7-1.3-1.5-1.7-2.3-1-.6-1.3-2.2-.3-.6.7.8 1.4 2 2.4 2.4 1-1.6 1.7-1.3.4 0-.5 1-2 1.7-.8 2.7 1.3 0 1.2-1.4 1.5-2 1.2-.5 1.6 1 1.7 1.7-1 .6-2.5.6-3.7.6zm-5.9-.4c-.5-.7.7.2 0 0zm-2.8-1c-1.3 0-2.7 0-3.9-.4h6c.3.8-1.7.2-2.1.4zm15.8-2c.2 0 .7 0 0 0zm-12-1c-1.1-.6.3-.2 0 0zm14.5-.2c.8-.5 3.5-.7.6-1.1-1 0-2 .8-2.8-.5 1.6 0 3.5 0 5.1.3.8-.1 2.5 1.4 1.3 1.3-1-.7-2.8-.2-4 .1h-.2Zm-17.2-.8c-1-1 1.8 0 0 0zm5-1.4c-.2-1.5.6-.3 0 0zm-15.9-1.5c1.4-.2 2.7-.5 4.2-.6.5 0 3.2 0 1.7.2-2-.1-4 .5-5.9.4zm17.7-.7c1.5 0 1.1-.9.6-2-.7-1.5-.4-3.3.1-4.7-1.5-.3-2.4 1.3-2.7 2.5-.2-1.2.5-2.2 1.4-2.7 1-.3 2-.2 2.5-1-.9.9.7 1 1.8 1.4.6.3 3 .2 1.8.9-1.3 0-2.5-.7-3.7-1-1-.3-1.3 1.8-1.2 2.7 0 1.1.3 2 .7 3 1 1.1-1.6 1.4-1.3.9zm-34.2-1c1.3 0 2.5-.3 3.8-.2-1.5.2-3 .2-4.5.2h.7zm51.8-1.4c-.3-.8-.5-1.6-.5-2.7a11 11 0 0 1 .7-4.7c.6 1.7 2.8-.4 2-1.3-1.5-.3-.7-1.2.4-1.2 1.4-.6 3.4.4 4.2-1.2.6-.8.9-1.6 1.6-2.4.9-1 1.8-2.6 3.3-2.9l2.8-.1c1.1 1.2-.6 1.1.7 2.6 0 1 1.5 2.6 2.4 1.8.3-1 .5-2.3-.7-2.8-1 .1-1.5-1.8-.8-1.5.6.4 1.6 1.1 1.9 2-.3 1.3.8 1.7 1.4 2.5 1.1.5-.8 1.8-1.2 1 1-.2-1.1-1.5-1.4-.4-2 0-.3.8-3.4-3 .3-2-1.4-.7-1 .3-1 .8-1.8 2-2.9 2.5-2 .1-.1 2.3-2 2.8l-2.7.8c-1-.1-2.4-.1-2.6 1.2-1 0-1.9 1-2.1 2-.3 1.7-.3 3.6 1.3 4.6-.3.1-1.3.7-1.4.1zm-46-1c2.5-.1 5-.6 7.6-.4.5-.3 5-.4 2.6-.3-1.4.4-3.1 0-4.7.4-1.8-.1-3.6.4-5.4.4Zm-15.3-.4c-1.3-.2-2.5-.7-.3-1.4 1-.5 2-.6 3.1-1 1.2 0 2.1-.5 2.4-.7 1-.4 2.4.2 3.3-.8l5.4-1.1 6.2-3c.6-.6 1.8-1.7 1.3-.2a10.6 10.6 0 0 1-4.2 3.7c-.9 1-1.9-.3-2.8 0-.3.7 0 2-1.6 1.9l-4.2 1c-1 0-2.7 1.3-3.1-.1-1-.1-2.8-1.3-3 .3.5 1.6-1 1.2-2.2 1.2-.3-.1.1.4-.3.2zm27.4-.6c-.6-.4-1.4-.5-1.7-1.2.5-.7 1.5-1.7.7-2.5-.4-1-2.3-.6-2-1.7.5-.9 1.4-1.8 1.8-2.6 0-1.6 1.2-3 2.7-3.3.8-1 1.6.5 2.7.1 1-.2 2.3.2 2.3 1.4.5.8 0 2.1-.7 2.7.2.9-.2 1.7-.8 2.5-.6 1.2-1.5 2.3-2.3 3.4-.2.8-2.3.8-2.7 1.2zm4.8-8.8c-.3-1.5-2.3-1 0 0zm18.1 5.3c-1.6-.9.8 0 0 0zm-6-3c.2-1.3-.4-2.7-.2-4.1-.2-.8.3-3.6.4-1.5.6 1.3 1.7 2.3 1 3.8 0 .9 0 2.6-.5 2.8-.2-.2-.6-1.1-.7-1zm34.5-.6c-1-.5-.3-2 .4-1.6 1 .5.9 2.7-.4 1.7l-.1-.1Zm-29-1c-1 0-2.7-.8-2.4-1.8.7-.8 1-2 2.3-1.6 1.3.4 2.8.4 4.3.5 1 .2 2.4-.4 3 .3.6 1 1.3-.5 1.9-.7 2-1 .4 2-1 2.2a4 4 0 0 1-2.4 1c-1.5.6-2-.3-2.7-1.1-1.4-2-2.6.2-2.2 1.3-.2 0-.8.2-.8-.1zm-41.4-.1c1.5-.7 3.4-.2 5-.3 1.6 0 2.9-.2.6.3-2 .1-5.8.3-6.4 0h.8zm40.6-4.4c3.3-.5 8.3 0 11.2.1h-11.2zM94 124.9c-1.3 0-2.6-.4-4-.3 1.8-.4 3.7-.4 5.5-.4-.9.2-3.2.3-1 .4 1.7-.1.8.6-.5.3Z"/><path fill="#61bad2" d="M109.4 157.4c.3-1 .4-2.4 1.8-2.4 1.3-.3 2.2-1.3 3.5-1.3.8-1.5 2.2-1.3 3.7-1.4 2-.8.2.5-.6 1-1.1.8-2.2 1.9-3.4 2.3-.3-2.7-1 .4-1.6.9-1.1.1-2 .9-3.4.9zm1.3-1.5c-.5-1-1.3.6 0 0zm.6-.6c-.9-.2.2 1.3 0 0zm-4.4 1.3c-2.1-.5.4-.5 1.3-.6.3-.3-1 1.1-1.3.6zm14-7c-3.5.4.6-1.9 1.4-3.6.8-2 3-3.3 5.1-3.4.8-.3-1.1 2-2 1.5-1.4-.2-1.2 2-1.9 2.5-.9 1-1.7 2.2-2.4 3.4-.3 0-.4-.3-.2-.4zm-10.8-3c-.7-2-3-3.2-5-3.7-1.7-.3-1.5-1-.3-1.9.2-1.3 2 .5 2.5 1 1.3 1.3 2.6 2.4 2.8 4.1.3.2.3.7 0 .5zm9.7-1.4c0-2.2-.7-4.5.4-6.6.4-.7.7-2.3 1.3-2.1.8-2 .9 1 1.9.1 1.5-.7.3-2.2-1-1.7-1.1 1.6-1.3-.9-2.4-1.3-1.4.5-3 .2-4.5.6-1-.5-2.3-.7-3.3-1.3-.4-1.4-2.7-.9-1.2.4-1.2.4-1.5-2.8.6-1.9 1 .8 2.6.4 3.6 1.1 1.3.6.8 1.6 1.7.4 2.3.3 4.9.6 7.3 0 1.5-.3 2.3 1.5 1 2.3-.8 2-2.9 2.3-4 3.4.4 1.6 1 2.9.3 4.6-.1 1-.7 1.7-1.7 2zm10.8-2.1c-1.3-1.2-1-1 .4-1.8 1-1 2 0 2.9-.4 1.2 1 .5-2 .7-2.7.4-.6 1.6 2.2.4 2.7-.3 1-1.4 1.2-1.9 1.7-.8.2-2.3 1.6-2.5.8v-.2zm-60-6.3c-2 .1-4-.4-5.9-.7.8-1.7.7-.3 1.9 0 1-.6 1.5-1.6 2.7-1.1 1.5 0 2.8-.1 3 1.5.5.6-1.5.1-1.7.3zm2.8-.2c.9-.8 1.7-1.8 3-1.5.2 1.2 1.8 1.8-.4 1.6-.8 0-2 .1-2.6-.1zm63.4-.2c-.1-1-1.6-1.5-2.2-2 0-1.6 2-1.3 3.3-1.3.6-.1 1.3 2.5.4 2.4-.3.4-1 .8-1.5.9zm-57.3-.4c1.2-.5 1.2-2.2 2.6-2.2l3.6-1.1c1.6-.4-2.5 3.2-4 2.9-.6.2-1.7.7-2.2.4zm-17.7-1c-1.5.5-1.7-1.8-2-.8-.6.5-2-.6-3-.5-1.7-1-1 1.9-2.1.7-.7-.5-.7-2.1.2-2.6.9-.4 2.3-.3 3.3 0l3 1.2c1.4-.2 1 2.4.6 2zm-3.4-2.2c.2-2-1.2.7 0 0zm90 1.9c-1.6 0 .6-2.5-.7-1.2-.8 1.3-.1-1.1.7-1.4-.3 1.6.9-.8 1.2-1.2.4 1.2 2.2 1.4 1.5 2.7-.6 1-1.3 1.3-1.8 0 .1 1.3.2 1.5-.5.2-.2.3.5 1.4-.4.9zm-2.8-1c-1.5.2 2.5-2.5.9-1-.3.1-.8 1.5-.9 1zm2-2c.4 1-.6-.1 0 0zm-.2 0c-.8.8-.3 0 0 0zm-4.4 1.9c-1 0-2.2-1.4-3.2-.5-2 .8 0-3 .3-1.4.3 1 2-.5 1.5-1.1-1.7-1 .5-2.4 1.4-3.5.9-.6 2 .2 3 .6.7.7 2.3 2.1 1 2.7-1 .3-2 1.3-.3.4 1.3-1.2 2 .8 1 .4.6-1.8-2.2 3-3.3 2.4-.4 0-1 .5-1.4 0zm1.7-1.8c2-1.3-1.8.5 0 0zm2.9-.1c-.3-.4.5 0 0 0zm-17.5-4c-1-.5 1-.8 0 0zm4.4-.7c-2-1 .6-.9.9-1.7.8-.5 1.5-1 2.6-1.3 1.2-.8 2.6.1.8.6-1.2.9-2.6 1.7-4 2.5-.2.2-.3-.4-.3-.1zm-39.6-1.7h.1Zm.2-.1c.5-.8 1.7-1.2 2.3-1.6.8-.8 2.5-.8 1.4.4-1.2.2-2.5.8-3.7 1.2H95Zm46-2.1c1.3.3 1.1-1.2 1.9-1.8.6-.3 2.6-.4 2.5 0-1.2.1-2 1-3 1.6-.4.2-1.4.8-1.4.2z"/><path d="m197.5 116.2-5.3 11.4-5.3-11.4h-1.7l-5.2 11.4-5.3-11.4H173l6 12.9h2l5-11 5.2 11h2l6-12.9h-1.7Zm10.9 1.3c2.8 0 4 .2 6 .4.2 0 .2.3.3.4 0 3 0 6.1-.3 9.2l-.5.2c-3.9.1-7.7 0-11.6-.2-.2-3.2-.2-6.4 0-9.6l.5-.3m0-1.5c-1.2 0-2.2 1-2.2 2.2-.2 2.9-.2 5.8 0 8.8 0 1.1 1 2 2.2 2.1 3.7.2 7.5.2 11.2 0 1.2 0 2.1-1 2.2-2.1v-8.8c0-1.2-1-2.1-2.2-2.2-3.7-.2-7.5-.2-11.2 0Zm16.2.1v12.9h1.6v-4.9h3.8l7.3 4.9h2.7l-7.3-4.9h4.2c1.1 0 2-1 2.1-2.1v-3.7c0-1.2-1-2.1-2.1-2.2H219Zm12.2 1.5c.2 0 .3.1.5.3l.2.4v3.6c0 .4-.3.7-.7.7h-10.6v-5h10.6Zm15.8 9.9h-9.3v-11.4h-1.5v12.9h10.7v-1.5Zm1.7 1.5h13.2c1.1 0 2-1 2.1-2.1v-8.6c0-1.2-1-2.1-2.1-2.2h-14.1v1.5h.9v11.4Zm13.8-2.2c0 .2 0 .3-.2.5l-.5.2h-11.6v-9.9h11.6c.2 0 .4.1.5.3l.2.4v8.5Zm17.3-3.5.5.2.2.5v1.8l-.3 1.6-.5.2c-3.7.1-7.5 0-11.2-.2a.8.8 0 0 1-.3-.5v-1h-1.5v1.2c0 1.1 1 2 2.2 2.1h10.9c1.2 0 2.1-1 2.2-2.1V124c0-1.1-1-2-2.2-2H269l-.5-.3a.7.7 0 0 1-.2-.5v-2.8c0-.3.1-.4.3-.6l.4-.2c3.8-.1 7.5 0 11.3.2l.2.5v1.1h1.6v-1.2c0-1.1-1-2-2.2-2a101 101 0 0 0-11 0c-1 0-2 .9-2 2l-.1 1.2v1.9c0 1.2 1 2 2.1 2.1h11ZM175.7 147v-5.7h9.8v-1.5h-9.8v-4.2h10.8V134h-12.3v12.8h1.5Zm23.3 0h1.8l-6-13h-3.4l-6 13h1.7l1.3-2.8h9.4l1.3 2.7Zm-9.9-4.4 3.3-7h1.4l3.3 7h-8Zm26.1-1.3c.2 0 .3 0 .5.2l.2.4v2.9c0 .2-.2.4-.3.5-.1.2-.3.2-.5.2-3.7.1-7.5 0-11.2-.2a.8.8 0 0 1-.3-.5v-1h-1.5v1.1c0 1.2 1 2.1 2.2 2.2h10.9c1.2-.1 2.1-1 2.2-2.2v-3c0-1.2-1-2.1-2.2-2.1h-10.9a.5.5 0 0 1-.5-.3.7.7 0 0 1-.2-.4v-1.8l.3-1.6c.1-.2.3-.2.5-.2 3.7-.1 7.5 0 11.2.2l.2.5v1h1.6v-1.1c0-1.2-1-2-2.2-2.1a101 101 0 0 0-11 0c-1 0-2 1-2 2l-.1 1.3v1.8c0 1.2 1 2.1 2.1 2.2h11Zm16-7.3h-12.3v1.6h5.4v11.3h1.5v-11.3h5.4V134Zm14 1.6V134H233v12.8h12.2v-1.5h-10.7v-4.1h10.7v-1.5h-10.7v-4.2h10.7Zm15.4 5.7c.1 0 .3 0 .4.2.2 0 .2.3.2.4v2.9c0 .2 0 .4-.2.5-.1.2-.3.2-.5.2-3.8.1-7.5 0-11.3-.2a.8.8 0 0 1-.2-.5v-1h-1.6v1.1c.1 1.2 1 2.1 2.2 2.2h11c1.1-.1 2-1 2.1-2.2v-3a2 2 0 0 0-2-2.1h-11a.5.5 0 0 1-.5-.3.7.7 0 0 1-.2-.4v-2.9l.2-.5c.2-.2.3-.2.5-.2 3.8-.1 7.5 0 11.3.2l.2.5v1h1.6v-1.1c-.1-1.2-1-2-2.2-2.1a101 101 0 0 0-11 0c-1.1 0-2 1-2.1 2v3.1c0 1.2 1 2.1 2.1 2.2h11Zm16-7.3h-12.3v1.6h5.3v11.3h1.6v-11.3h5.4V134Zm-103.4 29.3v1.5h1.6v-1.5h-1.6Zm17.6-.6c0 .2 0 .3-.2.5l-.5.2c-3.9.1-7.7 0-11.6-.2-.2-3.2-.2-6.4 0-9.6.1-.2.3-.3.5-.3 3.9 0 7.7 0 11.6.2l.2.5v1.1h1.6V154c-.1-1.1-1-2-2.2-2.1-3.8-.2-7.5-.2-11.3 0-1.2 0-2 1-2.1 2.1-.2 3-.2 6 0 8.9 0 1.1 1 2 2.1 2 3.8.2 7.5.2 11.3 0 1.2 0 2-.9 2.1-2l.1-1.2h-1.5v1Zm11.8-9.5 6 .3.2.5c.1 3 0 6.1-.2 9.2l-.5.2c-3.9.1-7.7 0-11.6-.2-.2-3.2-.2-6.4 0-9.6.1-.2.3-.3.5-.3l5.6-.1Zm-5.7-1.4c-1.1 0-2 1-2.1 2.1-.2 3-.2 6 0 8.9 0 1.1 1 2 2.1 2 3.8.2 7.5.2 11.3 0 1.2 0 2.1-.9 2.2-2v-8.9c-.1-1.1-1-2-2.2-2.1-3.8-.2-7.5-.2-11.3 0Zm30.9.2-5.9 11-5.9-11h-2.7v12.8h1.5v-11.4h.3l6 11.4h1.6l6-11.4h.3v11.4h1.6v-12.9h-2.8Z"/><g fill="#82af52" stroke-width="0" font-family="Arial" font-weight="400"><text dx="0" dy="0" font-size="15.8" transform="translate(101.5 439.1)"><tspan y="0" font-weight="100">That's enough electricity to drive an</tspan><tspan x="0" y="15.8">electric car 3mi.</tspan></text><text dx="0" dy="0" font-size="20" transform="translate(100.1 412.5)"><tspan y="0" font-weight="700">1kWh </tspan><tspan y="0">of energy</tspan></text></g></svg>