<svg xmlns="http://www.w3.org/2000/svg" shape-rendering="geometricPrecision" text-rendering="geometricPrecision" viewBox="0 0 400 527"><path fill="#fff" d="M.2 283.6V40l2 1.5 1.2-4.4 2-6 .9-1.8v-3h1.5l.4-3.2h1.2l.8 4 7-.9 2-3.2 1.2-8.4h1.8l1.3 3.1 3.8-.5v-.7l-.3-.8.8-.6c.4-.3 1.3-.8 1.9-1l1.2-.4v1.6l.3 5.1.8 3 .7 3 2-.2c1 0 3.3 0 5 .3l3.5.7.2 1.5.3 1.4v-2.6l.5.4 1 1.3c.3.3.9.5 1 .4l.7-.2.2 7.4-.2 2.1.7 1.4-.4 2.1h1.5l1.3 3.1h1.2l.7-1.9a55 55 0 0 0 2-9.8v-1h.7v-1.6q.9-3.9 1.6-13.2h.5l-.1-5.1.7-1.5c.9-2.3 2.5-7.4 2.2-7.4-.1 0 .2-.9.7-2l1-2 .5.6L63 3.1c1.7 4.3 3 7 4 8l1 1.2 2 5.1c1 2.5 2 5.1 2.8 7.7l2.4 5.9c1 1.7 3 5.8 4.5 9 1.6 3.2 3 5.8 3.2 5.8s1 1.6 1.8 3.6L86 53l2.4.2.7 1.7 2-.2 1.7 2.9v10.5h1.4l-1 2.1h.8c.8 0 2 2 2.4 3.8l.2 1-.4 19.9.6.6.5.8 2.5-8.1.4.8.4.8-.2-1.1-.3-1.2 1-2 1.8-5.6 2.2 2.2 2-.2h3.9l1.7.1.7-1.5a5 5 0 0 1 1.9-2.1l1.2-.7v-2l.7-.7a17 17 0 0 0 1.8-2.3l1-1.6-.8-1.9 2 .5c1.2.4 2.2.9 2.4 1.2l.2.6v-2l1.3-1.2.2 2.8c.2 1.6.2 3.5.2 4.2v1.3l.8.7c.5.5 1.5 1.9 2.2 3.2l1.6 2.5 9 .2.9-6.5h1.2l.3-3.3 2 .5 2.6-6.7.6 1V65l.8-1.3a5 5 0 0 0 .8-2.1v-.9h1.5l3.2 9.2.6-.6c.3-.4.7-.5 1-.3l.3.5.2-3 .9-8.6.6-5.7h.5c.3 0 1 .6 1.5 1.5l2 2.7 1.3 1 2 .4 2 .2 1.7-2.8 3.3-5.3 1.7-2.5V46c.4-2.8.8-5.7 1-8.5l.3-3.5h.6c.3 0 1.3 1.2 2.4 2.6l1.9 2.6.3-.8c.2-.4 1-1.5 1.9-2.3l1.5-1.2.6.5.7.5-.2-1-.2-.9.4-.5a9 9 0 0 1 2-1l1.5-.4.2 3.6.2 3.5.4 1.3.5 1.2v4l1 .7c.7.3 1.3 1 1.4 1.6l.2 1h1.5l.3 2 .4 1.7.2-1.4.3-1.4 1.8 1.5 1.8 1.6 1-2.7c.5-1.5 1.3-3.4 1.9-4.1l1-1.4.7 2.8c.5 1.5.9 3.3.9 4 0 .6.5 2.7 1 4.8l1 3.6 1.5.2 1.6.2.9 2.8c.5 1.6 1 2.9 1.2 2.9s.7.6 1 1.5l1 1.5.4-1c.3-.5 1-1 1.5-1h1l.7-2c.4-1.3.8-2.2 1-2.2l1.4 1 1.3.7 3.8-1.2 3.8-1.4.5 1.2.5 1.2-.3-1.8-.1-2 .2.4c.4.4 1.5-3.9 1.8-6.7l.3-2.6.6-2 .7-1.9 1 .5a4 4 0 0 1 1.4 2c.5 1.5 1 2.1 3.8 4l1.5.9 1.7 2.9 1.8 3 1.8.3 2 .3h.5l-.1 1.8v1.9l.5.4.6.3v-3.4l1.8.2 1.9.2.8-1.5 1-2.1c0-.4.5-1 1-1.3l1-.7.8 3c.5 4 1.4 8 2.5 11.8l1.9 6.6.8-1.1 1-1.2.6.3c1 .4 1.4 2 1.9 7l.4 4.6.8 1.7.8 1.8h1.5l-.2.8-.2 1h.6l.2 3.7.2 3.8.7.5.7.6 2.6-.6 3.5-.8.8-.2V98.4c.2-1.4 1.3-6.2 1.3-5.2v.8l.4-1 .4-1.1 1.3 1.5 1.3 1.5 2.7.6c1.5.3 3.3.7 4 .7h1.5l.4 1.3c.2.8.7 1.7 1.2 2l.8.7 1-1.2.8-1 .6-2.7c1-5.7 1.6-11.4 1.7-17.2l.2-2.5.5 1.1.4-2 2.3 1.8 2-.7c2-.6 2.6-.6 6-.2l2 .2.4-2.4 1.4-1 2.6-2.3-.4 2 1.4-.9c.7-.4 1.8-1.2 2.2-1.9l1-1.2.6 1.4-.3-2.1.8-1.4c.5-.9 1-1.5 1.5-1.4h.5v-1.8l.2-2.6c.2-.4.3-1.2.3-1.5.2-1.7.6-3.4 1-5v1l.5-1.2.3-1.2.9 1.5.8 1.4 1.6.7 5 1.9c.4 0 .8.5 1 .8 0 .3.6 1.2 1.2 1.8l1 1.3.2-.8a3 3 0 0 1 1-1.5l.6-.7.4 3h2.9l-.4 2.2h1.4l-.4-2 1.3-1.4.6 1.2c.4.7.7 1.6.7 2.2v1h-1.1l.2.7c0 .4 1 .7 2 .8l1.7.2-.2-.8v-.9l1.9.5v4.9h.5c.3 0 1.2.7 2 1.6l1.4 1.7 2-5.8c2.8-7.4 5.3-15.2 5.3-16.5l-.4-2.2-.4-1.2.4-1.5.4-1.5-.5-1.6 1.2-3h3.5l2-2.9 1.8-6v-3.7l1.3-1.2 1.8 1.2.5-2 .7-1.6c.3.6 1.7-1.2 2-2.5l.4-1.5.5.7.5.6-.2-1.5-.3-1.5.5 1.5.6 1.4 2-2.5c1-1.4 2.2-2.8 3.4-4l.8-1 1.2 4.4-.3 2.7 1.2 1V25l1.6-.8 1.6-.9.5-1.6c.2-.8.5-2.1.5-2.8 0-1.6 1.3-5.2 1.8-5.3h.5l1 2.6 1 2.6h4.8c.5 0 1.3.1 1.7.5l.8.4v253.6l.2 253.7H.2V283.6Z"/><g fill="#82af52" stroke-width="0" font-family="&quot;Arial&quot;"><text dx="0" dy="0" font-size="15.8" font-weight="100" transform="translate(103.9 356.4)"><tspan y="0">Of the web pages tested. </tspan></text><text dx="0" dy="0" font-size="20" font-weight="700" transform="translate(102.5 329.8)"><tspan y="0">Cleaner than 100%</tspan></text></g><g fill="#82af52" stroke-width="0" font-family="&quot;Arial&quot;"><text dx="0" dy="0" font-size="15.8" font-weight="100" transform="translate(103.3 258)"><tspan y="0">The same weight as</tspan><tspan x="0" y="15.8">0 sumo wrestlers</tspan></text><text dx="0" dy="0" font-size="20" font-weight="400" transform="translate(104.3 213.5)"><tspan y="0">Produces </tspan><tspan y="0" font-weight="700">0.7lbs </tspan><tspan y="0" font-family="&quot;arial&quot;">of </tspan><tspan x="0" y="20" font-family="&quot;arial&quot;">CO2 per 10K views</tspan></text></g><path fill="#040302" d="M127.7 161.8h-.2l-1.2-.2c-.9 0-1 0-1-.2h-.2c-.2 0 0-.3.2-.5l.2-.3h1.3l1.3.1.2.1s.3 0 .4.2l.3.1v.7h-1.3Zm-5.9-1.6-.3-.2h-.2v-.2s0-.2-.3-.3l-.3-1v-.4c-.3-.2-.3-.9 0-1v-.2l.1-.2s.4-.2.5 0h.2l1 .2c0 .2.1.2.4.2.2 0 .3 0 .3.4v.3c.2 0 .2.2.2.5 0 .4 0 .7-.3 1v.3c0 .1 0 .2-.4.4 0 .2-.2.3-.5.2h-.4Zm-14.9-3h-.2l-.2-.2-.4-.2c-.2 0 0-.2.1-.5l1.4-.7s.1-.2.3-.2l.4-.2h.7v1.2a1 1 0 0 0-.2.6v.3h-2 .1Zm1.8-1.5h-1v.4h1v-.4Zm8.4 1.2c-.2 0-.6-.6-.6-.7 0 0 0-.2-.2-.2v-.3l-.2-.2v-.7l.2.1c0 .2.1.3.3.3l.1-.4v-.3l-.3-.2.1-.2h.7l.8.1h.2l.3.3c.1 0 .2 0 .2.4l-.4 1.3-.6.6c0 .1-.3.2-.6.1Zm-5-2 .4-.6c.3-.3.3-.3.5-.3s.3 0 .3.2l.1.3-1.3.3Zm-7.4.7H102l-2.9-.2h-2l1-.2.1-.2c2.2 0 4.5 0 6.7.2v.4Zm5.2-.2c0-.2 0-.2 0 0h.5v.1h-.5Zm3.4-1.6h-.2l-.3-.7c-.3-.3-.2-.7.2-1l.2-.2h1.1l.2.2c.2.2.2.2.2.5v.4l-.4.4c-.4.4-.4.4-.7.4h-.3Zm1.8-1.4-.5-.6c0-.6 0-1 .2-1.2.6-.4 1-.6 1.3-.6h.6l.1 1.5-.8 1h-.9Zm3.2-.7-.6-1c-.1-.3 0-.7.6-1.3h1.4l.3.1.2.2-1 1.8c-.3.4-.5.4-.9.2Zm-12.2-.6-.2-.2h1.3c1.2 0 1.2 0 1.2.2v.1h-2.3Zm-3.9-.3c-.5 0-.6 0-.6-.2h-.2l.1-.2h2.8l1.6.1h1.4l.1.2.1.1h-5.3Zm8-1.7-.9-2.4 1 .2.5 1v1.2h-.7Zm1.7-.6-.4-.5a8.8 8.8 0 0 1-.7-2.6l.6-.5h1v1.2l.2.2c.2 0 .4 1.2.6 1.3v.4c0 .4-.5.8-.7.8l-.6-.3Zm-21-3.3h.5c.4 0 .5 0 .5-.3h.5v.1l-1.4.2h-.2Zm1.5-.3h.6-.5Zm.7-.2 1.8-.3h.7c0-.2 0-.3.5-.3h2V144.4h-2.2c0 .2-.2.2-1 .2s-.8 0-1 .2H93h.1Zm33.4-.3c-.9 0-1.3-.2-1.3-.4s.5-.8 1.6-1.9l1.8-.3.4.2c.1 0 .2 0 .5.3l.3.3v1.1h-.4l-.5.1-1.6.2-.3.2v.1l-.3.1h-.2Zm-28.2-.4h1.2c.6 0 .7 0 1-.3l.2-.2h1c.6 0 1 0 1-.2v.1l.1.2c.1 0 .2 0 .2.2v.1h-1l-1 .1-1.3.1h-1.4Zm20-.2h-1.6l-1.7-.2c0-.2.1-.2.5-.2h.5l.4-.2h.2v.2h1.7c0-.2.2 0 .2.1v.3h-.2Zm-4.4-.5c0-.2 0-.2.4 0h.5c0-.2 0 0 0 0v.2h-.9v-.2Zm-34.8-.6-.8-.2h.5l.5.1c0 .1 0 .2-.2 0v.1Zm2 0c0-.3 0-.3.3-.3h3.2l-.3.1-.3.1-1.5.1H81Zm-.6-.3c.1-.2.5-.2.4 0l-.2.1h-.2Zm21.3-.3-.9-.6-.2-.2v-.2l-.5-.4-.2-.2h-.2l-.3-.2s-.3 0-.3-.3l-.4-.3-.3-.2h-3.7c0 .2 0 .2-2.2.2l-2-.2h1c1 0 1.1 0 1.1-.2H94l1.2-.2h1l1.1-.2h.3c1.3-.4 2.4-.7 3.2-.7l1.5.1 2 1.3v.7l-.2.8v.3c-.2.2-.4.4-.6.4l-.3.2h-.2l-.2.2h-1Zm9.1-.3-.6-.9-.6-1.6v-1.5c.3-.2.6-.3 1-.3l.8.1.5.6.2 1.5v1.8c-.4.3-.7.4-.9.4h-.4Zm22.1-.6-1.5-1.8c-1-4.3-1-6.8.2-7.4s2-.4 2.3.3c.4.3.3 1-.2 2.1.4 0 .5 0 .6.2h.3l.3.2.6.6.3.5v.2c.2.1.2.2 0 .3v.1l-.2.1v.1l-.2.2-.2.4-.3.3v.8c0 .7-.4 1-.3 1.2h-.3l-.3-.3c-.2-.3-.2-.3-.2-.7v-.5.5c0 .3 0 .5-.3.6v.4c.2.2.2.2.2 1v.7h-.8Zm-12.3-1c-.2 0-.7-.6-.7-.9v-.3c-.2 0-.2-.5 0-1 0-.4.2-.5.7-.5l2.4.3c.3.3.4.5.2.7v.4l-1 1.2-.8.1h-.8Zm-47.6-.4h-.7v-1c0-.7.1-1 .4-1.4h1.5l1.3.3c.2 0 .6 1.4.6 1.6-.1.3-.3.4-.5.4l-.3.1-1 .1h-1.3Zm15.6 0h1.4l-.8.1h-.8.2Zm-20-.5-1.3-.2H67c-.4 0-.5 0-.5-.3h-1v-1.4l.5-.6 2.4.4.8 1c.2.2.1.5 0 .6l-.4.6Zm12-.5.1-.4c.2-.2.2-.2.5-.2l.4.1.3.1.2.1v.2h-.4l-.3.1c0 .1 0 .2-.4.2h-.3v-.2Zm27-.7c-.2-.2-.2-.2-.2-.7l.3-.7c.2-.3.3-.3.5-.3l.8.4c0 .8 0 1.2-.3 1.4l-.6.1c-.3 0-.3 0-.5-.2Zm-11.7 0c-.2 0-.2 0-.2-.2h-.2v-.3h-.3v-.2H95l-.5-.5s-.2 0-.2-.2l-.2-.3-.2-.4h-.2v-.2h-.2v-.3H92.5l.1-.2h.2c.2 0 .3-.3.1-.3v-.3s0-.2-.2-.2c0-.4 0-.5-.3-.5l-.2.1-.4.4-.2.1-.4.1c-.2 0-.3 0-.3.2h-.4c-.2 0-.3 0-.3.2l-.6.2c0 .2-.5.2-.5 0l.2-.2v-.3l.2-.4c.3-.3.6-.4.8-.4l.5-.2h2.6l2.6.7 1.3 1.6-.8 1.7-.5.3Zm-33.9-.2h-.5L61 136c-.2-.3-.2-.3-.2-1.4l1.5-1c.3 0 .3 0 .3.2l.8.2.6.1.5.1c0 .2.1.2.7.2h.7c0 .2.1.2.7.2h.7c0 .2-1 1.2-1 1.2l-1.5.1-.2-.3c0-.2 0-.3-.2-.2l-.4.4a10 10 0 0 1-1.8 2.1Zm22.6-.6-.2-.4-.3-1.3c0-.3 0-.5.3-.5H86l1 .6c.3.3.4.4.2.4v.2l-.6.2-.4.2c0 .1 0 .2-.3.2h-.2c0 .2 0 .2-.3.2l-.4.2h-.3Zm36.6-.6-.2-.5v-1l.1-.4h1.6l.3.2c.3.3.3.3.3.5v.4l-.6.8h-1.5Zm-50.6-1.5H74v.1c0 .2-.2.4-.3.4l-.5.4-.6.6-1.8-1.5Zm4.5-.2h.2c.3 0 .5 0 .5-.2h.8l.7-.2h.6c.5 0 .5 0 .5-.3h.5c.4 0 .4 0 .5-.2h.8l-.2.4-.2.3c0 .2-.3.5-.4.5l-1.4 1.2c-.3.2-.6.2-1 .2l-1.9-1.7Zm-17.5 1.5-.6-.2-.3-.2h-.2c0-.2-.2-.2-.4-.2l-.4-.2s-.2 0-.3-.2l-.3-.2-.6-.3c.1-.8.3-1.3.4-1.3.1-.2.2-.2.6-.2l1.6.3 1 .8c.2.2.2.2.2.6v.5l-.7.8Zm56.8-2.2v-.5l3.7-.4c.1-.2.6-.2 1 0l.3.1.2.1.2.3.2.2v1.4h-.6l-5-1.2Zm22-.8 1-1s.5-.2 1.4-.2l1 .7-.2.1v.1l-.2.1v.3l-.2.2-.2.2h-.2l-.2.4-2.1-1Zm-78 .7c0-.5.2-.7.5-.7s.4 0 .4.3v1l-.4.2-.5-.8Zm89.2.4s-.2-.2-.2-.6c0-.5 0-.5.4-.5h.1l1 1-.2.2h-1.1Zm-21.2-.3c-.3-.2-.5-.8-.6-1.8 0-.2.2-.5.6-.9l1.1.1c.4.2.7.3.8.5s.1.6 0 1.1l-.7 1.1-.6.1c-.4 0-.4 0-.6-.2Zm20.2 0v-.2h-.4v-.2h-.4l-.2-.2v-.2l.2-.2h-.2c-.2.2-.2.3-.5.3-.4 0-.8-.5-1.2-1.7 0-.4.1-.6.3-.6l3.5-2.2c-.9-.9-1.9-3-1.9-3.3l-1.3-.5c.8 1.2 1.2 1.8 1 2l-2.8.3v-4.4l.8-1.5.4-.4h1.2l.2.2.3.5a7 7 0 0 1 1.1 2.1l.1.2.2.1c0 .1 0 .2.2.2h.3l1 1.4.8.8V129.2l-.4.2v.3l.2.4c0 .3 0 .4-.5.8l-.2.3-.2.4-.2.3s0 .2-.2.3v.2c0 .2-.4.5-.5.5v.2l-.2.3v.1l-.4.8Zm1.7-6.2.1-.6v-.6h-.2v-.2h-.3l-.5-.6-.3.1v.2c.2 0 .2 0 .2.3v.2c.2 0 .2.1.2.3l.1.2c.2 0 .2 0 .1.3l.1.4h.5Zm-63 4.5v-.2l.2-.2h.2l.2-.2h.2v-.2h.2c.1 0 .2 0 .3-.3h.2c0-.3 0-.3-.3-.3h-.2l-1.6-.3h-1.5c.5 0 .8-.2 1-.4h4v-.3h.1l.1-.2.4-.2.2-.2h.2v-.2h.2l.1-.2h.4c.2 0 .3 0 .3-.3h.2c.2 0 .2 0 .3-.2l.3-.3c.2 0 .3 0 .3-.2h.2l.1-.2.4-.4h.1l.1-.2h.1l.2-.2.2-.3h.2l.1-.2h.2l.1-.2h.2l.2-.3.2-.2.3-.2h.2c0-.3.1-.2.3 0v1.4l-1.9 2.6a19 19 0 0 1-2.8 2.3l-3.5 1.5-1.2-1Zm18.1.4c-.2-.5-.2-.9 0-1 0-.6.1-.6.5-.6l1 .3v1.1l-.4.3c-.3.2-.4.3-.7.3l-.4-.4Zm46.1-1v-1.6l1.5-.7c.2 0 .3 0 .3.2l.1.1.1.3c0 .4 0 .4.2.4v.1l.2.1.1.2v.1l-.2.2v.3c-.2 0-.3 0-.3.2s0 .2-.2.2l-.2.1c0 .1 0 .2-.3.2l-1.3-.3Zm-39.3.8-.2-.2h-.3l-.2-.4c0-.3.1-.4.7-.4.5 0 .5 0 .7.2s.2.3.2.5v.3h-.9Zm11.1-.7-.2-.4-.5-1.9c0-.5 0-.8.2-1l1.8.1.7.7.3.2c.2.1.2.2.3.4 0 .2 0 .7-.2 1l-1 1.2h-1l-.4-.3Zm18.7-.3c-.3-.7-.4-1.2-.3-1.4 0-.2.2-.5.6-1l1.2.3.4 1.1c0 .3 0 .3-.4.7l-.6.5-.9-.2Zm-63.7-1H74l.8-.2h2l1.8-.2c.1-.2.1-.2.6 0h1.2c.2.1.2.1 0 .1l-1.5.3c0 .2-2.5.2-2.5 0Zm4.3-.3h.6v.4h-.6v-.4Zm51.7-.6h-.3c-.7-.6-1-1-1.3-1-.3 0-.4-.2-.5-.7 0 0-.2-.8 0-1-.3.2-.4.2-.4 0h-.5c0-.2 0-.3-1.5-.3h-8.4v-.5h-.1v-.2h1l.8-.2h.7l.2.1.2.2-1.4.1h6.2c0-.2 0-.2.3-.2l.6.1c.1.2.1.2 1.4.2h2.6c.1-.3.2-.3 1-.3h.7c0-.2.3 0 .8.2l.7 1.1c-.7 1-1 1.5-1.2 1.5-.3.5-.6.7-.7.7-.5.3-.8.4-.9.2Zm-16.7-1c-.2 0-.9-1-.9-1.3v-.4l-.2-.7v-.5h.3c0 .2 0 .2.3.2l.4.1c0 .2.1.2.4.2l.3.1.4.1.3.1.2.1c.2 0 .3 0 .3.2h.4c.3 0 .4 0 .5.2l.2.1v1c-.7.8-1 1.2-1.3 1.2h-.4l-1.2-.7Zm11.6 0-.2-.3-.2-.2-.1-.2c0-.2 0-.2.7-.2h.6c0-.2 0-.3.6-.3.3 0 .3 0 .3.2s0 .3-.2.4l-.1.2-.3.3c-.2.2-.2.2-.6.2s-.4 0-.5-.2v.1Zm-26.5-.8h-.3c-.2 0-.5-.4-.7-.6l-.4-1.2-.1-1-.2-2.5h.2l.5-.2c.5 0 .5 0 .6-.2h2.4c0 .1 0 .2 1 .2h1c0 .2 0 .2.6.2h.6c0 .2 0 .2.4.2l.5.1c0 .2.2.2.5.2l.4.1.3.1.2.1.4.1c.3 0 .3 0 .3.2h.2c.2 0 .3.1.3.2v.1l-.3 1a8 8 0 0 1-2 2c-1.6.6-2.6 1-3 .8h-.5c-.1.2-.4.3-1.6.3-1 0-1.1 0-1.3-.2Zm35.9-.7c-.2 0-.4-.3-.5-.7 0-.4 0-.5.3-.8l.7-.5c.2-.2.5-.3.9-.3.5 0 .5 0 .7.2v.7c0 .6 0 .8-.4 1.2l-.8.4-1-.2Zm-54-.6h1l2.7-.2c1.2 0 2.4 0 3.6.2h-7.3Zm57-2.9v-.4h.5l.5.1.3.1c.2 0 .2 0 .2-.2s0-.3.2-.3v1.3h-.2c-.2 0-.2 0-.2.2v.2h.5l-.2.5c0 .2-.2.3-.6.3h-.4l-.6-1.8Zm-5 1c0-.2 0-.2-.5-.2h-.5l.4-.3.5.1.5.2.4.1v.1h-.7Zm-40.2-.2c-1.1 0-1.2 0-1.2-.3h-.8l-1.5.1h-1.4l-.1-.2h-.8l.6-.2H94l.9.1.9.1v.4h-1.4Zm20-1.3h-.5c.2 0 .3-.2.3-.3h2.6c0 .2.2.2.8.2h-.4l-.2.1-1.3.1h-1.2Z"/><path fill="#876000" d="m113.2 155.8.1-.2h.1c0 .3-.2.3-.2 0Zm-4.2-3.1-.2-.5.1-.5.3-.2.4-.2.1-.1.3-.1c.3 0 .3 0 .3.4l-.1.4-.2.2-.6.6c-.1.2-.3 0-.3 0Zm8.4-2.4.1-.2.2-.1h.1v.2c-.2 0-.1.2 0 .3h-.2c-.1 0-.2 0-.2-.2Zm-9.4-.1v-1.8h-.2c-.1 0-.2-.1-.1-.2 0-.1 0-.3-.2-.3l-.1-.5v-.4c0-.2.3-.3.8-.3h1.4l.1.3h-.1c-.2 0-.3 0-.2.3.3.3.4.8.2.8q-1.7 2.3-1.7 2Zm10-.4c0-.1 0-.2.2-.2h.1l-.2.3-.1-.1Zm-5.2-2.1-.1-.1c-.2-.2-.2-.4 0-.4.1 0 .3.2.3.4l-.1.2h-.1ZM106 144h.5q-.1 1.5-.5 1.5h-.3m-1.4-.6-.2-.1h-.2l-.1-.2-.2-.2v-.1l1.1-1.3c.3 0 .4 0 .4.4q-.7 1.6-.8 1.5Zm10.2-1.2s-.1-.2 0-.2l.2-.2s0-.1.1 0h.3c.2 0 .2 0 .2.2l-.1.2h-.7Zm-.8-.2v-.1h-.5c-.5 0-.6 0-1-.2-.3-.2-.3-.2-.3-1 0-.3 0-.3-.2-.4h-.2s.2-.2.3-.1v-.1c.2-.1.2-.3.2-.7v-.8l-.2-.5.1-.3 2.1-.5v.3c0 .2 0 .3-.5.7-.2.3-.5.5-.6.5-.2 0-.6.6-.6.7 0 .2 0 .2.7.2h.8l1.1 1q0 .3-.7.8h-.3c-.2 0 0 .3.1.4l.2.2h-.2l-.3-.1Zm1.7-3.2-.2-2.3h1.4c.2 0 .7.6.8.9 0 .3 0 .4-.6 1l-.4.4h-1Zm2.6-1c-.5 0-.7-.4-.3-.8l1.1-.1q.4.2.5.5s0 .2-.2.3c0 .2-.1.2-.5.2a4 4 0 0 1-.6 0Zm-6.6-1.5-.1-.3c-.2-.1.3-2.5.5-2.7q.2-.2 1.3-.2.7.5.7 1l-.9 1.8-1.5.5Zm5.1-1.1-.2-.2c-.2 0-.5-.3-.5-.4l-.3-1.5h.1s.2.2.2 0c0 0 .6 0 .9.3.2 0 .3.2.6 0h.4c.2.3.4.3 1 .4l1.1.2-1.4 1.2h-1.9Zm-5.6-2.7q.3-1 .6-1h.5l.1.5c0 .2-.6.7-.9.7l-.3-.2Zm-25.7-1.3c0-.2 0-.2.3 0 .2 0 .2 0 0 0h-.3Z"/><path fill="#f7bc00" d="M128.8 161.8c0-.3 0-.3-.3-.4l-.5-.2-.2-.1-1-.1h-1l-.5.2c-.3.3-.3.3-.6.3h-.4c0-.2 0-.2-.4-.2l-.4-.1-.6-.2c0-.1 0-.2-.3-.2h-.3c0-.1 0-.2-.2-.2h-.3v-.2l-.3-.1-.3-.2v-.1l-.4-.1-.2-.1-.3-.3h-.2c-.2 0-.2-.1-.2-.2l-.8-.4-.2-.2h-.2c0-.2 0-.2-.3-.2l-.2-.2-.2-.2-.2-.1h-.2l-.2-.2v-.2h-.4l-.4-.4-.2-.1-.3-.1-.2-.1s-.3 0-.4-.2a.7.7 0 0 0-.4-.1l-.6-.3-.3-.3-.2-.1-.3-.1-.2-.1c0 .3-.2.2-.3 0l.1-.1.4-.3.6-.4c3.4-2.4 5-3.7 5-3.8l.3-.4.2-.4v-.5c.2 0 .3-.1.3-.2h.2c0 .2.3.2.3 0h.5c0 .1 0 .1.1 0h.4l.2-.2.4-.1.5-.1.3-.1.2-.1c0-.1.1-.2.3-.2s.4 0 .4-.2h.3c.2 0 .2 0 .2-.2s0-.3-.2-.3v-.1l-.3-.1-.2-.1-.2-.2c0-.2 0-.2-.3-.2l-.3-.1.2-2.6v-.3l.2-.3h2l.3.2 1.3.2.1.3.1.2c.1 0 .2 0 .1.3 0 .2 0 .2.2.2l.1.2.1.3.1.2c0 .2 0 .2.2.2v.2h.2l.1.2v.2h.2v.2h-1.2c0-.2-.2-.2-.5-.2-.4 0-.4 0-.3.1l.2.3v.2h.3l.5-.1h.3l.5.1c0 .2.2.2.3.2.3 0 .4 0 .4.2.2.1.2.1 0 .2v.6l-.2.1v.1l-.2.2-.3.2-.4.2-.4.1c-.2 0-.3 0-.3.2h-.2c-.2 0-.3.2-.3.3h-.2c-.2 0-.2 0-.3.2l-.2.2-.3.1-.2.1v.1c-.2 0-.2.1-.2.2h-.3c-.2.1-.2.1-.2.3v.2h.2l.3.1c0 .1 0 .2.2.2h.2l.1.2.2.1.1.2h.2c0 .2 0 .2.2.2l.2.1.1.1v.2c0 .2.1.2.2.3l.2.1v.1c.2 0 .2 0 .2.2v.3c.2 0 .2 0 .2.6v.6l-.2.1c0 .1-.3.2-.8.2-.4 0-.5 0-.5-.2h-.3c-.3 0-.5-.1-.5-.2s-.2-.2-.6-.2c-.3 0-.3 0-.4.2l-1 .1h-.9c0-.2 0-.3-.3-.3h-.2c0-.2 0-.2-.3-.2l-.2-.1-.2-.2c0-.1 0-.2-.3-.2h-.2c0-.2 0-.2-.2-.2h-.3c0-.2 0-.2-.3-.2l-.4-.1-1-.1h-1.2v.1l.2.1.1.2.1.1.2.1.1.1h-.5c-.5 0-.6 0-.8.2h-.4v-.1c0-.1 0-.2-.3-.2 0 0-.2 0-.2.2V154.7l.4.2v.6c.2 0 .2.2.2.3l.2.4c0 .2.5.7.7.7.1 0 .2 0 .6-.4l.2-.3v-.2l.2-.2v-.3c.2-.2.4-.1.4.1s.3.5.5.5h.3c0 .2.1.2.4.2h.4c0-.2.3-.1.3 0 .1 0 .2 0 .2.2h.2c.2 0 .2.1.3.2v.2h-.2s-.3.2-.3.4v.2c-.2.1-.2.4 0 .7 0 .2.1.3 0 .4l.3.4v.2l.1.3.2.3.1.3.5.1c.4 0 .4 0 .6-.2.1-.1.2-.2.1-.3l.2-.4.3-.5c0-.2 0-.2.3-.2l.4.2h.3l.4.2.6.1c.4 0 .5 0 .6.2h.4c.4 0 .4 0 .5.2l.5.1.8.2.3.1.3.2h.4l.5.2.3.1.2.2h.2c0 .2.2.2.4.2l.4.1.2.1c.1 0 .2 0 .2.2l-.4.4c0 .1-.2.2-.5.2l-.5.1-.6.1h-.5v-.2Zm-3-14v-.1h-.3l.1.1h.2Zm-20.5 8.6h-.2c-.2 0-.2 0-.3-.2l-.3-.5c0-.4 0-.7.2-.8h.1c0-.2.1-.2 1-.2l.8-.1 2.8-.2c0-.1 0-.2.3-.2h.3l.3-.2h.3s.1-.2 0-.2v-.1l-.4-.1s-.2 0-.2-.2l-.2-.1v-.1l-.3-.1-.2-.1v-.2h-.2l.2-.3.1-.1h.3l.1-.1c-.2 0-.2-.1 0-.2v-.1l.2-.3c.2-.1.2-.2.1-.3 0-.2 0-.2-.2 0h-.2l-.5.5c-.2 0-.2 0-.2.2s0 0-.2 0h-.2l-.2-.4c0-.3 0-.4-.4-.4 0 0-.2 0-.2-.2 0-.1 0-.2.2-.2l.2-.3c0-.3 0-.3-.2-.3 0-.1-.2-.2 0-.3v-.1l.2-.3v-.4c0-.2 0-.2.2-.3l.3-.3c0-.2.1-.2.3-.2l.2-.1v-.3c.3-.2.3-.2.4 0 .2.2.3.3.3.5l.1.2.2.2.1.3.2-.3c.2-.2.2-.5 0-.6v-.3l-.3-.4a1 1 0 0 1-.3-.3l-.5-.3v-.1l-.3-.1v.2c.1 0 .1 0 0 .2h-.2c0-.2-.3-.2-.8-.3-.3 0-.5 0-.5.2v.8-.3c0-.1 0-.2-.3-.2l-.5-.5-.2-.2-.5-.5-.2-.2v-.1l-.4-.1-.2-.1-.2-.2v-.1h-.3l-.4-.4V144.7l.1-.4v-.3l.2-.3.1-.2c.2-.1.1-.2 0-.2h-.3l-.3.6-.2.5h-.5v-.1l-.9-.3a1 1 0 0 1-.3 0v-.3l.2-.1v-.2h-.3l-.2-.4-.2-.1v-.1l-.2-.1-.2-.2v-.2h-.2l-.2-.2c-.2 0-.2-.1-.2-.3v-.2c-.2 0-.2-.1-.2-.2l.3.3s.3 0 .5.2l.5.2h.5l.6.2 1.2.4.3.2h.6l.3.3.4.2.3.2h.3l.1.2 2.1 1.5-.2-.2v-.2l-.2-.2v-.2c0-.2-.3-.5-1.5-1.6-.6-.7-1.2-1.3-1.9-1.7l-.3-.1-.3-.2-.3-.3v-.7l-1.2-1-.4-.1h-.4c0-.2-.2-.2-.6-.2-.5 0-.6 0-.7-.2h-.2c-.3 0-.3-.2-.3-.4l3.1-4.8c0-.2 0-.3.3-.3v.2c0 .4.3.4.8 0 .4-.2.4-.3.4-.7 0-.3 0-.4-.2-.4l-.2-.1-.3-.2h-.2l-.5-3.6h.1c.1-.1.2-.2.7-.1.5 0 .6 0 .7-.2h.5l.4-.2.3-.1.4-.1.2-.1c.1 0 .2 0 .2-.2h.3a8 8 0 0 0 2-2v-.2l.1-.4v-.3h.5l.4.2.4.2s.1.2.3.2h.2c0 .2.2.2.3.2s.2 0 .2.2h.4c.3 0 .3 0 .3.2h.2l.6.3h.4c0 .2 0 .3.3.3h.4c0 .2 0 .2.2.2h.3l.2 6h-3.4l-1.2-.4-.5-.1c-.4 0-.4 0-.6.2v.2h.2c.3 0 .6 0 .4.2l.1.2.3.2h.3c.2.2.4.2.5 0h.2l.3.3c.2 0 .2 0 .2.2-.2 0-.2 0-.2.3l-.2.3c-.2.2-.2.2 0 .2h.2l.1-.2c.2 0 .5-.2.5-.3l-.2-.1h.8l.3.2h.3l.4.2h.3l.4.2.2.2c.2 0 .2 0 0 0l.3.2.5.2s.2 0 .3.2c.1 0 .2.2.2.5l.1.4s.1.2 0 .2l.5.5h.3c0 .2.2.2.7.2l.8-.1.1-.1.2-.1.2-.2.8-.6.3-.1.7-.1h.7v.5c.2.2-.4 1-.8 1-.2 0-.4.4-.4.5v.3l-.3.2h-.9.7v.7l-.2.3v.2l-.2-.1-.2-.1s-.3 0-.3-.2h-.7l-.2.3.1.2h1.1c.1-.1.1-.1.1.3v.5c-.2 0-.2.2-.2.6v.6c-.3.4-.3 1.4 0 1.6v2.2h.2l.2-.2.5-.4v-.3l.2-.2.1-.2 1.5-3.3c.2 0 .3 0 .4-.2l.3-.1.1-.2.4-.4.2-.5v-.3l.2-.1-.3-.3c-.2-.3-.3-.3-.5-.3l-.5-.3.8-1 .2-.1.1-.2.4-.5c.2-.2.5-.5.5-.7l.6-1.3c0-.2-2.5-.3-7.7-.4-.4 0-.5 0-.6-.2h-.9l.6-4.3h.2l.3.2.4.3c.2.3.2.3.5.2l.3-.1c.1-.2.2-.2.2 0a15 15 0 0 1 3.3 1.7l.1.2.2.3.2.4.3.3h.7l.3-.3c.2-.1.3-.3.3-.4l.2-.2c.2-.1.3-.2.3-.5l.5-.1 6.2-3.3v.6l.1.3c0 .4 0 .4.5.4.3 0 .5 0 .5.3l.3.4.5.3h.3c.1.2.2.2.4 0l.2-.1s.4-.3.4-.5c0 0 0-.2.2-.3l.3-.4.1-.1.3-.2h.3l.2-.6c0-.3 0-.3-.2-.5s1.6-1.3 1.8-1.3h.2l-.2.4-.2.4c0 .3.3.6.5.6h.2c0 .2.1.2.5.2h.3l.4-.3c.4-.4.5-.7.5-1.1 0-.3 0-.4-.2-.5-.2-.2-.2-.2-.6-.2h-.4c0-.2.8-.6 2.3-1.4 0 0 0 .2.2.2l.1.5.1.4.1.3s0 .2.2.2.4 0 .5-.2l.4-.6v-.8l-.2-.5v-.2c.2-.2.3-.2.5-.2l.4-.1.1-.2.6-.2.2-.1c.1-.2.5-.2.4 0v.3l-.3.3v.3l-.2.7c0 .4 0 .4.2.6.2.3.2.4 0 .4-.3 0-5.3 6-5.5 6l-1.3.3-3.6.8c-.5 0-.7 0-.9.2s-.2.2-.2.6l.1.6c.1 0 .2.2.1.6l-.7 4c.4 1.4.5 2.2.5 2.4s0 .3-.2.3l-.3.2h-.3l-.2.3h-.3c0 .2 0 .2-.2.2h-.2l-.6.3-.3.2h-.3c0 .2-.2.2-.4 0h-.7l-.3.2c-.2 0-.3 0-.4.2h-.2l-.3.4h-.8l-.6.2-.4.2h-.4l-.2.2h-.2l-.3.2a7 7 0 0 0-1.8 2l-.3.3v.3l-.2.3-.3.3-.2.4-.2.3-.3.4c-.6.7-1.2 1.3-2 1.8l-.3.3-.3.4h-1c0-.1-.3-.2-.6-.1-.3 0-.4 0-.5.2-.2.2-.3.2-.3 0-1 1-1.6 1.6-1.8 1.6l-.3.3c-.4.2-.4.5-.2.7l.1.3.1.2h.2l-.4.4h-.2c0 .2-.2.2-.2.2h-.3l-.4.3-.3.2h-.2l-.3.2s-.2 0-.2.2H110.2l-.5.3h-.3l-.3.2h-.4c0-.2-.3-.2-.4 0h-.3a1 1 0 0 0-.6.4l-1.2.2-.6.2-.3-.1Zm7.2-7.6h.2l.3-.5v-.3l-.2-.2v-.3l-.2-.1v-.4c0-.2 0-.2-.2-.2v-.4c.2 0 .3 0 .3.2h.2c.2 0 .2 0 .3.2l.4.2.1.2.6.3h.3c.1 0 .2 0 .2.3h.2v.2h.4l.3.2H117l.4-.3c.1 0 .2 0 .2-.3v-.2c.2 0 .2 0 .2-.2l.1-.3.1-.1v-1.4l.1-1.3.1-.3v-.4h-1.9s-.2 0-.3.3h-.7l-.3-.1c.1-.2.1-.2 0-.2h-.3c0-.2 0-.3-.3-.3l-.2-.1.2-.4c.2-.2.3-.3.3-.5v-.2c0 .2 0 .2-.3 0l-.3-.2h-.2l-.3-.2c0-.2-.2-.2-.8-.2h-.8v-.3c0-.2 0-.3.3-.5l.4-.3c.3 0 1.2-1 1.1-1.1 0-.2-.5-.1-.6 0h-.2l-.3.2-.2.3h-.2l-.3.2v-.7c0-.3 0-.4-.3-.5v-.3c-.2-.2-.8-.4-1.2-.4h-.6l-.2.3v.5l.1.6.1.5.1.4.2.2v.3c.2 0 .2.2.2.2l.2.4c.2 0 .3.3.3.4H111.8c.2-.1.2 0 .2.5v.6l.5.2c.3.2.4.2.7.2h.5c0-.1.1-.1.1 0 0 .2.1.3.2.3h.1c0 .3 0 .4-.3.4-.2 0-.2 0-.2.2v.3l-.3.4-.6.6h-.2v.3h-.2l-.2-.3c0-.2 0-.2-.3-.2h-.3l-.2.2-.4.3v.5c0 .2.1.3.2.3v.4l.1.4.2.2v.3l.2.2.8.9h.1v-.1Zm6-1.5v-.3h-.4v.3c0 .3 0 .4.2.3l.2-.3Zm-12.3-2.1c.2-.2.2-.2 0-.3l.1-.3v-.3c0-.1 0-.1 0 0h-.3v1l.2-.1Zm10.4-5.4c.4-.5.6-.7.6-1l-.7-.5h-.3c0-.2-.2-.2-.4-.2h-.3v.4l-.2.6.1.7c.2.3.3.4.5.4l.7-.4Zm-8-1.6.4-.8-.5-.5h-.2c0-.2-.2-.1-.5 0l-.2.7c0 .3 0 .4.2.5.2.3.4.3.7 0h.1Zm3.4-.5.3-.3h.2l.1-.2h.2v-.6l.4-.3h.1l.2-.3.1-.4c0-.3-.2-.6-.4-.6l-.3-.1-.4-.1h-.5c-.2.4-.2.5-.2 1v.4l.2.3c.3.3.3.4 0 .4s-.3 0-.5.2v.3l.1.3h.4Zm15.4-3.3.2-.3s0-.2.2-.3l.3-.4.1-.3c.2-.2.1-.3 0-.6s-.3-.3-.5-.3l-.8-.2c-.3 0-.4 0-.6.2-.4.4-.4.5-.2.7v.5c0 .5 0 .6.4.9.2.2.3.2.5.2l.4-.1Zm-9.4 20.2v-.2c.2 0 .3 0 .3.2.1.3 0 .3-.2 0Zm-3.6-1.8c0-.2-.3-.6-.4-.6 0-.2.6-.2.8 0 .3.2.2.7-.2.7l-.2-.1Zm-5.6-.4.1-.1c.1 0 .1 0 0 0h-.1Zm12.5-4.4c0-.3 0-.3.3-.6.2-.2.3-.3.5-.3 0 0 .1 0 0 0v.2l-.8.8v-.1Zm-12.1-.6c-.1-.1 0-.2.2 0h-.2Zm-33.7-7.6h.1-.1Zm.2-.1v-.2l.2-.2c.1-.2.1-.4 0-.4l.1-.1 7.8-2h.7l.1.2h.1l.1.4h.2-.2l-.1.2h-.3c-.1 0-.2 0-.2.3H84c-.2 0-.3 0-.3.3h-.3c-.1 0-.2 0-.3.2h-.3c-.2 0-.2 0-.3.2h-.4c0 .3-.6.2-.7 0-.2-.2-.6 0-.7.5v.3h-1l-.6.2c-.7 0-.9 0-.9.2h-2.6l.1-.1Zm-7-.6v-.2c.2 0 .3-.2.1-.3a2 2 0 0 1-.3-.5c0-.1-.3-.4-.5-.4l-.4-.3H67l-.5-.1-.4-.1c-.2 0-.3 0-.5.3l-.3.3v1h-.2l-.5-.1-.6-.1-1-.2c-.1-.1-.2-.2-.5-.2H62v-1h.2l.6-.5c.8-.7.7-.7 1.2-.7h.5l.6.3h.6c0 .2.2.2.9.2l5 .4h.4c.2-.2.3-.2 1.7-.2h1.6v.2c0 .2-.8.4-2.4.8a1 1 0 0 1-.5 0l-2.9 1-.8.5h-.1l.1-.1Zm-7.8-1.2c0-.1-.2-.2-.5-.2H60c-.1-.2-.2-.2-.4-.2l-.4-.1-.6-.2-.2-.1c-.2 0-.2 0-.3-.2H58c-.2 0-.3-.1-.3-.2l-.1-.1.3-.6.2-.3c.2-.2.2-.5-.1-.7a2 2 0 0 1-.3-.4l-.4-.2-.3-.2-.4-.1-.5-.1v-.2h-.4l-.6.2a2 2 0 0 0-.4 1c0 .2-.1.2-.2 0h-.2v-.6c0-.6 0-1 .3-1h1.1l.1.2h.5c.5 0 .6 0 .6.2h.5l.4.2c.1 0 .2.2.5.2h.3v.3l.5.5v-.2c.1-.2.1-.2.5-.2h.4l.4.3h.3l.2.2.1.6.2.4v.2l.2.2.1.3c0 .2 0 .4.2.4v.8h-.3l-.4-.1h-.1Zm25.9-2-.3-.1 4.9-4.5c0-.2.1-.3 1.2-1.5a9 9 0 0 0 1.6-1.8l.1-.3v-.2l.2-.3.1-.5-.1-.6c-.2-.2-.2-.2-.1-.3h.2v-.2h.2l.1-.2.3-.3.2-.1.2-.2h.2c.2 0 .2-.1.2-.2l.5-.1.3-.1.4-.2h.4c0-.2.2-.2.4-.2h.5c.2-.2.7-.3.8-.2v1.4c0 .8 0 1 .2 1v.5l.2.4.2.2.2.4h-.4l-.2.2-5 6.4H93c-.2-.2-.3-.2-1.1-.2h-1.2l-.4.2c-.3 0-.5.2-.8.5l-.2.4-.1.3h-.3l-.1.2s-.1.2-.4.2h-.3c0 .2 0 .2-.2.2l-.6.2H87s-.2 0-.3-.2l.1-.1Zm-5.2-.4c0-.2 1.2-1.1 3.7-3h.2l.2.4.3.5.5.3h.2l-3.4 1.6-.4.2h-.5c0 .2-.1.2-.4.2h-.3l-.1-.2ZM54 132c-.1-.1-.1-.1 0-.2 0-.1.1-.2.4-.2h.3c0 .3-.4.5-.7.3Zm47.7-1.6-.4-.3c-.2 0-.3-.2-.3-.4s0-.3.5-.3c.4 0 .5 0 .6.2.4.4.5.5.5.7 0 .4 0 .4-.3.4-.2 0-.3 0-.6-.3Zm16.7-2.6.1-.1.3-.1h.4l.1.2h-.9Zm28-3.6-.5-.5v-.1c-.1 0-.2-.2-.2-.6v-.6l-.2-.3c0-.1 0-.2-.3-.2l-.3-.3.1-.3c.2-.1.3-.1.4 0h.3v.2l.4.2.2.3v.2c0 .2 0 .5.2.5v.5c0 .6.1.6.2.6l.1.3v.3l-.4-.2Z"/><path fill="#df5980" d="M130.7 161h-.4c-.2 0-.3 0-.3-.3h-.3l-.2-.2h-.3l-.5-.3a1 1 0 0 0-.4 0l-.2-.2h-.4l-.3-.2-1-.2s0-.2-.4-.2h-.5c0-.2-.2-.2-.6-.2h-.6l-.3-.3h-.4l-.3-.2c-.2 0-.2 0-.2-.3v-.3c-.3-.2-.3-.4-.2-.4v-.2c0-.3 0-.4.2-.2l.3.1c.3 0 .4 0 .4.2h.4c.4 0 .5 0 .5.2l.5.1.4.1 1 .2c0 .1 0 .2.5.2h.4c0 .2 0 .2.5.2l.5.1.4.1c.4 0 .4 0 .5.2l.4.1.3.1.4.1.3.1c0 .1 0 .2.3.2h.2v.2c.2 0 .2 0 .2.5v.4l-.2.2c0 .2 0 .2-.3.2h-.3v-.2Zm-11.5-4.7-.3-.2c-.2 0-.5-.2-.5-.4v-.9l-.2-.3s0-.2 0 0l.4.2.1.1.1.2h.1l.1.2h.2v.2l.4.2h.2l.1.2.1.1.2.1.3.1c0 .2-.2.3-.7.3h-.6Zm7.5-.8v-.2h.5l-.2.2h-.3Zm-3.5-.6.2-.2v-.2l.2-.2a8 8 0 0 1 1.6-1.7h.3c.2-.2.6-.3.7-.2l.2.1-.4.2-.3.1s-.2 0-.2.2h-.3s-1.2 1-1.2 1.3c0 0 0 .2-.2.3l-.2.4-.2.1h-.3.1v-.2Zm-3.6-1.6v-.3c-.3-.2-.3-1 0-1.3v-.2l.3-.7.2-.3s.1-.3.5-.6l.5-.5h.6l-.2.2-.3.2-.4.3-.2.2v.1c0 .2 0 .3-.3.4l-.2.4s0 .2-.2.2v2c.1 0 .2 0 .2.2h-.5v-.3Zm-4.9-.7v-.3c-.2-.2-.3-.2-1-.2h-.5l-.3-.2h-.3l-.4.2h-.2l-.6-.2-.3.1-.5.2h-.4c0 .2-.8.2-.8.1l.2-.2.8-.2c.2 0 .4-.2.5-.5v-.4c-.3 0-.3-.2-.3-.5v-.4c-.3-.3-.2-.3.6-.3l.8.1 1.3.1c1 0 1 0 1.1.2l.4.1.4-.2.2-.2-.2-.2-2.7-3v-.3h.2l.2.4.3.4.1.2 1.8 2h.2c.2.2.4.2.7 0 .2-.3.3-.4.3-.7s.2-.5.3-.5.2 0 .2.2v.4l-.3.3-.6.7c-.4.5-.6.6-.5.7 0 0 0 .2-.2.2l-.3.2c-.2.1-.2.2-.2.5l.2.6.3.3.2.1c.2 0 .4-.2.5-.3l.1-.2c.2 0 .4-.2.3-.3h.1l.1-.8v-.5h1l.3.1.2.4v.3l.2.3.2.2c.2.1.2.2 0 .3 0 .1 0 .2-.2.3l-.8.2-1.4.2h-1.3Zm-5.9-.4c-.2 0-.2-.3 0-.3s.2 0 .2.3c0 .2-.2.2-.2 0Zm-2.8-1h-1.7l-1.6-.2s0-.2-.6-.2h6v.4h-2Zm15.8-1.9h.2c.2 0 .2 0 0 0h-.2Zm-12-1-.3-.2-.2-.2h.1c.1-.2.2-.2.2 0h.1v.1l.1.1.1.2Zm14.5-.3.1-.2h.5c.1 0 .3 0 .3-.3h.6c.4 0 .6 0 .6-.2l-.3-.2c-.2 0-.3-.2-1-.2l-1 .1-.3.2h-.9l-.8-.8 2.1.1 1.7.1.8.1.7.1c0 .1.2.2.5.2l.5.1.4.4.1.2v.3c.2 0 .2 0 0 0h-.5c-.2 0-.3 0-.4-.3-.2-.2-.3-.3-.5 0h-.6l-.8.1a1 1 0 0 1-.5 0c-.3 0-.6.2-.6.3h-.7Zm-17.2-.8-.2-.2v-.2h.4l.2.1V147.2h-.4Zm5-1.4v-.7h.2v.6c0 .1 0 .1 0 0l-.2.1Zm-15.9-1.5c.7 0 .7 0 .8-.2h.8c.7 0 .7 0 .8-.2l2-.2h2v.2h-1l-1 .1-1.2.1c-.5 0-1 0-1.5.2h-1.7Zm17.7-.7c.1-.2.2-.2.4-.2h.7c.1 0 .2 0 0-.2v-.3l-.2-.4v-.2l-.5-1.2s-.2-.2-.2-1.5c0-1.4 0-1.4.2-1.5v-.4l.2-.3s.2-.3.1-.5h-.9l-.3.2-.6.5c-.4.4-.5.5-.5.7l-.2.4v.3l-.2.4v-1l.1-.4.3-.3.2-.3c0-.2.4-.6.5-.6h.2l.2-.2h.3l.7-.2h.6l.4-.4.5-.4c.2 0 .1.2-.2.5-.4.4-.4.5.1.5l.5.1.4.1c.1 0 .2 0 .3.2h.4l.3.2h.4l.3.2.6.1h.6c.3 0 .2.4 0 .5-.2.2-.2.2-.2 0h-.3l-1-.2a1 1 0 0 1-.4-.2h-.2l-.3-.2h-.4l-.5-.2h-.3l-.4-.2-.2-.2c-.2 0-.5.3-.5.5v.2l-.2.5c0 .2 0 .3-.2.4v2.2c.1.1.2.2.2.5v.5c.2 0 .2 0 .2.3l.1.4.2.4.1.4c0 .2 0 .3.2.4.1 0 .1.1 0 .1l-1 .2h-.8l.2-.2Zm-34.9-.8Zm.7-.2h.8l2-.2h1c-.9 0-1 0-1.3.2l-.7.1H79h.7Zm-.7.1Zm52.5-1.5-.3-.5c.2 0 .2-.4 0-.4v-.3l-.2-.4v-3l.1-.6c0-.4 0-.5.2-.6v-.4c0-.3.1-.4.2-.5l.1-.4.1-.3h.1c0 .3.4.7.5.6l.1.1c.2.2.2.2.4 0 .3-.2.4-.3.4-.5s.1-.2.3-.2.3 0 .2-.4l.1-.3c.2-.2.2-.3 0-.6h-.3l-.2-.2c0-.2-.2-.2-.4-.2a1 1 0 0 1-.3 0l.4-.4s.2 0 .2-.2h.2l.2-.2h.6l.7-.2h2.1l.4-.2c.2 0 .3 0 .5-.3.2 0 .3-.3.3-.4l.3-.3.2-.4v-.2c.2 0 .2 0 .2-.2l.2-.4c.2 0 .3-.2.3-.3l.2-.4.3-.3.4-.6.5-.5c0-.2.8-1 1-1l.4-.4c.3-.3.4-.4.6-.4h2.2c0 .2.2.2.3.1l.4-.2c.1-.2.2 0 .3.1l.4.5c.3.3.3.3.2.4h-.2c-.3 0-.3 0-.4.2 0 .1 0 .2.3.5.4.4.4.5.4.7v.5c.2.1.2.2.2.4s0 .2.4.6l.6.4.3.3c.2.2.2.2.3 0h.3c.1 0 .2 0 .3-.2l.2-1v-1l-.3-.3-.6-.5-.4-.2h-.5v-.3c.2-.2.2-.6 0-.7l-.2-.3h-.2.5l.2.1s.2 0 .2.2h.1l.2.2v.1l.2.1.8.8.1.2.1.3.1.7v.6h.1l.6.6v.1l.3.1c.2 0 .2 0 .2.2l.1.3c.2 0 .2 0 .2.2v.2c.3.1.3.2 0 .2s-.3 0-.6.3l-.4.4-.4-.2v-.2c.3 0 .4 0 .4-.2s0-.2-.3-.2h-.2v-.2h-.3c0-.3-.3-.3-.3-.2h-.3l-.2.1s0 .2-.2.3h-.4l-.3.1c0 .2-.2.1-.2 0a13 13 0 0 1-2.5-3c.3-.4.2-1-.3-1.2l-.5.1c-.2.2-.2.2-.2.5v.3l.2.2-2.9 2.8h-.4c-.3 0-.3 0-.6.3l-.3.4v.6c.2 0 .2.1.2.3s-.2.3-.7.8l-.7.6h-1.2l-.2.4-.6.2h-2.2l-.2.2s-.4.3-.4.5v.3l-.2.2c0 .2 0 .2-.4.2l-.5.1-.3.2s-.2 0-.3.2c-.3.2-.4.3-.3.4V136l-.3.3v.4l-.2 1.1.1 1.2.1.4c0 .2 0 .3.2.3v.3l.2.2.3.4.3.3.3.2-.2.1c0 .2-.2.2-.6.2h-.6Zm-46-1h.8l1.6-.2h.7l1.2-.2h2.7c1.8 0 2 0 2-.3h2.2c-1 0-1.2 0-1.3.2H93l-2.4.2-1.3.1-1.5.1c0 .1-.2.2-1.2.2h-1Zm-15.3-.4-.2-.2h-.8c-.7 0-.8 0-.6-.4s.7-.7 1-.7h.1l.3-.2c.2 0 .3 0 .3-.2h.4l.4-.2s.2-.2.4 0c.2 0 .3 0 .5-.3h.5c.3 0 .4 0 .5-.2h.4l1-.3c.3 0 .4 0 .6-.2h.2-.2c-.2 0-.2 0 0-.2h.4l.7-.2 1 .1h.5l.3-.2.3-.2c.2-.2.3-.3.5-.3h.4c.1-.2.2-.2.5-.2h.5c.1-.2 1.2-.4 3.3-.7.1 0 .3 0 .4-.2h.3l.4-.2 1.3-.6 2-1 2.1-1h.3l.4-.5.5-.4h.2v-.2h.3c.2-.3.3-.2 0 0v.4c0 .2 0 .3-.3.5l-.2.3s0 .2-.2.3l-.2.3c-.2.4-1 1-1 1l-.3.2a4 4 0 0 1-1.2 1l-.4.3-.3.1-.4.2-.3.2c0 .1 0 .1-.2 0h-.3l-.2-.2h-.4l-.5-.2h-.4c0 .1-.2.2-.3.1l-.2.2v.2c.2.2.2.2.2.6s0 .4-.2.4c0 0-.3 0-.3.2h-.4l-.4.2-.5.1-.3.1-1 .2-.4.2h-.5l-.5.2-.5.1-1.2.2c0 .1-.2.2-.4.1a1 1 0 0 0-.6.2l-.6.1-.5.1H76c-.2-.3-.4-.5-.3-.6 0 0 0-.2-.3-.2h-.2l-.4-.2a1 1 0 0 1-.6 0l-.7-.3c-.3 0-.4 0-.5.2l-.3.3v1.6l-.3.1h-2v.1Zm27.4-.6h-.2c-.3 0-.3 0-.3-.2v-.2h-.3c0-.2 0-.2-.2-.2h-.3v-.2h-.2l-.2-.3s0-.2.3-.4l.3-.4v-.2l.2-.2s0-.3.2-.3v-.8l-.3-.3-.5-.5-.3-.2h-.3l-.7-.4h-.3v-.2l.1-.4.2-.3.3-.4.2-.4.2-.3.7-.8c.3-.3.4-.3.2-.4v-.7l.1-.2.1-.3.2-.4.1-.3 1-1h.2l.3-.2.4-.2h.3l.3-.3h.2l.2-.2.4.2c.1.2.2.2.3.2s.3 0 .4.2h2.3l.4.2.3.6c.2.1.2.2.1.4l.1.3c.2.1.2.2.2.5v.5l-.3.6v.5l-.4.2-.2.3v.5c.2.1.2.3 0 .4v.3l-.2.2v.2l-.2.3-.2.4-.2.2c0 .1 0 .3-.2.4l-.3.4-.2.4-.4.6c-.2.2-.3.3-.3.5l-.6.6c-.3.4-.4.4-.3.5v.3c-.2.2-.3.2-.5.2h-.5c0 .2-.2.2-.3.2v.1c-.2.1-.3.2-.6.1-.3 0-.4 0-.5.2-.2.1-.2.2-.3.1Zm4.8-8.8v-.4c-.5-.4-.6-.5-.9-.5-.2 0-.4.1-.3.2h.2l.5.4c.4.4.4.4.5.3Zm18.1 5.3-.2-.3h-.2.5v.1c.2.1.2.2.1.3h-.2Zm-6-3c.2 0 .2-.6 0-.9v-.7c0-.4 0-.5-.2-.7V127l.1-.5.1-.3c.1 0 .2 0 .2.4v.7l.2.3c0 .3.6 1.2 1 1.3V130.4l-.2 1v.7l-.4 1.8-.8-1.3Zm34.5-.6-.4-.4v-.3c-.3-.1-.3-.3 0-.4l.3-.4.2-.3v.2l.2.1h.1l.5.5c.1 0 .2.2.1.3v1h-.7l-.4-.3h.1Zm-29-1h-.4c-.3 0-.4-.1-.5-.2l-.3-.1s-.3 0-.5-.2l-.9-1 .3-.4c0-.2.1-.3.3-.3l.6-1.2h.7l.6.1c.7 0 .8 0 .8.2h1.2c1 0 1 0 1.2.2l1.8.1 1.8-.1c.1-.2.2-.2.2 0l.3.3.1.3.4.1c.2 0 .3 0 .4-.2l.2-.1v-.1l.3-.3.1-.2.2-.2h.2c0-.2 0-.2.3-.2h.7v.1s-.2 0 0 .3c0 .2 0 .3-.3.4v.3c0 .2-.3.4-.7.6-.2 0-.4.3-.6.5l-.5.3s-.2.1-.2.3l-.4.2h-.3l-.2.2-.3.1-.5.1-.4.1c-.2.2-1 .2-1.2 0h-.5c-.4 0-.4 0-.4-.2v-.2c.2-.2 0-.4 0-.5l-.5-.2-.5-.6c0-.2-.5-.3-1-.3-.7 0-.9.2-.9 1 0 .2 0 .3.2.4l.1.5v.2h-1v-.1Zm-41.4-.1c0-.2.2-.2.6-.2l.5-.1c.1-.1.1-.1 1.6 0h4.5c-.9.1-1.2.1-1.4.3h-1c0 .2-6 .2-6 0h1.2Zm2.5-.1h-.4l.2.1.2-.1Zm38.1-4.3c0-.2 0-.2.2-.2 3.8 0 7.5 0 11.2.3l-5.7.1h-5.7v-.2ZM94 124.9c-1.4 0-1.6-.1-1.6-.2l-1-.1H90l1-.2 1.2-.1 1-.1h.7l1 .1h.6l-1 .1h-1c-.2.1-.2.1 0 .2h2v.4l-.2-.1H94Z"/><path fill="#61bad2" d="m109.4 157.4.1-.1.1-.4.1-.5.3-1 .3-.1h.4c.2 0 .3-.1.3-.2l.3-.1.4-.1.3-.2h.2c.1-.2.2-.2.3-.2l.4-.2c.1 0 .2 0 .3-.2h.2l.2-.2h.2l.2-.2h.5c.1 0 .2 0 .6-.4l.4-.5v-.2h.3c0-.2.3-.2 1.3-.2l1.3-.1.5-.1c.3 0 .4 0 .4-.2 0 0 .1-.1.2 0l-.4.4-.7.5-.3.2-.7.5-.7.6a2 2 0 0 0-.4.3l-.3.2-.4.2-.3.3s-.2 0-.3.2l-.4.2c-.2.2-.3 0-.3-.3v-.6l-.2-.3c0-.2 0-.2-.4.2l-.3.3v.7c0 .6 0 .7-.2.7 0 .2 0 .2-.4.2h-.4c0 .2 0 .2-.3.2s-.4 0-.5.2h-.3c-.3 0-.3 0-.3.2l-1.2.3h-.4Zm1.3-1.5c0-.3-.3-.4-.6-.3l-.2.2c0 .2 0 .2.4.2l.4-.1Zm.6-.6h-.3v.3l.1.2h.2v-.5Zm-4.4 1.3-.3-.1-.4-.2-.3-.1s0-.1.1 0h.6c.3 0 .4 0 .6-.2h1.1c.2 0 0 0 0 0-.2 0-.3 0-.3.3h-.2l-.4.3-.3.2-.2-.2Zm14-7-.3-.1h-1.1c0 .3-.2.3-.2 0a20 20 0 0 0 2.1-2.2l.4-.6c.2-.1.3-.3.3-.4 0 0 0-.2.2-.3v-.2l.3-.4.2-.3a7 7 0 0 1 1.7-1.7h.2l.2-.2.6-.2.5-.1c.1-.2.2-.2.6-.2h.6l.6-.2-.5.6-1 1h-.9c-1 0-.9 0-1 .5v.2l-.2.2v.3l-.2.3v.2l-.3.3v.2h-.2v.3l-.3.3-.2.3s0 .2-.2.3a1 1 0 0 0-.3.3l-.3.5-.4.5-.2.3c-.2.2-.3.3-.2.4 0 0 0 .2-.2.3 0 .2-.2.2-.4 0v-.1Zm-10.8-3v-.3l-.3-.3a7 7 0 0 0-2.4-2.1v-.1l-.8-.4-1.5-.5c0-.2-.2-.2-.6-.2l-.6-.3-.3-.2.1-.2.4-.2.7-.8c.1 0 .1-.2 0-.4 0-.2 0-.2.2-.2.1 0 .3 0 .4.2l.4.2s.2 0 .3.2h.2c0 .3.1.3.3.3l1.4 1.4c1.1 1 1.4 1.4 1.4 1.5v.2c.2 0 .2 0 .2.2l.1.2.1.3.1.2c.1 0 .2 0 .2.4v.4c.2.2.3.5.1.6v-.1Zm9.7-1.4v-1.3c0-1 0-1-.2-1.2v-2l.1-.6c0-.3 0-.4.2-.6v-.3l.2-.4.1-.4.1-.2.2-.3v-.2l.2-.2.2-.6.1-.1.2-.3v-.2l.2.2h.1l.3-.3.3-.5s0-.1.1 0l.1.3c0 .4 0 .4.2.6h.3l.2.3h.1l1-1v-.1l.1-.3-.6-.6h-1.2v.4H121v-.4c0-.5 0-.5-.2-.8l-.2-.2-.2-.1s-.3 0-.4-.2h-.6l-.3.2h-.2c0 .2-.2.2-1.5.2h-1.6c-.2.3-.4.3-.5 0h-.3l-.4-.1-.3-.1-.4-.1-.2-.2h-.4l-.3-.2-.3-.1-.3-.2c-.2 0-.3-.1-.3-.3s0-.3-.2-.4c-.2-.2-.2-.2-.5-.2h-.5v.2h-.2c-.2-.2-.3-.2-.3 0h.1l.3.7.2.3c.1 0 .1.2 0 .2-.2 0-.3-.1-.6-.4l-.4-.4v-.5l.1-.6c.2-.2.2-.2.8-.2h.7l.3.3h.4c.1.2.2.2.5.2h.4l1 .3h.4c.3 0 .5 0 .6.3h.3c.3 0 .6.4.6.7v.3c.1 0 .2 0 .2.2h.2v-.8h1c0 .2.1.2.6.2h.7l2 .2 1.7-.1 1-.2.7-.1h.8l.2.2c.2 0 .6.3.5.4l.1.3c.2 0 .2 0 0 .4v.3s0 .2-.3.3l-.3.4-.6.7a4 4 0 0 0-.6.7c0 .2-.3.4-.4.6l-.4.4h-.8a1 1 0 0 1-.5.2c-.4 0-.5 0-.7.6v.9c0 .2 0 .2.4.6.4.3.4.5.2.8v.8c0 .5 0 .6-.2.8v.7l-.2.6v.3l-.3.2v.2c0 .2-.4.5-.5.5l-.4.2-.3.2Zm10.8-2.1c0-.2 0-.3-.3-.6l-.5-.3h-.3v-.2h.1c.1-.2.2-.2.3-.2l1-.3.1-.2.3-.1.2-.1.3-.1.2-.2.3-.1c0-.1.1-.1.2 0 .3.4.3.4.7.4h.4v-.2h.3l.2.2h.2l.2.2.1-.7v-.7a.5.5 0 0 1 0-.7v-1.3h.3c.1.2.2.2.2.6s0 .4.2.7c0 .2.2.3.3.4.1 0 .1.4 0 .4-.2 0-.2.2-.2.3v.2s-.2 0-.2.2l-.2.2v.3l-.5.4-.2.2h-.2v.2h-.3l-.2.2v.2h-.3c0 .2 0 .2-.2.2l-.4.2s-.3 0-.3.2h-.2l-.3.2h-.2l-.3.2s0 .2-.3.2h-.3c0 .3-.2.2-.2 0v-.5Zm-60-6.3a7 7 0 0 1-2-.1l-1-.1-.9-.1-.6-.2-.6-.1-.5-.1h-.3l.1-.2.3-.3.2-.4v-.2c.2 0 .3 0 .3.2v.2c.2 0 .2.2.2.2l.1.3c.2.2.3.2.5.2l.6-.2.6-.6.7-.5.2.2h1.2c1 0 1.1 0 1.2.2h1v.5l.1.4.1.3.2.2.1.2h-1.8Zm2.8-.2.2-.1 1-1c.1-.2.2-.2.3-.2l.3-.1.7-.1h.5v.3c0 .3 0 .4.2.5l.2.2.4.2.2.2-.2.2h-3.8v-.1Zm63.4-.2v-.3l-.4-.4-.3-.4-.3-.2-.3-.1-.2-.2-.4-.1h-.3v-.6l.2-.3.4-.5.2-.1.6-.1h2.4v1l.2.3.1.3c.1.2.2.2.1.4v.4h-.5c0 .2 0 .3-.3.3h-.2v.2l-.4.2c-.2 0-.3 0-.3.2h-.3Zm-57.3-.4 1-.8.2-.4v-.1l.2-.2c0-.2.2-.4.3-.4l.1-.1 1.2-.3c.2 0 .3 0 .3-.2h.5c.3 0 .4-.1.5-.3h.4c.2 0 .3 0 .3-.2h.4c.3 0 .3-.1.4-.2l1-.3h.2c-1 1-2 2-3.3 2.7l-.3.2h-.4a1 1 0 0 1-.6.2h-.4c0 .2-.2.3-.5.3h-.5c0 .2-.2.2-.5.2h-.4v-.1Zm-17.7-1h-.3l-.3-.1-.4-.1-.6-.2c.2 0 .2-.3 0-.4v-.4h-.4v.5c0 .2-.3.2-.3 0h-.4l-.5-.2-.4-.1a1 1 0 0 1-.4-.1l-.6-.2h-.7l-.2-.1h-.8v.8c0 .4 0 .4-.2.4h-.2l-.2-.2v-.2h-.3v-.2h-.2v-.2c0-.2 0-.3-.2-.3v-1c.1 0 .2-.1.2-.3v-.2h.2v-.2l.2-.1.1-.1h.1l.2-.2h.1c0 .2 0 0 .2 0s1-.2 1 0h1.3l.2.2h.2l.3.2h.4l.2.2h.3c0 .2 0 .3.3.3h.4c0 .2 0 .2.2.2h.2l1 .4c.1 0 .2 0 .2.2h.3c.2 0 .2 0 .2.3v.2s-.2.3-.2.7v.7h-.2v-.1Zm-3.4-2.2v-.7c-.2 0-.3 0-.4.2-.2.2-.2.3 0 .4v.2c.1.2.3 0 .4-.1Zm90 1.9-.3-.1-.2-.1v-.1c-.3 0-.3-.2-.2-.2l.3-.7.1-.2c.2 0 .2-.2.1-.3l-.5.5v.3l-.2.2c-.4 0-.4-.1-.3-.3l.2-.2s0-.2.2-.3l.2-.4v-.2l.4-.3.2-.2v.5c-.2 0-.2 0 0 .2l.3-.4s0-.2.2-.3l.1-.3.2-.3c.2-.1.3-.2.2-.3l.1-.3h.1s0 .2.2.3c0 0 .1.2 0 .2l.4.4c.3.4.3.4.6.3.3 0 .3 0 .3.4v.3l.2.2v.2c0 .2 0 .2-.2.2v.3l-.4.4h-.2v.3h-.2v.2h-.4s-.2 0-.2-.3v-.3l-.2-.3c0-.2-.3-.2-.3 0l.1.4.1.3.1.4c.2 0 .1 0 0 0h-.3v-.3l-.2-.4c0-.3 0-.3-.2-.3v.7l.1.2c0 .2-.4.2-.5 0Zm-2.8-1h-.5l.5-.6 1.3-1v.2l-.5.5s0 .2-.2.3l-.3.4-.2.4v-.1Zm2-2s.1.3 0 .4l-.2-.3.1-.1Zm-.2 0-.5.4.2-.3c.1-.2.3-.2.3 0Zm-4.4 1.9h-.4c-.2 0-.3 0-.3-.2l-.3-.1-.2-.1-.3-.1-.4-.2-.5-.1-.6.1-.1.2h-.1v.2l-1.1-.6.5-.7c.5-.5.7-.6.7-.8v-.1c.2 0 .2.1.2.4v.3l.2.2v.1h.3l.2-.1.5-.4.5-.6-.2-.2v-.4c0-.2-.4-.5-.6-.5s-.2 0-.1-.2v-.3l.4-.4.2-.3s.3-.5.9-1l.9-.9h.3c.4 0 .5 0 .5.3l.3.2.4-.1c0-.1 0-.1.2 0l.3.1.3.2.4.3 1 .9v.4l.4.3v.2c.2.1.2.2.2.3 0 .3-.1.4-.4.4l-.3.1-.2.2h-.3c0 .2-.2.2-.3.2-.2 0-.3 0-.4.2l-.2.2h.3l.3-.1c.2 0 .3 0 .4-.2l.2-.1.6-.2c.2 0 .3 0 .4-.2 0-.1.3 0 .4 0l.2.4s-.2 0-.3.2v.5h-.1l-.2-.3v-.2l.3-.2v-.1c0-.2-.1-.1-.4.2a3 3 0 0 1-.4.4c-.2 0-.8.6-1 1a6 6 0 0 1-.8.8l-.6.6h-.2l-.1-.1c0-.1-.2 0-.4 0 0 .1-.1.2-.6.2-.4 0-.4 0-.5-.2Zm1.7-1.8.4-.3c.2 0 .3 0 .2-.2-.1-.1-.4 0-.6.2a1 1 0 0 1-.4.2l-.2.2c0 .2.4 0 .6-.1Zm2.9-.1v-.2c.2 0 .2.2 0 .2Zm-17.5-4h-.2l-.1-.2c0-.2.3-.5.5-.4l-.1.7-.1-.1Zm4.4-.7-.3-.2c-.1 0-.7-.5-.6-.6h.3l.4-.1.2-.1c.2 0 .2 0 .2-.2h.2v-.2l.5-.2v-.1l.3-.1v-.2l.4-.1.2-.1v-.2h.3c.2 0 .3 0 .3-.2l.2-.1.9-.3c0-.1 0-.2.6-.2h.6c0-.2 0-.2.3-.2s.4 0 .3.4l-.1.2h-.2l-.1.2-.3.1-.2.1c-.1 0-.2 0-.2.2h-.3l-.4.4-.6.4h-.2l-.3.3-.3.2s-.3 0-.4.2l-.4.2-.1.1-.3.2-.3.1-.3.2c-.2 0-.2 0-.3-.2v.1Zm-39.6-1.7h.1-.1Zm.2-.1v-.2l.3-.2.3-.2.4-.2.2-.2.3-.1.2-.1v-.2l.3-.1h.2l.2-.2.2-.1c.2 0 .2 0 .3-.2h.2c.2 0 .2-.1.3-.2l.3-.1h.3v1H99l-.3.2h-.5l-.4.2-.8.2-.3.1-.5.2H96l-.2.2-.2.1-.3.1H95Zm46-2.1h.9v-.2l.2-.2v-.5l.3-.1v-.1c.2 0 .3-.1.3-.3v-.2l.2-.2h.3s.2 0 .2-.2l1-.1.9.1v.1h.3l-.2.1-.3.2-.6.1h-.4l-.6.6-.7.6h-.2l-.6.4h-.3c-.2 0-.2 0-.3.2h-.3v-.3Z"/><path d="m197.5 116.2-5.3 11.4-5.3-11.4h-1.7l-5.2 11.4-5.3-11.4H173l6 12.9h2l5-11 5.2 11h2l6-12.9h-1.7Zm10.9 1.3c2 0 4 .2 6 .4.2 0 .2.3.3.4 0 3 0 6.1-.3 9.2l-.5.2c-3.9.1-7.7 0-11.6-.2-.2-3.2-.2-6.4 0-9.6l.5-.3h5.6Zm-5.6-1.4c-1.2 0-2.2 1-2.2 2.2-.2 2.9-.2 5.8 0 8.8 0 1.1 1 2 2.2 2.1 3.7.2 7.5.2 11.2 0 1.2 0 2.1-1 2.2-2.1v-8.8c0-1.2-1-2.1-2.2-2.2-3.7-.2-7.5-.2-11.2 0Zm16.2.1v12.9h1.6v-4.9h3.8l7.3 4.9h2.7l-7.3-4.9h4.2c1.1 0 2-1 2.1-2.1v-3.7c0-1.2-1-2.1-2.1-2.2H219Zm12.2 1.5c.2 0 .3.1.5.3l.2.4v3.6c0 .4-.3.7-.7.7h-10.6v-5h10.6Zm15.8 9.9h-9.3v-11.4h-1.5v12.9h10.7v-1.5Zm1.7 1.5h13.2c1.1 0 2-1 2.1-2.1v-8.6c0-1.2-1-2.1-2.1-2.2h-14.1v1.5h.9v11.4Zm13.8-2.2c0 .2 0 .3-.2.5l-.5.2h-11.6v-9.9h11.6c.2 0 .4.1.5.3l.2.4v8.5Zm17.3-3.5.5.2.2.5v1.8l-.3 1.6-.5.2c-3.7.1-7.5 0-11.2-.2a.8.8 0 0 1-.3-.5v-1h-1.5v1.2c0 1.1 1 2 2.2 2.1h10.9c1.2 0 2.1-1 2.2-2.1V124c0-1.1-1-2-2.2-2H269l-.5-.3a.7.7 0 0 1-.2-.5v-2.8c0-.3.1-.4.3-.6l.4-.2c3.8-.1 7.5 0 11.3.2l.2.5v1.1h1.6v-1.2c0-1.1-1-2-2.2-2a101 101 0 0 0-11 0c-1 0-2 .9-2 2l-.1 1.2v1.9c0 1.2 1 2 2.1 2.1h11ZM175.7 147v-5.7h9.8v-1.5h-9.8v-4.2h10.8V134h-12.3v12.8h1.5Zm23.3 0h1.8l-6-13h-3.4l-6 13h1.7l1.3-2.8h9.4l1.3 2.7Zm-9.9-4.4 3.3-7h1.4l3.3 7h-8Zm26.1-1.3c.2 0 .3 0 .5.2l.2.4v2.9c0 .2-.2.4-.3.5-.1.2-.3.2-.5.2-3.7.1-7.5 0-11.2-.2a.8.8 0 0 1-.3-.5v-1h-1.5v1.1c0 1.2 1 2.1 2.2 2.2h10.9c1.2-.1 2.1-1 2.2-2.2v-3c0-1.2-1-2.1-2.2-2.1h-10.9a.5.5 0 0 1-.5-.3.7.7 0 0 1-.2-.4v-1.8l.3-1.6c.1-.2.3-.2.5-.2 3.7-.1 7.5 0 11.2.2l.2.5v1h1.6v-1.1c0-1.2-1-2-2.2-2.1a101 101 0 0 0-11 0c-1 0-2 1-2 2l-.1 1.3v1.8c0 1.2 1 2.1 2.1 2.2h11Zm16-7.3h-12.3v1.6h5.4v11.3h1.5v-11.3h5.4V134Zm14 1.6V134H233v12.8h12.2v-1.5h-10.7v-4.1h10.7v-1.5h-10.7v-4.2h10.7Zm15.4 5.7c.1 0 .3 0 .4.2.2 0 .2.3.2.4v2.9c0 .2 0 .4-.2.5-.1.2-.3.2-.5.2-3.8.1-7.5 0-11.3-.2a.8.8 0 0 1-.2-.5v-1h-1.6v1.1c.1 1.2 1 2.1 2.2 2.2h11c1.1-.1 2-1 2.1-2.2v-3a2 2 0 0 0-2-2.1h-11a.5.5 0 0 1-.5-.3.7.7 0 0 1-.2-.4v-2.9l.2-.5c.2-.2.3-.2.5-.2 3.8-.1 7.5 0 11.3.2l.2.5v1h1.6v-1.1c-.1-1.2-1-2-2.2-2.1a101 101 0 0 0-11 0c-1.1 0-2 1-2.1 2v3.1c0 1.2 1 2.1 2.1 2.2h11Zm16-7.3h-12.3v1.6h5.3v11.3h1.6v-11.3h5.4V134Zm-103.4 29.3v1.5h1.6v-1.5h-1.6Zm17.6-.6c0 .2 0 .3-.2.5l-.5.2c-3.9.1-7.7 0-11.6-.2-.2-3.2-.2-6.4 0-9.6.1-.2.3-.3.5-.3 3.9 0 7.7 0 11.6.2l.2.5v1.1h1.6V154c-.1-1.1-1-2-2.2-2.1-3.8-.2-7.5-.2-11.3 0-1.2 0-2 1-2.1 2.1-.2 3-.2 6 0 8.9 0 1.1 1 2 2.1 2 3.8.2 7.5.2 11.3 0 1.2 0 2-.9 2.1-2l.1-1.2h-1.5v1Zm11.8-9.5 6 .3.2.5c.1 3 0 6.1-.2 9.2l-.5.2c-3.9.1-7.7 0-11.6-.2-.2-3.2-.2-6.4 0-9.6.1-.2.3-.3.5-.3l5.6-.1Zm-5.7-1.4c-1.1 0-2 1-2.1 2.1-.2 3-.2 6 0 8.9 0 1.1 1 2 2.1 2 3.8.2 7.5.2 11.3 0 1.2 0 2.1-.9 2.2-2v-8.9c-.1-1.1-1-2-2.2-2.1-3.8-.2-7.5-.2-11.3 0Zm30.9.2-5.9 11-5.9-11h-2.7v12.8h1.5v-11.4h.3l6 11.4h1.6l6-11.4h.3v11.4h1.6v-12.9h-2.8Z"/><g fill="#82af52" stroke-width="0" font-family="Arial" font-weight="400"><text dx="0" dy="0" font-size="15.8" transform="translate(101.5 439.1)"><tspan y="0" font-weight="100">That's enough electricity to drive an</tspan><tspan x="0" y="15.8">electric car 3mi. </tspan></text><text dx="0" dy="0" font-size="20" transform="translate(100.1 412.5)"><tspan y="0" font-weight="700">1kWh </tspan><tspan y="0" font-family="Arial">of energy</tspan></text></g></svg>