<svg width="337" height="475" fill="none" xmlns="http://www.w3.org/2000/svg"><path d="M.5 255.5v-219l.8.7.8.7 1.1-4A70 70 0 0 1 5 28.4l.6-1.5v-2.7H7l.2-1.4.1-1.5h1l.4 1.8.3 1.9 3-.4 3-.5.8-1.4.9-1.5.4-3.8.5-3.8H19l.5 1.5.6 1.3 1.6-.2 1.6-.2v-.6l-.2-.7.6-.6c.3-.3 1-.7 1.6-.9l1-.3.1 1.4.2 3v1.6l.6 2.7.6 2.6h1.6c1-.2 2.9 0 4.4.2l2.8.6.2 1.3.3 1.3v-2.3l.4.3.9 1.2c.2.3.6.5.9.4l.4-.2.2 2.4.2 2.4-.2 1.8-.2 2 .3.6.3.6-.1 1-.2.8H41.3l.5 1.5.5 1.3h1.1l.5-1.6c.7-2.2 1.8-7.5 1.8-8.9v-1h.5v-1.3l.2-1.7c.3-.4 1.2-7.2 1.2-9v-1.4h.4v-2.3l-.1-2.2.6-1.4c.8-2 2-6.6 1.8-6.6l.6-1.8.8-1.8.5.6 1 2.2a35 35 0 0 0 3.4 7.2l.8 1.1 1.7 4.6c1 2.5 2 5.7 2.4 7 .4 1.2 1.3 3.6 2 5.1l3.8 8.1c1.3 3 2.5 5.2 2.7 5.2.2 0 .8 1.5 1.5 3.3l1.1 3.3h2.1l.4.8.3.8.8-.1h.8l.7 1.3.8 1.3v9.5h1.2l-.4 1-.4 1h.6c.6 0 1.7 1.7 2 3.3l.2.9-.2 9-.1 8.9.4.6.5.6 1-3.6 1-3.6.4.7.3.8-.2-1.1-.2-1 .8-1.8c.4-1 1-2.5 1.1-3.5l.4-1.6 1 1 1 1 1.7-.2h3.1l1.5.1.6-1.3c.3-.8 1-1.7 1.6-2l1-.6V68.6l.6-.7 1.5-2 .9-1.5-.4-.8-.3-1 1.7.6c1 .3 1.8.7 2 1l.1.5v-1.9l.6-.4.5-.5.2 2.5c.1 1.5.2 3.1.1 3.8v1.1l.7.7c.4.4 1.3 1.6 1.9 2.9l1.1 2.2h5l2.7.2.3-1.6.4-3v-1.3h1l.2-1.4.1-1.6 1 .3.8.2 1-3 1-3 .3.4.2.5v-3l.7-1.1c.4-.6.7-1.5.7-2V55h1.2l.8 2.2 1.3 4.1.6 2 .5-.6c.3-.4.7-.5.9-.3l.3.5.2-2.8c0-1.5.4-5 .7-7.7l.5-5.1h.4c.2 0 .8.6 1.3 1.3a22 22 0 0 0 1.8 2.4l.9 1 1.7.3 1.8.2 1.3-2.5 2.8-4.7 1.4-2.3v-1.3l.2-2.9c.2-.8.5-3 .6-4.7l.3-3.2h.5c.2 0 1.1 1.1 2 2.3l1.6 2.5.3-.8c.2-.4.8-1.4 1.5-2l1.3-1.2.6.5.5.5-.1-.9-.2-.9.4-.4 1.6-1 1.2-.3.2 3.3.2 3.2.4 1.1.3 1V41.5l1 .7c.5.3 1 1 1 1.4l.2 1H162.3l.3 1.6.3 1.7.2-1.3.2-1.2 1.6 1.3 1.5 1.5.8-2.5c.4-1.4 1.1-3 1.6-3.7l.8-1.2.6 2.5c.4 1.3.7 3 .7 3.5 0 .6.4 2.5.9 4.3l.8 3.3 1.3.2 1.3.2.8 2.5c.4 1.4.9 2.6 1 2.6.2 0 .6.6 1 1.3l.7 1.4.3-.9c.2-.5.8-.8 1.2-.8h.9l.6-2c.3-1 .7-1.9.8-1.9l1.2.9 1 .7 3.3-1.1 3.2-1.2.4 1.1.4 1-.2-1.6-.1-1.7.2.3c.3.4 1.3-3.5 1.5-6l.2-2.4.6-1.7.5-1.8.8.5c.4.3 1 1 1.2 1.9.5 1.2 1 1.8 3.3 3.4l1.2.9 1.5 2.6 1.4 2.7 1.5.3c.8 0 1.6.2 1.8.3h.3v3.2l.4.4.5.3v-3.1l1.5.2 1.6.2.6-1.3c.4-.8.8-1.7.8-2 .1-.3.6-.8 1-1.1l.9-.6.6 2.7.5 3.6c0 .5.7 3.6 1.6 7l1.5 6 .8-1.1.8-1 .5.2c.8.4 1.2 1.8 1.5 6.4l.4 4 .6 1.5.7 1.7H225.8l-.2.7-.1 1h.5l.2 3.3.1 3.3.6.5.6.5 2.2-.5 2.9-.7.7-.2v-.7l.1-1.4c0-1.3 1-5.6 1-4.8v.8l.3-1 .4-1 1 1.4 1.1 1.4 2.3.6 3.5.5h1.2l.3 1.3c0 .7.6 1.4 1 1.8l.7.6.7-1 .8-1 .5-2.4a28.8 28.8 0 0 0 .8-6.2 104 104 0 0 0 .6-9.3l.2-2.2.2.4.2.5.1-.8.2-1 1 .9 1 .7 1.6-.5c1.8-.6 2.2-.6 5-.2l1.7.2.2-1.2.2-1 1.2-1L264 64l.5-.5-.2 1-.2.8 1.2-.8c.6-.4 1.5-1.1 1.9-1.7l.7-1 .3.5.3.7-.2-1-.1-1 .7-1.2c.4-.8 1-1.3 1.2-1.3h.5V57c0-.9 0-2 .2-2.3l.2-1.3a26.3 26.3 0 0 1 1-4.6v.9l.2-1 .3-1.1.7 1.3.8 1.3 1.3.7 4.1 1.6c.4 0 .8.5.8.8l1 1.6 1 1.2.2-.8c0-.5.4-1 .7-1.4l.6-.5.1 1.3.2 1.4h2.5l-.2 1-.2.9h1.2l-.2-.9-.1-1 .5-.5.5-.6.6 1c.3.6.5 1.5.5 2v1h-.9l.2.5c0 .4.8.7 1.6.8l1.5.2-.2-.8v-.8l.7.2.9.2v4.4h.5c.2 0 1 .7 1.6 1.5l1.2 1.5 1.8-5.2c2.2-6.6 4.3-13.6 4.3-14.8l-.3-2-.3-1 .3-1.4.3-1.4-.2-.6-.2-.8.5-1.3.5-1.4h2.9l.9-1.3.8-1.3.8-2.7.7-2.7v-3.3l.6-.5.6-.6.7.5.7.6.5-1.9c.3-1 .5-1.6.6-1.4.2.6 1.4-1 1.7-2.2l.3-1.4.4.6.4.6-.2-1.4-.2-1.3.4 1.3.5 1.3 1.7-2.2a27 27 0 0 1 2.9-3.6l.6-1 .5 2 .5 2-.1 1.2-.2 1.2.6.5.5.5V23l1.3-.8 1.4-.8.4-1.4.4-2.5c0-1.5 1-4.7 1.6-4.8h.3l.9 2.3.9 2.4h3.9c.5 0 1.1 0 1.5.4l.7.3v228.1l.1 228.2H.5v-219Z" fill="#fff"/><mask id="a" maskUnits="userSpaceOnUse" x="150" y="110" width="95" height="44" fill="#000"><path fill="#fff" d="M150 110h95v44h-95z"/><path d="m172.6 111.2-4.4 9.5-4.5-9.5h-1.4l-4.5 9.5-4.4-9.5H152l5 10.8h1.7l4.3-9.3 4.3 9.3h1.7l5-10.8h-1.4ZM181.8 112.3a117.5 117.5 0 0 1 5 .3 70.5 70.5 0 0 1 0 8.1l-.4.1a93.4 93.4 0 0 1-9.7-.1 70.5 70.5 0 0 1 0-8.1l.4-.2 4.7-.1ZM177 111c-1 0-1.7.8-1.8 1.8v7.4c0 1 .8 1.8 1.8 1.8a96.7 96.7 0 0 0 9.5 0c1 0 1.8-.8 1.8-1.8V113c0-1-.8-1.7-1.8-1.8a97.7 97.7 0 0 0-9.5 0ZM190.7 111.2V122h1.3V118h3.2l6.1 4.1h2.3l-6.1-4.1h3.5a2 2 0 0 0 1.8-1.8V113c0-1-.8-1.8-1.8-1.8h-10.3Zm10.2 1.3c.2 0 .3 0 .5.2l.1.4v3a.6.6 0 0 1-.6.5H192v-4.1h9ZM214.2 120.7h-7.7v-9.5h-1.3V122h9v-1.3ZM215.7 122h11a2 2 0 0 0 1.9-1.8V113a2 2 0 0 0-1.8-1.8h-12v1.3h.9v9.5Zm11.6-1.8c0 .1 0 .3-.2.4l-.4.1H217v-8.2h9.7c.2 0 .3 0 .4.2l.2.4v7ZM241.8 117.2l.4.2.2.4v1.5a313.1 313.1 0 0 0-.2 1.4l-.4.1a87.9 87.9 0 0 1-9.5-.1.6.6 0 0 1-.2-.4v-1h-1.3v1a2 2 0 0 0 1.8 1.8 115.5 115.5 0 0 0 9.2 0 2 2 0 0 0 1.9-1.8v-2.5c0-1-.8-1.8-1.8-1.8h-9.2l-.4-.2a.6.6 0 0 1-.2-.4v-2.5l.2-.4.4-.1a89 89 0 0 1 9.5.1l.2.5v.9h1.3v-1c0-1-.9-1.7-1.9-1.8a91.5 91.5 0 0 0-9.2 0c-1 0-1.7.8-1.8 1.8v2.6c0 1 .8 1.7 1.8 1.7h9.2ZM154.3 137v-4.7h8.2V131h-8.2v-3.5h9v-1.3H153V137h1.3ZM174 137h1.4l-5-10.8h-3l-5 10.8h1.5l1-2.3h8l1 2.3Zm-8.4-3.6 2.7-6h1.2l2.8 6h-6.8ZM187.5 132.3l.4.1.2.4v1.5a283.4 283.4 0 0 1-.3 1.4l-.4.1a87.9 87.9 0 0 1-9.4-.1.6.6 0 0 1-.2-.4v-1h-1.3v1a2 2 0 0 0 1.8 1.8 115.5 115.5 0 0 0 9.2 0 2 2 0 0 0 1.8-1.8v-2.5c0-1-.8-1.8-1.8-1.8h-9.2c-.1 0-.3 0-.4-.2a.6.6 0 0 1-.2-.4v-2.5l.3-.3c0-.2.2-.2.4-.2a89 89 0 0 1 9.4.2c.2 0 .2.2.2.4v.9h1.4v-1c-.1-1-1-1.7-1.9-1.8a91.5 91.5 0 0 0-9.2 0c-1 0-1.8.8-1.8 1.8v2.6c0 1 .8 1.7 1.8 1.8h9.2ZM201 126.2h-10.4v1.3h4.5v9.5h1.3v-9.5h4.5v-1.3ZM212.8 127.5v-1.3h-10.4V137h10.4v-1.3h-9v-3.4h9V131h-9v-3.5h9ZM225.7 132.3l.4.1.1.4v1.5a283.4 283.4 0 0 1-.2 1.4l-.4.1a87.9 87.9 0 0 1-9.5-.1.6.6 0 0 1-.2-.4v-1h-1.3v1a2 2 0 0 0 1.9 1.8 115.5 115.5 0 0 0 9.2 0 2 2 0 0 0 1.8-1.8v-2.5c0-1-.8-1.8-1.8-1.8h-9.2c-.1 0-.3 0-.4-.2a.6.6 0 0 1-.2-.4v-2.5l.2-.3c.1-.2.3-.2.4-.2a89 89 0 0 1 9.5.2l.2.4v.9h1.3v-1c0-1-.9-1.7-1.8-1.8a91.5 91.5 0 0 0-9.2 0c-1 0-1.8.8-1.8 1.8v2.6c0 1 .8 1.7 1.7 1.8h9.3ZM239.1 126.2h-10.3v1.3h4.5v9.5h1.3v-9.5h4.5v-1.3ZM152.2 150.8v1.2h1.3v-1.3h-1.3ZM167 150.3c0 .1 0 .3-.2.4l-.4.1a93.4 93.4 0 0 1-9.8-.1 71 71 0 0 1 0-8.1l.4-.2a118.3 118.3 0 0 1 9.8.2l.2.4v1h1.3v-1c0-1-.9-1.8-1.8-1.9a97.7 97.7 0 0 0-9.5 0c-1 0-1.8.8-1.8 1.8-.2 2.5-.2 5 0 7.4 0 1 .8 1.8 1.8 1.8a96.7 96.7 0 0 0 9.5 0c1 0 1.7-.8 1.8-1.8v-1H167v1ZM176.9 142.3a117.6 117.6 0 0 1 5 .3 71 71 0 0 1 0 8.1l-.4.1a93.5 93.5 0 0 1-9.7-.1 70.5 70.5 0 0 1 0-8.1l.4-.2 4.7-.1ZM172 141c-1 0-1.7.8-1.8 1.8v7.4c0 1 .8 1.8 1.8 1.8a96.7 96.7 0 0 0 9.5 0c1 0 1.8-.8 1.8-1.8V143c0-1-.8-1.7-1.8-1.8a97.7 97.7 0 0 0-9.5 0ZM198.1 141.2l-5 9.3-5-9.3H186V152h1.3v-9.5h.2l5.1 9.5h1.3l5.1-9.5h.2v9.5h1.3v-10.8h-2.3Z"/></mask><path d="m172.6 111.2-4.4 9.5-4.5-9.5h-1.4l-4.5 9.5-4.4-9.5H152l5 10.8h1.7l4.3-9.3 4.3 9.3h1.7l5-10.8h-1.4ZM181.8 112.3a117.5 117.5 0 0 1 5 .3 70.5 70.5 0 0 1 0 8.1l-.4.1a93.4 93.4 0 0 1-9.7-.1 70.5 70.5 0 0 1 0-8.1l.4-.2 4.7-.1ZM177 111c-1 0-1.7.8-1.8 1.8v7.4c0 1 .8 1.8 1.8 1.8a96.7 96.7 0 0 0 9.5 0c1 0 1.8-.8 1.8-1.8V113c0-1-.8-1.7-1.8-1.8a97.7 97.7 0 0 0-9.5 0ZM190.7 111.2V122h1.3V118h3.2l6.1 4.1h2.3l-6.1-4.1h3.5a2 2 0 0 0 1.8-1.8V113c0-1-.8-1.8-1.8-1.8h-10.3Zm10.2 1.3c.2 0 .3 0 .5.2l.1.4v3a.6.6 0 0 1-.6.5H192v-4.1h9ZM214.2 120.7h-7.7v-9.5h-1.3V122h9v-1.3ZM215.7 122h11a2 2 0 0 0 1.9-1.8V113a2 2 0 0 0-1.8-1.8h-12v1.3h.9v9.5Zm11.6-1.8c0 .1 0 .3-.2.4l-.4.1H217v-8.2h9.7c.2 0 .3 0 .4.2l.2.4v7ZM241.8 117.2l.4.2.2.4v1.5a313.1 313.1 0 0 0-.2 1.4l-.4.1a87.9 87.9 0 0 1-9.5-.1.6.6 0 0 1-.2-.4v-1h-1.3v1a2 2 0 0 0 1.8 1.8 115.5 115.5 0 0 0 9.2 0 2 2 0 0 0 1.9-1.8v-2.5c0-1-.8-1.8-1.8-1.8h-9.2l-.4-.2a.6.6 0 0 1-.2-.4v-2.5l.2-.4.4-.1a89 89 0 0 1 9.5.1l.2.5v.9h1.3v-1c0-1-.9-1.7-1.9-1.8a91.5 91.5 0 0 0-9.2 0c-1 0-1.7.8-1.8 1.8v2.6c0 1 .8 1.7 1.8 1.7h9.2ZM154.3 137v-4.7h8.2V131h-8.2v-3.5h9v-1.3H153V137h1.3ZM174 137h1.4l-5-10.8h-3l-5 10.8h1.5l1-2.3h8l1 2.3Zm-8.4-3.6 2.7-6h1.2l2.8 6h-6.8ZM187.5 132.3l.4.1.2.4v1.5a283.4 283.4 0 0 1-.3 1.4l-.4.1a87.9 87.9 0 0 1-9.4-.1.6.6 0 0 1-.2-.4v-1h-1.3v1a2 2 0 0 0 1.8 1.8 115.5 115.5 0 0 0 9.2 0 2 2 0 0 0 1.8-1.8v-2.5c0-1-.8-1.8-1.8-1.8h-9.2c-.1 0-.3 0-.4-.2a.6.6 0 0 1-.2-.4v-2.5l.3-.3c0-.2.2-.2.4-.2a89 89 0 0 1 9.4.2c.2 0 .2.2.2.4v.9h1.4v-1c-.1-1-1-1.7-1.9-1.8a91.5 91.5 0 0 0-9.2 0c-1 0-1.8.8-1.8 1.8v2.6c0 1 .8 1.7 1.8 1.8h9.2ZM201 126.2h-10.4v1.3h4.5v9.5h1.3v-9.5h4.5v-1.3ZM212.8 127.5v-1.3h-10.4V137h10.4v-1.3h-9v-3.4h9V131h-9v-3.5h9ZM225.7 132.3l.4.1.1.4v1.5a283.4 283.4 0 0 1-.2 1.4l-.4.1a87.9 87.9 0 0 1-9.5-.1.6.6 0 0 1-.2-.4v-1h-1.3v1a2 2 0 0 0 1.9 1.8 115.5 115.5 0 0 0 9.2 0 2 2 0 0 0 1.8-1.8v-2.5c0-1-.8-1.8-1.8-1.8h-9.2c-.1 0-.3 0-.4-.2a.6.6 0 0 1-.2-.4v-2.5l.2-.3c.1-.2.3-.2.4-.2a89 89 0 0 1 9.5.2l.2.4v.9h1.3v-1c0-1-.9-1.7-1.8-1.8a91.5 91.5 0 0 0-9.2 0c-1 0-1.8.8-1.8 1.8v2.6c0 1 .8 1.7 1.7 1.8h9.3ZM239.1 126.2h-10.3v1.3h4.5v9.5h1.3v-9.5h4.5v-1.3ZM152.2 150.8v1.2h1.3v-1.3h-1.3ZM167 150.3c0 .1 0 .3-.2.4l-.4.1a93.4 93.4 0 0 1-9.8-.1 71 71 0 0 1 0-8.1l.4-.2a118.3 118.3 0 0 1 9.8.2l.2.4v1h1.3v-1c0-1-.9-1.8-1.8-1.9a97.7 97.7 0 0 0-9.5 0c-1 0-1.8.8-1.8 1.8-.2 2.5-.2 5 0 7.4 0 1 .8 1.8 1.8 1.8a96.7 96.7 0 0 0 9.5 0c1 0 1.7-.8 1.8-1.8v-1H167v1ZM176.9 142.3a117.6 117.6 0 0 1 5 .3 71 71 0 0 1 0 8.1l-.4.1a93.5 93.5 0 0 1-9.7-.1 70.5 70.5 0 0 1 0-8.1l.4-.2 4.7-.1ZM172 141c-1 0-1.7.8-1.8 1.8v7.4c0 1 .8 1.8 1.8 1.8a96.7 96.7 0 0 0 9.5 0c1 0 1.8-.8 1.8-1.8V143c0-1-.8-1.7-1.8-1.8a97.7 97.7 0 0 0-9.5 0ZM198.1 141.2l-5 9.3-5-9.3H186V152h1.3v-9.5h.2l5.1 9.5h1.3l5.1-9.5h.2v9.5h1.3v-10.8h-2.3Z" fill="#000"/><path d="m172.6 111.2-4.4 9.5-4.5-9.5h-1.4l-4.5 9.5-4.4-9.5H152l5 10.8h1.7l4.3-9.3 4.3 9.3h1.7l5-10.8h-1.4ZM181.8 112.3a117.5 117.5 0 0 1 5 .3 70.5 70.5 0 0 1 0 8.1l-.4.1a93.4 93.4 0 0 1-9.7-.1 70.5 70.5 0 0 1 0-8.1l.4-.2 4.7-.1ZM177 111c-1 0-1.7.8-1.8 1.8v7.4c0 1 .8 1.8 1.8 1.8a96.7 96.7 0 0 0 9.5 0c1 0 1.8-.8 1.8-1.8V113c0-1-.8-1.7-1.8-1.8a97.7 97.7 0 0 0-9.5 0ZM190.7 111.2V122h1.3V118h3.2l6.1 4.1h2.3l-6.1-4.1h3.5a2 2 0 0 0 1.8-1.8V113c0-1-.8-1.8-1.8-1.8h-10.3Zm10.2 1.3c.2 0 .3 0 .5.2l.1.4v3a.6.6 0 0 1-.6.5H192v-4.1h9ZM214.2 120.7h-7.7v-9.5h-1.3V122h9v-1.3ZM215.7 122h11a2 2 0 0 0 1.9-1.8V113a2 2 0 0 0-1.8-1.8h-12v1.3h.9v9.5Zm11.6-1.8c0 .1 0 .3-.2.4l-.4.1H217v-8.2h9.7c.2 0 .3 0 .4.2l.2.4v7ZM241.8 117.2l.4.2.2.4v1.5a313.1 313.1 0 0 0-.2 1.4l-.4.1a87.9 87.9 0 0 1-9.5-.1.6.6 0 0 1-.2-.4v-1h-1.3v1a2 2 0 0 0 1.8 1.8 115.5 115.5 0 0 0 9.2 0 2 2 0 0 0 1.9-1.8v-2.5c0-1-.8-1.8-1.8-1.8h-9.2l-.4-.2a.6.6 0 0 1-.2-.4v-2.5l.2-.4.4-.1a89 89 0 0 1 9.5.1l.2.5v.9h1.3v-1c0-1-.9-1.7-1.9-1.8a91.5 91.5 0 0 0-9.2 0c-1 0-1.7.8-1.8 1.8v2.6c0 1 .8 1.7 1.8 1.7h9.2ZM154.3 137v-4.7h8.2V131h-8.2v-3.5h9v-1.3H153V137h1.3ZM174 137h1.4l-5-10.8h-3l-5 10.8h1.5l1-2.3h8l1 2.3Zm-8.4-3.6 2.7-6h1.2l2.8 6h-6.8ZM187.5 132.3l.4.1.2.4v1.5a283.4 283.4 0 0 1-.3 1.4l-.4.1a87.9 87.9 0 0 1-9.4-.1.6.6 0 0 1-.2-.4v-1h-1.3v1a2 2 0 0 0 1.8 1.8 115.5 115.5 0 0 0 9.2 0 2 2 0 0 0 1.8-1.8v-2.5c0-1-.8-1.8-1.8-1.8h-9.2c-.1 0-.3 0-.4-.2a.6.6 0 0 1-.2-.4v-2.5l.3-.3c0-.2.2-.2.4-.2a89 89 0 0 1 9.4.2c.2 0 .2.2.2.4v.9h1.4v-1c-.1-1-1-1.7-1.9-1.8a91.5 91.5 0 0 0-9.2 0c-1 0-1.8.8-1.8 1.8v2.6c0 1 .8 1.7 1.8 1.8h9.2ZM201 126.2h-10.4v1.3h4.5v9.5h1.3v-9.5h4.5v-1.3ZM212.8 127.5v-1.3h-10.4V137h10.4v-1.3h-9v-3.4h9V131h-9v-3.5h9ZM225.7 132.3l.4.1.1.4v1.5a283.4 283.4 0 0 1-.2 1.4l-.4.1a87.9 87.9 0 0 1-9.5-.1.6.6 0 0 1-.2-.4v-1h-1.3v1a2 2 0 0 0 1.9 1.8 115.5 115.5 0 0 0 9.2 0 2 2 0 0 0 1.8-1.8v-2.5c0-1-.8-1.8-1.8-1.8h-9.2c-.1 0-.3 0-.4-.2a.6.6 0 0 1-.2-.4v-2.5l.2-.3c.1-.2.3-.2.4-.2a89 89 0 0 1 9.5.2l.2.4v.9h1.3v-1c0-1-.9-1.7-1.8-1.8a91.5 91.5 0 0 0-9.2 0c-1 0-1.8.8-1.8 1.8v2.6c0 1 .8 1.7 1.7 1.8h9.3ZM239.1 126.2h-10.3v1.3h4.5v9.5h1.3v-9.5h4.5v-1.3ZM152.2 150.8v1.2h1.3v-1.3h-1.3ZM167 150.3c0 .1 0 .3-.2.4l-.4.1a93.4 93.4 0 0 1-9.8-.1 71 71 0 0 1 0-8.1l.4-.2a118.3 118.3 0 0 1 9.8.2l.2.4v1h1.3v-1c0-1-.9-1.8-1.8-1.9a97.7 97.7 0 0 0-9.5 0c-1 0-1.8.8-1.8 1.8-.2 2.5-.2 5 0 7.4 0 1 .8 1.8 1.8 1.8a96.7 96.7 0 0 0 9.5 0c1 0 1.7-.8 1.8-1.8v-1H167v1ZM176.9 142.3a117.6 117.6 0 0 1 5 .3 71 71 0 0 1 0 8.1l-.4.1a93.5 93.5 0 0 1-9.7-.1 70.5 70.5 0 0 1 0-8.1l.4-.2 4.7-.1ZM172 141c-1 0-1.7.8-1.8 1.8v7.4c0 1 .8 1.8 1.8 1.8a96.7 96.7 0 0 0 9.5 0c1 0 1.8-.8 1.8-1.8V143c0-1-.8-1.7-1.8-1.8a97.7 97.7 0 0 0-9.5 0ZM198.1 141.2l-5 9.3-5-9.3H186V152h1.3v-9.5h.2l5.1 9.5h1.3l5.1-9.5h.2v9.5h1.3v-10.8h-2.3Z" stroke="#fff" stroke-width="1.7" mask="url(#a)"/><path d="M39.1 301.7c-1.1 0-2.1-.1-3-.5-1-.4-1.7-.9-2.4-1.6a7.5 7.5 0 0 1-1.4-2.7 12 12 0 0 1-.6-3.7c0-1.4.2-2.7.6-3.8.3-1 .8-2 1.4-2.7.7-.8 1.5-1.3 2.4-1.7.9-.4 1.9-.6 3-.6a7 7 0 0 1 3.9 1c1 .6 1.8 1.6 2.4 3l-3.1 1.6c-.3-.7-.6-1.3-1.1-1.7-.5-.4-1.1-.7-2-.7-1.1 0-2 .4-2.7 1.1-.6.7-1 1.7-1 3v2.7c0 1.3.4 2.4 1 3 .7.7 1.6 1 2.6 1a3 3 0 0 0 2.2-.6c.5-.5 1-1.1 1.2-1.8l3 1.7a7.5 7.5 0 0 1-2.5 3c-1 .7-2.3 1-3.9 1Zm12.2-.3c-1.2 0-2-.3-2.6-.8-.6-.6-.9-1.5-.9-2.6v-14.3h3.6v15h1.5v2.7h-1.6Zm9 .3c-1 0-1.8-.1-2.5-.4-.8-.3-1.4-.8-2-1.3a6 6 0 0 1-1.1-2.1c-.3-.8-.4-1.8-.4-2.8 0-1 .1-1.9.4-2.7.2-.8.6-1.5 1.1-2a5 5 0 0 1 1.9-1.4c.7-.3 1.5-.4 2.5-.4s2 .1 2.7.5a5 5 0 0 1 1.8 1.4c.5.6.8 1.3 1 2 .2.8.3 1.6.3 2.5v1h-8v.2c0 .9.2 1.5.6 2 .5.5 1.2.7 2.1.7.8 0 1.4-.1 1.8-.4.5-.3 1-.6 1.3-1l1.8 2.1c-.5.7-1.3 1.2-2.2 1.6a8 8 0 0 1-3 .5Zm0-10.5c-.8 0-1.3.2-1.7.7-.4.5-.6 1-.6 1.9v.2h4.4v-.3a3 3 0 0 0-.6-1.8c-.3-.5-.8-.7-1.5-.7Zm17.6 10.2c-.7 0-1.2-.2-1.6-.6-.5-.4-.7-.9-.8-1.6h-.2a3 3 0 0 1-1.2 2c-.7.3-1.5.5-2.5.5-1.2 0-2.2-.3-2.9-1-.6-.6-1-1.5-1-2.6 0-1.4.5-2.4 1.5-3a7 7 0 0 1 4-1h2v-.8c0-.6-.3-1-.6-1.4-.3-.4-.8-.6-1.6-.6-.7 0-1.2.2-1.7.5l-1 1-2.1-1.8c.5-.8 1.1-1.4 2-1.8.7-.4 1.8-.6 3-.6 1.9 0 3.2.3 4.1 1.1 1 .8 1.4 2 1.4 3.5v5.5h1.1v2.7h-2Zm-5-2.1c.6 0 1.1-.2 1.6-.4.4-.3.6-.7.6-1.3v-1.5h-1.7c-1.4 0-2.1.5-2.1 1.5v.3c0 .5.1.8.4 1 .3.3.7.4 1.2.4Zm9.3 2.1v-12.6h3.6v2.2h.1c.2-.7.6-1.2 1.2-1.7s1.3-.7 2.3-.7c1.3 0 2.3.4 3 1.3a6 6 0 0 1 1 3.6v8h-3.6v-7.7c0-.8-.1-1.4-.4-1.8-.2-.4-.7-.6-1.3-.6a3 3 0 0 0-1.6.5l-.5.6c-.2.2-.2.5-.2.8v8.1h-3.6Zm19.6.3c-1 0-1.8-.1-2.6-.4-.7-.3-1.4-.8-2-1.3a6 6 0 0 1-1-2.1 8.8 8.8 0 0 1 0-5.4c.2-.9.5-1.6 1-2.1a5 5 0 0 1 2-1.4c.6-.3 1.5-.4 2.4-.4 1 0 2 .1 2.7.5a5 5 0 0 1 1.8 1.4c.5.6.8 1.3 1 2 .3.8.4 1.6.4 2.5v1h-8.1v.2c0 .9.2 1.5.7 2 .4.5 1.1.7 2 .7.8 0 1.4-.1 1.9-.4l1.3-1 1.8 2.1c-.6.7-1.3 1.2-2.3 1.6a8 8 0 0 1-3 .5Zm-.1-10.5c-.7 0-1.3.2-1.7.7-.4.5-.6 1-.6 1.9v.2h4.4v-.3a3 3 0 0 0-.5-1.8c-.4-.5-.9-.7-1.6-.7Zm8.3 10.2v-12.6h3.5v2.8h.2a3.7 3.7 0 0 1 1-2 3.2 3.2 0 0 1 2.3-.8h.5v3.4h-.9c-1 0-1.8 0-2.3.4-.5.2-.8.7-.8 1.5v7.3H110Zm19.8 0c-1.2 0-2.2-.3-2.8-.9-.6-.6-1-1.5-1-2.7v-6.2h-1.7v-2.8h.9c.4 0 .8 0 1-.3l.2-1v-2h3.2v3.3h2.5v2.8h-2.5v7h2.3v2.8h-2.1Zm4.8-17.7h3.5v7.3h.2c.2-.7.6-1.2 1.1-1.7.6-.5 1.4-.7 2.4-.7 1.3 0 2.2.4 2.9 1.3a6 6 0 0 1 1 3.6v8H142v-7.7c0-.8 0-1.4-.3-1.8-.3-.4-.8-.6-1.4-.6a3 3 0 0 0-1.6.5l-.5.6-.2.8v8.1h-3.5v-17.7Zm23.6 17.7c-.7 0-1.2-.2-1.6-.6-.5-.4-.7-.9-.8-1.6h-.2a3 3 0 0 1-1.3 2c-.6.3-1.4.5-2.4.5-1.2 0-2.2-.3-2.9-1-.7-.6-1-1.5-1-2.6 0-1.4.5-2.4 1.5-3a7 7 0 0 1 4-1h1.9v-.8c0-.6-.2-1-.5-1.4-.3-.4-.8-.6-1.6-.6-.7 0-1.2.2-1.7.5l-1 1-2.1-1.8c.5-.8 1.1-1.4 2-1.8.7-.4 1.8-.6 3-.6 1.9 0 3.2.3 4.1 1.1 1 .8 1.4 2 1.4 3.5v5.5h1.1v2.7h-2Zm-5-2.1c.6 0 1.1-.2 1.6-.4.4-.3.6-.7.6-1.3v-1.5h-1.7c-1.4 0-2.1.5-2.1 1.5v.3c0 .5.1.8.4 1 .3.3.7.4 1.2.4Zm9.3 2.1v-12.6h3.6v2.2h.1c.2-.7.6-1.2 1.2-1.7.5-.5 1.3-.7 2.3-.7 1.3 0 2.3.4 3 1.3a6 6 0 0 1 1 3.6v8H170v-7.7c0-.8-.1-1.4-.4-1.8-.2-.4-.7-.6-1.4-.6a3 3 0 0 0-1.5.5l-.5.6c-.2.2-.2.5-.2.8v8.1h-3.6Zm20.6 0v-2.9h4.5v-11.2h-.2l-3.4 4.5-2.3-1.8 4-5.3h5.5v13.8h3.5v3h-11.6Zm19.3.3c-2.2 0-3.8-.7-4.9-2.3a11 11 0 0 1-1.5-6.3c0-2.8.5-4.9 1.5-6.4 1.1-1.5 2.7-2.3 5-2.3 2.1 0 3.7.8 4.8 2.3a11 11 0 0 1 1.6 6.4 11 11 0 0 1-1.6 6.3c-1 1.6-2.7 2.3-4.9 2.3Zm0-3c1 0 1.6-.4 2-1 .4-.8.6-1.8.6-3v-3.2c0-1.3-.2-2.3-.6-3-.4-.7-1-1-2-1s-1.6.3-2 1c-.3.7-.5 1.7-.5 3v3.1c0 1.3.2 2.3.5 3 .4.7 1 1 2 1Zm14.4 3c-2.2 0-3.8-.7-4.9-2.3a11 11 0 0 1-1.5-6.3c0-2.8.5-4.9 1.5-6.4s2.7-2.3 5-2.3c2.1 0 3.7.8 4.8 2.3a11 11 0 0 1 1.6 6.4 11 11 0 0 1-1.6 6.3c-1 1.6-2.7 2.3-4.9 2.3Zm0-3c1 0 1.6-.4 2-1 .4-.8.6-1.8.6-3v-3.2c0-1.3-.2-2.3-.6-3-.4-.7-1-1-2-1s-1.6.3-2 1c-.4.7-.5 1.7-.5 3v3.1c0 1.3.1 2.3.5 3 .4.7 1 1 2 1Zm11.5 2.7 11.6-16.7h3.2l-11.6 16.7h-3.2Zm1.2-7.5c-1.4 0-2.5-.4-3.2-1.2-.7-.8-1.1-2-1.1-3.5 0-1.6.4-2.8 1.1-3.6.7-.8 1.8-1.2 3.2-1.2 1.4 0 2.5.4 3.2 1.2.8.8 1.1 2 1.1 3.6 0 1.5-.3 2.7-1 3.5-.8.8-1.9 1.2-3.3 1.2Zm0-2a1 1 0 0 0 1-.5c.2-.4.3-.9.3-1.6v-1.3a3 3 0 0 0-.3-1.5 1 1 0 0 0-1-.5 1 1 0 0 0-1 .5 3 3 0 0 0-.2 1.5v1.3c0 .7 0 1.2.3 1.6.2.3.5.4 1 .4Zm12.4 9.8c-1.5 0-2.5-.4-3.3-1.2-.7-.8-1-2-1-3.5 0-1.6.3-2.8 1-3.6.8-.8 1.8-1.2 3.3-1.2 1.4 0 2.4.4 3.2 1.2.7.8 1 2 1 3.6 0 1.5-.3 2.7-1 3.5-.8.8-1.8 1.2-3.2 1.2Zm0-2a1 1 0 0 0 .9-.5c.2-.3.3-.9.3-1.6v-1.2a3 3 0 0 0-.3-1.6 1 1 0 0 0-1-.5 1 1 0 0 0-.9.5 3 3 0 0 0-.3 1.6v1.2c0 .7.1 1.3.3 1.6.2.3.5.5 1 .5ZM37 332.7c-.8 0-1.5-.1-2.2-.4-.6-.3-1.2-.7-1.7-1.3a6 6 0 0 1-1-2c-.3-.8-.4-1.7-.4-2.7 0-1 .1-2 .4-2.7.2-.8.6-1.5 1-2 .5-.6 1-1 1.7-1.3.7-.3 1.4-.4 2.2-.4.8 0 1.6.1 2.2.4.7.3 1.2.7 1.7 1.3.5.5.8 1.2 1 2a8.9 8.9 0 0 1 0 5.4 6 6 0 0 1-1 2c-.5.6-1 1-1.7 1.3-.6.3-1.4.4-2.2.4Zm0-1.2c1.2 0 2.2-.4 2.9-1.1.7-.8 1-1.9 1-3.3v-1.6c0-1.4-.3-2.5-1-3.3a3.6 3.6 0 0 0-2.9-1.1c-1.2 0-2.1.4-2.8 1.1-.7.8-1 1.9-1 3.3v1.6c0 1.4.3 2.5 1 3.3.7.7 1.6 1.1 2.8 1.1Zm9.3-10.1h-2v-1.2h2v-3.5c0-.6.2-1.1.5-1.5.3-.3.8-.5 1.5-.5h2.1v1.2h-2.7v4.3h2.7v1.2h-2.7v11h-1.4v-11Zm14.6 11c-.4 0-.8 0-1-.4-.3-.2-.5-.6-.5-1v-9.6h-2.1v-1.2h1.4l.7-.2.2-.8v-2.5h1.2v3.5h2.8v1.2h-2.8v9.8h2.6v1.2H61Zm6-17.7h1.3v7.4h.1c.3-.6.7-1.2 1.3-1.6.6-.4 1.3-.6 2.3-.6 1.4 0 2.4.4 3 1.2.8.8 1.2 2 1.2 3.4v8h-1.4v-7.7c0-1.3-.2-2.2-.8-2.8-.5-.6-1.3-1-2.3-1-.5 0-.9.1-1.3.3-.4 0-.7.2-1 .5-.4.2-.6.5-.8.8l-.3 1.2v8.6H67v-17.7Zm17.9 18a4.8 4.8 0 0 1-5-3.7c-.3-.8-.4-1.7-.4-2.7 0-1 .1-2 .4-2.7a4.7 4.7 0 0 1 2.8-3.3c.6-.3 1.3-.4 2.2-.4a5 5 0 0 1 4.8 3.6c.2.7.3 1.5.3 2.4v.7h-9v.6c0 .6 0 1.2.2 1.7.2.6.5 1 .8 1.4l1.3 1 1.7.2c1.8 0 3-.8 3.7-2.4l1 .6c-.4 1-1 1.7-1.8 2.2-.9.6-1.8.8-3 .8Zm0-11.7c-.6 0-1.2.1-1.6.4a3.6 3.6 0 0 0-2 2.2c-.3.6-.3 1.1-.3 1.8v.1h7.6v-.2c0-.6-.1-1.2-.3-1.7a3.7 3.7 0 0 0-2-2.3c-.4-.2-.9-.3-1.4-.3Zm12.9-.8H99l3 11 3.3-11h1.2l3.3 11 3-11h1.3l-3.4 12.2H109l-3.1-10.3-3.1 10.3h-1.7l-3.4-12.2Zm23.8 12.5a4.8 4.8 0 0 1-5-3.7c-.3-.8-.4-1.7-.4-2.7 0-1 .1-2 .4-2.7a4.7 4.7 0 0 1 2.8-3.3c.6-.3 1.3-.4 2.1-.4a5 5 0 0 1 4.8 3.6c.3.7.4 1.5.4 2.4v.7h-9v.6c0 .6 0 1.2.2 1.7.2.6.5 1 .8 1.4.3.4.8.7 1.3 1l1.6.2c1.8 0 3-.8 3.8-2.4l1 .6c-.4 1-1 1.7-1.9 2.2-.8.6-1.8.8-3 .8Zm0-11.7c-.6 0-1.2.1-1.7.4a3.6 3.6 0 0 0-2 2.2c-.2.6-.3 1.1-.3 1.8v.1h7.6v-.2c0-.6 0-1.2-.2-1.7a3.7 3.7 0 0 0-2-2.3c-.4-.2-1-.3-1.5-.3Zm8.6-6.3h1.4v7.4c.4-.7.8-1.2 1.4-1.6.7-.4 1.4-.6 2.4-.6 1.6 0 2.8.5 3.7 1.6a7.4 7.4 0 0 1 1.4 4.8c0 2-.5 3.6-1.4 4.8a4.5 4.5 0 0 1-3.7 1.6c-1 0-1.7-.2-2.3-.6-.6-.4-1.1-1-1.5-1.6v2h-1.4v-17.8Zm4.9 16.8c1.2 0 2.2-.4 2.9-1.2.6-.8 1-1.8 1-3.1v-1.8c0-1.3-.4-2.3-1-3.1a3.6 3.6 0 0 0-3-1.2 4.3 4.3 0 0 0-2.4.8l-.8.8-.2 1.1v4.9c0 .4 0 .8.2 1.2a3.1 3.1 0 0 0 2 1.4l1.3.2Zm14.6-11.3h1.3v2h.1c.3-.8.8-1.3 1.4-1.7.6-.4 1.4-.6 2.3-.6 1.6 0 2.9.5 3.8 1.6a7.4 7.4 0 0 1 1.3 4.8c0 2-.4 3.6-1.3 4.8a4.5 4.5 0 0 1-3.8 1.6c-.9 0-1.7-.2-2.3-.6-.6-.4-1-1-1.4-1.6v6.7h-1.4v-17Zm4.8 11.3c1.3 0 2.2-.4 3-1.2.6-.8 1-1.8 1-3.1v-1.8c0-1.3-.4-2.3-1-3.1a3.6 3.6 0 0 0-3-1.2 4.3 4.3 0 0 0-2.4.8c-.4.2-.6.5-.8.8-.2.4-.3.7-.3 1.1v4.9l.3 1.2a3.1 3.1 0 0 0 1.9 1.4l1.3.2Zm17.4 1c-.5 0-1-.2-1.2-.5-.2-.2-.3-.6-.4-1v-.5c-.4.7-.8 1.2-1.4 1.6-.7.4-1.4.6-2.4.6-1.3 0-2.3-.3-3-1-.7-.5-1-1.4-1-2.6 0-1 .3-2 1-2.6.9-.6 2.2-1 4-1h2.8v-1.4c0-2-1-3-3.2-3-.8 0-1.5.1-2 .5-.6.3-1 .8-1.3 1.5l-1-.8c.4-.7 1-1.3 1.6-1.7.7-.5 1.6-.7 2.8-.7 1.4 0 2.5.3 3.3 1a4 4 0 0 1 1.1 3v7.3h1.7v1.2h-1.4Zm-5.2-1 1.4-.1c.4-.2.8-.3 1.1-.6l.8-.8c.2-.3.3-.7.3-1.1v-2.3h-3c-1.2 0-2 .2-2.6.6-.6.4-.8 1-.8 1.6v.6c0 .7.2 1.2.7 1.6.6.4 1.2.6 2 .6Zm19.5 2.4a3 3 0 0 1-1.5 2.7c-1 .6-2.5 1-4.4 1-1.9 0-3.2-.3-4-.9a2.6 2.6 0 0 1-1.3-2.2c0-.7.2-1.3.5-1.7.4-.4 1-.7 1.6-1v-.1c-.8-.3-1.2-.9-1.2-1.7 0-.6.2-1 .6-1.4a4 4 0 0 1 1.5-.7v-.1c-.7-.3-1.3-.8-1.7-1.5-.4-.6-.6-1.4-.6-2.3 0-.6.1-1.1.4-1.7a3.8 3.8 0 0 1 2.3-2.1c.5-.2 1.1-.3 1.8-.3 1 0 1.8.2 2.5.6v-.6c0-.4 0-.7.2-1 .2-.2.5-.3.9-.3h2.1v1.2h-2.5v1.2c.4.4.8.8 1 1.3.2.6.3 1.1.3 1.7a4.2 4.2 0 0 1-1.2 3 4 4 0 0 1-1.4 1 5.5 5.5 0 0 1-2.5.2l-.6-.1a4 4 0 0 0-1.4.6c-.3.2-.5.6-.5 1 0 .7.7 1 2 1h2.9c1.4 0 2.5.4 3.2 1 .6.5 1 1.2 1 2.2Zm-1.3 0c0-.5-.3-1-.7-1.3-.4-.4-1.2-.5-2.2-.5h-4c-.6.1-1 .4-1.3.8a2 2 0 0 0-.4 1.3c0 .6.2 1.1.8 1.6.5.4 1.3.6 2.4.6h1.5c1.2 0 2.1-.2 2.8-.6.7-.4 1-1 1-1.8Zm-4.7-6.8c1 0 1.7-.2 2.2-.7.6-.4.9-1.1.9-2v-.7c0-.9-.3-1.5-.9-2-.5-.5-1.2-.7-2.2-.7-1 0-1.7.2-2.2.7-.5.5-.8 1.1-.8 2v.7c0 .9.3 1.6.8 2 .5.5 1.3.7 2.2.7Zm12.9 5.6a4.8 4.8 0 0 1-5-3.7c-.3-.8-.4-1.7-.4-2.7 0-1 .1-2 .3-2.7.3-.8.7-1.5 1.1-2 .5-.6 1-1 1.7-1.3.7-.3 1.4-.4 2.2-.4a5 5 0 0 1 4.8 3.6c.3.7.4 1.5.4 2.4v.7h-9v.6c0 .6 0 1.2.2 1.7.2.6.4 1 .8 1.4.3.4.8.7 1.2 1l1.7.2c1.8 0 3-.8 3.7-2.4l1 .6c-.3 1-1 1.7-1.8 2.2-.8.6-1.8.8-3 .8Zm0-11.7c-.7 0-1.2.1-1.7.4a3.6 3.6 0 0 0-2 2.2c-.2.6-.3 1.1-.3 1.8v.1h7.6v-.2c0-.6 0-1.2-.2-1.7a3.7 3.7 0 0 0-2-2.3c-.4-.2-1-.3-1.5-.3Zm12 11.7c-1 0-2-.2-2.7-.6-.7-.4-1.4-1-2-1.7l1-.8c.6.7 1.1 1.2 1.7 1.5.6.3 1.4.5 2.2.5 1 0 1.6-.2 2.2-.6.5-.4.7-1 .7-1.8a2 2 0 0 0-.6-1.5c-.4-.4-1-.6-1.9-.8l-1-.1-1.5-.4a4 4 0 0 1-1.2-.7 3 3 0 0 1-.8-1c-.2-.3-.3-.8-.3-1.4 0-.6.1-1 .3-1.5.3-.4.6-.8 1-1 .3-.4.7-.6 1.2-.7.6-.2 1.1-.2 1.7-.2 1 0 1.9.1 2.5.5.7.3 1.2.8 1.7 1.4l-1 .8c-.2-.4-.7-.7-1.2-1-.5-.4-1.2-.6-2-.6-1 0-1.6.2-2.1.6a2 2 0 0 0-.8 1.6c0 .8.3 1.3.7 1.6.4.3 1.1.6 2 .7l1 .1a5 5 0 0 1 2.7 1.2 3 3 0 0 1 1 2.3c0 1.1-.5 2-1.2 2.7-.8.6-1.9 1-3.2 1Zm15.8-.3c-.5 0-.9 0-1.1-.4-.3-.2-.4-.6-.4-1v-9.6h-2.1v-1.2h1.4l.6-.2c.2-.2.2-.4.2-.8v-2.5h1.3v3.5h2.8v1.2h-2.8v9.8h2.6v1.2h-2.5Zm10.2.3a4.8 4.8 0 0 1-5-3.7c-.2-.8-.3-1.7-.3-2.7 0-1 0-2 .3-2.7.3-.8.6-1.5 1.1-2 .5-.6 1-1 1.7-1.3.7-.3 1.4-.4 2.2-.4a5 5 0 0 1 4.8 3.6c.3.7.4 1.5.4 2.4v.7h-9.1v.6c0 .6 0 1.2.3 1.7.2.6.4 1 .8 1.4.3.4.7.7 1.2 1l1.7.2c1.8 0 3-.8 3.7-2.4l1 .6c-.3 1-1 1.7-1.8 2.2-.8.6-1.8.8-3 .8Zm0-11.7c-.6 0-1.1.1-1.6.4a3.6 3.6 0 0 0-2 2.2c-.2.6-.3 1.1-.3 1.8v.1h7.6v-.2c0-.6 0-1.2-.3-1.7a3.7 3.7 0 0 0-1.9-2.3c-.4-.2-1-.3-1.5-.3Zm12.2 11.7c-1.1 0-2-.2-2.8-.6-.8-.4-1.4-1-2-1.7l1-.8c.6.7 1.1 1.2 1.7 1.5.6.3 1.3.5 2.2.5.9 0 1.6-.2 2.1-.6.6-.4.8-1 .8-1.8a2 2 0 0 0-.6-1.5c-.4-.4-1-.6-2-.8l-1-.1-1.5-.4a4 4 0 0 1-1.2-.7 3 3 0 0 1-.7-1c-.2-.3-.3-.8-.3-1.4 0-.6.1-1 .3-1.5.2-.4.5-.8 1-1 .3-.4.7-.6 1.2-.7.5-.2 1-.2 1.7-.2 1 0 1.9.1 2.5.5.7.3 1.2.8 1.7 1.4l-1 .8c-.2-.4-.7-.7-1.2-1-.5-.4-1.2-.6-2-.6-1 0-1.7.2-2.1.6a2 2 0 0 0-.8 1.6c0 .8.2 1.3.7 1.6.4.3 1 .6 2 .7l1 .1a5 5 0 0 1 2.7 1.2 3 3 0 0 1 1 2.3c0 1.1-.5 2-1.2 2.7-.8.6-1.9 1-3.2 1Zm10-.3c-.6 0-1 0-1.2-.4-.2-.2-.4-.6-.4-1v-9.6h-2.1v-1.2h1.4l.7-.2.1-.8v-2.5h1.3v3.5h2.8v1.2H253v9.8h2.6v1.2h-2.5Zm10.2.3a4.8 4.8 0 0 1-5-3.7c-.3-.8-.4-1.7-.4-2.7 0-1 .1-2 .3-2.7.3-.8.7-1.5 1.1-2 .5-.6 1-1 1.7-1.3.7-.3 1.4-.4 2.2-.4a5 5 0 0 1 4.8 3.6c.3.7.4 1.5.4 2.4v.7h-9v.6c0 .6 0 1.2.2 1.7.2.6.4 1 .8 1.4.3.4.8.7 1.3 1l1.6.2c1.8 0 3-.8 3.8-2.4l1 .6c-.4 1-1 1.7-1.9 2.2-.8.6-1.8.8-3 .8Zm0-11.7c-.7 0-1.2.1-1.7.4a3.6 3.6 0 0 0-2 2.2c-.2.6-.3 1.1-.3 1.8v.1h7.6v-.2c0-.6 0-1.2-.2-1.7a3.7 3.7 0 0 0-2-2.3c-.4-.2-1-.3-1.5-.3Zm16.5 9.5a4 4 0 0 1-1.4 1.6c-.7.4-1.4.6-2.4.6-1.6 0-2.8-.5-3.7-1.6a7.4 7.4 0 0 1-1.3-4.8c0-2 .4-3.6 1.3-4.8a4.5 4.5 0 0 1 3.7-1.6c1 0 1.8.2 2.4.6.6.4 1 1 1.4 1.6v-7.4h1.4v17.7H280v-2Zm-3.5 1c.5 0 1 0 1.4-.2l1.1-.5.8-1 .2-1.1v-4.9c0-.4 0-.7-.2-1l-.8-1-1.1-.5a4 4 0 0 0-1.4-.2c-1.2 0-2.2.4-2.8 1.2-.7.8-1 1.8-1 3.1v1.8c0 1.3.3 2.3 1 3.1.6.8 1.6 1.2 2.8 1.2ZM44.5 184.2c0 2.7-.6 4.8-1.7 6.4a5.6 5.6 0 0 1-4.8 2.3c-2 0-3.6-.8-4.7-2.4l-1-1.7c-.3-.7-.5-1.4-.6-2.2a16.4 16.4 0 0 1 .3-6.3c.3-1.1.7-2 1.3-2.8A5.6 5.6 0 0 1 38 175c2 0 3.7.8 4.8 2.4 1.1 1.6 1.7 3.8 1.7 6.7ZM36 184c0 1.9.1 3.3.5 4 .3 1 .9 1.4 1.6 1.4.8 0 1.3-.4 1.7-1.3.3-.8.5-2.2.5-4.1 0-1.9-.2-3.3-.5-4-.4-1-1-1.4-1.7-1.4s-1.3.4-1.6 1.3c-.4.8-.5 2.2-.5 4Zm11 6.5c0-.7.2-1.2.7-1.7.4-.4 1-.6 1.7-.6a2.3 2.3 0 0 1 2.3 2.3c0 .7-.2 1.3-.6 1.7-.5.5-1 .7-1.7.7a2.3 2.3 0 0 1-2.4-2.4Zm8.4 2 6.5-13.2h-7.3v-3.9h13.1v.9l-7.5 16.1h-4.8Zm14.4 0v-18.2h4.2v18.1h-4.2Zm11-6c0 1 .3 1.7.8 2.2.5.6 1.1.8 2 .8.8 0 1.5-.3 2-.8s.7-1.2.7-2.2c0-.9-.2-1.6-.7-2.1-.5-.6-1.2-.8-2-.8-.9 0-1.5.2-2 .8a3 3 0 0 0-.7 2.1Zm-3.6-12.2h4v6.2a21.8 21.8 0 0 1-.2 2c.5-.8 1.1-1.4 1.7-1.7.7-.4 1.5-.6 2.5-.6 1.6 0 2.8.6 3.8 1.8 1 1.1 1.5 2.6 1.5 4.5 0 2-.5 3.5-1.5 4.7a5 5 0 0 1-4 1.7c-.8 0-1.5-.2-2.2-.6-.6-.4-1.2-1-1.8-1.8v2h-3.8v-18.2Zm14.7 17.2.9-3.2a6.4 6.4 0 0 0 4.2 1.6c.5 0 1 0 1.2-.2.3-.2.4-.4.4-.8 0-.5-.6-.9-1.7-1.1l-.8-.3a6.3 6.3 0 0 1-2.7-1.3c-.6-.6-.9-1.3-.9-2.2 0-1.1.4-2 1.3-2.7.8-.7 2-1 3.5-1a11.3 11.3 0 0 1 4.7 1l-.8 2.9-1.7-.9a5 5 0 0 0-1.7-.3c-.5 0-.9.1-1.1.3-.3 0-.4.3-.4.6 0 .4.6.8 1.7 1l.5.2c1.5.4 2.5.9 3 1.5.6.5.9 1.3.9 2.2 0 1.3-.5 2.2-1.4 3-1 .7-2.2 1.1-3.7 1.1-1 0-2-.1-2.9-.4-.9-.2-1.7-.6-2.5-1Zm25.4 0c1.1 0 2.1-.4 2.9-1.2.8-.8 1.2-1.8 1.2-3s-.4-2.2-1.2-3a3.9 3.9 0 0 0-2.9-1.3c-1.1 0-2.1.4-2.9 1.2-.8.9-1.2 1.9-1.2 3 0 1.3.4 2.3 1.2 3.1.8.8 1.8 1.3 3 1.3Zm0 1.4c-.8 0-1.5-.2-2.2-.4a6 6 0 0 1-3-3 5.6 5.6 0 1 1 10.4 0c-.2.6-.7 1.2-1.2 1.7a5.7 5.7 0 0 1-4 1.7Zm9-.5v-9.1h-2V182h2v-3c0-2 .2-3.4.6-4 .4-.6 1-1 2.1-1a3.8 3.8 0 0 1 1.4.3l-.3 1.3-.5-.2-.5-.1c-.5 0-.9.2-1 .6-.3.4-.4 1.1-.4 2.2v4h2.3v1.2h-2.3v9.1h-1.4Zm26.8-14a9.2 9.2 0 0 0-2.7-1.6c-.8-.4-1.8-.5-2.8-.5-2.2 0-4 .7-5.4 2a7.5 7.5 0 0 0-2 5.6c0 1.1.1 2.1.5 3a6.9 6.9 0 0 0 3.9 4c.9.4 1.8.6 2.8.6 1 0 2-.2 3-.5l2.6-1.5v1.8a11 11 0 0 1-5.5 1.6c-1.2 0-2.4-.2-3.6-.7a8.5 8.5 0 0 1-5.4-8.3c0-1.3.2-2.5.6-3.6a8.2 8.2 0 0 1 4.8-4.7 9.7 9.7 0 0 1 9.2 1.1v1.7Zm11.7 13.1a7.5 7.5 0 0 0 7.5-7.6 7.6 7.6 0 0 0-4.6-7 7.5 7.5 0 0 0-8.2 1.6 7.8 7.8 0 0 0-2.2 5.4 7.7 7.7 0 0 0 2.2 5.4c.7.7 1.5 1.3 2.4 1.7.9.3 1.9.5 2.9.5Zm9.2-7.6a8.8 8.8 0 0 1-2.7 6.4 9.3 9.3 0 0 1-15-3 8.9 8.9 0 0 1 0-6.9 9 9 0 0 1 8.5-5.5 9.4 9.4 0 0 1 6.5 2.6 9 9 0 0 1 2.7 6.4Zm13.2 7.2v1.3h-11l3.6-4 1.2-1.2c3-3.4 4.5-5.8 4.5-7.2 0-1-.3-1.9-1-2.5-.7-.7-1.6-1-2.7-1-1.2 0-2.1.4-2.8 1-.6.8-1 1.8-1 3h-1.5v-.1c0-1.6.5-3 1.5-3.9 1-1 2.3-1.4 4-1.4 1.5 0 2.8.4 3.8 1.3s1.4 2 1.4 3.5c0 1.8-1.3 4.2-4 7l-.1.2-3.8 4h7.9ZM40.9 216.3a5 5 0 0 0-1-3.2 3 3 0 0 0-2.5-1.1c-1.1 0-2 .4-2.6 1.1-.6.8-1 1.8-1 3 0 1.4.4 2.5 1 3.3.8.8 1.6 1.2 2.8 1.2a3 3 0 0 0 2.4-1.2 5 5 0 0 0 .9-3Zm-8.5 10.4V211h1.4v2c.4-.8 1-1.3 1.6-1.7a4 4 0 0 1 2.2-.6c1.4 0 2.6.5 3.5 1.5a6 6 0 0 1 1.3 4 6 6 0 0 1-1.3 4.2c-.9 1-2 1.5-3.5 1.5-.8 0-1.5-.2-2.2-.6-.6-.4-1.2-1-1.6-1.8v7.2h-1.4ZM52.6 215c0-1-.3-1.7-.9-2.3-.6-.5-1.3-.7-2.3-.7-.9 0-1.6.2-2.2.8-.6.5-1 1.2-1 2.2h6.4Zm1.8 1.2H46a5 5 0 0 0 1 3.1c.6.8 1.5 1.2 2.5 1.2.8 0 1.5-.2 2-.6.6-.4 1.1-1 1.5-1.9l1.3.7c-.5 1-1.2 1.9-2 2.4-.7.5-1.6.7-2.8.7-1.5 0-2.7-.5-3.7-1.5-.9-1-1.4-2.4-1.4-4 0-1.7.5-3.1 1.4-4.2 1-1 2.2-1.5 3.7-1.5 1.4 0 2.6.4 3.5 1.4.8 1 1.3 2.3 1.3 3.9v.3Zm4.4-3.2c.5-.9 1-1.5 1.6-1.9a3.2 3.2 0 0 1 2.4-.5l.6.2-.5 1.3a4.7 4.7 0 0 0-1-.1c-.8 0-1.6.4-2.2 1.2a5 5 0 0 0-.9 3v5.1h-1.4V211h1.4v2.1Zm17.5 8.3v-15.6h-3l.7-1.4h3.8v17h-1.5Zm10.2-8.4c0 2.4.4 4.2 1.1 5.5.8 1.3 1.8 2 3 2 1.4 0 2.5-.6 3.2-2 .7-1.2 1-3 1-5.5 0-2.4-.3-4.3-1-5.6-.8-1.3-1.8-1.9-3.2-1.9-1.2 0-2.3.7-3 2-.7 1.3-1 3.2-1 5.5Zm4.1 8.9c-1.7 0-3.1-.8-4.1-2.4a12 12 0 0 1-1.6-6.5c0-2.8.6-5 1.6-6.5 1-1.6 2.4-2.4 4.2-2.4 1.8 0 3.2.8 4.2 2.4a12 12 0 0 1 1.5 6.5c0 2.8-.5 5-1.5 6.6a4.8 4.8 0 0 1-4.3 2.3Zm9.1-.5v-17.1h1.6v8l7.7-8h2l-8 8.2 8.5 9h-2.3l-8-8.8v8.7h-1.5Zm19-10.4h1.5l3.2 8 3.2-8h1.6l-4.8 11.1-4.8-11Zm11.5-4c0-.3 0-.6.3-.8.2-.2.5-.3.8-.3.3 0 .5.1.8.3.2.2.3.5.3.8 0 .3-.1.6-.3.8a1 1 0 0 1-.8.3c-.3 0-.6-.1-.8-.3a1 1 0 0 1-.3-.8Zm.3 14.4V211h1.5v10.4h-1.5Zm12.7-6.3c0-1-.4-1.7-1-2.3-.5-.5-1.3-.7-2.2-.7-1 0-1.7.2-2.3.8-.5.5-.9 1.2-1 2.2h6.5Zm1.7 1.2h-8.3a5 5 0 0 0 1 3.1c.7.8 1.5 1.2 2.6 1.2.8 0 1.4-.2 2-.6.6-.4 1-1 1.4-1.9l1.4.7c-.6 1-1.2 1.9-2 2.4s-1.7.7-2.8.7c-1.5 0-2.8-.5-3.7-1.5-1-1-1.4-2.4-1.4-4 0-1.7.4-3.1 1.4-4.2 1-1 2.1-1.5 3.6-1.5s2.6.4 3.5 1.4c.9 1 1.3 2.3 1.3 3.9v.3Zm5.5 5.8-4.1-11h1.5l2.7 7.4 3.3-8 3.2 8 2.7-7.5h1.5l-4.1 11.1-3.3-8.3-3.4 8.3Zm11.9-2.5 1.3-.8c.3.6.6 1 1 1.3.5.3 1 .5 1.6.5.6 0 1.1-.2 1.5-.5.3-.3.5-.7.5-1.2 0-.8-.7-1.5-2.1-2l-.4-.2c-1-.4-1.8-.9-2.3-1.3-.4-.5-.6-1-.6-1.7 0-1 .3-1.6 1-2.2.5-.6 1.4-.9 2.3-.9a4 4 0 0 1 2.2.6c.6.4 1 .9 1.3 1.6l-1.3.7c-.2-.5-.5-.9-.8-1.1-.4-.3-.9-.4-1.4-.4-.5 0-1 .1-1.3.4-.3.3-.5.7-.5 1.1 0 .4.2.8.5 1 .3.4 1 .7 2 1 1.1.4 2 .8 2.3 1.3.4.5.6 1.1.6 2 0 1-.3 1.7-1 2.2-.7.6-1.6.9-2.8.9-.8 0-1.6-.2-2.3-.6-.6-.4-1-1-1.3-1.7ZM35 233.4v10h-.5v-10h-3.7v-.5h8v.5H35Zm5.6-1.2h.5v4.7l.8-1c.4-.2 1-.3 1.6-.3.9 0 1.5.2 2 .7.4.5.6 1.2.6 2.2v5h-.5v-4.9c0-.9-.2-1.5-.6-2-.4-.4-.9-.6-1.6-.6-.3 0-.6 0-.9.2l-.7.3-.5.6-.2.9v5.4h-.5v-11.2Zm11 11.4a3 3 0 0 1-2.3-1c-.6-.7-1-1.7-1-3s.4-2.3 1-3a3 3 0 0 1 2.3-1 3 3 0 0 1 3 2.2l.2 1.6v.2h-5.9v.4l.2 1.3.5 1c.3.3.6.5 1 .6.3.2.6.3 1 .3 1.3 0 2.1-.6 2.6-1.8l.4.2c-.2.6-.6 1.1-1 1.5a3 3 0 0 1-2 .5Zm0-7.6c-.4 0-.8.1-1.1.3l-.9.6-.5 1-.2 1.2v.1h5.3c0-.6 0-1-.2-1.3a2.6 2.6 0 0 0-1.3-1.6l-1-.3Zm11.2 7.6c-.6 0-1.2 0-1.7-.3l-1.2-1.1.4-.3c.4.4.7.8 1.1 1 .4.2.9.3 1.4.3.7 0 1.2-.2 1.6-.5.3-.3.5-.7.5-1.2s-.1-.9-.4-1.1c-.3-.3-.8-.5-1.4-.6h-.7l-.9-.3-.7-.4-.5-.6-.1-.9c0-.3 0-.6.2-.9l.5-.6.8-.4 1-.1c.7 0 1.2 0 1.6.3l1 .8-.4.4a3.4 3.4 0 0 0-.8-.7 3 3 0 0 0-1.4-.3c-.6 0-1.1 0-1.5.3-.3.3-.5.7-.5 1.2s.2.9.5 1.1c.3.3.7.4 1.3.5l.7.1c.7.1 1.3.4 1.6.7.4.3.6.8.6 1.5a2 2 0 0 1-.7 1.6 3 3 0 0 1-1.9.5Zm10-.2c-.4 0-.6-.2-.6-.6v-.6c-.3.4-.5.8-1 1-.3.3-.9.4-1.5.4-.8 0-1.4-.2-1.9-.6a2 2 0 0 1-.6-1.6l.1-.9.5-.7 1-.4 1.4-.2h2v-1c0-.8-.2-1.3-.6-1.6-.3-.4-.8-.6-1.5-.6-1.1 0-1.9.5-2.3 1.4l-.4-.3c.3-.4.6-.8 1-1 .4-.4 1-.5 1.7-.5.8 0 1.5.2 2 .6.4.5.6 1 .6 2v4.8h1.2v.4h-1Zm-3-.2c.2 0 .6 0 .9-.2.3 0 .5-.2.7-.3l.6-.7.2-.8v-1.6h-2c-.9 0-1.5.2-1.9.5-.4.2-.6.6-.6 1.1v.4c0 .5.2 1 .6 1.2.3.2.8.4 1.4.4Zm6 .2v-7.7h.5v1.2c0-.2.2-.3.3-.5l.5-.4.6-.3.9-.1c.6 0 1 .1 1.5.4.4.3.7.7.9 1.2.2-.5.4-.8.8-1.2.5-.3 1-.4 1.7-.4.9 0 1.5.2 2 .7.4.5.6 1.2.6 2.2v5h-.5v-5c0-.8-.2-1.4-.6-1.8-.3-.5-.9-.7-1.6-.7a3 3 0 0 0-.8.2c-.3 0-.5.2-.7.3l-.5.6-.2.9v5.4h-.5v-4.8c0-.9-.2-1.5-.6-2-.4-.4-1-.6-1.6-.6a3 3 0 0 0-.9.2l-.7.3a1.8 1.8 0 0 0-.6 1.5v5.4h-.6Zm15.9.2a3 3 0 0 1-2.4-1c-.6-.7-1-1.7-1-3s.4-2.3 1-3a3 3 0 0 1 2.3-1 3 3 0 0 1 3 2.2l.2 1.6v.2h-5.9v.4c0 .5 0 1 .2 1.3l.5 1c.3.3.6.5 1 .6.3.2.6.3 1 .3 1.3 0 2.1-.6 2.6-1.8l.4.2c-.2.6-.6 1.1-1 1.5a3 3 0 0 1-2 .5Zm0-7.6c-.5 0-.9.1-1.2.3l-.9.6-.5 1-.2 1.2v.1h5.3c0-.6 0-1-.2-1.3l-.5-1c-.2-.3-.5-.5-.8-.6l-1-.3Zm8-.3h.6l2 7.2 2.2-7.2h.6l2.1 7.2 2.1-7.2h.5l-2.2 7.7h-.7l-2-6.9h-.1l-2.1 7h-.7l-2.3-7.8Zm14.8 8a3 3 0 0 1-2.4-1.1c-.6-.7-.9-1.7-.9-3s.3-2.3.9-3a3 3 0 0 1 2.3-1 3 3 0 0 1 3 2.2l.2 1.6v.2h-5.8v.4l.1 1.3c.2.4.3.7.6 1 .2.3.5.5.8.6l1.2.3c1.2 0 2-.6 2.5-1.8l.4.2c-.2.6-.6 1.1-1 1.5a3 3 0 0 1-1.9.5Zm0-7.7c-.5 0-.9.1-1.2.3-.3.1-.6.3-.8.6-.3.3-.4.6-.6 1l-.1 1.2v.1h5.2c0-.6 0-1-.2-1.3a2.6 2.6 0 0 0-1.3-1.6c-.3-.2-.7-.3-1-.3Zm5.8-2.6-.4-.1v-.7l.3-.2c.2 0 .3 0 .4.2l.1.2v.2l-.1.3h-.3Zm-.3 2.3h.5v7.7h-.5v-7.7Zm9.7 8.7c0 .8-.3 1.3-1 1.7-.6.4-1.5.6-2.7.6-1.1 0-2-.2-2.5-.6-.5-.3-.7-.8-.7-1.4 0-.5 0-.8.3-1.1l1.1-.7c-.5-.2-.8-.5-.8-1 0-.4.2-.7.4-1l1-.4c-.5-.2-.9-.5-1.1-.9-.3-.4-.4-.9-.4-1.4 0-.4 0-.8.2-1.1a2.3 2.3 0 0 1 1.4-1.3c.3-.2.7-.2 1.1-.2.7 0 1.2.1 1.7.4v-.6c0-.4.1-.5.5-.5h1.5v.4H128v1c.3.2.4.5.5.8.2.3.2.7.2 1 0 .4 0 .8-.2 1.1a2.4 2.4 0 0 1-1.4 1.4 3.2 3.2 0 0 1-1.9 0l-1 .5c-.2.2-.3.4-.3.7 0 .2.1.4.3.5.2.2.5.2 1 .2h2c.9 0 1.5.2 1.9.5.4.4.6.8.6 1.4Zm-.5 0c0-.4-.2-.7-.5-1-.3-.2-.8-.4-1.6-.4h-2.4c-.4.2-.8.3-1 .6-.3.3-.4.6-.4 1 0 .5.2.9.6 1.1.4.3 1 .5 1.7.5h.8l1.1-.1c.4 0 .7-.2 1-.3l.5-.6.2-.8Zm-3.2-4.1c.7 0 1.2-.2 1.6-.5.4-.4.6-.8.6-1.4v-.5c0-.6-.2-1-.6-1.3-.4-.4-.9-.6-1.6-.6-.6 0-1.2.2-1.5.6-.4.3-.6.7-.6 1.3v.5c0 .6.2 1 .6 1.4.3.3.9.5 1.5.5Zm5.6-8h.5v4.6c.2-.3.4-.7.8-1 .4-.2 1-.3 1.6-.3.8 0 1.5.2 2 .7.4.5.6 1.2.6 2.2v5h-.5v-4.9c0-.9-.2-1.5-.6-2-.4-.4-1-.6-1.6-.6-.3 0-.6 0-.9.2-.3 0-.5.2-.7.3l-.5.6c-.2.3-.2.6-.2.9v5.4h-.5v-11.2Zm9.4 11.1c-.4 0-.7-.2-.7-.6v-6.6H139v-.4h1c.2 0 .3 0 .4-.2v-2h.6v2.2h1.8v.4h-1.8v6.8h1.7v.4H141Zm12.4 0c-.4 0-.6-.2-.6-.6v-.6c-.2.4-.5.8-1 1-.3.3-.8.4-1.5.4-.8 0-1.4-.2-1.9-.6a2 2 0 0 1-.6-1.6l.1-.9.5-.7 1-.4 1.4-.2h2v-1c0-.8-.2-1.3-.5-1.6-.4-.4-1-.6-1.6-.6-1.1 0-1.8.5-2.3 1.4l-.3-.3c.2-.4.5-.8.9-1 .4-.4 1-.5 1.7-.5.9 0 1.5.2 2 .6.4.5.6 1 .6 2v4.8h1.2v.4h-1Zm-3-.2c.3 0 .6 0 .9-.2.3 0 .5-.2.8-.3l.5-.7.2-.8v-1.6h-2c-.9 0-1.5.2-1.9.5-.4.2-.6.6-.6 1.1v.4c0 .5.2 1 .6 1.2.4.2.8.4 1.4.4Zm8 .4c-.6 0-1.2 0-1.6-.3-.5-.3-1-.6-1.3-1.1l.4-.3c.4.4.7.8 1.1 1 .4.2.9.3 1.4.3.7 0 1.2-.2 1.6-.5.4-.3.5-.7.5-1.2s-.1-.9-.4-1.1c-.3-.3-.8-.5-1.4-.6h-.6l-1-.3-.7-.4-.4-.6-.2-.9c0-.3 0-.6.2-.9l.5-.6.8-.4 1-.1c.7 0 1.2 0 1.6.3l1 .8-.4.4a3.4 3.4 0 0 0-.8-.7 3 3 0 0 0-1.4-.3c-.6 0-1 0-1.5.3-.3.3-.5.7-.5 1.2s.2.9.5 1.1c.3.3.7.4 1.3.5l.7.1c.7.1 1.3.4 1.7.7.3.3.5.8.5 1.5a2 2 0 0 1-.7 1.6 3 3 0 0 1-1.9.5Zm11.6 0a3 3 0 0 1-2.6-1.3c-.6-.9-.9-2.3-.9-4.1 0-2 .3-3.3 1-4.2a3 3 0 0 1 2.5-1.3 3 3 0 0 1 2.6 1.3c.6.9 1 2.3 1 4.2 0 1.8-.4 3.2-1 4.1a3 3 0 0 1-2.6 1.3Zm0-.5c1 0 1.7-.3 2.2-1.1a6 6 0 0 0 .7-3.3v-1.1a6 6 0 0 0-.7-3.3 2.4 2.4 0 0 0-2.2-1.1c-1 0-1.7.4-2.1 1.1a6 6 0 0 0-.8 3.3v1.1a6 6 0 0 0 .8 3.3c.4.8 1.2 1.1 2.1 1.1Zm6.5.4h-.4l-.2-.5c0-.2 0-.4.2-.5h.7l.2.4v.1c0 .2 0 .3-.2.4l-.3.1Zm6.4.1a3 3 0 0 1-2.6-1.3c-.6-.9-1-2.3-1-4.1 0-2 .4-3.3 1-4.2a3 3 0 0 1 2.6-1.3 3 3 0 0 1 2.6 1.3c.6.9.9 2.3.9 4.2 0 1.8-.3 3.2-1 4.1a3 3 0 0 1-2.5 1.3Zm0-.5c1 0 1.7-.3 2.2-1.1a6 6 0 0 0 .7-3.3v-1.1a6 6 0 0 0-.7-3.3 2.4 2.4 0 0 0-2.2-1.1c-1 0-1.7.4-2.2 1.1a6 6 0 0 0-.7 3.3v1.1a6 6 0 0 0 .7 3.3c.5.8 1.2 1.1 2.2 1.1Zm9 .5a3 3 0 0 1-2.6-1.3c-.6-.9-.9-2.3-.9-4.1 0-2 .3-3.3 1-4.2a3 3 0 0 1 2.6-1.3 3 3 0 0 1 2.6 1.3c.6.9.9 2.3.9 4.2 0 1.8-.3 3.2-1 4.1a3 3 0 0 1-2.5 1.3Zm0-.5c1 0 1.7-.3 2.2-1.1a6 6 0 0 0 .8-3.3v-1.1a6 6 0 0 0-.8-3.3 2.4 2.4 0 0 0-2.1-1.1c-1 0-1.7.4-2.2 1.1a6 6 0 0 0-.8 3.3v1.1a6 6 0 0 0 .8 3.3c.5.8 1.2 1.1 2.2 1.1Zm11.8.5c-.7 0-1.2 0-1.7-.3s-.9-.6-1.2-1.1l.4-.3 1 1 1.5.3c.7 0 1.2-.2 1.5-.5.4-.3.6-.7.6-1.2s-.2-.9-.5-1.1c-.3-.3-.7-.5-1.4-.6h-.6l-1-.3-.7-.4-.4-.6-.2-.9.2-.9.5-.6.8-.4 1-.1c.7 0 1.2 0 1.6.3.4.2.8.5 1 .8l-.4.4a3.4 3.4 0 0 0-.8-.7 3 3 0 0 0-1.4-.3c-.6 0-1 0-1.4.3-.4.3-.5.7-.5 1.2s.1.9.4 1.1c.3.3.8.4 1.4.5l.6.1c.8.1 1.3.4 1.7.7.4.3.6.8.6 1.5a2 2 0 0 1-.7 1.6 3 3 0 0 1-2 .5Zm9.9-1.3a2.3 2.3 0 0 1-.9 1l-.6.2a3 3 0 0 1-1 .1c-.8 0-1.4-.2-1.9-.7-.4-.5-.7-1.3-.7-2.2v-5h.6v4.9c0 .9.1 1.5.5 2 .4.4 1 .6 1.7.6a3 3 0 0 0 1.6-.5l.5-.6.2-.9v-5.4h.5v7.6h-.5v-1.1Zm3.5 1.1v-7.7h.6v1.2c0-.2.2-.3.3-.5l.5-.4.6-.3.9-.1c.6 0 1 .1 1.5.4.4.3.7.7.9 1.2.2-.5.4-.8.8-1.2.5-.3 1-.4 1.7-.4.9 0 1.5.2 2 .7.4.5.6 1.2.6 2.2v5h-.5v-5c0-.8-.2-1.4-.6-1.8-.3-.5-.9-.7-1.6-.7a3 3 0 0 0-.9.2 2 2 0 0 0-.6.3l-.5.6c-.2.3-.2.6-.2.9v5.4h-.5v-4.8c0-.9-.2-1.5-.6-2-.4-.4-1-.6-1.6-.6a3 3 0 0 0-.9.2l-.7.3a1.8 1.8 0 0 0-.6 1.5v5.4h-.6Zm16 .2a3 3 0 0 1-2.5-1c-.5-.7-.8-1.7-.8-3s.3-2.3.8-3a3 3 0 0 1 2.4-1c1 0 1.8.3 2.4 1 .6.7.9 1.7.9 3s-.3 2.3-.9 3a3 3 0 0 1-2.4 1Zm0-.4c.8 0 1.4-.3 1.9-.9.5-.5.7-1.3.7-2.3v-.8c0-1-.2-1.8-.7-2.3-.5-.6-1.1-.9-2-.9-.8 0-1.5.3-2 .9-.4.5-.7 1.3-.7 2.3v.8c0 1 .3 1.8.7 2.3.5.6 1.2.9 2 .9Zm8.1-7.4h.6l2 7.1 2.2-7.2h.5l2.2 7.2 2.1-7.2h.5l-2.2 7.7h-.7l-2.1-6.9-2.1 7h-.7l-2.3-7.8Zm12.2 7.6v-7.7h.5v1.4l.8-1c.4-.2 1-.3 1.6-.3h.6v.4h-.7c-.3 0-.6 0-.9.2-.3 0-.5.2-.7.3l-.5.6-.2.9v5.2h-.5Zm7.8.2a3 3 0 0 1-2.4-1c-.6-.7-.9-1.7-.9-3s.3-2.3 1-3a3 3 0 0 1 2.3-1 3 3 0 0 1 3 2.2l.2 1.6v.2h-5.9v.4c0 .5 0 1 .2 1.3l.5 1c.3.3.5.5.9.6.3.2.7.3 1.1.3 1.3 0 2.1-.6 2.6-1.8l.4.2c-.2.6-.6 1.1-1.1 1.5a3 3 0 0 1-1.9.5Zm0-7.6c-.4 0-.8.1-1.1.3-.4.1-.7.3-.9.6l-.5 1-.2 1.2v.1h5.3c0-.6 0-1-.2-1.3-.1-.4-.3-.8-.6-1-.2-.3-.4-.5-.8-.6-.3-.2-.6-.3-1-.3Zm7.6 7.6c-.6 0-1.2 0-1.7-.3l-1.2-1.1.4-.3c.4.4.7.8 1.1 1 .4.2.9.3 1.4.3.7 0 1.2-.2 1.6-.5.3-.3.5-.7.5-1.2s-.1-.9-.4-1.1c-.3-.3-.8-.5-1.4-.6h-.7l-.9-.3-.7-.4-.5-.6-.1-.9c0-.3 0-.6.2-.9l.5-.6.8-.4 1-.1c.6 0 1.2 0 1.6.3l1 .8-.4.4a3.3 3.3 0 0 0-.8-.7 3 3 0 0 0-1.4-.3c-.6 0-1.1 0-1.5.3-.3.3-.5.7-.5 1.2s.2.9.5 1.1c.3.3.7.4 1.3.5l.7.1c.7.1 1.3.4 1.6.7.4.3.6.8.6 1.5a2 2 0 0 1-.7 1.6 3 3 0 0 1-1.9.5Zm6-.2c-.5 0-.7-.2-.7-.6v-6.6h-1.4v-.4h1c.2 0 .3 0 .4-.2v-2h.5v2.2h1.8v.4h-1.8v6.8h1.7v.4h-1.5Zm4.5 0c-.4 0-.7-.2-.7-.6v-10.6h.6V243h1.2v.4h-1.1Zm5.8.2a3 3 0 0 1-2.4-1c-.6-.7-.9-1.7-.9-3s.3-2.3.9-3a3 3 0 0 1 2.4-1 3 3 0 0 1 3 2.2l.1 1.6v.2h-5.8v.4c0 .5 0 1 .2 1.3l.5 1c.3.3.5.5.9.6.3.2.7.3 1.1.3 1.3 0 2.1-.6 2.6-1.8l.4.2c-.3.6-.6 1.1-1.1 1.5a3 3 0 0 1-1.9.5Zm0-7.6-1.2.3c-.3.1-.6.3-.8.6l-.5 1-.2 1.2v.1h5.3c0-.6 0-1-.2-1.3-.1-.4-.3-.8-.6-1-.2-.3-.5-.5-.8-.6-.3-.2-.6-.3-1-.3Zm5.5 7.4v-7.7h.6v1.4c.2-.4.4-.7.8-1 .4-.2.9-.3 1.6-.3h.6v.4h-.7c-.3 0-.6 0-1 .2l-.6.3-.6.6-.1.9v5.2h-.6Zm7.3.2c-.6 0-1.1 0-1.6-.3s-.9-.6-1.2-1.1l.4-.3 1 1c.4.2 1 .3 1.5.3.6 0 1.2-.2 1.5-.5.4-.3.6-.7.6-1.2s-.2-.9-.5-1.1c-.3-.3-.7-.5-1.4-.6h-.6l-1-.3-.7-.4-.4-.6-.2-.9c0-.3 0-.6.2-.9l.5-.6.8-.4 1-.1c.7 0 1.2 0 1.6.3.4.2.8.5 1 .8l-.4.4a3.4 3.4 0 0 0-.8-.7 3 3 0 0 0-1.4-.3c-.6 0-1 0-1.4.3-.4.3-.6.7-.6 1.2s.2.9.5 1.1c.3.3.8.4 1.4.5l.6.1c.7.1 1.3.4 1.7.7.4.3.6.8.6 1.5a2 2 0 0 1-.7 1.6 3 3 0 0 1-2 .5Zm5.3 0-.3-.2-.2-.4c0-.2 0-.4.2-.5h.7l.2.4v.1c0 .2 0 .3-.2.4l-.4.1ZM36.3 384.4v-13h-3.7l2-4h6v17h-4.3Zm10.8 0v-18.1h4v11.5l4.4-5.2h5.2l-5.4 5.7 5.8 6.1h-5.5l-4.4-5.2v5.2H47Zm27.3-17.1 2.2 8.1a24 24 0 0 1 .5 2.6 36.3 36.3 0 0 0 .6-2.6l2-8.1h4.7l-4.8 17.1h-4.4l-2-7.3a32.7 32.7 0 0 1-.7-2.3 27.4 27.4 0 0 0-.5 2.3l-2.1 7.3h-4.4l-4.8-17.1h4.7l2 8.2a120.6 120.6 0 0 1 .5 2.6 21.6 21.6 0 0 1 .6-2.6l2.2-8.2h3.7Zm11.4 17.1v-18.1h4v6.4a19 19 0 0 1 0 2.1c.4-.9 1-1.5 1.8-2a5 5 0 0 1 2.5-.6c.8 0 1.5.1 2 .4.7.2 1.1.6 1.5 1 .3.5.6 1 .7 1.5l.2 2.6v6.7h-4.2v-6.3c0-1-.2-1.6-.5-2-.3-.5-.8-.7-1.4-.7-1 0-1.5.3-2 1-.3.6-.5 1.6-.5 3v5h-4.1Zm27.7-.8c1.1 0 2.1-.5 2.9-1.3.8-.8 1.2-1.8 1.2-3s-.4-2.2-1.2-3a3.9 3.9 0 0 0-2.9-1.3c-1.1 0-2.1.4-2.9 1.2-.8.9-1.2 1.9-1.2 3 0 1.3.4 2.3 1.2 3.1.8.8 1.8 1.3 2.9 1.3Zm0 1.3c-.8 0-1.5-.1-2.2-.4a6 6 0 0 1-3-3 5.7 5.7 0 0 1 5.2-7.8 5.7 5.7 0 0 1 5.7 5.6 5.6 5.6 0 0 1-3.6 5.2c-.7.3-1.4.4-2.1.4Zm9-.5v-9.1h-2V374h2v-3c0-2 .2-3.4.6-4 .4-.6 1-1 2.1-1a3.8 3.8 0 0 1 1.4.3l-.3 1.3-.5-.2-.5-.1c-.5 0-.9.2-1 .6-.3.4-.4 1.1-.4 2.2v4h2.3v1.2h-2.3v9.1h-1.4Zm20-6.3c0-1-.4-1.7-1-2.3-.5-.5-1.3-.7-2.3-.7-.8 0-1.6.2-2.2.8-.5.5-.9 1.2-1 2.2h6.5Zm1.7 1.2h-8.3a5 5 0 0 0 1 3.1c.7.8 1.5 1.2 2.6 1.2.8 0 1.4-.2 2-.6.6-.4 1-1 1.4-1.9l1.4.7c-.6 1-1.2 1.9-2 2.4s-1.7.7-2.8.7c-1.5 0-2.8-.5-3.7-1.5-1-1-1.4-2.4-1.4-4 0-1.7.4-3.1 1.4-4.2 1-1 2.1-1.5 3.6-1.5s2.6.4 3.5 1.4c.9 1 1.3 2.3 1.3 3.9v.3Zm3 5.1V374h1.4v1.7c.4-.7.9-1.2 1.5-1.5.6-.4 1.3-.5 2.1-.5 1.2 0 2.1.3 2.8 1 .6.6 1 1.5 1 2.7v7h-1.5V378c0-1-.2-1.8-.6-2.3-.5-.5-1.1-.7-2-.7-1.2 0-2 .3-2.5 1-.5.6-.8 1.6-.8 3v5.4h-1.4Zm19.7-6.3c0-1-.4-1.7-1-2.3-.5-.5-1.2-.7-2.2-.7-.9 0-1.6.2-2.2.8-.6.5-1 1.2-1 2.2h6.4Zm1.7 1.2h-8.2a5 5 0 0 0 1 3.1c.6.8 1.5 1.2 2.5 1.2.8 0 1.5-.2 2-.6.6-.4 1.1-1 1.5-1.9l1.3.7c-.5 1-1.2 1.9-2 2.4-.7.5-1.7.7-2.8.7-1.5 0-2.7-.5-3.7-1.5s-1.4-2.4-1.4-4c0-1.7.5-3.1 1.4-4.2 1-1 2.2-1.5 3.7-1.5 1.4 0 2.6.4 3.4 1.4 1 1 1.3 2.3 1.3 3.9v.3Zm4.5-3.2c.5-.9 1-1.5 1.5-1.9a3.2 3.2 0 0 1 2.4-.5l.7.2-.5 1.3a4.7 4.7 0 0 0-1-.1c-.8 0-1.6.4-2.2 1.2a5 5 0 0 0-1 3v5.1h-1.4V374h1.5v2.1Zm15.3-2v8.5c0 1.4 0 2.4-.2 3.2a5 5 0 0 1-.3 1.6c-.4.7-1 1.3-1.7 1.7-.7.4-1.7.6-2.8.6-1.4 0-2.5-.3-3.2-.8a3.4 3.4 0 0 1-1.4-2.5h1.8c.1.7.4 1.2.9 1.5.5.3 1.2.5 2 .5.7 0 1.2-.1 1.7-.4.6-.2 1-.5 1.2-.9l.4-.9v-3.7c-.2.8-.7 1.3-1.4 1.8a4 4 0 0 1-2.3.6c-1.4 0-2.6-.5-3.5-1.5a6 6 0 0 1-1.3-4.1c0-1.7.5-3 1.4-4 .9-1.1 2-1.6 3.5-1.6a4 4 0 0 1 3.7 2.3v-2h1.5Zm-5 .9c-1 0-2 .4-2.6 1.1a5 5 0 0 0-.9 3.2 5 5 0 0 0 .9 3.1 3 3 0 0 0 2.4 1.2c1.2 0 2-.4 2.7-1.2.7-.8 1-1.9 1-3.2 0-1.3-.3-2.4-1-3.1a3.2 3.2 0 0 0-2.5-1.1Zm7.4-1h1.5l3 8.2 2.7-8.2h1.6l-5.4 15.7h-1.5l1.8-5.3-3.7-10.4ZM35 394.4v10h-.5v-10h-3.7v-.5h8v.5H35Zm5.6-1.2h.5v4.7l.8-1c.4-.2 1-.3 1.6-.3.9 0 1.5.2 2 .7.4.5.6 1.2.6 2.2v5h-.5v-4.9c0-.9-.2-1.5-.6-2-.4-.4-.9-.6-1.6-.6-.3 0-.6 0-.9.2l-.7.3-.5.6-.2.9v5.4h-.5v-11.2ZM54 404.4c-.4 0-.6-.2-.6-.6v-.6c-.3.4-.5.8-1 1-.3.3-.9.4-1.5.4-.8 0-1.4-.2-1.9-.6a2 2 0 0 1-.6-1.6l.1-.9.5-.7 1-.4 1.4-.2h2v-1c0-.8-.2-1.3-.6-1.6-.3-.4-.8-.6-1.5-.6-1.1 0-1.9.5-2.3 1.4l-.4-.3c.3-.4.6-.8 1-1 .4-.4 1-.5 1.7-.5.8 0 1.5.2 2 .6.4.5.6 1 .6 2v4.8h1.2v.4h-1Zm-3-.2c.3 0 .6 0 .9-.2.3 0 .5-.2.7-.3l.6-.7.2-.8v-1.6h-2c-.9 0-1.5.2-1.9.5-.4.2-.6.6-.6 1.1v.4c0 .5.2 1 .6 1.2.4.2.8.4 1.4.4Zm7 .2c-.5 0-.7-.2-.7-.6v-6.6H56v-.4h1c.2 0 .3 0 .4-.2v-2h.6v2.1h1.8v.5h-1.8v6.8h1.6v.4H58Zm4.6-11.3.4.1.1.4v.2c0 .4-.1.8-.4 1.3-.2.5-.5.9-.8 1.2h-.5c.4-.4.7-.7.8-1l.4-1-.5-.2v-.9l.5-.1Zm4.7 11.5c-.7 0-1.2 0-1.7-.3s-.9-.6-1.2-1.1l.4-.3 1 1 1.5.3c.7 0 1.2-.2 1.6-.5.3-.3.5-.7.5-1.2s-.2-.9-.5-1.1c-.3-.3-.7-.5-1.3-.6h-.7l-1-.3-.6-.4-.5-.6-.1-.9.1-.9.6-.6.8-.4 1-.1c.6 0 1.1 0 1.5.3.5.2.8.5 1 .8l-.3.4a3.4 3.4 0 0 0-.9-.7 3 3 0 0 0-1.4-.3c-.5 0-1 0-1.4.3-.3.3-.5.7-.5 1.2s.1.9.4 1.1c.3.3.8.4 1.4.5l.7.1c.7.1 1.2.4 1.6.7.4.3.6.8.6 1.5a2 2 0 0 1-.7 1.6 3 3 0 0 1-2 .5Zm11.2 0a3 3 0 0 1-2.4-1c-.6-.7-.9-1.7-.9-3s.3-2.3.9-3a3 3 0 0 1 2.4-1 3 3 0 0 1 2.9 2.2l.2 1.6v.2h-5.8v.4c0 .5 0 1 .2 1.3 0 .4.3.7.5 1 .2.3.5.5.8.6l1.2.3c1.2 0 2-.6 2.5-1.8l.5.2c-.3.6-.6 1.1-1.1 1.5a3 3 0 0 1-1.9.5Zm0-7.6c-.5 0-.8.1-1.2.3-.3.1-.6.3-.8.6l-.5 1c-.2.4-.2.8-.2 1.2v.1H81c0-.6 0-1-.2-1.3 0-.4-.3-.8-.5-1-.2-.3-.5-.5-.8-.6-.3-.2-.7-.3-1-.3Zm5.5 7.4v-7.6h.5v1.1l.9-1c.3-.2.9-.3 1.5-.3.9 0 1.5.2 2 .7.4.5.7 1.2.7 2.2v5H89v-4.9c0-.9-.2-1.5-.6-2-.3-.4-.9-.6-1.6-.6-.3 0-.6 0-.8.2-.3 0-.6.2-.8.3l-.5.6-.2.9v5.4H84Zm11 .2a3 3 0 0 1-2.3-1c-.6-.7-.9-1.7-.9-3s.3-2.3.9-3a3 3 0 0 1 2.4-1c1 0 1.8.3 2.3 1 .6.7 1 1.7 1 3s-.4 2.3-1 3a3 3 0 0 1-2.3 1Zm0-.4c1 0 1.6-.3 2-.9.5-.5.7-1.3.7-2.3v-.8c0-1-.2-1.8-.7-2.3-.4-.6-1-.9-2-.9-.8 0-1.5.3-2 .9-.4.5-.6 1.3-.6 2.3v.8c0 1 .2 1.8.7 2.3.4.6 1.1.9 2 .9Zm10.6-1-.4.6a2 2 0 0 1-1.1.7 3 3 0 0 1-1 .1c-.8 0-1.4-.2-1.9-.7-.4-.5-.6-1.3-.6-2.2v-5h.5v4.9c0 .9.2 1.5.6 2 .3.4.9.6 1.6.6a3 3 0 0 0 1.6-.5l.5-.6.2-.9v-5.4h.5v7.6h-.5v-1.1Zm9.7 2.2c0 .8-.3 1.3-1 1.7-.6.4-1.5.6-2.7.6-1.1 0-2-.2-2.5-.6-.5-.3-.7-.8-.7-1.4 0-.5 0-.8.3-1.1l1.1-.7c-.5-.2-.8-.5-.8-1 0-.4.2-.7.4-1l1-.4c-.5-.2-.9-.5-1.1-.9-.3-.4-.4-.9-.4-1.4 0-.4 0-.8.2-1.1a2.3 2.3 0 0 1 1.4-1.4l1.1-.1c.7 0 1.2.1 1.7.4v-.6c0-.4.1-.5.5-.5h1.5v.4h-1.7v1l.5.8c.2.3.2.7.2 1 0 .4 0 .8-.2 1.1a2.4 2.4 0 0 1-1.4 1.4 3.2 3.2 0 0 1-1.9 0l-1 .5c-.2.2-.3.4-.3.7 0 .2.1.4.3.5.2.2.5.2 1 .2h2c.9 0 1.5.2 1.9.5.4.4.6.8.6 1.4Zm-.5 0c0-.4-.2-.7-.5-1-.3-.2-.8-.4-1.6-.4h-2.4c-.4.2-.8.3-1 .6-.3.3-.4.6-.4 1 0 .5.2.9.6 1.1.4.3 1 .5 1.7.5h.8l1.1-.1c.4 0 .7-.2 1-.3l.5-.6.2-.8Zm-3.2-4.1c.7 0 1.2-.2 1.6-.5.4-.4.6-.8.6-1.4v-.5c0-.6-.2-1-.6-1.3-.4-.4-.9-.6-1.6-.6-.6 0-1.2.2-1.5.6-.4.3-.6.7-.6 1.3v.5c0 .6.2 1 .6 1.4.3.3.9.5 1.5.5Zm5.5-8h.6v4.6c.2-.3.4-.7.8-1 .4-.2 1-.3 1.6-.3.8 0 1.5.2 2 .7.4.5.6 1.2.6 2.2v5h-.5v-4.9c0-.9-.2-1.5-.6-2-.4-.4-1-.6-1.6-.6-.3 0-.6 0-.9.2-.3 0-.5.2-.7.3l-.5.6c-.2.3-.2.6-.2.9v5.4h-.6v-11.2Zm14.7 11.3a3 3 0 0 1-2.4-1c-.6-.7-.9-1.7-.9-3s.3-2.3.9-3a3 3 0 0 1 2.4-1 3 3 0 0 1 3 2.2l.1 1.6v.2h-5.8v.4c0 .5 0 1 .2 1.3l.5 1c.2.3.5.5.9.6.3.2.7.3 1.1.3 1.3 0 2.1-.6 2.6-1.8l.4.2c-.3.6-.6 1.1-1.1 1.5a3 3 0 0 1-1.9.5Zm0-7.6-1.2.3c-.3.1-.6.3-.8.6l-.5 1-.2 1.2v.1h5.3l-.2-1.3c-.2-.4-.3-.8-.6-1-.2-.3-.5-.5-.8-.6-.3-.2-.6-.3-1-.3Zm6.2 7.4c-.5 0-.7-.2-.7-.6v-10.6h.5V404h1.3v.4H138Zm5.8.2a3 3 0 0 1-2.4-1c-.6-.7-.9-1.7-.9-3s.3-2.3.9-3a3 3 0 0 1 2.4-1 3 3 0 0 1 2.9 2.2c.2.5.2 1 .2 1.6v.2h-5.8v.4c0 .5 0 1 .2 1.3 0 .4.3.7.5 1 .2.3.5.5.9.6.3.2.7.3 1.1.3 1.2 0 2-.6 2.6-1.8l.4.2c-.3.6-.6 1.1-1.1 1.5a3 3 0 0 1-1.9.5Zm0-7.6c-.5 0-.8.1-1.2.3-.3.1-.6.3-.8.6l-.5 1c-.2.4-.2.8-.2 1.2v.1h5.3l-.2-1.3c-.2-.4-.3-.8-.6-1-.2-.3-.5-.5-.8-.6-.3-.2-.7-.3-1-.3Zm8.1 7.6a3 3 0 0 1-2.4-1c-.6-.7-.8-1.7-.8-3s.2-2.3.8-3a3 3 0 0 1 2.4-1c.7 0 1.2.1 1.6.4.4.3.8.7 1 1.2l-.4.2c-.3-.4-.5-.8-.9-1-.3-.2-.8-.4-1.3-.4-.9 0-1.5.3-2 .9-.4.6-.7 1.3-.7 2.3v.8c0 1 .3 1.7.7 2.3.5.6 1.1.9 2 .9.6 0 1-.2 1.4-.4.4-.2.7-.6 1-1l.3.3a3 3 0 0 1-1 1.1 3 3 0 0 1-1.7.4Zm5.8-.2c-.4 0-.6-.2-.6-.6v-6.6h-1.4v-.4h1c.2 0 .3 0 .3-.2l.1-.3v-1.7h.5v2.1h1.8v.5h-1.8v6.8h1.7v.4h-1.6Zm3.9 0v-7.6h.5v1.3l.9-1c.3-.2.9-.4 1.6-.4h.5v.6h-1.6l-.7.4-.5.6-.2.9v5.2h-.5Zm5.5-10-.3-.1-.1-.3v-.4l.4-.2c.2 0 .3 0 .4.2v.7h-.4Zm-.3 2.4h.6v7.6h-.6v-7.6Zm6.2 7.8a3 3 0 0 1-2.4-1c-.6-.7-.8-1.7-.8-3s.2-2.3.8-3a3 3 0 0 1 2.4-1c.7 0 1.2.1 1.6.4.4.3.8.7 1 1.2l-.4.2c-.3-.4-.5-.8-.9-1-.3-.2-.8-.4-1.3-.4-.9 0-1.5.3-2 .9-.4.6-.7 1.3-.7 2.3v.8c0 1 .3 1.7.7 2.3.5.6 1.1.9 2 .9.6 0 1-.2 1.4-.4.4-.2.7-.6 1-1l.3.3a3 3 0 0 1-1 1.1 3 3 0 0 1-1.7.4Zm5.1-10.2-.3-.1-.1-.3v-.4l.4-.2c.2 0 .3 0 .4.2v.7h-.4Zm-.3 2.4h.6v7.6h-.6v-7.6Zm4.6 7.6c-.4 0-.7-.2-.7-.6v-6.6h-1.3v-.4h1c.1 0 .2 0 .3-.2v-2h.6v2.1h1.8v.5h-1.8v6.8h1.7v.4h-1.6Zm8.6-7.6h.5l-3.8 10.2c0 .2-.1.3-.2.3l-.5.2h-1.2v-.5h1.4l1-2.4-3-7.9h.6l2.5 7.2 2.7-7.1Zm7 7.6c-.5 0-.7-.2-.7-.6v-6.6h-1.4v-.4h1c.2 0 .3 0 .3-.2l.1-.3v-1.7h.5v2.1h1.8v.5h-1.8v6.8h1.7v.4h-1.6Zm6.3.2a3 3 0 0 1-2.4-1c-.5-.7-.8-1.7-.8-3s.3-2.3.8-3a3 3 0 0 1 2.4-1c1 0 1.8.3 2.4 1 .6.7.9 1.7.9 3s-.3 2.3-.9 3a3 3 0 0 1-2.4 1Zm0-.4c.9 0 1.6-.3 2-.9.5-.5.7-1.3.7-2.3v-.8c0-1-.2-1.8-.7-2.3-.4-.6-1.1-.9-2-.9-.8 0-1.5.3-2 .9-.4.5-.6 1.3-.6 2.3v.8c0 1 .2 1.8.6 2.3.5.6 1.2.9 2 .9Zm14.3-1c-.2.4-.5.7-1 1-.3.3-.9.4-1.5.4a3 3 0 0 1-2.4-1c-.5-.7-.8-1.7-.8-3s.3-2.3.8-3c.6-.7 1.4-1 2.4-1 .6 0 1.2.1 1.6.4.4.3.7.6.8 1v-4.8h.6v11.2h-.5v-1.2Zm-2.4 1 .9-.2a2.2 2.2 0 0 0 1.3-1l.2-.8V399l-.2-.8c-.2-.3-.3-.5-.6-.6l-.7-.4-1-.2c-.8 0-1.5.3-2 .9-.4.5-.6 1.3-.6 2.3v.8c0 1 .2 1.8.7 2.3.4.6 1.1.8 2 .8Zm6 .2v-7.6h.5v1.3c.2-.4.4-.7.8-1 .4-.2.9-.4 1.6-.4h.6v.6H224l-.7.4-.6.6-.1.9v5.2h-.6Zm5.5-10-.4-.1-.1-.3v-.4l.4-.2c.2 0 .3 0 .4.2v.7h-.3Zm-.3 2.4h.5v7.6h-.5v-7.6Zm2.4 0h.5l2.6 7 2.6-7h.6l-2.9 7.6h-.6l-2.8-7.6Zm10.7 7.8a3 3 0 0 1-2.4-1c-.6-.7-1-1.7-1-3s.4-2.3 1-3a3 3 0 0 1 2.3-1 3 3 0 0 1 2.3 1c.3.3.5.8.7 1.2l.2 1.6v.2h-5.9v.4l.2 1.3c.1.4.3.7.6 1 .2.3.5.5.8.6l1.2.3c1.2 0 2-.6 2.5-1.8l.4.2c-.2.6-.6 1.1-1 1.5a3 3 0 0 1-2 .5Zm0-7.6c-.5 0-.9.1-1.2.3-.3.1-.6.3-.8.6-.3.3-.5.6-.6 1l-.2 1.2v.1h5.3c0-.6 0-1-.2-1.3l-.5-1c-.2-.3-.5-.5-.8-.6-.3-.2-.7-.3-1-.3Zm14 7.4c-.4 0-.6-.2-.6-.6v-.6c-.2.4-.5.8-1 1-.3.3-.8.4-1.5.4-.8 0-1.4-.2-1.9-.6a2 2 0 0 1-.6-1.6l.1-.9.5-.7 1-.4 1.4-.2h2v-1c0-.8-.2-1.3-.5-1.6-.4-.4-1-.6-1.6-.6-1 0-1.8.5-2.3 1.4l-.3-.3c.2-.4.5-.8 1-1 .3-.4.9-.5 1.6-.5.9 0 1.5.2 2 .6.4.5.6 1 .6 2v4.8h1.2v.4h-1Zm-3-.2c.3 0 .6 0 .9-.2.3 0 .5-.2.8-.3l.5-.7.2-.8v-1.6h-2c-.9 0-1.5.2-1.9.5-.4.2-.5.6-.5 1.1v.4c0 .5.1 1 .5 1.2.4.2.9.4 1.4.4Zm6 .2v-7.6h.5v1.1c.2-.3.4-.7.8-1 .4-.2 1-.3 1.6-.3.8 0 1.5.2 2 .7.4.5.6 1.2.6 2.2v5h-.5v-4.9c0-.9-.2-1.5-.6-2-.4-.4-1-.6-1.6-.6-.3 0-.6 0-.9.2-.3 0-.5.2-.7.3l-.5.6c-.2.3-.2.6-.2.9v5.4h-.5ZM34.7 424.6a3 3 0 0 1-2.4-1c-.6-.7-1-1.7-1-3s.4-2.3 1-3a3 3 0 0 1 2.3-1 3 3 0 0 1 3 2.2l.2 1.6v.2h-5.9v.4l.2 1.3c.1.4.3.7.6 1 .2.3.5.5.8.6l1.2.3c1.2 0 2-.6 2.5-1.8l.4.2c-.2.6-.6 1.1-1 1.5a3 3 0 0 1-2 .5Zm0-7.6c-.5 0-.9.1-1.2.3-.3.1-.6.3-.8.6-.3.3-.5.6-.6 1L32 420v.1h5.3c0-.6 0-1-.2-1.3l-.5-1c-.2-.3-.5-.5-.8-.6-.3-.2-.7-.3-1-.3Zm6.1 7.4c-.4 0-.6-.2-.6-.6v-10.6h.5V424H42v.4h-1.2Zm5.9.2a3 3 0 0 1-2.4-1c-.6-.7-1-1.7-1-3s.4-2.3 1-3a3 3 0 0 1 2.3-1 3 3 0 0 1 3 2.2l.2 1.6v.2h-5.9v.4l.2 1.3c.1.4.3.7.6 1 .2.3.5.5.8.6.4.2.7.3 1.2.3 1.2 0 2-.6 2.5-1.8l.4.2c-.2.6-.6 1.1-1 1.5a3 3 0 0 1-2 .5Zm0-7.6c-.5 0-.9.1-1.2.3-.3.1-.6.3-.8.6-.3.3-.5.6-.6 1L44 420v.1h5.3c0-.6 0-1-.2-1.3l-.5-1c-.2-.3-.5-.5-.8-.6-.3-.2-.7-.3-1-.3Zm8 7.6a3 3 0 0 1-2.3-1c-.6-.7-.9-1.7-.9-3s.3-2.3.9-3a3 3 0 0 1 2.4-1c.6 0 1.1.1 1.6.4.4.3.7.7 1 1.2l-.5.2c-.2-.4-.5-.8-.8-1-.4-.2-.8-.4-1.3-.4-.9 0-1.6.3-2 .9-.5.6-.7 1.3-.7 2.3v.8c0 1 .2 1.7.7 2.3.4.6 1.1.9 2 .9.5 0 1-.2 1.4-.4.3-.2.7-.6.9-1l.4.3a3 3 0 0 1-1 1.1 3 3 0 0 1-1.7.4Zm5.9-.2c-.5 0-.7-.2-.7-.6v-6.6h-1.4v-.4h1c.2 0 .3 0 .4-.2v-2h.6v2.1h1.8v.5h-1.8v6.8H62v.4h-1.5Zm3.8 0v-7.6h.6v1.3l.8-1c.4-.2 1-.4 1.6-.4h.6v.6h-1.6l-.7.4-.5.6c-.2.3-.2.5-.2.9v5.2h-.6Zm5.6-10-.4-.1v-.7l.4-.2c.1 0 .2 0 .3.2l.1.2v.2l-.1.3H70Zm-.3 2.4h.5v7.6h-.5v-7.6Zm6.2 7.8a3 3 0 0 1-2.4-1c-.6-.7-.9-1.7-.9-3s.3-2.3.9-3a3 3 0 0 1 2.4-1c.6 0 1.1.1 1.6.4.4.3.7.7 1 1.2l-.5.2c-.2-.4-.5-.8-.8-1-.4-.2-.8-.4-1.3-.4-.9 0-1.6.3-2 .9-.5.6-.7 1.3-.7 2.3v.8c0 1 .2 1.7.7 2.3.4.6 1.1.9 2 .9.5 0 1-.2 1.4-.4.3-.2.7-.6.9-1l.4.3a3 3 0 0 1-1 1.1 3 3 0 0 1-1.7.4Zm11 0a3 3 0 0 1-2.4-1c-.6-.7-.9-1.7-.9-3s.3-2.3.9-3a3 3 0 0 1 2.4-1c.6 0 1.2.1 1.6.4.4.3.7.7 1 1.2l-.5.2c-.2-.4-.5-.8-.8-1-.3-.2-.8-.4-1.3-.4-.9 0-1.6.3-2 .9-.5.6-.7 1.3-.7 2.3v.8c0 1 .2 1.7.7 2.3.4.6 1.1.9 2 .9.6 0 1-.2 1.4-.4.4-.2.7-.6.9-1l.4.3a3 3 0 0 1-1 1.1 3 3 0 0 1-1.7.4Zm9.8-.2c-.4 0-.6-.2-.6-.6v-.6c-.3.4-.6.8-1 1-.3.3-.9.4-1.5.4-.8 0-1.4-.2-1.9-.6a2 2 0 0 1-.6-1.6l.1-.9.5-.7 1-.4 1.3-.2h2v-1c0-.8-.1-1.3-.5-1.6-.3-.4-.8-.6-1.5-.6-1.1 0-1.9.5-2.3 1.4l-.4-.3c.2-.4.6-.8 1-1 .4-.4 1-.5 1.7-.5.8 0 1.5.2 2 .6.4.5.6 1 .6 2v4.8h1.2v.4h-1Zm-3-.2c.2 0 .6 0 .8-.2.4 0 .6-.2.8-.3l.6-.7.2-.8v-1.6h-2c-.9 0-1.5.2-1.9.5-.4.2-.6.6-.6 1.1v.4c0 .5.2 1 .6 1.2.3.2.8.4 1.4.4Zm6 .2v-7.6h.5v1.3c.2-.4.4-.7.8-1 .4-.2.9-.4 1.6-.4h.6v.6h-1.7l-.6.4-.6.6-.1.9v5.2h-.6Zm11.4-5.7c.4 0 .7 0 1-.2l.8-.4.5-.7.2-.8v-.4c0-.6-.2-1-.6-1.4-.5-.4-1-.6-1.7-.6s-1.2.1-1.6.4c-.4.2-.7.6-1 1l-.4-.2a3 3 0 0 1 1-1.2c.5-.3 1.2-.5 2-.5.4 0 .8 0 1.2.2a2.5 2.5 0 0 1 1.5 1.3l.2 1.1c0 .8-.2 1.3-.6 1.8-.4.4-.9.6-1.5.8.7.1 1.2.4 1.7.8.4.5.6 1.1.6 1.9 0 .5 0 .9-.2 1.3l-.7 1a3 3 0 0 1-1 .5 4 4 0 0 1-1.3.2 4 4 0 0 1-2-.4c-.5-.3-1-.7-1.3-1.2l.4-.3c.3.4.7.8 1.2 1 .4.3 1 .4 1.7.4.8 0 1.4-.2 1.9-.6.5-.4.7-1 .7-1.7v-.4c0-.7-.2-1.2-.7-1.6-.5-.4-1.1-.7-2-.7h-1.3v-.4h1.3Zm6.4 5.7v-7.6h.6v1.1c0-.2.2-.3.3-.5l.5-.4.6-.3.9-.1c.6 0 1.1.1 1.5.4.4.3.7.7.9 1.2.2-.5.4-.8.9-1.2.4-.3 1-.4 1.6-.4.9 0 1.5.2 2 .7.4.5.6 1.2.6 2.2v5h-.5v-5c0-.8-.2-1.4-.6-1.8-.3-.5-.9-.7-1.6-.7a3 3 0 0 0-.8.2c-.3 0-.5.2-.7.3l-.5.6-.2.9v5.4h-.5v-4.8c0-.9-.2-1.5-.6-2-.4-.4-.9-.6-1.6-.6a3 3 0 0 0-.9.2l-.7.3a1.8 1.8 0 0 0-.6 1.5v5.4h-.6Zm13.6-10-.3-.1-.2-.3v-.2l.1-.2.4-.2c.1 0 .3 0 .3.2l.1.2v.5h-.4Zm-.3 2.4h.6v7.6h-.6v-7.6Zm4 7.7h-.4l-.2-.5c0-.2 0-.4.2-.5h.7l.2.4v.1c0 .2 0 .3-.2.4l-.3.1Z" fill="#82AF52"/><path d="m108.6 156-.2-.1-1.2-.1c-.9 0-1 0-1-.2h-.2c-.2 0-.1-.3.2-.5l.2-.3h1.3l1.3.1.2.1.4.2.3.1v.7H108.6ZM102.7 154.4l-.3-.2h-.2l-.1-.2c0-.1 0-.2-.2-.3a.4.4 0 0 1-.1-.4v-.2l-.2-.4-.1-.4c-.2-.2-.2-.9 0-1v-.2l.2-.2c0-.1.4-.2.5-.1h.2l.3.1.3.1.3.1c0 .2.2.2.5.2.2 0 .3 0 .3.4v.3c.2 0 .2.2.2.5 0 .4-.1.7-.3 1l-.1.3c0 .1 0 .2-.3.4-.1.2-.2.3-.5.2h-.4ZM87.8 151.4h-.2l-.2-.2-.2-.1-.2-.1v-.1c-.2 0-.1-.1.1-.4l.4-.2.2-.1.2-.1.2-.1.2-.2h.2c0-.1.1-.2.3-.2l.4-.2h.7v1.2a1 1 0 0 0-.2.6v.3h-2Zm1.8-1.3v-.2h-1.1v.4h1.1v-.2ZM98 151.1c-.2 0-.6-.6-.6-.7 0 0 0-.2-.2-.2v-.3l-.2-.2v-.7l.2.1c0 .2.1.3.3.3l.1-.4-.1-.3-.1-.1-.1-.1.1-.2.7-.1c.6 0 .8 0 .8.2h.2l.2.2.1.1c.1 0 .2 0 .2.4l-.1.5-.1.3-.2.3v.2l-.6.6c-.1.1-.3.2-.6.1ZM93 149.6v-.8l.4-.3c.3-.3.3-.3.5-.3s.3 0 .3.2l.1.3v1.2h-.1l-.3.1-.2.1-.2.1-.2.2H93v-.8ZM85.6 149.8l-2.8-.1-2.9-.1v-.1h-.1c0 .2-1.8.2-2 0h-1.4c-1.1 0-1.1 0 .7-.1h1.8l.1-.2a90.5 90.5 0 0 1 6.7.2c0 .4 0 .6-.1.4ZM90.8 149.6c0-.2 0-.2.1 0h.4c0-.1 0 0 0 0v.1h-.5ZM94.2 148l-.2-.1c-.1 0-.2-.1-.2-.3l-.1-.3c-.3-.3-.2-.7.2-1l.2-.2h1.1l.2.2c.2.2.2.2.2.5v.4l-.4.4c-.4.4-.4.4-.7.4h-.3ZM96 146.6l-.3-.4-.2-.2v-.5c0-.5 0-.5.2-.7l.3-.1.3-.2c.2-.2.3-.3.7-.3h.6l.1.7v.8l-.2.2-.3.3-.2.2-.1.2c-.2.2-.7.2-.9 0ZM99.2 145.9l-.2-.3-.1-.3-.1-.2s0-.2-.2-.3c-.2-.3-.2-.7 0-1l.4-.1.2-.1.7-.1h.7l.3.2.2.2v.4c-.1.3-.1.4-.4.6l-.2.4-.4.4c-.3.4-.5.4-.9.2ZM87 145.3l-.2-.2h1.3c1.2 0 1.2 0 1.2.2v.1H87v-.1ZM83.1 145c-.5 0-.6 0-.6-.2h-.2l-.1-.1.2-.1 1.4-.1h1.4c0 .2.2.2 1.6.2h1.4l.1.2.1.1h-5.3ZM91 143.3v-.2l-.1-.2-.1-.2-.2-.4v-.2l-.4-.7v-.5h.3l.6.2.2.4.3.3.1.3.1.5-.1.5-.1.2c0 .2-.4.1-.5 0ZM92.8 142.7l-.4-.5-.1-.2-.1-.3-.1-.2-.1-.4-.2-.5c0-.3-.2-.7-.1-1l.4-.3.2-.2h.9V139.6c.1 0 .1 0 0 0v.4l.1.3.2.2c.2 0 .2.2.2.5l.1.3.1.2c0 .1 0 .2.2.3v.4c0 .4 0 .6-.2.6h-.2c0 .1-.1.2-.3.2-.2 0-.3 0-.6-.4ZM71.2 139.5l.5-.1.6-.1c.4 0 .5 0 .5-.2h.6c.4 0 .5 0 .6-.2l.6-.1.6-.1.6-.1.7-.1c0-.1 0-.2.5-.2h2l-.1.1v.2h-2.1c-.1.2-.2.2-1 .2s-.8 0-1 .2h-.7c-.7 0-.8 0-.8.2l-.7.1-.7.1-.7.1h-.5.5ZM107.4 138.6l-.5-.1c-.8 0-.8 0-.8-.3s.1-.4.9-1.1a4.6 4.6 0 0 0 .6-.7l.1-.1.4-.1.4-.1.5-.2.5.1.4.2c.1 0 .2 0 .5.3l.3.3v1.1h-.4l-.5.1-.8.1-.8.1h-.1l-.2.2c-.1 0-.1 0 0 .1l-.3.1h-.2ZM79.2 138.2l1.2-.1c.6 0 .7 0 1-.2l.2-.2h.9c.7 0 1 0 1-.2v.1c0 .2 0 .2.2.2s.2 0 .2.2v.1h-1l-1 .1-1.3.1h-1.4ZM99.2 138l-1.6-.1-1.7-.1c0-.2.1-.2.5-.2l.5-.1.4-.1h.2v.2h1.7c0-.2.2-.1.2.1l-.1.3ZM94.8 137.6v-.1c0-.1 0-.2.4-.1h.5c0-.1 0 0 0 0v.3h-.9ZM60 136.9l-.4-.1-.4-.1h.5l.5.1c0 .1-.1.2-.2 0ZM61.9 136.8c0-.2 0-.2.4-.2h.6l1.4-.1h1.2c0 .2 0 .2-.3.2l-.3.1-1.5.1h-1.5v-.1ZM61.4 136.6c.1-.2.5-.2.4 0l-.2.1h-.3.1ZM83 136.4l-.3-.1-.9-.6v-.1l-.2-.1-.1-.2-.1-.1-.2-.2-.1-.1H81l-.1-.2-.2-.1-.3-.1-.1-.1s-.2 0-.2-.2H80l-.2-.2-.1-.1-.3-.2h-3.7c-.1.2-.1.2-2.2.2a29.4 29.4 0 0 1-2-.2h1c1 0 1.1 0 1.1-.2l1.3-.1 1.2-.1 1-.1 1.1-.1h.3l.4-.2h.5l.4-.1.2-.2h.2c.2-.2.3-.2 1.5-.2l1.5.1.3.1c.2 0 .3 0 .5.3l.4.2.4.4.3.3v.7l-.1.8-.1.3c-.1.2-.3.4-.5.4l-.3.2h-.2l-.2.2H83ZM91.8 136v-.2l-.3-.3-.3-.4-.1-.3-.1-.2-.1-.2-.1-.4c0-.3 0-.4-.2-.5V132l.1-.1c.2-.2.3-.2.8-.2l.9.1.3.3.2.3v.7l.2.8v1.8l-.2.1-.2.1c-.1.1-.2.2-.5.2l-.4-.1ZM114 135.4h-.1c-.2 0-.6-.4-.8-.6l-.2-.4-.2-.3-.1-.2-.2-.3v-.4c-.2-.2-.2-.3-.2-1.4l.1-1.3.1-.3.1-.4.1-.2.4-.5c.3-.2.4-.4.1-.4l-.2-.2c-.2-.1-.2-.2-.2-.4l-.1-.4c-.1 0-.2-.2-.2-.7 0-.6 0-.6.2-.8.2-.2.6-.2 1.3-.2.4 0 .5 0 .6.2h.1l.3.3c.2.2.2.2.2.5l-.1.3v.4c0 .2-.1.3-.4.3l-.2.2-.1.3.4.1c.4 0 .5 0 .6.2h.3l.3.2.2.2.4.4.3.5v.2c.2.1.2.2 0 .3v.1l-.2.1v.1l-.2.2-.1.2-.1.2-.1.1-.2.2v.8c0 .7-.1.8-.2.8s-.2.2-.1.4h-.3l-.3-.3c-.2-.3-.2-.3-.2-.7v-.5l-.1.5c0 .3 0 .5-.2.6v.4c.2.2.2.2.2 1l-.1.7h-.5ZM101.6 134.4a1 1 0 0 1-.4-.3c-.3-.3-.3-.3-.3-.6v-.3c-.2-.1-.2-.5 0-1 0-.4.2-.5.7-.5l.4-.1c.3-.2 1-.2 1.2 0l.3.1.5.3c.3.3.4.5.2.7l-.1.4c0 .1 0 .2-.3.4 0 .2-.2.4-.3.5l-.2.2-.2.1-.7.1h-.8ZM54 134h-.3l-.2-.1h-.2v-1c0-.9 0-.9.2-1l.2-.3.7-.1h.8l.6.2.4.1.3.1c.2 0 .3.1.3.3l.3.5c.1.1 0 .6 0 .8l-.2.2c0 .2 0 .2-.3.2l-.3.1-1 .1H54ZM69.6 134l.8-.1h.6c0 .2 0 .2-.8.2h-.8l.2-.1ZM49.5 133.5l-.6-.1-.6-.1-.5-.1c-.4 0-.5 0-.5-.2h-1.1v-1.4l.3-.3.3-.3h.4l.5.1.5.1.6.2h.4l.5.5.3.5c.2.2.1.5 0 .6l-.1.1c0 .2-.2.5-.3.5l-.1-.1ZM61.6 133l.1-.4c.2-.2.2-.2.5-.2l.4.1.3.1.2.1v.2h-.4l-.3.1c0 .1 0 .2-.4.2h-.3l-.1-.2ZM88.6 132.3c-.2-.2-.2-.2-.2-.7v-.4l.3-.3c.2-.3.3-.3.5-.3h.3l.2.2s.2 0 .3.2l.2.4c0 .3-.2.7-.5 1l-.6.1c-.3 0-.3 0-.5-.2ZM76.9 132.3c-.2 0-.2-.1-.2-.2l-.2-.1-.1-.2h-.2l-.1-.2h-.2l-.2-.2-.1-.1-.2-.2c-.1 0-.2 0-.2-.2h-.1l-.1-.3-.1-.2-.1-.2-.2-.1v-.1l-.2-.1-.1-.2h-.5c-.4 0-.4 0-.3-.1l.1-.1.2-.1c.2 0 .3-.2.1-.2v-.3c0-.1 0-.2-.2-.2 0 0-.1 0 0-.1 0-.3-.1-.4-.3-.4l-.2.1-.2.2H73l-.2.2-.2.1-.4.1c-.2 0-.3 0-.3.2h-.4c-.2 0-.3 0-.3.2l-.3.1-.3.1c0 .2-.5.2-.5 0l.2-.2v-.3l.2-.4c.3-.3.6-.4.8-.4l.5-.2h2.6c.2.1.3.2.8.2h.6l.3.2c.2 0 .5 0 .5.2h.1l.3.1.3.2.6.6.2.2v.2l.2.4c0 .3 0 .4-.2.5l-.1.3v.2l-.2.2-.3.5-.5.3ZM43 132.1l-.3-.1h-.2v-.3l-.1-.3-.2-.5v-.3l-.3-.3c-.2-.3-.2-.3-.2-1.4l.1-1.2c.2-.2.3-.2.3 0h.4c.2 0 .3 0 .3.2h.4c.3 0 .3 0 .3.2l.4.1.4.1.6.1.5.1c0 .2.1.2.7.2h.7c0 .2.1.2.7.2h.7c0 .2-1 1.2-1.1 1.2-.1 0-.2 0-.3.2h-.5l-.6-.1-.2-.3c0-.2-.1-.3-.2-.2l-.2.2-.2.2-.8.8-.7.4h-.1v.5c0 .4 0 .4-.2.4H43ZM65.6 131.5v-.2l-.2-.2v-.5c0-.4-.1-.5-.2-.5l-.1-.3c0-.3 0-.5.3-.5h1.5c.2 0 .3 0 .4.2h.2l.4.4c.3.3.4.4.2.4v.2l-.3.1-.3.1-.2.1-.2.1c0 .1-.1.2-.3.2h-.2c0 .2 0 .2-.3.2l-.2.1-.2.1h-.3ZM102.7 131.2h-.2l-.3-.3-.2-.5v-1.1l.1-.3.8-.1h.8l.3.3c.3.3.3.3.3.5l-.1.4-.1.3-.4.5c-.4.4-.5.4-.7.4h-.3ZM52.2 131l-.2-.1-.1-.3-.1-.2c-.1 0-.2-.2-.2-.5v-.5h3.2v.1c0 .2-.2.4-.3.4l-.5.4-.6.6c-.2.2-.3.2-.7.2h-.5ZM57.2 130.8l-.3-.2-.3-.2-.3-.2c-.1-.1-.2-.2-.2-.6v-.4h.2c.3 0 .5 0 .5-.2l.8-.1.7-.1.6-.1c.5 0 .5 0 .5-.2h.5c.4 0 .4 0 .5-.2h.8l-.1.2-.1.2-.2.3c0 .2-.3.5-.4.5l-.7.6-.7.6h-.2c-.1.2-.2.2-.8.2h-.8ZM38.6 130.7l-.3-.1-.3-.1-.3-.2h-.2c0-.2-.2-.2-.4-.2l-.2-.1-.2-.1c-.1 0-.2 0-.3-.2h-.1l-.2-.2-.2-.1-.2-.1-.2-.1v-.3c0-.4.2-1 .4-1 .1-.2.2-.2.6-.2h.6c.1.2.2.2.5.2l.5.1.3.2c.2 0 .3.1.3.2l.4.4c.2.2.2.2.2.6l-.1.5-.2.3s0 .2-.2.3l-.2.2ZM100.4 129.6l-1-.2a3 3 0 0 1-.7 0l-.6-.2-.6-.1a.8.8 0 0 0-.6-.1l-.5-.1-.3-.2-.4-.1a.7.7 0 0 0-.3-.1v-.5H97c1.4 0 1.4 0 1.5-.2l.3-.1.3-.1c.1-.2.6-.2.9 0l.4.1.2.1.2.3.2.2v1.4h-.6ZM118.5 129.3v-.3l-.2-.3-.1-.3-.1-.9v-.7l.2-.1c.2-.2.2-.2.8-.2h.7l.5.4.5.3-.2.1v.1l-.2.1-.1.3-.1.2-.1.1-.1.1h-.2l-.2.4-.3.3-.2.2h-.1l-.1.2-.1.1h-.1l-.1.1v-.2ZM39.5 129c-.2-.2-.2-.3-.1-.6 0-.5.2-.7.5-.7s.4 0 .4.3v.2c.2 0 .2.4 0 .5v.3l-.4.2-.4-.2ZM128.6 128.8c-.1-.1-.2-.2-.2-.6 0-.5 0-.5.4-.5l.1-.1.3-.1c.3 0 .3 0 .3.2l.2.3v.2l.1.3v.2l-.1.2h-.5l-.6-.1ZM107.4 128.5c-.4-.4-.4-.5-.4-1l-.1-.5-.1-.3c0-.3 0-.3.3-.6l.3-.3h.5l.6.1.4.2c.2 0 .2 0 .4.3s.3.7 0 .9v.2l-.3.4-.3.4-.1.3-.6.1c-.4 0-.4 0-.6-.2ZM127.6 128.5v-.2h-.2l-.2-.1-.1-.1-.3-.1-.2-.1v-.2l.2-.2c0-.1 0-.1-.2 0-.2.2-.2.3-.5.3-.6 0-.6-.1-.2-.5l1-1.2 1.1-1 .3-.4-.2.1-.2.2-.3.1-.3.1c-.2 0-.3 0-.4.2h-.2l-.2.2-.2.1a1 1 0 0 0-.5.3c-.2.2-.2.2-.5.1h-.4v-.2c0-.2 0-.4.3-.4 0 0 .2 0 .3-.2.2-.2.3-.2.5-.2h.3l.2-.3.4-.2h.3c.1-.2.2-.2.3-.2l.2-.1.3-.1c.3 0 .4-.1.4-.3h.8l-.2-.4-.3-.2-.5-.4c-.4-.4-.4-.5-.4-.7 0-.1 0-.2-.2-.3-.2-.1-.2-.2-.2-.4v-.2c.2 0 .1-.2-.2-.6-.4-.4-.4-.4-.4-.7 0-.2.1-.3.3-.3.2 0 .2 0 0-.3l-.3-.3h-.4c0 .2-.4.2-.5 0H124l-.2-.2-.2-.2V117.4c.1 0 .2-.1.2-.3l.2-.4v-.3l.5-.5.4-.4h1.2l.2.2c.2 0 .3 0 .3.3v.2c.2 0 .2.1.2.6l.1.6.1.2c0 .1.3.4.5.4.2.1.2.1.2.3l.1.2.2.1c0 .1 0 .2.2.2h.3l.1.3v.4c0 .3.1.4.2.4l.3.1.4.2.6.6.2.2v1.1l-.1 1.3-.3.2v.3l.2.4c0 .3 0 .4-.5.8l-.2.3-.2.4-.2.3s0 .2-.2.3l-.1.2c0 .2-.3.5-.4.5v.2c0 .2-.1.2-.2.3v.1l-.4.8h-.2Zm1.7-6.2.1-.6-.1-.6h-.1l-.1-.2-.2-.1-.1-.1-.1-.1-.1-.1-.2-.2c-.1-.1-.3 0-.3.1v.2c.2 0 .2 0 .2.3v.2c.2 0 .2.1.2.3l.1.2c.2 0 .2 0 .1.3l.1.4h.5ZM66.8 127.5a2 2 0 0 1-.3-.4l-.2-.3c-.1 0-.1-.2 0-.2l.2-.2h.2l.2-.2.2-.1v-.1l.2-.1c.1 0 .2 0 .3-.2l.2-.1c0-.2 0-.2-.3-.2l-.2-.1-1.6-.2h-1.5l-.6-.1H63V124.7h1.5c0 .2.4.2.7 0h2l1.9-.1.1-.1.1-.1.1-.2.2-.1.2-.1.2-.2h.2v-.2l.2-.1.1-.1.4-.1c.2 0 .3 0 .3-.2h.2c.2 0 .2-.1.3-.2l.1-.1.1-.1.1-.1c.2 0 .3 0 .3-.2h.2l.1-.2.2-.2.2-.2h.1l.1-.2.1-.1.2-.1v-.1l.2-.2h.2l.1-.2h.2l.1-.2.2-.1.2-.2v-.1l.2-.1v-.1l.3-.1.2-.1c0-.2.1-.1.3 0v1.5l-.2.3v.2l-.2.2-.1.2-.1.3-1.3 1.4a19 19 0 0 1-2.8 2.3h-.2l-.2.2-.1.1-.2.1-.2.1-.2.2h-.3l-.4.2-.3.1-.4.1-.3.2H68c0 .2-.2.2-.5.2h-.4l-.3-.3ZM84.5 127.5l-.1-.3-.1-.4c-.2-.2-.2-.4 0-.7.1-.5.2-.5.6-.5h.5c.1.2.2.2.3.2l.2.1v1.1l-.4.3c-.3.2-.4.3-.7.3h-.3ZM37.8 127.2l-.2-.2v-.8c.3-.2.3-.2.6-.1h.4v.4c0 .6-.2.8-.6.8l-.2-.1ZM130.9 127l-.1-.9v-.8l-.2-.2a1 1 0 0 1-.3-.3l.2-.2.4-.2c.2 0 .3 0 .5-.2s.3-.3.6-.3c.2 0 .3 0 .3.2l.1.1.1.3c0 .4 0 .4.2.4v.1l.2.1.1.2-.1.1-.1.2-.1.3c-.1 0-.2 0-.2.2s0 .2-.2.2l-.2.1c0 .1 0 .2-.3.2s-.5.1-.5.3v.2h-.2c0 .1-.1 0-.2 0ZM91.2 127l-.2-.2h-.3l-.2-.4c0-.3.1-.4.7-.4.5 0 .5 0 .7.2.2.2.2.3.2.5v.3h-.9ZM102.3 126.3l-.2-.4c0-.1 0-.3-.2-.4l-.1-.4-.1-.4-.1-.7c0-.5 0-.8.2-1 .2-.1 1.8 0 1.8.1l.1.1.6.6.3.2c.2.1.2.2.3.4 0 .2 0 .7-.2 1 0 0 0 .2-.2.2l-.2.3-.3.4-.3.3h-1.1l-.3-.3ZM121.2 126.3v-.2l-.2-.1v-.4c0-.2-.1-.3-.2-.3-.1-.2-.2-.4-.1-.7 0-.3 0-.4.3-.6l.3-.4h.5c.5.1.5.1.7.3l.2.3.1.4.1.4c0 .3 0 .3-.4.7l-.6.5h-.2c0 .1-.4.2-.5 0ZM57.3 125s-.2-.1-1.6 0h-.8l.8-.2 2-.1 1.8-.1c.1-.2.1-.2.6-.1h.6c0 .1.3.1.4 0h.2c.2.2.2.2-.1.2l-.3.1c0 .2 0 .2-.5.2h-.6c-.1.2-2.5.2-2.5 0ZM61.6 125v-.3h.6v.4h-.6v-.2ZM113.3 124.1h-.3l-.5-.3-.3-.4c0-.2-.2-.3-.5-.3-.4 0-.4 0-.4-.4l-.1-.4c-.1 0-.2-.7-.1-.8 0-.1 0-.2 0 0h-.3l-.3-.1-.2-.1c0-.1-.1-.2-1.5-.2h-1.6l-.1-.1h-4.2l-1.3.1h-1.2l-.1-.2V120.6H108c0-.2 0-.2.3-.2l.6.1c.1.2.1.2 1.4.2a8.4 8.4 0 0 1 1.6 0h.5l.5-.1c.1-.2.2-.2.9-.2l.8-.1c0-.2.1-.1.4.1l.4.2.4.3.3.3v.5l-.1.6-.2.1-.2.1-.3.1-.2.2s0 .3-.2.4l-.2.3-.5.4-.2.2c-.1.1-.5.2-.7 0ZM97.5 123.6l-.4-.3-.2-.1-.3-.1c-.2 0-.9-1-.9-1.3l-.1-.4-.1-.7v-.5H95.8c0 .2 0 .2.3.2l.4.1c0 .2.1.2.4.2l.3.1.4.1.3.1.2.1c.2 0 .3 0 .3.2h.4c.3 0 .4 0 .5.2l.2.1v1l-.4.5-.1.1-.1.2-.2.2c-.1.2-.2.2-.5.2h-.4l-.3-.2Z" fill="#040302"/><path d="m108.2 123-.2-.3-.2-.2-.1-.2c0-.2 0-.2.7-.2l.6-.1c0-.1.1-.2.6-.2.3 0 .3 0 .3.2s0 .3-.2.4l-.1.2-.3.3c-.2.2-.2.2-.6.2-.4 0-.4 0-.5-.2ZM81.7 122.2h-.3c-.2 0-.5-.4-.7-.6l-.2-.4-.1-.4-.1-.4-.1-1-.1-1-.1-.9v-.6l.2-.1.5-.1c.5 0 .5 0 .6-.2h2.4c0 .1.1.2 1 .2h1c0 .2 0 .2.6.2h.6c0 .2.1.2.4.2l.5.1c.1.2.2.2.5.2l.4.1.3.1.2.1.4.1c.3 0 .3 0 .3.2h.2c.2 0 .3.1.3.2v.1c.1 0 .1 0 0 0v.4l-.1.3-.2.3a8 8 0 0 1-1.9 2H88l-.2.1-.3.1c0 .1-.1.2-.3.2H87c-.1.2-.2.2-.5.2l-.4.1c-.2.2-.3.2-.8.1h-.6c-.1.2-.4.3-1.6.3-1 0-1.1 0-1.3-.2ZM117.9 121.5h-.3c-.2 0-.4-.3-.5-.7 0-.4 0-.5.3-.8a20.3 20.3 0 0 1 .7-.5l.2-.1c.1-.2.2-.2.7-.2.5 0 .5 0 .7.2l.1.7c0 .6 0 .8-.5 1.2l-.3.4h-.5c-.5 0-.6 0-.6-.2ZM125 121.4v-.2l-.2-.2-.1-.5c0-.5 0-.5.2-.7l.5-.1c.3 0 .5 0 .7.2l.1.6c0 .4 0 .6-.2.8l-.6.1h-.4ZM63.6 120.9l1-.1 2.7-.1a15.2 15.2 0 0 1 3.6.2 73.8 73.8 0 0 1-7.3 0ZM100.3 120.5l.1-.2.9-.1.8-.1.3-.1h.4c0 .1 0 .2.2.2l.2.2-1.4.1h-1.5ZM121.2 119.7v-.1c0-.1 0-.2-.2-.3v-.5c0-.3 0-.3-.2-.4-.1-.1-.2-.1-.2-.4v-.4h.5l.5.1.3.1c.2 0 .2 0 .2-.2s0-.3.2-.3l.1.1v1.2h-.3c-.1 0-.2 0-.2.2l.1.2h.4l-.1.3-.1.2c0 .2-.2.3-.6.3h-.4ZM115.7 119c0-.2-.1-.2-.6-.2l-.5-.1.4-.2.5.1.5.2.4.1v.1h-.7ZM75.4 118.8c-1.1 0-1.2 0-1.2-.3l-.3-.1h-.5c0 .2-.2.2-1.5.2l-1.4-.1-.1-.1h-1.2.4l.6-.2 2.4-.1H75c0 .2.1.2.9.2l.9.1.1.1v.3h-1.5ZM95.5 117.5l-.4-.1H95c.2 0 .3-.1.3-.2H97.8c.1.2.2.2.8.2h.2-.6l-.2.1-1.3.1h-1.2Z" fill="#040302"/><path d="m94.2 149.8.1-.2.1.1c0 .2-.2.2-.2 0ZM90 146.7l-.2-.5.1-.5.3-.2.4-.2.1-.1.3-.1c.3 0 .3 0 .3.4l-.1.4-.2.2a2.5 2.5 0 0 1-.6.6c-.1.2-.3.1-.3 0ZM89.2 145.4c-.3-.2-.3-.2 0-.2l.2.1v.2l-.2-.1ZM98.4 144.3l.1-.2.2-.1h.1v.2c-.2 0-.1.2 0 .3h-.2c-.1 0-.2 0-.2-.2ZM89 144.2v-1.8h-.2c-.1 0-.2-.1-.1-.2 0-.1 0-.3-.2-.3v-.3l-.1-.2v-.4c0-.2.3-.3.8-.3l.6.1h.1c0-.2 0-.2.3-.2l.2.1.2.1.1.2c0 .1 0 .1-.1 0-.2 0-.3.1-.2.3.3.3.4.8.2.8l-.2.3c0 .1 0 .2-.2.2l-.3.1-.3.3-.2.4v.4l-.2.2c0 .2-.3.4-.3.2ZM99 143.8c0-.1 0-.2.2-.2.1 0 .2 0 .1.1l-.2.2-.1-.1ZM93.8 141.7l-.1-.1c-.2-.2-.2-.4 0-.4.1 0 .3.2.3.4l-.1.2h-.1Z" fill="#876000"/><path d="m93.5 141-.1-.2h-.1v-.2l.1-.1h.2v.1l.1.3c0 .3-.1.3-.2 0ZM86.7 138.9l.1-.7.2-.1h.5V139c0 .3-.1.5-.5.5h-.3v-.6ZM85.3 138.9l-.2-.1h-.2l-.1-.2-.2-.2-.1-.1h.1l.3-.3.1-.3v-.1l.3-.4.4-.2c.3 0 .4.1.4.4l-.1.3-.1.2s0 .2-.2.3v.3c0 .3-.3.5-.4.4ZM107 138.5c-.2 0-.3-.2 0-.2h.5l.2.2c.1 0 .2 0 0 0h-.6ZM84 138.1h-.3a1 1 0 0 0-.4-.2h-.1v-.2l.2-.1c.1-.2.2-.1.2 0 0 .2 0 .2.2.2s.3.1.2.3ZM95.5 137.7s-.1-.2 0-.2l.2-.2s0-.1.1 0h.3c.2 0 .2 0 .2.2l-.1.2h-.7ZM94.7 137.5v-.1h-.5c-.5 0-.6 0-1-.2-.3-.2-.3-.2-.3-.9 0-.4 0-.4-.2-.5h-.2s.2-.2.3-.1v-.1c.2-.1.2-.3.2-.7v-.8l-.2-.5.1-.3.2.1c0 .1.1.1.2 0l.2-.1v-.1l.3-.2h.3c0-.2 0-.2.5-.2h.4v.3c0 .2 0 .3-.5.7-.2.3-.5.5-.6.5-.2 0-.6.6-.6.7 0 .2 0 .2.7.2h.8c.1.2.2.2.3.2l.2.2h.2l.4.6c0 .3 0 .4-.3.6l-.4.2H95c-.2.1 0 .3.1.4l.2.2-.2.1c-.2 0-.3 0-.3-.2ZM81.4 135.3v-.1h.1c0 .1 0 .2-.1 0ZM81 134.8s0-.1 0 0h.2c0 .1 0 .2-.2 0ZM96.4 134.3l-.2-.3v-1.9h.2c0-.2 0-.2.4-.2l.6.1.2.1c.2 0 .7.5.8.8 0 .3 0 .4-.6 1l-.4.4h-1ZM99 133.4c-.5 0-.7-.5-.3-.9l.6-.1h.5l.2.2c.2 0 .2 0 .3.3 0 .1 0 .2-.2.3 0 .2-.1.2-.5.2a4 4 0 0 1-.6 0ZM92.4 131.8l-.1-.3c-.2-.1-.2-.4 0-.6l.4-.2c.1 0 .1 0 0-.2l-.1-.7c0-.7 0-.8.2-1 .2-.2.2-.2.7-.2l.6.1.2.1c.3 0 .5.3.5.8l-.1.5-.2.3-.1.1c-.2 0-.4.3-.4.5l-.1.4-.2.2-.6.3h-.7ZM48.7 131.6l-.3-.1c-.4-.2-.4-.3.1-.3h.2l.2.2c.1 0 .1.2 0 .2h-.2ZM42.2 130.8l-.2-.2v-.5l.2.3.2.2v.4l-.2-.2ZM97.5 130.7l-.2-.2c-.2 0-.5-.3-.5-.4l-.1-.2-.1-.5-.1-.4v-.4l.1.1s.2.1.2 0c0 0 .6 0 .9.2.2.1.3.2.6.1h.4c.2.2.4.2 1 .3l1 .2c-.1 0-.1 0 0 0h.1v.1l-.5.4-.4.3-.2.1-.2.1-.1.2h-1.9ZM102 129.8c0-.2.1-.3.2-.1v.2l-.2-.1ZM75.3 128.3l-.1-.1.2-.1.2.1v.2h-.3ZM38 128.2l-.3-.1-.1-.1.2-.1c.2 0 .2 0 .2.2s0 .2 0 0ZM91.9 128l.1-.3.2-.4c0-.2 0-.2.3-.2h.3l.2.1.1.3c0 .2-.2.5-.4.5h-.2c0 .2 0 .2-.3.2h-.3v-.2ZM37 128l-.3-.2c0-.1 0-.2.2-.2s.2 0 .2.2c0 .3 0 .3-.2.1ZM67.4 127.8l.1-.2h.3c0 .3 0 .3-.2.3l-.2-.1ZM90.7 127.6c-.2 0-.2-.1-.2-.5v-.3h.2c.2 0 .2 0 .2.2l.1.2.2.3c0 .2 0 .2-.2.2h-.3ZM84.4 126.8v-.2.1c.2.1.2.4 0 .4v-.3ZM66.2 126.7c0-.2 0-.2.3 0 .2 0 .2.1 0 .1l-.3-.1ZM74.9 122.5v-.2l.1-.1.1-.3c0-.1 0-.2.1-.1h.1l.2-.4v.5l-.1.2-.1.2-.1.2H75l-.1.2c-.2 0-.2 0-.1-.2ZM99.4 121.9v-.2l.1-.1c.2 0 .2 0 .2.2l-.2.1ZM117.8 119.8c0-.1 0-.2.2-.2l.2-.1.2-.1c.2 0 .2 0 .1.1 0 .1-.1.2-.3.2h-.2l-.1.2-.2.1v-.2ZM123.7 117.6l.1-.3.1-.3h.2l.1.2h-.1v.4h-.2v.1l-.2-.1ZM122.3 117.6h-.1V117.2c.2 0 .2 0 .3.2l-.1.2h-.1Z" fill="#876000"/><path d="M109.8 155.8c0-.3 0-.3-.3-.4l-.5-.2-.2-.1-1.1-.1h-1l-.4.2c-.3.3-.3.3-.6.3h-.4c0-.2-.1-.2-.4-.2l-.4-.1-.3-.1-.3-.1c0-.1-.1-.2-.3-.2h-.3c0-.1 0-.2-.2-.2h-.3v-.2l-.3-.1-.3-.2-.1-.1-.3-.1-.2-.1-.1-.1-.2-.2h-.2c-.2 0-.2-.1-.2-.2l-.2-.1-.2-.1-.2-.1-.2-.1-.2-.2h-.2c0-.2-.1-.2-.3-.2l-.2-.2h-.1l-.1-.2-.2-.1h-.2l-.2-.2-.1-.2H98l-.2-.2-.2-.2-.2-.1-.3-.1-.2-.1c-.1 0-.3 0-.4-.2a.7.7 0 0 0-.4-.1l-.2-.1-.2-.1-.2-.1-.2-.2-.1-.1-.2-.1-.3-.1-.2-.1h-.1c0 .3-.1.2-.2 0l.1-.1.4-.3.3-.2.3-.2.4-.3s.2 0 .3-.2l.4-.3.8-.6.6-.5s.2 0 .3-.2l.7-.5.4-.4s.3-.2.4-.1c0 0 .7-.5.7-.7l.3-.4.2-.4v-.5c.2 0 .3-.1.3-.2h.2c0 .2.3.2.3 0h.5c0 .1 0 .1.1 0h.4l.2-.2.4-.1.5-.1.3-.1.2-.1c0-.1.1-.2.3-.2.2 0 .4 0 .4-.2h.3c.2 0 .2 0 .2-.2s0-.3-.2-.3v-.1l-.3-.1-.2-.1-.2-.2c0-.2-.1-.2-.3-.2l-.3-.1v-.2h.7l.1-.1 1-.2h-2.4v-.6l.2-.2.1-.3v-.2l.2-.2.1-.3.2-.3v-.3l.2-.3h2l.3.2 1.3.2.1.3.1.2c.1 0 .2 0 .1.3 0 .2 0 .2.2.2l.1.2.1.3.1.2c0 .2 0 .2.2.2v.2h.2l.1.2v.2h.2v.2h-1.2c0-.2-.2-.2-.5-.2-.4 0-.4 0-.3.1l.2.3v.2h.3l.5-.1h.3l.5.1c0 .2.2.2.3.2.3 0 .4 0 .4.2.2.1.2.1 0 .2v.6l-.2.1-.1.1-.1.2h-.1l-.2.2-.2.1-.2.1-.4.1c-.2 0-.3 0-.3.2h-.2c-.2 0-.3.2-.3.3h-.2c-.2 0-.2 0-.3.2h-.1l-.1.2-.3.1-.2.1v.1c-.2 0-.2.1-.2.2h-.3c-.2.1-.2.1-.2.3v.2h.2l.3.1c0 .1 0 .2.2.2h.2l.1.2.2.1.1.2h.2c0 .2 0 .2.2.2l.2.1.1.1v.2c0 .2.1.2.2.3l.2.1v.1c.2 0 .2 0 .2.2v.3c.2 0 .2 0 .2.6l-.1.6-.1.1c0 .1-.3.2-.8.2-.4 0-.5 0-.5-.2h-.3c-.3 0-.5-.1-.5-.2s-.2-.2-.6-.2c-.3 0-.3 0-.4.2l-1 .1h-.9c0-.2-.1-.3-.3-.3h-.2c0-.2-.1-.2-.3-.2l-.2-.1-.1-.1-.1-.1c0-.1-.1-.2-.3-.2h-.2c0-.2 0-.2-.2-.2h-.3c0-.2 0-.2-.3-.2l-.4-.1-1.1-.1h-1.1v.1l.2.1.1.2.1.1.2.1.1.1h-.5c-.5 0-.6 0-.8.2h-.4v-.1c0-.1-.1-.2-.3-.2-.1 0-.2 0-.2.2l-.1.2.1.1.2.1.2.1V149.5c.2 0 .2.2.2.3l.1.2.1.2c0 .2.5.7.7.7.1 0 .2 0 .6-.4l.2-.3v-.2l.2-.2v-.3c.2-.2.4-.1.4.1s.3.5.5.5h.3c0 .2.1.2.4.2h.4c0-.2.3-.1.3 0 .1 0 .2 0 .2.2h.2c.2 0 .2.1.3.2v.2h-.2s-.3.2-.3.4v.2c-.2.1-.2.4 0 .7 0 .2.1.3 0 .4l.3.4v.2l.1.3.2.3.1.3.5.1c.4 0 .4 0 .6-.2.1-.1.2-.2.1-.3l.2-.4.3-.5c0-.2 0-.2.3-.2l.4.2h.3l.4.2.6.1c.4 0 .5 0 .6.2h.4c.4 0 .4 0 .5.2l.5.1.4.1.4.1.3.1.3.2h.4l.5.2.3.1.2.2h.2c0 .2.2.2.4.2l.4.1.2.1c.1 0 .2 0 .2.2l-.1.1-.1.1-.2.2c0 .1-.2.2-.5.2l-.5.1-.6.1h-.5v-.2Zm-9.1-9.4v-.4c-.2 0-.2 1 0 1v-.6Zm6.1-4.6-.1-.1h-.2l.1.1h.2Z" fill="#F7BC00"/><path d="M86.3 150.4H86c-.2 0-.2 0-.3-.2h-.1l-.2-.5c0-.4 0-.7.2-.8h.1c0-.2.1-.2.9-.2l.9-.1 1.4-.1 1.4-.1c0-.1 0-.2.3-.2h.3l.3-.2h.3s.1-.2 0-.2l-.1-.1-.3-.1c-.1 0-.2 0-.2-.2l-.2-.1v-.1l-.3-.1-.2-.1-.1-.2H90l.2-.3.1-.1h.3l.1-.1c-.2 0-.2-.1 0-.2v-.1l.2-.3c.2-.1.2-.2.1-.3 0-.2-.1-.2-.2 0h-.2l-.2.2-.3.3c-.2 0-.2.1-.2.2s0 .1-.2 0h-.2l-.1-.2-.1-.2c0-.3 0-.4-.4-.4-.1 0-.2 0-.2-.2l.2-.2.2-.3c0-.3 0-.3-.2-.3-.1-.1-.2-.2 0-.3v-.1l.2-.3v-.4c0-.2 0-.2.2-.3l.3-.3c0-.2.1-.2.3-.2l.2-.1v-.3c.3-.2.3-.2.4 0 .2.2.3.3.3.5l.1.2.2.2c0 .1 0 .3.2.3l.1-.3c.2-.2.2-.5 0-.6l-.1-.3-.2-.4a1 1 0 0 1-.3-.3l-.5-.3-.1-.1-.2-.1v.2c.1.1.1.1 0 .2H90c0-.2-.3-.2-.8-.3-.3 0-.5 0-.5.2v.5l-.1.3v-.3c0-.1 0-.2-.2-.2l-.1-.1-.1-.1-.3-.3h-.1l-.1-.2-.1-.1-.2-.2-.2-.2H87l-.1-.2-.1-.1-.3-.1-.2-.1-.2-.2v-.1h-.3l-.2-.2-.1-.1-.1-.1-.1-.2v-.1l.2-.4v-.3l.2-.3.1-.2c.2-.1.1-.2 0-.2h-.3l-.2.4-.1.2-.2.5h-.4c0 .1 0 .1 0 0l-.2-.1-.2-.1-.3-.1-.3-.1a1 1 0 0 1-.3 0v-.3l.2-.1-.1-.2h-.2l-.1-.2-.1-.2-.2-.1v-.1l-.2-.1-.1-.1-.1-.1-.1-.2h-.1l-.2-.2c-.2 0-.2-.1-.2-.3v-.2c-.2 0-.2-.1-.2-.2l.1.1.2.2s.3 0 .5.2l.5.2.2.1h.3l.6.1.3.1.3.1.3.1.3.1.3.2.3.1h.3l.3.2.2.1.2.1.3.2.3.1.1.1.3.2a34.3 34.3 0 0 0 1.3 1c.4.4.5.4.5.3l-.2-.2v-.2l-.2-.2v-.2c0-.2-.3-.5-1.5-1.6-.9-1-1.3-1.3-1.4-1.3l-.3-.1v-.1l-.2-.2-.3-.1-.3-.2-.3-.3v-.7l-.4-.3-.4-.3-.4-.3-.4-.2h-.4c0-.2-.2-.2-.6-.2-.5 0-.6 0-.7-.2h-.2c-.3 0-.3-.2-.3-.4 0-.1 0-.2.4-.6l.5-.6.3-.4.2-.3.2-.4.3-.3c0-.1 0-.3.2-.4l.3-.4v-.2l.2-.3.1-.2.1-.2.1-.2.2-.3c0-.2 0-.3.3-.3v.2c0 .4.3.4.8 0 .4-.2.4-.3.4-.7 0-.3 0-.4-.2-.4l-.2-.1-.3-.2h-.2v-.4c0-.4 0-.6.2-.8v-.7l-.2-.4v-.3l-.2-.2-.2-.4c-.2-.2-.3-.4-.1-.4h.1c.1-.1.2-.2.7-.1.5 0 .6 0 .7-.2h.5l.4-.2.3-.1.4-.1.2-.1c.1 0 .2 0 .2-.2h.3a8 8 0 0 0 1.9-2l.1-.2.1-.4v-.3h.2l.3.1.4.1.2.1.2.1c0 .1.1.2.3.2h.2c0 .2.2.2.3.2.1 0 .2 0 .2.2h.4c.3 0 .3 0 .3.2l.2.1.3.1.3.1.4.1c0 .1 0 .2.3.2h.4c0 .2 0 .2.2.2h.3v.3l-.1.7a5 5 0 0 0-.1 1.7v1.5c.2.1.2.2.2.6l.1.7.1.6v.5h-1c-.1-.2-.3-.2-.6-.2l-.4-.1-.4-.1-.5-.1-.5-.1c-.2 0-.3 0-.4-.2h-.4l-.4-.2-.5-.1c-.4 0-.4 0-.6.2l-.1.4.1.5h.1l-.2-.4v-.3h.3c.3 0 .6.1.4.2l.1.2.3.2h.3c.2.2.4.2.5.1 0-.1.1 0 .2 0l.3.2c.2 0 .2 0 .2.2v.1c-.2 0-.2 0-.2.2l-.2.3c-.2.2-.2.2 0 .2h.2l.1-.2c.2 0 .5-.2.5-.3h-.1l-.1-.1h.8l.3.2h.3l.4.2.3.1.4.1.2.2c.2 0 .2 0 0 0v.1l.3.1.5.2s.2 0 .3.2c.1.1.2.2.2.5l.1.4c0 .1.1.2 0 .2l.5.5h.3c0 .2.2.2.7.2l.8-.1.1-.1.2-.1.2-.2.4-.3.4-.3.3-.1.7-.1c.7 0 .9 0 .7.1v.4c.2.2-.4 1.1-.8 1.1-.2 0-.4.3-.4.4l-.1.3-.2.2h-.9l.4.1h.3v.6l-.2.3-.1.2-.1-.1-.2-.1c-.1 0-.3 0-.3-.2-.1-.1-.5-.1-.7.1l-.2.2.1.2.6.1h.5c.1-.2.1-.2.1.2v.5c-.2.1-.2.2-.2.6l-.1.6c-.2.4-.2 1.4 0 1.6l.1 1.2v1h.2l.2-.2.5-.4v-.3l.2-.2.1-.2.1-.6.1-.8.1-.8c0-.5 0-.6.2-.8v-.3h1c.2 0 .3 0 .4-.2l.3-.1.1-.2.4-.4.2-.5v-.3l.2-.1-.3-.3c-.2-.3-.3-.3-.5-.3h-.1l-.2-.2-.2-.1.4-.5.4-.4c0-.1 0-.2.2-.2l.1-.2.4-.5c.2-.2.5-.5.5-.7l.3-.4.2-.3.1-.2c.1-.1.1-.1 0-.2v-.2c0-.2-.4-.4-.5-.4l-.2-.2H103.4l-.4.2h-.5c-.1.2-.1.2-2 .2l-2-.1-.8-.1c-.4 0-.5 0-.6-.2h-.9v-.6c.2 0 .2-.1.2-.6l.1-.7.1-1v-1c0-.3.1-.4.2-.4l.2.1.3.1.4.3c.2.3.2.3.5.2l.3-.1c.1-.2.2-.2.2 0l.8.9c.2.2.3.2.5.2l.3.1.4.1c.3 0 .4 0 .5.2h.4c.3 0 .4 0 .4.2l.1.2.2.3.2.4.3.3h.7l.3-.3c.2-.1.3-.3.3-.4l.2-.2c.2-.1.3-.2.3-.5l.5-.1h.6c.1.2.7.2.9 0h.4l.4-.2h.3l.3-.2.3-.1c.1 0 .2 0 .3-.2l.3-.2.4-.4.7-.5c.3-.2.5-.4.5-.6l.1-.2.2-.4v-.3h.5v.6l.1.3c0 .4 0 .4.5.4.3 0 .5.1.5.3l.3.4.5.3h.3c.1.2.2.2.4 0l.2-.1s.4-.3.4-.5c0 0 0-.2.2-.3l.3-.4.1-.1.3-.2h.3l.2-.6c0-.3 0-.3-.2-.5s-.2-.3 0-.3l.2-.1.3-.2.3-.1.2-.1.3-.3c.2-.2.3-.2.5-.2.3 0 .4 0 .2.1l-.2.3-.2.4c0 .3.3.6.5.6h.2c0 .2.1.2.5.2h.3l.4-.3c.4-.4.5-.7.5-1.1 0-.3 0-.4-.2-.5-.2-.2-.2-.2-.6-.2h-.4c0-.2.2-.4.3-.4l.2-.2.3-.1.2-.1.2-.1.2-.1.3-.2.2-.1.2-.1h.2s0 .2.2.2l.1.5.1.4.1.3c0 .1 0 .2.2.2s.4 0 .5-.2l.2-.3.2-.3-.1-.2v-.6l-.1-.5v-.2c.2-.2.3-.2.5-.2l.4-.1.1-.2.3-.1.3-.1.2-.1c.1-.2.5-.2.4 0l-.1.3-.2.3-.1.3-.1.7c0 .4 0 .4.2.6.2.3.2.4-.1.4-.2 0-.3 0-.6.3l-.5.4-1 1s-.1.3-.4.5l-.5.6-.2.4c-.2.1-.3.3-.3.4 0 0 0 .2-.2.3l-.2.4-.1.2-.2.2s0 .2-.2.3l-.2.4-.3.4c-.2.3-.3.3-.5.3l-.4.1-.9.1h-2c-.4 0-.5 0-.5.2l-.2.1-.2.1-.2.1s-.2 0-.3.2l-.2.1c-.5 0-.7 0-.9.2-.2.2-.2.2-.2.6l.1.6c.1.1.2.2.1.6l-.1.5-.1.5-.1.5c-.1 0-.2.2-.2.5l-.1.6c-.1.2-.2.3-.2 1.4 0 1.2 0 1.2.2 1.4l.1.4.1.3c.1 0 .2 0 .2.3 0 .2 0 .3-.2.3l-.1.1-.2.1-.3.1-.2.2h-.3c0 .2-.1.2-.2.2l-.2.1-.3.1-.3.1-.3.2h-.3c0 .2-.2.2-.4 0l-.7.1-.3.1c-.2 0-.3 0-.4.2h-.2v.1l-.3.3-.8.1-.6.1-.4.2h-.4l-.2.2-.2.1-.3.1a7 7 0 0 0-1.8 2l-.3.3v.3l-.2.3-.3.3-.2.4-.2.3-.3.4a7.4 7.4 0 0 1-2 1.8l-.3.3c-.2.2-.3.2-.2.3l-.1.1h-1c0-.1-.3-.2-.6-.1-.3 0-.4 0-.5.2-.2.2-.3.2-.3 0h-.4l-.5-.1c-.1-.1-.2-.2-1.2-.2l-1.2-.1-.6-.1h-.5v.4c0 .3 0 .4.2.5v.8h.4l.6.1.3.1v-.1c.2-.3.4-.3.7 0 .4.1.6.3.4.3l-.1.1-.2.2c-.4.2-.4.5-.2.7l.1.3.1.2h.2l-.2.2-.2.2h-.2c0 .2-.2.2-.2.2l-.3.1-.2.1-.2.1-.3.2-.2.1-.3.1s-.2 0-.2.2h-.4l-.2.1-.5.2h-.3l-.3.2h-.4c0-.2-.3-.2-.4 0H89a1 1 0 0 0-.6.4l-.6.1-.6.1-.6.2-.3-.1Zm7.2-7.6h.2l.3-.5-.1-.3-.1-.2v-.3h-.1l-.1-.1v-.4c0-.2 0-.2-.2-.2 0 0-.1-.2 0-.2v-.2c.2 0 .3 0 .3.2h.2c.2 0 .2.1.3.2l.2.1.2.1.1.2.2.1.2.1.2.1.3.1c.1 0 .2 0 .2.2h.2v.2l.4.1.3.1.7.1h.6l.2-.2.1-.1.1-.1c.1 0 .2 0 .2-.3v-.2c.2 0 .2 0 .2-.2l.1-.3.1-.1v-1.4l.1-1.3.1-.3v-.4h-.9a3 3 0 0 0-.8 0l-.2.1s-.2 0-.3.2h-.7l-.3-.1c.1-.2.1-.2 0-.2h-.3c0-.2 0-.3-.3-.3l-.2-.1.2-.4c.2-.2.3-.3.3-.5v-.2h-.1c0 .2 0 .2-.2 0h-.1l-.2-.2H95l-.3-.2c-.1-.2-.2-.2-.8-.2H93v-.3c0-.2 0-.3.3-.5l.4-.3c.3 0 1.2-1 1.1-1.1 0-.2-.5-.1-.6 0l-.2.1-.3.1v.1l-.2.2h-.2l-.3.2-.1.1v-.8c0-.3 0-.4-.2-.5l-.1-.3c-.1-.2-.7-.4-1.1-.4l-.6.1-.2.2v.5l.1.6.1.5.1.4.2.2v.3c.2 0 .2.2.2.2l.2.4c.2.1.3.3.3.4v.1h.6l.3-.1c.2-.1.2 0 .2.5v.6l.5.2c.3.2.4.2.7.2h.5c0-.1.1-.1.1 0 0 .2.1.3.2.3l.1.1c0 .2 0 .3-.3.3-.2 0-.2 0-.2.2l-.1.3-.1.2-.1.2-.1.1-.2.2-.2.2-.1.1-.2.1v.2h-.2l-.1.1-.1-.4c0-.2 0-.2-.3-.2l-.3.1-.2.1-.4.3v.5c0 .2.1.3.2.3v.4l.1.4.2.2v.3l.2.2.8.9h.1Zm6-1.5v-.3H99v.3c0 .3 0 .4.2.3l.2-.3Zm-12.3-2.1c.2-.2.2-.2 0-.3l.1-.3v-.3c0-.1 0-.1 0 0H87v.6c-.1.3 0 .4 0 .4l.2-.1Zm10.4-5.4c.4-.5.6-.7.6-.9l-.7-.6h-.3c0-.2-.2-.2-.4-.2l-.3.1v.1h-.1v.2l-.1.6.1.7c.2.3.3.4.5.4l.7-.4Zm-8-1.6.4-.8-.5-.5h-.2c0-.2-.2-.1-.5.1l-.2.6c0 .3 0 .4.2.5.2.3.4.3.7 0Zm3.4-.5.1-.1.2-.2h.2l.1-.2V131.5l.2-.2c.2-.1.2-.1 0-.1V130.6l.4-.3h.1l.2-.3.1-.4c0-.3-.2-.6-.4-.6l-.3-.1-.4-.1-.5.1c-.2.3-.2.4-.2.9v.4l.2.3c.3.3.3.4 0 .4s-.3 0-.5.2l-.1.1v.2c.2.1.2.2.2.3 0 .1 0 .1.1 0h.3Zm6.2 0-.2-.1c-.1 0-.1 0 0 0h.2Zm-1.4-.5H97.5h.2s.1 0 0 0Zm-.8-.3H97s-.1 0 0 0v.1h.1Zm-.9-.1-.5-.1h-.7.4c.4 0 .5 0 .5.2h.1l.2-.1Zm12.3-2.4.2-.3s0-.2.2-.3l.3-.4.1-.3c.2-.2.1-.3-.1-.6s-.2-.3-.4-.3l-.4-.1-.4-.1c-.3 0-.4 0-.6.2-.4.4-.4.5-.2.7v.5c0 .5 0 .6.4.9.2.2.3.2.5.2l.4-.1Zm-17.6-1v-.3h-.1v.3c.2.1.2 0 .1 0ZM99 148.6v-.2c.2 0 .3.1.3.2.1.3 0 .3-.2 0Z" fill="#F7BC00"/><path d="M95.4 146.8c0-.2-.3-.6-.4-.6 0-.2.6-.1.8 0 .3.2.2.7-.2.7l-.2-.1ZM89.8 146.4l.1-.1c.1 0 .1 0 0 0v.2-.1ZM102.3 142c0-.3 0-.3.3-.6.2-.2.3-.3.5-.3 0 0 .1 0 0 0v.2l-.8.8v-.2ZM90.2 141.4c-.1-.1 0-.2.2 0 0 .1-.1 0-.2 0ZM53 133.8l.4-.2v.1c.1.2.1.2-.2.2l-.2-.1ZM56.5 133.9l.2-.2v-.2l.2-.2c.1-.2.1-.4 0-.4l.1-.1.5-.2h.7c.2-.2.3-.2.6-.2l.4-.1.6-.2h.5l.5-.2.5-.1.5-.1.4-.1.5-.1c.4 0 .4 0 .5-.2h.4l.4-.2.4-.1.4-.1c.2-.2.7-.2.7-.1l.1.2.1.1.1.3.2.1h-.2l-.1.1-.3.1c-.1 0-.2 0-.2.2H65c-.2 0-.3.1-.3.3h-.3c-.1 0-.2 0-.3.2h-.3c-.2 0-.2.1-.3.2l-.2.1h-.2c0 .2-.6.1-.7 0-.2-.3-.6 0-.7.4v.3h-.5l-.5.1-.6.1c-.7 0-.9 0-.9.2h-2.7ZM49.7 133.1v-.2c.2 0 .3-.2.1-.3a2 2 0 0 1-.3-.5c0-.1-.3-.4-.5-.4l-.4-.3H48l-.5-.1-.4-.1c-.2 0-.3 0-.5.3l-.3.3v1.1h-.2c0-.2 0-.2-.5-.2l-.6-.1-.5-.1-.5-.1c-.1-.1-.2-.2-.5-.2H43V131.3l.2-.1.6-.5c.8-.7.7-.7 1.2-.7l.5.1.6.2h.6c0 .2.2.2.9.2l1 .1 2 .1 1.6.1.4.1h.4c.2-.2.3-.2 1.7-.2h1.6v.2c0 .3-.3.4-.8.4-.4 0-.5 0-.5.2h-.5l-.6.2a1 1 0 0 1-.5 0l-.4.2c-.2.2-.2.2-.5.2h-.4c0 .2-.1.2-.3.2l-.4.1-.3.1-.3.1-.3.2-.6.3-.2.1h-.1ZM41.9 131.9c0-.1-.2-.2-.5-.2H41c-.1-.2-.2-.2-.4-.2l-.4-.1-.3-.1-.3-.1-.2-.1c-.2 0-.2 0-.3-.2H39c-.2 0-.3-.1-.3-.2l-.1-.1.1-.2.2-.4.2-.3c.2-.2.2-.5-.1-.7a2 2 0 0 1-.3-.4l-.4-.2-.3-.2-.4-.1-.5-.1v-.2h-.4l-.6.2a2 2 0 0 0-.4 1c0 .2-.1.2-.2 0h-.2v-.6c0-.6 0-.9.3-1l.9.1h.2l.1.1.5.1.6.1.5.1.4.1c.1.1.2.2.5.2h.3v.3l.5.5v-.2c.1-.2.1-.2.5-.2l.4.1.4.2h.3l.2.2.1.6.2.4v.2l.2.2.1.3c0 .2 0 .4.2.4v.8h-.3l-.4-.1ZM67.8 130l-.3-.2.2-.1.2-.2.3-.2h.2l.2-.2.5-.3.2-.2 1-.8.1-.1c.2 0 1-.7 1.1-1 0-.2.2-.3.3-.4l.1-.3.2-.3.3-.4c0-.2.1-.3 1.2-1.5a9.1 9.1 0 0 0 1.6-1.8l.1-.3v-.2l.2-.3.1-.5-.1-.6c-.2-.2-.2-.2-.1-.3h.2v-.2h.2l.1-.2.1-.1.2-.2.2-.1.2-.2h.2c.2 0 .2-.1.2-.2l.5-.1.3-.1.4-.2h.4c0-.2.2-.2.4-.2h.5c.2-.2.7-.3.8-.2v1.4c0 .8 0 1 .2 1v.5l.2.4.2.2.1.2.1.2-.4.1-.2.1-.3.2H80l-.2.2-.2.1-.3.1-.2.1c-.2 0-1 .9-1 1v.2c-.2 0-.2.2-.2.3l-.1.2-.1.2s0 .2-.2.3v.1h.2c.2 0 .2 0 .2.2l-.1.2-.1.2-.3.4c-.6.5-.7.7-.7.8l-.2.3c-.2.1-.3.3-.3.4 0 0 0 .2-.2.3l-.2.3-.1.3c-.1.1-.1.1-.2 0H74c-.2-.2-.3-.2-1.1-.2l-1.2.1-.4.1c-.3 0-.5.2-.8.5l-.2.4-.1.3-.3.1-.1.1c0 .1-.1.2-.4.2h-.3c0 .2 0 .2-.2.2l-.3.1-.3.1h-.3s-.2 0-.3-.2ZM62.6 129.5c0-.2.1-.4.4-.4l.2-.1.2-.2c.2 0 .5-.2.7-.5l.2-.1 1-.8 1-.8h.2l.2.3.3.5.5.3h.2l-.4.4-.2.1-.2.1-.3.1-.2.1-.3.2H66l-.3.2-.3.1-.4.1-.4.1-.3.1-.4.2h-.5c0 .2-.1.2-.4.2h-.3v-.2ZM37.8 126l.1-.1h.2v.2H37.9ZM35 126c-.1-.1-.1-.1 0-.2 0-.1.1-.2.4-.2h.3c0 .3-.4.5-.7.3ZM36.2 125.9v-.2l.5-.1h.6v.2l.2.1H36.2ZM82.7 124.4l-.4-.3c-.2 0-.3-.1-.3-.4 0-.2 0-.3.5-.3.4 0 .5 0 .6.2.4.4.5.5.5.7 0 .4 0 .4-.3.4-.2 0-.3 0-.6-.3ZM99.4 121.8l.1-.1.3-.1h.4l.1.2h-.9ZM127.6 118.3l-.2-.1-.5-.5v-.1c-.1 0-.2-.2-.2-.6v-.6l-.2-.3c0-.1 0-.2-.3-.2l-.2-.2-.1-.1.1-.3c.2-.1.3-.1.4 0h.3v.2l.2.1.2.1v.1l.2.2v.2c0 .2 0 .5.2.5v.5c0 .6.1.6.2.6l.1.3v.3l-.2-.1Z" fill="#F7BC00"/><path d="M111.7 155h-.4l-.3-.1-.3-.2-.2-.1-.3-.1-.5-.2h-.4l-.2-.2-.4-.1-.3-.1-.5-.1-.5-.1c0-.1-.1-.2-.4-.2h-.5c0-.2-.2-.2-.6-.2l-.6-.1-.3-.2h-.4l-.3-.2c-.2 0-.2 0-.2-.3l-.1-.3c-.2-.2-.2-.4-.1-.4v-.2c0-.3 0-.4.2-.2l.3.1c.3 0 .4 0 .4.2h.4c.4 0 .5 0 .5.2l.5.1.4.1.5.1.5.1c0 .1 0 .2.5.2h.4c0 .2 0 .2.5.2l.5.1.4.1c.4 0 .4 0 .5.2l.4.1.3.1.4.1.3.1c0 .1 0 .2.3.2h.2v.2c.2 0 .2 0 .2.5l-.1.5-.1.1c0 .2 0 .2-.3.2l-.3-.1ZM100.2 150.4l-.3-.2c-.2 0-.5-.2-.5-.4v-.2c-.1 0-.1-.1 0-.2l-.1-.5-.1-.3c0-.1 0-.2 0 0l.2.1.2.1.1.1.1.2h.1l.1.2h.2v.2l.4.2h.2l.1.2.1.1.2.1.3.1c0 .2-.2.3-.7.3l-.6-.1ZM79.6 149.6h-.3c-.3 0-.4-.1-.4-.3 0-.1.2-.2.3-.1h.5l.4.2.5.1.4.1h-1.4ZM107.7 149.6l-.1-.2h.6l-.2.2h-.3ZM104.2 149l.2-.2v-.2l.2-.2a8 8 0 0 1 1.6-1.7h.3c.2-.2.6-.3.7-.2l.2.1h.2-.3l-.3.2-.3.1s-.2 0-.2.2h-.3c-.1 0-1.2 1.1-1.2 1.3 0 0 0 .2-.2.3l-.2.4-.2.1h-.3l.1-.1ZM100.6 147.6v-.2l-.1-.3c-.2-.2-.2-1.1 0-1.3v-.2l.4-.7.2-.3s.1-.3.5-.6l.5-.5h.6l-.2.2-.3.2-.4.3-.2.2v.1c0 .2-.1.3-.3.4l-.2.4s0 .2-.2.2v2c.1 0 .2 0 .2.2h-.5ZM95.7 146.7v-.1c.1 0 0-.1 0-.2-.2-.2-.3-.2-1-.2h-.5l-.3-.2-.3-.1v.1l-.4.2H93l-.6-.2-.3.1-.5.2h-.4c-.1.2-.8.2-.8.1l.2-.2.8-.2c.2 0 .4-.2.5-.5l-.1-.4c-.2-.1-.2-.2-.2-.5v-.4c-.3-.3-.2-.3.6-.3l.8.1 1.3.1c1 0 1 0 1.1.2l.4.1.4-.2.2-.2-.2-.2a35.4 35.4 0 0 1-2.7-3l-.1-.3h.3l.2.4.3.4.1.2.9 1 .9 1h.2c.2.2.4.2.7-.1.2-.2.3-.3.3-.6s.2-.5.3-.5c.1 0 .2 0 .2.2l-.1.4-.2.3-.6.7c-.4.5-.6.6-.5.7 0 0 0 .2-.2.2l-.3.2c-.2.1-.2.2-.2.5l.2.6.3.3.2.1c.2 0 .4-.2.5-.3l.1-.2c.2 0 .4-.2.3-.3l.1-.1.1-.7v-.5H98.4l.4.1.2.4v.3l.2.3.2.2c.2.1.2.2 0 .3 0 .1 0 .2-.2.3l-.4.1-.4.1-1.4.2h-1.3ZM89.8 146.3v-.1c-.2 0-.2-.2 0-.2s.2 0 .2.3c0 .2-.2.2-.2 0ZM87 145.2h-1.7l-1.6-.1c0-.1-.1-.2-.6-.2h-.6 2.9a32.3 32.3 0 0 1 3.3 0h.3v.4h-2ZM102.8 143.4l.2-.1c.2 0 .2 0 0 .1h-.2ZM90.8 142.4l-.3-.2-.2-.2h.1c.1-.2.2-.2.2-.1l.1.1v.1l.1.1.1.2h-.1ZM105.3 142.1l.1-.2.5-.1c.1 0 .3 0 .3-.2h.6c.4 0 .6-.1.6-.2l-.3-.2c-.2-.1-.3-.2-1.1-.2l-1 .1-.2.2h-.9l-.4-.1c-.3 0-.4 0-.5.2-.2.1-.3.1-.3-.2 0-.1 0-.2.2-.3l.2-.3v-.1h.3l1.8.1 1.7.1.8.1.7.1c0 .1.2.2.5.2l.5.1.2.2.1.1.1.1.1.2v.3c.2 0 .2 0 0 0l-.5-.1c-.2 0-.3 0-.4-.2-.2-.2-.3-.3-.5-.1h-.6c-.5 0-.6 0-.8.2a1 1 0 0 1-.5 0c-.3 0-.6.2-.6.3h-.7ZM88.1 141.3v-.1l-.2-.1-.1-.2h.5l.2.1s.1 0 0 .1l-.1.2H88ZM93.1 139.9v-.7h.2v.6h-.1c0 .1 0 .1 0 0ZM75.2 138.6h.6-.6ZM76.5 138.4h.7c.7 0 .7 0 .8-.2h.8c.7 0 .7-.1.8-.2l1-.1 1-.1h2v.2h-1l-1 .1-1.2.1a5.3 5.3 0 0 0-1.5.2h-2.4ZM94.9 137.7c.1-.2.2-.2.4-.2h.7c.1 0 .1-.1 0-.2l-.1-.3-.1-.4-.1-.2-.1-.3-.2-.6-.1-.3c-.1-.1-.2-.2-.2-1.5 0-1.4 0-1.4.2-1.5v-.4l.2-.3c0-.1.2-.3.1-.5h-.9l-.3.2-.6.5c-.4.4-.5.5-.5.7l-.2.4v.3l-.2.4v-1.1l.1-.3.3-.3.2-.3c0-.2.4-.6.5-.6h.2l.2-.2.3-.1.7-.1h.6l.4-.4.5-.4c.2 0 .1.2-.2.5-.4.4-.4.5.1.5l.5.1.4.1c.1 0 .2 0 .3.2h.4l.3.2.4.1.3.1.6.1h.6v-.1c.3 0 .2.5 0 .6-.2.2-.2.2-.2 0h-.3l-.5-.1-.5-.1a1 1 0 0 1-.4-.2h-.2l-.3-.2-.4-.1-.5-.1-.3-.1-.4-.1-.2-.2c-.2 0-.5.3-.5.5l-.1.2-.1.5c0 .2 0 .3-.2.4v2.2c.1.1.2.2.2.5v.5c.2 0 .2 0 .2.3l.1.4.1.2.1.2.1.4c0 .2 0 .3.2.4.1 0 .1.1 0 .1l-1 .2h-.8l.2-.2ZM60 136.9c-.1 0-.1 0 0-.1l.7-.1.8-.1 2-.1h2-1c-.9 0-1.1 0-1.3.2l-.7.1h-2.6ZM112.5 135.3l-.3-.5c.2-.1.2-.4 0-.4v-.3l-.2-.4-.1-.1v-1.4l.1-1.5.1-.6c0-.4 0-.5.2-.6v-.4c0-.3.1-.4.2-.5l.1-.4.1-.3c.1-.1.1-.1.1 0 0 .3.4.7.5.6l.2.1c.1.2.1.2.3 0 .3-.2.4-.3.4-.5s.1-.2.3-.2c.2 0 .3-.1.2-.4l.1-.3c.2-.2.2-.3 0-.6l-.3-.1-.2-.1c0-.2-.2-.2-.4-.2a1 1 0 0 1-.3 0l.4-.4s.2 0 .2-.2h.2l.2-.2.6-.1.7-.1H118l.4-.2c.2 0 .3 0 .5-.3.2-.1.3-.3.3-.4l.3-.3.2-.4v-.2c.2 0 .2-.1.2-.2l.2-.4c.2 0 .3-.2.3-.3l.2-.4.3-.3.4-.6.5-.5c0-.2.8-1 1-1l.4-.4c.3-.3.4-.4.6-.4h.3c0-.1 0-.1.1 0H126c0 .2.2.2.3.1l.2-.1.2-.1c.1-.2.2-.1.3.1l.4.5c.3.3.3.3.2.4h-.2c-.3 0-.3 0-.4.2 0 .1 0 .2.3.5.4.4.4.5.4.7v.5c.2.1.2.2.2.4s0 .2.4.6l.6.4.3.3c.2.2.2.2.3 0H129.8c.1 0 .2 0 .3-.2l.2-1.1v-.9l-.3-.3-.6-.5-.4-.2-.3-.1h-.2c-.1-.1-.1-.2 0-.2.2-.2.2-.6 0-.7l-.2-.3-.2-.1h.2l.3.1.2.1s.2 0 .2.2h.1l.2.2v.1l.2.1.1.1.1.1.2.2.2.2.1.1.1.1.1.2.1.3.1.7v.6h.1l.2.2.4.4v.1l.3.1c.2 0 .2 0 .2.2l.1.3c.2 0 .2 0 .2.2v.2c.3.1.3.2 0 .2s-.3 0-.6.3l-.4.4-.2-.1-.2-.1h-.1v-.1c.4 0 .5-.1.5-.3 0-.2 0-.2-.3-.2l-.2-.1-.1-.1-.2-.1c0-.2-.3-.2-.3-.1h-.3l-.2.1s0 .2-.2.3h-.4l-.3.1c0 .2-.2.1-.2 0l-.1-.3-.1-.3-.3-.3-.2-.4c0-.1-.7-.9-.9-.9 0 0-.2 0-.3-.2l-.4-.2-.2-.1c-.2-.1-.2-.2 0-.3.3-.4.2-1-.3-1.2l-.5.1c-.2.2-.2.2-.2.5v.3l.2.2h-.7l-.8.9a5 5 0 0 0-1.1 1.3l-.3.3v.3h-.4c-.3 0-.3 0-.6.3l-.3.4v.6c.2 0 .2.1.2.3 0 .2-.2.3-.7.8l-.7.6-.6-.1-.6.1-.2.4-.6.2h-2.2l-.2.2c-.1 0-.4.3-.4.5l-.1.3-.1.2c0 .2 0 .2-.4.2l-.5.1-.3.2s-.2 0-.3.2c-.3.2-.4.3-.3.4l-.1.1v.2l-.2.3-.1.4-.1 1.1.1 1.2.1.4c0 .2 0 .3.2.3v.3l.2.2.3.4.3.3.3.2-.2.1c-.1.2-.2.2-.6.2h-.6ZM66.5 134.3h.8l.8-.1.8-.1h.7l.6-.1.6-.1h.4l.3-.1h1.9c1.9 0 2 0 2-.2l1.5-.1c1.8 0 2.4 0 .8.1-1 0-1.2 0-1.3.2H74l-2.4.2-1.3.1-1.5.1c0 .1-.2.2-1.2.2h-1ZM51.2 133.9l-.2-.2h-.8c-.7 0-.8-.1-.6-.4.2-.3.7-.7.9-.7l.2-.1.3-.1c.2 0 .3 0 .3-.2h.4l.4-.2c0-.1.2-.2.4-.1.2 0 .3 0 .5-.2h.5c.3 0 .4-.1.5-.2l.4-.1.5-.1.5-.1c.3 0 .4 0 .6-.2l.2-.1H56c-.2 0-.2 0 0-.1h.4l.5-.2s.2-.1.2 0h.2l.7.1.6-.1.3-.1.3-.2c.2-.2.3-.3.5-.3h.4c.1-.2.2-.2.5-.2l.5-.1c.1-.2.2-.2.5-.2l.6-.1.4-.1c.3 0 .4 0 .3.2-.1 0 0 0 0 0l.3-.1v-.1l-.2-.1.2-.1h.1c0 .2 0 .2.3.2l.4-.1.4-.1c.1 0 .3 0 .4-.2h.3l.4-.2.2-.1.3-.1.3-.2h.2l.3-.2h.2l.2-.2h.1c0-.2.2-.2.3-.2l.2-.1.3-.2.2-.1.4-.2h.3c.1-.2.2-.2.4-.2l.3-.1.3-.1.2-.1v-.2l.3-.1.2-.1.2-.1s.2-.1.2 0l.1-.1.4-.4.5-.4h.2v-.2l.3-.1c.2-.2.3-.1 0 0v.5c0 .2 0 .3-.3.5l-.2.3s0 .2-.2.3l-.2.3c-.2.4-1 1-1.1 1l-.2.2a4.1 4.1 0 0 1-1.2 1l-.4.3-.3.1-.2.1-.2.1-.3.2c-.1.1-.1.1-.2 0h-.3l-.2-.2h-.4l-.5-.2h-.4c0 .1-.2.2-.3.1l-.2.2v.2c.2.2.2.2.2.6 0 .4 0 .4-.2.4-.1 0-.3 0-.3.2h-.4l-.4.2-.5.1-.3.1-.5.1-.5.1-.4.2h-.5l-.5.2-.5.1-.6.1-.6.1c0 .1-.2.2-.4.1a1 1 0 0 0-.6.2l-.6.1-.5.1h-.3c-.2-.3-.4-.5-.3-.6 0-.1-.1-.2-.3-.2l-.2-.1-.4-.1a1 1 0 0 1-.6-.1l-.7-.2c-.3 0-.4 0-.5.2l-.3.3-.1.9v.7l-.2.1h-2.1ZM78.6 133.3h-.2c-.3 0-.3-.1-.3-.2l-.1-.2h-.2c0-.2 0-.2-.2-.2l-.3-.1v-.1l-.2-.1-.2-.2s0-.2.3-.4l.3-.4v-.2l.2-.2c0-.1 0-.3.2-.3v-.8h-.1l-.2-.3-.5-.5-.3-.2a.8.8 0 0 0-.3-.1h-.1l-.6-.3h-.3l-.1-.2.1-.2.1-.2.2-.3.3-.4.2-.4.2-.3.7-.8c.3-.3.4-.3.2-.4l-.1-.4v-.3l.2-.2.1-.3.1-.2.1-.2.1-.3 1-1h.2l.3-.2.2-.1.2-.1.3-.1.3-.2h.2l.2-.2.4.2c.1.2.2.2.3.2.1 0 .3 0 .4.2h2.3l.4.2.2.4.1.2c.2.1.2.2.1.4l.1.3c.2.1.2.2.2.5l-.1.6c-.1 0-.2.2-.2.5v.5H85l-.3.2-.2.3v.5c.2.1.2.3 0 .4v.3l-.2.2-.1.2-.1.3-.1.2-.1.2-.2.2c0 .1 0 .3-.2.4l-.3.4-.2.4-.2.3-.2.3c-.2.2-.3.3-.3.5l-.6.6c-.3.4-.4.4-.3.5v.3c-.2.2-.3.2-.5.2h-.5c-.1.2-.2.2-.3.2l-.1.1c-.1.1-.2.2-.5.1-.3 0-.4 0-.5.2-.2.1-.2.2-.3.1Zm4.8-8.8-.1-.4c-.4-.4-.5-.5-.8-.5-.2 0-.4.1-.3.2h.2l.5.4c.4.4.4.4.5.3ZM101.5 129.8l-.2-.3-.2-.1h.7c.1 0 .1 0 0 0h-.2v.2c.2.1.2.2.1.3l-.2-.1ZM96 128l-.2-.2-.1-.4c0-.2 0-.3-.2-.3 0-.2-.1-.5 0-.4.2 0 .2-.5 0-.8v-.7c0-.4-.1-.5-.2-.7l-.1-1.6.1-1.9.1-.5.1-.3c.1 0 .2 0 .2.4v.7l.2.3c0 .3.6 1.2.9 1.3l.1.2-.1 1.4-.1 1-.1.7c0 .4 0 .5-.2.6v.2h.2v.9l-.3.1h-.4Z" fill="#DF5980"/><path d="m130 126.1-.4-.4-.1-.3c-.2 0-.2-.3 0-.4l.4-.4.2-.3v.2l.2.1h.1l.3.3.2.2c.1 0 .2.2.1.3v1h-.7l-.4-.3ZM101 125.1h-.4c-.3 0-.4-.1-.5-.2l-.3-.1c-.1 0-.3 0-.5-.2l-.9-1 .3-.4c0-.2.1-.3.3-.3l.3-.6.3-.6h.7l.6.1c.7 0 .8 0 .8.2h1.2c1 0 1 0 1.2.2l1.8.1 1.8-.1c.1-.2.2-.2.2 0l.1.1.2.2.1.3.4.1c.2 0 .3 0 .4-.2l.2-.1v-.1l.3-.3.1-.2.2-.2h.2c0-.2 0-.2.4-.2h.6v.1c-.1 0-.2 0-.1.3 0 .2 0 .3-.2.4l-.1.3c0 .2-.2.4-.6.6-.2 0-.4.3-.6.5l-.5.3s-.2.1-.2.3l-.4.2h-.3l-.2.2-.3.1-.5.1-.4.1c-.2.2-1 .2-1.2 0h-.5c-.4 0-.4 0-.4-.2v-.2c.2-.2 0-.4-.1-.5l-.4-.2-.5-.6h-.1c0-.2-.4-.3-.9-.3-.7 0-.9.2-.9 1 0 .2 0 .3.2.4l.1.5v.2h-1ZM58.5 125h1.1c0-.2.2-.2.6-.2l.5-.1c.1-.1.1-.1 1.6 0h5.5-1c-.9.1-1.2.1-1.4.3h-1c-.1.2-6 .2-6 0Zm3.6-.1h-.4l.2.1.2-.1ZM129.1 124.8v-.2c0-.1 0-.1.1 0l.1.1c0 .1-.1.2-.2.1ZM100.2 120.6c0-.2 0-.2.2-.2a148.5 148.5 0 0 1 11.2.3l-5.7.1h-5.7v-.2ZM102 120h.8-.7ZM76.4 118.9H75c-1.4 0-1.6-.1-1.6-.2l-1.1-.1H71l1-.2 1.2-.1 1-.1h.7l.9.1h.7l-1 .1h-1c-.2.1-.2.1-.1.2h2v.4l-.1-.1Z" fill="#DF5980"/><path d="m89.3 151.5.1-.1.1-.4.1-.5.2-.6.1-.3s.2 0 .3-.2h.4c.2 0 .3-.1.3-.2l.3-.1.4-.1.3-.2h.2c.1-.2.2-.2.3-.2l.2-.1.2-.1c.1 0 .2 0 .3-.2h.2l.2-.2h.2l.2-.2h.5c.1 0 .2 0 .6-.4l.4-.5.1-.2h.2c0-.2.3-.2 1.3-.2l1.3-.1.5-.1c.3 0 .4 0 .4-.2 0 0 .1-.1.2 0l-.4.4-.7.5-.3.2-.7.5a4 4 0 0 1-.7.6 2 2 0 0 0-.4.3l-.3.2-.4.2-.3.3s-.2 0-.3.2l-.4.2h-.1c-.1.2-.2 0-.2-.3v-.6l-.2-.3c0-.2-.1-.2-.4.2l-.3.3v.7c0 .6 0 .7-.2.7H93c0 .2 0 .2-.3.2h-.4c0 .2-.1.2-.3.2-.3 0-.4 0-.5.2h-.3c-.3 0-.3.1-.3.2l-.4.1-.4.1-.4.1h-.4Zm1.3-1.5c0-.3-.3-.4-.6-.3l-.2.2c0 .2 0 .2.4.2l.4-.1Zm.6-.2v-.2l-.1-.2-.2.1v.2c-.1.1 0 .2.1.2h.2ZM87 151v-.1l-.2-.2-.3-.1-.2-.1-.2-.1-.3-.1s0-.1.1 0h.6c.3 0 .4 0 .6-.2h1.1c.2 0 0 .1 0 .1-.2 0-.3 0-.3.2h-.2l-.4.3-.3.2ZM100.7 143.8l-.2-.2h-.6l-.5.1c-.1.2-.2.2-.2 0a20 20 0 0 0 2.1-2.3l.2-.3.2-.3c.2-.1.3-.3.3-.4 0 0 0-.2.2-.3v-.2l.3-.4.2-.3a7 7 0 0 1 1.7-1.7h.2l.2-.2.3-.1.3-.1.5-.1c.1-.2.2-.2.6-.2h.6l.6-.2-.5.6-.8.8-.2.2h-.9c-1 0-.9 0-1 .5v.2l-.2.2-.1.3-.1.3-.1.2-.2.3v.2l-.2.1-.1.2-.2.3-.2.3s0 .2-.2.3a1 1 0 0 0-.3.3l-.3.5-.4.5-.2.3c-.2.2-.3.3-.2.4 0 .1 0 .2-.2.3-.1.2-.2.2-.4 0ZM90 140.7v-.1l-.1-.2-.2-.3a7 7 0 0 0-2.4-2.1l-.1-.1-.3-.2-.2-.1-.2-.1-.3-.1-.2-.1-.3-.1-.3-.2H85c0-.2-.2-.2-.3-.2h-.3l-.1-.2H84l-.2-.1-.3-.2h-.1l.2-.2h.2l.2-.2h.2l.1-.1.3-.4.1-.3c.1 0 .1-.2 0-.4 0-.2 0-.2.2-.2.1 0 .3 0 .4.2l.4.2s.2 0 .3.2l.1.1h.1c0 .2.1.2.3.2l1.4 1.4c1.1 1 1.4 1.4 1.4 1.5v.2c.2 0 .2.1.2.2l.1.2.1.3.1.2c.1 0 .2.1.2.4v.4c.2.2.3.5.1.6H90ZM99.7 139.3V138c0-1 0-1-.2-1.2v-2l.1-.6c0-.3 0-.4.2-.6v-.3l.2-.4.1-.4.1-.2.2-.3v-.2l.2-.2.1-.3.1-.3.1-.1.2-.3v-.2l.2.2h.1l.3-.3.3-.5s0-.1.1 0l.1.3c0 .4 0 .4.2.6l.3.1.2.2h.1c.1 0 1-.8.9-.9v-.2c.2-.1.2-.2.2-.3l-.3-.3-.3-.3h-1.2V129.4h-1.5v-.4c0-.5 0-.5-.2-.8l-.2-.2-.2-.1s-.3 0-.4-.2h-.6l-.3.2h-.2c-.1.2-.2.2-1.5.2l-1.6.1c-.2.2-.4.2-.5 0l-.3-.1-.4-.1-.3-.1-.4-.1-.2-.2H93l-.3-.2-.3-.1-.3-.2c-.2 0-.3-.1-.3-.3 0-.2 0-.3-.2-.4-.2-.2-.2-.2-.5-.2l-.5.1v.1h-.2c-.2-.2-.3-.2-.3 0l.1.1.1.2.1.2.1.2.2.3c.1.1.1.2 0 .2-.2 0-.3-.1-.6-.4l-.4-.4v-.5l.1-.6c.2-.2.2-.2.8-.2l.7.1.3.2h.4c.1.2.2.2.5.2l.4.1.5.1.5.1.4.1c.3 0 .5 0 .6.2h.3c.3 0 .6.4.6.7v.3c.1 0 .2 0 .2.2 0 0 .2.1.2 0v-.8h1c0 .2.1.2.6.2l.7.1 1.9.1 1.8-.1.5-.1.5-.1.7-.1h.8l.2.2c.2 0 .6.3.5.4l.1.3c.2.1.2.1 0 .4l-.1.3s0 .2-.2.3l-.3.4-.6.7a4 4 0 0 0-.6.7c0 .2-.3.4-.4.6l-.4.4h-.8a1 1 0 0 1-.5.2c-.4 0-.5 0-.7.6v.9c0 .2 0 .2.4.6.4.3.4.5.2.8v.8c0 .5-.1.6-.2.8l-.1.7-.1.6-.1.3-.2.2v.2c0 .2-.4.5-.5.5l-.4.2-.3.2ZM110.5 137.6v-.4c0-.2 0-.3-.3-.6l-.5-.3h-.3v-.2h.1c.1-.2.2-.2.3-.2l.3-.1.3-.1.3-.1.2-.2.3-.1.2-.1.3-.1.2-.2.3-.1c0-.1.1-.1.2 0 .3.4.3.4.7.4h.4v-.2h.3l.2.2h.2l.2.2.1-.7-.1-.7c-.2-.2-.2-.5 0-.7l.1-.7v-.6h.3c.1.2.2.2.2.6 0 .4 0 .4.2.7 0 .2.2.3.3.4.1 0 .1.4 0 .4-.2 0-.2.2-.2.3v.2c-.1 0-.2 0-.2.2l-.2.2V135.3l-.5.4h-.1l-.1.2-.2.1v.1l-.3.1-.2.1-.1.2h-.2c0 .2 0 .2-.2.2l-.2.1-.2.1c-.1 0-.3 0-.3.2h-.2l-.3.2-.2.1-.3.1c0 .1 0 .2-.3.2h-.3c0 .3-.2.2-.2 0ZM81.1 135l-.1-.2h-.1.3v.2H81ZM80.8 132.5l.2-.2.4-.2c.2 0 .6.3.6.4h-1.2ZM50.5 130.9l-2-.1-1-.1-.9-.1-.6-.2-.6-.1-.5-.1h-.3l.1-.2.3-.3.1-.2.1-.2v-.2c.2 0 .3 0 .3.2v.2c.2 0 .2.2.2.2l.1.3c.2.2.3.2.5.2l.3-.1.3-.1.6-.6.7-.5.2.2h1.2c1 0 1.1 0 1.2.2l.5.1h.5v.4l.1.4.1.3.2.2.1.2h-1.8ZM53.3 130.7l.2-.1.4-.4.5-.5.1-.1c.1-.2.2-.2.3-.2l.3-.1.7-.1h.5v.3c0 .3 0 .4.2.5l.2.2.4.2.2.2-.2.2h-4 .2ZM116.7 130.5l-.1-.3-.3-.4-.3-.4h-.1l-.2-.2-.3-.1-.2-.2-.4-.1h-.3v-.6l.2-.3.4-.5.2-.1.6-.1h2.4v1l.2.3.1.3c.1.2.2.2.1.4v.4h-.3l-.2.1c0 .1-.1.2-.3.2h-.2l-.1.2-.1.1-.2.1c-.2 0-.3 0-.3.2h-.3ZM59.4 130.1l.9-.8.3-.4v-.1l.2-.2c0-.2.2-.4.3-.4l.1-.1.4-.1.4-.1.4-.1c.2 0 .3 0 .3-.2h.5c.3 0 .4-.1.5-.3h.4c.2 0 .3 0 .3-.2h.4c.3 0 .3-.1.4-.2l.3-.1.3-.1.3-.1h.3a18 18 0 0 1-3.3 2.7H63l-.2.2h-.4a1 1 0 0 1-.6.2l-.4.1c-.1.1-.2.2-.5.2h-.5c0 .2-.2.2-.5.2h-.4ZM41.7 129.2h-.3l-.3-.2-.4-.1-.3-.1-.3-.1c.2 0 .2-.3 0-.4v-.2l-.1-.2-.3.1-.1.4c0 .2-.2.2-.2 0H39l-.5-.2-.4-.1a1 1 0 0 1-.4-.1l-.6-.2h-.7l-.2-.1h-.6l-.2.1v.7c0 .4 0 .4-.2.4H35l-.2-.2-.1-.2h-.2v-.2h-.2v-.2c0-.2 0-.3-.2-.3l-.1-.5.1-.5c.1 0 .2-.1.2-.3v-.2h.2v-.2l.2-.1.1-.1h.1l.2-.2h.1c0 .2 0 .1.2 0s.9-.2 1 0h.5l.5.1h.3l.2.1h.1l.1.1.3.1.4.1.2.1.3.1c0 .1 0 .2.3.2h.4c0 .2 0 .2.2.2l.2.1.3.1.3.1.3.1c.2 0 .3 0 .3.2l.3.1c.2 0 .2 0 .2.2v.2c-.1 0-.2.3-.2.7v.7h-.2Zm-3.4-2.3v-.4l-.1-.3c-.1 0-.2 0-.3.2-.2.2-.2.3-.1.4l.1.2c.1.2.3.1.4-.1ZM128.3 128.8l-.3-.1-.2-.1-.1-.1c-.2 0-.2-.2-.1-.2l.3-.7.1-.2c.2 0 .2-.2.1-.3l-.5.5v.3l-.2.2-.1.1c-.3 0-.3-.2-.2-.4l.2-.2s0-.2.2-.3l.2-.4v-.2l.4-.3.2-.2c.1.2 0 .4-.1.5-.1 0-.1 0 0 .2h.1l.3-.4s0-.2.2-.3l.1-.3.2-.3c.2-.1.3-.2.2-.3l.1-.3h.1c0 .1 0 .2.2.3 0 0 .1.2 0 .2l.4.4c.3.4.3.4.6.3.3 0 .3 0 .3.4v.3l.2.2v.2c0 .2-.1.2-.2.2l-.1.3-.1.2h-.1l-.1.2-.2.1v.2h-.2l-.1.2h-.3c-.1.1-.2 0-.2-.3l-.1-.3-.1-.3c-.1-.2-.3-.2-.3 0l.1.4.1.3.1.4c.2 0 .1 0 0 0h-.3v-.3l-.2-.4c0-.3-.1-.3-.2-.3v.7l.1.2c0 .2-.4.2-.5 0ZM45.2 128.5h.2-.2Z" fill="#61BAD2"/><path d="m126.6 127.9-.3-.1h-.2l.5-.6a150 150 0 0 0 2-1.7c-.2 0-.2.2-.1.3.1 0 .2.3 0 .4l-.1-.3c0-.2-.2-.2-.3 0l-.3.5-.4.5s0 .2-.2.3l-.3.4-.2.4-.1-.1Z" fill="#61BAD2"/><path d="M124 127.6h-.4c-.2 0-.3 0-.3-.2l-.3-.1-.2-.1-.3-.1-.4-.2-.5-.1-.6.1-.1.2h-.1v.2l-1.1-.5c0-.1 0-.2.5-.8.5-.5.7-.6.7-.8v-.1c.2 0 .2.1.2.4l.1.3.1.2h.1c0 .1.1.1.2 0h.2l.5-.4.5-.6-.2-.2v-.4c0-.2-.4-.5-.6-.5-.2 0-.2 0-.1-.2l.1-.3.3-.4.2-.3s.3-.5.9-1l.9-.9h.3c.4 0 .5 0 .5.3l.3.2.4-.1c0-.1 0-.1.2 0l.3.1.3.2.4.3 1 .9.1.3.3.4v.2c.2.1.2.2.2.3 0 .3-.1.4-.4.4-.1 0-.2 0-.3.2h-.2l-.3.2h-.3c-.2 0-.3.1-.4.3l-.2.2h.3l.3-.1c.2 0 .3 0 .4-.2l.2-.1.3-.1.3-.1.4-.1c0-.2.3-.2.4 0 .2.1.3.3.2.3 0 0-.2 0-.3.2v.3c.1 0 0 .2 0 .2h-.1l-.2-.3.1-.2.2-.2v-.1c0-.2-.1-.1-.4.2a3 3 0 0 1-.4.4c-.2 0-.8.6-1 1a6 6 0 0 1-.8.8l-.6.6h-.2l-.1-.1c0-.1-.2 0-.4 0 0 .1-.1.2-.6.2-.4 0-.4 0-.5-.2Zm1.7-1.8.4-.3c.2 0 .3 0 .2-.2-.1-.1-.4 0-.6.2a1 1 0 0 1-.4.2l-.2.2c0 .2.4 0 .6-.1Z" fill="#61BAD2"/><path d="m128.6 125.7.1-.2c.1 0 .1.2 0 .2ZM111.1 121.7h-.2l-.1-.2c0-.2.3-.5.5-.4h.1l-.2.7ZM115.5 121l-.3-.2c-.1 0-.7-.5-.6-.6h.3l.4-.1.2-.1c.2 0 .2 0 .2-.2h.2l.1-.2.2-.1.2-.1.1-.1.2-.1.1-.2.3-.1.2-.1.1-.2h.2c.2 0 .3 0 .3-.2l.2-.1.3-.1.3-.1.3-.1c0-.1.1-.2.6-.2h.6c0-.2 0-.2.3-.2s.4 0 .3.4l-.1.2h-.2l-.1.2-.3.1-.2.1c-.1 0-.2 0-.2.2h-.3l-.2.2-.2.2-.6.4h-.2l-.3.3-.3.2s-.3 0-.4.2l-.4.2-.1.1-.3.2-.3.1-.3.2c-.2 0-.2 0-.3-.2ZM76 119.3l.1-.1.1-.2.2-.2.3-.2.4-.2.1-.1.1-.1.3-.1.2-.1.1-.2.2-.1h.2l.2-.2.2-.1c.2 0 .2 0 .3-.2h.2c.2 0 .2-.1.3-.2l.3-.1h.3v.4l.1.4v.2H80l-.3.2h-.5l-.4.2-.4.1-.4.1-.3.1-.5.2H77l-.2.2-.2.1-.3.1-.4.1ZM122.2 117.5v-.4h.8v-.2l.2-.2.1-.3v-.2l.2-.1.1-.1c.1 0 .2-.1.2-.3v-.2l.2-.2h.3c.1 0 .2 0 .2-.2l1-.1.9.1.1.1h.2l-.2.1-.3.2-.6.1h-.4l-.6.6-.7.6h-.2l-.3.2-.3.2h-.3c-.2 0-.2 0-.3.2h-.3Z" fill="#61BAD2"/></svg>