<svg width="337" height="464" fill="none" xmlns="http://www.w3.org/2000/svg"><path d="M.5 249.6v-214l.8.7.8.7 1.1-3.9c.6-2.1 1.4-4.5 1.8-5.3l.6-1.5v-2.6H7l.2-1.5.1-1.4h1l.4 1.8.3 1.8 3-.4 3-.4.8-1.5.9-1.4.4-3.7.5-3.7H19l.5 1.4.6 1.3 1.6-.1 1.6-.2V15l-.2-.7.6-.5c.3-.3 1-.7 1.6-.9l1-.3.1 1.4.2 2.9v1.6l.6 2.6.6 2.6 1.6-.1c1-.1 2.9 0 4.4.2l2.8.6.2 1.3.3 1.2v-2.2l.4.4.9 1c.2.4.6.6.9.5l.4-.2.2 2.3.2 2.4-.2 1.8-.2 1.8.3.7.3.6-.1.9-.2.8H41.3l.5 1.5.5 1.3h1.1l.5-1.6c.7-2.2 1.8-7.4 1.8-8.7v-1h.5V28l.2-1.7c.3-.4 1.2-7 1.2-8.8v-1.4h.4V14l-.1-2.2.6-1.3c.8-2 2-6.5 1.8-6.5l.6-1.8.8-1.7.5.6 1 2.2c1.5 3.7 2.6 6 3.4 7l.8 1 1.7 4.6c1 2.4 2 5.5 2.4 6.7.4 1.2 1.3 3.6 2 5.1l3.8 7.9a28 28 0 0 0 2.7 5c.2 0 .8 1.5 1.5 3.3l1.1 3.2h2.1l.4.8.3.8.8-.1.8-.1.7 1.3.8 1.3v9.3h1.2l-.4 1-.4.9h.6c.6 0 1.7 1.7 2 3.3l.2.8-.2 8.8-.1 8.7.4.6.5.6 1-3.6 1-3.4.4.6.3.8-.2-1-.2-1 .8-1.8c.4-1 1-2.4 1.1-3.4l.4-1.6 1 1 1 1 1.7-.2h3.1l1.5.1.6-1.3c.3-.7 1-1.6 1.6-1.9l1-.6V67l.6-.7 1.5-2 .9-1.4-.4-.8-.3-.9 1.7.5c1 .3 1.8.8 2 1l.1.5v-1.8l.6-.4.5-.5.2 2.4c.1 1.4.2 3 .1 3.7v1.1l.7.7c.4.4 1.3 1.6 1.9 2.8l1.1 2.2h5l2.7.2.3-1.6.4-3v-1.2h1l.2-1.4.1-1.5 1 .3.8.2 1-3 1-3 .3.5.2.5v-2.9l.7-1.1c.4-.6.7-1.5.7-2v-.7h1.2l.8 2.2 1.3 4 .6 2 .5-.7c.3-.3.7-.4.9-.2l.3.4.2-2.7c0-1.4.4-4.9.7-7.5l.5-5h.4c.2 0 .8.6 1.3 1.3.4.8 1.3 1.8 1.8 2.4l.9 1 1.7.2 1.8.2 1.3-2.5 2.8-4.6 1.4-2.2v-1.2l.2-2.9c.2-.8.5-3 .6-4.6l.3-3h.5c.2 0 1.1 1 2 2.2l1.6 2.3.3-.7c.2-.4.8-1.3 1.5-2l1.3-1.1.6.5.5.4-.1-.8-.2-.9.4-.4 1.6-.9 1.2-.4.2 3.2.2 3.1.4 1.2.3 1v3.5l1 .6c.5.3 1 1 1 1.4l.2.9H162.3l.3 1.7.3 1.6.2-1.2.2-1.3 1.6 1.3 1.5 1.5.8-2.5c.4-1.3 1.1-2.9 1.6-3.6l.8-1.2.6 2.5c.4 1.3.7 2.9.7 3.4 0 .6.4 2.5.9 4.3l.8 3.2 1.3.2 1.3.1.8 2.5c.4 1.4.9 2.5 1 2.5.2 0 .6.6 1 1.3l.7 1.4.3-.9c.2-.5.8-.8 1.2-.8h.9l.6-2a8 8 0 0 1 .8-1.8l1.2.8 1 .7 3.3-1 3.2-1.2.4 1 .4 1.1-.2-1.6-.1-1.7.2.3c.3.4 1.3-3.4 1.5-5.8l.2-2.4.6-1.7.5-1.7.8.5c.4.3 1 1 1.2 1.8.5 1.2 1 1.8 3.3 3.4l1.2.8 1.5 2.6L204 54l1.5.3c.8 0 1.6.2 1.8.3h.3v3.2l.4.3.5.3v-3l1.5.2 1.6.2.6-1.3c.4-.8.8-1.6.8-2 .1-.2.6-.8 1-1l.9-.6.6 2.6.5 3.6c0 .5.7 3.5 1.6 6.8l1.5 5.8.8-1 .8-1 .5.2c.8.4 1.2 1.8 1.5 6.2l.4 4 .6 1.5.7 1.6H225.8l-.2.7-.1.9h.5l.2 3.2.1 3.3.6.5.6.5 2.2-.5 2.9-.7.7-.2v-.7l.1-1.4c0-1.2 1-5.5 1-4.6v.7l.3-.9.4-1 1 1.4 1.1 1.3 2.3.6 3.5.5h1.2l.3 1.2a4 4 0 0 0 1 1.8l.7.6.7-1 .8-1 .5-2.3a27.5 27.5 0 0 0 .8-6 99.2 99.2 0 0 0 .6-9.2l.2-2.1.2.5.2.4.1-.8.2-.9 1 .8 1 .7 1.6-.5c1.8-.6 2.2-.6 5-.2l1.7.2.2-1.2.2-1 1.2-1 1.7-1.3.5-.6-.2 1-.2.8 1.2-.8c.6-.3 1.5-1.1 1.9-1.7l.7-1 .3.6.3.6-.2-1-.1-.9.7-1.2c.4-.7 1-1.3 1.2-1.2h.5v-1.6c0-.8 0-1.9.2-2.3l.2-1.3a25.1 25.1 0 0 1 1-4.4v.9l.2-1 .3-1.1.7 1.3.8 1.2 1.3.7 4.1 1.6c.4 0 .8.5.8.7l1 1.6 1 1.2.2-.8c0-.5.4-1 .7-1.3l.6-.6.1 1.3.2 1.4h2.5l-.2.9-.2 1h1.2l-.2-.9-.1-1 .5-.5.5-.6.6 1c.3.6.5 1.5.5 2v.9h-.9l.2.5c0 .4.8.7 1.6.8l1.5.2-.2-.8v-.7l.7.2.9.2V62.2h.5c.2 0 1 .6 1.6 1.4l1.2 1.5 1.8-5c2.2-6.6 4.3-13.4 4.3-14.6l-.3-2-.3-1 .3-1.3.3-1.3-.2-.6-.2-.8.5-1.3.5-1.3h2.9l.9-1.3.8-1.3.8-2.6.7-2.6v-3.3l.6-.5.6-.6.7.5.7.6.5-1.8c.3-1 .5-1.6.6-1.4.2.5 1.4-1 1.7-2.2l.3-1.3.4.6.4.5-.2-1.3-.2-1.3.4 1.3.5 1.2 1.7-2.1a26.5 26.5 0 0 1 2.9-3.5l.6-1 .5 2 .5 2-.1 1.1-.2 1.2.6.4.5.5v2.7l1.3-.7 1.4-.8.4-1.4.4-2.4c0-1.4 1-4.6 1.6-4.7h.3l.9 2.2.9 2.4h3.9c.5 0 1.1 0 1.5.4l.7.3v222.8l.1 223H.5v-214Z" fill="#fff"/><path d="M127.4 118.5c0-4 3.3-6 3.4-6a7.4 7.4 0 0 0-5.7-3.2c-2.5-.3-4.8 1.5-6.1 1.5-1.2 0-3.2-1.5-5.2-1.4a7.7 7.7 0 0 0-6.6 4c-2.7 4.8-.7 12 2 16 1.4 2 3 4.1 5 4 2 0 2.8-1.2 5.2-1.2 2.4 0 3.1 1.3 5.2 1.2 2.2 0 3.6-2 4.9-3.9 1.5-2.2 2.1-4.4 2.2-4.5a7 7 0 0 1-4.3-6.5ZM123.4 106.7a7 7 0 0 0 1.7-5.1 7 7 0 0 0-6.3 7.3c1.7.2 3.5-.9 4.6-2.2M141.4 122.5l-1.9 5.6h-2.3l6-17.8h2.7l6 17.8h-2.4l-1.9-5.6h-6.2Zm5.8-1.8-1.8-5.1-.9-3.3-1 3.3-1.7 5.1h5.4ZM153.7 119.5v-4.2h2v2.2h.1a5 5 0 0 1 4.5-2.5c3.1 0 5.4 2.6 5.4 6.5 0 4.6-2.8 6.9-5.8 6.9-1.6 0-3-.8-3.8-2h-.1v7h-2.3v-14Zm2.3 3.4.1 1a3.6 3.6 0 0 0 3.5 2.7c2.4 0 3.8-2 3.8-5 0-2.5-1.3-4.7-3.8-4.7-1.5 0-3 1.1-3.4 2.9l-.2.9v2.2Zm12-3.4v-4.2h2l.2 2.2a5 5 0 0 1 4.5-2.5c3 0 5.4 2.6 5.4 6.5 0 4.6-2.8 6.9-5.8 6.9-1.7 0-3.1-.8-3.9-2v7H168v-14Zm2.4 3.4v1a3.6 3.6 0 0 0 3.5 2.7c2.5 0 3.9-2 3.9-5 0-2.5-1.4-4.7-3.8-4.7-1.6 0-3 1.1-3.5 2.9l-.1.9v2.2Zm12-13.5h2.4V128h-2.3v-18.7Zm7 12.7c0 3.2 2 4.5 4.3 4.5 1.7 0 2.7-.3 3.5-.7l.4 1.7c-.8.3-2.2.8-4.2.8-3.9 0-6.2-2.6-6.2-6.5 0-3.8 2.2-6.9 6-6.9 4 0 5.2 3.7 5.2 6l-.1 1.1h-9Zm6.7-1.6c0-1.5-.6-3.8-3.2-3.8-2.3 0-3.3 2.2-3.5 3.8h6.7Z" fill="#000"/><path d="m33 193.2 5.6-13.8h-5.2v3h-3v-6h11.8v3.2l-5.4 13.6H33Zm17.6.3c-2.2 0-3.8-.8-4.8-2.3a11 11 0 0 1-1.6-6.4c0-2.7.5-4.8 1.6-6.4 1-1.5 2.6-2.2 4.8-2.2 2.2 0 3.9.7 5 2.2a11 11 0 0 1 1.5 6.4 11 11 0 0 1-1.6 6.4c-1 1.5-2.7 2.3-4.9 2.3Zm0-3c1 0 1.7-.4 2-1.1.4-.7.6-1.7.6-3v-3.2c0-1.2-.2-2.2-.6-3-.3-.6-1-1-2-1s-1.6.4-2 1c-.3.8-.5 1.8-.5 3v3.2c0 1.3.2 2.3.5 3 .4.7 1 1 2 1Zm14.4 3c-2.2 0-3.8-.8-4.8-2.3a11 11 0 0 1-1.6-6.4c0-2.7.5-4.8 1.6-6.4 1-1.5 2.6-2.2 4.8-2.2 2.2 0 3.8.7 4.9 2.2a11 11 0 0 1 1.6 6.4 11 11 0 0 1-1.6 6.4c-1 1.5-2.7 2.3-4.9 2.3Zm0-3c1 0 1.7-.4 2-1.1.4-.7.6-1.7.6-3v-3.2c0-1.2-.2-2.2-.6-3-.3-.6-1-1-2-1s-1.6.4-2 1c-.3.8-.5 1.8-.5 3v3.2c0 1.3.2 2.3.5 3 .4.7 1 1 2 1Zm12.4 2.7c-1.2 0-2.1-.3-2.7-.9-.5-.6-.8-1.4-.8-2.6v-14.3h3.5v15H79v2.8h-1.6Zm3.7-17.8h3.6v7.3h.1A3 3 0 0 1 86 181c.7-.5 1.4-.7 2.2-.7 1.6 0 2.8.6 3.6 1.7a8.2 8.2 0 0 1 1.2 4.9c0 2.1-.4 3.8-1.2 4.9-.8 1.1-2 1.7-3.6 1.7-.4 0-.8 0-1.2-.2l-1-.5-.7-.8-.5-1h-.1v2.2H81v-17.8Zm6 15.2c.6 0 1.1-.2 1.6-.7.4-.5.6-1.1.6-2v-2.1c0-.8-.2-1.4-.6-1.9-.5-.5-1-.7-1.7-.7s-1.2.2-1.7.5c-.4.3-.6.8-.6 1.3v3.8c0 .5.2 1 .6 1.3.5.3 1 .5 1.7.5Zm13 2.9c-1.3 0-2.3-.2-3.2-.6-.8-.4-1.5-1-2.2-1.7l2.1-2c.4.4 1 .8 1.5 1 .5.4 1.1.5 1.8.5s1.2 0 1.5-.3c.3-.2.4-.5.4-.9 0-.6-.4-1-1.3-1l-1.3-.2c-2.9-.4-4.3-1.7-4.3-3.9 0-.6.1-1.2.4-1.6.2-.6.5-1 1-1.3.4-.4.9-.7 1.5-.9.6-.2 1.3-.3 2-.3a9.2 9.2 0 0 1 3 .5l1.2.7 1 .8-2 2a4.4 4.4 0 0 0-3-1.2c-.6 0-1 0-1.3.3a1 1 0 0 0-.4.7c0 .4.1.6.3.8.2.2.5.3 1 .4l1.5.2c2.7.4 4.1 1.6 4.1 3.8a3.7 3.7 0 0 1-1.5 3c-.4.4-1 .7-1.7.9-.6.2-1.4.3-2.2.3Zm18.4 0c-.9 0-1.6-.2-2.3-.5-.6-.2-1.2-.7-1.6-1.2a6 6 0 0 1-1.1-2c-.3-.8-.4-1.7-.4-2.8 0-1 .1-1.9.4-2.6.2-.8.6-1.5 1-2 .5-.6 1-1 1.7-1.3.7-.3 1.4-.5 2.3-.5.8 0 1.5.2 2.2.5.6.3 1.2.7 1.6 1.2.5.6.9 1.3 1.1 2 .3.8.4 1.7.4 2.7 0 1-.1 2-.4 2.8a6 6 0 0 1-1 2c-.5.5-1 1-1.7 1.2-.7.3-1.4.5-2.2.5Zm0-1.2c1.2 0 2.1-.4 2.8-1.2.7-.7 1-1.8 1-3.3v-1.5c0-1.5-.3-2.6-1-3.3a3.6 3.6 0 0 0-2.8-1.2c-1.2 0-2.2.4-2.9 1.2-.7.7-1 1.8-1 3.3v1.5c0 1.5.3 2.6 1 3.3.7.8 1.7 1.2 2.9 1.2Zm9.3-10.2h-2.2v-1.2h2.2v-3.4c0-.7.1-1.1.4-1.5.3-.4.8-.6 1.5-.6h2.1v1.2h-2.7v4.3h2.7v1.2h-2.7v11h-1.3v-11Zm18.3 11.4c-2.1 0-3.7-.7-4.9-2.2-1-1.4-1.7-3.6-1.7-6.4 0-2.9.6-5 1.7-6.5a5.7 5.7 0 0 1 4.9-2.2 5.7 5.7 0 0 1 5.5 3.5l-1.2.7a4.4 4.4 0 0 0-4.4-3c-1.5 0-2.7.6-3.6 1.7a7.6 7.6 0 0 0-1.3 4.8v2c0 2 .4 3.6 1.3 4.7.9 1 2.1 1.6 3.7 1.6 1 0 2-.3 2.8-.9.7-.5 1.3-1.3 1.7-2.3l1.1.7c-.5 1.2-1.2 2.1-2.1 2.8a6 6 0 0 1-3.5 1Zm14.8 0c-2.2 0-3.8-.7-5-2.2-1.3-1.5-1.9-3.6-1.9-6.5 0-2.8.6-5 1.9-6.4a6.2 6.2 0 0 1 5-2.2c2.1 0 3.8.7 5 2.2 1.2 1.4 1.8 3.6 1.8 6.4 0 2.8-.6 5-1.8 6.5a6.2 6.2 0 0 1-5 2.2Zm0-1.3c.8 0 1.5-.2 2.2-.4.6-.3 1.2-.7 1.6-1.3.5-.5.9-1.2 1.1-2 .3-.7.4-1.6.4-2.6v-2.1c0-1-.1-2-.4-2.7-.2-.8-.6-1.4-1-2-.5-.5-1-1-1.7-1.2a5.4 5.4 0 0 0-4.3 0c-.7.3-1.3.7-1.8 1.2-.4.6-.8 1.2-1 2-.3.8-.4 1.7-.4 2.7v2c0 1 0 2 .3 2.7.3.8.7 1.5 1.1 2 .5.6 1 1 1.7 1.3.7.2 1.4.4 2.2.4Zm21 1h-10.7v-1.5l5.8-5.6 2-2.3c.4-.9.7-1.7.7-2.5v-.5c0-1-.3-1.8-.9-2.4-.6-.6-1.4-1-2.6-1-1 0-2 .3-2.5.9-.6.5-1 1.3-1.3 2.2l-1.3-.5.6-1.5a4.7 4.7 0 0 1 2.6-2 6 6 0 0 1 2-.3c.8 0 1.5 0 2 .3.7.2 1.2.6 1.6 1 .5.4.8.9 1 1.5.2.6.3 1.2.3 2a6 6 0 0 1-.9 3.2l-1 1.4-1.4 1.4-5.2 5h9.2v1.2ZM31.3 211.9h1.3v2h.1c.3-.7.8-1.3 1.4-1.7.6-.4 1.4-.6 2.4-.6 1.5 0 2.8.6 3.7 1.7a7.4 7.4 0 0 1 1.3 4.7c0 2-.4 3.7-1.3 4.8a4.5 4.5 0 0 1-3.7 1.7c-1 0-1.8-.2-2.4-.6-.6-.4-1-1-1.4-1.7v6.8h-1.4v-17.1Zm4.9 11.4c1.2 0 2.1-.4 2.8-1.2.7-.8 1-1.9 1-3.2v-1.7c0-1.3-.3-2.4-1-3.2a3.6 3.6 0 0 0-2.8-1.2 4.3 4.3 0 0 0-2.5.8c-.3.2-.6.5-.8.9-.2.3-.3.7-.3 1v5c0 .4.1.8.3 1.1a3.1 3.1 0 0 0 1.9 1.5l1.4.2Zm13.3 1.2c-.9 0-1.6-.2-2.3-.5a4.8 4.8 0 0 1-2.8-3.2c-.2-.8-.3-1.7-.3-2.8 0-1 .1-1.9.3-2.6.3-.8.7-1.5 1.1-2 .5-.6 1-1 1.7-1.3.7-.3 1.4-.5 2.2-.5a5 5 0 0 1 4.8 3.6c.3.8.4 1.6.4 2.5v.6h-9v.6c0 .7 0 1.2.2 1.8.2.5.4 1 .8 1.4l1.2.9c.5.2 1.1.3 1.7.3 1.8 0 3-.8 3.7-2.5l1 .7c-.3.9-1 1.6-1.8 2.2-.8.5-1.8.8-3 .8Zm0-11.7c-.7 0-1.2 0-1.7.3a3.6 3.6 0 0 0-2 2.3c-.2.5-.3 1-.3 1.7v.2h7.6v-.2c0-.7 0-1.3-.2-1.8a3.7 3.7 0 0 0-2-2.2c-.4-.2-1-.3-1.5-.3Zm8.6 11.4v-12.3h1.4v2.2c.3-.6.7-1 1.3-1.5a4 4 0 0 1 2.4-.7h.8v1.3h-1c-1 0-1.9.3-2.6.7-.6.5-1 1-1 1.9v8.4h-1.3Zm14.2 0v-1.3h4.9v-14.4H77l-4.6 4.1-.8-1 4.8-4.2h2.2V223h4.6v1.3h-11Zm19.4.3c-3.8 0-5.7-3-5.7-8.7 0-5.8 2-8.6 5.7-8.6 3.8 0 5.7 2.8 5.7 8.6s-2 8.7-5.7 8.7Zm0-1.3c1.4 0 2.4-.5 3.1-1.6.7-1.2 1-2.7 1-4.7v-2.2c0-2-.3-3.5-1-4.6a3.4 3.4 0 0 0-3.1-1.7c-1.4 0-2.5.6-3.1 1.7a9 9 0 0 0-1 4.6v2.2a9 9 0 0 0 1 4.7c.6 1 1.7 1.6 3.1 1.6Zm13.7-7.6-2.7 3v5.6h-1.4v-16.8h1.4v9.5l2.7-3.1 5.6-6.4h1.7l-6.3 7.2 6.6 9.6h-1.7l-5.9-8.6Zm14.3-3.7h1.5l3.7 10.8h.1l3.8-10.8h1.4l-4.5 12.3h-1.5l-4.5-12.3Zm13.8-3.3c-.3 0-.5-.1-.7-.3a.9.9 0 0 1-.2-.6v-.2c0-.3 0-.5.2-.7l.7-.2c.3 0 .6 0 .7.2.2.2.3.4.3.7v.2c0 .3-.1.5-.3.6-.1.2-.4.3-.7.3Zm-.6 3.3h1.3v12.3H133v-12.3Zm10.2 12.6c-.8 0-1.6-.2-2.2-.5a4.8 4.8 0 0 1-2.8-3.2c-.3-.8-.4-1.7-.4-2.8 0-1 .1-1.9.4-2.6a4.7 4.7 0 0 1 2.8-3.3c.6-.3 1.3-.5 2.2-.5a5 5 0 0 1 4.8 3.6c.2.8.3 1.6.3 2.5v.6h-9v.6c0 .7 0 1.2.2 1.8l.8 1.4 1.3.9c.5.2 1 .3 1.7.3 1.7 0 3-.8 3.7-2.5l1 .7c-.4.9-1 1.6-1.8 2.2-.9.5-1.8.8-3 .8Zm0-11.7c-.6 0-1.2 0-1.6.3a3.6 3.6 0 0 0-2 2.3c-.3.5-.4 1-.4 1.7v.2h7.7v-.2c0-.7-.1-1.3-.3-1.8a3.7 3.7 0 0 0-2-2.2c-.4-.2-.9-.3-1.4-.3Zm7-.9h1.4l3 11 3.3-11h1.2l3.3 11 3-11h1.3l-3.4 12.3h-1.7l-3.1-10.4-3.1 10.4h-1.7l-3.4-12.3Zm23 12.6c-1 0-2-.2-2.7-.6-.8-.4-1.5-1-2-1.8l1-.8a4.5 4.5 0 0 0 3.8 2c1 0 1.7-.2 2.2-.6.5-.4.8-1 .8-1.7a2 2 0 0 0-.6-1.6c-.4-.3-1-.6-2-.7l-1-.2c-.5 0-1-.2-1.5-.4a4 4 0 0 1-1.2-.6 3 3 0 0 1-.8-1l-.2-1.4c0-.6 0-1.1.3-1.5.2-.5.5-.8.9-1.1.3-.3.8-.5 1.3-.7l1.6-.2c1 0 1.9.2 2.6.5.6.4 1.2.9 1.6 1.4l-.9.9c-.3-.4-.7-.8-1.3-1.1-.5-.3-1.2-.5-2-.5-1 0-1.6.2-2.1.6a2 2 0 0 0-.7 1.6c0 .7.2 1.2.6 1.6.5.3 1.1.5 2 .7l1 .1a5 5 0 0 1 2.8 1.1 3 3 0 0 1 .9 2.3c0 1.2-.4 2-1.2 2.7-.8.7-1.8 1-3.2 1ZM33.6 239.1v10H33v-10h-3.7v-.5h8v.5h-3.7ZM39 238h.5v4.7c.2-.4.5-.7.9-1 .3-.2.9-.4 1.5-.4.9 0 1.5.3 2 .8.4.5.6 1.2.6 2.2v4.9h-.5v-4.9c0-.8-.2-1.5-.6-1.9-.3-.4-.9-.6-1.6-.6l-.9.1-.7.4c-.2.1-.4.3-.5.6l-.2.8v5.5h-.5V238Zm11.1 11.4a3 3 0 0 1-2.4-1c-.6-.7-.9-1.7-.9-3 0-1.4.3-2.4.9-3a3 3 0 0 1 2.3-1c.5 0 1 0 1.3.2.4.2.8.4 1 .8.3.3.5.7.7 1.2l.2 1.5v.3h-5.8v.4l.1 1.3c.2.4.3.7.6 1l.8.6 1.2.2c1.2 0 2-.6 2.5-1.8l.4.3c-.2.6-.6 1-1 1.4a3 3 0 0 1-1.9.6Zm0-7.6c-.5 0-.9 0-1.2.2l-.8.6c-.3.3-.4.6-.6 1l-.1 1.3h5.2c0-.5 0-1-.2-1.3 0-.4-.3-.7-.5-1l-.8-.6-1-.2Zm11.1 7.6c-.6 0-1.2-.1-1.6-.4-.5-.2-.9-.6-1.3-1l.5-.4c.3.5.7.8 1 1 .4.2 1 .3 1.5.3.6 0 1.2-.1 1.5-.4.4-.3.5-.7.5-1.2 0-.6-.1-1-.4-1.2-.3-.3-.8-.4-1.4-.5l-.6-.1a5 5 0 0 1-1-.3l-.7-.4c-.2-.1-.3-.3-.4-.6l-.2-.9c0-.3 0-.6.2-.8l.5-.7c.3-.1.5-.3.8-.3l1-.2c.7 0 1.2.1 1.6.4l1 .8-.4.3a3.3 3.3 0 0 0-.8-.7 3 3 0 0 0-1.4-.3c-.6 0-1 .1-1.4.4-.4.2-.6.6-.6 1.1 0 .5.2 1 .5 1.2.3.2.7.4 1.4.5h.6c.7.2 1.3.4 1.7.7.4.4.6.9.6 1.5a2 2 0 0 1-.7 1.6 3 3 0 0 1-2 .6Zm10-.2c-.4 0-.6-.2-.6-.6v-.6c-.2.4-.5.7-1 1-.3.2-.8.4-1.5.4-.8 0-1.4-.2-1.9-.6a2 2 0 0 1-.6-1.6l.1-1 .5-.6 1-.5 1.4-.1h2v-1c0-.8-.2-1.3-.5-1.7-.4-.3-1-.5-1.6-.5-1 0-1.8.4-2.3 1.3l-.3-.2c.2-.5.5-.9 1-1.1.3-.3.9-.5 1.6-.5.9 0 1.5.2 2 .7.4.4.6 1 .6 1.9v4.8h1.2v.5h-1Zm-3-.3.9-.1.8-.4.5-.6.2-.9v-1.5h-2c-.9 0-1.5.1-1.9.4-.4.3-.5.7-.5 1.1v.5c0 .5.1.9.5 1.1.4.3.9.4 1.4.4Zm6 .3v-7.7h.5v1.2l.3-.5.5-.5.6-.3h.9c.6 0 1.1 0 1.5.3.4.3.7.7 1 1.3.1-.5.4-.9.8-1.2.4-.3 1-.5 1.6-.5.9 0 1.5.3 2 .8.4.5.6 1.2.6 2.2v4.9h-.5v-4.9c0-.8-.2-1.5-.5-1.9-.4-.4-1-.6-1.7-.6a3 3 0 0 0-.8.1 2 2 0 0 0-.7.4c-.2.1-.4.3-.5.6l-.2.8v5.5h-.5v-4.9c0-.8-.2-1.5-.6-1.9-.3-.4-.9-.6-1.6-.6a3 3 0 0 0-.8.1c-.3 0-.5.2-.7.4a1.8 1.8 0 0 0-.7 1.4v5.5h-.5Zm15.9.2a3 3 0 0 1-2.4-1c-.6-.7-.9-1.7-.9-3 0-1.4.3-2.4.9-3a3 3 0 0 1 2.3-1c.5 0 1 0 1.3.2.4.2.8.4 1 .8.3.3.5.7.7 1.2l.2 1.5v.3h-5.8v.4l.1 1.3c.2.4.3.7.6 1l.8.6 1.2.2c1.2 0 2-.6 2.5-1.8l.4.3c-.2.6-.6 1-1 1.4a3 3 0 0 1-1.9.6Zm0-7.6c-.5 0-.9 0-1.2.2l-.8.6c-.3.3-.4.6-.6 1l-.1 1.3h5.2c0-.5 0-1-.2-1.3 0-.4-.3-.7-.5-1l-.8-.6-1-.2Zm8-.3h.6l2 7.1 2.3-7.1h.5l2.2 7.1 2-7.1h.6l-2.3 7.7h-.7l-2-7h-.1l-2.1 7h-.7l-2.2-7.7Zm14.8 7.9a3 3 0 0 1-2.4-1c-.6-.7-.9-1.7-.9-3 0-1.4.3-2.4.9-3a3 3 0 0 1 2.4-1c.4 0 .9 0 1.3.2.3.2.7.4 1 .8.2.3.5.7.6 1.2.2.4.2 1 .2 1.5v.3h-5.8v.4c0 .5 0 .9.2 1.3 0 .4.3.7.5 1l.9.6 1.1.2c1.3 0 2-.6 2.6-1.8l.4.3c-.3.6-.6 1-1.1 1.4a3 3 0 0 1-1.9.6Zm0-7.6c-.5 0-.8 0-1.2.2l-.8.6-.5 1c-.2.4-.2.8-.2 1.3h5.3l-.2-1.3c-.2-.4-.3-.7-.6-1l-.8-.6-1-.2Zm5.8-2.7h-.4v-.8l.4-.1.3.1.1.3v.4l-.4.1Zm-.3 2.4h.5v7.7h-.5v-7.7Zm9.7 8.6c0 .8-.3 1.4-1 1.8-.6.3-1.5.5-2.6.5-1.2 0-2-.2-2.5-.5-.6-.4-.8-.9-.8-1.5 0-.4.1-.8.4-1 .2-.4.6-.6 1-.7-.5-.2-.7-.6-.7-1.1 0-.4 0-.7.3-.9l1-.4c-.5-.3-.8-.6-1-1-.3-.3-.5-.8-.5-1.4l.2-1a2.3 2.3 0 0 1 1.4-1.4l1.1-.2c.7 0 1.3.2 1.7.5v-.6c0-.4.2-.6.5-.6h1.5v.5h-1.7v1c.3.2.5.4.6.8l.2 1-.2 1a2.4 2.4 0 0 1-1.4 1.4 3.2 3.2 0 0 1-2 0l-1 .5c-.2.2-.3.4-.3.7l.3.6 1 .2h2c.9 0 1.5.2 2 .5.3.3.5.8.5 1.3Zm-.5 0c0-.4-.2-.7-.5-1-.3-.2-.8-.3-1.6-.3h-2.4l-1 .5c-.3.3-.4.7-.4 1 0 .5.2 1 .6 1.2.4.3 1 .4 1.7.4h1.9l1-.4.5-.5.2-.8Zm-3.1-4c.6 0 1.1-.2 1.5-.6.4-.3.6-.8.6-1.3v-.6c0-.5-.2-1-.6-1.3-.4-.3-.9-.5-1.5-.5-.7 0-1.2.2-1.6.5-.4.3-.6.8-.6 1.3v.6c0 .5.2 1 .6 1.3.4.4.9.5 1.6.5Zm5.5-8.1h.5v4.7l.8-1c.4-.2 1-.4 1.6-.4.9 0 1.5.3 2 .8.4.5.6 1.2.6 2.2v4.9h-.5v-4.9c0-.8-.2-1.5-.6-1.9-.3-.4-.9-.6-1.6-.6l-.9.1-.7.4c-.2.1-.4.3-.5.6l-.2.8v5.5h-.5V238Zm9.4 11.2c-.4 0-.6-.2-.6-.6V242h-1.4v-.5h1l.3-.1.1-.4v-1.7h.5v2.2h1.8v.5h-1.8v6.7h1.7v.5h-1.6Zm12.5 0c-.4 0-.7-.2-.7-.6v-.6c-.2.4-.5.7-.9 1-.4.2-1 .4-1.6.4-.8 0-1.4-.2-1.8-.6a2 2 0 0 1-.7-1.6c0-.4 0-.7.2-1 0-.2.2-.4.5-.6.2-.2.5-.4.9-.5l1.4-.1h2v-1c0-.8-.2-1.3-.5-1.7-.4-.3-.9-.5-1.6-.5-1 0-1.8.4-2.2 1.3l-.4-.2c.2-.5.5-.9 1-1.1.3-.3.9-.5 1.6-.5.9 0 1.5.2 2 .7.4.4.6 1 .6 1.9v4.8h1.2v.5h-1Zm-3.1-.3.9-.1.8-.4.5-.6.2-.9v-1.5h-2c-.9 0-1.5.1-1.9.4-.3.3-.5.7-.5 1.1v.5c0 .5.2.9.5 1.1.4.3.9.4 1.5.4Zm8 .5c-.6 0-1.1-.1-1.6-.4-.5-.2-.9-.6-1.2-1l.4-.4c.3.5.7.8 1 1 .4.2 1 .3 1.5.3.6 0 1.2-.1 1.5-.4.4-.3.6-.7.6-1.2 0-.6-.2-1-.5-1.2-.3-.3-.8-.4-1.4-.5l-.6-.1a5 5 0 0 1-1-.3l-.7-.4c-.2-.1-.3-.3-.4-.6l-.2-.9c0-.3 0-.6.2-.8l.5-.7c.3-.1.5-.3.8-.3l1-.2c.7 0 1.2.1 1.6.4.4.2.8.5 1 .8l-.4.3a3.2 3.2 0 0 0-.8-.7 3 3 0 0 0-1.4-.3c-.6 0-1 .1-1.4.4-.4.2-.6.6-.6 1.1 0 .5.2 1 .5 1.2.3.2.8.4 1.4.5h.6c.7.2 1.3.4 1.7.7.4.4.6.9.6 1.5a2 2 0 0 1-.7 1.6 3 3 0 0 1-2 .6Zm15-.2h-6.6v-.6l4-3.9 1.1-1.5c.3-.5.5-1 .5-1.6v-.4c0-.3 0-.6-.2-.9a2 2 0 0 0-1.2-1.2l-1-.2c-.8 0-1.4.2-1.8.6-.4.4-.7.9-1 1.5l-.4-.2c0-.3.2-.6.4-1a3 3 0 0 1 1.6-1.2l1.2-.2c1 0 1.7.3 2.2.8.5.6.8 1.3.8 2.2 0 .7-.2 1.4-.5 2l-1.4 1.7-3.7 3.6h6v.5Zm3 .1-.3-.1-.2-.4v-.1c0-.2 0-.3.2-.4l.4-.1.4.1.1.4v.1l-.1.4-.4.1Zm3.3-.1v-.5h3.3V239l-3.2 2.7-.3-.4 3.1-2.7h1v10h3v.6h-6.9Zm15.7 0h-6.7v-.6l4-3.9 1.1-1.5c.3-.5.5-1 .5-1.6v-.4c0-.3 0-.6-.2-.9a2 2 0 0 0-1.2-1.2l-1-.2c-.8 0-1.4.2-1.8.6-.4.4-.7.9-1 1.5l-.4-.2c0-.3.2-.6.4-1a3 3 0 0 1 2.8-1.4c1 0 1.7.3 2.2.8.5.6.8 1.3.8 2.2 0 .7-.2 1.4-.5 2l-1.4 1.7-3.7 3.6h6v.5Zm8.3.2c-.7 0-1.2-.1-1.7-.4-.5-.2-.9-.6-1.2-1l.4-.4c.3.5.7.8 1 1l1.5.3c.7 0 1.2-.1 1.6-.4.3-.3.5-.7.5-1.2 0-.6-.2-1-.5-1.2-.3-.3-.7-.4-1.3-.5l-.7-.1a5 5 0 0 1-1-.3c-.2 0-.4-.2-.6-.4-.2-.1-.4-.3-.5-.6l-.1-.9.1-.8.6-.7c.2-.1.5-.3.8-.3l1-.2c.6 0 1.1.1 1.5.4.5.2.8.5 1 .8l-.3.3a3.2 3.2 0 0 0-.9-.7 3 3 0 0 0-1.4-.3c-.5 0-1 .1-1.4.4-.3.2-.5.6-.5 1.1 0 .5.1 1 .4 1.2.3.2.8.4 1.4.5h.7c.7.2 1.2.4 1.6.7.4.4.6.9.6 1.5a2 2 0 0 1-.7 1.6 3 3 0 0 1-2 .6Zm9.9-1.4a2.3 2.3 0 0 1-.8 1l-.7.3a3 3 0 0 1-1 0c-.8 0-1.4-.2-1.9-.7-.4-.5-.6-1.2-.6-2.2v-4.9h.5v4.8c0 1 .2 1.6.6 2 .3.4.9.6 1.6.6a3 3 0 0 0 1.6-.5c.2-.1.4-.3.5-.6l.2-.9v-5.4h.5v7.7h-.5V248Zm3.5 1.2v-7.7h.6v1.2c0-.2.2-.4.3-.5l.5-.5.6-.3h.9c.6 0 1.1 0 1.5.3.4.3.7.7.9 1.3.2-.5.5-.9.9-1.2.4-.3 1-.5 1.6-.5.9 0 1.5.3 2 .8.4.5.6 1.2.6 2.2v4.9h-.5v-4.9c0-.8-.2-1.5-.5-1.9-.4-.4-1-.6-1.7-.6a3 3 0 0 0-.8.1 2 2 0 0 0-.7.4c-.2.1-.4.3-.5.6l-.2.8v5.5h-.5v-4.9c0-.8-.2-1.5-.6-1.9-.4-.4-.9-.6-1.6-.6a3 3 0 0 0-.8.1c-.3 0-.5.2-.8.4a1.8 1.8 0 0 0-.6 1.4v5.5h-.6Zm16 .2a3 3 0 0 1-2.4-1c-.6-.7-1-1.7-1-3 0-1.4.4-2.4 1-3a3 3 0 0 1 2.3-1c1 0 1.8.3 2.4 1 .6.6.9 1.6.9 3 0 1.3-.3 2.3-.9 3a3 3 0 0 1-2.4 1Zm0-.5c.8 0 1.5-.3 2-.8.4-.6.6-1.4.6-2.3v-.9c0-1-.2-1.7-.7-2.3-.4-.5-1.1-.8-2-.8-.8 0-1.5.3-2 .8-.4.6-.6 1.3-.6 2.3v.9c0 1 .2 1.7.7 2.3.4.5 1 .8 2 .8Zm8.2-7.4h.5l2 7.1 2.3-7.1h.5l2.1 7.1 2.1-7.1h.6l-2.3 7.7h-.7l-2-7h-.1l-2.1 7h-.7l-2.2-7.7Zm12 7.7v-7.7h.6v1.3l.9-.9c.3-.3.9-.4 1.5-.4h.6v.5h-.7l-.8.1-.8.4c-.2.1-.4.3-.5.6l-.2.8v5.3h-.5Zm8 .2a3 3 0 0 1-2.5-1c-.5-.7-.8-1.7-.8-3 0-1.4.3-2.4.8-3a3 3 0 0 1 2.4-1c.5 0 1 0 1.3.2.4.2.7.4 1 .8.3.3.5.7.6 1.2.2.4.3 1 .3 1.5v.3H257v.4c0 .5 0 .9.2 1.3l.5 1 1 .6 1 .2c1.3 0 2.1-.6 2.6-1.8l.4.3c-.2.6-.6 1-1 1.4a3 3 0 0 1-2 .6Zm0-7.6c-.5 0-.9 0-1.2.2l-.9.6-.5 1-.2 1.3h5.3c0-.5 0-1-.2-1.3l-.5-1-.8-.6-1-.2Zm7.5 7.6c-.6 0-1.2-.1-1.6-.4-.5-.2-1-.6-1.3-1l.4-.4c.4.5.8.8 1.1 1 .4.2.9.3 1.4.3.7 0 1.2-.1 1.6-.4.4-.3.5-.7.5-1.2 0-.6-.1-1-.4-1.2-.3-.3-.8-.4-1.4-.5l-.6-.1a5 5 0 0 1-1-.3l-.7-.4c-.2-.1-.3-.3-.4-.6l-.2-.9c0-.3 0-.6.2-.8l.5-.7c.3-.1.5-.3.8-.3l1-.2c.7 0 1.2.1 1.6.4l1 .8-.4.3a3.3 3.3 0 0 0-.8-.7 3 3 0 0 0-1.4-.3c-.6 0-1 .1-1.4.4-.4.2-.6.6-.6 1.1 0 .5.2 1 .5 1.2.3.2.7.4 1.4.5h.6c.7.2 1.3.4 1.7.7.4.4.5.9.5 1.5a2 2 0 0 1-.6 1.6 3 3 0 0 1-2 .6Zm6-.2c-.4 0-.7-.2-.7-.6V242h-1.4v-.5h1l.4-.1v-2.1h.6v2.2h1.8v.5h-1.8v6.7h1.7v.5h-1.6Zm4.5 0c-.4 0-.6-.2-.6-.6V238h.5v10.7h1.2v.5h-1Zm5.9.2a3 3 0 0 1-2.5-1c-.5-.7-.8-1.7-.8-3 0-1.4.3-2.4.8-3a3 3 0 0 1 2.4-1c.5 0 1 0 1.3.2.4.2.7.4 1 .8.3.3.5.7.6 1.2.2.4.3 1 .3 1.5v.3h-5.9v.4c0 .5 0 .9.2 1.3l.5 1 .9.6 1.2.2c1.2 0 2-.6 2.5-1.8l.4.3c-.2.6-.6 1-1 1.4a3 3 0 0 1-2 .6Zm0-7.6c-.5 0-.9 0-1.2.2l-.9.6-.5 1-.2 1.3h5.3c0-.5 0-1-.2-1.3l-.5-1-.9-.6-1-.2Zm5.4 7.4v-7.7h.6v1.3l.8-.9c.4-.3 1-.4 1.6-.4h.6v.5h-.7l-.9.1-.7.4c-.2.1-.4.3-.5.6-.2.2-.2.5-.2.8v5.3h-.6Zm7.4.2c-.7 0-1.2-.1-1.7-.4-.5-.2-.9-.6-1.2-1l.4-.4c.3.5.7.8 1 1l1.5.3c.7 0 1.2-.1 1.5-.4.4-.3.6-.7.6-1.2 0-.6-.2-1-.5-1.2-.3-.3-.7-.4-1.3-.5l-.7-.1a5 5 0 0 1-1-.3c-.2 0-.4-.2-.6-.4-.2-.1-.4-.3-.5-.6l-.1-.9.1-.8.6-.7c.2-.1.5-.3.8-.3l1-.2c.6 0 1.1.1 1.5.4.4.2.8.5 1 .8l-.3.3a3.2 3.2 0 0 0-.9-.7 3 3 0 0 0-1.4-.3c-.6 0-1 .1-1.4.4-.4.2-.5.6-.5 1.1 0 .5.1 1 .4 1.2.3.2.8.4 1.4.5h.7c.7.2 1.2.4 1.6.7.4.4.6.9.6 1.5a2 2 0 0 1-.7 1.6 3 3 0 0 1-2 .6Zm5.3-.1-.4-.1-.2-.4v-.1c0-.2 0-.3.2-.4l.4-.1.4.1.1.4v.1l-.1.4-.4.1ZM30.9 281.4h6.3c1.1 0 2.1.2 3 .6a6 6 0 0 1 2.4 1.6 7 7 0 0 1 1.4 2.6 11.6 11.6 0 0 1 0 7.3c-.3 1-.8 1.9-1.4 2.6-.7.7-1.5 1.2-2.4 1.6-.9.3-1.9.5-3 .5H31v-16.8Zm6.3 13.6c1.1 0 2-.4 2.6-1 .6-.6 1-1.5 1-2.9v-2.6c0-1.3-.4-2.3-1-3-.6-.5-1.5-.8-2.6-.8h-2.7V295h2.7Zm12-10.8c-.7 0-1.2-.1-1.6-.4-.3-.4-.5-.8-.5-1.3v-.5c0-.5.2-1 .5-1.3.4-.3.9-.5 1.6-.5.7 0 1.3.2 1.6.5.3.3.5.8.5 1.3v.5c0 .5-.2 1-.5 1.3-.3.3-.9.4-1.6.4Zm-1.8 1.4H51v12.6h-3.6v-12.6Zm6.9 12.6v-12.6h3.6v2.7a3.7 3.7 0 0 1 1-1.9 3.2 3.2 0 0 1 2.3-.8h.6v3.3H61c-1 0-1.8.1-2.3.4-.5.3-.7.8-.7 1.5v7.4h-3.6Zm14.2 0c-1.2 0-2.2-.3-2.8-1-.6-.6-1-1.5-1-2.7v-6.1H63v-2.8h.9c.5 0 .8-.1 1-.3l.2-1v-2.1h3.2v3.4h2.5v2.8h-2.5v7h2.3v2.8h-2Zm6.6-14c-.8 0-1.3-.1-1.6-.4-.3-.4-.5-.8-.5-1.3v-.5c0-.5.2-1 .5-1.3.3-.3.8-.5 1.6-.5.7 0 1.2.2 1.5.5.4.3.5.8.5 1.3v.5c0 .5-.1 1-.5 1.3-.3.3-.8.4-1.5.4Zm-1.8 1.4h3.5v12.6h-3.5v-12.6Zm12.1 12.9c-1 0-1.8-.2-2.6-.5-.7-.3-1.3-.7-1.9-1.3a6 6 0 0 1-1.2-2c-.2-.9-.3-1.8-.3-2.8 0-1 0-2 .3-2.7.3-.8.7-1.5 1.2-2.1a5 5 0 0 1 1.8-1.3c.8-.3 1.6-.5 2.6-.5s1.9.2 2.6.5a5 5 0 0 1 1.9 1.4c.4.6.8 1.3 1 2.1l.3 2.4v1h-8v.3c0 .8.2 1.5.6 2 .5.5 1.2.7 2.1.7.8 0 1.4-.1 1.8-.4.5-.3 1-.7 1.3-1.1l1.8 2.2c-.6.6-1.3 1.2-2.2 1.5a8 8 0 0 1-3 .6Zm0-10.6c-.8 0-1.3.3-1.8.7-.4.5-.6 1.1-.6 2v.1h4.5v-.2a3 3 0 0 0-.6-1.9c-.3-.4-.8-.7-1.6-.7Zm8.2 10.3v-12.6h3.6v2.7h.1a3.7 3.7 0 0 1 1-1.9 3.2 3.2 0 0 1 2.3-.8h.5v3.3h-.8c-1 0-1.9.1-2.4.4-.5.3-.7.8-.7 1.5v7.4h-3.6Zm19.8 0c-1.2 0-2.1-.3-2.8-1-.6-.6-1-1.5-1-2.7v-6.1H108v-2.8h.9c.5 0 .8-.1 1-.3.2-.3.2-.6.2-1v-2.1h3.2v3.4h2.5v2.8h-2.5v7h2.3v2.8h-2Zm4.8-17.8h3.5v7.3h.2a3.5 3.5 0 0 1 3.5-2.4c1.3 0 2.3.4 3 1.3a6 6 0 0 1 1 3.7v7.9h-3.6v-7.6c0-.8-.1-1.4-.4-1.8-.3-.4-.7-.6-1.4-.6a3 3 0 0 0-1.6.4l-.5.6-.2.8v8.2h-3.5v-17.8Zm23.6 17.8c-.6 0-1.2-.2-1.6-.6-.4-.4-.7-1-.8-1.6h-.1a3 3 0 0 1-1.3 1.9c-.7.4-1.5.6-2.4.6-1.3 0-2.3-.4-3-1-.6-.7-1-1.6-1-2.7 0-1.3.5-2.3 1.5-3a7 7 0 0 1 4-1h2v-.7c0-.6-.2-1.1-.5-1.5-.4-.3-.9-.5-1.6-.5-.7 0-1.3.1-1.7.4l-1 1-2.2-1.8c.5-.7 1.2-1.3 2-1.7.7-.5 1.8-.7 3.1-.7 1.8 0 3.2.4 4 1.2 1 .8 1.4 2 1.4 3.4v5.5h1.2v2.8h-2Zm-5-2.2c.7 0 1.2-.1 1.6-.4.4-.2.6-.6.6-1.2v-1.5h-1.7c-1.4 0-2 .5-2 1.4v.4c0 .4 0 .8.4 1 .2.2.7.3 1.2.3Zm9.4 2.2v-12.6h3.5v2.1h.2c.2-.6.6-1.2 1.1-1.7.6-.5 1.4-.7 2.4-.7 1.3 0 2.2.4 2.9 1.3a6 6 0 0 1 1 3.7v7.9h-3.6v-7.6c0-.8 0-1.4-.3-1.8-.3-.4-.8-.6-1.4-.6a3 3 0 0 0-1.6.4l-.5.6-.2.8v8.2h-3.5Zm25.5.3a9 9 0 0 1-2.7-.4 6 6 0 0 1-2-1c-.5-.4-.9-1-1.2-1.5-.2-.6-.4-1.3-.4-2 0-1 .3-2 1-2.6.5-.7 1.3-1.2 2.3-1.4v-.2c-.8-.3-1.5-.8-2-1.4-.5-.7-.8-1.5-.8-2.4 0-.7.2-1.3.4-1.8.2-.6.6-1 1.1-1.4.5-.4 1-.7 1.8-1l2.5-.2c.9 0 1.7 0 2.4.3.7.2 1.3.5 1.8.9s.9.8 1.1 1.4c.3.5.4 1.1.4 1.8 0 1-.3 1.7-.8 2.4-.5.6-1.2 1-2 1.4v.2c1 .2 1.8.7 2.4 1.4.6.7 1 1.5 1 2.6a4.4 4.4 0 0 1-1.7 3.5 6 6 0 0 1-2 1c-.8.3-1.6.4-2.6.4Zm0-2.8c.8 0 1.4-.2 1.8-.5.4-.4.6-1 .6-1.6v-.5a2 2 0 0 0-.6-1.6c-.4-.3-1-.5-1.8-.5s-1.4.2-1.9.5a2 2 0 0 0-.6 1.6v.5c0 .7.2 1.2.6 1.6.5.3 1 .5 1.9.5Zm0-7.4c.7 0 1.3-.1 1.7-.5.4-.4.6-.9.6-1.5v-.4c0-.6-.2-1-.6-1.4-.4-.4-1-.6-1.7-.6-.8 0-1.4.2-1.8.6-.4.3-.6.8-.6 1.4v.4c0 .6.2 1.1.6 1.5.4.4 1 .5 1.8.5Zm14.4 10.2a9 9 0 0 1-2.7-.4 6 6 0 0 1-2-1c-.5-.4-.9-1-1.2-1.5-.2-.6-.4-1.3-.4-2 0-1 .3-2 1-2.6.5-.7 1.3-1.2 2.3-1.4v-.2c-.8-.3-1.5-.8-2-1.4-.5-.7-.8-1.5-.8-2.4 0-.7.1-1.3.4-1.8.2-.6.6-1 1-1.4l1.9-1 2.5-.2c.9 0 1.7 0 2.4.3.7.2 1.3.5 1.8.9s.9.8 1.1 1.4c.3.5.4 1.1.4 1.8 0 1-.3 1.7-.8 2.4-.5.6-1.2 1-2 1.4v.2c1 .2 1.8.7 2.4 1.4.6.7.9 1.5.9 2.6a4.4 4.4 0 0 1-1.6 3.5 6 6 0 0 1-2 1c-.8.3-1.6.4-2.6.4Zm0-2.8c.8 0 1.4-.2 1.8-.5.4-.4.6-1 .6-1.6v-.5a2 2 0 0 0-.6-1.6c-.4-.3-1-.5-1.8-.5s-1.5.2-1.9.5a2 2 0 0 0-.6 1.6v.5c0 .7.2 1.2.6 1.6.4.3 1 .5 1.9.5Zm0-7.4c.7 0 1.3-.1 1.7-.5.4-.4.6-.9.6-1.5v-.4c0-.6-.2-1-.6-1.4-.4-.4-1-.6-1.7-.6-.8 0-1.4.2-1.8.6-.4.3-.6.8-.6 1.4v.4c0 .6.2 1.1.6 1.5.4.4 1 .5 1.8.5Zm11.4 9.9 11.7-16.8h3.1l-11.6 16.8h-3.2Zm1.3-7.5c-1.4 0-2.5-.4-3.2-1.2-.8-.8-1.2-2-1.2-3.6s.4-2.7 1.2-3.5c.7-.8 1.8-1.2 3.2-1.2 1.4 0 2.4.4 3.2 1.2.7.8 1 2 1 3.5 0 1.6-.3 2.8-1 3.6-.8.8-1.8 1.2-3.2 1.2Zm0-2.1a1 1 0 0 0 1-.5l.2-1.6v-1.2a3 3 0 0 0-.3-1.6 1 1 0 0 0-1-.5 1 1 0 0 0-.9.5 3 3 0 0 0-.3 1.6v1.2c0 .7.1 1.3.3 1.6.2.3.6.5 1 .5Zm12.3 9.9c-1.4 0-2.5-.4-3.2-1.2-.7-.8-1.1-2-1.1-3.6 0-1.5.4-2.7 1-3.5.8-.8 1.9-1.2 3.3-1.2s2.5.4 3.2 1.2c.8.8 1.1 2 1.1 3.5 0 1.6-.3 2.8-1 3.6-.8.8-1.9 1.2-3.3 1.2Zm0-2a1 1 0 0 0 1-.6c.2-.3.3-.8.3-1.5V293a3 3 0 0 0-.4-1.6 1 1 0 0 0-.9-.5 1 1 0 0 0-1 .5 3 3 0 0 0-.2 1.6v1.3c0 .7 0 1.2.3 1.5.2.4.5.5 1 .5Zm-175.5 33c-.8 0-1.5-.2-2.2-.5-.6-.2-1.2-.7-1.6-1.2a6 6 0 0 1-1.1-2c-.3-.8-.4-1.7-.4-2.8 0-1 .1-1.9.4-2.6.2-.8.6-1.5 1-2 .5-.6 1-1 1.7-1.3a5.2 5.2 0 0 1 4.4 0c.7.3 1.3.7 1.7 1.2.5.6.9 1.3 1.1 2 .3.8.4 1.7.4 2.7 0 1-.1 2-.4 2.8a6 6 0 0 1-1 2c-.5.5-1 1-1.7 1.2-.7.3-1.4.5-2.3.5Zm0-1.2c1.2 0 2.2-.4 2.9-1.2.7-.7 1-1.8 1-3.3v-1.5c0-1.5-.3-2.6-1-3.3a3.6 3.6 0 0 0-2.9-1.2c-1.2 0-2.1.4-2.8 1.2-.7.7-1 1.8-1 3.3v1.5c0 1.5.3 2.6 1 3.3.7.8 1.6 1.2 2.8 1.2ZM45 318h-2.2v-1.2H45v-3.4c0-.7.1-1.1.4-1.5.3-.4.8-.6 1.5-.6H49v1.2h-2.7v4.3H49v1.2h-2.7v11H45v-11Zm14.6 11c-.5 0-.9 0-1.2-.3-.2-.3-.3-.7-.3-1.1V318h-2.2v-1.2h1.4c.4 0 .6 0 .7-.2l.2-.7v-2.5h1.2v3.4h2.8v1.2h-2.8v9.9H62v1.2h-2.4Zm5.9-17.7h1.4v7.4a3.8 3.8 0 0 1 3.6-2.2c1.4 0 2.4.4 3.1 1.2.7.8 1.1 2 1.1 3.5v7.9h-1.4v-7.7c0-1.2-.2-2.1-.8-2.7-.5-.7-1.3-1-2.3-1-.4 0-.8 0-1.2.2l-1.1.5c-.3.2-.6.5-.8.9l-.2 1.2v8.6h-1.4v-17.8Zm18 18c-.9 0-1.6 0-2.3-.4a4.8 4.8 0 0 1-2.8-3.2c-.2-.8-.4-1.7-.4-2.8 0-1 .2-1.9.4-2.6.3-.8.6-1.5 1-2 .6-.6 1.1-1 1.8-1.3.6-.3 1.4-.5 2.2-.5a5 5 0 0 1 4.8 3.6c.2.8.4 1.6.4 2.5v.6h-9.1v.6c0 .7 0 1.2.2 1.8l.8 1.4 1.3.9c.5.2 1 .3 1.7.3 1.8 0 3-.8 3.7-2.5l1 .7c-.4.9-1 1.6-1.8 2.2-.8.5-1.8.8-3 .8Zm-.1-11.6c-.6 0-1.1 0-1.6.3a3.6 3.6 0 0 0-2 2.3c-.2.5-.3 1.1-.3 1.7v.2H87v-.2c0-.7-.1-1.3-.3-1.8a3.7 3.7 0 0 0-2-2.2c-.4-.2-.9-.3-1.4-.3Zm12.9-.9h1.3l3 11 3.3-11h1.3l3.3 11 3-11h1.2l-3.4 12.3h-1.7l-3-10.4h-.1l-3.1 10.4h-1.7l-3.4-12.3Zm23.8 12.6c-.8 0-1.6-.2-2.2-.5a4.8 4.8 0 0 1-2.8-3.2c-.3-.8-.4-1.7-.4-2.8 0-1 .1-1.9.4-2.6a4.7 4.7 0 0 1 2.8-3.3c.6-.3 1.4-.5 2.2-.5a5 5 0 0 1 4.8 3.6c.2.8.4 1.6.4 2.5v.6h-9.1v.6c0 .7 0 1.2.2 1.8l.8 1.4 1.3.9c.5.2 1 .3 1.7.3 1.8 0 3-.8 3.7-2.5l1 .7c-.4.9-1 1.6-1.8 2.2-.8.5-1.8.8-3 .8Zm0-11.7c-.6 0-1.2 0-1.6.3a3.6 3.6 0 0 0-2 2.3c-.3.5-.3 1.1-.3 1.7v.2h7.6v-.2c0-.7-.1-1.3-.3-1.8a3.7 3.7 0 0 0-2-2.2c-.4-.2-.9-.3-1.4-.3Zm8.6-6.4h1.4v7.5c.4-.7.8-1.3 1.5-1.7.6-.4 1.4-.6 2.3-.6 1.6 0 2.8.6 3.7 1.7a7.4 7.4 0 0 1 1.4 4.7c0 2.1-.5 3.7-1.4 4.8a4.5 4.5 0 0 1-3.7 1.7c-1 0-1.7-.2-2.3-.6-.6-.4-1-1-1.4-1.7h-.1v2h-1.4v-17.8Zm4.9 16.9c1.2 0 2.2-.4 2.9-1.2.7-.8 1-1.9 1-3.2v-1.7c0-1.3-.3-2.4-1-3.2a3.6 3.6 0 0 0-2.9-1.2 4.3 4.3 0 0 0-2.5.8c-.3.2-.5.5-.7.9-.2.3-.3.7-.3 1v5c0 .4 0 .8.3 1.1a3.1 3.1 0 0 0 1.8 1.5l1.4.2Zm14.6-11.4h1.4v2c.3-.7.8-1.3 1.4-1.7.6-.4 1.4-.6 2.4-.6 1.6 0 2.8.6 3.7 1.7a7.4 7.4 0 0 1 1.3 4.7c0 2.1-.4 3.7-1.3 4.8a4.5 4.5 0 0 1-3.7 1.7c-1 0-1.8-.2-2.4-.6-.6-.4-1-1-1.4-1.7v6.8h-1.4v-17.1Zm4.9 11.4c1.2 0 2.1-.4 2.8-1.2.7-.8 1-1.9 1-3.2v-1.7c0-1.3-.3-2.4-1-3.2a3.6 3.6 0 0 0-2.8-1.2 4.3 4.3 0 0 0-2.5.8c-.3.2-.6.5-.8.9-.2.3-.2.7-.2 1v5c0 .4 0 .8.2 1.1a3.1 3.1 0 0 0 1.9 1.5l1.4.2Zm17.3.9c-.5 0-.9-.1-1.1-.4-.3-.3-.4-.7-.4-1.1v-.5h-.2c-.2.7-.7 1.3-1.3 1.7-.6.4-1.4.6-2.4.6-1.3 0-2.3-.3-3-1-.7-.6-1-1.5-1-2.6s.3-2 1.1-2.6c.8-.7 2-1 3.9-1h2.8v-1.4c0-2-1-3-3.2-3-.8 0-1.5 0-2 .4s-1 .9-1.3 1.5l-.9-.7c.4-.7.9-1.3 1.6-1.8.7-.5 1.6-.7 2.7-.7 1.4 0 2.5.4 3.3 1a4 4 0 0 1 1.2 3.1v7.3h1.6v1.2h-1.4Zm-5.2-.9c.5 0 1 0 1.4-.2l1.1-.5c.4-.3.6-.5.8-.9.2-.3.3-.7.3-1v-2.4h-2.9c-1.2 0-2.1.2-2.7.6-.5.4-.8 1-.8 1.6v.6c0 .7.3 1.3.8 1.7.5.3 1.2.5 2 .5Zm19.5 2.3a3 3 0 0 1-1.5 2.8c-1 .6-2.5.9-4.4.9-1.9 0-3.2-.3-4-.8a2.6 2.6 0 0 1-1.3-2.3c0-.7.2-1.3.5-1.7.4-.4 1-.7 1.6-.9v-.2c-.8-.3-1.1-.8-1.1-1.7 0-.6.2-1 .6-1.3a4 4 0 0 1 1.4-.8c-.7-.4-1.2-.9-1.6-1.5-.4-.6-.6-1.4-.6-2.3 0-.6 0-1.2.3-1.7a3.8 3.8 0 0 1 2.3-2.2c.5-.2 1.2-.3 1.8-.3 1 0 1.8.2 2.5.6v-.6c0-.4 0-.6.3-.9.1-.2.4-.3.8-.3h2.1v1.2H182v1.1a4.2 4.2 0 0 1 1.3 3 4.2 4.2 0 0 1-1.2 3.1 4 4 0 0 1-1.4.9 5.5 5.5 0 0 1-3.1.1 4 4 0 0 0-1.3.6c-.4.3-.5.6-.5 1 0 .8.6 1.1 2 1.1h2.8c1.5 0 2.5.3 3.2.9.7.5 1 1.3 1 2.2Zm-1.3.1c0-.6-.2-1-.7-1.4-.4-.3-1.1-.5-2.2-.5h-4c-.5.2-1 .4-1.3.8a2 2 0 0 0-.4 1.3c0 .7.3 1.2.8 1.6.5.4 1.3.7 2.4.7h1.5c1.2 0 2.2-.2 2.9-.6.6-.4 1-1 1-1.9Zm-4.6-6.8c.9 0 1.6-.2 2.2-.7.5-.5.8-1.2.8-2v-.8c0-.8-.3-1.5-.8-2-.6-.4-1.3-.7-2.2-.7-1 0-1.8.3-2.3.7-.5.5-.8 1.2-.8 2v.8c0 .8.3 1.5.8 2 .6.5 1.3.7 2.3.7Zm12.8 5.6c-.8 0-1.6-.2-2.3-.5a4.8 4.8 0 0 1-2.7-3.2c-.3-.8-.4-1.7-.4-2.8 0-1 .1-1.9.4-2.6a4.7 4.7 0 0 1 2.8-3.3c.6-.3 1.3-.5 2.2-.5a5 5 0 0 1 4.8 3.6c.2.8.3 1.6.3 2.5v.6h-9v.6c0 .7 0 1.2.2 1.8l.8 1.4 1.3.9c.5.2 1 .3 1.6.3 1.8 0 3-.8 3.8-2.5l1 .7c-.4.9-1 1.6-1.8 2.2-.9.5-1.9.8-3 .8Zm0-11.7c-.6 0-1.2 0-1.7.3a3.6 3.6 0 0 0-2 2.3c-.2.5-.3 1.1-.3 1.7v.2h7.6v-.2c0-.7 0-1.3-.2-1.8a3.7 3.7 0 0 0-2-2.2c-.4-.2-.9-.3-1.4-.3Zm12.1 11.7c-1 0-2-.2-2.8-.6-.7-.4-1.4-1-2-1.8l1-.8c.6.7 1.1 1.2 1.8 1.5.6.3 1.3.5 2 .5 1 0 1.8-.2 2.3-.6.5-.4.7-1 .7-1.7a2 2 0 0 0-.6-1.6c-.3-.3-1-.6-1.9-.7l-1-.2c-.5 0-1-.2-1.5-.4a4 4 0 0 1-1.2-.6 3 3 0 0 1-.8-1c-.2-.4-.3-.9-.3-1.4 0-.6.2-1.1.4-1.5.2-.5.5-.8.8-1.1l1.4-.7 1.6-.2c1 0 1.9.2 2.5.5.7.4 1.3.9 1.7 1.4l-.9.9c-.3-.4-.7-.8-1.3-1.1-.5-.3-1.2-.5-2-.5-1 0-1.6.2-2.1.6a2 2 0 0 0-.7 1.6c0 .7.2 1.2.6 1.6.5.3 1.1.5 2 .7l1 .1a5 5 0 0 1 2.8 1.1 3 3 0 0 1 .9 2.3c0 1.2-.4 2-1.2 2.7-.8.7-1.8 1-3.2 1Zm15.7-.3c-.5 0-.8-.1-1-.4-.3-.3-.5-.7-.5-1.1V318h-2.1v-1.2h1.4c.3 0 .5 0 .7-.2l.1-.7v-2.5h1.3v3.4h2.8v1.2h-2.8v9.9h2.6v1.2h-2.5Zm10.3.3c-.9 0-1.6-.2-2.3-.5a4.8 4.8 0 0 1-2.8-3.2c-.2-.8-.3-1.7-.3-2.8 0-1 .1-1.9.3-2.6.3-.8.7-1.5 1.1-2 .5-.6 1-1 1.7-1.3.7-.3 1.4-.5 2.2-.5a5 5 0 0 1 4.8 3.6c.3.8.4 1.6.4 2.5v.6h-9v.6c0 .7 0 1.2.2 1.8.2.5.4 1 .8 1.4l1.3.9c.5.2 1 .3 1.6.3 1.8 0 3-.8 3.8-2.5l1 .7c-.4.9-1 1.6-1.9 2.2-.8.5-1.8.8-3 .8Zm0-11.7c-.7 0-1.2 0-1.7.3a3.6 3.6 0 0 0-2 2.3c-.2.5-.3 1.1-.3 1.7v.2h7.6v-.2c0-.7 0-1.3-.2-1.8a3.7 3.7 0 0 0-2-2.2c-.4-.2-1-.3-1.5-.3Zm12 11.7c-1 0-2-.2-2.7-.6-.7-.4-1.4-1-2-1.8l1-.8c.6.7 1.1 1.2 1.7 1.5.7.3 1.4.5 2.2.5 1 0 1.7-.2 2.2-.6.5-.4.7-1 .7-1.7a2 2 0 0 0-.6-1.6c-.4-.3-1-.6-1.9-.7l-1-.2c-.6 0-1-.2-1.5-.4a4 4 0 0 1-1.2-.6 3 3 0 0 1-.8-1c-.2-.4-.3-.9-.3-1.4 0-.6.1-1.1.3-1.5.3-.5.6-.8 1-1.1.3-.3.7-.5 1.3-.7l1.6-.2c1 0 1.9.2 2.5.5.7.4 1.2.9 1.7 1.4l-.9.9c-.3-.4-.8-.8-1.3-1.1-.5-.3-1.2-.5-2-.5-1 0-1.6.2-2.1.6a2 2 0 0 0-.7 1.6c0 .7.2 1.2.6 1.6.5.3 1.1.5 2 .7l1 .1a5 5 0 0 1 2.7 1.1 3 3 0 0 1 1 2.3c0 1.2-.4 2-1.2 2.7-.8.7-1.9 1-3.2 1Zm10-.3c-.4 0-.8-.1-1-.4-.3-.3-.5-.7-.5-1.1V318h-2v-1.2h1.3c.3 0 .6 0 .7-.2l.2-.7v-2.5h1.2v3.4h2.8v1.2h-2.8v9.9h2.6v1.2h-2.4Zm10.3.3c-.8 0-1.6-.2-2.2-.5a4.8 4.8 0 0 1-2.8-3.2c-.3-.8-.4-1.7-.4-2.8 0-1 .1-1.9.4-2.6a4.7 4.7 0 0 1 2.8-3.3c.6-.3 1.3-.5 2.2-.5a5 5 0 0 1 4.8 3.6c.2.8.3 1.6.3 2.5v.6h-9v.6c0 .7 0 1.2.2 1.8l.8 1.4 1.3.9c.5.2 1 .3 1.7.3 1.7 0 3-.8 3.7-2.5l1 .7c-.4.9-1 1.6-1.8 2.2-.9.5-1.8.8-3 .8Zm0-11.7c-.6 0-1.2 0-1.6.3a3.6 3.6 0 0 0-2 2.3c-.3.5-.4 1.1-.4 1.7v.2h7.7v-.2c0-.7-.1-1.3-.3-1.8a3.7 3.7 0 0 0-2-2.2c-.4-.2-.9-.3-1.4-.3Zm16.6 9.4h-.1a4 4 0 0 1-1.4 1.7c-.6.4-1.4.6-2.3.6-1.6 0-2.9-.6-3.8-1.7a7.4 7.4 0 0 1-1.3-4.8c0-2 .4-3.6 1.3-4.7a4.5 4.5 0 0 1 3.8-1.7c.9 0 1.7.2 2.3.6.6.4 1 1 1.4 1.7v-7.5h1.4v17.8h-1.3v-2Zm-3.5 1 1.3-.1c.4-.2.8-.3 1.1-.6.4-.2.6-.5.8-.9.2-.3.3-.7.3-1.2v-4.8c0-.4-.1-.8-.3-1.1-.2-.4-.4-.7-.8-.9l-1-.5a4 4 0 0 0-1.4-.3c-1.3 0-2.2.4-3 1.2-.6.8-1 1.9-1 3.2v1.7c0 1.3.4 2.4 1 3.2.8.8 1.7 1.2 3 1.2ZM33 380.2l5.6-13.8h-5.2v3h-3v-6h11.8v3.2l-5.4 13.6H33ZM49.7 370c1 0 1.6-.2 2-.5.4-.4.6-.8.6-1.3v-.2c0-.6-.2-1.1-.6-1.5-.4-.3-1-.5-1.7-.5-.6 0-1.3.2-1.9.5-.6.3-1 .8-1.5 1.5l-2.2-2.1 1-1.2 1.3-.9 1.5-.5a8.7 8.7 0 0 1 4.4.1c.7.2 1.3.5 1.9.9.5.4.9.8 1.2 1.4.2.5.4 1.1.4 1.8a3.8 3.8 0 0 1-2 3.4l-1.2.4v.1a4.8 4.8 0 0 1 2.5 1.3 4.2 4.2 0 0 1 1 2.7c0 .8-.2 1.5-.5 2-.3.7-.7 1.2-1.3 1.6-.5.5-1.2.8-2 1a9.4 9.4 0 0 1-6.6-.6 6.8 6.8 0 0 1-2.2-2.2l2.7-2.1c.4.7.8 1.3 1.3 1.7.6.4 1.3.7 2.2.7.8 0 1.5-.2 2-.6.4-.5.6-1 .6-1.7v-.2c0-.7-.3-1.2-.8-1.5-.5-.4-1.2-.5-2.1-.5h-1.5v-3h1.5ZM65 380.5a9 9 0 0 1-2.6-.4 6 6 0 0 1-2-1c-.5-.4-1-1-1.2-1.5-.3-.6-.4-1.3-.4-2 0-1 .3-2 .9-2.6.6-.7 1.4-1.2 2.4-1.4v-.2c-.8-.3-1.5-.8-2-1.4-.6-.7-.8-1.5-.8-2.4 0-.7.1-1.3.4-1.8.2-.6.6-1 1-1.4l1.9-1 2.4-.2c1 0 1.8 0 2.5.3.7.2 1.3.5 1.8.9s.8.8 1 1.4c.3.5.5 1.1.5 1.8 0 1-.3 1.7-.8 2.4-.5.6-1.2 1-2 1.4v.2c1 .2 1.8.7 2.4 1.4.6.7.9 1.5.9 2.6a4.4 4.4 0 0 1-1.7 3.5 6 6 0 0 1-2 1c-.7.3-1.6.4-2.6.4Zm0-2.8c.8 0 1.4-.2 1.9-.5.4-.4.6-1 .6-1.6v-.5a2 2 0 0 0-.6-1.6c-.5-.3-1-.5-1.9-.5-.8 0-1.4.2-1.8.5a2 2 0 0 0-.6 1.6v.5c0 .7.2 1.2.6 1.6.4.3 1 .5 1.8.5Zm0-7.4c.8 0 1.4-.1 1.8-.5.4-.4.6-.9.6-1.5v-.4c0-.6-.2-1-.6-1.4-.4-.4-1-.6-1.8-.6-.7 0-1.3.2-1.7.6-.4.3-.6.8-.6 1.4v.4c0 .6.2 1.1.6 1.5.4.4 1 .5 1.7.5Zm8.9-7.9h3.5V373h.2l1.5-2.3 2.6-3h3.9l-4.2 4.8 4.7 7.8h-4.3l-2.8-5.3-1.6 1.7v3.6H74v-17.8Zm16.5 17.8-3.8-16.8h3.6l1.6 8 .9 4.7 1.1-4.6 1.9-8h4l1.8 8 1 4.6h.1l.9-4.6 1.6-8h3.5l-4 16.7h-4l-2.2-9-.8-3.8-1 3.7-2 9h-4.2Zm20.5-17.8h3.6v7.3h.1a3.5 3.5 0 0 1 3.5-2.4c1.3 0 2.3.4 3 1.3a6 6 0 0 1 1 3.7v7.9h-3.6v-7.6c0-.8-.1-1.4-.4-1.8-.3-.4-.7-.6-1.4-.6a3 3 0 0 0-1.5.4c-.3.2-.4.4-.5.6-.2.3-.2.5-.2.8v8.2h-3.6v-17.8Zm25 18c-.9 0-1.6 0-2.3-.4-.6-.2-1.2-.7-1.7-1.2a6 6 0 0 1-1-2c-.3-.8-.4-1.7-.4-2.8 0-1 0-1.9.4-2.6.2-.8.6-1.5 1-2 .5-.6 1-1 1.7-1.3a5.2 5.2 0 0 1 4.4 0c.7.3 1.2.7 1.7 1.2.5.6.8 1.3 1 2a8.9 8.9 0 0 1 0 5.4 6 6 0 0 1-1 2.1c-.5.5-1 1-1.7 1.2-.6.3-1.4.5-2.2.5Zm0-1.1c1.1 0 2-.4 2.8-1.2.7-.7 1-1.8 1-3.3v-1.5c0-1.5-.3-2.6-1-3.3a3.6 3.6 0 0 0-2.9-1.2c-1.2 0-2.1.4-2.8 1.2-.7.7-1 1.8-1 3.3v1.5c0 1.5.3 2.6 1 3.3.7.8 1.6 1.2 2.8 1.2ZM145 369h-2v-1.2h2v-3.4c0-.7.2-1.1.5-1.5.3-.4.8-.6 1.4-.6h2.2v1.2h-2.7v4.3h2.7v1.2h-2.7v11h-1.4v-11Zm17 11.4c-.9 0-1.6-.2-2.3-.5a4.8 4.8 0 0 1-2.8-3.2c-.2-.8-.4-1.7-.4-2.8 0-1 .2-1.9.4-2.6.3-.8.6-1.5 1-2 .6-.6 1.1-1 1.8-1.3.6-.3 1.4-.5 2.2-.5a5 5 0 0 1 4.8 3.6c.3.8.4 1.6.4 2.5v.6H158v.6c0 .7 0 1.2.3 1.8.1.5.4 1 .7 1.4l1.3.9c.5.2 1 .3 1.7.3 1.8 0 3-.8 3.7-2.5l1 .7c-.4.9-1 1.6-1.8 2.2-.8.5-1.8.8-3 .8Zm-.1-11.7c-.6 0-1.1 0-1.6.3a3.6 3.6 0 0 0-2 2.3c-.2.5-.3 1.1-.3 1.7v.2h7.6v-.2c0-.7 0-1.3-.3-1.8a3.7 3.7 0 0 0-2-2.2c-.4-.2-.9-.3-1.4-.3Zm8.7 11.4v-12.3h1.3v2h.1c.3-.7.7-1.2 1.3-1.6.5-.5 1.3-.7 2.3-.7 1.3 0 2.4.4 3 1.2.8.8 1.2 2 1.2 3.5v7.9h-1.4v-7.7c0-1.2-.3-2.1-.8-2.7-.5-.7-1.3-1-2.3-1-.5 0-.9 0-1.3.2l-1 .5c-.4.2-.6.5-.8.9-.2.3-.3.7-.3 1.2v8.6h-1.3Zm17.9.3c-.8 0-1.6-.2-2.3-.5a4.8 4.8 0 0 1-2.7-3.2c-.3-.8-.4-1.7-.4-2.8 0-1 .1-1.9.4-2.6a4.7 4.7 0 0 1 2.8-3.3c.6-.3 1.3-.5 2.2-.5a5 5 0 0 1 4.8 3.6c.2.8.3 1.6.3 2.5v.6h-9v.6c0 .7 0 1.2.2 1.8l.8 1.4 1.3.9c.5.2 1 .3 1.6.3 1.8 0 3-.8 3.8-2.5l1 .7c-.4.9-1 1.6-1.8 2.2-.9.5-1.9.8-3 .8Zm0-11.7c-.6 0-1.2 0-1.7.3a3.6 3.6 0 0 0-2 2.3c-.2.5-.3 1.1-.3 1.7v.2h7.6v-.2c0-.7 0-1.3-.2-1.8a3.7 3.7 0 0 0-2-2.2c-.4-.2-.9-.3-1.4-.3Zm8.6 11.4v-12.3h1.4v2.2c.3-.6.7-1 1.3-1.5a4 4 0 0 1 2.5-.7h.8v1.3H202c-1 0-1.9.3-2.5.7-.7.5-1 1-1 1.9v8.4h-1.4Zm18 1.4a3 3 0 0 1-1.4 2.8c-1 .6-2.5.9-4.4.9-1.9 0-3.2-.3-4-.8a2.6 2.6 0 0 1-1.3-2.3c0-.7.2-1.3.5-1.7.4-.4 1-.7 1.6-.9v-.2c-.8-.3-1.2-.8-1.2-1.7 0-.6.2-1 .6-1.3a4 4 0 0 1 1.5-.8c-.7-.4-1.3-.9-1.7-1.5-.4-.6-.6-1.4-.6-2.3 0-.6.2-1.2.4-1.7a3.8 3.8 0 0 1 2.3-2.2c.5-.2 1.1-.3 1.8-.3 1 0 1.8.2 2.5.6v-.6c0-.4 0-.6.2-.9.2-.2.5-.3 1-.3h2v1.2h-2.5v1.1c.4.4.8.9 1 1.4.2.5.3 1 .3 1.7a4.2 4.2 0 0 1-1.2 3 4 4 0 0 1-1.4.9 5.5 5.5 0 0 1-3.1.1 4 4 0 0 0-1.4.6c-.3.3-.5.6-.5 1 0 .8.7 1.1 2 1.1h2.9c1.5 0 2.5.3 3.2.9.7.5 1 1.3 1 2.2Zm-1.2.1c0-.6-.2-1-.7-1.4-.4-.3-1.1-.5-2.2-.5h-4c-.5.2-1 .4-1.3.8a2 2 0 0 0-.4 1.3c0 .7.2 1.2.8 1.6.5.4 1.3.7 2.4.7h1.5c1.2 0 2.1-.2 2.8-.6.7-.4 1-1 1-1.9Zm-4.7-6.8c1 0 1.7-.2 2.2-.7.6-.5.9-1.2.9-2v-.8c0-.8-.3-1.5-.9-2-.5-.4-1.2-.7-2.2-.7-1 0-1.7.3-2.2.7-.5.5-.8 1.2-.8 2v.8c0 .8.3 1.5.8 2s1.3.7 2.2.7Zm16-7h1.5l-5.7 15.7c-.2.6-.4 1-.7 1.1-.3.2-.7.3-1.4.3h-1.4v-1.2h2.1l1.2-3.2-4.6-12.7h1.5l3.7 10.8h.1l3.8-10.8ZM33.6 396.1v10H33v-10h-3.7v-.5h8v.5h-3.7ZM39 395h.5v4.7c.2-.4.5-.7.9-1 .3-.2.9-.4 1.5-.4.9 0 1.5.3 2 .8.4.5.6 1.2.6 2.2v4.9h-.5v-4.9c0-.8-.2-1.5-.6-1.9-.3-.4-.9-.6-1.6-.6l-.9.1-.7.4c-.2.1-.4.3-.5.6l-.2.8v5.5h-.5V395Zm13.5 11.2c-.5 0-.7-.2-.7-.6v-.6c-.2.4-.5.7-1 1-.3.2-.8.4-1.5.4-.8 0-1.4-.2-1.8-.6a2 2 0 0 1-.7-1.6c0-.4 0-.7.2-1 0-.2.2-.4.5-.6.2-.2.5-.4.9-.5l1.4-.1h2v-1c0-.8-.2-1.3-.5-1.7-.4-.3-1-.5-1.6-.5-1 0-1.8.4-2.2 1.3l-.4-.2c.2-.5.5-.9 1-1.1.3-.3.9-.5 1.6-.5.9 0 1.5.2 2 .7.4.4.6 1 .6 1.9v4.8h1.2v.5h-1Zm-3.2-.3 1-.1.8-.4.5-.6.2-.9v-1.5h-2c-.9 0-1.5.1-1.9.4-.3.3-.5.7-.5 1.1v.5c0 .5.1.9.5 1.1.4.3.9.4 1.4.4Zm7.1.3c-.4 0-.6-.2-.6-.6V399h-1.4v-.5h1l.3-.1v-2.1h.6v2.2h1.8v.5h-1.8v6.7H58v.5h-1.6Zm4.6-11.4c.2 0 .3 0 .4.2l.1.4v.1c0 .5-.1.9-.3 1.4-.2.4-.5.8-.9 1.1H60l.7-1 .4-1-.4-.2-.1-.3v-.5l.5-.2Zm4.7 11.6c-.6 0-1.2-.1-1.7-.4-.4-.2-.8-.6-1.2-1l.4-.4c.4.5.7.8 1.1 1 .4.2.9.3 1.4.3.7 0 1.2-.1 1.6-.4.3-.3.5-.7.5-1.2 0-.6-.1-1-.4-1.2-.3-.3-.8-.4-1.4-.5l-.7-.1a5 5 0 0 1-.9-.3c-.3 0-.5-.2-.7-.4-.2-.1-.4-.3-.5-.6l-.1-.9c0-.3 0-.6.2-.8l.5-.7c.2-.1.5-.3.8-.3l1-.2c.6 0 1.2.1 1.6.4l1 .8-.4.3a3.3 3.3 0 0 0-.8-.7 3 3 0 0 0-1.4-.3c-.6 0-1.1.1-1.5.4-.3.2-.5.6-.5 1.1 0 .5.1 1 .5 1.2.3.2.7.4 1.3.5h.7c.7.2 1.2.4 1.6.7.4.4.6.9.6 1.5a2 2 0 0 1-.7 1.6 3 3 0 0 1-1.9.6Zm11.2 0a3 3 0 0 1-2.4-1c-.6-.7-.9-1.7-.9-3 0-1.4.3-2.4.9-3a3 3 0 0 1 2.4-1c.5 0 .9 0 1.3.2s.7.4 1 .8c.2.3.5.7.6 1.2.2.4.2 1 .2 1.5v.3h-5.8v.4c0 .5 0 .9.2 1.3l.5 1 .9.6 1.1.2c1.3 0 2.1-.6 2.6-1.8l.4.3c-.3.6-.6 1-1.1 1.4a3 3 0 0 1-1.9.6Zm0-7.6c-.4 0-.8 0-1.2.2l-.8.6-.5 1-.2 1.3h5.3l-.2-1.3c-.2-.4-.3-.7-.6-1l-.8-.6-1-.2Zm5.5 7.4v-7.7h.6v1.2c.1-.4.4-.7.8-1 .4-.2.9-.4 1.6-.4.8 0 1.5.3 1.9.8.5.5.7 1.2.7 2.2v4.9h-.6v-4.9c0-.8-.1-1.5-.5-1.9-.4-.4-1-.6-1.7-.6l-.8.1c-.3 0-.5.2-.8.4l-.5.6-.1.8v5.5h-.6Zm11 .2a3 3 0 0 1-2.3-1c-.6-.7-.9-1.7-.9-3 0-1.4.3-2.4.9-3a3 3 0 0 1 2.4-1c1 0 1.8.3 2.4 1 .5.6.8 1.6.8 3 0 1.3-.3 2.3-.8 3a3 3 0 0 1-2.4 1Zm0-.5c1 0 1.6-.3 2-.8.5-.6.8-1.4.8-2.3v-.9c0-1-.3-1.7-.7-2.3-.5-.5-1.2-.8-2-.8-.9 0-1.5.3-2 .8-.5.6-.7 1.3-.7 2.3v.9c0 1 .2 1.7.7 2.3.5.5 1.1.8 2 .8Zm10.6-.9a2.3 2.3 0 0 1-.8 1l-.7.3a3 3 0 0 1-.9 0c-.8 0-1.5-.2-2-.7-.4-.5-.6-1.2-.6-2.2v-4.9h.5v4.8c0 1 .2 1.6.6 2 .4.4 1 .6 1.6.6a3 3 0 0 0 1.6-.5c.2-.1.4-.3.5-.6.2-.2.2-.5.2-.9v-5.4h.6v7.7h-.6V405Zm9.7 2.1c0 .8-.3 1.4-1 1.8-.6.3-1.5.5-2.6.5-1.2 0-2-.2-2.5-.5-.6-.4-.8-.9-.8-1.5 0-.4.1-.8.4-1 .2-.4.6-.6 1-.7-.5-.2-.7-.6-.7-1.1 0-.4 0-.7.3-.9l1-.4c-.5-.3-.8-.6-1-1-.3-.3-.5-.8-.5-1.4l.2-1a2.3 2.3 0 0 1 1.4-1.4l1.1-.2c.7 0 1.3.2 1.7.5v-.6c0-.4.2-.6.5-.6h1.5v.5H112v1c.3.2.4.4.6.8l.2 1-.2 1a2.4 2.4 0 0 1-1.4 1.4 3.2 3.2 0 0 1-2 0l-1 .5c-.2.2-.3.4-.3.7l.3.6 1 .2h2c.9 0 1.5.2 2 .5.3.3.5.8.5 1.3Zm-.5 0c0-.4-.2-.7-.5-1-.3-.2-.8-.3-1.6-.3h-2.4l-1 .5c-.3.3-.4.7-.4 1 0 .5.2 1 .6 1.2.4.3 1 .4 1.7.4h1.9l1-.4.5-.5.2-.8Zm-3.1-4c.6 0 1.1-.2 1.5-.6.4-.3.6-.8.6-1.3v-.6c0-.5-.2-1-.6-1.3-.4-.3-.9-.5-1.5-.5-.7 0-1.2.2-1.6.5-.4.3-.6.8-.6 1.3v.6c0 .5.2 1 .6 1.3.4.4.9.5 1.6.5Zm5.5-8.1h.5v4.7l.8-1c.4-.2 1-.4 1.6-.4.9 0 1.5.3 2 .8.4.5.6 1.2.6 2.2v4.9h-.5v-4.9c0-.8-.2-1.5-.6-1.9-.3-.4-.9-.6-1.6-.6l-.9.1-.7.4c-.2.1-.4.3-.5.6l-.2.8v5.5h-.5V395Zm14.7 11.4a3 3 0 0 1-2.5-1c-.5-.7-.8-1.7-.8-3 0-1.4.2-2.4.8-3a3 3 0 0 1 2.4-1c.5 0 .9 0 1.3.2s.7.4 1 .8c.3.3.5.7.6 1.2.2.4.3 1 .3 1.5v.3h-5.9v.4c0 .5 0 .9.2 1.3l.5 1 .9.6 1.2.2c1.2 0 2-.6 2.5-1.8l.4.3c-.2.6-.6 1-1 1.4a3 3 0 0 1-2 .6Zm-.1-7.6c-.4 0-.8 0-1.1.2l-.9.6-.5 1-.2 1.3h5.3c0-.5 0-1-.2-1.3l-.5-1-.9-.6-1-.2Zm6.2 7.4c-.4 0-.7-.2-.7-.6V395h.6v10.7h1.2v.5h-1.1Zm5.9.2a3 3 0 0 1-2.5-1c-.6-.7-.8-1.7-.8-3 0-1.4.2-2.4.8-3a3 3 0 0 1 2.4-1c.5 0 .9 0 1.3.2s.7.4 1 .8c.3.3.5.7.6 1.2.2.4.3 1 .3 1.5v.3h-5.9v.4c0 .5 0 .9.2 1.3l.5 1 .9.6 1.2.2c1.2 0 2-.6 2.5-1.8l.4.3a3 3 0 0 1-3 2Zm-.1-7.6c-.4 0-.8 0-1.1.2l-.9.6-.5 1-.2 1.3h5.3c0-.5 0-1-.2-1.3l-.5-1-.9-.6-1-.2Zm8.1 7.6a3 3 0 0 1-2.4-1c-.5-.7-.8-1.7-.8-3 0-1.4.3-2.4.8-3a3 3 0 0 1 2.4-1c.7 0 1.2 0 1.6.4.5.2.8.6 1 1.1l-.4.2c-.2-.4-.5-.7-.9-1-.3-.2-.7-.3-1.3-.3-.8 0-1.5.3-2 .8-.4.6-.6 1.4-.6 2.3v.9c0 1 .2 1.7.6 2.3.5.5 1.2.8 2 .8.6 0 1-.1 1.4-.3l1-1 .3.2a3 3 0 0 1-1 1.1 3 3 0 0 1-1.7.5Zm5.9-.2c-.5 0-.7-.2-.7-.6V399h-1.4v-.5h1l.3-.1.1-.4v-1.7h.5v2.2h1.8v.5h-1.8v6.7h1.7v.5h-1.5Zm3.8 0v-7.7h.6v1.3l.8-.9c.4-.3.9-.4 1.6-.4h.5v.5h-.6l-1 .1-.7.4-.5.6-.1.8v5.3h-.6Zm5.5-10-.3-.2-.1-.3v-.4l.4-.1.4.1v.7l-.4.1Zm-.2 2.3h.5v7.7h-.5v-7.7Zm6.1 7.9a3 3 0 0 1-2.4-1c-.5-.7-.8-1.7-.8-3 0-1.4.3-2.4.8-3a3 3 0 0 1 2.4-1c.7 0 1.2 0 1.6.4.5.2.8.6 1 1.1l-.4.2c-.2-.4-.5-.7-.9-1-.3-.2-.7-.3-1.3-.3-.8 0-1.5.3-2 .8-.4.6-.6 1.4-.6 2.3v.9c0 1 .2 1.7.6 2.3.5.5 1.2.8 2 .8.6 0 1-.1 1.4-.3l1-1 .3.2a3 3 0 0 1-1 1.1 3 3 0 0 1-1.7.5Zm5.1-10.3h-.3l-.1-.4v-.4l.4-.1.4.1v.7l-.4.1Zm-.2 2.4h.5v7.7h-.5v-7.7Zm4.5 7.7c-.4 0-.6-.2-.6-.6V399h-1.4v-.5h1l.3-.1.1-.4v-1.7h.5v2.2h1.8v.5h-1.8v6.7h1.7v.5h-1.6Zm8.6-7.7h.5l-3.7 10.2-.3.4-.5.1h-1.1v-.4h1.3l1-2.5-3-7.8h.6l2.6 7.1 2.6-7.1Zm7 7.7c-.5 0-.7-.2-.7-.6V399h-1.4v-.5h1l.3-.1.1-.4v-1.7h.5v2.2h1.8v.5h-1.8v6.7h1.7v.5h-1.5Zm6.4.2a3 3 0 0 1-2.4-1c-.6-.7-.9-1.7-.9-3 0-1.4.3-2.4.9-3a3 3 0 0 1 2.4-1c1 0 1.8.3 2.3 1 .6.6 1 1.6 1 3 0 1.3-.4 2.3-1 3a3 3 0 0 1-2.3 1Zm0-.5c.8 0 1.5-.3 2-.8.4-.6.6-1.4.6-2.3v-.9c0-1-.2-1.7-.7-2.3-.4-.5-1-.8-2-.8-.8 0-1.5.3-2 .8-.4.6-.6 1.3-.6 2.3v.9c0 1 .2 1.7.7 2.3.4.5 1.1.8 2 .8Zm14.2-.9c-.2.4-.5.7-1 1-.3.2-.8.4-1.5.4a3 3 0 0 1-2.4-1c-.5-.7-.8-1.7-.8-3 0-1.4.3-2.4.8-3 .6-.7 1.4-1 2.4-1 .7 0 1.2 0 1.6.3.4.3.7.6.8 1V395h.6v11.2h-.5V405Zm-2.4.9 1-.1a2.2 2.2 0 0 0 1.2-1l.2-.9v-3.2c0-.3 0-.5-.2-.8l-.5-.6-.8-.4-1-.1c-.8 0-1.4.3-2 .8-.4.6-.6 1.3-.6 2.3v.9c0 1 .2 1.7.7 2.3.5.5 1.1.8 2 .8Zm6 .3v-7.7h.5v1.3l.8-.9c.4-.3 1-.4 1.6-.4h.6v.5h-.7l-.9.1-.7.4c-.2.1-.4.3-.5.6-.2.2-.2.5-.2.8v5.3h-.5Zm5.5-10-.4-.2v-.7l.4-.1.3.1.1.3v.4l-.4.1Zm-.3 2.3h.5v7.7h-.5v-7.7Zm2.4 0h.6l2.5 7.1 2.7-7.1h.5l-2.8 7.7h-.7l-2.8-7.7Zm10.7 7.9a3 3 0 0 1-2.4-1c-.6-.7-.9-1.7-.9-3 0-1.4.3-2.4.9-3a3 3 0 0 1 2.3-1c.5 0 1 0 1.3.2.4.2.8.4 1 .8.3.3.5.7.7 1.2l.2 1.5v.3h-5.8v.4c0 .5 0 .9.2 1.3 0 .4.2.7.5 1l.8.6 1.2.2c1.2 0 2-.6 2.5-1.8l.4.3c-.2.6-.5 1-1 1.4a3 3 0 0 1-1.9.6Zm0-7.6c-.5 0-.9 0-1.2.2l-.8.6c-.3.3-.4.6-.5 1-.2.4-.2.8-.2 1.3h5.2c0-.5 0-1-.2-1.3 0-.4-.3-.7-.5-1l-.8-.6-1-.2Zm14 7.4c-.3 0-.5-.2-.6-.6v-.6c-.2.4-.5.7-.9 1-.4.2-1 .4-1.6.4-.8 0-1.4-.2-1.8-.6a2 2 0 0 1-.7-1.6c0-.4 0-.7.2-1 0-.2.2-.4.5-.6.2-.2.5-.4.9-.5l1.4-.1h2v-1c0-.8-.2-1.3-.5-1.7-.4-.3-.9-.5-1.6-.5-1 0-1.8.4-2.2 1.3l-.4-.2c.2-.5.5-.9 1-1.1.3-.3 1-.5 1.6-.5.9 0 1.5.2 2 .7.4.4.6 1 .6 1.9v4.8h1.2v.5h-1Zm-3-.3.9-.1.8-.4.5-.6c.2-.2.2-.5.2-.9v-1.5h-2c-.8 0-1.5.1-1.8.4-.4.3-.6.7-.6 1.1v.5c0 .5.2.9.5 1.1.4.3.9.4 1.5.4Zm6 .3v-7.7h.5v1.2l.8-1c.4-.2 1-.4 1.6-.4.9 0 1.5.3 2 .8.4.5.6 1.2.6 2.2v4.9h-.5v-4.9c0-.8-.2-1.5-.6-1.9-.3-.4-.9-.6-1.6-.6l-.9.1-.7.4c-.2.1-.4.3-.5.6l-.2.8v5.5h-.5ZM33.2 426.4a3 3 0 0 1-2.4-1c-.6-.7-.9-1.7-.9-3 0-1.4.3-2.4.9-3a3 3 0 0 1 2.4-1c.4 0 .9 0 1.2.2.4.2.8.4 1 .8.3.3.5.7.7 1.2l.2 1.5v.3h-5.8v.4c0 .5 0 .9.2 1.3 0 .4.2.7.5 1l.8.6 1.2.2c1.2 0 2-.6 2.5-1.8l.4.3c-.2.6-.5 1-1 1.4a3 3 0 0 1-1.9.6Zm0-7.6c-.5 0-.9 0-1.2.2l-.8.6c-.3.3-.4.6-.5 1-.2.4-.2.8-.2 1.3h5.2c0-.5 0-1-.2-1.3 0-.4-.3-.7-.5-1l-.8-.6-1-.2Zm6.1 7.4c-.4 0-.6-.2-.6-.6V415h.5v10.7h1.3v.5h-1.2Zm5.9.2a3 3 0 0 1-2.4-1c-.6-.7-.9-1.7-.9-3 0-1.4.3-2.4.9-3a3 3 0 0 1 2.3-1c.5 0 1 0 1.3.2.4.2.8.4 1 .8.3.3.5.7.7 1.2l.2 1.5v.3h-5.8v.4l.1 1.3c.2.4.3.7.6 1l.8.6 1.2.2c1.2 0 2-.6 2.5-1.8l.4.3c-.2.6-.6 1-1 1.4a3 3 0 0 1-1.9.6Zm0-7.6c-.5 0-.9 0-1.2.2l-.8.6c-.3.3-.4.6-.6 1l-.1 1.3h5.2c0-.5 0-1-.2-1.3 0-.4-.3-.7-.5-1l-.8-.6-1-.2Zm8 7.6a3 3 0 0 1-2.3-1c-.6-.7-.9-1.7-.9-3 0-1.4.3-2.4.9-3a3 3 0 0 1 2.4-1c.6 0 1.2 0 1.6.4.4.2.7.6 1 1.1l-.5.2-.8-1c-.3-.2-.8-.3-1.3-.3-.9 0-1.5.3-2 .8-.5.6-.7 1.4-.7 2.3v.9c0 1 .2 1.7.7 2.3.5.5 1.1.8 2 .8.6 0 1-.1 1.4-.3l1-1 .3.2a3 3 0 0 1-1 1.1 3 3 0 0 1-1.7.5Zm6-.2c-.5 0-.7-.2-.7-.6V419H57v-.5h1l.3-.1v-2.1h.6v2.2h1.8v.5H59v6.7h1.7v.5H59Zm3.8 0v-7.7h.5v1.3l.9-.9c.3-.3.8-.4 1.5-.4h.6v.5h-.7l-.9.1-.7.4c-.2.1-.4.3-.5.6l-.2.8v5.3H63Zm5.5-10-.4-.2v-.7l.4-.1.3.1.1.3v.4l-.4.1Zm-.3 2.3h.6v7.7h-.6v-7.7Zm6.2 7.9a3 3 0 0 1-2.4-1c-.6-.7-.9-1.7-.9-3 0-1.4.3-2.4.9-3a3 3 0 0 1 2.4-1c.6 0 1.2 0 1.6.4.4.2.7.6 1 1.1l-.5.2-.8-1c-.3-.2-.8-.3-1.3-.3-.9 0-1.5.3-2 .8-.5.6-.7 1.4-.7 2.3v.9c0 1 .2 1.7.7 2.3.5.5 1.1.8 2 .8.6 0 1-.1 1.4-.3l1-1 .3.2a3 3 0 0 1-1 1.1 3 3 0 0 1-1.7.5Zm11 0a3 3 0 0 1-2.4-1c-.6-.7-.8-1.7-.8-3 0-1.4.2-2.4.8-3a3 3 0 0 1 2.4-1c.7 0 1.2 0 1.6.4.4.2.8.6 1 1.1l-.4.2-.9-1c-.3-.2-.8-.3-1.3-.3-.9 0-1.5.3-2 .8-.4.6-.7 1.4-.7 2.3v.9c0 1 .3 1.7.7 2.3.5.5 1.1.8 2 .8.6 0 1-.1 1.4-.3l1-1 .3.2a3 3 0 0 1-1 1.1 3 3 0 0 1-1.7.5Zm9.9-.2c-.5 0-.7-.2-.7-.6v-.6c-.2.4-.5.7-1 1-.3.2-.8.4-1.5.4-.8 0-1.4-.2-1.9-.6a2 2 0 0 1-.6-1.6l.1-1 .5-.6 1-.5 1.4-.1h2v-1c0-.8-.2-1.3-.5-1.7-.4-.3-1-.5-1.6-.5-1.1 0-1.8.4-2.3 1.3l-.3-.2c.2-.5.5-.9.9-1.1.4-.3 1-.5 1.7-.5.9 0 1.5.2 2 .7.4.4.6 1 .6 1.9v4.8h1.2v.5h-1Zm-3.2-.3 1-.1.8-.4.5-.6.2-.9v-1.5h-2c-.9 0-1.5.1-1.9.4-.4.3-.6.7-.6 1.1v.5c0 .5.2.9.6 1.1.4.3.8.4 1.4.4Zm6 .3v-7.7h.6v1.3l.8-.9c.4-.3 1-.4 1.6-.4h.6v.5h-.7l-.9.1-.7.4c-.2.1-.4.3-.5.6-.2.2-.2.5-.2.8v5.3h-.5Zm15.3 0h-6.7v-.6l4-3.9 1.2-1.5c.3-.5.4-1 .4-1.6v-.4l-.1-.9a2 2 0 0 0-1.3-1.2l-1-.2c-.8 0-1.3.2-1.8.6-.4.4-.7.9-.9 1.5l-.5-.2.4-1a3 3 0 0 1 1.6-1.2l1.2-.2c1 0 1.7.3 2.2.8.5.6.8 1.3.8 2.2 0 .7-.2 1.4-.5 2L111 422l-3.6 3.6h6v.5Zm3-1 .4.1.2.4v.2c0 .4-.2.8-.4 1.3a4 4 0 0 1-.9 1.2h-.4l.8-1.1.3-1c-.2 0-.3 0-.4-.2l-.1-.3v-.1l.1-.4.4-.1Zm9.8-6a7.8 7.8 0 0 1-2.5 5.8l-1.6 1.2h-.7a13.8 13.8 0 0 0 2.8-2.5 7.6 7.6 0 0 0 1.4-3.3c-.4.5-.7 1-1.2 1.2-.4.3-1 .4-1.6.4-.5 0-1 0-1.3-.2a2.9 2.9 0 0 1-1.7-1.7l-.2-1.3c0-.5 0-1 .2-1.4a2.8 2.8 0 0 1 1.7-1.7c.4-.2.9-.3 1.4-.3.5 0 1 .1 1.4.3.5.2.8.5 1 .8.3.3.5.7.7 1.2l.2 1.5Zm-3.3 2.3c.4 0 .8 0 1.1-.2.4-.1.6-.3.9-.5l.5-.8.2-1v-.4a2.7 2.7 0 0 0-.7-2l-.9-.5a3 3 0 0 0-1.1-.2 3 3 0 0 0-1.1.2 2.3 2.3 0 0 0-1.4 1.4l-.2 1v.4c0 .4 0 .7.2 1 0 .4.3.7.5.9.2.2.5.4.9.5l1 .2Zm8.6-1 1-.2.9-.5.5-.6.1-.9v-.3c0-.6-.2-1.1-.6-1.5-.4-.4-1-.6-1.7-.6s-1.2.2-1.6.4l-1 1-.4-.2a3 3 0 0 1 1.1-1.2c.5-.3 1.1-.5 1.9-.5l1.2.2a2.5 2.5 0 0 1 1.7 2.5c0 .7-.2 1.3-.6 1.7-.4.4-.9.7-1.5.8.7.2 1.3.4 1.7.9.4.4.7 1 .7 1.8 0 .5-.1 1-.3 1.3a2.6 2.6 0 0 1-1.7 1.6 4 4 0 0 1-1.3.2 4 4 0 0 1-2-.5c-.5-.2-1-.7-1.3-1.2l.5-.3c.3.5.7.9 1.1 1.1.5.3 1 .4 1.7.4.8 0 1.5-.2 2-.7.4-.4.7-1 .7-1.7v-.3c0-.7-.3-1.3-.8-1.7-.4-.4-1-.6-2-.6h-1.3v-.5h1.3Zm7.7 5.7 4.5-10H138v2.3h-.5v-2.9h6.7v.5l-4.5 10h-.6Zm7.9 0v-7.7h.5v1.2l.3-.5.5-.5.6-.3h.9c.6 0 1.1 0 1.5.3.4.3.7.7.9 1.3.2-.5.5-.9.9-1.2.4-.3 1-.5 1.6-.5.9 0 1.5.3 2 .8.4.5.6 1.2.6 2.2v4.9h-.5v-4.9c0-.8-.2-1.5-.5-1.9-.4-.4-1-.6-1.7-.6a3 3 0 0 0-.8.1 2 2 0 0 0-.7.4c-.2.1-.4.3-.5.6l-.2.8v5.5h-.5v-4.9c0-.8-.2-1.5-.6-1.9-.3-.4-.9-.6-1.6-.6a3 3 0 0 0-.8.1c-.3 0-.5.2-.8.4a1.8 1.8 0 0 0-.6 1.4v5.5h-.5Zm13.5-10-.3-.2-.1-.3v-.4l.4-.1.3.1.2.3v.1c0 .1 0 .2-.2.3l-.3.1Zm-.3 2.3h.6v7.7h-.6v-7.7Zm4 7.8-.4-.1-.2-.4v-.1c0-.2 0-.3.2-.4l.4-.1.4.1.1.4v.1l-.1.4-.4.1ZM50.2 145.7l1.8-.5.8-.5 2.4-2 1.6-1.5 1.3-1.7a84 84 0 0 0 3.2-4.6l.2-.3-.5.4-2.3 3-1.9 2.6-1.8 1.8-2 1.7-.7.4-.9.4-1.7.5-1.7.4h-3.5l-3.5-.2-1.1-.3-1.2-.4-2-1.1-3.6-2.2-1.8-1-1.2-1.1-1.3-1.1-.5-1-.6-.8.2-2c0-1.1.2-2 .2-2l.4.2.4.3h.8l.4-.6.8-2 1-2 .4-.6h.4l.5-.1.9.2.8.2 1 1 1.8 2.2 1 1.2.5.3.5.2.4-.4.4-.4.1-.8c.1-.5.4-1.8.8-2.8l.6-1.8.4-.7.4-.7h2l.8.9.7.8.8 1.6 1.5 3.4.8 2.2.2.4.5-.1h.5l.5-1.5.8-2.4c.5-1.6 1.5-4.2 1.9-4.8l.3-.5.8.2.8.1.6.4.5.5 1.9 2.3 2.1 2.7.4.5-.3-.8-.4-.8-1.3-1.7c-.7-.9-1.7-2-2.3-2.5l-.9-.9-.9-.2-.8-.2-.5.3-.5.3-.7 2c-.5 1.1-1.1 3-1.5 4.3l-.8 2.3h-.5l-.7-1.8c-.4-1-1-2.8-1.6-3.8l-.9-1.8-.7-.8-.7-.8-1.2-.1-1.2-.1-.5.5-.5.6-.8 2.2a24 24 0 0 0-1 3.6l-.3.7-.3-.1-.3-.1-1-1.4c-.6-.8-1.5-1.8-2.1-2.3l-1-1-.9-.2-1.3-.2h-.5l-.5.6c-.4.3-.7.8-.8 1l-.7 2.1-.6 1.6h-.9l-.3-.7-.3-.8.2-1.6.5-2.8.2-1h.6l1 .3h.2v-.1c-.1-.1-.5-.3-.8-.3l-.6-.1-.5-1.1-.6-1.1-.3-1.4-.3-1.5-.2-3.5v-3.5l.7-1c.4-.6.9-1 1-1l1.4.7 1.2.8.7.8.7.8.6 1.4 1.3 2.7.5 1.1h.2l.4-.4.3-.4.2-2.1c.3-3.4.7-4.3 3.7-8.8l2-2.8 1-1a5 5 0 0 1 1.2-1s.6.3 1 .8l1 .9.5 1.2.4 1.2.8 3.6.7 3.6.2 2.3.4 3.1.1.7h.2l.3.2.1-1.7c.2-3.4.6-6.5 1-9.7l.6-3.2.5-1.4.5-1.5 1-1.6 1.5-2.2.4-.5 1.2.9 1.2.9 1 1.5 1 1.5v.8l-1 2c-1.6 3.3-1.3 3 .5-.3l1-1.8.5 1.2.5 1.2-.1.5-.5 1.6-.3 1.1c.1 0 1-2 1.2-2.8l.1-.6-.6-1.3-.6-1.3V103l-.3-4.5-.4-5.2-.1-2h.2l.6-.3.4-.5.1-.7.1-.8h8.2l.5-.2.4-.3-2.7.1-2.6.2-2-.2-1.8-.1V87l-.3-1.2-.4-1.1-.4-.4-.4-.4.1.3.2.3-.3-.1-.3-.1V84l-.1-.4 1.9.5 3.8 1.2c2.8 1 4 1.4 4.4 1.4h.5l-.3-.2c-.3-.2-8.4-2.8-9.6-3l-.8-.3-.2-3c-.2-5.2-1.4-13-2.5-17.5l-.5-2-.9-1.7-.8-1.8-.7-.6-1.6-1-.8-.4h-1l-2.5.3-1.6.3-1.5.7-1.4.7-1.8 1.4a48 48 0 0 0-9.3 10.7l-1.8 2.8-.8 1.6-.8 1.6-.6 1.9L28 79l-.3 2.2-.3 2.8v.6l-.8-.4-.8-.4h-1.2l-1.3.2-1 .4-1.4.8-.4.4-1.6.3c-2.4.3-5.5 1.1-7.8 2l-2 .7-.8.5-.9.6-.1.5-.3.6.3.5.1.6.7.3c.3.3 1.4.6 2.3.9l1.6.4h9.8l1.8-.2 1.7-.3.8.3.8.2V111.8l.2.7.1.7-.8 1.4-.9 1.4v2l.3-1 .3-1.2.5-.8.5-.8.1 3.2.2 3.1.4 1.8.5 2 .3.6.3.3-.2.3-.7 4.4v.6l-.3-.3-.3-.2v.2c0 .1 0 .5.2.8l.2.5-.3 2.3-.2 2.4.3.8.2.9 1.4 1.3 1.3 1.3 1.6 1 4 2.4 2.7 1.5 1.1.3 1.1.3 3.7.1 3.7.1 1.8-.5Zm-15.5-29-1.2-2.5-.7-.7-.6-.8-1.3-.8-1.6-.9h-.2l-.8 1-.9.9-.1-5-.2-5 .2-4.8.1-4.8.7-.2h.6l.3-.4.4-.3 3.2-.8 6.5-1.8 3.3-1v-.3c0-.2.4-.3-3.3.8a93 93 0 0 1-9.1 2.5h-.3v-1l-.7-1.7-1-2.5-.5-.7h.7l.7.8c.9 1 1 1 .3 0l-.6-.7 3 .1 2.8.1 1.6.3 2.3.6c1 .4.8 0-.2-.4l-1-.4-1.4-.2-1.3-.3h-3l-3-.2-.4-.4-.4-.5.4-2.8.4-2.8.5-1.9.6-1.9.7-1.4c1.4-2.8 4.9-7.7 8.1-11.4l1.6-1.8 1.7-1.4c1-.8 2.2-1.7 2.8-2l1.2-.7 1.4-.4 1.4-.4 1.5-.1 1.6-.2.7.4 1.4 1 .7.6.7 1.2c1.2 2.5 1.7 4.4 2.8 11l.7 3.6.3 3.7.3 5V83H53.8l-3 1-3 1-.3.3-.3.6v.2l1.6.7 1.6.6 1.4.3 3.2.5 1.8.3.8 1.1.8 1.2.6.4.7.4.1 1.2c.5 5.2.8 9.5.7 10v.5l-.4-.7c-.5-.9-2.5-3-3.4-3.5l-.7-.4h-.3l-.3.2-1 1.6-1.7 2.6-.5 1.1-.5 1.9-.5 1.9-.4 3.5c-.3 2-.6 4.4-.6 5.3l-.2 1.6-.1-1.2-1-5.2-.6-3.8-.5-1.4-.4-1.3-.6-.9-.5-.8-.8-.5-.9-.6-1.3 1.1-1.2 1-2 3a48.5 48.5 0 0 0-2.6 4.2l-.5 1.2-.3 1.2-.4 1.3v1c0 1-.2 2.4-.3 2.4l-1.3-2.5Zm-24-24a15 15 0 0 1-2.1-.7l-.8-.4-.1-.3-.2-.7v-.4l.5-.4c.7-.6 2-1.2 4.8-2l2.6-.9 2.2-.4 2.6-.4h.2l.2.8v.8l.7 1.3.6 1.3.9 1c.5.4 1.1 1 1.3 1l.5.3-.2.1-2.5.3-2.4.2h-3.7L12 93l-1.3-.4Z" fill="#A73A24"/></svg>