<svg width="337" height="480" fill="none" xmlns="http://www.w3.org/2000/svg"><path d="M.5 258.2V36.9l.8.7.8.7 1.1-4c.6-2.3 1.4-4.7 1.8-5.6l.6-1.5v-2.7H7l.2-1.5.1-1.5h1l.4 1.9.3 1.8 3-.4 3-.4.8-1.5.9-1.5.4-3.8.5-3.8H19l.5 1.4.6 1.4 1.6-.2 1.6-.2v-.7l-.2-.7.6-.6 1.6-.8 1-.4.1 1.4.2 3v1.7l.6 2.7.6 2.7 1.6-.1c1-.1 2.9 0 4.4.2l2.8.6.2 1.4.3 1.3v-2.4l.4.4.9 1.2c.2.3.6.5.9.4l.4-.2.2 2.4.2 2.4-.2 1.9-.2 2 .3.6.3.6-.1 1-.2.8H41.3l.5 1.5.5 1.4h1.1l.5-1.7c.7-2.2 1.8-7.6 1.8-9v-1h.5V29l.2-1.7c.3-.4 1.2-7.3 1.2-9v-1.5h.4v-2.4l-.1-2.2.6-1.4c.8-2 2-6.7 1.8-6.7l.6-1.8.8-1.8.5.6 1 2.3c1.5 3.9 2.6 6.3 3.4 7.3l.8 1 1.7 4.7c1 2.5 2 5.7 2.4 7a48 48 0 0 0 2 5.2l3.8 8.2c1.3 3 2.5 5.3 2.7 5.3.2 0 .8 1.4 1.5 3.3l1.1 3.3h2.1l.4.8.3.8h.8l.8-.2.7 1.4.8 1.3v9.7h1.2l-.4 1-.4 1h.6c.6 0 1.7 1.7 2 3.3l.2.9-.2 9-.1 9 .4.7.5.6 1-3.7 1-3.6.4.7.3.8-.2-1-.2-1.1.8-1.8c.4-1 1-2.5 1.1-3.5l.4-1.6 1 1 1 1 1.7-.2h3.1l1.5.1.6-1.4c.3-.7 1-1.6 1.6-1.9l1-.7V69.3l.6-.7 1.5-2 .9-1.5-.4-.9-.3-.9 1.7.5c1 .3 1.8.8 2 1.1l.1.5v-1.9l.6-.4.5-.5.2 2.5c.1 1.5.2 3.1.1 3.8V70l.7.6c.4.4 1.3 1.7 1.9 3l1.1 2.2h5l2.7.2.3-1.7.4-3v-1.3h1l.2-1.4.1-1.6 1 .3.8.2 1-3 1-3.1.3.5.2.5v-3l.7-1.2c.4-.6.7-1.5.7-2v-.7h1.2l.8 2.2 1.3 4.2.6 2 .5-.7c.3-.3.7-.4.9-.2l.3.4.2-2.8c0-1.4.4-5 .7-7.8l.5-5.1h.4c.2 0 .8.6 1.3 1.3.4.8 1.3 1.9 1.8 2.5l.9 1 1.7.2 1.8.2 1.3-2.5 2.8-4.8 1.4-2.3v-1.3l.2-2.9c.2-.8.5-3 .6-4.7l.3-3.2h.5c.2 0 1.1 1 2 2.3l1.6 2.4.3-.8c.2-.3.8-1.3 1.5-2l1.3-1.2.6.5.5.5-.1-.9-.2-.8.4-.5 1.6-.9 1.2-.4.2 3.3.2 3.2.4 1.2.3 1V42l1 .6c.5.3 1 1 1 1.5l.2.9H162.3l.3 1.7.3 1.7.2-1.3.2-1.3 1.6 1.4 1.5 1.5.8-2.6c.4-1.3 1.1-3 1.6-3.7l.8-1.2.6 2.5c.4 1.4.7 3 .7 3.6 0 .6.4 2.5.9 4.4l.8 3.3 1.3.2 1.3.2.8 2.5c.4 1.5.9 2.6 1 2.6.2 0 .6.6 1 1.4l.7 1.3.3-.8c.2-.5.8-.9 1.2-.9h.9l.6-2c.3-1 .7-1.9.8-1.9l1.2.9 1 .7L188 58l3.2-1.2.4 1.1.4 1-.2-1.6-.1-1.7.2.3c.3.3 1.3-3.5 1.5-6l.2-2.5.6-1.8.5-1.7.8.5c.4.3 1 1 1.2 1.8.5 1.3 1 1.9 3.3 3.5l1.2 1 1.5 2.5L204 56l1.5.2 1.8.3h.3v3.3l.4.4.5.3v-3.1l1.5.2 1.6.2.6-1.4c.4-.7.8-1.6.8-1.9.1-.3.6-.9 1-1.2l.9-.6.6 2.8.5 3.7c0 .4.7 3.6 1.6 7l1.5 6 .8-1 .8-1.1.5.2c.8.4 1.2 1.9 1.5 6.5l.4 4 .6 1.6.7 1.7H225.8l-.2.7-.1.9h.5l.2 3.4.1 3.4.6.5.6.5 2.2-.5 2.9-.8.7-.2v-.7l.1-1.4c0-1.3 1-5.7 1-4.8v.8l.3-1 .4-1 1 1.4 1.1 1.4 2.3.6c1.3.3 2.8.5 3.5.5h1.2l.3 1.3c0 .7.6 1.5 1 1.9l.7.5.7-1 .8-1 .5-2.4a29.4 29.4 0 0 0 .8-6.3 106.1 106.1 0 0 0 .6-9.4l.2-2.2.2.5.2.4.1-.8.2-.9 1 .8 1 .8 1.6-.6c1.8-.6 2.2-.6 5-.2l1.7.2.2-1.2.2-1 1.2-1 1.7-1.5.5-.6-.2 1-.2.9 1.2-.8c.6-.4 1.5-1.2 1.9-1.8l.7-1 .3.6.3.6-.2-1-.1-1 .7-1.2c.4-.8 1-1.3 1.2-1.2h.5v-1.7c0-.9 0-2 .2-2.3l.2-1.4a26.8 26.8 0 0 1 1-4.6v1l.2-1.1.3-1.1.7 1.3.8 1.3 1.3.7 4.1 1.6c.4.1.8.5.8.8l1 1.7 1 1.1.2-.7c0-.5.4-1.1.7-1.4l.6-.6.1 1.4.2 1.3h2.5l-.2 1-.2 1h1.2l-.2-.9-.1-1 .5-.5.5-.6.6 1c.3.6.5 1.5.5 2v1h-.9l.2.5c0 .4.8.7 1.6.8l1.5.2-.2-.8v-.7l.7.1.9.2v4.5h.5c.2 0 1 .7 1.6 1.5l1.2 1.5 1.8-5.2a118 118 0 0 0 4.3-15 9 9 0 0 0-.3-2l-.3-1.1.3-1.4.3-1.3-.2-.7-.2-.8.5-1.3.5-1.4h2.9l.9-1.4.8-1.2.8-2.8.7-2.7V25.6l.6-.5.6-.5.7.4.7.6.5-1.8c.3-1 .5-1.7.6-1.5.2.6 1.4-1 1.7-2.2l.3-1.4.4.6.4.6-.2-1.4-.2-1.3.4 1.3.5 1.3 1.7-2.2a27.2 27.2 0 0 1 2.9-3.6l.6-1 .5 2 .5 2-.1 1.2-.2 1.2.6.5.5.5v2.8l1.3-.8 1.4-.8.4-1.4.4-2.6c0-1.4 1-4.7 1.6-4.8h.3l.9 2.3.9 2.5h3.9c.5 0 1.1 0 1.5.3l.7.4v230.5l.1 230.6H.5V258.2Z" fill="#fff"/><path d="M133.6 114h-12.3v3.6h8.8c-.5 5.2-4.7 7.4-8.8 7.4a9.7 9.7 0 0 1-9.6-9.8c0-5.6 4.3-10 9.6-10 4.2 0 6.6 2.7 6.6 2.7l2.6-2.7s-3.3-3.7-9.3-3.7c-7.6 0-13.5 6.6-13.5 13.6s5.5 13.7 13.7 13.7a12 12 0 0 0 12.5-12.4c0-1.6-.3-2.4-.3-2.4Zm10.1-2.7c-5 0-8.7 4-8.7 8.7 0 4.7 3.5 8.8 8.8 8.8 4.7 0 8.5-3.7 8.5-8.7 0-5.9-4.4-8.8-8.6-8.8Zm0 3.4c2.5 0 5 2 5 5.3 0 3.2-2.4 5.3-5 5.3-2.7 0-4.9-2.2-4.9-5.3 0-3 2.2-5.3 5-5.3Zm18.9-3.4c-5 0-8.7 4-8.7 8.7 0 4.7 3.5 8.8 8.7 8.8 4.7 0 8.6-3.7 8.6-8.7 0-5.9-4.5-8.8-8.6-8.8Zm0 3.4c2.5 0 4.9 2 4.9 5.3 0 3.2-2.4 5.3-4.9 5.3-2.7 0-5-2.2-5-5.3.1-3 2.3-5.3 5-5.3Zm18.5-3.4c-4.7 0-8.3 4.1-8.3 8.7 0 5.3 4.2 8.8 8.2 8.8 2.5 0 3.8-1 4.7-2.1v1.7c0 3-1.8 4.8-4.5 4.8-2.6 0-4-2-4.4-3.1l-3.3 1.4a8.3 8.3 0 0 0 7.7 5.2c4.6 0 8.2-3 8.2-9.2v-15.7h-3.7v1.5a6 6 0 0 0-4.6-2Zm.3 3.4c2.3 0 4.6 2 4.6 5.3 0 3.5-2.3 5.3-4.6 5.3-2.5 0-4.8-2-4.8-5.2 0-3.4 2.4-5.4 4.8-5.4Zm24-3.4c-4.4 0-8 3.5-8 8.7 0 5.5 4 8.8 8.4 8.8 3.7 0 6-2 7.3-3.9l-3-2c-.8 1.3-2.1 2.4-4.3 2.4-2.4 0-3.5-1.3-4.2-2.6l11.6-4.9-.6-1.4a8 8 0 0 0-7.2-5.1Zm.1 3.3c1.6 0 2.8.9 3.2 2l-7.7 3.2c-.3-2.6 2-5.2 4.5-5.2ZM192 128.2h3.8v-25.7h-3.8v25.7Z" fill="#000"/><path d="M41.6 197.4H28.5l7.7-9.1 1-1.5.3-1.3a2 2 0 0 0-.5-1.5c-.4-.4-1-.5-1.5-.5-.8 0-1.3.2-1.7.7a3 3 0 0 0-.6 2v.2H29v-.1c0-2 .5-3.5 1.7-4.6a6.3 6.3 0 0 1 4.6-1.7c2 0 3.5.5 4.6 1.5a5 5 0 0 1 1.7 4c0 .8-.2 1.6-.5 2.3-.4.8-1 1.6-1.8 2.5l-3 3.4h5.2v3.7Zm3.7 0 6.4-13.2h-7.2v-3.8h13v.8l-7.4 16.2h-4.8Zm14-2c0-.6.3-1.2.8-1.6.4-.5 1-.7 1.6-.7a2.3 2.3 0 0 1 2.4 2.4 2.4 2.4 0 0 1-2.4 2.4 2.3 2.3 0 0 1-2.3-2.4Zm14.6-5.2v-5a16 16 0 0 1 .2-2l-.5 1-.7 1.2-3.2 4.8H74Zm0 7.2v-3.9h-7.8v-3.3l6.4-9.9H78v9.9h1.9v3.4h-2v3.8H74Zm8.3 0v-18.2h4.1v18.2h-4.1Zm11-6c0 1 .3 1.8.8 2.3.5.5 1.1.8 2 .8.8 0 1.5-.3 2-.8.4-.6.7-1.3.7-2.2 0-1-.3-1.7-.7-2.2-.5-.5-1.2-.8-2-.8-.9 0-1.5.3-2 .8a3 3 0 0 0-.7 2.2Zm-3.6-12.2h4v6.2a21.7 21.7 0 0 1-.2 2.1c.5-.8 1-1.4 1.7-1.8.6-.3 1.4-.5 2.5-.5 1.5 0 2.8.5 3.8 1.7s1.5 2.7 1.5 4.6c0 2-.5 3.5-1.5 4.6a5 5 0 0 1-4 1.7c-.8 0-1.6-.2-2.2-.6-.7-.3-1.3-1-1.8-1.7v1.9h-3.8v-18.2Zm14.7 17.2.8-3.2a6.4 6.4 0 0 0 4.3 1.7c.5 0 .9-.1 1.2-.3.2-.2.4-.4.4-.7 0-.5-.6-1-1.7-1.2l-.9-.2a6.3 6.3 0 0 1-2.7-1.4c-.5-.5-.8-1.3-.8-2.1 0-1.2.4-2.1 1.3-2.8.8-.7 2-1 3.5-1a11.3 11.3 0 0 1 4.7 1l-.9 3c-.5-.5-1-.7-1.7-1a5 5 0 0 0-1.7-.2c-.4 0-.8 0-1 .2-.3.1-.4.4-.4.6 0 .4.5.8 1.6 1.1l.6.2c1.4.4 2.4.8 3 1.4.6.6.9 1.3.9 2.3 0 1.2-.5 2.2-1.4 3-1 .7-2.2 1-3.7 1-1 0-2 0-3-.3-.8-.3-1.6-.6-2.4-1.1Zm25.4 0c1.1 0 2-.3 2.9-1.1.8-.9 1.2-1.9 1.2-3 0-1.3-.4-2.3-1.2-3.1a3.9 3.9 0 0 0-3-1.2c-1 0-2 .4-2.8 1.2-.8.8-1.2 1.8-1.2 3s.4 2.2 1.2 3c.8.9 1.7 1.3 2.9 1.3Zm0 1.4c-.8 0-1.5-.1-2.2-.4a6 6 0 0 1-1.8-1.3c-.6-.5-1-1-1.2-1.7a5.7 5.7 0 0 1 3-7.4 5.7 5.7 0 0 1 7.4 3c.3.7.4 1.5.4 2.2a5.6 5.6 0 0 1-3.5 5.2c-.7.3-1.4.4-2.2.4Zm9-.4v-9.2h-2V187h2v-3c0-2.1.2-3.4.5-4 .4-.7 1.2-1 2.2-1a3.7 3.7 0 0 1 1.4.2l-.3 1.3-.5-.2h-.5c-.5 0-.9.1-1 .5-.3.4-.4 1.2-.4 2.3v3.9h2.3v1.2H140v9.2h-1.4Zm26.7-14a9.2 9.2 0 0 0-2.6-1.7c-.9-.3-1.8-.5-2.8-.5-2.2 0-4 .7-5.4 2.1a7.5 7.5 0 0 0-2 5.5c0 1.2 0 2.2.4 3a6.9 6.9 0 0 0 4 4c.8.4 1.8.6 2.8.6 1 0 2-.2 2.9-.5 1-.3 1.8-.8 2.6-1.5v1.8a11 11 0 0 1-5.4 1.6c-1.3 0-2.5-.2-3.6-.6a8.5 8.5 0 0 1-5.5-8.4c0-1.3.3-2.5.7-3.6a8.2 8.2 0 0 1 4.8-4.7 9.7 9.7 0 0 1 9.2 1.1v1.8Zm11.8 13a7.5 7.5 0 0 0 7.5-7.6 7.6 7.6 0 0 0-4.6-7 7.5 7.5 0 0 0-8.2 1.6 7.8 7.8 0 0 0-2.2 5.4 7.7 7.7 0 0 0 4.6 7.1c.9.4 1.8.5 2.9.5Zm9.2-7.6a8.8 8.8 0 0 1-2.7 6.4 9.3 9.3 0 0 1-15-3 8.9 8.9 0 0 1 5-11.8 9.5 9.5 0 0 1 7 .1 8.8 8.8 0 0 1 5 4.9c.4 1 .7 2.2.7 3.4Zm13.1 7.2v1.4h-11l3.7-4 1.1-1.3c3-3.3 4.6-5.7 4.6-7.2 0-1-.3-1.8-1-2.5-.7-.6-1.6-1-2.8-1-1.1 0-2 .4-2.7 1.1-.7.8-1 1.7-1 3H189v-.2c0-1.6.5-2.9 1.4-3.8 1-1 2.3-1.4 4-1.4 1.6 0 2.9.4 3.9 1.3 1 .8 1.4 2 1.4 3.4 0 1.9-1.3 4.2-4 7l-.1.2-3.8 4h7.8ZM38.3 221.3a5 5 0 0 0-.9-3.2 3 3 0 0 0-2.5-1.2c-1.1 0-2 .4-2.6 1.2-.6.7-1 1.7-1 3 0 1.4.4 2.4 1 3.2.7.8 1.6 1.2 2.7 1.2a3 3 0 0 0 2.5-1.1 5 5 0 0 0 .8-3.1ZM30 231.6V216h1.4v2c.4-.8 1-1.4 1.6-1.8a4 4 0 0 1 2.1-.6c1.5 0 2.7.5 3.6 1.6a6 6 0 0 1 1.3 4 6 6 0 0 1-1.3 4.1c-.9 1-2 1.5-3.5 1.5-.8 0-1.6-.2-2.2-.6-.7-.4-1.2-1-1.6-1.7v7.1H30ZM50.1 220c0-1-.4-1.7-1-2.2-.5-.5-1.2-.8-2.2-.8a3.1 3.1 0 0 0-3.2 3H50Zm1.7 1.2h-8.2a5 5 0 0 0 1 3.2c.6.8 1.5 1.1 2.5 1.1.8 0 1.5-.2 2-.6.6-.4 1.1-1 1.5-1.9l1.3.8c-.5 1-1.2 1.8-2 2.3-.7.5-1.7.7-2.8.7-1.5 0-2.7-.5-3.7-1.5s-1.4-2.3-1.4-4c0-1.7.5-3 1.4-4.1 1-1 2.2-1.6 3.7-1.6 1.4 0 2.6.5 3.4 1.5.9 1 1.3 2.2 1.3 3.8v.3Zm4.5-3.1c.5-1 1-1.6 1.5-2a3.2 3.2 0 0 1 2.4-.5l.7.2-.5 1.4a4.7 4.7 0 0 0-1-.2c-.8 0-1.6.4-2.2 1.2a5 5 0 0 0-1 3v5.2h-1.4V216h1.5v2Zm17.5 8.3v-15.6h-3.1l.7-1.4h3.9v17h-1.5ZM84 218c0 2.3.4 4.1 1 5.5.8 1.3 1.9 2 3.2 2 1.3 0 2.4-.7 3-2 .8-1.2 1.1-3.1 1.1-5.6 0-2.4-.3-4.3-1-5.5-.8-1.3-1.8-2-3.2-2-1.3 0-2.3.7-3 2-.7 1.4-1.1 3.2-1.1 5.6Zm4.1 8.8c-1.7 0-3.1-.7-4.2-2.3a12 12 0 0 1-1.5-6.5c0-2.8.5-5 1.5-6.6 1-1.6 2.5-2.3 4.3-2.3 1.7 0 3.1.7 4.1 2.3A12 12 0 0 1 94 218c0 2.8-.5 5-1.6 6.5a4.8 4.8 0 0 1-4.2 2.3Zm9-.4v-17.2h1.6v8l7.8-8h2l-8 8.2 8.4 9h-2.2l-8-8.7v8.7h-1.5Zm19-10.4h1.6l3.2 7.9 3.2-8h1.6l-4.8 11.2L116 216Zm11.5-4c0-.4.2-.6.4-.8.2-.3.5-.4.8-.4.3 0 .5.1.7.4.3.2.4.4.4.7 0 .3-.1.6-.3.8a1 1 0 0 1-.8.3c-.4 0-.6 0-.8-.3a1 1 0 0 1-.4-.8Zm.4 14.4V216h1.5v10.4H128Zm12.7-6.4c-.1-1-.4-1.7-1-2.2-.5-.5-1.3-.8-2.3-.8a3.1 3.1 0 0 0-3.2 3h6.5Zm1.7 1.2H134a5 5 0 0 0 1 3.2c.7.8 1.5 1.1 2.6 1.1.7 0 1.4-.2 2-.6.6-.4 1-1 1.4-1.9l1.3.8c-.5 1-1.1 1.8-2 2.3-.7.5-1.6.7-2.7.7-1.6 0-2.8-.5-3.7-1.5-1-1-1.4-2.3-1.4-4 0-1.7.4-3 1.3-4.1 1-1 2.2-1.6 3.7-1.6s2.6.5 3.5 1.5c.8 1 1.3 2.2 1.3 3.8v.3Zm5.5 5.9-4.2-11.1h1.6l2.7 7.5 3.2-8 3.3 8 2.7-7.5h1.5l-4.1 11-3.3-8.2-3.4 8.3Zm11.9-2.6 1.3-.8c.3.6.6 1 1 1.4.4.3 1 .4 1.6.4.6 0 1-.2 1.4-.5.4-.3.6-.7.6-1.2 0-.8-.7-1.5-2.1-2l-.4-.2c-1-.4-1.8-.8-2.3-1.3-.4-.5-.6-1-.6-1.7 0-.9.3-1.6.9-2.2.6-.5 1.4-.8 2.4-.8a4 4 0 0 1 2.2.5c.6.4 1 1 1.3 1.6l-1.3.7c-.2-.5-.5-.8-.9-1-.3-.3-.8-.5-1.4-.5-.5 0-.9.2-1.2.5-.3.3-.5.6-.5 1 0 .5.2.8.5 1.1.3.3 1 .6 2 1 1.1.4 1.9.8 2.3 1.3.4.4.6 1 .6 1.9 0 1-.4 1.7-1 2.3-.7.6-1.6.8-2.8.8-.9 0-1.6-.2-2.3-.6-.6-.4-1-1-1.3-1.7ZM32.5 241.4v10h-.6v-10h-3.6v-.5h7.9v.5h-3.7Zm5.5-1.1h.5v4.6c.2-.3.4-.7.8-1 .4-.2.9-.3 1.6-.3.8 0 1.4.2 1.9.7.4.5.7 1.2.7 2.2v4.9h-.6v-4.8c0-.9-.2-1.5-.5-2-.4-.3-1-.5-1.7-.5H40l-.7.4-.5.6c-.2.3-.2.6-.2.9v5.4H38v-11.1Zm11 11.3a3 3 0 0 1-2.4-1c-.6-.7-1-1.7-1-3s.4-2.3 1-3c.5-.7 1.3-1 2.3-1a3 3 0 0 1 2.3 1l.6 1.2c.2.5.2 1 .2 1.6v.2h-5.8v.4l.2 1.3.5 1 .9.6 1.2.2c1.2 0 2-.6 2.5-1.7l.4.2c-.3.6-.6 1-1.1 1.4a3 3 0 0 1-1.8.6Zm-.1-7.5c-.4 0-.8 0-1.1.2l-.9.6-.5 1-.2 1.2h5.3l-.2-1.3c-.2-.3-.3-.7-.6-1-.2-.2-.4-.4-.8-.5-.3-.2-.6-.3-1-.3Zm11 7.5c-.5 0-1-.2-1.6-.4-.4-.2-.8-.6-1.2-1l.4-.4c.4.5.7.8 1.1 1 .4.2.9.3 1.4.3.7 0 1.2-.1 1.5-.4.4-.3.6-.7.6-1.2s-.2-1-.5-1.2c-.3-.2-.7-.4-1.3-.5l-.7-.1-.9-.2-.7-.4-.5-.6-.1-1c0-.2 0-.5.2-.8l.5-.6.8-.4 1-.1c.6 0 1.1.1 1.5.3.4.3.8.5 1 .8l-.3.4a3.3 3.3 0 0 0-.9-.7 3 3 0 0 0-1.4-.3c-.5 0-1 0-1.4.3-.3.3-.5.7-.5 1.2s.2.9.5 1.1c.3.2.7.4 1.3.5l.7.1c.7.1 1.2.3 1.6.7.4.3.6.8.6 1.4a2 2 0 0 1-.7 1.6 3 3 0 0 1-2 .6Zm10-.2c-.4 0-.6-.2-.6-.6v-.6l-1 1c-.3.2-.9.4-1.5.4-.8 0-1.4-.2-1.9-.6a2 2 0 0 1-.6-1.6c0-.3 0-.6.2-1 0-.2.2-.4.4-.6l1-.5a5 5 0 0 1 1.4-.1h2v-1c0-.8-.2-1.3-.6-1.6-.3-.4-.8-.5-1.5-.5-1.1 0-1.8.4-2.3 1.3l-.3-.3c.2-.4.5-.8.9-1 .4-.4 1-.5 1.7-.5.8 0 1.5.2 2 .6.4.5.6 1 .6 2v4.7h1.1v.5h-1Zm-3-.3.9-.1.7-.4.6-.6.2-.8v-1.6h-2c-.9 0-1.5.2-1.9.4-.4.3-.5.7-.5 1.2v.4c0 .5.1.9.5 1.1.4.3.8.4 1.4.4Zm5.9.3v-7.6h.5v1.1l.3-.5.5-.4.6-.3 1-.1c.5 0 1 .1 1.4.4.4.3.7.7.9 1.2.2-.4.4-.8.8-1.1.5-.4 1-.5 1.7-.5.8 0 1.5.2 2 .7.4.5.6 1.2.6 2.2v4.9h-.5v-4.8c0-.9-.2-1.5-.6-2-.3-.3-.9-.5-1.6-.5a3 3 0 0 0-.8 0 2 2 0 0 0-.7.4l-.5.6-.2.9v5.4h-.5v-4.8c0-.9-.2-1.5-.6-2-.3-.3-.9-.5-1.6-.5a3 3 0 0 0-.8 0l-.7.4a1.8 1.8 0 0 0-.7 1.5v5.4h-.5Zm15.8.2a3 3 0 0 1-2.4-1c-.6-.7-.9-1.7-.9-3s.3-2.3.9-3c.5-.7 1.3-1 2.3-1a3 3 0 0 1 2.3 1c.3.3.5.8.6 1.2.2.5.3 1 .3 1.6v.2h-5.8v.4l.1 1.3c.2.4.3.7.6 1l.8.6 1.2.2c1.2 0 2-.6 2.5-1.7l.4.2c-.2.6-.6 1-1 1.4a3 3 0 0 1-2 .6Zm0-7.5c-.5 0-.9 0-1.2.2-.3.1-.6.3-.8.6-.3.3-.4.6-.6 1L86 247H91c0-.5 0-.9-.2-1.3l-.5-1-.8-.5-1-.3Zm8-.3h.5l2 7 2.2-7h.5l2.2 7 2-7h.6l-2.3 7.6h-.6l-2.1-6.9-2.1 6.9h-.7l-2.2-7.6Zm14.6 7.8a3 3 0 0 1-2.4-1c-.6-.7-.9-1.7-.9-3s.3-2.3.9-3c.6-.7 1.3-1 2.3-1a3 3 0 0 1 2.3 1c.3.3.5.8.6 1.2.2.5.3 1 .3 1.6v.2h-5.8v.4c0 .5 0 1 .2 1.3 0 .4.3.7.5 1l.8.6 1.2.2c1.2 0 2-.6 2.5-1.7l.4.2c-.2.6-.6 1-1 1.4a3 3 0 0 1-1.9.6Zm0-7.5c-.5 0-.9 0-1.2.2-.3.1-.6.3-.8.6l-.5 1c-.2.3-.2.8-.2 1.2h5.2c0-.5 0-.9-.2-1.3l-.5-1-.8-.5c-.3-.2-.7-.3-1-.3Zm5.7-2.7h-.3l-.2-.4v-.1l.1-.3.4-.1.3.1.1.3v.4l-.4.1Zm-.3 2.4h.6v7.6h-.6v-7.6Zm9.6 8.5c0 .8-.3 1.4-.9 1.7-.6.4-1.5.6-2.7.6-1.1 0-2-.2-2.5-.6-.5-.3-.7-.8-.7-1.4 0-.4.1-.8.4-1 .2-.4.6-.6 1-.7-.5-.2-.8-.6-.8-1.1 0-.4.2-.6.4-.8.3-.3.6-.4 1-.5-.5-.3-.9-.5-1.1-1-.2-.3-.4-.8-.4-1.3 0-.4 0-.8.2-1.1a2.3 2.3 0 0 1 1.4-1.3c.3-.2.7-.2 1.1-.2.7 0 1.2.1 1.6.4v-.6c0-.3.2-.5.5-.5h1.5v.4h-1.6v1l.5.8.2 1c0 .4 0 .8-.2 1.1a2.4 2.4 0 0 1-1.4 1.3 3.2 3.2 0 0 1-2 .1l-.9.4c-.2.2-.3.4-.3.7l.3.6 1 .2h2c.8 0 1.5.2 1.8.5.4.3.6.8.6 1.3Zm-.5 0c0-.4-.1-.7-.4-1-.3-.2-.8-.3-1.6-.3h-2.4l-1 .5c-.3.3-.4.6-.4 1 0 .5.2.9.6 1.2.4.3 1 .4 1.7.4h.8l1.1-.1.9-.3c.2-.2.4-.3.5-.6.2-.2.2-.4.2-.7Zm-3-4c.6 0 1-.2 1.5-.6.3-.3.5-.7.5-1.3v-.5c0-.6-.2-1-.5-1.3-.4-.4-1-.5-1.6-.5-.7 0-1.2.1-1.5.5-.4.3-.6.7-.6 1.3v.5c0 .6.2 1 .6 1.3.3.4.9.6 1.5.6Zm5.4-8h.5v4.6l.8-1c.4-.2 1-.3 1.6-.3.8 0 1.5.2 2 .7.4.5.6 1.2.6 2.2v4.9h-.5v-4.8c0-.9-.2-1.5-.6-2-.4-.3-1-.5-1.6-.5h-.9l-.7.4-.5.6-.2.9v5.4h-.5v-11.1Zm9.3 11c-.4 0-.6-.1-.6-.5v-6.6h-1.4v-.4h1l.3-.1.1-.4v-1.7h.5v2.2h1.8v.4h-1.8v6.7h1.7v.5h-1.6Zm12.4 0c-.4 0-.6-.1-.7-.5v-.6c-.2.4-.5.7-.9 1-.4.2-.9.4-1.6.4-.7 0-1.4-.2-1.8-.6a2 2 0 0 1-.6-1.6l.1-1 .5-.6 1-.5a5 5 0 0 1 1.3-.1h2v-1c0-.8-.2-1.3-.5-1.6-.4-.4-.9-.5-1.6-.5-1 0-1.8.4-2.2 1.3l-.4-.3c.2-.4.6-.8 1-1 .4-.4 1-.5 1.6-.5.9 0 1.5.2 2 .6.4.5.6 1 .6 2v4.7h1.2v.5h-1Zm-3.1-.2 1-.1.7-.4.5-.6c.2-.2.2-.5.2-.8v-1.6h-2c-.8 0-1.4.2-1.8.4-.4.3-.6.7-.6 1.2v.4c0 .5.2.9.6 1.1.3.3.8.4 1.4.4Zm8 .5c-.6 0-1.2-.2-1.6-.4-.5-.2-1-.6-1.3-1l.4-.4c.4.5.7.8 1.1 1 .4.2.9.3 1.4.3.7 0 1.2-.1 1.6-.4.3-.3.5-.7.5-1.2s-.2-1-.5-1.2c-.3-.2-.7-.4-1.3-.5l-.7-.1-.9-.2-.7-.4-.4-.6-.2-1c0-.2 0-.5.2-.8l.5-.6.8-.4 1-.1c.6 0 1.2.1 1.6.3l1 .8-.4.4a3.3 3.3 0 0 0-.9-.7 3 3 0 0 0-1.4-.3c-.5 0-1 0-1.4.3-.3.3-.5.7-.5 1.2s.2.9.5 1.1c.3.2.7.4 1.3.5l.7.1c.7.1 1.2.3 1.6.7.4.3.6.8.6 1.4a2 2 0 0 1-.7 1.6 3 3 0 0 1-1.9.6Zm11.5 0a3 3 0 0 1-2.6-1.3c-.6-1-.9-2.3-.9-4.2 0-1.8.3-3.2 1-4a3 3 0 0 1 2.5-1.4 3 3 0 0 1 2.6 1.3c.6 1 .9 2.3.9 4.2 0 1.8-.3 3.2-1 4a3 3 0 0 1-2.5 1.4Zm0-.5c1 0 1.7-.4 2.2-1.1a6 6 0 0 0 .7-3.3v-1.1a6 6 0 0 0-.7-3.3 2.4 2.4 0 0 0-2.2-1c-1 0-1.7.3-2.1 1a6 6 0 0 0-.8 3.3v1.1a6 6 0 0 0 .8 3.3c.4.7 1.2 1 2.1 1Zm6.4.4-.4-.1-.2-.4v-.1c0-.2 0-.3.2-.4l.4-.1.4.1v.9h-.4Zm6.3 0a3 3 0 0 1-2.6-1.2c-.6-1-.9-2.3-.9-4.2 0-1.8.3-3.2 1-4a3 3 0 0 1 2.5-1.4 3 3 0 0 1 2.6 1.3c.6 1 1 2.3 1 4.2 0 1.8-.4 3.2-1 4a3 3 0 0 1-2.6 1.4Zm0-.4c1 0 1.7-.4 2.2-1.1a6 6 0 0 0 .7-3.3v-1.1a6 6 0 0 0-.7-3.3 2.4 2.4 0 0 0-2.2-1c-1 0-1.7.3-2.1 1a6 6 0 0 0-.8 3.3v1.1a6 6 0 0 0 .8 3.3c.4.7 1.2 1 2.1 1Zm9 .5-1.4-.2-1.1-.6a2.6 2.6 0 0 1-1-2.1c0-.8.3-1.4.7-1.9.4-.4 1-.7 1.6-.9-.6-.2-1-.5-1.4-1-.3-.3-.5-.9-.5-1.5 0-.8.3-1.5.8-2 .6-.4 1.3-.7 2.3-.7 1 0 1.8.3 2.3.7.6.5.8 1.2.8 2 0 .6-.1 1.2-.5 1.6-.3.4-.8.7-1.4.8v.1c.7.2 1.3.5 1.7 1 .4.4.6 1 .6 1.8 0 .4 0 .8-.3 1.1-.1.4-.3.7-.6 1l-1.1.6-1.5.2Zm0-.5c1 0 1.6-.2 2.1-.6.5-.5.8-1 .8-1.7v-.4a2 2 0 0 0-.8-1.6c-.5-.5-1.2-.7-2-.7-1 0-1.7.2-2.2.7a2 2 0 0 0-.8 1.6v.4c0 .7.3 1.2.8 1.7.5.4 1.2.6 2.1.6Zm0-5.4c.8 0 1.4-.2 1.9-.6.4-.4.7-.9.7-1.5v-.3c0-.7-.3-1.2-.7-1.5-.5-.4-1.1-.6-1.9-.6-.8 0-1.4.2-1.8.6-.5.3-.7.8-.7 1.5v.3c0 .6.2 1.1.7 1.5.4.4 1 .6 1.8.6Zm11.6 5.9c-.6 0-1.2-.2-1.6-.4-.5-.2-.9-.6-1.3-1l.5-.4c.3.5.7.8 1 1 .4.2.9.3 1.4.3.7 0 1.2-.1 1.6-.4.3-.3.5-.7.5-1.2s-.2-1-.5-1.2c-.2-.2-.7-.4-1.3-.5l-.6-.1-1-.2-.7-.4-.4-.6-.2-1c0-.2 0-.5.2-.8l.5-.6.8-.4 1-.1c.6 0 1.2.1 1.6.3l1 .8-.4.4a3.3 3.3 0 0 0-.8-.7 3 3 0 0 0-1.4-.3c-.6 0-1 0-1.4.3-.4.3-.6.7-.6 1.2s.2.9.5 1.1c.3.2.7.4 1.3.5l.7.1c.7.1 1.2.3 1.6.7.4.3.6.8.6 1.4a2 2 0 0 1-.7 1.6 3 3 0 0 1-1.9.6Zm9.8-1.4a2.3 2.3 0 0 1-.8 1l-.6.2a3 3 0 0 1-1 .2c-.8 0-1.4-.3-1.9-.8-.4-.5-.7-1.2-.7-2.1v-5h.6v4.9c0 .8.2 1.5.5 1.9.4.4 1 .6 1.7.6a3 3 0 0 0 1.5-.5c.3-.1.4-.3.5-.6.2-.2.2-.5.2-.8v-5.4h.6v7.6h-.6v-1.2Zm3.6 1.2v-7.6h.5v1.1l.3-.5.5-.4.6-.3.9-.1c.6 0 1 .1 1.5.4.4.3.7.7.9 1.2.1-.4.4-.8.8-1.1.4-.4 1-.5 1.7-.5.8 0 1.4.2 1.9.7.4.5.6 1.2.6 2.2v4.9h-.5v-4.8c0-.9-.2-1.5-.5-2-.4-.3-1-.5-1.6-.5a3 3 0 0 0-.9 0 2 2 0 0 0-.7.4l-.5.6-.1.9v5.4h-.6v-4.8c0-.9-.1-1.5-.5-2-.4-.3-1-.5-1.6-.5a3 3 0 0 0-.9 0l-.7.4a1.8 1.8 0 0 0-.6 1.5v5.4h-.5Zm15.7.2a3 3 0 0 1-2.4-1c-.5-.7-.8-1.7-.8-3s.3-2.3.8-3a3 3 0 0 1 2.4-1c1 0 1.8.3 2.4 1 .5.7.8 1.7.8 3s-.3 2.3-.8 3a3 3 0 0 1-2.4 1Zm0-.5c.9 0 1.5-.3 2-.8.4-.6.7-1.4.7-2.3v-.8c0-1-.3-1.8-.7-2.3-.5-.6-1.1-.8-2-.8-.8 0-1.5.2-2 .8-.4.5-.7 1.3-.7 2.3v.8c0 1 .3 1.7.7 2.3.5.5 1.2.8 2 .8Zm8.1-7.3h.6l2 7 2.2-7h.5l2.2 7 2-7h.5l-2.2 7.6h-.7l-2-6.9-2.2 6.9h-.6l-2.3-7.6Zm12 7.6v-7.6h.6v1.3l.8-1c.4-.2.9-.3 1.6-.3h.6v.5h-1.6l-.7.4-.5.6c-.2.3-.2.5-.2.8v5.3h-.5Zm7.9.2a3 3 0 0 1-2.4-1c-.6-.7-.9-1.7-.9-3s.3-2.3.9-3c.5-.7 1.3-1 2.3-1a3 3 0 0 1 2.3 1c.3.3.5.8.6 1.2.2.5.2 1 .2 1.6v.2H254v.4l.1 1.3c.2.4.3.7.6 1l.8.6 1.2.2c1.2 0 2-.6 2.5-1.7l.4.2c-.3.6-.6 1-1.1 1.4a3 3 0 0 1-1.8.6Zm0-7.5c-.5 0-.9 0-1.2.2-.3.1-.6.3-.8.6-.3.3-.4.6-.6 1l-.1 1.2h5.2c0-.5 0-.9-.2-1.3l-.5-1c-.3-.2-.5-.4-.9-.5-.3-.2-.6-.3-1-.3Zm7.5 7.5c-.7 0-1.2-.2-1.7-.4s-.9-.6-1.2-1l.4-.4c.3.5.7.8 1 1l1.5.3c.6 0 1.2-.1 1.5-.4.4-.3.5-.7.5-1.2s-.1-1-.4-1.2c-.3-.2-.8-.4-1.4-.5l-.6-.1-1-.2-.6-.4-.5-.6-.1-1 .1-.8.6-.6.8-.4 1-.1c.6 0 1.1.1 1.5.3l1 .8-.4.4a3.3 3.3 0 0 0-.8-.7 3 3 0 0 0-1.4-.3c-.6 0-1 0-1.4.3-.4.3-.5.7-.5 1.2s.1.9.4 1.1c.3.2.8.4 1.4.5l.6.1c.7.1 1.3.3 1.7.7.4.3.5.8.5 1.4a2 2 0 0 1-.6 1.6 3 3 0 0 1-2 .6Zm5.9-.2c-.5 0-.7-.2-.7-.6v-6.6H268v-.4h1l.4-.1v-2.1h.5v2.2h1.8v.4h-1.8v6.7h1.7v.5H270Zm4.4 0c-.4 0-.6-.2-.6-.6v-10.5h.5v10.6h1.3v.5h-1.2Zm5.8.2a3 3 0 0 1-2.4-1c-.5-.7-.8-1.7-.8-3s.3-2.3.8-3c.6-.7 1.4-1 2.4-1a3 3 0 0 1 2.2 1c.3.3.5.8.7 1.2l.2 1.6v.2h-5.8v.4c0 .5 0 1 .2 1.3l.5 1 .9.6 1.1.2c1.3 0 2-.6 2.5-1.7l.4.2c-.2.6-.5 1-1 1.4a3 3 0 0 1-1.9.6Zm0-7.5c-.4 0-.8 0-1.1.2-.4.1-.6.3-.9.6l-.5 1-.2 1.2h5.2l-.1-1.3c-.2-.3-.3-.7-.6-1l-.8-.5c-.3-.2-.6-.3-1-.3Zm5.5 7.3v-7.6h.5v1.3l.8-1c.4-.2 1-.3 1.6-.3h.6v.5h-1.6l-.7.4-.5.6-.2.8v5.3h-.5Zm7.2.2c-.6 0-1.2-.2-1.6-.4-.5-.2-.9-.6-1.2-1l.4-.4c.3.5.7.8 1 1 .4.2.9.3 1.4.3.7 0 1.2-.1 1.6-.4.3-.3.5-.7.5-1.2s-.1-1-.4-1.2c-.3-.2-.8-.4-1.4-.5l-.6-.1-1-.2-.7-.4-.4-.6-.2-1c0-.2 0-.5.2-.8l.5-.6.8-.4 1-.1c.7 0 1.2.1 1.6.3l1 .8-.4.4a3.3 3.3 0 0 0-.8-.7 3 3 0 0 0-1.4-.3c-.6 0-1 0-1.4.3-.4.3-.6.7-.6 1.2s.2.9.5 1.1c.3.2.7.4 1.4.5l.6.1c.7.1 1.3.3 1.6.7.4.3.6.8.6 1.4a2 2 0 0 1-.7 1.6 3 3 0 0 1-1.9.6Zm5.3-.1-.4-.1-.2-.4v-.1c0-.2 0-.3.2-.4l.4-.1.4.1.1.4-.1.5h-.4ZM29.8 283.6h6.4c1 0 2 .2 3 .6a6 6 0 0 1 2.3 1.5 7 7 0 0 1 1.5 2.7c.4 1 .5 2.2.5 3.6s-.1 2.6-.5 3.7c-.4 1-.8 1.9-1.5 2.6-.6.7-1.4 1.2-2.3 1.6-1 .3-2 .5-3 .5h-6.4v-16.8Zm6.4 13.5c1 0 1.9-.3 2.5-.9.7-.6 1-1.6 1-2.9v-2.6c0-1.3-.3-2.3-1-3-.6-.5-1.5-.8-2.5-.8h-2.7V297h2.7Zm12-10.7c-.8 0-1.3-.1-1.6-.4-.3-.4-.5-.8-.5-1.3v-.5c0-.6.2-1 .5-1.3.3-.3.8-.5 1.6-.5.7 0 1.2.2 1.5.5.4.3.5.7.5 1.3v.5c0 .5-.1 1-.5 1.3-.3.3-.8.4-1.5.4Zm-1.8 1.4h3.5v12.6h-3.5v-12.6Zm6.9 12.6v-12.6h3.5v2.7h.1a3.7 3.7 0 0 1 1-1.9 3.2 3.2 0 0 1 2.3-.8h.6v3.3h-1c-1 0-1.7.1-2.2.4-.5.3-.8.8-.8 1.5v7.4h-3.5Zm14.2 0c-1.3 0-2.2-.3-2.8-1-.7-.6-1-1.5-1-2.7v-6.2H62v-2.7h.8c.5 0 .8-.1 1-.4.2-.2.3-.5.3-1v-2h3.2v3.4h2.5v2.7h-2.5v7.1h2.3v2.8h-2.1Zm6.5-14c-.7 0-1.2-.1-1.6-.4-.3-.4-.4-.8-.4-1.3v-.5c0-.6.1-1 .4-1.3.4-.3.9-.5 1.6-.5.7 0 1.3.2 1.6.5.3.3.5.7.5 1.3v.5c0 .5-.2 1-.5 1.3-.3.3-.9.4-1.6.4Zm-1.8 1.4h3.6v12.6h-3.6v-12.6Zm12.2 12.9c-1 0-1.9-.2-2.6-.5-.8-.3-1.4-.7-2-1.3a6 6 0 0 1-1.1-2c-.3-1-.4-1.8-.4-2.8 0-1 .1-2 .4-2.7.3-.8.6-1.5 1.1-2.1a5 5 0 0 1 1.9-1.3c.7-.3 1.6-.5 2.5-.5 1 0 2 .2 2.7.5a5 5 0 0 1 1.8 1.4c.5.6.8 1.3 1 2.1.3.8.4 1.6.4 2.4v1H82v.3c0 .8.2 1.5.7 2 .4.4 1.1.7 2 .7.8 0 1.4-.2 1.9-.4l1.3-1.1 1.7 2.2c-.5.6-1.3 1.2-2.2 1.5a8 8 0 0 1-3 .6Zm-.1-10.6c-.7 0-1.3.3-1.7.7-.4.5-.6 1.1-.6 1.9v.2h4.4v-.2a3 3 0 0 0-.5-1.9c-.4-.4-.9-.7-1.6-.7Zm8.3 10.3v-12.6H96v2.7h.2a3.7 3.7 0 0 1 1-1.9 3.2 3.2 0 0 1 2.3-.8h.5v3.3h-.9c-1 0-1.8.1-2.3.4-.5.3-.8.8-.8 1.5v7.4h-3.5Zm19.8 0c-1.3 0-2.2-.3-2.8-1-.7-.6-1-1.5-1-2.7v-6.2H107v-2.7h.8c.5 0 .9-.1 1-.4.2-.2.3-.5.3-1v-2h3.2v3.4h2.5v2.7h-2.5v7.1h2.3v2.8h-2.1Zm4.7-17.8h3.6v7.3h.1c.3-.6.7-1.2 1.2-1.7.6-.5 1.4-.7 2.3-.7 1.3 0 2.3.4 3 1.3a6 6 0 0 1 1 3.7v7.9h-3.6v-7.6c0-.8-.1-1.4-.4-1.8-.2-.4-.7-.6-1.3-.6a3 3 0 0 0-1.6.4l-.5.6-.2.8v8.2h-3.6v-17.8Zm23.7 17.8c-.7 0-1.2-.2-1.7-.6-.4-.4-.6-1-.7-1.6h-.2a3 3 0 0 1-1.3 1.8c-.6.5-1.4.7-2.4.7-1.2 0-2.2-.4-2.9-1-.7-.7-1-1.6-1-2.7 0-1.3.5-2.3 1.4-3a7 7 0 0 1 4-1h2v-.7c0-.6-.2-1.1-.5-1.5-.3-.3-.8-.5-1.6-.5-.7 0-1.3.1-1.7.4l-1 1-2.1-1.8c.5-.8 1.1-1.3 2-1.8.7-.4 1.7-.6 3-.6 1.9 0 3.2.4 4.1 1.2.9.8 1.3 1.9 1.3 3.4v5.5h1.2v2.8h-2Zm-5-2.2c.6 0 1.1-.1 1.5-.4.5-.2.7-.7.7-1.2V295h-1.7c-1.4 0-2.1.5-2.1 1.4v.4c0 .4.1.8.4 1 .3.2.7.3 1.2.3Zm9.3 2.2v-12.6h3.6v2.1h.1a3.5 3.5 0 0 1 3.5-2.4c1.3 0 2.3.4 3 1.3a6 6 0 0 1 1 3.7v7.9h-3.6v-7.6c0-.8-.1-1.4-.4-1.8-.2-.4-.7-.6-1.4-.6a3 3 0 0 0-1.5.4c-.3.2-.4.4-.5.6-.2.3-.2.5-.2.8v8.2H145Zm31.7-10.4a10 10 0 0 1-.5 3.3 13.1 13.1 0 0 1-3.4 5.3l-2 1.8h-5a64.6 64.6 0 0 0 4.8-4.1l1.5-2c.4-.8.7-1.5.8-2.3h-.2a6 6 0 0 1-.5.8 3.3 3.3 0 0 1-1.8 1.4c-.4.2-.8.2-1.4.2-.7 0-1.3 0-2-.3a5 5 0 0 1-1.5-1 5 5 0 0 1-1-1.7 6.3 6.3 0 0 1 0-4.5c.4-.8.8-1.4 1.3-1.9.6-.5 1.3-1 2-1.2.8-.3 1.7-.5 2.6-.5 1 0 2 .2 2.7.5a5.5 5.5 0 0 1 3.2 3.4c.3.9.4 1.8.4 2.8Zm-6.3 1.7c.8 0 1.4-.2 1.9-.7.4-.4.7-1 .7-1.9v-.4c0-.8-.3-1.4-.7-1.9-.5-.4-1-.6-1.9-.6-.8 0-1.4.2-1.8.6-.5.5-.7 1-.7 1.9v.4c0 .8.2 1.5.7 2 .4.4 1 .6 1.8.6Zm11.6 8.7 11.6-16.8h3.2l-11.6 16.8H182Zm1.2-7.6c-1.4 0-2.4-.4-3.2-1.2-.7-.8-1-2-1-3.5 0-1.6.3-2.8 1-3.6.8-.8 1.8-1.2 3.2-1.2 1.4 0 2.5.4 3.2 1.2.8.8 1.2 2 1.2 3.6s-.4 2.7-1.2 3.5c-.7.8-1.8 1.2-3.2 1.2Zm0-2a1 1 0 0 0 1-.5c.2-.3.3-.9.3-1.6v-1.2a3 3 0 0 0-.3-1.6 1 1 0 0 0-1-.5 1 1 0 0 0-.9.5 3 3 0 0 0-.3 1.6v1.2c0 .7 0 1.3.3 1.6.2.3.5.5 1 .5Zm12.4 9.9c-1.4 0-2.5-.4-3.2-1.2-.8-.8-1.2-2-1.2-3.6 0-1.5.4-2.7 1.2-3.5.7-.8 1.8-1.2 3.2-1.2 1.4 0 2.4.4 3.2 1.2.7.8 1 2 1 3.5 0 1.6-.3 2.8-1 3.6-.8.8-1.8 1.2-3.2 1.2Zm0-2a1 1 0 0 0 1-.6l.2-1.6v-1.2a3 3 0 0 0-.3-1.6 1 1 0 0 0-1-.5 1 1 0 0 0-.9.5 3 3 0 0 0-.3 1.6v1.2c0 .8.1 1.3.3 1.6.2.3.6.5 1 .5Zm-161.1 33c-.8 0-1.6-.2-2.2-.5-.7-.2-1.2-.7-1.7-1.2a6 6 0 0 1-1-2 8.7 8.7 0 0 1 0-5.4c.2-.8.5-1.5 1-2 .5-.6 1-1 1.7-1.3a5.2 5.2 0 0 1 4.4 0c.7.3 1.2.7 1.7 1.2.5.6.8 1.3 1 2a8.9 8.9 0 0 1 0 5.4 6 6 0 0 1-1 2c-.5.6-1 1-1.7 1.3-.6.3-1.4.5-2.2.5Zm0-1.3c1.2 0 2.1-.3 2.8-1 .7-.8 1-2 1-3.4v-1.5c0-1.5-.3-2.6-1-3.3a3.6 3.6 0 0 0-2.8-1.2c-1.2 0-2.2.4-2.9 1.2-.6.7-1 1.8-1 3.3v1.5c0 1.4.4 2.6 1 3.3.7.8 1.7 1.1 2.9 1.1Zm9.3-10.1h-2.1v-1.2h2.1v-3.4c0-.7.2-1.2.5-1.5.3-.4.8-.6 1.4-.6H48v1.2h-2.7v4.3H48v1.2h-2.7v11h-1.4v-11Zm14.6 11c-.5 0-.8 0-1.1-.3-.3-.3-.4-.7-.4-1.1v-9.6H55v-1.2h1.4c.3 0 .5 0 .6-.2.2-.1.2-.4.2-.7v-2.5h1.3v3.4h2.8v1.2h-2.8v9.9H61v1.2h-2.5Zm6-17.7h1.3v7.4c.4-.6.8-1.1 1.4-1.5.5-.5 1.3-.7 2.3-.7 1.3 0 2.3.4 3 1.2.8.8 1.2 2 1.2 3.5v7.9h-1.4v-7.7c0-1.2-.3-2.1-.8-2.8-.5-.6-1.3-.9-2.3-.9-.5 0-.9 0-1.3.2l-1 .5c-.4.2-.6.5-.8.9-.2.3-.3.7-.3 1.1v8.7h-1.3v-17.8Zm17.9 18c-.8 0-1.6 0-2.3-.4a4.8 4.8 0 0 1-2.7-3.2c-.3-.8-.4-1.8-.4-2.8 0-1 .1-1.9.4-2.6a4.7 4.7 0 0 1 2.8-3.3 5 5 0 0 1 7 3.1c.2.7.3 1.6.3 2.5v.6h-9v.6c0 .6 0 1.2.2 1.8l.8 1.3c.3.4.8.7 1.3 1 .5.2 1 .3 1.6.3 1.8 0 3-.9 3.8-2.5l1 .7c-.4.9-1 1.6-1.9 2.2-.8.5-1.8.8-3 .8Zm0-11.6c-.6 0-1.2 0-1.7.3a3.6 3.6 0 0 0-2 2.3c-.2.5-.3 1-.3 1.7v.1H86v-.1c0-.7 0-1.3-.2-1.8a3.7 3.7 0 0 0-2-2.2c-.4-.2-1-.3-1.5-.3Zm12.8-.9h1.4l3 11 3.2-11h1.3l3.3 11 3-11h1.3l-3.5 12.3h-1.6l-3.1-10.4-3.2 10.4h-1.6L95.2 319Zm23.8 12.6c-.8 0-1.5-.2-2.2-.5a4.8 4.8 0 0 1-2.8-3.2c-.2-.8-.3-1.8-.3-2.8 0-1 0-1.9.3-2.6.3-.8.6-1.5 1.1-2 .5-.6 1-1 1.7-1.3.7-.3 1.4-.5 2.2-.5a5 5 0 0 1 4.8 3.6c.3.7.4 1.6.4 2.5v.6h-9v.6c0 .6 0 1.2.2 1.8.2.5.4 1 .8 1.3.3.4.7.7 1.2 1 .5.2 1 .3 1.7.3 1.8 0 3-.9 3.7-2.5l1 .7c-.3.9-1 1.6-1.8 2.2-.8.5-1.8.8-3 .8Zm0-11.7c-.6 0-1.1 0-1.6.3a3.6 3.6 0 0 0-2 2.3c-.2.5-.3 1-.3 1.7v.1h7.6v-.1c0-.7 0-1.3-.2-1.8a3.7 3.7 0 0 0-2-2.2c-.4-.2-1-.3-1.5-.3Zm8.7-6.4h1.4v7.5c.3-.7.8-1.3 1.4-1.7.6-.4 1.4-.6 2.4-.6 1.6 0 2.8.6 3.7 1.7a7.4 7.4 0 0 1 1.3 4.7c0 2-.4 3.7-1.3 4.8a4.5 4.5 0 0 1-3.7 1.7c-1 0-1.8-.2-2.4-.6-.6-.4-1-1-1.4-1.7v2h-1.4v-17.8Zm4.9 16.8c1.2 0 2.1-.3 2.8-1.1.7-.8 1-1.9 1-3.2v-1.7c0-1.4-.3-2.4-1-3.2a3.6 3.6 0 0 0-2.8-1.2 4.3 4.3 0 0 0-2.5.8c-.3.2-.6.5-.8.9-.2.3-.2.7-.2 1v5c0 .4 0 .8.2 1.1a3.1 3.1 0 0 0 1.9 1.5l1.4.1Zm14.5-11.3h1.4v2c.4-.7.8-1.3 1.5-1.7.6-.4 1.4-.6 2.3-.6 1.6 0 2.8.6 3.7 1.7a7.4 7.4 0 0 1 1.4 4.7c0 2-.5 3.7-1.4 4.8a4.5 4.5 0 0 1-3.7 1.7c-1 0-1.7-.2-2.3-.6-.6-.4-1-1-1.4-1.7v6.8H147V319Zm5 11.3c1.1 0 2.1-.3 2.8-1.1.7-.8 1-1.9 1-3.2v-1.7c0-1.4-.3-2.4-1-3.2a3.6 3.6 0 0 0-2.9-1.2 4.3 4.3 0 0 0-2.5.8c-.3.2-.5.5-.7.9-.2.3-.3.7-.3 1v5c0 .4 0 .8.3 1.1a3.1 3.1 0 0 0 1.8 1.5l1.4.1Zm17.3 1c-.6 0-1-.2-1.2-.4-.2-.3-.4-.7-.4-1.1v-.5h-.1c-.3.7-.7 1.3-1.4 1.7-.6.4-1.4.6-2.3.6-1.3 0-2.3-.3-3-1-.7-.6-1-1.5-1-2.7 0-1 .3-1.9 1-2.5.8-.7 2.1-1 3.9-1h2.8v-1.4c0-2-1-3-3.1-3-.8 0-1.5 0-2 .4-.6.4-1 .9-1.4 1.5l-.8-.7c.3-.7.8-1.3 1.5-1.8s1.6-.7 2.7-.7c1.5 0 2.6.4 3.4 1a4 4 0 0 1 1.1 3.1v7.3h1.7v1.2h-1.4Zm-5.2-.9c.5 0 1 0 1.4-.2l1-.5c.4-.3.7-.5.8-.9.2-.3.3-.7.3-1v-2.4H165c-1.3 0-2.2.2-2.7.6-.6.4-.8 1-.8 1.6v.6c0 .7.2 1.3.7 1.6.5.4 1.2.6 2 .6Zm19.5 2.3a3 3 0 0 1-1.6 2.8c-1 .6-2.4.9-4.3.9-2 0-3.3-.3-4.1-.8a2.6 2.6 0 0 1-1.3-2.3c0-.7.2-1.3.6-1.7.4-.4.9-.7 1.6-.9v-.2c-.8-.3-1.2-.8-1.2-1.7 0-.6.2-1 .6-1.4a4 4 0 0 1 1.5-.7c-.7-.4-1.3-.9-1.7-1.5-.4-.7-.6-1.4-.6-2.3 0-.6.1-1.2.3-1.7a3.8 3.8 0 0 1 2.3-2.2c.6-.2 1.2-.3 1.9-.3 1 0 1.7.2 2.5.6v-.6c0-.4 0-.7.2-.9.2-.2.5-.3.9-.3h2v1.2H181v1.1l1 1.4c.2.5.3 1 .3 1.7a4.2 4.2 0 0 1-1.3 3 4 4 0 0 1-1.4.9 5.5 5.5 0 0 1-2.4.2h-.7a4 4 0 0 0-1.3.5c-.3.3-.5.6-.5 1 0 .8.7 1.1 2 1.1h2.8c1.5 0 2.6.3 3.2.9.7.5 1 1.3 1 2.2Zm-1.4.1c0-.6-.2-1-.6-1.4-.4-.3-1.2-.5-2.3-.5h-4c-.5.2-.9.4-1.2.8a2 2 0 0 0-.5 1.3c0 .7.3 1.2.8 1.6.6.4 1.4.6 2.4.6h1.6c1.2 0 2.1-.2 2.8-.6.7-.3 1-1 1-1.8Zm-4.6-6.8c1 0 1.7-.3 2.2-.7.6-.5.8-1.2.8-2v-.8c0-.8-.2-1.5-.8-2-.5-.4-1.3-.7-2.2-.7-1 0-1.7.3-2.2.7-.6.5-.8 1.2-.8 2v.8c0 .8.2 1.5.8 2 .5.4 1.3.7 2.2.7Zm12.8 5.6c-.8 0-1.5-.2-2.2-.5a4.8 4.8 0 0 1-2.8-3.2c-.2-.8-.3-1.8-.3-2.8 0-1 0-1.9.3-2.6.3-.8.6-1.5 1-2 .6-.6 1.1-1 1.8-1.3.7-.3 1.4-.5 2.2-.5a5 5 0 0 1 4.8 3.6c.3.7.4 1.6.4 2.5v.6h-9.1v.6c0 .6 0 1.2.3 1.8.2.5.4 1 .8 1.3.3.4.7.7 1.2 1 .5.2 1 .3 1.7.3 1.8 0 3-.9 3.7-2.5l1 .7c-.4.9-1 1.6-1.8 2.2-.8.5-1.8.8-3 .8Zm0-11.7c-.6 0-1.1 0-1.6.3a3.6 3.6 0 0 0-2 2.3c-.2.5-.3 1-.3 1.7v.1h7.6v-.1c0-.7 0-1.3-.3-1.8a3.7 3.7 0 0 0-2-2.2c-.4-.2-.8-.3-1.4-.3Zm12.2 11.7c-1.1 0-2-.2-2.8-.6-.8-.4-1.4-1-2-1.8l1-.8a4.5 4.5 0 0 0 3.8 2c1 0 1.7-.2 2.2-.6.5-.4.8-1 .8-1.7a2 2 0 0 0-.6-1.6c-.4-.4-1-.6-2-.7l-1-.2c-.5 0-1-.2-1.5-.4a4 4 0 0 1-1.2-.6 3 3 0 0 1-.7-1c-.2-.4-.3-.9-.3-1.4 0-.6.1-1.1.3-1.5.2-.5.5-.8.9-1.1l1.3-.7 1.7-.2c1 0 1.8.2 2.5.5.7.4 1.2.8 1.7 1.4l-1 .8-1.2-1c-.6-.3-1.2-.5-2-.5-1 0-1.7.2-2.2.6a2 2 0 0 0-.7 1.6c0 .7.2 1.2.7 1.6.4.3 1 .5 2 .6l1 .2a5 5 0 0 1 2.7 1.1 3 3 0 0 1 1 2.3c0 1.2-.5 2-1.3 2.7-.7.7-1.8 1-3.2 1Zm15.7-.3c-.5 0-.9-.2-1.1-.4-.3-.3-.4-.7-.4-1.1v-9.6h-2.2v-1.2h1.4c.4 0 .6 0 .7-.2l.2-.7v-2.5h1.2v3.4h2.8v1.2h-2.8v9.9h2.6v1.2h-2.4Zm10.2.3c-.8 0-1.5-.2-2.2-.5a4.8 4.8 0 0 1-2.8-3.2c-.2-.8-.4-1.8-.4-2.8 0-1 .2-1.9.4-2.6.3-.8.6-1.5 1-2 .6-.6 1.1-1 1.8-1.3.6-.3 1.4-.5 2.2-.5a5 5 0 0 1 4.8 3.6c.2.7.4 1.6.4 2.5v.6h-9.1v.6c0 .6 0 1.2.2 1.8l.8 1.3 1.3 1c.5.2 1 .3 1.7.3 1.8 0 3-.9 3.7-2.5l1 .7c-.4.9-1 1.6-1.8 2.2-.8.5-1.8.8-3 .8Zm0-11.7c-.6 0-1.1 0-1.6.3a3.6 3.6 0 0 0-2 2.3c-.2.5-.3 1-.3 1.7v.1h7.6v-.1c0-.7-.1-1.3-.3-1.8a3.7 3.7 0 0 0-2-2.2c-.4-.2-.9-.3-1.4-.3Zm12.1 11.7c-1 0-2-.2-2.7-.6-.8-.4-1.4-1-2-1.8l1-.8a4.5 4.5 0 0 0 3.8 2c1 0 1.7-.2 2.2-.6.5-.4.8-1 .8-1.7a2 2 0 0 0-.6-1.6c-.4-.4-1-.6-2-.7l-1-.2c-.5 0-1-.2-1.5-.4a4 4 0 0 1-1.2-.6 3 3 0 0 1-.7-1c-.2-.4-.3-.9-.3-1.4 0-.6 0-1.1.3-1.5.2-.5.5-.8.9-1.1l1.3-.7 1.7-.2c1 0 1.8.2 2.5.5.6.4 1.2.8 1.7 1.4l-1 .8-1.2-1c-.6-.3-1.3-.5-2.1-.5-.9 0-1.6.2-2 .6a2 2 0 0 0-.8 1.6c0 .7.2 1.2.7 1.6.4.3 1 .5 2 .6l1 .2a5 5 0 0 1 2.7 1.1 3 3 0 0 1 .9 2.3c0 1.2-.4 2-1.2 2.7-.7.7-1.8 1-3.2 1Zm10-.3c-.5 0-.9-.2-1.1-.4-.3-.3-.4-.7-.4-1.1v-9.6h-2.1v-1.2h1.4c.3 0 .5 0 .6-.2.2-.1.2-.4.2-.7v-2.5h1.3v3.4h2.8v1.2h-2.8v9.9h2.6v1.2h-2.5Zm10.2.3c-.8 0-1.5-.2-2.2-.5a4.8 4.8 0 0 1-2.8-3.2c-.2-.8-.3-1.8-.3-2.8 0-1 0-1.9.3-2.6.3-.8.6-1.5 1.1-2 .5-.6 1-1 1.7-1.3.7-.3 1.4-.5 2.2-.5a5 5 0 0 1 4.8 3.6c.3.7.4 1.6.4 2.5v.6H257v.6c0 .6 0 1.2.3 1.8.2.5.4 1 .8 1.3.3.4.7.7 1.2 1 .5.2 1 .3 1.7.3 1.8 0 3-.9 3.7-2.5l1 .7c-.3.9-1 1.6-1.8 2.2-.8.5-1.8.8-3 .8Zm0-11.7c-.6 0-1.1 0-1.6.3a3.6 3.6 0 0 0-2 2.3c-.2.5-.3 1-.3 1.7v.1h7.6v-.1c0-.7 0-1.3-.3-1.8a3.7 3.7 0 0 0-1.9-2.2c-.4-.2-1-.3-1.5-.3Zm16.6 9.4a4 4 0 0 1-1.5 1.7c-.6.4-1.4.6-2.3.6-1.6 0-2.8-.6-3.7-1.7a7.4 7.4 0 0 1-1.4-4.8c0-2 .5-3.6 1.4-4.7a4.5 4.5 0 0 1 3.7-1.7c1 0 1.7.2 2.4.6.6.4 1 1 1.3 1.7h.1v-7.5h1.4v17.8h-1.4v-2Zm-3.5 1 1.4-.1 1-.6c.4-.3.7-.5.8-.9.2-.3.3-.7.3-1.2v-4.8c0-.4 0-.8-.3-1.1-.1-.4-.4-.7-.7-.9l-1.1-.6a4 4 0 0 0-1.4-.2c-1.2 0-2.2.4-2.9 1.2-.7.8-1 1.8-1 3.2v1.7c0 1.3.3 2.4 1 3.2.7.8 1.7 1.1 3 1.1ZM41.2 382.4H29.4V379l5.1-4.4a22 22 0 0 0 2-2l.4-1 .1-1v-.3a1.8 1.8 0 0 0-.6-1.5l-.8-.3-.8-.1c-.4 0-.7 0-1 .2-.3 0-.6.3-.8.5l-.5.7a4 4 0 0 0-.3 1l-3.2-1.3a7 7 0 0 1 .8-1.6 5.4 5.4 0 0 1 3-2.3c.7-.2 1.5-.4 2.4-.4.9 0 1.7.2 2.4.4.7.3 1.3.6 1.8 1 .5.5.8 1 1.1 1.7.3.6.4 1.3.4 2s-.1 1.4-.4 2a10.1 10.1 0 0 1-2.4 3.1c-.5.5-1 1-1.7 1.4l-3.1 2.5h8v3ZM55.8 372a10 10 0 0 1-.6 3.3 13.1 13.1 0 0 1-3.3 5.3l-2.1 1.8h-5a64.6 64.6 0 0 0 4.9-4.1l1.5-2c.4-.8.6-1.5.8-2.3h-.2a6 6 0 0 1-.5.8 3.3 3.3 0 0 1-1.8 1.4c-.4.2-.9.2-1.4.2-.7 0-1.3 0-2-.3a5 5 0 0 1-1.5-1 5 5 0 0 1-1-1.7c-.3-.7-.4-1.4-.4-2.2 0-.8.2-1.6.4-2.4a5.9 5.9 0 0 1 3.3-3c.8-.3 1.6-.5 2.6-.5s1.9.2 2.7.5a5.5 5.5 0 0 1 3.2 3.4c.2.9.4 1.8.4 2.8Zm-6.3 1.7c.8 0 1.4-.2 1.9-.7.4-.4.6-1 .6-1.9v-.4c0-.8-.2-1.4-.6-1.9-.5-.4-1.1-.6-2-.6-.7 0-1.3.2-1.8.6-.4.5-.6 1-.6 1.9v.4c0 .8.2 1.5.6 2 .5.4 1 .6 1.9.6Zm9-9H62V375h.1l1.6-2.3 2.5-3h4l-4.3 4.8 4.7 7.8h-4.2l-2.8-5.3-1.6 1.7v3.6h-3.6v-17.8ZM75 382.3l-3.8-16.8h3.6l1.5 8 1 4.7 1-4.6 2-8h3.9l1.9 8 1 4.6 1-4.6 1.6-8H93l-3.9 16.7h-4.1l-2.1-9-.8-3.8H82l-.9 3.7-2 9H75Zm20.5-17.8H99v7.3h.2c.2-.6.6-1.2 1.1-1.7.6-.5 1.4-.7 2.4-.7 1.3 0 2.2.4 2.9 1.3a6 6 0 0 1 1 3.7v7.9h-3.5v-7.6c0-.8-.2-1.4-.4-1.8-.3-.4-.7-.6-1.4-.6a3 3 0 0 0-1.6.4l-.5.6-.2.8v8.2h-3.5v-17.8Zm25 18c-.8 0-1.6 0-2.3-.4-.7-.3-1.3-.7-1.8-1.3a8.3 8.3 0 0 1-1.5-4.7c0-1 .1-1.9.4-2.7.3-.8.7-1.5 1.1-2 .5-.6 1.1-1 1.8-1.3.7-.3 1.5-.5 2.3-.5.8 0 1.6.2 2.3.5a5 5 0 0 1 1.7 1.3c.5.5 1 1.2 1.2 2 .3.8.4 1.7.4 2.7 0 1-.1 1.9-.4 2.7-.3.8-.7 1.4-1.2 2-.5.6-1 1-1.7 1.3-.7.3-1.5.5-2.3.5Zm0-1.6c1 0 1.9-.4 2.5-1 .7-.6 1-1.6 1-3v-1.7c0-1.3-.3-2.3-1-3-.6-.6-1.5-.9-2.5-.9s-1.9.3-2.5 1c-.7.6-1 1.6-1 3v1.7c0 1.3.3 2.3 1 3 .6.5 1.5.9 2.5.9Zm9.3-9.3h-2V370h2v-2.5c0-.9.2-1.6.7-2 .4-.6 1-.9 2-.9h1.9v1.7h-2.7v3.7h2.7v1.7h-2.7v10.7h-2v-10.7Zm17.4 11c-.8 0-1.6-.2-2.3-.5-.7-.3-1.2-.7-1.7-1.3-.5-.6-.9-1.2-1.2-2-.2-.8-.3-1.7-.3-2.7 0-1 0-1.9.3-2.7.3-.8.7-1.5 1.2-2a5 5 0 0 1 4-1.8c.9 0 1.6.2 2.3.5.6.3 1.2.7 1.6 1.2.5.6.8 1.2 1 2 .3.7.5 1.5.5 2.4v.9h-9v.5c0 .6.1 1 .3 1.5.2.5.4.9.7 1.2.3.3.7.6 1.2.8.4.2 1 .3 1.5.3.8 0 1.5-.2 2-.6.7-.3 1.1-.9 1.4-1.5l1.4 1c-.4.8-1 1.5-1.9 2-.8.5-1.8.8-3 .8Zm0-11.4a3.5 3.5 0 0 0-2.5 1 4 4 0 0 0-1 2.7v.2h6.8v-.2c0-1.1-.3-2-1-2.7a3 3 0 0 0-2.3-1Zm8.5 11V370h2v2c.4-.7.8-1.2 1.3-1.7.6-.4 1.3-.6 2.3-.6 1.2 0 2.2.4 3 1.3.7.8 1.1 2 1.1 3.4v8h-2v-7.6c0-2.2-.8-3.4-2.7-3.4-.4 0-.8 0-1.1.2-.4 0-.7.2-1 .4l-.7.8a2 2 0 0 0-.2 1v8.6h-2Zm18.3.4c-.8 0-1.6-.2-2.3-.5-.6-.3-1.2-.7-1.7-1.3-.5-.6-.9-1.2-1.2-2-.2-.8-.3-1.7-.3-2.7 0-1 0-1.9.3-2.7.3-.8.7-1.5 1.2-2a5 5 0 0 1 4-1.8c.9 0 1.6.2 2.3.5.6.3 1.2.7 1.6 1.2.5.6.9 1.2 1.1 2 .3.7.4 1.5.4 2.4v.9h-9v.5c0 .6.2 1 .3 1.5.2.5.4.9.7 1.2.4.3.7.6 1.2.8.5.2 1 .3 1.6.3.7 0 1.4-.2 2-.6.6-.3 1-.9 1.4-1.5l1.3 1c-.4.8-1 1.5-1.8 2-.9.5-1.9.8-3 .8Zm0-11.4a3.5 3.5 0 0 0-2.5 1l-.8 1.3a4 4 0 0 0-.2 1.5v.1h6.8v-.2c0-1.1-.3-2-.9-2.7a3 3 0 0 0-2.4-1Zm8.5 11V370h2v2.3c.3-.6.7-1.1 1.3-1.6.6-.5 1.4-.7 2.4-.7h.7v2h-1.1c-1 0-1.9.1-2.5.5-.5.4-.8.9-.8 1.5v8.4h-2Zm18.7 1.5c0 1.2-.5 2.2-1.5 2.8-1 .6-2.5.9-4.5.9-1.9 0-3.3-.3-4.1-.8a2.5 2.5 0 0 1-1.3-2.3c0-.6.2-1.2.5-1.6.4-.3.8-.6 1.5-.8v-.2c-.8-.4-1.1-1-1.1-1.8 0-.6.2-1 .6-1.4.4-.3.9-.6 1.5-.7v-.1a4 4 0 0 1-1.7-1.5c-.4-.7-.6-1.5-.6-2.3 0-.6 0-1.2.3-1.7.2-.6.5-1 1-1.4.3-.4.8-.7 1.4-.9.6-.2 1.2-.3 2-.3s1.6.2 2.3.5v-.2c0-.5 0-.9.3-1.2.2-.3.6-.5 1.1-.5h1.9v1.7h-2.4v.8c.5.4.8.8 1 1.4.3.5.4 1.1.4 1.8 0 .6 0 1.2-.3 1.7a4 4 0 0 1-2.4 2.2 5.6 5.6 0 0 1-3.2.2l-1 .5a1 1 0 0 0-.6 1c0 .3.2.5.5.7l1.4.2h2.6c1.6 0 2.7.3 3.4.9a3 3 0 0 1 1 2.4Zm-1.8.1c0-.5-.2-.9-.5-1.2-.4-.3-1-.4-2-.4h-4.2c-.7.3-1.1.9-1.1 1.6 0 .6.2 1 .6 1.4.4.4 1.1.6 2 .6h1.9c1 0 1.9-.2 2.5-.5.5-.3.8-.8.8-1.5Zm-4.3-7.2a3 3 0 0 0 2-.6c.5-.4.7-1 .7-1.8v-.7c0-.8-.2-1.4-.7-1.8a3 3 0 0 0-2-.6 3 3 0 0 0-1.9.6c-.5.4-.7 1-.7 1.8v.7c0 .8.2 1.4.7 1.8a3 3 0 0 0 2 .6Zm16.1-6.7h2l-5.6 15.3-.5.9-.5.6-.8.3h-2.1v-1.6h2l.9-2.6L202 370h1.9l3 8.4.5 2h.2l.6-2 3-8.4ZM32.5 396.3v10H32v-10h-3.7v-.5h8v.5h-3.8Zm5.5-1.1h.6v4.7c.2-.4.4-.7.8-1 .4-.3 1-.4 1.6-.4.8 0 1.5.3 2 .8.4.5.6 1.2.6 2.1v5h-.5v-4.9c0-.8-.2-1.5-.6-1.9-.4-.4-1-.6-1.6-.6l-.9.1c-.3 0-.5.2-.7.4-.2.1-.4.3-.5.6-.2.2-.2.5-.2.8v5.5H38v-11.2Zm13.5 11.2c-.4 0-.6-.2-.6-.7v-.5h-.1c-.2.4-.5.7-.9 1-.4.2-.9.4-1.5.4-.8 0-1.5-.2-1.9-.6a2 2 0 0 1-.6-1.6l.1-1 .5-.6 1-.5 1.3-.2h2v-1c0-.7-.1-1.2-.5-1.6-.3-.3-.9-.5-1.6-.5-1 0-1.8.4-2.2 1.3l-.4-.2c.2-.5.6-.9 1-1.2.4-.2 1-.4 1.7-.4.8 0 1.5.2 2 .7.4.4.6 1 .6 1.9v4.8h1.2v.5h-1Zm-3.1-.3 1-.1.7-.4.6-.6.1-.9v-1.5h-2c-.8 0-1.4.1-1.8.4-.4.3-.6.7-.6 1.1v.5c0 .5.2.9.6 1.1.3.3.8.4 1.4.4Zm7 .3c-.4 0-.6-.2-.6-.7v-6.5h-1.4v-.5h1l.3-.1.1-.4v-1.7h.5v2.2h1.8v.5h-1.8v6.7H57v.5h-1.5Zm4.7-11.4c.1 0 .3 0 .4.2v.5c0 .4 0 .9-.3 1.4l-.8 1.1h-.5c.4-.3.6-.7.8-1l.3-1-.4-.2v-.8l.5-.2Zm4.7 11.6c-.7 0-1.2-.2-1.7-.4s-.9-.6-1.2-1l.4-.4c.3.5.7.8 1 1l1.5.3c.7 0 1.2-.1 1.5-.4.4-.3.6-.7.6-1.3 0-.5-.2-.9-.5-1.1-.3-.3-.7-.4-1.4-.5l-.6-.1a5 5 0 0 1-1-.3l-.7-.4c-.2-.1-.3-.3-.4-.6l-.2-.9.2-.8.5-.7.8-.4h1c.7 0 1.2 0 1.6.3.4.2.8.4 1 .7l-.4.4a3.4 3.4 0 0 0-.8-.7 3 3 0 0 0-1.4-.3c-.6 0-1 .1-1.4.4-.4.2-.5.6-.5 1.1 0 .5.1 1 .4 1.2.3.2.8.4 1.4.5h.6c.8.2 1.3.4 1.7.7.4.4.6.8.6 1.5a2 2 0 0 1-.7 1.6 3 3 0 0 1-2 .6Zm11.2 0a3 3 0 0 1-2.4-1c-.6-.8-1-1.7-1-3 0-1.4.4-2.4 1-3a3 3 0 0 1 2.3-1 3 3 0 0 1 3 2.2l.2 1.5v.3h-5.8v.4l.1 1.3c.2.3.3.7.6 1l.8.6 1.2.2c1.2 0 2-.6 2.5-1.8l.4.3c-.2.6-.6 1-1 1.4a3 3 0 0 1-2 .6Zm0-7.6c-.5 0-.9 0-1.2.2l-.8.6c-.3.3-.4.6-.6 1l-.1 1.3h5.2c0-.5 0-1-.2-1.3l-.5-1c-.2-.2-.5-.5-.8-.6l-1-.2Zm5.5 7.4v-7.7h.5v1.2l.8-1c.4-.3 1-.4 1.6-.4.9 0 1.5.3 2 .8.4.5.6 1.2.6 2.1v5h-.5v-4.9c0-.8-.2-1.5-.6-1.9-.3-.4-.9-.6-1.6-.6l-.9.1-.7.4c-.2.1-.4.3-.5.6l-.2.8v5.5h-.5Zm11 .2a3 3 0 0 1-2.4-1c-.5-.8-.8-1.7-.8-3 0-1.4.3-2.4.8-3a3 3 0 0 1 2.4-1c1 0 1.8.3 2.4 1 .6.6.9 1.6.9 3 0 1.3-.3 2.3-.9 3a3 3 0 0 1-2.4 1Zm0-.5c.9 0 1.6-.3 2-.8.5-.6.7-1.4.7-2.4v-.8c0-1-.2-1.7-.7-2.3-.4-.5-1.1-.8-2-.8-.8 0-1.5.3-2 .8-.4.6-.6 1.3-.6 2.3v.8c0 1 .2 1.8.7 2.4.4.5 1 .8 2 .8Zm10.6-.9a2.3 2.3 0 0 1-.9 1l-.6.2a3 3 0 0 1-1 .2c-.8 0-1.4-.3-1.9-.8-.4-.5-.7-1.2-.7-2.2v-5h.6v5c0 .8.2 1.5.5 1.9.4.4 1 .6 1.7.6a3 3 0 0 0 1.6-.5c.2-.1.4-.3.5-.6l.2-.9v-5.4h.5v7.7h-.5v-1.2Zm9.7 2.1c0 .8-.3 1.4-1 1.8-.6.3-1.5.5-2.7.5-1.1 0-2-.2-2.5-.5-.5-.4-.8-.9-.8-1.5 0-.4.2-.8.4-1 .3-.4.6-.6 1-.7-.4-.2-.7-.6-.7-1.1 0-.4.1-.7.4-.9.2-.2.6-.3 1-.4-.5-.3-.9-.6-1.1-1-.3-.3-.4-.8-.4-1.4 0-.4 0-.7.2-1a2.3 2.3 0 0 1 1.4-1.4l1-.2c.8 0 1.3.2 1.7.5v-.6c0-.4.2-.6.6-.6h1.4v.5h-1.6v1c.2.2.4.4.5.8.2.3.2.6.2 1s0 .7-.2 1a2.4 2.4 0 0 1-1.4 1.4 3.2 3.2 0 0 1-2 0l-.9.5c-.2.2-.3.4-.3.7 0 .2 0 .4.3.6l1 .2h2c.8 0 1.5.2 1.9.5.4.3.6.8.6 1.3Zm-.6 0c0-.4-.1-.7-.4-1-.3-.2-.8-.3-1.6-.3h-2.4l-1 .5c-.3.3-.4.6-.4 1 0 .5.2.9.6 1.2.4.3 1 .4 1.7.4H110.6l.9-.4.5-.5c.2-.3.2-.5.2-.8Zm-3-4c.6 0 1-.3 1.5-.6.3-.3.5-.8.5-1.3v-.6c0-.5-.2-1-.5-1.3-.4-.3-1-.5-1.6-.5-.7 0-1.2.2-1.6.5-.3.3-.5.8-.5 1.3v.6c0 .5.2 1 .5 1.3.4.3 1 .5 1.6.5Zm5.4-8.1h.6v4.7c.2-.4.4-.7.8-1 .4-.3.9-.4 1.6-.4.8 0 1.5.3 1.9.8.5.5.7 1.2.7 2.1v5h-.5v-4.9c0-.8-.2-1.5-.6-1.9-.4-.4-1-.6-1.7-.6l-.8.1c-.3 0-.5.2-.7.4-.3.1-.4.3-.6.6l-.1.8v5.5h-.6v-11.2Zm14.7 11.4a3 3 0 0 1-2.4-1c-.6-.8-.9-1.7-.9-3 0-1.4.3-2.4.9-3a3 3 0 0 1 2.4-1 3 3 0 0 1 2.9 2.2l.2 1.5v.3h-5.8v.4c0 .5 0 .9.2 1.3 0 .3.3.7.5 1l.8.6 1.2.2c1.2 0 2-.6 2.5-1.8l.4.3c-.2.6-.5 1-1 1.4a3 3 0 0 1-1.9.6Zm0-7.6c-.5 0-.9 0-1.2.2l-.8.6c-.3.3-.4.6-.5 1-.2.4-.2.8-.2 1.3h5.2c0-.5 0-1-.2-1.3a2.6 2.6 0 0 0-1.3-1.6l-1-.2Zm6.1 7.4c-.4 0-.6-.2-.6-.7v-10.5h.5v10.7h1.3v.5h-1.2Zm5.9.2a3 3 0 0 1-2.4-1c-.6-.8-.9-1.7-.9-3 0-1.4.3-2.4.9-3a3 3 0 0 1 2.3-1 3 3 0 0 1 3 2.2l.2 1.5v.3h-5.8v.4l.1 1.3c.2.3.3.7.6 1l.8.6 1.2.2c1.2 0 2-.6 2.5-1.8l.4.3c-.2.6-.6 1-1 1.4a3 3 0 0 1-1.9.6Zm0-7.6c-.5 0-.9 0-1.2.2l-.8.6c-.3.3-.4.6-.6 1l-.1 1.3h5.2c0-.5 0-1-.2-1.3a2.6 2.6 0 0 0-1.3-1.6l-1-.2Zm8 7.6a3 3 0 0 1-2.3-1c-.6-.8-.9-1.7-.9-3 0-1.4.3-2.4.9-3a3 3 0 0 1 2.4-1c.6 0 1.2 0 1.6.3.4.3.7.7 1 1.2l-.5.2-.8-1c-.3-.2-.8-.3-1.3-.3-.9 0-1.5.3-2 .8-.5.6-.7 1.4-.7 2.3v.9c0 1 .2 1.7.7 2.2.5.6 1.1.9 2 .9.6 0 1-.1 1.4-.4.4-.2.7-.5 1-1l.3.3a3 3 0 0 1-1 1.1 3 3 0 0 1-1.7.5Zm6-.2c-.5 0-.7-.2-.7-.7v-6.5h-1.4v-.5h1l.3-.1v-2.1h.6v2.2h1.8v.5H155v6.7h1.7v.5h-1.6Zm3.8 0v-7.7h.5v1.3l.9-.9c.3-.3.8-.4 1.5-.4h.6v.5h-.7l-.9.1-.7.4c-.2.1-.4.3-.5.6l-.2.8v5.3h-.5Zm5.5-10-.4-.2v-.7l.4-.1.3.1.1.3v.4l-.4.1Zm-.3 2.3h.6v7.7h-.6v-7.7Zm6.2 7.9a3 3 0 0 1-2.4-1c-.6-.8-.9-1.7-.9-3 0-1.4.3-2.4.9-3a3 3 0 0 1 2.4-1c.6 0 1.2 0 1.6.3.4.3.7.7 1 1.2l-.5.2-.8-1c-.3-.2-.8-.3-1.3-.3-.9 0-1.5.3-2 .8-.5.6-.7 1.4-.7 2.3v.9c0 1 .2 1.7.7 2.2.5.6 1.1.9 2 .9.6 0 1-.1 1.4-.4.4-.2.7-.5 1-1l.3.3a3 3 0 0 1-1 1.1 3 3 0 0 1-1.7.5Zm5.1-10.3h-.4v-.8l.4-.1.3.1.1.3v.4l-.4.1Zm-.3 2.4h.6v7.7h-.6v-7.7Zm4.6 7.7c-.5 0-.7-.2-.7-.7v-6.5h-1.4v-.5h1l.4-.1v-2.1h.6v2.2h1.8v.5h-1.8v6.7h1.6v.5H180Zm8.5-7.7h.6l-3.8 10.2c0 .2-.2.3-.3.4l-.5.1h-1v-.5h1.3l.9-2.4-3-7.8h.7l2.5 7.1 2.6-7.1Zm7 7.7c-.4 0-.6-.2-.6-.7v-6.5h-1.4v-.5h1l.3-.1v-2.1h.6v2.2h1.8v.5h-1.8v6.7h1.7v.5h-1.6Zm6.4.2a3 3 0 0 1-2.4-1c-.6-.8-.8-1.7-.8-3 0-1.4.2-2.4.8-3a3 3 0 0 1 2.4-1c1 0 1.8.3 2.4 1 .6.6.9 1.6.9 3 0 1.3-.3 2.3-1 3a3 3 0 0 1-2.3 1Zm0-.5c.9 0 1.5-.3 2-.8.5-.6.7-1.4.7-2.4v-.8c0-1-.2-1.7-.7-2.3-.5-.5-1.1-.8-2-.8-.8 0-1.5.3-2 .8-.4.6-.7 1.3-.7 2.3v.8c0 1 .3 1.8.7 2.4.5.5 1.2.8 2 .8Zm14.2-1c-.2.5-.5.8-.9 1-.4.3-.9.5-1.5.5a3 3 0 0 1-2.4-1c-.6-.7-.8-1.7-.8-3 0-1.4.2-2.4.8-3 .6-.7 1.4-1 2.4-1 .6 0 1.1 0 1.5.3.4.3.7.6.9 1v-4.7h.6v11.2h-.6v-1.2Zm-2.4 1c.4 0 .7 0 1-.2a2.2 2.2 0 0 0 1.2-1c.2-.2.2-.5.2-.8V401c0-.3 0-.5-.2-.8 0-.2-.3-.4-.5-.6l-.7-.4-1-.1c-.8 0-1.5.3-2 .8-.4.6-.7 1.3-.7 2.3v.9c0 1 .3 1.7.7 2.2.5.6 1.2.9 2 .9Zm6 .3v-7.7h.5v1.3h.1l.8-.9c.4-.3.9-.4 1.6-.4h.5v.5h-.6l-1 .1-.7.4-.5.6-.2.8v5.3h-.5Zm5.5-10-.3-.2-.1-.3v-.4l.4-.1.4.1v.7l-.4.1Zm-.2 2.3h.5v7.7h-.5v-7.7Zm2.4 0h.5l2.6 7.1 2.6-7.1h.5l-2.8 7.7h-.6l-2.8-7.7Zm10.7 7.9a3 3 0 0 1-2.5-1c-.5-.8-.8-1.7-.8-3 0-1.4.3-2.4.8-3a3 3 0 0 1 2.4-1 3 3 0 0 1 3 2.2l.2 1.5v.3h-5.9v.4c0 .5 0 .9.2 1.3l.5 1 .9.6 1.2.2c1.2 0 2-.6 2.5-1.8l.4.3c-.2.6-.6 1-1 1.4a3 3 0 0 1-2 .6Zm-.1-7.6c-.4 0-.8 0-1.1.2-.4.1-.6.4-.9.6l-.5 1-.2 1.3h5.3c0-.5 0-1-.2-1.3l-.5-1c-.3-.2-.5-.5-.9-.6l-1-.2Zm14.1 7.4c-.4 0-.6-.2-.6-.7v-.5c-.3.4-.5.7-1 1-.3.2-.9.4-1.5.4-.8 0-1.4-.2-1.9-.6a2 2 0 0 1-.6-1.6l.1-1 .5-.6 1-.5 1.4-.2h2v-1c0-.7-.2-1.2-.6-1.6-.3-.3-.8-.5-1.5-.5-1.1 0-1.9.4-2.3 1.3l-.4-.2c.3-.5.6-.9 1-1.2.4-.2 1-.4 1.7-.4.8 0 1.5.2 2 .7.4.4.6 1 .6 1.9v4.8h1.2v.5h-1Zm-3-.3.9-.1.7-.4.6-.6.2-.9v-1.5h-2c-.9 0-1.5.1-1.9.4-.4.3-.6.7-.6 1.1v.5c0 .5.2.9.6 1.1.4.3.8.4 1.4.4Zm6 .3v-7.7h.5v1.2c.2-.4.4-.7.8-1 .4-.3 1-.4 1.6-.4.8 0 1.5.3 2 .8.4.5.6 1.2.6 2.1v5h-.5v-4.9c0-.8-.2-1.5-.6-1.9-.4-.4-1-.6-1.6-.6l-1 .1c-.2 0-.4.2-.6.4-.3.1-.4.3-.6.6l-.1.8v5.5h-.6ZM32.1 426.6a3 3 0 0 1-2.5-1c-.5-.8-.8-1.7-.8-3 0-1.4.3-2.4.8-3a3 3 0 0 1 2.4-1 3 3 0 0 1 3 2.2l.2 1.5v.3h-5.9v.4c0 .5 0 .9.2 1.3l.5 1 .9.6 1.2.2c1.2 0 2-.6 2.5-1.8l.4.3c-.2.6-.6 1-1 1.4a3 3 0 0 1-2 .6ZM32 419c-.4 0-.8 0-1.1.2-.4.1-.6.4-.9.6l-.5 1-.2 1.3h5.3c0-.5 0-1-.2-1.3l-.5-1c-.3-.2-.5-.5-.9-.6l-1-.2Zm6.2 7.4c-.4 0-.7-.2-.7-.7v-10.5h.6v10.7h1.2v.5h-1.1Zm5.9.2a3 3 0 0 1-2.5-1c-.6-.8-.8-1.7-.8-3 0-1.4.2-2.4.8-3a3 3 0 0 1 2.4-1 3 3 0 0 1 3 2.2l.2 1.5v.3h-5.9v.4c0 .5 0 .9.2 1.3l.5 1 .9.6 1.2.2c1.2 0 2-.6 2.5-1.8l.4.3a3 3 0 0 1-3 2ZM44 419c-.4 0-.8 0-1.1.2-.4.1-.6.4-.9.6l-.5 1-.2 1.3h5.3c0-.5 0-1-.2-1.3l-.5-1c-.3-.2-.5-.5-.9-.6l-1-.2Zm8.1 7.6a3 3 0 0 1-2.4-1c-.5-.8-.8-1.7-.8-3 0-1.4.3-2.4.8-3a3 3 0 0 1 2.4-1c.7 0 1.2 0 1.6.3.5.3.8.7 1 1.2l-.4.2c-.2-.4-.5-.7-.9-1-.3-.2-.7-.3-1.3-.3-.8 0-1.5.3-2 .8-.4.6-.6 1.4-.6 2.3v.9c0 1 .2 1.7.6 2.2.5.6 1.2.9 2 .9.6 0 1-.1 1.5-.4.3-.2.6-.5.9-1l.4.3a3 3 0 0 1-1 1.1 3 3 0 0 1-1.8.5Zm5.9-.2c-.5 0-.7-.2-.7-.7v-6.5H56v-.5h1l.3-.1.1-.4v-1.7h.5v2.2h1.8v.5H58v6.7h1.7v.5h-1.5Zm3.8 0v-7.7h.6v1.3l.8-.9c.4-.3.9-.4 1.6-.4h.6v.5h-.7l-1 .1c-.2 0-.4.2-.6.4-.3.1-.4.3-.6.6l-.1.8v5.3h-.6Zm5.5-10-.3-.2-.1-.3v-.4l.4-.1.4.1v.7l-.4.1Zm-.2 2.3h.5v7.7h-.5v-7.7Zm6.1 7.9a3 3 0 0 1-2.4-1c-.5-.8-.8-1.7-.8-3 0-1.4.3-2.4.8-3a3 3 0 0 1 2.4-1c.7 0 1.2 0 1.6.3.5.3.8.7 1 1.2l-.4.2c-.2-.4-.5-.7-.9-1-.3-.2-.7-.3-1.3-.3-.8 0-1.5.3-2 .8-.4.6-.6 1.4-.6 2.3v.9c0 1 .2 1.7.6 2.2.5.6 1.2.9 2 .9.6 0 1-.1 1.5-.4.3-.2.6-.5.9-1l.4.3a3 3 0 0 1-1 1.1 3 3 0 0 1-1.8.5Zm11 0a3 3 0 0 1-2.3-1c-.6-.8-.9-1.7-.9-3 0-1.4.3-2.4.9-3a3 3 0 0 1 2.4-1c.6 0 1.1 0 1.6.3.4.3.7.7 1 1.2l-.5.2-.8-1c-.4-.2-.8-.3-1.3-.3-1 0-1.6.3-2 .8-.5.6-.7 1.4-.7 2.3v.9c0 1 .2 1.7.7 2.2.4.6 1 .9 2 .9.5 0 1-.1 1.4-.4.3-.2.6-.5.9-1l.4.3a3 3 0 0 1-1 1.1 3 3 0 0 1-1.7.5Zm9.9-.2c-.4 0-.6-.2-.6-.7v-.5h-.1c-.2.4-.5.7-.9 1-.4.2-.9.4-1.6.4-.8 0-1.4-.2-1.8-.6a2 2 0 0 1-.7-1.6c0-.4 0-.7.2-1 0-.2.3-.4.5-.6.2-.2.5-.4 1-.5l1.3-.2h2v-1c0-.7-.1-1.2-.5-1.6-.3-.3-.9-.5-1.6-.5-1 0-1.8.4-2.2 1.3l-.4-.2c.2-.5.5-.9 1-1.2.4-.2 1-.4 1.6-.4 1 0 1.6.2 2 .7.4.4.7 1 .7 1.9v4.8h1.1v.5h-1Zm-3.1-.3 1-.1.7-.4.5-.6c.2-.3.2-.5.2-.9v-1.5h-2c-.8 0-1.4.1-1.8.4-.4.3-.6.7-.6 1.1v.5c0 .5.2.9.5 1.1.4.3.9.4 1.5.4Zm6 .3v-7.7h.5v1.3l.9-.9c.3-.3.9-.4 1.6-.4h.5v.5h-.6l-1 .1-.7.4c-.2.1-.4.3-.5.6l-.2.8v5.3h-.5Zm8.7 0v-.5h3.2v-9.7l-3.1 2.7-.4-.4 3.2-2.7h.9v10h3v.6h-6.8Zm9 0v-.5h3.3v-9.7l-3.2 2.7-.3-.4 3.2-2.7h.9v10h3v.6H115Zm15.1-10h-4.8l-.4 4.7h.1c.3-.4.6-.6 1-.8.4-.2.9-.2 1.4-.2 1 0 1.7.2 2.3.8.5.6.8 1.3.8 2.4 0 .5 0 1-.2 1.3a3 3 0 0 1-.7 1 3 3 0 0 1-1 .7c-.4.2-.8.3-1.3.3a4 4 0 0 1-2-.5c-.5-.3-1-.7-1.3-1.2l.5-.3c.3.5.6.9 1 1.1.5.2 1.1.4 1.8.4.8 0 1.5-.3 2-.7.4-.5.6-1.2.6-2v-.3c0-.8-.2-1.4-.6-1.8-.5-.5-1.1-.8-2-.8-.6 0-1 .1-1.4.3a3 3 0 0 0-1 .8l-.5-.1.4-5.7h5.3v.5Zm3.3 10v-7.7h.5v1.2l.3-.5.5-.5.6-.3h1c.5 0 1 0 1.4.3.5.3.8.7 1 1.3.1-.5.4-1 .8-1.2.4-.3 1-.5 1.7-.5.8 0 1.4.3 1.9.8.4.5.7 1.2.7 2.1v5h-.6v-4.9c0-.8-.2-1.5-.5-1.9-.4-.4-1-.6-1.7-.6a3 3 0 0 0-.8.1 2 2 0 0 0-.7.4c-.2.1-.4.3-.5.6l-.2.8v5.5h-.5v-4.9c0-.9-.2-1.5-.6-1.9-.3-.4-.9-.6-1.6-.6a3 3 0 0 0-.8.1c-.3 0-.5.2-.7.4a1.8 1.8 0 0 0-.7 1.4v5.5h-.5Zm13.5-10-.3-.2-.1-.3v-.4l.4-.1.4.1v.7l-.4.1Zm-.2 2.3h.5v7.7h-.5v-7.7Zm3.9 7.8-.4-.1-.1-.4v-.5l.5-.1h.4l.1.5-.1.5h-.4ZM50.6 146l1.9-.5.8-.5 2.4-2 1.6-1.5 1.3-1.8a84 84 0 0 0 3.2-4.5l.1-.3-.4.4c-.3.2-1.3 1.5-2.3 3l-1.9 2.5-1.9 1.8-1.8 1.8-.9.4-.8.4-1.7.5-1.8.4-3.4-.1-3.5-.1-1.1-.4-1.2-.3-2-1.2-3.7-2.1-1.7-1-1.2-1.2-1.3-1-.5-1-.6-.9.2-2 .2-2 .4.2.3.4h.8l.5-.7c.2-.4.6-1.2.8-2l.9-1.9.5-.7h.9l.8.1.9.3 1 1 1.8 2.1 1 1.2.5.3.5.3.4-.4.4-.4.1-.9c0-.5.4-1.7.8-2.7l.6-1.9.4-.6.4-.7h2l.7.8.8.8.8 1.6 1.4 3.4.9 2.2.1.4h.6l.5-.1.5-1.4.8-2.5c.4-1.5 1.5-4.1 1.9-4.7l.3-.5.8.1.7.2.6.4.6.4 1.8 2.3 2.2 2.8.4.4-.4-.8-.3-.8-1.3-1.6-2.3-2.5-.9-1-.9-.1-.9-.2-.4.3-.5.3-.8 2-1.5 4.3-.7 2.3h-.6l-.6-1.9L48 129l-.9-1.9-.7-.8-.7-.8h-1.2l-1.2-.2-.5.6-.5.6-.8 2.2a24 24 0 0 0-1 3.5l-.3.8-.3-.2-.3-.1-1-1.3-2.1-2.4-1-1-.9-.1c-.4-.2-1-.3-1.3-.3h-.5l-.6.7-.7 1c0 .3-.4 1.2-.8 2l-.6 1.6h-.8l-.3-.7-.3-.7.2-1.7.4-2.7.2-1h.7l1 .2.2.1v-.2l-.8-.3H30l-.6-1.2-.5-1-.3-1.5-.4-1.4v-3.5l-.2-3.6.8-1c.4-.5.8-1 1-1l1.4.8 1.2.8.7.8.7.7.6 1.5 1.2 2.6.6 1.2h.2l.4-.4.3-.5.1-2c.4-3.5.7-4.4 3.8-8.9l1.9-2.8 1-1a5 5 0 0 1 1.3-1s.6.4 1 .9l1 .8.4 1.2.5 1.3.7 3.5.8 3.6.2 2.4.4 3 .1.8h.2l.2.1.2-1.7c.2-3.3.6-6.5 1-9.6l.6-3.2.5-1.5.5-1.4 1-1.7 1.4-2.1.5-.6 1.2 1 1.1.8 1 1.5 1.1 1.6v.7l-1 2c-1.7 3.3-1.3 3 .5-.2l1-1.8.5 1.1.5 1.2-.1.6-.6 1.6-.2 1c.1 0 1-2 1.2-2.7l.1-.6-.6-1.3-.6-1.3v-1.2l-.3-4.5-.5-5.3v-1.9h.1l.6-.4.5-.4V90l.2-.7h8.2l.4-.3.5-.2h-2.7l-2.7.2L64 89l-2-.2v-1.4l-.3-1.2-.3-1.2-.4-.4-.4-.3.1.3.2.2h-.3l-.3-.2v-.3l-.1-.3 1.9.5 3.8 1.2c2.8 1 4 1.3 4.4 1.3h.4l-.2-.1c-.4-.3-8.4-2.9-9.6-3.1l-.8-.2-.2-3c-.3-5.3-1.4-13-2.5-17.6l-.6-2-.8-1.7-.8-1.7-.8-.6c-.4-.4-1-.8-1.5-1l-.8-.5h-1l-2.5.3-1.7.4-1.4.7-1.5.7-1.7 1.4A48 48 0 0 0 33 69.6l-1.9 2.7-.8 1.6-.8 1.7-.5 1.8-.5 1.9-.3 2.1-.3 2.8v.6l-.8-.4-.8-.3H25l-1.2.1-1 .4-1.4.9-.4.4-1.6.2c-2.4.4-5.5 1.2-7.8 2l-2 .7-.8.6-.9.5-.2.6-.2.5.2.6.2.5.7.4c.3.2 1.3.6 2.3.8l1.6.5h9.8l1.7-.3 1.8-.2.8.2.8.2v18.4l.2.7v.7l-.8 1.4-.8 1.4v2l.3-1.1.2-1.2.5-.8.5-.8.2 3.2.1 3.2.5 1.7.4 2 .4.7.2.2v.4c-.3.6-.8 3.8-.8 4.4v.5l-.3-.2-.3-.3v.3s0 .4.2.7l.2.6-.3 2.3-.2 2.3.2.8.3.9 1.4 1.3 1.3 1.3 1.5 1 4.1 2.5 2.7 1.5 1.1.3 1.1.3h3.7l3.6.1 1.8-.4Zm-15.4-29-1.2-2.6-.7-.7-.6-.8-1.4-.8-1.5-.8h-.2l-.9.9-.8 1-.1-5.1-.2-5 .2-4.8.1-4.8.6-.1.7-.1.3-.3.3-.3 3.3-.8 6.5-1.9 3.3-1v-.2c0-.3.3-.4-3.4.8a93 93 0 0 1-9 2.4H30v-.9l-.6-1.8-1-2.5-.5-.7h.6l.8.9c.9 1 1 .9.2-.1l-.5-.7 2.9.2h2.8l1.7.4 2.3.5c1 .4.8.1-.3-.3l-1-.5-1.3-.2-1.4-.2-3-.1-2.9-.1-.4-.5-.4-.4.4-2.8.4-2.9.5-1.8.6-2 .7-1.3a66 66 0 0 1 8-11.5l1.7-1.8 1.7-1.4 2.8-2 1.1-.7 1.4-.4 1.4-.4h1.6l1.6-.2.6.3 1.5 1 .7.7.6 1.2c1.3 2.4 1.8 4.3 2.9 10.9l.6 3.6.4 3.8.3 4.9v1.2H54.3l-3 1-3 .9-.3.4-.3.6v.2l1.6.6 1.6.7 1.4.3 3.1.5 1.9.2.8 1.2.7 1.1.7.4.7.4v1.3c.5 5.1.9 9.5.8 9.9v.5l-.4-.7c-.5-.8-2.6-3-3.4-3.5l-.7-.4-.3.1-.4.1-1 1.6-1.6 2.7-.6 1-.4 2-.5 1.8-.5 3.6-.6 5.2-.1 1.6-.2-1.2c0-.7-.5-3-.8-5.1l-.8-3.9-.4-1.3-.4-1.4-.6-.8-.6-.9-.7-.5-.9-.5-1.3 1-1.2 1.1-2 3a48.3 48.3 0 0 0-2.6 4.2l-.5 1.1-.4 1.3-.3 1.3v.9c0 1-.2 2.5-.3 2.5l-1.3-2.5Zm-24-24a15 15 0 0 1-2.2-.8l-.7-.3-.2-.4v-1l.4-.4c.7-.7 1.9-1.2 4.7-2.1l2.7-.8 2.2-.4 2.5-.5h.3l.1.8.1.9.7 1.3.6 1.3.9.9c.5.5 1 1 1.3 1.1l.4.2v.2l-2.6.3-2.4.1h-7.5l-1.3-.4Z" fill="#A73A24"/></svg>