<svg width="304" height="527" fill="none" xmlns="http://www.w3.org/2000/svg"><path d="m206 166.3 4.8 1.4 3.7 1.2h2.3c1.3 0 2.7 0 3.1.2.5.3 1.8.6 3 .9l2.3.5 2.2-.3 2.2-.3-.9.7-.8.8.8-.2h.8l-.3.6-.3.7h.9l3-.3 2.4-.2-.4-.5-.4-.4 1.9-.3 1.9-.3.2 1.3.1 1.2h.7c.3-.1.6-.5.6-.8V171c0-.3.3-1 .6-1.5.4-.4.6-1.2.6-1.5l-.1-.8 1-.1c.7-.2 2.4 0 4 .2l3.9.3 5-.5 4.3-.3.2-1.3a9 9 0 0 0 .2-1.7c0-.2.7-1 1.5-1.9l1.5-1.6 2.2 1c4.2 1.6 9.4 3 10.9 2.8l1-.2 3.5 1.4 3.5 1.4 4-.1 3.8-.1-.7.5-.6.5 2.5.8 2.5.8 2.3-.3 2.4-.4.5 1.4.6 1.4 1 .2.8.2v-1l-.2-.8.7-.1c.5 0 1.7.2 2.8.5l2 .6-1 .2-.9.1 1 .5 1 .5-1.5.2-1.5.2 1.5.8 1.5.8 2.7-.2c1.5 0 3.2 0 3.8.2l1.1.2-.2.6-.2.6 1.1.1c.7.2 2.3.2 3.7.1l2.4-.1 3.6 1.3 5.8 2.2 2.3.7.1 1 .1.9 1.6.1 1.6.2.1.5c0 .3.4.5.8.5.8-.1 2.2 1 3 2.2l.5 1 3.1-.4 3.1-.4.2 1v.9l.7-.1.6-.1.2 1.5.3 1.6 1.5-.2 1.5-.3v-.7l-.2-.7 1.4 1 1.4.9v-.7l-.2-.7 1-.2h.9l-.1-1-.2-1 1-.5c.6-.3 1.2-.9 1.4-1.3l.4-.7.1.7.1.8 1.8-.2 1.8-.3.2-.7v-.6l2.3 2.5 2.2 2.6.4-.5.5-.3.1.8.1.8.5-1 .5-1 .8.8.7.8-.1-1-.1-.8.8.6.7.5 3.5-3c1.9-1.7 3.7-3.5 4-4l.5-1 3.4-.6 3.3-.6 1.5 1.1c1 .6 1.7 1.5 1.8 1.9 0 .4.3.7.6.7s.6.3.7.6c.5 2.1 1.6 4.5 2.4 5.2.9.9 3.2 5.2 4.7 8.8l.9 2 1.8 12.4 1.9 12.3 1 1 1 .8 1-.4 1.2-.5 2 .7c1.2.4 2.1 1 2.2 1.4 0 .3.5.8 1.1 1.3l1 .8.9 2.6c.4 1.5 1 5 1.3 7.9l.6 5.2-.4.7-.5.8v6.5h.7l.6-.2.5 3.2 1 5.9.3 2.5 1.6-.4 1.6-.6 1-2.8.9-2.4h.6l.7.2 2-1.7 1.9-1.8 1.7.9c2.5 1.1 3.5 2 3.6 3l.1 1h.6c.4-.1.8-.5 1-.8 0-.4.4-.7.7-.7l.5-.1.3 2.1.4 2.2.9 1.1c.4.7 1.7 4 2.9 7.6l2.1 6.4.6.3.7.3.2 3.3.2 3.3.5.7c.3.3.8 1.6 1 2.8l1.7 6.3c1.2 4.8 1.4 6.3 1.7 16.2l.2 6.9 1.4 6.2c.8 3.5 1.4 6.5 1.3 6.6-.4.4 0 4.8 1.4 18 .7 6.2 1.2 12 1.2 13v4.2a217.8 217.8 0 0 0 0 15.2v3h-.4l-.4.1v3.8l.2 3.8h-.6l-.6.1.2 1.6.2 1.5-2.2 1.5c-1.2.9-2.6 2-3 2.6l-.8 1-2.3-.7c-1.2-.4-2.4-1-2.7-1.3l-.6-.5v.5c0 .3-.9-.2-2-1.1l-2.2-1.6-1.5.8-1.5.9-.4-.4-.3-.2.5-.1c.3-.1-.6-.4-2-.7l-2.6-.5-1.5 1.9-1.4 1.8-1-.6-1-.6-.3 1.4c0 .9-.5 2-.8 2.4l-.5.9-1.2-.9-1.4-.9.1.9.1.9-.8-1.4-.7-1.3-.6.4-.5.4-1.4-1.7-1.4-1.7-.2 1.1-.3 1.2-.9-2-1-2.1.2 1.3.1 1.5h-.5l-.6.1-.5-1.3-.5-1.2-.9.9-.8 1-.5-.4-.4-.4-.8.8-.7.8.2 1.6.2 1.4-1.4-.4-1.4-.6-.7 1.3c-.3.7-.7 1.5-.6 1.7v.5l-.6-.3-.7-.3v.7l.2.6-1.8.3c-1.7.2-3.4-.3-3.5-1v-1.4l-.2-1-.6.5-.5.5-.2-1-.1-1-1 .5c-.6.3-1.8.9-2.8 1.2-.9.3-1.8.8-1.9 1.1l-.2.6-2.4.3-2.3.4-2.6-1.6-2.7-1.5-.8.4-.8.4-1.6-.5c-1-.2-1.7-.7-1.7-1 0-.2-.5-.5-1.1-.6l-1-.2-.6 2.3-.6 2.4-.8-.5-.8-.6-1.5 1.4-1.5 1.4-1-.8-.8-.8-1 .2h-1l.7-.5.7-.7-3.5-.3-3.6-.3-.8-.8-.8-.7h.5c.4-.1-.2-.5-1.1-1-1-.5-1.9-.8-2-.7-.2 0-1-.9-1.5-2.3l-1.2-2.4-.3 1-.5.8-1.5-1.3-1.5-1.3-.4.8-.4 1-1-.4-1.1-.2.3 2.2.3 2.2-.8 2.5c-.9 3-1.3 3.5-3.3 5l-1.7 1-.2 1.3c-.2 1.3-1 1.7-1.7.8l-.5-.6-.5.4-.5.4-.1-.5v-.5H336l-1.7.1c-.4 0-1 0-1.4.2l-.8.1.2 1 .1 1.2-2 2.3-2 2.3-.3-.5-.4-.6-.8 1c-1.1 1.6-1.1 1.6-5.8-1.4l-1.5-.4-.7.1-1-1.6c-.5-.9-1.6-2-2.4-2.5l-1.4-1v-.8l.1-.8-1-.7-1-.6-.2-.9-.1-.9-.6.5-.5.4-1.3-1.4-1.2-1.5-1.3.6-1.4 1.2v.7l-2.1-1.7c-1.1-.9-2.4-1.6-2.7-1.6l-.6.1-.2-.9-.1-1-.6.2h-.6l-.8-1.3-1.7-3-1-1.7-.4 1-.5 1-.2-1.3-.6-3.4-.2-2.1-.3 1.3-.4 1.3-.5-.9a36.8 36.8 0 0 1-3.2-7.9l-.7-2.8-1 1.2c-.7 1.1-2 5-1.8 5.7 0 .1-.6 1.3-1.5 2.6l-1.6 2.3-.1 1.5c-.1 1-.5 1.9-.8 2.2l-.5.4v3.3l-.6 1c-.7 1-1.7 2.7-3.5 6l-1 1.7-1.5.5-1.5.5-.8-.6-.8-.5-.2.7c-.1.5-.4 1-.7 1h-.6l-.1-.8-.1-.9-1.1.3-1 .2v-2l-1 .2-1.2.2-1.5 3c-.8 1.7-1.9 3.7-2.4 4.4l-1 1.2-.6-.3-.6-.3v1l.2 1-1.2.1-1.2.2-.2-1.2-.2-1.3-.9.2h-.8l-1-1.8-1-1.8-.2.4-.4.4-1.3-1.2-1.4-1.4.2-1 .2-1h-.7l-.7.2.3-.6.2-.7-.4-.2-.6-.2-.4-3.7-.5-3.8-.5.4-.5.4v-.7l-.1-.7-.7.5-.6.6.2-1.1.3-1.1-.7.4-.5.5-1-.6-.9-.6-.3 1.3-.2 1.3-2.6-.5c-3.4-.7-5.4-.9-8.3-.7l-2.3.2-1.5-.9-1.6-.8-1.5.2-1.4.2v-5.8l-.8-.3-.8-.4v-2.6l.1-2.6h.7l.5-.2-.6-3.5-.6-3.7.3-.7c.2-.5.3-.8.1-.8l-1.3-.1h-1v1.1l.3 1.2h-.5l-.5.1-.5 2.4c-.3 1.4-1 3.2-1.6 4l-1 1.5.3 1c.2.8.1 2 0 2.9l-.5 1.6.6.3.7.3-.6.5-.7.5.2 1.3.2 1.1-1 1.4-1 1.3-2 .7-1.8.7-.3 1c-.1.7-.6 1.6-1 2l-.6 1 .4.5.3.5-1.8.6-1.9.6-.6-.3c-.3-.1-.7-.6-.7-1.1l-.2-1-.5.5-.6.5v-.6l-.2-.7.8-.1.8-.1-1.7-.6-1.7-.6-.4-1.7-.4-1.6h-.6c-.3.1-.5.5-.5.8l.1.7-.7-.3-.6-.3.1 1.4c0 .8.2 1.6.3 1.9v.5h-.8l-1 .2.2 1v.9h-.5l-.6.1-.2 1.6-.2 1.6-.8.2h-1l-.1 1-.3 1-1.2.2-1.1.2-.3-1.5-.2-1.3-.2 1-.1 1.2-1.2.2-1.2.2-.2-1.6-.2-1.5-1.5-1-1.4-1.1-.3-2.8-.4-2.7-1-.2-1-.2.1.6c.1.7-2 4.8-2.6 5.2-.2.2-.4.7-.3 1.2l.1.9h-.8c-.5.2-1.3-.1-1.7-.6l-.9-.7-2 .3-2.1.4-1.1-.7-1.1-.6-.2-1.7-.3-1.6-.7 1.3-.8 1.4v-.6l-.1-.6-1 1.4c-.6.8-1.3 2.1-1.5 2.9l-.6 1.5-.5-.2-.6-.3-.4 1.6-.5 1.5h-1.8c-1 .2-2 .2-2.2.2h-.5l-.2-1.8-.3-1.8-.8-.2-.8-.2-1.3-2.8c-.7-1.6-1.8-3.7-2.5-4.6l-1.1-1.8-1.6-11.4c-1-6.3-2-14.2-2.4-17.6l-.9-7.3-.2-1h-1.2l-1.2.3-.5 1-.4 1.2-1.5-1.3a7 7 0 0 1-1.6-2.1l-.1-.8-.7.5c-.4.3-2 .8-3.5 1l-2.7.5-.9-.5-.7-.7-.9-2.8-.8-2.9-.7-.2c-.3-.2-.7-.7-.7-1.2s-1-1.8-2-3l-1.8-2-.6-1.9-.7-2.6-.1-.7h-.7l-.6.2.1.8.1.8-1 1-1.2 1.1.4 2.8.4 3.8.1 1.1-.9.2h-.8l.2 1v.9l-1 .5-1.2.5v1.9l-1 5-.9 3-1.3 1-1.4.8-1.8-1.5-2-1.5v-1l-.2-.9-.6.1-.6.1-.2-1-.1-.8h-.6l-.7.1-1.5 3.4c-.8 1.8-1.7 3.4-2 3.4-.2 0-.6.8-.8 1.7l-.5 1.6-1 .2-.9.1.1 1 .2.9-1.3.1-1.2.2-.2-1.1c0-.6-.6-1.6-1.2-2.3l-1-1.2-1.5-4.4c-.7-2.4-1.6-5-2-5.7l-1-1.2.3-1.6.1-1.6-.8-.1-.8-.2-.2-2.6c0-1.4-.3-3.9-.4-5.4a173.3 173.3 0 0 0-1.6-17.9 522.4 522.4 0 0 1-2.9-26.5c-.3-2.4 1.5-10.9 2.4-11 .2 0 .4-.9.5-1.9l.2-1.8L86 290c.8-.8 1.3-1.9 1.3-2.2-.1-.4.5-1.6 1.5-2.8l1.6-2.1v.7l.2.7 1-.8 1.2-.8.2-1.5c.1-.8.6-2 1-2.7l.9-1.2.5.7.5.6.2-1.6.1-1.7 1.2-.5 1.2-.6v-.6l-.2-.7.5.3.4.4.8-.8.7-.8.1.7.1.6 1-.1 1-.1 1-1.6 1-1.4-.2-1.2-.1-1.1 1.1-.2 1.2-.1-.3-1.6-.2-1.5 1.8-2 1.7-2-.5-2.3-.4-2.3 1.4-1.2c.7-.7 2-2.2 2.7-3.2l1.4-2-.7-1.9c-.4-1-.7-2.5-.6-3.1v-1l.6-.2c.3 0 1.5-.8 2.6-1.8l2-1.6-.5-2.3-.5-2.3 1.2-1.1c.7-.8 2.1-1.8 3.1-2.6l2-1.3V228c0-1.2.1-2.6.3-3l.4-.8 2-.6c1-.4 2.3-1.1 2.8-1.6l1-1v-1.8l-.1-1.8.5-.9.6-.8 2.3-.8 2.2-.7.4-1.8.4-1.8 2.7-.8 2.6-.8-.1-1c0-.4.2-1.2.6-1.8l.7-.9 1.8-.5c1-.2 1.8-.6 2-.9.2-.2 1.4-.8 2.9-1.2l2.5-.7 4-2.5 3.8-2.5 2-.2 1.8-.1 1-1.5 1-1.4v-2l-.1-2 1-.7 1-.8 2.4-.5c3.3-.6 8.3-2.5 9-3.4l.5-.7 2.8-.4 2.8-.3 2.2-2 2.1-2 .5.5c.3.3 1 .5 1.7.5h1.1l1.7-.9 1.7-1-.2-.5-.2-.6 1.7-1.4 1.7-1.3 1-2.3 2.1-4 1-1.9h.8c.5-.1 1.3 0 1.8.2Z" fill="#A73A24"/><path d="m128 133.8 1.8 2.7 1.5 2.2 1.1.5c.6.3 1.2.8 1.4 1 .1.5.7 1.1 1.2 1.7l1 1.1 1 .2 1.2.2-.6.7-.6.6h.4l.4.1-.3.7-.3.6.4.2 1.5.5 1.2.4v-.7l-.1-.5 1 .1.9.2-.3 1.4-.2 1.4h.3c.2 0 .4-.2.5-.6l.3-1.4.7-1.4c.3-.4.7-1.1.7-1.5l.2-.8h.5c.4 0 1.2.6 1.9 1.3.7.6 1.5 1.2 1.7 1.2l2.6.8 2 .6.5-1.3.6-1.8c0-.2.6-1 1.2-1.7l1.1-1.3.8 1.5c1.6 2.9 3.7 5.6 4.4 5.8h.6l1.2 2.4 1.3 2.4 2 .8 1.8.9-.5.4-.4.4 1 1.5 1 1.4 1.1.3 1.2.2v1.6l-.2 1.6.4.5.4.4.2-1 .2-1h.3c.3.2.8.7 1.2 1.3l.8 1.1h-1l.4.7.3.8-.8-.1-.7-.2.5 1.3.5 1.1 1.3.6c.7.2 1.5.7 1.7 1l.5.6-.2.5-.3.6.5.5c.3.3 1 .7 1.7 1l1.2.4 1.4 2.3 2.1 3.8.9 1.4-.2 1-.2 1 .7.6.7.6v.6c-.1.3 0 .6.2.7.4 0 .8 1.6.8 3.1v1.3l1.6.3 1.5.3-.2 1-.1 1 .3.1h.3l-.3 1.8-.3 1.7.8.2.7.1.2-.8.1-.7.4 1.3.5 1.4v-.8l.2-.8h.5l.5.2.2-1 .2-1.2.6-.3a3 3 0 0 0 1-1l.4-.7-.1.8-.2.9 1 .2.8.1.3-.7.2-.7.4 3.3.3 3.3.3-.3.4-.3-.2.9-.1.9.5-1 .5-1 .1 1.1.1 1.1.2-1 .2-1 .2.8.2.8 2.5-2.4c1.4-1.4 2.7-3 3-3.5l.6-1 1.7.3 1.7.2.5 1.6c.2.9.4 2 .3 2.4v1c.2 0 .3.4.2.8a28 28 0 0 0-.2 6.3c.2 1 0 6.3-.2 10.6l-.1 2.4-2.5 13.9-2.5 13.9.2 1.2.2 1.2.7-.2.7-.2.7 1.2c.5.8.7 1.7.7 2 0 .4 0 1.1.2 1.8l.2 1-.3 3.1a173 173 0 0 1-1.5 8.9l-1.1 5.8-.4.7-.5.7-.9 3.5-.8 3.6h.3l.3.1-.6 3.6-1.2 6.6-.5 2.8h.9c.4 0 .8-.2.9-.3l1.2-2.8 1.1-2.4.3.2.3.4 1.4-1.4 1.4-1.5.6 1.4c.8 1.8 1 3 .8 4.2l-.2 1.1h.3c.2 0 .5-.2.7-.5.1-.4.4-.7.5-.6h.3l-.4 2.4-.4 2.4v1.5c.1.8-.2 4.8-.6 8.9l-.8 7.5.3.4.2.5-.8 3.7-.8 3.7v.8c.1.4 0 1.9-.2 3.3a140.4 140.4 0 0 1-4.6 25.2l-1.8 7.5-1 7.2-1.2 7.4c-.2.3-1.3 5.3-4.2 20l-3 14.4-1.2 4.5a508.3 508.3 0 0 0-4 16.5l-.9 3.3h-.2l-.2-.1-1 4-1 4.2h-.3l-.3-.1-.3 1.7-.3 1.7-1.5 1.1c-.8.7-1.8 1.6-2.1 2.1l-.7 1-.9-1.4c-.5-.7-.9-1.7-1-2.1v-.7l-.2.5c0 .4-.3-.4-.6-1.7l-.6-2.2-1 .5-1 .5v-.4l-.1-.4h.3c.1 0-.2-.5-.8-1.1l-1.1-1.2-1.2 1.6-1.2 1.6-.3-.9-.3-.9-.5 1.6-1 2.3-.5.9-.4-1.3-.4-1.3-.2 1-.2 1V440l-.4.4-.3.3-.2-2.2-.2-2.2-.4 1.2-.5 1.2.1-2.5.2-2.5-.3 1.5-.4 1.6h-.5v-1.6l.2-1.5-.7.8-.7.8-.1-.5-.1-.5-.6.7-.5.7-.4 1.7-.3 1.7-.5-1-.5-.9-.7 1.3-.8 1.7v.5l-.3-.4-.3-.5v.7l-.2.7-1-.1c-.8-.2-1.5-1.2-1.3-2l.3-1.5.2-1-.4.3-.4.4.2-1.1.2-1.2-.6.4c-.4.2-1 .5-1.6.6-.5 0-1 .4-1.2.7l-.3.6-1.2-.2-1.2-.3-.8-2.2-.9-2.4-.5.3-.4.2-.7-.9c-.4-.5-.6-1.2-.5-1.4 0-.3-.1-.8-.4-1l-.4-.5-1 2.4-.9 2.4-.2-.8-.2-.8-1 1.1-1.2 1.3-.2-1.2-.2-1-.6-.2h-.5l.5-.5.6-.6-1.6-1.2-1.6-1.2-.2-1-.2-1h.3c.1 0 0-.5-.3-1.2-.3-.8-.7-1.4-.8-1.3-.1 0-.2-1.2 0-2.8v-3l-.4 1-.4.8-.4-1.8-.4-1.7-.4.7-.4.9-.4-.6-.5-.5-.4 2.5-.5 2.4-1 2.5c-1.3 3-1.6 3.5-3 4.6l-1 .8-.5 1.3c-.4 1.4-1 1.6-1 .4v-.7l-.5.3-.3.3v-.5l.2-.7-.6-.1-.8-.4-.7-.2h-.4l-.2 1.2-.3 1.2-1.5 2-1.7 2v-1.4l-.6 1c-1 1.5-1 1.4-2.4-3l-.6-.8h-.3v-2c0-1.1-.3-2.6-.5-3.3l-.4-1.5.2-.9.2-.8-.3-1-.3-.9.2-1 .2-1-.4.4-.4.3-.2-1.9-.2-1.9-.8.4c-.3.2-.8.6-1 1l-.2.6-.5-2.3c-.3-1.2-.7-2.3-.8-2.3l-.4-.1.2-1 .2-1-.3-.1h-.3V404l-.5.9-.5 1 .3-1.4c0-.8.4-2.5.6-3.8l.5-2.4-.5 1.3-.5 1.3v-1l.1-3.6c0-1.4.3-4 .5-5.7l.4-3.3-.7 1.1c-.7 1-2.4 4.8-2.5 5.6 0 .2-.6 1.3-1.4 2.5l-1.4 2.1-.5 1.7c-.3 1-.7 1.9-.9 2.1l-.4.4-.4 1.7-.4 1.8-.6 1-3.3 5.5-1 1.8-.8.1-.9.2-.2-.8-.2-.8-.3.8-.6.8h-.3l.2-1 .1-1h-1.1l.3-1.1.3-1.2h-1.2l-1.5 3a64 64 0 0 1-2.3 4l-.8 1.2-.3-.5-.2-.5-.2 1-.2 1.2-.6-.1-.7-.2.3-1.3.2-1.4-.4-.1h-.4v-4.6l-.2.4-.3.4-.3-1.7-.3-1.8.4-1 .4-1.1h-.4l-.3-.2.3-.5.3-.7-.2-.3-.2-.4.8-4.2.8-4.2-.3.3-.4.3.2-.7.1-.8-.4.4-.5.4.4-1.1.5-1.1-.5.3-.4.4-.3-.9-.2-.8-.5 1.3-.5 1.4-1-1.3a9 9 0 0 0-3.8-2.8l-1.2-.3-.5-1.3-.5-1.3-.8-.1-.7-.1.8-3.2.8-3.1-.3-.6-.3-.7.8-2.8.7-2.7h.6l.7-4 .7-4 .4-.8.2-.8-.6-.4-.5-.3-.2 1.3-.3 1.3H76l-.3-.1-.8 2.5c-.5 1.4-1.4 3.2-1.8 3.9l-1 1.4-.1 1.2c-.1.8-.5 2-.8 3l-.6 1.7.2.4.2.5-.4.4-.5.5-.2 1.3-.3 1.4-.8 1.2-.9 1.2-1 .3-1.1.3-.5 1c-.2.7-.6 1.5-1 2l-.6.9.1.6v.5l-1 .3-1 .2-.3-.5a3 3 0 0 1 0-1.4l.2-1-.4.3-.4.4.1-.7.2-.8.3.1h.5l-.7-1-.6-1 .3-1.9.2-1.9h-.3c-.2 0-.4.3-.4.7l-.2.7-.2-.5-.3-.5-.3 1.6-.4 2v.6h-.5l-.5-.2-.2 1-.2 1.1H57l-.5 1.6-.5 1.7h-.5l-.4-.2-.4 1-.4 1h-.6l-.6-.2.3-1.6.2-1.5-.3 1.1-.4 1.3-.6-.2h-.6l.3-1.8.3-1.7-.4-1.5-.4-1.5.6-3 .6-3.1-.4-.5-.5-.4v.6c-.2.8-2.3 4.8-2.8 5l-.4 1.3-.2 1-.4-.2c-.3 0-.6-.5-.6-1l-.2-1.1-1.1-.1-1.1-.2-.3-1-.4-1 .4-1.8.3-1.8-.7 1.2-.8 1.3.1-.6.2-.6-.9 1.2c-.5.7-1.1 2-1.5 2.8l-.7 1.5-.1-.4-.2-.4-.7 1.5-.6 1.5-.9-.3-1.1-.4-.2-.2.4-2 .3-2-.3-.4-.3-.3.1-3.4c.1-2 .2-4.4.1-5.7v-2.1l2.3-12.9 3.7-19.7 1.6-8 .1-1.3h-.6l-.6-.2-.5 1.1-.5 1.1-.4-1.7a13 13 0 0 1-.2-2.8l.2-.9-.5.4c-.3.3-1.1.4-2 .3l-1.4-.1-.2-.8-.2-1 .4-3.2.3-3.3-.2-.4v-1.5l-.1-3.8-.4-2.7.3-2 .4-3v-.9h-.2l-.4-.1-.1.9-.2.9-.8.8-.8 1-.6 3-.9 4.3-.2 1.3-.5-.1h-.4l-.2.9-.1 1-.7.3-.7.3-.6 2c-.3 1.1-1.1 3.5-1.8 5.2l-1.2 3.2-1 .6-.8.6-.5-2.2-.5-2 .2-1 .2-1.1h-.3l-.3-.1.2-1 .2-1.1h-.3l-.4-.1-1.6 3.2c-.9 1.8-1.7 3.3-1.9 3.3 0 0-.5.7-.8 1.6l-.7 1.6h-.5l-.5-.1-.2 1-.2 1H18l-.7-.2.3-1.2v-2.8l-.2-1.5.6-5.2c.3-2.8.6-5.9.5-6.7v-1.5l.5-1.7.5-1.7-.3-.4-.4-.4.6-2.8a343 343 0 0 0 2-9c.2 0 1.7-7.5 3.4-16.8a1283 1283 0 0 1 5.9-29.5 50.5 50.5 0 0 1 4.9-13.2l.5-2 1-1.3c.7-.7 1.2-1.7 1.3-2 0-.5.7-1.7 1.4-2.7l1.4-2-.2.9-.1.8.7-.7.8-.6.5-1.4c.3-1 .8-2.1 1.2-2.7l.7-1.1.1.8v.8l.6-1.7.5-1.8.8-.3.7-.3.1-.7.2-.8.1.5.1.5.6-.7.5-.7-.1.8-.1.7.5.1.5.1.9-1.4.8-1.3.3-1.3.2-1.3.6.1.6.1.3-1.7.3-1.7 1.4-1.8 1.3-1.6.4-2.7.5-2.6 1-1a32 32 0 0 0 2.1-2.8l1.2-1.8.2-2.2c.1-1.3.4-2.9.6-3.6l.3-1.1h.3c.2 0 1-.5 1.7-1.3l1.4-1.3.4-2.6.4-2.6.9-1a19 19 0 0 1 2.2-2l1.2-.9.6-2.4a24 24 0 0 1 1-3.1l.4-.8 1.1-.2c.7-.2 1.5-.6 1.8-1l.7-.8.5-2 .5-2 .5-.8.5-.8 1.3-.2 1.2-.3.7-1.9.7-1.8 1.5-.3 1.4-.1.2-1c.1-.6.5-1.4.8-2l.6-.7 1-.1c.5 0 1-.3 1.2-.5.1-.2.9-.5 1.7-.7l1.4-.1 2.6-1.8 2.5-1.7 1 .3.9.3.8-1.3.9-1.3.5-2.2.5-2.2.7-.6.7-.6 1.3.1c1.7.1 4.6-.7 5.1-1.4l.5-.7 1.4.3 1.5.3 1.6-1.6 1.5-1.6.1.6c0 .4.3.8.7 1l.5.3 1-.6 1-.6.2-.7v-.8l1.2-1 1.2-1 1.1-2.2a85 85 0 0 1 2.1-4l1-1.6h.4l.8.8Z" fill="#F3C010"/><path d="m191.8 285.3-.7-.7-.6-1.9-.6-1.9h-.8l-.7 1.6-.7 1.7-.6.2-.6.2-.8-1-.8-.9-.3-1.5-.8-3-.5-1.5-1 .3c-.6.2-1.2.5-1.4.8l-.4.5-1.4-1c-.9-.4-1.6-.7-1.7-.6l-1 2a24 24 0 0 1-2.5 5l-.8-.5-.6-.6-.3-1.5-.3-1.6.7-1.3c.4-.7.9-2 1-3l.3-1.5-.2-.2-.3-.3-1.7 1.7c-.9.9-1.9 2-2.2 2.7l-.6 1 .6.5.7.4-.9-.1-.9-.2-1 2.6-1 2.4h-.8c-.4 0-1.1 0-1.6-.2l-.7-.3v-2.7l-.8-.3-.8-.3c-.1 0-.6 1.2-1 2.7l-.9 2.6-.5-.5-.7-.5-.2.4-.4.2v-.8c0-.4-.3-1.4-.7-2.2l-.8-1.4.5-1.7.4-1.6-.8-.3-1-.2-.9 1c-.6.5-1 1.1-1 1.3 0 .6-1.7 3.8-2.4 4.5-.4.3-1 .8-1.5 1l-.9.3v-2l-1.4-.4-1.3-.5.1-1.5.5-2.6.2-1.1h-.5c-.3 0-1 .6-1.7 1.3l-1.2 1.3-1.3 2.5c-.6 1.4-1.2 2.5-1.3 2.4-.4-.4-3.6-12.5-3.6-13.5v-1.1l1-.5 1-.5h3.3l3.7-1.2 3.8-1c.1.1-.1 1-.6 2.1l-.8 2 .3 1 .2 1.2.5-1.6.7-1.5.5.3.5.3-.4-.5-.3-.6.5-.8.4-.9.1.4v.5l.7-1c.9-1 .9-1.4.2-1.7l-.7-.2.8.1 1 .1.2-.4c.2-.4 3.3-1.8 3.8-1.8.2 0 1.7 3.2 1.7 3.5 0 .1-.8.7-1.8 1.2-.9.6-1.5 1.2-1.4 1.3.1.2.9-.2 1.7-.8l1.5-1 .5.6c.2.4.3.9.2 1.1l-.1.5h-5.2l.1.6.1.5-.7-.2-.7-.3-1.6.3-1.6.3-.3 1-.2.9h1.1l-.5.4c-.2.2-1 .8-1.4 1.5l-1 1.2 1.8-1.6 1.8-1.7-.3-.3-.2-.4.4-.3.5-.2.4.5.3.6-.6-.4-.6-.4.2.5.4.4 2-.3 4-.5h2l.8-1c.4-.6.6-.8.5-.5l-.3.6 1.3 2.3 1.3 2.4 1.4 1.3 1.5 1.4-1.8-2.4-2.4-3.5-.7-1.3 1.7.2 1.6.2-.8 1-.9 1 1.3-1.1 1.3-1.2-.1-.5v-.5l.5.1.7.1-.3-.5-.3-.4H161l-.4-1.1-.6-1.1 7.4-5 7.4-5c0-.4-.3-.2-7.6 4.6a82.8 82.8 0 0 1-6.8 4.3l-.6.2-.6-1.6-.7-1.5 1.5-.8 8-3.3 6.5-2.6 1.4 1.5 1.4 1.6-.8-1.3c-.5-.7-.8-1.4-.8-1.5 0-.1 1.8-1.4 4-2.7l3.8-2.5.8.5c.4.2.8.8.9 1.2l.1.6-9.1 7.8-9.1 8c0 .3-.7.9 10.3-8.4 4.7-4 10.4-9.1 12.6-11.2l3.9-3.8-.6-.4-.6-.5.8.3.8.3.6-.8c.3-.3 1.2-1.1 2-1.6l1.2-1-.1 1-.2 1 .7 1.5c.4.7.8 1.3 1 1.3l-.5-1.3-.8-1.3 5.2-2 5-2 .7.5.6.5v1c0 1.8-3.2 6.6-4.6 6.8-.8.2-3.6 2.2-3.6 2.7v.4H200.2l-.3.7c-.4 1-.4 1.2.4 1.2h.6l3.7-2.9 3.6-2.8v-1h.6c.5 0 2.7-1.7 5.2-4 .7-.7 1.5-1.2 1.7-1.2.2 0 1.1-.7 2-1.5l1.5-1.5h1.8l1.8-.1 2.3-1.4 2.3-1.3.8.6.7.6-.3 2.7c-.5 5-.8 7.4-1.3 8.2-.8 1.4-2 2.7-2.7 2.7-.6 0-1.8.9-3.5 2.6a5 5 0 0 1-1 .8c-.2 0-1 .5-1.6 1.2-.7.6-1.6 1.1-1.9 1.1h-.6l-.6 1.2-.6 1.2-1 .3-.8.3-.7 1.4-.8 1.4h-1.1c-.2 0-1.1.7-2.1 1.7l-3.8 3.6-2 1.9-.8-.6c-.8-.7-.7-.8-1.8 2l-.8 2.3-1 .5-.9.5V277l-5.6-2.3-5.6-2.3-3.8-1-3.9-1-4.9-.3-4.9-.3-.8.8-1 .8-.3-.3-.4-.4.3.5.3.5 5.9.3 5.8.3 3.5 1c1.9.5 5.8 1.8 8.5 3l5.1 1.9.3.7.2.6-1.1 3.2-1.1 3.1-.6.2-.5.2-.8-.8ZM66.5 316.7l.7-.8.6-1.8.5-2h.9l.7 1.7.7 1.6.6.2.6.2.8-.9.8-1 .3-1.4.8-3 .4-1.5 1.1.2c.6.2 1.2.5 1.4.8l.3.5 1.5-.9 1.6-.6 1 2a24 24 0 0 0 2.6 5l.7-.6.7-.6.2-1.5.3-1.5-.6-1.4c-.4-.7-.9-2-1-2.9l-.3-1.5.2-.3.3-.3 1.6 1.7c1 1 2 2.1 2.3 2.7l.5 1.1-.6.4-.6.5.9-.2.8-.1 1 2.5 1 2.5h.8l1.6-.3.8-.3v-2.7l.8-.2.8-.3 1 2.6.8 2.7.6-.6.6-.4.3.3.4.3v-.8c0-.5.3-1.5.7-2.3l.7-1.4-.4-1.6-.5-1.6.9-.3.9-.3 1 1c.5.5 1 1.1 1 1.3 0 .6 1.7 3.8 2.4 4.5.4.4 1 .8 1.5 1l.8.3v-2l1.4-.4 1.4-.5-.2-1.5c0-.8-.3-2-.4-2.6l-.2-1h.4c.3 0 1.1.5 1.8 1.3l1.2 1.3 1.2 2.5c.7 1.4 1.3 2.4 1.4 2.3a120 120 0 0 0 3.5-13.5v-1l-.9-.6-1-.5h-3.3l-3.7-1.1c-2-.7-3.8-1.1-3.9-1l.6 2 .8 2-.2 1.1-.2 1-.6-1.4-.6-1.6-.5.3-.5.3.3-.5.4-.6-.5-.8-.5-.8v.9l-.7-1c-1-1.1-1-1.5-.2-1.8l.6-.1h-.8l-.8.2-.3-.4c-.2-.4-3.3-1.9-3.9-1.9-.1 0-1.6 3.2-1.6 3.6l1.7 1.2c1 .5 1.6 1.2 1.5 1.3-.2 0-1-.3-1.7-.9l-1.6-1-.4.6c-.2.4-.3 1-.2 1.2v.4H103.5l-.1.7-.2.5.7-.3.8-.2 1.6.2 1.6.3.2 1 .3 1h-1.1l.5.3 1.4 1.5 1 1.2-1.8-1.6-1.8-1.6.3-.4.1-.4-.4-.2-.5-.3-.3.5-.3.6.6-.4.6-.4-.3.5-.3.5-2-.4-4-.4h-2l-.8-1c-.4-.7-.7-.9-.5-.5l.3.5-1.3 2.4-1.3 2.3-1.5 1.4-1.4 1.3 1.8-2.3c1-1.3 2-3 2.4-3.6l.6-1.3-1.6.2-1.7.2.9 1 .9 1-1.3-1.1-1.3-1.1v-.6l.2-.5-.7.2h-.6l.3-.4.3-.5h5.5l.5-1.1.5-1.1-7.3-4.9c-4-2.7-7.4-5-7.4-5.2 0-.2.3 0 7.5 4.8 3.5 2.3 6.6 4.2 7 4.3l.5.1.6-1.6.7-1.5-1.6-.7-8-3.3-6.5-2.7-1.3 1.6-1.4 1.5.7-1.3c.5-.7.9-1.3.9-1.5a34 34 0 0 0-4-2.7l-3.8-2.5-.8.5c-.4.3-.8.8-1 1.2v.7l9 7.7 9.2 8c0 .4.6 1-10.3-8.4-4.8-4-10.4-9-12.6-11.2l-4-3.8.7-.4.6-.4-.8.2-.9.3-.5-.7c-.4-.4-1.2-1.2-2-1.7l-1.3-1 .2 1.1.2 1-.7 1.4c-.4.8-.8 1.4-1 1.4 0 0 .1-.6.5-1.4l.7-1.3-5-2-5.2-2-.6.6-.6.5v.9c0 1.8 3.2 6.7 4.5 6.9.9.1 3.6 2.2 3.6 2.6v.4h1.4l.3.8c.3 1 .3 1.1-.4 1.1h-.7l-3.6-2.8-3.7-2.9v-.9h-.5c-.5 0-2.8-1.8-5.3-4.1a5.3 5.3 0 0 0-1.6-1.2c-.2 0-1.1-.7-2-1.5l-1.5-1.5h-3.7l-2.3-1.4-2.3-1.4-.7.6-.7.6.3 2.7c.5 5.1.8 7.4 1.3 8.3.8 1.4 2 2.7 2.6 2.7.6 0 1.8.8 3.6 2.5l1 .8c.2 0 .9.5 1.6 1.2.7.7 1.5 1.2 1.9 1.2h.5l.7 1.2.6 1.2.9.3.8.2.8 1.4.7 1.4H48l2 1.8 4 3.6 2 1.8.6-.6c.8-.6.8-.7 1.9 2.1l.8 2.3 1 .4.8.6v1.2l5.6-2.2 5.7-2.4 3.8-1 3.8-1 5-.3 4.8-.2.9.8.9.7.4-.3.4-.4-.3.5-.3.6-5.9.2-5.9.3-3.4 1c-2 .6-5.8 1.9-8.6 3l-5 2-.3.6-.2.6 1.1 3.2 1.1 3.2.5.2.6.1.8-.7Z" fill="#3F8CA8"/><path d="m54.7 382.6-1-2.2-.1-31.9-.3-32h-8.7L43 315l-1.5-1.5v-9.9l.8-2.8 1-2.9 2.4-1.5c3.2-2 4.5-2.4 2.6-.9l-1.6 1.3h.8c.5 0 2.5-.6 4.5-1.3l3.7-1.2.6-2.9c.2-1.7 1.6-8 3-14.1l2.8-11.2 3.6-11 8.6-23.4 4.9-12.3 7-13.8 7-14 6.2-9.4a168.4 168.4 0 0 1 22.3-28l6.1-6.2 5.2-3.4 5.2-3.4 4.2-1.2 4.3-1.2 7.4.3 7.5.2 2.4 2.4 2.6 2.4 1.9 3.7c1 2 2.5 5.9 3.1 8.3l1.2 4.6.9 13.5.8 13.5-.4 11.5a223 223 0 0 1-4.9 39.1l-2.8 14.3H190.7l-9.1.6-12.5 1.2-3.5.4v4.9l3.5-.6a20 20 0 0 0 4-1l.7-.4 19.2.1 19.2.2 3 .8 2.8.7 2.4 2.7 2.4 2.7.5 3 .5 3.2-.8 2.1-.8 2-3.2 1.7c-1.7 1-5.7 2.4-9 3.2l-5.8 1.6-7.1.8c-4 .5-13.7 1.1-21.6 1.4l-14.5.4-.9 4.5c-2 10.3-8 65.3-8 74.8v4.2l-.9-2-.9-2 .6-7.1c.2-3.9.8-10 1.2-13.5l2-19.4c1.1-12.3 3.9-33.8 5-37.9l.3-1.8h-24.9l-2.2-1.2-2.3-1.1-.5-1.3c-.2-.7-.5-3-.5-4.8V272l1.2-2.2 1.1-2.3 3.4-2.9 3.4-2.8h-12.3l-4.5 1.6c-2.5.8-4.6 1.4-4.8 1.2-.1-.1 1.8-1.1 4.5-2.3l4.7-2.1h15.9l4.2-2 4.3-1.9 7.2-1.7 7.3-1.9c.4-.4 5-24 6.4-33l1.3-9v-42.1l-1-6-.9-6.2-1.7-4.5-1.6-4.5-3.5-3.6-3.5-3.6-8.6.4-8.6.3-4.3 2.2c-17.5 9-38.2 35.5-54 68.5A360.2 360.2 0 0 0 58 291l-.5 2.5 1.4-.6c2-1 13.9-4 20-5l5.2-.8h10.8l10.7.2 1 1 1.2 1 .7 3.4.8 3.4-.9 2.7-.9 2.5-2.7 2.1a73 73 0 0 1-9 5.2l-6 3-6 1.7c-6.8 1.8-17.3 3.2-24 3.2H55l-.5 9.8-.6 9.7.4 21.8.3 21.8 1 2.6c1 3.1.4 3.3-1 .4Zm15.8-68.5c4-.4 8.6-1.2 10.4-1.7l3.1-1-4.1-.5-4.1-.6-2.7-1.6a37 37 0 0 1-10.5-11.2c-2.1-4-1-3.6 1.8.7l2.5 3.8 4.2 3.3 4.3 3.2 4.3 1 4.3.8 1-1.3.9-1.4.5-5.8.6-5.7-.6-3.4-.5-3.2-1-.5-1.2-.4-8.7 1.7L66 292l-4.3 1.7-4.4 1.6-.4 1.7c-.6 2.7-2 14-2 16v2h4.2c2.2 0 7.4-.5 11.3-.9Zm121.9-32.8 11.2-1.1 6.3-1.8c3.4-1 7.3-2.3 8.5-2.9l2.2-1.1 1-1.9.8-1.8-.6-2.7-.5-2.7-2.8-2.8-2.8-2.7-18.7-.2-18.6-.3v7.7l-1.2 4.1-1.3 4.2-1.6.8-1.7 1-5.3-.4-5.3-.2-.2 3-.2 3h9.8l9.8-.2 11.2-1Z" fill="#fff"/><path d="m117.6 331-.5-.3h-.5l-.5.1-.3-.1-.3-.2-.1-.4-.2-.4-.6.4-.6.3h-.4a2 2 0 0 0-.7.1l-.3.2.3-.4c.3-.2.7-.8 1-1.3l.7-.9.1-.5v-.5l-.1-.2-.3-.2v.2l-.2.1h-.5l.3-.1.3-.1h-.6l-.3.2-.4.2.1.2.1.1-.2-.1h-.3v.4l-.2.2-.3.2.2-.3c.4-.4.1-.4-.3 0l-.4.4-.1-.1h-.1l.2-.4c0-.2.4-.5.6-.8l.4-.3-.1-.2-.2-.2.3-.3.3-.2v-.7h-.1l-.4.3-.3.3v.7-.3l-.2-.3-.3.3-.4.3-.1-.2-.1-.4v-.1h.2l.2.1.1-.4.2-.3-.1-.1h-.2l.1-.4.1-.3-.5.3-.6.2V325.1l-.2-.1-.1-.1.1.4.1.8v.5l-.2.2c-.4.3-.4.3-.6-.3l-.1-.6v-.3l.4-.7.2-.2v-.2c0-.5 0-.6.5-1.1l.6-.6.1.1h.2l.3-.2h.3l-.1.1-.1.2h.5l.2.1.3-.5.3-.4.8-.6.8-.6.1.1.2.2-.4.3-.4.3v.1l.1.1.4-.2.3-.1-.2.2a1 1 0 0 0-.3.3v.3l.3-.1.5-.3.4-.1h.2l-.2.4-.2.3.2.2.2.3h.6V322.6l.1-.1h.2l-.1-.2v-.1l.2-.1.2-.1v-.1l-.2-.1.8-.7.7-.7h.6l-.3.4-.4.5-.2.1.2.2v.7l-.2-.1v-.6l-.1.1-.2.1.1.4.1.3.1.1.3-.2.2-.2h-.1v-.2h.3l.6-.7 1-1 .5-.6.3.2.4.3v-.1l.2-.2v.2l-.2.2.2.2.3.2.2-.1.2-.1v.1l-.1.1h1.5l.2-.2.2-.2v-.1l-.4-.2h-.2l.1.2.1.1-.6-.2-.7-.2h-.1l-.1-.2v-.3H124.3l.2-.1-.5.3-.5.3h.8l.2-.3.3-.3-.1-.2-.1-.3h-.4v-.4h-.5l.2-.3.1-.4.2.1v.1l.2-.2.3-.6v-.4l-.1-.3-.3-.3.1-.5.1-.4H124.3v.2l.2.2-.3-.2-.2-.2h-.2l-.1.2v-.5l-.2-.5.1-.2.1-.3-.2.3-.5.5-.4.2-.2-.2-.2-.4c0-.2.5-1.4.7-1.5l.1-.3v-.3H121.7V312h-.5v-.2l.2-.1h-.9l-.3.2a1 1 0 0 1-.5.2h-.2v-.4h-2.1v.2l-.1.2.4.2c.5.2.6.4.2.6l-.2.1-.6-.2-1-.2h-.3l-.2-.3-.1-.3h-.3l-.3-.1v.2h-.9l.2.2.2.3c0 .2-.2.2-.7-.2l-.4-.4.1-.4.1-.4H113.1l.1-.3.2-.3v-.3l-.2-.4-.4.5-.5.6c0 .2-.5.7-.6.7h-.1v-1.1l-.2.1c-.2 0-.3.2-.2.2 0 0 0 .3-.2.5l-.2.3h-.6v-.5l-.2.3-.1.3h-.4v-.8l-.5 1-.7 1-.2.5v.2l-.6-.1-.5-.1-.2-.2-.1-.2-.2.2-.3.6-.5 1.3a5 5 0 0 0-.5 1.2l-.1.3-.2.1.1.2v.2h-.2v.8l-.3.3a24.2 24.2 0 0 0-1.8 2.1l-.7.9c-.3.3-.5.4-.5.2l.7-1.3.8-1.4.5-1.5.5-1.3v-.2H103.8v-1l.1-.9-.2.2-.2.4-.4 1.1-.6 1.4c0 .3-.6 1.7-1 2.6l-.3 1.2-.1.7h-.2v.9h-.2l-.4.8-.2.7h.6l.5-.6.4-.8.1-.2.2-.1v.2l-.2.3H102v-.4l.1.1V322.7l-.2.2h-.4v.4h-.2l-.2.2.1.3v.4l-.2.6-.3.7v-1.2h-.2l-.2-.2-.1.2-.2.8-.1.6-.2-.1-.1-.1v.1l.1.2h-.3l-.3.2.1.1v.2l-.2.2-.2.2v-.3l.2-.3-.4.3-.5.3-.1-.2-.1-.2-.5.2-1 .3h-.6l-.1-.2-.2-.3-.3.2-.2.2-.4.1H94v-.4l-.5.3-.4.2h-.9v-1l.9-1.3.8-1.4.2-.7c.2-.8.7-2 1-2.6l.4-.4h.3l.2.1.3-.3.2-.5.7-1.6.7-1.5v-1l.2-.9-.2-.2-.2-.2.1-.2.1-.3h-.3l-.3-.1.2.6.1.6v.8l-.1.8-.3.3-.2.2-.2-.1-.1-.2-.1-1V311l.1-.3-.2.2-.2.1.2-.3.2-.2v-.2l-.2-.1 2-2c1.2-1.2 2.4-2.5 2.7-3l.6-.7h.4v.3l.1.4h.1l.4-.2c.1-.2.6-.4.9-.6l.5-.2h.3l.6.2h1.2v-1.1l.9-1.4a22 22 0 0 1 3.5-4c1.6-1.8 2.8-2.8 3-2.7l.1-.2.2-.2-.1-.5-.2-.6-.4.7-.5.6-.2-.2c-.4-.3-.6-.6-.7-.8v-.3h.3l.3-.1V293.3h.5V293h.1l.2.2v-.3l.1-.2h.2c.1.1 1.3-.6 1.8-1l.6-.3s.2 0 .2-.2l.5-.3.5-.1h1.2l-.3-.2-.3-.1h.2c.1 0 .3 0 .4.2l.2.1v-.1l.3-.2h.2l-.1.1-.1.2h.1l.3-.2.2-.3h-.2l-.2-.1h.5l.4.1.2-.2.2-.3.3.2.3.2v-.1c0-.1 0 0 .2 0l.1.3.3-.4c.3-.4.3-.6 0-1l-.3-.2h.1l.6.3.4.4-.2-.4-.2-.3-.3-.2-.4-.2-.1.2v.2h-.3c-.1 0-.2 0-.3-.2l-.1-.1h.2l.3.1v-.1l-.2-.2h-.2v-.2l.2-.2.3.2.3.2.2-.2.2-.2.4.1.4.1-.1-.2v-.2h-.9l.1-.1.1-.2-.3.1-.4.1-.1-.2-.1-.2v.4h-.6v-.1l-.6-.2-.5-.2v.2h.1l-1.4.1h-1.4l.4-.1.4-.1h-.7v-.1l.2-.1h1.8v.2l.1-.1.2-.1-.1-.2-.1-.1h.2l.3.1c0-.2-.4-.6-.6-.6h-.3a3 3 0 0 0-.8 0h-.7v-.5l1-.3.9-.2h2.5l2.6-.2v.2l.5.2.3.1v-.8h.4l.8.1.5.1-.1.2h.2v2.2l-.2 1.1-.2 1v2.6h-.1l-.2.1v.6l.2.5-.3-.2-.4-.6-.3-.4h-.3l-.4.1-.2-.5-.3-.5V290l-.2-1.2-.4-.5-.4-.4v.2l-.1.3s0 .3.2.4l.2.5v.2l.1-.3v-.4H123l.2-.2.3-.1-.1.2-.1.1H123.5v1.2h-.2l-.2-.1v.6l.1-.2.2-.2v.2l-.1.2h-.7v.1l.2.2.2.1v.3l-.4.7-.5 1-.2.6.2-.2.2-.2v.4h-.5s-.2 0-.3.2l-.1.1v-.2l.1-.2-.2-.1-.2-.1v.9l-.3-.2-.3-.1v.4h-.2l-.3-.2-.2.3-.1.2h-1.3V294.8h.4V294.5l.3.1.2.1-.3.2-.2.2h.5l.5-.2.2.3.2.3v-.3l-.2-.3.2.2.2.2-.2.2-.2.2-.2-.3v-.2h-.5v.5l-.1-.2v-.2h-.7v.1l.2.3h.1V295.4h.1l.1.2v.1l-.2.2-.2-.2-.2-.1-.5.3-.4.3v.2l.1.2-.2.2-.2.1-.1-.1v-.2l-.2.1-.2.1.1.1.1.2-.2.3-.3.2v.4h-.3l-.4.1.5-.4.4-.4v-.2h-.2l-.2.2-.4.2-.5.5-.3.3.1-.2-.3.3c-.4.3-.5.4-.1.3l-.5.5-.7.6h.2l.3-.2v.2l-.1.2h-.4v.7h-.2l-.3.1.2-.1.2-.2-.2-.3-.2-.1h.2l.2.2v-.2l-.1-.2.2-.3.2-.3c-.2 0-.5.3-.8.6l-.6.6h-.4v.6l.1.5h-.2l-.3-.1v-.2h.1l.2-.2-.1.2-.2.2.2-.1.2-.1-.1-.2-.1-.3-.3.3-.3.2.1.2-.3.3c-.4.3-.2.3.3 0H111.8l-.4.4c-.2.2-.3.3-.1.2l.4-.2.3-.2.1-.2.4-.1h.3l-.2.2h-.1l-.2-.2v.3l.2.3h-.4v.3l.1.3-.1.1-.2.1v-.2l-.2-.3.2.1.2.2-.1-.2-.2-.2-.4.4c-.2.3-.5.5-.6.5h-.2l.1.1.1.1-.1.2-.2.2.3.2.3.2v.2l-.2.2H111.2l.3-.6.3-.5h.6l-.2-.1-.2-.2h.7l.1.2.1.5v.4h.2l.4-.5.3-.4h.4v-.4l.3.4c.6.8.8.9 1 .3v-.4l.3.1.3.1s.2.1.2.3v.2l.3-.4.2-.4.2.1.2.1-.1.4-.1.3h-.2l-.2-.2-.1.3-.1.4h-.4l.5.2.4.3c0 .1-.4 0-.5-.2l-.1-.1v.4l-.3-.2-.2-.2v.2l.2.1-.2.1h-.2l.2.3c.1.2.2.2.3.2 0 0 .2 0 .3.2l.2.2-.2.2-.1.3v.6l-.2.4.2.4.3.3h.2c.1 0 .3 0 .3-.2l.1-.1-.2.1-.2.1.1-.1.1-.2h.4l.8.2h.4l.3-.3.4-.2c.2 0 .2.2 0 .3l-.1.1v1.2h-.4v.3l-.1.2-.2-.1-.2-.1.2.2c.1.2.3.3.4.3h.2l-.3-.2-.2-.1h.6l.2-.2.3-.2-.2.2-.2.3.2.2.2-.3.2-.3v-.2h-.5v-.1c0-.1 0-.2.2-.2h.5-.1v-.2l.2-.4.4-.4.1-.3.1-.1v.2l-.2.2h.4l-.1.3-.1.4v.2l.2.1.3-.2.3-.2h.7l.3-.2.2-.3H122l.4-.3.3-.3v-.5l.3.1.2.1-.1-.1-.1-.2.2-.2.2-.2-.1-.1-.1-.1-.4.3-.3.3h-.1l-.1-.2.2-.2.3-.2h-.4l-.3.3-.4.4.3-.1.2-.1.1.3v.3l-.2-.2h-.2l-.3.2-.2.2v.1l.1.1H121.1v-.2l-.1-.2h.6l-.1-.2-.1-.1h-.2l-.1.2v-.2l.2-.2.2.1.2.1v-.2l-.2-.4c-.2-.2-.1-.3.2-.4l.3-.1.4.2.3.1.2-.1v-.2h.2l.2.1.4-.4.3-.3-.3.2-.5.3h-.2l.4-.5.3-.4h.4v.2l-.2.1.2-.1.2-.2-.2-.2-.2-.3v.1h-.2v-.4l.3.3.4.4h.2l.3-.4.2-.3h-.2l-.2.2v-.2l.2-.1h.7l.1-.2.3-.1h.2v.6h.4l-.1-.3v-.3h.2l.3.2.4-.3.4-.2.1.3.2.2V303.8h.5c.4 0 .8-.2 1-.3l.5-.1v.1l.2.2h.2l-.1-.2-.1-.1h.3l.3.1.1-.1v-.1h1.1l-.4.1-.4.1h.7v.5H132.3v-.4h.3l.4.1h-.2l-.2-.2.1-.2.2-.2h1l.1-.1.3-.2h.2l.7.6.6.7v-.2l.1-.2h1.8l.2.2.1.2 1.4.1 1.5.1.4-.1.5-.2v.2h.1l-.4.2h-4l-1-.1-.2-.1-.2-.2-.6.2h-.6l.4.1h.4l-.4.2-.3.1V304.9h.2c0-.2.4-.3.6-.3l.5-.1h.1l.2.5v.2h-.3l-.5-.1.4.1.4.2h.2l.3-.2V305.5h.2l.2-.1.3.2.3.2-.2.2v.1h-.5a257.7 257.7 0 0 1-3.8.6l-1.8.3h-.2l-.3-.1-.3.3-.4.3H129l-.2.3-.2.3-1 .2-1 .2v-.4l-.9.3a6 6 0 0 1-1 .3h-.3v.1l.3.3h.2v1.1h-1.2v.2l-.2.2h.3l.2.1-.4.3-.4.3h-.7l-.7.2h1.8l.2-.2.2-.2h.9v1.1l-.2.2-.2.2h.2l.2-.2.3.2.2.2.5-.1.5-.3v-.2l-.3-.1-.3-.1v-.4l.7-.3.7-.3h-.7v-.8h.8v.7l.6-.3.7-.3h.8v.6h.5l.5-.3v-.1h.8l.1.1v.2h-.2v.6l.1.5-.2-.3-.4-.6-.1-.1-.2.1-.2.2.2.1.2.1v.6l-.3-.1h-.3V312.4l-.5.7-.5 1v.3h.6l.4-.6c.3-.6.4-.6.7-.3l.3.2.2-.4c.2-.2.3-.5.3-.7v-.2l.7-.6.7-.5h.5l.4.1.2-.1.2-.1v-.3l-.1-.2h1.1l1.1-.2.3.3.3.3h1.1v.2l.2.2h-.2l-.2.1.1.2h-.8l-.1-.3-.2.1-.1.2.3.4.2.4h.4l.4-.1.6-.3.5-.3.1.1.2.2.4-.1.6-.2c.1-.2 1.7-.6 2.5-.7h.8v.2l.1.3v-.7h.4l1.4-.2h1.1v1.1h.3l.8.3.6.3h-.4l.2.3v.1h.9l.2.2.2.3-.4.4-.4.3h-.5V315.4l-.2.2-.2.2v-.4l-.2.2-.2.2-.1-.2h-.1V315.9h-.5l.1-.2.1-.2-.2.2-.2.2H144.7l.1.1h-.2l-.8.1-.6.1.5-.2.4-.3-.3.1-1.1.2-.8.1-.1.3-.1.3h.1l.5-.1.4-.3v.7l-.6.4-.7.3h-.6l-.4.5-.4.4-.8.4a58.9 58.9 0 0 0-5.8 3.4l-1.4.8-.2.3-.2.3h.3l.5-.1-.3.3-.2.2h.2l.2-.2v.1l-.2.4-.1.3h-.6.2l.2.3v.2l-.2-.1-.2-.1v.4l-.1.3h.2l.3-.1-.3.2-.3.2h-.6l.1.5.2.7.2.3h-1.5l-.5-.5-.6-.5v-.9l-.5.4-.8.6-.5.4v.2l-.2.3-.4.2-1.4 1.3-1 1-.2-.1-.1-.1v-.7l.3-.3.3-.6v-.1l-.5.5-.5.5h-.4l-.3-.5-.2-.4h-.4l-.4.1-.2.3-.4.3h-.2v.4l-.2.4v-.1l-.2-.1-.3.4-.4.4h-.2l-.1.3-.2.3-.4.1-.4.1-.5-.2Z" fill="#3F8CA8"/><path d="m138.5 384.5-.4-.2H137.5v.1h-.1a3 3 0 0 0-.4 0l-.3.1-.3-.2a4 4 0 0 0-.7-.3l-.5-.2v.1l-.7.3-.7-.5-.8-.3-.4.1h-.7v-.2h-.2v-.2H131.4v-.2h-.1l-.6-.1h-.5l-.1-.2-.2-.2-.3-.2-.3-.2h-.7l-.3-.3-.1-.2h-.2v-.2h-.5l-.2-.2a1 1 0 0 1-.1-.4H126.9l-.2-.2h-.2v-.3l-.2-.2h-.4v-.1h.1l-.1-.1h-.2v-.2c0-.2-.2-.5-.2-.3l-.2-.1-.2-.1v-.2l.1-.1H124.9v-.2h-.2v-.5h-.2l-.2-.1v-.4l-.2-.1-.1-.1v-.2l-.1-.3-.2-.2-.2.1v-.2l-.3-.2v-.1h.2l-.3-.3-.3-.2V375.5h-.2V375.2h-.2v-.4l-.4-.2-.4-.1h-.5v.2H119.1l-.3-.2v-.1h-.2v-.6l-.2-.2-.2-.3h-.2v-.2l-.2-.2h-.7l-1 .2h-.3l-.1.3h-.2v.2l-.3.1-.3.1V374.6l-.3.1.1.2v.2l-1 .2-.6.1-.4.2-1 .2-.5.2v.7h-.2v-.1h-.1v.1h-.4c-.5 0-1.4.2-1.8.4h-.4v.2l-.3.1-.8.4-.4.3-.4.1-.6.3-.4.1h-.1v.1l-.1.1h-.3l-.3-.1v-.2h-.4l-.5.2h-.3l-.2-.2v-.2h-.8l-.5.1h-.1l-.2-.3h-.1l-.1.1h-.2l-.1-.1h-.5v-.1h-.8l-.1-.1h-2v-.1l-.1-.2-.1-.2-.2-.4v-.4l.2-.2H97h.1v.1h-.5l-.4.2H96v.1l-.2.1-.4.2-.2.2H94l-.3.1h-.2c-.4 0-.5-.2-.6-.4l-.6-.8-.5-.6v-.4H90.9l-.3-.2v-.3l-.2-.8-.1-.7v-.4l-.2-.3-.4-.5-.2-.2v-.8l.3-.4a27.5 27.5 0 0 1 2.2-2.1l.2-.3.1-.3v-.3l-.2.4-.2.5-1.1 1-1.2 1.1v-2.9h-.1l.6-.2.7-.2.2-.1h1.4l-.3-.1h-1.2l-.1-.1h-.1l-1.4-.1H88v-.2l.5-.4.6-.2.3-.3.3-.3v-.2l-.2-.1.3-.2.3-.2h.4l.4-.2.5-.4.2-.2-.3-.3-.2-.2.7-.4.6-.4.2-.2c0-.2.3-.4.5-.5l.4-.3c0-.2.8-1 1.7-1.8l.6-.6.7-.5.4-.3v-.5l-.3-.2-.4-.2v-.1l.1-.1-.2-.2h-1.4l-.5.2h-.6l-.5-.1v.1h-1.2l-.2-.3-.1-.2H91l-.1-.1-.2-.2h-.3l-.7-.1H89l-1-.2h-.6v-.1l-.1-.1h-.5v-.8l.1-.7.1-.2.1-.3.2-1v-.9h-.2l.1-.6v-.5H87V349.9l.2-.1h-.4.1l.2-.1-.3-.1-.3-.2h-2v.2l-.3-.1h-.4l-.2-.3a54.6 54.6 0 0 0-.5-1.3l-.3-.3v-.4l-.1-.5v-.5h-.5l.1-.2v-.2l-.1.2-.2.3-.2-.1-.2-.2H81l-.3-.2-.2-.2v-.2l.2-.4v-.2l.1-.5c0-.5.3-1 .4-1.2h.1v-.5h.2l-.1-.3-.2-.5v-.1H81V341.4l-.3-.2-.2-.2-.2.1v-.2c-.2-.3-.1-.4.1-.5.2 0 .5-.3.7-.5l.5-.4v-.4h-.1v-.2l-.1-.2.6-.3.7-.4.2-.1v-.3l-.2-.3h.2l.5-.3c.5 0 1.3-.4 1.6-.6l.3-.1h.1v-.5h-.1v-.2l.1-.1v-.1h-.1.2l.1-.1h.5l1-.2.5-.2h.2v-.4l.1-.3.5-.2.5-.2v-.2l-.1-.2.3-.2.4-.2.4-.1.3-.2V332h.1l.5-.2h.4l.2-.2h.4v-.2l.1-.1h-.2l.1-.2.1-.2c0-.1.5-.3.8-.3h.4l.4-.2.5-.1.2-.2v-.5l.3-.1.2-.2h1.6l.1-.1.1-.1H96.2l.2-.2s.1-.2 0-.2h2V328.4l.1-.2h3l1 .1 1 .1h.4l.7-.1.2-.1v.2l.2-.1v.2h.6-.1v-.1h.2l.3-.1h.2l.1.1h1l1 .1v.1h.3l.1-.1.4-.1.6-.1.3-.1-.2-.1h1.1l.1.3.1.3.7.4.6.4.4.4.4.4s0 .2.2.3l.4.3.2.3.2-.2h1.9l.2.1.3.1V331.6l.1-.1.7-.6.5-.4h.4l-.1-.1.3-.2.5-.3h.2l.1-.2.1-.3h.4l.3.1v-.2h.7l.1-.2h.3l.8.2h.7l.3-.2.3-.2h.4-.2l.1-.2.2-.2H124v-.2h.8v.2h.4l.3.3.4.2.6.2.5.3h.5l.2.1.5-.1H129.2a51.7 51.7 0 0 0 4 .4h.6v.1h.6v.1l.1.1h.4v1.5-.4l.1-.3.4-.1h1.4v-.2l.2-.1h.7l.4.2.4.1.3.3 1 .7.7.5.2.1h.8v.2H141.8v-.2h.1l.1.2v-.2l.1-.2h1.8l.6.2V334.2h-.1l-.1.1.2.4.2.4v.8l.1.7-.1.5-.2.5-.2.2-.2.3v.1c-.2 0-.5.5-.5.6v.2h-.5v.1h-.6v-.1l-.1-.3h-.2c-.3-.2-.3-.2-.4 0v.2H141.4v.5h-.2v.7h-.2v.4h.4v.2h.5l.2-.3.2-.3-.1-.2-.2-.1.1-.3v-.2h.7v.3l.2.3c.2 0 .3.1.3.2l.1.2h.5v.2h.1l-.2.2-.3.1v.2h-.1l-.2.1.1.1-.5.4-.3.3h.4v.2h-.4l-.2.1h.2l.2-.2H142.5v.2l.2.2h-.6v-.4H142.4v-.5l.2-.3h.4v-.4h-.4V341.1h-.5v.2h-.5v.5l-.3.1h-.2l-.2.2-.1.2-.2.2H140s0-.2.2-.2v-.1l-.1-.1-.4-.2h-1l-.1-.2h-.2v-.5l.2-.2.5-.4.3-.3.3-.3.3-.3-.6.3-.4.4h-.4v.1h-.5a9 9 0 0 0-.9 0h-.4V340.1l.5-.3.4-.2.4-.4.3-.3v-.2l-.1-.3-.3.2-.3.1h-.5l-.7.2h-.9l-.5.2-.5.1h-.8l.1-.2v-.3l-.4.2-.4.3h-.4v.1l-.6.2a8 8 0 0 1-1 .3h-.3v-.2l.2-.1.3-.1v-.2l.2-.2h.3-.2c-.1.1 0 0 .2 0l.4-.3h.4V338.5l.2-.1.6-.4.3-.2-.3.1-.3.2h-.8l-.4.1-.4.2h-.3l-.3.1-.4.3-.8.4a6.4 6.4 0 0 0-1.7 1l-.5.5h-.6v-.3l-.1-.3v-.2l.1-.2.6-.2.6-.3-.1-.1h.2l.5-.2 1-.7h-.2.1c.2-.2.3-.2.2 0l.1-.1.2-.2-.1-.1H130.3l.7-.4.7-.4h.6v-.4l.1-.1h.1l-.1-.1H132.1a2 2 0 0 1-.5 0h-.2v-.5h.1l.1-.2h.6v-.1h-1l-1 .6-.8.7-.5.2-.6.2h-.1l-.6.4-.5.2h-.6v.5l-.7.3-.8.4v.1h-.4l-.5.2v.1a4 4 0 0 1-1.7 1.2l-1.5.9-1.4.9h.1l-.2.2-.4.2h-.1v.2l-.2.1-.2.1h-.2v.2l-.3.1-.3.2v-.1l.1-.1h-.2a1 1 0 0 1-.3.2h-.1v-.5l.7-.5 2.5-1.8c.4-.4 2.8-2 3.8-2.6.4-.4 1.6-1 1.9-1h.4V337.1v.2l.2.2v-.4l.4-.3c.3 0 1-.5 1.6-.9l1-.7.3-.3.2-.3h-.2l-.3.1a1 1 0 0 1-.3.2l-.4.1-.7.4-.5.2-.8.4-.8.4-.5.2-2.7 1.5-1 .6h.1v.1h-.1l-1 .6-.8.5h.2-.2l-.3.2h-.1l-.3.2-.4.4-.4.3-.2.1h.2l.2-.2-.1.2-.4.2-.2.1.2-.1.2-.2-.2.1-.2.1V341.6l-.1-.1h-.1c0 .2-.4.5-.8.8l-.7.5-.7.9-1 1.2-.3.4v.1h.1l.9-.5.7-.5h.5v.2h.1c.2 0 .8.4.8.5l-.2.2h-.1V345.7l-.7.5-.7.4V346.8h-.3l-.3.3v.1h-.2v.2l-.5.4-.3.2v.2l-.2.2h-.1v.2h.1l-.1.1h-.2.1v-.1l-1 1v.2h-.2l-.3.4-.1.2.2.1-.1.1h.8l.4-.4.6-.3.5-.3.8-.5.4-.2v-.1l.3-.4.3-.3.3-.3.6-.2h.2v-.1H117.3v-.1H118.2l.2-.3h.9v.5h-.2v.2l-.4.1-.3.1-.2.2-.3.3-.2.1.1-.1.2-.2-.3.2-.3.2-.2-.1h.1v.1l-.3.3c-.5.3-.9.7-.9.8v.2h-.2v.1l.1.2v.1l-.2.2h.1l.1-.1v.5h.6l-.1-.1.2-.1.2-.1-.1.1.6-.3.7-.5v-.2h.2v-.2l-.1-.1h.1l.1-.1c-.2.2 0 .2.5-.1l1-.6h.2l.1-.2-.1.2.3-.1.7-.5h.4l.2-.2.2-.1h.2l.7-.3.8-.4.3-.1h.6l.5-.1v.3l-.1.3-1.2.6h.1l-.4.2-.6.4V349h.2v.5h-.2l-.2.1.1-.1-.2.1c-.4.3-.4.4-.1.4h.2v.3l-.1.3-.1.2v.2l-.7.4-.5.3h.2l-.2.2-.2.1v-.1l.2-.1-.4.2-.8.7-.5.4.1.1v.1H119.3l-.1.3v.2H118.8v.1l-.1.4-.1.4H119v.7l-.2.2h-.7v-.1h-.2l-.3-.2H117l-.4-.2-.4-.2.2.3a9.4 9.4 0 0 0 2 1.2v.1h.8v-.4l.2-.2.1-.2v-.4h.5l.5-.1-.2-.1-.1-.1v-.9h.3l.3-.1h.2v.3l-.1.4h.2v.2l.2.3V354.9h.6l.6.1.1-.2.6-.4.4-.2h-.5 1.1v.1l.2.4v.2-.1l-.2-.1V355l-.6.4-.6.3h-.2l.1-.1v-.1h.4l.1-.1H123.1l-.5.3-.4.3-.2.2h-.2.1l.2-.2-.2.1-.3.1h-.5.1l.2.1v.4h-.5v.3l.1.2v.1h-.2l.2-.2h-.3l-1.2 1.1-.9.8-.3.4-.3.3v.2c0 .2 0 .4-.2.5l-.2.2v.8l-.2.4-.2.3h.2l.1.1v.9H117.8l.2-.2v-.1h.2l.2-.5.1-.5v-.7l.1-.3.4-.4h.2V360l.3-.3 1.3-1 1.2-1 .7-.5.7-.3h.4V356.6l.4-.3.3-.2.1-.2.1-.2h.7-.2l-.3-.2h1.5l-.1-.2h.2c.4 0 .2.3-.4.8a3 3 0 0 0-.5.3l-.3.2-.2.1H125.4h-.1l-.2.1h-1v.7h-.1l-.1.1-.6.5c-.8.4-1.3 1-1.8 1.5l-.3.4h-.2.1l-.4.6-.3.4-.1.4v.3l.4-.1.3-.1.1-.2.2-.2h.2v-.2h.2v-.2l.6-.6a29.8 29.8 0 0 1 2.2-1.8l.2-.2H125l-.1-.1h.4l.3-.2h-.1v-.1H126.1v-.1h-.1.3l.3.2h1-.6v-.2H127.3l.3-.1h.2l-.1.1v.1H128l-.1.1-.1.1v2.4h-.3l-.2.1h.2l.1.3v.1h-.2l.1.1-.4.1-.5.2h.4l-.3.1-.4.1h-.5c-.2-.2-.8-.3-1.4-.4h-.4l-.3.1-.2.2v.2l.2.2h.4l.3.2H126.6v.2l-.4.5-.2.3-.3.1-.3.2-.3-.1-.5-.1-.7-.2h-2l-.3.2-.3.2.1.2.1.1h.2c.4.2 1.4.3 2 .3h1.3l.8-.2-.1.2h1.9l.3.2V363.8h.5V364.1h-.4v.4l.2.2h.4l-.1-.2h-.2v-.2h.1l.3-.1h.2V364.5l.2.2h-.2l.5.3.5.2h.2l.3-.2-.1.1v.1l.3-.1v-.2l.3.2.3.1H131.5v.4h-.4l.2-.1.1-.2h-.2l-.2.1v.2l-.1-.2-.1-.3h-.2l-.1.1v.1h-.2l.1.2V365.8c-.2 0-.3.2-.3.3v.1h.4v.4h1l.2.2h.4V367.1h.9v.1h.6l.5.1.1.1.1.1h.9v.2h.8l-.2.1-.1.1h.2v.2h.4l.7.6v.1h.5l.3.4.4.2h.5v.4h.9V370h-.2v.2h.3l.2-.1v.1h.3l.2.1.2.3.2.3h.7l-.1.2.2.2v.2l-.1.2h.4v-.1h.7v-.1h.7v.2h-.1l-.2.1h.5l.4-.1h-.2l-.1-.1H145.2v.1l.1.2h.4l-.1.2h-.2.2v.2l-.2.2-.1-.1-.3.2c-.4.3-.5.4-.4 1v.3l.3.1h.4l.6-.2.7-.2h.2l.2.1h-.1l-.1-.2h.2l.1.1V374h-.2.4v.2h.4v.2c.2 0 .3.2.4.3l.2.1v.1l-.1.1.3.2h.3l-.1.1v.2l.4.1c.3 0 .3 0 .4.2l.2.2.5.3c.3 0 .5.2.5.2l.5.3.4.2.4.4.4.3h.2l.1.1.2.3.2.2v.2h-.1l.1.2.2.2h-.1l-.1.1.3.1h.3l.2.5.3.4v.5l-.3.1-.2.1v.2l-.1.1h.4v.4h.7v.2l1 .5.4.2.1.1.5.2h.2v.2h-.2v.1l.2.1h-.2v-.1h-.2v.2H155.6l-.2.2h-.5l-.5.1h-.8v.1h-.1a29.5 29.5 0 0 0-3 .3h-1.7l-1.3.2H147.2l-.2.1h-1.3v.1l.1.1h.2l-.5.1h-1.3l-.2-.1-.2.1-.4.2h-.2l-.5-.1-.6-.1-.2.1-.3.2h-.4l-1-.2-.3-.1-.3.1-.3.2h-.4l-.4-.2Z" fill="#305673"/><path d="m108.6 369.8-.4-.1h-.3v-.5h-1.6l-.2-.2-.3-.2v-.1l.1-.1h-.1l-.2.1-.1-.3h-.1v.2l-.1-.1-.2-.2v-.2l-.2.1-.1-.1-.1-.1v-1.7l.1-.1h-.1l-.2.1v-.2h.2v-.2l-.2-.2V363.9 364.2h-.1l-.2-.1V364.4l-.2-.1v.1s0 .2-.2.3l-.2.1-.1-.1-.2.3-.3.4-.2-.1v.1l.1.2-.1-.1h-.2v.2h-.2l-.3-.3-.2-.1v.2h-.2a.9.9 0 0 1-.3-.2c0-.1-.1-.1 0 0l-.1.3-.1.2v.4h-.1v1h-.2v-.1.2h-1l-.2-.1-.2-.1v-.2h-.2l-.2-.2-.2-.2-.2-.2v-2.1l.5-1 .1-.5h.2v-.8l.1.1v-.5h.2v-.4l.1-.2v.2l-.1.1c.1 0 .2 0 .2-.3l.1-.2v-.4c.3 0 .3-.2.3-.8V358.7l-.5.5-.4.5v.2h.1H99.3v.4-.1H99V360.7v-.1l-.2-.1v.7l-.2.4v.8h-.1v-.1 1h-.2v-.2.5-.1h-.1l-.1.1-.1.2h.2l-.1.1-.2.2v-.1l-.2-.1v.2l.1.2v.3l-.2.4v-.1l.2-.1-.1.2-.1.2h-.1v-.1l-.2.3-.2.3c.1.2.1.8 0 .8h-.9l-.1-.2-.1.1H96l-.1-.2-.2.2V366.2v.1l-.2-.2c-.2-.3-.4-.8-.4-1.2v-.2l.2-.2.1-.2v-.4h.1l.2-.1-.1-.2v-.2h.2v-.5l.1-.1.2-.2V362l.2-.1v-.5l-.1-.2v-.2l.1.1v-.2l.1-.3h.2v-.2l-.1-.2.1.1v-1l-.4-.2-.4-.1v.1V358.8h-.1v.1l-.2-.2-.2-.3v-.2c0-.4.2-.8.4-1l.1-.2v-.5H95l-.2-.7-.1-.5v-.6l.1-.6h.1l.2-.1v-.2l-.1-.2.1.1.1-.4.1-.5c0-.2.2-.7.4-.8h.1v.1l-.1.2.1-.1.1-.1v-.5l.2-.5c.1-.7.2-.7 0-.5v.2H96l-.1-.1V351l-.1.3-.2.2v-.2l.1-.2-.1.3-.2.3V352v-.2.6l-.1-.2v-.2.6h-.2V352.8l-.2.4-.5.8-.3.4h.1l.2-.1v.1l-.5.5-.3.4h-1v-1.8h.1v-.7l.2.1-.1-.2v-.2l.2-.1V352.2h.1l.2-.1-.1-.2v-.2l.2-.2.2.1-.1-.1v-.4c.2 0 .2-.1.1 0v-.1l.3-.8.6-1v-1l-.1-.2v.5-.2l-.2-.2-.3.4-.2.5-.4.3-.4.2h.1v-.2l-.3.2-.5.3-.3.2v.1h-.1v-1l.6-2 .3-.7.2-.6.1-.1.1-.2V345.1h.2v-.6l.1-.2.2-.3v-.1h-.1l-.3-.3-.2-.2H93l-.2.6-.2.6h-.2l.1.2h.2-.4v-.7l.2-.2-.2-.6v-1.2h.2l-.2-.5-.1-.4V341.6H92l-.3-.2h-.1.1l.2-.2h-.4l-.3.3-.2.4.1-.1.2-.1V342H91l-.2-.1V341.6h-.2V341.9h-.1v.1l-.1.2h.1l.2-.1-.3.3-.2.2.1-.2.1-.2-.1-.1-.1.1-.1.3v.2l-.2.1-.2.2.2-.1h.1l-.1.1-.2.3v.3h-.2v1.1H89v-.7l.3-.2v-.8.6h-.2v-.5l-.2-.2.1.2v.1l-.2.4-.2.4h-.4v-.4l-.1-.3h.1l.2.2v-.7h.2l.2-.4.2-.2H89l-.2.1v-.2h.4l.2-.2v-.2l-.1-.2.1-.1.1-.1V341.7l.2.2v-.2l-.1-.4-.1-.3h.1l.1-.1V340.5v.2l.2.1v-.8.2c.2.3.2.2 0-.2v-.2l.3-.2.3-.2H90.2v-.6l-.2.1-.1-.2-.1-.2h.2l.1.2-.2-.4c-.2-.3-.3-.4-.2-.1l.1.2h-.2v-.5l-.1.1-.2-.1v-.2.4h-.1l-.1-.1V337.7H89v.2H88.7v-.1l.1-.2h.1c-.1-.1-.2 0-.2 0v.1l-.2-.2-.2-.2-.6-.2h-1l-.1.2v-.1h.2v.2h-.1l-.6.1-.3.1.2-.1.1-.1h-.9.2v-.2h-1l-1-.1-.5-.1h.2v.2l-.4.1-.5.1v-.1l-1-.7.1.2.2.2h-.3c0-.1-.3-.3-.5-.3l-.2-.2H80.8v-.1l-.1-.2-.1.1h-.2v-.5h.2V336.1h.1V335.8l.1.2.2.1v-.4l.2.1.1.2h3.2l.2-.1.3-.2.2.1 1.3.2h1l-.6-.1c-.8-.3-.8-.4 0-.2l.6.2.1.2.2.2.3.1.3.1v-.1l.2-.2v.4l.7.3.6.3v.2-.2l.4.5.4.5.1-.1.2-.2v-.6.2l.2.2.2-.3.2-.2v-.2s0-.3.2-.5l.5-1 .3-.6v-.1l-.1-.1h.2v-.3l.2-.3.1.1.3-.5.3-.5.1-.1h.2l.1-.4c0-.2.5-.9 1-1.6l.8-1.2H96.1l.2-.3.3-.3h.2v-.4l.2-.5.1-.2v-.6l.2-.7v-.3l.2-.4.1-.5.2-.8.3-.7.2-.1.2-.2v-.2l.1-.3.2-.1.3-.2h.1l.2.1v1.3l-.2.5v.2l-.5 1-.3 1v.3l.1.2v.3l-.2 2v.6l.2-.3v-.5l.2-.3.2-.7v-.6h.1l.2-.5v-.5h.2V327l.2-.4.2-.5.2-.6.3-.7v-.3h.1v.1l.2-.2.1-.3H101V325.3l-.2.6c0 .3-.2.6-.3.7l-.3 1-.1.6v1.8h-.2v.7l-.1.3-.2.4-.2.3v1.1l-.1.3v-.1h.2v.1c0 .3 0 .3.3 0l.2-.2h.8l.3-.6.2-.5v-.6.7l-.2.2-.1.1-.2-.1-.2-.2V332.2l-.2-1.7v-1.1l.1-.2v.2l.2.1.2-.4v-.4h.2v.7H101.4V329.7h.1l.2-.1v.7l-.2 1v.4-.1l.2-.2H102l.2-.2c0-.2.2-.3.3-.4l.1-.1v-.3l-.2-.2.3-.2.3-.1v-.4h.1l.1-.2v.2l-.1.1h.1l.1-.3v-.4l.3-.3 1.2-1.5.2-.2h.1V328.6h1.2v.5h.1v-.5h.2l.4-.1h.4l.2-.4c.2-.4.3-.6.1-.4 0-.1 0-.3.2-.4l.2-.3V327.4l.3-.6.5-.6c.1 0 .8-.5 1-.8.3-.3.3-.4.3-.6v-.1H110.5l.1-.4v-.3h.2l.2.2-.1-.2.2-.3.3-.3.3-.3.3-.2.2.1.1-.1.2-.2.1.1h.1v.3l-.2.2v.2l.1.2-.1.3-.2.2v.2l.1.1h-.2l-.7 1.2-.8 1.4-.1.3h-.2l-.3.4-.4.3-.3.5-.2.5.1.2v.1l-.1.2H109.5l.3-.5.4-.5.1-.2v-.2l.3-.1.2-.1v-.4h.2l.2-.1v-.1l.3-.4.6-.6.3-.3.1.2.1.2.2-.2.2-.1v1.1l-.2.4-.3.3h-.1l-.2.3-.2.4v.5l-.2.2-.8.9-.3.3-.2.3v.4l-.2.5-.3.5-.1.3v.5h.2l.1.2.2-.3.2-.3h.2v.1V332.5l.2-.2v.1l.2.2v.7l.1.3.1.3h.2v.4l.1-.2v-.2l.3.2.1.2v.5h.2v-.1.4h.2s0-.2.2-.3l.1-.4-.2-.2v-.2l.1-.2H113l.1-.2.3-.3.2-.3.1.1.1.1.2-.3.1-.3v-.5l-.2-.6V330l.2-.5.2-.4v.1h.1c.1-.2.3-.2.3 0V329.5l.1-.1.2-.1.3.1.3.2.5.5.5.4v1l-.3-.1-.2-.1v.1l.2.2h-.2l-1-.4-.1-.2v1l.2-.1.6-.1-.1.3-.2.3V332.8l-.1.2-.3.5v.2h-.4l.1.1.1.1-.2.4-.2.4.3.3.2.4h-.2V337.1l.2-.1v-.7h.3l.1-.1v-.4l.2-.8v-.6l.2-.5.1-.3h.4l.2.3.3.8.1.4H117.2v.2l.1.2h.1l.2.2.1.3-.1.3-.2.4.2-.1.1-.1V336.8l.2-.1h.2l-.1-.3-.1-.3v-.7l.2-.8.1-.4.2-.4.2.1V334.2h.4v-.1l.1-.2h.1v.4l.2.6v.4l.2-.2v-.2 1.1-.1h-.1V337.1l-.2-.1v.4l-.1.4v.1l-.2.2h.2v.5-.2l.2-.3.1.1.2.1.1.5.2.7v.2h-.4v.2H119.3l.2-.2H119.2v.5h-.2l-.2-.2V339.5l.1-.3.2-.2V338.7l-.3.5c-.2.6-.3.8-.1 1v.2l-.2.2v-.1h-.1l-.1.2.2-.2v.2l-.1.2h-.6v.2l-.3.7-.3.7v.3c-.1.6-.7 2.1-1 2.8l-.3.6-.3.9a14.8 14.8 0 0 1-1 3v.1l.1-.1.2-.4v-.3h.2l.2-.2.2-.3h.3l.4.2v-.2l.2-.2h.2l.2-.3.3-.4h.2v-.3l.4-1.5.3-1.3v-.2l.2-1a26 26 0 0 0 .5-1.6l.2-.5.3-.4.2-.3h.6v-1h.1l.1.1v-.2h.3l.3.1v.2l.1.1v2.2l-.2.1v.6a8.4 8.4 0 0 1-.6 2.6l-.3 1.2c-.4 1.2-.7 3.4-.8 5v.7h-.4l-.1.3-.1.4-.5-.1-.5-.1-.3.5-.3.5h-.7v.4l-.2.7v.3h-.1l-.2.2v-.1h-.2l-.1.2-.1.3V356.4h-.1v.4H114.8l-.1.1-.1.5-.2.4-.1.2v-.2H114l-.1.4-.2.5v.1l-.1.1h-.2l-.1-.3v.7l-.2.2h-.2l-.2-.1v.5h-.2v.2l-.1.1-.2.1-.1-.1v.1l.1.2-.2.1-.1.1v.2l-.1.3-.2.1v.1h.1l-.2.2-.1.3-.5.8-.3.4.3-.3v.3l-.1.2h.1l.1-.1V363.5l-.2.3-.1.2.4-.3.3-.4v-.1l.2-.5.2-.5v-.2h.1l.2-.2h.2v-.2l.1.1v-.2l.2-.2.6-.6.3-.5v.1h.2v.2h-.1.2v-.7s.2 0 .3-.2l.6-.8.3-.4.1-.4.2-.4.2-.2.2-.2v-.4l.3-.5.4-.7c.2-.3.8-1 1-1v-.2l-.1-.1h.2V354.6v-.2l.1-.2v.4l-.2.1h.2l.2-.3.2-.6.1-.2h.3l.3-.1v.4h.1v-.2.6-.2.7l.1-.3.2-.4v.5-.3l.2-.2V352.8l.5-1.3.6-1.7.2-.3v-1H120.9V355.2l-.2.6-.3.6h-.2a1 1 0 0 0-.3.3v.2l.1.1v.3l-.2.3v-.1h-.2v.4l-.2.6-.3.7v.1H118.8v.4l-.1.1H118.4l-.1.3-.4.8-.4.6s0 .4-.2.7l-1.1 2-.2.2h-.2V364.7l-.5.3-.4.3-.5.5-.3.5h-.1l-.4.3-.3.4s-.2 0-.3.2v.1h-.4l-.1.2-.1.3H112v.1l-.1.4-.1.3-.2.1-.2.2.2-.3.1-.3-.2.3-.3.4h-.6l-.1-.2h-.4l-.3.2v.2l-.3.2-.5.3-.3.1h-.2Z" fill="#A73A24"/><path d="m88.2 264.2.6-1-4.2.6-4.3.6L79 263l-1.4-1.7 1.1-2.2 1-2.3-6.5 1.4-6.5 1.2-1-1-1-1 1-.8c.6-.5 6.2-2 12.7-3.4a301 301 0 0 0 18-4.6l6-2v-1.6l.4-25 .3-23.5.7-1.7.8-1.7h-.8c-.5 0-3.5 4-6.8 8.9a97 97 0 0 1-9 11.8l-3.2 3-1.7-1.5-1.6-1.6 2.6-5.2 2.6-5.2L96 191l9.2-12.3 1.1-4 1.1-4.2 2.5-1 2.3-1.1 3-4.8 3-4.8 1.2.4 1.2.4.2 2.5.3 2.5 1.9-.5 2-.5.6 1.5.4 1.4-1.3 2.9c-.8 1.4-3.3 4.8-5.5 7.3l-4 4.5v6.7c0 3.6-.7 12.8-1.6 20.3l-2.3 23.4-.6 9.9-.8 1.2-.7 1.1h.6l6.5-1.5 6-1.5 3.5.3 3.6.3v2.8l-2.9 1.6c-1.5.8-3.8 2.4-5 3.6a42.9 42.9 0 0 1-8 5l-5.9 3-.9 3.2-1 3.2-1.7.3-1.8.4-1.2-1.6-1.2-1.8-5.6 2.1c-6.3 2.4-6.9 2.5-6 1.1Z" fill="#fff"/><path d="m190 249.2-5.1-2.5-3-4-3-4.2-1.4-5-1.5-5v-8.2l-.1-8.5-2.7 6.6-2.9 6.7-5.4 8.2-5.6 8.3-3.1 2.5-3 2.4 1.6.7c1.9.7 2.3 2.4.6 2.4-.5 0-4-1.4-7.5-3l-10.7-5-4-2-3-3.4-3-3.3-1-4.1-1.2-4.2.5-7 .5-7 4-12 4-12 3-5.4c1.7-2.8 4.7-7.3 6.8-10l3.7-4.7 3.7-2.3 3.6-2.2 4.5 1.2 4.5 1.1 3.6 3.6 3.5 3.4 3.1 6.9 3.2 6.8.8 9.5c.3 5.3.7 8.8.8 7.9 0-.8 2-5.5 4.4-10.3l4.2-8.7 4.4-6 4.4-5.9 4.7-3.1 4.6-3 4-.7 4.2-.7 5.6 2c3 1 6.8 3 8.3 4l2.9 2 2 4.3 2 4.2.7 10.3.6 10.2-1.6 6.7-1.6 6.6-2.5 5.2c-1.5 2.7-4.7 8-7.3 11.4l-4.7 6.5-5.9 5.6-5.8 5.7-3.5 1.4a20 20 0 0 1-5.6 1.4H195l-5-2.3Zm-35.7-12 3-3.5 3.6-7.5a217 217 0 0 0 7.4-17.7l3.8-10.2v-9.1l-1.6-4.7-1.5-4.6-3-2.4-2.9-2.5H157.4l-2.9 4-2.8 4-3 7.8-3 7.7-.8 6.4-1 6.5 1 9 .8 9 1.6 5c2.5 7.8 2.8 8 7 2.8Zm48.6-4.8 4-2.3 6.8-7.3 6.7-7.3 2.7-5.3c1.3-2.9 3.2-7.4 4-10l1.6-4.7v-3.2c0-1.8-.3-4.7-.6-6.4l-.6-3.1-2.7-2.9-2.7-2.9h-7l-3.9 2.4-3.7 2.6-4.2 5.6c-2.2 3-5.2 8-6.6 10.8l-2.5 5h-1.7l.5-1.6c.2-1 .8-3.3 1-5.2 1-4.2 5.7-14 7.8-15.6l1.5-1.3V176H200l-2.7 3.4c-4 5-10 17-13 25.2l-2.6 7.2v8.5l-.1 8.6 1.8 2.1c1 1.2 3.3 2.8 4.9 3.5l3 1.3 3.8-.4 4-.6 4-2.4Z" fill="#fff"/><path d="M322.7 470.5v-1.3l1.4-2.5c.6-1.4 2.2-5.4 3.3-9l2.2-6.4.7-5.3.8-5.4-.7-4.8-.7-4.9-1.6-4.6-4-11.8-2.7-7.5-1 3.4-3.3 8.6-2 4.9-3 4.5a41 41 0 0 1-4 5.3l-1 .8v.9c0 .4-.3 1-.7 1.2l-.7.4-.6-.7-.7-.7-.5-11-1-16-.5-5-.8 4.3-2.4 13.4-1.6 9-1.6 5c-.8 2.8-2 6-2.8 7.4l-1.3 2.3H289l-.6-1.1c-.4-.7-1-3.8-1.6-7l-1.3-7.4-.3-1.5-1.3 1.7-1.2 1.6h-1.8v-2.4l.6-.4.6-.4v-3.4L280 421c-1.3-2-4.2-6.1-6.4-9l-4.1-5.3-6.3-6.3a135.3 135.3 0 0 0-18.3-15.7c-.6.7 4.7 26.5 7.5 36.3l1.4 5 .3-8.1.3-8.1h1.9l.4 5.3.4 5.3-.3 3.6-.4 3.6-.9 1a3 3 0 0 1-1.7.8h-.9l-1-1.5-1-1.5-1.5-5.8c-1.6-6.4-5.3-23.8-7-32.6l-1-5.6-.6-.8c-.4-.4-2.3-1.8-4.4-3l-3.7-2.3-.6.8-.5 1v-2.2l-1.4-.8c-1.4-.7-2.6-1-5-1.3H224v-1.6l-3-1.4a68 68 0 0 0-3-1.2c-.1 0-.3 1-.4 2.4l-.2 2.4.6.6c.3.3 1.5 1 2.5 1.5s3 2 4.5 3.3l2.8 2.4 1.6 2.5 1.6 2.5.5-.8.5-.8.4 1.8 2 8.7 1.8 6.8-.2 5.6-.1 5.5-.6.4c-.3.2-1 1.7-1.5 3.4l-1 3.1v3.8l-2 3.3-1.8 3.2-1.4 1-1.3.8-.8-.3-1-.3V433.7h-2.2c-1.3 0-3-.4-3.5-.7l-1-.5-1-1.9-1-1.9v-1.3a37 37 0 0 0-1-8.3c-1-5.3-1.5-30.5-.7-39l.4-3.5-1.2-.3c-.6-.2-3.2-.3-5.7-.2l-4.6.1-1.3.9-1.3.8.3 1.2.2 1h-.9c-.5 0-1.2-.3-1.6-.7l-.6-.8.3-1.4.4-1.4 2.6-1.3 2.5-1.3h2.7l2.7.1-.4-.7-.5-.7 1.2.4c.7.4 2 .9 3 1.2l1.8.6.5-.8.6-.9v-4l-2-1c-1-.5-2.4-1.5-3-2.2L209 364v-4.1l2.6-4.3c1.5-2.4 5-7.6 7.7-11.4 2.7-3.8 6.7-9.9 9-13.4l3.8-6.4-1.3-7.1-1.5-8.1v-1h2.3l.9 2.5.8 2.3.3 3.5.5 3.7a120.2 120.2 0 0 0 12.3-24.4l1.3-4.2v-8.1l-2-1.9-1.8-1.9-4 .4-4.1.3-2.9 1.4c-1.6.6-3 1.2-3.4 1.2h-.5v-2.3l1.4-.7c.7-.4 2.6-1.2 4.1-1.7l2.8-1H245l1.7 1.4c.9.7 2 2.1 2.6 3l1 1.9v8.5l-1 3.7-1 3.6-2.4 5a255 255 0 0 1-6.7 13l-4.4 7.7 2 13.1 4.4 27.5 2.4 14.6 3.4 2.5c2 1.4 6.8 5.6 11 9.1l7.3 6.5 5.4 6.2a90.6 90.6 0 0 1 14 19l-2.5-16.8c-8.2-54.1-16.4-129.7-16.4-151.8v-5l-3 1.5-3.3 1.7-.7-.5-.6-.4.4.7.4.7-1.3.6-1.2.7-1.7-.3c-.9-.2-2-.6-2.3-1l-.7-.7.1-3.2c.1-3.7 1.9-16.2 2-14.8l.2 3.1v2.2l.6-2.7.6-2.7.4.3.3.3-.7 4.6c-.6 4.1-1 10.2-.8 12.2v.8h1c.4 0 1.2-.4 1.6-1l.7-.9h1.1c.6 0 2.7-.7 4.8-1.6 2-.9 6.3-2.6 9.3-3.6 3.2-1.1 6.9-2.6 8.3-3.4l2.7-1.3 4.2-1 4.2-1 1.5-1.3c.7-.7 1.3-1.5 1.3-1.8v-.4l-1 .1H293l-.3-2-.3-2-2.5 2.4c-2.4 2.6-3.4 3.2-3.4 2v-.7l.5.3.6.4 2.3-2.5c1.2-1.4 2.5-2.5 2.8-2.5h.7v3.7H294.7l-.3-.5-.4-.6 1-.7.9-.8v3.3l.6-.4.6-.3v.3c0 .2-.4 1.2-1 2.2l-.9 1.8-3.3 1a27 27 0 0 1-4.2 1c-.3 0-2.4.9-4.5 2l-4 2.2-5.2 1.6-5.4 1.6-.1 3.7c-.5 12 5.4 74 10.9 115.3 2.6 20 8.6 61.2 10 68.8l1 5.6 1-2.2c.7-1.1 2-4.8 2.8-8l1.6-6 2-11.3 1.8-11.2 1.1-3.8 1.2-3.6-.5-6.8-1.1-18c-3-49.8-9-104-13.6-122.3l-1-4 .7-.7.7-.7.9.9.9.9 1.3 6.9c.7 3.8 2.3 13.2 3.4 21.1l2 14.4.4-8.4.5-8.5 1.2-5.6 1.3-5.5.6-.6.6-.7.7.7.7.7-1.4 6.4-1.3 6.5-.4 12.2-.3 12.1 1 14.7c.5 8 1.9 25.4 2.9 38.6l2.5 36.4a967 967 0 0 0 2.8 43.8c.4.4 5.8-8.7 7.5-12.7 4.7-11.2 9-34 12-62l1-9.6.3-16.5.4-16.5-.8-13.4c-1.6-31.5-5.4-58.9-9.9-72.4l-1.6-4.9.4-.4.5-.4 1 .6 1 .6 1.2 3.5c4 11.7 7.7 36.2 9.5 64.3l1 14.4v33l-1 12.4c-.5 6.8-1.7 16.9-2.5 22.4l-1.3 10.2a647.7 647.7 0 0 1 30-40.4c4.2-5.1 4.4-5.5 6.8-11.4l1.5-3.8 1.4-.1 1.3-.2v3l-2.2 4.3-2.2 4.3-4 5a395.5 395.5 0 0 0-29.5 40l-2.8 4.8-1.2 4.2-1.3 4.3.3 5.7.2 5.7 3.5 9.4 3.5 9.3 1.1 5.3 1 5.3-.3 5.3-.3 5.3-1.3 5c-1.2 4.5-4.7 14-6.4 17.2l-.6 1.2h-1.9v-1.3Zm-99.1-40.7-.3-.9 1.7-.4 1.7-.4-.9-.6-.8-.5 1.4-1.6a7 7 0 0 0 1.3-2.6v-.9H229v-.9c0-.6.5-1.7 1.2-2.7l1.3-1.7.1-2.5c.1-1.3.4-2.8.7-3.2l.5-.7-.4-4.9c-.5-7.6-.8-9.2-1.9-12.8a25 25 0 0 0-10.4-13.3l-2.5-1.6-.4.4c-.2.2-.4 1.6-.5 3-.2 5-.2 30.7 0 32.8.6 5.3 1 7.5 1.6 9l.7 1.6h1.2v.8c0 .7 3 5.5 3.5 5.5l-.1-1Zm14.5-66.9-3.5-22a355 355 0 0 0-1.6-10l-.4-1.8-10.3 15.3-10.2 15.4-.4 1.4-.4 1.5.4.5a90 90 0 0 0 9 4.6l13.9 6.8 5.3 3 .2-.6c.1-.3-.8-6.6-2-14Z" fill="#0E0C0B"/><path d="m229.3 526.1.3-.5-.9-.5-1-.4v-5.5c0-3 .3-6.7.4-8.2l.4-2.6 3.4.2 3.4.1v-4l-1.5-1.7c-1.9-2.2-6.4-4.6-10.2-5.6l-3.3-.9v-.8c-.2-.5-.2-1.5-.3-2l.6-5.4c.5-2.2 1-6.7 1.2-9.8.8-11 5-38 7-45.6l1-3.6h1.2c.6 0 1.8.4 2.6 1l1.4.8 2.7.1h2.6v-2.6h1.2v-2l-4.1-3.3-4.1-3.1.2-3.7.3-3.8.8-1.2.8-1.1h3.6l.2 1.7.3 1.7v-2l.2-2.2h3.1V415h-3.5l4.3 5 4.2 4.9 2.5 1.5 2.5 1.5v.7c0 .9 3.6 3.5 5.8 4.1l1.7.5V430l-1.4-2.2-1.4-2.3h-.8c-.4 0-.8-.2-.8-.6 0-.3-.5-.9-1.1-1.3l-4.4-3.3-3.2-2.6-1.9-3.4-1.8-3.5-.4-3c-.3-1.7-.7-3.5-1-4l-.7-1h-4.1l-.5.8-.3.7H234l-.3-1-.4-1 1.3-2.8 1.3-2.8V390l3-.5 4-.7 1.2-.3-.1 1.3V393l.8-.2c.4-.1 1-.5 1.2-1l.5-.6-.5-.9c-.3-.3-.6-1.6-.6-2.8v-2l3.6-.4 3.5-.4 6.2.3c3.5.1 7.3.5 8.5.8l2.1.5 2.5-.6 2.5-.7.5-2.5.6-2.4h2.8l2 3.9 2 4 1.5-1.7 1.3-1.6h1.4c.7 0 2 .3 2.9.7l1.6.7.9-1 1-1.2h3.2l.2 1 .3.9 3-.1 2.8-.1.7-.9.7-.8h2.9l-.6-1.4-.6-1.2.6-4.8c.3-2.7.9-5.5 1.2-6.3l.7-1.4h1a4 4 0 0 1 1.9.6l.8.6.1 4.7.2 4.7h1.9l2 3.4 2 3.4h2.4l.4 1.2c.5 1.7.4 2.3-.3 1l-.6-1-.3.4-.4.4.6 2 .6 1.9 1.8-.2 1.7-.3.2-.8c.2-.5.5-.8.8-.8h.6v2c0 3-1.6 12.7-3 18.2-.7 2.5-1.5 6.3-1.7 8.4l-.4 3.7-1.8 1.3-1.8 1.3V423.6l-.5.9c-.7 1-8.1 7-8.8 7-.4 0-.8.6-1 1.2l-.3 1.2h-1.6l-.9 1.5-.8 1.6-.5-.4-.5-.4-1.3 2.2c-.8 1.3-1.6 2.3-2 2.3a84.3 84.3 0 0 0-12.2 15l-1.5 1.4.3.4.4.5-1.3 1-1.3 1v2l-1 .3-.9.5.4.6.3.7-1 .5-1 .4.4.7.4.7-1 .5-1 .4.3.6.3.5-1.2 1.6-1.2 1.5.4.5.4.5h-1.5l.3.6.3.7-.8 1.2-1 1 .4.5.4.5H274l.4.8.3.7h-1l-.1 1.7-.1 1.6-.7.5c-.4.3-.7.7-.6.8l-.3 3.2-.5 2.8h-1l.3 1.1.3 1.1-.5 1a79.7 79.7 0 0 0-.5 20.3c.2 2.2.5 5.6.5 7.4l.3 3.2h-1.2l.3.6.3.6-1.5.1-1.7.2-.7-1c-.4-.5-1-1.8-1.6-3l-.9-2 .4-1 .3-1-.8-1-1-1v.9c0 .4-.2.7-.5.7h-.6l.4-1 .3-1.3-.5.2h-1.3l-.8-.1.4-2.3.4-2.3H259.2l-.5 2.3-.4 2.3H257l.4 1.4.3 1.5-2 2.3-4 4.6-2 2.4-.7-1.5-.6-1.4.3-.5.4-.5h-1.5l.4-.8.4-.7H247.2l-.1-1.3v-1.4l-.4 1-.3 1-1-1-1-1 .5 1 .4 1H244l.3-1.5.3-1.5-1-.4-.8-.5.3-1.5.3-1.6-.3-1-.3-1-1 .4-.8.4-.1-1.8-.2-4-.2-4.2-.1-2-.6 1.1-.5 1-.1 5.3v5.2l-1.1 2.5c-.6 1.3-1.1 2.8-1.1 3.4 0 .5-.5 1.3-1 1.6-.5.4-.7.8-.4.8.2 0-.3.8-1.2 1.9l-1.7 1.9-.5-.4-.5-.4-.2 1.4-.3 1.4h-2l.2-.6Z" fill="#F3C010"/><path d="M194 198.2c-.2-.4-.5-3-.7-5.7l-.4-4.8-.5.3-.5.3-.3-4.8-.4-4.8.7-.4.6-.4-.7-1.3-.7-1.3v-3.8h1.1l-.3-1.6-.3-1.6-.7 1.4c-.4.8-1.1 1.6-1.6 1.7l-.9.3.4-1 .4-1.1-2.9 2a106.3 106.3 0 0 0-14 13.2l-.8 1.3 2.6-2 2.6-2 .3.6c.3.4.4.9.3 1l-3 2.4-2.7 2.2h-2.4V186l1.3-1.6 1.3-1.7h-.5c-.3 0-1.6 1-2.8 2.2l-2.4 2.2v2.5h-2.4l-.3-1-.4-1 .9-1.4c1-1.7 11.5-10.1 18.5-15l4.9-3.5-.3-.8-.4-.9 1.5-.7 1.3-.8-.3 1c-.5 1.4-.2 1.3 1.4 0l1.2-1V159h-1.4l.4-2.2.4-2.2h-1.2v-13.4l.6 1 .6.9v-12l-.7-.3-.8-.2.6-3.2.6-3 .8.1.8.2v-1.1a3 3 0 0 0-.7-1.8l-.6-.7.8-.8c.5-.5 1-1.4 1.3-2l.4-1h3.2l.4 1 .4 1-1.2.8-1 .8.3 3.7.5 3.8-.5 3.3-.5 3.3-.4-2.5-.4-2.5.3 3.1c.3 3.9.3 3.2-.2 17.6l-.4 12h.5c.8 0 10.5-5.6 12.3-7l1.7-1.4.1-21.7.2-21.6 1 .1 1 .2-.3 21.2-.2 21.2.7-.7.8-.8.5-13.5c.3-7.6.8-16.7 1.2-20.5l.5-6.9-.5-.7-.6-.7.4-2.9.4-3 .9-.3.9-.4.7.7.6.7-.7 13c-.4 7-1 17.4-1.1 22.8l-.4 10 2-1.3 4.7-3.1 2.9-2V139a514 514 0 0 1 1.9-35l.6-5.7.6-.5.6-.7.8.8.6.7-.6 2.3-.7 2.4-.7 7.8c-.3 4.3-.8 13.2-1 19.8l-.5 12 3-2 2.9-2v-6c0-3.2.4-11.5 1-18.4.5-6.8 1-15.1 1-18.4v-5.9l.7-.4.7-.5.3-6.4.3-6.4h1.9l.2 3.6.2 3.5.8-.3.8-.3.4 3.9c.2 2 .4 6 .4 8.7v4.8l.6.4.7.4V105.9l-.5.5-.5.6.2 12.7.2 12.6h.4c.3 0 1-.4 1.5-.8l1-.8.8-10.8c.4-6 .8-11.7 1-12.8l.2-2-.6 2.1a7 7 0 0 1-.9 2l.2-3.2.3-3.3.5-.4.6-.4 1.6-16.4 1.5-16.5-.2-2.5-.1-2.4h1.9l-.1 8.7-.2 8.7-.9 9.3-1 9.4.8.4.6.4-.7 1.8-.8 1.8-.6 7.1c-.7 7.7-.8 16.8-.3 16.8a79 79 0 0 0 6-3.1l5.8-3.3-.5-9c-.2-5-.5-10.2-.7-11.4l-.3-2.1.6 1.2.6 1.3V84.9l.2-17.1.4-1.4.4-1.5.6.2.7.2-.1.8-.5 17.5-.3 16.6.5-1.6.5-1.5-.3 4.6c-.3 5.3-.6 19.4-.3 19.4l2.3-1 2.1-1.1.4-9 .5-8.9-.8-1-.7-.8.3-2 .8-4c.2-1 .4-8.6.4-17l.2-15 .7-.7.7-.7.4.7.5.7v15.3l-.2 15.3.7-.4.6-.4v7.6l-.6-.4-.7-.4v9.4c0 5.2.2 9.4.3 9.4l4-2.2 3.9-2.2V95l-.7-.4-.6-.4v-4.9h1.1l.4-9.5.8-15.6.4-6 .5-.8.5-.8.4.4.4.4-.7 8.6c-.3 4.8-.6 11.9-.6 15.7v7l.6-.3.6-.4v5.6l-.6.4-.6.3v16.9l1.9-1.2 2-1-.4-11.8-.4-11.7 1-.3.9-.4V80c0-5.4.8-17.1 1.9-27l.7-6.7h.9c.4 0 .9.2 1.1.6l.4.6-.6 5.2c-.9 7.3-1.3 12-2 22.6-.6 10.9-.6 11 0 9.3l.6-1.2v3.3l-.7.3-.8.2.9 1.6.9 1.7-.7.8-.6.8-.4 7.7-.5 7.7 2.4-1.5 3.8-2.3 1.4-.8V86.8h-1.2v-3.1h1.2V53l.8.3.8.3.3 14.3.3 14.2.4-1.8.3-2 .2 2.3v2.2l-.6.6-.7.7.2 8.7.2 8.8 4.8-3 4.8-2.8.5-4.6.4-4.6-.3-5.5-.3-5.5.4-.1.4-.2 1.4-14.4c.8-7.8 1.6-15 1.8-15.7l.3-1.4H310.5v2c0 1.1-.5 7.6-1.3 14.5L308 72.8l.6.2.7.2v2.9l-.7.2-.8.3-.3 8.8-.4 8.7 5.4-2.9 5.5-2.8V76.2h-1V74l-.3-2.2h1.4l-.2-13.4-.2-13.4h.5c.3 0 .8.8 1 1.7l.7 1.5v24.2h1.4l-.4 2.1c-.3 1-.6 4.3-.8 7.2l-.2 5h.3c.2 0 2-.7 4-1.7L328 83l.4-2 .4-3.4v-1.5h-1.2l.4-1.4.3-1.3.5 1.2.5 1.2v-1.6l2.1-18 2-16.5-.8-.2-.7-.3v-.8c0-.4.4-1.1 1-1.6l.9-.7 1 .7.8.8v1.9c0 1-.8 8.9-1.9 17.5l-2 15.6.8.3.6.2v2.9l-.9 1-1 1v3.1l2.3-1 2.2-1.1-.3-.8-.3-.9 1.8-.9c1-.5 2.3-1 2.8-1h1l-.4.8-.5.8 2.2-1.3 2-1.4.6-13 .4-13 .8-7 .8-7 .6.2.6.2v1.5a498 498 0 0 0-2 36.7c.3 0 1-.1 1.6-.5l1.2-.6.4-9.2a247 247 0 0 1 3-30.2l1.4-9.3h.8c.4 0 .9.3 1 .6l.5.6-1.6 10.5a261 261 0 0 0-2.8 30.8V70h.3l2.4-1 2-1-1.3-.5-1.2-.5 1.4-.7 1.4-.8.9.7.7.7.8-.8c.4-.4.7-1.1.7-1.5v-.8l3.1-1.7 3.2-1.7v-3.6l.9-1 1-.8v-3.1c0-4.3 1.6-15 3.6-24.8l1.8-8.3.7-.7.7-.7.6.6.7.6-2.2 9.6-2.1 9.7-1 7.8c-.6 4.2-1 8.3-1 9V56l.6-1.3.6-1.2v4l2.8-1.4 2.8-1.3.2-5.2.2-5.2.7-.5.7-.4.5-8.7c.4-4.8.6-12 .6-16.1v-7.3l.6.2.7.2.1 7.1.2 7.1-.6 8.5-.6 8.4.7.7.6.8-.4 2.6-.7 5-.4 2.4h.4c.2 0 1.3-.4 2.3-1l2-1-.5-3.2-.3-3.2.4-3.4.4-3.5.4 1.6.4 1.5.8-7.7c.8-7.3 2.8-21 3.6-23.2l.3-1.1h1.8v1c0 .7-.7 5.3-1.5 10.2a267 267 0 0 0-1.9 12.7l-.4 3.8.7-1 .7-.9-.4 5-.4 5-.6.4-.6.3.1 2.2.2 2.3 5-2 5.2-2c.1 0 .5-3.3.7-7.3l.5-7-.6-.4-.6-.4.6-1.8.7-1.8.2 2v1.8l.5-4.7c.3-2.6.5-7.4.6-10.7v-6.1h2.1l-.4 7-.5 7h2.6v-1.6l-.6.4-.7.3v-.5c0-.3.4-1 1-1.3l.8-.8.4-2.9c.3-1.6 1-4.6 1.7-6.7l1.2-4 .6-.4.7-.4.6.6.5.5-1.1 3.7c-.7 2-1.4 4.7-1.7 5.9l-.4 2 .8-.4.8-.5-.5 2.4-1.4 9.3-1 6.9-.5.3-.5.3-.4 3.7-.5 3.6 1.2-.3c5.8-1.7 15.7-5 16.3-5.3l.8-.5.3-10.5.4-10.5-.7-.5-.8-.5.5-7.9.5-7.8.8.3 1 .3V.1l1.5.2 1.6.1-.4 2.6-.7 3.6-.3 1h3.3l-.2 2.7a17 17 0 0 1-.8 3.8l-.5 1.2.7-.4.7-.4v.5c0 .3-.4 1.4-.9 2.4l-.9 1.8-.8 8.9-.7 9 .4.2.3.4 4.1-2.2 4-2.3 1.5-1.8c.8-1 1.8-2.3 2.1-3l.8-1.1.4.4.5.5-.4 1.6-.4 1.8-2.1 2-2 1.8-4.5 2.2-4.5 2.2v5.9h.5l4.2-1.3c3.8-1.3 20.3-5.8 24-6.5l2-.5v2.7l-1.8.3c-5.6 1.3-12.2 3.2-20.4 5.8l-9.3 2.8.4 4.5a107.7 107.7 0 0 1 .3 14.2l.1 1h-1.9l-.4-.7-.5-.8-.3-8.6-.4-8.5-4.6 1.9a174 174 0 0 0-9.7 4.1l-5 2.3.5 6.6.3 6.5.7 2.4.7 2.4 1 .3.8.3v.9c0 .5-.2 1-.6 1.2l-.6.4-1.2-.6-1.2-.7-1-2.6-1.1-2.7-.5-6.7-.3-6.7-.8.5-.8.5-.6 6.2c-.4 3.4-.9 7-1.2 8l-.5 2-.6-.3-.5-.2v-1.6l.6-7.3.5-5.5-.6.2-5 2.7-4.6 2.3v16l.6.5.6.3v2.5H385l-.7-1.2-.6-1.3v-7.4c0-4.2-.1-7.6-.3-7.6l-2.6 1-2.2 1.2.2 6.5.1 6.6-.5 1.4-.4 1.4h-1.6l.3-7.5.3-7.5-2.1.9c-1.2.4-3 1.3-4 1.7l-1.7.8.2 5.7.3 5.8.7.9.8.9-.8.7-.9.7-1-.8-1.1-.7-.6-5.6c-.3-3-.7-5.6-.8-5.8-.2-.1-3.6 1.3-7.6 3l-7.3 3.4.3 9.3.6 10.5.1 1.2-.6.2c-.3.1-1 0-1.6-.4l-1-.5-.1-9.4-.2-9.4-1 .3-1.2.3c-.1 0-.2 3.7-.2 8v8l.7.7.8.8-1 1-1 1-.7-.4-.7-.4V86.7l-.5.2-6.9 3-6.4 2.7V108l.8.2.7.3-.4 1c-.5 1.3-1.3 1.4-2.5.1l-1-.9-.4-4.7-.4-4.7.3-2.5c.2-1.3.2-2.4 0-2.4l-4 1.8-3.7 2V116.7l.6-.4.7-.4.5.3.6.4-1 3.1-1 3.1h-1.5l-.4-1.3-.4-1.5V99.3h-.3a50 50 0 0 0-5.7 3l-5.3 2.9.3 3c.2 1.8.4 4.7.4 6.5v3.2l1.3 1.1 1.2 1V121.8H306.3l-.6-1.6-.8-1.6v-2l-.4-6-.4-3.7-4.9 2.5-5 2.4.5 5.2.3 5-.6 2-.5 1.8h-1.8l.2-1.2c.2-.7.4-2.6.5-4.3l.4-3-.4-2.1-.5-2.1-3.6 1.8-3.8 1.9v11.2h.9c.5 0 1 .3 1.2.5l.3.5-1.3 3.6-1.3 3.5h-2.3V118l-1.9 1-1.8 1-.1 6.6c0 3.7-.3 8-.4 9.5l-.5 2.8-1 .2-1.2.2V132.9H276.8v-12.3l-4.4 1.9-4.4 2v13.3l.1 13.5-1 .6-1 .6-.6-1-.5-.8.3-12.7.4-12.7-2.4 1-2.4 1-.1 2.9v2.8l.8-1.1c.4-.6.9-1.3 1-1.7l.2-.7.7.5.7.5-1.2 3.2c-.8 1.8-1.5 4.5-1.8 6l-.4 2.9H259l.2-7 .2-7h-.9a34 34 0 0 0-6.2 2.6l-5.2 2.7-.4 12.4-.4 12.5-.5 1.7-.4 1.7-1-.1-1-.2v-2.2l.4-7.8.5-5.6-.9 2.8-.8 2.8h-1.8l-.4-3.1c-.2-1.7-.5-4.6-.5-6.4v-3.3h-.5c-.3 0-1.5 1-2.8 2l-2.3 2-.1 11-.1 10.7.8.5.8.5-1 3.4-.9 3.3h-2.4l-.3-13.6-.3-13.5-2.4 1.6-2.4 1.6.3 5.3.3 5.3.8.5.8.5-.6.8c-.2.4-.6 1.8-.8 3l-.4 2.1h-.6l-.6.1-.6-8.1-.5-8.2-4.5 2.7-4.6 2.8-.4 6.5-.5 6.6.3 4.6.3 4.7-.8.6-.8.7-.7-.4-.7-.4v-6.1h-1.1l-.6-2.7a64 64 0 0 1-1.1-6.5l-.5-4h-.3l-6.7 3.4-6.2 3.3v3.8l.1 3.8 1 2.7 1.4 5.1.4 2.5-1.3-.4-1.3-.3v2.5c0 1.5.2 3.7.4 5l.4 2.3H198v.9c0 .4-.4 1.9-1 3.1l-.9 2.2h-2l-.2-.7Z" fill="#0E0C0B"/></svg>