<svg xmlns="http://www.w3.org/2000/svg" width="304" height="527"><path fill="#a73a24" d="m206 167 5 1 4 1h2l3 1h3l2 1h3l2-1-1 1 1 2h3l2-1 1-1h2l1 1v1h1v-2l1-1v-2h14l4-1v-1l1-2 1-2 2-1 2 1 11 3 1-1 3 2 4 1h8-1l-1 1 3 1 2 1 3-1h2v1l1 2h2v-2l3 1h2-1l-1 1h1l1 1h-3l2 1 1 1 3-1 77 6 69 212-125 19v1l1 1-2 2-2 3-1-1v-1l-1 1c-1 2-1 2-6-1h-1l-22-16-9-15-1-3-1 1-3 8-53 8-2 1-2-1-2-1h-2v-5l-1-1h-1v-5h1v-4l-1-4v-1h-2v2h-1v2l-2 4-1 2 1 1v3l-1 1 1 1v1h-1v1l1 1-1 2-1 1-2 1-2 1-1 1-1 2v1l1 1h-2l-2 1-1-1v-1l-1-1v1h-1v-1h2l-2-1h-2v-2l-1-2-1 1v1l-1-1v2l1 2h-2v2h-1v2l-1 1v1h-1v1l-1 1-42-12-2-11-3-26-50 13s-7-90-6-92l41-67 22-16 33-19 3-2 2-2v1h5l9-13h2Z"/><path fill="#f3c010" d="m128 134 2 3 1 2h1l2 1 1 2 1 1h1l1 1-1 1h1v1h-1 1l1 1h1v-1h2v3l1-2v-1l1-2h1l2 1 1 1 3 1h2v-1l1-2 1-1 1-2 1 2 5 6 1 2 2 2 2 1 1 1v1l1 1 1 2h2v4l1-1v-1l1 2 1 1h-1l1 1h-2l1 1v1l2 1 1 1 1 1-1 1h1l2 1 1 1 1 2 2 4 1 1v3h1v2l1 3v1h2l1 1v2h1l-1 2v1h1v1l1-1v-1 1l1 2v-2h1v-2h1l1-1v-1 2h2v-1l1 3v3h1l-1 1v1l1-1v-1l1 1v1-2 1l3-2 3-4v-1l2 1h2v2l1 2v8l-1 11v2l-2 14-3 14 1 1v1h1l1 1 1 8-2 9-1 6-1 1-1 4-1 3h1l-1 4-1 6v3h2l1-3 1-2 2-1 1-2 1 2 1 4-1 1h1l1-1v2l-1 3v10l-1 8 1 1-1 3-1 4v4l-5 25-2 8-1 7-1 7-4 20-3 15-1 4-4 17-1 3h-1v4l-1 4h-1v2l-1 2-1 1-2 2-1 1-1-2-1-2-1-2v-2l-1 1h-1v-1l-1-1-1-1-1 2-1 1-1-1v-1 2l-1 2-1 1v-1l-1-1v2-4l-1 1v-5l-1 2v1-5 1l-1 2v-3l-1 1-1-1v1l-1 1v3l-1-1v-1l-1 2-1 1v1-1 1h-2l-1-2v-1l1-1h-1v-2 1h-2l-1 1h-3l-1-2-1-3v1h-1v-1l-1-1v-1l-1-1-1 2v3l-1-1v-1l-1 1-1 2v-3h-1l1-1-2-1-2-1v-3l-1-2v-6 1l-1 1v-3h-1v1h-1v-1l-1 3v2l-1 3-3 4-1 1-1 1c0 2-1 2-1 1v-1 1-2h-3v2l-2 2-1 2v-1l-1 1c-1 1-1 1-2-3l-1-1v-2l-1-3v-7h-1v-4l-1 1-1 1-1-2v-2h-1v-1l1-1h-1v-8l-1 1v1-1l1-4v-3 2l-1 1v-5l1-5v-4 2l-3 5-1 3-2 2v1l-1 3-1 2v1l-1 1-3 6-1 2h-2v-2l-1 1v1-2h-1v-2h-1l-1 3-3 4v1l-1-1v2h-2l1-1v-2h-1v-5 1l-1-1v-3l1-1h-1v-1l1-1h-1l1-5 1-4-1 1v-2 1-2 1l-1-1v-1 1l-1 2-1-2-4-3h-1v-1l-1-1-1-1v-3l1-3v-4l1-3h1v-4l1-4v-1h1l-1-1-1 1v2-1l-1 3-2 4-1 1v1l-1 3v3l-1 1v3l-1 1-1 1h-1l-1 1-1 1-1 2v2h-3v-2l1-1-1 1v-2 1h1l-1-1v-5h-1v1-1l-1 2v2h-1v2h-1l-1 2v2h-1v-1 1l-1 1h-1v-1l1-2-1 1v1h-1v-5l-1-1 1-3 1-3-1-1-3 5v2l-1 1v-1l-1-1v-1h-2v-1l-1-1 1-2v-2l-1 2-1 1 1-1-1 1-2 3v1l-1-1v2l-1 1h-2v-2l1-2-1-1v-11l2-13 4-20 2-8v-1h-1l-1 1v1l-1-2v-4 1h-4v-5l1-3-1-1v-10l1-3v-1h-1v2l-1 1-1 1v3l-1 4-1 1-1 1v2h-1l-1 2-2 5-1 3-1 1h-1v-2l-1-2 1-1v-1h-1v-1l1-1h-1l-2 3-2 3v2l-1 2h-1v-1 2h-2l1-1v-3l-1-1 1-5v-9l1-1v-6a343 343 0 0 0 6-25 1283 1283 0 0 1 11-43v-2l1-1 1-2 2-3 1-2v2l1-1v-1l1-1 1-3 1-1v2-2l1-2h1l1-1v-1 1l1-1v1h1l1-1 1-1v-3h1l1-1v-2l1-2 2-2v-5l1-1 3-3 1-1v-3l1-3v-1l2-2 1-1 1-3v-2l1-1 2-2 1-1 1-2 1-4 1-1 2-1h1v-2l1-2v-1l1-1h2l1-2 1-2h1l2-1v-1l1-2h1l2-1 1-1h2l2-1 3-2h2v-1l1-1 1-2v-3h1l1-1h1l5-1 1-1 1 1h2l1-2 2-1v1l1 1 1-1 1-1v-1l1-1 2-1 1-2 2-4 1-2 1 1Z"/><path fill="#3f8ca8" d="M192 285h-1l-1-4h-1l-1 1v2h-1l-1-1h-1v-2l-1-3-1-1h-1l-1 1-2-1h-2l-1 2-2 5-1-1-1-1v-3l1-1 1-3h-2l-3 2v2h1-2l-1 3-1 2h-3v-3l-1-1-1 3-1 3-1-1h-1v-1l-1-2-3-3-3 5-1 1h-1v-2l-7-1-1 2-4-13 27 5 1 1 2 2-2-3-5-8 15-10c0-1-1-1-8 4l-7 1 8-3 7-3 2 3-1-3 4-2 4-3v1l1 1-9 8c-6 6-6 6 1 0l13-11 4-4-1-1h2l2-2 1-1v2l1 2 1 1-1-1-1-2 5-2 5-2 1 1h1v1c0 2-4 7-5 7l-4 3h-1v2h1l4-3 3-3v-1h1l5-4 2-1 2-1 1-2h4l2-1 2-2 1 1 1 1v2l-2 8-2 3-4 3-1 1-2 1-1 1h-1l-1 2-1 1h-1l-1 1-1 2h-1l-2 1-4 4-2 2v-1c-1 0-1-1-2 2l-1 3h-1l-1 1v1l-11-5-4-1-4-1h-5l-1 2h6l4 1 8 3 5 2 1 1-1 4-1 3h-1l-1-1ZM67 317h-2l-2-6v-2l5-2 9-3 3-1h12l-2-2h-5l-5 1-8 2-5 2-6 2v-1l-1-1h-1v-2l-2-2h-1l-8-7h-1l-1-1-1-2h-1l-1-2-1-1-2-1-2-1-1-1c-1-2-3-2-3-2l-3-3-1-8v-3l1-1 5 2h3l2 2 2 1 1 2 6 4v1l4 3 3 2 1-2h-1l-4-3-4-6v-2h1l5 2 5 2 2-2 2 2v1l1-1h1l-1 1h-1l4 4 13 11 10 8-9-8-9-7v-1l1-1 1-1 4 3 4 3-1 1-1 1 2-1 1-2 6 3c3 3 3 4 1 3l-7-5 7 5 4 9 5 1h6v-1l1-1h-1l2-1 1-1-1-2h3l3-3v-1h-1v1l-1-1h1v-1h1l1-1 1-1h2v-1 1h1v-1 1l1-1h-1 3v-1h-1 1l-1-1v1-1 1-1h2-1v-1h-1v1-1 1h-1v-1h-4 3v-1h-2l1-1h8v8l-1-1h-1v-3h-1 1v1h-1v2l-1 1v1-1 1h-1l1-1h-1v1h-1v1h-2 2v1-1 1-1h-1v1-1 1-1 1h-1v1h-1l-1 1 1-1h-1v1h-1v1h-1v1h5l1 1h1v1l-2 7v1h1-1 1v-1h-1 1l1-1v1h2v-1h-1 1v-2 1h-1 1v-1h-1v2-1 1h-1 1-1 1l-1-1h1v-1h2-1l1-1v-1 1h1v-1 1-1h1v1h1v-1h3v-1 1h1-1v-1h1v1-1h1l-1 1h2v-1h2l1 1h6-7 1l-1 1h2-1 1v1-1l1 1h-1l-3 1h-3v1h-2l-2 1v-1h-1l-1 1h-1 1v1h-1l-1 1h1-2v1h2v-1h1v1l-1 1h1v-1 1h1v-1l1-1h-1v-1h1v1h1l1-1v1h2v1-1h-1v1l-1 1v1h2v-2h1l1-1h5v1h-1v1h1v-1h2l3-1h1v1-1h3v1h1v1h1v1h-1v2-1l-1 1h-4 1-2v1l1-1v1h-1l-1 1h-1v1h-1l-6 3-1 1v2h-1v1h1-1v2h-1l-1-1h-1v-1l-1 1-1 1-1 1-1 1h-1v-1h1v-1l-1 1h-1v-1h-1v1h-1v1h-1v1h-4v-1h-1l-1 1v-1l1-1 1-1v-1h-2v1-1 1h-1c1 0 0 0 0 0h-1 1v-1h1-1v-1h1v-1h-1v1h-1v-1h1-1l1-1-1 1h-1v2l-1-1 1-1 1-2h2v-1l2-1-1 1h1v1-1h1v1h1v-1l1-1v-1h1v1h-1v2-1h1v-1l1-1h2v1h1-1 2v-1h-2v-1h2l-1 1h1l1-1h-1v-1l1-1v-1h-1v-1l-1-1h1-1v1h-1v-1l1-1v-1h-4l-2 4-1-3-1-1h-1v1-1h-1v-2l-1 1v2l-1 1h-2v2h-1l-1-1-1-1v1l-1 1v2h-1l-1 2-1 1v1-2l1-1 1-2v-3l-1 1v1l-1 1-1 3v2l-1 1v1h1v-1l1-1v1-1 1h-1v3-2h-1v2h-1v1-1l-1 1v-1l-1 1h-1l-1-1v1h-1v-1l-1 1h-1v-1l1-1 1-2 1-3h1v-1l1-2 1-1v-2 1l-1 1v-4h-2v3h-3l-2-5-4-4-1-2v1h-1l1 1 1 3v5l-2 1-2-5-1-2-2 1h-2l-1-1h-1l-1 4-1 2-1 2-1-1-1-1-1-2h-1v2l-1 2-1 1h1Zm47-18h-1l1 1v-1Zm5 11Zm6 5h-1v1l1-1Zm-2-27v2-2Z"/><path fill="#fff" d="m55 383-1-3v-32l-1-32h-8l-2-1-1-2v-12l1-3 3-2 2-1-1 2 5-2 4-1v-3l3-14 3-11 4-11 8-23 5-13 7-13 7-14 6-10c7-10 14-19 23-28l6-6 5-3 5-4 4-1 5-1h15l2 3 3 2 1 4 4 8 1 5 1 13v25c0 13-2 26-5 39l-3 15h25-9l-13 1-3 1v5l3-1 4-1h39l3 1h3l2 3 3 3v3l1 3-1 2-1 2-3 2-9 3-6 2h-7l-22 2h-14l-1 5c-2 10-8 65-8 75v4l-1-2-1-2 1-7 1-14 2-19 5-38v-2h-25l-2-1-2-1-1-2v-8l1-2 1-3 4-2 3-3h-12l-5 1-5 2 5-3 5-2h16l4-2 4-2 7-1 8-2 6-33 1-9v-42l-1-6-1-7-1-4-2-5-3-3-4-4-9 1h-8l-4 2c-18 9-39 36-54 69-12 25-21 52-27 79v2h1l20-5 5-1h22l1 1 1 1 1 4v3l-1 3v2l-3 2-9 6-6 3-6 1c-7 2-18 3-24 3h-5v10l-1 10v22l1 22 1 2c1 3 0 3-1 1Zm16-69 10-2 3-1h-4l-4-1-3-1c-4-3-8-7-10-12-2-4-1-3 1 1l3 4 4 3 4 3 5 1 4 1 1-1 1-1v-6l1-6-1-3v-4h-2l-9 1-9 2-4 2-5 1v2l-2 16v2h4l11-1Zm121-33 12-1 6-2 8-3 3-1 1-2v-4l-1-3-2-3-3-2h-19l-19-1v8l-1 4-1 4-2 1-1 1h-6l-5-1v6h19l11-1Z"/><path fill="#305673" d="m139 385-1-1h-1v1l-1-1h-2l-1-1v1h-1v-1h-2v-1h-2v-1h-1v-1h-1v-1h-1v-1h-1v-1l-1-1v-1h-4v-1h-1v-1h-3v2h-2v1h-2v1h-3l-1 1h-1v1h-3v-1h-5v-1h-1l1-1h-1v1h-4l-1-1v-1h-1l-1-1v-3l2-2v-1 1l-1 1-1 1v-3h-1 1l1-1h1-4l1-1h1v-1h1v-1h1-1l1-1h1v-1h1l1-2 1-1h1v-1h-1v-1h-7l-1-1h-1v-6l-1-1h-1v1h-1v-1l-1-1v-2h-2v-5h-1v-1h2v-1h-1l1-1h1v-1l2-1v-1h3v-1h1v-1h1v-1h2v-1h1v-1h2v-1h3v-1h7v1h1-1v-1h2l1 1h1v-1h2v1h1v1h1v1h4v1-1h1v-1h1v-1h1v1-1h4-1 1v-1h1v1h1l1 1h8v2-1h4l1 1 1 1h1v-1h2v3h1v2l-1 1v1h-3v2h1v-2h1v1h1v1h-1v1h-1 1-1 1-1l1-1h-1v1h-1v1h-1v-1h-2v-1h1v-1h1-1v1h-2v-1h1v-2 1h-5l-1 1h-1v-1h2v-1h1-3v1h-1l-2 1-1 1v-1l1-1h1l1-1h-1 1l1-1h1v-1h-1 1-2l-1 1h-1v1h-2v1h-2v1l-2 1-1 1-2 1h1-2v1h-1v-1h1l2-2a40 40 0 0 1 6-4l1 1v-1l2-1 1-1h-2v1h-2v1l-3 1-1 1h-1l-1 1h-1v1h-1 1-1 1-1v1h-1l-1 1v1l-1 1h-1 1l1-1h1v1h1-1v1l-1 1h-1v1h-1v1l-1 1h-1v1h1l1-1h1v-1h1v-1h2v-1h-1 2v1h-1v1-1l-1 1-1 1v1-1 1h1-1 1v-1h1v-1h2v-1 1l1-1h1l1-1h2l-1 1h-1v2-1l-1 1h1l-1 1-1 1-1 1h-1 1-1v3h-1v-1h-2l2 1h1v-1h1v-1h1v1h2v-1h1-1 1v1l-1 1v-1 1h-2v1l-2 1v1h-1v2l-1 1v1h1v-2h1v-1l2-1 1-1 1-1h1v-1h1v-1h1v1l-1 1h-1v1h-1l-2 2v1h-1v1h1v-1h1v-1l2-2h2-1 3-1l1-1v3h-1l1 1h-5l1 1h3l-1 1h-5 1l2 1h4v1h1l-1-1h1v1h2v1-1 1-1h-1v2h5v1h1l1 1h2v1h1-1 1l1 1h1v1h-1 2v-1 1h3-1 1-1v2h2v-1 1h1v1h1v1h1l1 1h1v1h1v1h1v2h1v1h1l1 1h-3v1h-10l-1 1-1-1v1h-2v-1 1h-2Z"/><path fill="#a73a24" d="M109 370h-1v-1h-2l-1-1v1-5h-1v1h-1v1-1 1h-1v-1h-1v2h-2v-5h1v-3l-1 1h1-1v1-1 2h-1v2-1 2h-1v1h-1l-1-1v-1h1v-3h1v-2h-1l-1-1 1-1v-1h-1v-3l1-1v-1c0-1 0-1 0 0l-1 1v1l-1 1v1h-1v-4l1 1v-2l1-1v-1h-1v1h-1l-1 1v-3l1-1v-2h1-1v-1 2h-1 1-1v-4 1-1h-1v1h-1 1-1v1-1 2h-1v1-2 1-1 1h-1v-1h1v-2 1h1v-1h-1 1v-1 1-3h-1c0-1 0 0 0 0l-1-1h-2v1-1h-5l-1-1h1-1 7c-1 0-1-1 0 0h2v1h1v1h1v-1 1-1h1v-2h1-1 1v-1l1-1 1-2 1-1 1-1v-3h1v-2l1-1v3l-1 1v4-1l1-1v-2h1v-3 1l1-1v2l-1 1v4l-1 1v1h2v-2 1l-1-2v-1h1v1h1l-1 1v1l1-1h1v-1h-1 1v-1 1-1h1l1-2v2h2v-1h1s0-1 0 0v-1l1-1 1-1 1-1v-1h2-1l1 1h-1l-1 2v1h-1v1l-1 1v1l1-1v-1h1v-1l1-1h1v2h-1v1l-1 1v1h-1v2h1v-1 2h1v1h1v-2h1v-4h1l1 1h1v1h-1v1l-1-1v1h1-1v2l-1 1h1v2-1l1-1v-1l1 1 1 1-1 1h1v-1 1-3h1v1h1v1h-1v3-1h1v2h-1v-1 1l-1 1v-1 1-1 1l-1 1v1l-1 3v1l-1 3v-1h2v-1l1-2v-2l1-2v-1h1v-1h1v3l-1 3v1l-1 5v1h-2v1h-1v2h-1v1l-1 1v1h-1v1h-1v1l-1 1v2-1h1v-2h1v-1h1l1-1v-2h1v-1l1-1v-1 1-1h1v1h-1 1v-1l1-1v2-1 1-2l1-2v-1l1-1v-1 8h-1v2-1 1h-1v2h-1v1h-1v1l-1 2v1h-1l-1 1v1h-2v2h-1 1v-1l-1 1h-2v1h-1Z"/><path fill="#fff" d="m88 264 1-1-4 1h-5l-1-1-1-2 1-2 1-2-7 1-6 1-1-1-1-1h1l12-4 18-4 6-2v-2l1-25v-24l1-1 1-2h-1l-7 9-9 12-3 3-2-2-2-1 3-5 3-6 9-12 9-12 1-4 1-5h3l2-2 3-4 3-5h1l2 1v5l2-1h2l1 1v1l-1 3-6 8-4 4v7l-1 20-3 24v10l-1 1-1 1h1l6-2 6-1h7v3l-2 2-5 3-8 5-6 3-1 4-1 3h-2l-2 1-1-2-1-2-6 2c-6 3-7 3-6 1Z"/><path fill="#fff" d="m190 249-5-2-3-4-3-5-1-4-2-5v-17l-3 6-3 7-5 8-6 9-3 2-3 2 2 1c2 1 2 3 0 3l-7-3-11-5-4-2-3-4-3-3-1-4-1-4 1-7v-7l4-12 4-12 3-6 7-10 4-5 3-2 4-2 4 1 5 1 3 4 4 3 3 7 3 7 1 10 1 7 4-10 4-9 5-6 4-5 5-4 4-3 14 1 9 4 2 2 3 4 2 5v10l1 10-2 7-1 6-3 5-7 12-5 6-6 6-6 6-3 1-6 1h-2l-5-2Zm-36-12 3-3 4-8 7-18 4-10v-9l-1-4-2-5-3-2-3-3h-6l-2 4-3 4-3 8-3 8-1 6-1 6 1 9 1 9 1 5c3 8 3 8 7 3Zm49-5 4-2 7-7 6-8 3-5 4-10 2-5v-3l-1-6-1-3-2-3-3-3h-7l-4 2-3 3-5 6-6 10-3 5h-1v-1l1-5c1-5 6-14 8-16l1-1v-4h-3l-3 3c-4 5-10 17-13 26l-2 7v17l1 2 5 3 3 2 4-1h4l4-3Z"/><path fill="#0e0c0b" d="m330 451-6-36-12 13-4 6h-1v1l-1 2-1-1h-1v-11l-15 20q-38-56-44-60l7 36 2 5v-8l3 6-1 4v1h-3l-1-1-1-2-2-5-7-33-1-6-5-3-3-3-1 1v1-2l-2-1-5-1h-1v-2l-3-1-3-1v2l-1 2 1 1 3 1 4 4 3 2 1 3 2 2 1-1v1l2 9 2 7v11h-1l-1 4-1 3v4l-2 3-2 3-1 1-2 1-1-1v2h-3l-3-1-1-1-1-1-1-2v-2l-1-8c-1-5-2-30-1-39l1-3-2-1h-10l-1 1-2 1 1 1v1h-1l-2-1v-2l1-1 2-1 3-2h5l-1-1h1l3 2h2l1-1v-5l-2-1-3-2-1-1v-4l3-4 7-12 9-13 4-7-1-7-2-8v-1h3v3l1 2 1 4v3c5-7 9-16 12-24l2-4v-8l-2-2-2-2h-8l-3 2-3 1h-1v-2l1-1 5-2 2-1h8l2 2 2 3 1 2v8l-1 4-1 3-2 5-7 13-4 8 2 13 4 28 3 14 3 3 11 9 24 15c-8-54-16-130-16-152v-5l-3 2-3 1h-1l-1-1 1 1v1h-1l-2 1h-1l-3-1v-4l2-15v5l1-2v-3h1l-1 5-1 12v1h1l2-1 1-1h1l5-1 9-4 8-3 3-2 4-1 4-1 2-1 1-2h-2v-2l-1-2-2 2c-3 3-4 3-4 2h2l2-2 3-3v4h2l-1-1 1-1 1-1v4l1-1-1 2-1 2-3 1-4 1-5 2-4 2-5 2-5 2v3c-1 12 5 74 10 116 3 20 14 67 15 64l7-43-1-18c-3-50-9-104-13-122l-1-4v-1l1-1 1 1 1 1 1 7 4 21 2 15v-17l2-6 1-5 1-1v-1l1 1 1 1-2 6-1 7-1 12v12l1 15 3 38 3 37q0 14 19 21l7 19 2 16m-109-13-1-1h2l2-1h-1l-1-1 1-2 2-2v-1h1v-1l1-3 1-1 1-3v-3l1-1-1-5c0-7 0-9-2-12-1-6-5-11-10-14l-2-1h-1v3a893 893 0 0 0 1 42l1 1h1v1l4 6v-1Zm14-67-3-22-2-10v-2l-11 15-10 16v1l-1 2h1l9 5 14 7 5 3v-1l-2-14Z"/><path fill="#f3c010" d="M229 526h1l-1-1h-1v-14l1-3 3 1h3v-4l-1-2-10-6h-4v-3l1-6 1-9 7-46 1-4h1l3 1 1 1h5v-2h1v-2l-4-4-4-3v-4l1-3 1-2v-1h4v4-2l1-2h3v5h-4l5 5 4 5 2 1 3 2v1l6 4h1v-3l-1-2-2-3h-1l-1-1-5-4-3-2-2-4-2-3v-3l-1-4-1-1h-4v1h-3v-1l-1-1 2-3 1-2v-7l3-1h4l1-1v5h1l1-1v-2l-1-3v-2h14l8 1h5l2-1 1-3v-2h3l2 4 2 4 2-2 1-1h4l2 1 1-1 1-1h3v2h6l1-1 1-1h3l-1-2-1-1 1-5 1-6 1-1h3l1 1v9h2l2 4 2 3h2l1 1c0 2 0 3-1 1v-1l-1 1 1 2v2h4v-1l1-1v2c0 3-1 13-3 18l-1 9-1 3-2 2-1 1v-1h-1l-9 7-1 2v1h-2l-1 1v2h-1v-1l-2 2c0 2-1 3-2 3l-12 15-1 1v1l-1 1-1 1v2h-1l-1 1 1 1-1 1h-1v1l-1 1h-1l1 1-1 2-1 1v1h-1v3l-1 1v1h-1v1h1-1v2l-1 2-1 1v3l-1 3h-1l1 1v1l-1 1v28l1 3h-1v1h-1l-2 1-1-1-1-3-1-2v-3l-1-1v1h-1v-2h-2v-4h-1v2l-1 2h-1v2l1 1-2 2-4 5-2 2-1-1-1-2h1v-1h-1v-1h-1v-3 1l-1 1-1-1-1-1 1 1v1h-1v-1l1-2h-1l-1-1v-5l-1 1h-1v-6l-1-4v-2 1l-1 1v11l-1 2-1 4-1 1v1l-2 2-1 2-1-1-1 1v2h-2v-1Z"/><path fill="#0e0c0b" d="m194 198-1-6v-4h-1v-4l-1-5 1-1v-1l-1-2v-4h1v-3l-1 2-2 1-1 1 1-1v-1l-3 2-14 13-1 1 3-2 3-2v2l-3 2-2 2h-3v-2l1-2 2-1h-1l-2 2-3 2v3h-2l-1-1v-1l1-2 18-15 5-3v-2l1-1 1-1v1c0 2 0 2 1 0l2-1v-5h-2l1-2v-2h-1v-14 1l1 1v-12h-1v-4l1-3h1v1-3l-1-1 1-1 1-2 1-1h3v1l1 1-2 1-1 1 1 4v7l-1 3v-3l-1-2 1 3v18l-1 12h1l12-7 2-2v-43h2v21l-1 22 1-1 1-1v-13l2-21v-7l-1-1v-3l1-3h1l1-1v1l1 1-1 13-1 22v10l2-1 4-3 3-2v-5l2-35 1-6 1-1 1 1v3l-1 2-1 8-1 20v12l3-2 3-2v-6a278 278 0 0 1 2-37v-6h1v-1l1-6v-7h2v8l1-1h1v4l1 9v5h1v5h-1v26h1l1-1h1l1-11 1-13v-2 2l-1 2v-6l1-1 2-17 1-16v-5h2v17l-1 10-1 9 1 1-1 2v2l-1 7v17l6-4 6-3-1-9-1-11v-2l1 1v1-34l1-2v-1h2l-1 1v34-1l1-2-1 5v19l2-1 2-1 1-9v-10l-1-1v-2l1-4V76l1-15 1-1v1h1v31l1-1v8l-1-1v19l4-2 4-3V95h-1l-1-1v-5h2v-9l1-16v-6l1-1h1l-1 9v23-1h1v6h-1v17l2-1 2-1-1-12V85h2v-5c0-5 0-17 2-27v-7h1l1 1h1l-1 6a346 346 0 0 0-2 32l1-2v4h-2l1 2 1 1-1 1v1l-1 8v7l2-1 4-2 1-1V87h-1v-3h1V53h1l1 1v14l1 14v-4 5l-1 1v9l1 9 4-3 5-3 1-5V81l-1-5 1-1 2-14 1-16 1-1h1v2l-1 14-1 13h1v3l-1 1v8l-1 9 123-58-5 13-118 56v13l2 1 1 1v2h-4v-2l-1-1v-2l-1-6v-4l-5 2-5 3 1 5v5l-1 2v2h-2v-1l1-5v-5l-1-2-3 2-4 2v11h1l1 1-1 4-1 3h-3v-18l-2 1-1 1v7l-1 9v3h-3v-6h2v-12l-5 2-4 2v26l-1 1-1 1-1-1v-14l1-13-3 1-2 1v6l1-1 1-2 1 1-1 3-2 6v3h-2v-14h-1l-6 2-5 3v12l-1 13v2l-1 1h-2v-2l1-8v-6l-1 3v3h-2l-1-3v-10h-1l-2 2-3 2v22h1l1 1-1 3-1 4h-3v-28l-3 2-2 2v5l1 5v1h1v1l-1 3-1 2h-1v-8l-1-8-4 3-5 2v7l-1 7v4l1 5h-1l-1 1h-1v-7h-1l-1-2-1-7-1-4-7 3-6 4v7l1 3 2 5v3l-1-1h-2v2l1 5v3h2v1l-1 3-1 2h-2v-1Z"/></svg>