<svg xmlns="http://www.w3.org/2000/svg" viewBox="0 0 461 457"><path fill="#3f8ca8" d="M-38 70c1 21 18 21 33 9 10-14 36 26 42 1 13-16 19-56 38-53 15 6 12 22 16 35-9 17-22 37-19 56 13 5 27-22 38-30 18-10 9-24 1-26 16 7 22-2 26-17 7-9 6-30 21-27 21-2 31 7 26 27 6 12 24 8 24-8 7-9 7-28 14-32 16 11 20-2 23 25 10 12 13 24 5 38-12 14 12 20 20 13 24-17 25-55 53-66 19-16 10 8 18 13 10 5 32 3 24 19-2 12-3 25-7 37 17-1 31-17 40-30 10-18 27-60 34-16 10 37 27 73 29 112-21 15-48 4-71 14-22 6-43 13-66 16-1-18 21-32 12-50-2-18-9 14-14 20-19-9 2 4-10 15-6 8-8-9-18 13 11 21 6 4-11 13-21 28-66 12-53-19 15-8 43-30 10-12-11 19-34-2-18-11l52-1c-9-19 13 0 23-7 12-2 29 1 28-16-5-8-14-4 3-16 10-9 24-25 5-9-6 9-27 15-23 24 5 18-26-4-8 2 14 6-10-12-19-2-22 3-45 6-67 5-15 16-10 17-18-2-11-16-18-36-36-45-15-13-18-14-3 2 13 17 30 32 39 52-8-4-36 1-32-6 11-12 20-20 1-6-17 3-5 26-20 19-12 4 15 12 24 8 12 1 28-3 38 2 8 12 13 23-5 28-47 29-98 54-143 86 55-26 104-63 158-87 4 6 19 25 12 31-55 22-111 40-167 61l-30-29c3 10 25 25 10 30l-77 45c-19-7-25-26-3-34 60-45 121-90 179-137C75 194 8 246-58 297c-29 22-58 46-86 70 22 13-12-269-1-268 47 17 95 35 145 44 36 9 75 5 112 9 14 5 23-5 34-14 17 14 2-8-11-4-39-2-78-2-117-5-61-13-120-35-179-54"/></svg>