<svg xmlns="http://www.w3.org/2000/svg" viewBox="0 0 675 776"><g clip-path="url(#a)"><path fill="#3f8ca8" d="m93 102 1 2 3-4 4-4 18 8 26 14 8 6-8 16-7 16 6 3 7 3 8-5c12-6 30-24 41-41l10-15 3 1 7 3a1083 1083 0 0 1 183 131l10 11-3 6c-2 3-5 8-9 11l-6 5-6 13-6 13 5 2 4 2-1 3-1 3 3 1 3 2 20-16 19-15 12 7 12 7 2 6 2 5-4 9-4 8-6-1-6-1 7 3 6 4-3 7-3 8-9-4-9-4 4-8 4-9-26 14-25 13-11 10-10 9-2-1c-3-1-20 13-27 22l-5 8 5 2 5 2 11-3 10-3 2-4c1-2 2-4 4-3l27-20 15-12 16-4 15-3 11 2c6 1 13 2 16 1l4-2 5-10 4-10-1-3-2-3 3-6 2-6h8l7 10 6 11 11 5 12 4-5 16c-3 8-6 17-6 21l-2 5-4-2-8-4-3-1-1 5 1 7 1 3 4-1c2-1 7-1 10 1l7 3-6 18-6 18-15 29c-8 17-17 35-21 40l-6 10-3 12-3 14 6 6 7 6-3 7-3 7-17 4-17 4 2 9 2 9-2 6-9 13-6 7 2 6 1 6-3 8-4 8h-7l-6 14-6 14 1 5 2 4-3 7-4 7h6l6-1 14 9 19 15 3 6-2 5-7 8-3 3-16-6-16-6-2 4-2 5-16 5-15 4-3 6-2 6h-5c-7 0-9-2-3-3l4-1v-3l-1-2h-15l-3 9-3 9 2 2c1 1 2 4 1 5l-1 3-7-3c-10-5-38-27-53-42-7-7-18-16-25-20l-11-8v-10l-1-11 2 1 2 1-1-4c-3-4-7-49-5-53 1-1 0-4-2-6l-3-3 2-4 2-4-4-6-3-7 2-2 3-1-5-10c-2-6-4-11-3-13-5-28-13-55-24-81l-1-10-2 1-3 1v-15l-4-2-3-1 1-5v-5h-3l-3 1 1-5 1-6-4 1-2 1v-6l1-5h-3l-2 1-3-8-2-8-3 1-2 1 2-4 1-3-3 1h-3l-2-6-1-6-3 1-2 1 2-3 1-4-3 1h-3l1-2 1-3-6-2-5-3v-5l-1-4-10-6-8-6 1-3 1-2-5-1-4 1-2-4c-4-7-39-24-66-33l-26-8-11-4 1-3 2-2h-3l-3 1 3-8 3-8 5-2c2-1 8-3 13-3l9-2 2 3 3 3 5-2 5-3-3-1c-1-1-2-2-1-4l1-3 3 4 4 3v-3l3-6 2-4 7 5 6 6 2-4 1-3-6-5-7-6 1-2 2-3-6-1h-5l-4-13-6-27-4-13 6-1 6-1 1 3 1 2 2-3 1-4 2 3 2 3 1-3 2-4 4 2 5 2-3-3-3-3 6-4 5-3-4 1-4 1 2-4 1-3 4 4 4 3 4-4 3-4 5 4 4 4h9v-5l1-5 6 2 14 6 14 5 6 2-2-4-2-5-17-8-18-8-5-8-9-11c-2-1-4-4-4-7l-1-3c-1 1-2-3-4-9l-3-11 3-1 2-2-4-3-4-4 2-5 2-5 2 3Z"/><path fill="none" stroke="#f3c010" stroke-width="2" d="M119 6v5m8-2 5 2m11 1 4 1m31 8-4 4m-52-1h7m221 2v2m-201 3v1m220 0h1m-49 0h3m-110 6-4 4m96-4v2m-82 1 1 3m65-3-3 5m-134-5 2 3m316-2-1 6m-5-6-1 1m-294 5 5 4m-30-3-1 3m224 20-1 1c-5 0-12 1-16-2-5-3 0-17 0-22l9 11c2-3 7-3 7 1 1 3-1 5-1 7l2 4Zm0 0h3m33-22h2m-96 0 1 1m96 6 6-2m-88 1v1m43 1h1M81 59l2 5m39-5v1m132 0-4 2m44-2 6 4m84-4 1 2m10-2-1 1m24-1-2 1m-222 2 9 3m170 5-1-1 3-6 8 3-3 1-7 3Zm0 0c-4 6 5 17 12 18 4 1 9-1 12 1 7 5 8 13 10 20l-34-39Zm-32-6-1 3m-159-2 5 4m48 20c6-5 10-20-1-24l-4 19 5 5Zm0 0c0 8-2 10 4 17l-4-17Zm211-24 4 2m-165 80h-1c-11-20 15-27 28-38-3-3-5-6-9-6-4-1-14 2-17-1l-4-10c2-3 5-3 6-5 2-2 1-5 3-6 2-2 7-1 7-5s-5-3-7-6l-4-4 1 21c5 4 12 1 17 5 2 2 0 7 2 10l3 3c11 9 13-3 18-9m-43 51 15-12 12-1 11-8c12 12 27 11 44 11m-82 10c-7 6-10-1-17-2m17 2-17-2m99-8v-10c-6-14-27-21-39-31m39 41 10 8c11 6 21 1 27-6l-37-2Zm-39-41v-7M168 67v5m266-4 6 6m-220-5-1 5m-19-4h5m355 1h2m-254 0 6 10m42 18c4-6-1-9-2-15l2-10-3 11-9 4m12 10-12-10m12 10-3 4m-9-14c-7 3-8 5-14 0h14ZM126 74h4m106 92c-4-4-2-13-2-19 0-3-1-6 1-7 3-3 10-1 12-4s1-10 1-13c1-6-12-12-8-16 2-5 9-6 12-10 4-3 2-7 6-11 5-4 12-4 12-12l-24 63 21 9m-31 20 12-9 8-3 11-8m-31 20-7 8M398 74l-1 1m11 3 3-1m34 0 4 2m-147 1 8-2m209 0v1m-106 7-6-7 9 7h-3Zm0 0-11 7m20-9 3-5m-11 2-2 1m-63 0 4 2m-225-2-3 3m274-3v5m-231-4 4 3m-56-2 2 3m156 6-4-6-6-3-16 34 15-11 11-14Zm0 0h6m160-9 7 2m-131-1-11 7m158-6-3 2m-96-1-5 6m141-5-4 4m12-3-1 1m-328 0h5m188 11 13-1 6-10-18 6-1 5Zm0 0-10 10m10-10-33-8 23 18m58 13-1-1c0-4-2-8-1-11 0-3 3-8 2-11 0-4-7-9-11-11l52 59-10 9-24 21m-7-55c6-4 14-2 16 5 2 4 1 10 2 15l2 8c-2 6-12 9-16 15-2 4 0 9 3 12m-7-55c-5 1-11-5-15-7l15 7Zm7 55c0 4 1 7 4 11-13 11-19-15-32-15-11 0-27 6-31 16-2 4 1 10-2 15m61-27-61 27m60-116-5 10m-59 11-1 10M99 95l3 2m347-2v2m-35-1-5 4m50-4 4 4m-354-4h1m483 3v1m-342 0 14 3m227-3h2m8 0h2m-285 17-17-17 28 11-11 6Zm0 0c0 8-8 5-13 11-3 3-8 7-9 10-2 3 0 8-3 9-4 4-15-1-18-5-2-2-2-9 0-11 1-2 4-2 4-5 2-3-1-6-1-9 1-3 3-4 3-7-1-7-8-4-12-2m49 9-60-8c4-5 7-6 11-1m-38-7 1 1m24 0-1 1m14 5c2 4 5 6 8 8l-8-8Zm107 10 9-14-21 2 12 12Zm0 0c0 4 2 7 6 11l-6-11Zm104 1c4-4 15-10 16-15l19 9-9 2c-3 2-5 6-9 8-5 4-13-1-17-4Zm0 0c-7 0-10 5-15 9l15-9Zm105-14h1m-49 17c2-4 4-11 4-15l-5 21c2-3 3-4 1-6Zm0 0-3-3m-319-8 5-3m275 0 9 7m-322-5v19m236-19 3 16m103-15h5m68-1h4m-34 3h1m149 0h1m-136 4-5 4m22-4-2 5m-63-4-4 4m60-3 2-1m60 7 5-3m-341 2 17 16m183-15-5 4m-289 2-5-6 9 4h-2l-2 2Zm0 0c0 5 3 9 9 11l-9-11Zm437-2 9-2m-469 3v5m82 74c-3-2-8-5-10-8-1-3 0-6-2-8s-7-5-6-7c0-2 4-2 5-2 5 0 10 1 14-1 3-3 2-6 4-8 3-3 9-6 10-10l1-10c1-4 7-2 10-4 10-6 1-15-5-19l-31 90c8 7 19 9 27 16 2 2 7 6 7 9 1 2-3 4-5 5l-22-2c-3 0-6 1-8-1-3-2-1-7-1-10 0-5 0-8-6-13l12-8 6-9Zm0 0 8-1 4-10 7-8-19 19Zm229-74 9 4m87-3-4 1m70-1h-1m16 0-1 1m2 3 2 3m-13-2h1m-24 0-1 1m13 0v1m-423 47c-1-3-7-7-7-10 0-2 5-5 7-7 4-3 7-7 12-9 3-3 10-5 10-10 0-3-5-6-7-8l4 40c-7 0-14-1-19 4Zm0 0 1 8 11 12m-12-20 28 11-16 9m210-30c-6-5-17-11-21-17s1-12-4-17l44 2c-5 5-7 8-8 14 0 3 1 6-1 8-1 4-7 7-10 10Zm0 0 1 10m184-44-1 4m-353-2 2 3m195-3 16 5m113-5-3 7m79-5h2m-313 50c-5-4-13-9-16-14-2-4-1-10-1-14 1-8-2-15 6-21l-70 97c10 1 18 4 28 4l9-1c5-5 5-13 8-18 1-4 6-7 9-10 8-5 17 2 23-7 4-5-1-11 4-16Zm0 0c10 0 14-10 20-14 5-4 13 0 18-3 6-3 5-7 8-11l10-9-56 37Zm195-45h1m81 0 6 2m-406 0 21 19m-100 1c-1-7-1-11 4-16l-4 87c1-8 13-15 20-21m-20-50c5 0 7 1 11 4l-6 5c-3 1-7-1-8 2-6 9 13 16 17 23 4 5-1 11 6 16m-20-50c-3 3-3 5-3 9l3-9Zm20 50h13c5-1 13-9 15-13l1-7 9-8-38 28Zm376-66 1 1m32 0-6 3m84 0h1m-36 5 2 12m-100 49 62-54-12-3c-5 1-10 9-14 12l-29 25c-4 4-10 8-12 12-2 3 3 6 5 8Zm0 0c2 6 13 4 18 4l-18-4Zm-94-25c0 11 3 24-12 31-6 2-13-2-19 3m31-34c-4-4-12-5-17-2-4 1-6 5-10 7-6 2-10 0-16 4m12 25c-2-2-6-4-6-7-4-7 1-11-6-18m12 25c0 5-5 8-9 12m9-12 31-13 8 8c2 2 2 6 4 7 11 4 26-3 37 1 6 2 12 9 17 13-6 5-13 14-21 17-6 2-21 0-28-1l-6-3c-5-1-9 1-14 1-4-1-7-3-11-3l-13-1c-6-4-8-10-13-14m-3-37h-11c-7-3-13-10-18-15l29 15Zm-191-37 4 3m417 3 12 61m-239-61 23 18m-193 8c0 7 2 10 8 16l-7 5c-9 2-25-3-30 7-1 4 5 7 7 10 2 2 4 5 7 6 10 6 21 1 29-5l-14-39Zm276-20h3m-127 62-8-8-4-9-17-13-33 27c6 5 9 13 15 17s16 2 22 2l9-1 4-5 12-10Zm0 0h18m134-19-28 23m-54-14v26m245-12 12 10m20-5v2m-124-1 24 6m103 1-4 5m-90-1 13-1m8 0 4 4m44 0 10 6m6-6 1 8m-28 42c7 2 14-3 13-10 0-5-8-7-11-11-2-4 0-12 0-17l-22 57 12 12-6 4c-11 4-11-7-9-13 3-6 7-6 12-10 4-2 8-8 11-12Zm0 0c0-5 2-12-2-16l2 16Zm9 2v5m4 5h3m-32 45c8-7 11-14 2-22l5 13 3 2-9 8h-1v-1Zm0 0-9-3m27-15 1 1m-42 5v1m48 2 5-3m-14 5-6 1m-43 10 5 2 17 43c9 8 5 16-3 22-5-5-7-9-5-16l7-7c4-5 6-18 4-24s-9-4-13-7l-6-11c0-2 2-4 0-6s-5 3-6 4Zm0 0h-4m3 18c1-5 6-4 11-7l2 3c-4 3-7 6-13 4Zm0 0-8 8c-4 10 11 12 18 11 2-1 7 0 7-2 1-2-2-4-4-6l-4-3-9-8Zm67-6h2m-79 7 7 1m10 2-1 1m38-1v2m-25 11 5 2m14 21 1 3m-39 34 9 9m-12 10c6 0 9-2 14-6l-3-4c-5 2-11 4-11 10Zm0 0-5 5c-3 6-2 12 8 14h8l6 2-17-21Zm-9 1 6 1m-55 74c-2-9-13-4-19-9-5-4-9-10-15-13-3-2-8-1-10-3l-4-7c-5-7-12-15-14-23l62 51v-9c0-6 9-11 15-6 2 3 0 6-1 9-2 8-4 10-14 10Zm0 0c-2 2-9 7-13 3l-4-5c-2-3-5-5-4-8l21 10Zm86-35h1m2 6-2 3m-49 13c-5-4-16-10-24-7l21 11 3-4Zm0 0 12 4m-34-6 8 7m28-1 1 1m-31 3v1m34 3-1 2m-49 0-6 12m29-11h1m-63 3 2 1m92 2v1m-99-1h2m83 3-7 5m-90 16-5-4v-15l17 11-12 8Zm0 0c0 5 3 12 0 16-4 5-14 3-14 12 0 8 8 10 12 16 2 3 6 8 5 11l-3 6c0 6 4 12-1 17-1 1-5 0-6 2-3 2-3 5-7 5l14-85Zm66-18h3m8 2 6 1m-48 2h5m49 0 8 2m-63 2 4 3m-23 0-1 2m71 14c-4-7-1-11 4-16l5 15-9 1Zm0 0 4 7m-4-7 13 3-9 4m-62-18h12m25-1v2m-42-1h2m-377 1h-4m424 0 5 3m27-1v3m-464-2 3 2m412 0v2m20 3 12-4m-45 1-1 7m-390-3 5-4m-9 1h3m471 1-4 4m-478-4 2 3m453 5v3m0-3 2 2 4 1m14-10h5m-21 0v3m-43 11-2-13 12 10-10 3Zm0 0-10 8c1 4-5 4-6 7s3 6 5 4l11-19Zm-401-8 4-2m8 0h6m383 1 4-1m-52 2 1 4m42-4 3 2m-359-1-3 2m403 1 3 2 3-2m-6 0c-3 4-3 8 4 8l-4-8Zm6 0h2m-426-2 3 2m21 0h2m346 1v2m24-2h3m-355 2v1m378-1 3 2m-462 0 5 4m394-4 2 2m40-2h10m14 2 1 2m18 9c-3-3-6-7-4-11h4c1 4 2 7 0 11Zm0 0v1m-368-11-3 3m294-3 2 1m-365 0-2 6m-23-5-8 8m62-7 6-1m410 1v1m-466-1 2 1m29-1 2 5m41-5 7 4m-58-3h5m401 2 3 4m-395-4v1m10 0 3 5m64-4h9m294 3 7-2m-337 1 2 2m39-2h6m288 1 2 3m-451-3-5 5m14-4-5 1m55-1 1 3m335-3 1 13m-293-12h1m63 2 6-2m254 0 3 2m-41 0 5 3m63-3-4 6m-282-5 5 2m227-1h2m17 0-1 3m-388-2-7 2m446-2 1 8m-293-7 11 5m249-2 7-2m-46 2 6-1m-388 0-6 2m472-2-5 5m-431-4v1m125-1h1m-65 1v1m322-1v2m-58 0 14 12m-357-11 2 2m203-2-4 2m-212-1 4 1m375 11 14 3-2-4v-11c-7 3-11 5-12 12Zm0 0-2 1m41-11-6 14m-264-13h-1m239 0 12 2m-406-1 1-1m24 1 1 6m200-6-1 1m-208 0-4 9m200-9h6m-187 2h2m419 3 6 2m-426-1v1m398 1 3-1m33 0h5m-443 1-2 2m60-2 4 1m143 0 5 4m162-2 7 5m-161-5-3 3m226 1 3 4m-348 6v1m283 1-1 2m-181-2h1M94 0c-3 4 1 10-5 12l5-12ZM81 1c0 4-1 13 2 17L81 1Zm43 15c2 3-1 3-4 1l4-1Zm171 21-1-4 6 2-5 2Zm-121 5c6 3 15 8 18 13l-18-13Zm20 1c6 1 11-2 11 5l-11-5ZM87 47c7 1 2 5 2 9l-2-9Zm298 1c2 1 4 1 4 4l-4-4Zm-104 4c-3 5 5 8 8 3l-8-3Zm186 1c-2 3-6 8 2 5l-2-5Zm-115 2c4 0 8-1 9 2l-9-2Zm-86 4c1 2-1 5-1 8 0 4 7 10 11 5 3-5-8-11-1-15l4-2-13 4Zm190-3c-3 3-5 8-5 12l1 5-2 7c0 3-5 6 0 8l6-32Zm-208 1 1 7c3 2 5 2 7-1l-8-6Zm159 4c1 4-3 3-6 3l6-3Zm-57 10-15 10c-2 2-2 5-5 7-2 1-16-4-16-7 0-2 2-4 4-6 1-2 0-6 3-8 2-2 5 0 8-1l6-4c4-1 12 4 14 6l1 3Zm-134-5c1 3 5 2 9 2l-9-2Zm40 0c-3 6-4 11 3 16-6 3-12 4-18 2l15-18Zm42 2 5 6c7-2 9-10 16-4l-21-2Zm35 2c-7 4-5 8 0 12V70Zm74 5 1 3-1 1c-5-2 1-12 7-8l-7 4Zm-118-3c-2 3-2 6 1 9l-1-9Zm99 0c-3 5-5 7-11 10l11-10Zm-157 5c-2-5 4-5 7-2l-7 2Zm45-5c4 2 7 2 11 1l-11-1Zm-52 2c3 4-1 4-4 5l4-5Zm232 4c-1 3-3 3-5 3l5-3Zm-58 11 7-5-2-3 2-2-7 10Zm1-9c0 2 0 2 2 1l-2-1Zm-25 1c-2 2-4 12-2 14 4 1 10-3 12-5l-10-9Zm-206 1c-2 2-5 2-9 2l9-2Zm196 3c0 3 4 4 6 7l-6-7Zm-264 5c-1 3-1 5-5 6l5-6Zm341 0c2 2 1 3 0 6v-6Zm-291 3c0 3-1 4-3 6l3-6Zm264 2 5 5-14 2 9-7Zm-26 2c5 4 8 9 15 4l-15-4Zm-171 0c2 7 13 18 21 13l-21-13Zm-118 3c0 3-4 6-6 1l6-1Zm329 13c2 1 4-2 6-3 4-2 9-6 13-6 4-1 8 2 10 0l-29 9Zm-304-7c6 0 4 5 6 8l-6-8Zm23 8c1 3 0 9 4 11 4 3 11-1 15-1s7 4 10 6l-29-16Zm333 0c1 3 4 4 6 1l-6-1Zm-374 0 6 3c2 0 4-1 7 1 5 4-6 11-8 4v-4l-5-4Zm50 5c3 0 5 2 8 4l-8-4Zm292 2c-1 3-4 3-8 3l8-3Zm206 1c-1 3 1 3 3 3l-3-3Zm-207 2c5 0 11-3 14 1l-14-1Zm-198-1 21 1 11 9-32-10Zm149 1 5 15c2-2 13-7 8-10h-8l-5-5Zm20 1 4 5h14l-18-5Zm-267 1c0 6-1 15 8 18 4 1 11-1 15-2l-23-16Zm372 1c0 3 0 5 3 6l-3-6Zm-364 17c-3 3-6 3-10 3s-7 5-10 4c-10-4-5-16 2-20 2-2 6-1 9-1l9 14Zm20-14c7 0 17-1 23 2l-23-2Zm243 2c0 3-1 10-4 13-2 3-9 6-8 10s10 10 14 13l-2-36Zm-92 3c-5 4-9 10-16 13-4 3-10 1-13 7-1 2 1 15 5 14l8-5c2-2 4-1 7-2 6-3 15-11 18-16 2-2 2-6 3-8l-12-3Zm-247 2c1 3 4 6 7 7 5 1 9-1 13-2 8-1 17 2 25-1l-45-4Zm33 6c-5 4-2 8-4 13-2 3-6 5-4 9 6 10 24 20 31 5 3-5 1-13 1-18l-24-9Zm-27 1c0 4-2 13 1 15 3 3 12 2 16 2l-17-17Zm124 2c9 0 13 0 20 6l-20-6Zm70 2c6 5 9 7 17 7l-17-7Zm-75 4c1 2 1 6 3 8 1 2 4 2 5 3 7 5 14 10 14 17l8-4 32-1-62-23Zm286 17-11-1-13 11-28 23c-2-2-6-8-5-11s5-5 7-7l17-15c3-3 10-11 15-10l18 10Zm-283-8c-4 4-8 4-13 4l13-4Zm358 1c-1 3-1 4 2 6l-2-6Zm-54 2c3 1 8 4 9 6 1 3-3 5-1 6 3 6 14 6 13 14 0 4-7 8-10 11l-34 25c-3 2-13 5-12 10 0 4 9 9 12 12l14 18 8 8c3 3 3 7 6 10s15 14 13 18l-18-138Zm10 7c6 0 10-3 15 2l-15-2Zm-220-1c0 5-1 11 3 15l-3-15Zm204 0c4 5 7 5 13 5l-13-5Zm-387 8c-4 4-10 10-17 8l-7-5 24-3Zm64 3c2 2 5 2 8 3l8 6h14c9 0 14 0 14-9h-44Zm-80 6c-3 8 2 17-5 23l5-23Zm124 1 8 14 7 4 18 16-33-34Zm333 2 7 5c5 3 12 2 13 8 1 4-6 4-7 8-1 9 2 20 2 29 0 6-3 12-1 18 0 3-1 12 2 13 2 2 7 0 10 0h15l14 4c3 1 5 4 8 3 7 0 7-6 9-11 2-4 8-7 13-8l-85-69Zm-139 4-10 8-14 1-32 1 56-10Zm146 2c1 5 1 9 5 13l-5-13Zm-128 7c0 8 5 14 12 20l-12-20Zm-250 6c7 6 16 23 10 32l-10-32Zm319 7c9 4 17 10 26 16 4 2 9 5 11 8 3 5 3 11-3 13l-6 2c-3 1-6 6-10 5-4 0-8-5-12-8l-27-24 21-12Zm-391 12c1 4 2 9 6 11l-6-11Zm430 21c7 7 4 13 6 19 2 4 6 5 8 7 3 5 2 9 2 14l-16-40Zm81 29c2 2 10 7 10 10 1 3-5 7-8 5-7-2-9-8-9-13l7-2Zm-25 15c2-4 12 2 17 2l-17-2Zm39 1c0 3 1 8 5 9l-5-9Zm-21 11c-6 6-8 11-18 13l18-13Zm20 19-8 7-6-5 14-2Zm-31 14 6 12c7-6 8-7 16-1l-22-11Zm5 13c0 3-1 4-4 6l4-6Zm-22 14c2 2 5 14 0 15-3 1-15-1-13-6 1-2 4-2 6-3l11-10-4 4Zm11 20c0 9-1 14-9 20l9-20Zm0 56c-1 4 3 4 4 0h-4Zm-28 32c-8-4 9-15 13-18 5 5 1 12 1 18l-13 1-16 9 15-10Zm15-18c7 1 11 6 17 2l-17-2Zm14 17-2 5-1-1h-2l5-4Zm-15 1c0 4 6 21 13 16l-13-16Zm0 6c-2 3-12 9-12 13 1 7 15 1 16-3l-4-10Zm-3 17-4 38 3 11-6 10 2 23 5-82Zm-5 39c-2 3-10 8-9 12 1 3 5 5 7 7l2-19Zm-108 19 7-5 10 2 24 3h-41Zm-10-1c-9 8-12 16-11 27 0 2-1 7 1 9 4 2 10-3 14-3 3 0 2 5-3 1l-1-34Zm89 19c8-5 13-15 26-13l-26 13Zm43-11c-2 2-6 4-9 4h-7l-8 6c-8 1-11-3-15 5l39-15Zm-57 9c-1 2-2 3-5 3l5-3Zm-51 1-5 9v1l1 1 1-2 3-9Zm-2 9c3 2 5 3 8 1l-8-1Zm64 5c14 2-2 18 13 20l-13-20Zm-15 6c-3 3-8 1-6-1l6 1Zm-35 1c-1 3-1 4 1 7l2-3-3-4Zm31 6c4 3 6-1 10 0 2 0 2 3 4 4 3 2 8 1 10-1l-24-3Zm-5 1c-5 2-7 6 0 8v-8Zm-22 5-3 1v-1c7 0 7-1 11-4l-8 4Zm37 6c-4-3-6 0-11-1-2-1-1-3 1-3l10 4Zm-457-4 3 5h11l-14-5Zm395 10c-1-2-6-14 4-8l4 5c5 3 10 2 13 7l-21-4Zm18 0c4-3 11-4 17-5l-17 5Zm-389 4c2-4 5-11 12-7l5 5 7 1c4 1 2 8 0 10l4 3 3 1c9 3 1-9 2-11 2-2 5 1 5 3 6 4 4 4 6 10l8-8-52-7Zm420-8c-4 4 0 5 0 10 2 8 8 20-1 28l1-38Zm-442 0v5l-6-3 6-2Zm4 2 2 4c-4 0-6 0-6 3l4-7Zm23 0 2 5 5-4-7-1Zm401 12c-2-3-2-5 2-7l-2 7Zm-34-6c7 0 8 3 9 8l7 2-16-10Zm-24 32c6-6 2-13 4-20l8-5c2-2 5-4 9-4l-21 29Zm109-29-9 6 1 1v2l8-9ZM97 640l-2 1c-2-3-4-12 1-14 3-1 9 0 12 1l-11 12Zm387-11c2-1 4 1 6 2l1-1h1v-1h-8Zm-314-1c7 4 26 9 16 17l-4 2-12-19Zm321 4c1 2 1 4-1 6l1-6Zm27 2c3-1 5 0 5 3l-5-3Zm-5 0c0 3 3 5 3 8 1 4-6 4-3 9 5-2 8-3 4-8l-4-9Zm-306 2c4 1 12 1 12 5s-4 5-2 9l-10-14Zm-125 0c6 5 1 8 1 12l-1-12Zm465 0c-1 2-2 4-5 4l5-4Zm-33 2c-3 3-5 3-9 3l9-3Zm-296 2c-3 2-9 5-3 8l3-8Zm309 3c-1 4-9 18-14 9l14-9Zm-385 6 2-2 1 1-4 6-6-6 7 1Zm-48 14-3-8c3-1 5-1 7 1l-4 7Zm47-8h8-8Zm-9 6 2-5h1c2 3-1 5-3 7v-2Zm441-4c4 2 9 5 9 10l-9-10Zm-397 1h2v2l-2 1v-3Zm-61 2c1 3 1 7-3 9l3-9Zm443 2c-4 4-5 6-3 11h-7l10-11Zm-49 1 8 6-4 1-4-7Zm51 1c-1 5 4 5 8 4l-8-4Zm-258 2c1 3 2 6 6 7l-6-7Zm236 0c3 0 5 0 8 3l-8-3Zm-388 1c0 3-3 6-5 2l5-2Zm101 2c1-2 1-2 3 0h-3Zm-86 3c-5-2 1-4 3-5l-3 5Zm23 2c-3 0-4-1-5-3l2-1h1l2 4Zm-65-3c-1 2-1 3-4 4l4-4Zm449 0 11 9-6 1v1l1 1h1l-7-12Zm-32 1c-4 5 3 9 8 5l-8-5Zm-96 21-3-2c-3 5-4 6-9 1-3 5-4 10-12 4-6 5-17 3-23-1l-4 4-15-11c-6 5-8 3-13-1-3-2-7-7-4-10l83 16Zm-83-9-6 4c-3-4-2-9 4-10l2 6Zm-103-3c1 2 1 3-2 3l2-3Zm298 0c8 1 13 4 21 0h-21Zm-189 6c5-3 7-3 11 1l1-1 1-1v-1h1l-14 2Z"/><path fill="none" stroke="#a73a24" stroke-width="2" d="M218 184c8-6 15-15 25-18l8-15c-9-1-18-2-26 2-15 6-18 22-7 31Zm0 0 1 10c3 5 8 9 10 15 1 11-2 22 2 34 4 9 18 21 27 27m-40-86 96 24-1 16-15 14-40 32m0 0c1 21 24 45 3 62l-3-62Zm221 53c6-4 11-10 18-13 6-4 12-3 16-9s-1-21-12-18c-11 4-22 17-30 24l-10-13c0 9 9 11 15 18l3 11Zm0 0c0 9-4 12-12 18-3 3-8 7-13 9-3 2-9 1-13 1-11 0-25 2-36-1l56-49 18 22Zm5 24 23-18 10-11-38 14c0 6 0 12 5 15Zm0 0c0 8-1 18 5 24l-5-24Zm-104 24 23-18m132 129c3 3 13 10 19 10 4-1 8-4 11-6 9-5 26-14 29-24 0-6 2-23-2-29-4-5-12-8-15-13-4-6-1-16-1-22l-22 95c4 12-21 25-30 32-3 3-7 7-12 8-6 1-12-2-18-3l3-19 15-10 23-19Zm0 0v-20m-26-44 6 17m-132 49c-8 6-17 18-27 21-13 3-29-2-42 0-7 2-14 10-23 9-10-3-15-18-23-24-3-3-9-4-12-8-7-10 3-25-3-35 0-4-6-6-9-9l-22-18 241 10c-2 11 3 27-2 38-2 3-7 5-9 7l-29 19c-4 2-8 7-14 7-11-1-20-11-26-17Zm0 0v-40m152 18 25-21 3-9 13-11-60 20c0 9 11 15 19 21ZM308 600c-8-9-3-15-7-24-1-7-11-11-12-18-4-13 1-29 1-43l46 68c-12 0-20 11-28 17Zm0 0c0 3 0 6 4 8l-4-8Zm194-11-8 4m-182 30c11-8 17-17 32-15l-5-12c-17 0-32 12-27 27Zm0 0c0 7 9 16 17 19h13m156-46-3 12m-25 9-25 19m-68-462 17-2c9-1 22-6 31-3 7 3 17 17 13 24-6 9-19 14-31 17l-30-36Zm63 20 6 12 6 62 9 24c13-4 24-19 34-26 6-5 15-3 18 4l-73-76Zm-144 17-1 11-13 12-32 27 46-50Zm-125 11c2 11 6 21 9 31 1 5 0 12 3 17 4 6 13 11 19 15l40 32 17 15c4 5 5 11 11 12 6 3 23 3 30 0 5-1 11-8 15-12l37-29c7-6 20-14 25-21 4-6-2-17-2-24l-204-36Zm-35 3c0 15 11 29 10 45 0 3-4 5-5 8-3 5-2 14 3 19 4 5 13 9 19 14l39 30c5 4 17 10 19 16 4 14 0 33 0 47 0 5 2 13-1 17-10 12-28 23-41 33-5 4-12 9-15 13-3 6 9 8 8 14-1 12-1 25-5 37l-7 18-24-311Zm447 10c0 7 2 17 0 23-4 6-14 9-14 17s-2 25 3 33c5 6 16 8 19 15 3 8 4 28-1 36-4 5-12 7-14 13-2 8 4 20-2 26s-17 17-26 21c-4 2-10 0-14 3-13 8-27 33-45 33l94-220Zm-27 11c0 12 3 15 14 24l-14-24Zm-163 2c2 7-10 13-16 18l16-18Zm-263 14c0 7 6 11 11 15l-11-15Zm441 46c-3 3-8 5-10 9-2 3 0 7 0 11 0 9-4 22 0 31 3 5 10 9 15 12l-5-63Zm-82 88c-8 6-24 14-26 23-3 10 9 19 22 16 6-2 18-13 22-18 9-12-17-14-18-24-1-5-2-16 0-21 2-4 10-9 14-13 17-13 37-24 56-8l-70 45Zm-221-51c-5 4-15 7-23 8-8 0-16-2-24 2l47-10Zm32 0c9 5 16 11 24 17 3 3 7 7 12 9h31c4 0 9-1 12 1 5 4 4 14 4 19v51c16-5 23-23 39-29 6-3 10 0 16 0l27 1-165-69Zm105 6c0 5 9 11 13 14 6 5 12 11 18 14 5 2 12 1 17 1h35l-83-29ZM265 487c11-9 23-24 36-30 8-2 18 0 25 0 4 0 8-2 11-3h45l-117 33Zm-10-5-26 22c-8 6-14 10-13 19l39-41Zm299 19c2 4 1 8 1 13 2 10 7 20 9 31 1 5-2 13 1 18 4 4 18 10 24 11 6 2 16-1 23-1l-58-72Zm-147 1c-1 6-9 11-14 15-12 10-23 22-37 29l51-44Zm-1 5c8 7 5 15 6 24 1 6 8 13 8 19 0 4-5 7-8 9-8 7-18 19-30 20l24-72Zm87 24c-4 8-7 22-16 27-12 8-27 6-38 15-4 3-7 6-7 9 0 4 3 6 4 9 4 8 9 17 19 22 4 2 7 0 10 2 5 1 11 5 16 4 8-1 13-10 19-13 7-4 13-6 19-11 4-2 5-6 9-8 5-2 11-2 16-3 8-4 15-14 19-20l-70-33Zm-74 22c2 2 3 5 0 8-5 8-22 21-32 25l32-33Zm2 8c5 7 3 13 11 18l-11-18Zm133 16c4 5-3 15-6 20-6 14-22 23-39 27l-15 3c-5-1-8-6-11-8l71-42Zm-73 43c-5 6-12 10-18 16-4 3-6 7-12 7l30-23Z"/><clipPath id="a"><path fill="#fff" d="M0 0h675v776H0Z"/></clipPath></g></svg>