<svg xmlns="http://www.w3.org/2000/svg" fill="none" viewBox="0 0 347 327"><path stroke="#F3C010" stroke-width=".4" d="M318 136v12h-1l-4-7c-1-4 3-5-1-9l14 9-8-5Zm0 0h-3m3 13 1 12m-68 69 14 11m-277-33 7-7v-11l-1-23-2-51-4-8-2-36-1-23 1-9 8-5 20-8 20 111 2 51c0 6 2 15 0 21-1 2-8 4-11 4-5 2-12 6-19 5-6-1-13-7-18-11Zm0 0-8 2c-5 0-16-6-19-11s-1-16-2-22l-2-58m31 89v-99c-5-2-4-6-4-10l-1-24-2-34c0-4 1-11-1-14-1-2-5-4-8-5-7-4-13-8-20-8l-9 1c-5 0-8-6-13-5-3 0-2 7-1 9v27l2 47c0 5-1 14 1 18 4 4 8 1 12 2 5 1 8 5 13 6m0 0 2-2m0 0-4-86 2-7v-8l28 92c-5 0-9 0-13 2-5 2-6 7-13 7ZM-172 3v22l-21-1v11h-1c0-3-2-11 1-11l121-14-15 2-16-5-24-2-6 1m-39-3 25 1 14 2m-39-3c-8-3-16 0-23 0l-7-2m69 5 2 28 5 8 2 49m-9-85-135 70c6 6 12 3 19 2 6 0 13 4 19 3l21-9 5-3c21 0 37 15 56 21 7 2 17 1 24 1m272 163 5 3M-124 91l19 10m275 219-12-2M-163 26l-9-1M-4 214v13m-26 19c0 5 2 13 0 18l86 14-34-13-7-4-27-9-18-6Zm0 0-12-6-21-9-23-9-10-4-9 3h-10l85 25Zm-125-139 1 50m13 32 3 3M327 62c0 4-1 12-3 14-3 2-9 1-12 1l-7 2-5-2c-6 1-11 6-16 8s-12 0-17 0c7 11 23 19 36 19l24-42Zm-53-26-29-3c-46-6-91-13-137-14l-41-1c-7 0-15-1-21 1-7 3-10 6-8 14 1 5 6 6 7 10l1 22 1 43 1 20c0 4 0 7 4 9 8 3 22 9 29 8 4 0 8-3 12-5 3-1 11-3 13-6 2-4 0-15-1-20l-2-52V41c4-6 10-5 16-4h21c28 1 56 6 84 10 13 3 28 3 39 12 6 5 1 19 4 26l7-49Zm51 82c4 3 12 5 15 9 2 2 2 5 3 8 3 9 6 23-5 28l-6-1-4 2c-3 0-6-3-8-2-4 0-8 4-12 4l-7-1-23-1c-5 0-13 1-18-1s-9-7-14-9c-7-5-22-5-25-15-2-6-1-14-1-21 0-2-1-5 1-6 4-4 16-3 19-10 1-4-1-12-1-16V51l86 67Zm-59-33c-8 8-14 17-26 18l26-18Zm47 57-10-6-27 5-55-1 92 2Zm-17 48c4 1 3 7 3 10h-2c0-3 1-8-2-11-1-2-5-2-8-2h-18c-2 0-5 0-7-2l-1-6-1-15 36 26Zm-190-56h10c7-2 13-7 21-7l10 1 24 2 8 3 18 2c7 1 15 0 22 4l-113-5Zm158 53v13c3 6 9 8 14 12l15 15 19 10-48-50Zm29 40c1 4 2 9 0 12-1 3-7 4-10 5l10-17ZM49 135c-9 1-21 7-29-2-2-1-1-5-1-7l-1-20-3-79c9 0 14 4 22 8l12 100Zm32 11 2 43c0 4-1 13 2 18 1 3 6 4 9 6s6 6 9 7c5 2 10 1 14 1 10 2 19 4 30 2l-66-77ZM-58 16l-1 13 3 83-2-96Zm99 121 3 81c0 8 4 23-3 27V137ZM-86 13c0 4-3 7-2 12-1 18 1 37 2 56 0 9-2 24 9 29l9 1-18-98Zm207 210c1 9 3 16 12 21l5 2c3 1 7 5 8 8s2 10 1 13-3 8 0 11c2 2 5 1 6 1l13 3-45-59Zm12 22 1 13c-1 3-5 4-6 7 0 2 3 4 5 5 3 6-2 7-6 8l6-33ZM-8 114c12 0 19 10 27 18l-27-18Zm112 107 1 24 1 12 11 8 4 3 6-2-23-45Zm42 56c-5 0-8-3-12-5l12 5Zm39 49c-3-1-13-3-15-7-2-3 10-5 12-4 4 1 2 7 3 10l5 1h-5Zm-22-25-5 3v13c-8-1-13-4-20-6l-15-5-33-15-20-8c-3-1-10-2-12-5-2-1-2-4-2-5 0-5-2-13 1-16l106 44ZM-152 5c0 6-2 15 0 20l6 4c5 3 8 6 14 6l-20-30Zm-10-1v17c0 2 0 4 2 5 3 2 6 0 8 0l-10-22Zm110 112 3 61 1 31-4-92Zm-17-5 3 66c0 6 3 19-1 23l-2-89ZM97 275c-3 5-1 14 0 19v-19ZM-85 103c-6 3-13 1-19-1-1 8 0 17 1 25 0 3 1 8-1 11-2 4-12 5-17 7l-16 7c-4 2-7 5-12 6h-5l-12 2c-5 1-11 0-15 2l96-59ZM-196 3c1 6-2 15 2 20l-2-20Zm-1 19-30 2-9 8 39-10Zm-2 1c0 4 1 9-1 12l1-12Zm44 64c0 5 3 16 0 19-2 2-7 1-8 5-2 4 1 8-4 11l12-35Zm-69-62c0 3 1 8-1 11l1-11Zm120 182c4 4 7 5 7 10l-7-10Zm-47-11c6 1 12 4 16 8l-16-8Zm-17 7 12 6 14 9-26-15Z"/></svg>