<svg xmlns="http://www.w3.org/2000/svg" viewBox="0 0 347 327"><path fill="none" stroke="#f3c010" stroke-width=".4" d="M318 136c3 15-7 11-4-1-4-6 22 13 5 2Zm0 0h-3m3 13 1 12m-68 69 14 11m-277-33c9-5-4-157-2-168 8-6 19-9 28-13 7 38 15 77 20 115 1 23 3 46 2 68-16 8-35 14-48-2Zm160 46 5 3m17 63-12-2M-9 267l65 11-48-19M327 62c4 21-20 15-31 16-10 13-43 2-18 18 15 13 30 9 35-9l14-25Zm-53-26c-64-6-127-18-191-18-15 2-38-7-46 10 5 11 10 21 9 34 1 25-1 50 4 73 16 13 54 14 57-11-4-27-4-55-4-83 10-9 25-2 37-4 38 3 77 7 114 17 19-1 9 48 15 19l5-37Zm51 82c20 1 31 46 7 44-11 0-22 5-34 3-14-2-29 2-42-4-19-11-47-20-35-49 22-2 19-21 18-37 1-7-2-20 1-23l85 66Zm-59-33c-7 14-38 24-13 9l13-9Zm47 57c-7-7-15-6-24-3-22 4-45 0-68 1l92 2Zm-17 48c6 11 0 13-1-1-10-6-25 2-33-5 0-6-6-25 3-17l31 23Zm-190-56c14 2 25-10 39-6 13 1 25 1 37 5 12 3 25 1 37 6l-113-5Zm158 53c-4 15 10 21 19 30 7 10 18 15 29 20l-48-50Zm29 40c8 15-18 23-4 6l4-6ZM49 135c-17 8-35 0-31-20l-3-88c14 0 26 8 24 23l10 85Zm32 11c2 20 1 41 4 61 16 16 40 17 62 16l-66-77Zm-40-9 3 103c-6 11-2-13-3-19v-84Zm80 86c-3 22 30 20 26 41-10 15 13 18 18 17l-44-58Zm12 22c6 12-11 20 1 29-12 12-3-11-3-18l2-11ZM-8 114c15 0 37 28 14 10l-14-10Zm112 107c1 12-1 26 3 37 6 3 16 15 19 7l-22-44Zm42 56c-16-5-14-7 0 0Zm39 49c-13 0-22-14-3-11-1 5 12 14 3 11Zm-22-25c-11 3 2 25-15 13-31-8-58-25-88-34-11-11-4-30 11-17l92 38Zm-66-26c-4 13 1 25 0 6v-6Z"/></svg>