<svg xmlns="http://www.w3.org/2000/svg" fill="none" viewBox="0 0 428 371"><path stroke="#A73A24" stroke-width="2" d="M268 60c5-4 10-10 17-12l5-11c-7 0-12-1-18 2-10 4-12 15-4 21Zm0 0v7l7 10c1 7-2 15 2 23 2 6 11 14 18 18m-27-58 65 16-1 11-11 10-26 21m0 0c0 14 16 31 2 42l-2-42Zm-67-28h1m215 64 12-9c4-2 8-2 11-6s0-14-8-12c-7 2-15 12-20 16l-7-9c0 7 6 8 10 13 2 2 2 5 2 7Zm0 0c0 6-3 8-8 12-2 2-5 5-9 6l-9 1c-7 0-17 1-24-1l38-33 12 15Zm3 16 16-12 7-7-26 9c0 4 0 8 3 10Zm0 0c0 5 0 12 3 16l-3-16Zm-70 16 16-12m89 87c2 2 9 7 13 7l7-4c6-4 18-10 20-16 0-4 1-16-2-20-2-3-8-5-10-9s0-10 0-14l-15 64c2 7-15 17-20 21l-8 6-13-2 2-13 10-7 16-13Zm0 0v-13m-18-30 5 11m-90 34c-5 4-11 12-18 13-9 3-20-1-28 1-5 1-10 7-16 6-7-2-11-12-16-16-2-2-6-3-8-6-5-7 2-16-1-23-1-3-5-4-7-6l-15-13 163 7c-1 8 3 19-1 26l-6 5-20 12c-2 2-5 5-9 5-8-1-14-8-18-11Zm0 0v-27m103 12 17-14 2-7 9-7-41 14c0 6 8 10 13 14Zm-154 93c-5-6-2-10-4-16-1-5-8-8-9-12-2-9 1-20 1-29l31 46c-8 0-13 7-19 11Zm0 0c0 2 0 4 3 5l-3-5Zm132-7-6 2m-123 20c7-5 12-11 22-10l-4-8c-11 0-21 8-18 18Zm0 0c0 5 6 11 12 13h8m106-31-2 8m-17 6-17 13M375 53l11-1c7-1 15-4 21-2 5 2 12 11 9 16-4 6-12 10-20 11l-21-24Zm42 14 5 8 4 42 6 16c9-3 16-13 23-18 4-3 10-2 12 3l-50-51Zm-97 11v8l-9 8-22 18 31-34Zm-85 8 7 21c0 3 0 8 2 11 3 4 9 7 13 10l26 22 12 10c3 3 3 7 8 8 3 2 15 2 20 0 3-1 7-5 10-8l25-20c5-4 14-9 17-14 3-4-1-11-1-16L235 86Zm-23 1c0 11 7 20 7 31 0 2-3 3-4 5-1 4-1 10 2 13 3 4 9 7 13 10l27 20c3 3 11 7 13 11 2 10 0 22 0 32 0 3 1 8-1 11-7 8-19 16-28 23-3 2-8 5-10 8-2 4 6 6 6 10l-4 25-4 12-17-211Zm303 8c-1 4 1 11-1 15s-9 6-9 11c0 6-2 18 2 23 3 4 11 5 13 10s3 19-1 24c-2 3-8 5-9 9-2 5 2 13-2 18-4 4-11 11-17 13-3 2-7 0-10 2-9 6-18 23-31 23l65-148Zm-19 7c0 8 2 10 9 16l-9-16Zm-110 1c1 5-7 9-11 12l11-12Zm-178 10c0 4 4 7 7 10l-7-10Zm299 31c-3 2-6 3-7 6-2 2 0 5 0 7 0 6-3 15 0 21l10 9-3-43Zm-57 59c-5 4-15 10-17 15-2 7 6 14 15 11 4-1 12-8 15-12 6-8-11-9-13-16 0-3-1-10 1-14 1-3 6-6 9-9 12-9 25-16 38-5l-48 30Zm-149-34-15 5c-6 0-11-1-16 1l31-6Zm22 0 16 11c2 2 5 5 9 6h20l8 1c4 3 3 9 3 13v35c11-4 16-16 27-21 3-1 6 0 10 1h18l-111-46Zm71 4c0 3 6 7 9 9 4 4 8 8 12 10h12l23 1-56-20Zm-95 91c7-6 16-15 25-19 5-2 12 0 17-1l7-1h30l-79 21Zm-6-3-18 15c-5 4-10 7-9 13l27-28Zm202 13v9l7 21c0 3-2 9 0 12 3 3 12 7 16 7 5 2 11 0 16 0l-39-49Zm-99 1c-2 4-7 7-10 10-8 7-16 15-25 20l35-30Zm-1 3c5 5 3 10 4 16 0 5 5 9 5 13 0 3-3 5-5 6-6 5-13 13-21 14l17-49Zm59 16c-4 6-5 15-12 19-8 5-18 4-25 10-3 2-5 4-5 6 0 3 2 4 3 6 2 5 6 11 13 15l7 1 10 3c5-1 9-7 14-9l12-7 6-6 11-2c5-2 10-9 13-14l-47-22Zm-50 15c1 2 2 4 0 5-4 6-15 15-22 18l22-23Zm1 6c3 4 2 8 7 12l-7-12Zm90 11c2 3-2 10-4 13-4 9-15 15-27 18l-10 2-7-5 48-28Zm-50 28-12 11c-2 2-4 5-8 5l20-16Z"/><path stroke="#F3C010" stroke-width="2" d="M471 0v1M146 2v1m19 2h1m-49 1h3M10 9l-4 2m96-2v1m-82 0 1 2m65-2-3 3m184-2-1 3m-5-3h-1m-96 17h-1c-5 0-12 1-16-1-5-2 0-10 0-12l9 6c2-2 7-2 7 1 1 1-1 2-1 3l2 3Zm0 0h3m33-12 2-1m-96 1h1m96 3 6-1m-88 0v1m43 1h1M50 21l-4 1m44-1 6 2m84-2 1 1m10-1h-1m24 0-2 1m-43 5-1-1 3-3 8 1h-2l-1 1-2-1h2l-7 3Zm0 0c-4 3 5 9 12 10h12c7 3 8 7 10 11l-34-21Zm-32-4-1 2M30 37c6-3 10-11-1-13l-4 10 5 3Zm0 0c0 5-2 6 4 9l-4-9Zm211-13 4 1M80 69h-1c-11-11 15-15 28-21-3-1-5-3-9-3-4-1-14 1-17-1l-4-5 6-3c2-1 1-3 3-3 2-1 7-1 7-3s-5-2-7-3l-4-3 1 12c5 2 12 1 17 3 2 1 0 4 2 5l3 2c11 5 13-2 18-5M80 69l15-7h12l11-5c12 7 27 6 44 6m-82 6c-7 3-10-1-17-1m17 1-17-1m99-5v-5c-6-8-27-11-39-17m39 22 10 5c11 3 21 0 27-4l-37-1Zm-39-22v-4m107-12 6 4M16 26l-1 2m-19-2h5m355 1h2m-254 0 6 5m42 10c4-3-1-5-2-8l2-6-3 6-9 3m12 5-12-5m12 5-3 2m-9-7c-7 1-8 2-14-1l14 1ZM32 79c-4-3-2-8-2-11 0-1-1-3 1-4 3-1 10 0 12-2 2-1 1-5 1-7 1-3-12-6-8-9 2-2 9-3 12-5 4-2 2-4 6-6 5-2 12-2 12-6L42 63l21 5M32 79l12-5 8-2 11-4M32 79l-7 4m169-54h-1m11 1h3m34 0 4 1M98 32l8-1m103 4-6-4 9 4h-3Zm0 0-11 4m20-5 3-3m-11 1-2 1m-63 0 4 1m46-1v3M55 33l1 1m14 5-4-3-6-2-16 18 15-6 11-7Zm0 0h6m160-5 7 1m-131-1-11 4m158-3-3 1m-96 0-5 3m141-3-4 2m12-1h-1m-135 6h13l6-6-18 3-1 3Zm0 0-10 6m10-6-33-4 23 10m58 7-1-1c0-2-2-4-1-6 0-1 3-4 2-6 0-2-7-5-11-6l52 32-10 5-24 12m-7-30c6-2 14-1 16 2s1 6 2 9l2 4c-2 4-12 5-16 8-2 2 0 5 3 7m-7-30c-5 0-11-3-15-4l15 4Zm7 30c0 2 1 4 4 6-13 6-19-8-32-9-11 0-27 4-31 9-2 3 1 6-2 9m61-15-61 15m60-64-5 6m-59 6-1 5m88-14v1m-35-1-5 3m50-3 4 3m130-1v1M47 43l14 1m227-1h2m8 0h2M15 52l-17-9 28 6-11 3Zm0 0c0 4-8 3-13 6m71-6 9-7-21 1 12 6Zm0 0c0 3 2 4 6 6l-6-6Zm104 1c4-2 15-5 16-8l19 5-9 1-9 4c-5 2-13 0-17-2Zm0 0c-7 0-10 3-15 5l15-5Zm105-8h1m-49 10 4-8-5 11c2-2 3-2 1-3Zm0 0-3-2m-39-6 9 4m-86-3 3 9m103-8h5m68-1h4m-34 1 1 1m149 0h1m-136 2-5 2m22-2-2 3m-63-3-4 3m60-2h2m60 3 5-1M13 56l17 8m183-8-5 2m148 1 9-2M-1 60c6 2 15 7 5 10m-7 56c2-1 6-2 5-3m205-61 9 2m87-2-4 1m70-1h-1m16 0-1 1m2 2 2 1m-13-1h1m-24 0-1 1M162 87c-6-3-17-6-21-10-4-3 1-6-4-9l44 1c-5 2-7 4-8 7 0 2 1 4-1 5-1 2-7 4-10 6Zm0 0 1 5m184-24-1 2m-156-1 16 3m113-3-3 4m79-3h2M84 97c-5-2-13-4-16-8-2-1-1-5-1-7 1-5-2-8 6-12L3 123c10 1 18 3 28 3l9-1c5-2 5-7 8-10 1-2 6-4 9-5 8-3 17 1 23-4 4-3-1-6 4-9Zm0 0c10 0 14-5 20-8 5-1 13 1 18-1 6-1 5-4 8-6l10-5-56 20Zm195-24h1m81 0 6 1m-89 2h1m32 1-6 1m84 0h1m-36 3 2 6m-100 27 62-29-12-2c-5 1-10 5-14 7l-29 13c-4 2-10 4-12 7-2 1 3 3 5 4Zm0 0c2 3 13 3 18 3l-18-3Zm-94-13c0 6 3 13-12 16-6 2-13 0-19 2m31-18c-4-2-12-3-17-2l-10 4c-6 2-10 0-16 3m12 13c-2-1-6-2-6-4-4-3 1-6-6-9m12 13c0 3-5 5-9 7m9-7 31-7 8 4c2 2 2 4 4 4 11 2 26-1 37 1 6 1 12 5 17 7-6 3-13 8-21 9h-28l-6-2h-14l-11-1-13-1c-6-2-8-5-13-7m-3-20-11-1c-7-1-13-5-18-8l29 9ZM-2 92h14c9 0 14 0 14-5m323 1 12 34M122 89l23 10m83-7h3m-127 34-8-5-4-4-17-8-33 15c6 3 9 7 15 9s16 1 22 1h9l4-3 12-5Zm0 0h18m134-11-28 13m-54-8v15m245-7 12 5m20-2v1m-124-1 24 3m103 1-4 3m-90-1h13m8 0 4 2m44 0 10 3m6-3 1 4m-28 23c7 1 14-1 13-5 0-3-8-4-11-6-2-3 0-7 0-9l-22 31 12 6-6 2c-11 3-11-4-9-7 3-3 7-3 12-5l11-7Zm0 0c0-2 2-7-2-8l2 8Zm9 1v3m4 2 3 1m-32 24c8-3 11-7 2-12l5 7 3 2-9 4h-1v-1Zm0 0-9-1m27-9 1 1m6 4 5-1m-14 2-6 1m-43 6h5l17 24c9 4 5 9-3 12-5-2-7-5-5-8 1-2 5-3 7-4 4-3 6-10 4-14-2-3-9-2-13-3l-6-6c0-1 2-3 0-4s-5 2-6 3Zm0 0h-4m3 10c1-3 6-3 11-5l2 2c-4 2-7 3-13 3Zm0 0-8 4c-4 5 11 6 18 6 2-1 7 0 7-2a7355 7355 0 0 1-8-5l-9-3Zm67-4h2m-79 4h7m10 2h-1m38 0v1m-25 5 5 2m14 11 1 2m-32 13c-8-2 9-8 13-10 5 3 1 7 1 10M91 8l-1-2 6 1-5 1Zm90 6c2 1 4 1 4 3l-4-3ZM77 16c-3 3 5 5 8 2l-8-2Zm186 1c-2 1-6 5 2 3l-2-3Zm-115 1c4 0 8-1 9 1l-9-1Zm-86 2c1 2-1 3-1 4 0 3 7 6 11 3 3-2-8-5-1-8l4-1-13 2Zm190-1c-3 1-5 4-5 6l1 3-2 4c0 1-5 3 0 4l6-17ZM44 19l1 4h7l-8-4Zm159 2c1 2-3 2-6 2l6-2Zm-57 6-15 5c-2 1-2 3-5 4-2 0-16-2-16-4l4-3c1-1 0-3 3-5h8l6-2 14 3 1 2ZM12 24c1 2 5 1 9 1l-9-1Zm40 0c-3 4-4 6 3 9-6 1-12 2-18 1l15-10Zm42 1 5 4c7-2 9-6 16-3l-21-1Zm35 1c-7 2-5 4 0 7v-7Zm74 3 1 2h-1c-5-1 1-6 7-4l-7 2ZM85 27c-2 2-2 4 1 5l-1-5Zm99 0c-3 3-5 4-11 6l11-6ZM27 30c-2-2 4-2 7-1l-7 1Zm45-2h11-11Zm-52 1c3 1-1 2-4 2l4-2Zm232 2-5 1 5-1Zm-58 6 7-3-3-2h2l1-1-7 6Zm1-5h2-2Zm-25 0c-2 1-4 7-2 8l12-3-10-5Zm-10 2c0 2 4 3 6 4l-6-4Zm77 3c2 1 1 2 0 3v-3Zm-27 3 5 3-14 1 9-4Zm-26 1c5 2 8 5 15 2l-15-2ZM13 41c2 4 13 10 21 7l-21-7Zm211 9 6-2 13-3h10l-29 5Zm52 0c1 2 4 2 6 1l-6-1Zm-32 4c-1 2-4 2-8 2l8-2Zm206 1c-1 1 1 1 3 1l-3-1Zm-207 1c5 0 11-2 14 0h-14ZM45 55l21 1 11 5-32-6Zm149 1 5 8c2-1 13-4 8-6h-8l-5-2Zm20 0 4 3h14l-18-3Zm105 1c0 2 0 3 3 4l-3-4Zm-101 3c0 2-1 6-4 7-2 2-9 3-8 6 1 2 10 5 14 7l-2-20Zm-92 2-16 7c-4 1-10 0-13 4-1 1 1 8 5 7 3 0 5-2 8-3l7-1c6-1 15-6 18-8 2-1 2-3 3-5l-12-1ZM9 68c9 0 13 0 20 3L9 68Zm70 1c6 3 9 4 17 4l-17-4ZM4 71l3 4 5 2c7 3 14 5 14 10l8-3h32L4 71Zm286 10-11-1-13 6-28 13c-2-2-6-5-5-7l7-4 17-7c3-2 10-7 15-6l18 6Zm75-4c-1 1-1 2 2 3l-2-3Zm-54 1 9 3c1 1-3 2-1 3 3 4 14 4 13 8 0 2-7 4-10 6l-34 14c-3 1-13 2-12 5 0 2 9 5 12 7 5 2 9 6 14 9l8 5c3 1 3 3 6 5s15 8 13 10l-18-75Zm10 3c6 0 10-1 15 1l-15-1Zm-220 0c0 3-1 6 3 8l-3-8Zm204 0c4 2 7 3 13 3l-13-3ZM26 91l8 7 7 3 18 8-33-18Zm333 1 7 3c5 1 12 0 13 4 1 2-6 2-7 4-1 5 2 11 2 16 0 4-3 7-1 10 0 2-1 6 2 7h25l14 2 8 2c7 0 7-3 9-6 2-2 8-4 13-4l-85-38Zm-139 2-10 5h-14l-32 1 56-6Zm146 1c1 3 1 5 5 7l-5-7Zm-128 4c0 4 5 8 12 11l-12-11Zm69 7c9 2 17 6 26 9 4 1 9 2 11 4 3 3 3 6-3 7l-6 1c-3 1-6 4-10 3-4 0-8-3-12-4l-27-13 21-7Zm39 18c7 4 4 7 6 11 2 2 6 2 8 3 3 3 2 5 2 8l-16-22Zm81 16c2 1 10 4 10 6 1 1-5 3-8 2-7-1-9-4-9-7l7-1Zm-25 8c2-2 12 1 17 1l-17-1Zm39 1c0 2 1 4 5 4l-5-4Zm-21 6c-6 3-8 6-18 7l18-7Zm20 10-8 4-6-3 14-1Zm-31 7 6 7c7-3 8-3 16-1l-22-6Zm5 8-4 3 4-3Zm-22 7c2 2 5 8 0 9-3 0-15-1-13-4l6-1 11-6-4 2Zm11 11c0 5-1 8-9 12l9-12Zm0 31c-1 2 3 2 4 0h-4Zm-13 8c7 0 11 3 17 1l-17-1Z"/></svg>