<svg xmlns="http://www.w3.org/2000/svg" viewBox="0 0 715 733"><path fill="#f3c010" d="M175.4 64.2c1 .5 5.5 2 9.7 3.6l7.6 3h4.8c2.7 0 5.4.4 6.4.8.9.7 3.7 1.5 6.2 2.2l4.7 1.3 4.4-.7 4.4-.6-1.6 1.8-1.7 1.7 1.6-.2 1.6-.3-.5 1.6-.6 1.6h1.7l6.4-.5 4.7-.2-.8-1.3-.8-1 3.8-.6 3.9-.5.4 2.9.4 3 1.3-.2c.6-.1 1.3-1 1.2-1.7v-3c-.2-.7.5-2.3 1-3.5a6 6 0 0 0 1.3-3.6l-.3-1.7 2.2-.3c1.2-.3 4.9 0 8.2.6s6.8 1 7.8.9c1-.2 5.7-.5 10.4-.9l8.6-.6.3-3c.3-1.8.4-3.5.4-4a17 17 0 0 1 3-4.4l3-3.7L295 55a66.7 66.7 0 0 0 22.2 7.3l2.2-.3 7 3.3 7.3 3.5h8l8-.1-1.3 1.2-1.2 1.2 5 2 5.3 2 4.7-.7 4.8-.6 1.2 3.2 1.2 3.3 1.9.5 1.8.5-.2-2-.3-2.3 1.5-.2c.9 0 3.4.6 5.7 1.5l4 1.4-1.8.4-2 .4 2.2 1.2 2 1.2-3.1.4-3 .4 3 2 3.2 1.8 5.5-.1c3-.3 6.4 0 7.7.4l2.4.7-.5 1.3-.4 1.4 2.3.4c1.4.4 4.7.5 7.6.5l5-.3 7.4 3.3 11.9 5.4 4.6 1.9.3 2.2.3 2.2 3.3.5 3.3.4.2 1.3c0 .8.8 1.3 1.6 1.1 1.6-.2 4.5 2.4 6 5.5l1.2 2.5 6.5-.9 6.3-.9.3 2.3.3 2.2 1.3-.2 1.2-.2.5 3.7.5 3.7 3.2-.5 3.2-.4-.3-1.8-.2-1.6 2.9 2.3 2.9 2.3-.3-1.6-.2-1.8 1.9-.3 1.9-.2-.3-2.2-.4-2.4 2-1.2c1.3-.7 2.5-2 2.9-2.9l.8-1.8.2 1.8.3 2 3.6-.6 3.7-.5.3-1.7v-1.5l4.7 6 4.6 6.3 1-1 1-.9.2 2 .3 1.9 1-2.4.9-2.4 1.6 2 1.5 2-.3-2.2-.3-2 1.6 1.4 1.5 1.3 7-7c3.8-4 7.5-8.2 8-9.5l1.2-2.4 6.8-1 6.7-1.3 3.2 2.7c2 1.5 3.5 3.5 3.6 4.4.2 1 .8 1.9 1.3 1.8.6-.1 1.2.7 1.5 1.6 1 5 3.5 10.6 5.2 12.4 1.8 2 6.7 12.4 10 21l1.8 4.8 4.4 29.5 4.4 29.5 2 2.2 2.2 2.2 2-1 2.4-1.1 4.3 1.8c2.3 1 4.3 2.5 4.4 3.3 0 .7 1.2 2 2.4 3.2l2.2 2 1.8 6.2a197 197 0 0 1 3 18.7l1.6 12.4-1 1.8-1 1.8.3 7.7.3 7.8 1.3-.2 1-.2 1.5 7.6c.5 4.3 1.6 10.6 2 14l1 6 3-.9c1.7-.4 3.3-1 3.4-1.3l1.9-6.6 1.8-5.8 1.3.3 1.3.4 4-4 3.8-4.1 3.6 2c5 2.9 7 5 7.5 7.5l.3 2.4 1-.2c.9-.1 1.7-1 1.9-1.8.3-.9 1-1.6 1.6-1.7l1-.1.9 5.1.8 5.1 1.8 2.8c1 1.5 3.8 9.7 6.4 18l4.6 15.4 1.2.7 1.4.7.6 8 .6 7.9 1 1.5c.7.8 1.7 3.8 2.3 6.7l3.7 15.2c2.7 11.3 3 14.9 4.2 38.4l.7 16.4 3.3 15a127 127 0 0 1 2.8 15.6c-.7.9.3 11.5 3.8 43a596 596 0 0 1 3 31v9.7l.6 17.2c.2 6.6.5 15 .5 19v7.1l-.7.2h-1l.4 9 .4 9-1.2.1-1.2.2.5 3.7.5 3.6-4.5 3.5c-2.5 2-5.2 4.8-6 6.1l-1.6 2.3-4.6-1.7c-2.6-1-5.1-2.5-5.8-3.3l-1.2-1.3.2 1.2c0 .7-2-.5-4.2-2.7l-4.6-3.9-3 2-3.1 1.9-.8-.8-.7-.7 1-.1c.7-.3-1.2-1-4.1-1.7l-5.3-1.4-3 4.3-2.8 4.3-2.1-1.5-2-1.5-.4 3.5c-.3 2-1 4.5-1.6 5.6l-1 2.1-2.6-2.2-2.7-2.1v2l.4 2.1-1.7-3.2-1.6-3.2-1 1-1.2 1-3-4.2-2.8-4-.4 2.5-.5 2.8-2-5-2-5 .4 3.3.3 3.4-1.1.2-1.1.1-1.1-3.1-1.2-3-1.8 2.2-1.6 2.2-1-.8-1-.9-1.4 1.9-1.5 1.8.6 3.7.4 3.5-2.8-1.2-3-1.4-1.3 3c-.7 1.6-1.3 3.5-1.2 4v1.2l-1.3-.7-1.3-.7.2 1.5.2 1.6-3.5.5c-3.6.5-7.1-.8-7.2-2.6l-.3-3.2-.4-2.2-1 1-1.2 1-.4-2.3-.3-2.5-2.1 1.4c-1 .7-3.5 2-5.4 2.7-2 .5-3.7 1.7-4 2.5l-.4 1.4-4.8.6-4.8.7-5.4-3.7-5.5-3.9-1.6 1-1.5 1-3.4-1.2c-2-.7-3.5-1.8-3.5-2.4-.1-.6-1.1-1.3-2.3-1.6l-2-.6-1.2 5.5-1.1 5.7-1.6-1.4-1.7-1.4-3 3.2-3.1 3.5-1.8-2-1.8-2-2.2.3-2 .3 1.5-1.4 1.4-1.6-7.3-1-7.2-.9-1.7-1.8-1.6-1.8h1c.6-.2-.6-1.2-2.4-2.3-2-1.2-4-2-4.2-1.8-.4.2-2-2.2-3.1-5.4l-2.5-5.8-.7 2.2-1 2-3-3.1-3.2-3.2-.7 2-.8 2-2.1-.8-2.3-.6.7 5.3.8 5.2-1.5 5.9c-1.6 7-2.5 8.3-6.6 11.7l-3.3 2.5-.4 3c-.3 3-2 3.8-3.4 1.6l-1-1.3-1.2.9-1 1-.1-1.2-.2-1.3-2.3.2H449c-.8 0-2 0-3 .3l-1.4.3.3 2.5.4 2.7-4 5.5-4.1 5.4-.6-1.5-.7-1.4-1.6 2.5c-2.3 3.8-2.3 3.6-12-3.6-1-.6-2.4-1.1-3.2-1l-1.2.2-2.1-4c-1.2-2-3.5-4.7-5.1-6l-3-2.4.2-2V645l-2.2-1.6-2.1-1.5-.3-2.2-.3-2.1-1.1 1-1 1.1-2.7-3.5-2.7-3.5-2.5 1.3c-1.3.8-2.7 2-2.8 2.8l-.2 1.6-4.3-4c-2.2-2.3-4.8-4-5.4-4l-1.4.2-.3-2.2-.3-2.2-1.3.2-1.3.2-1.6-3.3-3.7-7.2-2-4.1-.8 2.2-1 2.4-.5-3c-.4-1.5-1-5.2-1.3-8l-.4-5.2-.8 3.1-.7 3.1-1-2.1c-3-6-5.3-12.3-7-18.8l-1.5-6.7-1.8 2.8c-1.6 2.5-4 11.5-3.5 13.3 0 .4-1.3 3.1-3 6l-3.2 5.4-.2 3.8c0 2.1-.8 4.3-1.4 5l-1.1 1 .2 4v3.8l-1.2 2.3c-1.4 2.4-3.4 6.5-6.8 14l-2 4.3-3 1-3 1.2-1.7-1.4-1.7-1.4-.3 1.8c-.3 1.1-1 2-1.5 2.2l-1.2.1-.3-2-.3-2-2.2.5-2.1.5v-5l-2.2.6-2.2.5-3 7.1a92 92 0 0 1-4.6 10.1l-2 3-1.2-.7-1.4-.7.3 2.2.4 2.3-2.6.4-2.5.3-.4-2.9-.4-3-1.8.3-1.7.2-2-4.5-2.1-4.3-.7 1-.7 1-2.8-3.1-2.8-3.2.4-2.4.4-2.5-1.5.2-1.4.2.6-1.4.4-1.6-1-.5-1-.5-1.2-8.9-1.2-9-1 1-.8.8-.3-1.6-.2-1.6-1.4 1.2-1.2 1.2.4-2.6.5-2.6-1.2 1-1.1 1.3-2-1.5-2-1.4-.4 3-.3 3-5.5-1.4a53 53 0 0 0-17-2l-4.6.4-3.2-2.1-3.3-2-3 .4-3 .4v-13.8l-1.8-.9-1.7-1v-12.2l1.3-.2 1.2-.2-1.5-8.5-1.4-8.6.6-1.7c.4-1.1.5-2 .3-2l-2.8-.2-2.2-.2.4 2.8.4 2.8-1 .1-1 .2-1 5.7c-.3 3.2-1.7 7.4-3 9.2l-2 3.6.8 2.6c.4 1.6.3 4.4 0 6.6l-.8 3.8 1.2.8 1.4.7-1.2 1.2-1.3 1.2.4 3 .4 2.8-2 3-2 3.2-4 1.6-3.7 1.6-.5 2.4a13 13 0 0 1-1.8 4.8l-1.3 2.3.8 1 .7 1.2-3.7 1.4-3.8 1.4-1.3-.7c-.7-.4-1.4-1.6-1.5-2.8l-.3-2.2-1.2 1-1.1 1.1-.2-1.5-.3-1.6 1.6-.2 1.6-.2-3.4-1.5-3.4-1.3-1-4-1-4-1.2.2c-.6 0-1 .9-1 1.8l.3 1.4-1.4-.7-1.3-.7.3 3.4c0 2 .4 3.9.6 4.4l.3 1.2-2 .3-1.8.2.3 2.2.3 2.2-1.2.2-1.3.2-.2 3.8-.3 3.7-1.7.3-2 .3-.3 2.2-.4 2.4-2.4.3-2.4.3-.6-3.3-.6-3.3-.3 2.6v2.7l-2.6.4-2.4.3-.5-3.6-.5-3.7-3-2.6-3-2.6-.8-6.5-1-6.4-2-.7-2-.4.3 1.4c.2 1.7-3.7 11.4-5.1 12.3-.5.4-.7 1.6-.5 2.8l.3 2-1.8.3c-1 .1-2.5-.6-3.5-1.6l-1.8-1.9-4.2.8-4.2.7-2.3-1.6-2.2-1.7-.6-4-.7-3.8-1.3 3-1.5 3.3-.2-1.3-.2-1.4-2 3.3c-1 1.8-2.4 4.9-3 6.7l-1 3.6-1-.6-1.2-.6-1 3.6-.7 3.6-3.7.2c-2 0-4 0-4.6.2l-1-.2-.5-4.3-.6-4.2-1.7-.5-1.6-.4-2.8-6.8a99.8 99.8 0 0 0-5.2-11.1l-2.6-4.2-3.8-27.3-5.6-42-2.1-17.3-.5-2.5-2.5.3-2.4.4-1 2.6-.7 2.7-3.2-3.2a18 18 0 0 1-3.4-5.2l-.3-1.9L44 527c-.8.7-4 1.7-7 2.3l-5.7 1-1.7-1.3-1.6-1.6-2-6.8-1.7-6.8-1.4-.5a4.7 4.7 0 0 1-1.6-3c-.1-1.1-2-4.3-4-7.2l-4-5-1.2-4.3c-.6-2.5-1.4-5.2-1.5-6.2l-.4-1.8-1.3.2-1.2.2.2 1.9.3 1.9-2.2 2.4-2.2 2.5.9 6.7c.5 3.6 1 7.8 1 9.1l.2 2.7-1.7.2-1.7.3.3 2 .3 2.2-2.2 1.2-2.3 1.2 1.2-285.8-1.2-5.3-1.1-5.4 2.4-2.8c1.4-1.6 4.2-4.1 6.3-6l3.8-2.9V207c0-3 .2-6.2.6-7.1l.8-2 3.9-1.4c2.2-.9 4.8-2.5 5.8-3.6l1.9-2.1-.3-4.5-.2-4.3 1.2-2 1-1.9 4.8-1.7 4.5-1.7.7-4.3.7-4.3 5.4-1.8 5.4-1.6-.3-2.2c-.2-1.2.3-3 1-4.4l1.6-2.1 3.5-1.1c2-.4 3.8-1.4 4-2s3-1.8 5.9-2.8l5.2-1.7 8-5.7 7.8-5.8 3.8-.2 4-.2 1.9-3.5 1.9-3.2-.2-4.8-.3-4.7 2-1.8 2-1.8 5-1a47.8 47.8 0 0 0 18-7.6l1.2-1.7 5.8-.8 5.7-.8 4.4-4.5 4.2-4.5 1 1c.6.8 2 1.3 3.5 1.4l2.3.1 3.5-2 3.2-2.3-.4-1.5-.5-1.4 3.5-3 3.4-3 2-5.6 4-9.6 2-4.1 1.8-.3c1-.1 2.6.3 3.7.7Z"/><path d="M355.4 339.6h-.1c-.2 0-.6.1-.8.3-.2.2-.4.5-.4.8q-.4 17.6 0 26.3l.3 1c.3.2.7.4 1 .4a416.1 416.1 0 0 0 33.2 0c.4-.1.7-.2.9-.4q.4-.6.4-1c.5-8.7.5-17.5 0-26.1 0-.4-.1-.8-.4-1q-.2-.3-.9-.3c-5.5-.4-11-.4-16.6-.4-5.5 0-11.1.1-16.6.4Zm-7.6.9c.2-4 3.3-7.2 7.3-7.4 5.6-.2 11.3-.3 16.9-.3h.1l16.9.3c3.9.3 7.1 3.3 7.3 7.3.4 9 .4 18 0 27-.2 4-3.3 7.1-7.3 7.3-5.7.2-11.4.4-16.9.4h-.1c-5.7 0-11.3-.2-16.9-.4-4-.2-7.1-3.3-7.3-7.3-.5-8.9-.5-17.9 0-26.9Zm208.4 64.1a6 6 0 0 0 .8-2.7v-6.5a7 7 0 0 0-6.5-6.5H514V428h39.5c3.5-.2 6.3-3 6.4-6.5v-11.2c0-2.4-1.5-4.6-3.6-5.7Zm-6-11a2 2 0 0 1 1.5.6c.4.4.6.9.7 1.4v6.1c0 .6-.3 1-.7 1.5a2 2 0 0 1-1.4.6h-31.8v-10.3h31.8Zm5 27.7a2 2 0 0 1-2 2.1h-34.7v-15h34.6c.6 0 1.1.3 1.5.6.4.4.6 1 .6 1.5Zm-48.8-27.8V389h-36.8v39h36.8v-4.6h-32.2v-12.6h32.2v-4.6h-32.2v-12.7Zm-47-4.6-15.9 34.5-15.8-34.5h-5.1l-15.8 34.5L391 389h-5l17.8 39.1h6l15.4-33.5 15.3 33.5h6l18-39h-5.2Zm-102 4.6V389h-36.8v39h36.8v-4.6h-32.2v-12.6h32.2v-4.6h-32.2v-12.7Zm-50.3-4.5v17.2h-36.8v-17.3h-4.6V428h4.6v-17.2h36.8V428h4.6v-39Zm-46.7 0h-36.8v4.5h16V428h4.7v-34.5h16.1Zm-96.1 39v-17.2h29.3v-4.6h-29.3v-12.7h32.2V389h-36.8v39Zm-36.6-35.2c5.5 0 11.1.1 16.6.4.6 0 1.1.3 1.5.6.4.4.6 1 .7 1.5.4 8.7.4 17.6 0 26.4 0 .5-.3 1-.7 1.4a2 2 0 0 1-1.5.7c-11 .6-22.2.6-33.3 0-.5 0-1-.3-1.5-.7-.4-.4-.6-1-.6-1.4-.4-8.8-.4-17.7 0-26.4 0-.6.2-1 .6-1.5.4-.3 1-.6 1.5-.6 5.5-.3 11.1-.4 16.7-.4Zm-16.9-4.2a7 7 0 0 0-6.5 6.5c-.5 9-.5 17.9 0 26.8.2 3.5 3 6.3 6.5 6.4 11.3.6 22.5.6 33.8 0 3.5 0 6.3-3 6.5-6.4.4-9 .4-17.9 0-26.8a7 7 0 0 0-6.5-6.5c-11.3-.6-22.5-.6-33.8 0ZM505.7 361c0-.7-.2-1.3-1.4-1.3h-6.4c-.8 0-1.1.6-1.1 1.2v6.4c0 .3.1.6.4.9q.2.2.7.3h6.5c.3 0 .6-.1.8-.3.4-.3.4-.6.4-.9m-7.9 7.6a7.7 7.7 0 0 1-7.3-7.3v-6.9c.2-4 3.4-7.2 7.4-7.4h6.9c4 .3 7.1 3.3 7.3 7.3v7a7.6 7.6 0 0 1-7.3 7.3h-7Zm-39.2-33.5c.2-4 3.4-7.2 7.4-7.4h6.9c3.9.3 7.1 3.3 7.3 7.3v7c-.3 4-3.3 7.2-7.3 7.4h-7a7.8 7.8 0 0 1-7.3-7.4v-6.9Zm5.4.2v6.5c0 .4.2 1 .6 1.4s1 .6 1.5.6h6.4c.5 0 1-.2 1.4-.6.4-.4.7-.9.7-1.4v-6.5c0-.5-.3-1-.7-1.4s-.9-.7-1.4-.7H466a3 3 0 0 0-1.5.7 2 2 0 0 0-.6 1.4Zm49.6-7.6-46.8 40.9H457l46.8-40.9h9.7Zm-103.3 5.6h-.1c-.2 0-.6.1-.8.3-.2.2-.4.5-.4.8q-.4 17.6 0 26.3l.3 1c.3.2.7.4 1 .4a416.1 416.1 0 0 0 33.2 0c.4-.1.7-.2.9-.4q.4-.6.4-1c.5-8.7.5-17.5 0-26.1 0-.4-.1-.8-.4-1q-.2-.3-.9-.3c-5.5-.4-11-.4-16.6-.4-5.5 0-11.1.1-16.6.4Zm-7.6.9c.2-4 3.3-7.2 7.3-7.4 5.6-.2 11.3-.3 16.9-.3h.1l16.9.3c3.9.3 7.1 3.3 7.3 7.3.4 9 .4 18 0 27-.2 4-3.3 7.1-7.3 7.3-5.7.2-11.4.4-16.9.4h-.1c-5.7 0-11.3-.2-16.9-.4-4-.2-7.1-3.3-7.3-7.3-.5-8.9-.5-17.9 0-26.9Zm-82.4 4.9 12.6-11.6h7.6v41H334l.1-33.4-4.4 4h-9.5ZM244.4 334h9l32.5 34.6v-34.5h6.4V375h-9.4l-32.1-34.6V375h-6.4m133.9-94.9h9l32.5 34.6v-34.5h6.4v40.9h-9.4l-32.1-34.6v34.6h-6.4m-143.1 54-3.8-8.8h-28.2l-3.9 8.8h-6.5l17.5-40.1H224l17.8 40-6.6.1Zm-7.3-14.6-9-19.6-4.2-.2-7.9 19.8H228Zm-44.5 14.6.1-17.2h-35.1l.1 17.2H142v-40.9h6.5l-.1 17.3h35v-17.3h6.4v41h-6.4Zm-44.8-34.6h-16.2l.1 34.4H116v-34.4l-16-.1V334h38.6m-15-31.2c-3.5-.2-6.4-3-6.4-6.5V287c.2-3.4 3-6.2 6.5-6.4 11-.6 21.9-.6 32.8 0 3.5.2 6.3 3 6.5 6.4l.1 3.7h-4.7v-3.4a3 3 0 0 0-.7-1.5 2 2 0 0 0-1.5-.6 311 311 0 0 0-32.3 0 2 2 0 0 0-2 2.1l-.2 3.4v5.4c0 .5.2 1 .6 1.4.5.4 1 .7 1.5.7h32.8c3.5.2 6.2 3 6.4 6.4v9.3a7 7 0 0 1-6.5 6.5c-11 .4-21.9.4-32.8 0a7 7 0 0 1-6.5-6.5l-.1-3.6h4.6l.1 3.4c.1.5.3 1 .7 1.4.4.4.9.7 1.4.7 10.8.6 21.6.6 32.4 0 .5 0 1-.3 1.4-.7.4-.4.6-.9.6-1.4l.2-3.4v-5.4c0-.5-.2-1.1-.6-1.5-.5-.4-1-.6-1.5-.6h-32.8Zm113.5 6.7h6.5l-.1 4.6c-.2 3.9-3.3 7-7.2 7.3-5.8.3-11.4.3-17 .3a472 472 0 0 1-17-.3c-3.9-.2-7-3.3-7.3-7.3-.5-8.9-.5-17.9 0-26.9.2-4 3.4-7.2 7.4-7.4a320.8 320.8 0 0 1 33.8 0c4 .2 7 3.4 7.3 7.4l.2 3.6v1h-6.5v-4.2c-.1-.5-.2-.8-.4-1-.3-.2-.6-.4-1-.4-5.5-.2-11-.4-16.5-.4s-11.1.2-16.6.4c-.4 0-.7.2-1 .4-.2.2-.3.5-.3.8q-.5 17.6 0 26.4c0 .3 0 .6.3.8l.8.4a310.2 310.2 0 0 0 33.2.1q1.4 0 1.4-1.4M109 320v-39h-4.6v39Zm367.5-88.4V227h-36.8v39h36.8v-4.6h-32.2v-12.6h32.2v-4.6h-32.2v-12.7h32.2ZM399.9 249h25c.6 0 1 .2 1.5.6.3.4.6.9.6 1.5v5.3l-.1 3.4c-.1.5-.3 1-.7 1.4a2 2 0 0 1-1.5.7c-11 .6-22.2.6-33.3 0-.5 0-1.1-.3-1.5-.7s-.6-1-.6-1.4c-.5-8.8-.5-17.7 0-26.4 0-.6.2-1 .6-1.5.4-.3 1-.6 1.5-.6 11.1-.4 22.2-.4 33.3 0 .6 0 1 .3 1.5.6.4.4.6 1 .7 1.5v3.4h4.7l-.2-3.6c-.1-3.5-3-6.3-6.4-6.5-11.3-.6-22.5-.6-33.8 0a7 7 0 0 0-6.5 6.5c-.5 9-.5 17.9 0 26.8.2 3.5 3 6.3 6.5 6.4 11.3.6 22.5.6 33.8 0 3.5 0 6.3-3 6.4-6.4l.2-3.6v-5.6c-.2-3.5-3-6.3-6.5-6.4H400v4.6Zm-24.5 17.1h5l-17.9-39h-10.2l-17.9 39h5l4-8.4h28.1Zm-30-13 9.9-21.5h4.2l9.9 21.5Zm-10.1-19.7a7 7 0 0 0-6.5-6.5h-39.5V266h4.6v-14.9h34.9c3.5-.1 6.3-3 6.5-6.5ZM330 246c-.4.4-1 .6-1.5.6h-34.7v-15h34.7c.5 0 1 .3 1.5.7.4.4.6.9.6 1.4v10.8c0 .6-.2 1-.6 1.5Zm-80.2 2.8c.5 0 1 .2 1.5.6.4.4.6 1 .6 1.4v5.5l-.2 3.4c0 .5-.2 1-.6 1.4a2 2 0 0 1-1.4.7 311 311 0 0 1-32.4 0 2 2 0 0 1-1.4-.7c-.4-.4-.6-.9-.7-1.4v-3.4h-4.7l.1 3.6a7 7 0 0 0 6.5 6.5c11 .4 21.9.4 32.8 0a7 7 0 0 0 6.5-6.5v-9.3c0-3.4-2.9-6.3-6.4-6.4h-32.8c-.5 0-1-.3-1.5-.7a2 2 0 0 1-.6-1.4v-5.4l.2-3.4a2 2 0 0 1 2-2.1 311 311 0 0 1 32.4 0c.5 0 1 .2 1.4.6s.6 1 .7 1.5v3.4h4.7l-.1-3.7c-.2-3.4-3-6.2-6.5-6.4a299 299 0 0 0-32.8 0 7 7 0 0 0-6.5 6.4v9.3c0 3.5 2.9 6.3 6.4 6.5ZM202.4 266v-39h-4.6v39Zm-18.1-39v17.2h-36.8v-17.3H143V266h4.5v-17.2h36.8V266h4.6v-39Zm-46.7 0h-36.8v4.5h16V266h4.7v-34.5h16.1Zm339.7 94.1v-41h37.5c3.9.2 7.1 3.3 7.3 7.3v11.3c-.2 4-3.3 7.1-7.3 7.3h-9.6l21.6 15.1h-11.1l-22-15.1h-10v15.1h-6.4Zm38-34.3c-.2-.2-.5-.4-.8-.4l-31 .1v13.2h30.9c.4 0 .7-.2.9-.4.3-.3.4-.6.4-.9v-10.7m-163.3-1.2h-3l-9 19.7h21.1l-9-19.7Zm15.9 34.6-3.9-8.5h-27l-4 8.5h-7l18.8-41h11.1l18.9 41h-7Zm-75.6-23.7H325v6.4h-32.3v10.9H325v6.4h-38.7v-41H325v6.5l-32.3-.1v10.9Zm146.8 0h32.3v6.4h-32.3v10.9h32.3v6.4h-38.7v-41h38.7v6.5l-32.3-.1v10.9Zm-184.2-17.3v34.6h27.6v6.4h-34v-41"/><text fill="#fff" stroke-width="0" dx="0" dy="0" font-family="arial" font-size="22" font-weight="400" transform="translate(104.4 477.5)"><tspan y="0">worldsfastest.com has already </tspan><tspan y="0" font-weight="700">removed over</tspan><tspan x="0" y="22" font-weight="700">1,000,000 pounds of CO2 </tspan><tspan y="22">from the atmosphere.</tspan></text></svg>