<svg width="428" height="627" fill="none" xmlns="http://www.w3.org/2000/svg"><path d="m104.4 55.7 8.3 3 6.5 2.6h4c2.4 0 4.7.3 5.5.7.8.6 3.2 1.3 5.4 1.8l4 1.2 3.7-.6 3.8-.5-1.4 1.5-1.5 1.5 1.4-.2 1.4-.2-.5 1.3-.4 1.4 1.4-.1 5.4-.4 4-.2-.6-1-.7-1 3.2-.4 3.4-.5.3 2.6.4 2.5 1-.2c.6 0 1.1-.8 1-1.4v-2.6c0-.6.5-2 1-3 .7-.8 1.1-2.2 1-3l-.2-1.5 1.9-.3c1-.2 4.1 0 7 .6 2.8.5 5.8.8 6.7.7l8.9-.7 7.2-.5.3-2.6c.3-1.6.4-3 .3-3.4 0-.4 1.2-2 2.6-3.8l2.5-3.2 4 2a56.9 56.9 0 0 0 19 6.2l1.8-.2 6.1 2.8 6.2 3h6.9l6.8-.1-1.2 1-1 1.1 4.4 1.7L260 65l4-.6 4-.5 1.1 2.8 1 2.7 1.6.5 1.6.4-.2-1.8-.3-1.9 1.3-.1c.8 0 3 .5 5 1.2l3.4 1.2-1.6.3-1.6.4 1.8 1 1.8 1-2.7.4-2.6.4 2.6 1.7 2.7 1.5 4.7-.1a21 21 0 0 1 6.5.3l2 .6-.3 1.1-.4 1.2 2 .4c1.2.3 4 .4 6.4.4l4.3-.2 6.3 2.8 10.2 4.6 4 1.6.2 1.9.3 1.9 2.8.4 2.8.3.2 1.2c0 .6.7 1 1.3 1 1.4-.3 4 2 5.3 4.6l1 2.1 5.4-.7 5.4-.8.3 1.9.2 1.9 1.1-.2 1-.1.5 3.1.5 3.2 2.7-.4 2.6-.4-.2-1.5-.2-1.4 2.5 2 2.5 2-.2-1.4-.2-1.5 1.6-.3 1.6-.2-.2-1.9-.3-2 1.7-1c1-.7 2-1.7 2.4-2.5l.7-1.5.2 1.5.2 1.6 3.1-.4 3.2-.4.2-1.5.1-1.3 4 5.2 3.9 5.4.7-1 1-.7.1 1.7.3 1.6.8-2 .8-2 1.3 1.7 1.4 1.7-.3-1.9-.2-1.7 1.4 1.2 1.2 1 6-5.9c3.2-3.4 6.4-7 6.9-8.1l.9-2 5.8-1 5.8-1 2.7 2.3c1.6 1.3 3 3 3 3.8.2.8.7 1.5 1.2 1.5.5-.1 1 .6 1.3 1.3.9 4.2 3 9 4.4 10.7a95.8 95.8 0 0 1 8.5 17.8l1.6 4.2 3.7 25.2 3.8 25.2 1.8 1.8 1.8 1.9 1.8-.9 2-1 3.6 1.6c2 1 3.7 2.2 3.8 2.8 0 .7 1 1.8 2 2.8l1.9 1.7 1.5 5.3c.7 3 2 10 2.7 16l1.2 10.6-.7 1.5-.8 1.5.1 6.6.3 6.6 1-.1 1-.2 1.2 6.5 1.7 12 .9 5 2.6-.7c1.4-.3 2.7-.9 2.8-1.1.2-.3 1-2.8 1.6-5.6l1.6-5 1 .3 1.2.3 3.4-3.4 3.2-3.5 3.1 1.7c4.3 2.5 6.1 4.3 6.4 6.4l.3 2 1-.1c.6-.1 1.3-.8 1.5-1.5.2-.8 1-1.4 1.4-1.5h.8l.7 4.3.8 4.4 1.5 2.3c.8 1.3 3.2 8.3 5.4 15.4l4 13.1 1 .6 1.2.6.5 6.9.5 6.7 1 1.3a22 22 0 0 1 1.9 5.7l3 13c2.4 9.7 2.7 12.7 3.7 32.8l.6 14 2.8 12.8c1.5 7 2.6 13 2.4 13.3-.6.8.3 9.9 3.2 36.7 1.4 12.5 2.7 24.3 2.6 26.5v8.3l.5 14.7c.2 5.6.5 12.8.5 16.2v6.1l-.7.1-.7.1.3 7.6.3 7.7-1 .1-1.1.2.4 3.1.5 3.1-3.9 3a31 31 0 0 0-5 5.2l-1.5 2-3.9-1.5c-2.2-.9-4.4-2-4.9-2.8l-1-1.1.1 1c.1.6-1.6-.4-3.6-2.3l-3.9-3.3-2.6 1.6-2.6 1.7-.7-.7-.6-.6 1-.1c.5-.2-1.1-.7-3.6-1.4l-4.6-1.2-2.4 3.7-2.5 3.7-1.8-1.3-1.7-1.3-.4 3c-.2 1.7-.8 3.8-1.3 4.8l-.8 1.8-2.3-2-2.3-1.8.1 1.8.3 1.8-1.5-2.8-1.4-2.7-.9.9-1 .7-2.4-3.5-2.5-3.4-.3 2.2-.5 2.3-1.7-4.2-1.7-4.2.3 2.7.3 3h-1l-1 .2-.8-2.7-1-2.5-1.6 1.8-1.3 1.9-.9-.6-.8-.8-1.3 1.6-1.2 1.5.4 3.2.5 3-2.5-1-2.5-1.3-1.1 2.6c-.6 1.4-1.2 3-1 3.5v1l-1.1-.6-1.2-.6.2 1.3.2 1.3-3 .5c-3 .4-6-.7-6.2-2.3l-.3-2.7-.2-2-1 1-1 .9-.3-2-.3-2.2-1.8 1.2c-.9.6-3 1.7-4.6 2.3-1.6.5-3 1.5-3.3 2.1l-.4 1.2-4.1.6-4 .6-4.7-3.2-4.8-3.3-1.3.8-1.3.8-2.9-1c-1.6-.5-3-1.5-3-2s-1-1.1-2-1.4l-1.7-.5-1 4.7-1 4.9-1.3-1.2-1.4-1.2-2.6 2.8-2.6 2.9-1.6-1.7-1.5-1.7-1.9.2-1.7.3 1.3-1.2 1.2-1.3-6.2-.8-6.2-.8-1.4-1.6-1.4-1.5.8-.1c.6-.1-.4-1-2-2-1.7-1-3.3-1.6-3.6-1.5-.3.2-1.6-1.8-2.6-4.6l-2.2-5-.6 2-.7 1.7-2.7-2.7-2.7-2.7-.6 1.6-.7 1.8-1.8-.6-2-.5.7 4.5.6 4.4-1.3 5c-1.4 6-2 7-5.6 10l-2.8 2.2-.3 2.5c-.3 2.6-1.6 3.3-3 1.4l-.8-1.2-1 .8-.9.9-.1-1-.2-1.1-2 .1h-2.9c-.7 0-1.7 0-2.5.3l-1.3.3.3 2.1.4 2.3-3.5 4.7-3.5 4.5-.5-1.2-.6-1.2-1.3 2.1c-2 3.3-2 3.1-10.4-3-.8-.5-2-1-2.6-.9l-1 .1-1.9-3.3c-1-1.8-3-4-4.3-5.1l-2.5-2.1.1-1.7v-1.5l-1.8-1.4-1.9-1.3-.2-2-.3-1.7-1 1-.8.8-2.3-3-2.3-3-2.1 1.2c-1.1.7-2.3 1.7-2.4 2.4l-.2 1.3-3.7-3.5c-1.9-1.9-4-3.4-4.6-3.3l-1.2.2-.2-2-.3-1.8-1 .2-1.2.1-1.3-2.7-3.2-6.3-1.7-3.4-.7 1.9-.8 2-.5-2.5-1-6.9-.5-4.4-.6 2.6-.6 2.7-.8-1.8c-.4-1-1.5-3.8-2.6-6-1-2.5-2.5-7-3.3-10.1l-1.4-5.7-1.6 2.4a29.5 29.5 0 0 0-3 11.3c0 .4-1 2.7-2.6 5.2l-2.6 4.6-.2 3.2c-.1 1.8-.7 3.7-1.2 4.3l-1 .9.2 3.3.1 3.3-1.1 2c-1.2 2-3 5.5-5.9 12l-1.6 3.6-2.6.9-2.6 1-1.4-1.2-1.4-1.2-.3 1.5c-.3 1-.8 1.8-1.3 1.9l-1 .1-.2-1.7-.3-1.8-1.9.5-1.8.4v-4.2l-1.8.5-2 .4-2.4 6a88.8 88.8 0 0 1-4 8.7l-1.7 2.5-1-.6-1.3-.6.3 2 .3 2-2.2.2-2.1.3-.4-2.5-.3-2.5-1.5.2-1.5.2-1.8-3.8-1.7-3.8-.6.9-.6.8-2.4-2.6-2.4-2.7.3-2.1.4-2.1-1.3.2-1.2.1.5-1.2.4-1.3-.8-.4-1-.5-1-7.6-1-7.6-.8.7-.7.8-.2-1.4-.2-1.4-1.2 1-1 1.1.3-2.2.4-2.2-1 .9-1 1-1.7-1.3-1.6-1.2-.4 2.6-.3 2.6-4.7-1.2c-5.9-1.5-9.4-2-14.5-1.7l-4 .3-2.7-1.8-2.7-1.7-2.6.4-2.5.3v-5.9l-.1-5.8-1.6-.8-1.4-.9v-10.5l1.2-.1 1-.2-1.3-7.2-1.2-7.4.5-1.5c.3-.9.5-1.6.2-1.7l-2.3-.1-1.9-.2.3 2.4.4 2.4-.9.1-.9.1-.7 4.9c-.4 2.7-1.5 6.3-2.5 7.9l-1.8 3 .6 2.3c.3 1.3.2 3.8 0 5.6l-.7 3.3 1 .6 1.3.6-1.1 1-1 1.1.3 2.5.3 2.4-1.7 2.7-1.7 2.6-3.3 1.4-3.3 1.3-.4 2.2c-.2 1.3-1 3-1.5 4l-1.2 2 .7.9.7 1-3.3 1.1-3.2 1.3-1-.7c-.7-.3-1.3-1.3-1.4-2.3l-.3-2-1 1-1 .9v-1.3l-.3-1.3 1.3-.2 1.4-.2-3-1.3-2.8-1.1-.8-3.5-.8-3.3-1.1.1c-.5.1-.9.8-.8 1.5l.2 1.3-1.2-.6-1.2-.6.3 2.9c.1 1.6.4 3.3.6 3.8l.2 1-1.6.2-1.6.2.2 1.9.3 1.9-1 .1-1.2.2-.2 3.2-.2 3.2-1.5.2-1.6.3-.3 2-.4 1.9-2 .3-2 .3-.6-3-.5-2.7-.2 2.3-.1 2.3-2.2.3-2 .3-.5-3.2-.4-3.1-2.5-2.2-2.5-2.2-.8-5.6-.7-5.5-1.8-.5-1.7-.4.2 1.2c.2 1.4-3.2 9.7-4.4 10.5-.4.3-.5 1.4-.4 2.4l.2 1.7-1.5.2c-.7.1-2.1-.4-2.9-1.4l-1.5-1.5-3.7.6-3.5.6-2-1.4-2-1.4-.4-3.3-.6-3.3L46 539l-1.3 2.7-.2-1-.1-1.2-1.7 2.8c-.9 1.5-2 4.1-2.5 5.7l-.9 3-1-.4-.9-.6-.8 3.1-.7 3-3.1.2-4 .2-.7-.2-.5-3.6-.6-3.6-1.4-.5-1.4-.3-2.4-5.8a95.8 95.8 0 0 0-4.5-9.5l-2.1-3.5-3.3-23.4c-1.7-12.8-3.9-28.9-4.7-35.8l-1.9-14.8-.4-2.1-2.1.3-2 .2-.9 2.3-.6 2.3-2.7-2.7a15.3 15.3 0 0 1-3-4.5l-.2-1.6-1.1 1c-.7.7-3.4 1.6-6 2l-4.8 1-1.5-1.2-1.4-1.4-1.6-5.8-1.6-5.8-1.1-.4a4 4 0 0 1-1.4-2.5c-.1-1-1.7-3.8-3.5-6.2l-3.3-4.3-1-3.7-1.4-5.3-.3-1.5-1 .2-1.1.1.2 1.7.2 1.6-1.9 2-1.9 2.2.8 5.7.9 7.8.2 2.3-1.5.2-1.4.2.2 1.7.3 2-2 1-2 1v3.7c0 2.2-.8 6.8-1.5 10.2l-1.3 6.2-2.4 1.7-2.3 1.8-3.3-3.3-3.4-3-.3-2-.2-1.9-1.1.2-1 .1-.4-1.8-.2-2-1 .2-1.3.2-2.4 6.7a24.4 24.4 0 0 1-3.3 6.9c-.4 0-1 1.5-1.5 3.4l-.8 3.3-1.6.2-1.7.3.3 1.8.3 2-2.2.2-2.1.3-.4-2.2c-.1-1.3-1.2-3.3-2.2-4.7l-2-2.4-2.5-9c-1.4-5-3-10.3-4-11.7l-1.5-2.5.3-3.3.2-3.2-1.3-.3-1.5-.4-.4-5.2-1-11c-.3-3.2-.3-5.7 0-5.8.3 0-1.3-13.8-3.5-30.6a1238.8 1238.8 0 0 1-6.1-54c-.7-4.8 2-21.8 3.7-22 .3-.1.8-1.8.9-3.9l.2-3.6 2.2-3.1c1.3-1.6 2.2-3.7 2-4.4 0-.8 1-3.2 2.6-5.6l2.7-4.2.2 1.5.2 1.4 1.9-1.7 2-1.6.3-2.8c.1-1.7.9-4.1 1.7-5.5l1.4-2.4.8 1.3 1 1.3.3-3.3.2-3.3 2-1 2.1-1.1-.2-1.4-.2-1.4.9.7.7.8 1.4-1.6 1.2-1.6.2 1.4.1 1.3 1.8-.2 1.8-.3 1.6-3 1.6-2.9-.3-2.4-.3-2.2 2-.3 2-.3-.5-3.1-.4-3.2 3-4 2.8-3.8-.9-4.8-.7-4.7 2.3-2.4c1.2-1.4 3.3-4.3 4.6-6.4l2.4-4-1.3-3.8a23 23 0 0 1-1.2-6.4v-2.2l1-.1c.6 0 2.6-1.6 4.5-3.6l3.4-3.3-1-4.6-1-4.6 2.2-2.3c1-1.4 3.5-3.6 5.3-5.1l3.3-2.5v-4.5c0-2.5.1-5.3.5-6l.6-1.7 3.4-1.2c1.8-.8 4-2.1 5-3.1l1.5-1.8-.2-3.8-.2-3.7 1-1.7 1-1.6 4-1.5 3.8-1.4.6-3.7.6-3.7 4.6-1.5 4.7-1.4-.3-1.9a7 7 0 0 1 1-3.7l1.2-1.8 3-1c1.7-.4 3.3-1.2 3.5-1.8.3-.4 2.5-1.4 5-2.3l4.4-1.4 6.8-4.9 6.7-4.9 3.2-.2 3.4-.2 1.7-3 1.6-2.7-.2-4.1-.2-4 1.8-1.6 1.6-1.5 4.3-.8a40.8 40.8 0 0 0 15.5-6.6L59 90l5-.6 4.8-.7 3.7-3.9 3.7-3.8.8.9c.5.6 1.7 1 3 1.1l2 .1 2.9-1.8 2.8-2-.4-1.1-.4-1.3 3-2.6 2.9-2.5 1.7-4.8 3.5-8.1 1.7-3.6 1.4-.2c.9-.1 2.2.2 3.2.6Z" fill="#F3C010"/><path d="M46.1 340.5h2.6l1.3 5.3 1 4.7h.2l1.3-4.7 1.5-5.3h2.3l1.6 5.3 1.3 4.7 1.2-4.7 1.3-5.3H64L60.7 353h-3l-1.6-5.7-1-3.5-1 3.5-1.7 5.7h-2.8L46 340.5Zm25.2 12.8a6 6 0 0 1-2.4-.5 5 5 0 0 1-1.8-1.3c-.5-.5-.9-1.2-1.1-2-.3-.8-.4-1.7-.4-2.7 0-1 .1-2 .4-2.7.2-.8.6-1.5 1.1-2a5 5 0 0 1 1.8-1.4 6 6 0 0 1 2.4-.5c.9 0 1.6.2 2.4.5.7.3 1.3.7 1.8 1.3.5.6.9 1.3 1.1 2 .3.9.4 1.8.4 2.8 0 1-.1 1.9-.4 2.7-.2.8-.6 1.5-1.1 2a5 5 0 0 1-1.8 1.3c-.8.3-1.5.5-2.4.5Zm0-2.2a3 3 0 0 0 2.2-.8c.5-.5.8-1.4.8-2.5v-2.1c0-1.1-.3-2-.8-2.5-.6-.5-1.3-.8-2.2-.8-.9 0-1.6.3-2.2.8-.5.6-.8 1.4-.8 2.5v2.1c0 1.1.3 2 .8 2.5a3 3 0 0 0 2.2.8ZM80 353v-12.5h2.6v2.4c.3-.6.6-1.2 1.2-1.7.6-.4 1.3-.7 2.3-.7h.7v2.5h-1c-1 0-1.9.2-2.4.5-.6.4-.8.9-.8 1.5v8H80Zm11.8 0c-.9 0-1.6-.2-2-.7-.4-.4-.7-1-.7-1.9v-15.2h2.7V351h1.7v2.1h-1.7Zm12-2c-.4.7-.8 1.2-1.4 1.7-.6.4-1.4.6-2.2.6-1.6 0-2.8-.6-3.7-1.7a7.9 7.9 0 0 1-1.3-4.8c0-2.1.5-3.7 1.3-4.8.9-1.2 2.1-1.8 3.7-1.8.8 0 1.6.2 2.2.7.6.4 1 1 1.3 1.7h.1v-7.4h2.6V353h-2.6v-2Zm-2.8 0c.8 0 1.5-.2 2-.5.6-.4.8-1 .8-1.6v-4.3c0-.6-.2-1.1-.8-1.5-.5-.4-1.2-.6-2-.6-1 0-1.6.3-2.2.9-.5.6-.8 1.3-.8 2.3v2.1c0 1 .3 1.8.8 2.4.6.5 1.3.8 2.2.8Zm13.1 2.3c-1.1 0-2.1-.2-3-.6-.7-.5-1.4-1-2-1.8l1.7-1.5a4.2 4.2 0 0 0 3.5 1.8c.8 0 1.3-.2 1.7-.5.4-.3.6-.7.6-1.2 0-.4-.2-.7-.4-1-.3-.3-.8-.5-1.4-.6l-1.2-.1a6 6 0 0 1-3-1.1c-.7-.6-1-1.5-1-2.6 0-.6 0-1.2.3-1.6.2-.5.5-1 1-1.2.3-.4.8-.6 1.4-.8.5-.2 1.2-.3 1.9-.3 1 0 2 .2 2.7.6.7.3 1.4.8 2 1.4l-1.7 1.6a4 4 0 0 0-1.3-1c-.5-.3-1-.5-1.7-.5-.8 0-1.3.2-1.6.5-.4.3-.5.6-.5 1.1 0 .5.1.8.4 1 .3.3.8.5 1.5.6l1.1.2c1.4.2 2.4.6 3 1.2.7.6 1 1.4 1 2.4 0 .6-.1 1.1-.4 1.6-.2.5-.5 1-1 1.3l-1.5.8c-.6.2-1.3.3-2 .3Zm8.5-10.6h-1.9v-2.2h1.9v-2c0-1 .3-1.8.8-2.4.5-.6 1.3-.9 2.4-.9h2v2.2h-2.6v3.1h2.6v2.2h-2.6V353h-2.6v-10.3Zm16.7 10.3c-.7 0-1.3-.2-1.6-.6-.4-.4-.6-.9-.7-1.5h-.1a3 3 0 0 1-1.3 1.8c-.7.4-1.5.6-2.4.6-1.3 0-2.3-.3-3-1-.7-.7-1-1.6-1-2.7 0-1.3.4-2.2 1.3-2.8a7 7 0 0 1 4-1h2.3v-1c0-.8-.2-1.4-.6-1.8-.5-.4-1.1-.6-2-.6-.7 0-1.3.1-1.8.4l-1.2 1.3-1.5-1.4c.4-.7 1-1.3 1.7-1.8.8-.4 1.8-.7 3-.7 1.6 0 2.8.4 3.7 1.2.9.7 1.3 1.8 1.3 3.2v6.3h1.3v2.1h-1.4Zm-5.3-1.7c.8 0 1.5-.2 2-.5.5-.4.8-.9.8-1.5v-1.8h-2.2c-1.8 0-2.7.6-2.7 1.7v.4c0 .6.1 1 .5 1.3.4.3 1 .4 1.6.4Zm13.2 2c-1.1 0-2.1-.2-3-.6-.7-.5-1.4-1-2-1.8l1.7-1.5a4.2 4.2 0 0 0 3.5 1.8c.8 0 1.3-.2 1.7-.5.4-.3.6-.7.6-1.2 0-.4-.2-.7-.4-1-.3-.3-.8-.5-1.4-.6l-1.2-.1a6 6 0 0 1-3-1.1c-.7-.6-1-1.5-1-2.6 0-.6 0-1.2.3-1.6.2-.5.5-1 .9-1.2.4-.4 1-.6 1.5-.8.5-.2 1.2-.3 1.9-.3 1 0 2 .2 2.7.6.7.3 1.4.8 2 1.4l-1.7 1.6a4 4 0 0 0-1.3-1c-.5-.3-1-.5-1.7-.5-.8 0-1.3.2-1.6.5-.4.3-.5.6-.5 1.1 0 .5.1.8.4 1 .3.3.8.5 1.5.6l1.1.2c1.4.2 2.4.6 3 1.2.7.6 1 1.4 1 2.4 0 .6-.1 1.1-.4 1.6-.2.5-.5 1-1 1.3l-1.5.8c-.6.2-1.3.3-2 .3Zm11.2-.3c-.9 0-1.6-.2-2-.7-.5-.5-.7-1.1-.7-2v-7.6h-2v-2.2h1c.5 0 .8 0 1-.3l.2-.9v-2.2h2.4v3.4h2.6v2.2h-2.6v8.2h2.4v2.1h-2.3Zm10.1.3a6 6 0 0 1-2.4-.5 5 5 0 0 1-1.8-1.3c-.5-.5-.8-1.2-1.1-2a9 9 0 0 1-.4-2.7c0-1 .1-2 .4-2.7.3-.8.6-1.5 1.1-2a5 5 0 0 1 1.8-1.4 6 6 0 0 1 2.4-.5c1 0 1.8.2 2.4.5.7.3 1.3.8 1.8 1.4.5.5.8 1.2 1 2 .3.7.4 1.5.4 2.3v1h-8.6v.4c0 1 .3 1.8.9 2.4.5.6 1.3 1 2.4 1 .8 0 1.4-.2 2-.6.5-.3 1-.8 1.3-1.3l1.5 1.5a5 5 0 0 1-2 1.8c-.9.5-1.9.7-3 .7Zm0-11c-.4 0-.8 0-1.2.2l-1 .7-.6 1-.2 1.3v.2h5.8v-.2c0-1-.2-1.8-.7-2.3-.5-.6-1.2-1-2-1Zm12.4 11c-1.1 0-2.1-.2-3-.6-.7-.5-1.4-1-2-1.8l1.7-1.5a4.2 4.2 0 0 0 3.5 1.8c.8 0 1.3-.2 1.7-.5.4-.3.6-.7.6-1.2 0-.4-.2-.7-.4-1-.3-.3-.8-.5-1.4-.6l-1.2-.1a6 6 0 0 1-3-1.1c-.7-.6-1-1.5-1-2.6 0-.6 0-1.2.3-1.6.2-.5.5-1 1-1.2.3-.4.8-.6 1.4-.8.5-.2 1.2-.3 1.9-.3 1 0 2 .2 2.7.6.7.3 1.4.8 2 1.4l-1.7 1.6a4 4 0 0 0-1.3-1c-.5-.3-1-.5-1.7-.5-.8 0-1.3.2-1.6.5-.4.3-.5.6-.5 1.1 0 .5.1.8.4 1 .3.3.8.5 1.5.6l1.1.2c1.4.2 2.4.6 3 1.2.7.6 1 1.4 1 2.4 0 .6-.1 1.1-.4 1.6-.2.5-.5 1-1 1.3l-1.5.8c-.6.2-1.3.3-2 .3Zm11.2-.3c-.9 0-1.6-.2-2-.7-.5-.5-.7-1.1-.7-2v-7.6h-2v-2.2h1c.5 0 .8 0 1-.3l.2-.9v-2.2h2.4v3.4h2.6v2.2H192v8.2h2.4v2.1h-2.3Zm7 .3c-.6 0-1-.2-1.4-.5-.3-.3-.4-.7-.4-1.1v-.4c0-.5.1-.9.4-1.2.3-.3.8-.4 1.4-.4.5 0 1 .1 1.3.4.3.3.4.7.4 1.2v.4c0 .4-.1.8-.4 1.1-.3.3-.8.5-1.3.5Zm9.8 0a6 6 0 0 1-2.4-.5c-.7-.3-1.3-.7-1.7-1.3a6 6 0 0 1-1.1-2 9 9 0 0 1-.4-2.7c0-1 .1-2 .4-2.7a4.7 4.7 0 0 1 2.9-3.4 6 6 0 0 1 2.3-.5c1.3 0 2.3.3 3.1.9.8.5 1.4 1.3 1.8 2.2l-2.2 1a2.6 2.6 0 0 0-2.7-1.9c-1 0-1.6.3-2.1 1-.5.5-.8 1.3-.8 2.3v2.2c0 1 .3 1.7.8 2.3.5.6 1.2 1 2.1 1 .8 0 1.4-.3 1.9-.6a4 4 0 0 0 1-1.5l2 1a5 5 0 0 1-1.8 2.4c-.8.5-1.9.8-3 .8Zm12.2 0a6 6 0 0 1-2.4-.5 5 5 0 0 1-1.8-1.3c-.5-.5-.8-1.2-1.1-2-.3-.8-.4-1.7-.4-2.7 0-1 .1-2 .4-2.7.3-.8.6-1.5 1.1-2a5 5 0 0 1 1.8-1.4 6 6 0 0 1 2.4-.5c.9 0 1.7.2 2.4.5s1.3.7 1.8 1.3c.5.6.9 1.3 1.1 2 .3.9.4 1.8.4 2.8 0 1 0 1.9-.4 2.7-.2.8-.6 1.5-1.1 2a5 5 0 0 1-1.8 1.3c-.7.3-1.5.5-2.4.5Zm0-2.2a3 3 0 0 0 2.2-.8c.5-.5.8-1.4.8-2.5v-2.1c0-1.1-.3-2-.8-2.5-.6-.5-1.3-.8-2.2-.8-.9 0-1.6.3-2.1.8-.6.6-.9 1.4-.9 2.5v2.1c0 1.1.3 2 .9 2.5a3 3 0 0 0 2.1.8Zm8.7 1.9v-12.5h2.6v2h.1l.5-.8.6-.8 1-.5 1.2-.2c.9 0 1.6.2 2.3.7.6.4 1.1 1 1.4 1.9h.1c.2-.7.7-1.3 1.3-1.8a4 4 0 0 1 2.5-.8c1.2 0 2.2.5 2.9 1.3.7.8 1 2 1 3.6v7.9h-2.6v-7.6c0-1-.2-1.7-.6-2.2-.3-.5-1-.7-1.7-.7a3.2 3.2 0 0 0-1.8.5 2 2 0 0 0-.8 1.6v8.4h-2.6v-7.6c0-2-.7-3-2.3-3a3.3 3.3 0 0 0-1.7.6 2 2 0 0 0-.8 1.6v8.4h-2.6Zm26.8-17.8h2.6v7.4h.1c.3-.7.7-1.2 1.3-1.7.5-.4 1.3-.7 2.2-.7 1.3 0 2.3.5 3 1.3.7.8 1 2 1 3.6v7.9h-2.5v-7.6c0-2-.8-3-2.4-3a3.7 3.7 0 0 0-1.8.6 2 2 0 0 0-.7.7 2 2 0 0 0-.2 1v8.3h-2.6v-17.8Zm23 17.8c-.6 0-1.2-.2-1.5-.6-.4-.4-.6-.9-.7-1.5h-.1a3 3 0 0 1-1.3 1.8c-.7.4-1.4.6-2.4.6-1.3 0-2.3-.3-3-1-.6-.7-1-1.6-1-2.7 0-1.3.5-2.2 1.4-2.8a7 7 0 0 1 4-1h2.2v-1c0-.8-.2-1.4-.6-1.8-.4-.4-1.1-.6-2-.6-.7 0-1.3.1-1.8.4l-1.2 1.3-1.5-1.4c.4-.7 1-1.3 1.7-1.8.8-.4 1.8-.7 3-.7 1.6 0 2.8.4 3.7 1.2.9.7 1.3 1.8 1.3 3.2v6.3h1.3v2.1h-1.4Zm-5.2-1.7c.8 0 1.5-.2 2-.5.5-.4.8-.9.8-1.5v-1.8H275c-1.8 0-2.7.6-2.7 1.7v.4c0 .6.2 1 .5 1.3.4.3 1 .4 1.6.4Zm13.3 2c-1.2 0-2.2-.2-3-.6-.8-.5-1.5-1-2.1-1.8l1.7-1.5a4.2 4.2 0 0 0 3.5 1.8c.8 0 1.3-.2 1.7-.5.4-.3.6-.7.6-1.2 0-.4-.2-.7-.4-1-.3-.3-.7-.5-1.4-.6l-1.2-.1a6 6 0 0 1-3-1.1c-.7-.6-1-1.5-1-2.6 0-.6 0-1.2.3-1.6.2-.5.5-1 1-1.2.3-.4.8-.6 1.4-.8.6-.2 1.2-.3 1.9-.3 1.1 0 2 .2 2.7.6.7.3 1.4.8 2 1.4l-1.7 1.6a4 4 0 0 0-1.2-1c-.6-.3-1.2-.5-1.8-.5-.7 0-1.3.2-1.6.5-.4.3-.5.6-.5 1.1 0 .5.1.8.4 1 .3.3.8.5 1.5.6l1.1.2c1.4.2 2.4.6 3 1.2.7.6 1 1.4 1 2.4 0 .6-.1 1.1-.4 1.6-.2.5-.5 1-1 1.3-.4.3-.9.6-1.5.8-.6.2-1.3.3-2 .3Zm22.7-.3c-.7 0-1.2-.2-1.6-.6-.4-.4-.6-.9-.7-1.5h-.1a3 3 0 0 1-1.3 1.8c-.7.4-1.4.6-2.4.6-1.3 0-2.3-.3-3-1-.6-.7-1-1.6-1-2.7 0-1.3.5-2.2 1.4-2.8a7 7 0 0 1 4-1h2.2v-1c0-.8-.2-1.4-.6-1.8-.4-.4-1-.6-2-.6-.7 0-1.3.1-1.8.4l-1.1 1.3-1.6-1.4c.4-.7 1-1.3 1.7-1.8.8-.4 1.8-.7 3-.7 1.6 0 2.9.4 3.7 1.2.9.7 1.3 1.8 1.3 3.2v6.3h1.3v2.1h-1.4Zm-5.3-1.7c.8 0 1.5-.2 2-.5.5-.4.8-.9.8-1.5v-1.8h-2.2c-1.8 0-2.7.6-2.7 1.7v.4c0 .6.2 1 .5 1.3.4.3 1 .4 1.6.4Zm12 1.7c-1 0-1.6-.2-2-.7-.5-.4-.7-1-.7-1.9v-15.2h2.6V351h1.7v2.1h-1.6Zm4.1 0v-12.5h2.7v2.4c.3-.6.6-1.2 1.2-1.7.5-.4 1.3-.7 2.3-.7h.7v2.5h-1c-1 0-1.9.2-2.4.5-.6.4-.8.9-.8 1.5v8h-2.7Zm14 .3a6 6 0 0 1-2.4-.5 5 5 0 0 1-1.8-1.3c-.5-.5-.9-1.2-1.1-2a9 9 0 0 1-.4-2.7c0-1 .1-2 .4-2.7.2-.8.6-1.5 1.1-2a5 5 0 0 1 1.8-1.4 6 6 0 0 1 2.4-.5c1 0 1.7.2 2.4.5s1.3.8 1.8 1.4c.4.5.8 1.2 1 2 .2.7.4 1.5.4 2.3v1h-8.6v.4c0 1 .3 1.8.8 2.4.6.6 1.4 1 2.5 1 .7 0 1.4-.2 2-.6l1.3-1.3 1.5 1.5a5 5 0 0 1-2 1.8c-.9.5-2 .7-3 .7Zm0-11c-.4 0-.9 0-1.2.2l-1 .7c-.3.3-.5.6-.6 1l-.2 1.3v.2h5.8v-.2c0-1-.3-1.8-.8-2.3-.4-.6-1.1-1-2-1Zm17.6 10.7c-.7 0-1.2-.2-1.6-.6-.4-.4-.6-.9-.7-1.5a3 3 0 0 1-1.4 1.8c-.6.4-1.4.6-2.3.6-1.3 0-2.3-.3-3-1-.7-.7-1-1.6-1-2.7 0-1.3.4-2.2 1.3-2.8a7 7 0 0 1 4-1h2.2v-1c0-.8-.2-1.4-.6-1.8-.4-.4-1-.6-2-.6-.7 0-1.3.1-1.8.4l-1.1 1.3-1.6-1.4c.4-.7 1-1.3 1.8-1.8.7-.4 1.7-.7 3-.7 1.5 0 2.8.4 3.6 1.2.9.7 1.3 1.8 1.3 3.2v6.3h1.4v2.1h-1.5Zm-5.3-1.7c.8 0 1.5-.2 2-.5.6-.4.8-.9.8-1.5v-1.8h-2.2c-1.8 0-2.7.6-2.7 1.7v.4c0 .6.2 1 .5 1.3.4.3 1 .4 1.6.4Zm17.2-.4h-.2c-.2.8-.7 1.3-1.3 1.8-.6.4-1.3.6-2.2.6-1.5 0-2.8-.6-3.6-1.7a7.9 7.9 0 0 1-1.3-4.8c0-2.1.4-3.7 1.3-4.8.8-1.2 2-1.8 3.6-1.8.9 0 1.6.2 2.2.7.6.4 1 1 1.3 1.7h.2v-7.4h2.6V353h-2.6v-2Zm-2.9.1c.8 0 1.5-.2 2-.5.6-.4.9-1 .9-1.6v-4.3c0-.6-.3-1.1-.9-1.5-.5-.4-1.2-.6-2-.6-.9 0-1.6.3-2.2.9-.5.6-.8 1.3-.8 2.3v2.1c0 1 .3 1.8.8 2.4.6.5 1.3.8 2.2.8Zm16.9-10.5h2.5l-5.3 15-.5 1c-.1.3-.4.6-.6.7-.3.2-.5.4-.9.5l-1.2.1H371v-2.1h2.2l.7-2.1-4.6-13h2.7l2.4 7.3.8 2.7.9-2.7 2.5-7.4ZM77.7 379v-12.6h3.6v2.7a3.7 3.7 0 0 1 1-1.9 3.2 3.2 0 0 1 2.3-.8h.6v3.3h-.9c-1 0-1.8.1-2.3.4-.5.3-.7.8-.7 1.5v7.4h-3.6Zm14.9.3c-1 0-1.9-.2-2.6-.5-.8-.3-1.4-.7-2-1.3a6 6 0 0 1-1.1-2c-.3-.9-.4-1.8-.4-2.8 0-1 .1-1.9.4-2.7a5 5 0 0 1 3-3.4c.7-.3 1.6-.5 2.5-.5 1 0 2 .2 2.7.5a5 5 0 0 1 1.8 1.5c.5.5.8 1.2 1 2 .3.8.4 1.6.4 2.4v1.1h-8.1v.2c0 .8.2 1.5.7 2 .4.5 1.1.7 2 .7.8 0 1.4-.1 1.9-.4L96 375l1.7 2.2c-.5.7-1.3 1.2-2.2 1.5a8 8 0 0 1-3 .6Zm-.1-10.6c-.7 0-1.3.3-1.7.7-.4.5-.6 1.1-.6 2v.1h4.4v-.2a3 3 0 0 0-.5-1.9c-.4-.4-.9-.7-1.6-.7Zm8.3 10.3v-12.6h3.5v2.1h.2c.2-.6.6-1.2 1.1-1.7.6-.4 1.3-.7 2.3-.7a3.6 3.6 0 0 1 3.5 2.5 3.4 3.4 0 0 1 1.4-1.7l1.2-.6a4 4 0 0 1 1.3-.2c1.2 0 2.1.4 2.8 1.3a6 6 0 0 1 1 3.7v7.9h-3.6v-7.6c0-1.6-.6-2.4-1.7-2.4-.5 0-1 .1-1.5.4-.4.4-.6.8-.6 1.4v8.2h-3.6v-7.6c0-1.6-.5-2.4-1.7-2.4a2.6 2.6 0 0 0-1.4.4 2 2 0 0 0-.5.6l-.2.8v8.2h-3.5Zm26.5.3c-.9 0-1.7-.2-2.5-.5a5 5 0 0 1-1.8-1.3c-.5-.6-.9-1.3-1.2-2-.2-.9-.4-1.8-.4-2.8 0-1 .2-2 .4-2.7.3-.9.7-1.6 1.2-2.1a5 5 0 0 1 1.8-1.3c.8-.3 1.6-.5 2.5-.5 1 0 1.8.2 2.5.5s1.4.7 1.9 1.3c.5.5.9 1.2 1.1 2 .3.9.4 1.8.4 2.8 0 1 0 2-.4 2.7a6 6 0 0 1-1.1 2.1c-.5.6-1.2 1-1.9 1.3-.7.3-1.5.5-2.5.5Zm0-2.8a2 2 0 0 0 1.7-.7c.4-.4.5-1 .5-1.8v-2.6c0-.8-.1-1.4-.5-1.8a2 2 0 0 0-1.7-.7 2 2 0 0 0-1.6.7c-.4.4-.6 1-.6 1.8v2.6c0 .8.2 1.4.6 1.8.4.5 1 .7 1.6.7Zm11 2.5-4.2-12.6h3.6l1.5 5 1.2 4.6h.2l1.2-4.5 1.5-5.1h3.3l-4.1 12.6h-4.2Zm15.3.3c-1 0-1.8-.2-2.6-.5s-1.4-.7-2-1.3a6 6 0 0 1-1.1-2c-.3-.9-.4-1.8-.4-2.8 0-1 .1-1.9.4-2.7a5 5 0 0 1 3-3.4c.7-.3 1.6-.5 2.5-.5 1 0 2 .2 2.7.5a5 5 0 0 1 1.8 1.5c.5.5.8 1.2 1 2 .3.8.4 1.6.4 2.4v1.1h-8.1v.2c0 .8.2 1.5.7 2 .4.5 1.1.7 2 .7.8 0 1.4-.1 1.9-.4l1.3-1.1 1.7 2.2c-.5.7-1.2 1.2-2.2 1.5a8 8 0 0 1-3 .6Zm-.1-10.6c-.7 0-1.3.3-1.7.7-.4.5-.6 1.1-.6 2v.1h4.4v-.2a3 3 0 0 0-.5-1.9c-.4-.4-.9-.7-1.6-.7Zm16 8.2h-.1a3.3 3.3 0 0 1-1.2 1.7l-1 .5-1.2.2c-1.6 0-2.8-.6-3.6-1.7a8.4 8.4 0 0 1-1.2-5c0-2 .4-3.7 1.2-4.8.8-1.1 2-1.7 3.6-1.7.8 0 1.5.2 2.2.7.6.4 1 1 1.2 1.7h.1v-7.3h3.6V379h-3.6v-2.1Zm-2.3-.5c.7 0 1.2-.2 1.6-.5.5-.3.7-.8.7-1.3v-3.8c0-.5-.2-1-.7-1.3-.4-.3-1-.5-1.6-.5-.7 0-1.2.2-1.7.7-.4.5-.6 1.1-.6 2v2c0 .9.2 1.5.6 2 .5.5 1 .7 1.7.7Zm20 2.9c-1 0-1.8-.2-2.5-.5a5 5 0 0 1-1.9-1.3c-.5-.6-.9-1.3-1.1-2-.3-.9-.4-1.8-.4-2.8 0-1 .1-2 .4-2.7.3-.9.6-1.6 1.1-2.1a5 5 0 0 1 1.9-1.3c.7-.3 1.5-.5 2.5-.5.9 0 1.7.2 2.4.5.8.3 1.4.7 1.9 1.3.5.5.9 1.2 1.2 2 .2.9.4 1.8.4 2.8 0 1-.2 2-.4 2.7a6 6 0 0 1-1.2 2.1c-.5.6-1.1 1-1.9 1.3-.7.3-1.5.5-2.4.5Zm0-2.8a2 2 0 0 0 1.6-.7c.4-.4.6-1 .6-1.8v-2.6c0-.8-.2-1.4-.6-1.8a2 2 0 0 0-1.6-.7 2 2 0 0 0-1.7.7c-.3.4-.5 1-.5 1.8v2.6c0 .8.2 1.4.5 1.8.4.5 1 .7 1.7.7Zm11 2.5-4.2-12.6h3.5l1.5 5 1.2 4.6h.2l1.2-4.5 1.5-5.1h3.4l-4.2 12.6h-4.2Zm15.2.3c-1 0-1.8-.2-2.6-.5-.7-.3-1.4-.7-1.9-1.3a6 6 0 0 1-1.2-2c-.2-.9-.3-1.8-.3-2.8 0-1 0-1.9.3-2.7.3-.8.7-1.5 1.2-2a5 5 0 0 1 1.8-1.4c.8-.3 1.6-.5 2.6-.5s1.9.2 2.6.5a5 5 0 0 1 1.8 1.5c.5.5.9 1.2 1 2 .3.8.4 1.6.4 2.4v1.1h-8v.2c0 .8.2 1.5.6 2 .4.5 1.2.7 2.1.7.7 0 1.3-.1 1.8-.4.5-.3 1-.7 1.3-1.1l1.8 2.2c-.6.7-1.3 1.2-2.2 1.5a8 8 0 0 1-3.1.6Zm0-10.6c-.8 0-1.4.3-1.8.7-.4.5-.6 1.1-.6 2v.1h4.4v-.2a3 3 0 0 0-.5-1.9c-.3-.4-.8-.7-1.6-.7Zm8.2 10.3v-12.6h3.6v2.7h.1a3.7 3.7 0 0 1 1-1.9 3.2 3.2 0 0 1 2.3-.8h.5v3.3h-.9c-1 0-1.8.1-2.3.4-.5.3-.7.8-.7 1.5v7.4h-3.6Zm16 0v-2.9h4.5v-11.2h-.2l-3.4 4.4-2.3-1.8 4-5.3h5.5v13.9h3.6v2.9h-11.7Zm15.9-4c.7 0 1.2.1 1.5.5.4.3.6.8.6 1.4v.4c0 1-.3 2-.8 3-.4.9-1 1.6-1.8 2.2h-2.4c.6-.5 1-1 1.4-1.6l1-1.7c-.6 0-1-.3-1.3-.6a2 2 0 0 1-.4-1.3v-.4c0-.6.2-1 .5-1.4.4-.4 1-.6 1.7-.6Zm10.9 4.3c-2.2 0-3.9-.8-5-2.3a11 11 0 0 1-1.5-6.4c0-2.7.5-4.8 1.6-6.4 1-1.5 2.7-2.2 4.9-2.2s3.8.7 4.8 2.2a11 11 0 0 1 1.6 6.4 11 11 0 0 1-1.6 6.4c-1 1.5-2.6 2.3-4.8 2.3Zm0-3c1 0 1.6-.4 2-1.1.3-.7.5-1.7.5-3V369c0-1.2-.2-2.2-.5-3-.4-.6-1-1-2-1s-1.7.4-2 1c-.4.8-.6 1.8-.6 3v3.2c0 1.3.2 2.3.6 3 .3.7 1 1 2 1Zm14.4 3c-2.2 0-3.9-.8-5-2.3a11 11 0 0 1-1.5-6.4c0-2.7.5-4.8 1.6-6.4 1-1.5 2.7-2.2 4.9-2.2 2.1 0 3.8.7 4.8 2.2a11 11 0 0 1 1.6 6.4 11 11 0 0 1-1.6 6.4c-1 1.5-2.7 2.3-4.8 2.3Zm0-3c1 0 1.6-.4 2-1.1.3-.7.5-1.7.5-3V369c0-1.2-.2-2.2-.6-3-.3-.6-1-1-2-1-.9 0-1.6.4-2 1-.3.8-.5 1.8-.5 3v3.2c0 1.3.2 2.3.6 3 .3.7 1 1 2 1Zm14.3 3c-2.1 0-3.8-.8-4.8-2.3a11 11 0 0 1-1.6-6.4c0-2.7.5-4.8 1.6-6.4 1-1.5 2.7-2.2 4.8-2.2 2.2 0 3.9.7 5 2.2a11 11 0 0 1 1.5 6.4 11 11 0 0 1-1.6 6.4c-1 1.5-2.7 2.3-4.9 2.3Zm0-3c1 0 1.7-.4 2-1.1.4-.7.6-1.7.6-3V369c0-1.2-.2-2.2-.6-3-.3-.6-1-1-2-1s-1.6.4-2 1c-.3.8-.5 1.8-.5 3v3.2c0 1.3.2 2.3.6 3 .3.7 1 1 2 1Zm11-1.4c.7 0 1.2.2 1.5.6.4.3.6.8.6 1.4v.4c0 1-.3 2-.8 3-.4.9-1 1.6-1.8 2.2h-2.4c.6-.5 1-1 1.4-1.6l1-1.7c-.6 0-1-.3-1.3-.6a2 2 0 0 1-.4-1.3v-.4c0-.6.2-1 .5-1.4.4-.4 1-.6 1.7-.6Zm10.9 4.4c-2.2 0-3.9-.8-5-2.3a11 11 0 0 1-1.5-6.4c0-2.7.5-4.8 1.6-6.4 1-1.5 2.7-2.2 4.9-2.2s3.8.7 4.8 2.2a11 11 0 0 1 1.6 6.4 11 11 0 0 1-1.6 6.4c-1 1.5-2.6 2.3-4.8 2.3Zm0-3c1 0 1.6-.4 2-1.1.3-.7.5-1.7.5-3V369c0-1.2-.2-2.2-.5-3-.4-.6-1-1-2-1s-1.7.4-2 1c-.4.8-.6 1.8-.6 3v3.2c0 1.3.2 2.3.6 3 .3.7 1 1 2 1Zm14.4 3c-2.2 0-3.9-.8-5-2.3a11 11 0 0 1-1.5-6.4c0-2.7.5-4.8 1.6-6.4 1-1.5 2.7-2.2 4.9-2.2 2.1 0 3.8.7 4.8 2.2a11 11 0 0 1 1.6 6.4 11 11 0 0 1-1.6 6.4c-1 1.5-2.7 2.3-4.8 2.3Zm0-3c1 0 1.6-.4 2-1.1.3-.7.5-1.7.5-3V369c0-1.2-.2-2.2-.6-3-.3-.6-1-1-2-1-.9 0-1.6.4-2 1-.3.8-.5 1.8-.5 3v3.2c0 1.3.2 2.3.6 3 .3.7 1 1 2 1Zm14.3 3c-2.1 0-3.8-.8-4.8-2.3a11 11 0 0 1-1.6-6.4c0-2.7.5-4.8 1.6-6.4 1-1.5 2.7-2.2 4.8-2.2 2.2 0 3.9.7 5 2.2a11 11 0 0 1 1.5 6.4 11 11 0 0 1-1.6 6.4c-1 1.5-2.7 2.3-4.9 2.3Zm0-3c1 0 1.7-.4 2-1.1.4-.7.6-1.7.6-3V369c0-1.2-.2-2.2-.6-3-.3-.6-1-1-2-1s-1.6.4-2 1c-.3.8-.5 1.8-.5 3v3.2c0 1.3.2 2.3.6 3 .3.7 1 1 2 1Zm-260 16.1h3.5v2.1h.1a3 3 0 0 1 1.2-1.7c.7-.5 1.4-.7 2.2-.7 1.6 0 2.8.6 3.6 1.7a8.2 8.2 0 0 1 1.3 4.9c0 2.1-.5 3.8-1.3 5-.8 1-2 1.6-3.6 1.6-.4 0-.8 0-1.2-.2l-1-.5-.7-.8-.5-1h-.1v7h-3.6v-17.4Zm5.8 10c.7 0 1.3-.2 1.7-.7.4-.5.7-1.1.7-2v-2c0-.9-.3-1.5-.7-2-.4-.5-1-.7-1.7-.7-.6 0-1.2.2-1.7.5-.4.3-.6.8-.6 1.3v3.8c0 .5.2 1 .6 1.3.5.3 1 .5 1.7.5Zm13.9 2.9c-1 0-1.8-.2-2.5-.5a5 5 0 0 1-1.9-1.3c-.5-.6-.9-1.3-1.1-2-.3-.9-.4-1.8-.4-2.8 0-1 0-2 .4-2.7a5 5 0 0 1 3-3.4c.7-.3 1.5-.5 2.5-.5.9 0 1.7.2 2.4.5.8.3 1.4.7 1.9 1.3.5.5.9 1.2 1.2 2 .2.9.4 1.8.4 2.8 0 1-.2 2-.4 2.7a6 6 0 0 1-1.2 2.1c-.5.6-1.1 1-1.9 1.3-.7.3-1.5.5-2.4.5Zm0-2.8a2 2 0 0 0 1.6-.7c.4-.4.6-1 .6-1.8v-2.6c0-.8-.2-1.4-.6-1.8a2 2 0 0 0-1.6-.7 2 2 0 0 0-1.7.7c-.4.4-.5 1-.5 1.8v2.6c0 .8.1 1.4.5 1.8.4.5 1 .7 1.7.7Zm15.8.4a4 4 0 0 1-1.2 1.7l-1 .5-1.4.2c-1.3 0-2.3-.4-3-1.3a6 6 0 0 1-1-3.7v-7.9h3.6v7.6c0 .8.1 1.4.4 1.8.3.4.7.6 1.4.6a2.9 2.9 0 0 0 1.5-.4l.5-.6c.2-.2.2-.5.2-.8v-8.2h3.6V405h-3.6v-2.1Zm6.9 2.1v-12.6h3.5v2.1h.2a3.5 3.5 0 0 1 3.5-2.4c1.3 0 2.3.4 3 1.3a6 6 0 0 1 1 3.7v7.9h-3.6v-7.6c0-.8-.1-1.4-.4-1.8-.3-.4-.7-.6-1.4-.6a3 3 0 0 0-1.6.4l-.5.6-.2.8v8.2h-3.5Zm22-2.1h-.1a3.3 3.3 0 0 1-1.2 1.7l-1 .5-1.2.2c-1.6 0-2.8-.6-3.6-1.7a8.4 8.4 0 0 1-1.2-5c0-2 .4-3.7 1.2-4.8.8-1.1 2-1.7 3.6-1.7.8 0 1.6.2 2.2.7.6.4 1 1 1.2 1.7h.1v-7.3h3.6V405H148v-2.1Zm-2.3-.5c.7 0 1.2-.2 1.6-.5.5-.3.7-.8.7-1.3v-3.8c0-.5-.2-1-.7-1.3-.4-.3-1-.5-1.6-.5-.7 0-1.2.2-1.7.7-.4.5-.6 1.1-.6 2v2c0 .9.2 1.5.6 2 .5.5 1 .7 1.7.7Zm13.5 2.9c-1.3 0-2.3-.2-3.1-.6-.8-.4-1.6-1-2.2-1.7l2-2 1.5 1.1c.6.3 1.2.4 1.9.4s1.2 0 1.4-.3c.3-.2.5-.5.5-.9 0-.6-.5-1-1.3-1l-1.4-.2c-2.8-.3-4.2-1.6-4.2-3.9 0-.6 0-1.1.3-1.6.2-.6.6-1 1-1.3.4-.4 1-.7 1.5-.9.6-.2 1.3-.3 2-.3a9.2 9.2 0 0 1 3.1.5l1.1.7 1 .8-2 2a4.4 4.4 0 0 0-3-1.2c-.6 0-1 0-1.2.3a1 1 0 0 0-.4.7c0 .4 0 .6.2.8.2.2.6.3 1.1.4l1.4.2c2.8.4 4.2 1.6 4.2 3.8a3.7 3.7 0 0 1-1.5 3c-.5.4-1 .7-1.7.9-.7.2-1.4.3-2.2.3Zm18.6 0c-1 0-1.8-.2-2.5-.5a5 5 0 0 1-1.9-1.3c-.5-.6-.9-1.3-1.1-2-.3-.9-.4-1.8-.4-2.8 0-1 .1-2 .4-2.7a5 5 0 0 1 3-3.4c.7-.3 1.5-.5 2.5-.5.9 0 1.7.2 2.4.5.8.3 1.4.7 1.9 1.3.5.5.9 1.2 1.2 2 .2.9.4 1.8.4 2.8 0 1-.2 2-.4 2.7a6 6 0 0 1-1.2 2.1c-.5.6-1.1 1-1.9 1.3-.7.3-1.5.5-2.4.5Zm0-2.8a2 2 0 0 0 1.6-.7c.4-.4.6-1 .6-1.8v-2.6c0-.8-.2-1.4-.6-1.8a2 2 0 0 0-1.6-.7 2 2 0 0 0-1.7.7c-.3.4-.5 1-.5 1.8v2.6c0 .8.2 1.4.5 1.8.4.5 1 .7 1.7.7Zm8.9-7.3H185v-2.8h1.8v-1.5c0-1.2.3-2.1 1-2.7.6-.6 1.5-1 2.8-1h2.3v2.8h-2.6v2.4h2.6v2.8h-2.6v9.8h-3.5v-9.8Zm20.7 10c-1.2 0-2.2 0-3.1-.4-1-.4-1.7-1-2.3-1.6a7.5 7.5 0 0 1-1.5-2.7 12 12 0 0 1-.5-3.8c0-1.4.1-2.6.5-3.7.3-1.1.8-2 1.5-2.8.6-.7 1.4-1.3 2.3-1.7 1-.3 2-.5 3-.5a7 7 0 0 1 4 1c1 .5 1.7 1.5 2.3 2.9l-3.1 1.6c-.2-.7-.6-1.2-1-1.7-.5-.4-1.2-.6-2.1-.6-1.1 0-2 .4-2.6 1-.7.7-1 1.8-1 3v2.8c0 1.3.3 2.3 1 3 .6.7 1.5 1 2.6 1a3 3 0 0 0 2.1-.7c.5-.5 1-1 1.2-1.7l3 1.7a7.5 7.5 0 0 1-2.5 3c-1 .6-2.3 1-3.8 1Zm15.2 0a8 8 0 0 1-3-.5c-.9-.3-1.7-.9-2.3-1.6a7.8 7.8 0 0 1-1.5-2.7c-.3-1.1-.5-2.4-.5-3.8s.2-2.6.5-3.7c.4-1.1.9-2 1.5-2.7a6 6 0 0 1 2.3-1.7c1-.4 2-.5 3-.5a8 8 0 0 1 3 .5 6 6 0 0 1 2.4 1.7c.6.7 1.1 1.6 1.5 2.7.3 1 .5 2.3.5 3.7 0 1.4-.2 2.7-.5 3.8-.4 1-.9 2-1.5 2.7-.6.7-1.4 1.3-2.3 1.6a8 8 0 0 1-3 .6Zm0-3.2c1.2 0 2-.3 2.6-1 .6-.8 1-1.8 1-3.1v-2.5c0-1.4-.4-2.4-1-3.1-.6-.7-1.4-1.1-2.6-1.1-1 0-2 .4-2.5 1-.7.8-1 1.8-1 3.2v2.5c0 1.3.3 2.3 1 3 .6.8 1.4 1.1 2.5 1.1Zm21.8 3h-11.8v-3.3l5.1-4.4a22 22 0 0 0 2-2l.4-1 .2-1v-.3a1.8 1.8 0 0 0-.7-1.4l-.8-.4-.7-.1c-.4 0-.8 0-1.1.2l-.8.5-.5.7a4 4 0 0 0-.3 1l-3.2-1.3a7 7 0 0 1 .8-1.6 5.4 5.4 0 0 1 3-2.3c.7-.2 1.5-.3 2.4-.3.9 0 1.7 0 2.4.3s1.3.7 1.8 1.1c.5.4.9 1 1.1 1.6.3.6.4 1.3.4 2s-.1 1.4-.4 2c-.2.6-.5 1.1-1 1.6-.3.6-.8 1-1.4 1.5-.5.5-1 1-1.7 1.4l-3 2.5h7.8v3Zm9.4-10.3H252v-2.2h1.9v-2c0-1 .3-1.8.8-2.4.5-.6 1.3-.9 2.4-.9h2v2.2h-2.6v3.1h2.6v2.2h-2.6V405H254v-10.3Zm7.5 10.3v-12.5h2.6v2.4h.1c.2-.6.6-1.2 1.1-1.7.6-.4 1.4-.7 2.4-.7h.7v2.5h-1c-1.1 0-2 .2-2.5.5-.5.4-.8.9-.8 1.5v8h-2.6Zm14 .3a6 6 0 0 1-2.4-.5 5 5 0 0 1-1.8-1.3c-.5-.5-.9-1.2-1.2-2-.2-.8-.4-1.7-.4-2.7 0-1 .2-2 .4-2.7.3-.8.7-1.5 1.2-2a5 5 0 0 1 1.8-1.4 6 6 0 0 1 2.4-.5c.8 0 1.6.2 2.3.5.7.3 1.4.7 1.8 1.3.5.6 1 1.3 1.2 2 .3.9.4 1.8.4 2.8 0 1-.1 1.9-.4 2.7-.3.8-.7 1.5-1.2 2a5 5 0 0 1-1.8 1.3c-.7.3-1.5.5-2.3.5Zm0-2.2a3 3 0 0 0 2.1-.8c.6-.5.8-1.4.8-2.5v-2.1c0-1.1-.2-2-.8-2.5-.5-.5-1.2-.8-2.1-.8-1 0-1.6.3-2.2.8-.5.6-.8 1.4-.8 2.5v2.1c0 1.1.3 2 .8 2.5a3 3 0 0 0 2.2.8Zm8.6 1.9v-12.5h2.6v2h.2l.4-.8.7-.8 1-.5 1.2-.2c.8 0 1.6.2 2.2.7.7.4 1.2 1 1.5 1.9.3-.7.7-1.3 1.4-1.8a4 4 0 0 1 2.4-.8c1.3 0 2.2.5 3 1.3.6.8 1 2 1 3.6v7.9h-2.7v-7.6c0-1-.1-1.7-.5-2.2-.4-.5-1-.7-1.8-.7a3.2 3.2 0 0 0-1.7.5 2 2 0 0 0-.8 1.6v8.4h-2.6v-7.6c0-2-.8-3-2.3-3a3.3 3.3 0 0 0-1.8.6 2 2 0 0 0-.8 1.6v8.4H284Zm30.3 0c-.9 0-1.6-.2-2-.7-.5-.5-.7-1.1-.7-2v-7.6h-2v-2.2h1c.5 0 .8 0 1-.3l.2-.9v-2.2h2.4v3.4h2.6v2.2h-2.6v8.2h2.4v2.1h-2.3Zm5.3-17.8h2.6v7.4h.2c.2-.7.6-1.2 1.2-1.7.5-.4 1.3-.7 2.3-.7 1.2 0 2.2.5 3 1.3.7.8 1 2 1 3.6v7.9h-2.6v-7.6c0-2-.8-3-2.4-3a3.7 3.7 0 0 0-1.8.6 2 2 0 0 0-.6.7 2 2 0 0 0-.3 1v8.3h-2.6v-17.8Zm18.8 18a6 6 0 0 1-2.4-.4 5 5 0 0 1-1.8-1.3c-.5-.5-.8-1.2-1.1-2a9 9 0 0 1-.4-2.7c0-1 .1-2 .4-2.7.3-.8.6-1.5 1.1-2a5 5 0 0 1 1.8-1.4 6 6 0 0 1 2.4-.5c1 0 1.8.2 2.4.5.7.3 1.3.8 1.8 1.4.5.5.8 1.2 1 2 .3.7.4 1.5.4 2.3v1h-8.6v.4c0 1 .3 1.8.9 2.4.5.6 1.3 1 2.4 1 .8 0 1.4-.2 2-.6.5-.3 1-.8 1.3-1.3l1.5 1.5a5 5 0 0 1-2 1.8c-.9.5-1.9.7-3 .7Zm0-11-1.2.3-1 .7-.6 1-.2 1.3v.2h5.8v-.2c0-1-.2-1.8-.7-2.3-.5-.6-1.2-1-2-1ZM155.1 431c-.7 0-1.2-.2-1.6-.6-.4-.4-.6-.9-.7-1.5a3 3 0 0 1-1.4 1.8c-.6.4-1.4.6-2.3.6-1.3 0-2.3-.3-3-1-.7-.7-1-1.6-1-2.7 0-1.3.4-2.2 1.3-2.8a7 7 0 0 1 4-1h2.2v-1c0-.8-.2-1.4-.6-1.8-.4-.4-1-.6-2-.6-.7 0-1.3.1-1.7.4-.5.4-.9.8-1.2 1.3l-1.6-1.4c.4-.7 1-1.3 1.8-1.8.7-.4 1.7-.7 3-.7 1.5 0 2.8.4 3.6 1.2 1 .7 1.3 1.8 1.3 3.2v6.3h1.4v2.1H155Zm-5.3-1.7c.8 0 1.5-.2 2-.5.6-.4.8-.9.8-1.5v-1.8h-2.2c-1.8 0-2.7.6-2.7 1.7v.4c0 .6.2 1 .6 1.3.3.3.9.4 1.5.4Zm12.7 1.7c-.9 0-1.6-.2-2-.7-.5-.5-.8-1.1-.8-2v-7.6h-1.9v-2.2h1c.5 0 .8 0 1-.3l.2-.9v-2.2h2.4v3.4h2.6v2.2h-2.6v8.2h2.4v2.1h-2.3Zm5.3 0v-12.5h2.6v2h.2l.4-.8.7-.8 1-.5 1.2-.2c.8 0 1.6.2 2.2.7.7.4 1.2 1 1.5 1.9.3-.7.7-1.3 1.4-1.8a4 4 0 0 1 2.4-.8c1.3 0 2.2.5 3 1.3.6.8 1 2 1 3.6v7.9h-2.7v-7.6c0-1-.1-1.7-.5-2.2-.4-.5-1-.7-1.8-.7a3.2 3.2 0 0 0-1.7.5 2 2 0 0 0-.8 1.6v8.4h-2.6v-7.6c0-2-.8-3-2.3-3a3.3 3.3 0 0 0-1.8.6 2 2 0 0 0-.8 1.6v8.4h-2.6Zm26 .3a6 6 0 0 1-2.3-.5 5 5 0 0 1-1.8-1.3c-.5-.5-.9-1.2-1.2-2-.2-.8-.4-1.7-.4-2.7 0-1 .2-2 .4-2.7.3-.8.7-1.5 1.2-2a5 5 0 0 1 1.8-1.4 6 6 0 0 1 2.4-.5c.8 0 1.6.2 2.3.5.7.3 1.4.7 1.9 1.3l1.1 2c.3.9.4 1.8.4 2.8 0 1-.1 1.9-.4 2.7-.3.8-.7 1.5-1.1 2a5 5 0 0 1-1.9 1.3c-.7.3-1.5.5-2.3.5Zm0-2.2a3 3 0 0 0 2.2-.8c.6-.5.9-1.4.9-2.5v-2.1c0-1.1-.3-2-.9-2.5-.5-.5-1.2-.8-2.1-.8-1 0-1.6.3-2.2.8-.5.6-.8 1.4-.8 2.5v2.1c0 1.1.3 2 .8 2.5a3 3 0 0 0 2.2.8Zm12.7 2.2c-1.2 0-2.2-.2-3-.6-.8-.5-1.5-1-2-1.8l1.6-1.5c.5.6 1 1 1.5 1.3.6.3 1.3.5 2 .5.8 0 1.4-.2 1.7-.5.4-.3.6-.7.6-1.2 0-.4-.1-.7-.4-1-.3-.3-.7-.5-1.4-.6l-1.1-.1a6 6 0 0 1-3-1.1c-.8-.6-1.1-1.5-1.1-2.6 0-.6 0-1.2.3-1.6.2-.5.6-1 1-1.2.4-.4.9-.6 1.4-.8.6-.2 1.2-.3 2-.3 1 0 2 .2 2.6.6.8.3 1.4.8 2 1.4l-1.6 1.6a4 4 0 0 0-1.3-1c-.5-.3-1.1-.5-1.8-.5s-1.2.2-1.6.5c-.3.3-.5.6-.5 1.1 0 .5.2.8.5 1 .3.3.7.5 1.4.6l1.2.2c1.3.2 2.3.6 3 1.2.6.6 1 1.4 1 2.4 0 .6-.2 1.1-.4 1.6-.3.5-.6 1-1 1.3l-1.6.8c-.6.2-1.3.3-2 .3Zm7.9-12.8h2.6v2h.1c.3-.7.7-1.2 1.3-1.6.7-.5 1.4-.7 2.2-.7 1.6 0 2.8.6 3.7 1.8a7.8 7.8 0 0 1 1.3 4.8c0 2-.4 3.6-1.3 4.8-.9 1.1-2 1.7-3.7 1.7-.8 0-1.5-.2-2.2-.6-.6-.5-1-1-1.3-1.8h-.1v6.9h-2.6v-17.3Zm5.4 10.5c1 0 1.7-.3 2.2-.8.6-.6.8-1.4.8-2.4v-2.1c0-1-.2-1.7-.8-2.3-.5-.6-1.3-1-2.2-1-.8 0-1.4.3-2 .7-.5.4-.8.9-.8 1.5v4.3c0 .6.3 1.2.8 1.6.6.3 1.2.5 2 .5Zm8.8-15.8h2.6v7.4h.1c.3-.7.7-1.2 1.3-1.7.5-.4 1.3-.7 2.2-.7 1.3 0 2.3.5 3 1.3.7.8 1 2 1 3.6v7.9h-2.5v-7.6c0-2-.8-3-2.4-3a3.7 3.7 0 0 0-1.9.6 2 2 0 0 0-.6.7 2 2 0 0 0-.2 1v8.3h-2.6v-17.8Zm18.8 18a6 6 0 0 1-2.4-.4 5 5 0 0 1-1.8-1.3c-.5-.5-.9-1.2-1.1-2a9 9 0 0 1-.4-2.7c0-1 .1-2 .4-2.7.2-.8.6-1.5 1.1-2a5 5 0 0 1 1.8-1.4 6 6 0 0 1 2.4-.5c1 0 1.7.2 2.4.5s1.3.8 1.8 1.4c.4.5.8 1.2 1 2 .2.7.4 1.5.4 2.3v1h-8.6v.4c0 1 .3 1.8.8 2.4.6.6 1.4 1 2.5 1 .7 0 1.4-.2 2-.6l1.3-1.3 1.5 1.5a5 5 0 0 1-2 1.8c-.9.5-2 .7-3 .7Zm0-11-1.2.3-1 .7c-.3.3-.5.6-.6 1l-.2 1.3v.2h5.8v-.2c0-1-.3-1.8-.8-2.3-.4-.6-1.1-1-2-1Zm8.4 10.8v-12.5h2.7v2.4c.3-.6.6-1.2 1.2-1.7.5-.4 1.3-.7 2.3-.7h.7v2.5h-1c-1 0-1.9.2-2.4.5-.6.4-.8.9-.8 1.5v8h-2.7Zm14 .3a6 6 0 0 1-2.4-.5 5 5 0 0 1-1.8-1.3c-.5-.5-.9-1.2-1.1-2a9 9 0 0 1-.4-2.7c0-1 .1-2 .4-2.7.2-.8.6-1.5 1.1-2a5 5 0 0 1 1.8-1.4 6 6 0 0 1 2.4-.5c1 0 1.7.2 2.4.5s1.3.8 1.8 1.4c.4.5.8 1.2 1 2 .2.7.4 1.5.4 2.3v1h-8.6v.4c0 1 .3 1.8.8 2.4.6.6 1.4 1 2.5 1 .7 0 1.4-.2 2-.6.5-.3.9-.8 1.3-1.3l1.5 1.5a5 5 0 0 1-2 1.8c-.9.5-2 .7-3 .7Zm0-11c-.4 0-.8 0-1.2.2l-1 .7-.6 1-.2 1.3v.2h5.8v-.2c0-1-.2-1.8-.7-2.3-.5-.6-1.2-1-2-1Zm9.6 11c-.6 0-1-.2-1.3-.5-.3-.3-.4-.7-.4-1.1v-.4c0-.5.1-.9.4-1.2.3-.3.7-.4 1.3-.4.6 0 1 .1 1.4.4.2.3.4.7.4 1.2v.4c0 .4-.2.8-.4 1.1-.3.3-.8.5-1.4.5Z" fill="#fff"/><path d="M72.8 169H46.4v3.3H58V197h3.4v-24.7h11.5V169Zm33.4 0v12.4H80V169h-3.3v28H80v-12.3h26.3V197h3.3v-28h-3.3Zm13 28v-28h-3.3v28h3.3Zm34-12.3c.3 0 .7.1 1 .4.3.3.4.7.4 1v6.4c0 .4-.2.7-.5 1-.3.3-.7.5-1 .5a223.4 223.4 0 0 1-23.2 0c-.4 0-.8-.2-1-.5-.3-.3-.5-.6-.5-1l-.1-2.5H125v2.6a4.9 4.9 0 0 0 4.7 4.7 285.3 285.3 0 0 0 23.5 0 4.9 4.9 0 0 0 4.7-4.7V186a4.8 4.8 0 0 0-4.6-4.6h-23.5c-.4 0-.8-.2-1-.5-.3-.3-.5-.6-.5-1v-4l.1-2.3c0-.4.2-.8.5-1.1.2-.3.6-.4 1-.4a223.5 223.5 0 0 1 23.1 0c.4 0 .8.1 1 .4.4.3.5.7.6 1v2.5h3.3v-2.6a4.9 4.9 0 0 0-4.7-4.6 228.6 228.6 0 0 0-23.5 0 4.9 4.9 0 0 0-4.6 4.6v6.6a4.9 4.9 0 0 0 4.6 4.7h23.5Zm61.2-11a4.9 4.9 0 0 0-4.6-4.7h-28.3v28h3.2v-10.7h25a4.9 4.9 0 0 0 4.7-4.6v-8Zm-3.7 8.9c-.3.3-.7.4-1.1.5h-24.9v-10.8h25c.3 0 .7.2 1 .5.2.3.4.6.4 1v7.7c0 .4-.2.8-.4 1Zm32.5 14.4h3.6L234 169h-7.3l-12.8 28h3.6l2.7-6h20.2l2.8 6Zm-21.5-9.3 7-15.4h3.1l7 15.4h-17Zm39-3h18c.4 0 .7.2 1 .5.3.3.4.6.5 1v3.8l-.1 2.5c0 .3-.2.7-.5 1-.3.3-.7.5-1 .5a237.6 237.6 0 0 1-24 0c-.3 0-.7-.2-1-.5-.3-.3-.5-.7-.5-1-.3-6.3-.3-12.7 0-19 0-.3.2-.7.5-1 .3-.2.7-.4 1-.4a299 299 0 0 1 24 0c.3 0 .7.2 1 .4.3.3.4.7.5 1v2.5h3.4l-.2-2.6a4.9 4.9 0 0 0-4.6-4.6 244 244 0 0 0-24.2 0 4.9 4.9 0 0 0-4.6 4.6c-.4 6.4-.4 12.8 0 19.2a4.8 4.8 0 0 0 4.6 4.6 241.7 241.7 0 0 0 24.2 0c2.5 0 4.5-2 4.6-4.6l.2-2.6v-4a4.9 4.9 0 0 0-4.7-4.6h-18v3.3Zm54.9-12.4V169h-26.4v28h26.4v-3.3h-23v-9h23v-3.3h-23v-9.1h23ZM52.3 236v-28H49v28h3.3Zm34-12.3c.3 0 .7.1 1 .4.3.3.4.7.4 1v6.4c0 .4-.2.7-.5 1-.3.3-.7.5-1 .5a223.5 223.5 0 0 1-23.2 0c-.4 0-.8-.2-1-.5-.3-.3-.5-.6-.5-1l-.1-2.5H58v2.6a4.9 4.9 0 0 0 4.7 4.7 285.3 285.3 0 0 0 23.5 0 4.9 4.9 0 0 0 4.6-4.7l.1-2.6v-4a4.8 4.8 0 0 0-4.6-4.6H62.9c-.4 0-.8-.2-1-.5-.4-.3-.5-.6-.5-1v-4l.1-2.3c0-.4.2-.8.4-1.1.3-.3.7-.4 1-.4a223.5 223.5 0 0 1 23.2 0c.4 0 .8.1 1 .4.4.3.5.7.6 1v2.5H91v-2.6a4.9 4.9 0 0 0-4.7-4.6 228.6 228.6 0 0 0-23.5 0 4.9 4.9 0 0 0-4.6 4.6L58 215v4a4.9 4.9 0 0 0 4.6 4.7h23.6Zm58.4 7.8c0 .3-.2.7-.4 1-.3.3-.7.5-1 .5a237.6 237.6 0 0 1-24 0c-.3 0-.7-.2-1-.5-.3-.3-.5-.7-.5-1-.3-6.3-.3-12.7 0-19 0-.3.2-.7.5-1 .3-.2.7-.4 1-.4a299 299 0 0 1 24 0c.3 0 .7.2 1 .4.2.3.4.7.4 1l.1 2.5h3.3v-2.6a4.9 4.9 0 0 0-4.7-4.6 244 244 0 0 0-24.2 0 4.9 4.9 0 0 0-4.7 4.6c-.3 6.4-.3 12.8 0 19.2a4.8 4.8 0 0 0 4.7 4.6 241.7 241.7 0 0 0 24.2 0c2.5 0 4.5-2 4.6-4.6l.1-2.6h-3.3v2.5Zm31.6 1.2h-19.8V208h-3.3v28h23v-3.3Zm30.1-21.4V208h-26.3v28h26.3v-3.3h-23v-9h23v-3.3h-23v-9.1h23Zm32 24.7h3.6l-12.8-28H222l-12.8 28h3.6l2.8-6h20.2l2.7 6Zm-21.4-9.3 7-15.4h3.1l7 15.4h-17Zm58.4-18.7v24.7h-1L251.5 208h-5.8v28h3.3v-24.7h.9l22.9 24.7h5.8v-28h-3.3Zm36 3.3V208h-26.3v28h26.3v-3.3h-23v-9h23v-3.3h-23v-9.1h23Zm5.4-3.3v28h3.3v-10.7h8l15.7 10.7h5.9L334 225.3h9a4.9 4.9 0 0 0 4.6-4.6v-8a4.9 4.9 0 0 0-4.6-4.7h-26.2Zm26 3.3c.4 0 .8.2 1 .5.4.3.5.6.5 1v7.7c0 .4-.1.8-.4 1-.3.4-.7.5-1 .6H320v-10.8h22.7ZM72.8 247H46.4v3.3H58V275h3.4v-24.7h11.5V247Zm33.4 0v12.4H80V247h-3.3v28H80v-12.3h26.3V275h3.3v-28h-3.3Zm36.4 28h3.6l-12.8-28h-7.3l-12.8 28h3.6l2.8-6h20.2l2.7 6Zm-21.4-9.3 7-15.4h3l7.1 15.4h-17.1Zm58.4-18.7v24.7h-1L155.7 247H150v28h3.3v-24.7h.9L177 275h5.8v-28h-3.3Zm33.3-.1-7.7 7h5l4-3.7v24.7h3.2v-28H213Zm27.8 2.5c4 0 8 0 12 .3.3 0 .7.2 1 .4.3.3.4.7.5 1 .3 6.4.3 12.7 0 19 0 .4-.2.7-.5 1-.3.3-.7.5-1 .5a296.9 296.9 0 0 1-24 0c-.3 0-.7-.2-1-.5-.3-.3-.4-.6-.4-1-.4-6.3-.4-12.6 0-19 0-.3.1-.7.4-1 .3-.2.7-.4 1-.4l12-.3Zm-12-3a4.9 4.9 0 0 0-4.7 4.6c-.4 6.4-.4 12.8 0 19.2a4.9 4.9 0 0 0 4.6 4.7 303.2 303.2 0 0 0 24.2 0 4.9 4.9 0 0 0 4.6-4.7c.4-6.4.4-12.8 0-19.2a4.9 4.9 0 0 0-4.6-4.6 306.8 306.8 0 0 0-24.2 0Zm52.1 3c4 0 8 0 12 .3.3 0 .7.2 1 .4.3.3.4.7.5 1 .3 6.4.3 12.7 0 19 0 .4-.2.7-.5 1-.3.3-.7.5-1 .5a296.9 296.9 0 0 1-24 0c-.3 0-.7-.2-1-.5-.3-.3-.5-.6-.5-1-.3-6.3-.3-12.6 0-19 0-.3.2-.7.5-1 .3-.2.7-.4 1-.4l12-.3Zm-12.1-3a4.9 4.9 0 0 0-4.6 4.6c-.4 6.4-.4 12.8 0 19.2a4.9 4.9 0 0 0 4.6 4.7 303.2 303.2 0 0 0 24.2 0 4.9 4.9 0 0 0 4.6-4.7c.4-6.4.4-12.8 0-19.2a4.9 4.9 0 0 0-4.6-4.6 306.7 306.7 0 0 0-24.2 0Zm66.6.6-13.5 11.8-2.5 2.2-16 14h5l13.5-11.8 2.5-2.2 16-14h-5ZM308 261.2h5a4.9 4.9 0 0 0 4.6-4.6v-5a4.9 4.9 0 0 0-4.7-4.6H308a4.9 4.9 0 0 0-4.6 4.7v4.8c0 2.6 2.1 4.6 4.6 4.7Zm-.9-10.4c.3-.3.7-.5 1-.5h4.7c.4 0 .7.2 1 .5.3.3.5.6.5 1v4.6c0 .4-.2.8-.5 1-.3.3-.6.5-1 .5H308c-.4 0-.8-.2-1-.4-.4-.3-.5-.7-.5-1v-4.7c0-.4.1-.7.4-1Zm28.7 10h-4.9a4.9 4.9 0 0 0-4.6 4.7v4.9a4.9 4.9 0 0 0 4.6 4.6h4.9c2.5 0 4.5-2.1 4.6-4.6v-5a4.9 4.9 0 0 0-4.6-4.6Zm.9 10.5c-.3.3-.7.4-1 .4h-4.7c-.3 0-.7-.1-1-.4-.3-.3-.4-.7-.4-1v-4.7c0-.4.1-.7.4-1 .3-.3.7-.5 1-.5h4.6c.4 0 .8.2 1 .5.4.3.5.6.6 1v4.6c0 .4-.2.8-.5 1ZM65.7 288.8c4 0 8 0 12 .3.4 0 .7.2 1 .4.3.3.5.7.5 1 .3 6.3.3 12.7 0 19 0 .3-.2.7-.5 1-.3.3-.6.5-1 .5a237.6 237.6 0 0 1-24 0c-.3 0-.7-.2-1-.5-.3-.3-.4-.7-.4-1a186 186 0 0 1 0-19c0-.3.1-.7.4-1 .3-.2.7-.4 1-.4l12-.3Zm-12-3a4.9 4.9 0 0 0-4.7 4.6 171 171 0 0 0 0 19.2 4.8 4.8 0 0 0 4.6 4.6 241.7 241.7 0 0 0 24.2 0c2.6 0 4.6-2 4.7-4.6.3-6.4.3-12.8 0-19.2a4.9 4.9 0 0 0-4.7-4.6 244 244 0 0 0-24.2 0ZM91.8 314v-12.3h21v-3.3H92v-9.1H115V286H88.7v28h3.2Zm69-28h-26.4v3.3H146V314h3.3v-24.7h11.5V286Zm33.4 0v12.4h-26.4V286h-3.3v28h3.3v-12.3h26.4V314h3.3v-28h-3.3Zm36 3.3V286h-26.4v28h26.4v-3.3h-23v-9h23v-3.3h-23v-9.1h23Zm73-3.3L292 310.7 280.6 286H277l-11.3 24.7-11.4-24.7h-3.6l12.9 28h4.2l11-24 11 24h4.3l12.9-28h-3.7Zm33.8 3.3V286h-26.4v28h26.4v-3.3H314v-9h23v-3.3h-23v-9.1h23Zm35.6 8c.4-.6.5-1.3.6-2v-4.6a4.9 4.9 0 0 0-4.7-4.7h-26.2v28h28.3a4.9 4.9 0 0 0 4.6-4.6v-8c0-1.9-1-3.4-2.6-4.1Zm-4.2-8c.4 0 .7.2 1 .5.3.3.4.6.5 1v4.4c0 .4-.2.7-.5 1-.3.3-.6.5-1 .5h-22.8v-7.4h22.8Zm3.5 20c0 .3-.1.7-.4 1-.3.3-.7.4-1 .4h-25V300h24.9c.4 0 .8.1 1 .4.4.3.5.7.5 1v7.8Z" fill="#000"/><path d="M72.8 247H46.4v3.3H58V275h3.4v-24.7h11.5V247Zm33.4 0v12.4H80V247h-3.3v28H80v-12.3h26.3V275h3.3v-28h-3.3Zm36.4 28h3.6l-12.8-28h-7.3l-12.8 28h3.6l2.8-6h20.2l2.7 6Zm-21.4-9.3 7-15.4h3l7.1 15.4h-17.1Zm58.4-18.7v24.7h-1L155.7 247H150v28h3.3v-24.7h.9L177 275h5.8v-28h-3.3Zm33.3-.1-7.7 7h5l4-3.7v24.7h3.2v-28H213Zm27.8 2.5c4 0 8 0 12 .3.3 0 .7.2 1 .4.3.3.4.7.5 1 .3 6.4.3 12.7 0 19 0 .4-.2.7-.5 1-.3.3-.7.5-1 .5a296.9 296.9 0 0 1-24 0c-.3 0-.7-.2-1-.5-.3-.3-.4-.6-.4-1-.4-6.3-.4-12.6 0-19 0-.3.1-.7.4-1 .3-.2.7-.4 1-.4l12-.3Zm-12-3a4.9 4.9 0 0 0-4.7 4.6c-.4 6.4-.4 12.8 0 19.2a4.9 4.9 0 0 0 4.6 4.7 303.2 303.2 0 0 0 24.2 0 4.9 4.9 0 0 0 4.6-4.7c.4-6.4.4-12.8 0-19.2a4.9 4.9 0 0 0-4.6-4.6 306.8 306.8 0 0 0-24.2 0Zm52.1 3c4 0 8 0 12 .3.3 0 .7.2 1 .4.3.3.4.7.5 1 .3 6.4.3 12.7 0 19 0 .4-.2.7-.5 1-.3.3-.7.5-1 .5a296.9 296.9 0 0 1-24 0c-.3 0-.7-.2-1-.5-.3-.3-.5-.6-.5-1-.3-6.3-.3-12.6 0-19 0-.3.2-.7.5-1 .3-.2.7-.4 1-.4l12-.3Zm-12.1-3a4.9 4.9 0 0 0-4.6 4.6c-.4 6.4-.4 12.8 0 19.2a4.9 4.9 0 0 0 4.6 4.7 303.2 303.2 0 0 0 24.2 0 4.9 4.9 0 0 0 4.6-4.7c.4-6.4.4-12.8 0-19.2a4.9 4.9 0 0 0-4.6-4.6 306.7 306.7 0 0 0-24.2 0Zm66.6.6-13.5 11.8-2.5 2.2-16 14h5l13.5-11.8 2.5-2.2 16-14h-5ZM308 261.2h5a4.9 4.9 0 0 0 4.6-4.6v-5a4.9 4.9 0 0 0-4.7-4.6H308a4.9 4.9 0 0 0-4.6 4.7v4.8c0 2.6 2.1 4.6 4.6 4.7Zm-.9-10.4c.3-.3.7-.5 1-.5h4.7c.4 0 .7.2 1 .5.3.3.5.6.5 1v4.6c0 .4-.2.8-.5 1-.3.3-.6.5-1 .5H308c-.4 0-.8-.2-1-.4-.4-.3-.5-.7-.5-1v-4.7c0-.4.1-.7.4-1Zm28.7 10h-4.9a4.9 4.9 0 0 0-4.6 4.7v4.9a4.9 4.9 0 0 0 4.6 4.6h4.9c2.5 0 4.5-2.1 4.6-4.6v-5a4.9 4.9 0 0 0-4.6-4.6Zm.9 10.5c-.3.3-.7.4-1 .4h-4.7c-.3 0-.7-.1-1-.4-.3-.3-.4-.7-.4-1v-4.7c0-.4.1-.7.4-1 .3-.3.7-.5 1-.5h4.6c.4 0 .8.2 1 .5.4.3.5.6.6 1v4.6c0 .4-.2.8-.5 1Z" fill="#000"/><path d="M72.8 247h.6v-.6h-.6v.6Zm-26.4 0v-.6h-.6v.6h.6Zm0 3.3h-.6v.6h.6v-.6Zm11.5 0h.7v-.6h-.7v.6Zm0 24.7h-.6v.6h.6v-.6Zm3.4 0v.6h.6v-.6h-.6Zm0-24.7v-.6h-.7v.6h.7Zm11.5 0v.6h.6v-.6h-.6Zm0-4H46.4v1.3h26.4v-1.2Zm-27 .7v3.3h1.3V247h-1.3Zm.6 4H58v-1.3H46.4v1.2Zm10.9-.7V275h1.3v-24.7h-1.3Zm.6 25.3h3.4v-1.2h-3.4v1.2Zm4-.6v-24.7h-1.3V275H62Zm-.6-24h11.5v-1.3H61.3v1.2Zm12.1-.7V247h-1.2v3.3h1.2Zm32.8-3.3v-.6h-.6v.6h.6Zm0 12.4v.6h.7v-.6h-.7Zm-26.3 0h-.6v.6h.6v-.6Zm0-12.4h.6v-.6H80v.6Zm-3.3 0v-.6H76v.6h.6Zm0 28H76v.6h.6v-.6Zm3.3 0v.6h.6v-.6H80Zm0-12.3v-.7h-.6v.7h.6Zm26.3 0h.7v-.7h-.7v.7Zm0 12.3h-.6v.6h.6v-.6Zm3.3 0v.6h.7v-.6h-.7Zm0-28h.7v-.6h-.7v.6Zm-3.9 0v12.4h1.3V247h-1.3Zm.6 11.7H80v1.3h26.3v-1.3Zm-25.7.7V247h-1.2v12.4h1.2Zm-.6-13h-3.3v1.2H80v-1.2Zm-4 .6v28h1.3v-28H76Zm.7 28.6H80v-1.2h-3.3v1.2Zm4-.6v-12.3h-1.3V275h1.2Zm-.7-11.7h26.3V262H80v1.3Zm25.7-.6V275h1.3v-12.3h-1.3Zm.6 13h3.3v-1.3h-3.3v1.2Zm4-.7v-28h-1.3v28h1.3Zm-.7-28.6h-3.3v1.2h3.3v-1.2Zm33.1 28.6-.6.3.2.3h.4v-.6Zm3.6 0v.6h1l-.4-.9-.6.3Zm-12.8-28 .6-.3-.2-.3h-.4v.6Zm-7.3 0v-.6h-.4l-.2.3.6.3Zm-12.8 28-.6-.3-.4 1h1v-.7Zm3.6 0v.6h.4l.2-.3-.6-.3Zm2.8-6v-.6h-.4l-.2.3.6.3Zm20.2 0 .5-.3-.1-.3h-.4v.6Zm-18.7-3.3-.6-.3-.4 1h1v-.7Zm7-15.4v-.6h-.4l-.1.3.5.3Zm3 0 .7-.3-.2-.3h-.4v.6Zm7.1 15.4v.6h1l-.4-.9-.6.3Zm4.3 10h3.6v-1.3h-3.6v1.2Zm4.2-1-12.8-28-1.2.6 12.9 28 1.1-.6Zm-13.4-28.3h-7.3v1.2h7.3v-1.2Zm-7.9.3-12.8 28 1.2.6 12.8-28-1.2-.6Zm-12.2 29h3.6v-1.3h-3.6v1.2Zm4.2-.4 2.8-6-1.2-.6-2.8 6 1.2.6Zm2.2-5.7h20.2v-1.2h-20.2v1.2Zm19.6-.3 2.7 6 1.2-.6-2.8-6-1.1.6Zm-17.5-3.4 7-15.3-1.1-.6-7 15.4 1 .5Zm6.5-15h3v-1.2h-3v1.2Zm2.4-.3 7 15.3 1.2-.5-7-15.4-1.2.6Zm7.6 14.4h-17.1v1.3h17.1V265Zm41.3-18v-.6h-.6v.6h.6Zm0 24.7v.7h.6v-.7h-.6Zm-1 0-.5.4.2.3h.2v-.7ZM155.7 247l.5-.4-.2-.2h-.3v.6Zm-5.8 0v-.6h-.7v.6h.7Zm0 28h-.7v.6h.7v-.6Zm3.3 0v.6h.6v-.6h-.6Zm0-24.7v-.6h-.7v.6h.7Zm.9 0 .4-.4-.1-.2h-.3v.6ZM177 275l-.5.4.2.2h.3v-.6Zm5.8 0v.6h.6v-.6h-.6Zm0-28h.6v-.6h-.6v.6Zm-4 0v24.7h1.3V247H179Zm.7 24h-1v1.4h1V271Zm-.6.3-22.7-24.7-1 .8 22.8 24.7.9-.8Zm-23.2-25H150v1.3h5.8v-1.2Zm-6.5.7v28h1.3v-28h-1.3Zm.7 28.6h3.3v-1.2H150v1.2Zm3.9-.6v-24.7h-1.3V275h1.3Zm-.6-24h.9v-1.3h-1v1.2Zm.4-.3 23 24.7.9-.8-23-24.7-.9.8Zm23.4 25h5.8v-1.3h-5.8v1.2Zm6.4-.7v-28h-1.2v28h1.2Zm-.6-28.6h-3.3v1.2h3.3v-1.2Zm30 .5v-.6h-.3l-.1.1.4.5Zm-7.7 7-.4-.5-1.2 1.1h1.6v-.6Zm5 0v.6h.2l.2-.1-.5-.5Zm4-3.7h.6v-1.5l-1 1 .4.5Zm0 24.7h-.7v.6h.7v-.6Zm3.2 0v.6h.7v-.6h-.7Zm0-28h.7v-.6h-.7v.6Zm-5-.5-7.6 7 .9 1 7.6-7-.8-1Zm-7.2 8.1h5v-1.2h-5v1.2Zm5.4-.1 4-3.8-.9-.9-4 3.7.9 1Zm3-4.2v24.7h1.2v-24.7h-1.3Zm.6 25.3h3.2v-1.3h-3.2v1.3Zm3.9-.6v-28h-1.3v28h1.3Zm-.7-28.6H213v1.2h4.5v-1.2Zm35.2 3.4v.6-.6Zm1 .4.5-.4-.4.4Zm.6 1h.6-.6Zm0 19h.6-.6Zm-.5 1 .4.5-.4-.5Zm-1 .5v.6-.6Zm-24 0v.6-.6Zm-1.4-1.5h.6-.6Zm0-19 .6.1h-.6Zm.4-1-.5-.4.5.4Zm1-.4v.6-.6Zm0-3.3-.1-.7v.7ZM224 251h.6-.6Zm0 19.2h.6-.6Zm4.6 4.7v.6-.6Zm24.2 0v.6-.6Zm4.6-4.7h-.6.6Zm0-19.2h-.6.6Zm-4.6-4.6v-.7.7Zm-12 3.6c3.9 0 7.9.1 11.8.3v-1.2c-3.9-.2-8-.3-11.9-.3v1.2Zm11.8.3c.3 0 .5.1.6.3l1-1a2 2 0 0 0-1.6-.5v1.2Zm.6.3c.2.1.3.4.3.6h1.3c0-.6-.3-1.1-.7-1.5l-.9.9Zm.3.6c.4 6.3.4 12.6 0 18.8l1.3.1c.3-6.3.3-12.7 0-19l-1.3.1Zm0 18.8c0 .3-.1.5-.3.7l1 .9c.3-.4.5-1 .6-1.5h-1.3Zm-.3.7a1 1 0 0 1-.6.3l.1 1.2c.5 0 1-.2 1.4-.6l-.9-1Zm-.6.3-11.9.2v1.3l12-.3V271Zm-11.9.2c-4 0-8 0-12-.2v1.2l12 .3v-1.3Zm-11.9-.2-.7-.3-.9.9c.4.4 1 .6 1.5.6l.1-1.2Zm-.7-.3a.8.8 0 0 1-.2-.6h-1.3c0 .6.3 1 .6 1.5l1-1Zm-.2-.7c-.3-6.2-.3-12.5 0-18.8h-1.3c-.3 6.2-.3 12.6 0 19l1.3-.2Zm0-18.8c0-.2 0-.4.2-.6l-.9-1a2 2 0 0 0-.6 1.6h1.3Zm.2-.6.6-.3v-1.2c-.5 0-1 .2-1.5.6l1 .9Zm.7-.3 12-.3v-1.2c-4 0-8.1 0-12 .3v1.2Zm-.2-4.6a5.5 5.5 0 0 0-5.3 5.3h1.3c.1-2.2 1.9-3.9 4-4v-1.3Zm-5.3 5.3c-.3 6.4-.3 12.8 0 19.3l1.3-.1c-.4-6.4-.4-12.8 0-19.2h-1.3Zm0 19.3a5.5 5.5 0 0 0 5.3 5.2v-1.3c-2.1 0-3.9-1.8-4-4h-1.3Zm5.3 5.2c4 .2 8 .3 12.1.3v-1.3l-12-.3-.1 1.3Zm12.1.3 12.1-.3v-1.3l-12 .3v1.3Zm12.1-.3a5.5 5.5 0 0 0 5.3-5.2l-1.3-.1c0 2.2-1.8 4-4 4v1.3Zm5.3-5.2c.3-6.5.3-12.9 0-19.3h-1.3c.3 6.4.3 12.8 0 19.2h1.3Zm0-19.3a5.5 5.5 0 0 0-5.3-5.3v1.3c2.2.1 4 1.8 4 4h1.3Zm-5.3-5.3-12-.2v1.2l12 .3v-1.3Zm-12-.2c-4.1 0-8.2 0-12.2.2v1.3c4-.2 8-.3 12.1-.3v-1.2Zm52 4.2-.1.6v-.6Zm1 .4.4-.4-.4.4Zm.5 1h.6-.6Zm0 19h.6-.6Zm-.5 1 .4.5-.4-.5Zm-1 .5v.6-.6Zm-24 0v.6-.6Zm-1.5-1.5h.7-.7Zm0-19 .7.1h-.7Zm.5-1-.5-.4.5.4Zm1-.4v.6-.6Zm-.1-3.3v-.7.7Zm-4.6 4.6h.6-.6Zm0 19.2h.6-.6Zm4.6 4.7v.6-.6Zm24.2 0v.6-.6Zm4.6-4.7h-.6.6Zm0-19.2h-.6.6Zm-4.6-4.6v-.7.7Zm-12.1 3.6c4 0 8 .1 11.9.3v-1.2l-11.9-.3v1.2Zm12 .3c.1 0 .4.1.5.3l1-1a2 2 0 0 0-1.6-.5v1.2Zm.5.3c.2.1.3.4.3.6h1.3c0-.6-.3-1.1-.7-1.5l-.9.9Zm.3.6c.3 6.3.3 12.6 0 18.8l1.3.1c.3-6.3.3-12.7 0-19l-1.3.1Zm0 18.8c0 .3-.1.5-.3.7l1 .9c.3-.4.5-1 .6-1.5h-1.3Zm-.3.7a1 1 0 0 1-.6.3v1.2c.6 0 1.1-.2 1.5-.6l-.9-1Zm-.6.3-11.9.2v1.3l12-.3-.1-1.2Zm-11.9.2c-4 0-8 0-12-.2v1.2l12 .3v-1.3Zm-12-.2-.6-.3-.9.9c.4.4 1 .6 1.5.6V271Zm-.6-.3a.8.8 0 0 1-.2-.6h-1.3c0 .6.2 1 .6 1.5l1-1Zm-.2-.7c-.3-6.2-.3-12.5 0-18.8h-1.3c-.3 6.2-.3 12.6 0 19l1.3-.2Zm0-18.8c0-.2 0-.4.2-.6l-.9-1a2 2 0 0 0-.6 1.6h1.3Zm.2-.6.6-.3v-1.2c-.5 0-1 .2-1.5.6l1 .9Zm.7-.3 11.9-.3v-1.2c-4 0-8 0-12 .3v1.2Zm-.2-4.6a5.5 5.5 0 0 0-5.3 5.3h1.3c.1-2.2 1.8-3.9 4-4v-1.3Zm-5.3 5.3c-.3 6.4-.3 12.8 0 19.3l1.3-.1c-.4-6.4-.4-12.8 0-19.2h-1.3Zm0 19.3a5.5 5.5 0 0 0 5.3 5.2v-1.3c-2.2 0-3.9-1.8-4-4h-1.3Zm5.3 5.2c4 .2 8 .3 12.1.3v-1.3l-12-.3-.1 1.3Zm12.1.3 12.1-.3v-1.3c-4 .2-8.1.3-12.1.3v1.3Zm12.1-.3a5.5 5.5 0 0 0 5.3-5.2l-1.3-.1c-.1 2.2-1.8 4-4 4v1.3Zm5.3-5.2c.3-6.5.3-12.9 0-19.3h-1.3c.3 6.4.3 12.8 0 19.2h1.3Zm0-19.3a5.5 5.5 0 0 0-5.3-5.3v1.3c2.2.1 3.9 1.8 4 4h1.3Zm-5.3-5.3-12.1-.2v1.2l12 .3.1-1.3Zm-12.1-.2c-4 0-8.1 0-12.1.2v1.3c4-.2 8-.3 12.1-.3v-1.2Zm54.5 1.5v-.6h-.2l-.2.1.4.5Zm-13.5 11.8-.4-.5.4.5Zm-2.5 2.2.4.5-.4-.5Zm-16 14-.4-.5-1.3 1.1h1.7v-.6Zm5 0v.6h.2l.2-.1-.4-.5Zm13.5-11.8-.4-.5.4.5Zm2.5-2.2.4.5-.4-.5Zm16-14 .5.5 1.2-1.1h-1.7v.6ZM308 261.2v.7-.7Zm5 0v.7-.7Zm4.6-4.6h.6-.6Zm0-5h.6-.6Zm-4.7-4.6v-.6.6Zm-4.9 0v-.6.6Zm-4.6 4.7h-.6.6Zm0 4.8h-.6.6Zm3.7-5.7.5.4-.5-.4Zm1-.5v-.6.6Zm4.7 0v-.6.6Zm1 .5-.4.4.4-.4Zm.5 1h.6-.6Zm0 4.6h.6-.6Zm-7.2 1 .5-.4-.5.5Zm28.7 3.4v-.6.6Zm-4.9 0v-.6.6Zm-4.6 4.7h-.7.7Zm0 4.9h-.7.7Zm4.6 4.6v.6-.6Zm4.9 0v.6-.6Zm4.6-4.6h.7-.7Zm0-5h.7-.7Zm-3.7 5.9-.5-.5.5.5Zm-6.7 0-.5.4.5-.4Zm0-6.7-.5-.5.5.5Zm1-.5v-.6.6Zm4.6 0 .1-.6v.6Zm1 .5-.4.4.5-.4Zm.6 1h.6-.6Zm-2.2-19-13.5 11.7.8 1 13.6-11.8-.9-1Zm-13.5 11.7-2.5 2.2.8 1 2.5-2.2-.8-1Zm-2.5 2.2-16 14 .8 1 16-14-.8-1Zm-15.6 15.1h5v-1.2h-5v1.2Zm5.4-.1 13.5-11.8-.8-1-13.5 11.8.8 1Zm13.5-11.8 2.5-2.2-.8-1-2.5 2.2.8 1Zm2.5-2.2 16-14-.8-1-16 14 .8 1Zm15.6-15.1h-5v1.2h5v-1.2ZM308 261.9h5v-1.3h-5v1.3Zm5 0a5.5 5.5 0 0 0 5.2-5.3h-1.3c0 2.1-1.8 3.9-4 4v1.3Zm5.2-5.3v-5h-1.3v5h1.3Zm0-5a5.5 5.5 0 0 0-5.2-5.2l-.1 1.2c2.2.1 4 1.9 4 4h1.3Zm-5.3-5.2H308v1.2h5v-1.2Zm-4.9 0a5.5 5.5 0 0 0-5.2 5.2h1.2c.1-2.1 1.9-3.9 4-4v-1.2Zm-5.2 5.3v4.8h1.2v-4.8h-1.2Zm0 4.9c0 2.8 2.4 5 5.2 5.3v-1.3c-2.1-.2-3.9-1.9-4-4h-1.2Zm4.8-5.4.6-.3-.1-1.2c-.5 0-1 .2-1.4.6l.9 1Zm.6-.3h4.6v-1.2H308v1.2Zm4.5 0c.3 0 .5.2.7.3l.9-.9c-.4-.4-1-.6-1.5-.6v1.2Zm.7.3.3.7 1.2-.2c0-.5-.2-1-.6-1.4l-1 1Zm.3.6v4.6h1.2v-4.6h-1.2Zm0 4.6-.3.6.9 1c.4-.5.6-1 .6-1.5l-1.2-.1Zm-.3.6-.6.3v1.2a2 2 0 0 0 1.5-.6l-1-.9Zm-.6.3H308v1.2h4.6v-1.2Zm-4.6 0c-.2 0-.5-.1-.6-.3l-1 1c.5.3 1 .5 1.6.5v-1.2Zm-.6-.3a.9.9 0 0 1-.3-.6H306c0 .6.3 1.1.7 1.5l.9-.9Zm-.3-.6v-4.6H306v4.6h1.3Zm0-4.6.3-.6-1-.9a2 2 0 0 0-.6 1.5h1.3Zm28.5 8.4h-4.9v1.3h4.9v-1.3Zm-5 0a5.5 5.5 0 0 0-5.2 5.2l1.3.1c.1-2.2 1.8-4 4-4v-1.3Zm-5.2 5.3v4.9h1.3v-5h-1.3Zm0 4.9a5.5 5.5 0 0 0 5.2 5.2l.1-1.2a4.2 4.2 0 0 1-4-4h-1.3Zm5.3 5.2h4.9v-1.2h-5v1.2Zm5 0c2.8 0 5-2.4 5.2-5.2h-1.3c-.1 2.1-1.8 3.9-4 4v1.2Zm5.2-5.2v-5h-1.3v5h1.3Zm0-5a5.5 5.5 0 0 0-5.3-5.2v1.3c2.2 0 3.9 1.8 4 4h1.3Zm-4.9 5.4c-.1.2-.3.3-.6.3v1.3a2 2 0 0 0 1.5-.7l-.9-.9Zm-.6.3H331v1.3h4.6V271Zm-4.6 0-.6-.3-.9 1c.4.3 1 .6 1.5.6V271Zm-.6-.3a.9.9 0 0 1-.2-.6h-1.3c0 .6.2 1.1.6 1.5l1-.9Zm-.2-.6v-4.6h-1.3v4.6h1.3Zm0-4.6c0-.2 0-.4.2-.6l-.9-.9a2 2 0 0 0-.6 1.5h1.3Zm.2-.6.7-.3v-1.2c-.6 0-1.2.2-1.6.6l1 1Zm.7-.3h4.5v-1.2H331v1.2Zm4.5 0 .6.3 1-.9c-.5-.4-1-.6-1.5-.6l-.1 1.2Zm.6.3c.2.2.3.4.3.7l1.3-.1c0-.6-.3-1-.7-1.5l-.9 1Zm.3.6v4.6h1.3v-4.6h-1.3Zm0 4.6c0 .2 0 .4-.3.6l1 1c.3-.4.6-1 .6-1.6h-1.3ZM144.7 231.2c0 .4-.2.8-.5 1-.3.4-.7.5-1 .5a237.6 237.6 0 0 1-24 0c-.3 0-.7-.1-1-.4-.3-.3-.4-.7-.4-1-.4-6.3-.4-12.7 0-19 0-.4.1-.7.4-1 .3-.3.7-.4 1-.5a299 299 0 0 1 24 0c.3 0 .7.2 1 .5.3.3.4.6.5 1v2.5h3.4l-.1-2.6a4.9 4.9 0 0 0-4.7-4.7 245.2 245.2 0 0 0-24.2 0 4.9 4.9 0 0 0-4.6 4.7c-.4 6.4-.4 12.8 0 19.2a4.8 4.8 0 0 0 4.6 4.6 242.9 242.9 0 0 0 24.2 0c2.5 0 4.5-2.1 4.7-4.6v-2.6h-3.3v2.4Zm31.5 1.3h-19.8v-24.7h-3.2v28h23v-3.3Zm30.1-21.4v-3.3H180v28h26.3v-3.3h-23v-9h23v-3.3h-23V211h23Zm32 24.7h3.7l-12.8-28h-7.3l-12.8 28h3.6l2.7-6h20.2l2.8 6Zm-21.4-9.4 7-15.3h3.1l7 15.3h-17Zm58.5-18.6v24.7h-1.1l-22.8-24.7h-5.8v28h3.3V211h1l22.8 24.7h5.8v-28h-3.2Zm36 3.3v-3.3H285v28h26.4v-3.3h-23v-9h23v-3.3h-23V211h23Zm5.3-3.3v28h3.3V225h8.1l15.7 10.7h5.8L334 225h9a4.9 4.9 0 0 0 4.6-4.6v-8a4.9 4.9 0 0 0-4.7-4.7h-26.2Zm26 3.3c.5 0 .8.2 1.1.4.3.3.4.7.4 1v7.8c0 .4-.1.8-.4 1-.3.3-.6.5-1 .5H320v-10.7h22.8Z" fill="#000"/><path d="m144.7 231.2.6.1h-.6Zm-1.6 1.5v-.6.6Zm-23.9 0v-.6.6Zm-1.4-1.5h.6-.6Zm0-18.9h.6-.6Zm.4-1 .4.5-.4-.5Zm1-.5v-.6.6Zm24 0v-.6.6Zm1 .5-.5.5.5-.5Zm.5 1h.6-.6Zm0 2.5h-.6v.6h.6v-.6Zm3.4 0v.6h.6v-.6h-.6Zm-.1-2.6h-.7.7Zm-4.7-4.7v.7-.7Zm-24.2 0v.7-.7Zm-4.6 4.7h.6-.6Zm0 19.2h.6-.6Zm4.6 4.6v-.6.6Zm24.2 0v-.6.6Zm4.7-4.6h.6-.6Zm0-2.6h.7v-.6h-.6v.6Zm-3.3 0v-.6h-.6v.6h.6Zm-.7 2.4c0 .2-.1.5-.3.6l1 1 .6-1.5-1.3-.1Zm-.3.6c-.1.2-.3.3-.6.3v1.3a2 2 0 0 0 1.5-.7l-.9-.9Zm-.6.3-11.9.3v1.2c4 0 8 0 12-.2V232Zm-11.9.3-12-.3v1.3c4 .2 8 .2 12 .2v-1.2Zm-12-.3-.6-.3-.9 1c.4.3 1 .6 1.5.6V232Zm-.6-.3a.9.9 0 0 1-.2-.6H117c0 .6.3 1.1.6 1.5l1-.9Zm-.2-.6c-.3-6.2-.3-12.6 0-18.8H117c-.3 6.2-.3 12.6 0 18.9h1.3Zm0-18.9c0-.2 0-.4.2-.5l-.9-1a2 2 0 0 0-.6 1.5h1.3Zm.2-.5c.2-.2.5-.3.7-.3l-.1-1.3c-.5 0-1 .3-1.5.7l1 .9Zm.7-.3 12-.3v-1.3c-4 0-8.1.1-12 .3v1.3Zm12-.3c3.9 0 7.9.1 11.8.3v-1.3c-3.9-.2-8-.3-11.9-.3v1.3Zm11.8.3c.3 0 .5 0 .6.3l1-1c-.5-.3-1-.6-1.5-.6l-.1 1.3Zm.6.3c.2.1.3.3.3.6l1.3-.1c0-.6-.3-1-.7-1.4l-.9.9Zm.3.6.1 2.4h1.3l-.1-2.5H144Zm.7 3h3.4v-1.2h-3.4v1.2Zm4-.6-.1-2.6h-1.3l.1 2.6h1.3Zm-.1-2.6a5.5 5.5 0 0 0-5.3-5.3v1.3c2.2 0 4 1.8 4 4h1.3Zm-5.3-5.3-12-.3v1.3c4 0 8 0 12 .3v-1.3Zm-12-.3c-4.1 0-8.2.1-12.2.3v1.3c4-.2 8-.3 12.1-.3v-1.3Zm-12.2.3a5.5 5.5 0 0 0-5.3 5.3h1.3c.1-2.2 1.9-4 4-4v-1.3Zm-5.3 5.3c-.3 6.4-.3 12.8 0 19.2h1.3c-.3-6.4-.3-12.8 0-19.2h-1.3Zm0 19.2a5.5 5.5 0 0 0 5.3 5.3v-1.3c-2.1 0-3.9-1.9-4-4h-1.3Zm5.3 5.3c4 .2 8 .2 12.1.2v-1.2l-12-.3-.1 1.3Zm12.1.2c4 0 8 0 12.1-.3v-1.2l-12 .3v1.2Zm12.1-.3c2.9 0 5.2-2.4 5.3-5.2h-1.3c0 2.1-1.8 4-4 4v1.3Zm5.3-5.2.1-2.6h-1.3v2.6h1.2Zm-.5-3.2h-3.4v1.2h3.4v-1.2Zm-4 .6v2.4h1.2v-2.4h-1.2Zm32 3.7h.7v-.6h-.6v.6Zm-19.7 0h-.6v.6h.6v-.6Zm0-24.7h.7v-.7h-.7v.7Zm-3.2 0v-.7h-.7v.7h.7Zm0 28h-.7v.6h.7v-.6Zm23 0v.6h.6v-.6h-.6Zm0-4h-19.8v1.3h19.8V232Zm-19.1.7v-24.7h-1.3v24.7h1.3Zm-.7-25.4h-3.2v1.3h3.2v-1.3Zm-3.9.7v28h1.3v-28h-1.3Zm.7 28.6h23v-1.3h-23v1.3Zm23.6-.6v-3.3h-1.3v3.3h1.3Zm29.5-24.7v.6h.7v-.6h-.7Zm0-3.3h.7v-.7h-.7v.7Zm-26.3 0v-.7h-.7v.7h.7Zm0 28h-.7v.6h.7v-.6Zm26.3 0v.6h.7v-.6h-.7Zm0-3.3h.7v-.6h-.7v.6Zm-23 0h-.7v.6h.7v-.6Zm0-9v-.7h-.7v.6h.7Zm23 0v.6h.7v-.7h-.7Zm0-3.3h.7v-.7h-.7v.7Zm-23 0h-.7v.6h.7v-.6Zm0-9.1v-.7h-.7v.7h.7Zm23.7 0v-3.3h-1.3v3.3h1.3Zm-.7-4H180v1.3h26.3v-1.3Zm-27 .7v28h1.3v-28h-1.3Zm.7 28.6h26.3v-1.3H180v1.3Zm27-.6v-3.3h-1.3v3.3h1.3Zm-.7-4h-23v1.3h23V232Zm-22.4.7v-9h-1.3v9h1.3Zm-.6-8.4h23v-1.3h-23v1.3Zm23.7-.7v-3.2h-1.3v3.2h1.3Zm-.7-3.9h-23v1.3h23v-1.3Zm-22.4.7V211h-1.3v9h1.3Zm-.6-8.5h23v-1.3h-23v1.3Zm55 24-.5.3.2.4h.4v-.6Zm3.7 0v.7h1l-.5-.9-.5.3Zm-12.8-28 .5-.2-.1-.4h-.4v.7Zm-7.3 0v-.6h-.4l-.2.4.6.3Zm-12.8 28-.6-.2-.4 1h1v-.7Zm3.6 0v.7h.4l.1-.4-.5-.2Zm2.7-6v-.6h-.4l-.2.4.6.3Zm20.2 0 .6-.2-.2-.4h-.4v.7Zm-18.7-3.3-.5-.2-.4.9h1v-.7Zm7-15.3v-.7h-.3l-.2.4.6.3Zm3.1 0 .6-.3-.2-.4h-.4v.7Zm7 15.3v.7h1l-.3-1-.6.3Zm4.4 10h3.6v-1.3h-3.6v1.3Zm4.1-.9-12.8-28-1.1.5 12.8 28 1.1-.5Zm-13.3-28.4h-7.3v1.3h7.3v-1.3Zm-8 .4-12.7 28 1.1.5 12.8-28-1.1-.5Zm-12.1 29h3.6V235H209v1.3Zm4.1-.5 2.8-6-1.2-.5-2.7 6 1.1.5Zm2.2-5.6h20.2v-1.3h-20.2v1.3Zm19.6-.4 2.8 6 1.1-.5-2.7-6-1.2.5Zm-17.5-3.3 7-15.4-1-.5-7.1 15.4 1.1.5Zm6.5-15h3v-1.3h-3v1.3Zm2.5-.4 7 15.4 1.2-.5-7-15.4-1.2.5Zm7.6 14.5h-17.2v1.3h17.2v-1.3Zm41.3-18v-.7h-.7v.7h.7Zm0 24.7v.6h.6v-.6h-.6Zm-1.1 0-.5.4.2.2h.3v-.6Zm-22.8-24.7.5-.4-.2-.3h-.3v.7Zm-5.8 0v-.7h-.6v.7h.6Zm0 28h-.6v.6h.6v-.6Zm3.3 0v.6h.6v-.6h-.6Zm0-24.7v-.7h-.6v.7h.6Zm1 0 .4-.5-.2-.2h-.3v.7Zm22.8 24.7-.4.4.2.2h.2v-.6Zm5.8 0v.6h.7v-.6h-.7Zm0-28h.7v-.7h-.7v.7Zm-3.9 0v24.7h1.3v-24.7h-1.3Zm.7 24h-1.1v1.3h1V232Zm-.7.3L252 207.4l-1 .8 22.8 24.7 1-.8Zm-23.2-25h-5.8v1.3h5.8v-1.3Zm-6.4.7v28h1.3v-28H245Zm.6 28.6h3.3v-1.3h-3.3v1.3Zm4-.6V211h-1.3v24.7h1.2Zm-.7-24.1h1v-1.3h-1v1.3Zm.5-.2 22.9 24.7.9-.9-23-24.7-.8.9Zm23.3 25h5.8V235h-5.8v1.3Zm6.5-.7v-28H278v28h1.3Zm-.7-28.7h-3.2v1.3h3.2v-1.3Zm32.8 4v.6h.6v-.6h-.6Zm0-3.3h.6v-.7h-.6v.7Zm-26.4 0v-.7h-.6v.7h.6Zm0 28h-.6v.6h.6v-.6Zm26.4 0v.6h.6v-.6h-.6Zm0-3.3h.6v-.6h-.6v.6Zm-23 0h-.7v.6h.6v-.6Zm0-9v-.7h-.7v.6h.6Zm23 0v.6h.6v-.7h-.6Zm0-3.3h.6v-.7h-.6v.7Zm-23 0h-.7v.6h.6v-.6Zm0-9.1v-.7h-.7v.7h.6Zm23.6 0v-3.3h-1.3v3.3h1.3Zm-.6-4H285v1.3h26.4v-1.3Zm-27 .7v28h1.3v-28h-1.3Zm.6 28.6h26.4v-1.3H285v1.3Zm27-.6v-3.3h-1.3v3.3h1.3Zm-.6-4h-23v1.3h23V232Zm-22.5.7v-9h-1.2v9h1.2Zm-.6-8.4h23v-1.3h-23v1.3Zm23.7-.7v-3.2h-1.3v3.2h1.3Zm-.6-3.9h-23v1.3h23v-1.3Zm-22.5.7V211h-1.2v9h1.2Zm-.6-8.5h23v-1.3h-23v1.3Zm28.4-4v-.6h-.6v.7h.6Zm0 28h-.6v.7h.6v-.6Zm3.3 0v.7h.6v-.6h-.6Zm0-10.6v-.6h-.7v.6h.7Zm8.1 0 .4-.5-.2-.1h-.2v.6Zm15.7 10.7-.4.5.2.1h.2v-.6Zm5.8 0v.6h2l-1.6-1.2-.4.6ZM334 225v-.6h-2.1l1.7 1.1.4-.5Zm9 0v.7-.7Zm4.6-4.6h.6-.6Zm0-8h.6v-.1h-.6Zm-4.7-4.7v-.7.7Zm-.1 3.3v-.7.7Zm1.4 1.5h-.6.6Zm0 7.7h.7-.6Zm-.4 1 .5.5-.5-.4Zm-1 .5v.7-.7Zm-22.8 0h-.7v.6h.7v-.6Zm0-10.7v-.7h-.7v.7h.7Zm-4-3.3v28h1.3v-28h-1.2Zm.7 28.6h3.3v-1.3h-3.3v1.3Zm4-.6V225h-1.4v10.7h1.3Zm-.7-10h8.1v-1.3H320v1.3Zm7.8-.2 15.6 10.7.7-1-15.6-10.7-.7 1Zm16 10.8h5.8v-1.3h-5.8v1.3Zm6.2-1.2-15.7-10.6-.7 1 15.7 10.7.7-1Zm-16-9.4h9v-1.3h-9v1.3Zm9 0a5.5 5.5 0 0 0 5.2-5.3H347c0 2.1-1.8 3.9-4 4v1.3Zm5.2-5.3v-8H347v8h1.3Zm0-8.1a5.5 5.5 0 0 0-5.2-5.3l-.1 1.3c2.2.1 4 1.9 4 4h1.3Zm-5.3-5.3h-26.2v1.3h26.2v-1.3Zm-.2 4.6c.3 0 .5.1.7.3l.9-.9c-.4-.4-1-.6-1.5-.7l-.1 1.3Zm.7.3.2.6h1.3a2 2 0 0 0-.6-1.5l-1 .9Zm.2.6v7.7h1.3v-7.7h-1.3Zm0 7.7c0 .2 0 .4-.2.6l.9 1c.4-.5.6-1 .6-1.5l-1.2-.1Zm-.2.6a1 1 0 0 1-.7.3l.1 1.3c.6 0 1-.3 1.5-.7l-1-.9Zm-.6.3H320v1.2h22.8v-1.2Zm-22.2.6v-10.7h-1.3v10.7h1.3Zm-.6-10.1h22.8v-1.3H320v1.3Z" fill="#000"/></svg>