<svg xmlns="http://www.w3.org/2000/svg" viewBox="0 0 428 627"><path fill="#f3c010" d="m104.4 55.7 8.3 3 6.5 2.6h4c2.4 0 4.7.3 5.5.7.8.6 3.2 1.3 5.4 1.8l4 1.2 3.7-.6 3.8-.5-1.4 1.5-1.5 1.5 1.4-.2 1.4-.2-.5 1.3-.4 1.4 1.4-.1 5.4-.4 4-.2-.6-1-.7-1 3.2-.4 3.4-.5.3 2.6.4 2.5 1-.2c.6 0 1.1-.8 1-1.4v-2.6c0-.6.5-2 1-3 .7-.8 1.1-2.2 1-3l-.2-1.5 1.9-.3c1-.2 4.1 0 7 .6 2.8.5 5.8.8 6.7.7l8.9-.7 7.2-.5.3-2.6c.3-1.6.4-3 .3-3.4 0-.4 1.2-2 2.6-3.8l2.5-3.2 4 2c6 3.2 12.4 5.3 19 6.2l1.8-.2 6.1 2.8 6.2 3h6.9l6.8-.1-1.2 1-1 1.1 4.4 1.7L260 65l4-.6 4-.5 1.1 2.8 1 2.7 1.6.5 1.6.4-.2-1.8-.3-1.9 1.3-.1c.8 0 3 .5 5 1.2l3.4 1.2-1.6.3-1.6.4 1.8 1 1.8 1-2.7.4-2.6.4 2.6 1.7 2.7 1.5 4.7-.1a21 21 0 0 1 6.5.3l2 .6-.3 1.1-.4 1.2 2 .4c1.2.3 4 .4 6.4.4l4.3-.2 6.3 2.8 10.2 4.6 4 1.6.2 1.9.3 1.9 2.8.4 2.8.3.2 1.2c0 .6.7 1 1.3 1 1.4-.3 4 2 5.3 4.6l1 2.1 5.4-.7 5.4-.8.3 1.9.2 1.9 1.1-.2 1-.1.5 3.1.5 3.2 2.7-.4 2.6-.4-.2-1.5-.2-1.4 2.5 2 2.5 2-.2-1.4-.2-1.5 1.6-.3 1.6-.2-.2-1.9-.3-2 1.7-1a8 8 0 0 0 2.4-2.5l.7-1.5.2 1.5.2 1.6 3.1-.4 3.2-.4.2-1.5.1-1.3 4 5.2 3.9 5.4.7-1 1-.7.1 1.7.3 1.6.8-2 .8-2 1.3 1.7 1.4 1.7-.3-1.9-.2-1.7 1.4 1.2 1.2 1 6-5.9a63 63 0 0 0 6.9-8.1l.9-2 5.8-1 5.8-1 2.7 2.3c1.6 1.3 3 3 3 3.8q.2.8 1.8 450.6l-4.7-3.2-4.8-3.3-1.3.8-1.3.8-2.9-1c-1.6-.5-3-1.5-3-2s-1-1.1-2-1.4l-1.7-.5-1 4.7-1 4.9-1.3-1.2-1.4-1.2-2.6 2.8-2.6 2.9-1.6-1.7-1.5-1.7-1.9.2-1.7.3 1.3-1.2 1.2-1.3-6.2-.8-6.2-.8-1.4-1.6-1.4-1.5.8-.1c.6-.1-.4-1-2-2a9.6 9.6 0 0 0-3.6-1.5c-.3.2-1.6-1.8-2.6-4.6l-2.2-5-.6 2-.7 1.7-2.7-2.7-2.7-2.7-.6 1.6-.7 1.8-1.8-.6-2-.5.7 4.5.6 4.4-1.3 5c-1.4 6-2 7-5.6 10l-2.8 2.2-.3 2.5c-.3 2.6-1.6 3.3-3 1.4l-.8-1.2-1 .8-.9.9-.1-1-.2-1.1-2 .1h-2.9c-.7 0-1.7 0-2.5.3l-1.3.3.3 2.1.4 2.3-3.5 4.7-3.5 4.5-.5-1.2-.6-1.2-1.3 2.1c-2 3.3-2 3.1-10.4-3-.8-.5-2-1-2.6-.9l-1 .1-1.9-3.3c-1-1.8-3-4-4.3-5.1l-2.5-2.1.1-1.7v-1.5l-1.8-1.4-1.9-1.3-.2-2-.3-1.7-1 1-.8.8-2.3-3-2.3-3-2.1 1.2c-1.1.7-2.3 1.7-2.4 2.4l-.2 1.3-3.7-3.5c-1.9-1.9-4-3.4-4.6-3.3l-1.2.2-.2-2-.3-1.8-1 .2-1.2.1-1.3-2.7-3.2-6.3-1.7-3.4-.7 1.9-.8 2-.5-2.5-1-6.9-.5-4.4-.6 2.6-.6 2.7-.8-1.8c-.4-1-1.5-3.8-2.6-6-1-2.5-2.5-7-3.3-10.1l-1.4-5.7-1.6 2.4a29.5 29.5 0 0 0-3 11.3c0 .4-1 2.7-2.6 5.2l-2.6 4.6-.2 3.2a9.2 9.2 0 0 1-1.2 4.3l-1 .9.2 3.3.1 3.3-1.1 2c-1.2 2-3 5.5-5.9 12l-1.6 3.6-2.6.9-2.6 1-1.4-1.2-1.4-1.2-.3 1.5c-.3 1-.8 1.8-1.3 1.9l-1 .1-.2-1.7-.3-1.8-1.9.5-1.8.4v-4.2l-1.8.5-2 .4-2.4 6c-1.2 3-2.5 5.9-4 8.7l-1.7 2.5-1-.6-1.3-.6.3 2 .3 2-2.2.2-2.1.3-.4-2.5-.3-2.5-1.5.2-1.5.2-1.8-3.8-1.7-3.8-.6.9-.6.8-2.4-2.6-2.4-2.7.3-2.1.4-2.1-1.3.2-1.2.1.5-1.2.4-1.3-.8-.4-1-.5-1-7.6-1-7.6-.8.7-.7.8-.2-1.4-.2-1.4-1.2 1-1 1.1.3-2.2.4-2.2-1 .9-1 1-1.7-1.3-1.6-1.2-.4 2.6-.3 2.6-4.7-1.2c-5.9-1.5-9.4-2-14.5-1.7l-4 .3-2.7-1.8-2.7-1.7-2.6.4-2.5.3v-5.9l-.1-5.8-1.6-.8-1.4-.9v-10.5l1.2-.1 1-.2-1.3-7.2-1.2-7.4.5-1.5c.3-.9.5-1.6.2-1.7l-2.3-.1-1.9-.2.3 2.4.4 2.4-.9.1-.9.1-.7 4.9c-.4 2.7-1.5 6.3-2.5 7.9l-1.8 3 .6 2.3a21 21 0 0 1 0 5.6l-.7 3.3 1 .6 1.3.6-1.1 1-1 1.1.3 2.5.3 2.4-1.7 2.7-1.7 2.6-3.3 1.4-3.3 1.3-.4 2.2c-.2 1.3-1 3-1.5 4l-1.2 2 .7.9.7 1-3.3 1.1-3.2 1.3-1-.7c-.7-.3-1.3-1.3-1.4-2.3l-.3-2-1 1-1 .9v-1.3l-.3-1.3 1.3-.2 1.4-.2-3-1.3-2.8-1.1-.8-3.5-.8-3.3-1.1.1c-.5.1-.9.8-.8 1.5l.2 1.3-1.2-.6-1.2-.6.3 2.9c.1 1.6.4 3.3.6 3.8l.2 1-1.6.2-1.6.2.2 1.9.3 1.9-1 .1-1.2.2-.2 3.2-.2 3.2-1.5.2-1.6.3-.3 2-.4 1.9-2 .3-2 .3-.6-3-.5-2.7-.2 2.3-.1 2.3-2.2.3-2 .3-.5-3.2-.4-3.1-2.5-2.2-2.5-2.2-.8-5.6-.7-5.5-1.8-.5-1.7-.4.2 1.2c.2 1.4-3.2 9.7-4.4 10.5-.4.3-.5 1.4-.4 2.4l.2 1.7-1.5.2c-.7.1-2.1-.4-2.9-1.4l-1.5-1.5-3.7.6-3.5.6-2-1.4-2-1.4-.4-3.3-.6-3.3L46 539l-1.3 2.7-.2-1-.1-1.2-1.7 2.8c-.9 1.5-2 4.1-2.5 5.7l-.9 3-1-.4-.9-.6-.8 3.1-.7 3-3.1.2-4 .2-.7-.2-.5-3.6-.6-3.6-1.4-.5-1.4-.3-2.4-5.8a95.8 95.8 0 0 0-4.5-9.5l-2.1-3.5-3.3-23.4c-1.7-12.8-3.9-28.9-4.7-35.8l-1.9-14.8-.4-2.1-2.1.3-2 .2-.9 2.3-.8-324.8c1.7-.4 3.3-1.2 3.5-1.8.3-.4 2.5-1.4 5-2.3l4.4-1.4 6.8-4.9 6.7-4.9 3.2-.2 3.4-.2 1.7-3 1.6-2.7-.2-4.1-.2-4 1.8-1.6 1.6-1.5 4.3-.8a40.8 40.8 0 0 0 15.5-6.6L59 90l5-.6 4.8-.7 3.7-3.9 3.7-3.8.8.9c.5.6 1.7 1 3 1.1l2 .1 2.9-1.8 2.8-2-.4-1.1-.4-1.3 3-2.6 2.9-2.5 1.7-4.8 3.5-8.1 1.7-3.6 1.4-.2c.9-.1 2.2.2 3.2.6Z"/><path d="M238.2 240.5a1 1 0 0 0-.7.3l-.3.6q-.4 14.6 0 21.8l.2.8.8.3c9.2.4 18.3.4 27.5 0 .3 0 .5-.2.7-.3q.3-.5.3-.8c.5-7.2.5-14.5 0-21.6 0-.3 0-.7-.3-.8q-.2-.3-.7-.3c-4.6-.3-9.1-.3-13.8-.3-4.5 0-9.1 0-13.7.3Zm-6.2.8c.1-3.3 2.7-6 6-6.2l14-.2 14 .2c3.2.3 5.9 2.8 6 6 .4 7.5.4 15 0 22.4a6.3 6.3 0 0 1-6 6l-14 .3c-4.8 0-9.4-.1-14-.3a6.3 6.3 0 0 1-6-6c-.5-7.4-.5-14.8 0-22.2Zm172.1 53a5 5 0 0 0 .7-2.3v-5.4a5.8 5.8 0 0 0-5.4-5.3h-30.1v32.3h32.6a5.6 5.6 0 0 0 5.3-5.4v-9.3c0-2-1.2-3.8-3-4.7Zm-5-9.2c.6 0 1 .2 1.3.5.4.4.5.8.6 1.2v5c0 .5-.2.9-.6 1.3-.3.3-.7.5-1.1.5H373V285h26.3Zm4.2 23a1.7 1.7 0 0 1-1.6 1.7H373v-12.4h28.6c.5 0 .9.2 1.2.5.4.3.5.8.5 1.2ZM363 285v-3.8h-30.4v32.3H363v-3.8h-26.6v-10.5H363v-3.8h-26.6V285Zm-38.8-3.8L311 309.8l-13-28.5h-4.2l-13.1 28.5-13-28.5h-4.2l14.7 32.3h5l12.7-27.6 12.6 27.6h5l14.9-32.2H324Zm-84.3 3.8v-3.8h-30.4v32.3h30.4v-3.8h-26.6v-10.5h26.6v-3.8h-26.6V285Zm-41.6-3.8v14.2H168v-14.2h-3.8v32.3h3.8v-14.3h30.4v14.3h3.8v-32.3Zm-38.6 0h-30.4v3.8h13.3v28.5h3.8V285h13.3Zm-79.4 32.3v-14.3h24.2v-3.8H80.3V285H107v-3.8H76.5v32.3Zm-30.2-29.1c4.5 0 9.2 0 13.7.3.5 0 1 .3 1.2.5.4.3.5.8.6 1.2.4 7.2.4 14.6 0 21.9 0 .4-.2.8-.6 1.1-.3.4-.7.6-1.2.6-9 .5-18.3.5-27.5 0-.4 0-.8-.3-1.2-.6-.4-.3-.5-.8-.5-1.1a240 240 0 0 1 0-21.9c0-.5.1-.8.5-1.2.3-.2.8-.5 1.2-.5 4.5-.2 9.2-.3 13.8-.3ZM36 281a5.8 5.8 0 0 0-5.3 5.4 198 198 0 0 0 0 22.1 5.6 5.6 0 0 0 5.3 5.3c9.4.5 18.6.5 28 0 2.8 0 5.2-2.5 5.3-5.3.4-7.4.4-14.8 0-22.1A5.8 5.8 0 0 0 64 281c-9.4-.5-18.6-.5-28 0Zm326.3-22.8c0-.6-.1-1-1.1-1H356c-.7 0-1 .4-1 1v5.2c0 .3.1.5.4.7l.6.3h5.3c.3 0 .5 0 .7-.3.3-.2.3-.4.3-.7m-6.5 6.3a6.4 6.4 0 0 1-6-6V258c.1-3.4 2.8-6 6-6.2h5.8c3.3.3 5.9 2.8 6 6v5.9a6.3 6.3 0 0 1-6 6ZM323.4 242c.2-3.3 2.8-6 6.1-6.1h5.7c3.3.2 5.9 2.7 6 6v5.8c-.2 3.3-2.7 6-6 6.1h-5.7a6.4 6.4 0 0 1-6-6Zm4.5.2v5.3c0 .4.1.9.5 1.2s.8.5 1.2.5h5.3c.4 0 .8-.2 1.2-.5s.5-.7.5-1.2v-5.3c0-.4-.2-.9-.5-1.2s-.8-.6-1.2-.6h-5.3c-.4.1-.9.3-1.2.6-.3.3-.5.7-.5 1.2Zm41-6.3-38.7 33.8h-8l38.6-33.8Zm-85.4 4.6c-.2 0-.6.1-.7.3s-.4.4-.4.6q-.3 14.6 0 21.8l.3.8.8.3c9.2.4 18.3.4 27.4 0 .4 0 .6-.2.8-.3q.3-.5.3-.8c.4-7.2.4-14.5 0-21.6 0-.3 0-.7-.3-.8q-.2-.3-.8-.3c-4.5-.3-9-.3-13.7-.3-4.5 0-9.1 0-13.7.3Zm-6.3.8c.2-3.3 2.8-6 6-6.2l14-.2h.1l14 .2c3.2.3 5.8 2.8 6 6 .3 7.5.3 15 0 22.4a6.3 6.3 0 0 1-6 6l-14 .3c-4.8 0-9.4-.1-14-.3a6.3 6.3 0 0 1-6-6c-.5-7.4-.5-14.8 0-22.2Zm-68 4 10.4-9.6h6.2v33.9h-5.3l.1-27.6-3.6 3.3Zm-62.7-9.4h7.5l26.8 28.6V236h5.3v33.8h-7.8l-26.5-28.6v28.6h-5.3m110.7-78.4h7.4l26.8 28.5v-28.5h5.3v33.8H289l-26.6-28.6v28.6h-5.2m-118.3 44.6-3.1-7.2h-23.3l-3.2 7.2h-5.4l14.4-33h11.4l14.7 33Zm-6-12-7.5-16.2-3.4-.2-6.6 16.4H133Zm-36.8 12 .1-14.2h-29v14.2H62v-33.7h5.4l-.1 14.2h29v-14.2h5.2v33.8h-5.3Zm-37-28.5H45.7v28.4h-5.3v-28.4l-13.2-.1v-5.3h31.9M46.7 210a5.5 5.5 0 0 1-5.3-5.4V197a5.7 5.7 0 0 1 5.4-5.3c9-.5 18-.5 27 0 3 .1 5.3 2.4 5.5 5.3v3h-3.8v-2.8c-.1-.5-.3-.9-.6-1.2-.3-.4-.8-.5-1.3-.5a257 257 0 0 0-26.6 0 1.7 1.7 0 0 0-1.7 1.7l-.2 2.8v4.5c0 .4.2.8.5 1.1.4.4.9.6 1.3.6h27c3 .2 5.2 2.5 5.4 5.3v7.7a5.8 5.8 0 0 1-5.4 5.4c-9.1.3-18.1.3-27.1 0a5.8 5.8 0 0 1-5.4-5.4v-3H45l.1 2.8.6 1.2c.3.4.7.6 1.2.6 8.9.4 17.8.4 26.7 0 .4 0 .8-.3 1.2-.6s.5-.8.5-1.2l.1-2.8v-4.5c0-.4-.1-.9-.5-1.2a2 2 0 0 0-1.2-.5Zm93.8 5.5h5.4l-.1 3.8a6.4 6.4 0 0 1-6 6c-4.8.3-9.4.3-14 .3-4.7 0-9.4 0-14-.2a6.4 6.4 0 0 1-6.1-6c-.4-7.4-.4-14.8 0-22.3.2-3.3 2.8-6 6.1-6a265 265 0 0 1 28 0c3.2 0 5.7 2.7 6 6l.1 3v.8h-5.3v-3.4c-.1-.5-.2-.7-.4-.9-.2-.1-.5-.3-.8-.3a376.8 376.8 0 0 0-27.3 0c-.4 0-.6.2-.9.3a1 1 0 0 0-.2.7q-.4 14.5 0 21.8c0 .2 0 .5.2.7l.7.3c9.1.5 18.3.5 27.4 0q1.2 0 1.2-1m-105.9 5.1V192h-3.8v32.2Zm303.7-73v-3.8h-30.4v32.2h30.4v-3.8h-26.6v-10.4h26.6v-3.8h-26.6v-10.5h26.6ZM275 165.7h20.7c.5 0 .8.1 1.2.5.2.3.5.7.5 1.2v7.2c-.2.4-.3.8-.7 1.1-.3.4-.7.6-1.2.6-9.1.5-18.4.5-27.5 0-.4 0-1-.2-1.3-.6s-.5-.8-.5-1.1c-.4-7.3-.4-14.6 0-21.8 0-.5.2-.9.5-1.3.4-.2.9-.5 1.3-.5 9.1-.3 18.3-.3 27.5 0 .5 0 .8.3 1.2.5.4.4.5.9.6 1.3v2.8h3.9l-.2-3c0-2.9-2.5-5.2-5.3-5.4-9.3-.5-18.6-.5-27.9 0a5.8 5.8 0 0 0-5.4 5.4 198 198 0 0 0 0 22.1 5.6 5.6 0 0 0 5.4 5.3c9.3.5 18.6.5 28 0 2.8 0 5.1-2.4 5.2-5.3l.2-3v-4.6a5.6 5.6 0 0 0-5.4-5.2h-20.7v3.8Zm-20.2 14h4l-14.7-32.1h-8.4l-14.8 32.2h4.1l3.3-7h23.2ZM230 169l8.1-17.7h3.5l8.2 17.7Zm-8.4-16.2a5.8 5.8 0 0 0-5.3-5.4h-32.7v32.3h3.8v-12.3h28.9c2.8 0 5.2-2.5 5.3-5.4Zm-4.4 10.4c-.3.3-.8.5-1.2.5h-28.7v-12.4H216c.4 0 .8.2 1.2.6.4.3.5.7.5 1.1v9c0 .4-.1.8-.5 1.2Zm-66.2 2.3c.4 0 .8.2 1.2.5.3.3.5.8.5 1.1v4.6l-.2 2.8c0 .4-.1.8-.4 1.2-.3.3-.8.5-1.2.5-9 .5-17.9.5-26.8 0-.4 0-.8-.2-1.1-.5-.4-.4-.5-.8-.6-1.2v-2.8h-3.9v3a5.8 5.8 0 0 0 5.5 5.3c9 .4 18 .4 27 0a5.8 5.8 0 0 0 5.4-5.3V167c0-2.8-2.4-5.2-5.3-5.3h-27c-.5 0-.9-.3-1.3-.6-.3-.3-.5-.7-.5-1.1v-4.5l.2-2.8a1.7 1.7 0 0 1 1.6-1.8c9-.4 17.9-.4 26.8 0 .4 0 .8.2 1.2.5s.4.9.5 1.3v2.8h4l-.2-3a5.7 5.7 0 0 0-5.3-5.4c-9-.4-18.1-.4-27.1 0a5.8 5.8 0 0 0-5.4 5.3v7.7c0 3 2.4 5.2 5.3 5.4Zm-39.2 14.2v-32.2H108v32.2Zm-15-32.2v14.2H66.6v-14.3h-3.8v32.3h3.8v-14.2H97v14.2h3.8v-32.2Zm-38.5 0H27.9v3.7H41v28.5h4v-28.5h13.3ZM339 225.2v-33.8h31c3.2.1 5.8 2.7 6 6v9.3a6.3 6.3 0 0 1-6 6h-8l17.9 12.5h-9.2l-18.2-12.4h-8.3v12.4Zm31.4-28.3a1 1 0 0 0-.7-.3H344v11h25.5c.3 0 .6-.2.8-.4.2-.2.3-.5.3-.7v-8.9m-135-1h-2.4l-7.5 16.3h17.5l-7.5-16.3Zm13.2 28.6-3.2-7h-22.3l-3.3 7h-5.8l15.5-33.8h9.2l15.6 33.8h-5.8Zm-62.5-19.6H213v5.3h-26.7v9H213v5.3h-32v-33.8h32v5.3h-26.7Zm121.3 0h26.7v5.3h-26.7v9h26.7v5.3h-32v-33.8h32v5.3h-26.7Zm-152.2-14.2v28.5h22.8v5.3h-28v-33.8"/><g fill="#fff" stroke-width="0" font-family="Arial" font-size="24" font-weight="400"><text dx="0" dy="0" transform="translate(55.8 369.7)"><tspan y="0">worldsfastest.com has already</tspan></text><text dx="0" dy="0" transform="translate(81.7 398.8)"><tspan y="0" font-weight="700">removed over 1,000,000 </tspan></text><text dx="0" dy="0" transform="translate(83.8 428)"><tspan y="0" font-weight="700">pounds of CO2</tspan><tspan y="0"> from the</tspan></text><text dx="0" dy="0" transform="translate(150.5 457.4)"><tspan y="0">atmosphere.</tspan></text></g></svg>