<svg xmlns="http://www.w3.org/2000/svg" viewBox="0 0 641 914"><path fill="#d9e0e2" d="m206 909 2-11 2-5h4l3-6c3-6 3-6 1-6h-1v-3l-2 2-1 2h-3v2l-2 6-2 5h-5v-2l2-7 2-5h2l2-1h-4l1-2v-3l4-2v-1l4-8 5-6-3-1h-2v-5l2-3 3-3h3v-2l5-3 10-4h4v-6a797 797 0 0 0 2-43h-5v-5l1-7v-2h4l-2-1h-1v-12h3v-2l-1-1h-1l1-18 3-27 1-3 1-4h-3l2-22h-2v-9h2v-2l1-3 1-2h-4v-7h4v-6h-3l1-4 1-15 1-10h5l6 21-2 15h-4v2h4v9h-4l-1 1v8l-1 5h4l-1 11v26h-4v2l-2 1h4v9h-5v5h3l3-1v13h-4v20l-1 30v9h3v14h-5v13h5l-4-1v-5l6 1h6l2 3 2 2h7v13l3 7 3 8 5 5 1 3 4 10 3 7 1 6v6h-8v-3h-2l-4-7-5-12-1-5-3-3-2-4v-3h-4v-2a13 13 0 0 0-3-3l-1-2v12h-5v-11l-1 2-1 1v9l-2 1h3l5-1v2l-2 9-1 7h-5v-3l-1-6-1-4-2 4v3l-1 10-1 9h-4v-9h-2v-4h2v-6h-2v-6h4v-3h-3v-5h4v-6l1-1h-5v-2h-2l-13 25-12 26h-6l1-4zM6 741l-11-41c-6-19-10-95-12-228l23-28 18-22-2-11a854 854 0 0 0-6-36 287 287 0 0 1-5-25 651 651 0 0 1 15 69l28-32v-6a468 468 0 0 0-6-36 73 73 0 0 1-2-13 422 422 0 0 1 10 52l14-14 23-25 10-10-1-2v-2l-14-1H74l-5-2-4-2-1-1-1-2 1-2v-2l3-2 3-1-4-2h4v-1l-7-4a46 46 0 0 1-8-5h5l-1 1 14 8h2l7-3 7-2-5-2-5-1v-1l1-1 2-1v1l1 2 17-3h3l4 1-4-2 8-1v4l-2 1h-3l4-2v-1l-3 1-3 2v2h-1l-1-1v-1h-1c-2 1-3 1-2 3l1 1 10 3 9 2v-1h1l-1-2a7 7 0 0 1 0-4v-1l-2-1h-2v-5l9 1 2 2 4 2c2 1 4 2 5 1l1-4v-3l8 1v2l-1 1-2 10 1 2 1 1-1 1 2-1h2l-2-2 1-4v-10l-7-6v-4l4 1h3l1-1 2-1h-2l-1-1 1-2 1-4v-2l2-3 2-2-2 1-1 1v-4l4-35-17 31-2 5-2 7-2 8h1l3 1h1l-8 4 2-2h-1l-1 1v1l-4-2a21 21 0 0 0-6-1 331 331 0 0 1-38-13l-11 5 8 3a323 323 0 0 0 19 6l11 3v4l-10-2-8-2c-3-1-11-3-16-6l-11-3-10 2-9 3-4-1v-4l7-2 7-1v-1l-5-2-3-2 1-5 3 3 9 2 4 1 4-1 4-2h-2l-1-1v-4l43 12 14 4h2v-1l3-9 2-8 22-44 13-6-6 20-1 14-1 9-4 12 1-1a27 27 0 0 0 3-4l2-3v-5l6-12 40-62-16-4-16 7-20 9 24-12a39 39 0 0 0-8 3 1177 1177 0 0 1-49 22c1 2 20-5 26-10l3-2 2 1h2v5l-7 4a1568 1568 0 0 1-63 35l-53 28-7-2h-1c-1 0-5 4-5 6v1h2v8h-2l-1 1-2-2 2 4h-1l-3-3v-1h4v-2h-2l1-2 1-4v-2l3-4 4-5v-1l-2 1 3-3 14-7 4-1 1-1v-4h-1l-4-1h-2v-3l6-2 5-3 17-5 16-5 1-1a205 205 0 0 1 42-21 349 349 0 0 1 46-21l13-6v-2h1l11-4 9-5h1l1 1v-1l-1-1 14-7a193 193 0 0 0 15-9l2-1h1l1 1v-1l-1-1 4-3 12-8 8-6-1-1h1l4-1c1 0 2 0 3-2l2-1v-1l-1-1 2-1 1-1 3-8 2-7 4-7 4-6 1 1v-1l2-7 1-5h2l2-4v-6l-1 3-1 2 1-3v-5l1 1 1 2 2-20 2-4 1 1h1v12l3-4 3-3 6-4c6-4 11-6 26-12l10-3 1-1a18 18 0 0 1 4-3l3-2h-3l-17 3-14 2v-2l11-3 32-9 11-2 1-1 1-2 13-3 12-3 1 1h2l14-4 1-1 2-1h2l10-3 7-2h8v2h-3l-2 1a99 99 0 0 0 22-6h1v4h8l8-1 3-1 2-1 2 1 1 1v29h-3l1-18V9l1-6h-2l-4 1-2 1v6l-7-4 4-2h-3a30 30 0 0 0-6 0l-3 1v1h3l2-1-1 1-7 2 3-2-1-1-6 1-8 3-4-1h-2l2 1-3 1h-3v3l1 3-64 22h-1v-1l1-1-2 1-2 2h-6l-5 1h-9l-4 1-5 3-2 2-2 1 2-2h-2l-6 7h-2l-2-1-1 2h3l-39 68-2 1-1-1 1 2v6l1 4 2-4h-2l2-4h3v5l-8 5c1-1 0-1-1-2h-2l1 2h-2v2l-1-1-2 1-1 1v4l-1-1-1-2-5 5a70 70 0 0 0-9 10l-4 4h-2v4l-1-1h-1v4l2-2a100 100 0 0 1 15-16l-4 5a136 136 0 0 0-7 9l-3 3 1 1h1v1l-1 2h5v9l-66 82-17 34h-4v-3l-4 2-10 22-7-1 13-32-1 6-1 2 2-2 1-2 4-7c4-7 4-7 2-7h-1v1h-5l2-8 1 2 1 1-1-3v-2h1l1 1v-5l4-4h2v-1l-1-1h-2l-8-1-11 29-4 4v3l-2 4-1 1 1 1h1v-1l1-1v2h4v4l-2-2-3 1-10 26-9 42-2-4v1l-1 7-1 6 2-2v1l-4 8v-9l-2 14 2 2v-1l-1-2 1-2 1-1h1v3l-1 4 2-6 16-34c8-4 10 0 6 13l-9 29-1 3v2l1 1h-2l-2 8h-3v5l1 2h1l2 1v-2l4-9 4-7 1-1h2l-1-2v-3l6 3-6 14-2 7h-4v1l-1 2 3 5 2 5v7h-5v-5l-2-4-1 2v1h-3l-12-9-1 5-2 1 4-25v-6l-1 1h-1v2l-6 2-4 20v2l1-1h1l-1 2h-1v3l2 2 2 1v-1l1-2v4c0 4-1 4-3 0l-1-3-1 1 2 18 1-3v-4l1 7 1 6-2 5-1 4v-5l-4 7-3 7 1 1h1v1l-4 1c-3 0-3 0-2-3l1-1 3-20 3-21-1-1a30 30 0 0 0-5-6l-5-5h-3v-1l-1-2-4 12a255 255 0 0 0-10 35l-1 6 1 32 30-24h1l1-3 1-1 1 3 1 4-2 15 1 18 4 13-1 6h-4l-8 38 4-2v-2l4-2 2-2 1 4-1 4v2l3 5-2 1c-3 1-3 2-1 2h1l1 2 1 1v-1l1-2h2v4l-1 1-2-2v2h-5l-5-1v3h-1l-2 1v-2l-1 1-12 10-10 6-17 11a95 95 0 0 1-7 4v-3l6-3 16-11 10-8v-4h-1l-10 7-25 15-15 8-7 6-18 14-11 8v5l4-2 12-8v1l-13 9-2 1 2 12-4-11-19 10c1 18 3 32 6 42a335 335 0 0 1 9 39zm284-605-1 1 1-1zM173 288c-1 2 0 2 1-1l1-2-2 2v1zM89 529l-7-57 2-3 3-12 2-9 6-19 9-32-28 34-12 16 3 23 5 25v2l4 1-3 1v6h3l3-1 1-1v-1l1 4-1-1-3 1h-3v4h8l-1 4v-1h-6l1 1v1l-2-2H44l-1 1 3 13a3867 3867 0 0 1 12 61l1 2 8-4-8 6v2l-2-2-5 3a30 30 0 0 1-6 3l5-3 7-4a4764 4764 0 0 1-16-73l-1-4h-5l-5-1-10 2-10 1-10 14-11 14 5 21 8 40 4 17 5-5 19-12-7 5-13 9-4 4v3l4-2 11-6 30-15 8-3v-2l1 1 7-3a253 253 0 0 0 29-17l-8-50zm-7-19zm-1-1v-1l1 2-1-1zM14 661v2-2zM2 649l7-6v-1l-2-8-1-6-1-1-2-1 1-2 1-1-1-6a2112 2112 0 0 1-7-31l-7-33-1-7 2 113 11-10zM0 528l8-12-2 1-7 1-5 1v-3l2 1h2l-1-1h-1l2-2 9-3 7-2 10-14 11-14-1-4-7-41-3-10v-1l-13 15-23 28 2 72 10-12zm57-28 13-2-8-48a327 327 0 0 0-25 32v1l4 20h1l15-3zm4-53 1-1-2-13-4-28-1-15-13 14-14 16-2 2 1 8 5 25 4 21v3l12-15 13-16v-1zm18-22 20-26 7-8 2-7 1-8-2-17-3-18h-5l-13 14-21 23-8 9v4l6 51 1 2v-1l15-18zm47 127v-3l4-2v1l-1 1h2v-3h4v-2h3l1-2 2-1v-7h1l2-3 3-5 2-1h-3v-5h-2v3h-5v-5h2v-3h2v-2h3l1-4 1-6v-3h3l-3-1v-2l1-8 1-7h4v5h2v-6h-3l-3-1 1-8 1-11v-4l-1 4-3 6-2 3h-3v2h-4v4h-5v-6h2l1 1v-7l-1 1h-1v-10h5v9l1 1v1l2-2a43 43 0 0 0 3-8l2-6v-6h5v5a53 53 0 0 0 0 7v2l1-3 1-10 1-12 1-6v-1h3l-1-1h-1v-4l2-6 1-1-1-1v-1h2l-1-2 1-6 2-5v6l2-6 3 5-1 1h5l-3 20-2-2v4l-1 15-1 2v5h3l-4 45h-3v2l-1 2 1 1h1l9-8 53-67 3-5 4-3 3-4 5-6 5-5h4v2c0 3-2 7-3 7v3l-3 3a17 17 0 0 0-3 4l-7 7h-3v4l-3 3 5-2 11-5 6-4v-2h5v4h-2v3l-1 1h-2v3h-3l-1 1-3 1a77 77 0 0 0-12 5l-9 5-51 57-1 3-2 1-1-1v3h-4l1 1h2l-8 10v2h3v-1l1-2h3v-1h1l2-1a33 33 0 0 1 5-5l23-15 2 18-2 2v2h-3v3l5-2 7-2h2v-2l3 1 61-20 13-4 14-4 6-1h6l2 2v-2h5v6l-7 2-22 5h-1l-1-2v3h-6v-1l-1-2-1 2v2h-4l-61 20-11 2-5 1v2h-7l-1 2c0 2-1 3-2 3v1l-2 3a10 10 0 0 0-2 3v2h-2v3h-5v-5h2v-1l1-3 2-3 1-2-3 1-4 1-1 2h-5v-5h2l3-1h2v-2l5-1 6-2 1-2 1-3h2v-4l-6 3-3 1h-1v2h-3v2h-3v2h-4v3h-5v-4l-1 1h-2l-1 2v1h4v5h1v4l-3 2-5 1h-2v-4l3-2 3-1h-1l-1-1v-2c0-3-1-3-3 0l-2 2v10l-1 4h-4l-9 4h1v5h-14v-2l-1 2v-1h-1zm279 15v-9h-5l3-11 6-39 8-32 6-32 3-13v-13l-2 1-1 1-1 4v3h-5v-3l1-4h1l2-8 2-1 1-2-1-1h-1l-10-2a98 98 0 0 1-11-2l-1-1v-5h3v-2l-11-1h-10v-5h4l32 4 14 2 6 1 1 1v1h2l7 4h13v-3l5-2a140 140 0 0 1 31-11h1v5l-9 3-10 3v1l1 1h2a42 42 0 0 0 7-2l14-4h3v5l-1 1-6 2-10 2-5 2v3l-1 3h-6l-6 1-7-1-8-2h-13v-5h-3l-3-1v-1l-1 4a480 480 0 0 1-3 17l-6 61-6 33-1 4h1l1 1-1 7-4 18-3 10v15h-5l-4-6zm109-185 1-3 3-2 4-2h4v-3h3l-2-2v-5l16-14h4v5l-6 6 13-11 6-6 2-6-1-7-9 12h-5l4-18-30-13h-1v-2l6-1h7l8 3 9 3v-4l5 1 4 1 2 2v-3h2l3 1 1 1v6h-2l2 1 3 2v-6l1-2 2-3h4v3l-1 6-1 2 6 2 1 3v2h-8l-3-2a14 14 0 0 0-4-1v12l-2 8-3 3-2 4-8 7a174 174 0 0 1-14 11l-7 4v2l-1 2h-3l-4-1-1 2-2 3h-6v-3zm20-16v2l2-2h-2zM403 191l-3-1-1 1v-4l1-4h-2l1 1v1h-2l-1-3v-2l3-2 3-1-2-4v-8l1-1a10 10 0 0 0 2-3l1-2-6-2v-4h2l6 1 3 2 1-1 2-1h-4v-5l-6-2h-19v-4h21l5 1 4 1 6 4v5h-2v2l-1 3 4 2v2h3v4l1 3-1 2v1l-6 4 11-3v-4l3-5c3-5 4-5 2-5h-2l-6-3-3-1-1-2-1-4v-3h2v-6h-2v-2l1-7 1-5h3v-5l3-5 2-6 3-2 2-3h8v-1l-1-4-1-3h-1l-5 1-3 2v2l-1 3h-2v2a40 40 0 0 1-3 8l-3 7h-6v-4h-3v-9l-14 12v3l-1 3-4 3a139 139 0 0 1-13 8l-7 4h7v5h-3l-10 1-7 2-1 2 9-1 13-2h3v5h-7l-1 1v1h-13l-5 2-11 6h-6l7-11h-3v-4l5-4 27-17 20-20-1-1h-2v-5l8-2 7-2 27-12h5v1l5 8v6l-1 7 5 5 2 2v21l-4 10-4 4-6 11-3 12-6 6h-4l-6 6-1 2h-3l-4 1-6 2-2 1-2-1zm149 67 48-29 9-4v-4l1-4-4-1a2194 2194 0 0 1-82-36l-5-4-18-4v-2h-4v-3h-1c-3-1-3-1-3 1v2h-2l-6-3v-1h-3v-2l-1-1h-1l-1-4c-7-7-9-17-8-30V82l1-15 3-35-2-3-3-2-8-4 2-4 5 1 2 1v-2h5l2 2h1v-1l-1-2-1-1 1-1h1l1 1v3l1 6c1 2 2 8 2 17v9h-3v12h2l-4 38 10 37 5-14-1 17 9 12 3 1-1-2 2 1 3 2 17 1 14 2 5 1 4 1-1 1h-2l1 1a72 72 0 0 0 16 4h2v3h-10l4-2h-3l-4-1h-21l4 1h4v3h-2l-2 1-6-1h-7l-2-2v3h4l3 1 3 3 9-1h6l17 2a172 172 0 0 1 16 1l3 1v-4h3l3 1h-3l2 2 2 1h4l5 1v5h-4l4 3 4 2v-10h2l-1-1-2-1 5 1 7 1h2v5h-2v3l1-1 2-1h4v3h6v3l1 3h2v5h3v-1l1-2h-3v-9l1-5h-3v1l2 2h-5v-4l-5-2-5-3 3-1 12-1 10-1 1-1 1 1 1 3v2l-4 2-5 2 1 1v1h4v5l-2 1-3 2v3h5v4h-1l-1 1v13l-6 2v2l-1 4-1 2h-4l-5-2h-1l1-1 2-1h-6l1 4v5l-4 2a102 102 0 0 0-8 5 17 17 0 0 1-5 2h-1l-2 4-3 1h-3v-3l-20 13v5l-17 1v-1z"/><path fill="#305673" d="m260 504 1-4 1-1h-3l-3 1-1-2v-2l1-3 2-5v-1h-2l-2-1v-2l4-15 6-22v-3l9-4c1 3 2 3 2 0l26-20h5v4h-2v3l-4 7-4 6h-1v2h-2v3l-2 3-3 3-2 3-3 3 1 3v2l-2 1h-2l1 4v3h-4l-4 7-4 8h-4v2h2l-1 5v3l1-1h4v4l-1 1-2 1h-1l-1 3-1 3h-5v-2Zm-3-85-7 4 1-5 2-28 4-37 1-4h-1l-2-1v-4h8l2-3 2-2h2l1-3v-3h-1l-1-1v-4l7-1 10-1h4l2 1 3 1v2h4v1l1 1-1 4v3h-5v2l-2 1h-2l2 1 2 1v3l-1 5v1h-3v5l-2 1-2 1h5l-1 3-3 12-3 8h1v1l2-1v-1l1-3 1-3h3v-13l2-6 1-6h2l4 1h2v16l-30 61m295-109v-5l-2-1-2-3v-1l-4-1-5-1-2 1-1 1-11 1-11 1h-35l1-4v-5l4-5 1-3h4v-3l12-5h6l2-1v-4h3v-2l4-1 3-2v-6l34-19 20-9 5-2h13v2h2v5l-4 1-4 1v1h-1l-4 1-4 1v-4l-3 2-3 3v5h-5v-2l-3 2-11 6a58 58 0 0 0-9 5l-1 1h-4l-3 3-2 2v3h-6l-1 1c0 1-1 2-3 2a22 22 0 0 0-5 4l-3 3v3h-3v4l-2 1-2 1h15v2l5-1h6l1 1 14 1h5v3h2v4l-1 1h-1l2 2 2 2v13h-5v-6Zm-221-36 88-50h5v6l1 2 1 2-1 4v4l-2 2-1 2h3v2l1 4v2l-2 1-1 1v4l-1 1-2 2-7-1h-8l-2-2-4-2h-1v1l-1 2h-3v3l-2 2-4 3h-1l-1 2-1 2-3 1h-3v-3l-1-3-2 3a14 14 0 0 0-3 5v2h-6l-2-2-1-2v-2l-3 1h-4v-3h-1l-3-1h-1v4l-2 1-1 1h3v5h-6v-3l-3-1h-6l-1 2v2h-5m-78 14 5-2 4-2v-1l1-1h1l1-7 1-6 2-4 2-6v-2l2-4 1-3h-2v5h-6v-6l2-1 1-1h-6v2h-6v-5l-1 2-1 2h-6v-3l-3 1h-3v-2l1-3v-2h5v2h1a56 56 0 0 0 4-9l3-9 1-2 2-2v-1h-4v-3h-4l-1-6-2-7h1l1-1 3 1 3 1 1 5v5h2l2 1 1-2v-2h6v4h4v6h8-2l-3-1v-6h-2v-9h3l3 1v5h3l1-2 1-2 4-1h4v2l1 2v-5h5v4l1 3 1-4 1-5h6v3l4 8-39 82m112-106-3-1v-5l2-1 3-2v-2h-8l-7 1-2-2-2-3v-5l1-6-2-1-2-1v-6l2-2 2-3v-2l-1 1-1 2v1h-6l-2-2-2-3-2 3-2 3h-5v-5h-4l-1 4-2 3h-6v-1l-1-3-1-1-1-2v-2l-2 3-2 3h-4v-6l4-4 3-4h4v4l9-8h-8v-4l3-3a23 23 0 0 1 4-3l7-5a92 92 0 0 1 17-13h1v-2l1-1a12 12 0 0 0 3-2l6-5 4-3h2l5-1-39 41-1 3-1 4v2h13l4-2 4-2h7v5h3l1 3v3l-2 2-2 2v5h-1l-2 1v9l2-2 2-3h7v2h10l-1 3v3l-2 1-3 1h4v5h2v-5l1-1 3-1h2v-1l1-4v-2h2l2-1v-4h2v-2l1-2h3v-3h5v-1l-1-2h-1v-5l-1-5h6v6h3v5l1-2v-2h5v7l-2 2-1 2h-9l1 2v3l-1 4-1 5h-2v3l1 3-2 2-2 2h-6l-1 1-1 1-2-1h-2l-1-2v-3l-1 5-1 4-2 2-2 2h-2l-4-1Zm10-105v-2l2-1h2v-3h3l3 1v-3l1-3 2-2 2-2h-1l-7-3-7-2h-1l-2 1-1 2h-12l-3 1-4 2h-4v3l-14 9-3 1h-1v2h-5l45-50 2 2v3h1l5 1c4 0 11 1 14 3l2 1 3 3 1 1 1 2 1 7v7l1 3 2 2h5v4a10 10 0 0 1-1 4l-1 1h-14l-2 3-3 2-3 1-6 1-3 1v-3Z"/><path fill="#a73a24" d="M243 642h2l3 1-1-2-2-2v-4l2-4 2-3h1v-5l-1-5h5v-3l5 1 7 1h2v-2l-1-3 2-1 6-1 5-1v2h5l-2-1h-2l2-1 10-1 9-2v-2h5v4h-10l6 1h5l-3 1-8 1-4 1-4 3-5 3h-3l-2 1-1 2v8l1-3v-2h3v7l-3-1h-2v7l-1 8-2 1-1 1 2 2-1 2v2h-5v-11l1 2v-4l1-6v-2h-3v3l-1 1h-1v4h-1c-2 0-6 5-6 6v1h-7l-2-1h-1v3l-2 2 2 6-2 12h-4v-27zm-45 38-4-6-2-4 1-1v-1l-1 1h-1v-2l-1-3-4-4-4-6-3-8-2-3-2-1v-3l-2-5-2-3h-4v2h-2l-1-1v1l-1 1h-1l-4-5-3-5v3h-3v-1l-1-4-2-3v7l-4 2h-1l-1-1v3l-1 3h-1v3h-2c-4-2-5-2-6-1l-9 1-2-1-3-4-6-11v-1h-2l1-1v-1h-2l-1-4-3-4-1-1v-4l-1-3a29 29 0 0 1-3-6l-1-3 2-3-1 1-2-1-1-2v-1l1-1-1-1h-1v-2l1-1-2-5-2-6-2-1-1-1h1l1-1-1-3-1-9-1-6-1-1h-1v-5l-1-5-1-3-1-2-2-10a238 238 0 0 1-2-13l-1-7-1-5-1-1h1v-9l2-16h1l2-3 1-3 1 1v-3h3l2-1v-1l3 3 2 3v1h1l2-1 1 2 2 2 4-2 5-2 1 1h1v-1l1 1 3 2v1h3l1-1v3l1 4h2v2h2v21l-1-1h-1v7l1 7-2-2v2l1 2-1 2a54 54 0 0 1-5 7l5-4v7l1 7-2 5-1 5 2 2-4 16-1 1v-2h-2l1 2 2 2-1 1-2-1-1-2v2l1 1h-1l-2-1v1c0 2-2 4-3 4l-3-2-2-2 1 2 2 3 2 2-2 1-2 2 2-1 5-1h2l1 3v3l-2 1-1 1v-2l1-2-1 1h-1v4h2l-4 2h3l1 1 1 2-1 1-1 2 2-2 2 2-2 2 2-1h2l2 1h1l-3-2h7l-2 2h3l4-1 1-1 5 3 4 2h6v5h-4l1 1 2 1 1-1h1l4 2v6l-2 4-3 3 5-2 5-3h4l1 3 2 2h22l-1 4-1 5 3-3 3-2 4-2 5-1 11-1 20-2 9-1 1 1h1v8l-3 2-3 3-3 2-6 1h-2v15l-1 1h-4v3h-3v6h-3l-1-3-1-2v4l-1-2-2-2-1-2-1-3h-1l-1 3-1 15-1 15-1 3h-2l-1-3zm155-77v-1l-2 1h-2v-2h-4l-2-1a24 24 0 0 0-7-6h-1v3l-54 7v-2l1-1h-4v-3l7-8h-15l4 1h-9l-3-1v-3l2-1 2-2h1v-4h5v-1l-1-1h2v-1l-1-2 2-3c3-3 3-3 0-3h-2v-9l-1-3-2-1h-2v-2l-1-2h-1v4l-5 1h-5v-1h2v-1h-2l-12 2h-18l-5-5v-2h-2l-6-4-5-3h-3l-2-2v-5l3-2 2-3-1-4-1-5 3-5-1-4v-2l-1 2v-3h-1v3l-2-1-1-1v2l1 2h2l-7 4v-3l1-3-2 4-1-2v-2l-20-4v-5h2v-3l-1-4h-1l-1-1v2l-1 2-3 1h-3v4l-1 3h-3l-2-1 8-6-8 3v-16a346 346 0 0 0 5-58l1-8v3l1 3v-2l-1-16-3-4 2-5-3-7h-1v14l-1 4h-4l-1-5v-6l1-1h-2v-7l-1 1h-1v-2l-1-2v4h-7l-2-2 1 2v2h-3l-1-2-1-1 1-2 1-3h4v1l-1 1h2l1-1v-5h-2l2-4-4 4h-1l1-4v-3h2l-1-2 4-10 4-2v6h-1l-1-1v3h3l9-10 3-13 10-12 4-1 8-1h-1v-3l2-9 18-37 6-10 45-68h5v28l1 1 1-2v-8h1l2 1v1l1-1 3-2v7l-1 7-6 12-6 13h-4l-3 7-4 6-1 5-1 4-10 16v6l-44 26 56-5-9-11 4-13h5l1-2 1-1h5l1 1v2h5l2-2 3-1h4l4 1-1 1v1l1-1 1-4v-1h6v1l-1 1h-1v1l2-1h2v-1l1 2 1-1 1-2v-8l1-2h-3l3-2-2 1-1-1v-1l4-8 2-1 2-2v-1l-1-2 6-7 7-7 1-1 2-4 2-2 3-7 3-8h1l1-1v2l-1 1h1l2-1 2-5 3-5-1-3-1-2v2l-1 2v-2a16 16 0 0 1 0-4l1-2h4l1 2v1h4l2-4 5-8 1-3h5l4 1v1l1 1 1-2 1-1 3 1 2 2v-1l-1-2h5v1l4 2 1-1 2-1h1v6l12-2 2 3 2 2v-5l5-1h28l2-2 6-1h7l-2 1-1 1 1 1 1 2v1h-5l3 1v4l-4 10v1h1l2-2 1-2h4v7h3v1l-7 7-2 1h2l3-1-1 2v2h1v4h3v4l2-2v1l-4 3h-1l1-2-2 3h3v3h3v3l-3 1-3 2h4l-2 1-1 1h2l-4 4 4-2-1 2-1 1-6-1h-6l-1-2a6 6 0 0 0-3-1l-2-1-5 6-6 7h-5l1-1 1-3v-1l-1 1h-1v1l1 1h-2l-1-2v-2l-3 4a35 35 0 0 0-5 6l-2 4h-1l-4-1-1-1v-5l-3 1h-4v-1l-2-4-4 5-4 4-4-1h-4l-6 4-1 3-2 2 3-1 5-2h2v4l1 3 3-2 4-2v-1h4v5h-2v5l-2 1-1 2v3h-2v4h-4v4h-3l-3 2-3 3h1l1 1v1l-1 2 2-1h1v1l-1 2 2-1h1v1l-1 1h3l3-1-2 2h1l2-2h5l-1 1v1h1c4-3 9-4 13-5h2l2 4 1 1 2 1h3l2-1 4 2c4 2 4 2 7-2l6-5 2-1v-2l6-6h9v2c1 2 2 2 4 0l3-3h4v7l4-4 4-5h3l2-4 2-3h1l8-6h5v5l6 6h4v-9h15l2-4h7v3l1-2 1-1v1l1 1-1 2h1l-2 2 1 1v2h-5l-5 1-1 1-2 1 8 2 7-1h8v2l1 5 1 1 1-1v-2h4l3 3v10l1 1v-6l1-1h2v-4l3-3h4l1 4 1 5-2 2c-1 3-1 3 2 4h2v-7l4-2 4-3 1 1a7 7 0 0 0 2 1h1l-1-1-2-1h2l2 1v2l1 3h-3v2l-1 1h-2l3 1h2l1-3v-2h5v12l2-2v-8h6l-1 3v3h1l2-1v2l1 1v-3h3v5l-2 1h-1v-1l-1 2-1 3h-5v-5h-2v5l-1 1-7 3-5 1-1-2-1-1h-5v8l-53 28-5 2-5 3h-4l-17 12h-6v2h-6v12l-3 8h-3v-16l2-1 1-1-2-2v-5l1-5h-2v7l-1 1-4 1-3 1-2-1h-1v-3h2v-4h1v-3l-1-3 2-3 2-4-1-1v-1l-2 4h-1l-2 1-1 3v2h-3v8h-2v1l-1 3-1 1h-5l-4 1v-4h4l-2-1-1-1 2-4 1-5h4v-3h3v-2l-1-5v-4l-4 6-4 1h-4l-2-2h-4l-8 10h-3l-1 2v5h-1l-2 1h3v6l-1 1v4l1 4h2v-2h-1l2-3 1-3-2 2-1 3v-2l1-2h1v-7l4-2h-3v-3h5v2l1 3v3l-1 1-3 2-1 1 3-1 6-1h4l-1 1-2 1 2 1 1 1v3l-9 16-6-6 5 7 1 2-1 7-8 61a614 614 0 0 1-5 37l-1 11h5l-1 19-8 17-3 5 1-1v2l1-1 4-9 7-1v7l-11 16-6 6h-4l-4-5-2 4v4l-2 2-4-2zm-57-66h4l-2-1h-3v-5h-1a11 11 0 0 1-4-2l-3-1v-3l1-4 1-2h1l3-1-2-1h-2v-5l3-2 3-3 2-5 3-6h5v11l-2 2c-3 2-3 2-1 4l2 2v-2h2v4l1 1h1v5l1-1h4v5h13l4-2h-3v-5h-4v-3l1-4 2-6 8-19v-2l1-1h2v-5h3l3-1v6l-2 1-1 2-2 7-3 14-1 8-1 1h1v6h2l4 1h1v-9l3-4a17 17 0 0 0 3-4v-1h-4v-1l5-22 3-9v-5l1-1h1v-5l2-3 1-2v-5l2-2 1-11v-18h-4v7l-2 8-1 7-2 10-2 5h-4v-5l-4 1c-6 1-6 1-9 15a118 118 0 0 1-1 7l-1 2-3 1-5 1h-2v-4l2-1 1-1h-2v-6l1-5 1-2 2-2-1-9v-10l1-1 1-5 1-3-4-4-3-1h-4v-6h4v-4h-4l-3 1-3 2h-10v-4l23-116-2 2-2 4-1 3h-2l-2 1-1 1v6h-2v5h-5l-1-2v1l-1 3h1l1 1v5l-2 1-2 20h-5l1 1v1h-4v5l-5 5-5 4v-2h-3v-5h1l2-1-1-1v-1h2l-1-1 3-5 2-4 3-1h3l-3-1h-3l-2-2 1-8 3 3 1-2 1-3v-1l-1-1h2l2 1-2-2-2-1 2-2h-1l-2 2v-1l-1-2-1-1v2l1 2-3-3h-1l-1 1-4-2v1l1 2h-3v-2l-2 1h-2l1 3v3l-1-1h-2v8l-6 6-6 1h-7v-1l-1-1-3-1h-4l-1 3-5 5-2 4a63 63 0 0 0-9 15l-4 6h-2l2 2-3 4-3 3v3l-2 4-3 5 1 2v3l-1 1 3-2h3v7l-1 6-1 1-1 2h1l2-2 1-2v-1l1-1 2 1v-1h1c2 0 3 2 4 6l1 4-3 2-3 4 2-1c2-3 2-1 0 2l-3 4-1 3v2h-2l1-1-3 2c-3 3-3 4 0 2a8 8 0 0 1 3-2h1v5l5 5h3v3h2v-1l-1-1h1l2 1 4-1 3-1h-8l1-1 1-2-3 3-1-1-1-4v-4h5l1 3 1 2-2 2h1l4-1 2-1h-4l1-1 4-1h2l-4-2v-6l3-5a31 31 0 0 0 4-6l1-1h1l1-2v-3l2 1h1l1-3v-3l2 1 1 1v-5l12 13 17 28-1 3-5-2 1-6c1-1-1-2-6-3l1 1v2h1l-2 3-1 2h1l-1 1-1 2h2v2l-5 18h-2v1l1 1h-3l1 2v1l-2 2h1l2-1-1 3-1 7-1 3h6v6h2l1 5a30 30 0 0 1 1 7v3l-4 2h4l1 2 1 1v5l1 6h2l7 7h2l7-1zM69 281l-1-2v-1l1 1h1v-1l-1-1h1l2-1h-6l1-1v-1H53l4 2-2 1h-5l-4-1h-1l1-1v-2h-1l-1 1v1h-1l-4 1h-3l2-1 1-1-1-1-1 1-2 1 1 1h-4v-1l-2-1h-1l1 1v1l-3 2-3 1 1-2v-2l-3 3-4-4h2l2-1v-3h4l-2-1v-2h-1l2-2 3-2-3 1-3 2v-2l-2 1h-2v-3l1-1a14 14 0 0 1 5-3l3-1 1-2v-2l4 1h4l2 1 1 1v-2l1 1h1v-2l1 1h1v-3l1 1 1 2v-3l9-3h3v5l-3 1h-3v5l1-1 5-1h3v2l1 1v-6l6-3 1-1h5v1l1 1h1v-3l32-15 39 4v2l-1 2 2-3 1-3h6l-1 5a81 81 0 0 0 0 10l-1 5-17 7v5h1l2 1 3 2v3l-1 3h-5l-3-2a10 10 0 0 0-4-2h-2v3h-11v5l-1-2-1-1h-5l2 1 3 1H93l-6 1v-2h-5c-5 0-8 1-8 2v1h-2l-3-1zm85-25-1-3v-6h2l-1-2v-2h1l1 1v-9l37-25 30-31 7-3h3l-3 1-1 3 4-4 4-3-9 1 1-5 7-6 6-6v5l-2 1v5h4v2c0 3 0 2 2-1l1-2-1 1h-1v-2l1 1h2l-1 1h2l1 1-5 5-6 9-6 8-3 5 2-1 6-9a27 27 0 0 1 5-6l4-4h2l1 3v1l-3 6-4 5s0-2 3-5c3-5 1-4-3 1l-3 5 1-1h1l-1 1-2 3-1 1-3 1-2 2-1 2-3 6-18 24-14 6-1 2-8 6-14 6-3 2-1 1 1-2v-1l-3 3-6 3-1 1h-6l-1-3v1zm270 342-4-2-2 2-1 2h-2l-5-1-4-1v-5h2l1-3h2v-6l10-16 3-14h5v15h5l11-98 4-26h4v20l-1 19-1 1v11h-1l-1 1v3l-3 19-2 9-1 7v2l1 2 2 1h2l-1 3-2 8-1 6 1 2v1h4v2a93 93 0 0 1-10 27l-1 3 1 1h3l3-6 3-8 2-6c5-9 5-11 5-12v-1h3l2 1v9l-3 9-3 8-4 4 1 3 1 2-3 3-3 2h-4l-5 1-1-1h-2v2l-1 3h-2v3h-7v-11zM314 167h-3v-1l1-1h1v-2l-1-2 1-2 2-3-2 1-6 4-4 4v-4l-35-1 2-3 1-4 5-4 5-5v-4l1 1v2l2-3a10 10 0 0 0 2-3l2 1v-2l-1-3 1 2 1 1 4-4 3-4v-1l-1 1h-1l2-4h3v-1l1-1-1-1v-1l-4 4-2-2-2-1v-1l1-2 1-1v-1l-1-2h1l1 1v-3l2-1 2-3v-1l-4 4v-4l-1 1-1 2 1 1c1 2 0 1-3-2l-2-1h2l-2-2-1 2-3 2v-6h1l1-1v3l2-6 1 1h1l2-6 1-4 1-3h2l-4 8 3-4 3-3v2h2l-1-1 3-5v-1l2-2 2-3v-1h-1l-1 1v-2h2l2 1 1-1 2-1-2-2h1l1 1v-3l1 1h1l-1-1v-2l1 1h2l1-1v-1l-1 1h-1v-1l2-2v-1h-1l4-6h2l-3 3-2 3h1l2-1v-1l4-5 4-3-1 1-1 2 2-1 1-1-2-2-3-2h3v2l8-2-2-2 2-2 3-2v2l1 1v-3l5 3h2v-1l1-1 4-2c2 0 2 0 1 4-1 3-1 2 4 1l3-2 1 9h2l25-9h15l4 2v5h2l5 1 8 1 5 1 3 2 2 2v1l-2 4-3-2-4-2h-4l-4 1 1 1v1l1-1h1v2h2l1-1v1l-1 1h3l1 3v2h-2v-1h-6l3 2c3 2 5 3 3 1-2-1-1-2 2-1l2 1-1 1-2 1h3v3l-6-3c-8-3-8-3-7-1l1 1h-5l-1 1v2h-15l-7 5-15 9-8 5 1 1c0 2 2 2 3-1l2-3h4l2 6h3l3-1v5l-2 2-2 1h-1l-1 2-1 1h-2l-1 2v4l-5 5-5 4h-3l-7 7-9 10-3 2h2l2-1v5l-1 1-2 1-4-1h-4l-2 3-1 3h2v5h-4l-1 1v1h2l-3 2-2 1h-2l-5-1z"/><path fill="#e2a648" d="m477 304-1-1 1-3 1-4h5l-1-1h-1v-2l1-1h-3v-5l2-2h6v-5h1l3-1h2v-5l12-6 3-2 2-2h4l1 2v-5l5-2 5-3h4v13h-4l-1 1-1 2 1 1h2l-5 3-6 3h-3l1 1 2 1h-4l-4-1 4 2 1 1v1h7l-1 1a6 6 0 0 0-2 6v1l-1-1-2-1v2l-1 1h-1l-1-1v2l-1 1h-1l-2-1-1-1-2 2h-2l-1-1v-1h-2v6l-1 2-2-1h-3v1l-1 1h-1v-5h-3l-1 2v2h2v4l-2-1h-6l-1 1-2-1zm32-22-1 1 2-1h-1zm37-14-6-17v-4h4v-2h3l1-1 6-3 7-3 1-2 3 1h4v1c1 2 2 1 4-1l2-1 8-2v-5h5v-3h3v-3h3l2 1 2 3 1 2 4-2c5-2 5-3 2-2h-3l-1-1v-3l1-1h4l-1-1v-1h2l1-2h-2a7 7 0 0 0-2 0l-2 1-3 1h-2v-2l-1-19h-3l1-1-1-1a35 35 0 0 0-9-5h-3l6 3 6 2h-7l-1 1h3l-1 1-5 1v-2h2l-1-2-1-1-2 1-1 1 1 1-13-1-21-4-24-12v-3h1l7 5a52 52 0 0 0 17 7l-5-2-7-3-2-1 1-1h-2v-1l-2-1-5-3-2-2h4l4-1 4 1h4v3c-1 3 0 3 2 1l1-1h-2v-2h6v2l-2 1h2v2l17 5 1 1h-2l1 2 8 1 1-2v-6l2-1 1-1h-3v-2l5 1h4l2-1-1 2 2-1h2l-2 2 2-1h1v1h10v5h-6v2h5l2 2 1 2h3v3h-1l-20-12 1-1h-4l3 2 12 7 11 7 1 1h-1l-2 3-1 2 2-3 3-2 2 2-1 3v3l4 4v-2l-1-2h2l1 1v-1l-1-1v-1l-3 3v-3h1l2-1h-1l-1-2-3-3v-1h1l2-4-1-3v1l-1 4-1-2v3l-1 1-2-1-1-1v-14l-2-1-1-1h4v4l1-1 2-1h1l6 1h4l3 4 3 3v4h2v4h-3l-3 1h1l1 1v5h-2v3h-4l1 4v4h-2v2h-1l-7 2h1c4 1 4 1 4 4v3l-9 4a53 53 0 0 0-9 5l6-2h1l-1 1v1l2-2h-1v-1h2l5-2 5-3v4h-5l-1 3-1 2-4 1-3 1v1l-1 1h-5l2-2-2 1-1 1-1-1h-1v2l-1 2h-3v1l-2 3-3 2-1-1h-2l-1 2-2 2h-4v5h-4l-2 3-2 2h-3l-2-1v3h-2v3h-5v2h-2l-3-1zM153 384l1-6v-2h-1l-1 1 1-4 3-6 1-4h-1l-1-1v-4h-2l-2-1-1-7h4v-1l1-3v-2l-1 2-1 1-1-8 14-27v-3h2l20-36 12-23-3-1c0 2-1 2-3 0l-2-2v2l1 1h-3l1 1 2 1h-8l-1-3-8 4h-6v3l-2 1h-2l2-1 1-2-3 3-3 2-3 1-5 2h-2l-1-4-1-2v5l-16 6-3-2-2-2h7l2-1 1-1-1-1v-1l-1 1h-3l-1-1 2-1h2l-1 1v1l2-2-1-1v-1h1l1 1v1l5-1 6-2v-1l1-1 1 4 1 3v-4l-1-4 1 2 1 1 1-1 2-1v2h1l2-1-1 2v1l1-2 1-1 1 1h1l-1-1 4-1 3-1 2-4h-2l-2 1h-2l2 2h-6v1l-1 1h-1v-4h3v-3h1l1 1 1-1 3-4 2-2-3 1 1-2 2 1 1 2v-1l-1-2h2v-3h1l2 1v-1l1-1-1-1h-1l-2 1-3 2h-2l2-2-3 1-4 3-1-1 6-6a45 45 0 0 1 13-8l3-2 2-1h1l-1-2h2v-4h-1l-1 1 1 1-1 1-2 1h1l1 1-3 1-20 13-6 4h-1v-5l1-5-1 2-1 7-1 4-2-2-6 2 1-2-2 2 1 1v1h-2l2 2h-3l2-4-3 1-7 1-4 1-2 2-2 1 2 2v1l-1 2h4v3l-2 1-3 2-4-2a37 37 0 0 1-12-5v-1h10v1l1 2h1l2-1v-1l-1-2-2-1h-1v-1l1-1h5l-2-1h-3l-2 2c-3 2-6 3-6 1l1-3 2-2-2-1v-1h1l-1-1v-2h-2l-4 1-3 1v1l-1-1-4 3-5 3-1-1-2-1v1l-1 1h3l-1 1h-1l-4-2-33 18 1-1 1-2h-1l-7 3a31 31 0 0 1-7 3h-1l2-1 1-1-2-1h-1l2-3 2-2h2l1 1v-2l-2-4-2-1 1 1v1l-2-1v-1l1-2 1-1h2l6-1 4-1-1-2-1-1h1l2 2 1 2 2-1h2l-2-2-1 1-1-2-2-1h2l2 1v-1l1-2 1 1v-2l2 2 2-1 1-2v1h1v-2l2 1h1v-2l1 1h1v-1l-1-2 4 2v-2l1-2 2-1-1-1v-1l2-2c3-2 19-11 23-11a28 28 0 0 1 4-1h3v-3l2 2v-3l1 1 1 2v-4l1 2 1 1v-3l2 2 5-2a79 79 0 0 0 19-8l5-3 4-2v3l11-6v-1l6-4 6-3v-2l1 1h1v-2l1 1h1v-2l8-2v-1l-1-1h2l2-1v-1h1l1 1v-2l1 1 4-2 4-1-2-2h2l2 1v-2h1v-3l1 1 1 2v-3l2 2v1l8-4 3-1v-1l-1-1h-1v-2l3 1 2 2-2-3-2-2 2 1 1 1 1-1h4l1-1 1-3 1-1-1 2h1l4-4v3h4l-4-2h2l2-1h2v4l-2 1-8 6v1l2-1 3-3 2-1-4 5a22 22 0 0 0-4 4l7-6 6-6v2h-1l-2 2v2l1-2 2-1v1a2 2 0 0 1-1 2l-1 1v1l3-1 4-2h2v2l-1 4v1h-3l3-3-2 1-1 1-1-1h-1l1 1 1 2h2l-1 1h-1l-1-2-2-2v2l1 1h-2l-1-1-1 2 2-1v2h-1l-4 2-3 3 1-2 1-1h-3l-1 1 1 2v1l-3 3v1h2l1-1v2c0 1-3 4-5 4l-3 1v1l-3 2-2 2v-2l1-1-4 2-1 2v2l-1-2-1-1-1 2-2 1v3l-2 6-4 4-5 7-4 5h-1v-1l3-4 4-5 1-2-1 1-5 6-3 4v1h1l-2 2-1 2 3-2 7-8 4-6h3v1l-6 12-3 1 1 1 1 1h-2l-1 1 2 2h-2v1l1 1-2-1-1-1v3l1 2-1 2c-2 2-2 3-1 3h1l2-4 3-4 1-2 1-1h1l-2 2h4l2-2h5l1-10 5-9 3-5h4l3 3 2-2v-2l-1-2 6-7h1l-1 1v1l3-2 3-3-1 2-2 3v1h-4v1l-3 3 1 1v1h-2l1 2v2h-1l-5 3-1 5 6-7 2-1v-1l-1-1 6-6 6-7 3-2h-3v-1l1-1h1v1l3-3-2 1-1 1v-2l-2 1h-1l2-2 1 1 2-4 1 1h1l1-2-1 1-2-2 4-2 1 1v-2h3l-4 6 4-4 1 4 1-5 1-3 2-3-4 4v-3l2-2 3-2h5v5l-3-3v3l1 3 1 1v-2h2l-4 26v8l-2 2-1 2v-5l-4 7a244 244 0 0 1-16 23l-8 13-9 14-4 8-3 2-2 2-6 10-11 22a113 113 0 0 1-5 11 44 44 0 0 0-4 11v1l7-3a154 154 0 0 0 22-14l4-2 7-4 5-3-1-1v-1h2v2h1l6-3 5-3v7h-1l-1 1-1 2v1l1 2h-2l-2 1v2l2-1h2v2l2-1 2-2-1-2-2-1 1-1 2-1h2v3l1-1v-1l2 2 1 3v2l-2 2-3 2 1 3v3l8 2-3 3-2 4h-2l-2 1 1-2v-2h-2l-3 1h-1v2l1 2h-2a64 64 0 0 0-13 7c-23 15-25 17-22 13l3-4 1-2-2 1-4 6-3 4-1-1v2l1 2-2-1h-1v5l-2-1-1-2 1-2a8 8 0 0 0 2-4l1-4 2-5a30 30 0 0 1 4-10l1-2h-5v4l-6 6v-5h-1l-2 1v1h-2l-2-1-1 3-2 2h4l2 4v13l-3 7-3 8h-1l-4-3-4-2v1l-6 23-2 6-1-3-1-2v3h-1l2-6v1l1 2v-2l-1-3 2-4 1-4 1 1v-1l-1-2 2-2-1-1v-1l1-1h1l-2-6-1-1 1-2 1-1-1-3v-3l-3 4a67 67 0 0 0-5 6l-2 4v-1h-1v1l1 1-1 1c-3 1-2 0 1-9l4-9 1-8 2-8-1-1h-1l-3 13-3 12-3 3v2l1 2h-1l-1 1-1-4v-3l-1 1h-1v11h-4l1-3zm26-45h-1v1l1 1h1l1-1v1c2-2 2-1 0 1l-1 3 1 1h1l-1 2a11 11 0 0 0-4 7v3l-1-3-2-3-10 28 5-7 5-6 2 4 1 4-2 1 4-1 1-1v2h-1c-2 0-1 2 3 4l5 2 3-7 3-9v-11l-1-1a4 4 0 0 0-2-1h-1l-3 6a46 46 0 0 0-3 7v1h-2v-4l1-4-7 7h-2v-3l1-5v-1l1 1 1 2v2l-1 2 3-3 3-2h2v3l1-3 2-3v-6l2-3 1-4v-2h-3v-2l-1 1h-1l-2-1-1-1-2 1zm-6 13 1-3-1 2-1 1v2l1-2zm30-134h1v-3l-2 3-3 6 4-6zM448 50h-4v2l-3-1-2-2-2 2h-1v-1l1-1h-8l1-1 2-1h-7l-24 1-5 1-6 2 1 1-7 2-5 2h1v1h-1l-1-1-1 1h-2l-5 2-3 1v3h-3l1-1h-1l-2 2-2-2-2-1 3-2 2-1v-3h2l1-2 34-25 54-10 9 1c0 3 1 6 3 8l2 2 1-1v-2l-1-2 4 6v1l2 2 3 1 1-1-2 11a349 349 0 0 0-1 14v4l-1-1M334 622l-2 2-3-1a9 9 0 0 1-3 0l2-2v-3l-2 3v2l-3 1h-3v-1l1-1h-9l-2-2-2-1v-6h1a141 141 0 0 0 17 4l7 1h1v1l-1 1-1-1h-1v1h1l-1 2 1-1 4-2-1-1v-1h1l2 1v-1l1-1v3h3l-1-1h-1v-3h-2l-1-1v1l1 1h-2c-9 0-19-2-28-5a9 9 0 0 0-2-1l-2-1h12l24 1h12v1l-1 2h1l2-1v-2l1 1 1 4v-3h2l1-1-1-1v-1l2 1 5 1 3 1 1 1 1 2v-3h2v1l-1 1h2l1-1v-1l-4-1-3-1h1l1-1v-1l-1-1 8-2h1l1 1v-2l1 1h2v-1l1-1a47 47 0 0 0 12-6l1-1v1l2-2 11-9a123 123 0 0 1 9-9l-4 8-1 1 1 2v2h-2v-3l-1 4h-2l3 3-1 1h-2l1 1 1 2-3-3-1 1h-1l2 3 1 3-3 6-3 5-2 2-3 1h-4l-6-1a204 204 0 0 0-7-2l-5-1 7 3 7 2h10l3-3 4-3 1-4 2-5h1l3 4 3 3v2a18 18 0 0 1-1 6l-2 3h-1l-2-1-1 1-2 1-9 1h-9l-4 2h-5a51 51 0 0 1-8-1l-8-1a18 18 0 0 1-6-1l-1-1 1 2v1l-2-2-2-3v5l1-1h1v1l-1 1h-2l-3 1 1-2v-1l-1 1h-8l3-2 2-2h-1l-3 2-2 1h-1v-1l-1 2-1 1-4-2zm-59-454-7-6 1-3 1-2v2l7-7a216 216 0 0 1 21-19l7-6v2l-5 5-5 4v1h1l3-2 4-3h1l-2 2-3 3 3-3 4-2 3-5 3-4h-4l3-2 2-3h1l-1 3v2l1-2 2-1 1 1 1 1-2 3-2 4v1h3l4-4 4-5h2l1-1v-1l1 1-1 2-3 4-1 2 3-2 7-5 5-4h1l2 1a53 53 0 0 1-8 7l-15 11-7 6 1 1 2 1-3 2-3 3v1l-3 5a58 58 0 0 0-9 13v1h-3"/><path fill="#0e0c0b" d="m305 629 9-6 2-1h4l-1-2 6-4h9l-2-1h-2l4-2c3 0 5-1 5-2h-9l-9-1h-2l-2-1h4l-1-1-7-1-6-1h-1l-2-2v1l-1 1-10 2-11 1v-1h-2v2l1 1h1l-1 1-1 2v-3l-2-1-1-1h-62l-10-1-24-2-20-1a88 88 0 0 1-11-1l-4-1h14l-4-2-5-1h-2l4 2h-10l2-2-4-3-5-2h5v2h2l2-1 1 2 1 1h8l2 2 2-2h-3l2-1 1-1h-10l1-1v-1h-2l2-1 3-1h-6v2h-2l-3 1-1-1-3-1h-2v1l-2 1h-2l-1-1-2-1 1-1 2-1h-6l-2 2h-2l-2-1 2-2 1 1h1l-1-2v-1l-3 1-4 2-3 1v-1l1-1h3l-1-1h-3l-2 1 2-4h2l6 1 5 1-1-1-2-1v-3l-4 1h-4l2-1 1-2h-1l-1-1v-1l5-1 7-2h2l-2-1-2-2h3v-1l-2-4v-3l-1 4v4l-1-2-1-1v2h-1v-7l2 1v-1l-1-3h1l1-1v-4l-1 3-2 3h-1l-1-6v-7l1-1 1-2-2 2v-4l1 1 1-2v-9l-2 8-2-2 1-1 2-1v-2l-1-4-1-2 2-2v-1h-1l-1 1v-7h2l1-1 1-2v6l1 8v-16h-4l-1-1v-1h2v-4h-2l-1-1h3v-10l-1 1h-1v-2h2l-1-1a33 33 0 0 1-1-5v-3h3v-11h-2v-8h2l-1-4v-3l1-2 1-1-1-2v2h-2v-7h-1l-2-1h4l-1-1v-2h1l1-1-1-2-1-3-1 1h-1l1-1 1-2 1-7v-8h-2l3-3v5l1 5 1-3 1-2 1 2 2-5 1-3v-1l-1-1-2 2v5h-2l1-3v-14l-1 2-1 5v1l-1-3-5 5h-1v-2h1l1 1 2-4 3-3 2-7 2-10 1-2h-1c-2 1-2 0 0-1l1-2v-8l2 2a7 7 0 0 1 1 4v1h-1l-1-1v3l-1 6v3l1-2 1-1v-7h2l1-8h-1l-1 1v-1l1-4 1-6 3-10v-7l-1 1h-2l2-1 2-2v-9l1-2h-4l1-2 1-2h1l1 1v-2h-2l1-1 1-2 1-6 1-11 1-4-1-1h-1l2-2 1 3 1 2 2-1v-2h-1l-1-1 2 1v-1l-4-4v2l-1 1v-8l2-2v-2l-2 1h-1v-2l-1 1-2 1h-9l-10 1v-2h-2v1l1 1-3 1-4 1h-2l1-1 2-1-1-1h-1l-2 2-1-1v-1l-5-1h-6l-3 1-4 1 5-1h6l3 1h3l-1 2v1h1l1 1v1h-6l1-1h2v-4l-1 2-1 1-2-1h-1v1l1 2-1-1c-2-1-3-2-3 0v1h2l2 1-1 1v1l-2-2h-1l-2 1v-2l1-2h-5l-2-1h1v-2l-1-1h-7l3 2 2 2-5-1h-4l-1-1v-1h-8l-1 1-2 1h-6l-6 1-6 2 8-4h8l-4-1h-4v1h-5l1-1v-1l-3 1h-3l2-2h-3v-2h3l-6-2 8 1h8l-4-1-11-3-7-2v-2h-5v-2l-2 1-5 2h-1l2 1-1 1v1h-5l2-2h-2l2-2 2-1h-2l-2 1 2-2 6-5 3-3v-4h1l2 2h1v-1l1-7v-1h2l1 1-1 1 10-8 4-2h1l-1-1h-2l-2 1-6 5 6-6h-4l6-2 4 2 2-1 1-1v-1l-1-1 3-1 2-1h1v1h-2v2l12-6h1v1l-1 1-10 5h-1l-1-1v2h-1l-1-1v2h-1l-1-1v2h-2l-6 5-5 4 4 2 3-3a92 92 0 0 1 15-11l3-1h-1v-1h3v-1l2-1h2v-4l4-2 3-2 1 1h2v-1l1-1-2 1h-1v-1l1-2 3-1 4-1v1h1v-2l-1-2 10-4h1l1 1v-1l-1-1 8-4 1 1 1-1 3-2 4-2v-1h-1l4-2 5-2 2-1h-1v-1l8-4h1l-1-1h2v-1l-1-1 2 1h1v-1l2 1v-2h2l2-1-1-1v-1l1 1h2l-2-2h1l1 1 3-1 3-2v1h1v-2l-1-2 5-2 12-6 7-5v1l1 1 1-2v-2l5-2a25 25 0 0 1 7-3h1l-1-1h2l2 1 4-2v-3l2-1h3l2 1-1-2 4-2h1v1l6-4 1-1v1l1-1 2-1v1h1v-1l2-1 3-2-1-1v-1l1 1 2 1-1-1-1-2 1 1 2 1 2-3 3-2h1v-5l2 2 1 2h3v-3l3-1h3v1l3-1 3-2c2 0 2 0 1-1l-2-1-1 2-2 1h-1v-1l18-14h-1l1-2v2h1l3-4 1-2 1 1h1l6-3 6-4v-4l1 1 1 2-2 2 2-1 1-2 1 2 1 1-1-2v-2l2-1h2l-1 2v7l1 5h-2l1 1v2l-3-3 1 3v2h-1v3h-3l1-2 2-5v-4h-1l-2 1-1 1v3l1-1v-1l1 1 1 2-2-1h-1v8l-2 1 1-1v-7h-3l2-1 1-1-1-3v-2h2v2l1-1 2-1h1l1 1v-6h-4v4h-2v-1c0-2-1-2-5 0l-3 2v2l1-1h1v1l-1 1-2-1h-1l-3 2a46 46 0 0 0-3 4l-1-1-3 2a82 82 0 0 1-7 5l-4 3 2 1 1 1 4-1 3-1-1-1-1-2 2 2c3 1 3 2 1 2l-5 2-4 1-3 2-5 1-1 1-4 2-3 1-3 3-3 4h-1v-1l-3 3-1-1-1 1-4 3-4 2-1-1h-1v1l1 1-6 3-2 2h5l6-6h2l-1 1v2l2-2 2-3 2 1h1v-2h2v1l-1 1h1a14 14 0 0 0 3-3l1-1v2h1l4-2c1-2 3-3 3-2l7-3 8-2-2 3-2 2v-2h-1l-2 3-1 2h1l1 1-2 2-2 3v1l1 1a320 320 0 0 0 14-20l3-4h2l1-1v1l-2 2-1 2v4l-1 1v-2l1-2-2 1-1 1v1l1 1h-3v2l1 1h-2v1l1 1-2 3-2 3v-1h-2v2l1 2h-2l1-1h-1l-3 4a156 156 0 0 1-8 10l-3 3-1 3v3l-1-1h-1l-1 3-3 4v2l-4 6v1l2-1 1-1-1 2-4 5-6 12-2-2-2 4 3-3v2l-5 8-7 12-3 6h-4l2 1 1 1h-3v2l1 2h-2l-1-1 1 2 1 1-2-1h-2l2 1 1 2-1-1h-2v2l-1 2h-2l1 1v1h-1v1l-3 3h1v1h-2l1 1v1h-2l1 1v1h-2l1 1v1h-2l2 2h-3l2 2h-2v1l1 1v-1l2-2 2 2-1 1-1 2-2-2 1 2 1 1-2 3-2 4-6 3h-1l1 1v2h-3l-1 2-1 4v1l-1-1-2-1 1 2 2 2-4-2v1l2 1 1 1-2 2 1-2-4 2 1 2v1h-2l2 2-7 14v1h-2l-2 6 1 1v2l-1-1h-1v2l-1 1 1 2v2h-1l-1-1v4l2 1-1 2c-2 1-2 3-1 3h1v6l-1-1h-1v2l1-1v4l-2 5h-2l1-3v-2l-1 2a20 20 0 0 0-2 6l-1 4-1-1h-2l2 4-2-2-1 2v5l1 4-2 2-1 2h1l1 1-1 2-1-3v6l1 6-1 1-1 2h1l1 1v9l1 1c2 2 2 2 2 0v-2h-1l-1 1v-5h1v2l2-2 1 1v4l-4 25c-2 5-2 12-2 14l-1 4v-6l-1-5v8l-1 1h-1l-1-1v2l1 2h-2v-4l-1 2-1 6v4l2 4v-3l-1-2 1-1h1l-2-2v-4l3 3h1l2-2v4l-1 18-1 15-2 1-1 2h1l1-1v28l-2-2v1l1 2h1v10h-2l-2 2-1 2-1-1h-1v13h1l1-1v2h-2v3l2-1 1-1 1 6v6l3-1 25-5h2l-1 1v1h-3l-2-1v3l3-1h4v1l-11 2a136 136 0 0 0-11 3h-2l-2-1-1-2-2 2h-1l-1-1v2h5l-4 2-5 1v6h-2l2 1h1l12 2 22 3 10 1h-5l-6 1h15v-1l-1-1h-1l12-3 22-6 10-2h8l-2 2h5v-3h-2l-1-1h6v1l-2 2h2v2h-2l-30 6-3 1h10l10-1v1l-2 2-2 1h2l4-4h11l10-1-2 2v1l1 1h7v-1l-1-1h-1l1-2 1-1v2h9l-4-1h3l10 1 3 1-1-1v-1l10-1h10l2 2h9l-1 1 1 2 2 1h-9l-8 1-2 2h-3l-3 1h8v2h1a36 36 0 0 1 7-1l12-1 22-2 7-1 1-1 2-1h3l3 1 2 2h1l1-1v5h10l4 1-2-2 9-2q8-1 25-7h1l10-6 8-12v4l4-4h-2l-1-1 2-2h2l-1-1 2-2 2-5 1-3 1 1h1v-4l1-10 1-6h-5v-5h5v2l1-2v-3h-3l2-8h-3v-4l-1 2-1 3v-6l-3 3-4-4 1 2v2h-2v-3l2-10 2-8 1 1v-2l-1-2 2-2v-1l-1-1 2-3 1-2v-2l-1-2 2 2v-3l-1-3 2-2 1-2-2 2v-2l1-2h1l1 2v-5l-2 2 1-2 1-4v-1l1 1h1l-1-3v-3l1 1 2-4-2 1h-1l1-2v-2l1 2v1l2-6 1-8v-4h1v-3l-1-3 1-2 1-4 1-10 2-7h1v-13h3l2-2h1v6l-1 6-2 4 1-4v-3l-2 8 1-1h1v3l-2 11-1 2h1l1-1v1l1 1-1-2v-1h2c2-1 2-1 2 1v1h2l-1 4-9 68-2 23-2 21-1 8h-1l-1 1v3l1-2 1-1v3h-3l-2 12-1-1h-1l-2 3a76 76 0 0 0-1 4l-4 8-2 2h1v1l2-1 2-4 1-3 2 2 3-5 4-4v-7l8-3-2 5h-1l-2 1v3h-2l-5 6a96 96 0 0 1-12 14l1-2-1-3v4h-3l2 1 1 2-1 1h-2l2 4-2-2-2-1 1 1-1 2-30 14-13 8-7-1-13 2 2-2-4 2-1-1-5-1v-1l1-1h-1l-2 2-1-1h-1l1 1v1h-2l3 2h-1l-1 1-2-1h-3l1-2v-1l-1 2-1 1-14 4-3 2a9 9 0 0 1-3 1h-1l1-1v1zM134 377l-1 3 1 2v1c2-8 2-11 0-6zm1-33 2 1 1 1h-2v1l1 1h-2v1l1 1h-2l-2 7-3 8 1 1h-2l1 1v2h-2v3h2l1 1h-4v3l-1 1v1l-1-3-1-2 3 3-1-2v-2h1v-4l-1 1h-1l2-2h1l1-3 2-5 1-4 1-2 2-6 1-3zm8-38h1l1 1v-1l-2-3v3zm147-186v-1 1zm0-4-2 2-1 2v-4l1-4v-5l2 2-1-2-2-2v-1l1-1 4-6v-2h-1l-1-1h6v-1l-1-2 2 1 1 1-1-2v-2l2 2h1v-5l-2-2 4-4-2 4h1l2-1 2-2 3-2-2-1-1-1h2l1 1 3-3h2l1-1v-2l-1-1h1l3 3h-2v7l3-2-1 1a16 16 0 0 1-4 3h-2l1-1 2-1v-5l-2 1-4 6-2 2 4-2v2l-1 1h-4v2h-1l-1-1-2 6h-1l-1-1v1l-1 2-2 1h-1v3l-2 4-1 4-1 2h1l1-1v4l-1-1h-1v5l-1 3v-3zm13-32a2 2 0 0 1-1 2h1l2-1h1v-2l1-1h-2v2h-1a2 2 0 0 1-1-1v1zm-38 54-1 1 1-1zm-54 36v-1l-2 1c-2 1-2 2 0 1h1l1-1zm32 2 2 2 1-2h-3zm-2 2-5 7-5 6h-2l1 1v1l-1 2-2 2h2l-2 1-1 1h3v-2l8-8-1-1v-2l1-2 2-1-2 4h2v-3h2l-2-2h1l2-1 3-3h-4zm12-5h1-1zm1 0v-1 1zm-72 115v1l1 1 1-2h-2zm-24 51v-1l1-1-1 2zm1-2v-1 1zm9-33a208 208 0 0 1 10-23l2-3v-3l1 1h1l-1-1v-2h3l-1-1-2-1h3l-1-1v-1h1l1-1v-1l1-3v-1h2l-2-2h3l-2-2 4 2-2-4 1-1h1v2l1-1a25 25 0 0 0 2-5v-2l1-2v-4h2l1 1v-1l-1-1h2v-2l1-2 2-3c2-2 2-3 1-4h1l13-20 12-20v-3l3-3 6-7 2-4 2-2v-1l1-1h1v-2h2l1-3c2-2 1-2-2-1l-2 1v2l-2-1h-1v1l1 1h-1l-1 1v-2h-1l-2 1 1 1v1l-4-2 1 2 1 1-2-1h-1l-3 1-3 2-1 1-1 2v-2h-2v1l1 2-3-3v1l1 1-2 1-1 2-2-2v3l-2 4h-1l-2-2-3 1-2 1v2l-9 5-27 15h-3l-4 3-4 4h1l-2 4-4 1-5 3h2l2-1-12 10-1 1h-1l1-2v-1l-2 2v1l1 1h-4v-4h-1l-1-1 1-1 2-1h-2l-4 1-3 2h-4l-1 1-1 2v-1h-1v2h-3v1l-10 4v1l1 1h-3l-4 2-3 2-2-2h2l3-1-1-1v-1l-4 2a15 15 0 0 0-4 3v1h-2l-1-1v3l-1-1h-2l-5 3-4 3 6-2-1 1v1h2v-3h1l1 1 6-4 3-1 2-1v3h-1a8 8 0 0 0-3 0l-3 1 1 1 1 2h1v-2h2v1l-2 1-3 1 1-1h-4l-6 4h1l2 1h-5l2-2 1-2-4 1h-4l-3 3a52 52 0 0 1-7 4 95 95 0 0 0-10 6l-6 4 2 1h2l-4 1h-3v2l-1 3-10 6v4l-1-1-2-1h-1l3 3 2-1h2l9 3a83 83 0 0 0 11 2h2v2h-2l1 2 1 1h-3l1 1h2l1-1 1-2-2-2h6v2h-2l1 2 1 1 2-1h1l-2-2 1-1 9 1 8 1h6l10-1 4-1 1 1v1h7l-2-1-1-1h1l3-1h12v1h2l3-1 2-1h14l-2 1v1h2l2-1v4h4l-2-1-1-1v-1l4 2v-1l1-1 2 1 3 1-1 4v4l1-2 1-5 1-3-2 1h-2l4-2 1-4 1-3h-1l-1 1-2 4-2 3h-2l-1-1h3l1-3 2-4-3 3h-1l1-3 1-2h4l-1 1h1v-2l1-3-1-1-2 2 2-5 8-19 1-6 4-2v-5l1-4 1 1h1l-1-1v-1l1-2 2-2 2-1h2l3-6a23 23 0 0 0 3-6l6-9c1 0 1 1-1 4l-5 10 2-1-1 1-4 6-2 5v3l-1-1h-1v2l1 1 8-10 1 1 1 2v1h-1l-1-1-6 6v5c-2 0-8 16-7 18l-1 1-1-1-1-2v-1h1l1 1v-3h-1l-2 2v3l1 2h2l-1 2a11 11 0 0 1-1 4l-1 1h-2l-1-1v1l1 1-1 7-2 6 2 2h-3v3l-1 2h2l1-1v1l-3 1h-1l1 1h2l-2 1-1 1v5l-1-1h-1l1 1v2h-2l2 2-1 1-1 2v1h1a36 36 0 0 0 3-8zm-5-23v3l1 1v-3l1-2h-1l-1 1zm3-5v-3l-1 2-1 3v1l1 1a40 40 0 0 0 1-4zm279 132h2v-2l-1 1h-1v-3l1 1h1v-1h-2v-4h-2l-1 1v-3h2l1 1 2-1 1-1h-7l-2-4h4l4 1v-2h-10l4-1h5l1 1 2 1v-2l1-1 2 1h3l2-1 7-4 4-2h6l2-1 3-1h-3l-2-1h3l6-4a50 50 0 0 1 11-6v1l34-17 1-1v-2l2 1v-2l12-8 1 1 5-8 4-7v-5h3l-1-1v-2l1 1h1l-2-2 1-2 1-1 1 1h1v-2l-1-3h5v3l-4 4 1 2v3l-1-1-1-2v3l1 2h-3l1 1v1l-1 2-1 3h-3l-3 5-3 4 2-1 1-1 4 2 1-1 2-1h1l-1-2h1l2-1h1v4l-3 4-3 3-4 3-5 3v-2l-10 10-2-2v6l-1 1-2 1-1-2-1-1 2 4-2 1h-1v1l1 1h-3l-3 2-2 2 2-1h2l-1 2-2 2v-1l-1-1-3 3-2 3 4-2-4 3a82 82 0 0 0-8 6l-6 4v2l1 1-2-1h-1l1 1v2l-4-2 2-3 1-2 3-3 3-2-8 4 1-1-1-1v-1l-6 2h2l2 1h-4v-1l-1-1-3 2-3 1h-2l-3 1 1 1h-2l-2 1-1-1h-1l1 1v1h-2l1 1h-7v1l1 1-4 2-1-1-2-1 1 2 1 1-2-1h-1l1 1-4 2c-4 2-5 2-2 0l2-1h-2l-7 1c-1 0-1 3 1 4l-1-1 4-2v4h-1l-4 1h-2v-3zm-197 78-1-3v2l-1 2v-6h-1l-2 1-1 2v-3l1-2-1 1-1 2v-4h3l1-2 2-7v-4l-1 1h-1v-1l1-1h1l2-12-1-1h-1v-4h2l1-1 1-6 1-5-1 1-2 1v-2l2-1h1v-5h-1l-1-1h2v-3l2-2h-2l-1-1v-10h1l3 3c1 3 3 4 3 2l-1-1h-1l1-2v-2h-1l-1 1v-5h-1l-1-1v2l-1 2v-8h1l2 2 1-3 1-4-1-1v-1l-2 2h-1v-8h2v2l1-1 2-1v1l1 1v-4l-1-1-2-1-2 2 1-8a297 297 0 0 1 4-31l1-2h4l-1 3-4 36 3-16c3-17 5-25 7-29l1-2v-14h-1v-1h1l1 1v4h3l1 2v2l-1 2-1 1 1-2v-3l-1 1c-2 1-2 1-1 3l1 2h-1l-1-1v2h3v1l-1 2-1 1v-1l-1-2 1 3 1 5v1h2v-4l-1 2-1 1v-4l1-1h1v1l1 1-1-3v-3h3l-1-2v-1l1 1h1l-3-3 1-2c2-3 2-3 4-1l2 1v-2l-2-1h-2l4-4 1-3v-7l1 1v1l2-4 1-4-1-2-2-1h2l1 1v-1l-2-2 2-2 2-3 2-8 2-6-2-1-1-1h3v-3l-2 2h-1l1-2 2-2v2l1 1v-4l1 1h1l-1 1a27 27 0 0 0-2 7l-1 8-1 2 2-3 1-2v2a175 175 0 0 0-10 35v2l1 1h1v-7l4-12v-4l1 1v-5l2-1a32 32 0 0 0 3-8l1-6 2 2 1-5 2-4v5l2-1 1-1v1l1 2 3-7 5-8 2-1v11l-1-4v-4l-2 2-1 2 1 3 2 2h-3v-4l-1 1-11 26v3l-1-1h-1l-2 4a58 58 0 0 0-2 7l-1 2 3-3h2l-1 1-3 4v-1l-1 1-2 1-1 4-1 6v2l-2 2v1l2-2v1l-1 2h-1l-1 3v2l2-2-1 4a97 97 0 0 1-2 9l-2 5-1 2-2 2v1l1 1h-2v2h1v-1l1 2v-1l3-6v2l1-1v2l-1 2-1 3v2l2-6v1c1 1 0 5-1 9a58 58 0 0 0-2 8l2-1 2-2 1-6 5-18 4-11-1-2v-1l-1 1-2 1v-2l1-4 1-1v2l1 2v-5h5l2-8 3-9 1 1h1v-5h2l1-1v10a29 29 0 0 0 3-7l3-9 3-8 2-5h5v5h-3l3 3-2 3-1 4v2l1-2 1 4v4l4-4h4v10l3-3 9-10 6-7v-2l-1-1 3-1 2-1h1l2 1v4h1l1 1-1-2v-1h1l2 1 1 1v2h4l-2 1-1 2 1 1 2 3v-4h1v2h2l2-1v-3l1 1 2 1-3-3-2 2v-3h4l2 2v5l-1 3a43 43 0 0 1-6 8l-4 5-1 1h-2l-5 6a639 639 0 0 0-29 40l-9 13v4l-4 7-4 6h-4l1 2 1 1h-1l-2-1v1l-1 4-1 3v-1l-1-2v5l1-1h1v4l-4 7a132 132 0 0 1-15 22l-1 1-2 4-2 3-2-1-2-2v1l1 1-1 1h2l2 2-3 5c-2 2-5 7-6 11l-4 6-4 4v-2l2-2 1-2v-1h-1l2-1h-3l1 1v2h-2l-1 2v2h-5v-1l-2-3-2-2 1-1 1-7 2-4v3h2l-1-1v-1h5l-1-1-2-1-1 1 2-4h-1l1-2 1-5 1-3-2 2v-3l2 1h1l-2-2 3-1 2-1-2-2-2 1h-1v-1l1-2v1h1v-3l-1 1-2 1v3l-1 6-2 10v3l-1-3-1-2 3-6v-2l-2 3-2 2v-2l1-2-4 6v1l3-3-2 3-3 8-2 5 1 1v1h-2l1 1v1h-2v9l-1-3h1zm123-176 1 1h-2l1-1zM266 464v-1l-1-2h2v2l-1 6-2 7v3h2l-1-1v-1l1-1h1v-5l3-6 3-7 1-1v3l1-2 2-3-1-1-1-2h1v-3h-3l3-3v-2h-2v2l-1 2h-2l2 2-1 2-1 1-1-1h-1l1 1a4 4 0 0 1 1 2v1l-2-1-1 1-2 1h3v-2l2 4-1 1-1 2-4-2 2-2-2 1-1 1 1 1v1h-2l2 2h1zm221-317-1-2v-3l1-2-1-3-1-4v4l-1 4v4h-2l-1-1v-15l-2 4-8 3-1-16v-16h2l1 3v20l1-1V92l2 10V90l1-15v-5h2v5l1-2V62h2l-2-2-1-5v-6h2l-1-9c0-13-1-15-3-15h-1l1 1v2l-2-2 1-2v-2l2 1 2 2v-2l3 3V15l-2 1h-1l-2-2h-1l1 1c2 1 1 2-1 3h-2l2 2h-3l-5-2h-2v2l2-1h1v1l-1 1h-3l1-1h-3v2h-6v-1l-1-2-1 2-2 2h-7l-3 1v4l-3 2-2 1h-10v-5h-3v6h-5v-3h-1l-2 1h-2v3h-7v-2h-1l-3 1-4 4-5 3h-4v2h-2l-2 1v2l-4 2a24 24 0 0 1-5 2l-11 5-5 2a8 8 0 0 0-3 2l-1 1-2-1-1-1v-3l1 2 1 1v-5l-21 11-3 2v-2l8-4 11-6 4-3-2 1h-3l1-1 23-13h1l-2 4 2-1 1-3-2-2-4 1a20 20 0 0 0-4 3l-5 4-4 3-5 1-6 3h-4l1-1 2-1h-2l-2 1v3h-1v-1l-1-1c-2 1-3 0-4-1v-1l8-4 1 1-1 1h-3l1 1 3-1 5-2 1-1 1 1v-5l3-1 4-2c1 1 3-1 5-2l3-3v-1l-1-1h9v-2l2 1 1 1v-1l-1-1 3-1 11-3a459 459 0 0 0 19-4l17-3 6-2 3 1h3l2-4 1 1v2l1-1v-2h4V9l-1-1h3l2-1 8-1h6v1l-1 1 2-1 1-1h4l5-1 2 2 3 2-1 2v2l1-2 1-1 2 1 3 1 1-1 1 11v10l3 4 9 14 2 4 2 1v1l2 3V48l1-10 1-2 1-1 1 1v1l-1 2-1 3v9l-1 9 3 5 2 5v8l1 4-1-2-2-2h-1l1 1v1h-1l-1 1v16l1 21v5l-2 1-1-7a52 52 0 0 1-1-7v-1h1V94a183 183 0 0 0-2-23q-2-6-12 1l-2 4 1-1h1l1 4 1 13a294 294 0 0 0 2 20l2 16-3 7h-6v-4l1 1 1 2v-4h-1v1-1h-1v-1l-1 2v4l-1 8 2 2c-1 3-1 4-4 2zm13-93h1l1-1-1-2-10-15v1l-1 2 2 2v4l-1 1h-1l1 2h3v4h3v1l1 2 1 1 1-1v-1zM329 67l1-1 1-2 2-1 1 1-5 3zm159 64-1-1v2l1 4v-1l1-4h-1z"/><path fill="#f3c010" d="m357 603 2-1v-3l-2 1 1-2 1 1h2l1-1 1-2v-1l-2 1 1-1c2-3 3-3 2-1v1l2 3 3 2h1l2-3 2-3c1-1 3-3 3-5l7-11 1-2-1-1v-2l-4 7-5 9-2 2 1-5 1-4 2-5a84 84 0 0 0 7-12l3-8 4-16 1-11 2-25v-9l-2 25-1 13-2 9-1 9-3 6a94 94 0 0 1-9 20c-2 2-2 1 0-3 5-10 9-24 9-33v-2h-2l-1 7c-1 7-4 15-7 23l-2 5v-6l-1-6 2-4c5-21 9-43 11-64l2-22 1-8v-3l-1-3 1 2 1 1v-4l1-7h1v-2l-1-2h2v-4l-1-4h2v-2l-1-1h2l-1-2 1-6v-5l2 2 1 2v15l1-1v-13l-2-4-1-3h-1l-1 1v-3h1l1 1 1-3 2-3-1-1v-1l1-2 2-2-1-3v-3h-2v6l-4 2-1-1-3-1h-2v-1l4-2h2l2 1v-3h-4l1-1v-1h9v4h1l1-2v-1l3 1 10 1 3 1v1l-1 1h2c2 1 3 2 1 2l-1 1v2l1 2 2-6-2-1-1-2h3l-3-1-5-1h-3l1-2v-1l-1-1h14l-2 2 2-1 1-1h3l2 1v5l-2-1h-2l2 2-3-1h-3v9h-1v3a13 13 0 0 0 1 4h1v-3l-1-3 4-4-1 2-1 6-1 4 2 1 1 1-1-2v-3l2-1v2a119 119 0 0 1-3 16l-2-2-1-2v4h-1v-4l1-4 1 2 2 2-2-6 2 1 1 1-1-3-2-3-1-2-1 4-1 5v-7l-1 3-1 2 1 2c1 3 1 4-1 1v2l-4 18v-10l1-3 1-2-1-2-1-1v1l1 2-1 2-1 1v15l2 2 1-8 2-8 1-1-1-1v-2l1 2 2 1-1 1v12l-2 7a456 456 0 0 0-7 48l-2 11-2 4v19l-2 5-3 8-1 3v2l1 1h-3l-2-4h-1l2 6 2-1h3v3l1 2 1-1-1-3-2-4 2-3 1-3h1v1a9 9 0 0 1-1 2v1l1 4 1 5 1 1v-1l1-3v-1l-1 1h-1l1-1v-2l2 2 1 2v8c-1 9-1 8-6 13l-3 3 3-7 4-7h-1l-2-1v-3h-1v1l-2 3-4 7-6 10-2 4h-3v2h-1l-1-1v2l-2 1h-4l-1 1v1h-1l-2-1v1l-9 2-8 1-4 1 1-1zm39-111v-4l-1-3 1-7v-7l-2 21h2zm38 80-1-3h-2v3l-2 1h-1v-1h2l-1-1a9 9 0 0 1-2-3l-1-2 2-6-2-2v-1l1 1 2-2-1-1h-2l1-2 1-4 1-8a111 111 0 0 1 2-11v-9l-1-6 2-4v-6l1-17 2-16v-5l1-1h1v-7l1-6 1-5v-3h2l-1-3v-2h2l-1-1v-1l2-4-2-1h-1v-3h-2v3l-1-1v-1l3-3h-2v-2l1 1 1-2v-7l1-5-2 8-2 9-1-4v-4l2-2-1-2v-1l2-4-2 2 1-2v-1h1v-6h3l-1-1-3-2h-2v2l-1 1v-6l2 1 1 2 1-1v-4a8 8 0 0 0 2-3v-2h2l-1 1v1h1l2 1h1l-1-1v-2l1 1h1v3h-2l-3-1v4l1-1 1-2v1l1 1-1 1v1h-4v1l6 2-1 1h6l-3 1-3 2h3l-2 2h2l1-1-2-2 2 1 1 1 4-1 6 1h3l-6 4-3-1h-2v8l-1 10-4 42-3 32a336 336 0 0 0-2 17l-1 13v9l-4 27v4h-2l-1 1v-3zm44-268h-2v-1l2-2 2-1v1l2-1 2-2v-2l1-2-2 1h-1v-2l2-2-3 1a4 4 0 0 1-1-2v-2l2 2 1-2-2 1v-2l-3 3v-2c0-2 2-4 10-8l7-5 1 1v-2l1 1h1v-2l1 1h1v-2l1 1h1v-1l1-2 2 2v-2h1v1l1-2 1-1 1 1 2-4v2l-1 1 2-1c0-1 2-3 4-3l2-2v1l-1 1 4-2h-2c0-1 1-2 3-2l3-2 1 1v-1l4-2 7-7h6v-1l1-1h1l2 1-1-2-1-1 4 2-2-2h2l1 1v-3l7-3 6-3h6v3h1l3-2 2-2v1h1v1l-1 1h1l1-1v-3l2 1h3l2-2-1-2v-2h6v-2h1v1l-1 2-1 3-1-2-1-1h-1l1 1v5l-1 1h-1l-2-2-1 2v2l-4 1a16 16 0 0 1-5 2h-2l1-1v-1h-4v-1c-2 1-2 1 1 2l2 1-6 2 1 1h2l1-1 3-1-7 4-11 8v1h4l3 1 1 1v2l-3 2-4 1-1 1v1h-6v3h-3l1-2-3 3v-1l-1-1v2h-3l-6 1-6 2-5 2-5 3-5 2-8 1h-2l9-4 11-7 2-2-18 9-12 7-3 2h3l2-2h1l2-1 1-1v1l-1 1h10l1-1 2-1 1 2 1 1h-1l-1 1-4-1h-4v2h2l2 1-4 3-4 2-3-1-4-1h-5v2l4 3 5 3-8-6h1c2-1 7 0 9 1l1 1-2 3c-1 3-2 3-4 2l-1-1v2l-3 1-11 2zm100-89h-8v-1l3-3 2-1h-10l-9 1-2 1-4 1h-2v2l1 2h-5v-2h-3l-8 2-5 2-1-2-1-1v-1h1l-2-1-3-2h-6l-8-4-6 2-2-1-1-1-1 1v1l-1-2-1-1h-19l-7 3-4 2-2-1c-2-1-2-1 0-3l2-2h-2l-3-1-1-1v-5l6-6 1-3 1 2v2l1-2v-2h-2l-2 1v-5h2l4-1 6-1 4-1-1-1h-1l2-1h1v1h3l-1-1v-1l2 1 4-1 1-1 1 1h1l1-1 8-1 13-2 6-1 4 3c11 7 18 10 41 15l14 3h7l7 1v-2h-13l-14-3a134 134 0 0 1-30-9l-1-1 2 1a795 795 0 0 0 28 4l11 2 6 2 8 3 2 1-1-1-6-3-6-2-19-4-20-3-15-5-2-2h5v1h3v2h2v-1l2-1h1l3 1 2 1 12 1 18 1 6 1 11 7 13 7 2 2-2 3c-1 3-2 4 0 2 1-2 1-1 1 4l-1 4v-2l-1-2v2c0 2 2 4 6 6l3 1h1l1-1v-3c0-3-1-3-2 0l-1 2-2-1-3-1v-4h1v4l1-2 1-3v2l1 1h2v-3l2 1 1 1v1l-1 2 2 1 1 1 1-1v-1h-1a6 6 0 0 1-1-3l-1-2 4-2v1l1 1v-1c0-2 0-2-3-1l-3 1v-1l-1-1h3l-2-1-1-1h2l4-1 1-1 1 2v2l1-1 2-1v6l-8 8h-1l-1-1v2l-1 1h-1l-2-1h-2l-4 1-2-1-1-1v3h-6a58 58 0 0 0-8 1h-3l-4-4zm-112-19-1 2h1l2-3-2 1zM159 377l-1-3h-3v1l-1 2v-5l2-5 2-4h-2v-5l1-2 2-1v-4l-3-3v9h-5v-2h2l1 1v-2l-1-3h2l-1-2v-2l2-1 1-1-1-2-1-3 2 2 1-3 2-3-2 1h-1l1-2c0-2 4-7 4-6l-2 3-1 3h3v-2l-1-1 2 1 1 1-1-2v-2h2v-2h2l-1 2a27 27 0 0 1-2 4l-1 3v2l1 2h-1l-1-1-2 4-1 4v-5l-1 2v1l1 3 3 4h1v-3l-1 1h-1v-6l1 1v1l2-5 7-15 5-10-10 16v-2l2-4-1-1h3l-4-2h4l-2-4 2 1 1 1 2-4h-2v2h-1l-1-1 2-2 2-3 1 1h1l1-1v-1l-1 1h-1v-1l-1-1h2l-1-1v-1h4l-1-1h-1l-1 1v-1l1-3 2-3v-1l-1 1h-1v-2l1-2 1-4 1-2 2 2-1-2v-2l2 1h1l-2-2h5l-1-1h2l-2-2-3-1h3l2 1 5-8 5-7v-3h-1l-1 1 1 1v2l-1-1h-1v1l-4 8-2-1-1-2 2 1 2-2 3-5 2-5 2-4-1-1h-1l4-8h3l-1-1-2-1h3l-2-1h4l-1-1-2-1h3v-2l-1-1 3-4a33 33 0 0 1 3-5l-1 3-3 4h1l4-5 2-4v-1l-1-1 3-2 2-1v-3l-2 2 1-2h2v-4l1-1c2 0 2-1 2-3v-1l1 1h1v-1l1-1-3 8-4 7c1 1 8-10 8-11v-2h2l2-3 3-4a3 3 0 0 1 1-2l1-1-1 2h1v-2l-1-1 3-2 2-1-1-1v-1l-2 1 1-1 2-3 2-4 4-3-1-1v-1l1-1 1-2h1l1 1 3-3 1-2-1 1-1-1 2-1h2l5-6 6-5h1v7l-5 4-4 4h-1l-1-1-8 8h-1l-4 3-2 3-1 2-1 1h1l9-9 1 1 2-2 1-2v-2h1l1 1 4-3 5-3 4-6v-7h-3l-5 5c-7 7-8 6 0-2l7-9 4-5 1 1h1v2l-1 1h1l10-13-4 5a21 21 0 0 1-5 4 26 26 0 0 1 5-6 117 117 0 0 0 8-9v1l3-3 5-4-2 2a46 46 0 0 0-5 7l-1 3-1-1h-2l1 1h1l-2 3-5 7-4 4 1 1c1 1 2 0 9-10l8-10h1l12-9 3-2 1-1 1 1v1l-1 1-2 6-4 6-6 8-6 7v1l1 1h2l3-4 11-11-12 14h1v1l12-14-2 4-4 5-3 5-6 8-4 5-26 26v3h-3l1-2 1-1c-1-1-2 1-5 5l-2 4h1l2 1h-3l-2 4a19 19 0 0 1-2 5h-1l-1-1v-2l2 2-1-2-1-1 6-10s-9 13-9 15l1-1 2-1-3 3-1-1-4 6 1 1-2 2-1 3c1 1 7-8 7-9l-2 1 1-2v1h1l2-2c2-2 2 0-2 5l-6 10a93 93 0 0 1-5 9l-4 5-2-2 1 2 1 1-2 1a59 59 0 0 0-5 8 67 67 0 0 1-6 8 80 80 0 0 0-9 15l-2 2h1v1l-1 2v-1h-1v3h-1l-1-1v1l1 1-6 12-11 21a67 67 0 0 0-5 9l-3-1-1 1-1 3v1l1-1h1v1l-2 9-3-1v-2l-1 1h-1v2h-2v-2l-1-2-1 2-2 1v1l-1 8a43 43 0 0 0-2 7v2h-1v3l1 2-2-2v2l1 2h-3v2c1 4 0 3-1 0zm90-193h-1v-1h1zm0 1v1h-1l-2 1 2-3h1zm-93 49 3-10 2-6 7-3 9-6 2-2h-8l3 1h2l-7 4a61 61 0 0 1-7 4l2-6 4-1 3-1h-3l-2 1v-3h3l4-4h2l2-1 1-1v-1l1 1h1v-2l2 2v-2l3-2 3-1c1-1 8-5 9-4h1v-1h-4a10 10 0 0 1-3 2l3-3 4-2 3 1h2l2-2 1 1v1l-4 7-13 17 2-1 1-2v1l-1 2-1 1h-1v-1l-2 3-2 2 2 2-4 2v-1l1-1-4 2-16 12-6 4h-2v-3zm54-47h2v-2l2-2 2-3-3-2-1-1h2v-1l1-1 3-2 3-1-6 6h1a24 24 0 0 1 4-1h1l-1-1v-2l3-3 2-3 2 2v-1l1-2 1-1v-1h-1v1l-3 1-1 1v-2h1l2-1 3-2h1v4l-3 3v2l2 2-3-1-2-1 1 1v1l-1 2-1 1v2l1 2h-3l-2-2 2 1h2l-3-3-2 2h-1l1 1-1 1-2 1-6 8 2 2 2-2v-1l-1-1 1-1h1v1l-1 1h2l3 1-1 1-2 1-1-1h-2v1l-1 2-2-2 1 2v2l-2-2 1-1v-2h-2v4h2l-4 2h-1v1l1 2-2-2-2-1 3 3-1 2-1 1h-2v1l1 1h-2v1l1 1 3-3 4-3-4 4 1 1 1 2-1-1h-1l-8 10-1-1v-1l2-1 2-2-1-1h-2l-3 4-4 4h-1l-1-1 2-4 2 1h1l1-1 1-2-1-2-1-1h1l2 1 4-5c4-5 4-7 0-3l-2 2 1-2 5-8 4-5 1-1 2-1zm282-36a52 52 0 0 1-6-5l-1-1 4-4v2h1l1-5 1-6v3l2-1 1-1v1l1 1v-13h-2v-6l-1-6h1v5l2 2 1-2v-1l-1-1h-1l1-4v-5h-1l-1 2v1l-1-1V77l1-1v-2l-2 2V65a14 14 0 0 0-1-5v-6l-1-5 2-1a5 5 0 0 1 2-1h1l1 3 1 4 1 2 1 1 1-2h3l2 3 2 2-1 1 1 2 1 1v15l-3-1-2-1v2l1 5 2 7 1 4-2 4-1-1h-1v4h2v2l1 4 1 1 2 1-2 2 1 1h1l2 10-1 3-2 3v6c0 4 0 8-2 12v3l-2 1-2 2v2h-2l-1 1-7-5zm-53 15 1-6v-5l3-3 1 1h1v-4l1-1v4h1l1-5 2-7 2-4v-19l1-4v-3h-1l-2 1v3l-4-2v-2l2-4h2v-2h-4v-2h-1l-1 1v-2l2-1h2l-1-2-5-5v-3l2-3 1-1V71l1-7 2-7-1-5v-5h-4l1-1-1-1c-2-2-1-2 5-2l5 1v3l-1-1h-1v1h2v1l-1 1h2l9-4v-3h5v3l-2-1-1-2-2 2 4 2h-2v4l1-2 1-1v3l1 1h1v1l-1 1h4l1 1 2 5v3l-1-1h-1l1 3v3l-2 2v1h1l1-1v8a660 660 0 0 0-1 29l-1 22 1 1h1v-17l1-14 2 13 1 9 2 2v-4l2-6 1-1 1 1-1 6-1 8v2h-1l-1-1-1 8-2 7 3 3v11l1-5v-6l1 1 2 1v8l-2 2-3 2h1l2 1-3 3h-5v-4h-2v4l-2 1-7 1h-4v-5l-1 2v2l-2 2a8 8 0 0 1-4 1h-1l-1-2-2-1-4 4h-3l-2-2z"/></svg>