<svg xmlns="http://www.w3.org/2000/svg" width="198" height="438"  viewBox="0 0 198 438"><path fill="#d9e0e2" d="m-11 436 1-5 1-3h2l2-3v-3h-1v-1 1l-1 1h-1v1l-1 3-1 2h-2v-4l1-3h2-2v-1l1-2h2v-1l2-4 2-3h-3v-3l2-1 1-1h1v-1l3-2 4-1 2-1v-3l1-22v2H5v-7h2l-1-1v-5h1v-1l-1-1 1-8 1-13 1-2v-1H8v-6l1-5H8v-4h1v-3l1-1H8v-3h2v-3H8l1-2v-7l1-5h2v7l1-4 1-3h2v2l-1 8-1 7h-2v1h2v5h-2v4l-1 3h2v17h-2v1h-1l-1 1h3v4H9v2h3v6h-2v28h1v7H9v6h4-4v-2h6l1 1 1 1h3v7l2 3 1 4 2 1 1 1v2l2 4 2 3v6h-4v-1h-1l-2-4-2-5-1-2-1-2-1-2v-1h-2v-1l-1-2-1-1v6h-2v-5l-1 1v5h-1 4v1l-1 4-1 3h-2v-1l-1-3v-2l-1 2v1l-1 5v4H5v-4H4v-2h1v-3H4v-2h2v-2H4v-3h2l1-2v-1H4v-1H3l-6 13-6 12h-2v-2Z"/><path fill="#305673" d="M15 242v-2l1-1h-1l-2 1v-4l1-2-1-1h-1v-1l2-7 3-11v-1h1v-3h3v1h2v-1h2v1l1 1h1v-5h3v2l1-1v-2h1l1-1 1-3 1-1h2v2h-1v2l-2 3-2 3v1h-1v1l-1 2-1 1-2 2-1 1v3h-1v3h-2l-2 4-2 3-1 1h-1v1h1v3h2v2l-1 1h-1v1l-1 2h-2v-1Zm3-37-1-1h-2v-3h-1l-1 1-1 1h-2l1-3 1-13 2-18v-1l-1-1v-2h4l1-1v-1h1l1-2v-2h-1v-2h3l5-1h2l1 1h1v1h2l1 1v2l-1 2h-2l-1 1h-1l1 1h1v4h-2v3h-2 1l1 1v1l-2 6-1 3 1 1 1-1v-3h2v-6l1-3 1-3 2 1h1v8h-2 1l1 1v2h-2v2l-1 1h-1v1l-2 2-2 2h2v1l-2 3-1 2v1l-1 1-1 1h-3v4h-2 1l1 1v4h-3v-1Zm144-51v-3l-1-1-1-1v-1h-5l-1 1h-5l-5 1h-17l1-2v-2l1-1 1-1v-2h2v-2h1l2-1 3-2 1 1h2l1-1v-2h1v-1h2l2-1v-3l1-1 2-1h3l5-2 5-3v-2l3-2 6-3h9v1h1v2h-2l-2 1v1h-4v-2l-2 1-1 2v2h-2v-1l-2 1-5 3-4 3h-3l-1 1-1 1v2h-4l-1 1-2 2-2 2v1h-2v2l-1 1h7v1l2-1h3l1 1h9v2h1v2h-1l1 1 1 1v6h-3v-2ZM56 138v-2h3v-1l2-1v-1h5v-1l1-1v-1h2v1h3v2h1v-1h2v2l1-2 1-1 1-1h1v-2h2l2-1h2v3l1-1 1-3 1-1h3v1l1 1v-2h6v-1h-2v-2l1-2-1-1v-1h-3v-2l2-1 1-1 1-1 1-1h3v4l1 1v2l-1 2v1h-1v1h1l1 1v2l-1 1-1 1v2l-1 1h-4l-3-1-1-1-2-1-1 1v1h-1v1l-2 2-1 1h-1v1l-1 1h-3v-3l-1 2-1 2v1h-4v-1l-1-1v-1l-1 1h-2v-2h-3v2l-1 1h1v2h-3v-1l-1-1h-3v1l-1 1h-2v-1Zm-28 10h-4v-1h-1l-3 1h-2v-2h1l2-1 2-1 1-1 1-3v-3l1-2 1-3v-1l1-2v-2h-1v3h-2v-3l1-1h-3v1h-3v-3 2l-1 1h-3v-2l-1 1h-1v-4h2v1h1l2-4 1-4 1-1 1-2h-2v-1h-2l-1-3v-4h2l1 1 1 2v3h2v-2h3v2h2v3h4-2v-3h-1v-4h2v1l1 1h1v-1l1-1h3l1 1v1-2h3v3-2l1-2h3v1h1v2l1 2-2 3-1 2-1 1v1h-1v2l-1 2h-1l-1-1v1h1v3h-2v2h-4l1 2v2h-3v1h2v3l-2 2-2 1v1l1 1h1v3h-1l-1 2v1h2l-1 2v2h-3v-1Zm54-50h-1l-1-2v-1h1l2-1v-1h-8l-1-1-1-1 1-2v-3l-1-1h-1v-3l1-1 1-2h-1v2h-3l-1-2-1-1-1 2-1 1h-2v-2h-2l-1 1v2h-3v-1l-1-1-1-1v-1l-1 1v2h-3v-3l2-2 2-2h2v2h-1v1l1-1h1v-2h2l1-1v-1h-4v-2l2-1 1-2 4-2c3-4 7-7 8-7v-1h1l2-1 2-2 2-2h4l1-1v-1h2v3l-1 1-1 1h-1v1l-3 2-4 3h-2v3l-2 2-2 1h-2v-1l-1 1-2 2h1v2h-1l-1 1-1 1v3h-1 7l2-1 2-1h4v2h1v2l1 1-1 1-1 1v2l-1 1h-1v4l1-1 1-1h3v1h5v2l-2 1-1 1h2v2h1v-2l1-1h2v-4h2v-2h1v-1l1-1h1v-1h3v-1l-1-1v-2l-1-3h3v3h2v2-1h2v4l-1 1h-4v4l-1 3h-1v1l1 1-1 1-1 1h-3v1h-3v-1l-1-1v4l-1 1-1 1h-1l-2-1Zm5-50v-1h1l1-1v-1h2l1-1v-1l1-1 1-1h-1l-3-2-3-1h-1l-1 1v1h-8l-1 1h-3v2l-1 1-5 3h-2v1h-2v-2h1v-1h2v-1l3-2 3-1h1v-2h1l1-1h1l3-1h5l2-1 2-1v-1h1l-1-1-1-1v-2h-3l-6-1h-4v-2l1-1h1v-2h7l1 1h1v2h3l7 2h1v1h1l1 1v5l1 3v1l1 1h2v4h-7l-1 2-2 1h-1l-3 1h-1v-1Z"/><path fill="#d9e0e2" d="m-107 355-5-20-12-39-8-9-24 38-2-47 27-87 33 11-1-5 2 4 7-8 6-7v-3l1 1 7-7 11-12 5-4v-1l-1-1-6-1h-7l-2-1h-3v-4l2-1 1-1h-2 2v-1l-4-2-3-2h3-1l3 2 4 2 4-1 3-1-2-1-3-1 1-1h1v1l18 4-2-4v-2l4-1 8 7 1 1v1l1-1-1-1 1-1 1-15 1-1 1-1h-1l-1 1v-2l2-17 1-1-1 1h-1l-3 8-4 7v1l-1 1-1 1h1l-1 3-1 3h1l1 1h1l-2 1-2 1 1-1h-1v1l-2-1-3-1-18-6h-1l-2 1-1 1-1 1 3 1 9 3 6 1v2h-3l1-1-1 1h-1l-1-1-4-1-8-2-5-2-4 1-5 1h-2v-2l4-1h3v-1l-2-1-2-1v-2h2l1 1h-1 1l3 1 2 1 2-1 2-1h-2v-2h3l2 1 2-1 2-2h1l1-1h2v-2h2v2h-1l-1 1v1h-2v1l-2 1-1 1 3 1 3 1h1l6 2 7 1h1l1-4 1-4 6-11 5-10h-2v-2l2-1h2l-1-1h-1v-2l3-2 2-1h4l5-1v3l-4 2-4 2h-1l-1 4-1 3v9l-1 5-1 3-1 3 1-1 1-2 1-1v-3l3-6 4-7v-1h1v-1l8-12 3-4 3-4v-2h2v-1h2v-1h-3l-3 2-3 2h-2v1h-2v-2h2v-1h-1l-7 3-10 4 6-3 6-3-4 2-11 6 2-1 1 1v2h-2l-1 1v1l-4 2-4 2h-1v1h-2l-1 1-15 10-28 10-1 1v3h-3v-1h-1l-2 3h1v4h-3l1 1h1-1l-1-1h2v-1h-1v-1l1-2v-1l1-2 2-3h-1l1-1 4-2 1-1h2v-3l-1-1v-1l3-1 2-1 8-3 8-2 1-1 20-10 22-10 6-3v-1h1l5-2 4-2h1v-1l6-3 8-4 1-1v1h1l-1-1 2-1 6-5 4-2-1-1h2l2-1 1-1v-1l1-1 1-3 1-4 2-3 2-3h1v-3l1-3h1v-1l1-1v-2 1l-1 1v-2l1-2v2l1-5 1-5v-2h1v6l2-2 1-1 3-2 13-6 4-1 1-1 2-1 1-1h-1l-8 1-7 1v-1l5-1c7-3 10-3 15-4l6-2 1-1 6-1 6-2v1h1l3-1 4-1V4h2l5-1 3-2h4v1l-1 1h-1l10-3h1v2h4l4-1h1l1-1 1 1h1v14h-2v-3l1-5h-1l1-3V1h-1l-2 1h-1v3h-3V3h1l1-1h-2l-2 1h-2v1l1-1h1l-2 1h-1l1-1h-3l-3 1h4-3l-2 1-2-1h-2l1 1h1-3v3l-4 1-9 2-6 1h-1v-1h-1l-8 2-4 2h-1l-1 1v1l6-1v2l-1 1h-1v-1h1-1l-1 1h-3l-3 1v-2h-2v1l1 1h-3v1-1h-2l-2 1-1 1-1 1v-1h1-2v2l-1-1v1l-1 1h-2v1l-1 1 1-1h1l-2 2-4 4-2 2v2h-1v1l-1 1h-1l1 1v1l-1 5-1 5v8h-2v-1h-4v-2 3h-1v1h-1v-1 1l1 3v2l1-1 1-1h-2l1-1h1v2h-1v1l-1 1v1h-3 1v-2h-1v1h1-1v2l-1-1h-1v3l-1-1v-1l-3 3-4 4-2 2h-1v2h-1v2l1-1 7-8-2 3-3 4-1 1v1h1l-1 1h2l1 2v2l-1 2v1h-2v2h-1l-2 1h-1v1h-1l-1 1-1 1-2 2-1 1H4v2l-3 3-4 5h-2l-1 1-1 1-2 3-2 5-1 1h1v1l-1 4h-1v3h-1v2h-1l-1 3-3 6-2 4h-2v-2l3-6 2-7-1 1v-1 2-1h-1l1 1-1 1-1 3h-1v2l-1 2-2 4-5 11h-3v-4l1-1v2-3h1l-1 1 1-1h1l1-5 1-4v-1h-1 2-1v-1h1v1l-1 3v1l1-1 1-1-1 1h1v-1l-1 1v-1l2-3c2-3 2-4 1-4v1h-2v-2h1l-1-1v-1l1 1v1-3l1 1v-3h1v-2h1v-1h-1 1l1-2h1v-2h3-1l-1-1v-3l1-1 1-1 4-6 1-1h1l1-3 1-2v-2h2v-1l1-1 1-1v-1h-1l-4 2h-1v-1l-1 1-6 10-4 7-3 7h-3v1h1v1l-2 7-3 7-1 1-1 1h1l-1 1-1 2v1h1v-1 1h2v2-1h-2l-2 1h1-1v1l-1 1v1h1-2v1h2-2v2l1 1h-1v-1l-1 1h1v1h-1v4l-1 5c0 3 0 3 1 1v-1 3h1v2h-2v6h-1l-1-1-1 1v1l-1 2v1-2l-1 1v6-1h1l-1 2-1 2v-4l-1 3v4h1l-1-1 1-1v-1h1l-1 2v2l1-2v-1h2l2-5 2-6v-1h2v1l1-1v-2h-2l1-2 1-4 1-3 1-1 4-8 4-8h3v1l-1 2-10 27-2 6h-3l1 1h1v3h-1v3l-1 1v3h-1v4h-2v3h2l2-5 2-3 1-1 2-6h2l-1 6-1 2-2 4-1 3h-2v2l1 2 1 3v3h-2v-3h-1l-1-1v1h-2v3h-1l1 1v1l-1 1v1h1v3l-1-1v-1 1h-1v-2l-2 3h-2v-3l2-6 1-19-4 17-2-13-1 10-1 1 1-1h1-1v1l1 4-1 3v4l1-1v1l1 3-5 9-1 1-1-1 1-1 1-9-1-14-3-2-8 21-1 3h1v15l1 3 1 3v8l11-13 1-8 1 4 3 15-11 17 1 2v-2h3v2h-3l1 2q0 2 7-3h3l-1 1v1-2l-1 1-28 24 11-47-1-3-2-16 1-2 1-6 1-4 3-9-9 1-6 7 2 11 6 14-3 5 4 3-4-1 1 1-16-1 1 7q2 10 11 28l-11 6-1-38-1-3h-5l-13 44 2 8 2-2 9-6-3 3-6 4-2 2v1l2-1 5-3 15-7-3 6-4 2-8 7-5 4v2l2-1 5-3-6 5h-1l1 3v4l-1-4-1-3-4 3-4 2-1 1-1-1 1-1 5-4 4-3-1-4-1-3-1-1v-1h1l-1-3c-2-10-6 36 1 59Zm27-140v-1l-1-7-2-20-6 7c-4 3-7 7-7 8l-1 1 1 3 10 16 6-7Zm8-11 15-24-1-8-2-8h-1l-1-1-6 7-11 11-3 5v1l3 25v1-1l7-8Z"/><path fill="#a73a24" d="M7 314v-6h2v-1H8v-2l1-2 1-2v-5h2v-1h3l3 1h1v-3l3-1h3v1h2-1l-1-1h1l5-1h4v-1h3v1h-5l3 1h2-2l-3 1-2 1-2 1-2 1h-2l-1 1v5-3h2v3h-3v7h-1l-1 1h1v3h-3v-6l1 1v1-5l1-1h-2v2h-1v2h-1l-2 3h-5v2H9v1l1 2-1 3v3H7v-7Z"/><path fill="#d9e0e2" d="M-49 264v-1h1l1-1v1h-1 1v-1h2v-1h2v-1l1-1v-3l2-1 1-3h1-2v-3h-1v2h-2v-2h1v-2h1v-1h2v-6h3-1l-1-1v-8h2v3h1v-3l-1-1h-2l1-3v-8 2l-2 3v1h-2v1h-2v2h-2v-3 1h1v-3h-1v-5h2v4l1 1v1l1-1 2-4 1-3v-3h2v7-2l1-4v-6l1-3v-1h1-1v-2l1-3h1l-1-1h1v-4l1-3v3-1l1-2v-1l-1-2h3v6h-2 3v6l-1 4v-1h-1v6l-1 3h3v2h-2v-2l-1 1v2h2v1l-2 6v2l-1 6-1 4h2v3h-2v2h1l1-1 1-2h1l1-1v-2h2l1-2 1-1h1v-2h2l1-1 1-1v-2l1-1 2-1v-2h2v-2l-2 1-1 1h-2v-2l4-2 6-5 1-1v-2h2v-1l1-1 3-3v-1h1v-1l2-2 1-1 3-3 2-3h2v1l-1 4H8v1l-1 1-2 2-1 2-2 2H1v1l-1 1-1 1 3-1 5-3 3-1v-1h2v2h-1v1l-1 1v1H8v1H6l-5 3-5 2-1 1-1 2h-1v2h-2v1h-1v2l-1 1v1h-2v2l-5 5-5 4h-1v1h-1v3l-2 1-1 1-1 1-1 1v1h-2 1v1l-1 2-2 2v1h1v-1h2v-1h1l3-2 3-2h1v-1h1l1-1 2-2 3-2v-2h3l3-3 5-4 2-2v-2h4v1h2v2l1-1h1v-1l-1-2h4v1h2v2l-2 1-2 1H5l-4 3H0h1v1H0l-4 3-4 3-1 1h-2v2l-2 1-2 1h-1v1h1v2l-1-1v3h-2v-2h-2l-1 1-2 1v1h-2v1h-1v1h-2v1h-2v-2l-1 1h-1v1h1v2h1v3h-1l-3 1h-1v-2l2-1h1l-1-1v-1h-1l-1 1v2l-1 3v2h-1l-5 2v2h-6v-1 1l-1 1v-2Z"/><path fill="#d9e0e2" d="M-26 259v-1h1v-1l1-1 1-1v-1h-1l-2 1h-3v-2h3v-1l3-1 2-1 1-1v-1h3v1h2l3-1h1v-1h3l4-1h4v-2l1-1h2v1l2-1 11-4 3-1 1-1 6-2 7-2h5l1 1h1v-1h2v3l-3 1-11 2h-1v-2 3h-3v-2l-1 1v1h-3v1h-2v2h-3v1h-2v1h-2v1H8l-4 1-2 1v1H0v-1h-1l-2 1-5 1-5 1h-3v1h-3v1l-1 1h-1v2l-1 2v1h-1v1h-3v-1Z"/><path fill="#a73a24" d="m-15 326-1-1-1-2-1-1 1-1h-1v-2l-2-1-1-1-1-3-2-4-1-1-1-1v-1l-1-3v-1h-2v1h-2l-1 1-2-3-1-2v1h-2v-2l-1-2v4h-1l-1 1-1-1v3h-1v1h-9l-2-2-2-5v-1h-1v-1h-1v-1l-2-3v-2l-1-1-1-3v-3l1-1v1h-2l-4-17v-2l-1-1v-2l-1-3v-1l-1-1-1-5-1-10v-2h-1v-5l1-3v-4h1v-2l1-1 1-1 2-1 17 9-1 9-1 6 1 8v3l-1 2-1 3h1v2l-3 6-2 6h2v3l-3 2 16 5h-1l3 1v2h-2 1v1h1v-1l1 1 1 1v3l-1 1-1 2 2-1 3-1h2v1l1 1h11l-1 2v2l1-1 1-1 3-1 2-1h5l10-1 4-1v1h1v3l-1 2-2 1-1 1-3 1h-1v7h-3v2h-1v2h-1l-1-1v-1 2l-1-1-1-1v-1l-1-1-1 1v7l-1 8v1h-1l-1-2Z"/><path fill="#d9e0e2" d="M87 273v-1h-3v-4h-2v-1l1-5 2-3v-9l2-6 6-31 1-6v-7 1h-1v4h-3l1-2v-2l1-2v-1l1-1 1-1h-1v-1h-5l-5-1-1-1v-2h2v-1h-5l-6-1v-2h2c7 0 15 1 22 3h4v1h1l3 2h3l2-1v1h1v-1l3-1 14-5h1v2l-4 1-5 2v1h1l4-1 7-2h1v2l-1 1-3 1-4 1-3 1v2l-3 1h-3l-3-1h-10v-3h-3v-1 2l-2 8-1 7-1 4v4l-1 3v3h-1v1l-1 1v1h2v6l-1 5-3 7v2h1v4h1l-1 3-2 9-1 4v8h-2v-2Z"/><path fill="#a73a24" d="M94 291v-4l-1-1h-1l-1 1-1 1h-1l-2-1h-2v-2h1l1-2v-1l1 1v-3l2-4 1-4h1l1-3 1-4h2v3l-1 3 1 1v1h3v-2l1-8 1-10 3-27 1-12 1-1h2v10l-1 9v6h-1v2l-1 9-2 4v5l1 1h1v1l-1 4-1 3 1 1v1h2v1l-4 9-1 3v2l1 1 2-4 1-4 1-2 3-6h2v4l-1 4-2 5h-1l-1 1 1 2v1l-1 1-2 1h-2l-2 1-1-1-1 1v1h-1v2h-3v-1Z"/><path fill="#d9e0e2" d="M137 183v-1l2-1 2-1h2v-2h1-1v-3h1v-1h1l3-3 3-3h2v3l-3 2-2 2h-1l-1 1v1l10-9 3-2v-2l1-2v-3l-3 3-2 3h-2v-2l2-3 2-3v-1h-2l-7-3-8-3v-1h6l4 1 4 2v-2h5v1-1h3l1 1v3h-2l1 1h2v-4l1-1h2v2l-1 2v1l2 1h1v3h-3l-2-1-2-1v8l-1 2-1 1-1 2-4 3-7 6-3 2v2l-2-1h-2v1l-1 1h-3v-1ZM83 91h-1v1-4h-1 1v1h-1v-1l-1-1v-1l2-1h1v-1l-1-1v-4h1l1-2v-1h-1l-2-1v-2h1l3 1 2 1v-1h1-2v-2l-1-1H74v-3h10l2 1 3 1 1 1 1 1v2h-1v2l1 1h1v1h1v2l1 1-1 1v1l-1 1-1 1 1-1h1l1-1 1-1v2l1-1v-2l1-2c2-2 2-3 1-3h-1v-1l-1 1-2-1h-1l-1-1v-3h1v-4h-1v-4l1-2h1v-2l1-3 2-3 1-1 1-1h4v-1l-1-2v-1h-1l-2 1h-2v3h-1v1l-1 4-2 3h-3v-2h-1v-4l-4 2-3 3v3l-2 2-6 4-4 2h3v2h-1l-5 1h-3l-1 1-1 1 1 1v-1l5-1 6-1h2v2h-4v2h-3l-4-1-2 1-2 1h-1v-1l-1 1-2 1 1 1h-3v-2l2-1 1-2h-1v-2l2-2 3-1 2-1 3-2v-1l3-2 2-1 1-2v-1c0 1 0 0 0 0l2-2h1v-1l3-2 3-2h-2v-3l4-1 4-1v1h1v-1h-1 4v-1l-1 1v-1h2l1-1 3-1 3-1v2l1-1v-2 1h-1v-1h3l1 2 2 2-1 3v3l1 1 1 2 1 1v10l-1 2-1 2-1 3-2 2-1 3-2 3v2l-1 2-2 1h-2l-1 1-2 2v1h-2l-2 1-2 1h-1l-2-1Zm72 33v-3l3-2c6-4 13-7 20-9l4-2 1-2v-2l-2-1h-2l-1-1v-3h1l1-1h-2v-3h1l-2-1-1-1v2h-5l-7-1-11-3-5-1-2-1-4-3-3-1-4-1-4-2-1-1h-1v-1h-1l-1 1h-1l-3-1h-2v-2h-1v-8h-1l-1-1v-1l1-4 1-3h1v-2h-1l-1-1v2l-1 2h-2V39h1v-7l1-8v-9l-1-1-1-1-2-1-2-1v-1h-2V8h2v1h1l2 1h1V9h3v1h1V9h-1V8h1V7h-1 2v5l1 5v1l-1 1v1h1v5h-1v12h-1v15l1 5 1 2h1v2h1v5l1 1v-7h2v3h-1v1l1 1v2l-1 1h-2v1l3 3 4 2h1l1 1-1-1 2 1h8l7 1 2 1h2l-1 1 8 2h1v1h-5 2l-2-1h-11 1l2 1v1h-8v-1h-1v1l2 1h1l1 1h1v-1h3v3h1v-2h3l16 1 2 1v-2h3v1h-2 1l1 1h4v3h-2l2 1 2 1v-5h1-1 5l1 1v3l1-1h2v2h2l1 1v2h1v2h1l1-1h-2v-1l1-4v-2h-2l1 1h1-3v-2l-2-1-3-1 2-1h10l1-1 1 2v1l-2 1-2 1v1h2v2l-1 1h-1v2h2v2h-1v7h-3v4l-1 1-2-1h-2l-1-1h1-2v4l-1 1-4 2-3 1h-1v2h-2l-1 1v-2l-11 5-1 1 1 1h1v2h-3v-3 1h-1v2h-4Z"/><path fill="#a73a24" d="m59 290 1-1h-1l-1 1v-1h-2l-1-1-3-3h-1v3h-3l-19 2h-4v-1h-1v-2h1v-1h2l4-1h1-4l-1-1-4-1h-5l2 1h2-4l-2-1v-1l1-1 1-1h1v-1h2v-1h-1 1v-2l1-1v-2h-1v-4l-1-1-1-1-1-1v-1h-1v2h-2l-2 1v-1h1v-1h-1l-3 1-3 1H3l-5-1-1-1-1-1v-1h-1l-3-2-2-1h-2v-1h-1v-2l2-2 1-1-1-2v-5l1 1v-3h-1v1-2 1h-1l-1-1v1l1 1h1v3l-1-1h-3v-1l1-2-1 1v1-1l-1-1h-1v-3h-1l-1 1-1 1-1-1-1-1h-1l-1-1 1 1v2l-1-1v-1 1h-1v-2h1v-2l-1-1-1-1v2l-1 1h-2v3h-3l1-2 2-2h1-1v-1l2-1 1-2-1 1h-1l-1 2-2 2h-1 1v1h-1v-6h1v-1l-1 1v-1l2-17v-11l1-4v1l1 2v-1l-1-3v-4l1-1-1-1v-1h-1l1 1v1h-2l1-2v-4 1l1 1-2-3v6l-1 2h-2v-6h-1v-3h-1v-2 2h-4v-1 2h-2v-3h3-1v1l1-1h1v-3h-1v-1 1h-2v-1l1-2v-2h1-1l-1-1v-2h2v2l1-3v-1h-2v-3l1-1h2v2l-1 1v1h2v3h-1v2-1h1v1h3l2-6 1-6v-1h1l3 1h1l1-1v-1l-1-1v-2l1-1h3l2 1v1h1v3h1l1-1h1-1v-3h3v3-2h3v-2h2v4h-1l-1 2v2l1-1h2l1 1 3-2 9-5h1v-2h1l3-1h1l-2-1v-5l1-1v-1l-1 1-1 1H5v-3h1l1-2v-1h2l1-1 1-1h2v2h3l1-1 1-1h2l2 1-1 1 1-1v-2h3v1h-1 2v-2 2h1v-4l1-1v-1h-2 1l1-1h-1l-1-1 1-1 1-2 1-1h1v-2l3-3 3-4 2-2 1-1 1-4 1-3 1-1v2l1-1 1-2 2-3-1-1v-1 1l-1 1v-1l1-2v-1h2v2h2l1-2 2-4 1-2h2l2 1 1 1v-1l1-1 1 1 1 1v-2h2v1h1l1 1v-1h2v2h6l1 1v1-2l3-1h14v-1h6l-1 1h1v1l-2 1h-2 3v2l-1 2-1 3h1v-1l1-1h2v4h2l-3 3h-1l-1 1h2v2h1v1h-1 2v2h1l-2 1v-1l1-1-1 1-1 2h2v1h1v2h-1l-2 1h2-1l-1 1h1l-1 1v1-1h1v1h-6l-1-1-1-1h-1l-3 3-3 3h-2 1v-2l-1 1h1-1v-1l-1-1-1 2-3 3v2h-3v-3h-4v-1l-1-1-2 2-2 2h-4l-1 1h-1l-1 2v1l1-1h3v1l1 2 1-1 2-1h2v2h-1v2l-1 1-1 1v1h-1v2h-1v2h-2l-1 1-2 1h1v2h1v1h1v1h1l2-1-1 1h-1 5l6-2h1v2h1l1 1h1l2-1 1 1c2 1 2 1 4-1l2-2 2-1 1-2 1-1h5c0 2 1 2 2 0l1-1h2v3l2-2 2-2h1l1-2 1-1h1l2-2 1-1h3v2l1 2 2 1h2v-4h7v-1l1-1h3v1l1-1 1 1-1 1h-1 2-1v2h-2l-2 1h-1l-1 1h11v1l1 2v1-1h3l1 1v5-3h2v-3h3v2l1 2-1 1 1 2h1v-4l2-1 2-1 1 1h1l-1-1h-1 2v3h-1v1h-1l1 1h1l1-1v-2h2v6l-1 1v1l1-1 1-1v-5h3v2l-1 1h2v1-1h2v2h-1l-1 1v-1 1l-1 1h-2v-2h-1v3h-1l-3 1-2 1-1-1v-1h-3v4l-1 1-1 1h1v3h-1v1h-3l1-1-1-1-6 3-9 4-3 1v3h-2v-1l-2 1-3 1h-2v1l-3 2-3 1h-2v2h-3v1h-3v2h1l-1 4v3h-2v-8h1v-1h-1v-5 3l-1 1h-2l-2 1v-1h-1v-1h1v-2h1v-1l-1-2 1-1 1-2v-1h-1v2h-2v3h-2v3h-1v2l-1 1h-4v-2h2-2l1-3 1-2h2v-1h1v-6l-1 2-1 1-2 1h-2v-1h-3l-2 2-2 2h-1v2l-1 1 1 1h-2 2v3h-1v5l1-1h1l-1-1 1-1 1-1-1 1-1 1v-2h1v-3h1l1-1h-1v-1h2v4l-1 1h-1 1l3-1h2v1h-1v1h1v2h-2v2l-1 1v3l-1 2-2-2-1-1 1 1 1 2 1 1-1 3-6 47-4 17v1l1-2 2-9 1-2h2v5l-1 5-1 3-3 5-1 2h1v1-1l2-2v-2h2l1-1v4l-2 3-3 4-2 2v1h-3v-1l-1-1-1 1v2l-1 1h-3Zm-27-32h2-2v-3h-1l-2-1h-1v-2l1-2v-1h2l-1-1h-1v-2l1-1 2-1 1-3 1-2h2v5c-2 2-2 2-1 3h1v-1h1v3h1v3-1h3v2h7l1-1h-2v-2h-2v-1l1-3 1-2 4-10v-1h1v-2l2-1h1v3l-1 1h-1v4l-2 7v3l-1 1h-1 2v3h3v-4l1-2 2-2h-2v-1l2-10 2-5v-2l1-1v-3l1-1v-3h1v-1l1-5v-8l-1-1h-1l-1 4v4l-1 3-1 5-1 2h-2v-2h-2c-2 0-2 1-4 7v3l-1 1-1 1-3 1h-1v-2l1-1h1-1v-6h1l1-1-1-5v-4l1-1v-2l1-2-1-1-1-1h-3v-3h1v-2h-1l-2 1h-6v-2l1-2 1-1h-2v-2h1v-1l1-1 1-2v-2h-1v-2l1-2 1-1v-1h2l1 1h1l-1-2v-2 3h-2v-3h1v-1h-2v-1h-1v-3h1l2-1 2-1v-3l1-2h-1v-4l1-4v-3l2-1 1-1h-2v-1l1-7 1-1h-1v-1l-1 1-1 2-1 1-2 1v3h-1v2h-3v-1 2l1 1v2h-1v5h-2v-1h-1v1h2v1l1 1-1 2v1h-3l1 1h-2v3l-2 2-3 2v-1h-1v-2l1-1v-1h1-1l1-3 2-2h2-3v-1h-1v-2l1-1v-1h1l1 1v-3h2l-1-1h-1v-1h1-1l-1 1v-2h-1l1 1v1l-1-1-1-1v1h-1l-1-1v1h1-4v2h-1v4h-1l-1 2-1 1h-7v-1H8l-1 1-1 2-1 1-1 2-5 7-1 3h-1l1 1-2 1-1 2v2l-1 2-1 2v2l-2 2-1 2 2-2 2-2h2l-1 3v3l-1 1 2-1v-2l1 1 1 1-1-1v-1h1l2 3v2l-1 2-2 1h1v1l-1 2v1l-1 1h-1 1-1c-2 2-2 2 0 1h1v2l1 1 2 1h1v2h1v-1h3l2-1H2v-1 1H1l-1-2v-2h2l1 1v2H2h3l1-1H4h1l1-1h1-2v-4l2-2 2-3h1v-2h2v-3h1l1 1v-2h1l1 1v-1h-1v-1l1 1h1v3h-1v3l1-1h1l1 1v-1 2h1v-2l-1-1h1l2-3 2-4 1-1-1 1 1-2 1-2-1-1h1v1l1-1 1-1v-3h4v-1h2v2h-2v1h2l-1 4v4l-1 1v9l-1 1v1l1 2h-2v2h-1v2h-2 1v1h-2v1h2l-1 1v1h-3 2-1v-3l1-2h-4l1 1v1l-1 1v2h-1 1v1h-1l1 1v1l-1-1 1 1v1l-1 2-1 2v1h-1l1 1h-1v1h-1v1l1 1h-1v1-1h1l-1 2v4h2v3h1l1 2v5l-1 1-1 1h3v3l1 3h1l1 2 2 2h1l3-1Z"/><path fill="#e2a648" d="M119 146v-2l1-2h2l-1-1 1-1h-2v-2l1-1h3v-3h3v-3l2-1 2-1 1-1 2-1h3v1-3l3-1 2-1h2v6h-2v1l-1 1h2l-3 1-3 2h-1 1v1h-2l-1-1v1h1l-1 1 1-1h1v1h3v1l-1 2v1h-1l-1-1v2-1h-1v1h-3v1l-1-1h-1l1-1h-1l-1 1v3h-3v1l-1-1v-1l-1-1v1l-1 1h1v2h-5Zm33-17v-2h1v-1h3v-2h-1v-2l1-1v-1l-1 1h-3v-2 5h-1v1h-3v-4h1v-3h2v-1h2l3-1 3-2 1-1 2 1h3l1-1h2l2-1v-2h2v-2h2v-1h2l1 2 1 1 2-1c2-1 2-1 0-1h-1v-2h2v-1h-1 2c2 0 2 0 2 2v1l-4 2-5 3 2-1h2-1v1l1-1v-1h-1 2l2-1 2-1v2h-2l-1 1v1l-2 1h-2v1h-2l1-1-1 1h-2v2h-2l-1 1-1 1h-1l-1 1-1 1h-2v2h-2l-1 2-1 1h-1l-1-1v2h-1v1h-2v1h-3Z"/><path fill="#a73a24" d="M-20 159v-2l1-2 9-18 3-5 1-1 1-1 2-3 4-7 4-6 4-5 3-6 2-3h2v5l1 8v1-1l1-3v-1h1v1l1-1 1-1v7l-3 6-3 6h-3l-1 3-1 3-1 2v3l-3 4-2 3v3l-3 2-3 1-2 1-4 3-7 4-3 2h-2v-2Z"/><path fill="#e2a648" d="M177 104v-2h2l-1-1-1-2v-2l1-1h1l-1-1-1-1h-1v1h-2l1-1v-1l-5-2h-1l3 1 3 2h-4 1v1h1v3h-4l-1-1v-2h1v-1h1v-1h-1l-1 1h1v1l-7-1-10-3-3-1h-2l-1-1-1-1h-2v-1h-1v-1h-1v-2l3 3 9 3-3-1-3-1-1-1h1v-1l-1 1v-1h-2l-2-2-1-1h8v2h1-1v-1h3v1h-1l1 1-1 1h-1 2l5 1h3l1 1h-1v1l2 1h1l1-1h1-1v-1h4l3 1-2-1v-1h-4v-2h1-1v-1h5l1-1-1 1v1l1-1v1h5l1 2v1h-3v1h2l1 1h2v2l-5-3-5-3h1v-1h-3l2 2 11 6v1l-1 1-1 1 2-1 1-1 1 1v3l1 1 1 1-1-1v-1h1v-1l-1 1h-1v-1h1l1-1h-1v-1l-1-1h-1v-1h1v1-1l1-1v-2l-1-2v5-1l-1-1v1l1 1h-2v-7l-1-1h-1 2v2l1-1v-1h1l3 1h1l2 2 2 2v4h-3 2v3h-1v1h-2v4h-1v1l-2 1h-2v-1h1-4l-1 1v-1Z"/><path fill="#a73a24" d="M-36 123v-4h1l-1-1v-1h1v-4l3-2 22-19v-1h1l1-1v1h-1l1 1v1-1h2v-1h-1v-2h2l-1-1 2-1 2-1-1-1v-2h2v2h3l-1 1H0v1l2-2 2-2-1 1H0v-3l3-2 3-3v3H5v2h2v1h1l1-2-1 1v-1h1v1h1l-1 1-1 2-1 1-2 3-3 4-1 2h1l3-4 2-3 1-1 1-1h1v1l1 1-2 2-2 3 1-2c2-3 1-2-1 0l-2 2h2l-1 1-1 1H4l-1 1-1 1v-1H1v1l1 1h1v-1h2v3l-1 1H2v-2l1-1-2 1-1 2h-4v1l-1 3-2 2v1h1-1v-1l-1 1v4h-4l-1 2-1 2-1-1v1l-1 1v1l-1 1h-6l-2 1v1l-1 1-2 1v-1h1l-1 1h-1l-3 2h-3l-1-1Z"/><path fill="#e2a648" d="M-36 184v-4l-1 1 1-2 1-3 1-2h-1v-2h-1l-1-1v-1l-1-2h2v-1l1-1v-1l-1 1v-1l1-2h-2v-4h1v-2h1v1h1l1-1c0 1 0 0 0 0l1-1h-1v-4h1l1-1h1v-3h1v-3h2l1-2v-1h1v-1l3-5 2-5h1l1-2 3-5 1-3v-2l1-1h-1v2-1h-4 1v1h-2 1l1 1h-4v-3l-1 1v1h-3v-1 2h-3v2h-2 1v-1l-1 1-2 1-1 1-2 1h-1v-1h-1l-4 2-4 1-1-1-1-1h4v-2h-1v1l-1-1h1l1-2 9-1 2 1-1 1 2-1 2-1h1l1-1v-1h-3l1 1-4 1 10-14s1 0 0 0l1-1h2v-1h1v-2h-1v1l-1 1v1h-1l-13 4-42 13-3-7 44-21v2h1v2h-3v2h-5v1h-2v2h-2l-1 1-1 1v1h-3l-1 1-1 1h-2v1h-1v1h-3v2l2-1h2l1-2 1-1h1l4-2h1v-1h2l1-1h2v1h2v-2h2v-1l1-1 1-1h3v1l-1 1 1-1 3-2v-1h2v-2h2v1l1 1 1-1h2v2l-1 1-1 1-2 1-1 1-2 1-1 1 9-2v-1h1v-1h1v-2h2v-2h1v-1h1v-2h1v-2h1v-1h-2v-2h3v-1h1l2-1h1v-1h-1l-4 2h-3l1-1 1-1h-1v1h-1v-1l-3 1-2 1h3v2h2v2h-1v2h-3v-3h2-1v-1l-2 2-4 1 1-1v-1 1h-3v1h-1l-2-1 3-2 3-1v-1h1v-1 1h1v-1l2-1h2l-1-1h2v-1h1l-1-1h1v1l2-1 2-1v-1 1h1v-1h1v-2 1l1 1v-2 1l1 1h-1l2-1 3-1 1-1h-1v-2l1 1 1 1v-1l-1-1 1 1 1-1h2v-2h1v-1 1l-1 1h1l1-1 1-1v1h2-1l-1-1h2v2H4l-3 3v1l1-1 1-1 1-1-2 2-2 2 3-2 3-3v1l-1 1h1v-1 2H5v1l2-1 2-1h1v1l-1 2H8h1v-1l-1 1-1-1 1 1v1h1-1v1l-1-1-1-1h1v1H5l-1 1 1-1h1v1H5l-2 1-1 1h1v-1H1l1 1v1l-1 1H0v1h1l1-1v1l-3 2-1 1-1 1-2 1 1-1v-1l-1 1h-1v1l-1 1v-1l-1 1-1 1v2l-1 2-2 2-2 3-2 3v-1h-1l2-2 2-2v-1l-2 3-2 2v2l-1 1 1-2 4-3 2-3h1l-3 6-1 1 1-2 1-1v-2l-1 2-1 3h1l-1 1h-1 1v1h-1 1v1l-1-1h-1l1 1v1l-1 1v2l1-2 2-2v-1l1-1v1h2v-1h1l2 1v-2l1-2 1-1-1 1v1-1l1-1h1v-1h-1l-1 1-1 1 1 1h-1l-1-1 1-2 3-4 1-2h2-1v1h1v-1 2l1-1 1-1v-2h1v-1l2-2-1 1 2-1 2-1-1 1-1 1H3v1l-1 1v1H1l1 1v1H1l-2 2v1h-1v2h-1v1l2-2 2-3 1-1v-1l3-3 2-3v-1 1h1v-1h1-2l1-1 1 1v-1l1-1-1 1H8v-1l-1 1v-1h2v-1l1-1v1l1-1v-1 1H9l1-1h2v-1h1l-1 1-1 2 1-1 1-1v1l1 1 1-2 1-1h-2l1-1 1-1h-1l-1 1v-1l1-1 1-1h3v2h-1l-1-1v3h1v-1h1v2l-1 1-1 1v1l-1 1h-1l-1 1h-1l-2 2-1 2v1l-1 1-1 1-1 2-1 2v3H5v1l-1 2-2 1H0l1-2v-2 1h-2v1l-2 3-1 2h-2v1l-2 3-4 7-2 5v3l-2 2-1 3v1h1l1-1 1-3 1-2h2v2l-2 4-3 5v1h-3v-2l-1 2-1 1-1 2-1 2v3l-2 3-2 3v3l-1 2-1 3-1 1h1l2-1h2-2v-1l1-3 1-2h2l1-1v-2h1v-2l1-1 1-1 8-14 1-2v-2l1-2 1-2h2l3-4 6-10v-3l2-3 3-4 3-5v-1h2l1-2 1-1h2v4l-1 1-1 1v-3l-2 4-7 11-4 6-4 7-2 3-1 1-1 1-3 5-9 17v1h-2v2l-1 2-1 3v-1h-2v1h1v3l-1 2h-1l-1 1h-1l1-1v-1l-1 1v1-1l-1-1h-1l-1 6-2 6v1l-1 1v1h1l-1 1-1-2v-1h-1v6h-2l1-2Z"/><path fill="#a73a24" d="m41 81-2-1h1s0-1 0 0h1l-1-1v-1l1-1v-2 1l-3 2-2 2v-2h-1v-2l1-2 2-1v-2h1v-3h1l1-1v-3h-1v-2l-1 2-1 1-1 1-2 1-1 1h-2l-1 1v1h-3l-4 4-3 3h-2l1-1 1-2 2-2 2-2v-2l1 1 1-1v-3l1 1h1l-1-1v-1l1 1v1l2-2 1-2v-1 1h-1l1-1v-1h2v-2l-1 1-1 1-1-1h-1v-1l1-1v-2 1-2l1-1 1-1-1 1v1l-1-1v-1l-1 1 1 1-2-1v-2l-1 1-1 1h-1v-2l1-1v1l1-1 1-1h1v-3l1-2 1-1-1 2-1 1 2-1 1-2v1h1l1-2 1-1v-1 1l-1 1v-1l1-1 1-2h-1v-1l1 1h1l1-1v-1h1v-1l1 1-1-1v-1h1v1l1-1h-1l1-1v-2l1-2h1l-1 2-1 1h1l1-1 1-2 2-2v2-1h1l-1-1-2-1h2v1l2-1h2l-1-1 1-1 1-1v1-1h3v2h1v-2h2l1 1c-1 2-1 2 1 1l2-1 1 1 2 1-1-1-1-1h2v2h-2v2l3 1h1l2-1 2-2h1l2-1 2-1h7l1 1v2h1l3 1h4l2 1 2 1 1 1-1 1v1l-2-1-2-1h-1l-2 1h1v1h1v1h1v-1l1 2v1h-1v-1h-3v1l1 1h4-1l-1 1h2v1l-3-1-4-1 1 1h-3v1h-7l-3 2-8 5-3 2v1c0 1 1 1 2-1v-1h2l1 1v2h3v2h-1l-1 1h-1v2h-2v3l-2 2-2 2h-2l-3 3-5 5-1 1h1l1-1v3h-1v1h-2l-2-1-1 2-1 1h1v3h-2v1h1-2l-1 1h-3Z"/><path fill="#e2a648" d="M31 81h-2v-1l-1-2 3-4 3-4 1-1 1-1-2 1-3 2-4 5-4 5-3-1-1-1v-3l1-1v1l3-3 10-9 3-3v1l-2 2-2 2v1l2-1 2-2-1 1-1 2 1-2 2-1 2-2 1-2h-2l1-1 2-1v1l-1 1 1-1h2v1l-1 1-1 2h1l2-2 2-2h2v-1 2l-1 2-1 1 1-1 4-3 2-2h1v1l-3 3-7 5-4 3 1 1-1 1-1 1v1l-2 2-4 6v1h-2v-1Z"/><path fill="#0e0c0b" d="m37 302 3-2 1-1h3l-1-1v-1h3v-1h4v-1h-1 2l2-1v-1h-9l-1-1h1l-3-1h-4l-1-1v1l-5 1-5 1v-1h-1v1l1 1h-1v1-2H-6l-5-1-12-1-15-1h-2 3l3-1 1 1-2-1-2-1h-1l1 1h1-5 1v-1l-2-1-2-1h2v1h1l1-1v1l1 1h4l1 1v-1h1-2l1-1h1-5v-1h1-2l1-1h2-3v1h-3l-1-1h-2l1 1h-3l-1-1h2l-4 1-2-2h2l-1-1v-1l2 1-1-1v-2l-2 1h-2v-1l1-1h-1l2-1 4-1h1-1l-1-1h1v-1l-1-2v-1 4-1l-1-1v1h-1v-3h1l1 1-1-1v-2h1v-2l-1 1-1 2v-3l-1-3 1-1v-1 1h-1v-2h1v1-1l1-3v-2l-1 2v2h-1v-1l1-1v-1l-1-2v-1l1-1h-1v1-4h2v-1 7l1-4v-4h-3v-1h1v-42h-1l1-1v-1h1v5-1l1-2v2h1v-3l1-1v-1h-1v3h-1v-8 1l-1 2v2-3l-1 1-2 2h-1v-1h1l2-1 1-2 1-4 1-4v-2l1-1v-2l-1-1 1 1 1 1v1h-1v1l-1 3v1l1-5h1l1-4v-3l-1 1 1 1v1h-1v1-3l1-2 1-3v-1 2l1 1v-2l1-4v-3 1h-1v4-4 6l-1-1v-4l-4 3 1 1h1-2v3h1-2v2l-1 1v-2l-1-1 1 1h1-1v-1h1v-2l-1 1v-1l1-1h1v-1l5-16 1-6v-2h-1l1-1 1-6-1 1h-1v-1l-1 1-58-4 8-12 57-32 7-5 4-2v1l1-1v-1l2-1 4-1v-1h1v1l1-1h1v-2h4v1-1l-1-1h1l1-1v1h1l1-1 2-1v-1 1h1v-1h1v1-1l1-1h1v-1h1v-1 1h1l1-1 1-1h1v-2l1 1h2v-1l1-1h1v1l2-1 1-1h1l-1-1-1 1-1 1 4-4 4-3v-1l1-1v1l-1 1h1l2-2v-1h1l3-1 3-2v-2 2h1v-1l1 1v-1l-1-1h2v-2 1l-1 1v-6h1v1-1l-1-1h1-1v-1l2-3v-1h-1 3v-2l1 1v-2 1h1v-3h-1l1-1 1-1v1l-1 1h1l1-1v1l-1 1h1l1-1v-1h-1v1c-1-1-1-1 1-2h1l-1-1v-1 1h1l1-1h1v-1h1v-1h1l1 1h-1v3l1-1h1l-1 1-3 1h-1 1l1-1v-2l-1 1-1 1-1 1-1 1h1l1-1v2h-3v1-1l-1 2v1h-1l-1 1h1-2v2l-1 2-1 2v1l1-1v2h-1v2l-1 3v7h-1v-1 2h-1v2h-1l1-1v-3l1-1h-1v-1l-1 1v2-1h1v1h-1v2l-1 2-1 1 1-1v-4h-1 1v-3h1v1-1h2v-2h-2v1h-3l-2 1v1l1-1v1h-2l-1 1-2 2v-1l-1 1-4 3-2 1 1 1h1l1-1h2v-1h-1 1l1 1-3 1-2 1-1 1H8l-1 1-2 1H3l-1 1-2 2v1-1l-1 1v1-1h-1v1l-2 1-2 1h-1v-1 1h1l-1 1h-2 1v-1l-1 1c-1 0-1 1 0 0v1l-1 1h2l2-2 1-1h1v1h-1l1-1 2-1h1v-1h1v1h-1 1l1-1 1-1v1l2-1 1-1 4-1 4-1-1 2h-1l-1 1-1 1h1l-1 2-1 1v1H7l1 1H6l-2 3-3 3H0h1v1l-1 1-1 1h1l-1 1h1v-1l2-2 2-2v-2l1-1v1l-1 1h1v-1h1l-1-1v-1 1h1v-1l9-12 1-2h2v2h-1v-1h1-1l-1 1 1 1v1h-1v-2 1l-1 1v1h-1v1h1-1v1l-1 2-1 1v-1h-1v1l1 1-1 1h-1l1-1h1-1l-2 2-3 4-2 2v1l-1 2v-1l-1 2-1 2v1l-1 1-1 2h1v-1 1l-3 5-1 2-1 1h-1v-1 1l-1 1h1l1-1-1 1-2 4-3 6-2 2h-1v1h1-2v1l1 1h-2 1v1l-1-1v1l1 1h-1v-1l-1 1v1h-1v1h1-1v1h-1v2h-1 1v1h-1v1h-1 1v1h-1v1h-1 1-1v1h1-1v1l1-1v-1h1v2h-1v2l-1 1v1l-3 2h-1 1v1h-1l-1 1-1 2h1-2l1 1h-1v1h1l-1 1-1 1 1-1v-1 1h-1v1h-1l1 1-2 3-1 3v1l-1 2v-1h1-1l-1 1v3l-1-1v4l-1-1v2h1v1l-1 2h1v3h-1v-1 3l-1 2h-1l1-1v-1l-1 1-1 3v1h-1v2l-1-1v4l1 1-1 1-1 1 1 1v2l-1-1v-2 12l1 12-1 7v2-3l-1-2v4h-1v-1 2h-1v-2 2l-1 2v2l1 1v1-3h1-1v-3 1h3v2l-1 8v7l-1 1-1 1h1v13l-1-1v1h1v5h-1l-1 1v1h-1v6l1-1v1h-1v2l1-1 1 3v2h1l12-2h1v1h-2l-1-1v2l2-1h1v1l-4 1-6 1h-1l-1-1h-1v1l-1-1v1h2l-2 1-2 1v2h-1l1 1 6 1 10 1 5 1h-5 7v-1h-1l6-1 10-3 5-1h4v1h1v-2h-1 3v1H1h1v1H1l-14 4h-1 4l5-1v1l-1 1h-1 1l1-1 1-1H6 5v2h4v-1H8l1-1v-1 2l2-1h2-4 8l2 1-1-1 5-1h5v1h6l-1 1v1h1-4l-4 1-1 1h-3 4v1h4l6-1 5-1h8l1-1h4l1 1h1v2h7-2l1-1h4l11-4 2-1v1l-1 1 3-2 2-2 1-1 2-3 1-1v1h1l1-1h-1v-1l1-1 1 1-1-1 1-1 1-3v-1h1v-1l1-5v-3h-2v-2h2c0 2 0 1 1-1v-1h-1v-4h-1v-2l-1 1v1-2l-1 1h-1l-1-1v-1 2h-1v-1l1-5 1-4v1h1l-1-1v-2h1v-1h-1l1-1 1-2v-1l-1-1 1 1v1-4h1v-1h-1l1-1c0-1 0 0 0 0l1 1v-3l-1 1v-1l1-1v-1h1l-1-1v-1h1v-2l-1 1v-1l1-1v1l1-3 1-4-1-1h1v-4l1-2v-5l1-4h1l-1-3v-3h2l1-1v7l-1 1v-2l1-1h-1v4l-1 6v1-1h1v1-1h2v1h1v2l-3 16-1 3v8-1h1v3h-2v3l-2 22v3h-2v2l1-1v1h-1v3l-1 3v-1h-1v2l-1 2-2 4h-1v1h1v-1l1-2 1-1v1h1l1-2 2-3v-2l1-3 1-3h3v1l-1 3-1 2-1 1v1h-1l-3 3-5 7v-3l-1-1v3h-1l1 1 1 1h-2l1 1v1l-1-1h-1v2h-1v1h-3v-1 2l-1 1-3 1h-1v-1h1l-1-1v-1l-1 1h-1l1 1v2h-1l-2 1h-2 2l-1 1h-2l-3 1h-2v2h-1l-2-1-1-1v1l-3 1h-2l1-1-1 1h-2v1-1l-1-1h-1l1-1h-1l-1 1h-1l1 1h-1l1 1h-3v-2 1l-1 1-3 1-4 1h-1l-1 1h-1 1Zm-66-156 6-12v-2 1h1l-1-1h2l-1-1h-1 2l-1-1 1-1v-2h1v-1h1l-1-1v-1l1 1 1 1-1-1v-1l1-1v2-1l1-3v-1h1v-3l1 1v-1h1v-2l1-1 1-2h-1 1l6-10 6-9v-2l1-1 6-6v-1H6h1v-1 1h1v-1H7h1v-1l1-1H7v1H5h1l-1 1v-1H4v1H2l1 1H2v-1l-2 1-1 1-1 1v-1h-1v2l-1-1v-1 2l-1 1-1-1v1l-1 2h-1l-37 20-34 16-5 3-2 2 37 11v1l17-1v-2l1-1h-2v2l-1-1 1-1-1 1v-2h2l-1 1 1-1v-1l1-1v2-1l1-3v-2 1l-1 2v1l-1-1v1h-1l1-2 4-9 1-3v-1h1l1-2v-2h1l-1-1 1-1 1-1h1l1-1 1-2 2-3 2-4v2l-2 3v1l1-1-1 1-1 2-1 1-1 3v1h-1l1 1 2-2 2-3v2l-2 1-1 1v3h-1l-3 9h-1v-2l1 1v-2h-1v1l-1 1 1 1h1l-1 2v1l-1 1-1-1v1l1 1-1 3-1 3h1-1v1l-1 1v1h2-1l-1 1h-1 2-1v2l-1 1v1h-1v1h1l-1 1v1l2-4Z"/><path fill="#0e2536" d="M-21 302h-1v-1l-1-2h1v-1h-3l-6-1h-1v-1h-2l-3 1-1 1h-1l-1-1v-2h1l1-2 1-1-1-1-2-2 7 1 16 1 8 1h34v1h-2v2l-1-1h-2v2c0 2 0 3-1 1h-1l-1 1v-2h-4v2l-2-1-2-1-4 1h-6l-7 1h-5l-3 1h-1l-1 1-1 1h-1v-1 1l1 1v1h-2v-1Z"/><path fill="#f3c010" d="m52 299-2-1v1h-3v-1l1-2-1 2v1h-3v-1h-4l-1-1h-1v-3h1l3 1 8 1h1l-1 1h-1 1l-1 1-1 1 2-1 1-1v-1h2v-1 2h2l-1-1h-1v-1h-1 1-1c-3 1-13-1-14-2l-1-1h-1 23v2l1-1h1v3-2l1-1h1-1v-1h1l2 1h2v1l1 1v-1h1l-1 1 1-1h1l-2-1h-2l1-1v-1h2l2-1h2v-1l7-3 1-1 5-4 4-4-1 4h-1v1l1 1h-1v-2l-1-1v3h-1l1 1 1 1h-2l1 1v1l-1-1-1-1v2l1 2-1 2-2 3-1 1h-6l-3-1-3-1v1l4 1 3 1h5l1-2 2-1 1-2 1-2 2 1 1 2v1l-1 3v1h-3v1h-9l-1 1h-4l-3-1h-7v-1 2l-1-1-1-2v2h1v1h-3l1-1v-1 1l-1 1h-3l1-1 1-1h-2l-1 1h-1 1v-1h-1v2h-1Z"/><path fill="#0e0c0b" d="M104 196h1v-1h-1v-1h1v-1 1h-1v-2h-2v-1h3v-1h-3l-1-1v-1l2 1h2v-1h-5 2l2-1 1 1h1v-1h4l3-2 2-1h4l1-1h-2l1-1 3-1 5-3v1-1h1l8-4 8-4v-1h1v-1l3-2 3-2v1l3-4 2-3v-3h1v-1h1-1v-2h1l1 1-1-2v-1h2v2h-1v4l-1-1v2h-1l1 1-1 1-1 1h-1l-1 2-2 3 1-1h3l1-1 1 1v-1h-1v-1h2v2l-1 2-2 1-2 2-2 1v-1l-3 3-2 2h-1v-1 3h-1v1l-1-1v-1 3h-1v1h-1l-1 1-1 1 1-1h1l-1 1-1 1v-1l-2 2-1 1h1l1-1-2 1-4 4-2 2v1l-1-1v2l-1-1h-1l1-2 1-1 1-1 2-1-3 1-1 1v-2l-2 1h-1l1 1h1-2v-1l-2 1-1 1h-3 1l-1 1h-2v-1 1h-1l1 1h-4l1 1h-1l-1 1-1-1v1h-1l-1 1h-1l1-1-1 1h-4l1 2-1-1h2v2h-3v-1ZM9 233v-2 2l-1 1v-3H7l-1 1 1-1v-1H6v1-2h1l1-1 1-3v-2l-1 1v-1h1v-1l1-3v-3H9v-2h1l1-3v-3 1h-1v-1h1v-2l-1-1h1v-1c-1 0 0 0 0 0l1-1h-1v-5l1 1 2 1v-1h-1l1-1v-1l-1 1v-2h-1v-1 1l-1 1v-4h1v1h1v-1l1-2-1-1-1 1v-4h1v1l1-1 1 1v-2l-1-1h-1l-1 1v-4l3-15v-1h2v2l-2 17 1-8 3-13 1-1v-7h-1l1-1v3h2v2l-1 1 1-1v-1h-1v3-1h-1v1h2v1l-1 1v-1 4h1v-2 1h-1v-2h2v1-1l-1-2h2l-1-1h1l-1-1v-1c1-2 1-2 2-1l1 1v-1l-1-1h-1 1l1-2v-5l1 1v1l1-2v-3l-1-1h1l1 1v-1h-1v-1h1v-2l1-4 1-3-1-1h1v-1l-1 1 1-1v-1l1 1v-2 1h1l-1 1-1 3v3l-1 1 1-1 1-1v1l-5 17v1h1v-3l1-3 1-3v-2l1 1v-3l2-4v-3h1v1l1-2 1-2v2l1-1v2l2-4 3-4v5-4l-1 1v2l1 2h-1v-2h-1l-5 12v2h-1v-1l-1 3-1 3-1 1 1-1 1-1h1l-1 1-1 2-1 1 1-1v-1l-1 1-1 2v4h-1v2-1l1-1v1l-1 1h-1v2h1v1l-1 4-1 3-1 1-1 1 1 1h-1v1h1v1-3l1-1v1-1h1v1l-1 1-1 2v1l1-2 1-1v1l-1 4-1 4 1-1 1-1 1-3 2-8 2-6h-1v-1l-1 1v-3l1-1v3-3h3l1-4 1-4h1v-2h2l-1 2v2l2-3 2-4 1-4 1-3h2v3h-1l1 1-1 2v4-2l1 2v2l1-1 1-1h2v4l1-1 4-5 3-3v-2h1l1-1h1l1 1v2-1h2v1h2l-1 1-1 1h1l1 2v1-3h2-1v1h1v-2l1 1h1l-1-1-1-1v1h-1v-1h2l1 1v4l-3 4-2 2-1 1h-1l-2 3-14 19-4 6v2l-2 3-2 3h-2l1 1v1l-1-1v1l-1 2v1l-1-1v2l1-1v2l-2 3-7 12-1 2-1 1-1-1h-1v1h1v1l-1 2-3 5-1 3-2 2-1 1v-2l1-1h1v-1h1l-1-1h-1v2h-1v2h-2l-1-2-1-1 1-4v-2l1 1v1h1l-1-1h3l-1-1h-1l-1 1 1-1v-1h2v-2h1v1l-1 3-1 3v2h1v-1h-1l1-1v-2h1l1-3 1-3 1-1v1l-1 1 1-1 1-2v-1h-1l1-1v-1h-2 1l1-1v-1h-1v1l-1 1h-1 1l1 1h-1l-1 1h-1 1v2-1h-1 1l-1 1h-1 2v-1 1l1 1-1 1h-2v-1h-1l1 1h-1v1h-1l1-1v-3l-1 1 1-1v-1l1 1v-1h-1l1-1h2l-1-1h-2v-1h1v-1h-1v2l-1 3v2l-1 3v1-1l-1-1 1-1v-3 1l-1 2v-2l-1 1-1 1v1l1-1h1l-1 1-2 4-1 2 1 1h-1v1l-1 2v2-1Z"/><path fill="#0e2536" d="m-25 286-2-1 3-1 2-1h-1l-2 1-2 1v1h-3l-5-1h-8l-5-1h-1v-1h1l1-1h-2v-3h1l1-1h-2v-2h2v-6h-1l1-1h-1l1-1v-1l-1-1v2-5h2l-1 1h-1 2v-1l-1-2h1v1-5h1v1-1l-1-1v-12h1v-1l-1 1v-2l1-1v-1l1-14v-2h1v-9h-1v-3l1 1v1l1-4 1-6v-4l1 1 1 1 1 1-1-1v-1l-1-1v-1l1-4v-6 1l-2 7v6h-1v5l-1 3v-11l-1-2 1 1v-7 2-3h1v1-4h4v1h1l-1-1h1v-1h1v-1h-1l1-1 1-2v2l1-1h1l1 1v1l-1 1v-1 1h-2v1h1v4h1v1l-1 1h2v2h-2l1 1 1 1v-4l1-1h-1l-1-1h1v-1l1-1v-1 5l1-1-1-1h1l1 2v1-1l1-1v2h-1l-1 1h1l1 1v-1h1v2h-1v2h-1v8l-1 5v3l1-1v-1 2h-1l1 1v2h-1v4l-1 11v1-1l1-1v1l-1 1-1 1h1v2l-1 2 1-1 1-1-1 1v2l1-1h1l1 1-1-1v-1h1v1h1v-2h-1 1l1-1h1l1 1 1 1v-1h1l1 1v2h-1v-1 1h1l1 1 1 1h-1v1h1v1l1-1 1-1h-1l-1 1 1-1 1-1-1-1h4l-1 1h-1v2h-1l1 1v1l1-2v-1h-1l3-2h1v1h-1l-1 1 1 1-1 1-1 1v2h1v-1 2h2-1v1l1-1v-2h1l1-2v-5h1v-2l1-1 2-3 2-1-1 1-1 1v-1l-1 1-2 2v-1l1-2 1-3 2-1 2-1v-1l1 1 1-1v-1h2v-1 1h3v1H3l1-1h2-1v2H4h3v1l-1 1-2-2-1-1-1 1H1l-1-1v1l-1 1h-1 3v1h-2l-1 1h-1 1l1-1v2h1v1l-1 1v-1h-2l-1 1h-1l-1 5-2 7v1h-1v2l-1 1h1v1l-1 1 1 1v2h-1v1h-2 1v1h-1v1l1 1h2l1 1 2 1 3 2v1l1 1 1 1 1-1v1h8l1-1h1l2-1h3v-1h5l-1 2v1h1l1-1v1h1l-1 3v2h3v2l-1 1-1 1v2h1-1l-4-1-3-1h-2v-1h-2l-8-1-6-1h-7l-9-1v-1l-1 1v-1h-1v1h-3v-1h-1l-1-1v1l-1 1v1l1-1v1h1l-2 1h-4l-1-1v-2h-1v2h1v1l-2 1-12 3h-1 4l-1-1h3l3-1h2l3-1h4l1 1h2l1 1h2v-1l-3-1h-3l3-1h5l4 1h1v-1h15l20 4h-7l-9 1-1 1h-5 2l-6 1-11 3-6 2h1-2Zm52-27-2-3h-1l-1 1v-2l-1-2h1v-1l-1-2-2-1-1-1h1l1-1v-3l-1-2v-1 1-2h-1v-1h1-1v1-1h1v-1h-2l-1 1h1v1h-2l1 1v1l-1-1-1-1h1v-1l1-4v-3l1-1 4-6 3-5 1 1-1-1v-2l-1 1v1-1l1-1h1l3-5 4-5 2-3c2-4 2-5 0-2l-5 7-3 5h-1l1-1 2-3 1-2v-1l2-2 1-2 1-2 1-1h2l1 1v-1l1-1-1 1h1v1l1-2 1-1v2l1-1h3l1 1h-1v1h1-2v2h-2l2 1 2 1h1v7h-1v10l-1 1v3l-1 1h2l1 1-2 1-1 1h1l2-1 1-2v-3h1v-2l1 1v-4l1-2 1-1v1h2l1-1h1v2h1l1-2v-5l1-2v-3l-1 1h-1v-1h1v-1h1v1l1-1v-3l1-1 1 1h1l1 2 1 1-1 2-1 1 1 1v1l-1 4v3l-1 1v2l1-1h1l-1 1v1h-2v4h-1v2l-1 2-1 4-2 8-1 1 2-1 1-1v3l-1 2-2 2-1 1h1l1 1h1l-1 1h-2v1h2l2-1v2h-3l-2 1-1-1h-3v1h-8l-2 2-3 2-1 1h-3l-4 1-1-1Z"/><path fill="#f3c010" d="M61 289h1v-2l-1 1h-1 1l1-1h1l1-1v-1l-1 1-1 1 1-2h2-1l1 2 2 1 1-2 1-1 2-3 3-5v-2l-2 3-2 4-1 1v-2l1-2 1-2 3-6 2-4 1-4 1-3v-6l1-12v-6h1v-2l-1-2 1-3v-3l-2 24v6l-1 4-1 5-1 3-5 9v-1c3-5 4-12 4-16v-1l-1 3c0 4-2 8-3 11l-1 2v-2l-1-3 1-2c4-13 6-27 7-41v-7 1h1v-5h1l-1-1v-1h1v-5h2-1v-6l1 1v8h1v-7l-1-2-1-1v-1l1-1 1-2h-1l1-1 1-1-1-2v-1h-1v3h-1l-1 1v-1h-2v-1l1-1h2v-1h-1v-1h4v2h1v-1h1l5 1h2l-1 1h1l1 1h-1v1l1 1v-1l1-1-1-1-1-1h2-1l-3-1h-1v-2h-1 7v1h-1 1l1-1h1l1 1v2h-2 1v1l-1-1h-2v8h1l-1-2v-1l1-1 1-1v1l-1 3v2h1v1-3h1v1l-2 7h-1v-1 2l-1-1v-2l1-1v1l1 1v-2l-1-1h2l-1-1-1-1v-1l-1 2v2-3l-1 1v3l-1-1 1 1v1l-1 4-1 4v-6l1-1-1-1v-1 3h-1v4l1 4v1l1-4 1-4v-2 1h1v6l-1 4-4 23v5l-1 1v10l-1 3-2 4v2h-2v-1h-1l1 1v1h2l1 1v1h1l-1-2-1-1 1-2 1-2v2l-1 1 1 1 1 3 1-1v-1h-1v1-2l1 1 1 1-1 4c0 4 0 4-2 6l-2 1 2-3 2-3h-1l-1-1v-1h-1v2c-1 0-2 1-2 3l-3 5-1 2h-1v1h-1v-1 1l-2 1h-2v1h-1v-1 1h-3l-5 1h-3 1Zm37-15v-1h-1v1l-1 1h-1v-1h1l-1-2h-1l1-2v-2h-1v-1l1 1v-2h-1l1-1v-2l1-9 1-2-1-2v-3l1-1v-4l1-8v-8l1-2v-2l1-2v-7h1v-2h1v-1h-1l1-1v-1l-1-1v-1h-1v2-1h-1l1-1 1-1h-1v-1 1h1v-7l-1 4-1 4v-3l1-1v-1l-1-1 1-1 1-1-1 1v-1h1v-2l-1-1h2l-1-1-1-1h-1v2-3 1h1v-1l1-1v-3h1v1l1 1h1l-1-1h1v1h-2v2-1h1v1h-2v1h1l2 1h-1 3l-1 1h-2l1 1h1-1v1l1-1-1-1 1 1h7l-2 1-1 1h-1l-2-1v9l-5 54-1 13-1 2h-1v-1Z"/><path fill="#0e2536" d="m-1 218 1-1h-3l-1-1-1-1v-3l1-1h1-2 1l1-2s0-1 0 0h-1l1-1v-2l1-1v-1l1-1v-1l-1-2v-1h-1l3-3 2-2-3 2-3 3v-1 1h-1v1l-1 1 2-1 1-1v1l-1 1-1 1h-1v-2l1-4v-1h-3v-6l1-1-1 1v-2l1 1v1-1l1-1h-2l1-1 4-4-1 2-1 1 2-2 1-1h-1v-1l1-3 2-3 2-2 2-4 4-4 1-1v1h1l1-1 1 1 1 1h2v4l-3 31-1 1h1l1-1-1-1v-1l1 1h1l-1 1-1 2h1-1v2h-1v-1h-1l1 1h-1l-1-1 1 1 1 1H8h1l-1 2-2 2v3H5h1l1-1h1l1-1v3l-1 1 1-1h1v2l-2 1-5 1H1v-1l1-1v-3H1v2h1l-1 2-1 1h-1Z"/><path fill="#e2a648" d="M121 69v-7l-1 2v2h-1v-1h-3V50h1v11l1-1V44v2l1 3V34h1v2l1-1v-4h2v-1h2v-7h2v2h2v2h1v-1h3v2h1v2h-2v-2h-4v-1 7h-3l1-2v-2h-1v2h-2v3h-2v3h2v8h-2v4h3v1h1v2h-1v2h-3v1h1l1 2v2h1v-2h2v5-2 2h-1l-1-1-1-1v3l-1-1v-1 6l1 1-1 1h-1v-1Z"/><path fill="#0e0c0b" d="m124 71-1-1h1v-1h-1 1v-3l-1-2v2l-1 2v1h-1v-8 1l-1 1v-3h1v-7h2v1-3h-2V41l-1-4v9-13l1-3h1-1l-1-1v-5h1v-5l-2-7v2-1h-1v-1l1-1 1 1h1l1 1V8h-2l-1-1 1 1-1 1h-1l1 1h-1l-3-1v1h1-1l-1 1h-1 1v-1h-1v1h-3v-1l-1 1h-2l-2 1h-2v2l-1 1h-6v-2h-1v3h-3v-1h-2v1h-3v-1h-1l-1 1-2 2-3 1h-1v1h-1l-1 1v1l-2 1-3 1-5 2-2 1-2 1h-1l-1-1v-1l1 1v1-3l-10 5-4 3 1-1v-1h2v-1l3-2 6-3 2-1h-2l-1 1 1-1 11-6v1l-1 1 1-1 1-1-1-1h-2l-2 2-3 1-2 2-2 1-3 1h-1v-1h1-2v2h-1v-1l-2-1 2-1 2-1v1h-2l1 1 1-1 3-1v-1 1h1v-2l1-1 2-1 2-1 2-1v-1h-1 5v-1l1 1v-1l1-1 5-1 9-2 9-2h5l1-1V5l1 1V5h2V4h6l3-1v1l1-1h4l1 1 1 1v2-1l1-1 1 1h2V5v11l2 2 7 11V19l1-1 1-1v2l-1 1v9l1 3 1 2v6-1l-1-1v1h-1v20l-1 1v-3l-1-4v-1l1 1v-7l-1-12v-2l-1-2-1-2-1-2h1v-1l-3-4-2-3-1 1 1 1v2l-1 1h1v3h1v-1 8-1 4l-1 1h1v-1l1 3v5l2 18v2h-1v1h-3v-2 1l1 1v-2h-1v-2h-1v-2 4h-1v3l1 1v-4l1-1-1 3v4l1-1v2c-1 2-1 2-2 1Z"/><path fill="#0e2536" d="m79 160-2-1-1 1h-2v-1h-1l-1-1v-1l-2 1h-3l-2 1h-1l1-1 3-4 2-2v-4l-1-1v1h-2 2-1l-1-1-1 1-1 1v1-1h-1v2h-1l-1 1 1-1h-1l-1 1h-1l1-1 2-3 1-1h-1v-1l1-1h1v-3h-1l-1 1-1 1v1l1 1h-1v-1l-1 1-2 1v-3l1 1 1-1v-2h-1v-1l1-1-2 1-2 1v1-1h-1l1 1v4l-1 1c-1 1-1 1-1-1l-1-2 1-1 1-2v-1l2-4 1-1h1l1-1h1v1h2l1-1 1-1 2-2 2-2 1 1-1 1-1 1h1l1-1v1l-1 1v1h1l1-1 1-1h1l-1 2v1l1 1h2v-2h1l-1-1h1l1-1h-1l2-2 3-2h1l-1 1-1 1v1l1 2h-1v-2l-1 1v1l1 1 1-1v-1h1l1-2 4-3 1-1h1l1 1h1v-1 1h-1l1 1h2v1h4l1-1 1-1h-1l-1-1v1h-1l-3-1v-1h-1 6l1-1-1 1-2 1h2l1-1 1-1-1-1h-1v-2h-1l1-1 1-1 1-1v-2l-1-1v-3h-1l1 1-1-1h-2v-4 1l-2 1-1 1-1-1v-1l2-4v-2h-4v-1h-2l1-1h-3l-1 1h-2v-1h-6v1l1 1c2 0 2 1 1 2h-1l-2-1h-4v-1l-1-1h-4v1l1 1-2-1-1-1v-2h-1l1-1v-3l-2 1-1 2-2 2v-3h-1l-1 1v1l-1 1h-1v-2l-1 1v1h-2v-2l-1 3-2 3-1 1v1h-2l-1-1h-1v-1l-1 1v2l-2 4-1 3-1 1v2h-1v2l-1 1-5 6-2 3-2 1 2-4 3-5 1-4 2-4v-1h-1v-5l-1 1-1 4-2 4-3 8-1 3v3h-1v2h-1l-1 3v2h2l1-2 1-2 1-1v1-1h1v1l-1 1h-1v1h-1v3l-1 2-1 2v-4h-1l-1 3v1h-1l1 1h-2v1l-1 1v-1l-1 1h-2v-1l-1 1-4 1h-1l-1-1v-1l-1 1h-1l-1 1H8v-1H6l-1 1H2v-3l3-4 3-4v-2l3-8 1-1h2l1-1v-2l3-5 2-4v-6l-1-1v-1h1-1l-1-1v2l1 2v2l-1 3v1h-2V99l-1 1v-1l1-1-1-1 7-6 8-8 2-3h1v3l1-1 3-2 2-1h1l1 1h4v-3l3-4 10-13 9-8h1v-3l-1-1-1 2-1 1h-1l-2-3 1-1h1v-1h1v-1l1 1v-1h1l5-3 2-1 1-1 1-1h5v-1h-1 2v1-1h2-1v1l1-1 1-1h-1 3l1-1 1 1h1v1l1-2v-2l-1-1h1l1 1 2 1-1-1v-1l-2-1h-1v1h-1l-1-1h1v-1h-1 1v-1l1 1h1l1-1h1l1 1v-2h-2l-1 1 1-1h-3v-1 1h-2l-2-1h-1l-4 1h-4l1-1h1-2v-1h6v1h1v-1l-1-1 1 1h1l-2-2h-5v-2h3l2-1h8l8-1v1h1l1 1v-3h2l2 1h1v1h1v6l-1 4v10l-1 1v3h-1l-1-2-1-2-1 1h-1l-1-2v-1l-1-4v-3l-1-2-2-1v2l1 1 1 1v1-2h-1l1-1v1h1v3h-1v1l-1 1 1-1v1h-2l1 1v1l-1 2-2 3v2-1h1v1h-2l-1 1 1-1-1-1h-1v3-1h-1v1h-2l-1 1h-4v1h2v-1l1 1h-1l-1 1h2l1-1 1 1 1 1v-1l-1-1 1 1v1l-1 1v-2h-2v1l-1-1h-1v1l1 1v-1 1h-1l-1-1-1 1-1 1v1l-1 1h-1v-1 1h-1l1 1-1 1h-1v1l1 1h-3l2-1 1-2h-1l-1 1-2 2h-1l-1 1v1l-2 1-2 2h2v1h-1v-1 3h-2 1v-2h-1 1v1-2l1-1-2 1-2 2h-1v3h-2l1-1v1h1l-1-1v-1l-1 1-1 1h1l-1 1h2l-1 1v1l1-1h1v-1h2-1v2h-1v1h1l-1 1-1-1h1l-1-1-1 2-2 1v1l-1 1h1l1 1v1h1l1-2v-1h2v-1h-1 2v1l1 1v1l1-1 1-2h1v-1l1 2c2 2 3 2 3 0l1-1v1h1l1 1 1-1v-1h1l1 1-1 1v1l-1-1-1 1v1h-1l1 1 2 1-2-1v1l-1-1h-1 1v1h-1v1h1l1 1 1 1h-1v3l-1 1 1 1 1 1h1l1-1-1 1v-1h1l3 1h1l1-1 1-1v5h-1l-1 1v1-1h-1l1 1h1-1 2v-1l1-1v1l-1 1h1l1-1v-1h-2l1-1h1v-1l1-1 1-1v-1h1-1v1h1v1l-1 1 1 1h1l1-1h2l1-1 1-1h-3v1l1-1 1-1v-2h1v1-2l1-1h-1l-1 1-1 1v-1l1-1h-1l-1 1-1 1h1l1-1v2h-1v-1l-1 1-1 1 1 1h-1l-1-1v-1h2l-1-1v1h-1l1-1h1v-3h1l1 1h2v-1h1l1-1 1-1-1 1-1 1h-1l1-2 1-1h2l-1 1h1v-2h-2v-1h1l2 2 1-2h-1 1v-1h2l1-1h1v2h1v-2 1h1l1-1h2v1-1h2l3-1h2v1h1v-1h-1 2l1-1 1 1h2-3 2v2h1v-2l1 1h1l-1-1h1v-1h4v-1h1l2 2 2 2v-1h6l1 1h4l4 1 2-1h1l1 1h-17l-1-1h-2l-2 1h3-1l-2 1v1l1-1 2-1h2v2h1-3 1l1 1h1l1-1v1h1l1 1h1l-1 1h-1l-4 1-8 1-5 1h-1l-1-1-1 1-1 1h-5v1l-1 1-3 1h-3v-1l-3 1-3 1v1h1v3h-4v2h1l-1 1-1 1h-4 6v-1h3v4h-1v1-1h1l1 1h2l1-1v-1h-1v-1l2-1 2-1h-2v-3h2v3l2-1 2-1h3v2l1-1h2v-1h2v1h1-1v4l-1-1-1-2v-1l-1 1v1h1v2h-1l-1-1v2l-1 3-2 3v1h1l1-1 1-1c1-2 1-2 2-1h1l1-1 1-2v-1l2-1 2-2h1l2 1v-1h1v-1l-1-1h7l1 1 1 1h3l1 1h-1v1h-2l-1-1h-1l1 2 1 1h2l2-1 2-1v1l2-1h1l8-2h3v1-2h9v3l3 1 2 1h-1v1h3v1h1l-1 2-1 1h-2v4h-1v-1l-1 1h-1v1h-1v-1l-1 1h-3l-2-1v1h-3l-2 1 2-1 1-1h-1l-3 1h-3v2h2l1-1v2l-2 1-2 1h-2l-1 2-1 1-3 1-17 10-5 3v1l-1 1 1-1h2l-1 1-1 1h1v-1 2l-1 1h-1l1 1h-1l-1 1v1l1-1h1l-1 1-1 1h-2l1 1v2l1 1h-5l-1-1-2-2v-3l-2 1-2 2-2 1v2l-1 1-5 4-3 2h-1v-2l1-1 1-2-1 1-2 2h-1l-1-2-1-1h-1l-1 1h-1l-1 1-1 1v2-1h-1v1l-2 1-1 1v1l-1 1h-2l-1-1Z"/><path fill="#0e2536" d="m161 156 1-1-1 1h-1l1-1v-1h-1v1-2h2v-1l-1-1h-1v1h-2v-1h-8l-1-1-1 1v-1h-3l-1-1h1l2-1h-17l3-1 3-1h1v1l1-1h-5l-2 1-3 1v1h10v1h-2 1v-1l-2 1h-2l-1 1v-1h-8l-1-1 1-2h4v-1l-1-1 1 1h3v-1h-1l-1 1 1-1-1-1h-1v-1h1l1 1v-1h1l-1 1 1 1v1h1v-1h-1l1-1h2l-1 1h-1 2l4-1h6-5v-1h-1l-1 1h-1l1-1h1-2v1h-5l1-1 2-1 1-1v1h1l-1 1 1-1 2-1h-1l1-1h1l-1-1h1v1h1v1l1-1 1-1h-1v-1h2l1-1 1-2v1-1h2l2-2 2-1 2-2 2-1h1v-1 1h1v-1l4-2 5-3 2-1h-1v-1l1 1 4-2 3-3h1l-7 2-2 1v-2h2l3-2 2-1v1l1-1 1-1h-1l1-1h1l1-1 1-1v2l1-2 1-1h2v2l1-1v-3h-1 1l1-1h1v-1h-1v-1l2-1h1v1h-1v1h-1l1-1h-1v1h4v2l-1 2-1 4v4l-1 2-1 2h-2v-1h-1l-1 1-1 1v-1 2h-1v2l-1 1h-3l-1-2v-1l-1 3v3h-1v1h1-1v1-1h-1l-1 1h-2 1-1v1h-1v-1l-1 1-1 1h-2v-1l-1-1h-1v3l-1 1h-3l-1-1h-1v4l-1-1-1 1v1l1 2v-1h1-1v-1h1v1l1-1 2-1h1l1 1 1 1v3l1-1 1-1 1-1h1l1 2 1 1v2l1 2 2 1h-4l1 1-1 1-1 1h-1v4-1h-1v-1l-1 1h1v1h-1l-1 1h-1v-1Z"/><path fill="#f3c010" d="M120 146h-1v-1l1-1h1-1 1l2-1v-2h-1l-1 1v-2h1l2-1h-2l-1 1v-2 1l1-1 1-1-1 1h-2v1-1l4-4 4-2v1-1h1v-1h1v1-1h1v-1h1v-1h1v1l1-1v-1 1l1-1 1-1-1 1v1l1-1 2-2h1l-1 1 1-1 1-1h-1l2-1h2-1l2-1 2-1 1-2 1-1h1l2 1v-2l1 1h1l-1-1v-1l1 1 1 1-1-1v-1l1 1v-2l3-1 4-1h2v1h1l1-1 1-1v1h1-1v1h1v-2h3v-3h3v-1 2l-1 1v-1h-1 1v1l-1 2h-1l-1-1v2l-2 1-2 1h-1v-1h-2v-1h1-1l1 1h1l-2 1-1 1h1l1-1h1l-3 2-5 4h1l2 1v1l-1 1-2 1h-4l1 1v1h-2l1-1-1 1h-1v1l-1-1h-1l-2 1-3 1-3 1-2 1-3 1-3 1h-1l4-2 5-4 1-1-2 2-12 6-2 1h2l1-1h1l1-1-1 1h6v-1l1 1 1 1h-3l-3-1v1l1 1h1l-1 1-2 2-2-1-1-1h-3v2l2 1 2 1-2-1-2-1 1-1 4 1h1l-1 2c-1 1-1 2-2 1l-1-1v1l-1 1-5 1Zm49-42-1-1h-4l1-2h1-9l-1 1h-3v1l1 1h-3v-1h-1l-4 1-2 1-1-1h-1l1-1-1-1h-4l-2-1-2-1h-2l-1 1-1-1v-1l-1 1v1-1l-1-1h-9l-3 2-2 1-1-1v-1l1-1h-1l-1-1h-1v-3l1-1 2-2 1-1v2l-1 1-1 1h1l1-3v-1h-2v-2h3l3-1h2v-1h-1 2-1 2l-1-1 1 1 2-1h2l4-1 6-1h3l2 1c5 4 9 5 20 7l7 2h6l-3-1h-3l-7-1-14-4-1-1 1 1 14 2 5 1 3 1 4 1h1-1l-3-2-2-1-10-1-9-2-3-1h-3l-1-1-1-1h2v1h2-1v1h2v-1l1-1 1 1h1l6 1 9 1h3l5 3 6 4 1 1-1 1v1c1-1 1 0 1 2l-1 2v-2 1l2 3h3v-2h-1l-1 1h-1l-1-1v-2h1v1l-1 1 1-1v-1l1 1h1v-1h1l1 1h-1v1l1 1h1v-1l-1-1v-2h1l1 1v-1h-3v-1h1-2l2-1h2v2l1-1h1v2l-2 2-2 2h-1v1h-2v-1l-1 1h-3v-1 1l-3 1h-5l-1-1Zm-202 77-1-2h-1v1h-1v-2l1-2 1-2h-1v-11l1 1v-1l1-2h-1v1-1l2-3-1 1v2h1v-2 1h1v-1l-1-1h1v-1h1v1l-1 2 3-3 3-5-3 4-2 4v-1l1-1v-1h-1v-1h2-1l-1-1h2v-1l-1-1 1 1 1-1v-1 1h-1l1-1 1-1h1v-1h-1v1-1h-1 1v-2l1 1h1l-1-1h-1l1-1 1-2h-1v-2l1-1v-1h1v-1h2-1l-1-1h2v-1h1-1l-1-1h2l3-3 2-4v-1h-1v1l1 1h-1v-1 1l-1 2-1 2-1-1h-1 1l1-1 1-2 1-3 1-2h-1l1-2 1-2h2-1l-1-1h2l-1-1h2-1l-1-1h2l-1-1 2-2 1-2v1l-2 2h1l2-3 1-2h-1l1-1 1-1v-1 1l-1 1 1-1v-1h1v-2h1v-2h1l1-1-2 4-1 3 3-5v-1h1l1-1 1-2 1-1v-1 2-1h1l-1-1 1-1 2-1H4v-1l-1 1-1 1 2-2 1-1H4l2-2 1-2v-1l1-1 1 1 1-2 1-1-1 1v-1H9l1 1H9l-1 1 3-2h1l2-3 3-3v4l-2 2-2 2v-1h-1 1l-2 1-3 3-2 1-1 2v1H4h1l2-2 2-2h1l1-1v-2 1l3-1 2-2 1-1 1-2v-3h-2l-2 2c-4 4-4 3 0-1l4-4 1-2h1v2l5-6-2 2-2 2 2-3 4-5v1l1-2 3-2h1l-2 2-2 3-1 1h-1v2l-3 3-2 2h1c0 1 1 1 4-4l4-5 6-4 2-1v-1 1h1l-1 1-1 3-1 1-1 1-3 4-3 3v1l1 1h1l1-2 5-5-2 3-3 3v1l3-4 3-3-1 2-2 2-1 2-3 4-2 3-6 6-7 6v2h-1l1-1v-1l-2 3-1 1v1h1-1l-1 2-2 2v-1l1 1-1-1 1-3 2-2-5 7 1-1h1l-1 1H8l-1 1-1 2v1l-1 2 3-5-1 1 1-1 1-1-1 3-1 2-2 3-2 4-2 2-1-1 1 1v1H0l-2 4-3 4-4 7-1 1s-1 0 0 0v1h-1v1h-1v1h1l-3 6-8 14v1l-1-1h-1v2l1-1v1l-1 2v2h-2v-1l-4 5-1 4v3-1h-1v1l1 1h-2v1c1 2 0 1 0 0Z"/><path fill="#daac98" d="M-28 195v-1 1h-1v-1l1-2v1l1 1-1-1v-2l1-2v-1h1v-1l-1-1h1v-2h1l-1-1v-2h-1l1-1v-3l-2 1-2 3-1 2-1-1 1 1v1h-1l1-4 2-5 1-3 1-4-1-1h1v3l1-1v-1h1v-2l1-2 1-1v3h1l-1 1-2 3v1-1l-1-1-3 6-2 7 2-3 3-3 1 2v2h-1v1l1-1h1l1-1v1h-1l2 2 2 1 2-3 1-4v-6h-1l-1-1-2 3-1 4h-1v-2l1-2-2 2-1 1h-2l1-1v-3 1l1 1v1h-1l2-1 1-1h1v2l1-2 1-2v-2l1-1v-4h-2l-1-1h-1l1-3 9-14-6 14v1l4-2 10-6 2-1 3-2 3-2H2v-1h1v1h1l2-1 3-2v4l-1-1v1l-1 1 1 1v1H6v1h1l1-1v2l1-1 1-1-1-1v-1h2v1-1l1 1 1 2-1 1-2 2 1 1v1l2 1h2l-2 2-1 1-1 1h-1l1-1v-1h-1l-2 1v2H7l-6 3-10 6 1-2 1-1-1 1-2 3-2 2v-1 2l-1-1v3l-1-1h-1l1-2 1-1v-3l1-2 2-5h1-2l-1-1v2l-1 2-2 1v-2l-1 1h-2l-1 1v1h2v1l1 1-1 3v3l-1 3-1 4h-1l-2-1-2-1-3 11v3l-1-1Z"/><path fill="#f3c010" d="m-35 112 2-4 6-11 15-7 1-1v1h3v-1l1-2 1-1-1-1h-2 2v-1l2-1h1l-2 2-1 1 1-1h2v-2l1-1 1-1h1s1 1 0 0l1-1v-1l-2 1v1-1l1-1 2-1v2l-1 2v1h1-3 1l-1 1v3h-1l-1-1h2-1v-1l-1 1h-1v-1 2h-1l-1 2-2 2c0-1 0 0 0 0l1 1v-1h1v-1h1-1l1 1h1v1h-1l-1-1-1 1v1l-1-1v1l1 1h-1v-2l-1-1v3h1-1l-1 1v-1 2l-1-1 1 1-1 1h-1v1h-1l1 1 1-1 2-2-1 1-1 1 1 1v1-1h-1l-2 3-2 2v-1l1-1h1l-1-1h-1l-1 2 5-10 2-2v-1h-1l-23 24h-1v-2Zm161-39-3-3v-1h1l1-1 1 1v-6 2l1-1h1v1-7 1h-1v-7 3l1 1v-1h1l-1-1v-4l-1 1V35v1l-1 1V23h2v1l1 2v1h1l1-1 1 2 1 1 1 1v8l-1-1h-2v1l1 2 1 4v3h-2v2h1l1 1v2h1v2h1v6l-1 2v3l-1 6v1l-1 1h-1v1l-1 1h-1l-3-2Zm-25 7v-6h1l1-1h1v-2h1l-1 1v1h1v-2l1-4 1-2v-9l1-2v-1h-2v2l-1-1v-3h1v-1h-2v-1h-1v-1h2v-1l-2-2-1-1 1-1v-1l1-1V31l1-4v-5h-1l1 1h-3l1-1c-1-1-1-2 2-1h3v1h-1l-1 1h2-1v1l1-1 4-1v-2h3v1h-1l-1-1v2h1-1v2l1-1v1h1l1 1h-1 2v1l1 2v2-1h-1l1 2v1l-1 1v1-1h1v4l-1 14v11h1V47l1 6 1 5 1-2v-2l1-1 1 1-1 2-1 4v1l-1 4-1 3 1 1 1 3v3-5h1v4l-1 1-1 1h1v1l-1 1h-2v-2h-1v2h-1l-3 1h-3v-2 2h-1l-2 1-1-1-1-1-1 1v2h-2l-1-1Z"/><path fill="#daac98" d="m116 33-1-5-1-3h-1l-1-1h-6l-1 1v-1h-2v1l-1-1-1-1v1l-1 1h-1l1-1h-1l-1-1h-2 1v-1h-3l-7 1h-4l-3 1h-2v1l-3 1-3 1h1-1l-1 1h-1 1v-1h-1l-2 1-2 1v1h-3l-1-1 1-1h1v-2h2v-1l1-1h2l2-1h1v-1h1v-1 1h1l1-1 2-1 1-1-3 1h-3 1-1v1h-1l-2 1v-1l2-1 2-1h1l2-2 2-1 1 1v-1h-3v-1h1l3-1 1 1v1-1h1v-2l1 1h4-1 2l2-1 1 1v-1h1v-1h-2l-7 2 3-1 7-2h1v1l-1-1v2h1l3-1h3l-1-1h2l1 1v-1l1-1h5V9h1l2 1h2-1l-1-1h1l1-1v1l1 4 1 1v-2l1 1 1 1v1l1 1h1v5l-1 7v2-1l-1-1v-2h-2l1 2 1 4v4l-1-3Z"/></svg>