<svg xmlns="http://www.w3.org/2000/svg" shape-rendering="geometricPrecision" text-rendering="geometricPrecision" viewBox="0 0 332 453"><path fill="#a73a24" d="m175.5 19.4 2.6 3.7 2 3 1.5.7c.9.4 1.7 1 2 1.5.1.5.9 1.4 1.6 2.3l1.3 1.5 3.1.5-.9.9-.8.8.6.1.5.1-.4.9-.4.9.5.2 2.1.7 1.6.6v-1l-.1-.7 1.3.2 1.3.3-.3 1.9-.4 1.9h.5c.2 0 .5-.3.6-.8l.5-1.9c0-.5.6-1.4 1-2 .4-.5.8-1.5 1-2l.1-1.2.8.2c.4 0 1.5.7 2.5 1.6a9 9 0 0 0 2.4 1.7l3.5 1 2.8 1 .7-1.9.7-2.4c0-.3.8-1.3 1.7-2.3l1.6-1.9 1.1 2.2c2 3.9 5 7.7 6 7.8l.7.2 1.8 3.1 1.7 3.3 2.7 1.2 2.5 1.1-.6.6-.6.6 1.3 2 1.4 2 1.6.3 1.7.3 1.2 2.9h.6c.2.2 1 1 1.6 1.9l1 1.4H239l.5 1 .5 1.1-1.1-.2-1-.2.6 1.7.7 1.6 1.8.7c1 .3 2 1 2.4 1.5l.7.8-.4.7-.4.8.7.6c.4.5 1.5 1 2.4 1.4l1.6.6 1.9 3.2 3 5.2 1.1 1.9-.2 1.4-.3 1.4 1 .8 1 .7-.2.9c0 .5 0 .9.3 1 .6 0 1.1 2 1.1 4.2V95l2.2.4 2.2.4-.3 1.4-.2 1.5h.4l.4.1-.4 2.4-.4 2.4 1 .2 1.2.2.2-1.2.2-1 .5 1.8.6 2 .2-1.1.2-1.2.6.2h.7l.2-1.3.3-1.6.9-.4a4 4 0 0 0 1.4-1.4l.5-1-.2 1.2-.2 1.2 1.2.2 1.3.3.4-1 .3-1 .4 4.5.5 4.6.5-.5.4-.4-.2 1.2-.2 1.3.7-1.4.7-1.3.1 1.5.2 1.5.3-1.4.2-1.4.3 1.2.3 1 3.4-3.3a36 36 0 0 0 4.1-4.7l.8-1.3 2.4.3 2.3.2.6 2.2a9 9 0 0 1 .5 3.3c-.2.7 0 1.3 0 1.3.3 0 .4.7.3 1.2a38 38 0 0 0-.3 8.6c.2 1.5.1 8.7-.3 14.6l-.2 3.2-3.4 19.1-3.4 19 1.6 3.1.8-.3 1.1 1.7q.6 1-.9 23l-1.6 8-.6 1-.6.9-1.2 4.9-1.2 4.8.8.1-.8 5-1.6 9-.7 4 1.2-.1c.5 0 1.2-.2 1.2-.4.2-.2 1-1.9 1.7-3.8l1.6-3.3.3.3.4.5 2-2 1.8-2 .9 1.9c1.1 2.6 1.5 4.2 1.2 5.8l-.3 1.5h.4c.2.1.6-.3.8-.7.3-.6.7-.9.8-.9l.4.1-.6 3.3-.6 3.4.2 2c0 1-.4 6.5-1 12.1l-1 10.3.3.7.4.6-1.2 5-1 5v1.2c.1.6 0 2.6-.3 4.5l-1.3 10c-1 7.5-1.5 9.8-5 24.6l-2.4 10.4-1.4 9.8c-.5 3.4-1 6.8-1.7 10.2-.3.4-1.8 7.2-5.8 27.3l-4.1 19.9-1.6 6c-2 7.6-3.8 15.2-5.5 22.8l-1.1 4.5h-.3l-.3-.1-1.4 5.6-1.3 5.7-.4-.1h-.4l-.5 2.3-.4 2.3-2 1.5c-1.2 1-2.5 2.2-3 3l-.9 1.1-1.2-1.8c-.7-1-1.2-2.2-1.3-2.8l-.2-1-.1.7c-.1.5-.5-.6-1-2.3l-.8-3.1-1.3.7-1.3.8v-.7l-.2-.5.4.1c.2 0-.3-.7-1.1-1.7l-1.5-1.6-1.7 2.2-1.6 2.3-.4-1.3-.4-1.2-.7 2.1c-.4 1.2-1 2.6-1.4 3.3l-.7 1.1-.5-1.7-.5-1.8-.3 1.3-.3 1.3v-4.5l-.5.5-.5.4-.3-3-.2-3-.6 1.6-.6 1.7.2-3.4.1-3.4-.4 2-.4 2.2h-.4l-.4-.1.1-2.2.2-2-1 1.1-.9 1.1-.2-.6v-.7l-.9 1-.8.8-.4 2.4-.4 2.3-.7-1.2-.7-1.3-1 1.7c-.5.9-1 2-1 2.3l-.2.8-.3-.7-.3-.6-.2 1-.2 1-1.2-.3a2.4 2.4 0 0 1-2-2.7c.2-.2.3-1.2.5-2l.3-1.5-.6.5-.5.5.3-1.5.3-1.6-1 .5c-.4.3-1.4.7-2.1.9-.7 0-1.5.5-1.7 1l-.4.8-1.6-.3-1.7-.4-1.1-3.1-1.2-3.3-.6.4-.7.4-.9-1.3a4 4 0 0 1-.8-2c.1-.3 0-1-.4-1.3l-.6-.7-1.3 3.3-1.3 3.4-.2-1.2-.3-1.1-1.5 1.6-1.6 1.7-.3-1.6-.2-1.5-.8-.1-.7-.1.7-.7.8-.7-2.3-1.7-2.1-1.7-.3-1.4-.2-1.3h.3c.3 0 0-.8-.4-1.7-.4-1-.9-1.9-1-1.8-.2 0-.3-1.6-.1-3.8l.1-4-.6 1.3-.6 1.1-.5-2.4-.5-2.5-.6 1.1-.5 1.2-.6-.8-.6-.7-.7 3.4-.6 3.3-1.4 3.5c-1.7 4-2.2 4.8-4 6.3l-1.6 1-.5 1.8c-.7 1.9-1.3 2.1-1.4.5l-.1-1-.6.4-.5.5.2-.7.1-.9-.7-.2-1.2-.5c-.2-.2-.6-.3-1-.3h-.5l-.3 1.6-.3 1.7-2.2 2.8-2.2 2.8v-2l-.9 1.3c-1.3 2-1.3 2-3.3-4-.2-.5-.5-1.1-.8-1.1l-.4-.1v-2.8a25 25 0 0 0-.7-4.5l-.6-2 .4-1.2.3-1.1-.4-1.4-.5-1.2.3-1.4.2-1.4-.5.5-.5.5-.3-2.6-.3-2.6-1 .5c-.6.3-1.2.9-1.4 1.3l-.3 1-.7-3.2a16 16 0 0 0-1.1-3.3h-.5l.2-1.5.3-1.4h-.4l-.5-.2v-10.1l-.6 1.2-.7 1.4.3-2 1-5.2.6-3.3-.7 1.9-.7 1.8v-1.5l.2-4.9c0-1.9.4-5.5.7-7.9l.5-4.4-1 1.5c-1 1.3-3.2 6.6-3.3 7.7 0 .3-1 1.8-2 3.4l-1.9 2.9-.7 2.3c-.4 1.3-1 2.6-1.3 2.9l-.5.5-.6 2.4-.6 2.5-.8 1.2-4.5 7.7-1.3 2.4-1.1.2-1.2.2-.3-1.1-.3-1.1-.4 1c-.3.7-.7 1.2-.9 1.2h-.4l.3-1.4.2-1.3h-1.6l.4-1.5.4-1.6h-1.5l-2.1 4c-1 2-2 3.8-3.2 5.6l-1.1 1.6-.3-.7-.4-.6-.2 1.4-.3 1.5-.9-.2-.8-.1.3-2 .4-1.8-.7-.1-.6-.1.1-3.2v-3l-.3.5-.4.5-.4-2.3-.4-2.4.5-1.5.6-1.4-.5-.1-.5-.1.4-.8.4-1-.2-.4-.3-.5 1-5.7 1.2-5.8-.5.4-.4.4.2-1 .2-1-.7.5-.6.6.6-1.6.6-1.5-.6.5-.6.6-.4-1.3-.3-1.1-.7 1.8-.6 1.8-1.5-1.7c-2-2.1-3.2-3-5.2-3.8l-1.5-.5-.7-1.8-.7-1.7-1.1-.2-1-.2 1.1-4.3 1.1-4.3-.4-.8-.4-.9 1-3.8 1-3.8h.5l.4.1 1-5.5.9-5.6.4-1 .5-1.2-.9-.5-.7-.5-.3 1.8-.3 1.8h-.4l-.3-.1-1.3 3.4c-.6 2-1.8 4.4-2.4 5.3l-1.3 2-.2 1.7a25 25 0 0 1-1 4l-1 2.4.3.6.4.7-.6.5-.6.6-.4 2-.3 1.7-1.2 1.7-1.1 1.6-1.6.4-1.4.4-.6 1.5c-.3 1-1 2-1.4 2.7l-.8 1.2v.8l.2.8-1.5.3-1.4.3-.3-.6a4 4 0 0 1 0-2l.2-1.4-.6.5-.5.5.2-1 .2-1 .5.1.6.1-.9-1.4-.9-1.4.4-2.6.3-2.6-.4-.1c-.2 0-.5.4-.6 1l-.2 1-.3-.7-.3-.7-.5 2.2-.5 2.8-.1.8-.7-.1-.6-.2-.3 1.5-.2 1.4h-.5l-.4-.2-.7 2.4-.7 2.3-.6-.1-.7-.2-.5 1.4-.5 1.4-.8-.2-.8-.1.3-2.2.4-2-.6 1.5-.4 1.7-1-.2-.7-.2.4-2.3.4-2.4-.5-2-.5-2.1.8-4.2.7-4.2-.5-.6-.6-.6-.2 1c-.2 1-3 6.4-3.6 6.8-.2.1-.5.9-.6 1.6l-.3 1.4-.6-.2c-.3 0-.7-.7-.8-1.5l-.3-1.4-1.5-.2-1.5-.2-.4-1.3-.5-1.4.5-2.5.4-2.5-1 1.7-1 1.8.2-.9.1-.8L59 364a19 19 0 0 0-2 3.7l-1 2.1-.3-.5-.2-.6-1 2.1-.8 2.1-1.2-.4-1.5-.6-.3-.2.5-2.8.5-2.7-.4-.6-.5-.5.2-4.6c.2-2.6.2-6 .2-7.7l-.2-3 3.3-17.6 5-27 2.2-11.2.2-1.6-.8-.2-.9-.1-.7 1.5-.7 1.5-.5-2.4c-.2-1.4-.3-3.1-.2-3.8l.2-1.2-.6.6c-.4.3-1.6.5-2.7.4l-2-.2-.3-1.2-.3-1.2.5-4.5.5-4.5-.3-.6c.2-2.4.1-4.7-.2-7.1l-.4-3.8.3-2.8.5-4.2.2-1.1h-.4l-.5-.2-.2 1.3-.2 1.2-1.1 1.2-1.2 1.2-.8 4.3-1.1 5.9-.4 1.7-.6-.2H46v1.1l-.3 1.4-1 .4-.8.4-.8 2.7c-.4 1.6-1.6 4.8-2.5 7.2l-1.7 4.3-1.2.8-1.2.9-.7-3-.7-2.8.3-1.4.3-1.5H35l-.4-.1.3-1.5.2-1.4h-.4l-.5-.1-2.2 4.4a25 25 0 0 1-2.6 4.5c-.1 0-.7 1-1.2 2.2l-1 2.3-.6-.1-.6-.2-.3 1.5-.3 1.4-.8-.2-1-.1.4-1.7c.2-1 .2-2.7 0-3.9l-.2-2 .7-7c.5-4 .9-8.2.8-9.4l-.1-2 .7-2.3.7-2.4-.4-.4-.5-.6.8-3.9 1.8-8.2 1-4.2c.2 0 2.2-10.3 4.6-23 2.5-13.5 5.2-27 8-40.4.8-3.7 5-15.7 5.7-15.5.2 0 .7-1.2 1.1-2.7l.8-2.6L51 163c.8-1 1.5-2.3 1.6-2.8.1-.6 1-2.2 2-3.7l1.9-2.6-.2 1.2-.2 1 1-.9 1-.8.8-2c.3-1.2 1-2.8 1.6-3.7l1-1.5v1.1l.2 1.1.7-2.3.8-2.4 1-.4 1-.4.1-1 .2-1.1.2.6.1.7.8-1 .8-.9-.2 1-.2 1.1.7.2h.8l1.1-1.8 1.2-1.9.4-1.8.3-1.7.8.2.8.1.4-2.4.5-2.3 1.8-2.4 1.9-2.3.5-3.7.7-3.6 1.3-1.3 3-3.9 1.6-2.4.3-3c.1-1.8.5-4 .7-5l.5-1.5h.4c.2 0 1.3-.7 2.4-1.8l1.9-1.8.5-3.5.5-3.5 1.2-1.4c.7-.8 2-2 3-2.7l1.8-1.3.8-3.3c.5-1.8 1.1-3.8 1.4-4.3l.5-1.1 1.5-.3c.9-.2 2-.8 2.5-1.4l1-1 .6-2.8.6-2.8.7-1 .7-1 1.8-.4 1.7-.4 1-2.6.9-2.5 2-.3 2-.3.3-1.4c.2-.7.6-1.8 1-2.5l1-1.1 1.2-.2c.8 0 1.5-.3 1.7-.7.2-.2 1.2-.6 2.3-.8l2-.2 3.5-2.4 3.4-2.4 1.3.4 1.3.4 1.2-1.8 1.2-1.8.7-3 .7-3 1-.8.9-.8 1.7.2c2.4.1 6.4-1 7.1-2l.6-1 2 .4 2 .4L158 35l2-2.1.2.8c0 .5.5 1 1 1.3l.6.5 1.5-.8 1.4-1 .1-1 .1-.9 1.6-1.4 1.6-1.3 1.6-3.2c.8-1.7 2.1-4 2.9-5.3l1.3-2.3h.6c.3.2.8.6 1 1Z"/><path fill="#f3c010" d="m90.2 271.3-.7-.2-.8-.3-1.5-4.3-1.5-4.4.3-.8.3-1 7-2.6c3.7-1.6 9-3.4 11.7-4.2l4.8-1.3 8-.4 6.6-1.9-1.2-1.1-6.7.4-6.8.4-5.2 1.4-5.3 1.4-7.7 3.2-7.7 3.1v-1.8l-1.2-.7-1.3-.7-1.2-3c-1.4-3.9-1.4-3.8-2.4-2.9l-1 .9c-4.5-4.1-7.1-6.7-8-7.6a13.2 13.2 0 0 0-3-2.4h-1.5l-1-1.8-1-2-1.2-.4-1.3-.3-.8-1.7-1-1.6h-.7c-.4 0-1.6-.7-2.6-1.6-1-1-1.8-1.7-2-1.7-.1 0-.8-.5-1.4-1.1-2.5-2.3-4.1-3.5-5-3.5-.8 0-2.6-1.7-3.6-3.7-.6-1.2-1.1-4.3-1.8-11.3l-.4-3.6 1-.9 1-.8 3.2 1.8 3 1.9h2.6l2.5.2 2 2c1.3 1.1 2.5 2 2.9 2 .2 0 1.2.7 2.2 1.6a27 27 0 0 0 7.2 5.6h.8v1.2l5 3.9 5 4 1-2.6H78v-.6c0-.6-4-3.4-5-3.6-1.8-.3-6.2-7-6.2-9.5v-1.2l.8-.7.9-.7 14 5.4-1 1.8c-.6 1-.8 1.9-.7 1.9l3.6-5.3c1 .7 2.2 1.7 2.6 2.2l.8 1 1.2-.4 1-.3-1.6 1.2 5.4 5.2c5.6 5.2 11.4 10.3 17.2 15.3 15 12.8 14.2 12 14.2 11.6l-12.5-11-12.5-10.6.2-1a3 3 0 0 1 1.2-1.6l1-.7 5.4 3.5c2.9 1.8 5.3 3.5 5.3 3.7a8 8 0 0 1-1.1 2.1l-1.1 1.7 2-2.2 1.8-2 9 3.6c3.9 4.5 4.2 5.8 1 3.7-10-6.6-10.2-6.9-10.2-6.4a182 182 0 0 0 10 7l2 10.7 16 2.9 2.8.5.5-.6v-.5l-.5.3-1 .5.6-.7.5-.8.5.3.8-1-1.1-.3-2.3-6.9 3.8 5.8.7-.5v.2l1.1-1.4v-.2a8 8 0 0 1-.8-2.9l3 .7.7-.8a19 19 0 0 1 4-3.6s.3 0 .4-.3l.2-.3-.4-1.4-.6.9-.6.8-.3-.3a2 2 0 0 1-1-1.1v-.3l.5-.1.4-.1v-.4h.6v-.4l.4.2.2-.6h.2c.3.1 1.8-.8 2.5-1.4l.8-.5.3-.1c0-.1.3-.3.7-.4l.7-.3h1.6l-.8-.4h.3l.6.3.3.2v-.2l.3-.3h.2v.2l-.2.2h.2l.4-.3.3-.3h-.3l-.3-.2h.6l.6.2.3-.3.2-.4.5.3.4.2v-.2l.2.2.2.3.4-.5c.5-.6.5-.8 0-1.3l-.4-.4h.2l.8.5.5.4-.2-.4-.3-.5-.5-.2-.5-.3-.1.3-.1.2h-.3c-.2 0-.3 0-.4-.2l-.2-.2h.4l.3.2v-.2s-.1-.2-.3-.2h-.3l.3-.6.5.2.4.3.3-.3.3-.2.5.1.5.2-.2-.3v-.3H167l.2-.2v-.2l-.4.2-.4.1-.2-.2-.2-.3v.5h-.8v-.2l-.8-.3-.7-.1v.1l.2.2H160l.5-.1.5-.2h-1l.2-.2v-.1h2.7v.1l.2-.1.2-.2-.1-.2-.2-.2.4.1.3.1c0-.2-.5-.8-.7-.8l-.5-.1h-2.1v-.6l1.3-.4 1.3-.3 3.5-.1 3.6-.2v.2l.6.4.5.1v-1h1.6l.7.2-.2.2v3.2l-.1 1.4-.3 1.5v3.3l-.2.2h-.2v.9l.2.7-.3-.3a3 3 0 0 1-.7-.8l-.3-.6-1 .2-.6-1.4-.2-1.6-.1-1.6-1.2-1.2v1.2l.5.7v.3-.9l-.1-.1h-.3l.4-.2.3-.2v.2l-.2.2h.4v1.8l-.3-.1h-.2v.8-.3l.4-.3-.2.6h-.5l-.4-.1v.2l.3.3.3.1-.1.5-.5.9-.7 1.3-.3.8v.1-.1h-.1l-.4.3-.2.2v-.3l.2-.3-.3-.2h-.3v1.2l-.4-.2-.4-.3v.6h-.3l-.4-.2-.2.3-.3.4h-1.6v.4h.6v-.4l.3.1.4.1-.8.6.7-.1.7-.2.6.8-.1-.4-.2-.4.3.2.2.3-.2.3-.3.3h-.1l-.1-.4v-.3h-.4l-.4-.1v.7l-.1-.2-.1-.3h-.8v.2l.2.3.2.2v-.5l.3.2-.2.2-.1.3-.3-.3-.3-.2-.6.5-.6.4v.3l.2.2-.3.3-.3.2-.2-.2-.1-.2h-.2l-.2.2v.2l.3.2-.4.4-.3.4v.5h-.5l-.5.1.6-.6.7-.6-.2-.1-.1-.2-.3.4-.5.3c-.1 0-.5.3-.8.7-.3.3-.5.5-.4.3l.2-.3-.4.4c-.5.5-.6.7-.2.4l-.7.8-.6.5.4.1 2.2.7h4.6l1.3.7 1.2.7v1.6c0 .7-1 5.2-2.2 9.5v.2l-.2.6h.2l.3-.2.3-.3-.2.4-.3.3.2.1v.2l.4-.4.3-.5v-.2h-.7v-.2l.2-.2h.7l-.1-.2-.1-.1.4-.5.5-.7s0-.2.2-.3l.2-.2-.2.3-.1.3h.4l-.2 1 .2.4.5-.3.4-.3h.5l.5.1.3-.4.4-.3h-1.2l.9-.9v-.6l.6.2v-.2l-.2-.2.2-.3.3-.3-.2-.1v-.2l-.6.5-.4.4-.2-.1-.1-.1.3-.3.4-.3h-.5l-.5.4-.4.4v-.1l-.2-.4c-.3-.3-.2-.5.2-.6l.4-.1.5.2.6.2.2-.4h.3l.2.1.5-.5.6-.5-.6.3a2 2 0 0 1-.6.4h-.2l.5-.6.4-.7h.6l-.2.3-.1.3.5-.5-.2-.4-.3-.3-.4.2v-.6l.6.4.5.5v.2l.2-.2.4-.5.2-.4-.2.1-.3.2.2-.3v-.2h1l.2-.2.5-.2h.3v.8h.4v-.4l-.2-.4.8.2.5-.2.6-.3v.3l.4.3v-.5h.8c.4 0 1-.1 1.3-.3l.6-.2v.2c0 .2.3.3.4.3h.2l-.2-.3-.1-.2.4.1.5.1v-.2l.2-.1h1.3l-.5.2-.5.1h.9v.7h.5v-.6h.5l-.2-.1.3-.3.2-.3h1.4v-.2l.6-.2h.2l1 .9.8.8v-.2l.2-.2h2.4l.2.2.2.3 2 .2h2l.6-.1.6-.2.2.4h-.5c-.8.2-4 .2-5.6 0h-1.4l-.3-.2-.2-.2-1.6.4h1l-.4.2-.5.2v.5l.3-.2c0-.1.5-.3.8-.3l.7-.2.2.2.2.5v.4l-.5-.2h-.6l.5.1.6.3.3-.1.4-.1v.4l.3-.1.2-.1.4.3.4.2-.2.3-.1.2h-.6c-.3 0-1 0-1.6.2l-3.6.6-2.5.4h-.3l-.4-.2-1 .9H177l-.3.4-.3.3-1.3.3-1.4.3v-.3l-.1-.2-1.2.4-1.4.4h-.3v.2c0 .1 0 .3.3.3l.3.2v1.4h-1.6l-.1.2-.1.4h.3l.4.1-.6.4-.6.3-2 .4h2.5l.6-.6h1.2v1.5l-.5.6.3-.1.2-.2.4.3.3.3.7-.3.7-.2v-.4l-.4-.2h-.5v-.6l2-.8h-.4l-.5-.1v-1h1v1l1-.4.8-.4h1v.7h.7l.8-.3v-.2h1l.3.4h-.4v.8l.2.7-.4-.4-.5-.8v-.2l-.3.2-.3.3h.2l.3.2v.8l-.4-.1-.5-.1v.9l-.5 1-.8 1.5v.3h.9l.4-.8c.5-1 .6-1 1-.5l.4.3.4-.5.4-1v-.3l1-.8.9-.7 1.2.2.6-.4-.2-.6 1.5-.1 1.6-.2.4.5.4.4h1.4v.2l.3.3h-.2l-.3.2v.1l.2.2H188v-.2l-.2-.3-.3.3.3.6.4.6.5-.1h.6l.7-.5.7-.4.4.4.7-.1.7-.2c.2-.3 2.4-.9 3.5-1l1-.1.2.3v-.5h.6c.2-.2 1-.2 2-.2h1.4v1.4h.4l1.2.4.7.4-.2.1h-.3l.2.3v.3l.7-.1h.6l.2.3.3.4-1 1h-.7v1.6l-.3.3-.3.2v-.5l-.3.3-.3.2v-.1l-.2-.2v.5h-.7l.2-.2v-.3l-.2.2-.3.3h-1.2l-1.1-.1v.1l.2.2h-1.5l-.7.2 1.2-.6h-.5l-2.5.5-.4.8.2.1s.4 0 .7-.3l.6-.3v1l-1 .4-.8.5h-1l-.4.6-.6.6-1 .6c-2.8 1.4-5.4 3-8 4.6l-2 1-.3.5-.2.5.5-.1.6-.1-.7.7.3-.1.3-.2v.2l-.3.5-.2.4h-.7l.3.1.2.3v.2h-.3l-.2-.2-.2 1 .6-.2-.8.6h-.7v.6l.4 1 .2.5h-2l-.7-.7-.8-.7v-1.3h-.1l-.7.5-1 1-.7.4-.1.4-.1.3-.6.4-2 1.7-1-1v-.2l-.6.6-.7.7h-.5l-.4-.6-.3-.6-.6.1h-.5l-.3.5-.6.4h-.2v.5l-.2.5-4 1.7-.6-.4h-.6l-.7.2-3-.7h-.4c-.4 0-.8.1-1 .3v-.3c.3-.3 1-1.1 1.4-1.8l1-1.3v-.7l.2-.6-.4-.3-.3-.3-.1.3-.1.2h-.7l.8-.4h-1l-.3.3-.5.3v.2l.3.2-.4-.1-.3.5-.5-2.1.5-.3.4-.3v-1h-.2l-.6.4-.4.4v.6l-.1-.4-.6.4-.5.5-.1-.4-2.2-.3v-.6c0-.3.4-.6.5-.8l.3-.4v-.3c0-.5 0-.8.7-1.5l.8-.7.2.1v.1l.3-.2.4-.2h.3l-.2.4 1 .1.8-1.2 1-.8 1-.8.3.2.3.2-.6.4-.6.5h.2v.2l.6-.2.4-.3-.3.3-.4.5v.3l.5-.1.6-.3.5-.2h.3l-.3.5-.2.5.5.6h.8v-.8l.4-.2v-.2l-.2-.2.3-.1.4-.1-.1-.2-.2-.1 2-2h.9l-1.1 1.4h-.1v.4l.3.6v.3h-.2l-.2-.1v-.8l-.1.1-.2.2v.4l.3.6.4-.2.3-.3-.1-.1-.1-.2h.5l2.9-3.1.4.3.5.3.3-.3-.1.2-.2.3.4.2.3.3.3-.2.3-.1v.2l-.2.2h2.2l.2-.3.3-.3-.1-.2-.5-.2h-.3l.2.2v.2l-.7-.3-1-.3h-.2v-.3l-.2-.4 1.3.1h1.2l.2-.1.3-.2v.2l-.7.4-.7.3h1l.5-.4.3-.4-.1-.3-.1-.4h-.6v-.6h-.7l.3-.4.2-.4.3.2.2-.3.4-.8v-.6l-.5-.8.2-1.2h-.5l.2.2.2.3-.4-.3-.3-.3-.2.2h-.2l-.1-.5-.1-.7v-.3a3 3 0 0 1-.8.6l-.5.4-.3-.3-.3-.6a8 8 0 0 1 1-2l.2-.5v-.4h-2.1v-.4h-.6l.2-.4h-1.1l-.4.3-.7.3h-.3v-.6h-1.2c-.8 3-1.5 5.5-1.7 5.7-.2.1-1-1.3-2-3.2l-1-2-.1-.1-.4-.1v.3h-1.1l.2.3c.2.1.3.3.3.4 0 .3-.3.2-1-.3l-.5-.5v-.5l.3-.6h-.5l.4-.8v-.5l-.2-.5-.6.7-.6.8c0 .2-.4.6-.7.9v.5l.3 2.1-1.8.6-2 .7v2.6l-1.1-.4a8 8 0 0 1-2-1.4l-1.1-1.5-.7 1.7c-.4.7-.6 1.4-.6 1.6l-.2.4-.3.2.3.3-.3.2h-.2v1l-.4.5-2.4 2.9-1 1.2c-.4.5-.7.6-.7.2l1-1.7c.5-.8 1-1.7 1-2l.8-2 .6-1.7v-.4h-.4v-1.2l.2-1.3-.2.2-.3.6-.6 1.5-.8 1.8-1.4 3.7c-.2.3-.4 1-.4 1.6l-.2 1h-.2l-.2.2v1h-.1c-.1.1-.4.6-.5 1.1l-.4 1h1l.5-.9.6-1c0-.1 0-.3.2-.3l.3-.2-.2.3v.4h.3v-.5l.2.2-.1.3-.2.3h-.6v.5l-.2.1-.3.2v.5l.2.5-.4.8-.4 1v-1.6l-.3-.2-.2-.1-.2.3c-.1.2-.3.6-.3 1l-.1.8-.3-.1-.2-.1v.2l.3.2h-.4l-.5.2v.2l.3.2-.4.3-.3.3v-.4l.3-.4-1.2.8-.4-.6-.6.3c-.4.2-1 .4-1.4.4l-.8.2-.2-.5-.3-.4-.3.3-.3.4h-.6l-.6.2v-.7l-.6.4-.6.3h-1.2v-1.4l2.4-3.6.2-1a17 17 0 0 1 1.5-3.6l.4-.6.4.1h.3l.4-.4.3-.6 1-2.3 1-2-.5-1.6v.4l-.1 1.1-.7.7-.4-.4-.2-1.3a25 25 0 0 1-.1-4.4l-1.2.4-1 .4v3.6l-1 .4c-.6.2-1.6.4-2.2.4H126l-1.3-3.4-1.4-3.4a54.2 54.2 0 0 0-4.5-6l-2.2-2.3-.4.4-.4.3.4 2.1a31 31 0 0 1 1.9 8l-.3 2-1 .8c-.4.5-.8.9-1 .9a33 33 0 0 1-3.4-6.9l-1.4-2.8c-.1-.1-1.1.3-2.3.9l-2 1.3-.4-.8c-.3-.3-1.2-.8-2-1l-1.4-.3-.7 2-1 4.1-.4 2-2.2 2.6-1-.3-1.6-2.5-1-2.2h-1.1l-1.6 5.2-1 1-1.1 1Zm172.9-44-1-1-1.5-5.2h-1.2l-1 2.2-1 2.2-1.5.6-1.1-1.2-1.1-1.3-.4-2a75 75 0 0 0-1-4.2l-.7-2-1.5.3c-.8.2-1.6.7-2 1l-.3.8-2-1.3c-1.2-.6-2.2-1-2.3-.9l-1.4 2.8c-.9 2.4-2 4.7-3.5 6.9s-.6-.4-1-.9l-1-.7-.3-2.1-.3-2.1.9-1.9a16 16 0 0 0 1.3-4l-2.5-.5a21.6 21.6 0 0 0-3.1 3.7l-.8 1.5 1.8 1.2-1.3-.2-1.1-.2-1.4 3.4-1.3 3.4h-1.2l-3.2-.7v-3.7l-1-.4-1.3-.4-2.5 7.3-1.6-1.4-.4.5-.4.3v-1c0-.7-.5-2-1-3.1-4.6.2-7.3.9-8.3 2.1a8 8 0 0 1-2 1.4l-1.2.4v-2.6c-3.2-5.1-5.1-7.3-5.7-6.6-3 5-4.7 7.8-5.2 8.4-2-6-3.6-12.2-5-18.5l36.4 6.9 4 3.6-2.5-3.2c-.9-1.1-1-2.8-.2-4.9l3.5-13.7a182 182 0 0 0 10-7c0-.5-.3-.2-10.2 6.4-2 1.4-1.7.2 1-3.7l9-3.6 1.9 2 .9.5a8 8 0 0 1-1.2-2.1l5.4-3.7 5.3-3.4 1 .6c.7.4 1.2 1.1 1.3 1.6l.2 1-12.5 10.6c-4.3 3.5-13.4 12.2 1.6-.6 6.5-5.5 14.3-12.4 17.3-15.3l5.4-5.2-.8-.6-1-.6 1.2.4 1.2.3.7-1 2.7-2.2 1.8-1.3-.3 1.4-.2 1.4 1 1.9c.5 1 1 1.9 1.3 1.9 0 0-.2-.9-.7-1.9l-1-1.8 14-5.4.9.7.8.7v1.2c0 2.6-4.4 9.2-6.2 9.5-1.1.2-5 3-5 3.6v.6h-1.8l-.4 1c-.5 1.4-.5 1.6.6 1.6h.8l5-4 5-3.9v-1.3h.8a26 26 0 0 0 7.2-5.6c1-.8 2-1.6 2.2-1.6.3 0 1.6-.9 2.8-2l2-2 2.6-.1 2.5-.1 3-1.8 3.3-2 1 1 1 .8-.4 3.6c-.7 7-1.2 10.2-1.8 11.3-1 2-2.8 3.8-3.6 3.8-1 0-2.5 1.1-5 3.4-.6.6-1.3 1.1-1.4 1.1-.2 0-1.1.7-2.1 1.7-1 .9-2.1 1.6-2.6 1.6h-.8l-.8 1.6-1 1.7-1.1.4-1.2.3-1 2-1 1.8h-1.6c-.2 0-1.5 1-3 2.5l-5.1 5-2.8 2.5-1-.9c-1-.9-1-1-2.5 2.9l-1.1 3-1.3.7-1.2.7v1.8l-7.7-3.1-7.8-3.2-5.2-1.4-5.3-1.4-6.7-.4-1.4 2.6 8 .4 4.9 1.3c2.6.8 8 2.7 11.7 4.2l7 2.6.3 1 .3.8-1.6 4.4-1.5 4.3-.7.3-.8.2-1-1h-.1Zm-107 19.1h-.2l-.3.2.3.1.2-.3Zm7.3 15-.1-.1v.1Zm4-23.2.4-.2v.4h-.5l.2-.2ZM167 257l-.1.1v-.1Zm.3 0 .3-.2.2.8-.3-.1-.3-.2-.7.7v.1l.2.2h-.4l-.2-.4v-.3h.8l-.2-.2v-.2l-.3.1-.2.2v-.2l.2-.3.3.1.3.2v-.2l.3-.1Z"/><path fill="#fff" d="m75.2 360.7-1.3-3-.3-43.8-.4-43.8h-12l-2-2.2-2.2-2.2v-13.4l1.2-3.9 1.2-4 3.4-2c4.4-2.8 6.2-3.4 3.6-1.3l-2.2 1.7h1c.7 0 3.5-.7 6.3-1.7l5-1.7.8-4c.3-2.2 2.3-10.8 4.2-19.3l3.7-15.4 5-15c3-8.4 8.2-22.8 11.9-32l6.6-17 9.5-19 9.6-19 8.7-13.1A231 231 0 0 1 167 47.2l8.4-8.4 7-4.7 7.2-4.7 5.8-1.6 6-1.7 10 .4 10.3.3 3.4 3.3 3.5 3.3 2.6 5c1.5 2.9 3.4 8.1 4.3 11.5l1.6 6.3 1.2 18.5 1.2 18.5-.6 15.8c-1 20.9-2.2 30.5-6.7 53.6l-3.8 19.6 16.6.1 16.7-.2-12.6 1c-5.7.4-11.4 1-17.1 1.6l-4.7.6v6.6l4.7-.7c2.5-.5 5-1.1 5.6-1.5l1-.5 26.3.2 26.3.2 4 1.1 4 1 3.2 3.7 3.3 3.7.8 4.2.6 4.3-1 3-1.2 2.8-4.3 2.1a69 69 0 0 1-12.5 4.5l-8 2.2-9.8 1c-5.3.7-18.8 1.6-29.6 2l-19.8.5-1.2 6.2c-2.8 14.1-11 89.5-11.2 102.6v5.8l-1-2.8-1.3-2.7.8-9.8c.3-5.3 1-13.7 1.6-18.5l2.8-26.6a664 664 0 0 1 6.7-52l.6-2.5h-34.2l-3-1.6-3.2-1.5-.7-1.8c-.3-1-.6-4-.6-6.6V209l1.6-3 1.5-3.2 4.7-4 4.6-3.8h-16.8l-6.2 2.1c-3.4 1.2-6.3 2-6.6 1.8a23 23 0 0 1 6-3.3l6.6-2.8h21.8l5.8-2.7 6-2.6 9.7-2.4c5.5-1.2 10-2.4 10-2.5.6-.6 6.9-33.1 8.8-45.4l1.9-12.4V95.9l-.1-28.8-1.2-8.3-1.3-8.4-2.3-6.2-2.3-6.2-4.7-4.9-4.8-4.9-11.8.5-11.8.4-6 3c-24 12.4-52.4 48.7-74 94a494 494 0 0 0-36.7 109l-.7 3.4 2-.9c9-3 18.2-5.2 27.5-6.7l7-1.2H130l14.8.2 1.4 1.4 1.5 1.4 1 4.7 1 4.7-1.1 3.6-1.2 3.5-3.8 2.9c-4 2.6-8 5-12.3 7l-8.4 4.3-8.2 2.2C105.6 268 91 270 82 270h-6.3l-.7 13.3-.8 13.4.6 29.8.4 30 1.2 3.6c1.4 4.2.7 4.5-1.2.5Zm21.6-94c5.5-.6 11.8-1.6 14.2-2.3l4.4-1.3-5.7-.8-5.7-.7-3.7-2.3c-5.8-4-10.7-9.3-14.4-15.4-2.8-5.4-1.3-4.9 2.5 1l3.5 5.2 5.8 4.5 5.8 4.5 5.9 1.3 5.9 1.2 1.3-1.9 1.3-1.8.8-8 .7-8-.7-4.5-.8-4.5-1.4-.6-1.6-.6-12 2.3-12 2.4-6 2.3-6 2.3-.6 2.3a251 251 0 0 0-2.8 22v2.6h5.8c3 0 10.2-.6 15.5-1.1Zm167.2-45 15.4-1.5 8.6-2.4c4.7-1.3 10-3.1 11.7-4l3-1.5 1.3-2.6 1.2-2.5-.8-3.7-.7-3.7-4-3.9-3.7-3.7-25.7-.3-25.5-.3V202l-1.7 5.7-1.7 5.7-2.2 1.2-2.3 1.2-7.3-.5-7.2-.3-.3 4.1-.4 4h26.9l15.4-1.5Z"/><path fill="#305673" d="m190.1 363.3-.5-.3h-.2l-.2.1v-.2h-.5v.2h.1-.2a4 4 0 0 0-.6.2h-.3l-.5-.3-1-.4-.6-.2h-.1c-.1.2-.8.4-.9.4l-1-.5c-.8-.6-1.1-.7-1.1-.5l-.5.1-.5.1h-.2l-.2-.1v-.3h-.3v-.3h-.5v-.1l-.1-.2h-1.5l-.2-.3-.2-.3-.4-.3-.4-.2h-1l-.4-.4-.2-.3h-.3v-.3h-.3l-.3.1-.2-.4c-.2-.1-.3-.4-.3-.5v-.1h-.3l-.3-.1-.3-.2-.1-.3v-.3h-.7v-.1l.2-.1h-.3l-.2-.1v-.2c0-.3-.3-.7-.3-.5h-.3l-.2-.2v-.2l.1-.2h-.4v-.3h-.3v-.7h-.3l-.2-.2v-.5l-.2-.1-.2-.2v-.2l-.2-.5-.2-.2h-.1l-.1.1-.2-.2-.2-.3h-.2l.2-.2h.2l-.4-.3-.4-.3v-.5h-.3v-.4h-.3v-.6l-.5-.2-.6-.2h-.6l-.1.2-.1.2h-.7l-.3-.1h-.5l-.6.1-.4-.2-.5-.1v-.2h-.3v-.7l-.1-.4-.3-.4h-.3l-.1-.3-.2-.3-1 .2h-1.3l-.4.1-.1.2-.1.2-.1.1h-.2v.3l-.4.1-.4.2v.4l.2.5-.3.1-.2.2v.2l.1.2-.1.1-1.2.3-1 .1-.4.2-1.3.4-.8.2v.7l-.1.3-.1-.1h-.2v.1h-.6c-.6 0-2 .3-2.5.5l-.5.2v.1l-.5.2-1 .5-.5.4-.6.2-.9.4-.5.2h-.2l-.1.2h-.3l-.4-.2h-.1v-.2h-.5l-.7.2h-.4l-.3-.2v-.4l-.3.1-.9.1h-.8l-.2-.4h-.2l-.1.2-.2-.1-.2-.1h-.7v-.2h-.6v.2h-.5v-.2l-.1-.1h-2.7v-.1c0-.1 0-.3-.2-.3l-.2-.3-.1-.5-.2-.3.2-.2.2-.3h-.8.1l.1.2-.4-.1h-.4v.1l-.5.1-.5.2c0 .1 0 .2-.2.2l-.6.3-.2.2h-1.5l-.5.2h-.3c-.4-.1-.7-.3-.8-.6a7 7 0 0 0-.8-1.1l-.7-.9v-.4h-.9l-.4-.1-.4-.2v-.5c0-.3 0-.8-.2-1l-.2-1v-.6l-.3-.4-.5-.6-.2-.3v-1.1l.4-.5 3-3 .3-.4.1-.4.1-.4-.3.6-.3.6-1.5 1.5-1.7 1.5v-2l-.1-2v-.2l.8-.2a2 2 0 0 0 1-.3h.2l.7-.1h.9l.3.2v-.3h-2l-.2-.1-.1-.1h-1.9l-1.8-.1v-.3l.7-.4.8-.4.5-.4.4-.4-.2-.2-.1-.2.4-.3.4-.2h.6l.5-.3.7-.6.2-.3-.3-.3-.3-.3.9-.6 1-.6.1-.2.8-.7.5-.4c0-.2 1.1-1.4 2.3-2.5l.9-.7.1-3.1h-.4l-1.2.2-.8.2h-.8l-.8-.1v.1h-1.5l-.3-.3-.2-.4h-.3l-.3.1-.2-.2-.3-.2-.3-.1-1-.1h-1l-1.2-.3-1-.1-.2-.2h-.6v-1l.2-1 .1-.3.2-.3.1-1.4.2-1.3h-.2l-.2-.1.2-.7v-.7h-.3V316h-.1l.2-.2.1-.1h-.6l.3-.1h.2l-.4-.2-.4-.2h-2.8v.2l-.4-.1-.4-.1h-.2l-.1-.4-.8-1.7-.3-.4-.1-.6a4 4 0 0 0-.2-.7v-.6h-.6l.1-.3.1-.3-.2.3-.2.3-.3-.1-.3-.2-.6-.1h-.4l-.4-.2-.3-.2v-.3l.3-.5.1-.3.1-.7c0-.7.3-1.4.5-1.7h.2l-.1-.3v-.3h.2l-.2-.5-.2-.7-.1-.1h-.2v-.2l-.1-.2-.3-.3-.3-.2h-.2l-.1-.2c-.2-.4-.1-.6.2-.7.2 0 .6-.4 1-.7l.7-.5v-.6h-.2v-.3l-.2-.3h.1l.7-.4 1-.4.4-.2-.2-.4-.1-.4.2-.2.8-.2 2.7-1.1v-.6h-.3l.1-.2.2-.3h-.1l-.1-.1h.2l.1.1.1-.2h.7l1.3-.3.8-.2h.3v-.6l.1-.3v-.2l.7-.2.6-.2v-.3l-.1-.3.4-.3.5-.2.6-.3.4-.2v-.7l.2-.2.6-.1.6-.1.2-.2.4-.1h.2v-.2l.2-.1h-.2l.1-.3.2-.3 1-.3h.3l.3-.2.6-.1.6-.2.4-.2v-.8l.4-.2.3-.1h1l1-.2h.2l.2-.2h-.4l.2-.2.2-.3h2.6v-.4l.1-.3h1.5l.5.1h3.5l1.3.2 2.3.1h.6l-.2-.2h1l.2.1 1.4.1 2.5-.1.8-.2.4-.1-.1-.1h-.1 1.3l1.2 1.3 1 .6.4.5.5.6.3.3.6.6.2.3.6-.4 3 .4v.4l.2-.2.9-.7.7-.5h.5v-.2h-.1l.4-.3.8-.4h.2l.2-.3.1-.3h1l-.1-.2h.7l.2-.1.3-.2h.3l1.2.2.9.1.4-.3.5-.3h.5-.2l.1-.3.2-.2h.4v-.3h1.1v.4h.6l.4.3.6.2.7.4.7.3h.7l.1.1.1.2.2-.1.6-.2h1.3l1.9.2 3.4.4h.9v.2h.9l.1.3.3-.1h.2v2l.1-.5.1-.4.6-.1 1.2-.1h.7v-.3h.2l.7-.1h.3v.1l.6.2.5.2.5.4 1.3 1 .9.7.3.1h1.1v.2h.4v-.3l.2.2.1.1v-.2l.1-.3h1.2v-.1h.3c.1 0 .6 0 1 .2l.8.1v2.4l-.1.1h-.2l.3.6.2.6.2 1v1l-.2.7-.1.7-.3.3c-.2.1-.3.3-.3.4v.1h-.2c-.1 0-.5.6-.5.9v.1l-.3.1h-.4v.2h-.8l-.1-.3-.1-.3-.3-.1c-.3-.2-.4-.2-.5 0l-.1.3h-.3v.7l-.2.1h-.1v.9h-.2v.6h.6v.2h.7l.3-.4.3-.4-.2-.2-.2-.3v-.3l.2-.4h.4l.4.1.1.4.1.4h.2l.3.3.2.2h.3l.4.1v.4l-.2.1-.4.2v.3h-.4v.2h.1-.1l-.6.5-.4.4h.2l.3.2v.2h-.1l-.1-.1-.2.1-.3.1.2-.1.2-.2h-.1l-.3.1v.2h.1l.2.2h-.8v-.5h.2l.2-.1v-.4l.1-.2.3-.3h.4v-.6h-.5v.3l-.4.1h-.3v.4h-.7v.6h-.4l-.3.1-.2.2-.2.3v.1l-.2.1-.6.2h-.3v-.1l.3-.3.1-.1-.3-.2-.5-.2-.2-.1h-1.2l-.1-.1-.2-.2v-.5l.2-.3.7-.6.5-.5.4-.4.4-.4h-.2l-.6.5-.7.5h-.4v.2h-.8l-1.2-.1h-.5v-.4l.6-.4.6-.3.5-.4.4-.5v-.3l-.1-.4-.4.3-.4.2h-.7l-1 .1-.6.1h-.6l-.6.3-.7.1h-1.1v-.3l.2-.4h-.2l-.5.3-.5.3h-.5v.3l-1 .3-1.2.3h-.5v-.2l.3-.2.4-.1h.1v-.2l-.1-.1.3-.2.3-.2-.2.2.3-.2.6-.4h.5v-.4h.3l.7-.5.5-.4-.4.2-.4.2h-1.1l-.6.2-.5.2-.4.2h-.4l-.6.4-1.1.6c-.8.3-1.6.8-2.3 1.4l-.7.6h-.8v-.4l-.2-.4.1-.3.1-.2.8-.4.8-.4h-.1l-.1-.2h.1l.2.1.7-.3c.8-.4 1.5-.8 1.5-1l-.2.1h-.2.2c.3-.3.4-.3.3-.1l.1-.1.3-.2h-.1v-.2h.1l.2.1 1-.6 1-.6h.4l.3.1v-.6l.2-.2h.2l-.2-.1h-.5l-.6.1h-.3v-.7l.2-.2h.9v-.4h-.6l-.5.1h-.1l-.1-.2-1.3 1-1.2.8-.7.4a3 3 0 0 1-.8.2l-.2.1-.7.5-.8.3h-.8v.6l-1 .5-1 .5v.2h-.6l-.7.2v.2c-.2.4-1.9 1.6-2.2 1.6h-.2l-2 1.2-3.2 2.4h-.2l-.1-.1v.4l-.4.2-.4.2.1-.3-.2.2-.5.2h-.2v-.8l1-.6 3.5-2.5c.5-.5 3.7-2.7 5.1-3.6.8-.5 1.7-1 2.6-1.2h.6v-.5l.1.3.2.3v-.6l.6-.4 2-1.2 1.6-1 .3-.4.3-.5h-.3l-.3.2-.5.2-.6.3-1 .4-.6.4-1.1.5-1 .5-.7.3c-.8.3-1.9.9-3.7 2l-1.4.9h.1v.1h-.2l-1.4.8-1 .7.3-.1-.3.2-.4.2h-.2l-.4.3-.6.5-.5.4-.3.2.3-.1.3-.2-.2.2-.4.4-.3.1.2-.2.3-.2-.3.2-.3.1v.1l.2.2h-.2l-.1-.1-.2.1-1 1-2 1.9q-.5.6 1.3 1v.3h.1c.4.1.8.4 1.1.7l-.2.2-.2.1v.4l-1 .6-1 .6v.3l-.3.2-1.2 3.7 1-.7.6-.3v-.1l.4-.5.4-.4v-.1l.5-.3.7-.3h.3v-.2h-.2l-.2.1v-.2h.8q.7 3 1.3 2.6l1.4-.8.3-.1.2-.2v.1l-.2.2.4-.2 1-.6.3-.1h.3l.2-.2.3-.2h.3a5 5 0 0 0 1-.4l1-.5.5-.2h.7l.8-.1v.4l-.2.4-1.6.8-.1.2.3-.2-.6.4-.8.5v.4h.3v.6l-.3.2h-.4l.2-.1-.2.1c-.6.5-.6.5-.2.6h.3v.4l-.2.3-.1.4v.3l-1 .5-.6.4h.2l-.3.3-.3.1.2-.1.1-.2-.4.3-2.3 2.6h-.3l-.2-.1v.7l-.2.5-2.8.5-.7-.2.4.4a13 13 0 0 0 2.6 1.7l3.4-3.5h.3v.5l-.2.5h.3l.1.3.2.4v-.2l.1-.2h.8l.7.1.2-.2.8-.6.5-.3h-.3l-.3.1h.1l.1-.1h1.2l.2.2.1.5v.3-.2l-.2-.1v.4l-.8.5-.8.5h-.3l.1-.2h.4l.2-.1.2-.2h-.4l-.7.5-.6.4.2.1-.4.1-.4.2.3-.2.2-.2-.3.2-.4.1h-.7l.2.1h.2v.5h-.6v.4l.1.4h-.1l-.2.1.1-.1.1-.2-.3.1c-.3.2-1.6 1.3-1.6 1.5l-1.3 1-1.3 2.2v1.1l-.3.5-.3.5h.2l.2.1v1.2l.1.1.3-.1.2-.3.2-.1.4-.7.2-.7v-.4l-.2-.5.3-.4.6-.5.2-.2v-.2l.4-.4 1.8-1.4 1.7-1.4 1-.6.9-.5h.5v-.3l.5-.4.5-.4.2-.3.1-.2h.9-.3l-.3-.2h2v-.1l-.2-.2h.3c.5 0 .3.4-.6 1a4 4 0 0 0-.7.5l-.3.3-.4.2.3-.1.2-.1-.2.1-.2.2h-1.4v.9h-.1l-.2.1-.8.7c-1 .6-1.8 1.3-2.4 2l-.5.7-.1-.1h-.1l.1.1-.5.7-.5.6v.5l-.2.5h.1l.6-.2.4-.2.2-.2.2-.3h.2v-.3h.3v-.3l.8-.7 3.1-2.5.2-.3h.5-.1l-.1-.2h.1l.2.2.3-.2.3-.2-.1-.2h.8l-.2-.2.4.2.4.2h1.4-.7v-.4h.1l.2.1.4-.2h.2v.2l-.1.2h.5l-.2.1-.1.2v3.4h-.7.2l.2.3v.2h-.4.1l.1.2-.6.2-.6.2h.5l-.5.1-.4.2h-.7l-.1-.1c-.2-.2-1-.4-1.8-.5h-.6l-.3.2-.4.2v.4l.4.2.5.2h.3v.2h3.3l-.1.2-.4.7-.3.4-.5.2-.4.2-.4-.1-.7-.2-1-.2h-2.6l-.4.2-.4.3v.2l.2.3h.2c.5.2 2 .3 2.7.4h.8l1-.2 1.1-.2v.2l-.1.1.3.1h2.3l.3.2h.1v-.2l-.2-.2h.8v.4h-.6v.3l.2.3.1.2h.7l-.3-.2-.2-.1v-.4h.5l.3-.1v.5h.1l.2.2v.1h-.3l.7.3.7.3h.3l.3-.2v.1l-.2.1h.2s.2 0 .3-.2l.1-.1.4.2.4.2h.2l.2-.1v.5h-.5l.1-.1.2-.2h-.2l-.3.1v.2l-.2-.2-.1-.4v-.1l-.2.1-.2.1v.1l.1.1h-.3v.2l.2.2-.3.2a1 1 0 0 0-.3.4v.2h.6v.3l.1.2h1.1l.2.1.2.2h.6v.2l.1.2h1.1v.1l.1.1h.7l.7.2h.2l.2.2h1.2v.2h1-.2l-.2.3h.4l-.1.1-.1.2h.7l1 .7v.2h.6l.5.5.5.3h.2l.2-.1.2.2.2.3v.1h1v.5h-.3l.2.2h.3l.3-.1v.2h.7l.3.5.3.4h.5l.4-.1v.1l-.2.2.2.1.2.2-.1.3-.1.3h.6v-.2h.9l.1-.1.1-.1h.8v.4h-.2l-.2.2.6-.1.6-.1-.2-.1-.2-.1h2.2v.2l.2.3h.2l.2-.1-.1.3-.2.1h.2l.1-.1-.1.3-.2.2h-.1l-.1-.1-.5.3c-.5.4-.5.6-.5 1.3v.6h.5l.5.1.9-.3.8-.4.3.1.3.1h-.1l-.1-.2h.4v.2l-.1.3-.2.1h.5v.2h.6l.1.2.5.4.3.2-.1.2-.1.1.4.2.4.1-.1.1-.1.1.2.2h.4c.4.1.5.1.6.4l.2.3.7.3.7.4.6.3.7.3.5.5.6.5h.2l.2.1.2.4.3.4v.1l-.1.1.2.2.2.3h-.2l-.1.2.4.1.4.1.4.6.3.5v.7l-.4.2-.3.1v.2l-.1.2h.6l-.1.2v.3h.2l.5.1h.3l.1.2c.3.3.7.5 1.4.8l.5.1-.1.1v.1h.2l.6.2.4.1v.4h-.3v.1l.2.1h-.4l-.2.1h-.9l-.3.2-.3.1h-.6l-.6.2h-1.1v.2h-.3c-1.4 0-2.7.2-4.1.4h-2.3l-1.8.1-.1.1-.2.1h-.4l-.2.1h-.4l-.5-.2-.3.1-.4.1v.1l.3.2h.1-.6l-.5.1h-.5a6 6 0 0 1-.8-.1l-.3-.1-.3.2-.5.2h-.3l-.7-.1-.7-.2-.4.2-.4.2h-.5l-1.3-.2-.4-.2-.4.2-.5.2h-.5l-.6-.2Z"/><path fill="#a73a24" d="M149 343h-.9v-.7h-1.5l-.7-.1-.4-.2-.4-.2.1-.2v-.2l-.3.3v-.2s0-.2-.2-.2l-.2-.2.1.2v.2l-.2-.2-.2-.2v-.3h-.5v-2.4l.1-.2h-.2l-.2.2v-.4h.2v-.2l-.2-.3V335l-.2-.1.1.2.1.2h-.4v.4-.1l-.3-.1-.3.5-.3.2v-.2l-.5.5-.3.5v-.1h-.3.1l.1.4-.3-.2h-.2l.2.3-.4-.1c-.2 0-.4-.2-.5-.3l-.2-.2v.4l-.3-.1-.4-.3c0-.1 0-.1 0 0v.5l-.3.3v1.5l-.2.4h-.2v-.2.4H137l-.3-.2-.4-.1v-.4l-.2.2-.2-.3-.3-.3v-.1l-.3-.2v-3c.2-.1.4-.7.6-1.3l.2-.7h.1l.1.2v-1.1h.4v-.7h.2v-.5l.1-.2v.4l.2-.4.2-.4v-.5c.3 0 .3-.2.4-1.1v-1l-.7.6-.6.7.1.2v.2l-.3-.1v.4h-.2v-.2.3l-.3.3.1.2h.1l-.3-.1v.2c0 .2 0 .5-.2.8v1.6h-.3v-.2 1.5l-.2-.1v-.2.6l-.2-.2v.3l-.3.3h.4-.2l-.2.3-.2-.1v-.1 1l-.3.4.1-.1.2-.1-.2.3v.3l-.2-.1-.4.3-.2.4c.2.3.2 1 .1 1l-.6.2h-.6v-.1l-.3-.2-.2.2v-.2l-.2-.1-.2.2v-.5.2l-.3-.3c-.3-.3-.5-1-.5-1.6v-.3l.2-.2.2-.3v-.6h.1l.2-.2v-.3h.1l.1-.2v-.6l.2-.2.2-.2v-.7l.2-.1.1-.3v-.6l-.2-.3v-.2h.1l.2.2v-.8h.4v-.5l.1.2v-1.5l-.6-.2-.5-.2q-.5-2.1-.3-2.4l.3-.3v-.7h-.5l-.5-.1h-.2v-.8l-.3-.8.1-.8v-.8h.3l.1-.2v-.5l.1.2.2-.6.1-.7c0-.3.3-1 .5-1l.2-.1v.4-.2h.1v-.7l.2-.7c.3-1 .3-1 .1-.7v.3h-.2v-.2.5l-.3.3-.2.4v-.3l.2-.3-.3.4-.2.3v.3l.1.2-.2-.2v.4l.1.4v-.3l-.3-.2.1.4v.4l-.2-.1v.5l-.3.5-.7 1-.4.7h.2l.2-.2v.2l-.6.6-.5.5h-1.4V320h.3v-.2l.1-.1.1-.1v-.4h.2l.2-.2v-.5l.1-.3h.1l.2.2v-.2l-.2-.2.2-.3c.1-.1.2-.2 0-.1l.5-1.2.7-1.4.2-.4v-.3l-.2-.6v-.3.7l-.2-.3v-.2l-.5.6-.3.6-.6.4-.6.3.1-.1h.2v-.2l-.6.3a2 2 0 0 1-.6.5c-.2 0-.3 0-.4.2V315c0-.5.6-2.6.7-2.7l.4-1 .2-1 .2-.1.2-.2v-.1l-.2-.2.2-.1.2-.1v-.7l.2-.3.2-.5-.5-.4-.3-.4h-.3l-.3.9-.2.9h-.3.2l.2.3h-.5V308l.2-.2-.2-1-.2-.7.1-.4.2-.4v-.7l-.3-.6v.4l-.5-.2h-.2l.2-.2.3-.1h-.6l-.4.4-.3.5.2-.1.2-.1v.3h-.5v-.5h-.3v.5h-.2v.4l.1-.2h.2l-.4.4-.2.4.1-.3.1-.3v-.2l-.3.2v.6l-.4.2-.2.2h.2l.2-.2-.2.3-.2.4v.3l-.3.2v1.4h-.7v-1h.1l.3-.2.2-.3-.2-.4v-.4.8h-.2v-.8l-.3-.1.1.2h.1l-.3.7-.3.5h-.6v-.9h.1l.1.2.1-.4v-.5h.3l.3-.5.2-.3h-.2l-.2.2v-.4h.7l.1-.2v-.6l.1-.2.1-.1-.2.3.2.2.2.3v-.1l.1-.1v-.2l-.3-.5v-.4h.1l.2-.1v-.3l-.2-.2.2.3.2.2v-1.2l.1.4c.2.4.2.2 0-.3v-.4l.3-.2.4-.2h-.4v-.5l.1-.4-.3.2-.2-.3v-.4l.1.2h.2l-.3-.3c-.3-.5-.4-.7-.2-.2l.1.2h-.2v-.7.2l-.3-.2-.2-.2v.3l.1.3v-.1l-.3-.1v-.5.3h-.5v-.1c0-.1 0-.2.2-.3h.1-.4v.3l-.2-.4-.2-.3-1-.2c-1-.2-1.2-.2-1.4 0v.2-.1l.2-.1.1.2-.2.2-.7.2h-.5l.2-.1.3-.2H117h.2l.1-.1h-.2l-1.2-.1-1.5-.2h-.5.1l.2.2-.7.2h-.7c0-.2-1-1-1.3-1l5.2-1.2.3.2 1.8.2h1.4l-.9-.2c-1-.3-1-.5 0-.2l.8.2.2.3.2.3h.5l.4.3v-.2l.2-.2v.5h.1l1 .4.7.4.1.3v-.3l.5.7.5.7.2-.2.2-.2v-.8l.2.2v.2l.3-.3.3-.3v-.2l.3-.7.7-1.4.4-1v-.1h.1l.1-.5.2-.4h.2l.4-.5.4-.7.2-.2h.2l.2-.4c0-.3.7-1.3 1.3-2.2l1.2-1.7h.2l.3-.4c.1-.2.3-.4.5-.4h.2v-.5c0-.3.2-.6.3-.7l.3-2.5.3-.6c.2-.3.3-.7.2-.7l.3-1 .3-1 .3-.2.3-.2.1-.4v-.3l.4-.2.3-.3h.2l.3.2v1.8a2 2 0 0 0-.3.6v.4l-.6 1.4-.5 1.3.1 1c-.2.6-.2 1.5-.2 2.8v.8l.2-.4.1-.7.2-.3.2-1 .2-.8.6-1.4 1.7-4 .2-.3h.2v.2l.1.9-1 3.7-.3.9v2l.1.3h-.4v1.5l-.4.5-.3.5v1.8l.1-.2v.3c0 .3 0 .3.5 0l.3-.2h.5l.6-.1.3-.8.4-.7v-.8.9l-.3.3-.2.2-.2-.2-.3-.2v.4-.2c0-.1-.2-.6-.2-2.1v-1.6l.1-.3v.3l.3.2.2-.6.1-.5h.2v.9h.4v.5l.2-.1.2-.1v1l-.2 1.4v.5-.2l.2-.2h.4l.2-.4.4-.5.2-.1v-.4l-.2-.3.4-.3.4-.2h.1v-.6h.2l-.2.3h.2l.1-.5v-.5l.4-.4 2.1-.4v.5h1.6v.8h.1v-.7l.2-.1.6-.1h.5l2-3.3a5 5 0 0 0 1.5-1c.3-.5.3-.6.3-1v-.1h.5l.1-.4.1-.5h.2l.2.2v-.3l.2-.3.4-.4.4-.4.4-.3h.1l.2.2.2-.2.2-.2h.2l.1.2v.3l-.2.2v.3l.1.4-.2.3-.2.3v.5h-.2l-1 1.5c-.5.8-1 1.7-1 2l-1.8 2-.3.7.2.2v.3l-.3.2h.4l.5-.7.5-.7s.2 0 .2-.2v-.3l.4-.2 2.4-2.8.2.3.2.3.2-.2.3-.2v1.5l-1.3 2.7-.4.2c-.2.4-1 1.2-1 1.2l-.4.4-.4.5v.5c0 .3-.2.6-.3.7l-.3.6-.2.4v.4l.1.3.2.2h.2l.3-.3.2-.4h.2l.2.2v-.2l-.2-.2.2-.2.1-.1.2.2.1.2v.9l.2.5.1.4h.2l.1-.1v.6l.1-.2.1-.3.3.2.2.3v.7h.2l.2-.1v.5l.4-.4.2-.5-.2-.1v-.7h.5v-.3l.5-.5.3-.3h.1l.2.3.2-.4.2-.4-.2-.8-.2-.8v-2l.3-.5.2-.6h.1l.1.2.1-.2c0-.2.3-.2.3 0v.5l.2-.1.3-.2.4.2.4.2.7.7.6.6v.4l.1.5v.4l-.5-.1-.3-.2.2.2.1.2h-.3l-1.2-.5-.2-.2v1.3l.2-.2 1-.1-.3.5-.3.3v.3l.2.2-.3.3c-.2 0-.3.4-.4.6v.3h-.6l.2.2h.2l-.3.7-.3.5.3.4.4.5h-.2v2.4l.2-.2.2-.2v-.7h.2l.2-.2.1-.5.1-1v-.6l.2-.3.2-.7v-.4h.6l.3.4.5 1 .1.6h.4v.3l.1.2h.3l.1.4.2.3-.2.5-.2.5.2-.1.1-.2v.2l.1.2h.2l.2-.2v-.3l-.2-.4.1-1 .1-1 .3-.6.2-.5h.3v.5h.5v-.2l.2-.2h.1v.5l.3.9.1.5.1-.3.1-.2v1.5-.2h-.2v1.9-.1l-.2-.1v1.1l-.3.2v.2h.1v.7l.1-.4.1-.3h.3l.2.3.1.7.3 1v.2h-.3l-.2-.1v.4h-.5l.2-.2.2-.1h-.4v.7h-.3l-.3-.3v-1.2l.2-.1.1-.2v-.4l-.3.7c-.3.7-.4 1-.2 1.4v.3h-.2l-.2-.1v.2l-.2.2h.2l.1-.2v.5h-1v.2l-.4 1-.3 1v.5l-1.4 3.8-.5.8-.3 1.2a19 19 0 0 1-1.4 4v.3l.1-.2.3-.6v-.3h.4l.3-.4.2-.3h.5l.4.2.2-.3.1-.3h.4l.2-.4.5-.5h.2v-.4l.5-2 .8-3.4.6-2.3.3-.7.4-.5.3-.4h1V302h.1v-.1h.8v.3l.2.3v3l-1.6 6a28 28 0 0 0-1 7v1h-.6l-.2.4v.4h-.8l-.6-.2-.5.7-.4.7h-.9v.6l-.3 1v.3h-.2l-.2.2-.3-.2v.5l-.3.4v.2l.1.2h-.2v.5h-.2l-.3-.1v.3c-.2.2-.2.4-.2.6l-.3.6v.2-.2h-.5l-.2.5-.2.7v.2h-.2l-.2.2v-.2l-.2-.3v.3l.1.3v.3l-.3.3-.3-.1h-.3v.7h-.3l.1.2-.2.2-.2.2v-.2h-.2l.1.3-.2.2-.2.2v.3l-.2.3-.2.2.2.2-.3.2-.2.4-.7 1-.3.7.3-.4v.6l.2-.2v.5l-.3.4v.3l.4-.5.5-.4v-.3c0-.1 0-.4.2-.6l.2-.7v-.2l.3-.2.2-.1.2-.2h.2v-.3l.3-.2.7-1 .5-.5h.2v.5-1l.4-.4.8-1 .5-.6.1-.5.2-.6.3-.3.3-.3v-.5l.4-.7.6-1 1.2-1.4h.1v-.4h.1v.4l.1-.2.1-.3v.6l-.2.2h.2l.2-.5.4-.8.1-.3.4-.1h.5v.5-.1l.2-.1v.7l-.2-.1v.4l.1.5.1-.5c0-.3.2-.5.2-.5h.1v.7-.3l.2-.3v-1l.2-.8.6-1.8 1-2.7V314h.5v9l-.4.9-.3.8-.3.2-.4.3-.2.2h.2l.1.2v.4l-.3.4v-.1l-.2-.1v.6l-.4.8a5 5 0 0 0-.4 1v.2h-.4.1v.5l-.2.2h-.4v.4l-.7 1-.5.9-.3 1-1.6 2.6-.2.3h-.2v.4l-.6.4a2 2 0 0 1-.6.4s-.4.3-.6.7l-.5.8v-.1l-.2-.1-.4.5-.5.5-.3.3-.2.3-.2-.1-.3-.1v.4l-.3.4h-.3v.2l-.2.5v.4l-.4.2-.3.2.3-.4.2-.4-.4.4-.3.6-.5-.1h-.4v-.2l-.2-.2-.4.3-.4.2v.3l-.4.2-.7.4h-.5l-.2.2Z"/></svg>