<svg width="332" height="453" fill="none" xmlns="http://www.w3.org/2000/svg"><path d="m175.5 19.4 2.6 3.7 2 3 1.5.7c.9.4 1.7 1 2 1.5.1.5.9 1.4 1.6 2.3l1.3 1.5 1.5.3 1.6.2-.9.9-.8.8.6.1.5.1-.4.9-.4.9.5.2 2.1.7 1.6.6v-1l-.1-.7 1.3.2 1.3.3-.3 1.9-.4 1.9h.5c.2 0 .5-.3.6-.8l.5-1.9c0-.5.6-1.4 1-2 .4-.5.8-1.5 1-2l.1-1.2.8.2c.4 0 1.5.7 2.5 1.6a9 9 0 0 0 2.4 1.7l3.5 1 2.8 1 .7-1.9.7-2.4c0-.3.8-1.3 1.7-2.3l1.6-1.9 1.1 2.2c2 3.9 5 7.7 6 7.8l.7.2 1.8 3.1 1.7 3.3 2.7 1.2 2.5 1.1-.6.6-.6.6 1.3 2 1.4 2 1.6.3 1.7.3-.2 2.2-.1 2.3.5.6.5.5.3-1.3.2-1.4h.6c.2.2 1 1 1.6 1.9l1 1.4H239l.5 1 .5 1.1-1.1-.2-1-.2.6 1.7.7 1.6 1.8.7c1 .3 2 1 2.4 1.5l.7.8-.4.7-.4.8.7.6c.4.5 1.5 1 2.4 1.4l1.6.6 1.9 3.2 3 5.2 1.1 1.9-.2 1.4-.3 1.4 1 .8 1 .7-.2.9c0 .5 0 .9.3 1 .6 0 1.1 2 1.1 4.2V95l2.2.4 2.2.4-.3 1.4-.2 1.5h.4l.4.1-.4 2.4-.4 2.4 1 .2 1.2.2.2-1.2.2-1 .5 1.8.6 2 .2-1.1.2-1.2.6.2h.7l.2-1.3.3-1.6.9-.4a4 4 0 0 0 1.4-1.4l.5-1-.2 1.2-.2 1.2 1.2.2 1.3.3.4-1 .3-1 .4 4.5.5 4.6.5-.5.4-.4-.2 1.2-.2 1.3.7-1.4.7-1.3.1 1.5.2 1.5.3-1.4.2-1.4.3 1.2.3 1 3.4-3.3a36 36 0 0 0 4.1-4.7l.8-1.3 2.4.3 2.3.2.6 2.2a9 9 0 0 1 .5 3.3c-.2.7 0 1.3 0 1.3.3 0 .4.7.3 1.2a38 38 0 0 0-.3 8.6c.2 1.5.1 8.7-.3 14.6l-.2 3.2-3.4 19.1-3.4 19 .3 1.7.3 1.7 1-.3.8-.3 1.1 1.7c.6 1 1 2.3.9 2.8 0 .4 0 1.4.2 2.4l.4 1.5-.4 4.1-2 12.2-1.6 8-.6 1-.6.9-1.2 4.9-1.2 4.8.4.1h.4l-.8 5-1.6 9-.7 4 1.2-.1c.5 0 1.2-.2 1.2-.4.2-.2 1-1.9 1.7-3.8l1.6-3.3.3.3.4.5 2-2 1.8-2 .9 1.9c1.1 2.6 1.5 4.2 1.2 5.8l-.3 1.5h.4c.2.1.6-.3.8-.7.3-.6.7-.9.8-.9l.4.1-.6 3.3-.6 3.4.2 2c0 1-.4 6.5-1 12.1l-1 10.3.3.7.4.6-1.2 5-1 5v1.2c.1.6 0 2.6-.3 4.5l-1.3 10c-1 7.5-1.5 9.8-5 24.6l-2.4 10.4-1.4 9.8A154 154 0 0 1 276 348c-.3.4-1.8 7.2-5.8 27.3l-4.1 19.9-1.6 6A716.2 716.2 0 0 0 259 424l-1.1 4.5h-.3l-.3-.1-1.4 5.6-1.3 5.7-.4-.1h-.4l-.5 2.3-.4 2.3-2 1.5c-1.2 1-2.5 2.2-3 3l-.9 1.1-1.2-1.8c-.7-1-1.2-2.2-1.3-2.8l-.2-1-.1.7c-.1.5-.5-.6-1-2.3l-.8-3.1-1.3.7-1.3.8v-.7l-.2-.5.4.1c.2 0-.3-.7-1.1-1.7l-1.5-1.6-1.7 2.2-1.6 2.3-.4-1.3-.4-1.2-.7 2.1c-.4 1.2-1 2.6-1.4 3.3l-.7 1.1-.5-1.7-.5-1.8-.3 1.3-.3 1.3v-4.5l-.5.5-.5.4-.3-3-.2-3-.6 1.6-.6 1.7.2-3.4.1-3.4-.4 2-.4 2.2h-.4l-.4-.1.1-2.2.2-2-1 1.1-.9 1.1-.2-.6v-.7l-.9 1-.8.8-.4 2.4-.4 2.3-.7-1.2-.7-1.3-1 1.7c-.5.9-1 2-1 2.3l-.2.8-.3-.7-.3-.6-.2 1-.2 1-1.2-.3a2.4 2.4 0 0 1-2-2.7c.2-.2.3-1.2.5-2l.3-1.5-.6.5-.5.5.3-1.5.3-1.6-1 .5c-.4.3-1.4.7-2.1.9-.7 0-1.5.5-1.7 1l-.4.8-1.6-.3-1.7-.4-1.1-3.1-1.2-3.3-.6.4-.7.4-.9-1.3a4 4 0 0 1-.8-2c.1-.3 0-1-.4-1.3l-.6-.7-1.3 3.3-1.3 3.4-.2-1.2-.3-1.1-1.5 1.6-1.6 1.7-.3-1.6-.2-1.5-.8-.1-.7-.1.7-.7.8-.7-2.3-1.7-2.1-1.7-.3-1.4-.2-1.3h.3c.3 0 0-.8-.4-1.7-.4-1-.9-1.9-1-1.8-.2 0-.3-1.6-.1-3.8l.1-4-.6 1.3-.6 1.1-.5-2.4-.5-2.5-.6 1.1-.5 1.2-.6-.8-.6-.7-.7 3.4-.6 3.3-1.4 3.5c-1.7 4-2.2 4.8-4 6.3l-1.6 1-.5 1.8c-.7 1.9-1.3 2.1-1.4.5l-.1-1-.6.4-.5.5.2-.7.1-.9-.7-.2-1.2-.5c-.2-.2-.6-.3-1-.3h-.5l-.3 1.6-.3 1.7-2.2 2.8-2.2 2.8v-2l-.9 1.3c-1.3 2-1.3 2-3.3-4-.2-.5-.5-1.1-.8-1.1l-.4-.1v-2.8a25 25 0 0 0-.7-4.5l-.6-2 .4-1.2.3-1.1-.4-1.4-.5-1.2.3-1.4.2-1.4-.5.5-.5.5-.3-2.6-.3-2.6-1 .5c-.6.3-1.2.9-1.4 1.3l-.3 1-.7-3.2a16 16 0 0 0-1.1-3.3h-.5l.2-1.5.3-1.4h-.4l-.5-.2v-10.1l-.6 1.2-.7 1.4.3-2 1-5.2.6-3.3-.7 1.9-.7 1.8v-1.5l.2-4.9c0-1.9.4-5.5.7-7.9l.5-4.4-1 1.5c-1 1.3-3.2 6.6-3.3 7.7 0 .3-1 1.8-2 3.4l-1.9 2.9-.7 2.3c-.4 1.3-1 2.6-1.3 2.9l-.5.5-.6 2.4-.6 2.5-.8 1.2-4.5 7.7-1.3 2.4-1.1.2-1.2.2-.3-1.1-.3-1.1-.4 1c-.3.7-.7 1.2-.9 1.2h-.4l.3-1.4.2-1.3h-1.6l.4-1.5.4-1.6h-1.5l-2.1 4a87.9 87.9 0 0 1-3.2 5.6l-1.1 1.6-.3-.7-.4-.6-.2 1.4-.3 1.5-.9-.2-.8-.1.3-2 .4-1.8-.7-.1-.6-.1.1-3.2v-3l-.3.5-.4.5-.4-2.3-.4-2.4.5-1.5.6-1.4-.5-.1-.5-.1.4-.8.4-1-.2-.4-.3-.5 1-5.7 1.2-5.8-.5.4-.4.4.2-1 .2-1-.7.5-.6.6.6-1.6.6-1.5-.6.5-.6.6-.4-1.3-.3-1.1-.7 1.8-.6 1.8-1.5-1.7c-2-2.1-3.2-3-5.2-3.8l-1.5-.5-.7-1.8-.7-1.7-1.1-.2-1-.2 1.1-4.3 1.1-4.3-.4-.8-.4-.9 1-3.8 1-3.8h.5l.4.1 1-5.5.9-5.6.4-1 .5-1.2-.9-.5-.7-.5-.3 1.8-.3 1.8h-.4l-.3-.1-1.3 3.4c-.6 2-1.8 4.4-2.4 5.3l-1.3 2-.2 1.7a25 25 0 0 1-1 4l-1 2.4.3.6.4.7-.6.5-.6.6-.4 2-.3 1.7-1.2 1.7-1.1 1.6-1.6.4-1.4.4-.6 1.5c-.3 1-1 2-1.4 2.7l-.8 1.2v.8l.2.8-1.5.3-1.4.3-.3-.6a4 4 0 0 1 0-2l.2-1.4-.6.5-.5.5.2-1 .2-1 .5.1.6.1-.9-1.4-.9-1.4.4-2.6.3-2.6-.4-.1c-.2 0-.5.4-.6 1l-.2 1-.3-.7-.3-.7-.5 2.2-.5 2.8-.1.8-.7-.1-.6-.2-.3 1.5-.2 1.4h-.5l-.4-.2-.7 2.4-.7 2.3-.6-.1-.7-.2-.5 1.4-.5 1.4-.8-.2-.8-.1.3-2.2.4-2-.6 1.5-.4 1.7-1-.2-.7-.2.4-2.3.4-2.4-.5-2-.5-2.1.8-4.2.7-4.2-.5-.6-.6-.6-.2 1c-.2 1-3 6.4-3.6 6.8-.2.1-.5.9-.6 1.6l-.3 1.4-.6-.2c-.3 0-.7-.7-.8-1.5l-.3-1.4-1.5-.2-1.5-.2-.4-1.3-.5-1.4.5-2.5.4-2.5-1 1.7-1 1.8.2-.9.1-.8L59 364a19 19 0 0 0-2 3.7l-1 2.1-.3-.5-.2-.6-1 2.1-.8 2.1-1.2-.4-1.5-.6-.3-.2.5-2.8.5-2.7-.4-.6-.5-.5.2-4.6c.2-2.6.2-6 .2-7.7l-.2-3 3.3-17.6 5-27 2.2-11.2.2-1.6-.8-.2-.9-.1-.7 1.5-.7 1.5-.5-2.4c-.2-1.4-.3-3.1-.2-3.8l.2-1.2-.6.6c-.4.3-1.6.5-2.7.4l-2-.2-.3-1.2-.3-1.2.5-4.5.5-4.5-.3-.6a33.7 33.7 0 0 0-.2-7.1l-.4-3.8.3-2.8.5-4.2.2-1.1h-.4l-.5-.2-.2 1.3-.2 1.2-1.1 1.2-1.2 1.2-.8 4.3-1.1 5.9-.4 1.7-.6-.2H46v1.1l-.3 1.4-1 .4-.8.4-.8 2.7c-.4 1.6-1.6 4.8-2.5 7.2l-1.7 4.3-1.2.8-1.2.9-.7-3-.7-2.8.3-1.4.3-1.5H35l-.4-.1.3-1.5.2-1.4h-.4l-.5-.1-2.2 4.4a23.5 23.5 0 0 1-2.6 4.5c-.1 0-.7 1-1.2 2.2l-1 2.3-.6-.1-.6-.2-.3 1.5-.3 1.4-.8-.2-1-.1.4-1.7c.2-1 .2-2.7 0-3.9l-.2-2 .7-7c.5-4 .9-8.2.8-9.4l-.1-2 .7-2.3.7-2.4-.4-.4-.5-.6.8-3.9 1.8-8.2 1-4.2c.2 0 2.2-10.3 4.6-23a1761.2 1761.2 0 0 1 8-40.4c.8-3.7 5-15.7 5.7-15.5.2 0 .7-1.2 1.1-2.7l.8-2.6L51 163c.8-1 1.5-2.3 1.6-2.8.1-.6 1-2.2 2-3.7l1.9-2.6-.2 1.2-.2 1 1-.9 1-.8.8-2c.3-1.2 1-2.8 1.6-3.7l1-1.5v1.1l.2 1.1.7-2.3.8-2.4 1-.4 1-.4.1-1 .2-1.1.2.6.1.7.8-1 .8-.9-.2 1-.2 1.1.7.2h.8l1.1-1.8 1.2-1.9.4-1.8.3-1.7.8.2.8.1.4-2.4.5-2.3 1.8-2.4 1.9-2.3.5-3.7.7-3.6 1.3-1.3 3-3.9 1.6-2.4.3-3c.1-1.8.5-4 .7-5l.5-1.5h.4c.2 0 1.3-.7 2.4-1.8l1.9-1.8.5-3.5.5-3.5 1.2-1.4c.7-.8 2-2 3-2.7l1.8-1.3.8-3.3c.5-1.8 1.1-3.8 1.4-4.3l.5-1.1 1.5-.3c.9-.2 2-.8 2.5-1.4l1-1 .6-2.8.6-2.8.7-1 .7-1 1.8-.4 1.7-.4 1-2.6.9-2.5 2-.3 2-.3.3-1.4c.2-.7.6-1.8 1-2.5l1-1.1 1.2-.2c.8 0 1.5-.3 1.7-.7.2-.2 1.2-.6 2.3-.8l2-.2 3.5-2.4 3.4-2.4 1.3.4 1.3.4 1.2-1.8 1.2-1.8.7-3 .7-3 1-.8.9-.8 1.7.2c2.4.1 6.4-1 7.1-2l.6-1 2 .4 2 .4L158 35l2-2.1.2.8c0 .5.5 1 1 1.3l.6.5 1.5-.8 1.4-1 .1-1 .1-.9 1.6-1.4 1.6-1.3 1.6-3.2c.8-1.7 2.1-4 2.9-5.3l1.3-2.3h.6c.3.2.8.6 1 1Z" fill="#A73A24"/><path d="m91.2 270.3 1-1 .8-2.6.8-2.6h1.1l1 2.2 1 2.2.7.3.9.3 1-1.3 1.2-1.3.4-2 1-4.1.7-2 1.5.3c.7.2 1.6.7 1.9 1l.4.8 2-1.3c1.2-.6 2.2-1 2.3-.9l1.4 2.8a33 33 0 0 0 3.4 6.9c.2 0 .6-.4 1-.9l1-.8.3-2 .4-2.1-.9-1.9a16 16 0 0 1-1.4-4l-.4-2.1.4-.3.4-.4 2.2 2.3c1.2 1.2 2.6 2.8 3 3.7l.9 1.5-.9.6-1 .6 1.3-.2 1.2-.2 1.4 3.4 1.3 3.4h1.2c.6 0 1.6-.2 2.2-.4l1-.4v-3.6l1-.4 1.2-.4c.2 0 .8 1.6 1.4 3.6l1.1 3.7.8-.8.9-.6.4.4.4.4v-1c0-.7.5-2 1-3.1l1-2-.6-2.2-.6-2.3 1.2-.3 1.2-.4 1.3 1.3c.8.8 1.4 1.6 1.4 1.9a21 21 0 0 0 3.4 6.1 8 8 0 0 0 2 1.4l1.2.4v-2.6l1.9-.7 1.8-.6-.2-2.1-.6-3.6-.3-1.5h.7c.4 0 1.5.8 2.4 1.9l1.6 1.7 1.7 3.5c.9 1.9 1.7 3.3 1.9 3.2.5-.5 4.8-17.1 4.8-18.5V249l-1.2-.7-1.3-.7h-4.6l-5.1-1.6a31 31 0 0 0-5.3-1.4 8 8 0 0 0 .8 2.9l1.1 2.7-.3 1.5-.3 1.5-.8-2.1-.8-2.2-.7.5-.7.4.5-.7.4-.8-.6-1.1-.7-1.2v1.2l-1-1.3c-1.2-1.5-1.2-2-.2-2.4l.8-.3-1 .2-1.3.2-.4-.6a17 17 0 0 0-5.2-2.6c-.2 0-2.3 4.5-2.3 5l2.4 1.6c1.3.7 2.2 1.6 2 1.7-.2.2-1.3-.3-2.4-1l-2-1.6-.7 1c-.3.5-.4 1.2-.3 1.5l.2.7h7.1l-.1.8-.2.7 1-.3 1-.4 2.2.4 2.2.4.3 1.3.3 1.3H147l.7.5 2 2.1 1.3 1.6-2.5-2.2-2.4-2.2.3-.5.3-.5-.6-.4-.6-.4-.5.8-.5.7.9-.5.8-.5-.3.7-.5.6-2.8-.5c-1.5-.3-4-.5-5.5-.6h-2.7l-1-1.4c-.7-.9-1-1.2-.8-.7l.4.8-1.8 3.2-1.7 3.3-2 1.8-2 1.8 2.4-3.2c1.4-1.8 2.9-4 3.4-4.9l.8-1.8-2.2.3-2.3.3 1.2 1.4 1.2 1.4-1.8-1.6-1.8-1.6.2-.7v-.7l-.8.2-.8.1.4-.6.4-.7h7.6l.6-1.5.8-1.5-10.1-6.7a182 182 0 0 1-10.1-7c0-.5.3-.2 10.3 6.4 4.7 3.1 9 5.8 9.4 5.9l.8.2.8-2.2 1-2-2.1-1-11-4.6-9-3.6-1.8 2-2 2.2 1.1-1.7a8 8 0 0 0 1.1-2.1c0-.2-2.4-1.9-5.3-3.7l-5.4-3.5-1 .7a3 3 0 0 0-1.2 1.6l-.2 1 12.5 10.6 12.5 11c0 .4.9 1.2-14.2-11.6a575.4 575.4 0 0 1-17.2-15.3l-5.4-5.2.8-.6.8-.6-1 .3-1.2.4-.8-1c-.4-.5-1.6-1.5-2.6-2.2l-1.8-1.3.2 1.4.3 1.4-1 1.9c-.5 1-1.1 1.9-1.3 1.9-.1 0 .1-.9.7-1.9l1-1.8-7-2.7-7-2.7-.9.7-.8.7v1.2c0 2.5 4.4 9.2 6.2 9.5 1.1.2 5 3 5 3.6v.6h1.8l.3 1c.6 1.4.6 1.6-.5 1.6h-.8l-5-4-5-3.9v-1.2h-.8a27 27 0 0 1-7.2-5.6c-1-.9-2-1.6-2.2-1.6-.4 0-1.6-.9-2.8-2l-2.1-2-2.5-.2h-2.5l-3.1-1.9-3.2-1.8-1 .8-1 .9.4 3.6c.7 7 1.2 10.1 1.8 11.3 1 2 2.8 3.7 3.6 3.7.9 0 2.5 1.2 5 3.5.6.6 1.3 1.1 1.4 1.1.2 0 1.1.7 2 1.7 1 .9 2.2 1.6 2.6 1.6h.8l.9 1.6.8 1.7 1.3.3 1.2.4 1 2 1 1.8h1.6c.2 0 1.5 1 2.9 2.4 1.3 1.4 3.7 3.6 5.2 5l2.8 2.6 1-.9c1-.9 1-1 2.4 2.9l1.2 3 1.3.7 1.2.7v1.8l7.7-3.1 7.7-3.2 5.3-1.4 5.2-1.4 6.8-.4 6.7-.4 1.2 1.1 1.2 1 .5-.4.6-.5-.4.7-.4.7-8.1.4-8 .4-4.8 1.3c-2.6.8-8 2.6-11.7 4.2l-7 2.6-.3 1-.3.8 1.5 4.4 1.5 4.3.8.3.7.2 1.1-1Zm171.8-43-.9-1-.8-2.6-.8-2.6h-1.2l-.9 2.2-1 2.2-.8.3-.8.3-1.1-1.2-1.1-1.3-.4-2a75 75 0 0 0-1-4.2l-.7-2-1.5.3c-.8.2-1.6.7-1.9 1l-.4.8-2-1.3c-1.2-.6-2.2-1-2.3-.9l-1.4 2.8a33 33 0 0 1-3.5 6.9s-.6-.4-1-.9l-.9-.7-.4-2.1-.3-2.1.9-1.9a16 16 0 0 0 1.3-4l.4-2.1-.3-.3-.4-.4-2.2 2.3a21.6 21.6 0 0 0-3.1 3.7l-.8 1.5.9.6.9.6-1.3-.2-1.1-.2-1.4 3.4-1.3 3.4h-1.2l-2.2-.3-1-.4v-3.7l-1-.4-1.3-.4s-.7 1.6-1.3 3.6l-1.2 3.7-.7-.8-.9-.6-.4.5-.4.3v-1c0-.7-.5-2-1-3.1l-1-2 .6-2.2.6-2.2-1.2-.4-1.3-.4-1.3 1.3c-.8.8-1.3 1.6-1.3 1.9a21 21 0 0 1-3.4 6.1 8 8 0 0 1-2 1.4l-1.2.4v-2.6l-2-.7-1.7-.6.1-2.1.6-3.6.4-1.5h-.7c-.4 0-1.5.8-2.4 1.9l-1.7 1.7-1.7 3.5a10 10 0 0 1-1.8 3.2 171 171 0 0 1-4.9-18.5v-1.5l1.3-.7 1.3-.7h4.6l5.1-1.6a31 31 0 0 1 5.3-1.4c0 .2-.2 1.5-.8 2.9l-1.1 2.7.3 1.5.3 1.5.7-2.1.9-2.2.7.5.7.4-.5-.7-.5-.8.7-1.1.7-1.2v1.2l1-1.3c1.2-1.5 1.2-2 .2-2.4l-.8-.3 1 .2 1.3.2.3-.6a17 17 0 0 1 5.3-2.6c.2 0 2.2 4.5 2.2 5l-2.3 1.6c-1.3.8-2.2 1.6-2 1.7.2.2 1.2-.3 2.4-1l2-1.6.6 1c.4.5.5 1.2.4 1.5l-.2.7h-7.1l.1.8.2.7-1-.3-1-.4-2.2.4-2.2.4-.3 1.3-.4 1.3h1.5l-.6.5c-.3.3-1.3 1.2-2 2.1l-1.3 1.7 2.4-2.3 2.5-2.2-.4-.5-.2-.5.6-.4.6-.3.5.7.4.8-.8-.6-.9-.5.4.7.5.6 2.7-.5c1.6-.3 4.1-.5 5.6-.6h2.7l1-1.4c.6-.9 1-1.1.8-.7l-.4.8 1.8 3.2 1.7 3.3 2 1.8 2 1.8-2.5-3.2c-1.3-1.7-2.8-4-3.3-4.9l-.9-1.7 2.3.2 2.3.3-1.2 1.4-1.2 1.4 1.8-1.6 1.7-1.5v-.8l-.2-.7.8.2.9.1-.4-.6-.4-.7h-7.6l-.7-1.5-.7-1.5 10.1-6.7a182 182 0 0 0 10.1-7c0-.5-.4-.2-10.3 6.4a113 113 0 0 1-9.4 5.9l-.8.2-.9-2.2-.9-2 2.1-1 11-4.6 8.9-3.6 1.9 2 1.9 2.2-1-1.7a8 8 0 0 1-1.2-2.1l5.4-3.7 5.3-3.4 1 .6c.7.4 1.2 1.1 1.3 1.6l.2 1-12.5 10.6a289 289 0 0 0-12.5 11c0 .5-.9 1.2 14.1-11.6 6.5-5.5 14.3-12.4 17.3-15.3l5.4-5.2-.8-.6-.9-.6 1.1.4 1.2.3.7-1 2.7-2.2 1.8-1.3-.3 1.4-.2 1.4 1 1.9c.5 1 1 1.9 1.3 1.9.1 0-.2-.9-.7-1.9l-1-1.8 7-2.7 7-2.7.9.7.8.7v1.2c0 2.6-4.4 9.2-6.2 9.5-1.1.2-5 3-5 3.6v.6h-1.8l-.4 1c-.5 1.4-.5 1.6.6 1.6h.8l5-4 5-3.9v-1.3h.8a26 26 0 0 0 7.2-5.6c1-.8 2-1.6 2.2-1.6.3 0 1.6-.9 2.8-2l2-2 2.6-.1 2.5-.1 3.1-1.8 3.2-2 1 1 1 .8-.4 3.6c-.7 7-1.2 10.2-1.8 11.3-1 2-2.8 3.8-3.6 3.8-.9 0-2.5 1.1-5 3.4-.6.6-1.3 1.1-1.4 1.1-.2 0-1.1.7-2.1 1.7-1 .9-2.1 1.6-2.6 1.6h-.8l-.8 1.6-.9 1.7-1.2.4-1.2.3-1 2-1 1.8h-1.6c-.2 0-1.5 1-2.9 2.5l-5.2 5-2.8 2.5-1-.9c-1-.9-1-1-2.5 2.9l-1.1 3-1.3.7-1.2.7v1.8l-7.7-3.1-7.8-3.2-5.2-1.4-5.3-1.4-6.7-.4-6.7-.4-1.2 1.2-1.2 1-.6-.5-.5-.5.4.7.4.8 8 .3 8.1.4 4.8 1.3c2.6.8 8 2.7 11.7 4.2l7 2.6.3 1 .3.8-1.6 4.4-1.5 4.3-.7.3-.8.2-1-1Z" fill="#F3C010"/><path d="m75.1 360.7-1.3-3-.3-43.8-.4-43.8H61.2l-2.1-2.2-2.2-2.2v-13.4l1.2-3.9 1.2-4 3.4-2c4.4-2.8 6.2-3.4 3.6-1.3l-2.2 1.7h1c.7 0 3.5-.7 6.3-1.7l5-1.7.8-4c.3-2.2 2.3-10.8 4.2-19.3l3.7-15.4 5-15c3-8.4 8.2-22.8 11.9-32l6.6-17 9.5-19 9.6-19 8.7-13.1a231 231 0 0 1 30.5-38.4l8.4-8.4 7.1-4.7 7.1-4.7 5.8-1.6 6-1.7 10 .4 10.3.3 3.4 3.3 3.5 3.3 2.6 5c1.5 2.9 3.4 8.1 4.3 11.5l1.6 6.3 1.2 18.5 1.2 18.5-.6 15.8c-1 20.9-2.2 30.5-6.7 53.6l-3.8 19.6 16.6.1 16.7-.2-12.6 1a484 484 0 0 0-17.1 1.6l-4.7.6v6.6l4.7-.7c2.5-.5 5-1.1 5.6-1.5l1-.5 26.3.2 26.3.2 4 1.1 4 1 3.2 3.7 3.3 3.7.8 4.2.6 4.3-1 3-1.2 2.8-4.3 2.1A70.3 70.3 0 0 1 288 220l-8 2.2-9.8 1c-5.3.7-18.8 1.6-29.6 2l-19.8.5-1.2 6.2c-2.8 14.1-11 89.5-11.2 102.6v5.8l-1-2.8-1.3-2.7.8-9.8c.3-5.3 1-13.7 1.6-18.5l2.8-26.6a664 664 0 0 1 6.7-52l.6-2.5h-34.2l-3-1.6-3.2-1.5-.7-1.8c-.3-1-.6-4-.6-6.6V209l1.6-3 1.5-3.2 4.7-4 4.6-3.8h-16.8l-6.2 2.1c-3.4 1.2-6.3 2-6.6 1.8-.2-.2 2.5-1.7 6.1-3.3l6.5-2.8h21.8l5.8-2.7 6-2.6 9.7-2.4c5.5-1.2 10-2.4 10-2.5.6-.6 6.9-33.1 8.8-45.4l1.9-12.4V95.9l-.1-28.8-1.2-8.3-1.3-8.4-2.3-6.2-2.3-6.2-4.7-4.9-4.8-4.9-11.8.5-11.8.4-6 3c-24 12.4-52.4 48.7-74 94a494 494 0 0 0-36.7 109l-.7 3.4 2-.9a175 175 0 0 1 27.5-6.7l7-1.2H130l14.8.2 1.4 1.4 1.5 1.4 1 4.7 1 4.7-1.1 3.6-1.2 3.5-3.8 2.9a96.8 96.8 0 0 1-12.3 7l-8.4 4.3-8.2 2.2C105.5 268 91 270 82 270h-6.3l-.7 13.3-.8 13.4.6 29.8.4 30 1.2 3.6c1.4 4.2.7 4.5-1.2.5Zm21.6-94c5.5-.6 11.8-1.6 14.2-2.3l4.4-1.3-5.7-.8-5.7-.7-3.7-2.3a50.8 50.8 0 0 1-14.4-15.4c-2.8-5.4-1.3-4.9 2.5 1l3.5 5.2 5.8 4.5 5.8 4.5 5.9 1.3 5.9 1.2 1.3-1.9 1.3-1.8.8-8 .7-8-.7-4.5-.8-4.5-1.4-.6-1.6-.6-12 2.3-12 2.4-6 2.3-6 2.3-.6 2.3a251 251 0 0 0-2.8 22v2.6h5.8c3 0 10.2-.6 15.5-1.1Zm167.2-45 15.4-1.5 8.6-2.4c4.7-1.3 10-3.1 11.7-4l3-1.5 1.3-2.6 1.2-2.5-.8-3.7-.7-3.7-3.9-3.9-3.8-3.7-25.7-.3-25.5-.3V202l-1.7 5.7-1.7 5.7-2.2 1.2-2.3 1.2-7.3-.5-7.2-.3-.3 4.1-.4 4h26.9l15.4-1.5Z" fill="#fff"/><path d="m161.3 289.9-.7-.4h-.6l-.7.2-.4-.3-.5-.2-.2-.5-.2-.5-.8.4-.8.4h-.5c-.4 0-.8.1-1 .3l-.5.2.5-.5c.3-.3 1-1.1 1.4-1.8l1-1.3v-.7l.2-.6-.4-.3-.3-.3-.1.3-.1.2h-.7l.4-.2.4-.2h-.9l-.4.3-.5.3.1.2.2.2-.4-.1-.3-.1v.6l-.3.2-.4.3.3-.3c.5-.6.1-.6-.5 0l-.5.5-.2-.1v-.1l.2-.5c.1-.3.5-.7.8-1l.6-.6-.2-.2-.3-.3.5-.3.4-.3v-1h-.2l-.6.4-.4.4.1.5v.5-.4l-.2-.4-.6.4-.5.5-.1-.4-.2-.5v-.2h.3l.3.2.2-.5.2-.5-.2-.1-.2-.1.2-.4v-.4l-.6.3-.8.4v.3l-.2-.1-.3-.2.2.5.1 1.2v.7l-.3.3c-.4.4-.5.4-.7-.5l-.2-.7.1-.6c0-.3.3-.6.4-.8l.3-.4v-.3c0-.5 0-.8.7-1.5l.8-.7.2.1.1.1.2-.2.4-.2h.3l-.1.2-.1.2h.1l.5.1h.4l.4-.6.4-.6 1-.8 1.1-.8.2.2.3.2-.6.4-.6.5h.2v.2l.6-.2.4-.3-.3.3-.4.5v.3l.5-.1.6-.3.5-.2h.3l-.3.5-.2.5.2.3.3.3h.8v-.8l.2-.1.2-.1v-.2l-.2-.2.3-.1.4-.1-.1-.2-.2-.1 1-1 1-1h.9l-.5.7-.6.7h-.1l.1.4.2.6v.3h-.2l-.2-.1v-.4l.1-.4-.2.1-.2.2v.4l.3.6.4-.2.3-.3-.1-.1-.1-.2h.5l.8-.9 1.4-1.5.7-.7.4.3.5.3.2-.2.1-.1-.1.2-.2.3.4.2.3.3.3-.2.3-.1v.2l-.2.2h2.2l.2-.3.3-.3-.1-.2-.5-.2h-.3l.2.2.1.2-.8-.3-1-.3h-.2v-.3l-.2-.4 1.3.1h1.2l.2-.1.3-.2v.2l-.7.4-.7.3h1.1l.4-.4.3-.4-.1-.3-.1-.4h-.6v-.6h-.7l.3-.4.2-.4h.1l.2.2.2-.3.4-.8.1-.6-.3-.4-.3-.4.1-.6.1-.6h-.5l.2.2.2.3-.4-.3-.3-.3-.2.2h-.2l-.1-.5-.1-.7v-.3l.2-.4-.2.4a3 3 0 0 1-.8.6l-.5.4-.3-.3-.3-.6a8 8 0 0 1 1-2l.2-.5v-.4h-2.1v-.4h-.6l.1-.2.1-.2h-1.1l-.4.3-.7.3h-.3v-.6h-1.5l-1.4.1-.1.3v.2l.6.2c.7.3.7.6.2.8l-.3.2-.8-.3-1.3-.2h-.5l-.2-.4-.2-.4-.5-.1-.4-.1v.3h-1.1l.2.3c.2.1.3.3.3.4 0 .3-.3.2-1-.3l-.5-.5.1-.5.2-.6h-.5l.2-.4.2-.4v-.5l-.2-.5-.6.7-.6.8c0 .3-.7 1-1 1V262l-.3.1c-.2 0-.3.2-.3.2 0 .1 0 .4-.2.7l-.3.4h-.8v-.7l-.3.5-.2.4h-.5v-1.1l-.7 1.2c-.3.7-.7 1.4-1 1.6a1 1 0 0 0-.2.6v.2l-.8-.1-.8-.1-.2-.3-.2-.3-.2.3-.4.8c0 .3-.4 1.2-.7 1.9-.4.7-.6 1.4-.6 1.6l-.2.4-.3.2.1.1.2.2-.3.2h-.2v1l-.4.5a33.4 33.4 0 0 0-2.4 2.9l-1 1.2c-.4.5-.7.6-.7.2l1-1.7c.5-.8 1-1.7 1-2l.8-2 .6-1.7.1-.4h-.5l.1-1.2.1-1.3-.2.2-.3.6-.6 1.5-.8 1.8-1.4 3.7c-.2.3-.4 1-.4 1.6l-.2 1h-.2l-.2.2v1h-.1c-.1.1-.4.6-.5 1.1l-.4 1h1l.5-.9.6-1c0-.1 0-.3.2-.3l.3-.2-.2.3v.4h.3v-.5l.1.1.1.1-.1.3-.2.3h-.6v.5l-.2.1-.3.2v.5l.2.5-.4.8-.4 1v-1.6l-.3-.2-.2-.1-.2.3c-.1.2-.3.6-.3 1l-.1.8-.3-.1-.2-.1.1.2.2.2h-.4l-.5.2.1.2.2.2-.4.3-.3.3.1-.4.2-.4-.6.4-.6.4-.2-.3-.2-.3-.6.3c-.4.2-1 .4-1.4.4l-.8.2-.2-.5-.3-.4-.3.3-.3.4h-.6l-.6.2v-.7l-.6.4-.6.3h-1.2v-1.4l1.2-1.8 1.2-1.8.2-1a17 17 0 0 1 1.5-3.6l.4-.6.4.1h.3l.4-.4.3-.6 1-2.3 1-2v-1.3l.2-1.3-.3-.3-.2-.2.1-.4.1-.3h-.4l-.4-.2.2.9.2.8v1.1l-.1 1.1-.4.4-.3.3-.2-.2-.2-.2-.2-1.3a25 25 0 0 1 0-5.3l.2-.4-.3.2-.3.2.3-.4.3-.3-.1-.2-.2-.2 2.9-2.9c1.5-1.5 3.2-3.3 3.6-3.9l.8-1h.5v.3l.2.6.1.1.5-.4 1.2-.7.8-.4.4.1.8.2c.3.2.6.2 1.4.1h.2V252l1.3-1.8a30 30 0 0 1 4.7-5.7 19 19 0 0 1 4-3.6c.1 0 .3 0 .4-.3l.2-.3-.2-.7-.2-.7-.6.9-.6.8-.3-.3a2 2 0 0 1-1-1.1v-.3l.5-.1.4-.1v-.4h.6v-.4l.2.1.2.1.1-.3.1-.3h.2c.3.1 1.8-.8 2.5-1.4l.8-.5.3-.1c0-.1.3-.3.7-.4l.7-.3h1.6l-.4-.2-.4-.2h.3l.6.3.3.2v-.2l.3-.3h.2v.2l-.2.2h.2l.4-.3.3-.3h-.3l-.3-.2h.6l.6.2.3-.3.2-.4.5.3.4.2v-.2l.2.2.2.3.4-.5c.5-.6.5-.8 0-1.3l-.4-.4h.2l.8.5.5.4-.2-.4-.3-.5-.5-.2-.5-.3-.1.3-.1.2h-.3a.5.5 0 0 1-.4-.2l-.2-.2h.4l.3.2v-.2s-.1-.2-.3-.2h-.3l.2-.4.1-.2.5.2.4.3.3-.3.3-.2.5.1.5.2-.2-.3v-.3h-1.2l.2-.2.1-.2-.5.2-.4.1-.2-.2-.2-.3v.5h-.8v-.2l-.8-.3-.7-.1.1.1.1.2H160l.5-.1.5-.2h-1l.2-.2v-.1h2.7v.1l.2-.1.2-.2-.1-.2-.2-.2.4.1.3.1c0-.2-.5-.8-.7-.8l-.5-.1h-2.1v-.6l1.3-.4 1.3-.3 3.5-.1 3.6-.2v.2l.6.4.5.1v-1h1.6l.7.2-.2.2v.2h.1v3l-.2 1.4-.3 1.5v3.3l-.2.2h-.2v.9l.2.7-.3-.3a3 3 0 0 1-.7-.8l-.3-.6-.5.1-.5.1-.3-.7-.3-.7-.2-1.6-.1-1.6-.6-.6-.6-.6v.7c-.1.1 0 .4.1.5l.4.7v.3l.1-.5v-.4l-.2-.1h-.3l.4-.2.3-.2v.2l-.2.2h.4v1.8l-.3-.1h-.2v.8l.1-.3.3-.3-.1.3-.1.3h-.5l-.4-.1v.2l.3.3.3.1-.1.5-.5.9-.7 1.3-.3.9.3-.3.3-.2v.4h-.7l-.4.3-.2.2v-.3l.2-.3-.3-.2h-.3v1.2l-.4-.2-.4-.3v.6h-.3l-.4-.2-.2.3-.3.4h-1.6v.4h.6v-.4l.3.1.4.1-.4.3-.4.3.7-.1.7-.2.3.4.3.4-.1-.4-.2-.4.3.2.2.3-.2.3-.3.3h-.1l-.1-.4v-.3h-.4l-.4-.1v.7l-.1-.2-.1-.3h-.8v.2l.2.3.2.2v-.5h.1l.2.2-.2.2-.1.3-.3-.3-.3-.2-.6.5-.6.4v.3l.2.2-.3.3-.3.2-.2-.2-.1-.2h-.2l-.2.2.1.2.2.2-.4.4-.3.4v.2l.1.3h-.6l-.5.1.6-.6.7-.6-.2-.1-.1-.2-.3.4-.5.3c-.1 0-.5.3-.8.7-.3.3-.5.5-.4.3l.2-.3-.4.4c-.5.5-.6.7-.2.4l-.7.8-1 .8h.4l.4-.2v.2l-.2.3h-.4v.8l-.4.1-.3.2.2-.3.2-.3-.2-.3-.3-.2.3.1.3.2v-.3l-.2-.3.3-.3.3-.4h-.2l-1 .8-.8.8h-.5l.1.8v.7h-.2l-.4-.2-.1-.2.2-.2.2-.1-.1.3-.2.2.2-.1.3-.2-.2-.3v-.3l-.5.4-.4.3.1.2.1.2-.4.3c-.6.4-.4.4.3 0l.6-.2v.2h.2l-.5.6-.2.2.6-.3c.2 0 .3-.1.4-.3l.2-.3.5-.1h.4v.1l-.2.2-.2-.1-.3-.2.1.5.2.4h-.5v.4l.1.4-.2.1-.2.1-.1-.3-.1-.3.2.2.2.1-.1-.3-.2-.2-.6.6c-.3.4-.7.7-.8.7h-.2v.1l.2.1-.2.3-.2.3.4.2.4.3-.1.3-.1.2h.4l.4-.7.4-.7h.8l-.3-.2-.3-.2h1l.2.3.1.7v.4h.2l.6-.6.4-.6h.5v-.5l.4.6c.9 1 1.1 1.1 1.3.4l.2-.6.3.2h.5l.2.4.1.4.3-.6.3-.5.3.1.2.2v.4l-.2.5-.3-.1-.3-.2-.1.5-.1.4h-.5l.6.4.5.3c0 .2-.5 0-.6-.2l-.2-.2v.6l-.4-.3-.3-.3.1.3.2.2-.3.1h-.2l.2.4.4.3s.3 0 .4.2l.3.3-.2.3-.2.4-.1.8-.2.6.4.5.3.5h.3c.2 0 .4-.1.4-.3l.2-.2-.3.2-.2.1.1-.2.1-.2h.6c.3.2.8.2 1 .3h.6l.4-.4.6-.3c.2 0 .2.3 0 .4l-.2.1v1.8h-.5l-.1.3-.1.3-.3-.1-.2-.1.3.3.5.4h.2l-.3-.3-.3-.2h.8l.3-.2.3-.3-.2.4-.3.3.2.1.1.2.3-.4.3-.5v-.2h-.7v-.2l.2-.2h.7l-.1-.2-.1-.1.4-.5.5-.7s0-.2.2-.3l.2-.2-.2.3-.1.3h.4l-.1.5-.1.5.1.2.1.2.5-.3.4-.3h.5l.5.1.3-.4.4-.3h-1.2l.4-.4.5-.5v-.6l.3.1.3.1v-.2l-.2-.2.2-.3.3-.3-.2-.1v-.2l-.6.5-.4.4-.2-.1-.1-.1.3-.3.4-.3h-.5l-.5.4-.5.5.4-.1.3-.2.1.4.1.4-.3-.1-.3-.2-.4.4-.3.3v.1l.2.2h-.4l-.2-.4v-.3h.8l-.2-.2v-.2l-.3.1-.2.2.1-.2.1-.3.3.1.3.2v-.4l-.2-.4c-.3-.3-.2-.5.2-.6l.4-.1.5.2.6.2.1-.2.1-.2h.3l.2.1.5-.5.6-.5-.6.3a2 2 0 0 1-.6.4h-.2l.5-.6.4-.7h.6l-.2.3-.1.3.3-.3.2-.2-.2-.4-.3-.3-.2.1-.2.1v-.6l.6.4.5.5v.2l.2-.2.4-.5.2-.4-.2.1-.3.2.2-.3.1-.2h1l.1-.2.5-.2h.3v.8h.4v-.4l-.2-.4.4.1.4.1.5-.2.6-.3.1.3.3.3v-.5h.8c.4 0 1-.1 1.3-.3l.6-.2.1.2c0 .2.2.3.3.3h.2l-.2-.3-.1-.2.4.1.5.1.1-.2.1-.1h1.3l-.5.2-.5.1h.9v.7h.5v-.6h.4l.5.2-.3-.1-.3-.2.3-.3.2-.3h1.4l.1-.2.5-.2h.2l1 .9.8.8v-.2l.2-.2h2.4l.2.2.2.3 2 .2h2l.6-.1.6-.2.1.2.1.2h-.5c-.8.2-3.9.2-5.6 0h-1.4l-.3-.2-.2-.2-.8.2-.8.2h1l-.4.2-.5.2v.5l.3-.2c0-.1.5-.3.8-.3l.7-.2.2.2.2.5v.4l-.5-.2h-.6l.5.1.6.3.3-.1.4-.1v.4l.3-.1.2-.1.4.3.4.2-.2.3-.1.2h-.6c-.3 0-1 0-1.6.2l-3.6.6-2.5.4h-.3l-.4-.2-.4.4-.5.5H177l-.3.4-.3.3-1.3.3-1.4.3v-.3l-.1-.2-1.2.4-1.4.4h-.3v.2c0 .1.1.3.3.3l.3.2v1.4h-1.6l-.1.2-.1.4h.3l.4.1-.6.4-.6.3-1 .2-1 .2h2.5l.3-.3.3-.3h1.2v.8l.1.7-.3.3-.3.3.3-.1.2-.2.4.3.3.3.7-.3.7-.2v-.4l-.4-.2h-.5v-.6l1-.4 1-.4h-.4l-.5-.1v-1h1v1l1-.4.8-.4h1.1v.7h.6l.8-.3v-.2h1.1l.1.2.1.2h-.4l.1.8.1.7-.4-.4-.5-.8v-.2l-.3.2-.3.3h.2l.3.2v.8l-.4-.1-.5-.1v.9l-.5 1-.8 1.5v.3h.9l.4-.8c.5-1 .6-1 1-.5l.4.3.4-.5.4-1v-.3l1-.8.9-.7.6.1.6.1.3-.2.3-.2-.1-.3-.1-.3 1.5-.1 1.6-.2.4.5.4.4h1.4l.1.2.2.3h-.2l-.3.2.1.1.1.2H188v-.2l-.2-.3-.2.2-.1.1.3.6.4.6.5-.1h.6l.7-.5.7-.4.2.2.2.2.7-.1.7-.2c.2-.3 2.4-.9 3.5-1l1-.1.2.3v.4-.4l.1-.5h.5c.2-.2 1.1-.2 2-.2h1.4v1.4h.4l1.2.4.7.4-.2.1h-.3l.2.3.1.3.6-.1h.6l.2.3.3.4-.5.5-.5.5h-.7v1.6l-.3.3-.3.2v-.5l-.3.3-.3.2v-.1l-.2-.2v.5h-.7l.2-.2.1-.3-.3.2-.3.3h-1.2l-1.1-.1v.1l.2.2h-1.5l-.7.2.6-.3.6-.3h-.5l-1.5.3-1 .2-.2.4-.2.4.2.1c.1 0 .4 0 .7-.3l.6-.3v1l-1 .4-.8.5h-.9l-.5.6-.6.6-1 .6a80.6 80.6 0 0 0-8 4.6l-2 1-.3.5-.2.5.5-.1.6-.1-.4.4-.3.3.3-.1.3-.2v.2l-.3.5-.2.4h-.7l.3.1.2.3v.2h-.3l-.2-.2-.1.5-.1.5.3-.1.3-.1-.4.3-.4.3h-.7l.1.6.3 1 .2.5h-2l-.7-.7-.8-.7v-.7l.1-.6h-.2l-.7.5-1 1-.7.4-.1.4-.1.3-.6.4-2 1.7-1.4 1.3-.2-.1-.2-.1v-.9l.4-.5.5-.7v-.2l-.7.6-.7.7h-.5l-.4-.6-.3-.6-.6.1h-.5l-.3.5-.6.4h-.2v.5l-.2.5h-.2l-.2-.2-.4.5c-.2.3-.4.5-.6.5h-.2l-.2.5-.2.4-.5.2-.6.1-.7-.3Z" fill="#F3C010"/><path d="m190 363.3-.5-.3h-.2l-.2.1v-.2h-.5v.2h.1-.2a4 4 0 0 0-.6.2h-.3l-.5-.3-1-.4-.6-.2h-.1c-.1.2-.8.4-.9.4l-1-.5c-.8-.6-1.1-.7-1.1-.5l-.5.1-.5.1h-.2l-.2-.1v-.3h-.3v-.3h-.5v-.1l-.1-.2h-1.5l-.2-.3-.2-.3-.4-.3-.4-.2h-1l-.4-.4-.2-.3h-.3v-.3h-.3l-.3.1-.2-.4c-.2-.1-.3-.4-.3-.5v-.1h-.3l-.3-.1-.3-.2-.1-.3v-.3h-.7v-.1l.2-.1h-.3l-.2-.1v-.2c0-.3-.3-.7-.3-.5h-.3l-.2-.2v-.2l.1-.2h-.4v-.3h-.3v-.7h-.3l-.2-.2v-.5l-.2-.1-.2-.2v-.2l-.2-.5-.2-.2h-.1l-.1.1-.2-.2-.2-.3h-.2l.2-.2h.2l-.4-.3-.4-.3v-.5h-.3v-.4h-.3v-.6l-.5-.2-.6-.2h-.6l-.1.2-.1.2h-.7l-.3-.1h-.5l-.6.1-.4-.2-.5-.1v-.2h-.3v-.7l-.1-.4-.3-.4h-.3l-.1-.3-.2-.3-1 .2h-1.3l-.4.1-.1.2-.1.2-.1.1h-.2v.3l-.4.1-.4.2v.4l.2.5-.3.1-.2.2v.2l.1.2-.1.1-1.2.3-1 .1-.4.2-1.3.4-.8.2v.7l-.1.3-.1-.1h-.2v.1h-.6c-.6 0-2 .3-2.5.5l-.5.2v.1l-.5.2-1 .5-.5.4-.6.2-.9.4-.5.2h-.2l-.1.2h-.3l-.4-.2h-.1v-.2h-.5l-.7.2h-.4l-.3-.2v-.4l-.3.1-.9.1h-.8l-.2-.4h-.2l-.1.2-.2-.1-.2-.1h-.7v-.2h-.6v.2h-.5v-.2l-.1-.1h-2.7v-.1c0-.1 0-.3-.2-.3l-.2-.3-.1-.5-.2-.3.2-.2.2-.3h-.8.1l.1.2-.4-.1h-.4v.1l-.5.1-.5.2c0 .1 0 .2-.2.2l-.6.3-.2.2H129l-.5.2h-.3c-.4-.1-.7-.3-.8-.6a7 7 0 0 0-.8-1.1l-.7-.9v-.4h-.9l-.4-.1-.4-.2v-.5c0-.3 0-.8-.2-1l-.2-1v-.6l-.3-.4-.5-.6-.2-.3v-1.1l.4-.5a38.2 38.2 0 0 1 3-3l.3-.4.1-.4.1-.4-.3.6-.3.6-1.5 1.5a20 20 0 0 1-1.7 1.5v-2l-.1-2v-.2l.8-.2a2 2 0 0 0 1-.3h.2l.7-.1h.9l.3.2v-.3h-2l-.2-.1-.1-.1h-1.9l-1.8-.1v-.3l.7-.4.8-.4.5-.4.4-.4-.2-.2-.1-.2.4-.3.4-.2h.6l.5-.3.7-.6.2-.3-.3-.3-.3-.3.9-.6 1-.6.1-.2.8-.7.5-.4c0-.2 1.1-1.4 2.3-2.5l.9-.7.9-.8.5-.4v-.6l-.4-.3-.5-.4v-.1l.2-.1-.3-.2-.3-.2h-.4l-1.2.2-.8.2h-.8l-.8-.1v.1h-1.5l-.3-.3-.2-.4h-.3l-.3.1-.2-.2-.3-.2-.3-.1-1-.1h-1l-1.2-.3-1-.1-.2-.2h-.6v-1l.2-1 .1-.3.2-.3.1-1.4.2-1.3h-.2l-.2-.1.2-.7v-.7h-.3V316h-.1l.2-.2.1-.1h-.6l.3-.1h.2l-.4-.2-.4-.2H116v.2l-.4-.1-.4-.1h-.2l-.1-.4a57.7 57.7 0 0 0-.8-1.7l-.3-.4-.1-.6a4 4 0 0 0-.2-.7v-.6h-.6l.1-.3.1-.3-.2.3-.2.3-.3-.1-.3-.2-.6-.1h-.4l-.4-.2-.3-.2v-.3l.3-.5.1-.3.1-.7c0-.7.3-1.4.5-1.7h.2l-.1-.3v-.3h.2l-.2-.5-.2-.7-.1-.1h-.2v-.2l-.1-.2-.3-.3-.3-.2h-.2l-.1-.2c-.2-.4-.1-.6.2-.7.2 0 .6-.4 1-.7l.7-.5v-.6h-.2v-.3l-.2-.3h.1l.7-.4 1-.4.4-.2-.2-.4-.1-.4.2-.2.8-.2c.5-.2 1.7-.6 2-.9l.5-.2h.2v-.6h-.3l.1-.2.2-.3h-.1l-.1-.1h.2l.1.1.1-.2h.7l1.3-.3.8-.2h.3v-.6l.1-.3v-.2l.7-.2.6-.2v-.3l-.1-.3.4-.3.5-.2.6-.3.4-.2v-.7l.2-.2.6-.1.6-.1.2-.2.4-.1h.2v-.2l.2-.1h-.2l.1-.3.2-.3 1-.3h.3l.3-.2.6-.1.6-.2.4-.2v-.8l.4-.2.3-.1h1l1-.2h.2l.2-.2h-.4l.2-.2.2-.3h2.6v-.4l.1-.3h1.5l.5.1h3.5l1.3.2h.6l1-.2h.2v.1h.3l.2.2h.6l-.2-.2h1l.2.1 1.4.1h1.3v.2h.4l.3-.2.5-.1.8-.2.4-.1-.1-.1h-.1 1.3l.2.4.2.3.8.6 1 .6.4.5.5.6.3.3.6.6.2.3.3-.2.3-.2.4.1 1.2.1h.7l.4.2h.3v.4l.2-.2.9-.7.7-.5h.5v-.2h-.1l.4-.3.8-.4h.2l.2-.3.1-.3h1l-.1-.2h.7l.2-.1.3-.2h.3l1.2.2.9.1.4-.3.5-.3h.5-.2l.1-.3.2-.2h.4v-.3h1.1v.4h.6l.4.3.6.2.7.4.7.3h.7l.1.1.1.2.2-.1.6-.2h1.3l1.9.2 3.4.4h.9v.2h.9l.1.3.3-.1h.2v2l.1-.5.1-.4.6-.1 1.2-.1h.7v-.3h.2l.7-.1h.3v.1l.6.2.5.2.5.4 1.3 1 .9.7.3.1h1.1v.2h.4v-.3l.2.2.1.1v-.2l.1-.3h1.2v-.1h.3c.1 0 .6 0 1 .2l.8.1v2.4l-.1.1h-.2l.3.6.2.6.2 1v1l-.2.7-.1.7-.3.3c-.2.1-.3.3-.3.4v.1h-.2c-.1 0-.5.6-.5.9v.1l-.3.1h-.4v.2h-.8l-.1-.3-.1-.3-.3-.1c-.3-.2-.4-.2-.5 0l-.1.3h-.3v.7l-.2.1h-.1v.9h-.2v.6h.6v.2h.7l.3-.4.3-.4-.2-.2-.2-.3v-.3l.2-.4h.4l.4.1.1.4.1.4h.2l.3.3.2.2h.3l.4.1v.4l-.2.1-.4.2v.3h-.4v.2h.1-.1l-.6.5-.4.4h.2l.3.2v.2h-.1l-.1-.1-.2.1-.3.1.2-.1.2-.2h-.1l-.3.1v.2h.1l.2.2h-.8v-.5h.2l.2-.1v-.4l.1-.2.3-.3h.4v-.6h-.5v.3l-.4.1h-.3v.4h-.7v.6h-.4l-.3.1-.2.2-.2.3v.1l-.2.1-.6.2h-.3v-.1l.3-.3.1-.1-.3-.2-.5-.2-.2-.1h-1.2l-.1-.1-.2-.2v-.5l.2-.3.7-.6.5-.5.4-.4.4-.4h-.2l-.6.5-.7.5h-.4v.2h-.8l-1.2-.1h-.5v-.4l.6-.4.6-.3.5-.4.4-.5v-.3l-.1-.4-.4.3-.4.2h-.7l-1 .1-.6.1h-.6l-.6.3-.7.1h-1.1v-.3l.2-.4h-.2l-.5.3-.5.3h-.5v.3l-1 .3-1.2.3h-.5v-.2l.3-.2.4-.1h.1v-.2l-.1-.1.3-.2.3-.2-.2.2.3-.2.6-.4h.5v-.4h.3l.7-.5.5-.4-.4.2-.4.2h-1.1l-.6.2-.5.2-.4.2h-.4l-.6.4-1.1.6a8.7 8.7 0 0 0-2.3 1.4l-.7.6h-.8v-.4l-.2-.4.1-.3.1-.2.8-.4.8-.4h-.1l-.1-.2h.1l.2.1.7-.3c.8-.4 1.5-.8 1.5-1l-.2.1h-.2.2c.3-.3.4-.3.3-.1l.1-.1.3-.2h-.1v-.2h.1l.2.1 1-.6 1-.6h.4l.3.1v-.6l.2-.2h.2l-.2-.1h-.5l-.6.1h-.3v-.7l.2-.2h.9v-.4h-.6l-.5.1h-.1l-.1-.2-1.3 1-1.2.8-.7.4a3 3 0 0 1-.8.2l-.2.1-.7.5-.8.3h-.8v.6l-1 .5-1 .5v.2h-.6l-.7.2v.2c-.2.4-1.9 1.6-2.2 1.6h-.2l-2 1.2-1.8 1.2v.1h.2l-.4.3a2 2 0 0 1-.6.2h-.2v.4h-.2l-.2.2h-.2l-.1-.1v.4l-.4.2-.4.2.1-.3-.2.2-.5.2h-.2v-.8l1-.6 3.5-2.5c.5-.5 3.7-2.7 5.1-3.6a12 12 0 0 1 2.6-1.2h.6v-.5l.1.3.2.3v-.6l.6-.4 2-1.2 1.6-1 .3-.4.3-.5h-.3l-.3.2-.5.2-.6.3-1 .4-.6.4-1.1.5-1 .5-.7.3c-.8.3-1.9.9-3.7 2l-1.4.9h.1v.1h-.2l-1.4.8-1 .7.3-.1-.3.2-.4.2h-.2l-.4.3-.6.5-.5.4-.3.2.3-.1.3-.2-.2.2-.4.4-.3.1.2-.2.3-.2-.3.2-.3.1v.1l.2.2h-.2l-.1-.1-.2.1-1 1-1 .7-1 1.2c-.5.6-1 1.4-1.3 1.6l-.4.7v.1h.2l1.1-.7 1-.7h.7v.3h.1a3 3 0 0 1 1.1.7l-.2.2-.2.1v.4l-1 .6-1 .6v.3l-.3.2-.4.3v.1h-.2l-.1.3-.6.5-.4.3v.3l-.3.3h-.1v.2l.1.1-.2.1h-.2.1c.1-.1.1-.2 0-.2l-1.4 1.5v.2h-.2l-.4.6-.2.3h.2v.2h-.1.5l.5-.1.7-.4c.3-.3.6-.4.7-.4l.8-.5 1-.7.6-.3v-.1l.4-.5.4-.4v-.1l.5-.3.7-.3h.3v-.2h-.2l-.2.1v-.2h.4l.3.1.1-.1v-.1.1l.1.1.3-.2.4-.3h1.2v.6l-.3.2s-.2.1-.1.2l-.4.1-.5.2-.2.2-.5.5-.3.1.2-.2.3-.2-.4.2-.4.2h-.2v-.1.1l.1.1-.5.4c-.7.4-1.2 1-1.2 1.1 0 0 0 .2-.2.2h-.1v.3l.2.2-.2.2-.2.2h.2l.2-.2v.4l-.1.3h.9-.1l-.1-.1.2-.1.3-.2-.1.2.8-.5 1-.6v-.3h.3v-.2l-.2-.2.2-.1h.2-.1c-.2.2 0 .2.6-.2l1.4-.8.3-.1.2-.2v.1l-.2.2.4-.2 1-.6.3-.1h.3l.2-.2.3-.2h.3a5 5 0 0 0 1-.4l1-.5.5-.2h.7l.8-.1v.4l-.2.4-1.6.8-.1.2.3-.2-.6.4-.8.5v.4h.3v.6l-.3.2h-.4l.2-.1-.2.1c-.6.5-.6.5-.2.6h.3v.4l-.2.3-.1.4v.3l-1 .5-.6.4h.2l-.3.3-.3.1.2-.1.1-.2-.4.3-1.2 1-.7.6.2.1v.1l-.2-.1-.2.1-.2.4v.4h-.3l-.2-.1v.7l-.2.5h.5v.7l-.1.2-.2.3h-1v-.2h-.3l-.4-.1-.2-.2h-.6l-.5-.2-.6-.2h-.1l.4.4a13 13 0 0 0 2.6 1.7l.1.1h1.1v-.7l.2-.3.3-.2v-.6h.6l.6-.1-.1-.1-.2-.2v-.6l.1-.6.2-.1.5-.1h.3v.5l-.2.5h.3l.1.3.2.4v-.2l.1-.2h.8l.7.1.2-.2.8-.6.5-.3h-.3l-.3.1h.1l.1-.1h1.2l.2.2.1.5v.3-.2l-.2-.1v.4l-.8.5-.8.5h-.3l.1-.2h.4l.2-.1.2-.2h-.4l-.7.5-.6.4.2.1-.4.1-.4.2.3-.2.2-.2-.3.2-.4.1h-.7l.2.1h.2v.5h-.6v.4l.1.4h-.1l-.2.1.1-.1.1-.2-.3.1c-.3.2-1.6 1.3-1.6 1.5l-1.3 1-.4.5-.4.5v.3l-.3.6-.2.3v1.1l-.3.5-.3.5h.2l.2.1v1.2l.1.1.3-.1.2-.3.2-.1.4-.7.2-.7v-.4l-.2-.5.3-.4.6-.5.2-.2v-.2l.4-.4 1.8-1.4 1.7-1.4 1-.6.9-.5h.5v-.3l.5-.4.5-.4.2-.3.1-.2h.9-.3l-.3-.2h2v-.1l-.2-.2h.3c.5 0 .3.4-.6 1a4 4 0 0 0-.7.5l-.3.3-.4.2.3-.1.2-.1-.2.1-.2.2h-1.4v.9h-.1l-.2.1-.8.7c-1 .6-1.8 1.3-2.4 2l-.5.7-.1-.1h-.1l.1.1-.5.7-.5.6v.5l-.2.5h.1l.6-.2.4-.2.2-.2.2-.3h.2v-.3h.3v-.3l.8-.7a42 42 0 0 1 3.1-2.5l.2-.3h.5-.1l-.1-.2h.1l.2.2.3-.2.3-.2-.1-.2h.8l-.2-.2.4.2.4.2h1.4-.7v-.4h.1l.2.1.4-.2h.2v.2l-.1.2h.5l-.2.1-.1.2v3.4h-.7.2l.2.3v.2h-.4.1l.1.2-.6.2-.6.2h.5l-.5.1-.4.2h-.7l-.1-.1c-.2-.2-1-.4-1.8-.5h-.6l-.3.2-.4.2v.4l.4.2.5.2h.3v.2h3.3l-.1.2-.4.7-.3.4-.5.2-.4.2-.4-.1-.7-.2-1-.2h-2.6l-.4.2-.4.3v.2l.2.3h.2c.5.2 2 .3 2.7.4h.8l1-.2 1.1-.2v.2l-.1.1.3.1h2.3l.3.2h.1v-.2l-.2-.2h.8v.4h-.6v.3l.2.3.1.2h.7l-.3-.2-.2-.1v-.4h.5l.3-.1v.5h.1l.2.2v.1h-.3l.7.3.7.3h.3l.3-.2v.1l-.2.1h.2s.2 0 .3-.2l.1-.1.4.2.4.2h.2l.2-.1v.5h-.5l.1-.1.2-.2h-.2l-.3.1v.2l-.2-.2-.1-.4v-.1l-.2.1-.2.1v.1l.1.1h-.3v.2l.2.2-.3.2a1 1 0 0 0-.3.4v.2h.6v.3l.1.2h1.1l.2.1.2.2h.6v.2l.1.2h1.1v.1l.1.1h.7l.7.2h.2l.2.2h1.2v.2h1-.2l-.2.3h.4l-.1.1-.1.2h.7l1 .7v.2h.6l.5.5.5.3h.2l.2-.1.2.2.2.3v.1h1v.5h-.3l.2.2h.3l.3-.1v.2h.7l.3.5.3.4h.5l.4-.1v.1l-.2.2.2.1.2.2-.1.3-.1.3h.6v-.2h.9l.1-.1.1-.1h.8v.4h-.2l-.2.2.6-.1.6-.1-.2-.1-.2-.1h2.2v.2l.2.3h.2l.2-.1-.1.3-.2.1h.2l.1-.1-.1.3-.2.2h-.1l-.1-.1-.5.3c-.5.4-.5.6-.5 1.3v.6h.5l.5.1.9-.3.8-.4.3.1.3.1h-.1l-.1-.2h.4v.2l-.1.3-.2.1h.5v.2h.6l.1.2.5.4.3.2-.1.2-.1.1.4.2.4.1-.1.1-.1.1.2.2h.4c.4.1.5.1.6.4l.2.3.7.3.7.4.6.3.7.3.5.5.6.5h.2l.2.1.2.4.3.4v.1l-.1.1.2.2.2.3h-.2l-.1.2.4.1.4.1.4.6.3.5v.7l-.4.2-.3.1v.2l-.1.2h.6l-.1.2v.3h.2l.5.1h.3l.1.2c.3.3.7.5 1.4.8l.5.1-.1.1v.1h.2l.6.2.4.1v.4h-.3v.1l.2.1h-.4l-.2.1h-.9l-.3.2-.3.1h-.6l-.6.2h-1.1v.2h-.3a41.5 41.5 0 0 0-4.1.4h-2.3l-1.8.1-.1.1-.2.1h-.4l-.2.1h-.4l-.5-.2-.3.1-.4.1v.1l.3.2h.1-.6l-.5.1h-.5a6 6 0 0 1-.8-.1l-.3-.1-.3.2-.5.2h-.3l-.7-.1-.7-.2-.4.2-.4.2h-.5l-1.3-.2-.4-.2-.4.2-.5.2h-.5l-.6-.2Z" fill="#305673"/><path d="m149 343.1-.5-.1h-.4v-.7h-.3c-.2.1-.4.1-.4 0h-.8l-.7-.1-.4-.2-.4-.2.1-.2v-.2l-.1.1-.2.2v-.2s0-.2-.2-.2l-.2-.2.1.2v.2l-.2-.2-.2-.2v-.3h-.2l-.1.1-.2-.1-.1-.1v-2.3l.2-.2h-.2l-.2.2v-.4h.2l-.1-.2-.1-.3V335l-.2-.1.1.2.1.2h-.4v.4l-.1-.1-.2-.1v.1l-.3.4-.3.2v-.1l-.1-.1-.4.5-.3.5-.1-.1h-.2l.1.1.1.3-.3-.2h-.2v.1l.2.2-.4-.1c-.2 0-.4-.2-.5-.3l-.2-.2v.4l-.3-.1-.4-.3c-.1-.1-.1-.1-.1 0v.5l-.2.3v.5h-.1v1.1l-.1.3h-.2l-.1-.2v.4H137l-.3-.2-.4-.1v-.4.1l-.2.1-.2-.3-.3-.3-.1-.1-.2-.2v-2.9c.2-.2.4-.8.6-1.4l.2-.7.1.1.1.1v-1.1h.4v-.7h.2v-.2l-.1-.3h.1l.1-.2v.2l-.1.2.3-.4.2-.4v-.3l-.1-.2h.1c.3 0 .3-.2.4-1.1v-1h-.1l-.6.6-.6.7.1.2v.2h-.1l-.2-.1v.4h-.2l-.1-.2v.3l-.2.3.1.2.1.1h-.1l-.2-.2v.2c0 .2 0 .5-.2.8l-.1.6v1h-.2v-.2 1.5l-.2-.1-.1-.2v.3l.1.3-.2-.2-.1.3-.2.3h.4l-.2.1-.2.2-.2-.1-.1-.1v.2l.1.3-.1.5-.2.4.1-.1.2-.1-.2.3-.1.3-.1-.1h-.1l-.3.3-.2.4v.1c.2.2.2 1 .1 1l-.6.1h-.6l-.1-.1-.2-.2-.1.1-.1.1v-.2l-.2-.1-.2.2v-.5.1l-.1.1-.2-.3c-.3-.3-.5-1-.5-1.6v-.3l.2-.2.2-.3v-.6h.1l.2-.2v-.1l-.1-.2h.2l.1-.2v-.6l.2-.2.2-.2v-.7l.2-.1.1-.3v-.6l-.2-.3v-.2h.1l.2.2v-.8h.4v-.3l-.1-.2.2.2v-1.5l-.6-.2-.5-.2-.1.1v-.4l-.1.1-.1.1-.2-.3-.3-.3v-.4c0-.5.3-1 .5-1.3l.3-.3v-.4l-.1-.3h-.4l-.5-.1h-.2l-.1-.8-.2-.8.1-.8v-.8h.3l.1-.2v-.2l-.1-.3.1.1.1.1.2-.6.1-.7c0-.3.3-1 .5-1l.2-.1-.1.2v.2-.2h.2v-.4l-.1-.3.3-.7c.3-1 .3-1 .1-.7l-.1.3h-.1l-.1-.2v.3l.1.2-.3.3-.2.4v-.3l.2-.3-.3.4-.2.3v.3l.1.2-.2-.2v.4l.1.4-.1-.3-.2-.2.1.4v.4l-.2-.1v.5l-.3.5-.7 1.1-.4.6h.2l.2-.2v.2l-.6.6-.5.5h-1.4V322l-.1-1h.1v-1l.2.1h.1v-.2l-.1-.2.2-.1.1-.1v-.4h.2l.2-.2-.1-.2v-.3l.2-.3h.1l.2.2-.1-.2-.1-.2.2-.3c.1-.1.2-.2 0-.1l.5-1.2a8 8 0 0 0 .7-1.4l.2-.4v-.3l-.2-.6-.1-.3v.3l.1.4-.2-.3-.1-.2-.4.6-.3.6-.6.4-.6.3.1-.1h.2l-.1-.1v-.1l-.5.3a2 2 0 0 1-.6.5c-.2 0-.3 0-.4.2v.1h-.1v-1.3c0-.5.7-2.6.8-2.7l.4-1 .2-.9.2-.2.2-.2v-.1l-.2-.2.2-.1.2-.1v-.7l.2-.3.2-.5h-.1l-.4-.4-.3-.4h-.3l-.3.9-.2.9h-.3l.2.1.2.2h-.5V308l.2-.2-.2-.9-.2-.8.1-.4.2-.4v-.7l-.3-.6v.4h-.1l-.4-.2h-.2l.2-.2.3-.1h-.6l-.4.4-.3.5.2-.1.2-.1v.3h-.5v-.5h-.3v.5h-.2v.4l.1-.2h.2l-.4.4-.2.4.1-.3.1-.3-.1-.2-.2.2-.1.4v.2l-.3.2-.2.2h.2l.2-.2-.2.3-.2.4-.1.3-.2.2v1.4h-.7v-1h.1l.3-.2.2-.3-.2-.4v-.4.8h-.2v-.7l-.1-.1-.2-.1.1.2.1.1-.3.6-.3.5h-.6v-.5l-.1-.4h.2l.1.2.1-.4v-.5h.2c0 .1 0 0 .1 0l.3-.5.2-.3h-.2l-.2.2v-.4h.7l.1-.2v-.3l-.1-.3.2-.2.1-.1v.1l-.2.2.2.2.2.3v-.1l.1-.1v-.2l-.3-.5v-.4h.1l.2-.1v-.3l-.2-.2.2.3.2.2v-.6l-.1-.6.2.4c.2.4.2.2 0-.3v-.4l.3-.2.4-.2h-.4v-.5l.1-.4h-.1l-.2.2-.2-.3-.1-.4.2.2.2.1-.3-.4c-.3-.5-.4-.7-.2-.2l.1.2h-.2v-.7h-.1v.2l-.2-.2-.2-.2v.3l.1.3-.1-.1-.2-.1v-.4l-.1-.1v.3h-.4v-.1c0-.1 0-.2.2-.3h.1-.1l-.3.1v.2l-.2-.4-.2-.3-1-.2c-1-.2-1.2-.2-1.4 0v.2-.1l.2-.1.1.2v.1l-.2.1-.7.2-.5.1.2-.2.3-.2-.6.1h-.7.2l.1-.2h-.2l-1.2-.1-1.5-.2h-.5.1l.2.2-.7.2h-.7c-.1-.2-1.1-1-1.3-1l.2.3.2.2h-.3a5 5 0 0 1-.7-.4l-.4-.2h.4v-.2l-.1-.2-.2.1h-.2v-.6h.2v.3h.2v-.4l.2.2.1.2.1-.2v-.3l.3.2.2.1h4.2l.4-.1.4-.2.3.2 1.8.2h1.4l-.9-.2c-1-.3-1-.5 0-.2l.8.2.2.3.2.3.5.1.4.2v-.2l.2-.2v.5h.1l1 .4.7.4v.1l.1.2v-.3l.5.7.5.7.2-.2.2-.2v-.8l.2.2v.2l.3-.3.3-.3v-.2l.3-.7.7-1.4.4-.9v-.1l-.1-.1h.2l.1-.5.2-.4v.1h.2l.4-.6.4-.7.2-.2h.2l.2-.4c0-.3.7-1.3 1.3-2.2l1.2-1.7h.2l.3-.4c.1-.2.3-.4.5-.4h.2v-.5c0-.3.2-.6.3-.7l.1-.3v-.1l-.1-.1.1-.6.2-1v-.4l.3-.6c.2-.3.3-.7.2-.7l.3-1 .3-1 .3-.2.3-.2.1-.4v-.3l.4-.2.3-.3.2.1.3.1v1.4l-.1.4a2 2 0 0 0-.2.6l-.1.4-.5 1.4-.5 1.3v.4l.1.3v.4c-.2.5-.2 1.4-.2 2.7v.8l.2-.4.1-.7.2-.3.2-1 .2-.8h.1l.1-.7v-.7h.4v-.5l.3-.5.3-.7.3-.7.4-1 .1-.5v.2h.2l.1-.3.2-.3h.2v.2l.1.9v.7l-.3.8-.4 1-.4 1.2-.2.9v1l-.1 1 .2.3v.1h-.4v1l-.1.4-.3.5-.3.5v1.8l.1-.2v.3c0 .3 0 .3.5 0l.3-.2h.5l.6-.1.3-.8.4-.7v-.4l-.1-.4v.9l-.2.3-.2.2-.2-.2-.3-.2v.4-.2c-.1-.1-.2-.6-.2-2.1v-1.6l.1-.3v.3l.3.2.2-.6.1-.5h.2v.9h.4v.5l.2-.1.2-.1v1l-.2 1.4-.1.5.1-.2.2-.2h.4l.2-.4.4-.5.2-.1v-.4l-.2-.3.4-.3.4-.2h.1v-.2l-.1-.2.1-.2h.2l-.1.1-.1.2h.2l.1-.5v-.5l.4-.4 1.7-2 .2-.3.2-.1v1.2l.1.3-.1.5v.5h1.6v.8h.1v-.7l.2-.1.6-.1h.5l.3-.5c.3-.5.4-.8.2-.6l-.1.1v-.2l.3-.5.2-.4v.5l.5-.8.6-.9a5 5 0 0 0 1.5-1c.3-.5.3-.6.3-.9v-.2h.5l.1-.4.1-.5.2.1.2.1v-.1l-.1-.2.3-.3.4-.4.4-.4.4-.3.1.1.2.1.2-.2.2-.2h.2l.1.2v.3l-.2.2v.3l.1.4-.2.3-.2.3v.5h-.2l-1 1.5c-.5.8-1 1.7-1 2l-.2.4h-.4l-.3.5-.5.4h-.1l-.3.7-.3.7v.1l.2.1-.1.3-.2.2h.4l.5-.7.5-.7s.2 0 .2-.2v-.3l.4-.2.3-.1v-.5l.2-.1.3-.1v-.2l.4-.5.8-.8.4-.5.2.3.2.3.2-.2.3-.2v1.5l-.3.5-.3.5h-.3l-.2.4-.3.5v.4l.1.4h-.1l-.3.2c-.2.4-1 1.2-1 1.2l-.4.4-.4.5v.5c0 .3-.2.6-.3.7l-.3.6-.2.4v.4l.1.3.2.2.2.1.3-.4.2-.4.2.1.2.1v-.2l-.2-.2.2-.2.1-.1.2.2.1.2v.9l.2.5.1.4h.2l.1-.1v.6l.1-.2.1-.3.3.2.2.3v.7h.2l.2-.1v.5l.4-.4.2-.5-.2-.1-.1-.2v-.2l.1-.3h.5v-.3l.5-.5.3-.3.1.1.2.2.2-.4.2-.4-.2-.8-.2-.8v-2l.3-.5.2-.6h.1l.1.2.1-.2c0-.2.3-.2.3 0v.5l.2-.1.3-.2.4.2.4.2.7.7.6.6v.4l.1.5v.2l-.1.2-.4-.1-.3-.2.2.2.1.2h-.3l-1.2-.5-.2-.2v1.3l.2-.2 1-.1-.3.5-.3.3v.3l.2.2-.3.3c-.2.1-.3.4-.4.6v.3h-.6l.2.2.2.1-.3.6-.3.5.3.4.4.5v.1h-.2v2.3l.2-.2.2-.2v-.7h.2l.2-.2.1-.5.1-1v-.6l.2-.3.2-.7v-.4h.6l.3.4.5 1 .1.6h.4v.3l.1.2h.3l.1.4.2.3-.2.5-.2.5.2-.1.1-.2v.2l.1.2h.2l.2-.2v-.3l-.2-.4.1-1 .1-1 .3-.6.2-.5h.1l.2.1v.4h.5v-.2l.2-.2h.1v.5l.3.9.1.5.1-.3.1-.2v1.5l-.1-.2h-.1v1.9-.1l-.2-.1-.1.6v.5l-.2.2-.1.1.1.1h.1v.4l-.1.3.2-.4.1-.3.3.1.2.2.1.7.3 1v.2h-.3l-.2-.1v.4h-.5l.2-.2.2-.1h-.4l-.1.3v.4h-.2l-.3-.3-.1-.2v-.1l.1-.5v-.4l.2-.1.1-.2v-.4l-.3.7c-.3.7-.4 1-.2 1.4v.3l-.2.1-.2-.2v.2l-.2.2h.2l.1-.2v.2l-.1.3h-.9v.2l-.4 1-.3 1v.5l-1.4 3.8-.5.8-.3 1.2a20.3 20.3 0 0 1-1.4 4v.3l.1-.2.3-.6v-.3h.4l.3-.4.2-.3h.5l.4.2.2-.3.1-.3h.4l.2-.4.5-.5h.2v-.4l.5-2 .5-1.8v-.3l.3-1.3a33 33 0 0 0 .6-2.3l.3-.7.4-.5.3-.4h.9v-1.4.1h.2v-.2h.4l.4.1v.2l.2.3v3h-.2l-.1.1v.8a11.5 11.5 0 0 1-.8 3.6l-.5 1.6a28 28 0 0 0-1 6.9l-.1 1h-.5l-.2.4-.1.4h-.7l-.6-.2-.5.7-.4.7h-.9l-.1.6-.2 1v.3l-.2.1-.2.1h-.1l-.2-.2-.1.5-.2.4v.2l.1.2h-.2v.5h-.2l-.3-.1v.3c-.2.2-.2.4-.2.6l-.3.6-.1.2v-.2h-.4l-.2.5-.2.7v.2l-.2.1-.2.1v-.2l-.2-.3v.3l.1.3-.1.3-.2.3-.3-.1h-.3v.7h-.3l.1.2-.2.2-.2.2-.1-.2h-.1v.1l.1.2-.2.2-.2.2v.3l-.2.3-.2.2v.1l.2.1-.3.2-.2.4-.7 1.1-.3.6.3-.4v.3l-.1.3h.1l.2-.2v.5l-.3.4-.1.3.5-.5.5-.4v-.3c0-.1 0-.4.2-.6l.2-.7v-.2l.3-.2.2-.1.2-.2h.1c.1.1.1 0 .1 0v-.3l.3-.2.7-.9.5-.6v.1h.2v.2l-.1.2h.1v-.5l-.1-.5c.2 0 .3-.2.5-.4l.8-1 .5-.6.1-.5.2-.6.3-.3.3-.3v-.5l.4-.7.6-1a8 8 0 0 1 1.2-1.4h.1v-.2l-.1-.2h.2v.4l.1-.2.1-.3v.6l-.2.2h.2l.2-.5.4-.8.1-.3.4-.1h.5v.5-.1l.2-.1v.7h-.1l-.1-.1v.4l.1.5.1-.5c0-.3.2-.5.2-.5h.1v.4l-.1.2.1-.3.2-.3v-.9l.2-.9.6-1.8.8-2.2.2-.5V314h.5v9.1l-.4.8-.3.8-.3.2-.4.3-.2.2h.2l.1.2-.1.4-.2.4v-.1l-.2-.1v.6l-.4.8a5 5 0 0 0-.4 1v.2h-.4l.1.1v.4l-.2.2h-.4l-.1.4-.6 1-.5.9-.3 1-1.6 2.6-.2.3h-.2v.4l-.6.4a2 2 0 0 1-.6.4c-.1 0-.4.3-.6.7l-.5.8-.1-.1-.1-.1-.4.5-.5.5-.3.3-.2.3-.2-.1-.3-.1-.1.4-.2.4h-.3v.2l-.2.5-.1.4-.3.2-.3.2.3-.4.2-.4-.4.4-.3.6-.5-.1h-.4v-.2l-.2-.2-.4.3-.4.2v.3l-.4.2-.7.4-.5.1-.2.1Z" fill="#A73A24"/></svg>