<svg xmlns="http://www.w3.org/2000/svg" shape-rendering="geometricPrecision" text-rendering="geometricPrecision" viewBox="0 0 332 453"><path fill="#a73a24" d="m176 19 2 4 2 3 2 1 2 1 1 3 1 1 4 1h-1l-1 1h1v1l-1 1h1l2 1 1 1v-2h2l1 1v1l-1 2h1l1-2 1-2 1-2v-2l1 1 2 1 3 2 3 1 3 1 1-2v-2l2-3 2-1 1 2 6 8 2 3 2 3 3 1 2 1-1 1v1l1 2 2 2h3l1 3h1l1 2 1 1h-1v1l1 1h-2v2l1 1 2 1 2 2h1v1l-1 1h1l2 2h2l2 4 3 5 1 2v1l-1 2h1l1 1v1l1 1 1 4v2h2l2 1v8h2v-2l1 2v2-1l1-2v1h1v-3l1-1 2-1v-1 2h1l1 1 1-1v-1 4l1 5v-1h1v1l-1 1 1-1 1-1v3-2l1-1v2l4-3 4-5 1-1h4l1 3v4l1 1-1 9v18l-4 19-3 19 2 3 2 1-1 23-2 8-1 1v1l-1 5-2 5h1l-1 5-1 9-1 4h3l1-4 2-4v1h1l2-2 1-2 1 2c1 3 2 4 1 6v1h1c0 1 0 0 0 0l1-1h1l-1 3-1 4 1 2-1 12-1 10v1l-1 5-1 5v6l-2 10-5 25-2 10-1 10-2 10-6 27-4 20-1 6-6 23-1 5-1-1-1 6-1 6h-1l-1 2v2l-2 2-3 3-1 1-1-2-2-3v-1 1l-1-2-1-4-2 2v-1l-1-2-2-1-3 4-1-2v2l-2 3-1 1-1-3v2-4l-1 1v-3l-1-3-1 3v-7 4h-1v-4l-2 2v-1l-2 2v4l-2-2-1 2-1 2v1l-1-2v2h-1c-1 0-2-1-2-3v-2l1-1-2 1 1-3h-1l-2 1-2 1v1l-3-1-3-6-1 1-1-2-1-2v-1l-1-1-2 7-1-1v-1l-3 3v-3h-2l2-2-5-3v-4l-1-2-1-4 1-4-2 2-1-4-1 2-1-2-1 7-2 4c-1 4-2 4-4 6l-1 1-1 2c0 2-1 2-1 0v-1l-1 1v-2h-2l-1-1-1 4-4 5v-2l-1 2c-2 2-2 2-4-4v-1l-1-1v-2l-1-5v-3l1-1-1-2v-4l-1 1v-5l-1 1-2 1v1l-2-6v-3l-1-1v-10l-1 3 2-11-2 4v-1l1-5v-8l1-5-1 2-4 8-2 3-1 3-1 2-1 3-1 1-1 2v3l-1 1-6 10h-2l-1-2v1l-1 1v-2h-1v-4h-1l-2 4-3 6-2 2v-2l-1 3h-1v-4h-1v-6l-1 1v-5l1-3h-1v-3l1-5 1-6-1 1 1-2-2 1 2-3-2 1v-3l-2 4-1-2-5-4h-2l-1-4h-2l2-9-1-1 2-8h1l1-5 1-6v-1l1-1-1-1h-1v3h-1l-1 4-3 5-1 2v2l-1 4-1 2v1l-1 2-1 3-1 2-1 2h-3v2l-2 3-1 1 1 1-3 1-1-1v-2l1-1h-1l-1 1 1-1v-1h1l-2-3 1-2v-3h-1v2l-1-1v2l-1 3h-1l-1 2v1h-1v2l-1 3-1-1-1 2v1h-2v-2l1-2-1 1v2h-1l-1-1v-2l1-2-1-2v-2l1-5v-4l-1-1v1l-4 7v1l-1 2-1-2v-1l-2-1h-1l-1-1v-4l1-2-1 1-1 2v-2l-1 2-2 4-1 2v-1l-1 2-1 2h-1l-2-1v-3l1-3h-1v-16l3-18 5-27 3-11v-2h-2l-1 2v1l-1-2v-5l-3 1-2-1-1-1v-1l1-4v-13l-1-3 1-3v-6h-1v3l-1 1-1 1-1 4-1 6-1 2h-1v2l-1 1h-1l-1 3-2 7-2 4-1 1-1 1-1-3-1-3v-1l1-2h-1v-3h-1l-2 5-3 4-1 2-1 3-1-1v2l-1 1h-1v-15l1-9v-2l1-2 1-3h-1v-5l2-8 1-4 5-23a1802 1802 0 0 1 14-56l1-3v-2l2-2 2-3 2-4 2-2-1 1v1l1-1 1-1 1-2 1-3 1-2v1l1 1v-2l1-2 1-1h1v-2h1v1l1-1v-1 2h1l2-1 1-2v-4h1l1 1v-3l1-2 2-3 2-2v-4l1-3 1-1 3-4 2-3v-3l1-5v-1h1l2-2 2-2 1-3v-4l1-1 3-3 2-1 1-4 1-4 1-1h1l3-2 1-1v-2l1-3 1-1v-1l2-1h2l1-3 1-2h2l2-1v-1l1-3 1-1h1l2-1h2l2-1 4-2 3-2h3l1-1 1-2 1-3v-3l1-1 1-1h2c2 1 6-1 7-2l1-1 2 1h2l2-2 2-2v1l1 1h2l2-1v-2l1-2 2-1 2-3c0-2 2-4 3-5l1-3 1 1Z"/><path fill="#f3c010" d="M90 271h-1l-2-4-1-5v-2l7-2 12-5 5-1h8l6-2-1-1h-6l-7 1-11 2-7 4-8 3v-2l-1-1-2-1-1-2c-1-4-1-4-2-3l-9-7-3-2h-2l-1-2-1-2-1-1h-1l-1-2-1-1h-1l-2-2-2-2-2-1-5-3-3-4-2-11-1-4 1-1h1l4 1 3 2h5l2 2c1 2 2 2 3 2l2 2 7 6h1v1l5 4 5 4 1-3h-2v-1l-5-3c-2 0-6-7-6-10v-1h1l1-1 14 5 1-1 3 2 1 1 1-1h1l-2 1 6 6 17 15 14 11-12-11-13-10v-1l2-2h1l5 3 5 4-1 2-1 1 2-2 2-2 9 4c4 4 4 6 1 4l-10-7 10 7 2 11 16 3h3v-1l-1 1 1-2v1l1-1-1-1 2-1 1-2-1-2h3l1-1 4-3c1-1 0 0 0 0l1-1-1-1v1l-1 1v-1l-1-1h1v-1h1v-1l3-1 1-1h3l-1-1 1 1v-1h1v1h-1 1v-1h1v-1l1 1h1v-2l1 1v-1h-2v-1h2-1v-1h-7 1-1 3v-1h1l-1-1h-3l3-1h8v-1h2l1 1h-1v11h-1v-1l-1-1h-1v-4l-2-1v1l1 1v-1h-1 1v-1 3h-1v1h1l-2 3v1h-1l1-1h-1v1h-1l-1 1h-2 2l-1 1h1v-1l1 1v-1 1h-2v1-1 1-1h-1v1h-1v1h-1v2h-1v-1h1v-1l-1 1-1 1h-1v1l-1 1 3 1h4l3 1v2l-2 9-1 1h1v-1 1l1-1h-1 1v-2h1v2l1-1h2-2l1-1v-1h1v-1l-1 1v-1l-1 1v-1c-1 0 0 0 0 0h2l1-1-1 1v-1l1-1v1l1-1h-1v-1 1h1l1-1h-1v1-1h3-1 1l1-1v1h1v-1h5-1 1v1h1v-1h2v-1h1l1 2 1-1h2v1h6-10 1l-1 1h1l1-1v2-1h-1 1v1h2v1h-2l-6 1h-1l-1 1h-3l-2 1v-1l-3 1v2h-1v1l-1 1h-2 4v2-1l1 1h1v-2l2-1h-1v-1h1v1h5v2-1l-1-1v2h-1v1l-1 2h1v-1h2v-2l2-1h2v-1h3l1 1h1v1h-1v-1 2h1l1-1h3l3-1h2l2-1h1v2h2l1 1h-1 2v1l-1 1h-1v2-1l-1 1h-5v1l1-1h-3l-1 1h2v1h-1l-1 1h-1l-1 1h-1l-8 5-2 1v1h1l-1 1v-1h1l-1 1h-1 1v1h-1v1h1-2v1l1 1h-3l-1-1v-1l-1 1h-1v1l-1 1-2 1-1-1v1h-2v-1h-1l-1 1h-1v1l-4 2v-1h-1l-1 1-3-1h-1l1-2 1-1v-1h1l-1-1h-1 1-2v1l-1-2h1v-1h-1v1h-1v1l-1-1h-2v-1h1v-1l1-2h1v-1h1v1h1v-1l2-2h1v1h-1v1l1-1-1 1h2v1h1v-1h1v-1l2-2-1 2 1 1h-1v-1 1h1l3-3h1v1h3l1-1h-3v-1h3-1v1h1v-2h-1v-1h1v-4h-1l1 1h-1v-2l-1 1h-1v-1l1-2v-1h-3v-1h-1v1h-1v-1h-1l-2 6-2-3-1-2h-2 1v1l-1-1h-1v-1h1-1l1-1v-1h-1l-1 1-1 1v1l1 2-4 1v3l-1-1-2-1-1-1-1 1-1 2v2h-1l-2 3-1 2h-1l1-2 1-2 2-4h-1v-3 1l-1 4-2 3v3h-1v2l-1 1h1l1-1v-1h1v1h-1v2h-1v1-2l-1 1v2-1h-1v1h1-1l-1 1-1-1v1h-3v-1l-1 1h-3v-1l2-4v-1l2-3v-1h1l1-1 1-2 1-2-1-2v2h-1v-6l-3 1v4h-1l-2 1h-1l-1-4-2-3-4-6-2-3-1 1v2l2 8v2l-1 1-1 1-4-7-1-3-2 1-2 1h-1l-2-1-1-1-1 2-1 4v2l-2 3h-1l-3-5h-1l-2 5-2 2Zm173-44-1-1-1-5h-2l-2 5h-1l-1-1-2-3-1-5v-2l-2 1-2 1v1l-2-2-2-1-2 3-3 7q-2 2-2-2l-1-2v-2l1-2 1-4h-2l-3 4-1 1 2 1h-3l-2 7-5-1v-4l-2-1-3 8-1-2-1 1v-1l-1-3c-5 0-7 1-8 2l-2 2h-2v-3q-6-11 21-9l4 3-3-3v-5l4-14 10-7-10 7c-2 1-2 0 1-4l9-4 1 2 1 1-1-2 6-4 5-3h1l1 2v1l-12 11c-4 3-14 12 1-1l18-15 5-6h-1l-1-1 2 1h1v-1l3-2 2-2v2l-1 1 1 2 2 2-1-2-1-2 14-5 1 1h1v2c0 2-5 9-6 9-2 0-5 3-5 4h-2l-1 1 1 2h1l5-4 5-4v-1h1l7-6 2-2s2 0 3-2l2-2h5l3-2 3-2 1 1 1 1v4l-2 11-4 4-5 3-1 1-2 2-3 2h-1v1l-1 2h-1l-2 1-1 2-1 2h-1l-3 2-5 5-3 3-1-1c-1-1-1-1-3 3l-1 3h-1l-1 1v2l-8-3-8-4-5-1-5-1-7-1-1 3h8l5 1 11 5 7 2 1 1v1l-3 9h-2l-1-1Zm-107 19v1-1Zm11-8h1-1 1Zm0 19Zm0 0h1v1l-1-1v1h-1 1v-1h-1v1-1h1Z"/><path fill="#fff" d="m75 361-1-3v-44l-1-44H61l-2-2-2-2v-14l1-4 1-4 4-2 3-1-2 2h1l7-2 5-2v-4l4-19 4-15 5-15 12-32 7-17 9-19 10-19 8-13c9-14 19-27 31-39l8-8 7-5 8-5 5-1 6-2h10l11 1 3 3 4 3 2 5 5 12 1 6 1 19 2 18-1 16c-1 21-2 30-7 54l-4 19h34l-13 1-17 2h-5v7l5-1 6-1 1-1h26l26 1 4 1 4 1 3 3 4 4v4l1 5-1 3-1 2-4 2-13 5-8 2-10 1-29 2-20 1-1 6c-3 14-11 89-11 102v6l-1-3-2-2 1-10 2-19 2-26 7-52 1-3h-34l-3-1-4-2v-2l-1-6v-5l2-3 1-3 5-4 4-4h-16l-7 2-6 2 6-3 6-3h22l6-3 6-3 10-2 10-2 9-46 1-12V67l-1-8-1-9-2-6-3-6-4-5-5-5-12 1h-12l-6 3c-24 12-52 49-74 94-16 35-29 71-37 109v3h2c9-3 18-6 27-7l7-1h30l1 1 2 2 1 4 1 5-1 4-2 3-3 3-13 7-8 4-8 3c-9 2-24 4-33 4h-6l-1 13-1 14 1 29v31l1 3c2 4 1 5-1 1Zm22-94 14-3 4-1-5-1h-6l-4-3c-5-4-10-9-14-15-3-6-1-5 2 1l4 5 6 5 6 4 5 1 6 2 2-2 1-2 1-8v-13l-1-4-1-1h-2l-12 2-12 2-6 3-6 2-1 2-2 22v3h5l16-1Zm167-45 15-2 9-2 12-4 3-2 1-2 1-3-1-4v-3l-4-4-4-4h-51v10l-2 6-2 5-2 2-2 1-7-1h-8v8h27l15-1Z"/><path fill="#305673" d="M190 363h-4v-1h-1v1l-1-1h-3v-1h-3v-1h-1l-1-1h-1l-1-1-1-1h-1v-2h-1v-1h-1v-1l-1-1v-1h-1v-1h-1v-1h-1v1h-3v-2h-1v-1h-3v1h-1v2h-1 1-1l-1 1h-2l-1 1v1-1h-1v1h-3l-1 1h-1l-1 1h-6v-1h-1v1-1h-5v-2h-2v1h-3v1h-1l-1-1v-1l-1-1h-1v-1h-1v-3l-1-1v-2l3-3h1v-1l-1 1-1 2-2 1v-4h2l1-1 1 1v-1h-6v-1h2v-2h2v-1h1-1v-1h1l1-1 1-1 3-3h1v-3h-6v-1h-5l-1-1h-1v-2h1v-6h-1 1-1 1l-1-1h-4l-1-2v-2h-1v-1 1h-1v-1h-2l1-1v-3h1v-1h-1v-1h-1v-1l1-1h1v-2h1l1-1h-1l1-1 3-1v-1h1l1-1h1l1-1h1v-1h1v-1h1v-1h2v-1h1l1-1h1v-1h3v-1h3v-1h7l2 1h1v-1h1l1 1 3-1h2l1 1 1 1h1v1l1 1h4v1-1h1l1-1 1-1h2l1-1h1l1 1 1-1h1-1 1v-1h1v1h3v1h9v1h2v2-1h3v-1h1v1h1l2 1 1 1h5v4l1 1v1h-1v2h-1v1h-2v-1h-1v3h1v-2h1v1h1v1h1-1v1h-1v1h-1 1-1 1-1v-1h1v-1 1h-2v1h-1v1h-1v-1h-2v-1l1-1 1-1h-1v1h-3v-1h1v-1h1v-1h-1v1h-7l-2 1h-1 1v-1h1l1-1h1l1-1h-1v1h-3l-1 1h-1l-2 2h-2v-1l1-1h2l1-1c0-1 0-1 0 0l1-1 2-1h1v-1h-2v-1h1-1l-1 1-1 1h-2l-1 1h-1v1h-1l-1 1h-2v1l-2 1-2 1-3 3h-2l1-1 3-2a67 67 0 0 1 8-5h1v-1 1-1h1l2-1 1-1v-1h1-2l-1 1h-1l-1 1h-1v1l-4 2h-1v1h-2l-1 1h-1v1h-1v1-1 1h-1 1-1l-1 1-2 2q-1 1 1 1v1h1v1l-1 1h-1v1l-1 3h1v-1h1v-1h1v-1 1-1h1l1 3 2-1 1-1h2l1-1h3-1l-1 1-1 1v1h-1v2l-1 1h-1 1l-1 1v-1 1l-2 2h-1v1l3-1v2h2v-1h2-1 2v1-1 1h-1l-1 1v-1h1-1l-1 1h-1 1-2 1v1h-1v1l-2 1-2 3v1l-1 1v2h1v-1h1v-2l1-1v-1l2-1 2-1 1-1 1-1h1v-1h3l-1-1h1l-1 1-1 1h-2v1l-1 1-2 2-1 2h-1v1h1l1-1 1-1 3-3h2v-1 1h1v-1h1l1 1h-1v4h-1v1h-1l-2-1h-1l-1 1h2v1h3l-1 1h-6v1h9-1 1v1h1-1v-1h1v1h1v1h1v-1l1 1h1-2v2h3l1 1h4-1 1l-1 1h2v1h2v1h1v1h2v1h1v1h2v-1h1v1h-1 4v1h-1l-1 1v1h2l1-1h1v1h1v1h1-1 1v1h1v1h2v1h2v1h1v2h1l1 1v1h-1v1h1l2 1h1v1h-1l-1 1h-11v1h-7l-1 1-2-1-1 1-1-1Z"/><path fill="#a73a24" d="M149 343h-1v-1h-3v-1 1-1h-1 1v1l-1-1v-3h-1 1-1v-3 1h-1v1h-3v2h-1v1h-1v-1h-1v-1h-1v-3l1-1v-2h1v-2l1-1v-1l-1 1h-1 1v1h-1v1-1 1h-1v4-1 1h-1 1-1v2-1 1h-1v2h-1v-1 1-1h-1v1-1l-1-2h1v-2l1-1v-3h1v-1l-1-1-1-2h1v-1h-2v-3l1-1v-2h1v-2c0-1 0-1 0 0v1h-1l1-1-1 1v1-1 2-1 1h-1v1l-1 1h1l-1 1h-2v-3h1v-2c1 0 1-1 0 0l1-2 1-1v-2 1h-1v1h-2 1-1v1h-1v-1l1-3v-2h1v-3h-1v2h-1v-1h1l-1-1v-1l1-1-1-1h-1v1-1h-1v2-1 1h-1 1-1v3h-1v-1l1-1h-1v-1 2h-1v-2h1v-1h1v-1 1-3 1-1h1v-1h-1v-1h1-1c0-1 0-1 0 0v-1h-1l1 1-1-1h-1v-1h-2v1h-2v-1h-3l-1 1-2-1 6-2v1h3-1v-1l1 1h2v1h1v1-1l1 1v1h1v-1l1-1v-1l1-1v-2h1v-1h1v-1l1-2 2-2h1v-4l1-1v-2l1-1v-1h1v3l-1 1v6-1l1-1v-1l2-5v-1 1h1l-2 5v4l-1 1v2-1 1h2v-1h1v-2 1l-1 1v-1 1-5 1-1h1v4-1h1l1-1h-1l1-1h1-1 1v-1h5l2-4 2-1v-1h1v-1l1-1h1v2l-1 2-3 4v1-1h1v-1l3-3v1l1-1v2l-1 2-1 1-1 1-1 1v3l1-1v1h1v1h1v1h1l-1-1h1v-1h1v-4l1-2v1-1 1h1l2 1v2h-1v-1 1l-1-1v1h1v1h-1v2h-1 1l-1 1 1 1h-1v2h1v-3h1v-2l1 1v1h1v3-1 1h1v-4h1l1 1v1-1 4l-1 1h1v1l1 1h-1v1h-1v-3 3h-2v3l-2 4v2l-2 4 1-1v-1h1v1l1-1 1-1v-2l1-4 1-2v-1h1v-1h1v-1h1v3l-2 6-1 7v2h-2v1h-2v3l-1-1v2h-1v2h-1v1h-1 1v1h-2v2h-1v1l-1 1v1-1 2l1-1v-2h1l1-1v-1h1v-1l1-1 1-1v-1h1v-2l1-1 1-1 1-1h1v1-1 1-1l1-1v-2l1-3v-1h1v9l-1 1v1h-1v3l-1 1h-1v2l-1 1v1l-2 2v1h-1v1l-1 1h-1v1h-1v1h-1v1l-1 1v-1 1h-2l-1 1h-1Z"/></svg>