<svg width="409" height="527" fill="none" xmlns="http://www.w3.org/2000/svg"><path d="M9 283.56V40.1l.96.75.96.75 1.28-4.39a74.22 74.22 0 0 1 2.08-6.1l.8-1.7v-3h1.54l.19-1.6.16-1.6h1.18l.42 2.02.45 2.04 3.55-.43 3.55-.54 1-1.6.98-1.6.55-4.28.54-4.18h1.77l.63 1.6.67 1.5 1.96-.2 1.92-.22-.13-.75-.16-.75.73-.64a7.86 7.86 0 0 1 1.92-.96l1.19-.43.16 1.6c.1.86.19 2.36.19 3.32l.03 1.82.7 3 .74 2.88 1.92-.1c1.03-.11 3.4 0 5.22.31l3.33.65.25 1.5.29 1.38V27.6l.48.42c.26.32.74.86 1.06 1.29.28.32.8.53 1.08.43l.55-.22.22 2.68.2 2.67-.23 2.03-.2 2.14.36.75.32.64-.16 1.07-.2.96h1.51l.64 1.6.61 1.5h1.28l.64-1.81c.83-2.46 2.08-8.35 2.08-9.84v-1.07h.64v-1.5c0-.86.1-1.71.26-1.93C63.98 29 65 21.4 65 19.47v-1.6h.54l-.06-2.57-.1-2.46.68-1.5c.96-2.25 2.52-7.38 2.24-7.38-.13 0 .19-.86.7-2.03L69.96 0l.51.64c.29.32.87 1.5 1.28 2.46 1.76 4.28 3.1 6.95 4 8.02l1 1.18 2.01 5.14a148.9 148.9 0 0 1 2.85 7.7 50.47 50.47 0 0 0 2.43 5.77c.9 1.71 2.88 5.78 4.45 8.99 1.57 3.2 3 5.77 3.23 5.77.22 0 1 1.6 1.76 3.64l1.38 3.64h1.24l1.25.1.39.86.38.85.96-.1.96-.11.9 1.5.86 1.5.03 2.88c.03 1.6 0 3.96-.03 5.35l-.03 2.35h1.47l-.48 1.07-.48 1.07h.74c.73 0 1.98 1.93 2.36 3.75l.23.96-.2 9.95-.19 9.95.55.64.54.75 1.25-4.07 1.22-3.96.41.75.39.86-.23-1.18-.22-1.18.9-1.92a26.45 26.45 0 0 0 1.37-3.85l.48-1.82 1.12 1.07 1.12 1.18 2.08-.22c1.15 0 2.85-.1 3.78 0l1.7.11.7-1.5a4.91 4.91 0 0 1 1.92-2.14l1.18-.75v-1.92l.7-.75a16.4 16.4 0 0 0 1.8-2.25l1.12-1.6-.45-.96-.45-.97 2.05.54c1.12.32 2.17.86 2.3 1.18l.29.53v-2.03l.64-.54.64-.53.22 2.78c.13 1.6.2 3.42.16 4.17l-.1 1.28.9.75c.48.43 1.5 1.82 2.24 3.21L138.9 83h1.37c.77 0 2.82.1 4.58.1l3.17.12.41-1.82c.23-1.07.42-2.57.42-3.32V76.7h1.22l.19-1.6.19-1.71 1.06.32 1.08.21 1.22-3.42 1.22-3.32.28.54.26.53v-3.31l.8-1.29c.45-.64.8-1.6.8-2.14v-.85h1.5l.87 2.46a87.24 87.24 0 0 1 1.6 4.6l.73 2.14.61-.65c.32-.42.77-.53 1-.32l.38.54.19-3.1c.13-1.6.51-5.57.86-8.56l.64-5.67h.48c.26 0 .93.64 1.48 1.5.57.85 1.53 2.03 2.14 2.67l1.12 1.07 2.08.32 2.08.22 1.6-2.78c.9-1.5 2.37-3.86 3.26-5.25l1.7-2.56v-1.4c0-.74.13-2.13.29-3.2.16-.96.48-3.43.67-5.24l.38-3.53h.55c.29 0 1.37 1.17 2.43 2.56l1.89 2.68.35-.86c.16-.43 1-1.5 1.82-2.24l1.54-1.29.64.54.64.53-.2-.96-.15-.96.41-.54a8.36 8.36 0 0 1 1.92-.96l1.5-.43.23 3.64.2 3.53.44 1.28.45 1.18v3.96l1.12.74c.6.33 1.22 1.07 1.31 1.6l.16.97h1.54l.32 1.93.35 1.82.26-1.4.28-1.39 1.83 1.5 1.79 1.6.93-2.77a18.8 18.8 0 0 1 1.92-4.07l.96-1.39.8 2.78c.45 1.5.83 3.32.83 3.96 0 .64.48 2.78 1.02 4.81l1 3.64 1.53.21 1.57.22.9 2.78c.5 1.6 1.02 2.89 1.21 2.89.16 0 .67.64 1.12 1.5l.87 1.49.41-.96c.26-.54.9-.96 1.44-.96h1l.73-2.14c.42-1.18.83-2.14.93-2.14.1.1.77.42 1.47.96l1.28.75 3.84-1.18 3.84-1.28.45 1.17.48 1.18-.23-1.82-.19-1.92.23.32c.38.43 1.56-3.85 1.82-6.63l.26-2.68.67-1.92.67-1.93.93.54a4.06 4.06 0 0 1 1.44 2.03c.51 1.39 1.12 2.03 3.87 3.85l1.44.96 1.76 2.9 1.76 2.99 1.76.32c.96.1 1.92.21 2.11.32h.39l-.07 1.82-.03 1.81.58.43.54.32v-3.42l1.86.21 1.85.22.77-1.5c.45-.86.86-1.82.96-2.14.1-.32.6-.96 1.18-1.28l1.03-.64.67 2.99c.35 1.71.64 3.53.64 4.07 0 .53.83 3.95 1.86 7.7l1.85 6.63.9-1.18.93-1.18.67.33c.96.42 1.37 2.03 1.82 7.05l.39 4.5.8 1.7.8 1.83h1.5l-.2.85-.15.97h.61l.19 3.74.22 3.74.7.54.71.53 2.56-.53c1.4-.32 2.94-.64 3.46-.86l.86-.21.03-.75.1-1.6c.06-1.4 1.15-6.2 1.15-5.25v.86l.42-1.07.38-1.07 1.28 1.5 1.28 1.5 2.72.64c1.5.32 3.36.64 4.16.64h1.4l.36 1.39c.16.75.7 1.6 1.15 2.03l.87.64.9-1.17.92-1.07.58-2.68c.35-1.5.64-3.31.67-3.95.06-.75.19-2.04.29-2.9.1-.85.25-2.99.35-4.8.1-1.72.25-4.28.38-5.57l.2-2.46.25.54.29.53.16-.96.19-.96 1.15.85 1.15.86 1.96-.64c2.1-.65 2.68-.65 5.95-.22l2.01.22.26-1.29.22-1.17 1.41-1.07a27 27 0 0 0 2.02-1.6l.6-.65-.22 1.07-.19.96 1.38-.85a8.9 8.9 0 0 0 2.24-1.93l.92-1.18.32.65.36.75-.2-1.07-.19-1.07.87-1.4c.48-.85 1.12-1.5 1.44-1.38h.54V62.8c0-.97.1-2.14.22-2.57.16-.43.26-1.18.26-1.5 0-.43.26-1.92.58-3.42.28-1.4.54-2.14.54-1.6v.96l.35-1.18.35-1.18.87 1.5.86 1.4 1.57.74c1.54.54 3.3 1.18 4.96 1.82.45.1.86.53.96.86.1.32.64 1.17 1.25 1.81l1.12 1.29.16-.86c.1-.53.51-1.18.9-1.5l.7-.64.16 1.5.16 1.5h2.94l-.19 1.07-.2 1.07h1.35l-.19-.97-.16-1.07.6-.64.65-.64.67 1.18c.35.64.64 1.6.64 2.14v1.07h-1.06l.2.64c.1.43.99.75 1.95.85l1.73.22-.16-.86-.13-.85.96.21.99.21v4.92h.58c.28 0 1.18.75 1.95 1.6l1.37 1.72 2.15-5.78c2.69-7.38 5.15-15.18 5.15-16.47 0-.53-.16-1.5-.38-2.24l-.36-1.18.36-1.5.38-1.5-.26-.74-.22-.86.6-1.5.65-1.5h3.42l1.03-1.5 1.02-1.38.9-3 .86-3V27.7l.67-.53.7-.64.87.53.86.64.58-2.03c.32-1.07.64-1.82.7-1.6.23.64 1.7-1.18 2.02-2.46l.35-1.5.51.64.52.64-.26-1.5-.29-1.5.55 1.5.54 1.4 1.98-2.46a30.69 30.69 0 0 1 2.34-2.68c.2-.1.67-.64 1.12-1.28l.8-1.07.58 2.14.57 2.24-.16 1.4-.16 1.28.64.53.61.54v3.1l1.6-.86 1.6-.85.48-1.6c.26-.86.48-2.15.48-2.79 0-1.6 1.31-5.24 1.89-5.35h.45l1.02 2.57 1.02 2.68h4.74c.54 0 1.31.1 1.76.42l.8.43.1 253.6L409 527H9V283.56Z" fill="#fff"/><path d="M110.8 446.36V457h-.6v-10.64h-3.91v-.53h8.43v.53h-3.92Zm5.82-1.2h.56v4.96h.04c.16-.4.44-.73.84-1 .4-.3.96-.44 1.66-.44.9 0 1.58.27 2.05.8.48.52.72 1.3.72 2.3V457h-.56v-5.12c0-.94-.2-1.62-.61-2.05-.4-.44-.97-.65-1.73-.65-.3 0-.61.04-.91.12-.29.09-.54.22-.77.39-.22.17-.4.38-.54.64-.13.25-.2.55-.2.9V457h-.55v-11.84ZM130.85 457c-.44 0-.67-.22-.69-.67v-.6h-.06c-.2.42-.5.77-.91 1.05a3 3 0 0 1-1.69.41c-.84 0-1.49-.2-1.95-.6a2.18 2.18 0 0 1-.69-1.72c0-.35.06-.67.17-.96.1-.29.28-.53.52-.73.26-.22.58-.38.98-.48.4-.12.9-.18 1.49-.18h2.13v-1.09c0-.77-.2-1.33-.56-1.7-.38-.37-.93-.55-1.67-.55-1.14 0-1.93.48-2.37 1.44l-.4-.28c.23-.5.56-.9 1-1.2a3.1 3.1 0 0 1 1.79-.46c.9 0 1.6.24 2.06.7.47.46.7 1.12.7 1.99v5.13h1.25v.5h-1.1Zm-3.3-.3a2.9 2.9 0 0 0 1.83-.53 1.85 1.85 0 0 0 .77-1.54v-1.66h-2.13c-.9 0-1.55.15-1.96.46-.4.3-.6.7-.6 1.2v.45c0 .53.19.94.57 1.22.4.26.9.4 1.52.4Zm7.46.3c-.45 0-.68-.22-.68-.67v-6.96h-1.48v-.5h1.06c.18 0 .3-.04.35-.11.07-.07.1-.2.1-.38v-1.81h.53v2.3h1.9v.5h-1.9v7.13h1.77v.5h-1.65Zm4.87-12c.19 0 .33.05.41.16.09.1.13.22.13.38v.2c0 .44-.12.91-.37 1.4a4 4 0 0 1-.9 1.25h-.49a4.12 4.12 0 0 0 1.18-2.2c-.2-.02-.34-.06-.43-.15a.53.53 0 0 1-.1-.34v-.16c0-.16.03-.28.12-.38.1-.1.24-.16.45-.16Zm4.96 12.2a3.9 3.9 0 0 1-1.76-.38c-.5-.24-.92-.63-1.3-1.15l.44-.32c.36.48.74.83 1.15 1.04.41.2.9.3 1.48.3.73 0 1.28-.14 1.65-.44.38-.3.56-.73.56-1.3 0-.54-.16-.95-.48-1.21a2.8 2.8 0 0 0-1.44-.56l-.68-.12c-.37-.05-.7-.13-1-.24-.28-.1-.54-.24-.75-.41a2 2 0 0 1-.48-.66 2.4 2.4 0 0 1-.16-.93c0-.35.06-.66.2-.92a2 2 0 0 1 .55-.68c.25-.18.53-.31.85-.4.33-.1.68-.14 1.06-.14.68 0 1.23.12 1.66.37.43.23.78.51 1.06.83l-.4.37a3.51 3.51 0 0 0-.88-.74 3.12 3.12 0 0 0-1.46-.34 2.6 2.6 0 0 0-1.53.42c-.38.28-.56.69-.56 1.22 0 .54.16.94.47 1.2.32.24.81.42 1.46.53l.69.1a3.4 3.4 0 0 1 1.74.71c.42.34.63.86.63 1.55 0 .73-.25 1.3-.74 1.7-.49.4-1.17.6-2.03.6Zm11.87 0a3.21 3.21 0 0 1-2.56-1.1c-.62-.72-.93-1.78-.93-3.16 0-1.38.3-2.43.92-3.16.6-.73 1.44-1.1 2.5-1.1a3.14 3.14 0 0 1 2.43 1.1c.3.36.52.78.68 1.28.16.5.24 1.04.24 1.65v.26h-6.17v.43c0 .5.06.96.19 1.36a2.63 2.63 0 0 0 2.7 1.94c1.3 0 2.18-.62 2.67-1.86l.44.24a3.35 3.35 0 0 1-1.16 1.54c-.52.38-1.17.57-1.95.57Zm-.06-8.02c-.45 0-.85.08-1.2.24a2.4 2.4 0 0 0-.88.65c-.25.29-.43.64-.56 1.04-.13.4-.2.85-.2 1.35v.06h5.57v-.1a4 4 0 0 0-.2-1.32 2.8 2.8 0 0 0-.56-1.03c-.24-.29-.53-.5-.87-.65a2.5 2.5 0 0 0-1.1-.24Zm5.86 7.82v-8.13h.56v1.25h.04c.16-.4.44-.73.84-1 .4-.3.96-.44 1.66-.44.9 0 1.58.27 2.05.8.48.52.72 1.3.72 2.3V457h-.56v-5.12c0-.94-.2-1.62-.61-2.05-.4-.44-.97-.65-1.73-.65-.3 0-.61.04-.91.12-.29.09-.54.22-.77.39-.22.17-.4.38-.54.64-.13.25-.2.55-.2.9V457h-.55Zm11.69.2a3.15 3.15 0 0 1-2.53-1.1c-.61-.72-.91-1.78-.91-3.16 0-1.4.3-2.46.9-3.17a3.15 3.15 0 0 1 2.54-1.09c1.06 0 1.9.36 2.5 1.09.63.71.94 1.77.94 3.17 0 1.38-.31 2.44-.93 3.16a3.1 3.1 0 0 1-2.51 1.1Zm0-.5c.9 0 1.6-.3 2.1-.88.48-.6.73-1.42.73-2.45v-.87c0-1.04-.25-1.86-.74-2.44a2.58 2.58 0 0 0-2.1-.88c-.9 0-1.6.29-2.09.88a3.7 3.7 0 0 0-.74 2.44v.87c0 1.03.25 1.85.74 2.45a2.6 2.6 0 0 0 2.1.88Zm11.13-.95h-.06a2.41 2.41 0 0 1-.82 1.01 3.28 3.28 0 0 1-1.66.43c-.9 0-1.59-.26-2.07-.78-.48-.54-.72-1.3-.72-2.32v-5.22h.56V454c0 .94.2 1.63.61 2.07.4.42.99.64 1.75.64a3.15 3.15 0 0 0 1.68-.5 1.98 1.98 0 0 0 .74-1.57v-5.76h.55V457h-.56v-1.25Zm10.25 2.26c0 .82-.34 1.42-1 1.8-.67.39-1.62.58-2.87.58-1.22 0-2.1-.19-2.64-.56a1.74 1.74 0 0 1-.82-1.5c0-.48.14-.88.4-1.19.27-.3.64-.52 1.12-.67v-.06c-.54-.18-.81-.55-.81-1.1 0-.38.13-.68.4-.9.27-.23.6-.4.97-.5v-.05a2.55 2.55 0 0 1-1.1-.92 2.8 2.8 0 0 1-.39-1.52c0-.42.07-.8.2-1.12a2.47 2.47 0 0 1 1.47-1.43 3.4 3.4 0 0 1 1.18-.19c.7 0 1.28.16 1.73.48v-.64c0-.4.19-.6.56-.6h1.55v.5h-1.73v1.03a2.82 2.82 0 0 1 .77 1.97 2.53 2.53 0 0 1-1.7 2.54 3.4 3.4 0 0 1-2.04.08 2.7 2.7 0 0 0-1.01.46.9.9 0 0 0-.35.72c0 .23.1.42.29.6.19.16.55.24 1.07.24h2.06c.95 0 1.63.17 2.05.52.43.35.64.82.64 1.43Zm-.56.03c0-.46-.16-.82-.48-1.07-.3-.26-.87-.39-1.68-.39h-2.54c-.45.12-.81.31-1.1.58a1.5 1.5 0 0 0-.4 1.1c0 .48.2.87.63 1.17.43.31 1.03.47 1.81.47h.88c.43 0 .82-.04 1.17-.12.35-.07.65-.18.91-.33.26-.15.45-.34.6-.58.13-.23.2-.51.2-.83Zm-3.31-4.38c.7 0 1.25-.19 1.65-.55.4-.36.59-.83.59-1.4v-.58c0-.58-.2-1.05-.6-1.41a2.33 2.33 0 0 0-1.64-.54 2.4 2.4 0 0 0-1.67.54c-.38.36-.57.83-.57 1.4v.58c0 .58.2 1.05.59 1.41.4.37.94.55 1.65.55Zm5.83-8.5h.56v4.96h.05c.16-.4.43-.73.83-1 .4-.3.96-.44 1.66-.44.9 0 1.58.27 2.05.8.48.52.72 1.3.72 2.3V457h-.56v-5.12c0-.94-.2-1.62-.6-2.05-.4-.44-.98-.65-1.74-.65-.3 0-.61.04-.9.12-.3.09-.55.22-.78.39-.22.17-.4.38-.54.64a2 2 0 0 0-.2.9V457h-.55v-11.84Zm15.52 12.03a3.22 3.22 0 0 1-2.56-1.09c-.62-.72-.93-1.78-.93-3.16 0-1.38.3-2.43.91-3.16a3.1 3.1 0 0 1 2.51-1.1 3.13 3.13 0 0 1 3.1 2.38c.17.5.25 1.04.25 1.65v.26h-6.18v.43c0 .5.06.96.2 1.36.12.4.3.75.55 1.04.26.29.56.51.91.67.37.15.78.23 1.24.23 1.29 0 2.18-.62 2.67-1.86l.43.24a3.34 3.34 0 0 1-1.15 1.54 3.2 3.2 0 0 1-1.95.57Zm-.07-8.01c-.45 0-.85.08-1.2.24-.34.14-.63.36-.88.65-.24.29-.43.64-.56 1.04-.13.4-.19.85-.19 1.35v.06h5.57v-.1a3.89 3.89 0 0 0-.77-2.35 2.2 2.2 0 0 0-.86-.65 2.5 2.5 0 0 0-1.1-.24Zm6.55 7.82c-.46 0-.69-.22-.69-.67v-11.17h.56v11.34h1.33v.5h-1.2Zm6.19.2a3.22 3.22 0 0 1-2.56-1.1c-.62-.72-.93-1.78-.93-3.16 0-1.38.3-2.43.91-3.16a3.1 3.1 0 0 1 2.51-1.1 3.14 3.14 0 0 1 2.42 1.1c.3.36.53.78.69 1.28.16.5.24 1.04.24 1.65v.26h-6.18v.43c0 .5.07.96.2 1.36.12.4.3.75.55 1.04a2.66 2.66 0 0 0 2.15.9c1.29 0 2.18-.62 2.67-1.86l.43.24a3.34 3.34 0 0 1-1.15 1.54 3.2 3.2 0 0 1-1.95.57Zm-.07-8.02c-.44 0-.84.08-1.2.24-.34.14-.63.36-.88.65-.24.29-.43.64-.56 1.04-.12.4-.19.85-.19 1.35v.06h5.57v-.1c0-.49-.07-.93-.2-1.32a2.8 2.8 0 0 0-.57-1.03 2.2 2.2 0 0 0-.86-.65 2.5 2.5 0 0 0-1.1-.24Zm8.61 8.01a3.14 3.14 0 0 1-2.54-1.09c-.6-.72-.9-1.78-.9-3.16 0-1.4.3-2.46.9-3.17a3.14 3.14 0 0 1 2.54-1.09c.69 0 1.25.15 1.7.46.45.3.8.7 1.04 1.22l-.46.24a2.75 2.75 0 0 0-.9-1.06 2.36 2.36 0 0 0-1.38-.36c-.91 0-1.62.3-2.1.9a3.64 3.64 0 0 0-.73 2.4v.92c0 1 .24 1.8.72 2.4.5.6 1.2.9 2.11.9.61 0 1.1-.13 1.5-.37.39-.26.7-.61.95-1.06l.42.29c-.27.5-.63.88-1.09 1.18a3.2 3.2 0 0 1-1.78.45Zm6.15-.19c-.46 0-.69-.22-.69-.67v-6.96h-1.47v-.5h1.06c.18 0 .3-.04.35-.11.06-.07.1-.2.1-.38v-1.81h.52v2.3h1.9v.5h-1.9v7.13h1.78v.5h-1.65Zm4.09 0v-8.13h.56v1.43h.06c.17-.39.45-.72.83-1 .39-.28.94-.43 1.67-.43h.6v.53h-.7c-.33 0-.65.04-.94.13a2.1 2.1 0 0 0-1.33 1.02c-.13.25-.2.53-.2.87V457h-.55Zm5.83-10.64c-.17 0-.3-.04-.37-.11a.44.44 0 0 1-.1-.3v-.15c0-.12.02-.21.09-.29.07-.08.2-.13.36-.13.18 0 .3.05.37.13.08.08.12.17.12.29v.14a.4.4 0 0 1-.12.3c-.06.08-.18.12-.35.12Zm-.29 2.51h.56V457h-.56v-8.13Zm6.52 8.32a3.14 3.14 0 0 1-2.54-1.09c-.6-.72-.9-1.78-.9-3.16 0-1.4.3-2.46.9-3.17a3.14 3.14 0 0 1 2.54-1.09c.68 0 1.25.15 1.7.46.44.3.8.7 1.04 1.22l-.47.24a2.76 2.76 0 0 0-.9-1.06 2.36 2.36 0 0 0-1.37-.36c-.92 0-1.62.3-2.11.9a3.7 3.7 0 0 0-.72 2.4v.92c0 1 .24 1.8.72 2.4.49.6 1.2.9 2.11.9.6 0 1.1-.13 1.49-.37.4-.26.71-.61.96-1.06l.42.29c-.27.5-.63.88-1.1 1.18a3.2 3.2 0 0 1-1.77.45Zm5.4-10.83c-.18 0-.3-.04-.37-.11a.44.44 0 0 1-.11-.3v-.15c0-.12.03-.21.1-.29.07-.08.19-.13.36-.13.17 0 .3.05.37.13s.11.17.11.29v.14c0 .12-.04.22-.11.3-.07.08-.18.12-.35.12Zm-.3 2.51h.57V457h-.56v-8.13Zm4.81 8.13c-.46 0-.68-.22-.68-.67v-6.96h-1.48v-.5h1.06c.18 0 .3-.04.35-.11.07-.07.1-.2.1-.38v-1.81h.53v2.3h1.9v.5h-1.9v7.13h1.77v.5h-1.65Zm9.06-8.13h.56l-3.97 10.8a.89.89 0 0 1-.3.4.9.9 0 0 1-.53.13h-1.18v-.5h1.44l.96-2.54-3.06-8.29h.6l2.71 7.52h.05l2.72-7.52Zm7.37 8.13c-.46 0-.7-.22-.7-.67v-6.96h-1.46v-.5h1.05c.18 0 .3-.04.35-.11.07-.07.1-.2.1-.38v-1.81h.53v2.3h1.9v.5h-1.9v7.13h1.77v.5h-1.64Zm6.75.2a3.15 3.15 0 0 1-2.52-1.1c-.61-.72-.91-1.78-.91-3.16 0-1.4.3-2.46.9-3.17a3.15 3.15 0 0 1 2.54-1.09c1.06 0 1.9.36 2.5 1.09.63.71.94 1.77.94 3.17 0 1.38-.31 2.44-.93 3.16a3.1 3.1 0 0 1-2.51 1.1Zm0-.5c.91 0 1.61-.3 2.1-.88.5-.6.74-1.42.74-2.45v-.87c0-1.04-.25-1.86-.74-2.44a2.58 2.58 0 0 0-2.1-.88c-.9 0-1.6.29-2.1.88a3.7 3.7 0 0 0-.73 2.44v.87c0 1.03.25 1.85.74 2.45a2.6 2.6 0 0 0 2.1.88Zm15.05-.96h-.05c-.18.38-.48.72-.91 1.02-.43.29-.98.43-1.67.43a3.1 3.1 0 0 1-2.5-1.07 5.02 5.02 0 0 1-.87-3.18c0-1.4.3-2.46.88-3.17a3.06 3.06 0 0 1 2.5-1.09c.68 0 1.23.14 1.66.43.43.29.73.63.91 1.03h.05v-4.98h.56V457h-.56v-1.26Zm-2.54.94c.34 0 .66-.05.97-.14a2.38 2.38 0 0 0 1.36-1.06c.14-.26.2-.54.2-.85v-3.42c0-.3-.06-.57-.2-.82a2.38 2.38 0 0 0-1.36-1.06c-.3-.1-.63-.15-.97-.15-.91 0-1.62.3-2.12.9a3.6 3.6 0 0 0-.73 2.4v.92c0 1.01.24 1.81.73 2.4.5.59 1.2.88 2.12.88Zm6.3.32v-8.13h.56v1.43h.07c.17-.39.45-.72.83-1a2.8 2.8 0 0 1 1.67-.43h.6v.53h-.7c-.33 0-.65.04-.94.13a2.1 2.1 0 0 0-1.33 1.02c-.13.25-.2.53-.2.87V457h-.55Zm5.84-10.64c-.17 0-.3-.04-.37-.11a.44.44 0 0 1-.11-.3v-.15c0-.12.03-.21.1-.29.07-.08.2-.13.36-.13.17 0 .3.05.37.13.08.08.11.17.11.29v.14c0 .12-.03.22-.1.3-.07.08-.19.12-.36.12Zm-.29 2.51h.56V457h-.56v-8.13Zm2.54 0h.59l2.72 7.52h.05l2.72-7.52h.56l-3 8.13h-.65l-3-8.13Zm11.3 8.32a3.21 3.21 0 0 1-2.55-1.09c-.62-.72-.93-1.78-.93-3.16 0-1.38.3-2.43.91-3.16a3.1 3.1 0 0 1 2.51-1.1 3.14 3.14 0 0 1 2.42 1.1c.3.36.53.78.69 1.28.16.5.24 1.04.24 1.65v.26h-6.18v.43c0 .5.07.96.2 1.36a2.7 2.7 0 0 0 1.47 1.71c.36.15.77.23 1.23.23 1.29 0 2.18-.62 2.67-1.86l.43.24a3.35 3.35 0 0 1-1.15 1.54c-.52.38-1.17.57-1.95.57Zm-.06-8.01c-.44 0-.84.08-1.2.24a2.4 2.4 0 0 0-.88.65c-.24.29-.43.64-.56 1.04-.12.4-.19.85-.19 1.35v.06h5.57v-.1a4 4 0 0 0-.2-1.32 2.8 2.8 0 0 0-.57-1.03 2.2 2.2 0 0 0-.86-.65 2.5 2.5 0 0 0-1.1-.24Zm14.94 7.82c-.44 0-.67-.22-.69-.67v-.6H342c-.2.42-.5.77-.91 1.05a3 3 0 0 1-1.68.41c-.85 0-1.5-.2-1.96-.6a2.2 2.2 0 0 1-.68-1.72c0-.35.05-.67.16-.96.1-.29.28-.53.52-.73.26-.22.58-.38.98-.48.4-.12.9-.18 1.49-.18h2.13v-1.09c0-.77-.2-1.33-.56-1.7-.38-.37-.93-.55-1.67-.55-1.14 0-1.93.48-2.37 1.44l-.4-.28c.23-.5.56-.9 1-1.2a3.1 3.1 0 0 1 1.79-.46c.9 0 1.6.24 2.06.7.47.46.7 1.12.7 1.99v5.13h1.25v.5h-1.1Zm-3.3-.3c.36 0 .69-.05 1-.13.32-.1.6-.23.83-.4.23-.17.42-.39.56-.64.14-.26.2-.56.2-.9v-1.66h-2.12c-.9 0-1.55.15-1.95.46-.41.3-.61.7-.61 1.2v.45c0 .53.19.94.57 1.22.4.26.9.4 1.52.4Zm6.36.3v-8.13h.56v1.25h.05c.16-.4.44-.73.83-1 .4-.3.96-.44 1.67-.44.9 0 1.58.27 2.04.8.49.52.73 1.3.73 2.3V457h-.56v-5.12c0-.94-.2-1.62-.61-2.05-.4-.44-.97-.65-1.73-.65-.31 0-.61.04-.91.12-.3.09-.55.22-.77.39-.23.17-.4.38-.55.64-.12.25-.19.55-.19.9V457h-.56Zm-235.4 21.2a3.22 3.22 0 0 1-2.56-1.1c-.62-.72-.93-1.78-.93-3.16 0-1.38.3-2.43.91-3.16a3.11 3.11 0 0 1 2.52-1.1 3.14 3.14 0 0 1 2.41 1.1c.3.36.53.78.69 1.28.16.5.24 1.04.24 1.65v.26h-6.18v.43c0 .5.07.96.2 1.36a2.7 2.7 0 0 0 1.47 1.71c.36.15.77.23 1.23.23 1.3 0 2.18-.62 2.67-1.86l.43.24a3.34 3.34 0 0 1-1.15 1.54 3.2 3.2 0 0 1-1.95.57Zm-.06-8.02c-.45 0-.85.08-1.2.24-.34.14-.64.36-.88.65-.25.29-.44.64-.56 1.04-.13.4-.2.85-.2 1.35v.06h5.57v-.1c0-.49-.07-.93-.2-1.32a2.8 2.8 0 0 0-.57-1.03 2.2 2.2 0 0 0-.86-.65 2.5 2.5 0 0 0-1.1-.24Zm6.54 7.82c-.46 0-.69-.22-.69-.67v-11.17h.56v11.34h1.33v.5h-1.2Zm6.2.2a3.22 3.22 0 0 1-2.57-1.1c-.62-.72-.93-1.78-.93-3.16 0-1.38.3-2.43.92-3.16.6-.73 1.44-1.1 2.5-1.1a3.14 3.14 0 0 1 2.42 1.1c.3.36.53.78.7 1.28.15.5.23 1.04.23 1.65v.26h-6.17v.43c0 .5.06.96.19 1.36a2.63 2.63 0 0 0 2.7 1.94c1.3 0 2.18-.62 2.67-1.86l.44.24a3.34 3.34 0 0 1-1.16 1.54 3.2 3.2 0 0 1-1.95.57Zm-.07-8.02c-.45 0-.85.08-1.2.24-.34.14-.64.36-.88.65-.25.29-.43.64-.56 1.04-.13.4-.2.85-.2 1.35v.06h5.57v-.1c0-.49-.06-.93-.2-1.32a2.8 2.8 0 0 0-.56-1.03c-.24-.29-.53-.5-.87-.65a2.5 2.5 0 0 0-1.1-.24Zm8.6 8.01a3.14 3.14 0 0 1-2.54-1.09c-.6-.72-.9-1.78-.9-3.16 0-1.4.3-2.46.9-3.17a3.14 3.14 0 0 1 2.55-1.09c.68 0 1.25.15 1.7.46.44.3.79.7 1.03 1.22l-.46.24a2.76 2.76 0 0 0-.9-1.06 2.36 2.36 0 0 0-1.37-.36c-.92 0-1.62.3-2.11.9a3.7 3.7 0 0 0-.72 2.4v.92c0 1 .24 1.8.72 2.4.49.6 1.19.9 2.1.9a2.8 2.8 0 0 0 1.5-.37c.39-.26.71-.61.96-1.06l.41.29c-.26.5-.63.88-1.09 1.18a3.2 3.2 0 0 1-1.77.45Zm6.15-.19c-.45 0-.68-.22-.68-.67v-6.96h-1.48v-.5h1.06c.18 0 .3-.04.35-.11.07-.07.1-.2.1-.38v-1.81h.53v2.3h1.9v.5h-1.9v7.13h1.77v.5h-1.65Zm4.09 0v-8.13h.56v1.43h.06c.18-.39.45-.72.84-1 .38-.28.94-.43 1.66-.43h.6v.53h-.7c-.33 0-.64.04-.94.13a2.13 2.13 0 0 0-1.33 1.02c-.13.25-.19.53-.19.87V478h-.56Zm5.84-10.64c-.18 0-.3-.04-.37-.11a.44.44 0 0 1-.11-.3v-.15c0-.12.03-.21.1-.29.07-.08.19-.13.36-.13.17 0 .3.05.37.13s.1.17.1.29v.14c0 .12-.03.22-.1.3-.07.08-.18.12-.35.12Zm-.3 2.51h.57V478h-.56v-8.13Zm6.53 8.32a3.14 3.14 0 0 1-2.55-1.09c-.6-.72-.9-1.78-.9-3.16 0-1.4.3-2.46.9-3.17a3.14 3.14 0 0 1 2.54-1.09c.69 0 1.25.15 1.7.46.45.3.8.7 1.04 1.22l-.46.24a2.76 2.76 0 0 0-.9-1.06 2.36 2.36 0 0 0-1.38-.36c-.91 0-1.62.3-2.1.9a3.64 3.64 0 0 0-.73 2.4v.92c0 1 .24 1.8.72 2.4.5.6 1.2.9 2.11.9.61 0 1.1-.13 1.5-.37.39-.26.7-.61.95-1.06l.42.29c-.27.5-.63.88-1.09 1.18a3.2 3.2 0 0 1-1.78.45Zm11.64 0a3.14 3.14 0 0 1-2.55-1.09c-.6-.72-.9-1.78-.9-3.16 0-1.4.3-2.46.9-3.17a3.14 3.14 0 0 1 2.55-1.09c.68 0 1.24.15 1.7.46.44.3.79.7 1.03 1.22l-.46.24a2.75 2.75 0 0 0-.9-1.06 2.36 2.36 0 0 0-1.38-.36c-.91 0-1.62.3-2.1.9a3.64 3.64 0 0 0-.73 2.4v.92c0 1 .24 1.8.72 2.4.5.6 1.2.9 2.12.9.6 0 1.1-.13 1.48-.37.4-.26.72-.61.96-1.06l.42.29c-.27.5-.63.88-1.09 1.18a3.2 3.2 0 0 1-1.78.45Zm10.4-.19c-.44 0-.67-.22-.69-.67v-.6h-.06c-.2.42-.5.77-.92 1.05a3 3 0 0 1-1.67.41c-.85 0-1.5-.2-1.96-.6a2.18 2.18 0 0 1-.69-1.72c0-.35.06-.67.16-.96.11-.29.29-.53.53-.73.26-.22.58-.38.98-.48.4-.12.9-.18 1.49-.18h2.13v-1.09c0-.77-.2-1.33-.56-1.7-.38-.37-.93-.55-1.67-.55-1.14 0-1.93.48-2.37 1.44l-.4-.28c.23-.5.56-.9 1-1.2a3.1 3.1 0 0 1 1.79-.46c.9 0 1.6.24 2.06.7.47.46.7 1.12.7 1.99v5.13h1.25v.5h-1.1Zm-3.3-.3a2.9 2.9 0 0 0 1.83-.53c.23-.17.42-.39.56-.64.13-.26.2-.56.2-.9v-1.66h-2.12c-.9 0-1.55.15-1.96.46-.4.3-.6.7-.6 1.2v.45c0 .53.19.94.57 1.22.4.26.9.4 1.52.4Zm6.36.3v-8.13h.56v1.43h.07c.17-.39.44-.72.83-1 .38-.28.94-.43 1.66-.43h.61v.53h-.7c-.34 0-.65.04-.95.13a2.13 2.13 0 0 0-1.33 1.02c-.12.25-.19.53-.19.87V478h-.56Zm16.11 0h-7.04v-.6l4.15-4.1c.54-.54.97-1.08 1.28-1.62.3-.54.46-1.1.46-1.68v-.42c0-.35-.05-.67-.16-.96a2.04 2.04 0 0 0-1.28-1.26c-.32-.13-.69-.2-1.1-.2-.8 0-1.43.2-1.87.6-.44.4-.76.91-.96 1.55l-.53-.16a3.18 3.18 0 0 1 2.1-2.32c.37-.13.8-.19 1.27-.19 1.03 0 1.8.28 2.34.85.54.55.82 1.31.82 2.29a4.1 4.1 0 0 1-.53 2.06c-.34.6-.83 1.22-1.47 1.84l-3.86 3.8h6.38v.52Zm3.2-1.09c.19 0 .33.05.41.16.1.1.15.23.15.39v.19c0 .45-.13.92-.37 1.4-.25.5-.56.91-.93 1.25h-.48a4.17 4.17 0 0 0 1.18-2.2.6.6 0 0 1-.41-.16.5.5 0 0 1-.11-.32v-.16c0-.16.04-.3.13-.39.08-.1.22-.16.43-.16Zm10.3-6.35a8.3 8.3 0 0 1-2.64 6.18c-.5.48-1.05.9-1.63 1.26h-.8c.63-.42 1.19-.84 1.68-1.28a8.08 8.08 0 0 0 2.75-4.82l-.06-.01c-.28.54-.66.96-1.14 1.25a3.3 3.3 0 0 1-1.72.43 4.1 4.1 0 0 1-1.4-.23 3.05 3.05 0 0 1-1.74-1.76 3.91 3.91 0 0 1-.24-1.42c0-.52.08-1 .24-1.44a2.99 2.99 0 0 1 1.78-1.82c.42-.17.9-.26 1.44-.26.6 0 1.1.1 1.55.3a3.08 3.08 0 0 1 1.73 2.05c.13.48.2 1 .2 1.57Zm-3.47 2.5c.45 0 .85-.07 1.2-.21.36-.14.66-.33.9-.56a2.65 2.65 0 0 0 .75-1.97v-.38a2.84 2.84 0 0 0-.77-1.99 2.6 2.6 0 0 0-.9-.57 3.2 3.2 0 0 0-1.18-.21c-.45 0-.85.07-1.2.2a2.41 2.41 0 0 0-1.46 1.45c-.12.33-.19.69-.19 1.08v.42c0 .4.07.76.2 1.1a2.45 2.45 0 0 0 1.45 1.43c.35.14.75.2 1.2.2Zm9.15-1.17c.4 0 .75-.06 1.07-.16.33-.12.61-.27.85-.47a2.11 2.11 0 0 0 .72-1.6v-.32c0-.67-.23-1.2-.7-1.58a2.6 2.6 0 0 0-1.78-.6 3 3 0 0 0-1.68.42 3.1 3.1 0 0 0-1 1.12l-.44-.27c.23-.5.6-.92 1.12-1.26a3.46 3.46 0 0 1 2-.53c.46 0 .88.06 1.26.2a2.66 2.66 0 0 1 1.62 1.43c.15.34.22.73.22 1.15 0 .78-.2 1.4-.62 1.83-.42.44-.95.72-1.6.85v.06c.72.1 1.31.38 1.77.86.46.48.69 1.14.69 1.97 0 .5-.08.94-.24 1.33a2.9 2.9 0 0 1-1.78 1.65c-.42.15-.9.22-1.42.22a4.3 4.3 0 0 1-2.06-.45 4 4 0 0 1-1.4-1.3l.47-.33c.33.52.73.91 1.2 1.17.48.26 1.08.38 1.79.38.85 0 1.53-.22 2.03-.67.51-.45.77-1.04.77-1.79v-.37c0-.73-.25-1.32-.75-1.76a2.95 2.95 0 0 0-2.07-.67h-1.47v-.51h1.43Zm8.13 6.11 4.7-10.66h-5.88v2.53h-.56v-3.04h7.06v.53L223.08 478h-.64Zm8.25 0v-8.13h.56v1.25h.05c.08-.2.18-.37.3-.54.14-.18.31-.32.5-.45.2-.14.42-.25.67-.32.27-.09.58-.13.93-.13.64 0 1.18.15 1.62.45.44.29.74.72.93 1.31h.04c.15-.51.44-.93.87-1.26.44-.33 1.02-.5 1.76-.5.9 0 1.58.27 2.05.8.47.52.7 1.3.7 2.3V478h-.56v-5.14c0-.91-.2-1.6-.58-2.03-.38-.44-.96-.65-1.72-.65-.31 0-.61.04-.9.12-.28.09-.52.22-.74.39a1.98 1.98 0 0 0-.7 1.55V478h-.56v-5.14c0-.92-.2-1.6-.6-2.03-.39-.44-.96-.65-1.7-.65-.31 0-.61.04-.9.12-.28.09-.53.22-.75.39a1.88 1.88 0 0 0-.7 1.53V478h-.57Zm14.34-10.64c-.17 0-.3-.04-.37-.11a.44.44 0 0 1-.11-.3v-.15c0-.12.03-.21.1-.29.07-.08.2-.13.36-.13.17 0 .3.05.37.13a.4.4 0 0 1 .11.29v.14c0 .12-.03.22-.1.3-.07.08-.2.12-.36.12Zm-.29 2.51h.56V478h-.56v-8.13Zm4.15 8.24a.6.6 0 0 1-.42-.14.52.52 0 0 1-.14-.39v-.14c0-.16.05-.29.14-.38.1-.1.24-.15.42-.15s.32.05.42.15c.1.1.14.22.14.38v.14c0 .16-.05.3-.14.39-.1.1-.24.14-.42.14ZM109.32 431l4.68-11.52h-4.36v2.54h-2.54v-4.98h9.88v2.6l-4.5 11.36h-3.16Zm13.91-8.44c.75 0 1.29-.14 1.62-.42.35-.3.52-.65.52-1.08v-.14c0-.5-.16-.91-.5-1.22-.32-.3-.78-.46-1.38-.46-.56 0-1.08.15-1.58.44-.5.28-.91.69-1.26 1.22l-1.88-1.76c.27-.35.56-.66.86-.94a4.88 4.88 0 0 1 2.34-1.22 7.28 7.28 0 0 1 3.64.08c.62.17 1.14.43 1.56.76a3.2 3.2 0 0 1 1.36 2.68 3.15 3.15 0 0 1-1.64 2.8c-.32.16-.66.27-1.02.34v.12a3.96 3.96 0 0 1 2.06 1.08c.27.28.48.61.62 1 .15.37.22.8.22 1.28a3.74 3.74 0 0 1-1.46 3 5.1 5.1 0 0 1-1.68.84c-.65.19-1.37.28-2.16.28-.7 0-1.33-.07-1.88-.22a5.94 5.94 0 0 1-1.44-.58 5.63 5.63 0 0 1-1.84-1.88l2.22-1.72c.3.57.68 1.05 1.12 1.42.46.36 1.06.54 1.82.54.68 0 1.2-.17 1.58-.5.39-.35.58-.81.58-1.4v-.12c0-.57-.22-1-.66-1.28a3.11 3.11 0 0 0-1.78-.44h-1.26v-2.5h1.3Zm12.75 8.68c-.82 0-1.56-.1-2.22-.3a5.05 5.05 0 0 1-1.62-.86 3.78 3.78 0 0 1-1.02-1.28 3.84 3.84 0 0 1-.34-1.62c0-.9.25-1.62.74-2.18a3.9 3.9 0 0 1 2-1.2v-.16a3.97 3.97 0 0 1-1.68-1.16 3.05 3.05 0 0 1-.64-2 3.24 3.24 0 0 1 1.22-2.64c.42-.33.92-.59 1.5-.76.6-.19 1.3-.28 2.06-.28.78 0 1.46.1 2.04.28.6.17 1.1.43 1.5.76a3.34 3.34 0 0 1 1.24 2.64 3 3 0 0 1-.66 2c-.42.52-.98.9-1.66 1.16v.16c.84.23 1.51.63 2 1.2.5.56.74 1.29.74 2.18a3.65 3.65 0 0 1-1.36 2.9 4.9 4.9 0 0 1-1.64.86c-.64.2-1.37.3-2.2.3Zm0-2.3c.67 0 1.18-.15 1.52-.46.36-.32.54-.76.54-1.32v-.4c0-.56-.18-1-.54-1.3-.34-.32-.85-.48-1.52-.48-.66 0-1.18.16-1.54.48-.34.3-.52.74-.52 1.3v.4c0 .56.18 1 .52 1.32.36.3.88.46 1.54.46Zm0-6.16c.64 0 1.13-.15 1.46-.44.34-.3.5-.72.5-1.24v-.32c0-.52-.16-.93-.5-1.22-.33-.3-.82-.46-1.46-.46s-1.12.15-1.46.46c-.33.3-.5.7-.5 1.22v.32c0 .52.17.93.5 1.24.34.3.82.44 1.46.44Zm7.38-6.58h2.96v8.74h.12l1.3-1.94 2.1-2.5h3.28l-3.5 4.02 3.9 6.48H150l-2.36-4.44-1.32 1.48V431h-2.96v-14.8Zm13.76 14.8-3.16-13.96h3l1.32 6.7.74 3.88h.06l.88-3.88 1.54-6.7h3.32l1.56 6.7.86 3.88h.06l.74-3.88 1.34-6.7h2.88L169.02 431h-3.46l-1.76-7.56-.68-3.06h-.06l-.7 3.06-1.76 7.56h-3.48Zm17.1-14.8h2.96v6.08h.12a2.89 2.89 0 0 1 2.92-2.02c1.08 0 1.89.36 2.44 1.08.56.72.84 1.75.84 3.08V431h-2.96v-6.34c0-.68-.11-1.18-.32-1.5-.22-.33-.6-.5-1.14-.5a2.46 2.46 0 0 0-1.32.38c-.18.13-.32.3-.42.5-.11.19-.16.4-.16.66v6.8h-2.96v-14.8Zm20.76 15.04a4.5 4.5 0 0 1-1.84-.36 3.85 3.85 0 0 1-1.4-1.04 5.03 5.03 0 0 1-.9-1.7 7.38 7.38 0 0 1-.32-2.26 7 7 0 0 1 .32-2.24 4.8 4.8 0 0 1 .9-1.68c.38-.47.85-.82 1.4-1.06a4.33 4.33 0 0 1 1.84-.38c.68 0 1.29.13 1.84.38.54.24 1.01.6 1.4 1.06.38.45.68 1.01.9 1.68.21.65.32 1.4.32 2.24 0 .84-.11 1.6-.32 2.26a5.06 5.06 0 0 1-.9 1.7c-.39.45-.86.8-1.4 1.04-.55.24-1.16.36-1.84.36Zm0-1.02c1 0 1.78-.31 2.36-.94.58-.63.88-1.55.88-2.76v-1.28c0-1.2-.3-2.11-.88-2.74a3 3 0 0 0-2.36-.96c-1 0-1.8.31-2.38.94-.58.63-.86 1.55-.86 2.76v1.28c0 1.2.28 2.12.86 2.76a3.1 3.1 0 0 0 2.38.94Zm7.76-8.46h-1.77v-1h1.77v-2.86c0-.52.12-.93.38-1.24.26-.3.67-.46 1.22-.46h1.8v1h-2.26v3.56h2.25v1h-2.25V431h-1.14v-9.24Zm14.07 9.48c-.68 0-1.3-.12-1.86-.36a4.04 4.04 0 0 1-2.32-2.74c-.2-.67-.3-1.42-.3-2.26 0-.84.1-1.59.3-2.24a4.8 4.8 0 0 1 .9-1.68c.4-.47.88-.82 1.42-1.06a4.33 4.33 0 0 1 1.84-.38 4.1 4.1 0 0 1 4 3c.22.61.32 1.3.32 2.04v.54h-7.58v.5a5 5 0 0 0 .22 1.48c.16.44.38.82.66 1.14.3.32.65.57 1.06.76.42.17.88.26 1.4.26a3.1 3.1 0 0 0 3.1-2.06l.84.56a3.97 3.97 0 0 1-1.52 1.82c-.68.45-1.5.68-2.48.68Zm-.02-9.76c-.49 0-.94.1-1.34.28a3.02 3.02 0 0 0-1.7 1.9 4.8 4.8 0 0 0-.22 1.46v.1h6.34v-.16c0-.53-.07-1.02-.22-1.46a3.07 3.07 0 0 0-1.62-1.86 2.91 2.91 0 0 0-1.24-.26Zm7.22 9.52v-10.24h1.14v1.62h.06a3.1 3.1 0 0 1 1.06-1.32 3.2 3.2 0 0 1 1.96-.54c1.1 0 1.94.34 2.54 1.02.62.67.92 1.63.92 2.88V431h-1.14v-6.38c0-1.04-.22-1.81-.68-2.32-.44-.5-1.08-.76-1.94-.76-.36 0-.7.05-1.04.14-.33.1-.63.23-.9.42-.25.19-.46.43-.62.72-.14.28-.22.6-.22.98v7.2h-1.14Zm14.93.24c-.68 0-1.3-.12-1.86-.36a4.04 4.04 0 0 1-2.32-2.74c-.2-.67-.3-1.42-.3-2.26 0-.84.1-1.59.3-2.24a4.8 4.8 0 0 1 .9-1.68c.4-.47.88-.82 1.42-1.06a4.33 4.33 0 0 1 1.84-.38 4.1 4.1 0 0 1 4 3c.22.61.32 1.3.32 2.04v.54h-7.58v.5a5 5 0 0 0 .22 1.48c.16.44.38.82.66 1.14.3.32.65.57 1.06.76.41.17.88.26 1.4.26a3.1 3.1 0 0 0 3.1-2.06l.84.56a3.97 3.97 0 0 1-1.52 1.82c-.68.45-1.5.68-2.48.68Zm-.02-9.76c-.5 0-.94.1-1.34.28a3.02 3.02 0 0 0-1.7 1.9 4.8 4.8 0 0 0-.22 1.46v.1H242v-.16c0-.53-.07-1.02-.22-1.46a3.07 3.07 0 0 0-1.62-1.86 2.91 2.91 0 0 0-1.24-.26Zm7.22 9.52v-10.24h1.14v1.84h.08c.2-.48.54-.9 1.02-1.28a3.26 3.26 0 0 1 2.04-.56h.68v1.12h-.9c-.85 0-1.55.19-2.1.56-.54.37-.82.9-.82 1.56v7h-1.14Zm15.06 1.2c0 1.04-.42 1.8-1.26 2.3-.82.5-2.05.74-3.66.74-1.56 0-2.68-.23-3.38-.68a2.13 2.13 0 0 1-1.04-1.88c0-.59.15-1.05.46-1.4.3-.35.74-.6 1.3-.76v-.16a1.4 1.4 0 0 1-.96-1.4c0-.5.17-.9.5-1.16.34-.27.75-.47 1.24-.6v-.08a3.1 3.1 0 0 1-1.4-1.2 3.55 3.55 0 0 1-.5-1.92c0-.52.09-1 .26-1.42.18-.43.42-.8.74-1.1.34-.3.73-.54 1.18-.7a4.4 4.4 0 0 1 1.54-.26c.79 0 1.47.17 2.06.5v-.5c0-.3.08-.55.22-.74.15-.2.39-.3.72-.3h1.76v1h-2.08v.98c.35.3.62.68.8 1.12.19.43.28.9.28 1.42a3.5 3.5 0 0 1-1.04 2.54c-.32.3-.71.55-1.18.72a4.54 4.54 0 0 1-2.06.2l-.52-.08c-.44.12-.8.29-1.1.5a.95.95 0 0 0-.42.82c0 .61.55.92 1.64.92h2.38c1.24 0 2.13.23 2.68.7.56.45.84 1.08.84 1.88Zm-1.1.08c0-.5-.18-.89-.54-1.18-.35-.28-.97-.42-1.88-.42h-3.32a2.3 2.3 0 0 0-1.04.66c-.25.3-.38.66-.38 1.1 0 .53.22.97.66 1.32.44.36 1.1.54 2 .54h1.28c1 0 1.79-.17 2.36-.5.57-.32.86-.83.86-1.52Zm-3.86-5.7c.79 0 1.4-.2 1.84-.58.46-.4.68-.96.68-1.68v-.64c0-.7-.22-1.25-.68-1.64-.44-.4-1.05-.6-1.84-.6-.8 0-1.42.2-1.86.6-.44.39-.66.93-.66 1.64v.64c0 .72.22 1.28.66 1.68.46.39 1.08.58 1.86.58Zm13.37-5.82h1.15l-4.74 13.12c-.15.43-.35.72-.57.88-.23.16-.6.24-1.13.24h-1.15v-1h1.71l.99-2.7-3.8-10.54h1.2l3.13 9.02h.09l3.12-9.02Zm-162.15-89.02h5c.87 0 1.67.14 2.4.42.72.27 1.33.7 1.84 1.25.5.54.9 1.23 1.17 2.07a9 9 0 0 1 .42 2.89 9.1 9.1 0 0 1-.42 2.9 5.8 5.8 0 0 1-1.17 2.08c-.51.54-1.12.95-1.85 1.23a6.6 6.6 0 0 1-2.39.42h-5v-13.26Zm5 10.7a2.8 2.8 0 0 0 2.03-.73c.5-.48.74-1.25.74-2.31v-2.06c0-1.06-.24-1.83-.74-2.31a2.8 2.8 0 0 0-2.03-.73h-2.1v8.13h2.1Zm9.5-8.48c-.56 0-.98-.13-1.25-.38a1.4 1.4 0 0 1-.38-1v-.42c0-.4.13-.74.38-1 .27-.26.69-.4 1.26-.4.56 0 .98.14 1.23.4.27.26.4.6.4 1v.41c0 .4-.13.75-.4 1.01-.25.25-.67.38-1.23.38Zm-1.4 1.06h2.81V345h-2.81v-9.98ZM126 345v-9.98h2.8v2.17h.1a2.92 2.92 0 0 1 .76-1.5 2.55 2.55 0 0 1 1.79-.67h.5v2.63h-.71a4 4 0 0 0-1.84.32c-.4.21-.6.61-.6 1.2V345H126Zm11.25 0c-.98 0-1.72-.25-2.23-.74-.49-.5-.74-1.22-.74-2.17v-4.88h-1.4v-2.19h.7c.38 0 .64-.08.78-.26.14-.2.2-.46.2-.8v-1.63h2.53v2.7h1.98v2.18h-1.97v5.6h1.82V345h-1.67Zm5.18-11.04c-.57 0-.99-.13-1.25-.38a1.4 1.4 0 0 1-.38-1v-.42c0-.4.12-.74.38-1s.68-.4 1.25-.4.98.14 1.24.4.4.6.4 1v.41c0 .4-.14.75-.4 1.01-.26.25-.67.38-1.24.38Zm-1.4 1.06h2.8V345h-2.8v-9.98Zm9.6 10.2a4.46 4.46 0 0 1-3.55-1.4c-.42-.45-.73-1-.94-1.65-.2-.65-.3-1.37-.3-2.17 0-.78.1-1.5.3-2.13a4 4 0 0 1 2.38-2.7 4.97 4.97 0 0 1 1.99-.37c.82 0 1.53.14 2.1.41.6.28 1.08.66 1.45 1.13.38.47.65 1 .82 1.63.18.6.26 1.25.26 1.92v.84h-6.4v.15c0 .66.18 1.18.53 1.57.36.38.91.57 1.67.57.59 0 1.06-.11 1.43-.34.37-.24.71-.52 1.03-.85l1.4 1.75c-.44.51-1.02.92-1.75 1.21-.7.3-1.52.44-2.43.44Zm-.06-8.35a1.7 1.7 0 0 0-1.35.57 2.2 2.2 0 0 0-.48 1.48v.15h3.5v-.17c0-.6-.14-1.1-.42-1.46-.27-.38-.69-.57-1.25-.57Zm6.56 8.13v-9.98h2.81v2.17h.1a2.99 2.99 0 0 1 .76-1.5 2.56 2.56 0 0 1 1.79-.67h.49v2.63h-.7c-.83 0-1.44.1-1.85.32-.4.21-.59.61-.59 1.2V345h-2.81Zm15.67 0c-.98 0-1.72-.25-2.23-.74-.49-.5-.74-1.22-.74-2.17v-4.88h-1.4v-2.19h.7c.38 0 .64-.08.78-.26.14-.2.2-.46.2-.8v-1.63h2.54v2.7h1.97v2.18h-1.97v5.6h1.82V345h-1.67Zm3.78-14.06h2.8v5.78h.12c.18-.52.49-.97.93-1.35a2.74 2.74 0 0 1 1.85-.57c1.02 0 1.8.34 2.31 1.02.54.69.8 1.66.8 2.93V345h-2.81v-6.02c0-.65-.1-1.12-.3-1.43-.2-.31-.57-.47-1.09-.47a2.35 2.35 0 0 0-1.25.36c-.17.13-.3.28-.4.47-.1.18-.15.39-.15.63V345h-2.81v-14.06ZM195.27 345a1.8 1.8 0 0 1-1.28-.48 2.22 2.22 0 0 1-.62-1.27h-.12a2.34 2.34 0 0 1-1 1.48c-.52.33-1.16.5-1.92.5-1 0-1.77-.27-2.3-.8a2.85 2.85 0 0 1-.8-2.1c0-1.06.38-1.84 1.14-2.35a5.55 5.55 0 0 1 3.13-.78h1.58v-.62c0-.48-.13-.86-.38-1.14-.25-.3-.68-.44-1.27-.44-.56 0-1 .12-1.33.36-.33.24-.6.51-.82.82l-1.67-1.48c.4-.6.91-1.06 1.52-1.39a5.21 5.21 0 0 1 2.5-.51c1.43 0 2.49.3 3.2.93.7.62 1.06 1.52 1.06 2.71v4.38h.93V345h-1.55Zm-3.9-1.73c.47 0 .87-.1 1.2-.3.34-.2.51-.54.51-1v-1.17h-1.37c-1.1 0-1.65.38-1.65 1.12v.29c0 .36.11.64.34.81.23.17.55.25.97.25Zm7.34 1.73v-9.98h2.81v1.7h.12c.18-.52.49-.97.93-1.35a2.74 2.74 0 0 1 1.84-.57c1.03 0 1.8.34 2.32 1.02.53.69.8 1.66.8 2.93V345h-2.81v-6.02c0-.65-.1-1.12-.3-1.43-.21-.31-.57-.47-1.1-.47a2.36 2.36 0 0 0-1.25.36c-.16.13-.3.28-.4.47-.1.18-.15.39-.15.63V345h-2.8Zm20.2.23a7.2 7.2 0 0 1-2.11-.29 4.8 4.8 0 0 1-1.54-.81 3.58 3.58 0 0 1-.97-1.22 3.65 3.65 0 0 1-.32-1.54 3 3 0 0 1 .7-2.07 3.7 3.7 0 0 1 1.9-1.14v-.15a3.77 3.77 0 0 1-1.6-1.1 2.9 2.9 0 0 1-.6-1.9c0-.51.1-.98.28-1.41.2-.43.5-.8.88-1.1.39-.32.87-.56 1.42-.72a6.6 6.6 0 0 1 1.96-.27c.73 0 1.38.09 1.94.27.57.16 1.04.4 1.42.72.4.3.69.67.88 1.1.2.43.3.9.3 1.4 0 .78-.2 1.41-.63 1.9-.4.5-.93.87-1.57 1.1v.16c.8.21 1.43.6 1.9 1.14a3 3 0 0 1 .7 2.07 3.47 3.47 0 0 1-1.3 2.76c-.41.34-.93.61-1.55.81-.6.2-1.3.29-2.1.29Zm0-2.19c.63 0 1.11-.14 1.44-.43.34-.3.52-.73.52-1.26v-.38c0-.53-.18-.94-.52-1.23-.33-.3-.8-.46-1.44-.46-.63 0-1.12.15-1.46.46-.33.29-.5.7-.5 1.23v.38c0 .53.17.95.5 1.26.34.29.83.43 1.46.43Zm0-5.85c.6 0 1.07-.14 1.39-.42.31-.29.47-.68.47-1.17v-.3c0-.5-.16-.89-.47-1.17-.32-.29-.78-.44-1.4-.44-.6 0-1.06.15-1.38.44a1.5 1.5 0 0 0-.47 1.16v.3c0 .5.16.9.47 1.18.32.28.78.42 1.39.42Zm11.4 8.04a7.2 7.2 0 0 1-2.12-.29 4.8 4.8 0 0 1-1.54-.81 3.58 3.58 0 0 1-.97-1.22 3.63 3.63 0 0 1-.32-1.54c0-.85.24-1.54.7-2.07a3.7 3.7 0 0 1 1.9-1.14v-.15a3.77 3.77 0 0 1-1.6-1.1 2.9 2.9 0 0 1-.6-1.9 3.06 3.06 0 0 1 1.16-2.5c.4-.33.87-.57 1.42-.73a6.6 6.6 0 0 1 1.96-.27c.74 0 1.38.09 1.94.27.57.16 1.04.4 1.42.72.4.3.69.67.88 1.1.2.43.3.9.3 1.4 0 .78-.2 1.41-.62 1.9-.41.5-.94.87-1.58 1.1v.16c.8.21 1.43.6 1.9 1.14a3 3 0 0 1 .7 2.07 3.47 3.47 0 0 1-1.29 2.76c-.42.34-.94.61-1.56.81-.6.2-1.3.29-2.09.29Zm0-2.19c.63 0 1.1-.14 1.44-.43.34-.3.5-.73.5-1.26v-.38c0-.53-.16-.94-.5-1.23-.33-.3-.81-.46-1.45-.46-.63 0-1.12.15-1.46.46-.33.29-.5.7-.5 1.23v.38c0 .53.17.95.5 1.26.34.29.83.43 1.46.43Zm0-5.85c.6 0 1.06-.14 1.38-.42.31-.29.47-.68.47-1.17v-.3c0-.5-.16-.89-.47-1.17-.32-.29-.78-.44-1.39-.44-.6 0-1.07.15-1.39.44a1.5 1.5 0 0 0-.47 1.16v.3c0 .5.16.9.47 1.18.32.28.78.42 1.4.42Zm9.09 7.81 9.2-13.26h2.5L241.9 345h-2.5Zm.96-5.97c-1.11 0-1.96-.31-2.54-.95-.58-.63-.88-1.57-.88-2.8 0-1.25.3-2.19.88-2.82.58-.63 1.43-.95 2.54-.95 1.12 0 1.97.32 2.55.95.58.63.87 1.57.87 2.81s-.29 2.18-.87 2.81c-.58.64-1.43.95-2.55.95Zm0-1.63c.33 0 .58-.13.74-.38.17-.27.25-.68.25-1.25v-1c0-.56-.08-.97-.25-1.23a.82.82 0 0 0-.74-.4.82.82 0 0 0-.74.4c-.16.26-.24.67-.24 1.24v.99c0 .57.08.98.24 1.25.17.25.41.38.74.38Zm9.77 7.83c-1.12 0-1.96-.32-2.55-.95-.58-.63-.87-1.57-.87-2.81 0-1.25.3-2.18.87-2.82.59-.63 1.43-.95 2.55-.95 1.12 0 1.96.32 2.55.95.58.64.87 1.58.87 2.82 0 1.24-.3 2.17-.87 2.8-.59.64-1.44.96-2.55.96Zm0-1.64c.33 0 .58-.12.74-.38.17-.26.25-.68.25-1.25v-.99c0-.57-.08-.98-.25-1.23a.82.82 0 0 0-.74-.4.82.82 0 0 0-.74.4c-.17.25-.25.66-.25 1.23v.99c0 .57.08.99.25 1.25.16.26.41.38.74.38Zm-138.9 26.64a4.3 4.3 0 0 1-1.75-.34 3.66 3.66 0 0 1-1.33-1 4.8 4.8 0 0 1-.86-1.6 7.2 7.2 0 0 1-.3-2.15c0-.8.1-1.51.3-2.13.2-.63.49-1.17.86-1.6.36-.44.8-.78 1.33-1a4.1 4.1 0 0 1 1.74-.37c.65 0 1.23.12 1.75.36.52.23.97.57 1.33 1.01.37.43.66.96.86 1.6.2.62.3 1.33.3 2.13 0 .8-.1 1.51-.3 2.14a4.8 4.8 0 0 1-.86 1.62c-.36.43-.8.76-1.33.99a4.3 4.3 0 0 1-1.75.34Zm0-.97c.94 0 1.7-.3 2.24-.9.55-.59.83-1.46.83-2.62v-1.21c0-1.14-.28-2.01-.83-2.6a2.88 2.88 0 0 0-2.25-.92c-.94 0-1.7.3-2.26.9-.54.6-.81 1.46-.81 2.62v1.21c0 1.14.27 2.02.81 2.63.56.6 1.32.89 2.27.89Zm7.36-8.04h-1.67v-.95h1.67v-2.71c0-.5.13-.9.37-1.18.25-.3.64-.44 1.16-.44h1.7v.95h-2.14v3.38h2.14v.95h-2.14V370h-1.09v-8.78Zm11.57 8.78c-.39 0-.69-.1-.89-.32-.2-.22-.3-.51-.3-.88v-7.58h-1.7v-.95h1.1c.28 0 .45-.05.54-.15.1-.11.15-.31.15-.59v-1.97h1v2.71h2.2v.95h-2.2v7.83h2.04v.95h-1.94Zm4.7-14.06h1.08v5.87h.06c.21-.5.55-.92 1-1.25a3.04 3.04 0 0 1 1.87-.52c1.03 0 1.84.33 2.4.97.6.64.88 1.55.88 2.74V370h-1.08v-6.06c0-.99-.22-1.72-.65-2.2-.41-.49-1.03-.73-1.84-.73-.34 0-.67.05-.99.14-.31.09-.6.22-.85.4-.24.17-.44.4-.6.68-.13.26-.2.57-.2.93V370h-1.08v-14.06Zm14.18 14.29c-.65 0-1.23-.12-1.77-.34a3.84 3.84 0 0 1-2.2-2.6 7.47 7.47 0 0 1-.29-2.15c0-.8.1-1.51.29-2.13.2-.63.49-1.17.85-1.6a4.1 4.1 0 0 1 3.1-1.37 3.89 3.89 0 0 1 3.8 2.85c.2.59.3 1.23.3 1.94v.52h-7.2v.47a3.54 3.54 0 0 0 .84 2.49c.28.3.61.54 1 .72.4.17.84.25 1.34.25 1.42 0 2.4-.65 2.94-1.96l.8.53c-.3.72-.78 1.3-1.44 1.73a4.2 4.2 0 0 1-2.36.65Zm-.02-9.27c-.47 0-.9.09-1.27.26a2.88 2.88 0 0 0-1.62 1.8c-.14.43-.2.89-.2 1.4v.09h6.02v-.15c0-.51-.07-.97-.21-1.39a2.9 2.9 0 0 0-1.54-1.77 2.76 2.76 0 0 0-1.18-.24Zm10.21-.69h1.06l2.34 8.76h.04l2.58-8.76h1.01l2.6 8.76h.04l2.32-8.76h1.04l-2.73 9.73h-1.33l-2.45-8.19h-.04l-2.43 8.19h-1.31l-2.74-9.73Zm18.85 9.96c-.65 0-1.24-.12-1.77-.34a3.84 3.84 0 0 1-2.2-2.6 7.47 7.47 0 0 1-.29-2.15c0-.8.1-1.51.29-2.13.2-.63.48-1.17.85-1.6a4.1 4.1 0 0 1 3.1-1.37 3.89 3.89 0 0 1 3.8 2.85c.2.59.3 1.23.3 1.94v.52h-7.2v.47c0 .5.07.98.21 1.4.15.42.36.78.63 1.09.28.3.61.54 1 .72.4.17.84.25 1.33.25 1.42 0 2.4-.65 2.95-1.96l.8.53c-.3.72-.79 1.3-1.45 1.73-.64.43-1.43.65-2.35.65Zm-.02-9.27c-.47 0-.9.09-1.27.26a2.88 2.88 0 0 0-1.62 1.8c-.14.43-.2.89-.2 1.4v.09h6.02v-.15c0-.51-.08-.97-.21-1.39a2.9 2.9 0 0 0-1.54-1.77 2.76 2.76 0 0 0-1.18-.24Zm6.86-5.02H186v5.89h.06c.24-.54.6-.97 1.1-1.3a3.3 3.3 0 0 1 1.86-.49 3.6 3.6 0 0 1 2.95 1.33c.7.9 1.06 2.14 1.06 3.77 0 1.62-.35 2.87-1.06 3.76a3.57 3.57 0 0 1-2.95 1.33 3.3 3.3 0 0 1-1.84-.48 3.32 3.32 0 0 1-1.12-1.3H186V370h-1.08v-14.06Zm3.85 13.32c.98 0 1.74-.31 2.28-.93.55-.62.82-1.46.82-2.51v-1.37c0-1.05-.27-1.88-.82-2.5a2.87 2.87 0 0 0-2.28-.94 3.4 3.4 0 0 0-1.95.61 1.86 1.86 0 0 0-.82 1.56v3.86c0 .34.07.65.2.93a2.47 2.47 0 0 0 1.5 1.14c.33.1.7.15 1.07.15Zm11.55-8.99h1.08v1.56h.06c.24-.54.6-.97 1.1-1.3.5-.32 1.11-.49 1.86-.49 1.26 0 2.24.45 2.95 1.33.7.9 1.06 2.14 1.06 3.77 0 1.62-.35 2.87-1.06 3.76a3.56 3.56 0 0 1-2.95 1.33c-.75 0-1.36-.16-1.84-.48a3.31 3.31 0 0 1-1.12-1.3h-.06v5.35h-1.08v-13.53Zm3.86 8.99c.97 0 1.73-.31 2.28-.93a3.7 3.7 0 0 0 .81-2.51v-1.37c0-1.05-.27-1.88-.81-2.5a2.87 2.87 0 0 0-2.28-.94 3.4 3.4 0 0 0-1.96.61 1.85 1.85 0 0 0-.82 1.56v3.86c0 .34.07.65.21.93a2.45 2.45 0 0 0 1.48 1.14c.34.1.7.15 1.09.15Zm13.74.74c-.42 0-.73-.1-.92-.32-.19-.22-.3-.51-.32-.88v-.34h-.1c-.2.55-.56.98-1.06 1.3a3.5 3.5 0 0 1-1.88.47 3.46 3.46 0 0 1-2.37-.74 2.73 2.73 0 0 1-.84-2.13c0-.86.3-1.55.91-2.05.62-.51 1.64-.76 3.04-.76h2.24v-1.14c0-1.61-.83-2.42-2.49-2.42a2.9 2.9 0 0 0-1.61.42 2.9 2.9 0 0 0-1.05 1.16l-.68-.57c.27-.57.67-1.04 1.22-1.4a3.87 3.87 0 0 1 2.16-.56c1.14 0 2.02.29 2.63.86.6.57.9 1.37.9 2.4v5.75h1.32v.95h-1.1Zm-4.13-.7a3.52 3.52 0 0 0 2-.57c.26-.2.47-.42.6-.67.16-.26.23-.56.23-.9v-1.8h-2.28c-.97 0-1.68.16-2.12.48-.44.3-.65.73-.65 1.27v.46c0 .57.2 1 .6 1.29.41.3.95.44 1.62.44Zm15.44 1.84c0 .99-.4 1.72-1.2 2.19a6.9 6.9 0 0 1-3.48.7c-1.48 0-2.55-.22-3.2-.65a2.03 2.03 0 0 1-1-1.78c0-.56.15-1 .44-1.33.3-.33.7-.57 1.24-.73v-.15c-.61-.24-.92-.68-.92-1.33 0-.48.16-.85.48-1.1.32-.25.7-.44 1.18-.57v-.08a2.93 2.93 0 0 1-1.33-1.14 3.38 3.38 0 0 1-.48-1.82c0-.5.08-.94.25-1.35a2.98 2.98 0 0 1 1.82-1.71 4.32 4.32 0 0 1 3.42.23v-.48c0-.29.07-.52.21-.7.14-.19.37-.28.69-.28h1.67v.95h-1.98v.93c.33.29.59.64.76 1.06.18.4.27.86.27 1.35a3.32 3.32 0 0 1-.99 2.41c-.3.3-.68.52-1.12.69a4.31 4.31 0 0 1-1.96.19l-.5-.08c-.41.12-.76.27-1.04.48a.9.9 0 0 0-.4.77c0 .59.52.88 1.56.88h2.26c1.18 0 2.03.22 2.55.66.53.44.8 1.03.8 1.79Zm-1.05.08c0-.47-.17-.85-.51-1.13-.33-.26-.92-.4-1.79-.4h-3.15c-.42.14-.75.35-.99.63s-.36.63-.36 1.05c0 .5.2.92.63 1.25.42.34 1.05.51 1.9.51h1.21c.95 0 1.7-.15 2.25-.47.54-.3.81-.79.81-1.44Zm-3.67-5.42c.75 0 1.34-.18 1.75-.55.43-.38.65-.91.65-1.6v-.6c0-.68-.22-1.2-.65-1.56a2.5 2.5 0 0 0-1.75-.57c-.75 0-1.34.19-1.76.57-.42.37-.63.88-.63 1.56v.6c0 .69.21 1.22.63 1.6.43.37 1.02.55 1.76.55Zm10.16 4.43c-.65 0-1.23-.12-1.77-.34a3.83 3.83 0 0 1-2.2-2.6 7.47 7.47 0 0 1-.29-2.15c0-.8.1-1.51.29-2.13.2-.63.49-1.17.85-1.6a4.1 4.1 0 0 1 3.1-1.37 3.89 3.89 0 0 1 3.8 2.85c.2.59.3 1.23.3 1.94v.52h-7.2v.47a3.54 3.54 0 0 0 .84 2.49c.28.3.61.54 1 .72.4.17.84.25 1.34.25 1.42 0 2.4-.65 2.94-1.96l.8.53a3.8 3.8 0 0 1-1.44 1.73 4.2 4.2 0 0 1-2.36.65Zm-.02-9.27c-.47 0-.9.09-1.27.26a2.88 2.88 0 0 0-1.62 1.8c-.14.43-.2.89-.2 1.4v.09h6.02v-.15c0-.51-.07-.97-.21-1.39a2.91 2.91 0 0 0-1.54-1.77 2.76 2.76 0 0 0-1.18-.24Zm9.61 9.27c-.84 0-1.57-.16-2.18-.48a4.62 4.62 0 0 1-1.56-1.38l.8-.63c.4.53.85.92 1.33 1.18a3.6 3.6 0 0 0 1.69.38c.75 0 1.32-.16 1.73-.48.4-.31.6-.77.6-1.37 0-.51-.15-.92-.47-1.21-.3-.3-.8-.5-1.52-.61l-.8-.13a6.55 6.55 0 0 1-1.21-.29 2.45 2.45 0 0 1-1.56-1.3c-.14-.3-.2-.69-.2-1.13 0-.46.07-.85.24-1.2.18-.34.41-.62.7-.85a3 3 0 0 1 1.05-.52c.4-.1.84-.17 1.3-.17.82 0 1.48.14 2 .42.52.28.97.64 1.33 1.09l-.72.66c-.25-.3-.6-.58-1.03-.84a3 3 0 0 0-1.63-.4c-.7 0-1.24.16-1.63.46-.38.3-.57.74-.57 1.3s.17.97.5 1.23c.36.25.89.44 1.59.55l.78.11c.98.15 1.71.45 2.18.9.48.43.72 1.04.72 1.82a2.6 2.6 0 0 1-.93 2.13c-.6.5-1.45.76-2.53.76Zm12.47-.23c-.4 0-.7-.1-.9-.32-.2-.22-.3-.51-.3-.88v-7.58h-1.7v-.95h1.11c.27 0 .44-.05.53-.15.1-.11.15-.31.15-.59v-1.97h1v2.71h2.2v.95h-2.2v7.83h2.04v.95h-1.93Zm8.1.23c-.65 0-1.24-.12-1.78-.34a3.84 3.84 0 0 1-2.2-2.6 7.47 7.47 0 0 1-.29-2.15c0-.8.1-1.51.29-2.13.2-.63.49-1.17.85-1.6a4.1 4.1 0 0 1 3.1-1.37 3.89 3.89 0 0 1 3.8 2.85c.2.59.3 1.23.3 1.94v.52h-7.2v.47a3.54 3.54 0 0 0 .84 2.49c.28.3.61.54 1 .72.4.17.84.25 1.34.25 1.42 0 2.4-.65 2.94-1.96l.8.53c-.3.72-.78 1.3-1.44 1.73-.65.43-1.43.65-2.36.65Zm-.03-9.27c-.47 0-.9.09-1.27.26a2.88 2.88 0 0 0-1.62 1.8c-.14.43-.2.89-.2 1.4v.09h6.02v-.15c0-.51-.07-.97-.21-1.39a2.9 2.9 0 0 0-1.54-1.77 2.76 2.76 0 0 0-1.18-.24Zm9.62 9.27c-.85 0-1.58-.16-2.19-.48a4.6 4.6 0 0 1-1.56-1.38l.8-.63c.4.53.85.92 1.33 1.18.48.25 1.05.38 1.7.38.74 0 1.31-.16 1.72-.48.4-.31.6-.77.6-1.37 0-.51-.15-.92-.47-1.21-.3-.3-.8-.5-1.52-.61l-.8-.13a6.52 6.52 0 0 1-1.21-.29 3.1 3.1 0 0 1-.95-.51 2.43 2.43 0 0 1-.6-.78c-.15-.32-.22-.7-.22-1.14 0-.46.08-.85.25-1.2.18-.34.41-.62.7-.85.3-.23.64-.4 1.05-.52.4-.1.84-.17 1.3-.17.82 0 1.48.14 2 .42.52.28.97.64 1.33 1.09l-.72.66a4.2 4.2 0 0 0-1.02-.84 3 3 0 0 0-1.64-.4c-.7 0-1.24.16-1.63.46-.38.3-.57.74-.57 1.3s.17.97.51 1.23c.35.25.88.44 1.58.55l.78.11c.98.15 1.71.45 2.18.9.48.43.72 1.04.72 1.82a2.6 2.6 0 0 1-.93 2.13c-.6.5-1.45.76-2.52.76Zm7.9-.23c-.4 0-.7-.1-.9-.32-.2-.22-.3-.51-.3-.88v-7.58h-1.7v-.95h1.1c.27 0 .45-.05.54-.15.1-.11.15-.31.15-.59v-1.97h.99v2.71h2.2v.95h-2.2v7.83h2.05v.95h-1.94Zm8.09.23c-.65 0-1.24-.12-1.77-.34a3.84 3.84 0 0 1-2.2-2.6 7.47 7.47 0 0 1-.29-2.15c0-.8.1-1.51.29-2.13.2-.63.49-1.17.85-1.6a4.1 4.1 0 0 1 3.1-1.37 3.89 3.89 0 0 1 3.8 2.85c.2.59.3 1.23.3 1.94v.52h-7.2v.47c0 .5.07.98.21 1.4.15.42.36.78.63 1.09.28.3.61.54 1 .72.4.17.84.25 1.33.25 1.42 0 2.4-.65 2.95-1.96l.8.53c-.3.72-.79 1.3-1.45 1.73-.64.43-1.43.65-2.35.65Zm-.02-9.27c-.47 0-.9.09-1.27.26a2.88 2.88 0 0 0-1.62 1.8c-.14.43-.2.89-.2 1.4v.09h6.01v-.15c0-.51-.06-.97-.2-1.39a2.9 2.9 0 0 0-1.54-1.77 2.76 2.76 0 0 0-1.18-.24Zm13.15 7.48h-.06a3.1 3.1 0 0 1-1.12 1.31c-.48.32-1.1.48-1.85.48a3.56 3.56 0 0 1-2.94-1.33c-.7-.89-1.06-2.14-1.06-3.76 0-1.63.35-2.88 1.06-3.77a3.56 3.56 0 0 1 2.94-1.33c.75 0 1.37.17 1.87.5.5.31.86.75 1.1 1.29h.06v-5.89h1.08V370h-1.08v-1.56Zm-2.78.82c.38 0 .74-.05 1.07-.15a2.3 2.3 0 0 0 1.48-1.14c.15-.28.23-.6.23-.93v-3.86a2.01 2.01 0 0 0-.82-1.56 2.79 2.79 0 0 0-.9-.44 3.23 3.23 0 0 0-1.06-.17c-.97 0-1.73.31-2.28.93a3.67 3.67 0 0 0-.81 2.51v1.37c0 1.05.27 1.89.81 2.5.55.63 1.3.94 2.28.94ZM110.8 262.36V273h-.6v-10.64h-3.91v-.53h8.43v.53h-3.92Zm5.82-1.2h.56v4.96h.04c.16-.4.44-.73.84-1 .4-.3.96-.44 1.66-.44.9 0 1.58.27 2.05.8.48.52.72 1.3.72 2.3V273h-.56v-5.12c0-.94-.2-1.62-.61-2.05-.4-.44-.97-.65-1.73-.65-.3 0-.61.04-.91.12-.29.09-.54.22-.77.39-.22.17-.4.38-.54.64-.13.25-.2.55-.2.9V273h-.55v-11.84Zm11.73 12.03a3.22 3.22 0 0 1-2.56-1.09c-.62-.72-.93-1.78-.93-3.16 0-1.38.3-2.43.92-3.16.6-.73 1.44-1.1 2.5-1.1a3.14 3.14 0 0 1 2.43 1.1c.3.36.52.78.68 1.28.16.5.24 1.04.24 1.65v.26h-6.17v.43c0 .5.06.96.19 1.36.13.4.31.75.56 1.04.26.29.56.51.91.67.36.15.77.23 1.23.23 1.3 0 2.18-.62 2.68-1.86l.43.24a3.34 3.34 0 0 1-1.16 1.54 3.2 3.2 0 0 1-1.95.57Zm-.06-8.01c-.45 0-.85.08-1.2.24-.34.14-.64.36-.88.65-.25.29-.43.64-.56 1.04-.13.4-.2.85-.2 1.35v.06h5.58v-.1c0-.49-.07-.93-.21-1.32a2.8 2.8 0 0 0-.56-1.03c-.24-.29-.53-.5-.87-.65a2.5 2.5 0 0 0-1.1-.24Zm11.83 8.01a3.9 3.9 0 0 1-1.76-.37c-.5-.24-.92-.63-1.3-1.15l.44-.32c.36.48.74.83 1.15 1.04.41.2.91.3 1.49.3.72 0 1.27-.14 1.64-.44.38-.3.56-.73.56-1.3 0-.54-.16-.95-.48-1.21a2.8 2.8 0 0 0-1.44-.56l-.68-.12c-.37-.05-.7-.13-1-.24-.28-.1-.53-.24-.75-.41a2 2 0 0 1-.48-.66 2.4 2.4 0 0 1-.16-.93c0-.35.07-.66.2-.92a2 2 0 0 1 .55-.68c.25-.18.53-.31.85-.4.33-.1.69-.14 1.06-.14.68 0 1.24.12 1.66.37.43.23.78.51 1.06.83l-.4.37a3.51 3.51 0 0 0-.88-.74 3.12 3.12 0 0 0-1.46-.34 2.6 2.6 0 0 0-1.53.42c-.38.28-.56.69-.56 1.22 0 .54.16.94.48 1.2.32.24.8.42 1.45.53l.69.1a3.4 3.4 0 0 1 1.74.71c.42.34.63.86.63 1.55 0 .73-.25 1.3-.74 1.7-.49.4-1.17.6-2.03.6Zm10.59-.19c-.44 0-.67-.22-.69-.67v-.6h-.06c-.2.42-.5.77-.92 1.05a3 3 0 0 1-1.67.41c-.85 0-1.5-.2-1.96-.6a2.18 2.18 0 0 1-.69-1.72c0-.35.06-.67.16-.96.11-.29.29-.53.53-.73.26-.22.58-.38.98-.48.4-.12.9-.18 1.49-.18H150v-1.09c0-.77-.2-1.33-.56-1.7-.38-.37-.93-.55-1.67-.55-1.14 0-1.93.48-2.37 1.44l-.4-.28c.23-.5.56-.9 1-1.2a3.1 3.1 0 0 1 1.79-.46c.9 0 1.6.24 2.06.7.47.46.7 1.12.7 1.99v5.13h1.25v.5h-1.1Zm-3.3-.3a2.9 2.9 0 0 0 1.83-.53c.23-.17.42-.39.56-.64.13-.26.2-.56.2-.9v-1.66h-2.12c-.9 0-1.55.15-1.96.46-.4.3-.6.7-.6 1.2v.45c0 .53.19.94.57 1.22.4.26.9.4 1.52.4Zm6.36.3v-8.13h.56v1.25h.05a1.97 1.97 0 0 1 .8-.99c.2-.14.42-.25.67-.32.27-.09.58-.13.93-.13.64 0 1.18.15 1.62.45.43.29.74.72.92 1.31h.05c.15-.51.44-.93.87-1.26.43-.33 1.02-.5 1.76-.5.9 0 1.57.27 2.04.8.47.52.7 1.3.7 2.3V273h-.55v-5.14c0-.91-.2-1.6-.58-2.03-.38-.44-.96-.65-1.73-.65-.3 0-.6.04-.9.12-.27.09-.51.22-.73.39a1.98 1.98 0 0 0-.7 1.55V273h-.56v-5.14c0-.92-.2-1.6-.6-2.03-.39-.44-.96-.65-1.7-.65-.31 0-.61.04-.9.12-.28.09-.53.22-.75.39a1.9 1.9 0 0 0-.7 1.53V273h-.57Zm16.85.2a3.21 3.21 0 0 1-2.56-1.1c-.62-.72-.93-1.78-.93-3.16 0-1.38.3-2.43.91-3.16a3.11 3.11 0 0 1 2.52-1.1 3.14 3.14 0 0 1 2.41 1.1c.3.36.53.78.69 1.28.16.5.24 1.04.24 1.65v.26h-6.18v.43c0 .5.07.96.2 1.36a2.7 2.7 0 0 0 1.47 1.71c.36.15.77.23 1.23.23 1.29 0 2.18-.62 2.67-1.86l.43.24a3.35 3.35 0 0 1-1.15 1.54c-.52.38-1.17.57-1.95.57Zm-.06-8.02c-.45 0-.85.08-1.2.24a2.4 2.4 0 0 0-.89.65c-.24.29-.43.64-.56 1.04-.12.4-.19.85-.19 1.35v.06h5.57v-.1a4 4 0 0 0-.2-1.32 2.8 2.8 0 0 0-.57-1.03 2.2 2.2 0 0 0-.86-.65 2.5 2.5 0 0 0-1.1-.24Zm8.58-.3h.57l2.16 7.54h.05l2.29-7.55h.54l2.3 7.55h.06l2.16-7.55h.54l-2.4 8.13h-.69l-2.22-7.3h-.05l-2.22 7.3h-.7l-2.4-8.13Zm15.6 8.31a3.21 3.21 0 0 1-2.56-1.09c-.62-.72-.92-1.78-.92-3.16 0-1.38.3-2.43.9-3.16a3.12 3.12 0 0 1 2.52-1.1 3.14 3.14 0 0 1 2.42 1.1c.3.36.52.78.68 1.28.16.5.24 1.04.24 1.65v.26h-6.17v.43c0 .5.06.96.19 1.36.13.4.31.75.56 1.04.26.29.56.51.91.67.36.15.78.23 1.23.23 1.3 0 2.19-.62 2.68-1.86l.43.24a3.35 3.35 0 0 1-1.15 1.54c-.53.38-1.18.57-1.96.57Zm-.06-8.01c-.45 0-.85.08-1.2.24a2.4 2.4 0 0 0-.88.65c-.25.29-.43.64-.56 1.04-.13.4-.2.85-.2 1.35v.06h5.58v-.1a4 4 0 0 0-.21-1.32 2.8 2.8 0 0 0-.56-1.03c-.24-.29-.53-.5-.87-.65a2.5 2.5 0 0 0-1.1-.24Zm6.15-2.82c-.18 0-.3-.04-.37-.11a.44.44 0 0 1-.11-.3v-.15c0-.12.03-.21.1-.29.07-.08.19-.13.36-.13.17 0 .3.05.37.13a.4.4 0 0 1 .1.29v.14c0 .12-.03.22-.1.3-.07.08-.18.12-.35.12Zm-.3 2.51h.57V273h-.56v-8.13Zm10.27 9.14c0 .82-.34 1.42-1 1.8-.67.39-1.63.58-2.87.58-1.22 0-2.1-.19-2.64-.56a1.74 1.74 0 0 1-.82-1.5c0-.48.13-.88.4-1.19.27-.3.64-.52 1.12-.67v-.06c-.54-.18-.81-.55-.81-1.1 0-.38.13-.68.4-.9.27-.23.6-.4.97-.5v-.05a2.55 2.55 0 0 1-1.1-.92 2.8 2.8 0 0 1-.39-1.52c0-.42.07-.8.2-1.12a2.47 2.47 0 0 1 1.47-1.43c.35-.13.74-.19 1.18-.19.7 0 1.28.16 1.73.48v-.64c0-.4.19-.6.56-.6h1.55v.5h-1.73v1.03a2.82 2.82 0 0 1 .77 1.97 2.55 2.55 0 0 1-1.7 2.54 3.4 3.4 0 0 1-2.04.08 2.7 2.7 0 0 0-1.01.46.9.9 0 0 0-.35.72c0 .23.1.42.28.6.2.16.55.24 1.08.24h2.06c.95 0 1.63.17 2.05.52.43.35.64.82.64 1.43Zm-.56.03c0-.46-.16-.82-.48-1.07-.31-.26-.87-.39-1.68-.39h-2.55c-.44.12-.8.31-1.08.58a1.5 1.5 0 0 0-.42 1.1c0 .48.21.87.64 1.17.43.31 1.03.47 1.8.47h.89c.43 0 .81-.04 1.17-.12.35-.07.65-.18.9-.33.26-.15.46-.34.6-.58.14-.23.2-.51.2-.83Zm-3.31-4.38c.7 0 1.25-.19 1.64-.55.4-.36.6-.83.6-1.4v-.58c0-.58-.2-1.05-.6-1.41a2.33 2.33 0 0 0-1.64-.54 2.4 2.4 0 0 0-1.67.54c-.38.36-.57.83-.57 1.4v.58c0 .58.2 1.05.59 1.41.4.37.94.55 1.65.55Zm5.83-8.5h.56v4.96h.04c.16-.4.44-.73.84-1 .4-.3.96-.44 1.66-.44.9 0 1.58.27 2.05.8.48.52.72 1.3.72 2.3V273h-.56v-5.12c0-.94-.2-1.62-.61-2.05-.4-.44-.97-.65-1.73-.65-.3 0-.61.04-.91.12-.29.09-.54.22-.77.39-.22.17-.4.38-.54.64-.13.25-.2.55-.2.9V273h-.55v-11.84Zm9.97 11.84c-.45 0-.68-.22-.68-.67v-6.96h-1.48v-.5h1.06c.18 0 .3-.04.35-.11.07-.07.1-.2.1-.38v-1.81h.53v2.3h1.9v.5h-1.9v7.13h1.77v.5h-1.65Zm13.17 0c-.44 0-.67-.22-.7-.67v-.6h-.06c-.19.42-.5.77-.9 1.05a3 3 0 0 1-1.69.41c-.84 0-1.5-.2-1.95-.6a2.18 2.18 0 0 1-.69-1.72c0-.35.06-.67.16-.96.1-.29.28-.53.53-.73.26-.22.58-.38.98-.48.4-.12.9-.18 1.48-.18h2.13v-1.09c0-.77-.19-1.33-.56-1.7-.37-.37-.93-.55-1.66-.55-1.14 0-1.93.48-2.37 1.44l-.4-.28c.22-.5.56-.9 1-1.2.43-.3 1.03-.46 1.78-.46.91 0 1.6.24 2.07.7.47.46.7 1.12.7 1.99v5.13H237v.5h-1.1Zm-3.3-.3c.35 0 .68-.05 1-.13.31-.1.59-.23.82-.4a1.85 1.85 0 0 0 .77-1.54v-1.66h-2.13c-.9 0-1.54.15-1.95.46-.4.3-.6.7-.6 1.2v.45c0 .53.19.94.57 1.22.4.26.9.4 1.52.4Zm8.55.5a3.9 3.9 0 0 1-1.76-.38 3.57 3.57 0 0 1-1.3-1.15l.44-.32c.36.48.74.83 1.15 1.04.41.2.91.3 1.49.3.72 0 1.27-.14 1.65-.44.37-.3.56-.73.56-1.3 0-.54-.16-.95-.48-1.21-.31-.27-.8-.46-1.44-.56l-.7-.12a4.69 4.69 0 0 1-.98-.24 2.7 2.7 0 0 1-.76-.41 2 2 0 0 1-.48-.66 2.5 2.5 0 0 1 .04-1.85c.13-.27.32-.5.55-.68.25-.18.53-.31.85-.4.33-.1.69-.14 1.06-.14.68 0 1.24.12 1.66.37.43.23.78.51 1.06.83l-.4.37a3.43 3.43 0 0 0-.88-.74 3.1 3.1 0 0 0-1.46-.34 2.6 2.6 0 0 0-1.53.42c-.38.28-.56.69-.56 1.22 0 .54.16.94.48 1.2.32.24.8.42 1.45.53l.7.1a3.4 3.4 0 0 1 1.73.71c.42.34.63.86.63 1.55 0 .73-.25 1.3-.74 1.7-.49.4-1.17.6-2.03.6ZM114.38 294h-7.04v-.6l4.15-4.1c.54-.54.97-1.08 1.28-1.62.3-.54.46-1.1.46-1.68v-.42c0-.35-.05-.67-.16-.96a2.04 2.04 0 0 0-1.28-1.26c-.32-.13-.69-.2-1.1-.2-.8 0-1.43.2-1.87.6-.44.4-.76.91-.96 1.55l-.53-.16a3.18 3.18 0 0 1 2.1-2.32c.37-.13.8-.19 1.27-.19 1.03 0 1.8.28 2.34.85.54.55.82 1.31.82 2.29a4.1 4.1 0 0 1-.53 2.06c-.34.6-.83 1.22-1.47 1.84l-3.86 3.8h6.38v.52Zm3.2.11a.6.6 0 0 1-.42-.14.52.52 0 0 1-.14-.39v-.14c0-.16.05-.29.14-.38.1-.1.24-.15.42-.15s.32.05.41.15c.1.1.15.22.15.38v.14c0 .16-.05.3-.15.39-.1.1-.23.14-.41.14Zm3.45-.11v-.53h3.41v-10.2h-.06l-3.3 2.83-.35-.4 3.34-2.87h.97v10.64h3.24v.53h-7.25Zm16.51 0h-7.04v-.6l4.14-4.1c.55-.54.98-1.08 1.28-1.62.31-.54.47-1.1.47-1.68v-.42c0-.35-.05-.67-.16-.96a2.02 2.02 0 0 0-1.28-1.26c-.32-.13-.69-.2-1.1-.2-.8 0-1.43.2-1.88.6-.44.4-.75.91-.96 1.55l-.53-.16c.1-.35.24-.68.42-.99a3.18 3.18 0 0 1 1.68-1.33c.37-.13.8-.19 1.28-.19 1.02 0 1.8.28 2.34.85.54.55.81 1.31.81 2.29a4.1 4.1 0 0 1-.53 2.06c-.34.6-.83 1.22-1.47 1.84l-3.85 3.8h6.38v.52Zm8.78.2c-.67 0-1.25-.13-1.76-.38a3.57 3.57 0 0 1-1.3-1.15l.44-.32c.36.48.75.83 1.15 1.04.42.2.91.3 1.49.3.72 0 1.27-.14 1.65-.44.37-.3.56-.73.56-1.3 0-.54-.16-.95-.48-1.21-.31-.27-.8-.46-1.44-.56l-.7-.12a4.85 4.85 0 0 1-.98-.24 2.7 2.7 0 0 1-.75-.41c-.2-.18-.37-.4-.48-.66a2.32 2.32 0 0 1-.16-.93c0-.35.06-.66.19-.92.14-.27.32-.5.56-.68.24-.18.53-.31.84-.4.34-.1.69-.14 1.06-.14.68 0 1.24.12 1.66.37.43.23.78.51 1.06.83l-.4.37a3.43 3.43 0 0 0-.88-.74 3.1 3.1 0 0 0-1.46-.34c-.63 0-1.15.15-1.53.42-.37.28-.56.69-.56 1.22 0 .54.16.94.48 1.2.32.24.8.42 1.45.53l.7.1a3.4 3.4 0 0 1 1.74.71c.41.34.62.86.62 1.55 0 .73-.24 1.3-.74 1.7-.48.4-1.16.6-2.03.6Zm10.48-1.45h-.06c-.08.18-.19.37-.32.55a2.1 2.1 0 0 1-1.2.76c-.28.09-.6.13-.96.13-.9 0-1.59-.26-2.07-.78-.48-.54-.72-1.3-.72-2.32v-5.22h.56V291c0 .94.2 1.63.61 2.07.4.42.99.64 1.74.64a3.15 3.15 0 0 0 1.68-.5c.23-.17.4-.38.53-.64a2 2 0 0 0 .21-.93v-5.76h.56V294h-.56v-1.25Zm3.75 1.25v-8.13h.56v1.25h.05a1.97 1.97 0 0 1 .8-.99c.2-.14.42-.25.67-.32.27-.09.58-.13.93-.13.64 0 1.18.15 1.62.45.43.29.74.72.92 1.31h.05c.15-.51.44-.93.87-1.26.43-.33 1.02-.5 1.76-.5.9 0 1.58.27 2.04.8.47.52.7 1.3.7 2.3V294h-.55v-5.14c0-.91-.2-1.6-.58-2.03-.38-.44-.96-.65-1.72-.65-.31 0-.61.04-.9.12-.28.09-.52.22-.74.39a1.98 1.98 0 0 0-.7 1.55V294h-.56v-5.14c0-.92-.2-1.6-.6-2.03-.39-.44-.96-.65-1.7-.65-.31 0-.61.04-.9.12-.28.09-.53.22-.75.39a1.9 1.9 0 0 0-.7 1.53V294h-.57Zm16.8.2c-1.06 0-1.9-.37-2.53-1.1-.6-.72-.9-1.78-.9-3.16 0-1.4.3-2.46.9-3.17a3.15 3.15 0 0 1 2.53-1.09c1.07 0 1.9.36 2.51 1.09.62.71.93 1.77.93 3.17 0 1.38-.3 2.44-.93 3.16a3.1 3.1 0 0 1-2.5 1.1Zm0-.5c.9 0 1.6-.3 2.1-.88.49-.6.73-1.42.73-2.45v-.87a3.7 3.7 0 0 0-.73-2.44 2.58 2.58 0 0 0-2.1-.88c-.9 0-1.6.29-2.1.88a3.7 3.7 0 0 0-.73 2.44v.87c0 1.03.24 1.85.74 2.45a2.6 2.6 0 0 0 2.1.88Zm8.68-7.83h.57l2.16 7.55h.05l2.29-7.55h.54l2.3 7.55h.06l2.16-7.55h.54l-2.4 8.13h-.69l-2.22-7.3h-.05l-2.22 7.3h-.7l-2.4-8.13Zm12.82 8.13v-8.13h.56v1.43h.06c.18-.39.45-.72.84-1 .38-.28.94-.43 1.66-.43h.6v.53h-.7c-.33 0-.64.04-.94.13a2.13 2.13 0 0 0-1.33 1.02c-.13.25-.19.53-.19.87V294h-.56Zm8.33.2a3.22 3.22 0 0 1-2.56-1.1c-.62-.72-.93-1.78-.93-3.16 0-1.38.3-2.43.91-3.16a3.11 3.11 0 0 1 2.52-1.1 3.13 3.13 0 0 1 3.1 2.38c.16.5.24 1.04.24 1.65v.26h-6.18v.43c0 .5.07.96.2 1.36a2.69 2.69 0 0 0 1.46 1.71c.37.15.78.23 1.24.23 1.3 0 2.18-.62 2.67-1.86l.44.24a3.34 3.34 0 0 1-1.16 1.54 3.2 3.2 0 0 1-1.95.57Zm-.06-8.02c-.45 0-.85.08-1.2.24-.34.14-.64.36-.88.65-.25.29-.44.64-.56 1.04-.13.4-.2.85-.2 1.35v.06h5.57v-.1c0-.49-.07-.93-.2-1.32a3 3 0 0 0-.56-1.03c-.24-.29-.53-.5-.87-.65a2.5 2.5 0 0 0-1.1-.24Zm8.05 8.01a3.44 3.44 0 0 1-3.06-1.52l.43-.32c.37.48.75.83 1.16 1.04.41.2.9.3 1.48.3.73 0 1.28-.14 1.65-.44.37-.3.56-.73.56-1.3 0-.54-.16-.95-.48-1.21a2.8 2.8 0 0 0-1.44-.56l-.69-.12a4.78 4.78 0 0 1-.99-.24c-.29-.1-.54-.24-.75-.41a2 2 0 0 1-.48-.66 2.4 2.4 0 0 1-.16-.93c0-.35.06-.66.2-.92a2 2 0 0 1 .55-.68c.25-.18.53-.31.85-.4.33-.1.68-.14 1.06-.14.68 0 1.23.12 1.66.37.43.23.78.51 1.06.83l-.4.37a3.51 3.51 0 0 0-.88-.74 3.12 3.12 0 0 0-1.46-.34c-.64 0-1.15.15-1.54.42-.37.28-.56.69-.56 1.22 0 .54.16.94.48 1.2.32.24.8.42 1.46.53l.69.1a3.4 3.4 0 0 1 1.74.71c.42.34.63.86.63 1.55 0 .73-.25 1.3-.74 1.7-.5.4-1.17.6-2.03.6Zm6.3-.19c-.46 0-.69-.22-.69-.67v-6.96h-1.47v-.5h1.05c.18 0 .3-.04.36-.11s.1-.2.1-.38v-1.81h.52v2.3h1.9v.5h-1.9v7.13h1.78v.5h-1.65Zm4.77 0c-.46 0-.69-.22-.69-.67v-11.17h.56v11.34h1.33v.5h-1.2Zm6.2.2a3.22 3.22 0 0 1-2.57-1.1c-.62-.72-.93-1.78-.93-3.16 0-1.38.3-2.43.91-3.16a3.11 3.11 0 0 1 2.52-1.1 3.13 3.13 0 0 1 3.1 2.38c.16.5.24 1.04.24 1.65v.26h-6.18v.43c0 .5.07.96.2 1.36a2.69 2.69 0 0 0 1.46 1.71c.37.15.78.23 1.24.23 1.3 0 2.18-.62 2.67-1.86l.44.24a3.34 3.34 0 0 1-1.16 1.54 3.2 3.2 0 0 1-1.95.57Zm-.07-8.02c-.45 0-.85.08-1.2.24-.34.14-.64.36-.88.65-.25.29-.44.64-.56 1.04-.13.4-.2.85-.2 1.35v.06h5.57v-.1c0-.49-.07-.93-.2-1.32a3 3 0 0 0-.56-1.03c-.24-.29-.53-.5-.87-.65a2.5 2.5 0 0 0-1.1-.24Zm5.85 7.82v-8.13h.56v1.43h.07c.17-.39.45-.72.83-1 .38-.28.94-.43 1.66-.43h.61v.53h-.7c-.33 0-.65.04-.94.13a2.1 2.1 0 0 0-1.33 1.02c-.13.25-.2.53-.2.87V294h-.56Zm7.74.2c-.67 0-1.25-.13-1.76-.38a3.6 3.6 0 0 1-1.3-1.15l.44-.32c.36.48.75.83 1.15 1.04.42.2.91.3 1.49.3.73 0 1.28-.14 1.65-.44.37-.3.56-.73.56-1.3 0-.54-.16-.95-.48-1.21-.31-.27-.8-.46-1.44-.56l-.69-.12c-.36-.05-.7-.13-1-.24a1.87 1.87 0 0 1-1.22-1.07 2.4 2.4 0 0 1-.16-.93c0-.35.06-.66.19-.92a2 2 0 0 1 .56-.68c.24-.18.53-.31.85-.4.33-.1.68-.14 1.05-.14.69 0 1.24.12 1.67.37.42.23.77.51 1.05.83l-.4.37a3.51 3.51 0 0 0-.88-.74 3.12 3.12 0 0 0-1.46-.34c-.63 0-1.15.15-1.53.42-.37.28-.56.69-.56 1.22 0 .54.16.94.48 1.2.32.24.8.42 1.46.53l.68.1a3.4 3.4 0 0 1 1.75.71c.41.34.62.86.62 1.55 0 .73-.24 1.3-.73 1.7-.5.4-1.17.6-2.04.6Zm5.6-.09c-.18 0-.32-.05-.41-.14a.52.52 0 0 1-.15-.39v-.14c0-.16.05-.29.15-.38.1-.1.23-.15.41-.15.18 0 .32.05.42.15.1.1.14.22.14.38v.14c0 .16-.05.3-.14.39-.1.1-.24.14-.42.14Zm-188.54 94.2 2.68-.71 1.13-.75c.64-.42 2.23-1.74 3.5-2.9l2.39-2.18 1.92-2.57c1.74-2.33 3.9-5.44 4.63-6.64l.25-.45-.67.57a54.7 54.7 0 0 0-3.36 4.33l-2.71 3.77-2.75 2.6-2.74 2.57-1.22.63-1.22.6-2.53.65-2.54.63-5.06-.15-5.03-.15-1.68-.5-1.68-.51-2.9-1.68c-1.58-.9-4.02-2.33-5.4-3.17l-2.53-1.52-1.83-1.58-1.83-1.62-.79-1.34-.82-1.32.21-2.9c.12-1.58.28-2.95.34-3.01.06-.06.33.12.6.38l.5.48h1.18l.61-.95c.34-.54.89-1.83 1.25-2.84.34-1.02.92-2.3 1.29-2.84l.7-.99.64-.09.64-.09 1.28.33 1.25.33 1.4 1.4a37.2 37.2 0 0 1 2.75 3.2l1.37 1.8.73.38.73.36.58-.57.58-.56.22-1.29c.12-.72.6-2.51 1.1-4l.88-2.7.61-.95.61-.99h2.84l1.16 1.2 1.15 1.2 1.13 2.3a78.5 78.5 0 0 1 2.1 5.02c.59 1.5 1.1 2.93 1.23 3.23l.24.53.76-.09.77-.09.73-2.09a99 99 0 0 0 1.19-3.58c.64-2.22 2.13-6.04 2.71-6.9l.5-.76 1.12.21 1.13.21.88.63.86.63 2.65 3.35c1.43 1.85 2.87 3.64 3.14 4.03l.55.69-.49-1.17-.48-1.2-1.93-2.39a42.9 42.9 0 0 0-3.29-3.7l-1.34-1.32-1.31-.26-1.28-.3-.7.44-.68.45-1.1 2.93a188.2 188.2 0 0 0-2.2 6.3l-1.12 3.36h-.76l-1-2.75a64.64 64.64 0 0 0-2.27-5.47l-1.3-2.7-1.08-1.16-1.03-1.16-1.71-.15-1.74-.12-.76.8-.8.84-1.06 3.23a35.1 35.1 0 0 0-1.07 3.7c0 .27-.21.93-.43 1.5l-.45 1.04-.46-.17-.43-.19-1.52-1.97c-.83-1.1-2.2-2.63-3.05-3.4l-1.5-1.38-1.19-.33a9.76 9.76 0 0 0-1.89-.33h-.73l-.86.93a5.2 5.2 0 0 0-1.1 1.55c-.09.36-.6 1.7-1.1 3l-.88 2.3h-1.22l-.45-1.08-.46-1.05.33-2.45c.19-1.34.46-3.14.64-4l.3-1.56.99.15c.54.1 1.15.24 1.37.3l.4.12-.16-.27c-.09-.15-.58-.33-1.07-.42l-.91-.18-.76-1.58-.77-1.62-.48-2.06-.5-2.09-.17-5.14-.16-5.14 1.13-1.5c.61-.83 1.25-1.52 1.4-1.52.19 0 1.1.54 2.08 1.17l1.74 1.16 1.03 1.14 1.01 1.13.98 2.1c.55 1.16 1.34 2.9 1.77 3.85l.79 1.7h.3c.19 0 .46-.26.64-.6l.34-.6.27-3.07c.46-4.99 1.01-6.28 5.5-12.88l2.77-4.13 1.5-1.46c.82-.8 1.61-1.46 1.8-1.46.15 0 .88.56 1.61 1.28l1.31 1.26.7 1.76.7 1.76 1.07 5.23 1.07 5.23.3 3.47c.19 1.91.43 3.92.56 4.48l.2 1.05.31.09.34.12.18-2.48c.37-4.9.86-9.45 1.59-14.08l.73-4.7.76-2.11.77-2.13 1.46-2.36a43.2 43.2 0 0 1 2.1-3.16l.68-.81 1.7 1.28 1.71 1.32 1.53 2.21 1.52 2.24v1.14l-1.52 2.99c-2.41 4.72-1.86 4.39.73-.42l1.4-2.63.76 1.67.77 1.7-.19.81c-.09.45-.42 1.53-.76 2.4-.3.83-.49 1.55-.4 1.55.22 0 1.53-2.96 1.77-4.04l.19-.9-.92-1.88-.91-1.9v-1.74c0-.99-.19-3.95-.43-6.64-.24-2.69-.52-6.13-.61-7.62l-.15-2.78h.27c.15 0 .55-.3.89-.63l.6-.62.19-1.11.18-1.1h12.02l.61-.4.61-.35-3.87.18-3.9.2-2.75-.23-2.75-.21v-2.12l-.49-1.7-.48-1.74-.64-.54-.61-.54.24.42.24.42-.42-.15-.43-.15-.1-.48-.08-.48 2.74.72c1.53.42 4.03 1.2 5.58 1.76 4.15 1.47 5.77 1.98 6.47 1.98h.64l-.4-.27c-.48-.3-12.29-4.13-13.97-4.51l-1.25-.3-.21-4.28c-.4-7.74-2.04-19.19-3.72-25.73l-.76-2.96-1.22-2.48-1.25-2.51-1.04-.9a14 14 0 0 0-2.26-1.5l-1.19-.59h-1.37c-.73 0-2.44.2-3.75.45l-2.38.45-2.14 1.01-2.13 1.05-2.6 2.06c-4.23 3.35-8.72 8.55-13.5 15.6l-2.75 4.04-1.16 2.39-1.16 2.39-.76 2.69-.77 2.69-.48 3.17a51.99 51.99 0 0 0-.46 4.1v.89l-1.16-.6-1.13-.57-1.83.12-1.83.15-1.43.6c-.8.36-1.71.9-2.05 1.22l-.58.57-2.34.36a65.21 65.21 0 0 0-11.38 2.87l-2.96 1.08-1.22.8-1.22.81-.27.8L0 308l.3.81.28.8.95.55c.51.3 2 .83 3.35 1.2l2.41.65 7.17-.03h7.17l2.5-.36 2.53-.36 1.19.36 1.19.36.03 13.39v13.42l.21 1.01.18 1.02-1.25 2.03-1.25 2.04.03 1.49.03 1.52.37-1.67.4-1.67.73-1.17.73-1.16.21 4.63.22 4.63.64 2.54c.33 1.4.67 2.75.7 2.99a2 2 0 0 0 .46.87l.4.39-.19.53c-.3.93-1.07 5.5-1.07 6.4v.84l-.45-.36-.46-.36v.3c0 .18.15.69.3 1.1l.3.81-.36 3.38-.36 3.4.4 1.23.36 1.26 2.01 1.9 1.98 1.95 2.2 1.44c1.2.77 3.9 2.39 6.01 3.58l3.87 2.15 1.62.45 1.65.48 5.34.12 5.33.12 2.66-.69Zm-22.57-42.4-1.77-3.68-.98-1.08-.98-1.1-1.92-1.23a12.7 12.7 0 0 0-2.25-1.23h-.34l-1.22 1.35-1.19 1.34-.21-7.32-.22-7.3.22-7.02.21-6.99.92-.18.94-.18.49-.45.46-.41 4.75-1.2c2.63-.63 6.9-1.85 9.52-2.72l4.79-1.52v-.3c0-.36.52-.48-4.88 1.22-4.7 1.5-12.45 3.59-13.3 3.59h-.43v-1.44l-.91-2.57a33.37 33.37 0 0 0-1.56-3.61l-.64-1.05h.92l1.1 1.26c1.25 1.4 1.5 1.28.36-.15l-.76-.96 4.18.21 4.18.18 2.44.45c1.34.27 2.83.63 3.32.8 1.5.54 1.2.12-.36-.53l-1.47-.63-1.98-.33-1.95-.33-4.33-.18-4.34-.18-.58-.63-.57-.62.54-4.13.55-4.12.8-2.75.79-2.75 1.04-2.1c2.01-4.09 7.16-11.32 11.86-16.7l2.32-2.66 2.47-2a49.36 49.36 0 0 1 4.12-3l1.68-.98 2.04-.56 2.04-.57 2.3-.18 2.3-.18.98.5c.52.28 1.47.93 2.08 1.44l1.07.93.94 1.82c1.83 3.56 2.56 6.34 4.18 15.87l.95 5.38.45 5.47c.25 3.02.46 6.25.46 7.17v1.7l-3.9.04h-3.88l-4.3 1.4-4.3 1.4-.52.54c-.27.3-.48.7-.48.87v.3l2.34.99 2.35.95 2.02.4c1.1.2 3.17.53 4.63.74l2.69.36 1.12 1.67 1.16 1.7.98.6.95.6.18 1.8c.67 7.5 1.13 13.86 1.04 14.49l-.13.75-.51-.96a22.3 22.3 0 0 0-4.95-5.17l-1-.6-.5.18-.45.18-1.5 2.27a60.4 60.4 0 0 0-2.34 3.92l-.83 1.61-.7 2.72-.7 2.72-.64 5.23c-.36 2.87-.76 6.3-.88 7.62l-.25 2.4-.21-1.8c-.12-.99-.7-4.33-1.28-7.47l-1.04-5.68-.6-1.97-.65-1.98-.85-1.22-.83-1.23-1.06-.78a4.24 4.24 0 0 0-1.32-.74c-.12 0-1 .72-1.95 1.58l-1.7 1.56-2.97 4.36a70.68 70.68 0 0 0-3.78 6.04l-.79 1.67-.46 1.88-.46 1.89v1.34c0 1.4-.3 3.59-.48 3.59-.06 0-.92-1.65-1.9-3.65ZM5.3 310.83c-1.1-.3-2.47-.77-3.08-1.07l-1.13-.54-.18-.48c-.1-.27-.19-.72-.19-1.01v-.54l.67-.6c1.07-.96 2.8-1.7 6.96-3.02l3.81-1.2 3.3-.62c1.8-.36 3.47-.63 3.69-.63h.4l.17 1.2.16 1.2.91 1.9.92 1.89 1.3 1.34c.74.75 1.63 1.5 1.96 1.68l.61.3-.18.2c-.12.1-1.77.3-3.66.45l-3.48.24-5.49-.09-5.49-.09-1.98-.5ZM107.98 221v-13.96h5.48c1.21 0 2.14.35 2.78 1.06.64.7.96 1.64.96 2.84 0 1.21-.32 2.17-.96 2.88-.64.7-1.57 1.04-2.78 1.04h-4.28V221h-1.2Zm1.2-7.2h4.28c.8 0 1.4-.22 1.82-.66a2.4 2.4 0 0 0 .64-1.72v-.96a2.3 2.3 0 0 0-.64-1.68c-.41-.45-1.02-.68-1.82-.68h-4.28v5.7Zm10.5 7.2v-10.24h1.14v1.84h.08c.2-.48.54-.9 1.02-1.28a3.26 3.26 0 0 1 2.04-.56h.68v1.12h-.9c-.86 0-1.56.19-2.1.56-.55.37-.82.9-.82 1.56v7h-1.14Zm10.73.24a4.5 4.5 0 0 1-1.84-.36 3.86 3.86 0 0 1-1.4-1.04 5.06 5.06 0 0 1-.9-1.7 7.41 7.41 0 0 1-.32-2.26 7 7 0 0 1 .32-2.24c.21-.67.51-1.23.9-1.68.38-.47.85-.82 1.4-1.06a4.33 4.33 0 0 1 1.84-.38c.68 0 1.29.13 1.84.38.54.24 1.01.6 1.4 1.06.38.45.68 1.01.9 1.68.21.65.32 1.4.32 2.24 0 .84-.11 1.6-.32 2.26a5.03 5.03 0 0 1-.9 1.7c-.39.45-.86.8-1.4 1.04-.55.24-1.16.36-1.84.36Zm0-1.02c1 0 1.78-.31 2.36-.94.58-.63.88-1.55.88-2.76v-1.28c0-1.2-.3-2.11-.88-2.74a3 3 0 0 0-2.36-.96c-1 0-1.8.31-2.38.94-.58.63-.86 1.55-.86 2.76v1.28c0 1.2.28 2.12.86 2.76a3.1 3.1 0 0 0 2.38.94Zm13.97-.86h-.06a3.3 3.3 0 0 1-1.18 1.38c-.5.33-1.15.5-1.94.5a3.75 3.75 0 0 1-3.1-1.4c-.74-.93-1.12-2.25-1.12-3.96 0-1.7.38-3.03 1.12-3.96a3.75 3.75 0 0 1 3.1-1.4c.79 0 1.44.17 1.96.52.52.33.9.79 1.16 1.36h.06v-6.2h1.14V221h-1.14v-1.64Zm-2.92.86a3.65 3.65 0 0 0 2.06-.62 2.17 2.17 0 0 0 .86-1.72v-4.06a2.12 2.12 0 0 0-.86-1.64c-.26-.2-.58-.35-.94-.46a3.4 3.4 0 0 0-1.12-.18c-1.02 0-1.82.33-2.4.98a3.86 3.86 0 0 0-.86 2.64v1.44c0 1.1.29 1.99.86 2.64.58.65 1.38.98 2.4.98Zm14.19-.84h-.08c-.1.24-.22.47-.38.7a2.55 2.55 0 0 1-1.46 1c-.32.1-.7.16-1.14.16a3.3 3.3 0 0 1-2.56-1 4.18 4.18 0 0 1-.92-2.9v-6.58h1.14v6.36c0 1.05.22 1.83.68 2.34.45.5 1.1.76 1.96.76.36 0 .7-.05 1.02-.14.33-.1.62-.23.88-.42.26-.19.47-.42.62-.7.16-.3.24-.63.24-1.02v-7.18h1.14V221h-1.14v-1.62Zm8.47 1.86a4.02 4.02 0 0 1-3.28-1.4c-.76-.93-1.14-2.25-1.14-3.96 0-1.7.38-3.03 1.14-3.96a4.02 4.02 0 0 1 3.28-1.4c.94 0 1.71.2 2.3.62a4 4 0 0 1 1.34 1.64l-.96.48a2.82 2.82 0 0 0-1.02-1.28c-.43-.3-.98-.44-1.66-.44-1.04 0-1.84.33-2.38 1a4 4 0 0 0-.82 2.62v1.44a4 4 0 0 0 .82 2.62c.54.67 1.34 1 2.38 1 .7 0 1.3-.15 1.78-.46.48-.3.86-.75 1.16-1.32l.84.56a4.07 4.07 0 0 1-1.44 1.64c-.62.4-1.4.6-2.34.6Zm9.82 0c-.68 0-1.3-.12-1.86-.36a4.04 4.04 0 0 1-2.32-2.74c-.2-.67-.3-1.42-.3-2.26 0-.84.1-1.59.3-2.24a4.8 4.8 0 0 1 .9-1.68c.4-.47.88-.82 1.42-1.06a4.33 4.33 0 0 1 1.84-.38 4.1 4.1 0 0 1 4 3c.22.61.32 1.3.32 2.04v.54h-7.58v.5a5 5 0 0 0 .22 1.48c.16.44.38.82.66 1.14.3.32.65.57 1.06.76.41.17.88.26 1.4.26a3.1 3.1 0 0 0 3.1-2.06l.84.56a3.97 3.97 0 0 1-1.52 1.82c-.68.45-1.5.68-2.48.68Zm-.02-9.76c-.5 0-.94.1-1.34.28a3.02 3.02 0 0 0-1.7 1.9 4.8 4.8 0 0 0-.22 1.46v.1H177v-.16c0-.53-.07-1.02-.22-1.46a3.07 3.07 0 0 0-1.62-1.86 2.91 2.91 0 0 0-1.24-.26Zm10.12 9.76c-.9 0-1.66-.17-2.3-.5a4.86 4.86 0 0 1-1.64-1.46l.84-.66c.43.56.9.97 1.4 1.24.5.27 1.1.4 1.78.4.79 0 1.4-.17 1.82-.5.43-.33.64-.81.64-1.44 0-.55-.17-.97-.5-1.28-.32-.32-.85-.53-1.6-.64l-.84-.14a7 7 0 0 1-1.28-.3 2.59 2.59 0 0 1-1.64-1.36 2.98 2.98 0 0 1-.22-1.2c0-.48.09-.9.26-1.26a2.84 2.84 0 0 1 1.84-1.44c.43-.12.89-.18 1.38-.18.86 0 1.56.15 2.1.44.55.3 1.01.67 1.4 1.14l-.76.7a4.06 4.06 0 0 0-1.08-.88 3.16 3.16 0 0 0-1.72-.42c-.73 0-1.3.16-1.72.48-.4.32-.6.77-.6 1.36 0 .6.18 1.03.54 1.3a4 4 0 0 0 1.66.58l.82.12c1.04.16 1.8.47 2.3.94.5.45.76 1.1.76 1.92 0 .96-.33 1.7-.98 2.24-.64.53-1.52.8-2.66.8Zm12.82-.24 4.68-11.52h-4.36v2.54h-2.54v-4.98h9.88v2.6l-4.5 11.36h-3.16Zm14.67.24c-1.82 0-3.18-.63-4.06-1.9-.88-1.27-1.32-3.04-1.32-5.32 0-2.28.44-4.05 1.32-5.32.88-1.27 2.24-1.9 4.06-1.9 1.83 0 3.18.63 4.06 1.9.88 1.27 1.32 3.04 1.32 5.32 0 2.28-.44 4.05-1.32 5.32-.88 1.27-2.23 1.9-4.06 1.9Zm0-2.54c.8 0 1.35-.3 1.66-.88.3-.59.46-1.41.46-2.48v-2.64c0-1.07-.15-1.9-.46-2.48-.3-.59-.86-.88-1.66-.88-.8 0-1.35.3-1.66.88-.3.59-.46 1.41-.46 2.48v2.64c0 1.07.16 1.9.46 2.48.3.59.86.88 1.66.88Zm12 2.54c-1.83 0-3.19-.63-4.07-1.9-.88-1.27-1.32-3.04-1.32-5.32 0-2.28.44-4.05 1.32-5.32.88-1.27 2.24-1.9 4.06-1.9 1.83 0 3.18.63 4.06 1.9.88 1.27 1.32 3.04 1.32 5.32 0 2.28-.44 4.05-1.32 5.32-.88 1.27-2.23 1.9-4.06 1.9Zm0-2.54c.8 0 1.35-.3 1.65-.88a5.4 5.4 0 0 0 .46-2.48v-2.64c0-1.07-.15-1.9-.46-2.48-.3-.59-.86-.88-1.66-.88-.8 0-1.35.3-1.66.88-.3.59-.46 1.41-.46 2.48v2.64c0 1.07.16 1.9.46 2.48.31.59.86.88 1.66.88Zm10.3 2.3c-1 0-1.75-.25-2.23-.74-.47-.5-.7-1.2-.7-2.14V206.2h2.96v12.5h1.32v2.3h-1.34Zm3.12-14.8h2.96v6.06h.1c.15-.59.48-1.07 1-1.44a3.1 3.1 0 0 1 1.82-.56c1.33 0 2.34.47 3.02 1.4.68.93 1.02 2.3 1.02 4.08 0 1.79-.34 3.15-1.02 4.1-.68.93-1.69 1.4-3.02 1.4a3.42 3.42 0 0 1-1.82-.56 2.75 2.75 0 0 1-1-1.44h-.1V221h-2.96v-14.8Zm4.9 12.64c.56 0 1.02-.2 1.38-.58.37-.4.56-.93.56-1.6v-1.82c0-.67-.19-1.2-.56-1.58-.36-.4-.82-.6-1.38-.6-.56 0-1.03.14-1.4.42-.36.27-.54.64-.54 1.12v3.1c0 .48.18.86.54 1.14.37.27.84.4 1.4.4Zm10.83 2.4a6.1 6.1 0 0 1-2.56-.48c-.7-.33-1.31-.8-1.86-1.4l1.74-1.76c.37.41.78.74 1.24.98.45.24.97.36 1.54.36.59 0 1-.09 1.22-.26a.91.91 0 0 0 .34-.74c0-.5-.35-.79-1.06-.88l-1.14-.14c-2.36-.3-3.54-1.37-3.54-3.24a3.14 3.14 0 0 1 1.1-2.46c.36-.3.79-.54 1.28-.7.5-.17 1.07-.26 1.7-.26.54 0 1.03.04 1.44.12a4.26 4.26 0 0 1 2.02.84c.28.2.55.43.82.68l-1.7 1.74a3.7 3.7 0 0 0-2.42-1.08c-.5 0-.87.08-1.08.24a.76.76 0 0 0-.32.64c0 .28.07.5.22.66.16.15.45.25.88.32l1.18.16c2.3.3 3.46 1.36 3.46 3.16a3.08 3.08 0 0 1-1.24 2.52c-.39.3-.86.55-1.42.72a6.2 6.2 0 0 1-1.84.26Zm-141.18 26a4.5 4.5 0 0 1-1.84-.36 3.86 3.86 0 0 1-1.4-1.04 5.03 5.03 0 0 1-.9-1.7 7.41 7.41 0 0 1-.32-2.26 7 7 0 0 1 .32-2.24 4.8 4.8 0 0 1 .9-1.68c.39-.47.85-.82 1.4-1.06a4.33 4.33 0 0 1 1.84-.38c.68 0 1.3.13 1.84.38.55.24 1.01.6 1.4 1.06.39.45.69 1.01.9 1.68.21.65.32 1.4.32 2.24 0 .84-.1 1.6-.32 2.26a5.03 5.03 0 0 1-.9 1.7c-.39.45-.85.8-1.4 1.04-.55.24-1.16.36-1.84.36Zm0-1.02c1 0 1.79-.31 2.36-.94.59-.63.88-1.55.88-2.76v-1.28c0-1.2-.3-2.11-.88-2.74a3 3 0 0 0-2.36-.96c-1 0-1.8.31-2.38.94-.57.63-.86 1.55-.86 2.76v1.28c0 1.2.29 2.12.86 2.76a3.1 3.1 0 0 0 2.38.94Zm7.76-8.46h-1.76v-1h1.76v-2.86c0-.52.13-.93.38-1.24.27-.3.67-.46 1.22-.46h1.8v1h-2.26v3.56h2.26v1h-2.26V247h-1.14v-9.24Zm15.26 9.48a4.8 4.8 0 0 1-4.02-1.8c-.95-1.21-1.42-3-1.42-5.38 0-2.36.47-4.16 1.42-5.4a4.76 4.76 0 0 1 4.02-1.86 4.79 4.79 0 0 1 4.62 2.98l-.98.58a3.94 3.94 0 0 0-1.4-1.8 3.66 3.66 0 0 0-2.24-.68c-1.31 0-2.33.47-3.06 1.4-.74.93-1.1 2.27-1.1 4v1.58c0 1.72.36 3.03 1.1 3.94.73.9 1.75 1.36 3.06 1.36a3.8 3.8 0 0 0 2.34-.7 4.28 4.28 0 0 0 1.4-1.92l.98.58a4.93 4.93 0 0 1-4.72 3.12Zm12.35 0c-1.79 0-3.19-.6-4.2-1.82-1.02-1.23-1.52-3.03-1.52-5.4 0-2.37.5-4.17 1.52-5.38a5.15 5.15 0 0 1 4.2-1.84c1.77 0 3.16.61 4.18 1.84 1.01 1.23 1.52 3.02 1.52 5.38s-.51 4.15-1.52 5.38a5.13 5.13 0 0 1-4.18 1.84Zm0-1.08c.66 0 1.26-.11 1.8-.34a3.86 3.86 0 0 0 1.4-1.04c.38-.45.68-1 .9-1.66.21-.65.32-1.4.32-2.22v-1.76a7.2 7.2 0 0 0-.32-2.22 4.65 4.65 0 0 0-.9-1.64c-.39-.45-.86-.8-1.4-1.04a4.34 4.34 0 0 0-1.8-.36c-.67 0-1.28.12-1.82.36a3.8 3.8 0 0 0-1.4 1.04c-.39.44-.69.99-.9 1.64-.22.65-.32 1.4-.32 2.22v1.76c0 .83.1 1.57.32 2.22.21.65.51 1.2.9 1.66.38.45.85.8 1.4 1.04a4.7 4.7 0 0 0 1.82.34Zm17.52.84h-8.96v-1.22l4.88-4.68c.66-.64 1.19-1.3 1.6-1.96.41-.68.62-1.37.62-2.08v-.38c0-.83-.24-1.5-.72-2.02s-1.2-.78-2.16-.78c-.93 0-1.65.23-2.14.7-.5.47-.85 1.07-1.08 1.82l-1.08-.4c.14-.43.31-.83.54-1.22a3.92 3.92 0 0 1 2.12-1.72 4.95 4.95 0 0 1 1.68-.26c.66 0 1.24.1 1.74.3.52.19.95.45 1.3.8.36.35.63.77.8 1.26a5.09 5.09 0 0 1-.48 4.34c-.24.4-.53.8-.88 1.2-.34.39-.72.77-1.14 1.16l-4.3 4.08h7.66V247Zm8.02-10.24h1.14v1.64h.06c.25-.57.64-1.03 1.16-1.36a3.46 3.46 0 0 1 1.96-.52c1.32 0 2.35.47 3.1 1.4.75.93 1.12 2.25 1.12 3.96 0 1.7-.37 3.03-1.12 3.96a3.75 3.75 0 0 1-3.1 1.4 3.5 3.5 0 0 1-1.94-.5c-.5-.35-.9-.8-1.18-1.38h-.06V251h-1.14v-14.24Zm4.06 9.46c1.03 0 1.83-.33 2.4-.98.57-.65.86-1.53.86-2.64v-1.44c0-1.1-.29-1.99-.86-2.64a3.03 3.03 0 0 0-2.4-.98 3.58 3.58 0 0 0-2.06.64 1.95 1.95 0 0 0-.86 1.64v4.06c0 .36.07.69.22.98a2.58 2.58 0 0 0 1.56 1.2c.36.1.74.16 1.14.16Zm11.09 1.02c-.69 0-1.3-.12-1.87-.36a4.04 4.04 0 0 1-2.31-2.74c-.2-.67-.3-1.42-.3-2.26 0-.84.1-1.59.3-2.24a4.8 4.8 0 0 1 .9-1.68c.4-.47.87-.82 1.41-1.06a4.33 4.33 0 0 1 1.84-.38 4.1 4.1 0 0 1 4 3c.22.61.32 1.3.32 2.04v.54h-7.57v.5c0 .53.07 1.03.22 1.48a3.16 3.16 0 0 0 3.12 2.16 3.1 3.1 0 0 0 3.1-2.06l.84.56a3.97 3.97 0 0 1-1.53 1.82c-.68.45-1.5.68-2.47.68Zm-.03-9.76c-.49 0-.94.1-1.34.28a3.02 3.02 0 0 0-1.7 1.9 4.8 4.8 0 0 0-.22 1.46v.1h6.34v-.16c0-.53-.07-1.02-.22-1.46a3.07 3.07 0 0 0-1.61-1.86 2.91 2.91 0 0 0-1.25-.26Zm7.22 9.52v-10.24h1.15v1.84h.07c.2-.48.54-.9 1.03-1.28a3.26 3.26 0 0 1 2.03-.56h.69v1.12h-.9c-.86 0-1.56.19-2.1.56-.55.37-.82.9-.82 1.56v7h-1.15Zm11.82 0v-1.06h4.08v-12.02h-.1l-3.84 3.42-.68-.76 3.98-3.54h1.84v12.9h3.84V247h-9.12Zm16.2.24c-3.16 0-4.73-2.4-4.73-7.22 0-4.81 1.58-7.22 4.72-7.22 3.15 0 4.72 2.4 4.72 7.22 0 4.81-1.57 7.22-4.72 7.22Zm0-1.04c1.16 0 2.03-.47 2.6-1.4.56-.93.85-2.21.85-3.84v-1.88c0-1.63-.28-2.9-.86-3.84a2.82 2.82 0 0 0-2.6-1.4c-1.19 0-2.06.47-2.62 1.4a7.46 7.46 0 0 0-.84 3.84v1.88c0 1.63.28 2.9.84 3.84.56.93 1.44 1.4 2.62 1.4Zm11.42-6.4-2.26 2.5v4.7h-1.2v-13.96h1.2v7.86h.04l2.24-2.58 4.6-5.28h1.46l-5.26 5.94 5.52 8.02h-1.48l-4.86-7.2Zm11.92-3.04h1.2l3.14 9.02h.08l3.12-9.02h1.16L251.1 247h-1.3l-3.7-10.24Zm11.5-2.78a.85.85 0 0 1-.6-.2.75.75 0 0 1-.17-.52v-.2c0-.21.06-.39.18-.52.13-.13.33-.2.6-.2.27 0 .46.07.58.2.13.13.2.3.2.52v.2a.7.7 0 0 1-.2.52c-.12.13-.31.2-.58.2Zm-.55 2.78h1.14V247h-1.14v-10.24Zm8.52 10.48c-.68 0-1.3-.12-1.86-.36a4.04 4.04 0 0 1-2.32-2.74c-.2-.67-.3-1.42-.3-2.26 0-.84.1-1.59.3-2.24a4.8 4.8 0 0 1 .9-1.68c.4-.47.88-.82 1.42-1.06a4.33 4.33 0 0 1 1.84-.38 4.1 4.1 0 0 1 4 3c.22.61.32 1.3.32 2.04v.54h-7.58v.5a5 5 0 0 0 .22 1.48c.16.44.38.82.66 1.14.3.32.65.57 1.06.76.42.17.88.26 1.4.26a3.1 3.1 0 0 0 3.1-2.06l.84.56a3.97 3.97 0 0 1-1.52 1.82c-.68.45-1.5.68-2.48.68Zm-.02-9.76c-.5 0-.94.1-1.34.28a3.02 3.02 0 0 0-1.7 1.9 4.8 4.8 0 0 0-.22 1.46v.1h6.34v-.16c0-.53-.07-1.02-.22-1.46a3.07 3.07 0 0 0-1.62-1.86 2.92 2.92 0 0 0-1.24-.26Zm5.92-.72h1.12l2.46 9.22h.04l2.72-9.22h1.06l2.74 9.22h.04l2.44-9.22h1.1L282.32 247h-1.4l-2.58-8.62h-.04l-2.56 8.62h-1.38l-2.88-10.24Zm19.12 10.48c-.89 0-1.66-.17-2.3-.5a4.84 4.84 0 0 1-1.64-1.46l.84-.66c.43.56.9.97 1.4 1.24.51.27 1.1.4 1.78.4.79 0 1.4-.17 1.82-.5.43-.33.64-.81.64-1.44 0-.55-.16-.97-.5-1.28-.32-.32-.85-.53-1.6-.64l-.84-.14a7.75 7.75 0 0 1-1.28-.3 3.25 3.25 0 0 1-1-.54c-.26-.23-.48-.5-.64-.82a2.96 2.96 0 0 1-.22-1.2c0-.48.09-.9.26-1.26a2.84 2.84 0 0 1 1.84-1.44c.43-.12.89-.18 1.38-.18.86 0 1.56.15 2.1.44.55.3 1.02.67 1.4 1.14l-.76.7a4.1 4.1 0 0 0-1.08-.88 3.16 3.16 0 0 0-1.72-.42c-.73 0-1.3.16-1.72.48-.4.32-.6.77-.6 1.36 0 .6.18 1.03.54 1.3a4 4 0 0 0 1.66.58l.82.12a4.2 4.2 0 0 1 2.3.94c.51.45.76 1.1.76 1.92 0 .96-.32 1.7-.98 2.24-.64.53-1.52.8-2.66.8Z" fill="#A73A24"/><path d="m177.57 145.7-2.19 6.64h-2.79l7.13-21.14h3.26l7.16 21.14h-2.9l-2.24-6.65h-7.43Zm6.88-2.14-2.06-6.09c-.46-1.38-.77-2.63-1.08-3.85h-.06l-1.06 3.84-2.06 6.1h6.32Zm7.8-1.44-.12-4.96h2.46l.12 2.6h.06a5.9 5.9 0 0 1 5.36-2.94c3.64 0 6.37 3.1 6.37 7.71 0 5.46-3.3 8.15-6.84 8.15-2 0-3.73-.88-4.64-2.38h-.06v8.26h-2.7v-16.44Zm2.7 4.04c0 .42.07.78.13 1.13a4.23 4.23 0 0 0 4.11 3.23c2.9 0 4.59-2.38 4.59-5.87 0-3.04-1.59-5.64-4.48-5.64a4.38 4.38 0 0 0-4.14 3.42c-.12.36-.18.75-.19 1.13v2.6h-.01Zm14.38-4.04-.12-4.96h2.45l.13 2.6h.06a5.9 5.9 0 0 1 5.35-2.94c3.64 0 6.38 3.1 6.38 7.71 0 5.46-3.3 8.15-6.85 8.15a5.27 5.27 0 0 1-4.63-2.38h-.06v8.26h-2.71v-16.44Zm2.71 4.04a4.23 4.23 0 0 0 4.23 4.36c2.9 0 4.59-2.38 4.59-5.86 0-3.05-1.59-5.65-4.48-5.65a4.37 4.37 0 0 0-4.14 3.42c-.12.36-.18.75-.19 1.13v2.6h-.01Zm14.37-16.08h2.74v22.26h-2.74v-22.26Zm8.24 15.17c.06 3.73 2.43 5.27 5.16 5.27a9.8 9.8 0 0 0 4.17-.78l.47 1.97c-.96.45-2.6.95-5 .95-4.64 0-7.41-3.08-7.41-7.66 0-4.57 2.67-8.18 7.06-8.18 4.92 0 6.22 4.36 6.22 7.14 0 .57-.06 1-.1 1.28l-10.57.01Zm8.03-1.97c.03-1.76-.72-4.49-3.8-4.49-2.77 0-3.98 2.57-4.2 4.49h8Zm-81.69-2.3c-.05-4.8 3.88-7.1 4.06-7.21a8.76 8.76 0 0 0-6.88-3.76c-2.92-.3-5.7 1.74-7.2 1.74-1.48 0-3.77-1.7-6.2-1.65a9.2 9.2 0 0 0-7.78 4.75c-3.3 5.8-.84 14.38 2.39 19.09 1.58 2.3 3.46 4.89 5.94 4.8 2.38-.1 3.28-1.56 6.15-1.56 2.88 0 3.7 1.55 6.2 1.5 2.57-.05 4.2-2.35 5.76-4.66a20.56 20.56 0 0 0 2.6-5.39 8.3 8.3 0 0 1-5.04-7.65Zm-4.73-14.08a8.4 8.4 0 0 0 1.95-6.06 8.4 8.4 0 0 0-5.53 2.88c-1.22 1.41-2.3 3.68-2 5.86 2.1.16 4.26-1.09 5.58-2.68" fill="#000"/></svg>