<svg xmlns="http://www.w3.org/2000/svg" viewBox="0 0 400 527"><path fill="#fff" d="M7.5 283.6V40l1 .7.9.8 1.3-4.4 2-6 .8-1.8v-3h1.6l.2-1.6.1-1.6h1.2l.4 2 .5 2 3.5-.4 3.6-.5 1-1.6 1-1.6.5-4.3.5-4.2h1.8l.6 1.6.7 1.5 2-.2 1.9-.2-.1-.7-.2-.8.7-.6 2-1 1.1-.4.2 1.6.2 3.3v1.8l.7 3 .8 3 1.9-.2c1-.1 3.4 0 5.2.3l3.3.7.3 1.5.3 1.3v-2.5l.5.4 1 1.3c.3.3.8.5 1 .4l.6-.2.3 2.7.2 2.7-.3 2-.2 2.1.4.8.3.6-.1 1.1-.2 1H56l.6 1.6.6 1.5h1.3l.6-1.9c.9-2.4 2.1-8.3 2.1-9.8v-1h.7v-1.6c0-.8 0-1.7.2-1.9.3-.4 1.4-8 1.4-10V18h.5v-2.6l-.2-2.5.7-1.5A35 35 0 0 0 66.8 4c-.2 0 .1-.9.7-2l1-2 .4.6c.3.4.9 1.5 1.3 2.5 1.8 4.3 3.1 7 4 8l1 1.2 2 5.1 2.9 7.7c.7 2 1.5 4 2.4 5.8l4.4 9a28 28 0 0 0 3.3 5.8c.2 0 1 1.6 1.7 3.6l1.4 3.7h2.5l.4 1 .4.8 1-.1.9-.1.9 1.5.9 1.5V68h1.4l-.5 1.1-.5 1h.8c.7 0 2 2 2.3 3.8l.3 1-.2 10-.2 9.9.5.6.6.8 1.2-4.1 1.2-4 .4.8.4.8-.2-1.1-.2-1.2.9-2 1.4-3.8.4-1.8 1.2 1 1 1.2 2.2-.2h3.7l1.7.1.7-1.5a5 5 0 0 1 2-2.1l1.1-.8v-1.9l.7-.7a13 13 0 0 0 1.8-2.3l1.2-1.6-.5-1-.4-.9 2 .5c1.1.4 2.2.9 2.3 1.2l.3.6v-2l.6-.6.7-.5.2 2.7.2 4.2-.1 1.3.9.7c.4.5 1.5 1.9 2.2 3.2l1.4 2.5h1.3l4.6.1 3.2.1.4-1.8.4-3.3v-1.4h1.2l.2-1.6.2-1.7 1 .3 1.1.2 1.3-3.4 1.2-3.3.3.5.2.6v-3.4l.8-1.2c.5-.7.8-1.6.8-2.2v-.8h1.5l.9 2.4 1.6 4.6.7 2.2.6-.7c.4-.4.8-.5 1-.3l.4.5.2-3 .9-8.6.6-5.7h.5c.2 0 1 .6 1.5 1.5s1.5 2 2.1 2.7l1.1 1 2.1.4 2 .2L175 55a257 257 0 0 1 3.2-5.2l1.7-2.6v-1.4l.3-3.2.7-5.2.4-3.6h.5c.3 0 1.4 1.2 2.5 2.6l1.9 2.7.3-.9c.2-.4 1-1.5 1.8-2.2l1.6-1.3.6.5.6.5-.2-1-.1-.9.4-.5 2-1 1.4-.4.3 3.6.2 3.6.4 1.2.4 1.2v4l1.2.7c.6.4 1.2 1 1.3 1.6l.1 1h1.6l.3 2 .3 1.7.3-1.4.3-1.3 1.8 1.5L205 53l1-2.8c.4-1.4 1-2.8 1.9-4l1-1.5.7 2.8c.5 1.5.8 3.3.8 4s.5 2.7 1 4.8l1 3.6 1.6.2 1.6.2.9 2.8c.5 1.6 1 3 1.2 3 .1 0 .6.6 1 1.4l1 1.5.4-1c.2-.5.9-1 1.4-1h1l.7-2 1-2.2 1.4 1 1.3.7 3.9-1.2 3.8-1.2.5 1.1.4 1.2-.2-1.8-.2-2 .2.4c.4.4 1.6-3.9 1.9-6.6l.2-2.7.7-2 .7-1.9.9.6a4 4 0 0 1 1.4 2c.5 1.4 1.2 2 3.9 3.8l1.4 1 1.8 2.9 1.8 3 1.7.3 2.1.3h.4v3.7l.5.4.5.3v-3.4l1.9.2 1.9.2.7-1.5c.5-.8.9-1.8 1-2.1s.6-1 1.2-1.3l1-.6.7 3 .6 4c0 .6.8 4 1.9 7.7l1.8 6.7 1-1.2.8-1.2.7.3c1 .4 1.4 2 1.8 7l.4 4.6.8 1.7.8 1.8h1.5l-.2.9-.1 1h.6l.2 3.7.2 3.7.7.5.7.6 2.6-.6 3.4-.8.9-.2v-.8l.1-1.6c0-1.4 1.2-6.2 1.2-5.2v.8l.4-1 .4-1.1 1.2 1.5 1.3 1.5 2.7.6c1.5.4 3.4.7 4.2.7h1.4l.4 1.4c.1.7.7 1.6 1.1 2l.9.6.9-1.1.9-1.1.6-2.7a30.3 30.3 0 0 0 1-6.8A108.1 108.1 0 0 0 304 78l.2-2.5.2.6.3.5.2-1 .2-1 1.1 1 1.2.8 2-.6c2-.7 2.6-.7 5.9-.3l2 .3.2-1.3.3-1.2 1.4-1 2-1.7.6-.6-.2 1-.2 1 1.4-.8c.8-.6 1.6-1.2 2.2-2l1-1.2.2.7.4.7-.2-1-.2-1.1.9-1.4c.5-.8 1.1-1.5 1.4-1.4h.6v-1.8c0-1 0-2.1.2-2.6l.2-1.5a27.7 27.7 0 0 1 1.2-5v1l.3-1.2.4-1.2.8 1.5.9 1.4 1.6.8 5 1.8c.4 0 .8.5.9.8 0 .4.6 1.2 1.2 1.8l1.2 1.3.1-.8a3 3 0 0 1 1-1.5l.6-.7.2 1.5.1 1.5h3l-.2 1.1-.2 1h1.3l-.2-.9-.1-1 .6-.7.6-.6.7 1.1c.4.7.6 1.6.6 2.2v1h-1l.2.7c0 .4 1 .7 2 .8l1.7.3-.2-1-.1-.8 1 .3 1 .2v4.9h.5c.3 0 1.2.7 2 1.6l1.3 1.7 2.2-5.8a122 122 0 0 0 5.1-16.4 7 7 0 0 0-.4-2.3l-.3-1.2.3-1.5.4-1.5-.2-.7-.3-.9.6-1.5.7-1.5h3.4l1-1.5 1-1.3 1-3 .8-3v-3.8l.7-.5.7-.7.9.6.8.6.6-2c.3-1.1.6-1.8.7-1.6.2.6 1.7-1.2 2-2.5l.4-1.5.5.7.5.6-.3-1.5-.2-1.5.5 1.5.5 1.4 2-2.5a30.7 30.7 0 0 1 3.5-4l.8-1 .6 2.1.5 2.3-.1 1.4-.2 1.3.7.5.6.5V25l1.6-.8 1.6-.9.4-1.6c.3-.8.5-2.1.5-2.8 0-1.6 1.3-5.2 2-5.3h.4l1 2.6 1 2.6h4.7c.6 0 1.4.1 1.8.5l.8.4.1 253.6V527H7.5V283.6Z"/><text fill="#a73a24" stroke-width="0" dx="0" dy="0" font-family="Arial" font-size="20" font-weight="400" transform="translate(117 399)"><tspan y="0" font-weight="700">738kWh </tspan><tspan y="0">of energy</tspan></text><text fill="#a73a24" stroke-width="0" dx="0" dy="0" font-family="Arial" font-size="15.8" font-weight="400" transform="translate(117 423.6)"><tspan y="0">That's enough electricity to drive an</tspan><tspan x="0" y="15.8">electric car for 2,937mi.</tspan></text><text fill="#a73a24" stroke-width="0" dx="0" dy="0" font-family="Arial" font-size="20" font-weight="400" transform="translate(117 221.3)"><tspan y="0">Produces </tspan><tspan y="0" font-weight="700">700lbs</tspan><tspan x="0" y="20">of CO2 per 10K views</tspan></text><text fill="#a73a24" stroke-width="0" dx="0" dy="0" font-family="Arial" font-size="15.8" font-weight="400" transform="translate(117 265.4)"><tspan y="0">The same weight as</tspan><tspan x="0" y="15.8">2.12 sumo wrestlers.</tspan></text><path fill="#a73a24" d="M60.4 389.1H55l-5.3-.2-1.7-.5-1.6-.4-3.8-2.2a72.1 72.1 0 0 1-6-3.6l-2.3-1.4-2-2-2-1.9-.3-1.2-.4-1.2.4-3.4.3-3.4-.3-.8a5 5 0 0 1-.3-1.1v-.3l.5.3.4.4v-.9c0-.9.8-5.4 1-6.4l.3-.5-.4-.4a2 2 0 0 1-.5-.8l-.7-3-.6-2.6-.2-4.6-.2-4.6-.8 1.1-.7 1.2-.4 1.7-.4 1.6v-3l1.2-2 1.3-2-.2-1-.2-1v-27l-2.4-.7-2.6.4-2.5.3H7.3l-2.4-.6-3.4-1.2-1-.6-.2-.8-.3-.8.3-.8.3-.8 1.2-.8L3 305l3-1c3.7-1.4 7.5-2.3 11.4-3l2.3-.3.6-.6c.3-.3 1.2-.8 2-1.2l1.5-.6 1.8-.1 1.8-.2 1.1.6 1.2.6v-.9l.5-4 .4-3.2.8-2.7.8-2.7 2.3-4.8 2.7-4a69.2 69.2 0 0 1 13.5-15.6l2.6-2.1 2.2-1 2.1-1 2.4-.5c1.3-.3 3-.5 3.8-.5H65l1.2.6c.8.4 1.6 1 2.3 1.5l1 1 1.3 2.4 1.2 2.5.7 3a154 154 0 0 1 3.8 25.7l.2 4.3 1.2.3c1.7.4 13.5 4.2 14 4.5l.4.3h-.6a32 32 0 0 1-6.5-2c-1.6-.6-4-1.4-5.6-1.8l-2.7-.7v.5l.1.5.5.1.4.2-.5-.9.6.6.7.5.4 1.7.5 1.7v2.2l2.8.2 2.7.2 4-.2 3.8-.2-.6.4-.6.4h-12l-.2 1-.2 1.2-.6.6c-.3.3-.7.6-.9.6h-.3l.2 2.8c0 1.5.4 5 .6 7.6l.4 6.7v1.7l1 2 .9 1.8-.2.9c-.3 1-1.6 4-1.8 4-.1 0 0-.7.4-1.5l.8-2.4.1-.8-.7-1.7-.8-1.7-1.4 2.6c-2.6 4.8-3.1 5.2-.7.5l1.5-3v-1.2l-1.5-2.2-1.5-2.2-1.8-1.3-1.7-1.3-.6.8c-.8 1-1.5 2-2.1 3.1l-1.5 2.4-.8 2.1-.7 2.1-.8 4.7a160 160 0 0 0-1.5 14.1l-.2 2.5-.4-.1-.3-.1-.2-1-.5-4.5-.3-3.5-2.2-10.5L58 329l-1.3-1.2a6.3 6.3 0 0 0-1.6-1.3 6 6 0 0 0-1.8 1.4l-1.5 1.5-2.8 4.1c-4.5 6.6-5 8-5.5 12.9l-.2 3-.4.7c-.2.3-.4.6-.6.6H42l-.8-1.7-1.8-3.9-1-2-1-1.2-1-1.1-1.7-1.2-2.1-1.2c-.2 0-.8.7-1.4 1.5l-1.1 1.5.1 5.2.2 5.1.5 2.1.5 2 .7 1.7.8 1.6.9.2c.5 0 1 .2 1 .4l.2.2h-.4l-1.3-.4-1-.1-.3 1.5-.7 4-.3 2.5.5 1 .4 1.1H33l1-2.3c.4-1.3 1-2.6 1-3 .3-.6.7-1.1 1.1-1.5l.9-1h.7c.6 0 1.3.2 1.9.4l1.2.3 1.5 1.4c.8.7 2.2 2.3 3 3.4l1.6 2 .4.1.4.2.5-1 .4-1.5 1-3.7 1.2-3.3.8-.8.7-.8 1.8.1 1.7.2 1 1.1 1 1.2 1.4 2.7c.8 1.8 1.6 3.6 2.2 5.5l1 2.7h.8l1.1-3.4 2.2-6.3 1.1-2.9.7-.4.7-.5 1.3.3 1.3.3 1.3 1.3a38 38 0 0 1 3.3 3.7l2 2.4.4 1.2.5 1.2-.5-.7-3.2-4-2.6-3.4-.9-.6-.9-.7-1-.2-1.2-.2-.5.8c-.6.8-2 4.7-2.7 6.9a99 99 0 0 1-1.2 3.6l-.7 2-.8.1-.8.1-.2-.5-1.2-3.2-2.1-5-1.2-2.4-1.1-1.2L55 359h-2.8l-.6 1-.6 1-1 2.7-1 4-.2 1.3-.6.5-.6.6-.7-.4-.8-.3-1.3-1.8c-.9-1.2-1.8-2.2-2.8-3.2l-1.4-1.4-1.2-.4-1.3-.3-1.3.2-.7 1c-.4.5-1 1.8-1.3 2.8-.3 1-.9 2.3-1.2 2.9l-.6.9h-1.2l-.5-.5-.6-.4-.4 3-.2 3 .9 1.3.7 1.3 1.9 1.6 1.8 1.6 2.5 1.5 5.4 3.2 3 1.7 1.6.5 1.7.5 5 .1 5 .2 2.6-.6 2.6-.7 1.2-.6 1.2-.6 2.7-2.6 2.8-2.6 2.7-3.8c1-1.5 2.2-2.9 3.4-4.3l.6-.6-.2.5-4.7 6.6-1.9 2.6-2.4 2.2a40 40 0 0 1-3.5 2.9l-1.1.7-2.7.7-2.6.7Zm-20-43 2 3.6c.1 0 .4-2.2.4-3.6v-1.3l.5-2 .4-1.8.8-1.7c1.2-2 2.4-4 3.8-6l3-4.4 1.7-1.5c1-1 1.8-1.6 2-1.6.4.1.9.4 1.2.7l1.1.8.8 1.2.9 1.2.6 2 .6 2 1 5.7a202 202 0 0 1 1.4 7.4l.2 1.8.2-2.4.9-7.6.6-5.2L66 328l.9-1.7 2.3-3.9 1.5-2.2.5-.2.5-.2 1 .6c1.9 1.4 3.5 3.2 5 5.2l.4 1 .2-.8-1-14.5-.3-1.8-1-.6-.9-.6-1.2-1.7-1-1.7-2.8-.3-4.6-.8-2-.4-2.4-1-2.3-1v-.2c0-.2.2-.6.5-.9l.5-.5 8.6-2.8H76v-1.8l-.5-7.1-.4-5.5-1-5.4a48.9 48.9 0 0 0-4.2-15.9l-1-1.8-1-1-2-1.4-1-.5-4.6.4-2 .6-2.1.5-1.7 1-4.1 3-2.5 2-2.3 2.7a96 96 0 0 0-11.9 16.7l-1 2-.8 2.8-.8 2.8-.5 4-.6 4.2.6.6.6.7 8.6.3 2 .4 2 .3 1.4.6c1.6.7 1.9 1 .4.6-.5-.2-2-.6-3.3-.8l-2.5-.5-8.3-.4.7 1c1.2 1.4 1 1.5-.3.1l-1.1-1.2h-1l.7 1 1.6 3.6.9 2.6v1.4h.4c.8 0 8.6-2 13.3-3.6 5.4-1.7 4.9-1.5 4.9-1.2v.3l-4.8 1.5c-2.6 1-7 2.1-9.5 2.8l-4.8 1.2-.4.4-.5.4-1 .2-.9.2-.2 7-.2 7 .2 7.3.2 7.3 1.2-1.3 1.2-1.4h.4l2.2 1.3 2 1.2.9 1 1 1.2 1.8 3.6ZM5.3 311l2 .5 11 .2 3.4-.3c2-.1 3.6-.3 3.7-.4l.2-.2-.6-.3a12 12 0 0 1-2-1.7l-1.3-1.4-1-1.8-.8-2-.2-1.1-.2-1.2h-.4l-3.6.6-3.3.6-3.9 1.2c-4.1 1.3-5.8 2-7 3l-.6.6v.6l.2 1 .2.5 1.1.5c.6.3 2 .8 3.1 1Zm225.6-104.7"/><path d="m177.6 145.7-2.2 6.6h-2.8l7.1-21.1h3.3l7.1 21.1h-2.9l-2.2-6.6h-7.4Zm6.8-2.1-2-6.1c-.5-1.4-.8-2.7-1-3.9h-.2l-1 3.9-2 6h6.2Zm7.8-1.5v-5h2.4l.1 2.7c1.2-2 3.2-3 5.4-3 3.7 0 6.4 3.1 6.4 7.7 0 5.5-3.3 8.2-6.8 8.2-2 0-3.8-.9-4.7-2.4v8.3h-2.7V142Zm2.8 4v1.2a4.2 4.2 0 0 0 4.2 3.2c2.9 0 4.6-2.4 4.6-5.9 0-3-1.6-5.6-4.5-5.6-2 0-3.7 1.5-4.1 3.4a4 4 0 0 0-.2 1.2v2.6Zm14.3-4v-5h2.4v2.7h.1a6 6 0 0 1 5.4-3c3.6 0 6.4 3.1 6.4 7.7 0 5.5-3.3 8.2-6.9 8.2-1.8 0-3.6-.8-4.6-2.4v8.3h-2.8V142Zm2.7 4a4.2 4.2 0 0 0 4.3 4.4c2.9 0 4.6-2.4 4.6-5.8 0-3-1.6-5.7-4.5-5.7-2 0-3.7 1.5-4.2 3.4a4 4 0 0 0-.1 1.2v2.6Zm14.4-16h2.7v22.2h-2.7v-22.2Zm8.2 15.1c.1 3.8 2.5 5.3 5.2 5.3 1.4 0 2.9-.2 4.2-.8l.4 2c-1 .5-2.6 1-5 1-4.6 0-7.4-3.1-7.4-7.7s2.7-8.2 7.1-8.2c5 0 6.2 4.4 6.2 7.2v1.2h-10.7Zm8-2c.1-1.7-.6-4.4-3.7-4.4-2.8 0-4 2.6-4.2 4.5h8ZM161 141c0-4.8 3.9-7.1 4-7.2a8.8 8.8 0 0 0-6.8-3.8c-3-.3-5.7 1.7-7.2 1.7s-3.8-1.7-6.2-1.6a9.2 9.2 0 0 0-7.8 4.7c-3.3 5.8-.8 14.4 2.4 19.1 1.6 2.3 3.4 5 6 4.8 2.3 0 3.2-1.5 6-1.5 3 0 3.8 1.5 6.3 1.5s4.2-2.4 5.7-4.7a18 18 0 0 0 2.6-5.4c-3-1.3-5-4.3-5-7.6Zm-4.7-14.1a8.4 8.4 0 0 0 2-6 8.4 8.4 0 0 0-5.6 2.8 7.9 7.9 0 0 0-2 5.9c2 .1 4.2-1.1 5.6-2.7"/><text fill="#a73a24" stroke-width="0" dx="0" dy="0" font-family="Arial" font-size="20" font-weight="400" transform="translate(114.3 329.2)"><tspan y="0" font-weight="700">Dirtier than 88%</tspan></text><text fill="#a73a24" stroke-width="0" dx="0" dy="0" font-family="Arial" font-size="15.8" font-weight="400" transform="translate(114.4 353.8)"><tspan y="0">Of the webpages tested.</tspan></text></svg>