<svg xmlns="http://www.w3.org/2000/svg" viewBox="0 0 412 527"><path fill="#fff" d="M12.3 283.6V40l1 .7.9.8 1.3-4.4 2-6 .8-1.8v-3H20l.2-1.6.1-1.6h1.2l.4 2 .5 2 3.5-.4 3.6-.5 1-1.6 1-1.6.5-4.3.5-4.2h1.8l.6 1.6.7 1.5 2-.2 1.9-.2-.1-.7-.2-.8.7-.6 2-1 1.1-.4.2 1.6.2 3.3v1.8l.7 3 .8 3 1.9-.2c1-.1 3.4 0 5.2.3l3.3.7.3 1.5.3 1.3v-2.5l.5.4 1 1.3c.3.3.8.5 1 .4l.6-.2.3 2.7.2 2.7-.3 2L59 39l.4.8.3.6-.1 1.1-.2 1h1.5l.6 1.6.6 1.5h1.3l.6-1.9c.9-2.4 2.1-8.3 2.1-9.8v-1h.7v-1.6c0-.8 0-1.7.2-1.9.3-.4 1.4-8 1.4-10V18h.5v-2.6l-.2-2.5.7-1.5A35 35 0 0 0 71.6 4c-.2 0 .1-.9.7-2l1-2 .4.6c.3.4.9 1.5 1.3 2.5 1.8 4.3 3.1 7 4 8l1 1.2 2 5.1 2.9 7.7c.7 2 1.5 4 2.4 5.8l4.4 9a28 28 0 0 0 3.3 5.8c.2 0 1 1.6 1.7 3.6l1.4 3.7h2.5l.4 1 .4.8 1-.1.9-.1.9 1.5.9 1.5V68h1.4l-.5 1.1-.5 1h.8c.7 0 2 2 2.3 3.8l.3 1-.2 10-.2 9.9.5.6.6.8 1.2-4.1 1.2-4 .4.8.4.8-.2-1.1-.2-1.2.9-2 1.4-3.8.4-1.8 1.2 1 1 1.2 2.2-.2h3.7l1.7.1.7-1.5a5 5 0 0 1 2-2.1l1.1-.8v-1.9l.7-.7a13 13 0 0 0 1.8-2.3l1.2-1.6-.5-1-.4-.9 2 .5c1.1.4 2.2.9 2.3 1.2l.3.6v-2l.6-.6.7-.5.2 2.7.2 4.2-.1 1.3.9.7c.4.5 1.5 1.9 2.2 3.2l1.4 2.5h1.3l4.6.1 3.2.1.4-1.8.4-3.3v-1.4h1.2l.2-1.6.2-1.7 1 .3 1.1.2 1.3-3.4 1.2-3.3.3.5.2.6v-3.4l.8-1.2c.5-.7.8-1.6.8-2.2v-.8h1.5l.9 2.4 1.6 4.6.7 2.2.6-.7c.4-.4.8-.5 1-.3l.4.5.2-3 .9-8.6.6-5.7h.5c.2 0 1 .6 1.5 1.5s1.5 2 2.1 2.7l1.1 1 2.1.4 2 .2 1.7-2.8a257 257 0 0 1 3.2-5.2l1.7-2.6v-1.4l.3-3.2.7-5.2.4-3.6h.5c.3 0 1.4 1.2 2.5 2.6l1.9 2.7.3-.9c.2-.4 1-1.5 1.8-2.2l1.6-1.3.6.5.6.5-.2-1-.1-.9.4-.5 2-1 1.4-.4.3 3.6.2 3.6.4 1.2.4 1.2v4l1.2.7c.6.4 1.2 1 1.3 1.6l.1 1h1.6l.3 2 .3 1.7.3-1.4.3-1.3 1.8 1.5 1.8 1.6 1-2.8c.4-1.4 1-2.8 1.9-4l1-1.5.7 2.8c.5 1.5.8 3.3.8 4s.5 2.7 1 4.8l1 3.6 1.6.2 1.6.2.9 2.8c.5 1.6 1 3 1.2 3 .1 0 .6.6 1 1.4l1 1.5.4-1c.2-.5.9-1 1.4-1h1l.7-2 1-2.2 1.4 1 1.3.7 3.9-1.2 3.8-1.2.5 1.1.4 1.2-.2-1.8-.2-2 .2.4c.4.4 1.6-3.9 1.9-6.6l.2-2.7.7-2 .7-1.9.9.6a4 4 0 0 1 1.4 2c.5 1.4 1.2 2 3.9 3.8l1.4 1 1.8 2.9 1.8 3 1.7.3 2.1.3h.4v3.7l.5.4.5.3v-3.4l1.9.2 1.9.2.7-1.5c.5-.8.9-1.8 1-2.1s.6-1 1.2-1.3l1-.6.7 3 .6 4c0 .6.8 4 1.9 7.7l1.8 6.7 1-1.2.8-1.2.7.3c1 .4 1.4 2 1.8 7l.4 4.6.8 1.7.8 1.8h1.5l-.2.9-.1 1h.6l.2 3.7.2 3.7.7.5.7.6 2.6-.6 3.4-.8.9-.2v-.8l.1-1.6c0-1.4 1.2-6.2 1.2-5.2v.8l.4-1 .4-1.1 1.2 1.5 1.3 1.5 2.7.6c1.5.4 3.4.7 4.2.7h1.4l.4 1.4c.1.7.7 1.6 1.1 2l.9.6.9-1.1.9-1.1.6-2.7a30.3 30.3 0 0 0 1-6.8 108.1 108.1 0 0 0 .7-10.4l.2-2.5.2.6.3.5.2-1 .2-1 1.1 1 1.2.8 2-.6c2-.7 2.6-.7 5.9-.3l2 .3.2-1.3.3-1.2 1.4-1 2-1.7.6-.6-.2 1-.2 1 1.4-.8c.8-.6 1.6-1.2 2.2-2l1-1.2.2.7.4.7-.2-1-.2-1.1.9-1.4c.5-.8 1.1-1.5 1.4-1.4h.6v-1.8c0-1 0-2.1.2-2.6l.2-1.5a27.7 27.7 0 0 1 1.2-5v1l.3-1.2.4-1.2.8 1.5.9 1.4 1.6.8 5 1.8c.4 0 .8.5.9.8 0 .4.6 1.2 1.2 1.8l1.2 1.3.1-.8a3 3 0 0 1 1-1.5l.6-.7.2 1.5.1 1.5h3l-.2 1.1-.2 1h1.3l-.2-.9-.1-1 .6-.7.6-.6.7 1.1c.4.7.6 1.6.6 2.2v1h-1l.2.7c0 .4 1 .7 2 .8l1.7.3-.2-1-.1-.8 1 .3 1 .2v4.9h.5c.3 0 1.2.7 2 1.6l1.3 1.7 2.2-5.8a122 122 0 0 0 5.1-16.4 7 7 0 0 0-.4-2.3l-.2-1 .3-1.5.4-1.5-.2-.7-.3-.9.6-1.5.7-1.5h3.4l1-1.5 1-1.3 1-3 .8-3v-3.8l.7-.5.7-.7.9.6.8.6.6-2c.3-1.1.6-1.8.7-1.6.2.6 1.7-1.2 2-2.5l.4-1.5.5.7.5.6-.3-1.5-.2-1.5.5 1.5.5 1.4 2-2.5a30.7 30.7 0 0 1 3.5-4l.8-1 .6 2.1.5 2.3-.1 1.4-.2 1.3.7.5.6.5v3l1.6-.8 1.6-.9.4-1.6c.3-.8.5-2.1.5-2.8 0-1.6 1.3-5.2 2-5.3h.4l1 2.6 1 2.6h4.7c.6 0 1.4.1 1.8.5l.8.4.1 253.6V527h-400V283.6Z"/><g fill="#a73a24" stroke-width="0"><text dx="0" dy="0" font-family="arial" font-size="20" font-weight="700" transform="translate(115 335)"><tspan y="0">Dirtier than 9%</tspan></text><text dx="0" dy="0" font-family="Arial" font-size="15.8" font-weight="400" transform="translate(115 358)"><tspan y="0">Of the webpages tested.</tspan></text></g><path fill="#a73a24" d="m63.3 388 2.7-.6 1-.8a40 40 0 0 0 3.6-2.9l2.4-2.2 1.9-2.5c1.7-2.4 3.9-5.5 4.6-6.7l.3-.4-.7.5a54.7 54.7 0 0 0-3.4 4.4l-2.7 3.7-2.7 2.6-2.8 2.6-1.2.6-1.2.6-2.5.7-2.6.6-5-.1-5-.2-1.7-.5-1.7-.5-3-1.7-5.3-3.1-2.5-1.6-3.7-3.2-1.6-2.6.2-3 .3-3s.4.2.6.5l.5.4h1.2l.6-1c.4-.5 1-1.7 1.3-2.8.3-1 .9-2.3 1.3-2.8l.7-1h.6l.6-.2 1.3.4 1.3.3 1.4 1.4c1 1 1.9 2 2.7 3.2l1.4 1.8.7.4.8.3.5-.5.6-.6.2-1.3 1.1-4 1-2.7.5-1 .6-1h2.9l2.3 2.5 1.1 2.3a44 44 0 0 1 2.1 5l1.2 3.2.3.6.7-.1.8-.1.7-2.1a99 99 0 0 0 1.2-3.6c.7-2.2 2.2-6 2.7-6.9l.5-.8 1.2.3 1 .2 1.8 1.2 2.7 3.4 3.1 4 .6.7-.5-1.2-.5-1.2-2-2.4c-1-1.3-2-2.5-3.2-3.7l-1.4-1.3-1.3-.2-1.2-.3-.7.4-.7.4-1.1 3-2.2 6.3-1.1 3.3h-.8l-1-2.7c-.7-1.9-1.4-3.7-2.3-5.5l-1.3-2.7-2-2.3-1.8-.2h-1.7l-.8.7-.8.9-1 3.2a35.1 35.1 0 0 0-1.6 5.2l-.4 1-.5-.1-.4-.2-1.5-2c-.8-1.1-2.2-2.6-3-3.4l-1.6-1.4-1.2-.3-1.8-.3h-.8l-.8.9c-.5.4-.9 1-1.1 1.5l-1.1 3-1 2.3h-1.1l-.5-1-.4-1 .3-2.5.6-4 .3-1.6 1 .2c.6 0 1.2.2 1.4.3h.4l-.2-.2-1-.4-1-.2-.7-1.6-.8-1.6-.5-2-.5-2.1-.1-5.2-.2-5.1 1.1-1.5a5 5 0 0 1 1.4-1.5l2.1 1.1 1.8 1.2 2 2.3 1 2 1.7 3.9.8 1.7h.3c.2 0 .5-.3.7-.6l.3-.6.3-3c.4-5 1-6.3 5.5-13l2.8-4 1.5-1.5c.8-.8 1.6-1.5 1.8-1.5l1.6 1.3 1.3 1.2.7 1.8.7 1.8 1 5.2 1.1 5.2.3 3.5c.2 1.9.4 4 .6 4.5l.2 1 .3.1.3.1.2-2.4c.4-5 .9-9.5 1.6-14.1l.7-4.7.8-2.1.8-2.2 1.4-2.3 2.1-3.2.7-.8 1.7 1.3 1.7 1.3 1.5 2.2 1.6 2.3v1l-1.6 3c-2.4 4.8-1.8 4.5.8-.3l1.4-2.7.7 1.7.8 1.7-.2.8c0 .5-.4 1.5-.8 2.4l-.4 1.6c.3 0 1.6-3 1.8-4l.2-1-1-1.9-.8-1.9v-1.7c0-1-.2-4-.5-6.6l-.6-7.7-.1-2.7h.3c.1 0 .5-.3.8-.7l.6-.6.2-1.1.2-1.1h12l.6-.4.7-.3-4 .1-3.8.2-2.8-.2-2.7-.2v-2.1l-.5-1.7-.5-1.8-.6-.5-.6-.5.2.4.2.4-.4-.2-.4-.1-.1-.5v-.5l2.7.8 5.5 1.7a32 32 0 0 0 6.5 2h.6l-.4-.3c-.4-.3-12.2-4.1-14-4.5l-1.2-.3-.2-4.3c-.4-7.7-2-19.2-3.7-25.7l-.8-3-1.2-2.4-1.2-2.5-1-1a14 14 0 0 0-2.3-1.4l-1.2-.6H64l-3.7.4-2.4.5-2.2 1-2.1 1-2.6 2a70.2 70.2 0 0 0-13.5 15.7l-2.7 4-1.2 2.4-1.2 2.4-.7 2.7-.8 2.7-.5 3.2a52 52 0 0 0-.4 4v1l-1.2-.7-1.1-.5-3.7.2-1.4.6c-.8.4-1.7 1-2 1.3l-.6.5-2.4.4c-3.9.6-7.7 1.6-11.4 2.9l-3 1-1.1.8-1.3.9-.2.8-.3.8.3.8.2.8 1 .5c.5.3 2 .9 3.3 1.2l2.4.7H22l2.5-.4 2.5-.4 2.4.7v26.9l.2 1 .2 1-1.2 2-1.3 2v3.1l.4-1.7.4-1.7 1.5-2.3.2 4.6.2 4.7.7 2.5.7 3c0 .3.2.6.4.9l.4.3-.2.6c-.3.9-1 5.5-1 6.4v.8l-.5-.3-.4-.4v.3c0 .2.1.7.3 1l.3.9-.4 3.4-.4 3.4.4 1.2.4 1.3 2 1.9 2 2 2.2 1.4c1.2.7 3.9 2.4 6 3.5l3.9 2.2 1.6.4 1.6.5 5.4.1 5.3.2 2.7-.7Zm-22.6-42.3-1.8-3.7-2-2.2-1.8-1.2c-.8-.5-1.5-1-2.3-1.2h-.3L30 340l-.3-7.3-.2-7.3.2-7 .3-7 1.8-.3 1-1 4.7-1.1a140 140 0 0 0 9.5-2.7l4.8-1.5v-.3c0-.4.5-.5-4.9 1.2-4.7 1.5-12.4 3.6-13.3 3.6h-.4v-1.5l-.9-2.5c-.4-1.3-1-2.5-1.6-3.7l-.6-1h1l1 1.3c1.3 1.4 1.5 1.2.4-.2l-.8-1 4.2.3 4.2.1 2.4.5c1.4.3 2.9.6 3.3.8 1.5.5 1.2.1-.3-.5l-1.5-.7-2-.3-2-.3-4.2-.2-4.4-.2-1.1-1.2.5-4.2.6-4.1.8-2.7.7-2.8 1-2.1a96 96 0 0 1 12-16.7l2.3-2.7 2.4-2 4.2-3 1.6-1 2-.5 2.1-.6 2.3-.1 2.3-.2 1 .5c.5.3 1.5.9 2 1.4l1.1 1 1 1.8a51 51 0 0 1 4.2 15.8l1 5.4.4 5.5.4 7.2v1.7h-7.8l-4.3 1.4-4.3 1.4-.5.5-.5.9v.3l2.4 1 2.3 1 2 .3 4.7.8 2.7.3 1 1.7 1.3 1.7 1 .6.9.6.2 1.8 1 14.5-.1.8-.5-1c-1.4-2-3-3.7-5-5.2l-1-.6-.5.2-.4.2-1.5 2.3c-.9 1.2-1.6 2.5-2.4 3.9l-.8 1.6-.7 2.7-.7 2.7-.6 5.3a316 316 0 0 0-1 7.6l-.2 2.4-.2-1.8-1.3-7.5-1-5.7-.6-2-.7-2-.8-1.1-.8-1.3-1.1-.8-1.3-.7-2 1.6-1.7 1.5-3 4.4c-1.3 2-2.6 4-3.7 6l-.8 1.7-.5 1.9-.4 1.9v1.3c0 1.4-.3 3.6-.5 3.6l-2-3.6ZM5.6 310.6l-3.1-1-1.2-.6-.1-.5-.2-1v-.5l.6-.6c1.1-1 2.8-1.7 7-3l3.8-1.3 3.3-.6a47 47 0 0 1 3.7-.6h.4l.3 2.4 1 1.9.9 1.9 1.3 1.3c.7.8 1.6 1.5 2 1.7l.5.3-.1.2c-.2 0-1.8.3-3.7.4l-3.5.3-5.5-.1-5.5-.1-2-.5Z"/><path d="M170.8 134.9h-14.6v4.3h10.4c-.6 6.2-5.6 8.9-10.4 8.9-6.1 0-11.5-5-11.5-11.8a11.4 11.4 0 0 1 19.3-8.6l3-3.2s-3.8-4.4-11-4.4c-9 0-16 7.8-16 16.2 0 8.2 6.6 16.2 16.3 16.2 8.5 0 14.8-6 14.8-14.7 0-1.9-.3-3-.3-3Zm12-3.2c-6 0-10.3 4.8-10.3 10.4s4.1 10.4 10.3 10.4c5.6 0 10.2-4.4 10.2-10.3a10 10 0 0 0-10.2-10.5Zm0 4.1c3 0 5.8 2.4 5.8 6.3 0 3.8-2.8 6.3-5.8 6.3-3.2 0-5.8-2.6-5.8-6.3 0-3.6 2.6-6.3 5.8-6.3Zm22.4-4a10.2 10.2 0 0 0-10.3 10.3c0 5.6 4.1 10.4 10.4 10.4 5.5 0 10.2-4.4 10.2-10.3a10 10 0 0 0-10.3-10.5Zm0 4c3 0 5.8 2.4 5.8 6.3 0 3.8-2.7 6.3-5.7 6.3-3.3 0-6-2.6-6-6.3.1-3.6 2.7-6.3 6-6.3Zm22-4c-5.5 0-9.8 4.8-9.8 10.3 0 6.3 5 10.4 9.7 10.4 3 0 4.5-1.2 5.6-2.5v2c0 3.6-2.1 5.7-5.4 5.7a5.7 5.7 0 0 1-5.2-3.6l-4 1.7c1.5 3 4.3 6 9.3 6 5.4 0 9.7-3.4 9.7-10.8v-18.6h-4.4v1.7a7.1 7.1 0 0 0-5.5-2.4Zm.4 4c2.7 0 5.5 2.3 5.5 6.3s-2.8 6.3-5.6 6.3c-2.9 0-5.6-2.4-5.6-6.2 0-4 2.8-6.4 5.7-6.4Zm28.5-4.1c-5.2 0-9.5 4.2-9.5 10.4a10 10 0 0 0 10 10.4c3.5 0 6.7-1.7 8.6-4.6l-3.6-2.4c-1 1.8-2.9 3-5 3-2.8 0-4.2-1.7-5-3.2l13.8-5.8-.7-1.7a9.5 9.5 0 0 0-8.6-6.1Zm.2 4a4 4 0 0 1 3.8 2.2l-9.2 4c-.4-3.1 2.5-6.2 5.4-6.2ZM240 151.9h4.5v-30.6H240v30.6Z"/><g fill="#a73a24" stroke-width="0" font-weight="400"><text dx="0" dy="0" font-family="arial" font-size="20" transform="translate(115 412)"><tspan y="0" font-weight="700">29kWh </tspan><tspan y="0">of energy </tspan></text><text dx="0" dy="0" font-family="Arial" font-size="15.8" transform="translate(115 437.4)"><tspan y="0">That's enough electricity to drive an </tspan><tspan x="0" y="15.8">electric car 115mi.</tspan></text></g><g fill="#a73a24" stroke-width="0" font-weight="400"><text dx="0" dy="0" font-family="arial" font-size="20" transform="translate(115 224)"><tspan y="0">Produces </tspan><tspan y="0" font-weight="700">27.4lbs</tspan><tspan x="0" y="20">of CO2 per 10K views</tspan></text><text dx="0" dy="0" font-family="Arial" font-size="15.8" transform="translate(115 270.3)"><tspan y="0">The same weight as</tspan><tspan x="0" y="15.8">0.08 sumo wrestlers.</tspan></text></g></svg>