<svg width="200" height="324" fill="none" xmlns="http://www.w3.org/2000/svg"><path d="m125.6 13.9 1.9 2.6 1.4 2.2 1 .5c.7.3 1.3.7 1.5 1 0 .4.6 1 1.1 1.7l1 1 1 .3 1.2.2-.6.6-.6.5.4.1h.4l-.3.7-.3.7.4.1 1.5.5 1 .4v-1.2l1 .2.9.2-.3 1.3-.2 1.4h.3c.2 0 .4-.2.5-.6l.3-1.3c0-.4.4-1 .7-1.4.3-.4.6-1.1.7-1.5l.1-.8h.6c.3 0 1.1.6 1.8 1.2.7.7 1.5 1.2 1.7 1.3l2.5.7 2 .7.5-1.3.5-1.8c0-.2.6-1 1.2-1.6l1.2-1.4.8 1.6c1.5 2.8 3.5 5.5 4.3 5.6l.5.1 1.3 2.3 1.2 2.3 1.9.8 1.8.9-.4.4-.5.4 1 1.4 1 1.5 1.1.2 1.2.2-.1 1.6-.1 1.6.4.4.3.4.2-1 .2-1 .4.1 1.1 1.3.8 1h-1l.4.8.3.7-.7-.1-.8-.1.5 1.2.5 1.1 1.3.5c.7.2 1.5.7 1.7 1l.5.6-.3.5-.3.6.5.5c.3.3 1 .7 1.7 1l1.2.4 1.3 2.3 2.2 3.7.8 1.3-.2 1-.2 1 .7.6.7.6v.6c-.1.3 0 .6.2.6.4.1.7 1.6.7 3.1V68l1.6.3 1.6.3-.2 1-.2 1h.3l.3.1-.3 1.7-.3 1.7.8.2.7.1.2-.8.1-.8.4 1.4.4 1.3.2-.7.1-.8h.5l.5.1.1-1 .2-1 .6-.4c.4-.2.8-.6 1-1l.4-.7-.1.8-.2.9 1 .2.8.1.3-.7.2-.7.3 3.3.4 3.3.3-.4.3-.3-.1.9-.2.9.5-1 .5-1 .1 1.1.2 1.1.2-1 .1-1 .2.8.2.8 2.5-2.4a28 28 0 0 0 3-3.4l.5-1 1.7.3 1.7.2.4 1.6c.3.8.4 2 .3 2.3v1c.2 0 .3.4.3.8-.4 2.4-.5 5.1-.3 6.2.2 1 .1 6.2-.2 10.4v2.3l-2.5 13.7-2.5 13.6.2 1.2.3 1.2.6-.2.6-.2.8 1.2c.4.7.7 1.6.7 2-.1.3 0 1 .1 1.7l.3 1-.3 3-1.5 8.7-1.1 5.7-.4.7-.4.7-1 3.5-.8 3.5h.4l.2.1-.5 3.5-1.2 6.5-.5 2.8h.8c.5 0 .9-.2 1-.3l1.2-2.7 1-2.4.3.2.3.3 1.4-1.3 1.3-1.4.6 1.3c.8 1.8 1 3 .9 4.1l-.2 1.1h.3c.1 0 .4-.2.6-.5.1-.4.4-.7.5-.6h.3l-.4 2.4-.4 2.4v1.4c.1.8-.2 4.7-.6 8.7l-.7 7.4.2.4.2.5-.8 3.6-.8 3.6.1.8c0 .4 0 1.9-.3 3.2l-.9 7.2c-.7 5.4-1 7-3.5 17.6l-1.8 7.4-1 7c-.5 4-1 7.2-1.2 7.3-.2.3-1.2 5.2-4.1 19.6l-3 14.2-1 4.3a526.9 526.9 0 0 0-4 16.3l-.9 3.2h-.4l-1 4-1 4h-.3l-.3-.1-.3 1.7-.3 1.7-1.5 1a13 13 0 0 0-2 2.1l-.7.9-.8-1.3c-.5-.7-1-1.7-1-2l-.1-.8-.1.5c0 .4-.4-.4-.7-1.6l-.6-2.2-.9.5-1 .5v-.4l-.1-.4h.3c.1 0-.2-.5-.8-1.1l-1-1.2-1.3 1.6-1.1 1.6-.3-.9-.3-.9-.5 1.5a14 14 0 0 1-1 2.4l-.5.8-.4-1.3-.3-1.2-.3 1-.1.9v-3.3l-.4.4-.4.3-.2-2.2-.2-2.1-.4 1.1-.4 1.2.1-2.4.2-2.5-.3 1.5-.4 1.6h-.2l-.3-.1v-1.6l.2-1.4-.7.8-.6.8-.2-.5v-.5l-.6.7-.6.6-.3 1.7-.3 1.7-.5-.9-.5-1-.7 1.3-.8 1.7v.5l-.3-.5-.2-.4-.2.7-.1.7-.9-.2c-.8-.1-1.5-1-1.3-1.9l.3-1.5.2-1-.4.4-.4.3.2-1 .2-1.2-.6.3c-.4.3-1 .5-1.6.7-.5 0-1 .3-1.2.6l-.3.6-1.2-.2-1.1-.2-.9-2.3-.8-2.3-.5.3-.4.2-.7-.9c-.3-.4-.6-1.1-.5-1.4 0-.3-.1-.7-.3-1l-.4-.5-1 2.4-.9 2.4-.2-.8-.2-.8-1 1.1-1.2 1.2-.2-1-.2-1.1-.5-.1-.5-.1.5-.5.5-.5-1.6-1.2-1.5-1.2-.2-1-.2-1h.3c.1 0 0-.5-.3-1.2s-.7-1.3-.8-1.3v-5.6l-.4 1-.4.8-.4-1.8-.3-1.7-.4.7-.4.9-.4-.6-.5-.5-.4 2.5-.5 2.3-1 2.5c-1.2 3-1.6 3.4-3 4.5l-1 .8-.4 1.3c-.4 1.3-.9 1.5-1 .3v-.7l-.4.3-.4.4.1-.6.1-.6-.5-.2c-.3 0-.7-.2-.8-.3-.2-.1-.5-.3-.7-.2h-.4l-.2 1.1-.3 1.2-1.5 2-1.6 2v-1.4l-.6 1c-1 1.4-1 1.3-2.4-3-.2-.3-.4-.7-.6-.7l-.3-.1v-2c0-1-.3-2.5-.5-3.2l-.4-1.4.3-.9.2-.8-.3-1-.3-.8.1-1 .2-1-.4.3-.3.4-.2-1.9-.2-1.8-.8.3c-.4.2-.8.6-1 1l-.2.6-.5-2.2c-.3-1.3-.6-2.3-.8-2.4h-.3l.1-1 .2-1-.3-.1h-.3v-7.3l-.4.8-.5 1 .2-1.4.7-3.7.5-2.4-.6 1.3-.5 1.3v-1l.1-3.5.5-5.7.4-3.1-.7 1c-.7 1-2.3 4.7-2.4 5.6 0 .2-.6 1.2-1.4 2.4l-1.3 2-.5 1.7c-.3 1-.7 1.8-1 2l-.3.4-.5 1.8-.4 1.7-.6.9-3.2 5.5-1 1.7-.7.2-.9.1-.2-.8-.2-.8-.3.8c-.2.5-.5.8-.6.8h-.3l.2-1 .2-1H89l.3-1 .3-1.1h-1.1l-1.5 2.8-2.3 4-.8 1.1-.2-.4-.3-.5-.1 1-.2 1.1h-.7l-.6-.2.3-1.4.2-1.3-.4-.1h-.5l.1-2.3v-2.2l-.2.4-.3.4-.3-1.7-.3-1.7.4-1 .4-1.1-.4-.1h-.3l.3-.6.3-.7-.2-.3-.2-.4.8-4 .7-4.2-.3.3-.3.3.2-.8.1-.7-.5.4-.4.4.4-1.1.4-1.1-.4.3-.4.4-.3-.9-.2-.8-.5 1.3-.4 1.4-1.1-1.3a8.8 8.8 0 0 0-3.7-2.7l-1.1-.3-.5-1.3-.6-1.2-.7-.2-.7-.1.8-3.1.8-3-.3-.7-.3-.6.7-2.7.8-2.8h.3l.2.1.7-4 .7-4 .3-.6c.3-.5.4-.8.3-.9l-.6-.4-.5-.3-.2 1.3-.2 1.3h-.3l-.2-.1-1 2.4c-.4 1.4-1.2 3.2-1.7 3.8l-.9 1.4-.1 1.3-.8 2.9-.6 1.6.2.5.2.5-.4.4-.5.4-.2 1.3-.2 1.3-.9 1.2-.8 1.2-1 .3-1.1.3-.5 1c-.2.7-.6 1.5-1 2l-.5.8v.6l.1.6-1 .2-1 .2-.3-.4v-1.5l.2-1-.4.4-.4.3.1-.7.2-.7h.3l.4.1-.6-1-.6-1 .2-1.9.3-1.8h-.3c-.2 0-.4.2-.4.6l-.2.7-.2-.5-.2-.4-.4 1.5-.3 2-.1.6h-.5l-.4-.2-.2 1-.2 1H56l-.5 1.6-.5 1.7h-.5l-.4-.2-.4 1-.4 1-.6-.1-.6-.1.3-1.6.2-1.5-.3 1.1-.4 1.2h-.6l-.6-.2.3-1.7.3-1.7-.3-1.5-.4-1.4.5-3 .6-3-.4-.5-.4-.4-.1.7c-.2.7-2.2 4.6-2.7 4.9l-.4 1.2-.2 1-.4-.2c-.2 0-.5-.5-.6-1l-.2-1-1-.2-1.1-.1-.4-1-.3-1 .3-1.8.3-1.8-.6 1.2-.8 1.3.2-.6v-.6l-.8 1.2-1.4 2.7-.7 1.5-.2-.4-.2-.4-.6 1.5-.6 1.5-.9-.3-1-.4-.3-.2.4-2 .4-1.9-.4-.4-.3-.4.2-3.3v-7.6l2.3-12.7 3.6-19.3 1.5-8 .2-1.1-.6-.1-.6-.2-.5 1.1-.5 1.1-.4-1.7-.2-2.7.2-.9-.5.4c-.2.3-1 .4-1.8.3l-1.5-.1-.2-.8-.2-1 .4-3.1.3-3.3-.2-.4v-1.4l-.1-3.7-.3-2.7.2-2 .4-3v-.8h-.2l-.4-.1-.1.9-.2.9-.8.8-.8.9-.6 3-.8 4.2-.2 1.3-.5-.1H33l-.2.9-.2 1-.6.3-.7.3-.5 1.9-1.8 5.1-1.2 3.1-1 .6-.8.6-.4-2-.5-2.1.2-1 .2-1-.4-.1h-.3l.2-1.1.2-1H25l-.3-.1-1.6 3.2c-1 1.7-1.7 3.2-1.9 3.1 0 0-.5.7-.8 1.6l-.7 1.7-.5-.1-.5-.1-.1 1-.2 1h-.7l-.6-.2.3-1.2v-2.8l-.2-1.5.5-5c.4-2.8.6-5.8.6-6.6L18 194l.5-1.7.5-1.6-.3-.4-.3-.4.6-2.7a338.2 338.2 0 0 0 2-9l3.3-16.4a1259 1259 0 0 1 5.7-29 49.6 49.6 0 0 1 4.8-13l.6-1.8 1-1.3a6 6 0 0 0 1.2-2c0-.5.7-1.6 1.4-2.7l1.3-1.8-.1.8-.2.7.8-.6.7-.6.5-1.4 1.2-2.7.7-1v.7l.2.8.5-1.6.5-1.8.7-.3.7-.2.1-.8.2-.7.1.4.1.5.6-.6.5-.7-.1.7-.1.8h.5l.5.2.8-1.4.9-1.3.2-1.3.2-1.2h.6l.6.2.3-1.7.3-1.7 1.4-1.7 1.3-1.7.4-2.6.4-2.6 1-1c.5-.5 1.5-1.7 2.1-2.7l1.2-1.7.2-2.2c0-1.3.3-2.8.5-3.5l.3-1.1h.3c.2 0 1-.5 1.7-1.3l1.4-1.3.4-2.5.3-2.5 1-1c.4-.6 1.4-1.4 2-2l1.3-.9.6-2.3 1-3.1.4-.8 1-.2a4 4 0 0 0 1.8-1l.7-.8.5-2 .4-2 .5-.7.5-.7 1.3-.3L80 48l.7-1.9.7-1.8 1.4-.2 1.5-.2.2-1a6 6 0 0 1 .7-1.8l.6-.8 1-.1c.5 0 1-.3 1.2-.5 0-.2.8-.5 1.6-.6l1.4-.2 2.5-1.7 2.5-1.7 1 .3.8.3.9-1.3.8-1.3.5-2.1.5-2.2.7-.5.7-.6h1.3c1.6.2 4.5-.6 5-1.4l.5-.6 1.4.3 1.4.2 1.5-1.5 1.6-1.6v.6c.1.4.4.8.7 1l.5.3 1-.6 1-.6.2-.7v-.7l1.2-1 1.1-1 1.1-2.2 2.1-3.9 1-1.6h.4c.2.1.5.4.7.8Z" fill="#A73A24"/><path d="m65.3 193.4.7-.7.5-1.9.6-1.8h.8l.7 1.6.7 1.6.6.2.6.2.8-1 .8-.8.3-1.5.7-3 .5-1.4 1 .2c.6.2 1.2.5 1.4.8l.3.5 1.5-.9c.8-.5 1.5-.7 1.6-.6l1 2c1 2.6 2.2 4.9 2.4 4.9l.8-.6.6-.6.3-1.5.3-1.5-.7-1.3c-.4-.7-.8-2-1-2.8l-.3-1.6.3-.2.2-.3L85 183c1 1 2 2.1 2.2 2.7l.6 1-.6.5-.7.4 1-.1.8-.2 1 2.5 1 2.5h.8a6 6 0 0 0 1.5-.3l.8-.3V189l.7-.3.8-.3c.1 0 .6 1.2 1 2.6l.8 2.6.6-.5.6-.5.3.3.3.3v-.8c0-.4.3-1.4.7-2.2l.8-1.4-.5-1.6-.4-1.6.8-.2 1-.3.9 1c.5.5 1 1 1 1.3 0 .6 1.6 3.7 2.3 4.4.4.4 1 .8 1.5 1l.8.2v-1.9l1.4-.4 1.3-.5-.1-1.5-.4-2.5-.3-1h.5c.3 0 1 .5 1.7 1.2l1.2 1.3 1.2 2.5c.6 1.3 1.2 2.4 1.3 2.3.4-.3 3.5-12.3 3.5-13.3v-1l-.9-.5-1-.5h-3.2l-3.7-1.2-3.7-1c-.1.1.1 1 .5 2l.8 2-.2 1-.2 1.2-.6-1.5-.6-1.6-.5.3-.4.3.3-.5.3-.5-.5-.8-.4-.9v.9l-.8-1c-.8-1-.8-1.4-.1-1.7l.6-.1h-.8l-.9.2-.2-.4c-.2-.4-3.3-1.9-3.8-1.9-.1 0-1.6 3.2-1.6 3.5 0 .1.8.7 1.7 1.2.9.6 1.5 1.2 1.4 1.3-.1.1-.9-.3-1.7-.8l-1.5-1-.4.6c-.2.3-.3.9-.2 1l.1.6h5.1l-.1.6-.2.5.7-.3.7-.2 1.6.2 1.6.3.3 1 .2.9h-1.1l.5.4c.2.2.9.8 1.4 1.5l1 1.1-1.8-1.6-1.7-1.5.2-.4.2-.4-.4-.2-.5-.3-.3.5-.4.6.7-.4.6-.4-.3.5-.3.5-2-.4-4-.4h-2l-.7-1c-.4-.7-.6-.9-.5-.5l.3.5-1.3 2.3-1.2 2.4-1.5 1.3-1.4 1.3 1.8-2.3L94 181l.6-1.3-1.6.2-1.7.2.9 1 .8 1-1.3-1.1-1.2-1.1v-.6l.2-.5-.6.2h-.7l.3-.4.3-.5h5.5l.4-1 .5-1.1-7.2-4.8c-4-2.7-7.2-5-7.2-5.1 0-.3.3 0 7.4 4.6 3.4 2.3 6.4 4.2 6.7 4.2l.6.2.6-1.6.6-1.5-1.5-.7-7.8-3.2-6.4-2.6L81 167l-1.4 1.5.7-1.2c.5-.7.8-1.4.8-1.5 0-.1-1.7-1.3-3.8-2.6l-3.8-2.5-.8.4c-.4.3-.8.8-.9 1.2v.7l8.9 7.6c4.9 4.2 8.9 7.8 8.9 7.9 0 .3.7.8-10.1-8.3l-12.3-11-3.9-3.7.6-.4.6-.5-.8.3-.8.3-.6-.7-1.9-1.7-1.3-1 .2 1.1.2 1-.7 1.3c-.4.8-.8 1.4-1 1.4 0 0 .1-.6.5-1.3l.7-1.3-5-2-5-1.9-.6.5-.6.5v.9c0 1.8 3.2 6.6 4.5 6.8.8.1 3.5 2.1 3.5 2.6v.3H57l.3.8c.4 1 .4 1.1-.4 1.1h-.6l-3.6-2.8-3.6-2.8v-.9h-.5c-.5 0-2.7-1.7-5.2-4a5.2 5.2 0 0 0-1.6-1.2c-.2 0-1-.6-2-1.5l-1.4-1.4h-1.8l-1.8-.1-2.3-1.3-2.2-1.4-.8.6-.7.6.3 2.7c.5 5 .9 7.2 1.3 8 .8 1.5 2 2.7 2.6 2.7.6 0 1.8.9 3.5 2.5l1 .8c.2 0 .9.5 1.6 1.2.7.6 1.5 1.1 1.8 1.1h.6l.6 1.2.6 1.2.9.2.8.3.7 1.4.8 1.3H47l2 1.8 3.8 3.5 2 1.8.7-.6c.8-.6.8-.7 1.8 2.1l.8 2.2 1 .5.8.5v1.2l5.5-2.2 5.5-2.3 3.8-1 3.8-1 4.8-.2 4.8-.3.8.8 1 .7.3-.3.4-.4-.3.5-.3.6-5.8.2-5.7.3-3.4 1a128 128 0 0 0-8.4 2.9l-5 2-.2.6-.3.6 1.2 3.1 1 3 .6.3.5.2.8-.8ZM188.3 162.7l-.7-.8-.6-1.8-.6-1.9h-.8l-.7 1.6-.7 1.6-.5.2-.6.2-.8-.9-.8-1-.3-1.4-.8-3-.4-1.4-1 .3c-.6.1-1.2.4-1.4.7l-.4.5-1.4-.8c-.8-.5-1.6-.8-1.6-.7l-1 2c-1.1 2.7-2.3 5-2.5 5l-.7-.7-.6-.6-.3-1.4-.3-1.5.6-1.4c.4-.7.9-2 1-2.8l.3-1.6-.2-.2-.3-.3-1.6 1.7c-.9.9-1.9 2-2.2 2.6l-.6 1.1.6.4.7.5-.9-.2-.8-.1-1 2.5-1 2.4h-.8a6 6 0 0 1-1.6-.3l-.7-.3v-2.6l-.8-.3-.8-.3-1 2.6-.8 2.6-.6-.5-.6-.4-.2.3-.4.3v-.8c0-.5-.3-1.4-.7-2.2l-.7-1.4.4-1.6.5-1.6-.9-.3-.9-.3-1 1c-.5.5-.9 1.1-.9 1.3 0 .6-1.7 3.7-2.4 4.4l-1.4 1-.9.3v-1.9l-1.4-.5-1.3-.4.2-1.5c0-.9.3-2 .4-2.6l.2-1h-.4c-.3 0-1.1.5-1.8 1.3L141 157l-1.2 2.5c-.6 1.4-1.2 2.4-1.3 2.3-.4-.3-3.5-12.2-3.5-13.2v-1.1l1-.5.9-.5h3.3l3.6-1.2 3.8-1c0 .2-.2 1.1-.6 2.1l-.8 2 .2 1 .2 1 .6-1.4.6-1.5.5.3.5.3-.3-.6-.4-.5.5-.8.5-.9v.9l.7-.9c.9-1.1.9-1.4.2-1.7l-.6-.2h.8l.8.2.3-.4c.2-.4 3.2-1.8 3.7-1.8.2 0 1.6 3.2 1.6 3.5l-1.7 1.2c-.8.5-1.5 1.1-1.4 1.2.2.2 1-.2 1.7-.8l1.5-1 .5.6c.2.4.3.9.2 1.1l-.2.5h-5v.6l.2.5-.7-.2-.7-.3-1.6.3-1.6.3-.2.9-.3 1h1.1l-.5.3-1.4 1.5-.9 1.2 1.7-1.6 1.8-1.6-.3-.4-.1-.4.4-.2.4-.3.4.5.3.6-.6-.4-.6-.3.3.4.3.5 2-.4c1-.2 2.9-.4 4-.4h1.9l.7-1 .5-.5-.2.6 1.2 2.2 1.3 2.4 1.4 1.3 1.4 1.3-1.7-2.3c-1-1.2-2-2.8-2.4-3.5l-.6-1.3 1.6.2 1.6.2-.8 1-.9 1 1.3-1 1.3-1.2-.1-.5-.1-.5.6.1h.6l-.3-.4-.3-.4h-5.4l-.5-1.1-.5-1.1 7.2-4.8 7.3-5c0-.3-.3-.2-7.4 4.6a80.5 80.5 0 0 1-6.8 4.2l-.5.1-.6-1.5-.7-1.5 1.5-.7 7.9-3.3 6.3-2.6 1.4 1.5 1.4 1.6-.8-1.3c-.5-.7-.8-1.4-.8-1.5 0 0 1.7-1.3 3.9-2.6l3.8-2.5.7.5c.4.3.8.8.9 1.1l.1.7-9 7.6c-4.8 4.2-8.9 7.8-8.9 8 0 .2-.6.8 10.1-8.4 4.7-4 10.2-8.9 12.4-11l3.8-3.7-.5-.4-.6-.4.8.2.8.3.5-.7c.4-.4 1.2-1.1 2-1.6l1.2-1-.2 1-.2 1 .8 1.4c.3.7.8 1.3.9 1.3 0 0-.1-.6-.5-1.3l-.7-1.3 5-2 5-1.9.6.6.6.4v1c0 1.7-3.1 6.5-4.4 6.7-.8.1-3.5 2.1-3.5 2.6v.4h-1.4l-.2.7c-.4 1-.4 1.2.3 1.2h.6l3.7-2.9 3.5-2.8v-.9h.5c.6 0 2.8-1.7 5.2-4 .7-.6 1.4-1.1 1.6-1.1.2 0 1.1-.7 2-1.5l1.5-1.5h3.6l2.2-1.4 2.3-1.3.7.6.7.6-.3 2.6a31 31 0 0 1-1.3 8c-.7 1.5-2 2.7-2.6 2.7-.6 0-1.7.9-3.5 2.5l-1 .8c-.2 0-.8.5-1.5 1.2-.7.6-1.5 1.2-1.9 1.2h-.5l-.6 1.1-.6 1.2-1 .3-.8.2-.7 1.4-.7 1.4h-1.2a138 138 0 0 1-5.8 5.3l-2 1.8-.7-.6c-.8-.7-.7-.8-1.7 2l-.9 2.2-.9.5-.9.5V154.4l-5.5-2.3-5.5-2.3-3.8-1-3.7-1-4.9-.2-4.7-.3-.9.8-.9.8-.4-.4-.3-.3.3.5.2.5 5.8.3 5.8.2 3.4 1c1.8.5 5.6 1.9 8.4 3l5 1.8.2.7.2.6-1.1 3.1-1 3.1-.6.2-.6.2-.7-.7Z" fill="#F3C010"/><path d="m53.7 258.1-.9-2.1-.2-31.3-.3-31.4h-8.5l-1.5-1.6-1.6-1.5v-9.6l.9-2.8.8-3 2.4-1.4c3.2-2 4.5-2.3 2.6-.8l-1.5 1.2h.7c.5 0 2.5-.5 4.5-1.2l3.6-1.3.5-2.8 3-13.9 2.7-11 3.6-10.8c2-5.9 5.8-16.2 8.5-22.9l4.7-12 6.8-13.7 7-13.6 6-9.3a165.3 165.3 0 0 1 22-27.5l6-6 5-3.4 5.1-3.3 4.2-1.2 4.2-1.2 7.3.3 7.3.2 2.4 2.3 2.5 2.4 2 3.6c1 2 2.3 5.8 3 8.2l1.1 4.5.9 13.3.9 13.2-.5 11.3a219 219 0 0 1-4.8 38.4l-2.7 14 11.9.1 12-.2-9 .7-12.3 1.2-3.4.4V137.3l3.4-.5c1.8-.3 3.6-.8 4-1l.7-.4 18.8.2 18.8.1 3 .8 2.7.7 2.4 2.6 2.3 2.7.6 3 .4 3-.8 2.2-.7 2-3.2 1.6c-1.7.9-5.6 2.3-8.8 3.1l-5.7 1.6-7 .8c-3.9.4-13.5 1-21.2 1.3l-14.2.4-.9 4.4c-2 10.2-7.8 64.1-8 73.5v4.1l-.7-2-.9-1.9.5-7 1.2-13.2 2-19.1c1-12 3.8-33.2 4.8-37.2l.4-1.8H132l-2.1-1.1-2.3-1.1-.5-1.3c-.2-.7-.4-2.8-.4-4.7v-3.5l1.1-2.2 1.1-2.3 3.4-2.8 3.3-2.8h-12l-4.5 1.6a17 17 0 0 1-4.7 1.2 17 17 0 0 1 4.4-2.3l4.6-2H139l4.1-2 4.3-1.8 7-1.8a91 91 0 0 0 7.2-1.7c.4-.4 4.8-23.7 6.2-32.5l1.4-9V68.8L169 48l-.9-5.9-1-6-1.6-4.4-1.6-4.5-3.4-3.5-3.4-3.5-8.4.3-8.5.3L136 23c-17 8.8-37.5 34.8-52.9 67.3a353.6 353.6 0 0 0-26.3 77.9l-.5 2.5 1.4-.6c2-1 13.6-4 19.7-4.9l5.1-.8h10.6l10.5.1 1 1 1.1 1 .7 3.4.8 3.4-.9 2.5-.8 2.5-2.8 2.1c-1.4 1.1-5.3 3.4-8.7 5l-6 3.1-5.9 1.6c-6.6 1.8-17 3.2-23.5 3.2H54l-.5 9.5-.6 9.6.4 21.4.3 21.4 1 2.6c1 3 .4 3.2-1 .3ZM69.2 191a95 95 0 0 0 10.2-1.7l3.1-1-4-.5-4.1-.5-2.7-1.6c-3.3-2-8.6-7.7-10.3-11-2-4-1-3.5 1.8.7l2.5 3.7 4.1 3.2 4.2 3.2 4.2 1 4.2.8 1-1.3.9-1.4.5-5.6.6-5.7-.6-3.3-.5-3.2-1-.5-1.1-.3-8.6 1.6-8.7 1.7-4.3 1.6-4.3 1.7-.4 1.6c-.5 2.7-2 13.7-2 15.7v2h4.2c2.2 0 7.3-.5 11.1-.9ZM189 158.7l11-1.1 6.1-1.7c3.4-1 7.2-2.3 8.4-2.9l2.2-1 .9-2 .8-1.7-.5-2.7-.5-2.6-2.8-2.8-2.7-2.6-18.4-.3-18.3-.2v7.6l-1.2 4-1.2 4-1.6 1-1.6.8-5.3-.3-5.1-.3-.3 3-.2 2.9h9.6l9.6-.1 11-1Z" fill="#fff"/><path d="m115.4 207.4-.5-.2h-.4l-.5.1-.3-.2-.3-.1-.2-.4-.1-.4-.6.4-.6.2h-.4l-.7.2-.3.2.4-.4 1-1.3.6-.9.1-.5v-.4l-.1-.2-.3-.2v.1l-.2.2h-.5l.3-.2h.3-.3l-.3-.1-.3.2-.3.3v.1l.1.1h-.2l-.2-.1v.4l-.3.2-.2.2.2-.3c.3-.4 0-.4-.4 0l-.4.4-.1-.1.1-.4.7-.7.4-.4-.2-.2-.2-.2.4-.2.3-.2v-.7h-.2l-.4.3-.3.3v.3l.1.3v-.2l-.2-.3-.4.3-.4.3v-.2l-.2-.4v-.2l.2.1h.2l.2-.3.2-.3-.2-.1-.1-.1v-.3l.2-.3-.6.3-.5.2v.2h-.2l-.1-.1v.3l.2.9v.5l-.3.2c-.3.3-.3.3-.5-.4l-.1-.5v-.4c.1-.2.2-.5.4-.6l.2-.2v-.2c-.1-.4 0-.6.5-1.1l.5-.5h.2v.1l.2-.1.3-.2h.2v.2l-.2.1h.5l.3.1.3-.4.3-.5.7-.6.8-.6.1.2.2.1-.4.4-.4.3.1.1.4-.1.3-.2-.2.2a1 1 0 0 0-.3.4v.2l.3-.1.5-.2.4-.2h.1l-.1.4-.2.3.2.3.2.2h.5v-.6h.2l.1-.2-.1-.2h.2l.3-.2h-.1l-.1-.2.7-.7.7-.6h.6l-.3.4-.4.5h-.1v.3c.2.1.2.3.2.4v.2H116v-.3l.1-.3h-.2l-.1.2v.3l.2.4.3-.1.2-.2v-.1l-.2-.2h.4l.6-.6 1-1.1.5-.5.3.2.3.2h.2v-.2.2l-.1.2.2.1.2.2h.2l.3-.2v.2l-.2.1h1.6l.2-.2.2-.2-.1-.2-.3-.1h-.3l.1.2.1.1-.5-.2-.7-.2h-.2v-.2l-.1-.3H122l.2-.2v.1l-.5.3-.5.2h.8l.3-.2.2-.3v-.2l-.2-.3h-.4v-.4h-.5l.2-.3.2-.3.2.1.2-.2.2-.6.1-.4-.2-.3-.2-.3v-.4l.1-.4H122v.2l.2.1-.2-.2-.3-.2-.1.1-.2.1v-.4l-.1-.5v-.2l.1-.3-.1.2-.6.5-.3.3-.3-.2-.2-.4c0-.2.6-1.4.8-1.5v-.3l.1-.3h-.5a6 6 0 0 0-.7 0h-.3V188.8h-.4v-.1l.1-.2h-.8l-.3.2a1 1 0 0 1-.5.3h-.1v-.5h-1.1l-1 .1-.1.2v.1l.4.2c.5.2.5.4.2.6l-.3.1-.6-.2-.9-.2h-.3l-.2-.3-.1-.3h-.3l-.3-.1V189h-.8l.1.1.2.3c0 .2-.2.2-.6-.2l-.4-.3v-.4l.2-.4h-.4l.2-.3.1-.3v-.4l-.2-.3-.4.5a2 2 0 0 0-.4.6c0 .1-.5.6-.7.6v-1h-.3l-.2.3-.1.4-.2.3h-.6v-.5l-.2.3-.1.4h-.4v-.8l-.5.8-.7 1.2-.2.4v.2l-.5-.1-.6-.1-.1-.2-.2-.2-.1.2-.3.6-.5 1.3a5 5 0 0 0-.5 1.1l-.1.4h-.2v.2l.2.1-.2.1-.1.1v.7l-.4.4a23 23 0 0 0-1.7 2 7 7 0 0 0-.7.9c-.2.3-.5.4-.5.1l.7-1.2.8-1.4.5-1.4.5-1.3v-.3H101.9v-.9l.1-.9-.2.2-.2.4-.4 1-.5 1.4-1 2.6a6 6 0 0 0-.4 1.1v.7l-.2.1h-.1v.8h-.2l-.3.8-.3.7h.7l.4-.6.4-.7c0-.1 0-.2.2-.3h.1v.2l-.1.2h.2V199h.1l.1.1-.1.2-.1.2h-.5v.2l.1.2h-.2l-.2.2v.3l.1.4-.3.6-.3.6v-1l-.1-.2h-.2l-.1.2-.3.7v.6l-.2-.1-.2-.1.1.1.1.2h-.3l-.3.1v.2l.2.1-.3.2-.2.2v-.2l.2-.3-.4.3-.4.3-.2-.2-.1-.3-.5.2a4 4 0 0 1-1 .3l-.5.1-.2-.3-.2-.3-.2.3-.2.2h-.5l-.4.1v-.4l-.4.2-.4.2h-.9v-.9l.9-1.3.8-1.3.2-.7c.1-.9.6-2 1-2.6l.4-.4h.4l.3-.2.3-.5.6-1.6.7-1.5.1-.9v-1.1l-.3-.2.1-.2.1-.3H96l-.3-.1.2.6.1.6v.8l-.1.8-.2.2-.3.3-.1-.2-.2-.1v-1c-.2-1-.2-3.3 0-3.7v-.3l-.2.1-.2.1.2-.2.2-.2v-.2l-.2-.1 2-2 2.7-2.9.6-.8H100.4v.3l.2.4v.1l.4-.3.9-.5.5-.3.3.1.6.2h1.1v-1.1l1-1.3c1-1.7 1.3-2 3.3-4 1.7-1.8 2.8-2.8 3-2.7l.2-.2.1-.2-.1-.5-.1-.5-.5.6-.4.6-.3-.2c-.4-.2-.6-.6-.6-.8v-.2h.3l.3-.1V170.5h.4V170.2h.2v.1l.2-.2v-.2h.2c.2 0 1.3-.6 1.8-1l.5-.3.2-.1.5-.3.5-.2h1.2l-.3-.2-.3-.1h.2c.2 0 .3 0 .4.2l.3.2v-.2l.2-.2h.2l-.1.1-.1.2h.1l.3-.2.2-.2-.2-.1-.2-.1h.5l.4.2.2-.3.1-.3.4.2.3.2v-.1h.1l.2.3.3-.4c.3-.4.3-.5 0-.9l-.4-.2h.2l.5.3.5.3-.2-.3-.2-.4-.4-.1-.4-.2v.4h-.3l-.3-.2-.1-.2.2.1h.3l-.2-.2h-.2v-.3l.2-.2.3.2.3.2.2-.2.2-.1h.4l.3.2v-.2l-.1-.3h-.4l-.4.1v-.2l.2-.1-.4.1-.3.1-.1-.2-.2-.2v.4h-.5v-.1l-.6-.3h-.5l.1.2h-2.7l.4-.1.4-.1h-.8l.1-.2h1.1l.8-.1v.2h.2l.1-.1v-.2l-.2-.2.3.1.2.1c0-.2-.4-.6-.5-.6h-.3a3 3 0 0 0-.9 0h-.7v-.5l1-.2.9-.3h2.5l2.6-.2v.2l.4.2.3.1v-.7H123.6l.5.1-.1.2v.1h.2v2.2l-.2 1-.2 1v2.4l-.2.1-.1.1v.6l.2.5-.3-.2-.4-.6-.2-.4h-.4l-.4.1-.2-.5-.2-.5-.1-1.1-.1-1.2-.5-.4-.4-.4v.5l.1.4.3.4v.2-.6h-.1l-.2-.1.3-.1.2-.1v.1l-.2.2H121.2v1.1H120.9V167.7v-.3l.2-.2v.5h-.4l-.3-.1v.1s0 .2.2.2l.2.1v.4l-.4.6-.6 1-.2.6.3-.2.2-.2V170.6h-.5l-.3.2-.1.2v-.2l.1-.3h-.2l-.2-.1v.8l-.3-.1-.3-.2v.4h-.2l-.3-.1-.1.2-.2.3h-1.3V172h.5V171.7h.2l.3.2-.3.2-.3.2.5-.1.5-.1.2.3.2.2v-.3l-.2-.3.2.2.2.2-.2.2-.2.3v-.1l-.2-.3v-.2h-.5v.5l-.1-.2v-.2H116.3v.1l.1.3h.2V172.6v.1h.1v.3l-.2.1-.2-.1-.2-.2-.4.3-.4.3v.4l-.1.2-.2.2-.1-.2-.1-.2-.2.1-.1.1v.2l.2.1-.3.3-.2.2v.4h-.3l-.4.1.4-.4.5-.4-.1-.2h-.1l-.2.2-.4.2-.5.5-.3.3.1-.3-.3.3c-.4.3-.4.5-.1.3l-.5.6-.7.6.3-.1.2-.1v.2l-.1.2h-.2l-.1-.1v.7h-.3l-.2.2.1-.2.2-.2-.2-.2-.1-.2.2.1.2.1-.1-.2v-.2l.1-.2.3-.3h-.2l-.7.6-.6.6H110v1h-.1l-.3-.1-.1-.2h.2l.1-.2v.2l-.2.2h.2l.1-.2v-.2l-.1-.2-.3.2-.3.3.1.2-.3.2c-.4.3-.3.3.3 0h.4l.1.1-.3.3-.2.2.5-.2s.2 0 .3-.2v-.2l.4-.1h.3l-.1.2h-.2l-.2-.2.1.3.1.3H110.1v.7l-.2.1-.1-.2-.1-.3.2.1.1.1v-.1l-.2-.2-.4.4-.6.5h-.2l.1.1h.1l-.2.3-.1.2.3.1.3.2-.1.2v.2h.2l.3-.5.3-.5h.6l-.3-.2-.2-.1h.8v.2l.2.5v.3h.1l.4-.4.3-.5h.4V180.2l.3.4c.6.8.8.8 1 .3v-.4l.2.1h.4l.2.4v.2l.3-.4.2-.4.1.1.2.1v.3l-.1.4-.3-.1-.2-.1v.3l-.1.3h-.4l.4.3c.3 0 .4.2.4.2 0 .2-.3 0-.4-.1l-.2-.2v.4l-.2-.1-.3-.3.1.2.1.2h-.1l-.2.1.2.3c.1.1.2.2.3.1l.2.2.3.2-.2.2-.1.3-.1.6-.1.4.2.3.2.4h.3s.2 0 .3-.2v-.1l-.1.1-.2.1v-.1l.2-.2h.4l.8.2h.4l.2-.3.4-.2c.2 0 .2.2 0 .3l-.1.1v1.2h-.4v.2l-.1.2h-.2l-.2-.2.3.3.3.2h.2l-.2-.1-.3-.2h.6l.3-.1.2-.2-.2.2-.2.3h.1l.1.1.2-.2.2-.4h-.4v-.4H118l-.1-.1v-.1l.2-.4.4-.4.1-.3h.1v.1l-.2.2H118.7v.3l-.1.4v.1l.2.2.3-.2.3-.2h.7l.2-.2.3-.3h-.9l.3-.3.4-.3v-.4h.2l.2.1v-.1l-.2-.2.2-.2.2-.2-.1-.1-.4.2-.4.3-.2-.2.3-.1.2-.2H120.1l-.4.3-.3.3.3-.1h.2v.2l.1.3-.2-.1-.2-.2-.3.3-.2.3.1.1H119v-.2l-.1-.2h.5v-.2l-.1-.1h-.2l-.2.2.1-.2.1-.1h.3l.2.1v-.2l-.2-.3c-.2-.2-.1-.4.2-.5H120l.4.2.1-.1v-.2l.3.1h.1l.4-.3.4-.4-.4.3-.5.2h-.1l.3-.4.4-.5h.4l-.1.2-.1.2.2-.2.1-.2-.1-.2-.2-.2h-.2v.1-.4l.3.2.3.4v.1h.2l.3-.5.2-.3-.2.2h-.2.1l.1-.3h.7l.1-.1.3-.2h.2v.6h.4l-.1-.3v-.2h.2l.3.1.4-.2.3-.2.2.2.1.3v-.4h.6c.3 0 .8 0 1-.2l.4-.1v.1l.2.2h.2l-.1-.2-.1-.2.3.1.3.1.1-.1v-.2h1l-.3.2-.4.1h.7v.5H129.9v-.4h.6-.4l.2-.3.2-.2h1v-.2l.4-.1h.2l.6.6.6.6v-.1l.1-.2h1.8l.1.2.2.2h1.4l1.4.2.4-.2.5-.1v.1l.2.2h-.4c-.6.1-2.8.2-4 0h-1l-.2-.2h-.7l-.6.2h.7l-.3.1-.4.2V181.9l.2-.1.6-.3h.6l.2.4v.3l-.3-.1h-.5.4l.4.2h.2l.3-.1V182.5h.2l.2-.2.3.2.2.2v.2l-.2.2h-.4l-1.1.1-2.6.5-1.8.3-.3-.1-.2-.1-.3.3-.3.3h-1.6l-.3.3-.2.3-1 .2-.9.1V185l-.9.3a6 6 0 0 1-1 .3h-.3v.1l.3.3h.2v1h-1.2v.3l-.1.2h.5l-.4.3-.4.3-.7.1-.7.1h1.8l.1-.2.2-.2h.9v1.1l-.2.2-.2.2h.2l.2-.2.3.3.2.2.5-.2.5-.2V189l-.3-.1-.3-.1v-.4l.7-.2.7-.3h-.3l-.4-.1v-.8h.8v.8l.6-.3.6-.3h.8v.5h.5l.5-.2.1-.2h.7l.1.2v.1h-.2v.6l.1.5-.2-.3-.4-.5v-.2l-.3.2-.1.1.1.1.2.1v.6h-.3l-.3-.2v.7l-.4.7-.5 1-.1.3h.7l.3-.6c.3-.6.4-.6.7-.3l.3.2.2-.4c.2-.2.3-.5.3-.7v-.2l.7-.5.7-.6.4.1h.7l.2-.2-.1-.2v-.2l1-.1 1.1-.1.3.3.3.3h1l.1.2.2.1h-.2l-.2.2.2.2h-.9v-.2l-.1-.2-.2.2h-.1l.3.5.2.4h.4l.4-.1.5-.3.5-.3.2.1.1.2h.5l.5-.3c.1-.1 1.7-.6 2.5-.7h.8v.2l.1.3v-.6l.4-.1 1.4-.1h1v1h.3l.8.3.6.3h-.2l-.2.1.1.2.1.2.5-.1h.4l.2.2.1.3-.3.4-.4.3h-.5V192.2l-.2.2-.2.1V192.2l-.2.1-.2.2h-.1l-.1-.2v.4h-.5l.1-.2.2-.2-.3.2-.2.1h-1.6v.2h-.2a7 7 0 0 0-.8 0l-.5.2.5-.3.4-.2h-.4l-1 .2-.8.2v.3l-.2.3h.1s.3 0 .5-.2l.4-.2v.7l-.6.3-.7.3h-.6l-.4.5-.4.4-.7.4a58.1 58.1 0 0 0-5.8 3.3l-1.3.8-.2.3-.3.3h.4l.4-.1-.2.3-.2.2h.2l.2-.2v.1l-.2.4-.1.3h-.6.2l.2.3v.2l-.2-.1-.2-.1v.3l-.1.4h.2l.2-.2-.2.3-.3.2h-.6l.1.4.2.8.2.3h-1.4l-.6-.5-.5-.5v-.9l-.6.3-.8.7-.4.3v.3l-.2.2-.4.3-1.4 1.2-1 1-.2-.1v-.8l.2-.3.3-.5v-.2l-.5.5-.5.5H120.4l-.3-.4-.3-.4h-.7l-.3.3-.3.3h-.2v.4l-.2.4v-.1h-.2l-.3.3c-.1.2-.3.3-.4.3h-.2l-.1.4-.2.3-.4.1h-.3l-.6-.2Z" fill="#F3C010"/><path d="m136 260-.4-.2h-.6v.1h-.1a3 3 0 0 0-.4 0l-.3.1-.3-.2a4 4 0 0 0-.7-.3l-.5-.2v.1l-.7.3-.6-.4-.9-.4v.1h-1v-.2h-.2v-.2H129v-.1l-.1-.1h-1.1l-.1-.2-.2-.2-.3-.3-.2-.2h-.3l-.3.1h-.2l-.2-.3-.2-.2h-.2v-.2h-.4l-.2-.2a1 1 0 0 1-.2-.4v-.1h-.4l-.2-.2-.1-.2v-.3h-.5.1l-.2-.1h-.1v-.2c0-.2-.2-.5-.2-.3l-.2-.1-.2-.1v-.2l.1-.1H122.6v-.2h-.2v-.5h-.2l-.2-.1v-.4l-.1-.1h-.2v-.3l-.1-.3-.1-.1h-.2l-.1-.1-.2-.2h-.1l.1-.1.2-.1-.3-.2-.3-.2v-.4h-.2v-.2h-.1l-.2-.1v-.4l-.3-.1-.4-.2h-.5v.2l-.1.1h-1.5l-.3-.1-.3-.1v-.2h-.2v-.5l-.2-.2-.1-.3h-.2l-.2-.2v-.2h-.7l-1 .2h-.3v.1l-.1.2h-.2v.2l-.3.1-.3.1V250.3h-.3l.1.3v.1l-1 .3h-.6l-.3.2-1 .3-.5.1v.7H108.5a9 9 0 0 0-1.8.4l-.4.1v.1l-.3.2-.7.4-.4.2-.4.2-.7.2-.3.2h-.2v.1h-.6v-.2h-.9v.1h-.3l-.2-.2v-.2h-.2l-.6.1h-.6l-.2-.3-.2.2-.1-.1-.2-.1h-.5v-.1H98.1l-.1-.1h-2V253.2l-.2-.2-.1-.3-.1-.3v-.2l.2-.1h-.5.1-.6v.1l-.3.1H94v.2H94l-.4.3h-1l-.3.1-.3.1h-.2c-.4 0-.5-.1-.6-.4a5 5 0 0 0-.6-.8l-.5-.6V251H89.2l-.3-.2v-.4l-.1-.7-.2-.7v-.4l-.2-.3-.3-.5-.2-.2v-.8l.3-.3a27.3 27.3 0 0 1 2.1-2.1l.2-.3.1-.3v-.3l-.1.4-.3.5-1 1-1.2 1h-.1v-2.8l.5-.2.8-.2.1-.1h1.4l-.3-.1H89l-.1-.2h-2.6V242.4l.5-.2.5-.3.4-.3.3-.3-.1-.1-.1-.2.3-.1.3-.2h.4l.3-.2.5-.5.2-.2-.2-.2-.3-.2.7-.4.7-.4.1-.2.5-.5.4-.3c0-.2.8-1 1.7-1.8l.6-.5.6-.5.4-.3v-.5l-.3-.2-.3-.2V233.3h-.1l-.2-.2h-.3l-.9.1-.6.2H92l-.5-.1v.1h-1.2l-.2-.3-.1-.2H89.3l-.2-.3h-1l-.7-.1-.8-.2h-.7v-.1H85.2v-.8l.1-.8.1-.2.2-.2v-1l.2-.9H85.6l.1-.6v-.5h-.2V226h.2l-.2-.1h-.2H85.6l-.3-.2-.3-.1H82.4l-.2-.3a52.6 52.6 0 0 0-.6-1.2l-.2-.3v-.5l-.2-.4v-.5h-.4l.1-.2v-.2l-.1.2-.2.3-.2-.1-.2-.2h-.7l-.3-.2-.2-.2v-.1l.2-.4.1-.3v-.5c.1-.4.3-1 .5-1.1v-.5h.2l-.1-.3-.2-.5v-.1h-.2V217.7l-.3-.2-.2-.2-.1.1-.1-.2c-.1-.3 0-.4.2-.5l.6-.5.5-.3v-.5H80v-.2l-.1-.2.6-.3.7-.3.2-.1v-.3l-.2-.3.2-.1.5-.2 1.5-.6.4-.2v-.4h-.1v-.2l.2-.1-.1-.1h.2v-.1h.5l1-.2.5-.2h.2v-.1a5.7 5.7 0 0 0 .1-.5v-.1l.5-.2.4-.2v-.4l.2-.2.4-.1.4-.2.3-.2v-.5l.2-.1.4-.1h.4l.2-.2.3-.1h.1v-.1l.1-.1H90l.1-.2.1-.3.8-.2h.4l.4-.2.4-.1.3-.2v-.5l.3-.1.2-.1h.8l.7-.1.1-.1h.1-.2l.1-.2.1-.3h1.9v-.3l.1-.1h.3l.4-.1h.3l.4.1h2.6l.8.1h.5l.7-.1h.1v.1H103.1v.1h.5v-.1h.8l1 .1h.9v.1l.1.1.2-.1.2-.1h.3l.6-.2.3-.1h-.1v-.1H108.7l.2.3.1.3.6.4.7.4.3.4.4.4.2.2.4.4.2.2h.2l.2-.2h.3l.9.1h.5l.2.1.3.1v.2h.1l.6-.6.5-.4h.4l-.1-.1.3-.2.6-.3h.1l.1-.2.2-.2h.6v-.2h.6l.2-.2h.3l.8.2h.6l.3-.2.4-.2H121.4h-.1v-.2l.2-.1H121.8v-.2h.8v.2h.4l.3.2.4.2.6.2.4.3h.6l.1.2.1-.1.4-.1H126.8l1.4.1 2.5.3h.6v.1h.6l.1.1v.1h.4v1.4l.1-.3v-.3l.5-.1.9-.1h.4v-.2H135.2l.4.2h.4l.3.4 1 .7.6.5h.2l.6.1h.2v.1H139.2v-.2l.1.1.1.1v-.1l.1-.2h.8v-.1h.2l.8.1.5.1v1.8h-.1l.1.4.2.4.1.7v1.3l-.2.5-.2.2-.2.3h-.1l-.4.7v.1h-.5v.2h-.6v-.2l-.1-.2-.2-.1c-.3-.2-.3-.1-.4 0v.2H138.8v.5h-.1l-.1.1v.6H138.4v.4h.5v.2h.5l.2-.3.2-.3-.1-.2-.2-.1.1-.3v-.2h.7v.3l.1.3h.2l.2.2v.2h.6v.2l-.2.2-.2.1v.2h-.2l-.1.1.1.1h-.1l-.4.3-.3.3.2.1h.1v.2H140l-.2.1.2-.1.1-.1h-.2v.2l.2.1h-.6V218.3h.1l.2-.1v-.5l.2-.2H140.3v-.4H140V217.4h-.5v.2h-.5V218.3h-.5l-.2.2-.1.2-.2.1-.4.1h-.2l.2-.2.1-.1-.2-.1-.4-.2h-.9l-.2-.2h-.1v-.5l.2-.2.5-.4.3-.3.3-.3.3-.3h-.1l-.5.3-.5.4H136.1v.1h-1.8V216.5l.5-.3.4-.2.3-.3.4-.4-.1-.2v-.2l-.3.1-.3.2h-.5l-.7.1h-.9l-.4.2-.5.2h-.8v-.3l.1-.2c-.1 0-.3 0-.5.2l-.4.2H130.3v.2l-.6.2-1 .2h-.3v-.2h.2l.3-.2v-.2l.2-.1.3-.2-.2.2.2-.1.4-.3h.4v-.2l.2-.2.5-.3.3-.3-.2.2-.3.1h-.8l-.4.2-.4.1-.3.1h-.3l-.4.3-.8.5a6.3 6.3 0 0 0-1.6 1l-.5.4h-.6v-.3l-.1-.3v-.2l.1-.1.6-.3.5-.3-.1-.1h.2l.5-.2 1.1-.7h-.1l-.2.1.2-.1c.2-.2.3-.2.2 0l.2-.2v-.1h.2l.7-.4.7-.4h.6v-.5l.2-.1h-.1l-.1-.1h-.3a2 2 0 0 1-.4.2h-.2v-.6h.1l.1-.2h.5v-.1h-.9l-.9.6-.9.6-.5.3-.6.2-.6.3-.5.3h-.6v.4l-.7.4-.7.3v.2h-1v.2a4 4 0 0 1-1.6 1.2h-.1l-1.4.9-1.4.8h.1l.1.1-.3.2-.4.1h-.1V219.4h-.2l-.1.2h-.2v-.1.2l-.4.2-.2.1v-.2l-.1.1a1 1 0 0 1-.4.2v-.6l.6-.5 2.5-1.7 3.7-2.6c.5-.3 1.6-.9 1.9-.9h.4V213.5v.2l.2.2v-.4l.4-.3 1.5-.9 1-.7.3-.3.2-.3h-.2l-.2.1a1 1 0 0 1-.4.2l-.4.2-.7.3-.5.2-.7.4-.8.4-.5.2-2.6 1.4-1 .6v.1h.1-.2l-1 .6-.7.5h.2-.2l-.3.2h-.1l-.3.2-.4.4-.4.3-.2.1h.2l.2-.2-.1.2-.3.2-.2.1.1-.1.2-.2-.2.1-.2.1v.1l.1.1h-.2l-.8.7-.7.6-.7.8-1 1.2-.3.4v.2h.1l.9-.6.7-.5h.5v.2c.2 0 .9.5.9.6l-.2.1h-.2V221.9l-.6.5-.7.4v.2l-.3.2c-.2 0-.3.2-.3.2h-.2l-.1.2-.4.4-.3.3v.1l-.2.3v.2h-.1l-.2.1h.1v-.1l-1 1v.1h-.1c-.1 0-.2 0-.4.5v.2h.1v.1h.7l.4-.4.6-.2.5-.3.8-.6.4-.2.3-.4.2-.3v-.1l.4-.2.5-.2h.2v-.2l-.3.1v-.1h.6v-.1.2l.3-.2c.2 0 .3-.2.3-.2h.8v.4l-.1.1-.1.2-.3.1-.4.1-.1.2-.4.3h-.2.2l.1-.2-.2.2-.3.1h-.2.1l-.3.3-.9.8-.1.2h-.1v.2l.1.1-.1.2-.1.1h.2v.4h.6l-.2-.1h.2l.2-.2v.1l.5-.3.7-.4v-.2H116.2l-.1-.2v-.2h.2-.1c-.2.2 0 .1.5-.2l1-.5.2-.1.1-.2v.1l-.1.1h.2l.8-.5h.2l.2-.1.2-.1.1-.2h.3l.7-.3.8-.3.3-.1h.5l.5-.1v.3l-.1.3-1.2.5v.1h.2l-.4.2-.6.4v.2h.2v.5l-.2.1h-.3.2c0-.1 0 0-.2 0-.4.3-.5.4-.2.5h.3v.2l-.2.3v.4l-.7.4-.5.3h.1l-.1.2-.2.1v-.1l.2-.1-.4.2-.8.7-.5.4.1.1h.1H117.2l-.2.4v.2H116.7l-.1.5-.1.3h.4v.5l-.1.2-.1.2h-.8v-.1h-.2l-.2-.1-.2-.2h-.5l-.3-.1-.4-.1h-.1l.3.2a9.2 9.2 0 0 0 1.9 1.2v.1h.8v-.4l.2-.2.1-.2v-.4h.9v-.2h-.2v-1h.8v.3l-.1.3h.2v.3l.2.2V231h.6l.5.1.2-.1.5-.4.4-.3h-.2l-.2.1h.1l.5-.1h.4v.2l.2.3v.2l-.2-.2V231l-.5.4-.6.3h-.2v-.1H121l.1-.1.2-.1H120.9l-.5.3-.5.3h.2l-.3.2h-.3.2l.2-.2-.3.1-.2.2h-.5.2v.4h-.4v.3l.1.2-.1.1h-.1l.1-.2h-.2l-1.1 1.1-1 .8-.3.3-.2.4v.2l-.2.4-.2.2v.8l-.2.4-.2.3h.1l.1.1v.9H115.7l.2-.2.1-.1h.1l.2-.5.2-.5v-.3l-.2-.4.3-.3.4-.3.1-.1V236l.3-.3 1.3-1 1.2-1 .7-.4.7-.3H121.5V232.6l.4-.3.3-.2.2-.2v-.2h.7-.2l-.2-.1h1.1v-.1h.2v.1-.2h.1c.4 0 .3.2-.3.7a3 3 0 0 0-.5.3l-.3.2-.2.1H123h-.1l-.2.1h-1v.7l-.2.1-.6.4c-.7.5-1.3 1-1.7 1.6l-.4.4-.1-.1.1.1-.4.5-.3.5-.1.3v.3h.4l.3-.2.1-.2.2-.2h.2v-.2h.2v-.2l.5-.5a34.5 34.5 0 0 1 2.2-1.8l.2-.2H122.7l-.1-.2h.1l.1.1h.2l.3-.2h-.1v-.1H123.8v-.1h-.1.3l.3.2h.9-.5v-.2H125l.2-.1h.2l-.1.2H125.6l-.1.2v2.4h-.5.1l.2.3v.1H125h.1v.1l-.3.2-.5.1h.4l-.4.1-.3.1h-.5c-.2-.1-.8-.3-1.3-.3h-.7l-.2.2V237.6h.2c.1.2.3.2.4.2h.2v.1H124.3v.2l-.4.5-.2.3-.3.1-.3.2-.3-.1-.5-.1-.6-.2h-2l-.3.2-.3.2.1.2v.1h.3l1.9.3h.5l.8-.1.8-.1-.1.2h1.9l.2.2h.1v-.2l-.1-.1h.6V240h-.5v.2l.1.2.1.1h.5l-.2-.1h-.2v-.2h.1l.3-.1h.2V240.3h.1l.1.2h-.2l.5.3.5.2.3-.1.2-.1-.2.2h.1l.3-.2v-.1l.3.2.3.1H129V241.3h-.4.2l.1-.2h-.4v.2l-.1-.1-.1-.3v-.1h-.2l-.1.2v.1h-.2l.1.1V241.6c-.2 0-.3.2-.3.3v.2h.4V242.4h1l.1.2h.5V243h.8l.1.2h1l.2.2h1V243.6h.3l.4-.1-.2.1-.1.1h.2v.2h.4l.7.6h.5v.1l.3.3.4.3h.1l.2-.1.1.2.1.2h.8v.4h-.2l.1.1h.4l.3.1h.3l.2.4.2.2h.6l-.1.2.1.1.1.1v.4H139.2v-.1h.7l.1-.1h.6v.2l-.2.1h.7v-.1l-.2-.1H142.6v.4h.3l.1-.1-.1.2-.2.1h.2l.1-.1-.1.2-.1.2h-.1l-.1-.1-.3.2c-.3.3-.4.4-.4 1v.3h.4l.3.2.7-.3.6-.2h.2l.2.1h-.1v-.2l.2.1V249.7h-.2.4v.2h.4v.1l.4.4h.2v.2l-.1.1.3.1.2.1V251.2h.3c.3 0 .4.1.5.3l.1.2.5.2.5.3.5.2.4.2.4.4.4.4H150l.2.3.2.3-.1.2.1.1.2.2h-.1l-.1.1.3.1h.2l.3.5.3.4v.4l-.3.2-.3.1V256.6h.4v.1l-.1.2h.2l.3.1h.2l.2.1c.1.3.5.4 1 .6l.3.1-.1.1h.2l.4.2h.3v.2h-.2v.2H153l-.3.2-.2.1h-.4l-.5.1h-.8v.1h-.2a29.8 29.8 0 0 0-2.9.3l-1.7.1h-1.2l-.1.1-.2.1H143v.1l.2.1h.1l-.4.1h-1.3l-.2-.1-.2.1-.4.2h-.2l-.5-.1-.6-.1-.2.1-.3.2h-.3l-1-.2-.3-.1-.3.1-.3.2h-.4l-.4-.2Z" fill="#305673"/><path d="m106.6 245.6-.4-.1h-.2v-.5h-1.1l-.5-.1-.3-.1-.2-.2v-.2l-.2.1-.1-.3h-.2l.1.2-.1-.1-.2-.2v-.2h-.1l-.1.1-.1-.1-.1-.1V242v.1h-.2v-.2h.2l-.1-.2-.1-.2v-1.8V240H102.3V240.3l-.2-.1c0 .1 0 .2-.2.3l-.2.2-.1-.2-.2.4-.3.3h-.2.1v.2h-.1l-.2-.1.1.2h-.2l-.4-.2-.2-.2v.2h-.1a.9.9 0 0 1-.4-.2v.3l-.2.3V242.3l-.1.5v.2H99v.1H98l-.2-.1-.3-.1V242.6v.1h-.1l-.2-.2-.2-.2-.2-.2v-2l.5-1 .1-.5h.1v-.7h.2v-.5h.2v-.2l-.1-.1v-.1l.2-.1v.1l-.1.2.2-.3.1-.3v-.4c.2 0 .3-.1.3-.8v-.6l-.1-.1-.4.5-.4.5v.1l.1.1H97.5V236.2l-.2-.1v.6l-.2-.2v.8l-.2.4v.7h-.1v-.1 1h-.2v-.2.4h-.1l-.1.1-.1.2h.2l-.1.1-.2.1-.2-.1v.2l.1.2v.3l-.2.3h.1l.1-.2-.1.2-.1.3v-.1h-.1l-.2.2-.2.3v.1c.1.1.2.7 0 .7h-.8l-.2-.1-.2.1v-.2H94v-.2l-.1.1-.2-.2-.3-1.1v-.3l.1-.1.2-.2v-.4l.2-.2v-.2l.2-.1v-.6l.2-.2v-.4l.1-.2.2-.1v-.3l-.1-.2v-.4.2l.1-.3v-.3h.2v-1.3l-.3-.1-.4-.2v.1H94v-.2l-.1.1-.2-.2-.1-.3v-.2c0-.4.1-.8.3-1l.2-.2v-.5H93.2l-.1-.6-.1-.6v-1.1l.2-.1h.1v-.4.1l.2-.4.1-.5c0-.3.2-.7.3-.8h.2l-.1.1v.2-.1l.2-.1v-.3l-.1-.2.2-.5c.2-.6.2-.7 0-.5v.2h-.2l.1.2-.2.3-.1.2V227.3v.2l-.2.3V228l-.1-.2v.6-.2l-.1-.2v.6h-.1V229l-.3.4-.4.8-.3.4h.1l.2-.2-.1.2-.4.4-.3.4h-1v-1.7h.1v-.8.1h.2l-.1-.1v-.2l.2-.1V228.3h.1l.2-.1-.1-.2v-.2l.2-.2.1.1v-.5c.2 0 .2-.1.1 0l.3-.9.5-1 .1-.3v-.7l-.2-.2v.3l.1.2-.1-.1-.1-.2-.3.4-.2.4-.4.3-.4.2h.1v-.1l-.3.2-.5.3-.3.1v.1c-.2-.1-.2-.5-.1-.9l.6-2 .3-.7.2-.6.1-.1.1-.2v-.2l.2-.2v-.4l.1-.2.2-.4h-.1l-.3-.3-.2-.3h-.2l-.2.6-.2.7h-.2.2v.2H90.6v-.8l.2-.1-.2-.6v-1.2l.2-.1-.2-.4-.1-.4V217.9h-.1l-.3-.2H90l.1-.1.2-.1h-.4l-.2.3-.3.3h.2v-.1.2h-.3V217.9H89V218.2l-.1.1v.2-.1h.2l-.3.3-.2.2.1-.2.1-.2v-.2l-.2.2v.4l-.3.2-.2.1h.2l.2-.1-.2.2-.1.3-.1.2-.2.1v1h-.5v-.7h.2l.2-.2v-.4l-.1-.3v.5h-.1v-.4l-.1-.1v-.1V219.5l-.2.3-.2.4h-.5v-.6h.1l.1.1v-.3l.1-.3h.1l.3-.4.2-.2h-.2l-.1.1V218.3h.2l.2.1.1-.2v-.5l.2-.1-.1.1.1.2.1.2.1-.1v-.1l-.2-.4v-.3l.2-.1v-.2l-.1-.1.1.2.2.1v-.4l-.1-.4v.2c.2.3.3.2.1-.2v-.2l.2-.2.3-.2H88.5v-.3l.1-.3h-.1l-.1.1-.1-.2-.2-.2.2.1h.2l-.2-.2c-.2-.4-.4-.5-.2-.2l.1.2H87.9v-.5.2l-.2-.2-.1-.1v.2l.1.2h-.1l-.2-.2.1-.2-.1-.1v.2H87l.1-.3h.1-.2v.2l-.2-.2-.2-.3h-.6c-.7-.2-1-.2-1 0H85l.2-.1v.2h-.1l-.5.2h-.4.2l.2-.2H84l-.4.1h.1l.1-.2h-1l-1.1-.2h-.4.1l.1.2h-.4l-.5.2v-.2c-.1 0-.8-.6-1-.6l.2.2.1.2-.2-.1c-.2 0-.4-.2-.5-.3l-.3-.1H79.3v-.2H79v-.5h.1v.2h.1v-.2l.1.2.2.1v-.4l.2.1.2.2h3l.3-.2h.5l1.3.2h1l-.7-.1c-.8-.3-.8-.4 0-.2l.6.2.1.2.2.2.3.1h.3l.1-.2h.1v.4l.7.2.5.3v.2l.1.1v-.2l.4.4.3.5h.2l.1-.2v-.6l.1.2v.1l.3-.2.2-.3v-.1l.2-.5.5-1 .3-.6v-.1l.2-.4v-.3h.1l.1.1.3-.4.3-.6.1-.1h.1l.2-.3c0-.2.5-1 1-1.6l.8-1.2H94.4l.1-.3.4-.3h.1v-.3l.2-.6.1-.1V204.2l.2-.7v-.3l.2-.4c.1-.3.2-.5.1-.6l.2-.7.3-.7.2-.1.2-.2v-.2l.1-.3.2-.1.3-.2h.1l.2.1v1.3c-.2.2-.2.4-.2.5v.2l-.5 1-.3 1v.2l.1.3v.3l-.2 1.8v.7l.2-.3v-.5l.2-.3.2-.6v-.6h.1l.1-.5v-.5h.2v-.4l.3-.4.2-.4c0-.1 0-.4.2-.6l.3-.7v-.3h.1v.1l.2-.2v-.3H99.2v.2l.1.6V202l-.2.5c0 .3-.2.6-.3.7l-.3.9-.2.6v1.5l.1.2v.1h-.2v.2l-.1.5v.3l-.2.3-.2.4v1.1l-.1.2.1-.1v.1c0 .3 0 .3.3 0l.3-.1h.8l.2-.6.3-.6v-.2l-.1-.3v.6l-.2.2v.2l-.2-.2-.2-.1V208.7v-.1c-.1-.1-.2-.5-.2-1.6v-1.3l.1.2.2.1.1-.4.1-.3h.2v.6h.2V206.2h.2l.1-.1v.7l-.1 1-.1.4.1-.2.1-.1H100.1l.2-.3.3-.3.1-.1v-.3l-.1-.2.2-.2.3-.1v-.4h.1l.1-.2v.2l-.1.1h.2v-.7l.3-.3 1.2-1.4.2-.2v-.1.3l.1.5v1h1.2v.6h.1v-.5l.1-.1h.8l.2-.5.2-.4-.1.1v-.1l.2-.4.2-.3V204l.4-.5.4-.6 1-.8.3-.6v-.1H108.5v-.4l.2-.3h.1l.1.2v-.2l.2-.3.2-.3.3-.3.3-.2.1.1h.2l.2-.2h.1l.2.1-.1.2-.1.2v.7l-.2.2V201h-.2l-.7 1.1-.8 1.5v.2H108.2l-.2.4-.4.3-.3.5-.2.5.1.2v.2l-.1.1h.2l.4-.5.4-.5v-.2l.1-.1.2-.2h.3v-.4l.2-.1h.2v-.2l.2-.4.6-.5.3-.4.1.2.2.2.1-.1.2-.1v1l-.2.4-.2.4h-.1v-.1l-.3.3-.1.4v.6l-.3.1c-.1.3-.7.9-.7.9l-.3.3-.3.3v.3l-.2.6-.2.4-.1.3v.5l.2.1.1.1.2-.3.2-.3.1.1h.2-.1V208.8l.2-.1v.1l.2.1v1l.2.4.2-.1v.4-.2l.1-.2.2.2.2.2v.5h.1l.1-.1v.4h.1l.2-.3.2-.4h-.1l-.1-.2v-.4h.4v-.1l.3-.4.3-.2.2.2.1-.3.1-.3v-.6l-.2-.6V206.6l.2-.4.2-.4h.1c.1-.2.3-.2.3 0V206h.1l.2-.2.3.1.3.2.5.5.5.4v.9h-.3l-.3-.1.2.1v.1h-.2c-.4-.1-.7-.2-.9-.4h-.1v.8h.1c.2-.2.7-.3.7-.2l-.1.4-.2.2V209.2l-.1.3-.3.4v.2h-.4l.1.1.1.1-.2.4-.1.5.2.2.2.4h-.2V213.5l.2-.2V212.7h.2l.2-.1v-.4l.1-.8v-.3l.2-.3.1-.5v-.2h.3l.1-.1.3.3.3.8.1.4H115.1v.4h.2l.2.2v.6l-.2.3h.1l.1-.1v.1l.1.2.2-.1v-1.3l.1-.8.2-.4.1-.4h.1l.1.1V210.6h.4v-.1l.2-.1v.3l.2.6.1.4v-.2l.2-.2v1.1l-.1-.1h-.1V213.5l-.2-.1v.8h-.2v.2l.1.1v.4-.2l.2-.2h.2l.1.1.1.6.2.7v.1h-.4V216.3H117.2l.1-.2.1-.1h-.2l-.1.3v.2h-.1s-.2 0-.2-.2l-.1-.1v-.5l.1-.2.1-.1.1-.1V215l-.3.5c-.2.5-.2.7-.1 1v.1l-.1.2v-.1h-.2v.2l.1-.2v.4h-.7v.1l-.3.8-.2.6v.4l-1 2.7-.3.6-.3.9a14.5 14.5 0 0 1-1 2.9v.1l.1-.1.2-.4v-.2h.2l.2-.3.2-.2h.3l.3.1.1-.2.1-.2H114.5l.2-.3.3-.3.1-.1v-.2l.4-1.5.4-1.2v-.3a26.4 26.4 0 0 0 .6-2.5l.2-.5.3-.4.3-.3h.6v-1l.1.1v-.2h.3l.3.1v.2l.1.1v2.2h-.2v.6a8.2 8.2 0 0 1-.6 2.6l-.3 1.2c-.4 1.2-.7 3.3-.8 4.9v.7h-.4v.3l-.2.3h-.4l-.5-.1-.3.5-.4.5h-.6v.4l-.2.7v.2l-.2.1-.1.1h-.1v-.2l-.2.4-.2.3.1.1v.1h-.1v.4H112.7l-.1.1-.1.5s0 .3-.2.4l-.1.2v-.2H112l-.1.4-.2.5v.1l-.2.2v-.2l-.2-.2v.2l.1.2-.1.2-.2.2H110.7v.5H110.4l.1.1-.2.2h-.2v.2l-.1.1-.2.2.1.2-.2.2-.1.2v.2l-.3.3-.5.8-.2.4.3-.3-.1.3v.2l.2-.1V239.4l-.2.2-.1.3.3-.3.4-.4v-.1c0-.1 0-.3.2-.5l.1-.5v-.2h.2l.2-.2h.1l.1-.2v.1-.2l.3-.2.5-.6.3-.4h.1V236.5h.2v-.7l.3-.3.6-.7.3-.4.1-.4.2-.4.2-.2.2-.2v-.4l.3-.5.4-.6c.1-.3.8-1.1.9-1.1v-.2h.1v.2-.2l.2-.2v.5h-.2v.1h.2l.1-.3.3-.6v-.3h.6v.4l.1-.1.1-.1v.5l-.1-.1v.7l.1-.4c0-.2.2-.3.2-.3v.4-.2l.2-.3v-.6l.1-.6.4-1.3.6-1.6.2-.3v-1H118.7v6.6l-.2.5-.3.6h-.2a1 1 0 0 0-.3.3v.2l.1.1v.3l-.2.3v-.1h-.1v.4l-.3.6-.3.7v.1h-.2V235.7l-.2.2H116.2v.3l-.5.7-.3.6-.3.7-1 2-.2.2H113.6v.2l-.4.3-.4.3-.5.5-.3.6v-.1h-.1l-.3.3-.4.4s-.2 0-.2.2l-.1.2-.2-.1h-.2l-.1.2-.1.3h-.2s-.1 0 0 .2l-.2.3v.3l-.3.1-.1.2.1-.3.2-.3-.3.3-.2.4h-.7V244.4l-.4.2-.3.1v.2l-.3.2-.5.2-.3.2h-.2Z" fill="#A73A24"/></svg>