<svg xmlns="http://www.w3.org/2000/svg" width="200" height="324" viewBox="0 0 200 324"><path fill="#a73a24" d="m125.6 13.9 1.9 2.6 1.4 2.2 1 .5c.7.3 1.3.7 1.5 1 0 .4.6 1 1.1 1.7l1 1 1 .3 1.2.2-.6.6-.6.5.4.1h.4l-.3.7-.3.7.4.1 1.5.5 1 .4v-1.2l1 .2.9.2-.3 1.3-.2 1.4h.3c.2 0 .4-.2.5-.6l.3-1.3c0-.4.4-1 .7-1.4s.6-1.1.7-1.5l.1-.8h.6c.3 0 1.1.6 1.8 1.2.7.7 1.5 1.2 1.7 1.3l2.5.7 2 .7.5-1.3.5-1.8c0-.2.6-1 1.2-1.6l1.2-1.4.8 1.6c1.5 2.8 3.5 5.5 4.3 5.6l.5.1 1.3 2.3 1.2 2.3 1.9.8 1.8.9-.4.4-.5.4 1 1.4 1 1.5 1.1.2 1.2.2-.1 1.6-.1 1.6.4.4.3.4.2-1 .2-1 .4.1 1.1 1.3.8 1h-1l.4.8.3.7-.7-.1-.8-.1.5 1.2.5 1.1 1.3.5c.7.2 1.5.7 1.7 1l.5.6-.3.5-.3.6.5.5c.3.3 1 .7 1.7 1l1.2.4 1.3 2.3 2.2 3.7.8 1.3-.2 1-.2 1 .7.6.7.6v.6c-.1.3 0 .6.2.6.4.1.7 1.6.7 3.1V68l1.6.3 1.6.3-.2 1-.2 1h.3l.3.1-.3 1.7-.3 1.7.8.2.7.1.2-.8.1-.8.4 1.4.4 1.3.2-.7.1-.8h.5l.5.1.1-1 .2-1 .6-.4c.4-.2.8-.6 1-1l.4-.7-.1.8-.2.9 1 .2.8.1.3-.7.2-.7.3 3.3.4 3.3.3-.4.3-.3-.1.9-.2.9.5-1 .5-1 .1 1.1.2 1.1.2-1 .1-1 .2.8.2.8 2.5-2.4 3-3.4.5-1 1.7.3 1.7.2.4 1.6c.3.8.4 2 .3 2.3l-2.7 34.4-2.5 13.6.2 1.2.3 1.2.6-.2.6-.2.8 1.2c.4.7.7 1.6.7 2-.1.3 0 1 .1 1.7l.3 1-.3 3-1.5 8.7-1.1 5.7-.4.7-.4.7-1 3.5-.8 3.5h.4l.2.1-.5 3.5-1.2 6.5-.5 2.8h.8c.5 0 .9-.2 1-.3l1.2-2.7 1-2.4.3.2.3.3 1.4-1.3 1.3-1.4.6 1.3a8 8 0 0 1 .9 4.1l-.2 1.1h.3c.1 0 .4-.2.6-.5.1-.4.4-.7.5-.6h.3l-.4 2.4-.4 2.4v1.4c.1.8-.2 4.7-.6 8.7l-.7 7.4.2.4.2.5-.8 3.6-.8 3.6.1.8c0 .4 0 1.9-.3 3.2l-.9 7.2c-.7 5.4-1 7-3.5 17.6l-1.8 7.4-1 7c-.5 4-1 7.2-1.2 7.3-.2.3-1.2 5.2-4.1 19.6l-3 14.2-1 4.3c-1.4 5.4-2.8 10.8-4 16.3l-.9 3.2h-.4l-1 4-1 4h-.3l-.3-.1-.3 1.7-.3 1.7-1.5 1a13 13 0 0 0-2 2.1l-.7.9-.8-1.3a6 6 0 0 1-1-2l-.1-.8-.1.5c0 .4-.4-.4-.7-1.6l-.6-2.2-.9.5-1 .5v-.4l-.1-.4h.3c.1 0-.2-.5-.8-1.1l-1-1.2-1.3 1.6-1.1 1.6-.3-.9-.3-.9-.5 1.5a14 14 0 0 1-1 2.4l-.5.8-.4-1.3-.3-1.2-.3 1-.1.9v-3.3l-.4.4-.4.3-.2-2.2-.2-2.1-.4 1.1-.4 1.2.1-2.4.2-2.5-.3 1.5-.4 1.6h-.2l-.3-.1v-1.6l.2-1.4-.7.8-.6.8-.2-.5v-.5l-.6.7-.6.6-.3 1.7-.3 1.7-.5-.9-.5-1-.7 1.3-.8 1.7v.5l-.3-.5-.2-.4-.2.7-.1.7-.9-.2c-.8-.1-1.5-1-1.3-1.9l.3-1.5.2-1-.4.4-.4.3.2-1 .2-1.2-.6.3a6 6 0 0 1-1.6.7c-.5 0-1 .3-1.2.6l-.3.6-1.2-.2-1.1-.2-.9-2.3-.8-2.3-.5.3-.4.2-.7-.9c-.3-.4-.6-1.1-.5-1.4a2 2 0 0 0-.3-1l-.4-.5-1 2.4-.9 2.4-.2-.8-.2-.8-1 1.1-1.2 1.2-.2-1-.2-1.1-.5-.1-.5-.1.5-.5.5-.5-1.6-1.2-1.5-1.2-.2-1-.2-1h.3c.1 0 0-.5-.3-1.2s-.7-1.3-.8-1.3v-5.6l-.4 1-.4.8-.4-1.8-.3-1.7-.4.7-.4.9-.4-.6-.5-.5-.4 2.5-.5 2.3-1 2.5c-1.2 3-1.6 3.4-3 4.5l-1 .8-.4 1.3c-.4 1.3-.9 1.5-1 .3v-.7l-.4.3-.4.4.1-.6.1-.6-.5-.2c-.3 0-.7-.2-.8-.3-.2-.1-.5-.3-.7-.2h-.4l-.2 1.1-.3 1.2-1.5 2-1.6 2v-1.4l-.6 1c-1 1.4-1 1.3-2.4-3-.2-.3-.4-.7-.6-.7l-.3-.1v-2c0-1-.3-2.5-.5-3.2l-.4-1.4.3-.9.2-.8-.3-1-.3-.8.1-1 .2-1-.4.3-.3.4-.2-1.9-.2-1.8-.8.3c-.4.2-.8.6-1 1l-.2.6-.5-2.2c-.3-1.3-.6-2.3-.8-2.4h-.3l.1-1 .2-1-.3-.1h-.3v-7.3l-.4.8-.5 1 .2-1.4.7-3.7.5-2.4-.6 1.3-.5 1.3v-1l.1-3.5.5-5.7.4-3.1-.7 1c-.7 1-2.3 4.7-2.4 5.6 0 .2-.6 1.2-1.4 2.4l-1.3 2-.5 1.7c-.3 1-.7 1.8-1 2l-.3.4-.5 1.8-.4 1.7-.6.9-3.2 5.5-1 1.7-.7.2-.9.1-.2-.8-.2-.8-.3.8c-.2.5-.5.8-.6.8h-.3l.2-1 .2-1H89l.3-1 .3-1.1h-1.1l-1.5 2.8-2.3 4-.8 1.1-.2-.4-.3-.5-.1 1-.2 1.1h-.7l-.6-.2.3-1.4.2-1.3-.4-.1h-.5l.1-2.3v-2.2l-.2.4-.3.4-.3-1.7-.3-1.7.4-1 .4-1.1-.4-.1h-.3l.3-.6.3-.7-.2-.3-.2-.4.8-4 .7-4.2-.3.3-.3.3.2-.8.1-.7-.5.4-.4.4.4-1.1.4-1.1-.4.3-.4.4-.3-.9-.2-.8-.5 1.3-.4 1.4-1.1-1.3a8.8 8.8 0 0 0-3.7-2.7l-1.1-.3-.5-1.3-.6-1.2-.7-.2-.7-.1.8-3.1.8-3-.3-.7-.3-.6.7-2.7.8-2.8h.3l.2.1.7-4 .7-4 .3-.6c.3-.5.4-.8.3-.9l-.6-.4-.5-.3-.2 1.3-.2 1.3h-.3l-.2-.1-1 2.4c-.4 1.4-1.2 3.2-1.7 3.8l-.9 1.4-.1 1.3-.8 2.9-.6 1.6.2.5.2.5-.4.4-.5.4-.2 1.3-.2 1.3-.9 1.2-.8 1.2-1 .3-1.1.3-.5 1c-.2.7-.6 1.5-1 2l-.5.8v.6l.1.6-1 .2-1 .2-.3-.4v-1.5l.2-1-.4.4-.4.3.1-.7.2-.7h.3l.4.1-.6-1-.6-1 .2-1.9.3-1.8h-.3c-.2 0-.4.2-.4.6l-.2.7-.2-.5-.2-.4-.4 1.5-.3 2-.1.6h-.5l-.4-.2-.2 1-.2 1H56l-.5 1.6-.5 1.7h-.5l-.4-.2-.4 1-.4 1-.6-.1-.6-.1.3-1.6.2-1.5-.3 1.1-.4 1.2h-.6l-.6-.2.3-1.7.3-1.7-.3-1.5-.4-1.4.5-3 .6-3-.4-.5-.4-.4-.1.7a23 23 0 0 1-2.7 4.9l-.4 1.2-.2 1-.4-.2c-.2 0-.5-.5-.6-1l-.2-1-1-.2-1.1-.1-.4-1-.3-1 .3-1.8.3-1.8-.6 1.2-.8 1.3.2-.6v-.6l-.8 1.2-1.4 2.7-.7 1.5-.2-.4-.2-.4-.6 1.5-.6 1.5-.9-.3-1-.4-.3-.2.4-2 .4-1.9-.4-.4-.3-.4.2-3.3v-7.6l2.3-12.7 3.6-19.3 1.5-8 .2-1.1-.6-.1-.6-.2-.5 1.1-.5 1.1-.4-1.7-.2-2.7.2-.9-.5.4c-.2.3-1 .4-1.8.3l-1.5-.1-.2-.8-.2-1 .4-3.1.3-3.3-.2-.4v-1.4l-.1-3.7-.3-2.7.2-2 .4-3v-.8h-.2l-.4-.1-.1.9-.2.9-.8.8-.8.9-.6 3-.8 4.2-.2 1.3-.5-.1H33l-.2.9-.2 1-.6.3-.7.3-.5 1.9-1.8 5.1-1.2 3.1-1 .6-.8.6-.4-2-.5-2.1.2-1 .2-1-.4-.1h-.3l.2-1.1.2-1H25l-.3-.1-1.6 3.2c-1 1.7-1.7 3.2-1.9 3.1 0 0-.5.7-.8 1.6l-.7 1.7-.5-.1-.5-.1-.1 1-.2 1h-.7l-.6-.2.3-1.2v-2.8l-.2-1.5.5-5c.4-2.8.6-5.8.6-6.6L18 194l.5-1.7.5-1.6-.3-.4-.3-.4.6-2.7 2-9 3.3-16.4a1259 1259 0 0 1 5.7-29c1-4.5 2.6-9 4.8-13l.6-1.8 1-1.3a6 6 0 0 0 1.2-2c0-.5.7-1.6 1.4-2.7l1.3-1.8-.1.8-.2.7.8-.6.7-.6.5-1.4 1.2-2.7.7-1v.7l.2.8.5-1.6.5-1.8.7-.3.7-.2.1-.8.2-.7.1.4.1.5.6-.6.5-.7-.1.7-.1.8h.5l.5.2.8-1.4.9-1.3.2-1.3.2-1.2h.6l.6.2.3-1.7.3-1.7 1.4-1.7 1.3-1.7.4-2.6.4-2.6 1-1a17 17 0 0 0 2.1-2.7l1.2-1.7.2-2.2c0-1.3.3-2.8.5-3.5l.3-1.1h.3c.2 0 1-.5 1.7-1.3L65 71l.4-2.5.3-2.5 1-1c.4-.6 1.4-1.4 2-2l1.3-.9.6-2.3 1-3.1.4-.8 1-.2a4 4 0 0 0 1.8-1l.7-.8.5-2 .4-2 .5-.7.5-.7 1.3-.3L80 48l.7-1.9.7-1.8 1.4-.2 1.5-.2.2-1a6 6 0 0 1 .7-1.8l.6-.8 1-.1c.5 0 1-.3 1.2-.5 0-.2.8-.5 1.6-.6l1.4-.2 2.5-1.7 2.5-1.7 1 .3.8.3.9-1.3.8-1.3.5-2.1.5-2.2.7-.5.7-.6h1.3c1.6.2 4.5-.6 5-1.4l.5-.6 1.4.3 1.4.2 1.5-1.5 1.6-1.6v.6c.1.4.4.8.7 1l.5.3 1-.6 1-.6.2-.7v-.7l1.2-1 1.1-1 1.1-2.2 2.1-3.9 1-1.6h.4c.2.1.5.4.7.8Z"/><path fill="#f3c010" d="m65.3 193.4.7-.7.5-1.9.6-1.8h.8l.7 1.6.7 1.6.6.2.6.2.8-1 .8-.8.3-1.5.7-3 .5-1.4 1 .2c.6.2 1.2.5 1.4.8l.3.5 1.5-.9c.8-.5 1.5-.7 1.6-.6l1 2c1 2.6 2.2 4.9 2.4 4.9l.8-.6.6-.6.3-1.5-.4-2.8c-.4-.7-.8-2-1-2.8l-.3-1.6.3-.2.2-.3L85 183q1 1 3.3 4.3l1 2.5 1 2.5h.8l1.5-.3.8-.3V189l.7-.3.8-.3c.1 0 .6 1.2 1 2.6l.8 2.6q6.1-6.5 6.1-6.2c0 .6 1.6 3.7 2.3 4.4.4.4 1 .8 1.5 1l.8.2v-1.9l1.4-.4 1.3-.5-.1-1.5-.7-3.5 3.4 2.5 1.2 2.5c.6 1.3 1.2 2.4 1.3 2.3.4-.3 3.5-12.3 3.5-13.3v-1l-.9-.5-1-.5h-3.2l-3.7-1.2-3.7-1c-.1.1.1 1 .5 2l-.8 1.1-1.6 1.1 1.6.3.3 1-1.5-.2-.5-.3-.3.5-.4.6.7-.4.6-.4-.3.5-.3.5-2-.4-13-9.7c-4-2.7-7.2-5-7.2-5.1 0-.3.3 0 7.4 4.6q3.4 2.3-.8-2.6l-6.4-2.6L81 167l-1.4 1.5.7-1.2c.5-.7.8-1.4.8-1.5s-1.7-1.3-3.8-2.6l-3.8-2.5-.8.4c-.4.3-.8.8-.9 1.2v.7l8.9 7.6c4.9 4.2 8.9 7.8 8.9 7.9 0 .3.7.8-10.1-8.3l-12.3-11-3.9-3.7.6-.4.6-.5-.8.3-.8.3-.6-.7-1.9-1.7-1.3-1 .2 1.1.2 1-.7 1.3c-.4.8-.8 1.4-1 1.4 0 0 .1-.6.5-1.3l.7-1.3-5-2-5-1.9-.6.5-.6.5v.9c0 1.8 3.2 6.6 4.5 6.8.8.1 3.5 2.1 3.5 2.6v.3H57l.3.8c.4 1 .4 1.1-.4 1.1h-.6l-3.6-2.8-3.6-2.8v-.9h-.5c-.5 0-2.7-1.7-5.2-4-.5-.5-1-1-1.6-1.2-.2 0-1-.6-2-1.5l-1.4-1.4h-1.8l-1.8-.1-2.3-1.3-2.2-1.4-.8.6-.7.6.3 2.7c.5 5 .9 7.2 1.3 8 .8 1.5 2 2.7 2.6 2.7s1.8.9 3.5 2.5l1 .8c.2 0 .9.5 1.6 1.2.7.6 1.5 1.1 1.8 1.1h.6l.6 1.2.6 1.2.9.2.8.3.7 1.4.8 1.3H47l2 1.8 5.8 5.3.7-.6c.8-.6.8-.7 1.8 2.1l.8 2.2 1 .5.8.5v1.2l5.5-2.2 5.5-2.3 3.8-1 3.8-1 4.8-.2 4.8-.3 1.9 1.9-5.8.2-5.7.3-3.4 1a128 128 0 0 0-8.4 2.9l-5 2-.2.6-.3.6 1.2 3.1 1 3 .6.3.5.2.8-.8Zm123-30.7-.7-.8-.6-1.8-.6-1.9h-.8l-.7 1.6-.7 1.6-.5.2-.6.2-.8-.9-.8-1-.3-1.4-.8-3-.4-1.4-1 .3c-.6.1-1.2.4-1.4.7l-.4.5-1.4-.8c-.8-.5-1.6-.8-1.6-.7l-1 2c-1.1 2.7-2.3 5-2.5 5l-.7-.7-.6-.6-.3-1.4-.3-1.5.6-1.4c.4-.7.9-2 1-2.8l.3-1.6-.2-.2-.3-.3-1.6 1.7c-.9.9-1.9 2-2.2 2.6l-.6 1.1.6.4.7.5-.9-.2-.8-.1-1 2.5-1 2.4h-.8a6 6 0 0 1-1.6-.3l-.7-.3v-2.6l-.8-.3-.8-.3-1 2.6-.8 2.6-.6-.5-.6-.4-.2.3-.4.3v-.8a6 6 0 0 0-.7-2.2l-.7-1.4.4-1.6.5-1.6-.9-.3-.9-.3-1 1c-.5.5-.9 1.1-.9 1.3 0 .6-1.7 3.7-2.4 4.4l-1.4 1-.9.3v-1.9l-1.4-.5-1.3-.4.2-1.5c0-.9.3-2 .4-2.6l.2-1h-.4c-.3 0-1.1.5-1.8 1.3L141 157l-1.2 2.5c-.6 1.4-1.2 2.4-1.3 2.3-.4-.3-3.5-12.2-3.5-13.2v-1.1l1-.5.9-.5h3.3l3.6-1.2 3.8-1c0 .2-.2 1.1-.6 2.1l-.8 2 .2 1 .2 1 .6-1.4.6-1.5.5.3.5.3-.3-.6-.4-.5.5-.8.5-.9v.9l.7-.9c.9-1.1.9-1.4.2-1.7l-.6-.2h.8l.8.2.3-.4c.2-.4 3.2-1.8 3.7-1.8.2 0 1.6 3.2 1.6 3.5l-1.7 1.2c-.8.5-1.5 1.1-1.4 1.2.2.2 1-.2 1.7-.8l1.5-1 .5.6c.2.4.3.9.2 1.1l-.2.5h-5v.6l.2.5-.7-.2-.7-.3-1.6.3-1.6.3-.2.9-.3 1h1.1l-.5.3-1.4 1.5-.9 1.2 1.7-1.6 1.8-1.6-.3-.4-.1-.4.4-.2.4-.3.4.5.3.6-.6-.4-.6-.3.3.4.3.5 2-.4c1-.2 2.9-.4 4-.4h1.9l.7-1 .5-.5-.2.6 1.2 2.2 1.3 2.4 1.4 1.3 1.4 1.3-1.7-2.3c-1-1.2-2-2.8-2.4-3.5l-.6-1.3 1.6.2 1.6.2-.8 1-.9 1 1.3-1 1.3-1.2-.1-.5-.1-.5.6.1h.6l-.3-.4-.3-.4h-5.4l-.5-1.1-.5-1.1 7.2-4.8 7.3-5c0-.3-.3-.2-7.4 4.6-2.2 1.5-4.5 3-6.8 4.2l-.5.1-.6-1.5-.7-1.5 1.5-.7 7.9-3.3 6.3-2.6 1.4 1.5 1.4 1.6-.8-1.3c-.5-.7-.8-1.4-.8-1.5 0 0 1.7-1.3 3.9-2.6l3.8-2.5.7.5c.4.3.8.8.9 1.1l.1.7-9 7.6c-4.8 4.2-8.9 7.8-8.9 8s-.6.8 10.1-8.4c4.7-4 10.2-8.9 12.4-11l3.8-3.7-.5-.4-.6-.4.8.2.8.3.5-.7c.4-.4 1.2-1.1 2-1.6l1.2-1-.2 1-.2 1 .8 1.4c.3.7.8 1.3.9 1.3 0 0-.1-.6-.5-1.3l-.7-1.3 5-2 5-1.9.6.6.6.4v1c0 1.7-3.1 6.5-4.4 6.7-.8.1-3.5 2.1-3.5 2.6v.4h-1.4l-.2.7c-.4 1-.4 1.2.3 1.2h.6l3.7-2.9 3.5-2.8v-.9h.5c.6 0 2.8-1.7 5.2-4 .7-.6 1.4-1.1 1.6-1.1s1.1-.7 2-1.5l1.5-1.5h3.6l2.2-1.4 2.3-1.3.7.6.7.6-.3 2.6a31 31 0 0 1-1.3 8c-.7 1.5-2 2.7-2.6 2.7s-1.7.9-3.5 2.5l-1 .8c-.2 0-.8.5-1.5 1.2-.7.6-1.5 1.2-1.9 1.2h-.5l-.6 1.1-.6 1.2-1 .3-.8.2-.7 1.4-.7 1.4h-1.2a138 138 0 0 1-5.8 5.3l-2 1.8-.7-.6c-.8-.7-.7-.8-1.7 2l-.9 2.2-.9.5-.9.5v1.3l-5.5-2.3-5.5-2.3-3.8-1-3.7-1-4.9-.2-4.7-.3-.9.8-.9.8-.4-.4-.3-.3.3.5.2.5 5.8.3 5.8.2 3.4 1c1.8.5 5.6 1.9 8.4 3l5 1.8.2.7.2.6-1.1 3.1-1 3.1-.6.2-.6.2-.7-.7Z"/><path fill="#fff" d="m53.7 258.1-.9-2.1-.2-31.3-.3-31.4h-8.5l-1.5-1.6-1.6-1.5v-9.6l.9-2.8.8-3 2.4-1.4c3.2-2 4.5-2.3 2.6-.8l-1.5 1.2h.7c.5 0 2.5-.5 4.5-1.2l3.6-1.3.5-2.8 3-13.9 2.7-11 3.6-10.8a526 526 0 0 1 8.5-22.9l4.7-12 6.8-13.7 7-13.6 6-9.3c6.3-10 13.7-19.1 22-27.5l6-6 5-3.4 5.1-3.3 4.2-1.2 4.2-1.2 7.3.3 7.3.2 2.4 2.3 2.5 2.4 2 3.6c1 2 2.3 5.8 3 8.2l1.1 4.5.9 13.3.9 13.2-.5 11.3c-.5 13-2 25.8-4.8 38.4l-2.7 14 11.9.1 12-.2-9 .7-12.3 1.2-3.4.4v4.7l3.4-.5a22 22 0 0 0 4-1l.7-.4 18.8.2 18.8.1 3 .8 2.7.7 2.4 2.6 2.3 2.7.6 3 .4 3-.8 2.2-.7 2-3.2 1.6c-1.7.9-5.6 2.3-8.8 3.1l-5.7 1.6-7 .8c-3.9.4-13.5 1-21.2 1.3l-14.2.4-.9 4.4c-2 10.2-7.8 64.1-8 73.5v4.1l-.7-2-.9-1.9.5-7 1.2-13.2 2-19.1c1-12 3.8-33.2 4.8-37.2l.4-1.8H132l-2.1-1.1-2.3-1.1-.5-1.3c-.2-.7-.4-2.8-.4-4.7v-3.5l1.1-2.2 1.1-2.3 3.4-2.8 3.3-2.8h-12l-4.5 1.6c-1.5.6-3 1-4.7 1.2a17 17 0 0 1 4.4-2.3l4.6-2H139l4.1-2 4.3-1.8 7-1.8a91 91 0 0 0 7.2-1.7c.4-.4 4.8-23.7 6.2-32.5l1.4-9V68.8L169 48l-.9-5.9-1-6-1.6-4.4-1.6-4.5-3.4-3.5-3.4-3.5-8.4.3-8.5.3L136 23c-17 8.8-37.5 34.8-52.9 67.3a353.6 353.6 0 0 0-26.3 77.9l-.5 2.5 1.4-.6c2-1 13.6-4 19.7-4.9l5.1-.8h10.6l10.5.1 1 1 1.1 1 .7 3.4.8 3.4-.9 2.5-.8 2.5-2.8 2.1a58.4 58.4 0 0 1-8.7 5l-6 3.1-5.9 1.6c-6.6 1.8-17 3.2-23.5 3.2H54l-.5 9.5-.6 9.6.4 21.4.3 21.4 1 2.6c1 3 .4 3.2-1 .3ZM69.2 191a95 95 0 0 0 10.2-1.7l3.1-1-4-.5-4.1-.5-2.7-1.6c-3.3-2-8.6-7.7-10.3-11-2-4-1-3.5 1.8.7l2.5 3.7 4.1 3.2 4.2 3.2 4.2 1 4.2.8 1-1.3.9-1.4.5-5.6.6-5.7-.6-3.3-.5-3.2-1-.5-1.1-.3-8.6 1.6-8.7 1.7-4.3 1.6-4.3 1.7-.4 1.6c-.5 2.7-2 13.7-2 15.7v2h4.2c2.2 0 7.3-.5 11.1-.9ZM189 158.7l11-1.1 6.1-1.7c3.4-1 7.2-2.3 8.4-2.9l2.2-1 .9-2 .8-1.7-.5-2.7-.5-2.6-2.8-2.8-2.7-2.6-18.4-.3-18.3-.2v7.6l-1.2 4-1.2 4-1.6 1-1.6.8-5.3-.3-5.1-.3-.3 3-.2 2.9h9.6l9.6-.1 11-1Z"/><path fill="#f3c010" d="M115.4 207.4c-.7-.5-1.7.2-2.1-.7-.1-1.1-1 .4-1.8 0-1.4.6-.7.3 0-.6.4-.8 1.4-1.6 1-2.6-.6-.2-1 .1-.5-.1-.9-.3-1.2.6-1.4.7-.8 1.1.1-.7-1 .6-.8-.4 1.6-1.3.7-1.8.4 0 1-1.8 0-1-.6 1.3.1.3-1 .8-.7.2-.3-.6.3-.9-.2-.7 0-1.2-1-.5-.7.2-.2 1-.2 1.8-.9 1.3-1.3-1.6-.3-1.8-.2-1.2 1-1.8 1.7-2 0 .3 1 .6 1.2-.3.4-.5 1.4-1.5 1.8-1.2.2.3-1.2 1.3.2.6-1.6 1.6.9-.2.7.5-.6 1 1 1.3.8.4.4-.6.4-.8 1-1.5.4-.7 2-1 1 0-.5.4-.3 2-.4.6-1 0 .5 1.5.3.4a7 7 0 0 0 1.8-1.7c.3-1 1.4-.2 1.4-.2.3.7.7.3 1.2.6.7.4 2-.7.7-.7.6.4-1.3 0-1.2-.5 0-.3 2-.1 1.8-.2-1.4.5-.2.8.4 0 .1-.8-1.3-.7-.9-1.2.5-.3 1.2-1.2.6-1.9-.4-1.2.3-.5-.5-1-.8.7 0-2-.6-.9-1.3 1.5-1.5-.9-.4-1.6.3-1-1.5-.2-1.8-.7 0-1.1-1.8.8-1.7-.3-.5 0-2.6-.2-1.8.5 1.3.8-.7.8-1.3.4-.6.2-1.1-1.3-1.4-.5-1.2-.1-.1 1.1-1.5 0 .2-1-.2-.8.1-1.8-.6-.8-2 2.8-1.7.4-.6-.1-1 1.8-1.4.7 0-.1-1 1.1-.7-.3-.5.8-1.2 1.6-1.4 2.6-.9.1-1.5-1.2-1.8 0-.4 1-.8 2.5-1.3 3.2.1 1.3-2 3.6-3.3 4.5.3-1.2 1.4-2.3 1.7-3.7.1-.6 1-1.7.5-2-.1-.6.4-2.6-.3-1.3-.8 2.2-1.7 4.3-2.3 6.4a7 7 0 0 1-.8 2c-.8 1.1.6 1.1.9.1.5-1.1.5-.4.9-.6-.5.6-.8.4-1 1.3.2.6-.8 2.3-.5.7-.4-1-.7 1.1-.8 1.1-.3-.1-.6.4-.8.8-.2 0 0-.5-.8.3-.4-1.3-2.2 1-2.7-.5-.4.8-1.3.3-1.7.4-.7.4-1.7.3-1.3-.7 1-1.4 2-2.7 2.2-4.4 0-1.6 1.4-1.7 2.1-2.6.4-1.6 1.6-3 1.4-4.8 0-.5-.4-1.6-.6-.9.2 1 .5 2.4-.4 3-.7-1.3-.4-3.4-.3-5-.4-.2-.2-.5.2-1.1 1.7-1.8 3.4-3.4 4.9-5.3.3.7.6.8 1.4.1.7-.7 1.4-.1 2.1-.1 1.3.3.3-1.4 1.2-1.8a28 28 0 0 1 4.1-5c.6-1.4 3.4-1.8 2.8-3.5-.3-.4-1 2-1.6.4-.5-.9.8-.8 1-1.3.4-.4 2-1 2.8-1.7.7-.5 1.5-.6 2.3-.5-1.2-.8.4.4.7-.3-.1.8.3-.6.3-.3.8.5.8-1 1.6 0 .8.6.7-1.4.4-1.3.8.7 1.3.4.3-.2-.5-.4-1 .5-1-.2.4.3-.5-1.2.7-.2.6-.4 1.8-.4.5-.6 0 0-1.1-.5-1.1 0-.8-.1-1.4-.7-2-.2-.4 0-2.6 0-1.8-.1.8 0-1.3-.3.4-.3.8-.2 1.7.2 1.4-.4 1.2-.6-2.2 0-2-.9.8-.2 1.8-.6 2.8-.5l4.2-.2c.7 1.2.5-.6 1.4-.2 1-.2 1.2.3 1.1 1.2.2 1.7-.6 3.3-.4 5 0 .7-.5 1.6-.2 2-.5-.6-.9-1.4-1.7-1.2-.6-1-.2-2.2-.6-3.2-.8-1.1-1.1-.3-.4.6-.2 0 0-1.2.1-.4.7.3-.3 1.8-.1 1.3 1 0-1.3.2-.1.6 0 1-1 1.6-1.2 2.6 1.3-.8-.3.4-.4.2-.2-1.2-.1 1-.9 0-.2.5-.9 1-1.7.9-1 .4.3-.1.6.2-1.3.8.6-.3.8.7-.2-1.6.3 1-.4-.1-.7-.4-.2.3-1.3-.1.3.3.7.8-.2.4-.8 0-.8 1.9-1.3 1-.5.3-.2 1.3-1 1.4-.4.1 1.4-1.6-.2-.5-.7.8-1 .5-1.2 1.2-.4.7-1.5 1-.6 1-.3.1-2.7 3.3-3.2 3.6 0 .4 7.8 5.2 8.1 4.4.8-.8.3 1.4 0 1.4-.4.5-.8.2.2.7-1.4-.3 1.5-.8.2-.2 1.2.2-.5-1 .8-.8 0-.3 1-1.8.7-1-.1 1 .3.8 1.2.6 1.8-.6-.9-.3.4-1 .3-.5 1-1 .4-1.1-1.2.9.3-.7-.8.1-.8.2.9.8-.3.6-.8 1-.3.2-.2-.1-1 0 1 0 0-.8.8-.4 1.2.1 2-.5 1.2-1-1.4.8-.2-.5.6-.8 1 .5.5-.7-.7-.8.6.9.8 0 .3-.5-.4-.3.9-.6.7-.5.6 1 1-.1.6-.3 1.5.1 1.3-.2.8-.2 2.5 0 2.2-.4.3.3 1.7-.5 1.5 0-.9-.3.8 1.2.6.3.8.3 0-.8 1.5-.5.5-.8 1.3.3 1.8.8.2-.3 1.7-.5 2.1 0 .7.4 1.8 0 2.6.3 1-.3 2.2 0 .4.1-1.6 0-3.4.1-4.8-.2-1.7.1.2 0-.9.4-.5.9 1.3-.7 1.4.2.3.9-1.4 0 .1.6.5.1 1-.2 1.4.6-.7.4-1.7.1-2.5.4-1.3.2-2.6.7-3.9.6-.6.3-1.5.7-2.4.5-.5.8-1.5.7-2.4.9 0-.5-3.2.2-1.8.7.7 1.2-.9.7-1.1 1.2.6.2-.1.9-1 1h1c.5-.9 1.6-.3 1.2.8-.8.4.7.8 1.3.4.6-.4-1.3-1 .3-1.2 1.4-.5-.5-.1 0-1.2 1.2-.4.4 1.4 1.7.3 1-.8 1 .8 1.9.3.7-.6 1.3-.3.9.6.4 1.3-.8-1.4-.8-.1.8 1-.8.1-.5 1.3-.1.5-1.4 2-.5 1.9.6-.4 1-1.4 1.7-.9.2-1 1-1.6 1.8-2.2 1.1.5 1-.5 1.8-.6 1-.3 1.7 0 2.4.5 1.1-.3 1 .8.2.7-.7-.6-.7-.2-.2.7.8.3 1.5-1 2-.5 1.3.1 2.5-1.1 3.9-1 1 .6 0 0 1.3-.2.7.2 2.3-.6 2.1.5-.3.7 1.8.7 1.5 1-.7 1 1.6 0 1.1 1-.6.8-1.5.6-1.1 1.8-.4.5-1 0-1.1.6-.3-.5-.4 0-1.6-.1-.5 0-2.8.6-1.6 0 1-.4-1.2 0-1.6.2-1.1 1.2 1-.3.6.8-.4.7-1.5.6-2 1-2.2 2.2-5.3 3-7.8 4.7-1 .5-1.4 1.3-.5 1-.4.4.5.8-.6 1 .3.4-.1.2-.3 1 1.2 0-1.3.2-.6.9.8 1.1-.2 1.1-1.1.9-1-.2-.9-1.7-1.3-1.7-.6.4-1.4.9-1.6 1.6-1 .8-2 1.6-2.9 2.6-.8-.4.5-1.8.2-1.8-.5.7-1.3 1.3-1.8.1-.8-.3-1.5.5-1.6 1.2-.5.1-1.3.8-1.6 1.4-.4.2-.8 0-1.2-.1Z"/><path fill="#305673" d="M136 260c-1-.3-2.4 0-3.3-.6-1 .8-1.8-.9-2.8-.4-.7-.1-1-.9-2.1-.6-.3-1.2-1.5-.5-2-1.3-.6-.3-1.4-.8-1.7-1.5-.6 0-.8-.6-1.3-1.1-.3-.2-.6-1-1-1.4-.5-1-.7-1-1.2-1.6-.2-.6-.5-1.3-1.4-1.4-.5.3-2 .6-2.5 0-.4-.5-.6-1.7-1.5-1.5-1 0-1.5.5-2.2.9-.1.9-.4 1.5-1.7 1.5-1 .2-2 .7-2.4 1.3-2.1-.4-3.2 1.4-5.1 1.8-.8.7-1.4-.2-2.3.2-.3-.8-1.7 0-2.1-.5-1-.3-2.2-.3-3.4-.3-.5-1 0-1.7-1.2-1.4-.7.3-1.3.9-2.4.8-1.6.8-1.6-2.3-3-1.9-1-.4-.4-2-1-2.7-1.7-1.8 1.6-2.9 2.2-4.5 0-.2-1 1.5-1.7 1.8-1.3 1.6-1-.2-1-1.3-.2-1.2 1.6-1.2 2.5-1.2l-2.4-.3c-1.3.3-2.4-.3-.7-.9.7-.8.8-1.1 2-1.5.7-.8-.2-1.3 1.4-1.8a27 27 0 0 1 4.3-4.1c-.1-1-1-1.7-2.1-1.3-1 .2-2 .5-2.8-.1-.8-.5-1.8-.5-2.9-.6-.9-.4-2.4.2-2-1.3l.6-2.9c0-.5-.6-1.8-.1-2.3-.2-.2-1.1-.5-2.2-.4-1.7.5-2-1.8-2.3-3-.5-.8-.4 0-1.6-.4-1.4-.5.4-2.3.2-3.3.4-.5-.6-1.5-1-1.7 0-1 2-1.2 1.1-2.2 1.3-.2 1.3-1 1.8-1.5.7-.5 2.5-.6 2-1.5.3-.5 1.7-.3 2.5-.7.3-.9 1-1.4 1.8-1.9.5-.7 1-1 2-1.3-.2-.5.9-1 1.7-1 1-.3 1-1.5 2.3-1.1.8-.1.7-1 2.2-.7.6-.4 1.5-.6 2.5-.4l4.1.1c.8.1 1.8-.1 2.8.1.7.2 1.8 0 2.3-.3 1-.6 1.3 1.1 2.4 1.3.5.4 1.2 2 1.9 1.4 1-.2 2 .6 2.6.2.7-.8 1.4-.8 2.2-1.5.7-.3 1.3-.6 2.3-.5.8.3 2-.2 2.2-.6.7-.4 1.3 0 2.1.4 1 .3 1.6.8 2.5.5 2 0 4 .4 5.8.5 1 .2 0 2.3 1 1 1 0 1.7-.7 2.7-.2 1 .1 1.6 1.3 2.5 1.6 1 .2 1 .1 1.8-.1.7-.1 2.3-.3 1.9 1-.3 1 .4 1.8.3 3 .2 1-.8 2-1.3 2.5-.7.8-1.2-.8-1.8-.1-.2.3-1.1 1.8-.1 1.6 1.1.9.3-1.3 1-1.2.3.5 1.4 1 1.4 1.3-.2.5-1.5 1-1 1.3-.8.4.2.1-.8.4 0-.4 1.2-2 .5-1.2-1 0-1 .8-1.8 1.3-1 .7-.4-.8-1.8-.4-1.3-.4.3-1.4.8-1.9.5-.8-1.2 1-1.8.5-1.8.3-.8-.7.1-1.2 1.1-1.2-.8-.4-1.5-.4-.7-.4-2.7 1.2-2.5 0-1 .2-1.6.8-2.7.9-1 0 .9-1.1.6-.8.5-.1 1.8-1.4 1.6-1.1-1.2.2-2.5.4-3.5 1.2-.2 1-3.9 2.4-2.7.5l2.4-1.4 1.6-.9c1 0 1.9-1.5.2-.8 0-1 1.2-1-.5-.7-1.2.9-2.5 1.6-3.9 2.1-.5.2-1.4 1-2 1.3-1.6-.1-2.5 1.8-4 2.4-1.1.5-1.4 1-2 1.4-.4.3-1.3.9-1.5.3.5-1 1.9-1.4 2.8-2.2 2-1.2 3.9-3.2 6.3-3.7a6 6 0 0 1 1.7-1.3c.5-.2 2.4-1.5 1.5-1.4a68 68 0 0 0-7.6 3.9l-1.8 1.2c-.4 0-2.1 1.6-1.3 1-.8.8-.2 0-1 .8-1.3 1-2.6 2.3-3.3 3.7 1.1-.6 2.2-1.9 3.1-.3l-1.7 1.6c-.8.4-1.6 1-1.8 1.9-.4 0-1.4 1-1.7 1.8.8.4 1.6-.6 2.4-1 1-.3 1.4-1.4 2.3-1.7.5-.5.4 0 1.3-.6 1.6-.2.3 1-.3 1.2-.4.3-.5 0-1.2.7-.9.6-1.2 1.2-.9 1.9.7 0 .8-.4 1.8-.8.7-.7.2-.7 1.5-1.2l1.9-.8c.8-.5 1.8-.9 2.8-1.1 2-.3-.5 1-.3 1.1-1.2.2-.7 1.5-1.1 1.4-1 .1.6 1.3-1 1.8l-1.3 1c-1 .6-.9 1-1.5 1.6-.2.5.8 1.7-.8 1.5-1-.8-4-.9.3.8 1.1.8.7-1.4 1.7-1.1.3.2 0-2.2.9-.9-.1 1 .6.4 1.6.5 1-.7.4-.9 1.5-.5.6.5-.6 1-1.3 1.2 1.6-.6-.7 0-.5.3-.4.4-.8-.1-1 .5-.6.7-.2.4-1.1 1.1-.8 1-2 1.4-2.3 2.7-.3 1-.6 1.7-.4 2.7 1.1 0 1.2-1.5 1.1-2.1.8-.7 1.2-1.6 2.2-2.1.9-.7 1.7-1.6 2.9-1.8-.2-1 2-1.4 1.2-1.4 1.1 0 2.4-.5.6.8-.2.8-1.8-.2-1.6 1.1-1.4.7-2.6 2-3.3 3-1 1 0 1.4.8.5.4-1 3-2.5 3.4-3.1.9.2 1-.6 1.9-.1.8.2 0-.6 1.1-.1-.4.8.3 2.7-.5 2.6.2.8-.6.7-1 1-.7 0-3.7-.7-2.4.5.6.4 2.6-.3 2.5.4-.5 1.2-1.7 1-2.7.6-.6-.2-3 .1-2 .7a9 9 0 0 0 4 .1c0 .3 2.4.4 2 .1 1.2-.2-.5 1 .6.7-.4-.5.8 0 .7.3 1.3.6 1-.2 2 .3.3.4-.2.4-.5-.1-.3-.3-1 1.4-.3 1.2.6.4 1.5.6 2.2.9.6.4 2 .2 2.5.6 1-.2.3.2 1.4.7.7.3 1.5.7 2 1.2 1.1 0 .5.6 1.8.8.8.2.8 1.2 1.5 1.1 1-.4 1.5.6 1.5 0 .9-.2 2.4.2 1.8.6.8-.2-2 1.5-.4 1.7.6.3 2-.5 2-.3-.2.5.8.4 1.3 1 0 .7 1 1 1.8 1.5.9.4 1.7 1 2.4 1.5.9.5.4 1.2 1.3 1.6 1 1-.6 1.4.1 1.9 1 0 1.9.9 2.6 1.2 1 .4-.9.2-1.3.7-2.5.2-5 .7-7.7.6-.9.4-1.9 0-1.9.5-1-.2-1.8.2-2.8.1-1 0-1.9.3-2.9 0-.4.2-.8.3-1.2 0Z"/><path fill="#a73a24" d="M106.6 245.6c-.8 0-.5-1-1.6-.6-.7 0-1.2-.4-1.4-.7-.2.1-.3-.3-.8-.5 0-.6.2-1.8-.2-1.8.2-.3-.1-1.3 0-2 0-.5-.5.4-.9.7-.3-.2-.8.9-1 .7-.4.2-1.1-.8-1.3.2-.2.6 0 1.7-.8 1.5-.8.2-1-.4-1.4-.6-.7-.5-.3-1.5-.4-2.2.1-.6.6-1.3.7-1.8-.1-.7.5-1 .3-1.5.3.4.5-1 .7-1.6.2-1.3-.6-.2-.9.3 0 .3-.4.9-.5 1l-.3 1.7c0 1 0 .7-.4 1.2 0 .4-.5.3-.4 1.2.5 0-1 .4-.5 1.3-.2.6-1.5.3-1.5-.1-.4 0-.7-1.2-.5-1.6.2-.5.6-1 .6-1.6.2-.6.6-1 .4-1.7 0-.1.4-.8.3-1.5 0-.8-.9-.5-1-.9-.7-.7.6-1.7.2-2.2-1 .3-1-.8-1-1.4-.1-.9.3-1.2.5-1.6.1-1 .4-1.5.7-1.3-.2-.6.5-2 0-1.2l-.6 1c0 .4-.1 0-.3 1.1-.2.4-1 1.5-.7 1.4 0 0-.7 1.3-1.3.9-.8.1-.3-1.4-.3-1.7 0-1 .2-.6.3-1.4.4-.2.4-1 .6-1.1.1-1 1.2-2 .8-3 0 .4-.3 0-.7.8-.6.7-.7.4-1.4 1-1 .6-.3-1.3-.1-1.9.2-1 .7-2 1.1-3 .3-.6.3-1.1-.5-1.4l-.5 1.5v-2c.1-.4 0-1.8-.1-1.3-.6-.3-.3-.7-1 .2.4.4-.5-.6-.6.2.4 0-.6 1-.1 0-.3.7-.6.9-.5 1-.6.4 0 1.6-.8 1.6-.6-.5.7-.8.2-1.5 0 1-.1-.8-.3.3-.3 1.1-1.2 0-.6-.1-.1-.6 1-1.1.4-1.1.5.2.5-1.3.7-.6.3.5 0-1.3.2-1 .5.4-.2-1 .3-.4 0-.8.4-.7.1-1.4-.6 0 .2-.5-.4-.6-.1.6-.3-.8-.5-.2 0 .2-.2-.4-.6-.2.3-.1-.7-.6-1.5-.6-.6-.2-.2.5-1.3.4 1-.4-1 0-.6-.3-.8.1-1.5-.2-2.3-.2.2.7-1.6 0-1.6-.3.6.6-1.4-.3-.4-.4-.7-.4 0-.5.2-.3 0-.4 1.1.3 1.7 0 .8 0 1.6 0 2.2-.2.9 0 1.7.3 2.6.2-1.2-.1-1.5-.6-.1-.1.2 1 1.3 0 1.1.7.8 0 1.3.8 1.5.8.5 1.2.9.2.9.1.5 0 .7-1.2 1-1.7.4-.5.6-1.3.8-1.7.5 0 .6-1 1.1-1.3.5-1 1.2-2 2-2.8a2 2 0 0 0 .9-1.5l.4-2c.4-.7.2-1.9 1.1-2.4-.1-.9 1.3-1 .9 0 0 1.3-1 2.3-1 3.5.3 1-.2 2-.1 3.1.2-.6.5-1.3.6-2l.4-1.7c.5-.6.6-1.4 1-2.1 0-.3.7-1.2.7-.3.4 1.6-1.2 3-.9 4.6.1.8-.1 1-.2 1.7-.3.6-.5 1.3-.4 2-.4.4 1.1.2 1.5-.1.3-.4.5-2 .3-1-.4.8-1 .4-.8-.8 0-1-.1-1.6.4-1.8.4-1 .2 1 .8.5a7 7 0 0 1-.2 2.1c.2-.5 1.2-.7 1-1.4.3-.3.6-1.3.6-.7 0-.6.5-1.2 1-1.7.6-.6 1-1.4.9-.2-.2 1 .2 1.2 1.1 1 .3 1.2-.1-.3 1 0 .6-.4.3-.9.7-1.4 0 .3.6-.4 1-1 .7-.3 1-1.2 1.4-1.4.2-.9.6-.4.9-1.3.3-.4 1.4-.8 1.3-.3 0 .8-.3 1.2-.8 1.7-.5.7-1 1.5-1.2 2.3-.6 0-1 .8-1.3 1.3-.4.8 0 1.2.5.3.2-.7.9-.8.9-1.3.6-.2.7-1 1.3-1.4.4 0 1 0 .8.9 0 .9-.7.7-.9 1.5 0 .9-1 1.4-1.6 2.2 0 .7-.6 1.3-.5 2.1.5.2 1-.4 1-.7.6 0 0 1.7.7 1.5-.3.6.7-.3.5.9.2.5.9 0 .5-.7.2-.2.8-1.2 1.2-.8.5-1-.2-1.8 0-2.8 0-.7.7-1.4 1-.9.6-.2 1.1.8 1.7 1 .4 1-.6 1-.5 1.1-.8-.5-1.4-.4-1 .4 1.2-.7.3.7.2 1.2-.4.7-.5.4-.6 1.2 0 .8.3 1 .1 1.7 0 1.4 0 .6.5.1.3-.5 0-1.4.4-2 0-.8 1-.7 1 .2.1.7.5.8.9 1.2.3.6-.2 1.4.4 1 0-1 0-2 .4-2.8.3.7.9-.1 1 .8 0 1.1.4-.2.3 1.2-.3 0 0 1.3-.4 1.3 0 .4-.3 1.6 0 1.1.6-.4.7 1.3.6 1.4-.6.6-.3-.5-.6.5-.8-.1-.2-1-.1-1.4-.4.3-.5 2.2-.6 1.6 0 .7-1 .2-1 1.3-.2.8-.3 1.6-.7 2.4-.7 2-1.6 3.8-2.1 5.8.4-.5.5-1.1 1.2-1.2.5 0 1-.7 1.3-1.1.4-2 1.2-3.8 1.5-5.8 0-.9 1-1 1.3-1.2-.3-.7.4-1.2.7-.6.2.7 0 1.5.1 2.3-.6.9-.6 3-1.1 4.4a21 21 0 0 0-.8 5.6c-.6 0-.6 1-1.5.5-.1.9-1.2.8-1.3 1.4 0 .9-.5 1-.8 1.2-.2.7-.2.9-.6 1.3-.2 1.1-.7.4-.8 1.4-.4.8-.4-.2-.7.9-.7 0-.3.7-1 .8-.3.4-.3 1-.7 1.5-.4.4-1 1.5-.5 1.1.3.2-.3 1.4 0 1 .8-.4.5-1.6 1-1.9l1.3-1.3c.6-.3.3 0 .8-1 .5-.5 1-1.1 1.2-1.9.6-.4.4-1.2 1-1.7.5-.7 1.3-2 1.3-1.3-.4.6.5-.5.4-1 .7 0 .9.4.7.6-.2 1.3.3-.3.3.3.3-.7.2-1.7.6-2.4.2-1 .6-1.8.9-2.6-.1-1.3.5-.6.3.3v5.6c-.1.9-1.2 1-.9 1.8-.3.4-.4 1-.7 1.6l-.9 1.3c-1 1.3-1.3 3-2.3 4.3-.5.1-1 .8-1.4 1.1-.4.8-.7.8-1.3 1.4-.4.4-1 .5-1.2 1.1-.2.8-.6.7-.3.3-.3.8-1.2.7-1.2.2-.6.2-1 .7-1.7 1 0 0-.3 0-.2.1Z"/></svg>