<svg width="731" height="236" fill="none" xmlns="http://www.w3.org/2000/svg"><path d="M338 236h337l-1-1h-1l6-1 9-1 2-1h4l3-1h2l-3-1h-3l1-2 1-2 2-1h2l6-1h6v-1h-3l-2-1 1-1v-1h3l1-1 1-1h-9l-5-1h-4l1-1-1-3-1-2-2-1h-2 4-1l-2-1v-1h-18v-1h-4v-1h2l14-2h6l14-1h9l2-1a102 102 0 0 1 13-1l3-1h-1l-3-1-11-2-2-1-7-1a419 419 0 0 0-19-3l-12-3-8-2-5-1-5-1-1-1h-1l-1-1v-1h-2l-2-1h-15v-1l-1 1h-1l-6-2h-31l6-1 6-1h-3 4l2-1h6l2-1h-1l-2-1v-4l2-1 3-1 1-1h4l3-1 2-1h2l1 1-1-2-1-1h-1 3l1-1h-11l-1-1-5-1-3-1v-5h2l5-1h6v-1l-1-1h5l5-1h-2 5l2-1h4v-1l-4-1-6-1h-3l1-1c1 0 1 0 0 0h4l12-1h8v-1l-2-1-4-1h-2v-3l4-1 7-2 3-1h2a85 85 0 0 0 12 0l5-1-4-1-3-1 1-1 3-1 2-1h-2 4l1-2h1l-5-1h-14l-1-1-2-1h-2v-1h-5 4l-2-1-2-1 3-1 6-1 2-1h-4l-5-1h-7l-5-1v-1l-1-1h-4a22 22 0 0 1-6-2h-2 2l1-1v-1h3l3-1-1-1h-1l1-3 2-2h-2l-1-1 2 1h3-1l10-1 3-1h6l-1-1-3-1c-2 0-3 0-5-2l-2-1-4-1-4-1v-1l-1-1v-1l-2 1h-3v-1h-1 5v-1l-1-1 3-1h3l1-1 1-1h-10l-10-2-9-1h1l2-1h-1l-9-1h-7l-2-1h-3v-1h-7l-6-1h-1l1-2 1-2v-1h11-1l1-1h2-3l-2-1v-2l-1-2v-1h-2l-3-1-1-1h2l1-1h4a96 96 0 0 1 9-1 349 349 0 0 1 15 0h3-1 1l1-1h-1l-1-1 1-1v-5h3l2-1 2-1h1-3l1-1 3-1 1-1h-1 3l1-1h2v-1h3a40 40 0 0 0 6 0 87 87 0 0 0 7-1h-2 3l-2-1h-2l-1-1-2-3-1-1h-3l-2-1h2l2-1h1-5v-2h-3 3l1-1h1-2l-3-1h-1v1h-1l-1-1v-1h2v-1h-7v-1l-3-1-2-1 8-1a358 358 0 0 1 26-3h12v-2l2-1 2-1h4l4-1h6l1-1h-1v-1h5l3-2h2-2 4-2l-2-1 4-1a51 51 0 0 0 5-2h2l-3-1h-8V9h-5l1-1h2l2-1h4l7-1-3-1-4-1V2l-1-1V0H10C4 0 0 4 0 10v216c0 6 4 10 10 10h328Z" fill="#fff"/></svg>