<svg width="731" height="40" fill="none" xmlns="http://www.w3.org/2000/svg"><path d="M337.7 40h337.7l-1-.1h-1.1l6-.2 8.5-.2 2.4-.1h4.2v-.2h4.4V39H696l-2.8-.1.6-.4.7-.3 2.2-.1 2.3-.1h5.9l5.8-.1v-.2h-2.3l-2-.1.3-.2.3-.2h3l1.3-.3h.6-2.3l-4.6-.1h-6.6l-4-.2.1-.1c.1-.1 0-.4-.4-.6l-1-.3h-4 3.6l-.6-.1-1.8-.1c-.4 0-.7 0-.5-.1h.3-3.8l-3.7-.1h-10.5V35h-4.3v-.2h2.5c3.4-.2 11.6-.3 13.7-.3h6.2l13.8-.2h9.2l2-.1a585.2 585.2 0 0 1 13.1-.3l2.7-.1h-.9l-3.4-.2-11.1-.4h-1.7l-7-.3a2370.2 2370.2 0 0 0-18.8-.5l-12.4-.4a392.7 392.7 0 0 1-13.1-.5l-5-.2v-.1l-.2-.1h-1.2L655 31l.2-.1.1-.1h-2l-2.1-.2h-14.7v-.1h-3l-5.2-.2h-29.8l-1-.1 5.6-.2h5.5l-1-.1h-1.2 3.2l2.7-.1 5.3-.1h2.6l-1.5-.2-1.6-.1.3-.2c0-.1.1-.3 0-.4l-.2-.2h2l3-.2 1-.1h2.8l1-.1 3.1-.2 2.2-.1h2.7l-.7-.1-1.7-.3h-.7 3.6l.7-.1h-11.4l-1-.1-4.5-.3h-3.4v-.2l-.2-.5-.1-.3h9.1v-.2h4.5l-.4-.1-.3-.2h4.7l4.6-.2h-1.5 4.6l1.8-.1 3-.1h1.2V25h-3.4l-6.4-.2h-3l1-.1c.5 0 .6-.1.4-.1h-.8l4.3-.1h12l7.8-.2-2-.1-3.7-.3h-1.5l-.5-.3-.3-.2 3.9-.2 7.3-.3 3.5-.1h2a500.3 500.3 0 0 0 11.7-.1h4.9v-.1l-3.6-.3-3.7-.2h1.2l3.1-.2 1.8-.1-.8-.1h-.7 3.3l1.3-.3.6-.1h-9.9l-1.8-.1h-7.1l-1-.2a24 24 0 0 0-2.3 0l-1.3-.1v-.2H658h3.9l-2.1-.3-2.2-.1 3.8-.1 5.7-.2 1.9-.1-3.9-.1a364.9 364.9 0 0 0-12.1-.2h-5l-.4-.2-.3-.2h-3.8a124.6 124.6 0 0 1-6.1-.3l-2.1-.1h1.3c.8 0 1.4-.1 1.4-.2l3-.2h3l-1.4-.2-1-.1 1.6-.4 1.7-.4h-1.6l-1.6-.1h5.2-.5l9.2-.2h6.4l2.7-.1-.8-.1-2.8-.2c-2 0-2.8 0-5.3-.3l-1.4-.2-4-.2-4.1-.1-.5-.2-.4-.2h-5.1l-.5-.1h-.5 4.8l-.3-.3-.3-.1 2-.1a253.4 253.4 0 0 1 4.8-.2l.9-.1-4.2-.1a605.7 605.7 0 0 0-16.3-.2l-9.2-.2 1.6-.1 1.7-.1h-.5c-.6-.2-2.8-.2-9.8-.3H606l-2.5-.2v-.1h-12.9l-.7-.2h-.8l.8-.3 1.1-.3.3-.1h3.3l7.3-.1h-1.2 1.5l1.5-.1-2.1-.1-2.1-.2-.9-.2-.9-.5V11h-2l-2.7-.2h-1l1.7-.1 1.5-.1h3.7a560 560 0 0 1 16.2-.2H626l-.7-.1h-.8 2.7L626 10h-1.2l1-.3c.8-.2.8-.3.2-.6l-.3-.2h3.5l1.5-.2 2.2-.2h1-2.9l1.2-.1 2.7-.3h1.6-.9l-1-.1h4.9l1.9-.2h2.5a236 236 0 0 0 12.6-.2h-1.3 3.2l-2-.2h-2l-1-.2a135.7 135.7 0 0 0-3.7-.6l-2.5-.1-1.8-.1h1.2l2-.2h1-4.2v-.4h-3 3.8l.8-.1-1.6-.1H640c-.6 0-1 0-1.2-.2l-.3-.1h2.3l-.3-.1-.3-.1h-6.8l-2.2-.3-2.4-.1 8-.2a2058.3 2058.3 0 0 1 26-.5h10l2.2-.1v-.4h2l2-.2h4.1l4.2-.1h5.2l.7-.1h1l-.8-.2h-1l2.9-.1h2.2c-.9-.1 1.6-.2 3.4-.3h2.1-.9l-.9-.1h4.1-4l3.5-.3a250 250 0 0 0 5.5-.3h1.5l-3-.1-3.1-.1h-4.5l-.7-.1h-4.2l1.2-.2 1.2-.1h2.2l3.8-.1 7.5-.2-3.6-.2h-3.7V.2s-.2-.2-.6-.2H10A10 10 0 0 0 0 10v20a10 10 0 0 0 10 10h327.7Z" fill="#fff"/></svg>