<svg width="731" height="40" fill="none" xmlns="http://www.w3.org/2000/svg"><path d="M393.3 40H55.6l1-.1h1.1l-6-.2-8.5-.2-2.4-.1h-4.2v-.2h-4.4V39H35l2.8-.1-.6-.4-.7-.3-2.2-.1L32 38h-5.9l-5.8-.1v-.2h2.3l2-.1-.3-.2-.3-.2h-3l-1.3-.3h-.6 2.3l4.6-.1h6.6l4-.2-.1-.1c-.2-.1 0-.4.4-.6l1-.3h4-3.6l.6-.1 1.8-.1c.4 0 .7 0 .5-.1H41h3.8l3.7-.1H59V35h4.2v-.2h-2.5c-3.4-.2-11.6-.3-13.7-.3h-6.2L27 34.3h-9.2l-2-.1A585.2 585.2 0 0 0 2.6 34L0 33.9h.9l3.4-.2 11.1-.4h1.7l7-.3a2369.4 2369.4 0 0 1 18.8-.5l12.4-.4a392.5 392.5 0 0 0 13.1-.5l5-.2v-.1l.2-.1h1.2L76 31l-.2-.1-.1-.1h2l2.1-.2h14.7v-.1h3l5.2-.2h29.8l1-.1-5.6-.2h-5.5l1-.1h1.2-3.2l-2.7-.1-5.3-.1h-2.6l1.5-.2 1.6-.1-.3-.2c0-.1-.1-.3 0-.4l.2-.2h-2l-3-.2-1-.1H105l-1-.1-3.1-.2-2.2-.1H96l.7-.1 1.7-.3h.7-3.6l-.7-.1h11.4l1-.1 4.5-.3h3.4v-.2l.2-.5.1-.3h-9.1v-.2h-4.5l.4-.1.3-.2h-4.7l-4.6-.2h1.5H90l-1.8-.1-3-.1H84V25h3.4l6.4-.2h3l-1-.1c-.5 0-.6-.1-.4-.1h.8l-4.3-.1H80l-7.8-.2 2-.1 3.7-.3h1.5l.5-.3.3-.2-3.9-.2-7.3-.3-3.5-.1h-2a500.6 500.6 0 0 1-11.7-.1H47v-.1l3.6-.3 3.7-.2h-1.2l-3.1-.2-1.8-.1.8-.1h.7-3.4l-1.3-.3-.6-.1h9.9l1.8-.1h7.1l1-.2h2.3l1.3-.1v-.2H73h-3.9l2.1-.3 2.2-.1-3.8-.1-5.7-.2-1.9-.1 3.9-.1a364.9 364.9 0 0 1 12.1-.2h5l.4-.2.3-.2h3.8a124.6 124.6 0 0 0 6.1-.3l2.1-.1h-1.3c-.8 0-1.4-.1-1.4-.2l-3-.2h-3l1.4-.2 1-.1-1.6-.4-1.7-.4h1.6l1.6-.1h-5.2.5l-9.2-.2H69l-2.7-.1.8-.1 2.8-.2c2 0 2.8 0 5.3-.3l1.4-.2 4-.2 4.1-.1.5-.2.4-.2h5.1l.5-.1h.5-4.8l.3-.3.3-.1-2-.1a253.2 253.2 0 0 0-4.8-.2l-.9-.1 4.2-.1a605.7 605.7 0 0 1 16.3-.2l9.2-.2-1.6-.1-1.7-.1h.5c.6-.2 2.8-.2 9.8-.3h8.6l2.5-.2v-.1h12.9l.7-.2h.8l-.8-.3-1.1-.3-.3-.1h-3.3l-7.3-.1h1.2-1.5l-1.5-.1 2.1-.1 2.1-.2.9-.2.9-.5V11h2l2.7-.2h1l-1.7-.1-1.5-.1h-3.7a560 560 0 0 0-16.2-.2h-11l.7-.1h.8-2.7l1.2-.2h1.2l-1-.3c-.8-.2-.8-.3-.2-.6l.3-.2h-3.5l-1.5-.2-2.2-.2h-1 2.9l-1.2-.1-2.7-.3h-1.6.9l1-.1h-4.9l-1.9-.2h-2.5a236 236 0 0 1-12.6-.2h1.3-3.2l2-.2h2l1-.2a136.7 136.7 0 0 1 3.7-.6l2.5-.1 1.8-.1h-1.2l-2-.2h-1 4.2v-.4h3-3.8l-.8-.1 1.6-.1H91c.6 0 1 0 1.2-.2l.3-.1h-2.3l.3-.1.3-.1h6.8l2.2-.3 2.4-.1-8-.2A2057.7 2057.7 0 0 0 68 4H55.8v-.4h-2l-2-.2h-4.1l-4.2-.1h-5.2l-.7-.1h-.9l.7-.2h1l-2.9-.1h-2.2c.9-.1-1.6-.2-3.4-.3h-2.1.9l.9-.1h-4.1 4L26 2.1a249 249 0 0 1-5.5-.3H19l3-.1 3.1-.1h4.5l.7-.1h4.4l-1.2-.2-1.2-.1h-2.2l-3.8-.1-7.5-.2 3.6-.2h3.7V.2s.2-.2.6-.2H721a10 10 0 0 1 10 10v20a10 10 0 0 1-10 10H393.3Z" fill="#F3C010"/></svg>