<svg xmlns="http://www.w3.org/2000/svg" width="336" height="52" fill="none"><path fill="#fff" d="M155.2 51.7h155.2l-.5-.1-.4-.1 2.8-.2 3.9-.2 1-.2h2v-.1h2v-.2h-1.3l-1.3-.2.3-.4.3-.5h1l1-.2h2.8l2.7-.1V49l-1-.2h-1l.1-.3.2-.2h1.3l.6-.3.3-.2h-4.3l-1.9-.1-1.8-.1v-.3s0-.4-.2-.6l-.4-.4h-1l-.8-.1h1.6-.3l-.8-.2-.3-.1.2-.1h-6.6l-.4-.1H309v-.1l-1-.1-1-.1v-.2h1.2a77 77 0 0 1 6.3-.3h.7v-.1h2.1l6.4-.2h4.2l1-.1a97.5 97.5 0 0 1 6-.4l1.2-.1h-.4l-1.6-.3-5-.5h-.8l-3.3-.3a396.5 396.5 0 0 0-8.6-.7l-5.7-.6a66.4 66.4 0 0 1-6-.6l-2.4-.2v-.3h-.6l-.5-.1v-.1l.1-.2h-1l-.9-.2h-6.7v-.2l-.7.1h-.7a9 9 0 0 0-2.4-.3h-13.8l-.5-.2 2.6-.1 2.5-.2h-1 1.5l1.2-.1 2.5-.2h1.2l-.7-.2-.8-.1.2-.3v-.5l-.1-.2h1l1.3-.3.5-.2h1.7l1.4-.3 1-.1h1.4l-.4-.2-.7-.3h-.4 1.2l.4-.1h.3l-1.8-.1h-3.3l-.5-.1-2-.3-1.6-.2v-.8l-.2-.4h4.2v-.2h2.1l-.2-.2-.1-.1 2.2-.2 2-.1h-.3l-.3-.1h2.1l.8-.1 1.4-.1h.5v-.2l-1.5-.1-3-.2-1.3-.1h.4c.3-.1.3-.2.2-.2h-.4 2l5.5-.2h3.6v-.1s-.4-.2-1-.2l-1.7-.3-.7-.1-.2-.3v-.3l1.7-.2c1 0 2.4-.3 3.3-.4l1.7-.2h.8a83 83 0 0 0 5.4-.1h2.3v-.1l-1.7-.4-1.7-.2h.6l1.4-.3.8-.2h-.3l-.3-.1h1.5l.6-.3.3-.2h-5.5l-.7-.1h-2.6l-.4-.2-1-.2h-.7v-.2h-2.4 1l.8-.1-1-.3-1-.2 1.8-.1 2.6-.2.9-.2h-1.8a61 61 0 0 0-5.6-.3l-2.3-.1-.1-.2-.2-.2-1.7-.1a21 21 0 0 1-2.8-.3l-1-.1.6-.1c.4 0 .6-.1.6-.2v-.1l1.4-.1 1.4-.1-.6-.2-.5-.2.7-.5.8-.4-.7-.1h-.8 2.4-.2l4.3-.3h2.9l1.2-.2h-.3c-.2-.2-.8-.2-1.3-.3-1 0-1.3-.1-2.5-.5l-.6-.2-1.8-.2-2-.2-.1-.2-.2-.3h-2.4l-.2-.1h-.2 2.1l-.1-.3-.1-.2 1-.1a42.7 42.7 0 0 1 2.1-.3l.4-.1-1.9-.1-2.6-.1-4.9-.2-4.2-.3.7-.1.8-.1-.2-.1a24 24 0 0 0-4.5-.2h-2.9l-1-.2h-1.2v-.2h-1.2v-.1h-4.8l-.3-.2h-.4l.4-.4.5-.4.2-.1h1.4l3.4-.2h-.5 1.3l-1-.2-.9-.2-.4-.4-.4-.5v-.2h-.9l-1.3-.1-.4-.2h.8l.6-.2h1.7a93 93 0 0 1 7.5-.2h3.5l1.6-.1h-.7.6l.6-.1-.5-.2-.6-.1.4-.3c.5-.2.5-.3.2-.7l-.2-.3h1.6l.7-.2 1-.3h.4-1.3l.6-.2 1.2-.3h.8l-.5-.1h-.4 1.3l1-.1c.5 0 .9-.2.8-.2h1.2a39.2 39.2 0 0 0 4.7-.2h1-.5l.7-.1h.8l-1-.2h-.9l-.5-.3a30.2 30.2 0 0 0-1.7-.7l-1.1-.2-.8-.1h.5l1-.2h.4-1l-1-.1v-.4h-1.2v-.1h1.6l.4-.1-.7-.1h-2.5c-.3 0-.5 0-.6-.2v-.2h1l-.1-.1-.2-.1h-3.1v-.1l-1-.3L289 7l3.7-.3a343.5 343.5 0 0 1 11.9-.6h4.7l.9-.2v-.4l1-.1.8-.2h2l1.8-.2h2.8l.4-.2h-.4l-.4-.2h1.3l1-.1c-.4 0 .8-.3 1.6-.3h1l-.4-.1h-.4 1.9-1l-.9-.1 1.6-.3a43 43 0 0 0 2.5-.4l.7-.1-1.4-.1h-3l-.3-.1-.4-.1h-2l.6-.2.5-.2h1l1.8-.1 3.4-.3-1.6-.2H324v-.7s0-.2-.3-.2l-.2-.1H4.6C2.1.9 0 2.9 0 5.5V47c0 2.6 2 4.6 4.6 4.6h150.6Z"/></svg>