<svg xmlns="http://www.w3.org/2000/svg" viewBox="0 0 1440 519"><path fill="#3f8ca8" d="M663.2 126.4q635.5 30 676.1 31.1h74.6l20.7 33.8-334.4 235.2L972.7 439l-14.1-18.3-14.2-18.2-300.1 38.3-88-3.2-23 14.1L510 466l-45.5-26c-25.3-14.5-53.9-31.2-64.1-36.3-10.3-5.1-25.3-14.6-34.9-20.2q-8.7-6-283.5-161"/><path fill="#f3c010" d="m1180.5 477.6-18.9-22.3-77.6-1v-12.8c0-17 12.3-34 28.4-41.4l14.1-5.3-185.2 8.5-18 10.6c-12.6 6.3-26.4 10-40.5 10.6h-22.7l4.7 26.6 3.8 26.5h-49.2v-31.8L794 451a1440 1440 0 0 0-76.5 23.3l-50 16-13.3-12.8L640 465l4.7-9.6 5.7-8.5-21.7-12.7-21.8-12.7-34-2.2-33-2-39.7-24.5-40.7-25.5-58.6 25.5-28.3-26.5-4.7 13.8-3.8 13.8-11.4-18-11.3-17-75.6-2.2-74.6-1-143.8 58.2-16-6.3c-19-8.5-19-13.8 0-38.3l16-19-16-5.4C22.9 341.7 7.5 337.2 0 334v-76.3c15.2-13 40.2-38.3 49.3-56l13.2-26.6 1 23.3v23.4l-15.1 16-14.2 17h9.5C57 254.8 73 219.6 73 190v-22.3L54.1 173l-18.9 5.3v-48.8L57 123c11.3-3.2 31.2-6.4 44.4-6.4s40.6-5.3 60.5-11.7l36.8-11.5-11.3-8.5-12.3-7.5 19.8-6.3 19.9-5.3-5.7 9.5-4.7 9.6h30.2L228 73.2l-5.7-11.7 21.8 3.2c12.3 1 30.2-2 39.7-6.4l17-7.4 5.6 5.3 5.7 6.4 15.1-9.6c8.5-4.2 45.4-13.8 81.3-20 36.8-6.5 93.5-16 125.7-21.4L594.6 1l43.5 36.1c103 81.7 177.7 78.4 405.4 131.5l50-16.9 45.5-46.2 106.5 51.6 74.8 90.2v-19l-64.2-2.3-203.2-35c-143.6-32.9-274-75.3-299.5-96.6l-14.2-11.6 23.6 6.3c92.5 20 185.5 38.1 278.8 54.2l104 17 37.7-3.2-194.6-36L795 84.8l-62.4-21.3-62.4-21.1-22.6-21.2L625.8 1l26.5-1h25.5v21.2h29.3l-5.7 10.6-5.6 10.6H725v-20l17-4.4 16.1-3.2 23.6 12.8 23.7 12.8 113.4 7.4c62.3 3.2 142.6 11.7 178.5 17l65.3 9.6 104.8 71c57.7 39.3 114.4 78.6 125.7 88.2l20.8 18-14.2 29.7c-15 32-18 51-3.8 26.6 13.3-23.4 16.1-10.6 11.4 42.4l-4.7 47.8-7.6-21.2-7.6-21.3v16c-.9 23.3 14.9 42.4 52.6 62.6v-13.5l-20.4-13-5.7-46.8h18l-8.6 47.8 16.7-39.4v90.5c-16.1 1.1-37.4 7.3-41.2 10.5l-5.7 7.4-13.1-12.6-13.2-11.7 2.8 15 2.8 14.7-61.4 1c-34 1.1-72.8 4.3-86 8.6l-25.5 8.5-18.9-23.4Z"/><path fill="#305673" d="M908.9 174.7h-7.3l-.1-3.9c-2.6-.2-10.2-.2-22.8 0l-.2 5.3h23.7c3.6.2 6.5 3 6.6 6.5v6.7a6.9 6.9 0 0 1-6.7 6.4c-8 .4-16.1.4-24.2 0a6.9 6.9 0 0 1-6.7-6.4v-4.6h7.2l.2 4c3.9.3 7.5.2 11.4.2 4 0 7.6-.1 11.4-.3l.1-5.4h-23.7c-3.6-.1-6.5-3-6.6-6.4v-4l.1-2.6c.1-3.5 3-6.3 6.6-6.5 8-.4 16.1-.4 24.2 0a7 7 0 0 1 6.7 6.5l.1 4.5Zm116 0h-7.3l-.1-3.9c-2.6-.2-10.2-.2-22.8 0l-.2 5.3h23.7c3.6.2 6.5 3 6.6 6.5v6.7a6.9 6.9 0 0 1-6.7 6.4c-8 .4-16.1.4-24.2 0a6.9 6.9 0 0 1-6.7-6.4v-4.6h7.2l.2 4c3.9.3 7.5.2 11.4.2 4 0 7.6-.1 11.4-.3l.1-5.4h-23.7c-3.6-.1-6.5-3-6.6-6.4v-4l.1-2.6c.1-3.5 3-6.3 6.6-6.5 8-.4 16.1-.4 24.2 0a7 7 0 0 1 6.7 6.5l.1 4.5Zm-440.5-11.4-15 32.6h-6.8l-10-21.9-10.1 21.9h-6.9l-15-32.6h8.1l10.3 22.5 10.3-22.5h6.3l10.3 22.5 10.4-22.5h8.1ZM1141 196c-4.2 0-8.4-.1-12.5-.3a6.9 6.9 0 0 1-6.7-6.4c-.3-6.4-.3-12.8 0-19.1.2-3.6 3-6.4 6.7-6.5 4.1-.2 8.3-.3 12.5-.3l12.5.3a7 7 0 0 1 6.6 6.4c.3 6.4.3 12.8 0 19.2-.2 3.5-3 6.2-6.6 6.4l-12.5.3Zm-12-25.2c-.2 6-.2 11.9 0 17.8 3.9.3 19.8.2 23.7 0 .3-6 .3-11.9 0-17.8H1129Zm-522 25c-4.2 0-8.4-.1-12.5-.3a6.9 6.9 0 0 1-6.7-6.4c-.3-6.4-.3-12.8 0-19.1.2-3.6 3-6.4 6.7-6.5 4.1-.2 8.3-.3 12.5-.3l12.5.3a7 7 0 0 1 6.6 6.4c.3 6.4.3 12.8 0 19.2-.2 3.5-3 6.2-6.6 6.4l-12.5.3Zm-12-25.2c-.2 6-.2 11.9 0 17.8 3.9.3 19.8.2 23.7 0 .3-6 .3-11.9 0-17.8H595Zm67.7-7.3a7 7 0 0 1 6.7 6.6v8.4a7 7 0 0 1-6.7 6.5h-2.8l16.1 11h-13.1l-16.2-11h-5.6v11h-7.3v-32.6h28.9v.1Zm-21.6 7.3v7H662v-7h-20.9Zm63.3 25.2h-27.6v-32.6h7.4v25.3h20.2v7.3Zm3.2-32.6h33a7 7 0 0 1 6.7 6.7V189a7 7 0 0 1-6.7 6.7h-31.1v-25.3h-1.9v-7.2Zm32.4 7.5h-23.2l.2 17.8h23v-17.8Zm52.2 3.8h-7.3l-.1-3.9c-2.6-.2-10.2-.2-22.8 0l-.2 5.3h23.7c3.6.2 6.5 3 6.6 6.5v6.7a6.9 6.9 0 0 1-6.7 6.4c-8 .4-16.1.4-24.2 0a6.9 6.9 0 0 1-6.7-6.4v-4.6h7.2l.2 4c3.9.3 7.5.2 11.4.2 4 0 7.6-.1 11.4-.3l.1-5.4h-23.7c-3.6-.1-6.5-3-6.6-6.4v-4l.1-2.6c.1-3.5 3-6.3 6.6-6.5 8-.4 16.1-.4 24.2 0a7 7 0 0 1 6.7 6.5l.1 4.5Zm7.2 21.3v-32.6h31v7.3h-23.6v5.3h21.5v7.4h-21.5v12.6h-7.4Zm28.9.2 14.9-32.6h10l15 32.6H860l-2.8-6h-18.1l-2.9 6h-7.9Zm25.6-13.4-5.4-11.8h-.5l-5.4 11.8h11.3Zm206.5-11.9h-11.8V196h-7.4v-25.3h-11.8v-7.3h31v7.3Zm-115.8 0h-11.8V196h-7.4v-25.3h-11.8v-7.3h31v7.3Zm36.3 5.3v7.4h-23.6v5.3h23.6v7.3h-31v-32.6h31v7.3h-23.6v5.3h23.6Zm90 12.7v7.3h-7.4v-7.3h7.4Zm36.7-4h7.5l-.2 4.6a6.9 6.9 0 0 1-6.7 6.4c-8.3.4-16.6.4-24.9 0h-.1a7 7 0 0 1-6.6-6.4c-.4-6.4-.4-12.8 0-19.1.1-3.5 3-6.3 6.6-6.5l12.5-.3c4.2 0 8.3.1 12.5.3a7 7 0 0 1 6.7 6.5l.1 2.6v2h-7.5l.1-4-11.9-.3-11.7.2c-.3 6-.3 12 0 17.9 3.9.3 7.8.3 11.7.3 4 0 8-.1 11.9-.3v-3.9Zm102-21.3V196h-7.4v-20.3l-10.7 20.3h-5.8l-10.7-20.3V196h-7.4v-32.6h9.2l11.8 22.2 11.8-22.2h9.2Z"/><path fill="#a73a24" d="M42.7 413.7c-3.3 9.4-12 32.8-18.7 51.5l123.4 53c14.3-37 32-87 36.3-104.5 19.8-65.2 40.8-130.8 45.2-136.4 3.3-3.8 5.5-19 6.6-33.8l1-27.1 28.7 1.5 29.8 1.7 37.4-5.6 38.6-5.6-35.3-2.2c-18.7-1-54-1.6-77-1.3l-42 1-14.3-2.8-15.4-2.5 7.7 3.4 6.6 3.4-25.3 4.4 14.3-6.6-27.5-2.8 66-10-71.5 2.5 11-5.3-66-4.3v-5.8H145l14.4-6.5-14.3-4.2-19.9 9.2 1.1-6.6 2.2-6.2 28.7 1.2 29.7 1.3V158l-28.6-3.1 12.1 9H165c-3.3 0-13.2-1-23.1-1.8l-17.7-2 12.2-5.5h-23.2v5.6c0 3-7.7 8.7-17.6 12.5-8.8 3.7-13.2 6.8-10 6.8h6.7L78 186l-30.9-7.2 1.1 8.8 1.1 9 11.1-7.7h16.5a141 141 0 0 1 32 4.6l16.4 4.7H89l8.8 21.6-15.4-2.9-13.2 9.7 27.5-4.7L67 232.5l13.2 10.3-23.2 8 3.4 12 3.3 11.9 48.4-53.1-6.6 15.6c-3.8 7-6.4 14.6-7.7 22.5l-1.1 6.5-7.7-1.5-8.8-1.3v6.6h26.4l-40.8 8.4 6.7 4.4 5.5 4.4 2.2-11h22v8.8l34.2 3.8-12.2 6.2-12 6.2 6.5 3 6.6 3.3H100l7.7 9.3 7.7 9.4H91.2v7.2a36 36 0 0 1-6.6 17.8c-3.3 5.9-7.7 15.3-11 20.3a36 36 0 0 0-5.5 15.6v6l-10 1.8-9.9 1.9-5.5 16.8Z"/><path fill="#fff" d="m1032.8 284 .4.1c.4 0 .5.2.5.2v.6l5.4.4q-2.3.4-10 .4l-1.8.4h3.2l.5.1 7.8.2-1.1.1-4 .4-2.5.3q0 .2-.4.2l-2.5.3c.3.1-.5.1-1.7.1l-2 .1 1.2.2-.7.1-.5.1h-3.9l-3.1.1-3 .1-1.5.2-1.5.1v.4l-1.5.2h-7.5l-19.2.6-5.9.3 1.7.2 1.7.3h5l.2.2h-1.5l.2.3c.1.1.5.3.9.3h.7v-.2h1l2.2.2h1.3l-1.4.2h.1v.5h3.1l-.6.1-1.5.1h-1l1.4.2 1.8.1 2.8.8.7.3h1.5l1.5.2h-1.4c-3.1.3-6.3.3-9.4.3h-1.8c.1.1-.6.1-1.4.3h-3.7l.8.1h.7l-1.2.1c-.7 0-1.3.2-2 .3l-.9.2h1.4l-1.7.3-1 .2h-2.6l.3.3c.4.4.4.5-.3.8l-.6.2.8.2 1 .2h-2l.5.1h-7.6c-4 0-8 0-12 .2l-2.8.1-2.3.3 2.8.2h1.4v.2l.6.6.7.3 3 .4-1 .1h-.2l-5.4.1h-2.4l-1.1.6-.6.4h.6l.5.2h7.7l1.9.1v.2h1.8l1.8.2h4.6c5.2 0 6.8.1 7.3.2l.3.2h-1.2l-1.2.2 21.9.6-.6.2-3.5.3h-1.6l.5.5h-3.6l.4.2h4.1l.7.5 3 .3 3 .2 1 .2c1.3.3 2.7.5 4 .5l2.1.2.6.1-2 .2h-4.8l-10.3.3 1.2.1h1.2l-1.3.5-1.2.5 1.7.4-4.3.3-2 .3 6 .4 2.9.1.4.5h3.7l9 .3 2.9.1-1.4.1a39 39 0 0 1-4.2.3l-2.9.1 1.7.2 1.5.3-1.4.1h.4l2 .1v.2h1l1.6.1.8.2h4.1l1.2.1h1.3l3.6.1h3.8l-.5.2-1 .2h-2.5l.6.2h.5l-3.6.5h-.9l2.8.2 2.6.4v.1h-3.6l-10.1.1-8 .7-2.9.2.2.2.4.3 1 .2 2.8.3c.9 0 1.5.2 1.5.2v.1l-14.6.2h-2.6c.2 0 .1.1-.3.2h-.7l2.2.1 4.7.2 2.5.2v.2h-3l-1.4.2H984l-3.4.2-3.5.1.2.2.4.2h-3.3v.2h-6.7l.2 1.2 2.5.2 3.3.3.8.2h8.4l-.5.1-.6.1h-1.5l1.2.3.6.2h-1l-1-.1-1.7.2-2.3.3h-2.7l-.8.2-2.2.3h-1.5l.1.3v.5l-.2.2 1.2.2 1.1.2-16.8.7.7.1h22c1.9 0 3.9.2 3.9.3v.1l2.1-.1v.2h10.8l3.1.2-.2.1v.2h.8l1 .1v.3l36.5 2.1 5.3.3 1.2.1 8.2.5 2.5.3-1.3.1-9.6.4-1.6.1-17 .3-14.7.4h-1.9v.2l1.6.1h1.6v.2h2.1l.6.1h10.5c-.1.1.1.2.4.2l1.3.2h.5l.3.1.7.4q.2.2.2 1h3l9.9.2-2 .5h-1.6l-.4.5 3.2.2v.2l-8.7.1-3.3.3-1 1h4.2v.2h-3.3v.3h-3.1l-8 .3-4.5.2.8.1.7.2H443.3l1.5-.3-10.7-.4-4.9-.1v-.3h-3.3v-.2h4.2l-1-1-1.6-.1-1.7-.2-8.7-.1v-.2l3.2-.2-.4-.5h-1.5l-.7-.1-1-.3 6.5-.1 3-.2h3v-.3c-.2-.1 0-.5.2-.7l.7-.4h1.5l1.5-.1h-2.2l1.3-.2c.3 0 .5-.1.4-.2h10.3l.7-.1h2.1v-.2h1.6l1.6-.1v-.2l-26.8-.7-8.4-.1-10.9-.5 2.5-.3 14.7-.9 32.7-1.9 3.8-.2v-.3l1-.1h.8v-.2l-.2-.1 1.5-.1 1.6-.1H472v-.2h1.1l1.1.1v-.1c0-.1 2-.3 3.9-.3H500l.7-.1-4.2-.2-4-.2h-.8l-6-.3H484l1.1-.2 1.2-.2-.2-.2v-.5l.1-.3h-1.5l-2.2-.3-.8-.2H479l-4-.5-1 .1h-1l.6-.2a4 4 0 0 1 1.2-.3h-1.5l-.6-.1-.5-.1h8.4l.8-.2 5.8-.5v-.1l.1-.6.1-.5h-6.7v-.2h-3.4l.4-.2.2-.2-6.9-.3h-2.3l-1.4-.2h-3v-.2l2.5-.2 4.7-.2 2.2-.1h-.7c-.4-.1-.5-.2-.3-.2h-2.6l-8.8-.2h-5.8v-.1s.6-.2 1.5-.2l2.8-.3 1-.2.4-.3.2-.2-2.9-.2-5.3-.5-2.7-.2h-1.4l-8.7-.1h-3.6l2.6-.5 2.8-.2h-.9l-2.3-.3-1.3-.2h.5l.6-.2h-2.5l-1-.2-.5-.2h3.8l4.9-.1 1.2-.1h4.1l.7-.2 2.7-.1v-.2l2-.1-1-.1 1.5-.3 1.7-.2-2.9-.1a39 39 0 0 1-4.2-.3l-1.4-.1 2.9-.1 9-.3h3.7l.4-.5 2.9-.1 6-.4-1-.1-1-.2v-.1l-4.3-.2 1.7-.4-2.5-1 2.4-.1-10.3-.3H453l-2-.2.6-.1 2.1-.2a16 16 0 0 0 4-.5l1-.2 6-.5.7-.5h4.1l.4-.2h-3.6l.3-.2.2-.3h-1.6l-3.5-.3-.6-.2 7.2-.1 8-.3 6.7-.2-1.2-.2h-1.2l.3-.2c.5-.1 2.1-.2 7.3-.2h4.6l1.8-.2h1.8v-.2h1.9v-.1h7.7l.5-.2h.6l-.6-.4-.8-.4-.3-.2H503l-5.4-.1h-.2l-1-.1 3-.4.7-.3.6-.6v-.2h1.4l2.1-.2h.7l-1.2-.2-1.1-.1-2.8-.1c-4-.2-8-.2-12-.2h-7.6l.5-.1h-2l1-.2.8-.2-.6-.2c-.7-.3-.7-.4-.3-.8l.3-.3h-2.6l-1-.2-1.7-.3h1.4l-.9-.2a20 20 0 0 0-2-.3l-1.2-.1h.7l.8-.1h-3.7c-.8-.2-1.5-.2-1.4-.3h-1.8c-3.1 0-6.3 0-9.4-.3h-1.4l1.5-.2h1.5l.7-.3 2.8-.8 1.8-.1 1.4-.2-2.5-.1-.6-.1h3.1v-.5h.1l-1.4-.2h1.3l3.2-.2v.2h.7c.4 0 .8-.2.9-.3l.2-.3h-1.5l.2-.2h5l1.7-.3 1.7-.2-5.9-.3-19.2-.6h-7.5l-1.5-.2v-.4l-1.5-.1-1.5-.2-3-.1-3.1-.1h-3.9l-.5-.1-.7-.1 1.2-.2q-4-.1-3.7-.2l-2.5-.3h-.9l.7-.1h-1.6l1.5-.1-6.6-.7-1.1-.1 4.5-.2h3.3l.5-.1h3.2l-1.8-.4-4.5-.1a66 66 0 0 1-5.5-.3l5.4-.4v-.6s.1-.2.5-.2l.4-.1h610.6Z"/><path fill="#a73a24" d="M285.2 164a6 6 0 0 1 5.7 5.7l.2 2.8v1h-5.5v-3.4l-.2-.5c-.1-.2-.3-.2-.5-.2l-12.1-.3c-4 0-8.2.1-12.2.3l-.4.2c-.2.1-.2.2-.2.4a207 207 0 0 0 .2 19.7l.4.1c4 .3 8.2.3 12.2.3s8.2-.1 12.2-.3l.4-.1.2-.5v-3.4h5.5v1.1l-.2 2.6a6 6 0 0 1-5.7 5.7c-8.3.4-16.5.4-24.8 0a6 6 0 0 1-5.7-5.7c-.4-6.6-.4-13.2 0-19.8v.1-.1a6 6 0 0 1 5.7-5.7c8.3-.4 16.5-.4 24.8 0m82.2 4.7H344v11h23.5c.4-.1 1.5-1.2 1.5-1.5v-8l-1.6-1.5Zm90.4.7-12.1-.3c-4 0-8.2.1-12.2.3l-.5.2-.1.4a207 207 0 0 0 0 19.3l.1.4.4.1c4.1.3 8.3.3 12.3.3s8.1-.1 12.1-.3h.1l.3-.1c.2-.1.2-.3.2-.5.4-6.3.4-12.8 0-19.1l-.2-.5c-.1-.2-.2-.2-.5-.2h.1m-24.5 24.8-.1 1a6 6 0 0 1-5.7-5.7 218 218 0 0 1 0-19.8v.1-.1a6 6 0 0 1 5.7-5.7c4.1-.2 8.3-.3 12.5-.3l12.4.3h-.1.1a6 6 0 0 1 5.7 5.7c.3 6.6.3 13.2 0 19.8a6 6 0 0 1-5.7 5.7l-12.4.3c-4.2 0-8.4-.1-12.5-.3h.1v-1Zm-106.3.2-2.5-5.6H305l-2.8 6.1h-5.8l.6-1.4 13.1-28.6.3-.6h8.7l.4.6 13 28.6.7 1.4h-5.9l-.3-.5Zm40.7-30.1a6 6 0 0 1 5.7 5.7v8.3a6 6 0 0 1-5.8 5.8h-5.7l13.2 9 2.6 1.8h-9.5l-.3-.1L352 184h-6.9v10.9h-5.3v-30.6h27.9Zm48.7 10.6c0 .5 0 1-.3 1.5 1.4 1 2.4 2.6 2.4 4.5v8.3a6 6 0 0 1-5.7 5.7h-30v-30.6h27.9a6 6 0 0 1 5.7 5.7v4.9Zm-28.3-5.3.1 5.6h22.3l.4-.2.2-.4v-4.3l-.2-.5-.4-.2h-22.4Zm121.3-5.3v30.6H502l-.3-.3-22.7-24.4v24.7h-5.4v-30.6h7.4l23 25v-25h5.4Zm13.1 25.3v5.3h-5.4v-5.3M322 183.4l-6.4-13.8H314l-6.4 13.8H322Zm90.7 6.2.3-.2c.2-.1.2-.3.2-.3v-8l-.2-.4-.4-.1h-24.4v9h24.5Z"/><path d="M772.6 309.6v4h-13.8v3.4h13.8v4h-17.8v-18.8h17.8v4h-13.8v3.4h13.8Zm-18.1-3.4h-6.9V321h-4v-14.8h-6.8v-4h17.7v4ZM722.8 321h-18.4v-18.8h4V317h11.8l6.8-14.8h5.7l8.6 18.8h-4.4l-1.6-3.6h-10.9l-1.6 3.6Zm10.7-7.6-3.3-7.2h-.7l-3.3 7.2h7.3Zm-57.7 1.4h4l-.1 2.6c-.1 2-1.7 3.7-3.7 3.7-2.5.2-4.9.2-7.3.2l-7.3-.2-3.8-15.3a4 4 0 0 1 3.8-3.8l7.3-.1 7.4.1a4 4 0 0 1 3.7 3.8v2.6h-4.1V306h-14a104.6 104.6 0 0 0 0 11.1c2.4.2 4.7.2 7.1.2 2.3 0 4.6 0 6.9-.2l.1-2.3Zm-14.4 6.3a4 4 0 0 1-3.8-3.7c-.2-3.9-.2-7.8 0-11.6l3.8 15.3Zm-4-.1h-19.9l-1.6-3.6H625l-1.6 3.6H619l8.6-18.8h5.7l8.2 18v-18h4V317h11.9v4Zm-23.3-7.6-3.3-7.2h-.6l-3.3 7.2h7.2Zm-18 1.4h4v1l-.1 1.6c-.1 2-1.7 3.7-3.7 3.7-2.4.2-4.9.2-7.3.2l-7.3-.2c-2-.1-3.7-1.7-3.7-3.7-.2-3.9-.2-7.8 0-11.6a4 4 0 0 1 3.7-3.8l7.3-.1 7.3.1a4 4 0 0 1 3.8 3.8v2.6h-4l-.1-2.4-7-.2-7.1.2c-.2 3.7-.2 7.4 0 11.1 2.3.2 4.7.2 7.1.2s4.7 0 7.1-.2v-2.3Zm64.6-12.8h4v15l-.2 4a4 4 0 0 1-3.8-3.8V302Zm18.1 0h4v15.2a4 4 0 0 1-3.7 3.8l-7.3.1-7.3-.1.2-4h14.1v-15Z"/><path fill="none" stroke="#a73a24" stroke-width="2" d="M1287.8 204.4c5-4 10-10 16.9-11.6l5-10.6c-6.3-.5-11.9-1-17.5 1.5-10 4-11.8 14.6-4.4 20.7Zm0 0c0 2-.6 5 .7 7 1.8 3.6 5 6.2 6.2 10.2 1.2 7.6-1.3 15.2 1.9 22.7 2.5 6.6 11.8 14.2 18 18.7m-26.8-58.6 64.9 16.7-.7 10.6-10.5 9.6-26.9 21.7m0 0c.7 14.2 16.3 30.4 2 42l-2-42Zm127.2 54.6c-7.5 0-20.6 1-28-.5l38-33.3m-54.9 47 15.6-12.2m-13.7 89c-5 4-11.2 12.1-18 13.6-8.8 2.6-19.4-1-28.1.6-5 1-10 6.5-15.6 5.5-6.9-2-10.6-11.6-15.6-15.7-2.5-2-6.2-3-8.1-5.5-5-7 1.9-16.7-1.9-23.8-.6-2.5-4.3-4-6.2-6l-15-12.2 162.7 6.7c-1.2 7.6 2.5 18.7-1.2 25.8-1.3 2-4.4 3.5-6.3 5a233 233 0 0 1-19.3 12.7c-2.5 1.5-5.6 4.5-9.3 4.5-7.5-.5-13.8-7.6-18.1-11Zm0 0v-27.3m-50.5 105.1c-5-5.5-1.9-10-4.4-16-1.2-4.7-7.4-7.2-8.7-11.8-2.5-9 1.3-19.7 1.3-29.3l30.5 46c-8.1 0-13 7.1-18.7 11.1Zm0 0c0 2.6 0 4 2.5 5.6l-2.5-5.6Zm3.1 15.7c6.9-5.5 11.2-11 21.2-10l-3.1-8c-11.8 0-21.8 8-18 18Zm0 0c0 5 5.6 11.1 11.2 12.6 2.5 1 6.3 0 8.8 0m23.6-315.9c3.8-.5 7.5-.5 11.3-1 6.2-1 15-4 21.2-2 5 2 11.2 11.1 8.7 15.7-3.8 6.5-12.5 10-20.6 11.6l-20.5-24.3Zm42.4 13.7 4.4 8-4.4-8Zm-97.2 11.6-.6 7.6-8.8 8-21.8 17.8 31.2-33.4Zm-84.8 7.6c1.9 7 4.4 13.6 6.3 20.7.6 3.6 0 8.1 2.5 11.1 2.5 4 8.7 7.6 12.4 10.7l26.8 21.7c3.8 3 8.8 6.6 11.9 10.1 2.5 3 3 7 7.5 8a44.3 44.3 0 0 0 19.9 0c3.7-1 7.5-5.5 10.6-8l25-20.2c5-4 13.6-9 16.8-14.2 2.4-4-1.3-11-1.3-15.6l-138.4-24.3Zm-23.7 1.5c.7 10.6 7.5 19.7 6.9 30.3 0 2.6-2.5 3.6-3.1 5.6-1.9 3.5-1.3 9.6 1.8 12.6 3.2 3.6 8.8 6.6 13.1 9.6 8.8 6.6 17.5 13.2 26.2 20.3 3.8 3 11.9 7 13.1 11 2.5 9.7 0 22.3 0 32 0 3 1.3 8.5-.6 11-6.9 8.6-19.3 15.7-28 22.8-3.2 2.5-8.2 5.5-10 8.6-2 4 6.2 5.5 5.6 9.6-1.3 8-1.3 16.7-3.8 24.7-1.2 4-3 8.1-4.3 12.2l-16.9-210.3Zm174 15.7c1.2 5-7 9-10.7 12.1l10.7-12Zm-177.7 9.6c0 4.5 3.7 7 7.5 10l-7.5-10Zm93.5 56.1a39.2 39.2 0 0 1-15.6 5c-5.6.5-11.2-1-16.2 1.6l31.8-6.6Zm21.8 0c5.6 3.5 10.6 7 15.6 11.1 2.5 2 5 5 8.7 6 6.3 1 14.4 0 20.6 0 2.5 0 6.2-.4 8.1 1 3.7 2.6 2.5 9.2 2.5 12.7v35c11.2-3.6 16.2-15.8 26.8-20.3 3.7-1.5 6.9 0 10.6.5 6.2.5 11.8 0 18 .5l-110.9-46.5Zm70.5 4c0 3.6 6.2 7.1 9.3 9.6 3.7 3 7.5 7.1 11.8 9.1 3.2 1.6 8.1.5 11.9.5q7.5 0-33-19.2Zm-94.8 91.5c7.5-6 15.6-15.6 25-19.7 5-1.5 11.8 0 16.8-.5 2.5 0 5-1 7.5-1.5 10-.5 19.9 0 29.9 0l-79.2 21.7Zm-6.2-3-18.1 14.6c-5 4-9.4 7.1-8.7 13.2l26.8-27.8Zm102.8 13.6c-1.2 4-6.2 7.1-10 10.1-8 6.6-15.5 14.7-24.9 19.8l35-29.9Zm-.6 3c5 5.1 3.1 10.2 3.7 16.2.7 4.6 5.6 9.1 5.6 13.2 0 2.5-3.7 4.5-5.6 6-5.6 4.6-12.4 12.7-20.5 13.7l16.8-49Zm21.8 45.1c-2.5 2-4.3 3.5-4.3 6s1.8 3.6 2.4 5.6m-11.2-25.3c1.3 1.5 1.9 3.5 0 5a60.5 60.5 0 0 1-21.8 17.2l21.8-22.2Zm1.3 5.6c3 4.5 1.8 8.6 7.5 12.1l-7.5-12Z"/><text stroke-width="0" dx="0" dy="0" font-family="Arial" font-size="22.8" font-weight="700" letter-spacing=".1" transform="translate(439 254.5)"><tspan y="0">Find out how much carbon your website is emitting</tspan></text></svg>