<svg xmlns="http://www.w3.org/2000/svg" shape-rendering="geometricPrecision" text-rendering="geometricPrecision" viewBox="0 0 1440 519"><g clip-path="url(#a)"><path fill="#3f8ca8" d="M663.2 126.4q635.5 30 676.1 31.1h74.6l10.6 17.3 10.1 16.5L1355 242q-86.3 54.8-254.8 184.5L972.7 439l-14.1-18.3-14.2-18.2-300.1 38.3-88-3.2-23 14.1L510 466l-45.5-26c-25.3-14.5-53.9-31.2-64.1-36.3-10.3-5.1-25.3-14.6-34.9-20.2q-8.7-6-283.5-161"/><path fill="#f3c010" d="m1180.5 475.2-18.9-22.3-38.7-1H1084v-12.8c0-17 12.3-34 28.4-41.4l14.1-5.3-92.6 4.3-92.6 4.2-18 10.6c-12.6 6.3-26.4 10-40.5 10.6h-22.7l4.7 26.6 3.8 26.5h-49.2v-31.8l-25.4 5.2a1440 1440 0 0 0-76.5 23.3l-50 16-13.3-12.8-14.2-12.5 4.7-9.6 5.7-8.5-21.7-12.7-21.8-12.7-34-2.2-33-2-39.7-24.5-40.7-25.5-29.3 12.8-29.3 12.7-14.1-13.8-14.2-12.7-4.7 13.8-3.8 13.8-11.4-18-11.3-17-75.6-2.2-74.6-1-143.8 58.2-16-6.3c-19-8.5-19-13.8 0-38.3l16-19-16-5.4c-8.5-3.2-23.9-7.7-31.4-10.9v-76.3c15.2-13 40.2-38.3 49.3-56l13.2-26.6 1 23.3v23.4l-15.1 16-14.2 17h9.5c13.3 0 29.3-35.2 29.3-64.8v-22.3l-18.9 5.3-18.9 5.3v-48.8l21.8-6.5c11.3-3.2 31.2-6.4 44.4-6.4s40.6-5.3 60.5-11.7L198.7 91l-11.3-8.5-12.3-7.5 19.8-6.3 19.9-5.3-5.7 9.5-4.7 9.6h30.2L228 70.8l-5.7-11.7 21.8 3.2c12.3 1 30.2-2 39.7-6.4l17-7.4 5.6 5.3 5.7 6.4 15.1-9.6c8.5-4.2 45.4-13.8 81.3-20 36.8-6.5 93.5-16 125.7-21.4l60.4-10.6 43.5 36.1c103 81.7 177.7 78.4 405.4 131.5l50-16.9 45.5-46.2 106.5 51.6 74.8 90.2v-19l-64.2-2.3-63.3-1-139.9-34c-143.6-32.9-274-75.3-299.5-96.6l-14.2-11.6 23.6 6.3c92.5 20 185.5 38.1 278.8 54.2l104 17 61.4 24.3c34 13.8 93.5 2.2 104 6.4l-4.8 35-9.5-11.6c-4.7-6.4-33-21.3-61.4-34l-52-23.3-194.6-36L795 82.4l-62.4-21.3L670.2 40l-22.6-21.2-21.8-20.2 26.5-1h25.5v21.2h29.3l-5.7 10.6-5.6 10.6H725V20l17-4.4 16.1-3.2 23.6 12.8L805.4 38l113.4 7.4c62.3 3.2 142.6 11.7 178.5 17l65.3 9.6 104.8 71c57.7 39.3 114.4 78.6 125.7 88.2l20.8 18-14.2 29.7c-15 32-18 51-3.8 26.6 13.3-23.4 16.1-10.6 11.4 42.4l-4.7 47.8-7.6-21.2-7.6-21.3v16c-.9 23.3 19 45.6 56.7 65.8l-.9-15.9-23.6-13.8-2.9-23.4-2.8-23.4h18l-3.8 24.5-4.8 23.3 11.4-26.5 10.4-26.6L1516 453l-82.2 6.3c-16.1 1.1-31.2 5.4-35 8.6l-5.7 7.4-13.1-12.6-13.2-11.7 2.8 15 2.8 14.7-61.4 1c-34 1.1-72.8 4.3-86 8.6l-25.5 8.5-18.9-23.4Z"/><path fill="#a73a24" d="M42.7 413.7c-3.3 9.4-12 32.8-18.7 51.5l123.4 53c14.3-37 32-87 36.3-104.5 19.8-65.2 40.8-130.8 45.2-136.4 3.3-3.8 5.5-19 6.6-33.8l1-27.1 28.7 1.5 29.8 1.7 37.4-5.6 38.6-5.6-35.3-2.2c-18.7-1-54-1.6-77-1.3l-42 1-14.3-2.8-15.4-2.5 7.7 3.4 6.6 3.4-12 2.2-13.3 2.2 7.7-3.4 6.6-3.2-13.2-1.2-14.3-1.6 33-5 33-5-36.3 1.3-35.2 1.2 5.5-2.8 5.5-2.5-33-2.2-33-2.1v-5.8H145l6.7-3.4 7.7-3.1-7.7-2.2-6.6-2-10 4.5-9.9 4.7 1.1-6.6 2.2-6.2 28.7 1.2 29.7 1.3V158l-14.3-1.6-14.3-1.5 6.6 4.7 5.5 4.3H165c-3.3 0-13.2-1-23.1-1.8l-17.7-2 6.6-2.7 5.6-2.8h-23.2v5.6c0 3-7.7 8.7-17.6 12.5-8.8 3.7-13.2 6.8-10 6.8h6.7l-6.6 3.2L78 186l-15.4-3.8-15.5-3.4 1.1 8.8 1.1 9 5.5-3.7 5.6-4h16.5a141 141 0 0 1 32 4.6l16.4 4.7H89l4.4 10.6 4.4 11-7.7-1.6-7.7-1.3-6.6 5-6.6 4.7 14.3-2.2 13.2-2.5-15.4 5.3-14.3 5.3 6.6 5 6.6 5.3-11 4-12.2 4 3.4 12 3.3 11.9 24.2-26.6 24.2-26.5-6.6 15.6c-3.8 7-6.4 14.6-7.7 22.5l-1.1 6.5-7.7-1.5-8.8-1.3v6.6h26.4l-19.8 4-21 4.4 6.7 4.4 5.5 4.4 1-5.3 1.2-5.7h22v8.8l16.5 1.8 17.7 2-12.2 6.2-12 6.2 6.5 3 6.6 3.3H100l7.7 9.3 7.7 9.4H91.2v7.2a36 36 0 0 1-6.6 17.8c-3.3 5.9-7.7 15.3-11 20.3-3 4.7-4.9 10-5.5 15.6v6l-10 1.8-9.9 1.9-5.5 16.8Z"/><path fill="#fff" d="M762 337h249.8l-.7-.2-.8-.1 4.5-.2 6.3-.2 1.7-.1h3.1v-.3h3.3v-.2h-4.2l1-1 1.6-.1 1.7-.2h4.4l4.3-.1v-.2l-3.2-.2.4-.5h1.6l2-.5h-6.9l-3-.2h-3v-.3c.2-.1 0-.5-.2-.7l-.7-.4-.3-.1h-.5l-1.3-.2c-.3 0-.5-.1-.4-.2h.2-10.7l-.6-.1h-2.1v-.2h-1.6l-1.6-.1v-.2h1.9l10-.4h4.7l10.2-.3h6.8l1.6-.1 9.6-.4 1.3-.1-2.5-.3a211 211 0 0 1-8.2-.5l-1.2-.1-5.3-.3-13.8-.7-9.3-.6-9.6-.6-3.8-.2v-.3l-1-.1h-.8v-.2l.2-.1-1.5-.1-1.6-.1H983v-.2l-2.1.1v-.1c0-.1-2-.3-3.9-.3h-22l-.7-.1 16.8-.7-1.1-.2-1.2-.2.2-.2v-.5l-.1-.3h1.5l2.2-.3.8-.2h2.7l2.3-.3 1.7-.2 1 .1h1l-.6-.2a4 4 0 0 0-1.2-.3h-.5 2l.6-.1.5-.1h-8.4l-.8-.2a62 62 0 0 0-3.3-.3l-2.5-.2-.1-.7-.1-.5h6.7v-.2h3.3l-.4-.2-.2-.2 3.5-.1 3.4-.2h-1 3.3l1.4-.2h3v-.2l-2.5-.2-4.7-.2-2.2-.1h.7c.4-.1.5-.2.3-.2h-.6 3.2l8.8-.2h5.8v-.1s-.6-.2-1.5-.2l-2.8-.3-1-.2-.4-.3-.2-.2 2.9-.2 5.3-.5 2.7-.2h1.4l8.7-.1h3.6v-.1l-2.6-.4-2.8-.2h.9l3.6-.5h-.5l-.6-.2h2.5l1-.2.5-.2h-3.8l-3.6-.1h-1.3l-1.2-.1h-4.1l-.8-.2-1.6-.1h-1v-.2l-2-.1H999h1.4l1.4-.1-1.5-.3-1.7-.2 2.9-.1a39 39 0 0 0 4.2-.3l1.4-.1-2.9-.1-9-.3h-3.7l-.4-.5-2.9-.1-4.5-.3-1.5-.1 2-.3 2.1-.2 2.2-.1-1-.2-.7-.2 1.2-.5 1.3-.5h-1.2l-1.2-.1h3.5l6.8-.3h4.8l2-.2-.6-.1-2.1-.2a16 16 0 0 1-4-.5l-1-.2-3-.2-3-.3-.7-.5h-4.1l-.4-.2h3.6l-.5-.5h1.6l3.5-.3.6-.2h-3l-18.9-.6 1.2-.2h1.2l-.3-.2c-.5-.1-2.1-.2-7.3-.2h-4.6l-1.8-.2h-1.8v-.2h-1.9v-.1H949l-.5-.2h-.6l.6-.4.8-.4.3-.2h2.4l5.4-.1h-1 1.2l1-.1-1.5-.2-1.5-.2-.7-.3-.6-.6v-.2h-1.4l-2.1-.2h-.7l1.2-.2 1.1-.1 2.8-.1c4-.2 8-.2 12-.2h8.2-.6l-.5-.1h2l-1-.2-.8-.2.6-.2c.7-.3.7-.4.3-.8l-.3-.3h2.6l1-.2 1.7-.3h.7-2.1l.9-.2a20 20 0 0 1 2-.3l1.2-.1h-.7l-.8-.1h3.7c.8-.2 1.5-.2 1.4-.3h1.8c3.1 0 6.3 0 9.4-.3h-1 2.4l-1.5-.2h-1.5l-.7-.3-2.8-.8-1.8-.1-1.4-.2h1l1.5-.1.6-.1h-3.1v-.5h-2.2 2.1l.7-.1.7-.1h-1.3l-2.2-.2h-1v.2h-.7c-.4 0-.8-.2-.9-.3l-.2-.3h1.7-.2l-.2-.2h-5l-1.7-.3-1.7-.2 5.9-.3a853 853 0 0 1 19.2-.6h7.5l1.5-.2v-.4l1.5-.1 1.5-.2 3-.1 3.1-.1h3.9l.5-.1.7-.1-.6-.1-.6-.1 2-.1c1.2 0 2 0 1.7-.1l2.5-.3h1.6-.7l-.7-.1h3.1-1.5l-1.4-.1 2.5-.3 4-.4 1.1-.1-2.2-.1-2.3-.1h-3.3l-.5-.1h-3.2l.9-.2.9-.2 1.6-.1h2.9a66 66 0 0 0 5.5-.3l-2.7-.2-2.7-.2v-.6s-.1-.2-.5-.2l-.4-.1H522a10 10 0 0 0-10 10v33a10 10 0 0 0 10 10h240Z"/><path fill="#fff" d="M693 337H443.3l.7-.2.8-.1-4.5-.2-6.2-.2-1.8-.1h-3.1v-.3h-3.3v-.2h4.2l-.4-.5-.6-.5-1.6-.1-1.7-.2h-4.4l-4.3-.1v-.2l1.7-.1 1.5-.1-.2-.3-.2-.2h-1.5l-.7-.1-1-.3-.4-.1h6.9l3-.2h3v-.3c-.2-.1 0-.5.2-.7l.7-.4h1.5l1.5-.1h-2.7.5l1.3-.2c.3 0 .5-.1.4-.2h-.2 10.5l.7-.1h2.1v-.2h1.6l1.6-.1v-.2H447l-10-.4h-4.7l-10.2-.3h-6.8l-1.6-.1-9.6-.4-2-.1h.7l2.5-.3 8.2-.5 1.2-.1 5.3-.3 13.8-.7 9.3-.6 9.6-.6 3.8-.2v-.3l1-.1h.8v-.2l-.2-.1 1.5-.1 1.6-.1H472v-.2h1.1l1.1.1v-.1c0-.1 2-.3 3.9-.3H500l.7-.1-4.2-.2-4-.2h1.6-2.4l-2-.1-4-.2H484l1.1-.2 1.2-.2-.2-.2v-.5l.1-.3h-1.5l-2.2-.3-.8-.2H479l-2.3-.3-1.7-.2-1 .1h-1l.6-.2a4 4 0 0 1 1.2-.3h.5-2l-.6-.1-.5-.1h8.4l.8-.2 3.3-.3 2.5-.2v-.1l.1-.6.1-.5h-6.7v-.2h-3.4l.4-.2.2-.2-3.5-.1-3.4-.2h1.1-3.4l-1.4-.2h-3v-.2l2.5-.2 4.7-.2 2.2-.1h-.7c-.4-.1-.5-.2-.3-.2h.6-3.2l-8.8-.2h-5.8v-.1s.6-.2 1.5-.2l2.8-.3 1-.2.4-.3.2-.2-2.9-.2-5.3-.5-2.7-.2h-1.4l-8.7-.1h-3.6v-.1l2.6-.4 2.8-.2h-.9l-2.3-.3-1.3-.2h.5l.6-.2h-2.5l-1-.2-.5-.2h3.8l3.6-.1h1.3l1.2-.1h4.1l.7-.2 1.7-.1h1v-.2l2-.1h1.8-1.4l-1.4-.1 1.5-.3 1.7-.2-2.9-.1a39 39 0 0 1-4.2-.3l-1.4-.1 2.9-.1 9-.3h3.7l.2-.3.2-.2 2.9-.1 4.5-.3 1.5-.1-1-.1-1-.2v-.1l-2.1-.1-2.2-.1 1-.2.7-.2-1.2-.5-1.3-.5h1.2l1.2-.1h-3.9.4l-6.8-.3H453l-2-.2.6-.1 2.1-.2a16 16 0 0 0 4-.5l1-.2 3-.2 3-.3.3-.2.4-.3h4.1l.4-.2h-3.6l.3-.2.2-.3h-1.6l-3.5-.3-.6-.2h3l4.2-.1 8-.3 6.7-.2-1.2-.2h-1.2l.3-.2c.5-.1 2.1-.2 7.3-.2h4.6l1.8-.2h1.8v-.2h1.9v-.1h7.7l.5-.2h.6l-.6-.4-.8-.4-.3-.2H503l-5.4-.1h1-1.2l-1-.1 1.5-.2 1.5-.2.7-.3.6-.6v-.2h1.4l2.1-.2h.7l-1.2-.2-1.1-.1-2.8-.1c-4-.2-8-.2-12-.2h-8.2.6l.5-.1h-2l1-.2.8-.2-.6-.2c-.7-.3-.7-.4-.3-.8l.3-.3h-2.6l-1-.2-1.7-.3h-.7 2.1l-.9-.2a20 20 0 0 0-2-.3l-1.2-.1h.7l.8-.1h-3.7c-.8-.2-1.5-.2-1.4-.3h-1.8c-3.1 0-6.3 0-9.4-.3h1-2.4l1.5-.2h1.5l.7-.3 2.8-.8 1.8-.1 1.4-.2h-1l-1.5-.1-.6-.1h3.1v-.5h2.2-2.1l-.7-.1-.7-.1h1.3l2.2-.2h1v.2h.7c.4 0 .8-.2.9-.3l.2-.3h-1.7.2l.2-.2h5l1.7-.3 1.7-.2-5.9-.3-19.2-.6h-7.5l-1.5-.2v-.4l-1.5-.1-1.5-.2-3-.1-3.1-.1h-3.9l-.5-.1-.7-.1.6-.1.6-.1-2-.1c-1.1 0-2 0-1.7-.1l-2.5-.3h-1.6.7l.7-.1h-3.1 1.5l1.5-.1-2.6-.3-4-.4-1.1-.1 2.2-.1 2.3-.1h3.3l.5-.1h3.2l-.9-.2-.9-.2-1.6-.1h-2.9a66 66 0 0 1-5.5-.3l2.7-.2 2.7-.2v-.6s.1-.2.5-.2l.4-.1H933a10 10 0 0 1 10 10v33a10 10 0 0 1-10 10H693Z"/><path fill="#a73a24" d="M286.6 189.3c0 .4-.2.8-.5 1-.3.4-.7.5-1 .5-8.2.4-16.4.4-24.6 0-.3 0-.7-.1-1-.4s-.5-.7-.5-1c-.3-6.5-.3-13 0-19.4 0-.5.2-.8.5-1.1s.7-.5 1-.5c8.2-.3 16.3-.3 24.5 0 .4 0 .8.2 1 .5.4.3.5.6.6 1v2.6h3.5l-.2-2.7a5 5 0 0 0-4.7-4.8c-8.3-.4-16.5-.4-24.8 0a5 5 0 0 0-4.7 4.8 175 175 0 0 0 0 19.7 5 5 0 0 0 4.7 4.7c8.3.4 16.5.4 24.8 0a5 5 0 0 0 4.7-4.7l.2-2.7h-3.5v2.5Zm41.3 4.6h3.7l-13.1-28.6H311l-13 28.6h3.6l2.8-6.1h20.7l2.8 6.1Zm-22-9.5 7.3-15.8h3.1l7.2 15.8H306Zm34.9-19.1v28.6h3.3V183h8.4l16 11h6l-16-11h9.1a5 5 0 0 0 4.8-4.7V170a5 5 0 0 0-4.8-4.7h-26.8Zm26.7 3.3c.4 0 .8.2 1 .5.3.3.5.7.5 1.1v8c0 .3-.2.7-.5 1-.2.3-.6.4-1 .5H344v-11h23.4Zm47.4 8.2c.3-.6.5-1.3.5-2V170a5 5 0 0 0-4.7-4.7h-26.9v28.6h29a5 5 0 0 0 4.7-4.7v-8.3c0-1.8-1-3.3-2.6-4.1Zm-4.4-8.2c.4 0 .8.2 1 .5.4.3.5.7.6 1.1v4.5c0 .4-.2.7-.5 1s-.7.5-1 .5h-23.4v-7.6h23.3Zm3.7 20.5c0 .3-.2.7-.5 1s-.7.5-1 .5h-25.5v-11h25.4c.4 0 .8.2 1.1.4.3.3.5.7.5 1.1v8Zm31.5-21 12.2.3c.4 0 .8.2 1 .5.3.3.5.6.5 1 .4 6.4.4 13 0 19.4 0 .4-.2.8-.5 1-.2.4-.6.5-1 .5-8.2.4-16.3.4-24.5 0-.4 0-.8-.1-1-.4-.4-.3-.5-.7-.5-1-.3-6.5-.3-13 0-19.4 0-.5.1-.8.4-1.1s.7-.5 1.1-.5c4-.2 8.2-.3 12.3-.3Zm-12.4-3a5 5 0 0 0-4.8 4.7 175 175 0 0 0 0 19.7 5 5 0 0 0 4.8 4.7c8.2.4 16.5.4 24.7 0a5 5 0 0 0 4.8-4.7c.3-6.6.3-13.2 0-19.7a5 5 0 0 0-4.8-4.8c-8.2-.4-16.5-.4-24.7 0Zm71.7.2v25.3h-1.1l-23.3-25.3h-6v28.6h3.4v-25.3h1l23.4 25.3h6v-28.6H505Zm13 25.3v3.3h3.5v-3.3H518Z"/><path fill="#a73a24" d="m286.6 189.3 1 .1h-1Zm-1.6 1.5v-1 1Zm-24.5 0v-1 1Zm-1.5-1.5h1-1Zm0-19.3h1-1Zm.5-1.1.7.7-.7-.7Zm1-.5v-1 1Zm24.5 0 .1-1v1Zm1 .5-.6.7.7-.7Zm.6 1h1-1Zm0 2.6h-1v1h1v-1Zm3.5 0v1h1v-1h-1Zm-.2-2.7h-1 1Zm-4.7-4.8v1-1Zm-24.8 0v1-1Zm-4.7 4.8h1-1Zm0 19.7h1-1Zm4.7 4.7v-1 1Zm24.8 0v-1 1Zm4.7-4.7h1-1Zm.2-2.7h1v-1h-1v1Zm-3.5 0v-1h-1v1h1Zm-1 2.4-.2.5 1.4 1.4a3 3 0 0 0 .8-1.7l-2-.2Zm-.2.5-.4.1v2c.7 0 1.3-.3 1.8-.7l-1.4-1.4Zm-.4.1c-4 .2-8.2.3-12.2.3v2c4 0 8.2 0 12.3-.3l-.1-2Zm-12.2.3c-4 0-8.2 0-12.2-.3l-.1 2c4 .2 8.2.3 12.3.3v-2Zm-12.3-.3-.3-.1-1.4 1.4c.4.5 1 .7 1.7.7v-2Zm-.3-.1a.6.6 0 0 1-.2-.4h-2c0 .6.3 1.3.8 1.8l1.4-1.4Zm-.2-.4c-.3-6.4-.3-13 0-19.3l-2-.1c-.3 6.4-.3 13 0 19.5l2-.1Zm0-19.3c0-.2 0-.3.2-.4l-1.4-1.4c-.5.4-.8 1-.8 1.8h2Zm.2-.4.4-.2-.2-2c-.5 0-1.2.3-1.6.8l1.4 1.4Zm.4-.2c4-.2 8.2-.3 12.2-.3v-2l-12.3.3v2Zm12.2-.3 12.2.3v-2c-4-.2-8.1-.3-12.2-.3v2Zm12.1.3c.2 0 .4 0 .5.2l1.4-1.4c-.5-.5-1-.7-1.7-.8l-.2 2Zm.5.2.2.5 2-.2a3 3 0 0 0-.8-1.7l-1.4 1.4Zm.2.4v2.5h2v-2.6l-2 .1Zm1 3.5h3.5v-2h-3.5v2Zm4.5-1-.2-2.8-2 .1.2 2.7h2Zm-.2-2.8a6 6 0 0 0-5.7-5.7v2a4 4 0 0 1 3.7 3.8h2Zm-5.7-5.7c-4.1-.2-8.3-.3-12.4-.3v2l12.3.3.1-2Zm-12.4-.3c-4.2 0-8.3.1-12.4.3v2c4.1-.2 8.3-.3 12.4-.3v-2Zm-12.4.3a6 6 0 0 0-5.7 5.7l2 .1a4 4 0 0 1 3.8-3.8l-.1-2Zm-5.7 5.7c-.4 6.6-.4 13.2 0 19.8h2c-.4-6.6-.4-13.1 0-19.7h-2Zm0 19.8a6 6 0 0 0 5.7 5.7v-2a4 4 0 0 1-3.7-3.8l-2 .1Zm5.7 5.7c4 .2 8.2.3 12.4.3v-2c-4.1 0-8.3-.1-12.3-.3l-.1 2Zm12.4.3c4.1 0 8.3-.1 12.4-.3v-2l-12.4.3v2Zm12.4-.3a6 6 0 0 0 5.7-5.7h-2a4 4 0 0 1-3.8 3.7l.1 2Zm5.7-5.7.2-2.6-2-.1-.2 2.6 2 .1Zm-.8-3.7h-3.5v2h3.5v-2Zm-4.5 1v2.5h2v-2.5h-2Zm42.3 7.1-.9.5.3.5h.6v-1Zm3.7 0v1h1.6l-.7-1.4-.9.4Zm-13.1-28.6 1-.4-.4-.6h-.6v1Zm-7.5 0v-1h-.6l-.3.6 1 .4Zm-13 28.6-1-.4-.6 1.4h1.5v-1Zm3.6 0v1h.6l.3-.5-.9-.5Zm2.8-6.1v-1h-.6l-.3.6 1 .4Zm20.7 0 1-.4-.4-.6h-.6v1Zm-19.1-3.4-1-.4-.6 1.4h1.6v-1Zm7.2-15.8v-1h-.6l-.3.6 1 .4Zm3.1 0 1-.4-.3-.6h-.7v1Zm7.2 15.8v1h1.6l-.6-1.4-1 .4Zm4.4 10.5h3.7v-2H328v2Zm4.6-1.4-13-28.6-2 .8 13.2 28.7 1.8-.9Zm-14-29.2H311v2h7.5v-2Zm-8.4.6-13 28.6 1.7.9 13.1-28.7-1.8-.8Zm-12.2 30h3.7v-2H298v2Zm4.6-.5 2.8-6.2-1.8-.8-2.8 6.1 1.8.9Zm2-5.6H325v-2h-20.7v2Zm19.7-.6 2.8 6.2 1.8-.9-2.8-6.1-1.8.8Zm-17.3-3.4 7.2-15.7-1.8-.9-7.2 15.8 1.8.8Zm6.3-15.2h3.1v-2h-3v2Zm2.2-.5 7.2 15.7 1.9-.8-7.3-15.8-1.8.9Zm8.1 14.3H306v2h17.5v-2Zm17.3-18.1v-1h-1v1h1Zm0 28.6h-1v1h1v-1Zm3.3 0v1h1v-1h-1Zm0-10.9v-1h-1v1h1Zm8.4 0 .5-.8-.2-.2h-.3v1Zm16 11-.6.8.3.1h.3v-1Zm6 0v1h3.2l-2.6-1.9-.6.8Zm-16-11v-1h-3.3l2.7 1.9.6-.9Zm9.1 0v1-1Zm4.8-4.7h1-1Zm0-8.3h1-1Zm-4.8-4.7v-1 1Zm-.1 3.3v-1 1Zm1.5 1.6h-1 1Zm0 8h1-1Zm-.5 1 .8.7-.8-.7Zm-1 .5v1-1Zm-23.4 0h-1v1h1v-1Zm0-11v-1h-1v1h1Zm-4.3-3.4v28.6h2v-28.6h-2Zm1 29.6h3.3v-2h-3.3v2Zm4.3-1V183h-2v11h2Zm-1-9.9h8.4v-2H344v2Zm7.8-.1 16 10.9 1.2-1.7-16-10.9-1.2 1.7Zm16.6 11h6v-2h-6v2Zm6.6-1.8-16-10.9-1.2 1.7 16 10.9 1.2-1.7Zm-16.6-9h9.1v-2h-9.1v2Zm9.2 0a6 6 0 0 0 5.7-5.8h-2a4 4 0 0 1-3.8 3.7v2Zm5.7-5.8V170h-2v8.3h2Zm0-8.3a6 6 0 0 0-5.7-5.7l-.1 2a4 4 0 0 1 3.8 3.8l2-.1Zm-5.8-5.7h-26.8v2h26.8v-2Zm-.2 5.3.4.2 1.4-1.4a3 3 0 0 0-1.6-.8l-.2 2Zm.4.2.2.4h2c0-.7-.3-1.3-.8-1.8l-1.4 1.4Zm.2.4v8h2v-8h-2Zm0 7.8c0 .2 0 .4-.2.5l1.4 1.4c.5-.5.8-1 .8-1.7l-2-.2Zm-.2.5-.4.2.2 2a3 3 0 0 0 1.6-.8l-1.4-1.4Zm-.3.2H344v2h23.4v-2Zm-22.4 1v-11h-2v11h2Zm-1-10h23.4v-2H344v2Zm70.8 7.1-.9-.5-.4 1 .9.4.4-.9Zm.5-2h1-1Zm0-4.8h1-1Zm-4.7-4.7v-1 1Zm-26.9 0v-1h-1v1h1Zm0 28.6h-1v1h1v-1Zm29 0v1-1Zm4.7-4.7h1-1Zm0-8.3h1-1Zm-7-12.3.1-1v1Zm1.6 1.6h1v-.1l-1 .1Zm0 4.5h1-1Zm-.5 1 .7.7-.7-.7Zm-24.4.5h-1v1h1v-1Zm0-7.6v-1h-1v1h1Zm26.5 21.5-.7-.7.7.7Zm-26.5.5h-1v1h1v-1Zm0-11v-1h-1v1h1Zm25.4 0v-1 1Zm1.1.4-.7.7.7-.7Zm2-2.7c.5-.8.7-1.6.7-2.4l-2-.1c0 .5-.1 1-.4 1.5l1.8 1Zm.7-2.5V170h-2v4.8h2Zm0-4.8a6 6 0 0 0-5.7-5.7v2a4 4 0 0 1 3.7 3.8l2-.1Zm-5.7-5.7h-26.9v2h26.9v-2Zm-27.9 1v28.6h2v-28.6h-2Zm1 29.6h29v-2h-29v2Zm29 0a6 6 0 0 0 5.7-5.7h-2a4 4 0 0 1-3.7 3.7v2Zm5.7-5.7v-8.3h-2v8.3h2Zm0-8.3c0-2.2-1.3-4-3.1-5l-1 1.8c1.3.6 2 1.8 2.1 3.3l2-.1Zm-8-11.3.4.2 1.4-1.4c-.5-.4-1-.7-1.7-.8l-.2 2Zm.4.2.2.5 2-.2c0-.6-.3-1.2-.8-1.7l-1.4 1.4Zm.2.4v4.5h2v-4.5h-2Zm0 4.4-.2.4 1.4 1.4c.5-.4.7-1 .8-1.6l-2-.2Zm-.2.4-.4.2v2c.7 0 1.3-.3 1.8-.8l-1.4-1.4Zm-.4.2h-23.3v2h23.3v-2Zm-22.3 1v-7.6h-2v7.6h2Zm-1-6.6h23.3v-2h-23.3v2Zm26 19.5s0 .2-.2.3l1.4 1.4c.5-.4.8-1.1.8-1.7h-2Zm-.2.3-.3.2v2c.6 0 1.3-.3 1.7-.8l-1.4-1.4Zm-.3.2h-25.5v2h25.5v-2Zm-24.5 1v-11h-2v11h2Zm-1-10h25.4v-2h-25.4v2Zm25.4 0 .4.1 1.4-1.4c-.5-.5-1.1-.7-1.8-.7v2Zm.4.1.2.4h2c0-.7-.3-1.3-.8-1.8l-1.4 1.4Zm.2.4v8h2v-8h-2Zm44.7-12.7v-1 1Zm1 .5-.7.7.7-.7Zm.5 1h1-1Zm0 19.4 1 .1h-1Zm-1.5 1.5v-1 1Zm-24.5 0v-1 1Zm-1.5-1.5h1-1Zm0-19.3h1-1Zm.4-1.1.7.7-.7-.7Zm1.1-.5v-1h-.1l.1 1Zm-.1-3.4v1-1Zm-4.8 4.8h1-1Zm0 19.7h1-1Zm4.8 4.7v-1 1Zm24.7 0v-1 1Zm4.8-4.7h-1 1Zm0-19.7h-1 1ZM458 165v1-1Zm-12.3 4.1 12.1.3.1-2c-4-.2-8.2-.3-12.2-.3v2Zm12 .3c.3 0 .4 0 .5.2l1.4-1.4c-.4-.5-1-.7-1.6-.8l-.2 2Zm.5.2.2.5 2-.2c0-.7-.3-1.3-.8-1.7l-1.4 1.4Zm.2.4c.4 6.4.4 12.9 0 19.3h2c.4-6.4.4-13 0-19.4l-2 .1Zm0 19.2c0 .2 0 .4-.2.5l1.4 1.4c.5-.5.8-1.1.8-1.7l-2-.2Zm-.2.5-.3.1v2c.7 0 1.3-.3 1.8-.7l-1.5-1.4Zm-.4.1c-4 .2-8.1.3-12.1.3v2c4 0 8.1 0 12.2-.3v-2Zm-12.1.3c-4 0-8.2 0-12.3-.3v2c4 .2 8.2.3 12.3.3v-2Zm-12.3-.3-.4-.1-1.4 1.4c.5.5 1.2.7 1.8.7v-2Zm-.4-.1-.1-.4h-2c0 .6.3 1.3.7 1.8l1.4-1.4Zm-.1-.4c-.3-6.4-.3-13 0-19.3l-2-.1c-.3 6.4-.3 13 0 19.5l2-.1Zm0-19.3.1-.4-1.4-1.4c-.4.4-.7 1-.7 1.8h2Zm.1-.4.5-.2-.2-2c-.6 0-1.2.3-1.7.8l1.4 1.4Zm.4-.2c4-.2 8.2-.3 12.3-.3v-2c-4.1 0-8.3.1-12.3.3v2Zm-.2-5.4a6 6 0 0 0-5.7 5.7l2 .1a4 4 0 0 1 3.8-3.8v-2Zm-5.7 5.7a218 218 0 0 0 0 19.8h2c-.3-6.6-.3-13.1 0-19.7h-2Zm0 19.8a6 6 0 0 0 5.7 5.7l.1-2a4 4 0 0 1-3.8-3.8l-2 .1Zm5.7 5.7c4.1.2 8.3.3 12.5.3v-2c-4.2 0-8.3-.1-12.4-.3v2Zm12.5.3 12.4-.3-.1-2-12.3.3v2Zm12.4-.3a6 6 0 0 0 5.7-5.7h-2a4 4 0 0 1-3.8 3.7v2Zm5.7-5.7c.3-6.6.3-13.2 0-19.8l-2 .1c.3 6.6.3 13 0 19.6l2 .1Zm0-19.8a6 6 0 0 0-5.7-5.7l-.1 2a4 4 0 0 1 3.8 3.8h2Zm-5.7-5.7-12.4-.3v2l12.3.3v-2Zm-12.4-.3c-4.2 0-8.4.1-12.5.3l.1 2c4.1-.2 8.2-.3 12.4-.3v-2Zm59.3 1.6v-1h-1v1h1Zm0 25.3v1h1v-1h-1Zm-1.1 0-.8.7.3.3h.5v-1Zm-23.3-25.3.7-.7-.3-.3h-.4v1Zm-6 0v-1h-1v1h1Zm0 28.6h-1v1h1v-1Zm3.4 0v1h1v-1h-1Zm0-25.3v-1h-1v1h1Zm1 0 .7-.6-.3-.4h-.4v1Zm23.4 25.3-.7.7.3.3h.4v-1Zm6 0v1h1v-1h-1Zm0-28.6h1v-1h-1v1Zm-4.4 0v25.3h2v-25.3h-2Zm1 24.3h-1.1v2h1v-2Zm-.4.3-23.3-25.3-1.4 1.4 23.2 25.3 1.5-1.4Zm-24-25.6h-6v2h6v-2Zm-7 1v28.6h2v-28.6h-2Zm1 29.6h3.4v-2h-3.4v2Zm4.4-1v-25.3h-2V194h2Zm-1-24.3h1v-2h-1v2Zm.2-.3 23.5 25.3 1.4-1.3-23.4-25.3-1.5 1.3Zm24.2 25.6h6v-2h-6v2Zm7-1v-28.6h-2v28.6h2Zm-1-29.6H505v2h3.4v-2Zm9.7 26.3v-1h-1v1h1Zm0 3.3h-1v1h1v-1Zm3.4 0v1h1v-1h-1Zm0-3.3h1v-1h-1v1Zm-4.4 0v3.3h2v-3.3h-2Zm1 4.3h3.4v-2H518v2Zm4.4-1v-3.3h-2v3.3h2Zm-1-4.3H518v2h3.4v-2Z"/><path fill="#305673" d="M577.6 165.3v-2h-1.3l-.6 1.1 1.9.9ZM566 190.6l-1.9.8 1.9 4 1.8-4-1.8-.8Zm-11.7-25.3 1.9-.9-.6-1.1h-1.3v2Zm-3.7 0v-2h-1.3l-.5 1.1 1.8.9ZM539 190.6l-1.8.8 1.8 4 1.8-4-1.8-.8Zm-11.6-25.3 1.8-.9-.5-1.1h-1.3v2Zm-3.7 0v-2h-3.1l1.3 2.8 1.8-.8Zm13.1 28.6-1.8.9.6 1.1h1.2v-2Zm4.4 0v2h1.3l.5-1.1-1.8-.9Zm11.3-24.6 1.8-.8-1.8-4-1.8 4 1.8.8Zm11.3 24.6-1.8.9.5 1.1h1.3v-2Zm4.3 0v2h1.3l.5-1.1-1.8-.9Zm13.2-28.6 1.8.8 1.3-2.8h-3.1v2Zm-5.6-.9-11.6 25.3 3.7 1.7 11.6-25.3-3.7-1.7Zm-8 25.3-11.5-25.3-3.7 1.7 11.6 25.3 3.7-1.7Zm-13.4-26.4h-1.8v4h1.8v-4Zm-1.8 0h-1.9v4h1.9v-4Zm-3.7 1.1-11.6 25.3 3.6 1.7 11.6-25.3-3.6-1.7Zm-8 25.3-11.6-25.3-3.6 1.7 11.6 25.3 3.6-1.7Zm-13.4-26.4h-3.7v4h3.7v-4ZM522 166l13.1 28.7 3.7-1.7-13.2-28.7-3.6 1.7Zm15 29.8h4.3v-4h-4.4v4Zm6.1-1.1 11.3-24.6-3.6-1.7-11.3 24.6 3.6 1.7Zm7.7-24.6 11.3 24.6 3.6-1.7-11.3-24.6-3.6 1.7Zm13 25.7h4.4v-4h-4.3v4Zm6.2-1.1 13.2-28.7-3.6-1.7-13.2 28.7 3.6 1.7Zm11.4-31.5h-3.7v4h3.7v-4Zm37.8 5 .2-1.9h-.1l-.1 2Zm1 .6-1.4 1.4 1.5-1.4Zm.5 1h2v-.1l-2 .2Zm0 19.4 2 .2-2-.2Zm-1.5 1.5v-2h-.1v2Zm-24.5 0 .1-2v2Zm-1.5-1.5h2v-.1l-2 .1Zm0-19.3h2-2Zm.4-1.1 1.5 1.4-1.5-1.4Zm1.1-.5v-2h-.2l.2 2Zm-.1-3.4v2-2Zm-4.8 4.8 2 .1-2-.1Zm0 19.7 2-.1h-2Zm4.8 4.7v-2 2Zm24.8 0-.1-2v2Zm4.7-4.7-2-.1h2Zm0-19.7h-2 2Zm-4.7-4.8-.1 2v-2ZM607 170l12.1.3.2-4-12.3-.3v4Zm12 .3-.2-.1 2.9-2.8c-.7-.7-1.5-1-2.3-1l-.4 3.9Zm-.2-.1v-.1l4-.4c-.1-.9-.5-1.7-1.1-2.3l-2.9 2.8Zm0-.2c.3 6.3.3 12.7 0 19.1l4 .2c.3-6.5.3-13 0-19.5l-4 .2Zm0 19v-.1l2.9 2.8c.6-.7 1-1.5 1-2.3l-4-.4Zm0-.1.2-.1h.2v4c1 0 1.8-.5 2.5-1.1l-2.9-2.8Zm.3-.2c-4 .2-8.1.3-12.1.3v4c4 0 8.2 0 12.3-.3l-.2-4Zm-12.1.3c-4 0-8.2 0-12.2-.3l-.2 4c4.1.2 8.3.3 12.4.3v-4Zm-12.3-.3h.2l.2.2-2.9 2.8a4 4 0 0 0 2.5 1v-4Zm.4.2v.3h-4c0 1 .5 1.8 1.1 2.5l2.9-2.8Zm0 .2a304 304 0 0 1 0-19.1l-3.9-.2c-.3 6.4-.3 13 0 19.5l4-.2Zm0-19.2v.4l-2.9-2.8c-.6.6-1 1.5-1 2.5h4Zm0 .3h-.1l-.5-3.9c-.7 0-1.6.4-2.3 1l2.9 2.9Zm-.3 0 12.2-.2v-4c-4.1 0-8.3.1-12.4.3l.2 4Zm-.3-7.3a7 7 0 0 0-6.7 6.7l4 .2a3 3 0 0 1 2.9-2.9l-.2-4Zm-6.7 6.7c-.3 6.6-.3 13.2 0 19.9l4-.2c-.3-6.5-.3-13 0-19.5l-4-.2Zm0 19.9a7 7 0 0 0 6.7 6.6l.2-4a3 3 0 0 1-2.9-2.8l-4 .2Zm6.7 6.6c4.1.2 8.3.3 12.5.3v-4c-4.1 0-8.3-.1-12.3-.3l-.2 4Zm12.5.3 12.5-.3-.2-4-12.3.3v4Zm12.4-.3a7 7 0 0 0 6.7-6.6l-4-.2a3 3 0 0 1-2.8 2.8l.1 4Zm6.7-6.6c.3-6.7.3-13.3 0-20l-4 .3c.3 6.5.3 13 0 19.5l4 .2Zm0-20a7 7 0 0 0-6.7-6.6l-.1 4a3 3 0 0 1 2.8 2.9l4-.2Zm-6.6-6.6-12.5-.3v4l12.3.3.2-4Zm-12.5-.3c-4.2 0-8.4.1-12.5.3l.2 4c4-.2 8.2-.3 12.3-.3v-4Zm28.8 2.6v-2h-2v2h2Zm0 28.6h-2v2h2v-2Zm3.3 0v2h2v-2h-2Zm0-10.9v-2h-2v2h2Zm8.3 0 1.2-1.6-.5-.4h-.7v2Zm16 11-1 1.6.5.3h.6v-2Zm6 0v2h6.6l-5.4-3.7-1.1 1.6Zm-16-11v-2h-6.5l5.4 3.7 1.1-1.7Zm9.2 0v2h.1v-2Zm4.8-4.7h2-2Zm0-8.3h2-2Zm-4.8-4.7.1-2v2Zm-.1 3.3.2-2h-.2v2Zm1.5 1.6h-2 2Zm0 8 2 .1v-.2h-2Zm-.5 1 1.4 1.4-1.4-1.4Zm-1 .5v2h.2l-.2-2Zm-23.4 0h-2v2h2v-2Zm0-11v-2h-2v2h2Zm-5.3-3.4v28.6h4v-28.6h-4Zm2 30.6h3.3v-4h-3.3v4Zm5.3-2V183h-4v11h4Zm-2-8.9h8.3v-4H639v4Zm7.2-.3 16 10.9 2.3-3.3-16-11-2.3 3.4Zm17.2 11.2h6v-4h-6v4Zm7-3.6-16-11-2.2 3.4 16 10.9 2.3-3.3Zm-17-7.3h9.1v-4h-9.2v4Zm9.2 0a7 7 0 0 0 6.7-6.6l-4-.2a3 3 0 0 1-2.9 2.8l.2 4Zm6.7-6.7V170h-4v8.3h4Zm0-8.4a7 7 0 0 0-6.7-6.6l-.2 4a3 3 0 0 1 2.9 2.8l4-.2Zm-6.8-6.6h-26.8v4h26.8v-4Zm-.3 7.3h-.2l2.8-2.9c-.6-.6-1.4-1-2.2-1l-.4 4Zm-.2 0v-.2l-.1-.2h4c0-1-.4-1.8-1-2.5l-2.9 2.8Zm-.1-.4v8l4-.1v-8l-4 .1Zm0 7.7.1-.1 2.8 2.8c.7-.6 1-1.5 1.1-2.3l-4-.4Zm.1-.1.1-.1.5 4c.8-.1 1.6-.5 2.2-1.1l-2.8-2.8Zm.4-.1H639v4h23.3v-4Zm-21.4 2v-11h-4v11h4Zm-2-9h23.4v-4H639v4Zm63.3 19.9h2v-2h-2v2Zm-20.2 0h-2v2h2v-2Zm0-25.3h2v-2h-2v2Zm-3.4 0v-2h-2v2h2Zm0 28.6h-2v2h2v-2Zm23.6 0v2h2v-2h-2Zm0-5.3H682v4h20.2v-4Zm-18.2 2v-25.3h-4v25.3h4Zm-2-27.3h-3.4v4h3.4v-4Zm-5.4 2v28.6h4v-28.6h-4Zm2 30.6h23.6v-4h-23.6v4Zm25.6-2v-3.3h-4v3.3h4Zm7.2 0h-2v2h2v-2Zm29 0v2h.1v-2Zm4.8-4.7 2 .1h-2Zm0-19.2h2-2Zm-4.8-4.7.1-2v2Zm-31 0v-2h-2v2h2Zm0 3.3h-2v2h2v-2Zm2 0h2v-2h-2v2ZM742 189l2 .2v-.2h-2Zm-.5 1-1.4-1.4 1.4 1.4Zm-26.5.5h-2v2h2v-2Zm0-22v-2h-2v2h2Zm25.4 0 .2-2h-.2v2Zm1.1.5-1.4 1.4 1.4-1.4Zm.5 1.1h2v-.2l-2 .2ZM711.5 196h29v-4h-29v4Zm29.1 0a7 7 0 0 0 6.7-6.7l-4-.2a3 3 0 0 1-2.9 2.9l.2 4Zm6.7-6.8V170h-4v19.2h4Zm0-19.3a7 7 0 0 0-6.7-6.6l-.2 4a3 3 0 0 1 2.9 2.8l4-.2Zm-6.8-6.6h-31v4h31v-4Zm-33 2v3.3h4v-3.3h-4Zm2 5.3h2v-4h-2v4Zm0-2V194h4v-25.4h-4ZM740 189l.1-.2 2.8 2.8c.7-.6 1-1.4 1-2.2l-3.9-.4Zm.1-.2h.1l.2-.1v4c1 0 1.9-.4 2.5-1l-2.8-2.9Zm.3-.1H715v4h25.4v-4Zm-23.4 2v-22h-4v22h4Zm-2-20h25.4v-4H715v4Zm25.2 0h-.1l2.8-2.9c-.6-.6-1.4-1-2.3-1l-.4 4Zm-.1 0v-.2l3.9-.4c0-.8-.4-1.6-1-2.3l-2.9 2.8Zm-.1-.4v18.9h4v-18.9h-4Zm46.4 11.6-1.4 1.4 1.4-1.4Zm.4 5 2 .1v-.1h-2Zm-.1 2.5h-2 2Zm-.5 1-1.4-1.3 1.4 1.4Zm-1 .5v-2h-.1v2Zm-23.7 0v-2 2Zm-1.6-1.5-2 .1v.1l2-.2Zm0-2.5 2-.1-.2-1.9h-1.9v2Zm-3.4 0v-2h-2v2h2Zm0 2.7h-2 2Zm4.8 4.7v2-2Zm24 0 .1 2v-2Zm4.8-4.7h2-2Zm0-6.8h2v-.1h-2Zm-4.7-4.8v-2 2Zm-24 0-.2 2h.2v-2Zm-1.6-5.5h-2 2Zm.2-2.4h2-2Zm.4-1.2-1.4-1.4 1.4 1.4Zm1-.4v2h.1v-2Zm23.8 0-.1 2v-2Zm1.5 1.6 2-.1v-.1l-2 .2Zm.1 2.4-2 .1.1 2h2v-2Zm3.4 0v2h2v-2h-2Zm-.1-2.7h2-2Zm-4.8-4.7v2-2Zm-24 0 .1 2v-2Zm-4.7 4.7h-2 2Zm-.1 6.9h-2 2Zm4.7 4.7v2-2Zm24.1 2h-.2l-.1-.1 2.8-2.9a4 4 0 0 0-2.5-1v4Zm-.3-.1a.4.4 0 0 1-.2-.4h4a4 4 0 0 0-1-2.5l-2.8 2.9Zm-.2-.4v4h4v-4h-4Zm0 3.9v1.3l-.1 1.2 4 .2v-1.2l.1-1.3-4-.2Zm-.1 2.6v-.2l.1-.1 2.9 2.8c.6-.7 1-1.5 1-2.5h-4Zm.1-.3.2-.1h.2v4c1 0 1.8-.5 2.5-1.1l-2.9-2.8Zm.3-.2c-4 .2-7.7.3-11.8.3v4c4.1 0 7.9 0 12-.3l-.2-4Zm-11.8.3c-4 0-7.7 0-11.7-.3l-.2 4c4 .2 7.8.3 12 .3v-4Zm-11.8-.3h.2l.1.2-2.8 2.8c.6.6 1.5 1 2.5 1v-4Zm.3.2h.1v.1l-4 .4c.1.8.5 1.6 1.1 2.3l2.8-2.8Zm.1.2v-2.5l-4 .2v2.5l4-.2Zm-2-4.4h-3.4v4h3.3v-4Zm-5.4 2v2.8l4-.2v-2.6h-4Zm0 2.8a7 7 0 0 0 6.7 6.6l.2-4a3 3 0 0 1-2.8-2.8l-4 .2Zm6.7 6.6c4.2.2 8 .3 12.1.3v-4c-4 0-7.8-.1-11.9-.3l-.2 4Zm12.1.3c4.2 0 8-.1 12.1-.3l-.1-4c-4.2.2-7.9.3-12 .3v4Zm12.1-.3a7 7 0 0 0 6.7-6.6l-4-.2a3 3 0 0 1-2.9 2.8l.2 4Zm6.7-6.6v-2.8h-4v2.6l4 .2Zm0-2.8v-4.1h-4v4.1h4Zm0-4.2a7 7 0 0 0-6.6-6.7l-.1 4a3 3 0 0 1 2.8 2.9l4-.2Zm-6.7-6.7h-24v4h24v-4Zm-23.8 0 .1.1-2.8 2.9c.7.6 1.5 1 2.3 1l.4-4Zm.1.1.1.2v.2h-4c0 1 .4 1.8 1 2.5l3-2.9Zm.1.4v-4h-4v4h4Zm0-3.9.2-2.4-4-.2-.2 2.4 4 .2Zm.2-2.5v.1l-.2.2-2.8-2.9c-.7.7-1 1.6-1 2.6h4Zm-.2.3h-.4v-4c-1 0-1.9.5-2.5 1.1l2.8 2.9Zm-.2 0 11.7-.2v-4c-4 0-7.8 0-12 .3l.3 4Zm11.7-.2c4 0 7.8 0 11.8.3l.2-4c-4.1-.2-7.9-.3-12-.3v4Zm11.9.3h-.2l-.2-.1 2.9-2.9c-.7-.6-1.5-1-2.5-1v4Zm-.4-.1v-.2l4-.3c-.1-.8-.5-1.7-1.1-2.4l-2.9 2.9Zm0-.2v2.3l4-.2V170l-4 .2Zm2 4.3h3.4v-4h-3.4v4Zm5.4-2-.1-2.7-4 .1v2.6h4Zm-.1-2.7a7 7 0 0 0-6.7-6.7l-.2 4a3 3 0 0 1 2.9 2.8l4-.1Zm-6.7-6.7c-4.1-.2-7.9-.3-12-.3v4c4 0 7.7.1 11.8.3l.2-4Zm-12-.3c-4.2 0-8 .1-12.2.3l.2 4c4.1-.2 7.8-.3 12-.3v-4Zm-12.2.3a7 7 0 0 0-6.6 6.7l4 .1a3 3 0 0 1 2.8-2.8l-.2-4Zm-6.6 6.7-.1 2.7h4v-2.6l-4-.1Zm-.1 2.7v4.2h4v-4.2h-4Zm0 4.2a7 7 0 0 0 6.6 6.7l.2-4a3 3 0 0 1-2.8-2.8l-4 .1Zm6.7 6.7h24.1v-4h-24v4Zm43.6 10.6v2h2v-2h-2Zm0-12.6v-2h-2v2h2Zm21.5 0v2h2v-2h-2Zm0-3.4h2v-2h-2v2Zm-21.5 0h-2v2h2v-2Zm0-9.3v-2h-2v2h2Zm23.6 0v2h2v-2h-2Zm0-3.3h2v-2h-2v2Zm-27 0v-2h-2v2h2Zm0 28.6h-2v2h2v-2Zm5.4 0v-12.6h-4V194h4Zm-2-10.6h21.5v-4h-21.5v4Zm23.5-2V178h-4v3.4h4Zm-2-5.4h-21.5v4h21.5v-4Zm-19.5 2v-9.3h-4v9.3h4Zm-2-7.3h23.6v-4h-23.6v4Zm25.6-2v-3.3h-4v3.3h4Zm-2-5.3h-27v4h27v-4Zm-29 2V194h4v-28.6h-4Zm2 30.6h3.4v-4h-3.3v4Zm60-2-1.7.9.5 1.1h1.3v-2Zm3.8 0v2h3l-1.2-2.8-1.8.8ZM852 165.3l1.8-.9-.6-1.1H852v2Zm-7.5 0v-2h-1.3l-.5 1.1 1.8.9Zm-13.1 28.6-1.8-.8-1.3 2.8h3v-2Zm3.7 0v2h1.2l.6-1.1-1.8-.9Zm2.8-6.1v-2h-1.3l-.5 1.2 1.8.8Zm20.7 0 1.8-.8-.6-1.2h-1.2v2Zm-19.1-3.4-1.9-.8-1.3 2.8h3.2v-2Zm7.2-15.8v-2h-1.3l-.6 1.2 1.9.8Zm3 0 1.9-.8-.5-1.2h-1.3v2Zm7.3 15.8v2h3.1l-1.3-2.8-1.8.8Zm4.4 11.5h3.7v-4h-3.7v4Zm5.5-2.8-13.1-28.7-3.7 1.7 13.2 28.7 3.6-1.7Zm-15-29.8h-7.4v4h7.5v-4Zm-9.2 1.1-13.1 28.7 3.6 1.7 13.1-28.7-3.6-1.7ZM831.4 196h3.7v-4h-3.7v4Zm5.5-1.1 2.8-6.2-3.6-1.6-2.9 6.1 3.7 1.7Zm1-5h20.7v-4h-20.7v4Zm18.8-1.2 2.9 6.2 3.6-1.7-2.8-6.1-3.7 1.6Zm-15.4-3.4 7.2-15.7-3.7-1.7-7.2 15.8 3.7 1.6Zm5.4-14.6h3v-4h-3v4Zm1.3-1.1 7.2 15.7 3.6-1.6-7.2-15.8-3.6 1.7Zm9 12.9h-17.5v4H857v-4Zm46.2-.6-1.4 1.4 1.4-1.4Zm.4 5 2 .1v-.1h-2Zm0 2.5h-2 2Zm-.5 1-1.4-1.3 1.4 1.4Zm-1 .5v-2h-.1v2Zm-23.8 0 .1-2v2Zm-1.5-1.5-2 .1v.1l2-.2Zm-.1-2.5 2-.1-.1-1.9h-2v2Zm-3.4 0v-2h-2v2h2Zm0 2.7h-2 2Zm4.8 4.7v2-2Zm24 0 .2 2-.1-2Zm4.8-4.7h2-2Zm.1-6.8h2v-.1h-2Zm-4.7-4.8v-2 2Zm-24 0-.3 2h.2v-2Zm-1.6-5.5h-2 2Zm0-2.4h2-2Zm.5-1.2-1.4-1.4 1.4 1.4Zm1.1-.4v2h.1v-2Zm23.7 0v2-2Zm1.6 1.6 2-.1v-.1l-2 .2Zm0 2.4-2 .1.1 2h2v-2Zm3.4 0v2h2v-2h-2Zm0-2.7h2-2Zm-4.8-4.7-.1 2v-2Zm-24 0v2-2Zm-4.8 4.7h-2 2Zm0 6.9h-2 2Zm4.7 4.7-.1 2v-2Zm24 2h-.2l-.1-.1 2.8-2.9c-.6-.6-1.6-1-2.5-1v4Zm-.3-.1-.1-.2v-.2h4a4 4 0 0 0-1-2.5l-3 2.9Zm-.2-.4v4h4v-4h-4Zm0 3.9v2.5l4 .2V187l-4-.2Zm0 2.6v-.4l2.9 2.8c.6-.7 1-1.5 1-2.5h-4Zm0-.3.2-.1h.2v4c1 0 1.9-.5 2.5-1.1l-2.8-2.8Zm.3-.2c-4 .2-7.7.3-11.7.3v4c4 0 7.8 0 12-.3l-.3-4Zm-11.7.3c-4 0-7.8 0-11.8-.3l-.2 4c4.1.2 7.9.3 12 .3v-4Zm-11.9-.3c.2 0 .3 0 .4.2l-2.9 2.8c.7.6 1.5 1 2.5 1v-4Zm.4.2v.1l-4 .4c.1.8.5 1.6 1.1 2.3l2.9-2.8Zm0 .2v-2.5l-4 .2v2.5l4-.2Zm-2-4.4h-3.4v4h3.4v-4Zm-5.4 2v2.8l4-.2v-2.6h-4Zm0 2.8a7 7 0 0 0 6.8 6.6l.1-4a3 3 0 0 1-2.8-2.8l-4 .2Zm6.8 6.6c4.1.2 7.9.3 12 .3v-4c-4 0-7.7-.1-11.9-.3l-.1 4Zm12 .3c4.2 0 8-.1 12.2-.3l-.2-4c-4.1.2-7.8.3-12 .3v4Zm12.2-.3a7 7 0 0 0 6.6-6.6l-4-.2a3 3 0 0 1-2.8 2.8l.2 4Zm6.6-6.6.1-2.8h-4v2.6l4 .2Zm.1-2.8v-4.1h-4v4.1h4Zm0-4.2a7 7 0 0 0-6.7-6.7l-.1 4a3 3 0 0 1 2.8 2.9l4-.2Zm-6.7-6.7h-24v4h24v-4Zm-23.9 0 .1.1-2.8 2.9c.7.6 1.6 1 2.3 1l.4-4Zm.1.1.1.2v.2h-4c0 1 .5 1.8 1.1 2.5l2.8-2.9Zm.2.4v-4h-4v4h4Zm0-3.9v-2.4l-3.9-.2-.1 2.4 4 .2Zm0-2.5v.2l-2.9-2.9a4 4 0 0 0-1 2.6h4Zm0 .3h-.4v-4c-1 0-1.8.5-2.5 1.1l2.9 2.9Zm-.3 0 11.8-.2v-4c-4.1 0-7.9 0-12 .3l.2 4Zm11.8-.2c4 0 7.7 0 11.7.3l.2-4c-4-.2-7.9-.3-12-.3v4Zm11.8.3-.3-.1 2.8-2.9c-.6-.6-1.5-1-2.5-1v4Zm-.3-.1-.1-.2 4-.3a4 4 0 0 0-1.1-2.4l-2.8 2.9Zm-.1-.2v2.4l4-.2V170l-4 .2Zm2 4.3h3.4v-4h-3.4v4Zm5.4-2v-2.7l-4 .1v2.6h4Zm0-2.7a7 7 0 0 0-6.7-6.7l-.2 4a3 3 0 0 1 2.8 2.8l4-.1Zm-6.7-6.7c-4.2-.2-8-.3-12.1-.3v4c4 0 7.8.1 11.9.3l.2-4Zm-12.1-.3c-4.2 0-8 .1-12.2.3l.2 4c4.1-.2 7.8-.3 12-.3v-4Zm-12.2.3a7 7 0 0 0-6.6 6.7l4 .1a3 3 0 0 1 2.8-2.8l-.2-4Zm-6.6 6.7v2.7h4v-2.6l-4-.1Zm0 2.7v4.2h4v-4.2h-4Zm0 4.2a7 7 0 0 0 6.6 6.7l.2-4a3 3 0 0 1-2.9-2.8l-4 .1Zm6.7 6.7h24v-4h-24v4Zm64.5-18h2v-2h-2v2Zm-27 0v-2h-2v2h2Zm0 3.3h-2v2h2v-2Zm11.8 0h2v-2h-2v2Zm0 25.3h-2v2h2v-2Zm3.4 0v2h2v-2h-2Zm0-25.3v-2h-2v2h2Zm11.8 0v2h2v-2h-2Zm0-5.3h-27v4h27v-4Zm-29 2v3.3h4v-3.3h-4Zm2 5.3h11.8v-4h-11.7v4Zm9.8-2V194h4v-25.3h-4Zm2 27.3h3.4v-4h-3.4v4Zm5.4-2v-25.3h-4V194h4Zm-2-23.3h11.8v-4h-11.8v4Zm13.8-2v-3.3h-4v3.3h4Zm34.3 0v2h2v-2h-2Zm0-3.3h2v-2h-2v2Zm-27 0v-2h-2v2h2Zm0 28.6h-2v2h2v-2Zm27 0v2h2v-2h-2Zm0-3.3h2v-2h-2v2Zm-23.6 0h-2v2h2v-2Zm0-9.3v-2h-2v2h2Zm23.6 0v2h2v-2h-2Zm0-3.4h2v-2h-2v2Zm-23.6 0h-2v2h2v-2Zm0-9.3v-2h-2v2h2Zm25.6 0v-3.3h-4v3.3h4Zm-2-5.3h-27v4h27v-4Zm-29 2V194h4v-28.6h-4Zm2 30.6h27v-4h-27v4Zm29-2v-3.3h-4v3.3h4Zm-2-5.3h-23.6v4h23.6v-4Zm-21.6 2v-9.3h-4v9.3h4Zm-2-7.3h23.6v-4h-23.6v4Zm25.6-2V178h-4v3.4h4Zm-2-5.4h-23.6v4h23.6v-4Zm-21.6 2v-9.3h-4v9.3h4Zm-2-7.3h23.6v-4h-23.6v4Zm63.7 11.2-1.5 1.4 1.5-1.4Zm.4 5 2 .1v-.1h-2Zm-.1 2.5h-2 2Zm-.5 1-1.4-1.3 1.4 1.4Zm-1 .5v-2h-.1v2Zm-23.7 0v-2 2Zm-1.6-1.5-2 .1v.1l2-.2Zm0-2.5 2-.1-.2-1.9h-1.9v2Zm-3.4 0v-2h-2v2h2Zm0 2.7h-2 2Zm4.8 4.7v2-2Zm24 0 .1 2v-2Zm4.8-4.7h2-2Zm0-6.8h2v-.1h-2Zm-4.7-4.8v-2 2Zm-24 0-.2 2h.2v-2Zm-1.6-5.5h-2 2Zm.2-2.4h2-2Zm.4-1.2-1.4-1.4 1.4 1.4Zm1-.4v2h.1v-2Zm23.8 0-.1 2v-2Zm1.5 1.6 2-.1v-.1l-2 .2Zm.1 2.4-2 .1.1 2h2v-2Zm3.4 0v2h2v-2h-2Zm-.1-2.7h2-2Zm-4.8-4.7v2-2Zm-24 0 .1 2v-2Zm-4.7 4.7h-2 2Zm-.1 6.9h-2 2Zm4.7 4.7v2-2Zm24.1 2h-.2l-.2-.1 2.9-2.9a4 4 0 0 0-2.5-1v4Zm-.4-.1v-.4h4a4 4 0 0 0-1.1-2.5l-2.9 2.9Zm0-.4v4h4v-4h-4Zm0 3.9-.1 1.3-.1 1.2 4 .2v-1.2l.1-1.3-4-.2Zm-.2 2.6v-.2l.1-.1 2.9 2.8c.6-.7 1-1.5 1-2.5h-4Zm.1-.3.2-.1h.2v4c1 0 1.8-.5 2.5-1.1l-2.9-2.8Zm.3-.2c-4 .2-7.7.3-11.8.3v4c4.1 0 7.9 0 12-.3l-.2-4Zm-11.8.3c-4 0-7.7 0-11.7-.3l-.2 4c4 .2 7.8.3 12 .3v-4Zm-11.8-.3h.2l.1.2-2.8 2.8c.6.6 1.5 1 2.5 1v-4Zm.3.2.1.1-4 .4c.1.8.5 1.6 1.1 2.3l2.8-2.8Zm.1.2v-2.5l-4 .2v2.5l4-.2Zm-2-4.4H989v4h3.3v-4Zm-5.4 2v2.8l4-.2v-2.6h-4Zm0 2.8a7 7 0 0 0 6.7 6.6l.2-4a3 3 0 0 1-2.8-2.8l-4 .2Zm6.7 6.6c4.2.2 8 .3 12.1.3v-4l-12-.3v4Zm12.1.3c4.2 0 8-.1 12.1-.3l-.1-4c-4.2.2-7.9.3-12 .3v4Zm12.1-.3a7 7 0 0 0 6.7-6.6l-4-.2a3 3 0 0 1-2.9 2.8l.2 4Zm6.7-6.6v-2.8h-4v2.6l4 .2Zm0-2.8v-4.1h-4v4.1h4Zm0-4.2a7 7 0 0 0-6.6-6.7l-.1 4a3 3 0 0 1 2.8 2.9l4-.2Zm-6.7-6.7h-24v4h24v-4Zm-23.8 0 .1.1-2.8 2.9c.7.6 1.5 1 2.3 1l.4-4Zm.1.1v.2l.1.2h-4c0 1 .4 1.8 1 2.5l2.9-2.9Zm.1.4v-4h-4v4h4Zm0-3.9.2-2.4-4-.2-.2 2.4 4 .2Zm.2-2.5v.1l-.2.2-2.8-2.9c-.7.7-1 1.6-1 2.6h4Zm-.2.3h-.3v-4c-1 0-1.9.5-2.5 1.1l2.8 2.9Zm-.2 0 11.7-.2v-4c-4 0-7.8 0-12 .3l.3 4Zm11.7-.2c4 0 7.8 0 11.8.3l.2-4c-4.1-.2-7.9-.3-12-.3v4Zm11.9.3-.4-.1 2.9-2.9c-.7-.6-1.5-1-2.5-1v4Zm-.4-.1v-.2l4-.3c-.1-.8-.5-1.7-1.1-2.4l-2.9 2.9Zm0-.2v2.3l4-.2V170l-4 .2Zm2 4.3h3.4v-4h-3.4v4Zm5.4-2-.1-2.7-4 .1v2.6h4Zm-.1-2.7a7 7 0 0 0-6.7-6.7l-.2 4a3 3 0 0 1 2.9 2.8l4-.1Zm-6.7-6.7c-4.1-.2-7.9-.3-12-.3v4c4 0 7.7.1 11.8.3l.2-4Zm-12-.3c-4.2 0-8 .1-12.2.3l.2 4c4.1-.2 7.8-.3 12-.3v-4Zm-12.2.3a7 7 0 0 0-6.6 6.7l4 .1a3 3 0 0 1 2.8-2.8l-.2-4Zm-6.6 6.7-.1 2.7h4v-2.6l-4-.1Zm-.1 2.7v4.2h4v-4.2h-4Zm0 4.2a7 7 0 0 0 6.6 6.7l.2-4a3 3 0 0 1-2.8-2.8l-4 .1Zm6.7 6.7h24.1v-4h-24v4Zm64.6-18h2v-2h-2v2Zm-27 0v-2h-2v2h2Zm0 3.3h-2v2h2v-2Zm11.8 0h2v-2h-2v2Zm0 25.3h-2v2h2v-2Zm3.4 0v2h2v-2h-2Zm0-25.3v-2h-2v2h2Zm11.8 0v2h2v-2h-2Zm0-5.3h-27v4h27v-4Zm-29 2v3.3h4v-3.3h-4Zm2 5.3h11.8v-4h-11.8v4Zm9.8-2V194h4v-25.3h-4Zm2 27.3h3.4v-4h-3.4v4Zm5.4-2v-25.3h-4V194h4Zm-2-23.3h11.8v-4h-11.8v4Zm13.8-2v-3.3h-4v3.3h4Zm5.1 22v-2h-2v2h2Zm0 3.3h-2v2h2v-2Zm3.4 0v2h2v-2h-2Zm0-3.3h2v-2h-2v2Zm-5.4 0v3.3h4v-3.3h-4Zm2 5.3h3.4v-4h-3.4v4Zm5.4-2v-3.3h-4v3.3h4Zm-2-5.3h-3.4v4h3.4v-4Zm40.6.7 2 .2v-.1h-2Zm-1.5 1.5v-2h-.1v2Zm-24.5 0v-2 2Zm-1.5-1.5h2v-.1l-2 .1Zm0-19.3h2-2Zm.4-1.1 1.4 1.4-1.4-1.4Zm1-.5v-2h-.2l.3 2Zm24.5 0 .3-2h-.1l-.1 2Zm1.1.5-1.4 1.4 1.4-1.4Zm.5 1h2v-.1l-2 .2Zm0 2.6h-2v2h2v-2Zm3.5 0v2h2v-2.1h-2Zm-.1-2.7h-2 2Zm-4.8-4.8v2-2Zm-24.8 0 .1 2v-2Zm-4.7 4.8 2 .1-2-.1Zm0 19.7 2-.1h-2Zm4.8 4.7v-2 2Zm24.7 0v-2 2Zm4.8-4.7h2-2Zm0-2.7 2 .1.2-2.1h-2.1v2Zm-3.3 0v-2h-2v2h2Zm-2 2.3v-.1l2.8 2.8c.7-.7 1-1.5 1-2.3l-3.9-.4Zm0-.1.1-.1h.3v4c1 0 1.8-.5 2.4-1.1l-2.8-2.8Zm.3-.2c-4 .2-8.1.3-12.2.3v4c4.1 0 8.3 0 12.3-.3l-.2-4Zm-12.2.3c-4 0-8.1 0-12.1-.3l-.2 4c4 .2 8.2.3 12.3.3v-4Zm-12.2-.3h.2l.1.2-2.8 2.8a4 4 0 0 0 2.5 1v-4Zm.3.2.1.1v.2h-4c0 1 .4 1.8 1 2.5l3-2.8Zm.2.2a191 191 0 0 1 0-19.1l-4-.2c-.4 6.4-.4 13 0 19.5l4-.2Zm0-19.2v.2l-.2.1-2.8-2.8c-.7.6-1 1.5-1 2.5h4Zm-.2.3h-.1l-.5-3.9c-.7 0-1.5.4-2.2 1l2.8 2.9Zm-.3 0 12.2-.2v-4l-12.3.3.1 4Zm12.2-.2 12.2.3.1-4c-4-.2-8.2-.3-12.3-.3v4Zm12 .3-.1-.1 2.8-2.8c-.6-.7-1.4-1-2.3-1l-.3 3.9Zm-.1-.1v-.1l3.9-.4c0-.9-.4-1.7-1-2.3l-2.9 2.8Zm0-.2v2.4h4l-.1-2.6-4 .2Zm2 4.4h3.4v-4h-3.4v4Zm5.4-2.1-.1-2.7-4 .2v2.6l4-.1Zm-.1-2.7a7 7 0 0 0-6.7-6.7l-.2 4a3 3 0 0 1 2.9 2.9l4-.2Zm-6.7-6.7c-4.2-.2-8.3-.3-12.5-.3v4l12.3.3.2-4Zm-12.5-.3-12.5.3.3 4c4-.2 8.1-.3 12.2-.3v-4Zm-12.5.3a7 7 0 0 0-6.6 6.7l4 .2a3 3 0 0 1 2.8-2.9l-.2-4Zm-6.6 6.7c-.4 6.6-.4 13.2 0 19.9l4-.2c-.4-6.5-.4-13 0-19.5l-4-.2Zm0 19.9a7 7 0 0 0 6.7 6.6l.1-4a3 3 0 0 1-2.8-2.8l-4 .2Zm6.7 6.6c4 .2 8.3.3 12.4.3v-4l-12.3-.3-.2 4Zm12.4.3c4.2 0 8.3-.1 12.5-.3l-.2-4c-4 .2-8.2.3-12.3.3v4Zm12.5-.3a7 7 0 0 0 6.7-6.6l-4-.2a3 3 0 0 1-2.9 2.8l.2 4Zm6.7-6.6V187l-4-.2v2.7l4 .2Zm-2-4.8h-3.3v4h3.4v-4Zm-5.3 2v2.4l3.9.2v-2.6h-4Zm45.3-18.4.2-2h-.1l-.1 2Zm1 .5-1.4 1.4 1.4-1.4Zm.5 1h2v-.1l-2 .2Zm0 19.4 2 .2-2-.2Zm-1.5 1.5v-2h-.1v2Zm-24.5 0 .1-2h-.1v2Zm-1.5-1.5h2v-.1l-2 .1Zm0-19.3h2-2Zm.4-1.1 1.5 1.4-1.5-1.4Zm1.1-.5v-2h-.2l.2 2Zm-.1-3.4v2-2Zm-4.8 4.8 2 .1-2-.1Zm0 19.7 2-.1h-2Zm4.8 4.7v-2 2Zm24.7 0v-2 2Zm4.8-4.7-2-.1h2Zm0-19.7h-2 2Zm-4.8-4.8v2-2Zm-12.3 5.1 12 .3.3-4-12.3-.3v4Zm12 .3-.2-.1 2.9-2.8c-.7-.7-1.5-1-2.3-1l-.4 3.9Zm-.2-.1v-.1l4-.4c-.2-.9-.5-1.7-1.1-2.3l-2.9 2.8Zm0-.2c.3 6.3.3 12.7 0 19.1l4 .2c.3-6.5.3-13 0-19.5l-4 .2Zm0 19v-.1l2.9 2.8c.6-.7 1-1.5 1-2.3l-4-.4Zm0-.1.2-.1h.2v4c1 0 1.8-.5 2.5-1.1l-2.9-2.8Zm.3-.2c-4 .2-8.1.3-12.1.3v4c4 0 8.2 0 12.3-.3l-.2-4Zm-12.1.3c-4 0-8.2 0-12.2-.3l-.2 4c4.1.2 8.3.3 12.4.3v-4Zm-12.3-.3.3.2-2.8 2.8a4 4 0 0 0 2.5 1v-4Zm.3.2.1.1v.2h-4c0 1 .5 1.8 1.1 2.5l2.8-2.8Zm.2.2c-.4-6.4-.4-12.8 0-19.1l-4-.2c-.4 6.4-.4 13 0 19.5l4-.2Zm0-19.2v.2l-.2.1-2.8-2.8c-.6.6-1 1.5-1 2.5h4Zm-.2.3-.5-3.9c-.8 0-1.6.4-2.3 1l2.8 2.9Zm-.2 0 12.2-.2v-4c-4.1 0-8.3.1-12.4.3l.2 4Zm-.3-7.3a7 7 0 0 0-6.7 6.7l4 .2a3 3 0 0 1 2.9-2.9l-.2-4Zm-6.7 6.7c-.3 6.6-.3 13.2 0 19.9l4-.2c-.3-6.5-.3-13 0-19.5l-4-.2Zm0 19.9a7 7 0 0 0 6.7 6.6l.1-4a3 3 0 0 1-2.8-2.8l-4 .2Zm6.7 6.6c4.1.2 8.3.3 12.5.3v-4c-4.2 0-8.3-.1-12.3-.3l-.2 4Zm12.5.3c4 0 8.3-.1 12.4-.3l-.2-4c-4 .2-8.2.3-12.2.3v4Zm12.4-.3a7 7 0 0 0 6.7-6.6l-4-.2a3 3 0 0 1-2.8 2.8l.1 4Zm6.7-6.6c.3-6.7.3-13.3 0-20l-4 .3c.3 6.5.3 13 0 19.5l4 .2Zm0-20a7 7 0 0 0-6.7-6.6l-.2 4a3 3 0 0 1 2.9 2.9l4-.2Zm-6.7-6.6a254 254 0 0 0-12.4-.3v4l12.2.3.2-4Zm-12.4-.3c-4.2 0-8.4.1-12.5.3l.2 4c4-.2 8.1-.3 12.3-.3v-4Zm60.9 2.6v-2h-1.2l-.6 1 1.8 1Zm-13 24.6-1.8 1 1.8 3.3 1.8-3.4-1.8-1Zm-13-24.6 1.8-1-.6-1h-1.2v2Zm-6 0v-2h-2v2h2Zm0 28.6h-2v2h2v-2Zm3.4 0v2h2v-2h-2Zm0-25.3v-2h-2v2h2Zm.6 0 1.8-.9-.6-1h-1.2v2ZM1187 194l-1.8 1 .5 1h1.3v-2Zm3.3 0v2h1.2l.5-1-1.7-1Zm13.3-25.3v-2h-1.2l-.5 1.1 1.7 1Zm.6 0h2v-2h-2v2Zm0 25.3h-2v2h2v-2Zm3.4 0v2h2v-2h-2Zm0-28.6h2v-2h-2v2Zm-7.8-1-13 24.6 3.6 2 13-24.7-3.6-1.9Zm-9.4 24.6-13-24.6-3.6 2 13 24.5 3.6-1.9Zm-14.8-25.6h-6v4h6v-4Zm-8 2V194h4v-28.6h-4Zm2 30.6h3.4v-4h-3.3v4Zm5.4-2v-25.3h-4V194h4Zm-2-23.3h.6v-4h-.6v4Zm-1.2-1 13.4 25.3 3.5-1.9-13.4-25.3-3.5 1.9ZM1187 196h3.3v-4h-3.3v4Zm5-1 13.4-25.3-3.5-1.9-13.4 25.3 3.5 1.9Zm11.6-24.3h.6v-4h-.6v4Zm-1.4-2V194h4v-25.3h-4Zm2 27.3h3.4v-4h-3.4v4Zm5.4-2v-28.6h-4V194h4Zm-2-30.6h-6v4h6v-4Z"/><path d="m617 317.2 1 .2v-.1h-1Zm-.8 1v-1h-.1v1Zm-14.4 0v-1 1Zm-.9-1h1-1Zm0-11.3h1-1Zm.3-.6.7.7-.7-.7Zm.6-.3v-1 1Zm14.4 0v-1 1Zm.6.3-.7.7.7-.7Zm.3.6h1-1Zm0 1.5h-1v1h1v-1Zm2 0v1h1v-1h-1Zm0-1.6h-1 1Zm-2.9-2.8v1-1Zm-14.4 0v1-1Zm-2.8 2.8h1-1Zm0 11.5h1-1Zm2.8 2.8v-1 1Zm14.5 0v-1h-.1v1Zm2.7-2.8h1-1Zm.1-1.5h1v-1h-1v1Zm-2 0v-1h-1v1h1Zm-1 1.3 1.4 1.5.6-1.2-2-.3Zm0 0v2c.6 0 1-.2 1.4-.5l-1.4-1.4Zm0 0c-2.4.2-4.7.2-7.1.2v2c2.4 0 4.8 0 7.2-.2l-.1-2Zm-7.1.2c-2.4 0-4.8 0-7.1-.2l-.1 2c2.4.2 4.8.2 7.2.2v-2Zm-7.2-.2h.1l-1.4 1.5c.3.3.8.5 1.3.5v-2Zm.1 0v.1h-2c0 .5.2 1 .6 1.4l1.4-1.4Zm0 .1c-.2-3.7-.2-7.5 0-11.2l-2-.1c-.2 3.7-.2 7.6 0 11.4l2-.1Zm0-11.3v.1l-1.4-1.4a2 2 0 0 0-.6 1.3h2Zm0 .1-.2-2a2 2 0 0 0-1.2.6l1.4 1.4Zm0 0 7.1-.2v-2l-7.2.2v2Zm7.1-.2 7.1.2.1-2-7.2-.2v2Zm7 .2 1.5-1.4a2 2 0 0 0-1.2-.6l-.2 2Zm0 0 2-.2a2 2 0 0 0-.5-1.2L616 306Zm0 0 .1 1.4h2v-1.5h-2Zm1.1 2.4h2v-2h-2v2Zm3-1v-1.6h-2v1.6h2Zm0-1.6a4 4 0 0 0-3.8-3.8l-.1 2c1 0 1.8.9 1.8 1.9l2-.1Zm-3.8-3.8-7.3-.1v2l7.2.1.1-2Zm-7.3-.1-7.3.1.1 2 7.2-.1v-2Zm-7.3.1a4 4 0 0 0-3.7 3.8h2a2 2 0 0 1 1.8-1.8v-2Zm-3.7 3.8c-.2 3.8-.2 7.7 0 11.6l2-.1c-.2-3.8-.2-7.6 0-11.4l-2-.1Zm0 11.6c0 2 1.7 3.6 3.7 3.7v-2c-.9 0-1.7-.8-1.7-1.8h-2Zm3.7 3.7 7.3.2v-2c-2.4 0-4.8 0-7.2-.2l-.1 2Zm7.3.2c2.4 0 4.9 0 7.3-.2l-.1-2-7.2.2v2Zm7.3-.2c2 0 3.6-1.7 3.7-3.7l-2-.1c0 1-.8 1.8-1.8 1.8v2Zm3.7-3.7.1-1.6h-2v1.5h2Zm-.9-2.6h-2v2h2v-2Zm-3 1v1.4l2 .1v-1.5h-2Zm22 4.2-.9.4.3.6h.7v-1Zm2.2 0v1h1.6l-.7-1.5-.9.5Zm-7.7-16.8 1-.4-.3-.6h-.7v1Zm-4.3 0v-1h-.7l-.2.6.9.4Zm-7.7 16.8-1-.5-.6 1.5h1.6v-1Zm2.1 0v1h.7l.3-.6-1-.4Zm1.7-3.6v-1h-.6l-.3.5 1 .5Zm12.1 0 1-.5-.4-.5h-.6v1Zm-11.2-2-.9-.4-.6 1.4h1.5v-1Zm4.2-9.2v-1h-.6l-.3.5 1 .5Zm1.9 0 .9-.5-.3-.5h-.6v1Zm4.2 9.2v1h1.5l-.6-1.4-1 .4Zm2.6 6.6h2.1v-2h-2.1v2Zm3-1.5-7.7-16.7-1.8.8 7.7 16.8 1.8-.9Zm-8.6-17.3h-4.3v2h4.3v-2Zm-5.2.6-7.7 16.7 1.8.9 7.7-16.8-1.8-.8Zm-6.8 18.2h2.1v-2h-2.1v2Zm3-.6 1.7-3.6-1.8-.9-1.7 3.6 1.9.9Zm.8-3h12.1v-2h-12v2Zm11.2-.6 1.6 3.6 1.9-.9-1.7-3.6-1.8.9Zm-9.4-2 4.3-9.2-1.9-.9-4.2 9.3 1.8.8Zm3.3-8.6h1.9v-2h-1.9v2Zm1-.6 4.2 9.2 1.8-.9-4.2-9.2-1.8.9Zm5 7.8h-10.2v2h10.3v-2Zm20.9 4.6h1v-1h-1v1Zm-11.9 0h-1v1h1v-1Zm0-14.8h1v-1h-1v1Zm-2 0v-1h-1v1h1Zm0 16.8h-1v1h1v-1Zm13.9 0v1h1v-1h-1Zm0-3h-11.9v2h11.9v-2Zm-10.9 1v-14.8h-2V318h2Zm-1-15.8h-2v2h2v-2Zm-3 1V320h2v-16.8h-2Zm1 17.8h13.9v-2h-13.8v2Zm14.9-1v-2h-2v2h2Zm19.3-2.8 1 .2v-.1h-1Zm-.9 1v-1 1Zm-14.3 0v-1 1Zm-.9-1h1-1Zm0-11.3h1-1Zm.3-.6.7.7-.7-.7Zm.6-.3v-1h-.1l.1 1Zm14.3 0 .1-1v1Zm.7.3-.8.7.8-.7Zm.2.6h1-1Zm0 1.5h-1v1h1v-1Zm2 0v1h1.1v-1h-1Zm0-1.6h-1 1ZM676 303v1-1Zm-14.5 0v1-1Zm-2.8 2.8h1-1Zm0 11.5h1-1Zm2.8 2.8v-1 1Zm14.5 0v-1 1Zm2.8-2.8h1-1Zm0-1.5h1l.1-1h-1v1Zm-2 0v-1h-1v1h1Zm-1 1.3 1.5 1.5c.3-.4.5-.8.5-1.2l-2-.3Zm0 0h.1v2c.5 0 1-.2 1.4-.5l-1.5-1.4Zm0 0c-2.3.2-4.7.2-7 .2v2c2.4 0 4.8 0 7.2-.2l-.1-2Zm-7 .2c-2.4 0-4.8 0-7.2-.2v2c2.3.2 4.8.2 7.2.2v-2Zm-7.2-.2-1.3 1.5c.3.3.8.5 1.3.5v-2Zm0 0h.1v.1h-2c0 .5.2 1 .6 1.4l1.4-1.4Zm.1.1c-.2-3.7-.2-7.5 0-11.2l-2-.1c-.2 3.7-.2 7.6 0 11.4l2-.1Zm0-11.3v.1l-1.4-1.4c-.4.3-.6.8-.6 1.3h2Zm0 .1-.2-2a2 2 0 0 0-1.2.6l1.4 1.4Zm0 0 7-.2v-2l-7.1.2v2Zm7-.2 7.2.2v-2l-7.1-.2v2Zm7.1.2 1.5-1.4a2 2 0 0 0-1.3-.6l-.2 2Zm0 0 2-.2a2 2 0 0 0-.5-1.2l-1.5 1.4Zm0 0v1.4h2v-1.5h-2Zm1 2.4h2v-2h-2v2Zm3-1v-1.6h-2v1.6h2Zm0-1.6a4 4 0 0 0-3.7-3.8l-.1 2c1 0 1.8.9 1.8 1.9l2-.1ZM676 302l-7.3-.1v2l7.2.1v-2Zm-7.3-.1-7.3.1v2l7.3-.1v-2Zm-7.3.1a4 4 0 0 0-3.8 3.8h2a2 2 0 0 1 1.9-1.8l-.1-2Zm-3.8 3.8c-.2 3.8-.2 7.7 0 11.6l2-.1c-.2-3.8-.2-7.6 0-11.4l-2-.1Zm0 11.6a4 4 0 0 0 3.8 3.7v-2c-1 0-1.7-.8-1.8-1.8h-2Zm3.8 3.7 7.3.2v-2c-2.4 0-4.8 0-7.2-.2l-.1 2Zm7.3.2c2.4 0 4.8 0 7.3-.2l-.1-2-7.2.2v2Zm7.3-.2c2 0 3.6-1.7 3.7-3.7l-2-.1c0 1-.8 1.8-1.8 1.8v2Zm3.7-3.7v-1.6h-2v1.5h2Zm-1-2.6h-2v2h2v-2Zm-3 1v1.4l2 .1v-1.5h-2Zm6 1.4h-1 1Zm2.9 2.8v-1 1Zm14.5 0v-1h-.1v1Zm2.7-2.8h1-1Zm0-14.2h1v-1h-1v1Zm-2 0v-1h-1v1h1Zm0 14 1 .2v-.1h-1Zm-.2.7.7.7-.7-.7Zm-.6.3v1-1Zm-14.4 0v1-1Zm-.9-15h1v-1h-1v1Zm-2 0v-1h-1v1h1Zm-1 14.2a4 4 0 0 0 3.8 3.8l.1-2a2 2 0 0 1-1.8-1.9l-2 .1Zm3.8 3.8 7.3.1v-2l-7.2-.1v2Zm7.3.1 7.3-.1-.1-2-7.2.1v2Zm7.3-.1a4 4 0 0 0 3.7-3.8h-2a2 2 0 0 1-1.8 1.8l.1 2Zm3.7-3.8V303h-2v14.2h2Zm-1-15.2h-2v2h2v-2Zm-3 1v14h2v-14h-2Zm0 14 1.5 1.4c.3-.3.5-.8.6-1.2l-2-.2Zm0 0 .3 2a2 2 0 0 0 1.2-.6l-1.4-1.4Zm.1 0-7 .2v2l7.1-.2v-2Zm-7 .2-7.2-.2-.1 2 7.2.2v-2Zm-7.2-.2-1.4 1.4c.4.4.8.5 1.2.6l.2-2Zm0 0h-2c0 .6.3 1 .6 1.4l1.4-1.4Zm0 0v-14h-2v14h2Zm-1-15h-2v2h2v-2Zm-3 1v14.2h2V303h-2Zm38.5 15h1v-1h-1v1Zm-11.8 0h-1v1h1v-1Zm0-14.8h1v-1h-1v1Zm-2 0v-1h-1v1h1Zm0 16.8h-1v1h1v-1Zm13.8 0v1h1v-1h-1Zm0-3h-11.8v2h11.8v-2Zm-10.8 1v-14.8h-2V318h2Zm-1-15.8h-2v2h2v-2Zm-3 1V320h2v-16.8h-2Zm1 17.8h13.8v-2h-13.8v2Zm14.8-1v-2h-2v2h2Zm17.3 0-.9.4.3.6h.6v-1Zm2.2 0v1h1.6l-.7-1.5-1 .5Zm-7.7-16.8 1-.4-.3-.6h-.7v1Zm-4.4 0v-1h-.6l-.3.6 1 .4ZM720 320l-1-.5-.6 1.5h1.6v-1Zm2.1 0v1h.7l.2-.6-.9-.4Zm1.7-3.6v-1h-.7l-.2.5.9.5Zm12 0 1-.5-.3-.5h-.6v1Zm-11.1-2-1-.4-.6 1.4h1.6v-1Zm4.2-9.2v-1h-.6l-.3.5 1 .5Zm1.8 0 1-.5-.3-.5h-.7v1Zm4.3 9.2v1h1.5l-.6-1.4-1 .4Zm2.5 6.6h2.2v-2h-2.2v2Zm3.1-1.5-7.7-16.7-1.8.8 7.7 16.8 1.8-.9Zm-8.6-17.3h-4.4v2h4.4v-2Zm-5.3.6-7.6 16.7 1.8.9 7.7-16.8-1.9-.8ZM720 321h2.1v-2H720v2Zm3-.6 1.7-3.6-1.8-.9-1.7 3.6 1.8.9Zm.8-3h12v-2h-12v2Zm11.2-.6 1.6 3.6 1.8-.9-1.6-3.6-1.8.9Zm-9.4-2 4.2-9.2-1.8-.9-4.2 9.3 1.8.8Zm3.3-8.6h1.8v-2H729v2Zm1-.6 4.2 9.2 1.8-.9-4.3-9.2-1.8.9Zm5 7.8h-10.2v2H735v-2Zm18.6-10.2h1v-1h-1v1Zm-15.7 0v-1h-1v1h1Zm0 2h-1v1h1v-1Zm6.8 0h1v-1h-1v1Zm0 14.8h-1v1h1v-1Zm2 0v1h1v-1h-1Zm0-14.8v-1h-1v1h1Zm7 0v1h1v-1h-1Zm0-3h-15.8v2h15.7v-2Zm-16.8 1v2h2v-2h-2Zm1 3h6.8v-2h-6.8v2Zm5.8-1V320h2v-14.8h-2Zm1 15.8h2v-2h-2v2Zm3-1v-14.8h-2V320h2Zm-1-13.8h7v-2h-7v2Zm8-1v-2h-2v2h2Zm17 0v1h1v-1h-1Zm0-2h1v-1h-1v1Zm-15.8 0v-1h-1v1h1Zm0 16.8h-1v1h1v-1Zm15.8 0v1h1v-1h-1Zm0-2h1v-1h-1v1Zm-13.8 0h-1v1h1v-1Zm0-5.4v-1h-1v1h1Zm13.8 0v1h1v-1h-1Zm0-2h1v-1h-1v1Zm-13.8 0h-1v1h1v-1Zm0-5.4v-1h-1v1h1Zm14.8 0v-2h-2v2h2Zm-1-3h-15.8v2h15.8v-2Zm-16.8 1V320h2v-16.8h-2Zm1 17.8h15.8v-2h-15.8v2Zm16.8-1v-2h-2v2h2Zm-1-3h-13.8v2h13.8v-2Zm-12.8 1v-5.4h-2v5.4h2Zm-1-4.4h13.8v-2h-13.8v2Zm14.8-1v-2h-2v2h2Zm-1-3h-13.8v2h13.8v-2Zm-12.8 1v-5.4h-2v5.4h2Zm-1-4.4h13.8v-2h-13.8v2Z"/><path fill="none" stroke="#a73a24" stroke-width="2" d="M1287.8 204.4c5-4 10-10 16.9-11.6l5-10.6c-6.3-.5-11.9-1-17.5 1.5-10 4-11.8 14.6-4.4 20.7Zm0 0c0 2-.6 5 .7 7 1.8 3.6 5 6.2 6.2 10.2 1.2 7.6-1.3 15.2 1.9 22.7 2.5 6.6 11.8 14.2 18 18.7m-26.8-58.6 64.9 16.7-.7 10.6-10.5 9.6-26.9 21.7m0 0c.7 14.2 16.3 30.4 2 42l-2-42Zm-66.6-27.8h1.2m192.6 82.4c-7.5 0-20.6 1-28-.5l38-33.3m-54.9 47 15.6-12.2m-13.7 89c-5 4-11.2 12.1-18 13.6-8.8 2.6-19.4-1-28.1.6-5 1-10 6.5-15.6 5.5-6.9-2-10.6-11.6-15.6-15.7-2.5-2-6.2-3-8.1-5.5-5-7 1.9-16.7-1.9-23.8-.6-2.5-4.3-4-6.2-6l-15-12.2 162.7 6.7c-1.2 7.6 2.5 18.7-1.2 25.8-1.3 2-4.4 3.5-6.3 5a233 233 0 0 1-19.3 12.7c-2.5 1.5-5.6 4.5-9.3 4.5-7.5-.5-13.8-7.6-18.1-11Zm0 0v-27.3m-50.5 105.1c-5-5.5-1.9-10-4.4-16-1.2-4.7-7.4-7.2-8.7-11.8-2.5-9 1.3-19.7 1.3-29.3l30.5 46c-8.1 0-13 7.1-18.7 11.1Zm0 0c0 2.6 0 4 2.5 5.6l-2.5-5.6Zm3.1 15.7c6.9-5.5 11.2-11 21.2-10l-3.1-8c-11.8 0-21.8 8-18 18Zm0 0c0 5 5.6 11.1 11.2 12.6 2.5 1 6.3 0 8.8 0m23.6-315.9c3.8-.5 7.5-.5 11.3-1 6.2-1 15-4 21.2-2 5 2 11.2 11.1 8.7 15.7-3.8 6.5-12.5 10-20.6 11.6l-20.5-24.3Zm42.4 13.7 4.4 8-4.4-8Zm-97.2 11.6-.6 7.6-8.8 8-21.8 17.8 31.2-33.4Zm-84.8 7.6c1.9 7 4.4 13.6 6.3 20.7.6 3.6 0 8.1 2.5 11.1 2.5 4 8.7 7.6 12.4 10.7l26.8 21.7c3.8 3 8.8 6.6 11.9 10.1 2.5 3 3 7 7.5 8a44.3 44.3 0 0 0 19.9 0c3.7-1 7.5-5.5 10.6-8l25-20.2c5-4 13.6-9 16.8-14.2 2.4-4-1.3-11-1.3-15.6l-138.4-24.3Zm-23.7 1.5c.7 10.6 7.5 19.7 6.9 30.3 0 2.6-2.5 3.6-3.1 5.6-1.9 3.5-1.3 9.6 1.8 12.6 3.2 3.6 8.8 6.6 13.1 9.6 8.8 6.6 17.5 13.2 26.2 20.3 3.8 3 11.9 7 13.1 11 2.5 9.7 0 22.3 0 32 0 3 1.3 8.5-.6 11-6.9 8.6-19.3 15.7-28 22.8-3.2 2.5-8.2 5.5-10 8.6-2 4 6.2 5.5 5.6 9.6-1.3 8-1.3 16.7-3.8 24.7-1.2 4-3 8.1-4.3 12.2l-16.9-210.3Zm174 15.7c1.2 5-7 9-10.7 12.1l10.7-12Zm-177.7 9.6c0 4.5 3.7 7 7.5 10l-7.5-10ZM1321.5 313.6a39.2 39.2 0 0 1-15.6 5c-5.6.5-11.2-1-16.2 1.6l31.8-6.6Zm21.8 0c5.6 3.5 10.6 7 15.6 11.1 2.5 2 5 5 8.7 6 6.3 1 14.4 0 20.6 0 2.5 0 6.2-.4 8.1 1 3.7 2.6 2.5 9.2 2.5 12.7v35c11.2-3.6 16.2-15.8 26.8-20.3 3.7-1.5 6.9 0 10.6.5 6.2.5 11.8 0 18 .5l-110.9-46.5Zm70.5 4c0 3.6 6.2 7.1 9.3 9.6 3.7 3 7.5 7.1 11.8 9.1 3.2 1.6 8.1.5 11.9.5q7.5 0-33-19.2Zm-94.8 91.5c7.5-6 15.6-15.6 25-19.7 5-1.5 11.8 0 16.8-.5 2.5 0 5-1 7.5-1.5 10-.5 19.9 0 29.9 0l-79.2 21.7Zm-6.2-3-18.1 14.6c-5 4-9.4 7.1-8.7 13.2l26.8-27.8Zm102.8 13.6c-1.2 4-6.2 7.1-10 10.1-8 6.6-15.5 14.7-24.9 19.8l35-29.9Zm-.6 3c5 5.1 3.1 10.2 3.7 16.2.7 4.6 5.6 9.1 5.6 13.2 0 2.5-3.7 4.5-5.6 6-5.6 4.6-12.4 12.7-20.5 13.7l16.8-49Zm21.8 45.1c-2.5 2-4.3 3.5-4.3 6s1.8 3.6 2.4 5.6m-11.2-25.3c1.3 1.5 1.9 3.5 0 5a60.5 60.5 0 0 1-21.8 17.2l21.8-22.2Zm1.3 5.6c3 4.5 1.8 8.6 7.5 12.1l-7.5-12Z"/><clipPath id="a"><path fill="#fff" d="M-12 0h1457v519H-12Z"/></clipPath></g><text stroke-width="0" dx="0" dy="0" font-family="&quot;Arial&quot;" font-size="22.8" font-weight="700" letter-spacing=".1" transform="translate(259.5 254.5)"><tspan y="0"><![CDATA[
Find out how much carbon your website is emitting every single time a visitor is there! 
]]></tspan></text></svg>