<svg xmlns="http://www.w3.org/2000/svg" fill="none" viewBox="0 0 428 597"><g clip-path="url(#a)"><path fill="#3F8CA8" d="M-43.2 19.8-35 6.6l16.7 2.2c27 3.5 85.7 29.5 126.5 56.7L146.5 91l10 15.6 10.1 15.6 26.8 16.5c14.8 9.4 38.8 29 53.7 43.8a433.5 433.5 0 0 0 50 44.2 393.7 393.7 0 0 1 42.1 36 667.9 667.9 0 0 0 45.1 39.6l26 19.2 5.3 23.3 5.1 22.2-22.7 39.5c-24.6 42.6-35.7 64.6-38.5 71.9l-1.7 5.5 6.4 2.1c3.6 1.3 9.6-3 13.3-8.9l7.3-10.4 2.1 9c1.2 5.1 1.5 13 .7 17l-1.7 8.2 7.4 10.3c4 6 8.1 14.7 9 18.8l1.7 7-16.9 20.3-16.6 19.9-43-18-43-18-6.7-25.2-6.7-25.3-21.5-9.8L228 470l-13.3 7.6-13.5 6.6-30.6-25.5-30.9-26.6-6.6 10.8-6.7 10.7-18.3-42.5c-10.2-23.8-21.8-51-25.9-59.6-4-8.7-10.2-23.8-14-32.9-3.6-9.3-18.3-41.1-33-71.6-14.5-29.4-37.3-80-51.4-112.7L-41 76-46 54.8-51 32.6l8-12.8Z"/><path fill="#F3C010" d="m432 620.8-9-27.4-18.4-1.3h-18.4v-15.7c0-21 5.9-41.8 13.5-51l6.7-6.5-44 5.2-44 5.3-8.4 13c-4.5 6.6-13.5 13-19.3 13h-10.8l2.2 32.7 1.8 32.7H260.6v-39.2l-12.1 6.5c-7.2 5.3-23.3 17-36.4 28.8l-23.7 19.6-6.3-15.7-6.7-15.7 2.2-11.7 2.7-10.5-10.3-15.7-10.4-15.6-16.1-2.6-15.7-2.7-18.9-30L89.6 485l-13.9 15.6-13.9 15.7-6.7-17-6.7-15.7-2.3 17-1.8 17-5.4-22.2-5.3-20.9-36-2.6-35.4-1.3-15.7 10.4c-8.5 5.3-23.8 22.2-34 36.6l-18.5 24.8-7.6-7.8c-9-10.5-9-17 0-47l7.6-23.5-7.6-6.6c-4-3.9-10.3-9.1-14-13l-6.7-5.3v-75.8l11.7-24.7a266 266 0 0 0 17.5-57.5l6.3-32.7.4 28.8V306l-7.1 19.6-6.8 20.9h4.5c6.3 0 14-43.1 14-79.7v-27.4l-9 6.5-9 6.5v-60l10.3-7.9a43 43 0 0 1 21-7.8c6.4 0 19.4-6.5 28.8-14.4l17.5-14.4-5.4-10.4-5.8-9.1 9.4-7.9 9.4-6.5-2.7 11.7-2.2 11.8h14.4l-3.2-14.4-2.7-14.3 10.3 3.9c5.9 1.3 14.4-2.6 18.9-7.9l8-9.1 2.8 6.5 2.7 7.9 7.1-11.8c4-5.2 21.6-17 38.6-24.8a4762 4762 0 0 1 59.7-26.1l28.7-13 20.7 44.3c48.9 100.6 84.3 96.5 192.5 161.9l23.7-20.8 21.6-57 50.6 63.5 35.5 111v-23.5l-30.5-2.6-30-1.3-66.5-41.8c-68.2-40.5-130-92.7-142.2-118.8l-6.7-14.4 11.2 7.8C265 161 322 189.7 366 209.3l49.3 21 29.2 30c16.1 17 44.4 2.6 49.3 7.8l-2.2 43.1-4.5-14.3C485 289 471.5 270.7 458 255l-24.6-28.8-92.5-44.4-92-44.4-29.6-26.1-29.6-26.2-10.8-26-10.3-24.9 12.6-1.3h12.1v26.1h13.9l-2.7 13-2.7 13.1H215.7V60.5l8.1-5.3 7.6-4L242.7 67l11.2 15.6 53.8 9.2c29.6 3.9 67.8 14.4 84.8 20.9l31 11.7 49.8 87.6A2932 2932 0 0 1 533 320.4l9.8 22.2-6.7 36.6c-7.2 39.1-8.5 62.7-1.8 32.6 6.3-28.7 7.6-13 5.4 52.3l-2.2 58.7-3.6-26-3.6-26.2v19.6c-.5 28.7 9 56.1 26.9 81l16.2 20.9 4-7.9 4.5-9.1-.5-35.3c0-45.7-3.6-47-9.4-3.9l-4 32.7-11.2-17-11.3-17-1.3-28.7-1.4-28.8h8.6l-1.8 30-2.3 28.8 5.4-32.7 5-32.6 2.2 17 2.2 15.6h12.6v-41.8l6.7 15.7 7.2 17-2.2 17-2.3 17 6.8 15.6 6.2 15.7 3.2-9.1 3.1-9.2-4.5-9.1c-2.7-5.2-5.8-22.2-7.1-39.2L589 464l8-13.1 8.1-13 2.3 17 2.2 15.6.5-22.2c.4-27.4 0-27.4-14.9-10.5l-11.2 11.8-2.7-11.8-2.7-13h11.7l-6.3-11.8-6.3-11.7 10.8-10.5c5.8-5.2 13-11.8 16.2-13l5.4-2.7 3 26.2 2.8 26 5-14.3c2.6-7.8 6.2-14.4 7.5-14.4h3.2l-2.3 43.2-1.7 41.7-18.4 55-18 54.8-4-6.6-3.6-6.5-2.7 18.3-2.3 18.3h-6.2c-3.6 0-6.8-4-6.8-9.2v-9.1l-13.4 2.6c-7.7 1.3-14.8 6.5-16.6 10.5l-2.7 9.1-6.3-15.7-6.3-14.3 1.4 18.2 1.3 18.3-29.2 1.3c-16.1 1.3-34.5 5.3-40.8 10.5L441 649.5l-9-28.7Z"/><path fill="#A73A24" d="m56.3 247.5-.2.3-.4.2a86.7 86.7 0 0 1-9-.2 67.4 67.4 0 0 1 0-7.6l.4-.1a108.3 108.3 0 0 1 9 .1l.2.4v.9h1.2v-1c0-.9-.8-1.6-1.7-1.6a89.4 89.4 0 0 0-8.8 0c-.9 0-1.6.7-1.7 1.7a62 62 0 0 0 0 7c0 .8.8 1.6 1.7 1.6a88.6 88.6 0 0 0 8.8 0c.9 0 1.6-.8 1.7-1.7v-1h-1.2v1Zm14.6 1.6h1.3L67.6 239h-2.7L60.3 249h1.3l1-2.2h7.3l1 2.2Zm-7.8-3.4 2.6-5.6h1.1l2.6 5.6H63Zm12.4-6.7V249h1.2v-3.9h2.9l5.7 3.9h2l-5.6-3.9H85c.9 0 1.6-.7 1.7-1.6v-3c0-.9-.8-1.6-1.7-1.6h-9.5Zm9.4 1.1.4.2.1.4v2.8l-.1.4-.4.2h-8.2v-4h8.2Zm16.8 3 .2-.8v-1.7c0-.9-.8-1.6-1.7-1.6h-9.5V249H101c.9 0 1.6-.8 1.6-1.7v-2.9c0-.6-.4-1.2-.9-1.5Zm-1.6-3 .4.2.2.4v1.6c0 .1 0 .3-.2.4l-.4.1H92v-2.7h8.2Zm1.3 7.3-.1.4-.4.1h-9V244h9c.1 0 .3 0 .4.2l.1.4v2.8Zm11.2-7.4a107.6 107.6 0 0 1 4.7.2l.2.4a67.5 67.5 0 0 1-.2 7.2l-.4.2a86.7 86.7 0 0 1-9-.2 67.5 67.5 0 0 1 0-7.6l.3-.1 4.4-.1Zm-4.4-1.1c-1 0-1.6.7-1.7 1.7v7c0 .8.8 1.6 1.7 1.6a88.6 88.6 0 0 0 8.8 0c.9 0 1.6-.8 1.7-1.7v-7c0-.9-.8-1.6-1.7-1.6a89.5 89.5 0 0 0-8.8 0Zm25.4 0v9h-.4l-8.2-9h-2.2v10.2h1.2v-9h.4l8.3 9h2V239h-1.1Zm4.6 9v1.2h1.2v-1.2h-1.2Z"/><path fill="#A73A24" d="M56.3 247.5h.3-.3Zm-.6.5v-.4.4Zm-8.6 0v-.4.4Zm-.6-.5h.4-.4Zm0-6.9h.4-.4Zm.2-.4.2.3-.2-.3Zm.4-.1v-.4.4Zm8.6 0v-.4.4Zm.4.1-.3.3.3-.3Zm.2.4h.3-.3Zm0 .9h-.4v.4h.4v-.4Zm1.2 0v.4h.4v-.4h-.4Zm0-1H57h.4Zm-1.7-1.6v.3-.3Zm-8.8 0v.3-.3Zm-1.7 1.7h.4-.4Zm0 7 .4-.1h-.4Zm1.7 1.6v-.4.4Zm8.8 0v-.4.4Zm1.7-1.7h.3-.3Zm0-1h.4v-.3h-.4v.4Zm-1.2 0v-.3h-.4v.4h.4Zm-.4 1 .4.6.3-.6H56Zm0 0-.2.1v.8c.3 0 .5-.1.6-.3l-.5-.5Zm-.2.1-4.3.1v.8l4.3-.1v-.8Zm-4.3.1h-4.3v.7h4.3v-.7Zm-4.3 0-.2-.1-.5.5c.2.2.4.3.7.3v-.8Zm-.2-.1v-.1h-.7c0 .2 0 .4.2.6l.5-.5Zm0-.2a67 67 0 0 1 0-6.8h-.7v6.9h.7Zm0-6.8v-.1l-.5-.5-.2.6h.7Zm0-.1h.2v-.8a1 1 0 0 0-.7.3l.5.5Zm.2 0 4.3-.2v-.7l-4.4.1v.7Zm4.3-.2 4.3.1v-.7h-4.3v.6Zm4.3.1h.1l.5-.4a1 1 0 0 0-.5-.3l-.1.7Zm.1 0 .1.2h.7a1 1 0 0 0-.3-.6l-.5.5Zm.1.2v.9h.8v-1l-.8.1Zm.4 1.3h1.2v-.8h-1.2v.8Zm1.6-.4v-1H57v1h.8Zm0-1c-.1-1-1-2-2.1-2v.7c.7 0 1.3.6 1.3 1.4h.7Zm-2.1-2h-4.4v.6l4.4.1v-.7Zm-4.4 0H47v.7h4.4v-.8Zm-4.4 0c-1.1 0-2 1-2 2h.7c0-.7.6-1.2 1.3-1.3v-.7Zm-2 2c-.2 2.4-.2 4.7 0 7h.7v-7H45Zm0 7c0 1.1.9 2 2 2v-.7c-.7 0-1.3-.6-1.3-1.3H45Zm2 2 4.4.1v-.7H47v.6Zm4.4.1h4.4v-.8l-4.4.1v.7Zm4.4 0c1.1 0 2-1 2-2l-.7-.1c0 .7-.6 1.3-1.3 1.3v.7Zm2-2v-1h-.6v.9h.6Zm-.3-1.4h-1.2v.7h1.2v-.7Zm-1.6.4v.8h.7v-.8H56Zm15 2.5-.3.1v.3h.3v-.4Zm1.3 0v.4h.6l-.3-.5-.3.1ZM67.6 239l.3-.2-.1-.2h-.2v.4Zm-2.7 0v-.4h-.2v.2l.2.2ZM60.3 249l-.3-.1-.3.5h.6v-.4Zm1.3 0v.4h.2l.1-.3-.3-.1Zm1-2.2v-.3h-.2l-.1.2.3.1Zm7.3 0 .3-.1v-.2h-.3v.3Zm-6.8-1.2-.3-.1-.2.5h.5v-.4Zm2.6-5.6v-.3h-.2l-.1.2.3.1Zm1.1 0 .3-.1v-.2h-.3v.3Zm2.6 5.6v.4h.5l-.2-.5-.3.1Zm1.5 3.8h1.3v-.8H71v.8Zm1.6-.5L68 238.8l-.6.3 4.6 10.1.6-.2Zm-5-10.4H65v.7h2.7v-.7Zm-2.9.2L60 249l.6.2 4.7-10-.7-.4Zm-4.3 10.7h1.3v-.8h-1.3v.8Zm1.6-.3 1-2.1-.6-.3-1 2.2.6.2Zm.7-2h7.3v-.6h-7.3v.7Zm7-.1 1 2.1.6-.2-1-2.2-.6.3Zm-6.1-1.2 2.5-5.6-.6-.3-2.6 5.6.7.3Zm2.2-5.4h1.1v-.7h-1.1v.7Zm.8-.2 2.5 5.6.7-.3L67 240l-.6.3Zm2.9 5H63v.8h6.3v-.7Zm6-6.3v-.4h-.3v.4h.4Zm0 10.1h-.3v.4h.4v-.4Zm1.3 0v.4h.3v-.4h-.3Zm0-3.9v-.3h-.4v.3h.4Zm2.9 0 .2-.3h-.2v.3Zm5.7 3.9-.2.3h.2v-.3Zm2 0v.4h1.2l-1-.7-.1.3Zm-5.6-3.9v-.3h-1.1l1 .6.1-.3Zm3.3 0v.4-.4Zm1.7-1.6h.3-.3Zm0-3h.3-.3ZM85 239v-.4.4Zm0 1.1v-.3.3Zm.4.6h-.3.3Zm0 2.8h.4-.3Zm-.1.4.2.2-.2-.2Zm-.4.2v.3-.3Zm-8.2 0h-.4v.3h.4v-.4Zm0-4v-.3h-.4v.3h.4ZM75 239V249h.7V239h-.7Zm.4 10.5h1.2v-.8h-1.2v.8Zm1.5-.4v-3.9h-.7v3.9h.7Zm-.3-3.5h2.9v-.7h-3v.7Zm2.7 0 5.7 3.8.4-.6-5.7-3.9-.4.6Zm5.9 3.9h2v-.8h-2v.8Zm2.3-.7-5.7-3.9-.4.6 5.7 3.9.4-.6Zm-5.9-3.2H85v-.7h-3.3v.7Zm3.3 0c1 0 2-1 2-2h-.7c0 .7-.6 1.3-1.3 1.3v.7Zm2-2v-3h-.7v3h.7Zm0-3c0-1-1-2-2-2v.7c.7 0 1.3.6 1.3 1.4h.7Zm-2-2h-9.5v.7H85v-.7Zm-.1 1.9h.1l.5-.4a1 1 0 0 0-.6-.3v.7Zm.1 0 .1.2h.7c0-.2-.1-.5-.3-.6l-.5.5Zm.1.2v2.8h.7v-2.8h-.7Zm0 2.8v.1l.4.5c.2-.1.3-.3.3-.6h-.7Zm0 .1-.2.1v.7c.3 0 .5-.1.6-.3l-.5-.5Zm-.2.1h-8.2v.7h8.2v-.7Zm-7.9.3v-3.9h-.7v4h.7Zm-.3-3.5h8.2v-.7h-8.2v.7Zm25 2.5-.3-.1-.2.3.3.2.2-.4Zm.2-.7h.3-.3Zm0-1.7h.3-.3Zm-1.7-1.6v-.4.4Zm-9.5 0v-.4h-.4v.4h.4Zm0 10.1h-.4v.4h.4v-.4Zm10.3 0v.4-.4Zm1.6-1.7h.4-.4Zm0-2.9h.4-.4Zm-2.5-4.4v-.3.3Zm.6.6h.4-.4Zm0 1.6h.4-.4Zm-.2.4.3.2-.3-.2Zm-8.6.1h-.4v.4h.4v-.4Zm0-2.7v-.3h-.4v.3h.4Zm9.4 7.7-.3-.3.3.3Zm-9.4.1h-.4v.4h.4v-.4Zm0-3.9v-.3h-.4v.3h.4Zm9 0v-.3.3Zm.4.2-.3.2.3-.2Zm.7-1c.2-.3.2-.5.2-.8h-.7l-.1.5.6.3Zm.2-.9v-1.7h-.7v1.7h.7Zm0-1.7c0-1-.9-2-2-2v.7c.7 0 1.3.6 1.3 1.4h.7Zm-2-2h-9.5v.7h9.5v-.7Zm-9.9.4V249h.8V239h-.8Zm.4 10.5H101v-.8H90.7v.8Zm10.3 0c1-.1 2-1 2-2l-.7-.1c0 .7-.6 1.3-1.4 1.3v.8Zm2-2v-3h-.7v3h.7Zm0-3a2 2 0 0 0-1.1-1.8l-.4.7c.5.2.8.6.8 1.1h.7Zm-2.9-4h.2l.5-.4a1 1 0 0 0-.6-.3v.7Zm.2 0v.2h.8a1 1 0 0 0-.3-.6l-.5.5Zm0 .2v1.6h.8v-1.6h-.8Zm0 1.5v.2l.5.5.3-.6h-.8Zm0 .2h-.2v.8c.3 0 .5-.1.7-.3l-.5-.5Zm-.2 0H92v.8h8.2v-.7Zm-7.9.4v-2.7h-.7v2.7h.7Zm-.3-2.3h8.2v-.7H92v.7Zm9.2 6.9v.1l.4.5.3-.6h-.7Zm0 .1h-.2v.8c.2 0 .5-.1.6-.3l-.5-.5Zm-.2 0h-9v.8h9v-.7Zm-8.7.4V244h-.7v4h.7Zm-.3-3.5h9v-.7h-9v.7Zm9 0h.1l.5-.5a1 1 0 0 0-.6-.2v.7Zm.1 0v.2h.8c0-.3-.1-.5-.3-.7l-.5.5Zm0 .2v2.8h.8v-2.8h-.7Zm16-4.5v-.4.4Zm.3.1-.3.3.3-.3Zm.2.4h.3-.3Zm0 6.9h.3-.3Zm-.6.5v-.4.4Zm-8.7 0v-.4.4Zm-.5-.5h.4-.4Zm0-6.9h.4-.4Zm.2-.4.2.3-.2-.3Zm.3-.1v-.4.4Zm0-1.2v.3-.3Zm-1.7 1.7h.4-.4Zm0 7 .4-.1h-.4Zm1.7 1.6v-.4.4Zm8.8 0v-.4.4Zm1.7-1.7h-.4.4Zm0-7h-.4.4ZM117 239v.3-.3Zm-4.4 1.4 4.3.1v-.7h-4.3v.6Zm4.3.1h.1l.5-.4a1 1 0 0 0-.6-.3v.7Zm.1 0 .1.2h.7a1 1 0 0 0-.3-.6l-.5.5Zm.1.2v6.8h.7v-6.8h-.7Zm0 6.8v.2l.4.5.3-.6h-.7Zm0 .2h-.2v.8c.3 0 .5-.1.6-.3l-.5-.5Zm-.2 0a86 86 0 0 1-4.3.1v.8l4.3-.1v-.8Zm-4.3.1h-4.3v.7h4.3v-.7Zm-4.4 0v-.1l-.6.5.6.3v-.8Zm0-.1-.1-.1h-.7c0 .2 0 .4.2.6l.5-.5Zm-.1-.2c-.2-2.2-.2-4.5 0-6.8h-.7c-.2 2.3-.2 4.6 0 6.9h.7Zm0-6.8v-.1l-.5-.5-.2.6h.7Zm0-.1h.2v-.8a1 1 0 0 0-.7.3l.5.5Zm.2 0 4.3-.2v-.7l-4.4.1v.7Zm-.1-2c-1.1 0-2 1-2 2h.7c0-.7.6-1.2 1.3-1.3v-.7Zm-2 2c-.2 2.4-.2 4.7 0 7h.7c-.2-2.3-.2-4.6 0-7h-.7Zm0 7c0 1.1.9 2 2 2v-.7c-.7 0-1.3-.6-1.3-1.3h-.7Zm2 2 4.4.1v-.7h-4.4v.6Zm4.4.1h4.4v-.8l-4.4.1v.7Zm4.4 0c1 0 2-1 2-2l-.7-.1c0 .7-.6 1.3-1.3 1.3v.7Zm2-2v-7h-.7v6.9h.7Zm0-7c0-1.2-1-2-2-2v.6c.7 0 1.3.6 1.3 1.4h.7Zm-2-2c-1.5-.2-3-.2-4.4-.2v.7l4.4.1v-.7Zm-4.4-.2-4.4.1v.7h4.4v-.8Zm21 .6v-.4h-.4v.4h.4Zm0 9v.3h.3v-.4h-.3Zm-.4 0-.3.2H133.2v-.3Zm-8.2-9 .2-.3v-.1h-.2v.4Zm-2.2 0v-.4h-.3v.4h.3Zm0 10.1h-.3v.4h.3v-.4Zm1.2 0v.4h.4v-.4h-.4Zm0-9v-.3h-.3v.3h.3Zm.4 0 .2-.2v-.1h-.2v.3Zm8.3 9-.3.2.1.2h.2v-.4Zm2 0v.4h.4v-.4h-.3Zm0-10.1h.4v-.4h-.3v.4Zm-1.5 0v9h.7v-9h-.7Zm.4 8.6h-.4v.7h.4v-.7Zm-.1 0-8.3-8.9-.5.5 8.2 9 .6-.5Zm-8.5-9h-2.2v.7h2.2v-.7Zm-2.5.4V249h.7V239h-.7Zm.3 10.5h1.2v-.8h-1.2v.8Zm1.6-.4v-9h-.7v9h.7Zm-.4-8.6h.4v-.7h-.4v.7Zm.1-.1 8.3 9 .5-.5-8.3-9-.5.5Zm8.6 9h2v-.7h-2v.8Zm2.4-.3V239h-.7V249h.7Zm-.3-10.5h-1.2v.7h1.2v-.7Zm3.4 9.3v-.3h-.3v.3h.3Zm0 1.2h-.3v.4h.3v-.4Zm1.2 0v.4h.4v-.4h-.4Zm0-1.2h.4v-.3h-.4v.3Zm-1.5 0v1.2h.7v-1.2h-.7Zm.3 1.6h1.2v-.8h-1.2v.8Zm1.6-.4v-1.2h-.7v1.2h.7Zm-.4-1.5h-1.2v.7h1.2v-.7Z"/><path fill="#305673" d="M158.2 239v-.8h-.5l-.2.5.7.3Zm-4.1 9-.7.2.7 1.4.6-1.4-.6-.3Zm-4.1-9 .6-.3-.2-.5h-.4v.8Zm-1.4 0v-.8h-.4l-.2.5.6.3Zm-4 9-.7.2.6 1.4.7-1.4-.7-.3Zm-4.2-9 .7-.3-.2-.5h-.5v.8Zm-1.3 0v-.8h-1l.4 1 .6-.2Zm4.7 10.1-.7.3.2.4h.5v-.7Zm1.5 0v.7h.5l.1-.4-.6-.3Zm4-8.7.6-.3-.6-1.4-.6 1.4.6.3Zm4 8.7-.6.3.1.4h.5v-.7Zm1.5 0v.7h.5l.2-.4-.7-.3Zm4.7-10.1.6.3.5-1h-1.1v.7Zm-2-.3-4 9 1.2.5 4.1-9-1.3-.5Zm-2.8 9-4.1-9-1.3.6 4.1 9 1.3-.7Zm-4.7-9.5h-.7v1.5h.7v-1.5Zm-.7 0h-.7v1.5h.7v-1.5Zm-1.3.5-4.1 9 1.3.5 4-9-1.2-.5Zm-2.8 9-4.1-9-1.3.6 4 9 1.4-.7Zm-4.8-9.5h-1.3v1.5h1.3v-1.5Zm-2 1 4.7 10.2 1.3-.6-4.6-10.1-1.3.6Zm5.4 10.6h1.5v-1.4h-1.5v1.4Zm2.1-.4 4-8.7-1.2-.6-4 8.7 1.2.6Zm2.8-8.7 4 8.7 1.2-.6-4-8.7-1.2.6Zm4.6 9.1h1.5v-1.4h-1.5v1.4Zm2.2-.4 4.6-10.1-1.2-.6-4.7 10.1 1.3.6Zm4-11.2h-1.3v1.5h1.3v-1.5Zm13.4 1.9v-.7.7Zm.4.1-.5.5.5-.5Zm.1.4h.7-.7Zm0 6.9h.7-.7Zm-.5.5v-.7.7Zm-8.7 0v-.7.7Zm-.5-.5h.7-.7Zm0-6.9h.7-.7Zm.1-.4.5.5-.5-.5Zm.4-.1v-.7.7Zm0-1.2v.7-.7Zm-1.7 1.7h.7-.7Zm0 7 .7-.1h-.7Zm1.7 1.6v-.7.7Zm8.7 0v-.7.7Zm1.7-1.7h-.7.7Zm0-7h-.7.7ZM173 239v.7-.7Zm-4.3 1.8h4.2l.1-1.3-4.3-.1v1.4Zm4.2 0 1-1-.9-.3v1.4Zm0 0 1.3-.2c0-.3-.1-.5-.3-.8l-1 1Zm0 0v6.7l1.3.1c.2-2.3.2-4.6 0-7l-1.4.1Zm0 6.7 1 1 .3-.9-1.4-.1Zm0 0a.2.2 0 0 1 0-.1v1.4c.4 0 .7-.1 1-.4l-1-1Zm0-.1h-4.2v1.5h4.3v-1.5Zm-4.2 0a87 87 0 0 1-4.4 0v1.4l4.4.1v-1.4Zm-4.4 0h.1l-1 1c.3.3.6.4 1 .4v-1.4Zm.1 0v.2H163c0 .3.1.6.3.8l1-1Zm0 .1v-6.8H163c-.2 2.3-.2 4.6 0 6.9h1.4Zm0-6.8a.2.2 0 0 1 0 .1l-1-1c-.2.3-.3.6-.3 1h1.4Zm0 .1-.2-1.3-.8.3 1 1Zm0 0h4.3v-1.4h-4.4v1.5Zm-.2-2.5c-1.2 0-2.3 1-2.3 2.3h1.4c0-.5.5-.9 1-1v-1.3Zm-2.3 2.3c-.2 2.4-.2 4.7 0 7h1.4v-7h-1.4Zm0 7c0 1.3 1 2.4 2.3 2.4v-1.4a1 1 0 0 1-1-1h-1.3Zm2.3 2.4 4.5.1v-1.4l-4.4-.1v1.4Zm4.5.1 4.4-.1-.1-1.4h-4.3v1.5Zm4.4-.1c1.3 0 2.3-1 2.3-2.3l-1.4-.1c0 .5-.5 1-1 1v1.4Zm2.3-2.3v-7H174a69 69 0 0 1 0 6.9h1.4Zm0-7c0-1.4-1-2.4-2.3-2.4l-.1 1.4c.5 0 1 .4 1 1h1.4Zm-2.3-2.4-4.4-.1v1.4h4.3v-1.3Zm-4.4-.1H164l.1 1.5a87 87 0 0 1 4.4-.1V238Zm10.1.9v-.8h-.7v.8h.7Zm0 10.1h-.7v.7h.7v-.7Zm1.2 0v.7h.7v-.7h-.7Zm0-3.9v-.7h-.7v.7h.7Zm3 0 .4-.5-.2-.2h-.2v.7Zm5.7 3.9-.4.6.1.1h.3v-.7Zm2 0v.7h2.4l-2-1.3-.3.6Zm-5.6-3.9v-.7h-2.3l1.9 1.3.4-.6Zm3.2 0v.7-.7Zm1.7-1.6h.7-.7Zm0-3h.7-.7Zm-1.7-1.6v-.8.8Zm0 1.1v-.7.7Zm.5.6h-.7.7Zm0 2.8h.7-.7Zm-.1.4.5.5-.5-.5Zm-.4.2v.7-.7Zm-8.3 0h-.7v.6h.7v-.7Zm0-4v-.7h-.7v.7h.7ZM178 239V249h1.4V239H178Zm.7 10.8h1.2v-1.4h-1.2v1.4Zm2-.7v-3.9h-1.5v3.9h1.4Zm-.8-3.2h3v-1.4h-3v1.4Zm2.6 0 5.7 3.8.8-1.2-5.7-3.8-.8 1.1Zm6 4h2.2v-1.5h-2.1v1.4Zm2.6-1.4-5.7-3.8-.8 1.1 5.7 3.9.8-1.2ZM185 246h3.2v-1.4H185v1.4Zm3.3 0c1.2 0 2.3-1 2.3-2.3h-1.4c0 .5-.4 1-1 1v1.3Zm2.3-2.3v-3h-1.4v3h1.4Zm0-3c0-1.3-1-2.3-2.3-2.3v1.4c.5 0 .9.4 1 1h1.3Zm-2.4-2.4h-9.5v1.5h9.5v-1.5Zm0 2.7h-.1l1-1-.8-.5-.2 1.5Zm-.1 0v-.2h1.3c0-.3-.1-.7-.3-.9l-1 1Zm0-.2v2.8h1.3v-2.8H188Zm0 2.7 1 1c.2-.2.3-.5.3-.8l-1.4-.2Zm0 0 .2 1.4c.3 0 .5-.2.8-.4l-1-1Zm0 0H180v1.3h8.3v-1.4Zm-7.5.6v-3.9h-1.4v4h1.4Zm-.7-3.1h8.3v-1.5h-8.3v1.5Zm22.4 7h.7v-.7h-.7v.7Zm-7.1 0h-.7v.7h.7v-.7Zm0-9h.7v-.7h-.7v.8Zm-1.2 0v-.7h-.7v.8h.7Zm0 10.2h-.7v.7h.7v-.7Zm8.3 0v.7h.7v-.7h-.7Zm0-1.9h-7.1v1.4h7.1v-1.4Zm-6.4.7v-9h-1.4v9h1.4Zm-.7-9.7H194v1.5h1.2v-1.5Zm-2 .8V249h1.5V239h-1.4Zm.8 10.8h8.3v-1.4H194v1.4Zm9-.7v-1.2h-1.4v1.2h1.4Zm2.6 0h-.7v.7h.7v-.7Zm10.3 0v.7-.7Zm1.6-1.7h.7-.7Zm0-6.8h.7-.7ZM216 239v-.8.8Zm-11 0v-.8h-.8v.8h.8Zm0 1.1h-.8v.8h.8v-.8Zm.7 0h.7v-.7h-.7v.7Zm10.7 7.3h.8-.8Zm-.1.4-.5-.5.5.5Zm-9.4.1h-.7v.7h.7v-.7Zm0-7.8v-.7h-.7v.7h.7Zm9 0v-.7.7Zm.4.2-.5.5.5-.5Zm.1.4h.8-.8Zm-10.7 9.1h10.3v-1.4h-10.3v1.4Zm10.3 0c1.2 0 2.3-1 2.3-2.3l-1.4-.1c0 .5-.4 1-1 1v1.4Zm2.3-2.4v-6.8h-1.4v6.8h1.4Zm0-6.8c0-1.3-1-2.3-2.3-2.3v1.4c.5 0 .9.4 1 1h1.3Zm-2.3-2.4h-11v1.5h11v-1.5Zm-11.8.8v1.1h1.5V239H204Zm.8 1.9h.7v-1.5h-.7v1.5Zm0-.8v9h1.4v-9h-1.4Zm10.7 7.2 1 1c.3-.3.4-.6.5-.9l-1.5-.1Zm0 0h.1l.1-.1v1.4l.9-.3-1-1Zm.2-.1h-9v1.4h9v-1.4Zm-8.3.7v-7.8H206v7.8h1.4Zm-.7-7h9v-1.5h-9v1.5Zm9 0h-.1l1-1-.8-.5-.2 1.5Zm-.1 0v-.1l1.4-.2c0-.3-.2-.6-.4-.8l-1 1Zm0-.2v6.7h1.4v-6.7h-1.5Zm16.4 4-.5.6.5-.5Zm.1 1.9h.7-.7Zm0 .9h-.7.7Zm-.2.3-.5-.5.5.5Zm-.4.2v-.7.7Zm-8.4 0v-.7.7Zm-.5-.5h-.7.7Zm0-1h.7v-.6h-.7v.7Zm-1.2 0v-.6h-.7v.7h.7Zm0 1h-.7.7Zm1.7 1.7v.7-.7Zm8.5 0v.7-.7Zm1.7-1.7h.7-.7Zm0-2.4h.7-.7Zm-1.7-1.7v-.7.7Zm-8.5 0v.7-.7Zm-.5-2h-.7.7Zm0-.8h.7-.7Zm.2-.4-.5-.5.5.5Zm.3-.1v.7-.7Zm8.4 0v.7-.7Zm.6.5h.7-.7Zm0 .9h-.7v.7h.7v-.7Zm1.2 0v.7h.7v-.7h-.7Zm0-1h.7-.7Zm-1.7-1.6v.7-.7Zm-8.5 0v.7-.7Zm-1.7 1.6h-.7.7Zm0 2.4h-.7.7Zm1.7 1.7v.7-.7Zm8.5.7h-.1l1-1c-.3-.2-.6-.4-1-.4v1.4Zm-.1 0-.1-.1h1.4c0-.4-.1-.7-.3-1l-1 1Zm-.1-.1v1.4h1.4v-1.4h-1.4Zm0 1.3v.9l1.4.1v-.9h-1.4Zm0 1v-.1l1 1c.2-.3.4-.6.4-1h-1.4Zm0-.2a.2.2 0 0 1 .1 0v1.4c.4 0 .7-.1 1-.4l-1-1Zm0 0h-4v1.5h4.2l-.1-1.5Zm-4 0h-4.2v1.4l4.1.1v-1.4Zm-4.3 0h.1l-1 1c.3.3.6.4 1 .4v-1.4Zm.2 0-1.4.2c0 .3.1.6.4.8l1-1Zm0 .1v-.9l-1.4.1a23.7 23.7 0 0 1 0 .9h1.4Zm-.7-1.5h-1.2v1.4h1.2v-1.4Zm-2 .7v1l1.5-.1v-1h-1.4Zm0 1c.2 1.2 1.2 2.2 2.5 2.3v-1.4a1 1 0 0 1-1-1h-1.4Zm2.5 2.3 4.2.1v-1.4l-4.2-.1v1.4Zm4.2.1h4.3v-1.5l-4.3.1v1.4Zm4.3 0c1.3-.2 2.3-1.2 2.4-2.4l-1.4-.1c0 .5-.5 1-1 1v1.4Zm2.4-2.4v-1h-1.4v.9h1.4Zm0-1V245h-1.4v1.5h1.4Zm0-1.5c0-1.3-1-2.3-2.4-2.4v1.4c.5 0 1 .5 1 1h1.4Zm-2.4-2.4h-8.5v1.5h8.5v-1.5Zm-8.4 0-1 1c.3.3.6.4.8.4l.2-1.4Zm0 0v.1H222c0 .4 0 .7.3 1l1-1Zm0 .2v-1.4H222v1.4h1.4Zm0-1.4.1-.9H222v.8l1.4.1Zm.1-.9a.1.1 0 0 1 0 .1l-1-1c-.3.3-.4.6-.4 1h1.4Zm0 .1h-.2v-1.3c-.3 0-.6 0-.8.3l1 1Zm-.1 0a80 80 0 0 1 4.1 0v-1.4h-4.2v1.5Zm4.1 0h4.2v-1.3l-4.2-.1v1.4Zm4.2 0 1-1c-.3-.2-.6-.3-1-.3v1.4Zm0 0h-.1l1.4-.2-.4-.8-1 1Zm-.1 0v.8h1.4v-.9h-1.4Zm.7 1.5h1.2v-1.4h-1.2v1.4Zm2-.7-.1-1h-1.4v1h1.4Zm-.1-1c0-1.3-1.1-2.3-2.4-2.3v1.4c.5 0 1 .4 1 1h1.4Zm-2.4-2.3a84 84 0 0 0-4.3-.1v1.4h4.3v-1.3Zm-4.3-.1a84 84 0 0 0-4.3 0l.1 1.5 4.2-.1V238Zm-4.3 0c-1.2.1-2.2 1.1-2.3 2.4h1.4c0-.5.5-.9 1-1v-1.3Zm-2.3 2.4v1h1.4v-1h-1.4Zm0 1v1.4h1.4v-1.4h-1.4Zm0 1.5c0 1.3 1 2.3 2.3 2.3V244a1 1 0 0 1-1-1h-1.3Zm2.4 2.3h8.5V244h-8.5v1.4Zm15.4 3.8v.7h.7v-.7h-.7Zm0-4.5v-.7h-.7v.7h.7Zm7.6 0v.7h.7v-.7h-.7Zm0-1.2h.7v-.7h-.7v.7Zm-7.6 0h-.7v.8h.7v-.8Zm0-3.3v-.7h-.7v.7h.7Zm8.3 0v.8h.8v-.8h-.8Zm0-1.1h.8v-.8h-.8v.8Zm-9.5 0v-.8h-.7v.8h.7Zm0 10.1h-.7v.7h.7v-.7Zm1.9 0v-4.5h-1.4v4.5h1.4Zm-.7-3.8h7.6V244h-7.6v1.4Zm8.3-.7v-1.2h-1.4v1.2h1.4Zm-.7-1.9h-7.6v1.5h7.6v-1.5Zm-7 .7v-3.3H238v3.3h1.4Zm-.6-2.5h8.3v-1.5h-8.3v1.5Zm9-.8V239h-1.4v1.1h1.5Zm-.7-1.9h-9.5v1.5h9.5v-1.5Zm-10.2.8V249h1.4V239h-1.4Zm.7 10.8h1.2v-1.4h-1.2v1.4Zm21.2-.7-.6.3.2.4h.4v-.7Zm1.3 0v.7h1.1l-.4-1-.7.3Zm-4.6-10.1.6-.3-.1-.5h-.5v.8Zm-2.6 0v-.8h-.5l-.2.5.7.3ZM248 249l-.6-.3-.5 1h1.1v-.7Zm1.3 0v.7h.5l.2-.4-.7-.3Zm1-2.2v-.7h-.4l-.2.4.6.3Zm7.3 0 .7-.3-.2-.4h-.5v.7Zm-6.7-1.2-.7-.3-.4 1h1v-.7Zm2.5-5.6v-.7h-.4l-.2.5.6.2Zm1.1 0 .7-.2-.2-.5h-.5v.7Zm2.6 5.6v.7h1l-.4-1-.6.3Zm1.5 4.1h1.3v-1.4h-1.3v1.4Zm2-1-4.7-10.1-1.2.6 4.6 10.1 1.3-.6Zm-5.3-10.6h-2.6v1.5h2.6v-1.5Zm-3.3.5-4.6 10.1 1.3.6 4.6-10.1-1.3-.6Zm-4 11.1h1.3v-1.4H248v1.4Zm2-.4 1-2.2-1.3-.6-1 2.2 1.3.6Zm.3-1.8h7.3v-1.4h-7.3v1.4Zm6.7-.4 1 2.2 1.3-.6-1-2.2-1.3.6Zm-5.5-1.2 2.6-5.6-1.3-.5-2.6 5.5 1.3.6Zm2-5.1h1v-1.5h-1v1.5Zm.4-.5 2.5 5.6 1.3-.6-2.5-5.5-1.3.5Zm3.2 4.6h-6.2v1.4h6.2V245Zm16.3-.2-.5.5.5-.5Zm.2 1.8h.7-.7Zm0 .9h-.8.8Zm-.2.3-.5-.5.5.5Zm-.4.2v-.7.7Zm-8.4 0v-.7.7Zm-.5-.5h-.7.7Zm0-1h.7v-.6h-.8v.7Zm-1.2 0v-.6h-.7v.7h.7Zm0 1h-.7.7Zm1.7 1.7v.7-.7Zm8.5 0v.7-.7Zm1.7-1.7h.7-.7Zm0-2.4h.7-.7Zm-1.7-1.7v-.7.7Zm-8.5 0v.7-.7Zm-.6-2h-.7.8Zm0-.8h.8-.7Zm.3-.4-.5-.5.5.5Zm.3-.1v.7-.7Zm8.4 0v.7-.7Zm.6.5h.7-.7Zm0 .9h-.7v.7h.7v-.7Zm1.2 0v.7h.7v-.7h-.7Zm0-1h.7-.7ZM273 239v.7-.7Zm-8.5 0v.7-.7Zm-1.7 1.6h-.7.7Zm0 2.4h-.7.7Zm1.6 1.7v.7-.7Zm8.6.7h-.1l1-1c-.3-.2-.6-.4-1-.4v1.4Zm-.2 0v-.1h1.4c0-.4-.1-.7-.4-1l-1 1Zm0-.1v1.4h1.4v-1.4H273Zm0 1.3v.9l1.4.1v-.9H273Zm0 1v-.1l1 1c.2-.3.4-.6.4-1h-1.5Zm0-.2h.1v1.4c.4 0 .7-.1.9-.4l-1-1Zm0 0h-4v1.5h4.2l-.1-1.5Zm-4 0h-4.2l-.1 1.4 4.2.1v-1.4Zm-4.3 0h.1l-1 1c.3.3.6.4 1 .4v-1.4Zm.2 0-1.4.2c0 .3.1.6.4.8l1-1Zm0 .1v-.9l-1.5.1v.9h1.5Zm-.8-1.5H263v1.4h1.2v-1.4Zm-1.8.7v1l1.4-.1v-1h-1.4Zm0 1c0 1.2 1 2.2 2.3 2.3l.1-1.4a1 1 0 0 1-1-1h-1.4Zm2.3 2.3 4.3.1v-1.4l-4.2-.1v1.4Zm4.3.1h4.3v-1.5l-4.3.1v1.4Zm4.3 0c1.3-.2 2.3-1.2 2.4-2.4l-1.4-.1c0 .5-.5 1-1 1v1.4Zm2.4-2.4v-1h-1.4v.9h1.4Zm0-1V245h-1.4v1.5h1.4Zm0-1.5c0-1.3-1-2.3-2.4-2.4v1.4c.5 0 1 .5 1 1h1.4Zm-2.4-2.4h-8.5v1.5h8.5v-1.5Zm-8.4 0-1 1c.2.3.6.4.8.4l.2-1.4Zm0 0v.1h-1.4c0 .4.2.7.4 1l1-1Zm0 .2v-1.4h-1.4v1.4h1.5Zm0-1.4.1-.9h-1.4v.8l1.4.1Zm.1-.9a.1.1 0 0 1 0 .1l-1-1c-.3.3-.4.6-.4 1h1.4Zm0 .1a.2.2 0 0 1-.2 0v-1.3c-.3 0-.6 0-.8.3l1 1Zm-.1 0a80 80 0 0 1 4.1 0v-1.4h-4.2v1.5Zm4.1 0h4.2v-1.3l-4.2-.1v1.4Zm4.2 0h-.1l1-1c-.2-.2-.5-.3-.9-.3v1.4Zm-.1 0 1.4-.2-.4-.8-1 1Zm0 0v.8h1.4v-.9h-1.4Zm.7 1.5h1.2v-1.4h-1.2v1.4Zm1.9-.7v-1H274v1h1.4Zm0-1c0-1.3-1.1-2.3-2.4-2.3v1.4c.5 0 1 .4 1 1h1.4Zm-2.4-2.3a84 84 0 0 0-4.3-.1v1.4h4.2l.1-1.3Zm-4.3-.1h-4.3l.1 1.5 4.2-.1V238Zm-4.3 0c-1.2.1-2.3 1.1-2.3 2.4h1.4c0-.5.5-.9 1-1v-1.3Zm-2.3 2.4v1h1.4v-1h-1.4Zm0 1v1.4h1.4v-1.4h-1.4Zm0 1.5c0 1.3 1 2.3 2.3 2.3V244a1 1 0 0 1-1-1h-1.3Zm2.3 2.3h8.6V244h-8.6v1.4Zm22.9-6.3h.7v-.8h-.7v.8Zm-9.5 0v-.8h-.8v.8h.8Zm0 1.1h-.8v.8h.8v-.8Zm4.1 0h.7v-.7h-.7v.7Zm0 9h-.7v.7h.7v-.7Zm1.2 0v.7h.7v-.7h-.7Zm0-9v-.7h-.7v.7h.7Zm4.2 0v.8h.7v-.8h-.7Zm0-1.9h-9.5v1.5h9.5v-1.5Zm-10.3.8v1.1h1.5V239H277Zm.8 1.9h4.1v-1.5H278v1.5Zm3.4-.8v9h1.4v-9h-1.4Zm.7 9.7h1.2v-1.4H282v1.4Zm2-.7v-9h-1.5v9h1.4Zm-.8-8.2h4.2v-1.5h-4.2v1.5Zm5-.8V239h-1.5v1.1h1.4Zm12 0v.8h.7v-.8h-.7Zm0-1.1h.7v-.8h-.7v.8Zm-9.5 0v-.8h-.7v.8h.7Zm0 10.1h-.7v.7h.7v-.7Zm9.5 0v.7h.7v-.7h-.7Zm0-1.2h.7v-.7h-.7v.7Zm-8.3 0h-.7v.7h.7v-.7Zm0-3.3v-.7h-.7v.7h.7Zm8.3 0v.7h.7v-.7h-.7Zm0-1.2h.7v-.7h-.7v.7Zm-8.3 0h-.7v.8h.7v-.8Zm0-3.3v-.7h-.7v.7h.7Zm9 0V239h-1.4v1.1h1.4Zm-.7-1.9h-9.5v1.5h9.5v-1.5Zm-10.2.8V249h1.4V239H290Zm.7 10.8h9.5v-1.4h-9.5v1.4Zm10.2-.7v-1.2h-1.4v1.2h1.4Zm-.7-1.9H292v1.4h8.3v-1.4Zm-7.6.7v-3.3h-1.4v3.3h1.4Zm-.7-2.6h8.3V244H292v1.4Zm9-.7v-1.2h-1.4v1.2h1.4Zm-.7-1.9H292v1.5h8.3v-1.5Zm-7.6.7v-3.3h-1.4v3.3h1.4Zm-.7-2.5h8.3v-1.5H292v1.5Zm22.5 3.9-.5.5.5-.5Zm.2 1.8h.7-.7Zm0 .9h-.8.7Zm-.2.3-.5-.5.5.5Zm-.4.2v-.7.7Zm-8.4 0v-.7.7Zm-.5-.5h-.8.8Zm0-1h.6v-.6h-.7v.7Zm-1.3 0v-.6h-.7v.7h.7Zm0 1h-.6.7Zm1.8 1.7v.7-.7Zm8.5 0v.7-.7Zm1.6-1.7h.7-.7Zm0-2.4h.8-.7Zm-1.6-1.7v-.7.7Zm-8.5 0v.7-.7Zm-.6-2h-.7.7Zm0-.8h.8-.7Zm.2-.4-.5-.5.5.5Zm.4-.1v.7-.7Zm8.4 0v.7-.7Zm.5.5h.8-.8Zm0 .9h-.6v.7h.7v-.7Zm1.3 0v.7h.7v-.7h-.7Zm0-1h.6-.7ZM314 239v.7-.7Zm-8.6 0v.7-.7Zm-1.6 1.6h-.7.7Zm0 2.4h-.8.7Zm1.6 1.7v.7-.7Zm8.5.7 1-1c-.3-.2-.6-.4-1-.4v1.4Zm0 0h-.1v-.1h1.4c0-.4-.2-.7-.4-1l-1 1Zm-.1-.1v1.4h1.4v-1.4h-1.4Zm0 1.3v.9l1.3.1v-.9H314Zm0 1v-.1l1 1c.2-.3.3-.6.3-1h-1.4Zm0-.2h.1v1.4c.3 0 .6-.1.9-.4l-1-1Zm0 0h-4.1v1.5h4.2v-1.5Zm-4.1 0h-4.2v1.4l4.2.1v-1.4Zm-4.2 0h.1l-1 1c.3.3.6.4 1 .4v-1.4Zm.1 0-1.3.2c0 .3.1.6.3.8l1-1Zm0 .1a23.7 23.7 0 0 1 0-.9l-1.4.1v.9h1.5Zm-.7-1.5h-1.2v1.4h1.2v-1.4Zm-1.9.7v1l1.5-.1v-1H303Zm0 1c.1 1.2 1.2 2.2 2.4 2.3v-1.4a1 1 0 0 1-1-1h-1.3Zm2.4 2.3 4.3.1v-1.4l-4.2-.1v1.4Zm4.3.1h4.3v-1.5l-4.3.1v1.4Zm4.3 0c1.2-.2 2.3-1.2 2.3-2.4l-1.4-.1c0 .5-.4 1-1 1v1.4Zm2.3-2.4v-1h-1.3v.9h1.3Zm0-1V245h-1.3v1.5h1.4Zm0-1.5c0-1.3-1-2.3-2.3-2.4v1.4c.5 0 1 .5 1 1h1.4Zm-2.3-2.4h-8.5v1.5h8.5v-1.5Zm-8.5 0-1 1c.3.3.6.4 1 .4v-1.4Zm0 0 .1.1h-1.4c0 .4.2.7.4 1l1-1Zm.1.2v-1.4h-1.4v1.4h1.4Zm0-1.4v-.9h-1.3v.8l1.3.1Zm0-.9v.1l-1-1c-.2.3-.3.6-.3 1h1.4Zm0 .1v-1.3c-.4 0-.7 0-1 .3l1 1Zm0 0a80 80 0 0 1 4.1 0v-1.4h-4.2v1.5Zm4.1 0h4.2v-1.3l-4.2-.1v1.4Zm4.2 0h-.1l1-1-.9-.3v1.4Zm-.1 0 1.4-.2-.4-.8-1 1Zm0 0v.8h1.4v-.9h-1.5Zm.7 1.5h1.2v-1.4h-1.2v1.4Zm1.9-.7v-1H315v1h1.5Zm0-1c-.1-1.3-1.2-2.3-2.4-2.3v1.4c.5 0 .9.4 1 1h1.3Zm-2.4-2.3a84 84 0 0 0-4.3-.1v1.4h4.2v-1.3Zm-4.3-.1a84 84 0 0 0-4.3 0v1.5l4.3-.1V238Zm-4.3 0c-1.2.1-2.3 1.1-2.3 2.4h1.4c0-.5.4-.9 1-1v-1.3Zm-2.3 2.4v1h1.3v-1h-1.3Zm0 1v1.4h1.3v-1.4h-1.4Zm0 1.5c0 1.3 1 2.3 2.3 2.3V244a1 1 0 0 1-1-1h-1.4Zm2.3 2.3h8.5V244h-8.5v1.4Zm22.9-6.3h.7v-.8h-.7v.8Zm-9.6 0v-.8h-.7v.8h.7Zm0 1.1h-.7v.8h.7v-.8Zm4.2 0h.7v-.7h-.7v.7Zm0 9h-.7v.7h.7v-.7Zm1.2 0v.7h.7v-.7h-.7Zm0-9v-.7h-.7v.7h.7Zm4.2 0v.8h.7v-.8h-.7Zm0-1.9h-9.6v1.5h9.6v-1.5Zm-10.3.8v1.1h1.4V239h-1.4Zm.7 1.9h4.2v-1.5h-4.2v1.5Zm3.5-.8v9h1.4v-9h-1.4Zm.7 9.7h1.2v-1.4H323v1.4Zm2-.7v-9h-1.5v9h1.4Zm-.8-8.2h4.2v-1.5h-4.2v1.5Zm4.9-.8V239h-1.4v1.1h1.4Zm1.8 7.8v-.7h-.7v.7h.7Zm0 1.2h-.7v.7h.7v-.7Zm1.2 0v.7h.7v-.7h-.7Zm0-1.2h.7v-.7h-.7v.7Zm-2 0v1.2h1.5v-1.2h-1.4Zm.8 2h1.2v-1.5h-1.2v1.4Zm1.9-.8v-1.2h-1.4v1.2h1.4Zm-.7-1.9h-1.2v1.4h1.2v-1.4Zm14.4.3h.7-.7Zm-.6.5v-.7.7Zm-8.7 0v-.7.7Zm-.5-.5h.7-.7Zm0-6.9h.7-.7Zm.2-.4.5.5-.5-.5Zm.3-.1v-.7.7Zm8.7 0v-.7.7Zm.4.1-.5.5.5-.5Zm.2.4h.7-.7Zm0 .9h-.7v.7h.7v-.7Zm1.2 0v.7h.7v-.7h-.7Zm0-1h-.8.8ZM346 239v.7-.7Zm-8.8 0v.7-.7Zm-1.7 1.7h.7-.7Zm0 7 .7-.1h-.7Zm1.7 1.6v-.7.7Zm8.8 0v-.7.7Zm1.7-1.7h.7-.7Zm0-1 .7.1v-.7h-.7v.7Zm-1.2 0v-.6h-.7v.7h.7Zm-.7.9 1 1 .4-.9-1.4-.1Zm0 0 .1-.1v1.4c.4 0 .7-.1.9-.4l-1-1Zm0-.1h-4.2v1.5h4.3v-1.5Zm-4.2 0h-4.3v1.4l4.3.1v-1.4Zm-4.4 0h.1l-1 1c.3.3.6.4 1 .4v-1.4Zm.2 0v.2H336c0 .3.1.6.4.8l1-1Zm0 .1v-6.8H336v6.9h1.4Zm0-6.8v.1l-1-1c-.3.3-.4.6-.4 1h1.4Zm0 .1-.2-1.3c-.3 0-.6.1-.8.3l1 1Zm-.1 0h4.3v-1.4h-4.4v1.5Zm4.3 0h4.3v-1.3l-4.3-.1v1.4Zm4.2 0 1-1c-.2-.2-.5-.3-.8-.3l-.2 1.4Zm0 0 1.4-.2c0-.3-.2-.5-.4-.8l-1 1Zm0 0v.8h1.4v-1l-1.4.1Zm.7 1.5h1.2v-1.4h-1.2v1.4Zm1.9-.7v-1h-1.5v1h1.5Zm0-1c-.1-1.3-1.1-2.3-2.4-2.3v1.4c.5 0 1 .4 1 1h1.4Zm-2.4-2.3-4.4-.1v1.4h4.3l.1-1.3Zm-4.4-.1h-4.4v1.5a87 87 0 0 1 4.4-.1V238Zm-4.4 0c-1.3.1-2.3 1.1-2.4 2.4h1.4c0-.5.5-.9 1-1v-1.3Zm-2.4 2.4v7h1.4v-7h-1.4Zm0 7c0 1.3 1 2.4 2.4 2.4v-1.4a1 1 0 0 1-1-1h-1.4Zm2.4 2.4 4.4.1v-1.4l-4.4-.1v1.4Zm4.4.1 4.4-.1v-1.4h-4.4v1.5Zm4.4-.1c1.3 0 2.3-1 2.4-2.3l-1.5-.1c0 .5-.4 1-1 1v1.4Zm2.4-2.3v-1H347v.9h1.4Zm-.7-1.7h-1.2v1.4h1.2v-1.4Zm-2 .7v.8h1.5v-.8h-1.4Zm16.1-6.5v-.7.7Zm.4.1-.5.5.5-.5Zm.2.4h.7-.7Zm0 6.9h.7-.7Zm-.6.5v-.7.7Zm-8.6 0v-.7.7Zm-.6-.5h.7-.7Zm0-6.9h.7-.7Zm.2-.4.5.5-.5-.5Zm.4-.1v-.7h-.1v.7Zm0-1.2v.7-.7Zm-1.8 1.7h.7-.7Zm0 7 .7-.1h-.7Zm1.7 1.6v-.7.7Zm8.8 0v-.7.7Zm1.7-1.7h-.8.8Zm0-7h-.8.8Zm-1.7-1.6v.7-.7Zm-4.4 1.8h4.3v-1.3l-4.3-.1v1.4Zm4.2 0 1-1c-.2-.2-.5-.3-.8-.3l-.2 1.4Zm0 0 1.4-.2c0-.3-.2-.5-.4-.8l-1 1Zm0 0v6.7l1.4.1v-7l-1.4.1Zm0 6.7 1 1 .4-.9-1.4-.1Zm0 0 .1-.1v1.4c.4 0 .7-.1.9-.4l-1-1Zm0-.1h-4.2v1.5h4.4l-.1-1.5Zm-4.2 0h-4.3v1.4l4.3.1v-1.4Zm-4.3 0-1 1c.3.3.6.4 1 .4v-1.4Zm0 0h.1v.2H352c0 .3.1.6.4.8l1-1Zm.1.1v-6.8H352v6.9h1.4Zm0-6.8v.1l-1-1c-.3.3-.4.6-.4 1h1.4Zm0 .1-.2-1.3c-.3 0-.6.1-.8.3l1 1Zm-.1 0h4.3v-1.4H353v1.5Zm-.1-2.5c-1.3 0-2.3 1-2.4 2.3h1.4c0-.5.5-.9 1-1v-1.3Zm-2.4 2.3v7h1.4v-7h-1.4Zm0 7c0 1.3 1 2.4 2.4 2.4v-1.4a1 1 0 0 1-1-1h-1.4Zm2.4 2.4 4.4.1v-1.4l-4.4-.1v1.4Zm4.4.1 4.4-.1v-1.4h-4.4v1.5Zm4.4-.1c1.3 0 2.3-1 2.4-2.3l-1.4-.1c0 .5-.5 1-1 1v1.4Zm2.4-2.3v-7h-1.4a69 69 0 0 1 0 6.9h1.4Zm0-7c-.1-1.4-1.1-2.4-2.4-2.4v1.4c.5 0 1 .4 1 1h1.4Zm-2.4-2.4-4.4-.1v1.4h4.3l.1-1.3Zm-4.4-.1H353v1.5a87 87 0 0 1 4.4-.1V238Zm21.6.9v-.8h-.5l-.2.4.7.4Zm-4.6 8.7-.7.3.7 1.2.6-1.2-.6-.3Zm-4.6-8.7.6-.4-.2-.4h-.4v.8Zm-2.1 0v-.8h-.8v.8h.8Zm0 10.1h-.8v.7h.8v-.7Zm1.1 0v.7h.8v-.7h-.8Zm0-9v-.7h-.7v.7h.7Zm.2 0 .7-.3-.2-.4h-.5v.7Zm4.8 9-.6.3.2.4h.4v-.7Zm1.2 0v.7h.4l.2-.4-.6-.3Zm4.7-9v-.7h-.4l-.2.4.6.3Zm.2 0h.7v-.7h-.7v.7Zm0 9h-.7v.7h.7v-.7Zm1.2 0v.7h.7v-.7h-.7Zm0-10.1h.7v-.8h-.7v.8Zm-2.8-.4-4.6 8.7 1.3.7 4.6-8.7-1.3-.7Zm-3.3 8.7-4.6-8.7-1.3.7 4.6 8.7 1.3-.7Zm-5.2-9h-2.1v1.4h2v-1.5Zm-2.9.7V249h1.5V239H367Zm.8 10.8h1.1v-1.4h-1.1v1.4Zm1.9-.7v-9h-1.5v9h1.5Zm-.8-8.2h.2v-1.5h-.2v1.5Zm-.4-.4 4.8 9 1.2-.7-4.7-9-1.3.7Zm5.4 9.3h1.2v-1.4h-1.2v1.4Zm1.8-.4 4.7-9-1.2-.6-4.8 9 1.3.6Zm4-8.5h.3v-1.5h-.2v1.5Zm-.4-.8v9h1.4v-9h-1.4Zm.7 9.7h1.2v-1.4H380v1.4Zm1.9-.7V239h-1.4V249h1.4Zm-.7-10.9H379v1.5h2v-1.5Z"/><path fill="#000" d="M57.5 288v-11.2H64v.9h-5.4v4.2h5v.9h-5v5.2h-1Zm9.2-10.4c-.2 0-.4 0-.5-.2a.6.6 0 0 1-.1-.4v-.2l.1-.4.5-.1.4.1c.2.1.2.3.2.4v.2c0 .2 0 .3-.2.4l-.4.2Zm-.5 2.2h1v8.2h-1v-8.2Zm4 8.2v-8.2h.8v1.3c.3-.4.6-.8 1-1 .3-.3.8-.5 1.5-.5.9 0 1.6.3 2 .8.5.6.8 1.3.8 2.3v5.3h-1v-5.1c0-.8-.1-1.5-.5-1.9-.3-.4-.9-.6-1.5-.6a3 3 0 0 0-.9.1l-.7.4c-.2.1-.4.3-.5.6l-.2.7v5.8h-.9Zm14.2-1.3c-.2.4-.5.8-1 1-.4.4-.9.5-1.5.5a3 3 0 0 1-2.5-1.1 5 5 0 0 1-.9-3.2 5 5 0 0 1 1-3.2 3 3 0 0 1 2.4-1c.6 0 1.1 0 1.6.3.4.3.7.7.9 1.1v-5h1V288h-1v-1.3Zm-2.3.7c.3 0 .6 0 .9-.2.3 0 .5-.2.8-.3l.4-.6c.2-.2.2-.5.2-.8v-3.2c0-.3 0-.6-.2-.8 0-.2-.2-.4-.4-.6l-.8-.3-.9-.2c-.8 0-1.5.3-2 .8a3 3 0 0 0-.6 2.1v1.2c0 .9.2 1.6.7 2 .4.6 1 .9 1.9.9Zm13 .8c-.6 0-1.1-.1-1.5-.3a3 3 0 0 1-1.2-.8 4 4 0 0 1-.7-1.4 6 6 0 0 1-.2-1.8c0-.7 0-1.3.2-1.8s.4-1 .7-1.3a3 3 0 0 1 1.2-.9c.4-.2.9-.3 1.4-.3.6 0 1 .1 1.5.3a3.9 3.9 0 0 1 1.8 2.2 6 6 0 0 1 0 3.6 4 4 0 0 1-.7 1.4 3 3 0 0 1-1.1.8c-.4.2-1 .3-1.5.3Zm0-.8c.7 0 1.4-.3 1.8-.8.5-.5.7-1.2.7-2.2v-1c0-1-.2-1.7-.7-2.2-.4-.5-1-.8-1.9-.8-.8 0-1.4.3-1.9.8-.4.5-.7 1.2-.7 2.2v1c0 1 .3 1.7.7 2.2.5.5 1.1.8 2 .8Zm11-.7h-.1l-.3.6a2 2 0 0 1-1.2.8h-1c-.8 0-1.5-.2-2-.7-.5-.6-.7-1.3-.7-2.3v-5.3h1v5.1c0 .8 0 1.5.5 1.9.3.4.8.6 1.5.6l.8-.1.7-.4c.3-.1.4-.3.5-.5.2-.3.2-.5.2-.8v-5.8h1v8.2h-1v-1.3Zm5.2 1.3c-.3 0-.5 0-.7-.3a1 1 0 0 1-.3-.7v-6.4H109v-.8h1l.4-.1.1-.5v-1.7h.8v2.3h1.9v.8h-1.9v6.6h1.8v.8h-1.7Zm7.8-11.8h.9v4.9c.2-.4.5-.8.9-1 .4-.3.9-.5 1.5-.5 1 0 1.6.3 2 .8.6.6.8 1.3.8 2.3v5.3h-.9v-5.1c0-.8-.2-1.5-.5-1.9-.4-.4-1-.6-1.6-.6a3 3 0 0 0-.8.1l-.8.4c-.2.1-.3.3-.4.6-.2.2-.2.4-.2.7v5.8h-1v-11.8Zm11.9 12c-.6 0-1-.1-1.5-.3a3 3 0 0 1-1.1-.8 4 4 0 0 1-.7-1.4 6 6 0 0 1-.3-1.8c0-.7.1-1.3.3-1.8.2-.5.4-1 .7-1.3a3 3 0 0 1 1.1-.9l1.5-.3 1.5.3c.4.2.8.5 1 .9.4.3.6.8.8 1.3a6 6 0 0 1 0 3.6 4 4 0 0 1-.7 1.4 3 3 0 0 1-1.1.8l-1.5.3Zm0-.8c.8 0 1.4-.3 1.9-.8.4-.5.7-1.2.7-2.2v-1c0-1-.3-1.7-.7-2.2-.5-.5-1.1-.8-2-.8-.7 0-1.3.3-1.8.8s-.7 1.2-.7 2.2v1c0 1 .2 1.7.7 2.2.5.5 1 .8 1.9.8Zm4.9-7.6h.9l2 7.4 2.1-7.4h.9l2.2 7.4 2-7.4h.8l-2.3 8.2h-1l-2.1-6.9-2.1 6.9h-1.1l-2.3-8.2Zm16.7 8.2v-8.2h1v1.3a2.7 2.7 0 0 1 .8-1l.6-.4h1c.5 0 1 0 1.5.3.4.3.7.7 1 1.3.1-.4.4-.8.8-1.2.5-.3 1-.5 1.8-.5s1.5.3 2 .8c.5.6.7 1.3.7 2.3v5.3h-1v-5.1c0-1.6-.6-2.5-2-2.5l-.8.1a2 2 0 0 0-.7.4l-.5.6-.1.8v5.7h-1v-5.1c0-1.6-.6-2.5-2-2.5a3 3 0 0 0-.8.1l-.7.4c-.2.1-.4.3-.5.6l-.1.7v5.8h-1Zm19.2-1.3-.4.6a2 2 0 0 1-1.2.8h-.9c-.8 0-1.5-.2-2-.7-.5-.6-.8-1.3-.8-2.3v-5.3h1v5.1c0 .8.1 1.5.5 1.9.4.4.9.6 1.6.6l.8-.1.7-.4.5-.5.2-.8v-5.8h.9v8.2h-1v-1.3Zm6.8 1.5c-1.2 0-2-.4-2.7-1.1-.6-.8-.9-1.8-.9-3.2 0-1.4.3-2.4 1-3.2.5-.7 1.4-1 2.6-1 .7 0 1.3 0 1.8.4.5.3.8.8 1 1.3l-.7.4c-.2-.4-.5-.8-.8-1-.4-.3-.8-.4-1.3-.4-.9 0-1.5.3-2 .8-.4.6-.6 1.3-.6 2.1v1.2c0 .8.2 1.5.7 2 .4.6 1 .9 1.9.9.5 0 1-.1 1.4-.4.4-.2.7-.6 1-1l.6.4c-.3.5-.7 1-1.2 1.3-.5.3-1 .5-1.8.5Zm5-12h1v4.9c.2-.4.4-.8.8-1 .4-.3 1-.5 1.6-.5.9 0 1.5.3 2 .8.5.6.8 1.3.8 2.3v5.3h-1v-5.1c0-.8-.1-1.5-.5-1.9-.4-.4-.9-.6-1.6-.6a3 3 0 0 0-.8.1l-.7.4c-.2.1-.4.3-.5.6l-.2.7v5.8h-.9v-11.8Zm15.7 12c-1.1 0-2-.4-2.6-1.1-.6-.8-1-1.8-1-3.2 0-1.4.4-2.4 1-3.2.6-.7 1.5-1 2.6-1 .7 0 1.4 0 1.8.4.5.3.9.8 1.1 1.3l-.8.4c-.2-.4-.4-.8-.8-1-.3-.3-.8-.4-1.3-.4-.8 0-1.5.3-2 .8-.4.6-.6 1.3-.6 2.1v1.2c0 .8.2 1.5.7 2 .4.6 1 .9 1.9.9.6 0 1-.1 1.4-.4.4-.2.7-.6 1-1l.6.4c-.3.5-.6 1-1.1 1.3-.5.3-1.2.5-2 .5Zm10.7-.2c-.4 0-.6 0-.8-.3l-.3-.7v-.3c-.2.5-.5.8-1 1-.4.4-.9.5-1.5.5a3 3 0 0 1-2-.6c-.5-.5-.7-1-.7-1.8 0-.7.2-1.3.7-1.8.6-.4 1.4-.6 2.6-.6h1.9v-1c0-1.3-.7-2-2.1-2-.6 0-1 .1-1.4.4-.3.2-.6.5-.8 1l-.6-.5c.2-.5.5-1 1-1.2.5-.3 1-.5 1.8-.5 1 0 1.7.3 2.2.7.5.5.8 1.2.8 2v4.9h1.1v.8h-1Zm-3.5-.6 1-.1.7-.4.5-.5.2-.8v-1.5h-2c-.8 0-1.3.1-1.7.4-.4.3-.6.6-.6 1v.5c0 .4.2.8.5 1 .4.3.8.4 1.4.4Zm6.3.6v-8.2h.9v1.5c.2-.4.5-.7.9-1 .4-.3.9-.5 1.6-.5h.6v.9h-.8a3 3 0 0 0-1.6.5c-.5.3-.7.7-.7 1.2v5.6h-1Zm5.7-11.8h1v5c.2-.5.5-.9.9-1.2.4-.2 1-.4 1.6-.4 1 0 1.8.4 2.4 1.1.6.8 1 1.8 1 3.2a5 5 0 0 1-1 3.2 3 3 0 0 1-2.4 1c-.7 0-1.2 0-1.6-.3l-1-1.1v1.3h-.9v-11.8Zm3.3 11.2c.8 0 1.4-.3 1.9-.8a3 3 0 0 0 .7-2.1v-1.2a3 3 0 0 0-.7-2c-.5-.6-1.1-.9-2-.9a2.9 2.9 0 0 0-1.6.5l-.5.6-.2.8v3.2c0 .3 0 .6.2.8a2 2 0 0 0 1.2 1h1Zm8.8.8-1.5-.3a3 3 0 0 1-1-.8 4 4 0 0 1-.8-1.4 6 6 0 0 1-.3-1.8c0-.7.1-1.3.3-1.8.2-.5.4-1 .7-1.3a3 3 0 0 1 1.1-.9l1.5-.3 1.5.3c.4.2.8.5 1 .9.4.3.6.8.8 1.3a6 6 0 0 1 0 3.6 4 4 0 0 1-.7 1.4 3 3 0 0 1-1.1.8l-1.5.3Zm0-.8c.8 0 1.4-.3 1.9-.8s.7-1.2.7-2.2v-1c0-1-.2-1.7-.7-2.2-.5-.5-1.1-.8-1.9-.8-.8 0-1.4.3-1.9.8s-.7 1.2-.7 2.2v1c0 1 .2 1.7.7 2.2.5.5 1.1.8 1.9.8Zm5.9.6v-8.2h.9v1.3c.2-.4.5-.8.9-1 .4-.3.9-.5 1.6-.5.8 0 1.5.3 2 .8.5.6.7 1.3.7 2.3v5.3h-.9v-5.1c0-.8-.2-1.5-.5-1.9-.4-.4-.9-.6-1.6-.6a3 3 0 0 0-.8.1l-.7.4c-.2.1-.4.3-.5.6l-.2.7v5.8h-1Zm17.7-8.2h1l-3.9 10.5-.4.7-1 .2h-.9v-.8h1.4l.8-2.2-3-8.4h1l2.4 7.2 2.6-7.2Zm5.5 8.4c-.5 0-1-.1-1.4-.3a3 3 0 0 1-1.2-.8 4 4 0 0 1-.7-1.4 6 6 0 0 1-.2-1.8c0-.7 0-1.3.2-1.8s.4-1 .8-1.3a3 3 0 0 1 1-.9l1.5-.3c.6 0 1 .1 1.5.3.5.2.8.5 1.1.9l.8 1.3.2 1.8a6 6 0 0 1-.2 1.8 4 4 0 0 1-.8 1.4 3 3 0 0 1-1 .8c-.5.2-1 .3-1.6.3Zm0-.8c.8 0 1.5-.3 2-.8.4-.5.6-1.2.6-2.2v-1c0-1-.2-1.7-.7-2.2-.4-.5-1-.8-1.9-.8-.8 0-1.4.3-1.9.8-.4.5-.7 1.2-.7 2.2v1c0 1 .3 1.7.7 2.2.5.5 1.1.8 2 .8Zm11-.7-.3.6a2 2 0 0 1-1.2.8h-.9c-.9 0-1.6-.2-2-.7-.5-.6-.8-1.3-.8-2.3v-5.3h1v5.1c0 .8.1 1.5.5 1.9.3.4.9.6 1.5.6l.9-.1.7-.4.5-.5.1-.8v-5.8h1v8.2h-1v-1.3Zm4 1.3v-8.2h.9v1.5c.2-.4.4-.7.8-1 .4-.3 1-.5 1.7-.5h.5v.9h-.7a3 3 0 0 0-1.7.5c-.4.3-.6.7-.6 1.2v5.6h-1Zm8.5-8.2h.9l2 7.4 2.2-7.4h.8l2.2 7.4 2-7.4h.9l-2.3 8.2h-1.2l-2-6.9-2.1 6.9h-1.1l-2.3-8.2Zm15.9 8.4c-.6 0-1-.1-1.5-.3a3.2 3.2 0 0 1-1.9-2.2l-.2-1.8c0-.7 0-1.3.2-1.8s.4-1 .7-1.3c.4-.4.7-.7 1.2-.9.4-.2.9-.3 1.4-.3a3.3 3.3 0 0 1 3.2 2.4c.2.5.3 1 .3 1.6v.5h-6v.4l.1 1.2.5.9.9.6 1.1.2c1.2 0 2-.6 2.5-1.7l.7.5c-.3.6-.7 1-1.3 1.4-.5.4-1.2.6-2 .6Zm0-7.8c-.5 0-.8 0-1.1.2a2.4 2.4 0 0 0-1.4 1.5l-.2 1.2h5.1c0-.5 0-.9-.2-1.2a2.5 2.5 0 0 0-1.3-1.5l-1-.2Zm5.7-4.2h1v5c.2-.5.5-.9.9-1.2.4-.2 1-.4 1.6-.4 1 0 1.9.4 2.4 1.1.6.8 1 1.8 1 3.2a5 5 0 0 1-1 3.2 3 3 0 0 1-2.4 1c-.7 0-1.2 0-1.6-.3l-1-1.1v1.3h-.9v-11.8Zm3.3 11.2c.8 0 1.4-.3 1.9-.8a3 3 0 0 0 .7-2.1v-1.2a3 3 0 0 0-.7-2c-.5-.6-1.1-.9-2-.9a2.9 2.9 0 0 0-1.6.5l-.5.6-.2.8v3.2c0 .3 0 .6.2.8a2 2 0 0 0 1.3 1h.9Zm8.2.8a4 4 0 0 1-1.8-.4c-.5-.3-1-.7-1.3-1.2l.6-.5c.4.4.8.8 1.2 1 .4.2.8.3 1.4.3.6 0 1.1-.1 1.4-.4.4-.3.6-.6.6-1.1 0-.5-.2-.8-.4-1-.3-.3-.7-.5-1.3-.6h-.7l-1-.3-.8-.5a2 2 0 0 1-.5-.6c-.2-.3-.2-.6-.2-1s0-.7.2-1c.1-.3.3-.5.6-.7.2-.2.5-.3.9-.4a4 4 0 0 1 1-.2c.8 0 1.3.1 1.8.4.4.2.8.5 1 .9l-.5.5-.9-.7c-.4-.2-.8-.3-1.4-.3-.6 0-1 .1-1.3.4-.4.2-.5.6-.5 1 0 .6.1.9.4 1.1.3.2.7.4 1.3.5h.7c.8.2 1.4.5 1.8.8.4.4.6.9.6 1.6 0 .7-.2 1.3-.8 1.8-.5.4-1.2.6-2 .6Zm5.8-10.6c-.2 0-.4 0-.5-.2a.6.6 0 0 1-.1-.4v-.2l.1-.4.5-.1.4.1.2.4v.2c0 .2 0 .3-.2.4l-.4.2Zm-.5 2.2h1v8.2h-1v-8.2Zm5.3 8.2c-.3 0-.6 0-.7-.3a1 1 0 0 1-.3-.7v-6.4h-1.4v-.8h1l.4-.1.1-.5v-1.7h.8v2.3h1.9v.8h-1.9v6.6h1.8v.8h-1.7Zm6.8.2c-.5 0-1-.1-1.4-.3a3.2 3.2 0 0 1-1.9-2.2c-.2-.5-.2-1.1-.2-1.8s0-1.3.2-1.8.4-1 .7-1.3c.3-.4.7-.7 1.2-.9.4-.2.9-.3 1.4-.3a3.3 3.3 0 0 1 3.2 2.4c.2.5.3 1 .3 1.6v.5h-6v1.6l.6.9.9.6 1 .2c1.3 0 2.1-.6 2.6-1.7l.6.5c-.2.6-.6 1-1.2 1.4-.5.4-1.2.6-2 .6Zm0-7.8a2.5 2.5 0 0 0-2.4 1.7l-.2 1.2h5V282a2.4 2.4 0 0 0-1.4-1.5l-1-.2Zm10-2.8c-.2 0-.3 0-.4-.2a.6.6 0 0 1-.2-.4v-.2c0-.1 0-.3.2-.4l.4-.1.5.1.2.4v.2l-.2.4-.5.2Zm-.4 2.2h.9v8.2h-1v-8.2Zm6.2 8.4a4 4 0 0 1-1.8-.4c-.5-.3-1-.7-1.4-1.2l.7-.5c.4.4.7.8 1.1 1 .4.2 1 .3 1.5.3.6 0 1-.1 1.4-.4.4-.3.5-.6.5-1.1 0-.5-.1-.8-.4-1-.2-.3-.7-.5-1.3-.6h-.6l-1-.3c-.4-.1-.6-.3-.8-.5a2 2 0 0 1-.6-.6l-.1-1c0-.4 0-.7.2-1 .1-.3.3-.5.6-.7l.8-.4a4 4 0 0 1 1.1-.2c.7 0 1.3.1 1.7.4.5.2.8.5 1.1.9l-.6.5-.8-.7c-.4-.2-.8-.3-1.4-.3-.6 0-1 .1-1.4.4-.3.2-.5.6-.5 1 0 .6.2.9.5 1.1.3.2.7.4 1.3.5h.7c.8.2 1.4.5 1.8.8.4.4.6.9.6 1.6 0 .7-.3 1.3-.8 1.8-.5.4-1.2.6-2.1.6ZM58 309.2c-.5 0-1-.1-1.4-.3a3.2 3.2 0 0 1-1.9-2.2c-.2-.5-.2-1.1-.2-1.8s0-1.3.2-1.8.4-1 .7-1.3c.3-.4.7-.7 1.2-.9.4-.2.9-.3 1.4-.3a3.3 3.3 0 0 1 3.2 2.4c.2.5.3 1 .3 1.6v.5h-6v.4l.1 1.2.5.9.9.6 1.1.2c1.2 0 2-.6 2.5-1.7l.6.5c-.2.6-.6 1-1.2 1.4-.5.4-1.2.6-2 .6Zm0-7.8a2.5 2.5 0 0 0-2.4 1.7l-.2 1.2h5.1c0-.5 0-.9-.2-1.2a2.4 2.4 0 0 0-1.3-1.5l-1-.2ZM64 309v-8.2h1v1.3a2.6 2.6 0 0 1 .8-1c.1-.2.3-.3.6-.4h.9c.6 0 1 0 1.5.3s.8.7 1 1.3c.2-.4.5-.8 1-1.2.3-.3 1-.5 1.6-.5 1 0 1.6.3 2 .8.5.6.8 1.3.8 2.3v5.3h-1v-5.1c0-1.6-.6-2.5-2-2.5l-.8.1a2 2 0 0 0-.7.4c-.2.1-.4.3-.5.6l-.2.8v5.7H69v-5.1c0-1.6-.7-2.5-2-2.5a3 3 0 0 0-.8.1l-.7.4c-.2.1-.4.3-.5.6l-.2.7v5.8H64Zm14.5-10.4c-.2 0-.4 0-.5-.2a.6.6 0 0 1-.2-.4v-.2l.2-.4.5-.1.4.1.2.4v.2c0 .2 0 .3-.2.4l-.4.2Zm-.5 2.2h1v8.2h-1v-8.2Zm5.3 8.2c-.3 0-.6 0-.7-.3a1 1 0 0 1-.3-.7v-6.4h-1.4v-.8h1l.4-.1v-2.2h1v2.3H85v.8H83v6.6H85v.8h-1.7Zm5.2 0c-.3 0-.6 0-.7-.3a1 1 0 0 1-.3-.7v-6.4H86v-.8h1l.4-.1v-2.2h1v2.3h1.8v.8h-1.9v6.6H90v.8h-1.6Zm4.4-10.4c-.2 0-.4 0-.5-.2a.6.6 0 0 1-.1-.4v-.2l.1-.4.5-.1.5.1.1.4v.2l-.1.4-.5.2Zm-.4 2.2h.9v8.2h-1v-8.2Zm3.9 8.2v-8.2h.9v1.3c.2-.4.5-.8.9-1 .3-.3.9-.5 1.5-.5.9 0 1.6.3 2 .8.6.6.8 1.3.8 2.3v5.3h-1v-5.1c0-.8-.1-1.5-.5-1.9-.3-.4-.8-.6-1.5-.6a3 3 0 0 0-.8.1l-.8.4-.5.6-.1.7v5.8h-1Zm15.7 1a2 2 0 0 1-1 1.8c-.7.4-1.7.6-3 .6-1.2 0-2.1-.2-2.7-.6-.5-.3-.8-.8-.8-1.5 0-.4.1-.8.4-1 .2-.4.6-.6 1-.7v-.1c-.5-.2-.7-.6-.7-1.1 0-.4 0-.7.4-1 .2-.2.6-.3 1-.4v-.1c-.5-.2-1-.5-1.2-1-.2-.4-.4-.9-.4-1.5l.2-1.1.6-1 1-.5 1.2-.2c.6 0 1.2.1 1.7.4v-.4l.1-.6.6-.2h1.4v.8h-1.7v.8c.3.2.5.5.7.9l.2 1.1a2.8 2.8 0 0 1-.8 2c-.3.3-.6.5-1 .6a3.6 3.6 0 0 1-1.6.2l-.4-.1-1 .4-.2.7c0 .5.4.7 1.3.7h1.9c1 0 1.7.2 2.1.6.5.3.7.8.7 1.5Zm-.9 0c0-.4-.1-.7-.4-1-.3-.1-.8-.3-1.5-.3h-2.7c-.3.2-.6.3-.8.6-.2.2-.3.5-.3.9s.2.7.5 1c.4.3.9.4 1.6.4h1c.8 0 1.5 0 2-.4.4-.2.6-.6.6-1.2Zm-3-4.5c.5 0 1-.2 1.4-.5.4-.3.5-.8.5-1.3v-.6c0-.5-.1-1-.5-1.3-.4-.3-.9-.4-1.5-.4s-1.1.1-1.5.4c-.3.3-.5.8-.5 1.3v.6c0 .5.2 1 .5 1.3.4.3.9.5 1.5.5Zm12.3 3.7c-.5 0-1-.1-1.4-.3a3.2 3.2 0 0 1-1.9-2.2c-.2-.5-.2-1.1-.2-1.8s0-1.3.2-1.8.4-1 .7-1.3c.3-.4.7-.7 1.2-.9.4-.2.9-.3 1.4-.3a3.3 3.3 0 0 1 3.2 2.4c.2.5.3 1 .3 1.6v.5h-6v.4l.1 1.2.5.9.9.6 1 .2c1.3 0 2.1-.6 2.6-1.7l.6.5c-.2.6-.6 1-1.2 1.4-.5.4-1.2.6-2 .6Zm0-7.8a2.5 2.5 0 0 0-2.4 1.7l-.2 1.2h5V303a2.4 2.4 0 0 0-1.4-1.5l-1-.2Zm4.6-.6h1l2.4 7.2h.1l2.5-7.2h1l-3 8.2h-1l-3-8.2Zm11.6 8.4c-.6 0-1-.1-1.5-.3a3.2 3.2 0 0 1-1.9-2.2l-.2-1.8c0-.7 0-1.3.2-1.8s.4-1 .7-1.3c.4-.4.7-.7 1.2-.9.4-.2.9-.3 1.4-.3a3.3 3.3 0 0 1 3.2 2.4c.2.5.3 1 .3 1.6v.5h-6v.4l.1 1.2.5.9.9.6 1.1.2c1.2 0 2-.6 2.5-1.7l.7.5c-.3.6-.7 1-1.3 1.4-.5.4-1.2.6-2 .6Zm0-7.8c-.5 0-.8 0-1.1.2a2.4 2.4 0 0 0-1.4 1.5l-.2 1.2h5.1c0-.5 0-.9-.2-1.2a2.5 2.5 0 0 0-1.3-1.5l-1-.2Zm5.7 7.6v-8.2h1v1.5c.1-.4.4-.7.8-1 .4-.3 1-.5 1.6-.5h.6v.9h-.7a3 3 0 0 0-1.7.5c-.5.3-.7.7-.7 1.2v5.6h-.9Zm10.8-8.2h1l-3.8 10.5c-.1.3-.3.6-.5.7l-.9.2h-.9v-.8h1.4l.8-2.2-3-8.4h.9l2.5 7.2 2.5-7.2Zm9 8.4a4 4 0 0 1-2-.4c-.4-.3-.9-.7-1.2-1.2l.6-.5c.4.4.7.8 1.1 1l1.5.3c.6 0 1-.1 1.4-.4.4-.3.5-.6.5-1.1 0-.5 0-.8-.4-1-.2-.3-.6-.5-1.2-.6h-.7l-1-.3-.8-.5a2 2 0 0 1-.5-.6c-.2-.3-.2-.6-.2-1s0-.7.2-1c.1-.3.3-.5.6-.7.2-.2.5-.3.9-.4a4 4 0 0 1 1-.2c.7 0 1.3.1 1.7.4.5.2.9.5 1.2.9l-.6.5c-.3-.2-.5-.5-1-.7-.3-.2-.7-.3-1.3-.3-.6 0-1 .1-1.4.4-.3.2-.4.6-.4 1 0 .6.1.9.4 1.1.3.2.7.4 1.3.5h.7c.8.2 1.4.5 1.8.8.4.4.6.9.6 1.6 0 .7-.2 1.3-.8 1.8-.5.4-1.2.6-2 .6Zm5.7-10.6c-.3 0-.4 0-.5-.2a.6.6 0 0 1-.2-.4v-.2c0-.1 0-.3.2-.4l.5-.1.4.1.2.4v.2c0 .2 0 .3-.2.4l-.4.2Zm-.5 2.2h1v8.2h-1v-8.2Zm4 8.2v-8.2h.8v1.3c.2-.4.5-.8 1-1 .3-.3.8-.5 1.5-.5.9 0 1.5.3 2 .8.5.6.7 1.3.7 2.3v5.3h-.9v-5.1c0-.8-.1-1.5-.5-1.9-.4-.4-.9-.6-1.6-.6a3 3 0 0 0-.8.1l-.7.4c-.2.1-.4.3-.5.6l-.2.7v5.8h-.9Zm15.6 1a2 2 0 0 1-1 1.8c-.6.4-1.6.6-2.9.6-1.2 0-2.1-.2-2.7-.6-.6-.3-.8-.8-.8-1.5 0-.4 0-.8.3-1 .3-.4.6-.6 1-.7v-.1c-.4-.2-.7-.6-.7-1.1 0-.4.1-.7.4-1l1-.4v-.1c-.5-.2-.9-.5-1.1-1-.3-.4-.4-.9-.4-1.5 0-.4 0-.8.2-1.1a2.5 2.5 0 0 1 1.5-1.5l1.3-.2c.6 0 1.1.1 1.6.4v-.4c0-.2 0-.4.2-.6l.6-.2h1.4v.8H185v.8c.3.2.5.5.6.9.2.3.3.7.3 1.1a2.8 2.8 0 0 1-.9 2c-.2.3-.5.5-1 .6a3.6 3.6 0 0 1-1.6.2l-.4-.1-.9.4c-.2.2-.3.4-.3.7 0 .5.4.7 1.3.7h2c1 0 1.6.2 2 .6.5.3.7.8.7 1.5Zm-.8 0c0-.4-.2-.7-.5-1-.2-.1-.8-.3-1.5-.3h-2.6c-.4.2-.7.3-.9.6-.2.2-.3.5-.3.9s.2.7.6 1c.3.3.8.4 1.6.4h1c.8 0 1.4 0 1.9-.4.4-.2.7-.6.7-1.2Zm-3.1-4.5c.6 0 1-.2 1.4-.5.4-.3.6-.8.6-1.3v-.6c0-.5-.2-1-.6-1.3-.3-.3-.8-.4-1.4-.4-.7 0-1.2.1-1.5.4-.4.3-.5.8-.5 1.3v.6c0 .5.1 1 .5 1.3.3.3.8.5 1.5.5Zm6.7 3.5c-.3 0-.6 0-.8-.3a1 1 0 0 1-.2-.7v-10.8h.9v11h1.3v.8h-1.2Zm6.1.2-1.5-.3a3.2 3.2 0 0 1-1.8-2.2c-.2-.5-.2-1.1-.2-1.8s0-1.3.2-1.8.4-1 .7-1.3c.3-.4.7-.7 1.1-.9l1.5-.3a3.3 3.3 0 0 1 3.2 2.4c.2.5.3 1 .3 1.6v.5h-6v1.6l.6.9.9.6 1 .2c1.3 0 2.1-.6 2.6-1.7l.6.5c-.2.6-.6 1-1.2 1.4-.5.4-1.2.6-2 .6Zm0-7.8c-.4 0-.7 0-1 .2a2.4 2.4 0 0 0-1.4 1.5l-.2 1.2h5V303a2.4 2.4 0 0 0-1.4-1.5l-1-.2Zm11 7.6c-.3 0-.6 0-.8-.3a1 1 0 0 1-.2-.7v-6.4h-1.4v-.8h.9l.4-.1.2-.5v-1.7h.8v2.3h1.8v.8h-1.8v6.6h1.7v.8h-1.6Zm4.4-10.4c-.2 0-.4 0-.5-.2a.6.6 0 0 1-.1-.4v-.2l.1-.4.5-.1.4.1c.2.1.2.3.2.4v.2c0 .2 0 .3-.2.4l-.4.2Zm-.5 2.2h1v8.2h-1v-8.2Zm4 8.2v-8.2h.8v1.3a2.6 2.6 0 0 1 .9-1l.6-.4h1c.5 0 1 0 1.5.3.4.3.7.7 1 1.3.1-.4.4-.8.8-1.2.5-.3 1-.5 1.8-.5s1.5.3 2 .8c.4.6.7 1.3.7 2.3v5.3h-1v-5.1c0-1.6-.6-2.5-2-2.5l-.8.1a2 2 0 0 0-.7.4l-.5.6-.1.8v5.7h-1v-5.1c0-1.6-.6-2.5-2-2.5a3 3 0 0 0-.8.1l-.7.4c-.2.1-.4.3-.5.6l-.2.7v5.8h-.9Zm16.9.2c-.6 0-1-.1-1.5-.3a3.2 3.2 0 0 1-1.9-2.2l-.2-1.8c0-.7 0-1.3.2-1.8s.4-1 .7-1.3c.4-.4.7-.7 1.2-.9.4-.2 1-.3 1.5-.3a3.3 3.3 0 0 1 3.2 2.4l.2 1.6v.5h-6v.4l.1 1.2.6.9.8.6 1.1.2c1.2 0 2-.6 2.5-1.7l.7.5c-.3.6-.7 1-1.2 1.4-.6.4-1.3.6-2 .6Zm0-7.8a2.5 2.5 0 0 0-2.5 1.7l-.2 1.2h5.1c0-.5 0-.9-.2-1.2a2.4 2.4 0 0 0-1.3-1.5l-1-.2Zm15.1 7.6c-.3 0-.6 0-.7-.3-.2-.2-.3-.4-.3-.7v-.3c-.3.5-.6.8-1 1-.4.4-1 .5-1.6.5a3 3 0 0 1-2-.6c-.4-.5-.7-1-.7-1.8 0-.7.3-1.3.8-1.8.5-.4 1.4-.6 2.6-.6h1.9v-1c0-1.3-.7-2-2.1-2-.6 0-1 .1-1.4.4-.4.2-.7.5-.9 1l-.6-.5c.3-.5.6-1 1-1.2.5-.3 1.1-.5 1.9-.5 1 0 1.7.3 2.2.7.5.5.8 1.2.8 2v4.9h1v.8h-.9Zm-3.4-.6.9-.1.8-.4.5-.5.2-.8v-1.5h-2c-.8 0-1.4.1-1.8.4-.3.3-.5.6-.5 1v.5c0 .4.2.8.5 1 .4.3.8.4 1.4.4Zm8.9-7.6h1l2.5 7.2 2.5-7.2h1l-3 8.2h-1l-3-8.2Zm9.2-2.2c-.2 0-.4 0-.5-.2a.6.6 0 0 1-.1-.4v-.2l.1-.4.5-.1.5.1.1.4v.2l-.1.4-.5.2Zm-.5 2.2h1v8.2h-1v-8.2Zm6.3 8.4a4 4 0 0 1-1.9-.4c-.5-.3-1-.7-1.3-1.2l.7-.5 1 1 1.5.3c.6 0 1.1-.1 1.5-.4.3-.3.5-.6.5-1.1 0-.5-.2-.8-.4-1-.3-.3-.7-.5-1.3-.6h-.7l-1-.3-.8-.5a2 2 0 0 1-.5-.6l-.2-1c0-.4 0-.7.2-1l.6-.7.9-.4a4 4 0 0 1 1.1-.2c.7 0 1.2.1 1.7.4.4.2.8.5 1.1.9l-.6.5-.9-.7c-.3-.2-.8-.3-1.3-.3-.6 0-1 .1-1.4.4-.3.2-.5.6-.5 1 0 .6.1.9.4 1.1.3.2.8.4 1.4.5h.6c.8.2 1.5.5 1.9.8.4.4.6.9.6 1.6 0 .7-.3 1.3-.8 1.8-.5.4-1.2.6-2.2.6Zm5.7-10.6c-.2 0-.4 0-.5-.2a.6.6 0 0 1-.1-.4v-.2l.1-.4.5-.1.5.1.1.4v.2l-.1.4-.5.2Zm-.4 2.2h.9v8.2h-1v-8.2Zm5.3 8.2c-.4 0-.6 0-.8-.3a1 1 0 0 1-.3-.7v-6.4h-1.4v-.8h1l.4-.1.1-.5v-1.7h.9v2.3h1.8v.8h-1.8v6.6h1.7v.8h-1.6Zm6.8.2c-.6 0-1-.1-1.5-.3a3 3 0 0 1-1.1-.8 4 4 0 0 1-.8-1.4 6 6 0 0 1-.2-1.8c0-.7 0-1.3.2-1.8l.8-1.3a3 3 0 0 1 1-.9c.5-.2 1-.3 1.6-.3.5 0 1 .1 1.4.3.5.2.8.5 1.1.9.4.3.6.8.8 1.3l.2 1.8a6 6 0 0 1-.2 1.8 4 4 0 0 1-.8 1.4 3 3 0 0 1-1 .8l-1.5.3Zm0-.8c.8 0 1.4-.3 1.8-.8.5-.5.7-1.2.7-2.2v-1c0-1-.2-1.7-.7-2.2-.4-.5-1-.8-1.8-.8s-1.5.3-2 .8c-.4.5-.6 1.2-.6 2.2v1c0 1 .2 1.7.6 2.2.5.5 1.2.8 2 .8Zm5.8.6v-8.2h1v1.5c.2-.4.4-.7.8-1 .4-.3 1-.5 1.7-.5h.5v.9h-.7a3 3 0 0 0-1.7.5c-.4.3-.6.7-.6 1.2v5.6h-1Zm10-10.4c-.2 0-.4 0-.5-.2a.6.6 0 0 1-.1-.4v-.2l.1-.4.5-.1.5.1.1.4v.2l-.1.4-.5.2Zm-.5 2.2h1v8.2h-1v-8.2Zm6.3 8.4a4 4 0 0 1-1.9-.4c-.5-.3-1-.7-1.3-1.2l.7-.5 1 1 1.5.3c.6 0 1.1-.1 1.5-.4.3-.3.5-.6.5-1.1 0-.5-.2-.8-.4-1-.3-.3-.7-.5-1.3-.6h-.7l-1-.3-.8-.5a2 2 0 0 1-.5-.6l-.2-1c0-.4 0-.7.2-1l.6-.7.9-.4a4 4 0 0 1 1.1-.2c.7 0 1.2.1 1.7.4.4.2.8.5 1.1.9l-.6.5-.9-.7c-.3-.2-.8-.3-1.3-.3-.6 0-1 .1-1.4.4-.3.2-.5.6-.5 1 0 .6.1.9.4 1.1.3.2.8.4 1.4.5h.6c.8.2 1.5.5 1.9.8.4.4.6.9.6 1.6 0 .7-.3 1.3-.8 1.8-.5.4-1.2.6-2.2.6Zm10.4-.2c-.3 0-.5 0-.7-.3a1 1 0 0 1-.3-.7v-6.4h-1.4v-.8h1l.4-.1.1-.5v-1.7h.8v2.3h1.9v.8h-1.9v6.6h1.8v.8h-1.7Zm4-11.8h1v4.9c.1-.4.4-.8.8-1 .4-.3 1-.5 1.6-.5.8 0 1.5.3 2 .8.5.6.7 1.3.7 2.3v5.3h-.9v-5.1c0-.8-.2-1.5-.5-1.9-.4-.4-.9-.6-1.6-.6a3 3 0 0 0-.8.1l-.7.4c-.2.1-.4.3-.5.6l-.2.7v5.8h-.9v-11.8Zm12 12c-.6 0-1.1-.1-1.5-.3a3.2 3.2 0 0 1-2-2.2l-.1-1.8c0-.7 0-1.3.2-1.8s.4-1 .7-1.3c.3-.4.7-.7 1.2-.9.4-.2.9-.3 1.4-.3a3.3 3.3 0 0 1 3.2 2.4c.2.5.3 1 .3 1.6v.5h-6v1.6l.6.9.9.6 1 .2c1.3 0 2.1-.6 2.6-1.7l.6.5c-.2.6-.6 1-1.2 1.4-.5.4-1.2.6-2 .6Zm0-7.8a2.5 2.5 0 0 0-2.5 1.7l-.2 1.2h5V303a2.4 2.4 0 0 0-1.4-1.5l-1-.2Zm5.7 7.6v-8.2h1v1.5c.1-.4.4-.7.8-1 .4-.3 1-.5 1.6-.5h.6v.9h-.8a3 3 0 0 0-1.6.5c-.5.3-.7.7-.7 1.2v5.6h-.9Zm8.6.2-1.5-.3a3.2 3.2 0 0 1-1.8-2.2 6.1 6.1 0 0 1 0-3.6c.1-.5.4-1 .7-1.3.3-.4.7-.7 1.1-.9.4-.2 1-.3 1.5-.3a3.3 3.3 0 0 1 3.2 2.4c.2.5.2 1 .2 1.6v.5h-6v.4c0 .4 0 .8.2 1.2 0 .3.3.6.5.9l.8.6 1.1.2c1.2 0 2-.6 2.5-1.7l.7.5c-.3.6-.7 1-1.2 1.4-.6.4-1.2.6-2 .6Zm0-7.8c-.4 0-.8 0-1 .2a2.4 2.4 0 0 0-1.4 1.5c-.2.4-.2.8-.2 1.2h5l-.1-1.2a2.5 2.5 0 0 0-1.3-1.5l-1-.2Zm6.2 4.7-.3-4.5v-3.8h1v3.8l-.2 4.5h-.5Zm.2 3-.5-.1a.8.8 0 0 1-.2-.6v-.2c0-.2 0-.3.2-.5l.5-.2.6.2c.2.2.2.3.2.5v.2c0 .2 0 .4-.2.6l-.6.1Z"/><path fill="#fff" d="M230.5 381.5h129.4l-.4-.1-.4-.1 2.4-.2 3.2-.2h2.5v-.2H368.9v-.1l-1-.1h-1.2l.3-.4.3-.4h.8l.9-.2h4.5v-.2l-.9-.1-.8-.1.1-.2.1-.2H373.2l.5-.2.2-.1h-3.6l-1.6-.2h-1.5v-.2c.1-.1 0-.4-.1-.6l-.4-.3h-1.5 1.4-.3l-.6-.2-.3-.1h.2-1.5l-1.4-.1h-4v-.1l-.9-.1h-.8v-.2h1c1.3-.2 4.4-.3 5.2-.3h2.4l5.3-.2h3.5l.8-.1a85.5 85.5 0 0 1 5-.3l1-.1h-.3l-1.3-.2-4.3-.4h-.6l-2.7-.3a367.7 367.7 0 0 0-7.2-.5l-4.8-.5a58.6 58.6 0 0 1-5-.5l-1.9-.1v-.2l-.5-.1h-.5v-.2h.1l-.8-.1-.8-.1H345v-.1H344c0-.1-1-.3-2-.3H330l2.1-.2 2.1-.1h-.4l-.4-.1h2.2l2-.2h1l-.5-.2h-.6v-.3c0-.1.1-.3 0-.4v-.1l.8-.1 1.2-.2.4-.1h1.4l1.2-.3h1.9l-.3-.2-.7-.2h-.2 1l.3-.1.3-.1h-4.4l-.4-.1-1.7-.2-1.3-.2v-.6l-.1-.3h3.5v-.2h1.8l-.2-.2h-.2l1.9-.2 1.7-.1h-.5H346.7l.7-.1 1.1-.1h.5v-.1l-1.3-.2-2.5-.1-1-.1h.3c.2-.1.2-.1.1-.2h-.3 1.7l4.5-.1h3v-.1l-.7-.2-1.5-.2-.5-.1-.2-.2-.1-.2 1.5-.2 2.7-.3 1.4-.2h.8a73.7 73.7 0 0 0 4.4 0l2-.1-1.4-.3-1.5-.2h.5l1.2-.2.7-.2h-.3l-.3-.1h1.3l.5-.2.2-.2H359.8l-.7-.1h-2l-.5-.1-.8-.2h-.5v-.1h-2l.7-.1h.7l-.8-.2-.8-.2 1.5-.1 2.1-.2.8-.1H356a53.7 53.7 0 0 0-4.7-.3h-1.9l-.1-.2-.1-.2h-1.5a18.6 18.6 0 0 1-2.3-.3l-.8-.1h.5c.3 0 .5-.1.5-.2l1.1-.2h1.2l-.5-.2-.4-.1.6-.4.7-.4h-.7l-.6-.1h2-.2l3.6-.2h2.4l1-.1-.3-.1a6 6 0 0 0-1-.2 8 8 0 0 1-2-.4l-.6-.1-1.5-.2-1.6-.2-.2-.1-.2-.3H346.1h1.8v-.3l-.2-.2h.8a39.3 39.3 0 0 1 1.8-.3h.3l-1.5-.1a86.5 86.5 0 0 0-6.3-.3l-3.5-.2h.6l.6-.2h-.1c-.3-.1-1.1-.2-3.8-.2h-2.4l-.9-.1-1-.1v-.2h-4.9l-.3-.1h-.3l.3-.3.5-.4h1.3l2.8-.2h-.4 1.1l-.8-.2-.8-.1-.3-.3-.4-.4v-.2h-.7l-1.1-.1-.3-.1.6-.1.5-.1h1.5a78.6 78.6 0 0 1 6.2-.2h4.2-.2l-.3-.1h1l-.5-.2h-.4l.3-.3c.4-.2.4-.2.1-.6v-.2h1.2l.6-.2.9-.2h.3-1.1l.5-.1 1-.3h.6-.3l-.4-.1H346.2l.7-.2h1a34 34 0 0 0 4-.2h.8-.5.6l.6-.1h-.8l-.7-.2-.4-.1a26 26 0 0 0-1.4-.6l-1-.2h-.7.5l.8-.2h.3-1.6v-.4h-1.1 1.1l.3-.1h.4l-.7-.1-1.1-.1h-.6v.1h-.3l-.5-.2v-.2h.8l-.2-.2h-2.6l-.9-.2-.9-.2 3-.2a299.7 299.7 0 0 1 10-.5H359.8v-.4l.8-.1.7-.1 1.6-.1 1.6-.1h2.3l.3-.1-.2-.1-.4-.1h1.1l.9-.1c-.4 0 .6-.2 1.3-.2h.8l-.4-.1h-.3 1.6-.8l-.8-.1 1.3-.2a37.4 37.4 0 0 0 2.1-.4h.6l-1.1-.1h-2.6l-.3-.1h-2l.5-.2.5-.2h.8l1.5-.1 2.8-.2-1.3-.1-1.5-.1v-.5s0-.2-.2-.2H236l-129.7-.1a5.2 5.2 0 0 0-5.2 5.2v30c0 3 2.3 5.3 5.2 5.3h124.3Z"/><path fill="#fff" d="M194.8 381.5H65.3l.4-.1.4-.1-2.3-.2-3.2-.2H58v-.2h-1.8v-.1l1.1-.1h1.1l-.2-.4-.3-.4H57l-.8-.2h-4.5v-.2l.8-.1.8-.1v-.2l-.2-.2h-1.1l-.5-.2-.3-.1H55l1.5-.2h1.6l-.1-.2c0-.1 0-.4.2-.6l.3-.3H60 58.7h.2l.7-.2c.2 0 .3 0 .2-.1h-.1 1.4l1.4-.1h4.1v-.1l.8-.1h.8v-.2h-1c-1.2-.2-4.4-.3-5.2-.3h-2.3l-5.3-.2H50.8l-.8-.1a85.5 85.5 0 0 0-5-.3l-1-.1h.3l1.3-.2 4.3-.4h.6l2.8-.3a368.7 368.7 0 0 1 7.1-.5l4.8-.5a58.7 58.7 0 0 0 5-.5l2-.1v-.2l.5-.1h.4v-.2l.7-.1.8-.1H80.2v-.1h1.2c0-.1 1-.3 2-.3h11.8l-2.2-.2-2-.1h.3l.5-.1h-2.3a64 64 0 0 0-2-.2h-1l.6-.2h.6l-.1-.3v-.5l-.8-.1-1.1-.2-.4-.1h-1.4l-1.2-.3h-1.9l.3-.2.6-.2h.3-1.1l-.3-.1-.3-.1h4.4l.4-.1 1.7-.2 1.3-.2v-.1l.1-.5v-.3H84.9v-.2H83l.2-.2h.1l-1.8-.2-1.8-.1h.6-1.8l-.7-.1-1-.1h-.5v-.1l1.3-.2 2.4-.1 1.1-.1h-.3c-.2-.1-.3-.1-.2-.2h.3-1.6l-4.6-.1h-3v-.1l.8-.2 1.4-.2.6-.1.2-.2v-.2l-1.4-.2-2.8-.3-1.4-.2h-.7a73.7 73.7 0 0 1-4.5 0l-1.9-.1 1.4-.3 1.4-.2h-.4l-1.2-.2-.7-.2h.3l.3-.1H61.7l-.5-.2-.2-.2h4.5l.6-.1h2.1l.4-.1.9-.2h.5v-.1h2l-.8-.1h-.7l.8-.2.9-.2-1.5-.1-2.2-.2-.7-.1h1.5a53.7 53.7 0 0 1 4.6-.3h2v-.2l.2-.2h1.5a18.6 18.6 0 0 0 2.3-.3l.8-.1h-.5c-.3 0-.5-.1-.5-.2l-1.2-.2h-1.1l.5-.2.4-.1-.6-.4-.7-.4h.6l.6-.1h-2 .2l-3.5-.2h-2.4l-1-.1.2-.1a6 6 0 0 1 1-.2c.8 0 1.2 0 2.1-.4l.6-.1 1.5-.2 1.6-.2.2-.1.1-.3H79.2h-1.9l.1-.3.2-.2h-.8a39.1 39.1 0 0 0-1.9-.3h-.3l1.6-.1a86.5 86.5 0 0 1 6.3-.3l3.5-.2h-.6l-.7-.2h.2c.2-.1 1-.2 3.8-.2H91l1-.1 1-.1v-.2h4.9l.3-.1h.2l-.2-.3-.5-.4h-1.4l-2.8-.2h.5-1.1l.8-.2.8-.1.3-.3.3-.4v-.2h.8l1-.1.4-.1-.6-.1-.6-.1h-1.4a78.7 78.7 0 0 0-6.2-.2h-4.3.3l.3-.1h-1l.4-.2h.5l-.4-.3c-.3-.2-.3-.2 0-.6v-.2H83l-.5-.2-.9-.2h-.3 1l-.4-.1-1-.3h-.7.4l.4-.1H79l-.7-.2h-1a34 34 0 0 1-4-.2h-.8.5-.7l-.6-.1h.8l.8-.2.4-.1a27 27 0 0 1 1.4-.6l1-.2h.6-.4a5 5 0 0 1-.8-.2h-.4 1.6v-.4H78h-1.1l-.4-.1h-.3l.6-.1 1.2-.1h.5v.1h.4l.4-.2.1-.2h-.9.1l.2-.2h2.6l.8-.2 1-.2-3.1-.2a299.8 299.8 0 0 0-10-.5h-4.7v-.4l-.8-.1-.7-.1-1.6-.1-1.6-.1h-2.3l-.3-.1.3-.1.3-.1h-1l-.9-.1c.3 0-.6-.2-1.3-.2h-.8l.3-.1h.4-1.6.8l.7-.1-1.3-.2a37.6 37.6 0 0 1-2-.4h-.7l1.2-.1H55l.3-.1H57.3l-.4-.2-.5-.2h-.9l-1.4-.1-2.9-.2 1.4-.1 1.4-.1v-.5s0-.2.2-.2H189.3l129.8-.1c2.8 0 5.2 2.3 5.2 5.2v30c0 3-2.4 5.3-5.2 5.3H194.8Z"/><path fill="#000" d="M258.4 355c0-.2 0-.3.2-.4.1-.2.3-.2.4-.2V353a2 2 0 0 0-2 2v7.9a2 2 0 0 0 2 2v-1.5l-.4-.1a.6.6 0 0 1-.2-.5V355Zm15.7 2.8.2-.8v-2a2 2 0 0 0-2-1.9h-10.8v11.7h11.7a2 2 0 0 0 2-2v-3.3a2 2 0 0 0-1.1-1.7Zm-1.8-3.3c.2 0 .3 0 .4.2l.2.4v1.9c0 .1 0 .3-.2.4l-.4.2h-9.5v-3h9.5Zm1.5 8.3-.2.4-.4.2h-10.4V359h10.3l.5.1.2.5v3.2Zm14.6-8.3v-1.4h-11v11.7h11v-1.4h-9.6v-3.8h9.6v-1.3h-9.6v-3.8h9.6Zm12-1.4h-10.9v1.4h4.8v10.3h1.4v-10.3h4.7v-1.4Zm10.9 11.7h1.5l-5.3-11.7h-3l-5.4 11.7h1.5l1.2-2.5h8.3l1.2 2.5Zm-9-4 3-6.3h1.3l2.9 6.4h-7.1Zm13.8-5.9a2 2 0 0 0-1.9-1.9v1.4c.1 0 .3 0 .4.2l.2.4v7.8l-.2.5-.5.1v1.4h.1a2 2 0 0 0 2-1.9v-8ZM132 362.9c0 .1 0 .3-.2.4l-.4.2a98.6 98.6 0 0 1-10.4-.2 77.2 77.2 0 0 1 0-8.7l.5-.2a124.8 124.8 0 0 1 10.3.2l.2.4v1h1.4v-1a2 2 0 0 0-2-2 101.7 101.7 0 0 0-10 0 2 2 0 0 0-2 2v8a2 2 0 0 0 2 1.9 99.6 99.6 0 0 0 10 0 2 2 0 0 0 2-2v-1H132v1Zm14.6 1.9h1.5l-5.3-11.7h-3l-5.3 11.7h1.4l1.2-2.5h8.4l1.1 2.5Zm-8.9-4 3-6.3h1.2l3 6.4h-7.2Zm21.5 2.6H151v-10.3h-1.3v11.7h9.5v-1.4Zm14.1-.5c0 .1 0 .3-.2.4l-.4.2a98.6 98.6 0 0 1-10.4-.2 77.2 77.2 0 0 1 0-8.7l.5-.2a124.9 124.9 0 0 1 10.3.2c.2.1.2.3.2.4v1h1.4v-1a2 2 0 0 0-2-2 101.7 101.7 0 0 0-10 0 2 2 0 0 0-1.9 2v8a2 2 0 0 0 2 1.9 99.5 99.5 0 0 0 10 0 2 2 0 0 0 1.9-2v-1h-1.3v1Zm3.5 0a2 2 0 0 0 2 1.9 100.8 100.8 0 0 0 10 0 2 2 0 0 0 2-2V353h-1.4v9.8l-.2.4-.5.2a124 124 0 0 1-10.3-.2.6.6 0 0 1-.2-.4V353h-1.4v9.8Zm26 .5h-8.2v-10.3h-1.4v11.7h9.6v-1.4Zm12.6 1.4h1.5l-5.3-11.7h-3l-5.3 11.7h1.5l1.1-2.5h8.4l1.1 2.5Zm-8.9-4 3-6.3h1.2l3 6.4h-7.2Zm20-7.7h-11v1.4h4.9v10.3h1.3v-10.3h4.8v-1.4Zm12.5 1.4v-1.4h-10.9v11.7h11v-1.4h-9.6v-3.8h9.5v-1.3h-9.5v-3.8h9.5Z"/><path fill="#000" d="M132 362.9h.7-.7Zm-.6.6v-.7.7Zm-10 0 .1-.7v.7Zm-.6-.6h.7-.7Zm0-7.9h.7-.7Zm.2-.4.5.5-.5-.5Zm.5-.2v-.7h-.1v.7Zm9.9 0v-.7.7Zm.4.2-.5.5.5-.5Zm.2.4h.7-.7Zm0 1h-.6v.7h.6v-.6Zm1.4 0v.7h.8v-.7h-.8Zm0-1h-.7.7Zm-2-2v.7-.7Zm-10 0v.7-.7Zm-2 2h.8-.7Zm0 8h.8-.7Zm2 1.9v-.7.7Zm10 0v-.7.7Zm2-2h.7-.7Zm0-1h.7v-.7h-.7v.7Zm-1.4 0v-.7h-.6v.7h.6Zm-.7 1 1 1c.3-.3.4-.7.4-1h-1.4Zm0 0v1.3c.4 0 .8-.2 1-.4l-1-1Zm0 0a97 97 0 0 1-4.9 0v1.4l5-.1v-1.4Zm-4.9 0h-4.9v1.3l5 .1V363Zm-5 0h.1l-1 1c.3.2.6.3 1 .3v-1.4Zm.1 0h-1.3c0 .3 0 .7.3 1l1-1Zm0 0a77 77 0 0 1 0-7.8l-1.3-.1a78 78 0 0 0 0 8l1.3-.2Zm0-7.9v.1l-1-1c-.2.3-.3.6-.3 1h1.3Zm0 .1-.1-1.4c-.3 0-.6.2-.9.4l1 1Zm0 0 5-.1v-1.4l-5 .1v1.4Zm5-.1 4.9.1v-1.4l-5-.1v1.4Zm4.8.1 1-1c-.2-.2-.5-.4-.8-.4l-.2 1.4Zm0 0 1.4-.1c0-.3-.2-.6-.4-.9l-1 1Zm0 0v1h1.4V355h-1.4Zm.7 1.6h1.4v-1.3H132v1.3Zm2.1-.7v-1h-1.4v1h1.4Zm0-1c-.1-1.5-1.2-2.6-2.6-2.6v1.3c.6 0 1.2.6 1.2 1.3h1.4Zm-2.6-2.6-5-.2v1.4l5 .1v-1.3Zm-5-.2c-1.8 0-3.4 0-5.1.2v1.3h5v-1.5Zm-5.1.2a2.7 2.7 0 0 0-2.6 2.5l1.4.1c0-.7.6-1.2 1.2-1.3v-1.3Zm-2.6 2.5c-.2 2.7-.2 5.4 0 8h1.4c-.2-2.6-.2-5.3 0-7.9h-1.4Zm0 8c0 1.5 1.2 2.6 2.6 2.7v-1.4c-.6 0-1.2-.6-1.2-1.3h-1.4Zm2.6 2.7h5v-1.3l-5-.1v1.4Zm5 0h5v-1.4h-5v1.5Zm5 0c1.5 0 2.6-1.2 2.7-2.6h-1.4c0 .6-.6 1.1-1.3 1.2v1.4Zm2.7-2.6v-1.1h-1.4v1h1.4Zm-.7-1.8H132v1.4h1.4v-1.4Zm-2 .7v1h1.3v-1h-1.3Zm15.2 2.9-.6.3.2.4h.4v-.7Zm1.5 0v.7h1l-.4-1-.6.3Zm-5.3-11.7.6-.2-.2-.4h-.4v.6Zm-3 0v-.6h-.5l-.2.4.7.2Zm-5.3 11.7-.7-.3-.4 1h1v-.7Zm1.4 0v.7h.5l.2-.4-.7-.3Zm1.2-2.5v-.7h-.4l-.2.4.6.3Zm8.4 0 .6-.3-.2-.4h-.4v.7Zm-7.8-1.4-.6-.3-.5 1h1.1v-.7Zm3-6.4v-.7h-.5l-.2.4.7.3Zm1.2 0 .6-.3-.1-.4h-.5v.7Zm3 6.4v.7h1l-.4-1-.7.3Zm1.7 4.6h1.5V364h-1.5v1.4Zm2.1-1-5.3-11.6-1.2.5 5.3 11.7 1.2-.6Zm-5.9-12h-3v1.3h3v-1.3Zm-3.7.4-5.3 11.6 1.3.6 5.3-11.7-1.3-.5Zm-4.6 12.6h1.4V364h-1.4v1.4Zm2-.4 1.2-2.5-1.2-.6-1.2 2.5 1.3.6Zm.6-2.1h8.4v-1.4H137v1.4Zm7.7-.4 1.2 2.5 1.2-.6-1.1-2.5-1.3.6Zm-6.4-1.4 2.9-6.4-1.3-.6-2.9 6.4 1.3.6Zm2.3-6h1.2v-1.4h-1.2v1.4Zm.6-.4 3 6.4 1.2-.6-3-6.4-1.2.6Zm3.5 5.4h-7v1.4h7v-1.4Zm14.4 3.2h.7v-.7h-.7v.7Zm-8.2 0h-.7v.7h.7v-.7Zm0-10.3h.7v-.6h-.7v.6Zm-1.3 0v-.6h-.7v.6h.7Zm0 11.7h-.7v.7h.7v-.7Zm9.5 0v.7h.7v-.7h-.7Zm0-2H151v1.3h8.2v-1.4Zm-7.5.6v-10.3h-1.4v10.3h1.4Zm-.7-11h-1.3v1.4h1.3v-1.3Zm-2 .7v11.7h1.4V353H149Zm.7 12.4h9.5V364h-9.5v1.4Zm10.2-.7v-1.4h-1.4v1.4h1.4Zm13.4-2 .7.2-.7-.1Zm-.6.7v-.7.7Zm-10 0 .1-.7v.7Zm-.5-.6h.7-.7Zm0-7.9h.7-.7Zm.1-.4.5.5-.5-.5Zm.5-.2v-.7h-.1v.7Zm9.9 0v-.7.7Zm.4.2-.5.5.5-.5Zm.2.4h.7-.7Zm0 1h-.6v.7h.7v-.6Zm1.4 0v.7h.8v-.7h-.8Zm0-1h-.7.7Zm-2-2v.7-.7Zm-10 0v.7-.7Zm-1.9 2h.7-.7Zm0 8h.7-.7Zm2 1.9v-.7.7Zm10 0v-.7.7Zm1.9-2h.7-.7Zm0-1h.7v-.7h-.7v.7Zm-1.3 0v-.7h-.7v.7h.7Zm-.8 1 1 1c.3-.3.4-.7.4-1h-1.4Zm0 0h.1v1.3c.4 0 .7-.2 1-.4l-1-1Zm0 0a97 97 0 0 1-4.9 0v1.4l5-.1v-1.4Zm-4.9 0h-4.9v1.3l5 .1V363Zm-5 0h.1l-1 1c.3.2.6.3 1 .3v-1.4Zm.1 0h-1.3c0 .3.1.7.4 1l1-1Zm0 0V355l-1.3-.1a78 78 0 0 0 0 8l1.4-.2Zm0-7.9v.1l-1-1c-.2.3-.3.6-.3 1h1.4Zm0 .1-.1-1.4c-.3 0-.6.2-.8.4l1 1Zm0 0 5-.1v-1.4l-5 .1v1.4Zm5-.1 4.9.1v-1.4l-5-.1v1.4Zm4.8.1 1-1c-.2-.2-.5-.4-.8-.4l-.2 1.4Zm0 0 1.4-.1c0-.3-.1-.6-.4-.9l-1 1Zm0 0v1h1.5V355h-1.5Zm.8 1.6h1.3v-1.3h-1.3v1.3Zm2-.7v-1H174v1h1.4Zm0-1c0-1.5-1.2-2.6-2.6-2.6v1.3c.6 0 1.2.6 1.2 1.3h1.4Zm-2.6-2.6-5-.2v1.4l5 .1v-1.3Zm-5-.2c-1.7 0-3.4 0-5.1.2v1.3h5v-1.5Zm-5.1.2a2.7 2.7 0 0 0-2.6 2.5l1.4.1c0-.7.6-1.2 1.3-1.3l-.1-1.3Zm-2.6 2.5v8h1.4c-.2-2.6-.2-5.3 0-7.9H160Zm0 8c0 1.5 1.2 2.6 2.6 2.7v-1.4c-.6 0-1.2-.6-1.2-1.3H160Zm2.6 2.7h5v-1.3l-5-.1v1.4Zm5 0h5.1v-1.4h-5v1.5Zm5 0c1.5 0 2.6-1.2 2.7-2.6H174c0 .6-.6 1.1-1.3 1.2v1.4Zm2.7-2.6v-1.1h-1.3l-.1 1h1.4Zm-.7-1.8h-1.3v1.4h1.3v-1.4Zm-2 .7v1h1.3v-1h-1.3Zm4.1 1h-.7.7Zm2 1.9v-.7.7Zm10 0v-.7.7Zm2-2h.6-.7Zm0-9.8h.6v-.7h-.7v.7Zm-1.4 0v-.7h-.7v.7h.7Zm0 9.8h.6-.6Zm-.2.4.4.5-.4-.5Zm-.5.2v.7-.7Zm-9.9 0v.7-.7Zm-.6-10.4h.7v-.7h-.7v.7Zm-1.4 0v-.7h-.7v.7h.7Zm-.7 9.9c.1 1.4 1.2 2.5 2.6 2.6V364c-.6 0-1.2-.6-1.2-1.3h-1.4Zm2.6 2.6h5v-1.3l-5-.1v1.4Zm5 0h5.1V364h-5v1.5Zm5.1 0c1.4-.1 2.5-1.2 2.6-2.6l-1.4-.1c0 .7-.6 1.2-1.2 1.3v1.4Zm2.6-2.7V353H190v9.8h1.4Zm-.7-10.5h-1.3v1.4h1.3v-1.4Zm-2 .7v9.8h1.3V353h-1.3Zm0 9.7 1 1 .3-.9-1.3-.1Zm0 0v1.4c.4 0 .7-.2 1-.4l-1-1Zm0 0-5 .1v1.4l5-.1v-1.4Zm-5 .1h-4.9v1.3l5 .1v-1.4Zm-4.8 0v-.1l-1 1c.2.2.5.4.8.4l.2-1.4Zm0 0h-1.4c0 .3.1.7.4.9l1-1Zm0 0V353h-1.4v9.8h1.4Zm-.7-10.5h-1.4v1.4h1.4v-1.4Zm-2 .7v9.8h1.3V353h-1.4Zm26.6 10.4h.7v-.7h-.7v.7Zm-8.2 0h-.7v.7h.7v-.7Zm0-10.3h.7v-.6h-.7v.6Zm-1.4 0v-.6h-.7v.6h.7Zm0 11.7h-.7v.7h.7v-.7Zm9.6 0v.7h.7v-.7h-.7Zm0-2h-8.2v1.3h8.2v-1.4Zm-7.5.6v-10.3h-1.4v10.3h1.4Zm-.7-11h-1.4v1.4h1.4v-1.3Zm-2 .7v11.7h1.3V353h-1.4Zm.6 12.4h9.6V364h-9.6v1.4Zm10.3-.7v-1.4H202v1.4h1.4Zm12 0-.7.3.2.4h.4v-.7Zm1.4 0v.7h1.1l-.4-1-.7.3Zm-5.3-11.7.6-.2-.1-.4h-.5v.6Zm-3 0v-.6h-.5l-.1.4.6.2Zm-5.3 11.7-.7-.3-.4 1h1v-.7Zm1.5 0v.7h.4l.2-.4-.6-.3Zm1.1-2.5v-.7h-.4l-.2.4.6.3Zm8.4 0 .6-.3-.2-.4h-.4v.7Zm-7.8-1.4-.6-.3-.4 1h1v-.7Zm3-6.4v-.7h-.5l-.2.4.7.3Zm1.2 0 .7-.3-.2-.4h-.5v.7Zm3 6.4v.7h1l-.4-1-.6.3Zm1.7 4.6h1.5V364h-1.5v1.4Zm2.2-1-5.4-11.6-1.2.5 5.3 11.7 1.3-.6Zm-6-12h-3v1.3h3v-1.3Zm-3.6.4-5.4 11.6 1.3.6 5.3-11.7-1.2-.5Zm-4.7 12.6h1.5V364h-1.5v1.4Zm2-.4 1.2-2.5-1.2-.6-1.2 2.5 1.3.6Zm.6-2.1h8.4v-1.4h-8.4v1.4Zm7.8-.4 1.1 2.5 1.3-.6-1.2-2.5-1.2.6Zm-6.5-1.4 2.9-6.4-1.3-.6-2.9 6.4 1.3.6Zm2.3-6h1.2v-1.4h-1.2v1.4Zm.6-.4 3 6.4 1.2-.6-3-6.4-1.2.6Zm3.6 5.4h-7.2v1.4h7.2v-1.4Zm12.8-7h.7v-.7h-.7v.6Zm-11 0v-.7h-.6v.6h.7Zm0 1.3h-.6v.7h.7v-.7Zm4.9 0h.6v-.7h-.6v.7Zm0 10.3h-.7v.7h.7v-.7Zm1.3 0v.7h.7v-.7h-.7Zm0-10.3v-.7h-.7v.7h.7Zm4.8 0v.7h.7v-.7h-.7Zm0-2h-11v1.3h11v-1.3Zm-11.6.6v1.4h1.4v-1.4h-1.4Zm.7 2.1h4.8v-1.4h-4.8v1.4Zm4-.7v10.3h1.4v-10.3h-1.3Zm.8 11h1.3V364h-1.3v1.4Zm2-.7v-10.3H221v10.3h1.4Zm-.7-9.6h4.8v-1.4h-4.8v1.4Zm5.5-.7v-1.4h-1.4v1.4h1.4Zm11.8 0v.7h.7v-.7h-.7Zm0-1.4h.7v-.6h-.7v.6Zm-10.9 0v-.6h-.7v.6h.7Zm0 11.7h-.7v.7h.7v-.7Zm11 0v.7h.6v-.7h-.7Zm0-1.4h.6v-.7h-.7v.7Zm-9.6 0h-.7v.7h.7v-.7Zm0-3.8v-.6h-.7v.6h.7Zm9.5 0v.7h.7v-.7h-.7Zm0-1.3h.7v-.7h-.7v.7Zm-9.5 0h-.7v.7h.7v-.7Zm0-3.8v-.7h-.7v.7h.7Zm10.2 0v-1.4h-1.4v1.4h1.4Zm-.7-2h-10.9v1.3h11v-1.3Zm-11.6.6v11.7h1.4V353h-1.4Zm.7 12.4h11V364h-11v1.4Zm11.6-.7v-1.4h-1.4v1.4h1.4Zm-.7-2h-9.5v1.3h9.5v-1.4Zm-8.8.6v-3.8h-1.4v3.8h1.4Zm-.7-3h9.5V359h-9.5v1.3Zm10.2-.8v-1.3h-1.4v1.3h1.4Zm-.7-2h-9.5v1.4h9.5v-1.4Zm-8.8.7v-3.8h-1.4v3.8h1.4Zm-.7-3.1h9.5v-1.4h-9.5v1.4Z"/><path fill="#A73A24" d="m159.8 513.4 39.2 5.4 40.5-35.5a2400 2400 0 0 0-79.7-10.5c-49.7-5.7-99.6-11.7-103.9-13-2.8-1-14.5-1.6-25.7-1.9l-20.6-.3 1.1-8.3 1.2-8.5L7.7 430l-4.3-11-1.7 10c-.7 5.4-1.2 15.6-1 22.3l.8 12-2.2 4.1-1.9 4.5 2.6-2.3 2.7-1.9 1.6 3.5L6 475l-2.6-2.2L1 471l-1 3.8-1.1 4.1-3.8-9.5-3.8-9.5.9 10.5 1 10.1-2.2-1.6-1.9-1.6-1.7 9.6-1.6 9.5H-18.5v-12.4l-2.6-1.9-2.4-2.2-1.7 2.2-1.4 1.9 3.3 2.9 3.6 2.8-5-.3-4.7-.6 1-8.3.9-8.5H-35l-1.2 4-1.2 4.2 3.6-1.9 3.3-1.6v1.6c0 1-.7 3.8-1.4 6.6l-1.4 5.1-2.2-1.9-2.1-1.6v6.7h4.3c2.3 0 6.6 2.2 9.5 5 2.8 2.6 5.2 3.9 5.2 3v-2l2.4 2 2.6 2.1-2.9 4.5-2.6 4.4 6.7-.3 6.9-.3-2.9-1.6-3-1.6v-4.7c0-2.6 1.6-6.7 3.5-9.2l3.6-4.8v10.5l8-1.3 8.4-1.3-1.2 2.3-1 2.2 3.8 1.9 3.6 1.9-1.7-4.1-1.9-3.8 4 4.4 4.1 4.1 3.8-1.9 4-1.9 3.2 3.2 3 3.5 9-1 9.1-1-20.2-7-20.2-6.9 11.9 2c6.6 1.2 14.3 2.1 17.1 2.1l5 .4-1.2 2.2-1 2.5h5.1V495l3 5.7 3.4 6 3.3-1.9 3.3-1.6-4-.3-4.3-.3V496.3H62l1.4-4.8 1.4-5 4.8 3.4 4.7 3.5 2.4-1.9 2.4-1.9v7.3l7.1-2.2 7.1-2.2v6.9h5.5c2.9 0 9 .7 13.6 2 4.5.9 11.6 2.2 15.4 3.1 4 1 9.3 1.6 11.9 1.6h4.5l1.4 2.8 1.5 2.9 12.8 1.6Z"/><path stroke="#A73A24" stroke-width="1.5" d="M391.2 299.2c1.5-3 2.9-7.6 4.9-8.8l1.4-8c-1.8-.5-3.4-.9-5 1-2.9 3.1-3.4 11.2-1.3 15.8Zm0 0c0 1.6-.2 3.9.2 5.4.5 2.7 1.4 4.7 1.8 7.7.4 5.8-.4 11.6.5 17.4.8 5 3.4 10.7 5.2 14.2m-7.7-44.7L410 312l-.2 8.1-3 7.3-7.8 16.6m0 0c.2 10.8 4.7 23 .6 32l-.6-32Zm-19.2-21.2h.4m61.9 48.5c1-2.3 2.1-5.4 3.4-7 1.3-1.8 2.3-1.4 3.2-4.5.7-3.1-.2-10.8-2.3-9.3-2.2 2-4.3 8.9-6 12.4l-1.9-7c0 5 1.8 5.8 2.9 9.6.5 2 .5 3.9.7 5.8Zm0 0c0 4.3-1 5.8-2.3 8.9-.8 1.5-1.7 3.8-2.6 5-.7.7-1.7.4-2.6.4-2.2 0-4.9.7-7-.4l10.9-25.4 3.6 11.5Zm.9 12.3 4.5-9.6 2-5.4-7.4 7.3c0 2.7 0 5.8.9 7.7Zm0 0c0 3.9-.2 9.3.9 12l-1-12Zm-20.3 12 4.5-9.3m25.7 66.6c.7 1.5 2.6 5 3.7 5 .7-.4 1.6-2 2.2-3 1.8-2.8 5-7.4 5.5-12.4.2-3 .6-12-.3-14.6-.7-2.7-2.4-4.2-2.9-7-.7-3-.2-8-.2-11.1l-4.3 48.9c.7 5.8-4.1 12.7-5.7 16.1-.7 1.6-1.5 3.5-2.4 4.3-1.2.4-2.5-1.2-3.5-1.6l.5-9.6 2.9-5.4 4.5-9.6Zm0 0v-10.4m-5-22.7 1.2 8.9M423.2 454c-1.5 3-3.3 9.2-5.3 10.4-2.5 1.9-5.5-.8-8 .3-1.5.8-2.9 5-4.5 4.3-2-1.6-3-8.9-4.5-12-.7-1.5-1.8-2.3-2.3-4.2-1.5-5.4.5-12.7-.6-18-.1-2-1.2-3.2-1.8-4.7l-4.3-9.2 46.9 5c-.4 5.7.7 14.2-.4 19.6-.4 1.5-1.3 2.7-1.8 3.8-1.8 3.5-3.6 6.6-5.6 9.7-.7 1.1-1.6 3.4-2.6 3.4-2.2-.4-4-5.7-5.2-8.4Zm0 0v-20.8m29.6 9.2 5-10.8.5-4.6 2.5-5.8-11.6 10.4c0 4.7 2.1 7.7 3.6 10.8Zm-44.2 70.8c-1.4-4.2-.5-7.7-1.2-12.3-.4-3.4-2.2-5.4-2.5-8.8-.8-7 .3-15 .3-22.4l8.8 35c-2.3 0-3.8 5.5-5.4 8.5Zm0 0c0 2 0 3.1.7 4.3l-.7-4.3Zm37.9-5.4-1.6 2m-35.4 15.4c2-4.3 3.2-8.5 6.1-7.7l-.9-6.2c-3.4 0-6.3 6.2-5.2 13.9Zm0 0c0 3.8 1.6 8.4 3.2 9.6.8.8 1.8 0 2.6 0m30.3-23.5-.6 6.2m-4.8 4.6-4.8 10M422 294.2c1-.3 2.1-.3 3.2-.7 1.8-.8 4.3-3.1 6.1-1.6 1.4 1.6 3.2 8.5 2.5 12-1 5-3.6 7.7-5.9 8.8l-6-18.5Zm12.2 10.4 1.2 6.2 1.1 32 1.8 12.3c2.5-2.4 4.7-9.7 6.6-13.5 1.3-2.7 3-1.6 3.6 2l-14.3-39Zm-28 8.9-.2 5.8-2.5 6.1-6.3 13.5 9-25.4Zm-24.4 5.8c.5 5.3 1.2 10.4 1.8 15.7.2 2.7 0 6.2.7 8.5.7 3 2.5 5.8 3.6 8l7.7 16.6c1 2.3 2.5 5 3.4 7.7.7 2.3 1 5.4 2.2 6.2 1 1.1 4.5 1.1 5.7 0 1-.8 2.2-4.2 3-6.2l7.2-15.4c1.5-3 4-6.9 4.9-10.7.7-3.1-.4-8.5-.4-12L382 319.3Zm-6.8 1.1c.2 8.1 2.1 15 2 23.1 0 2-.8 2.7-1 4.2-.5 2.7-.3 7.4.6 9.7.9 2.7 2.5 5 3.8 7.3 2.5 5 5 10 7.5 15.4 1 2.3 3.4 5.4 3.8 8.4.7 7.3 0 17 0 24.3 0 2.3.3 6.5-.2 8.4-2 6.6-5.6 12-8 17.4-1 1.9-2.4 4.2-3 6.5-.5 3 1.8 4.2 1.7 7.3-.4 6.2-.4 12.7-1.1 18.9-.4 3-1 6.1-1.3 9.2l-4.8-160Zm87.2 5.4c-.2 3.5.3 8.5-.2 11.6-.7 3.4-2.7 4.6-2.7 8.8 0 4.2-.4 13 .7 17 .9 3 3 4.2 3.6 7.6.5 4.3.9 14.7-.2 18.5-.7 2.7-2.3 3.9-2.7 7-.3 3.8.7 10-.3 13.4-1.3 3-3.4 8.5-5 10.4-1 1.1-2 0-3 1.5-2.4 4.7-5.1 17.4-8.7 17.4l18.5-113.2Zm-5.4 5.8c0 5.8.7 7.7 2.7 12l-2.7-12Zm-31.8.7c.4 3.9-2 7-3 9.3l3-9.3Zm-51.1 7.4c0 3.4 1 5.3 2.2 7.7l-2.2-7.7Zm86 23.4c-.8 1.6-1.7 2.7-2 4.7-.4 1.5 0 3.8 0 5.7 0 4.6-1 11.6 0 15.8.5 2.7 2 4.6 2.8 6.5l-.9-32.7Zm-16.2 45.4c-1.5 3.1-4.5 7.4-5 11.6-.6 5.4 1.8 10 4.3 8.5 1.2-1.2 3.6-6.6 4.3-9.3 1.8-6.1-3.3-7.3-3.6-12.3-.2-2.7-.4-8 .2-10.8.3-2.3 1.8-4.6 2.7-6.5 3.2-7 7.1-12.3 10.9-4.2l-13.8 23Zm-42.9-26.1c-1 1.9-3 3.4-4.5 3.8-1.6.4-3.2-.7-4.6 1.2l9.1-5Zm6.3 0c1.6 2.7 3 5.4 4.5 8.4.7 1.6 1.4 3.9 2.5 4.7 1.8.7 4.1 0 5.9 0 .7 0 1.8-.4 2.3.7 1.1 2 .8 7 .8 9.7v26.5c3.2-2.7 4.6-12 7.7-15.4 1-1.1 2 0 3 .4 1.8.4 3.4 0 5.2.4l-32-35.4Zm20.3 3c0 2.8 1.8 5.4 2.6 7.4 1.1 2.3 2.2 5.4 3.5 6.9.9 1.2 2.3.4 3.4.4 2.1 0 4.4.4 6.6.4l-16.1-15Zm-27.3 69.7c2.1-4.6 4.5-12 7.2-15 1.4-1.1 3.4 0 4.8-.4.7 0 1.4-.7 2.2-1.1 2.8-.4 5.7 0 8.6 0L400.2 455Zm-1.8-2.3-5.2 11.2c-1.4 3-2.7 5.4-2.5 10l7.7-21.2Zm58.1 9.6c.4 2 .2 4.3.2 6.6.4 5.4 1.4 10.7 1.8 16.1.2 2.7-.4 7 .2 9.3.7 2.3 3.4 5.4 4.6 5.7 1.3.8 3-.3 4.5-.3l-11.3-37.4Zm-28.5.8c-.4 3-1.8 5.4-2.9 7.7-2.3 5-4.5 11.2-7.2 15l10.1-22.7Zm-.2 2.3c1.5 3.9 1 7.7 1 12.3.3 3.5 1.7 7 1.7 10 0 2-1 3.5-1.6 4.6-1.6 3.5-3.6 9.7-6 10.4l5-37.3Zm16.9 12.3c-1 4.3-1.5 11.6-3.3 14.3-2.3 3.8-5.2 3-7.3 7.7a9.8 9.8 0 0 0-1.3 4.6c0 1.9.6 2.7.8 4.2.7 4.2 1.8 8.9 3.7 11.6.7.7 1.3 0 2 .7.9.8 2 2.7 3 2.3 1.5-.7 2.6-5.4 3.8-6.9 1.3-2 2.5-3 3.6-5.4.7-1.1 1-3 1.8-4.2.9-1.2 2.1-.8 3-1.6 1.7-1.9 3.1-6.9 3.8-10.3l-13.6-17Zm-14.4 11.6c.4 1.1.6 2.7 0 3.8-1 4.3-4.3 11.2-6.3 13.1l6.3-17Zm.4 4.2c.9 3.5.5 6.5 2.1 9.2l-2.1-9.2Zm25.8 8c.7 2.8-.5 7.8-1 10.5-1.3 6.9-4.4 11.5-7.8 13.8-.7.4-2 1.6-2.8 1.2-1-.4-1.7-2.7-2.2-3.9l13.8-21.5Zm-14.2 22c-1 3.1-2.3 5.4-3.5 8.1-.8 2-1.1 3.9-2.4 3.9l6-12Z"/></g><defs><clipPath id="a"><path fill="#fff" d="M-2 0h431v597H-2z"/></clipPath></defs></svg>