<svg xmlns="http://www.w3.org/2000/svg" viewBox="0 0 428 597"><g clip-path="url(#a)" transform="translate(1.8)"><path fill="#3f8ca8" d="M-18.3 8.8c27 3.5 85.7 29.5 126.5 56.7l285.1 445.7c4 6 8.1 14.7 9 18.8l1.7 7-16.9 20.3-16.6 19.9-43-18-43-18Q-2.1 167-16.2 134.3"/><path fill="#f3c010" d="m432 620.8-9-27.4-18.4-1.3h-18.4v-15.7c0-21 5.9-41.8 13.5-51l6.7-6.5-44 5.2-44 5.3-8.4 13c-4.5 6.6-13.5 13-19.3 13h-10.8l2.2 32.7 1.8 32.7h-23.3v-39.2l-12.1 6.5c-7.2 5.3-23.3 17-36.4 28.8l-34.5-23.5 2.7-10.5-10.3-15.7-10.4-15.6-31.8-5.3L89.6 485l-27.8 31.3-13.4-32.7-4.1 34-10.7-43-71.4-4 25.1-357.9c5.9 1.3 14.4-2.6 18.9-7.9l8-9 2.8 6.4 2.7 8 7.1-11.9c4-5.2 21.6-17 38.6-24.8a4762 4762 0 0 1 59.7-26l28.7-13 20.7 44.2c48.9 100.6 84.3 96.5 192.5 162l23.7-20.9 21.6-57 50.6 63.5-91.5 41.8c-68.2-40.5-130-92.7-142.2-118.8l-6.7-14.4 11.2 7.8Q265 161 415.3 230.3l18.1-4-184.5-88.9-29.6-26L189.7 85l-10.8-26-10.3-24.9 12.6-1.3h12.1V59h13.9l-2.7 13-2.7 13.1h13.9V60.5l8.1-5.3 7.6-4L242.7 67l11.2 15.6 53.8 9.2a455.5 455.5 0 0 1 84.8 21l31 11.6 49.8 87.6Q494 247.7 432 620.8Z"/><path fill="#fff" d="M371 341c.2 0 .2.3.2.3v.4l1.5.1h1.3l-2.8.3h-2.3l-1 .4h2l.3.1h3.7-.6l-2.1.4-1.3.2.8.1h-.5l.4.1h-.8c-.7 0-1.7.2-1.3.2h-2l.4.2h.2l-.3.1h-2.3l-3.2.2-.7.1h-.8v.4h-4.7l-10 .5-3 .2 1.8.3h2.6l.2.2h-.8v.2l.5.2h.3v-.1h1.7l.7.1h-.4l-.3.1v.4h1.3l-.8.2h.2l1 .1 1.4.6h.4l.7.2h.8l-.6.1h-.9c-1.3.2-2.7.2-4 .2h-1l-.7.2h-1.9.4-.3l-1 .3-.5.1h.8l-.9.2-.6.2H341v.2c.3.3.3.3-.1.5l-.3.3h.4l.5.1h-1l.3.1h-4c-2 0-4.1 0-6.2.2h-1.5l-.5.1h-.6l.3.2h1.8v.2l.7.7h.8l.8.2h-.7l-2.8.2h-1.3l-.5.4-.3.2h.3l.3.1h4.9v.2h1l.9.2h2.4c2.7 0 3.5 0 3.8.2h.1l-.6.1h-.6l3.5.2 6.3.3h1.5-.3l-1.8.3h-.8l.2.2v.3h.5l.2.2.2.1 1.6.2 1.5.2h.6c.6.3 1.3.4 2 .4l1 .2.3.1h-3.4l-3.6.3H347h1.3l-.7.4-.6.4h.4l.5.2h-1.2l-1.1.2c0 .1-.2.2-.5.2h-.5.8a9 9 0 0 0 2.3.3h1.5l.2.4h1.9c1.6 0 3.1.1 4.7.3h1.5-.8l-2.1.2-1.5.1 1.6.4h-1.4 2v.2h.5l.8.1.5.1h2l.7.1h4.4l-.2.2-.5.2h-1.3.6l-.7.2-1.2.2h-.5l1.5.2 1.4.3h-7.2l-1.4.2-2.7.3-1.5.2.1.1.2.2.5.1 1.5.2.7.2h-3l-4.5.1h-1.4c.1.1.1.1-.1.2h-.3l1 .1 2.5.1 1.3.2h-.5l-1.1.2h-2l-1.7.1-1.9.2h.2l.2.2h-1.8v.2h-3.5l.1.2v.6l1.3.1 1.7.2.4.1h4.4l-.6.2h-.8l.7.2.3.1h-1.9l-1.2.3h-1.4l-.4.1-1.2.2h-.8v.8h.6l.5.2h-1l-2 .1h-2.2l.4.1h.4l-2.1.1-2.1.2h12c1 0 2 .2 2 .3h6.6l1.6.2h-.1v.2h1v.3h1.9c1.7.3 3.3.4 5 .5l4.8.4 7.2.5 2.7.3h.6l4.3.3 1.3.2h.3-1a96 96 0 0 0-5 .3l-.8.1h-3.5l-5.3.2h-2.4c-.8 0-3.9.1-5.2.3h-1v.2h1.7v.1h4l1.4.1h1.3l.9.3h.4l.4.3c.1.1.2.4.1.5v.2h1.5l1.6.1h3.6l-.2.1-.5.2H372l-.2.4h.8l.9.1v.2H369l-.9.2h-.8l-.6.7h1.2l1 .1h-1.7v.3h-2.5l-3.2.1-2.4.2.8.2H65.3l.8-.2-2.3-.2-3.2-.1H58v-.2h-1.8v-.1h2.2l-.2-.4-.3-.4H57l-.8-.2h-4.5v-.2l1.6-.1v-.2l-.2-.2H52l-.5-.2h-.3H55l1.5-.2h1.6l-.1-.2c0-.1 0-.4.2-.5l.3-.3h.4l.7-.2h1.5l1.4-.2h4.1l.8-.1h.8v-.2h-1a51 51 0 0 0-5.2-.3h-2.3l-5.3-.2H50a96 96 0 0 0-5-.3l-1-.1h.3l1.3-.2 4.3-.3h.6l2.8-.3 7.1-.5 4.8-.4c1.7 0 3.3-.2 5-.4l2-.1v-.2l.5-.1h.4v-.2h.7l.8-.2h6.8c0-.1 1-.3 2-.3h11.8L93 368h-2 .3l.5-.2h-2.3l-2-.1h-1l.6-.2h.6l-.1-.3v-.4l-.8-.1-1.1-.2h-1.8l-1.2-.4h-1.9l.3-.1.6-.2h-.8l-.6-.2h4.8l1.7-.3 1.3-.1v-.1l.1-.5v-.2h-3.3v-.2H83l.2-.2h.1l-1.8-.2h-3l-.7-.1-1-.1h-.5v-.1l1.3-.2H80l1.1-.2h-.3c-.2 0-.3 0-.2-.2h-8.9v-.1l.8-.2 1.4-.2h.6l.2-.3v-.1l-1.4-.2-2.8-.3-1.4-.2H62l1.4-.3 1.4-.2h-.4l-1.2-.2-.7-.1h.3l.3-.1h-1.4l-.5-.2-.2-.2h7.2l.4-.2.9-.1h.5v-.1h2l-.8-.1h-.7l.8-.2.9-.2h-1.5l-2.2-.2-.7-.1h1.5c1.5-.2 3-.3 4.6-.3h2v-.2l.2-.2h1.5c.8 0 1.5 0 2.3-.2l.8-.1h-.5c-.3 0-.5-.1-.5-.2l-1.2-.2h-1.1l.5-.1.4-.1-.6-.4-.7-.3h.6l.6-.1h-1.8l-3.5-.2h-2.4l-1-.1h.2c.3-.2.7-.2 1-.3.8 0 1.2 0 2.1-.3l.6-.1 1.5-.2 1.6-.2h.2l.1-.3h.5l.1-.3.2-.2h-.8l-1.9-.2h-.3l1.6-.1 6.3-.3 3.5-.2h-.6l-.7-.1h.2c.2-.1 1-.2 3.8-.2H91l2-.2v-.2h5.4l-.2-.3-.5-.4h-1.4l-2.8-.2h-.6l.8-.1.8-.1.3-.3.3-.4v-.1h.8l1-.1.4-.1-1.2-.2h-1.4l-6.2-.2h-4 .3-1l.4-.2h.5l-.4-.3c-.3-.2-.3-.2 0-.5v-.2H83l-.5-.2-.9-.2h.7-.4l-1-.3h-.3l.4-.1h-2l-.7-.2h-1c-1.3 0-2.7 0-4-.2h-1.6.8l1.2-.3 1.4-.6 1-.1h.2l-.8-.2h1.2v-.4h.2-.7l.6-.1 1.2-.1h.9l.4-.1.1-.2h-.8l.2-.2h2.6l.8-.2 1-.1-3.1-.2a337 337 0 0 0-10-.5h-4.7v-.3l-.8-.1h-.7l-3.2-.3h-2.6l.6-.2h-1l-.9-.1c.3 0-.6-.2-1.3-.2h-.8.3-.4l.7-.2-1.3-.2c-.7 0-1.3-.2-2-.3h-.7l1.2-.1h4.8l-.4-.3-.5-.1h-.9l-1.4-.1-2.9-.2 2.8-.2v-.4s0-.2.2-.2"/><path fill="#a73a24" d="m159.8 513.2 39.2 5.4 40.5-35.5c-26.5-3.9-53-7.4-79.7-10.5a2570 2570 0 0 1-103.9-13c-2.8-1-14.5-1.6-25.7-1.9l-20.6-.3 1.1-8.3 1.2-8.5-4.2-10.8-4.3-11-1.7 10c-.7 5.4-1.2 15.6-1 22.3l.8 12-2.2 4.1-1.9 4.5 2.6-2.3 2.7-1.9 1.6 3.5 1.7 3.8-2.6-2.2-2.4-1.8-1 3.8-1.1 4.1-3.8-9.5.6 30.8 8-1.3 8.4-1.3-1.2 2.3-1 2.2 3.8 2 3.6 1.8-1.7-4-1.9-3.9 4 4.4 4.1 4.1 3.8-1.9 4-1.9 3.2 3.2 3 3.5 9-1 9.1-1-20.2-7-20.2-6.9 11.9 2c6.6 1.2 14.3 2.1 17.1 2.1l5 .4-1.2 2.2-1 2.5h5.1v-7.7l3 5.7 3.4 6 3.3-1.9 3.3-1.6-4-.3-4.3-.3v-6.3H62l1.4-4.8 1.4-5 4.8 3.4 4.7 3.5 2.4-1.9 2.4-1.9v7.3l7.1-2.2 7.1-2.2v7h5.5c2.9 0 9 .6 13.6 2 4.5.8 11.6 2.1 15.4 3 4 1 9.3 1.6 11.9 1.6h4.5l1.4 2.8 1.5 3 12.8 1.5Z"/><path fill="none" stroke="#a73a24" stroke-width="1.5" d="M391.2 299.2c1.5-3 2.9-7.6 4.9-8.8l1.4-8c-1.8-.5-3.4-.9-5 1-2.9 3.1-3.4 11.2-1.3 15.8Zm0 0c0 1.6-.2 3.9.2 5.4.5 2.7 1.4 4.7 1.8 7.7.4 5.8-.4 11.6.5 17.4.8 5 3.4 10.7 5.2 14.2m-7.7-44.7L410 312l-.2 8.1-3 7.3L399 344m0 0c.2 10.8 4.7 23 .6 32l-.6-32Zm-19.2-21.2h.4m42.5 72.8 4.5-9.3m-4 67.7c-1.5 3-3.3 9.2-5.3 10.4-2.5 1.9-5.5-.8-8 .3-1.5.8-2.9 5-4.5 4.3-2-1.6-3-8.9-4.5-12-.7-1.5-1.8-2.3-2.3-4.2-1.5-5.4.5-12.7-.6-18-.1-2-1.2-3.2-1.8-4.7l-4.3-9.2 46.9 5A179 179 0 0 1 431 459c-.7 1.1-1.6 3.4-2.6 3.4-2.2-.4-4-5.7-5.2-8.4Zm0 0v-20.8m-14.6 80c-1.4-4.2-.5-7.7-1.2-12.3-.4-3.4-2.2-5.4-2.5-8.8-.8-7 .3-15 .3-22.4l8.8 35c-2.3 0-3.8 5.5-5.4 8.5Zm0 0c0 2 0 3.1.7 4.3l-.7-4.3Zm.9 12c2-4.3 3.2-8.5 6.1-7.7l-.9-6.2c-3.4 0-6.3 6.2-5.2 13.9Zm0 0c0 3.8 1.6 8.4 3.2 9.6.8.8 1.8 0 2.6 0m6.7-240.6c1-.3 2.1-.3 3.2-.7 1.8-.8 4.3-3.1 6.1-1.6 1.4 1.6 3.2 8.5 2.5 12-1 5-3.6 7.7-5.9 8.8l-6-18.5Zm-15.8 19.3-.2 5.8-2.5 6.1-6.3 13.5 9-25.4Zm-24.4 5.8c.5 5.3 1.2 10.4 1.8 15.7.2 2.7 0 6.2.7 8.5.7 3 2.5 5.8 3.6 8l7.7 16.6c1 2.3 2.5 5 3.4 7.7.7 2.3 1 5.4 2.2 6.2 1 1.1 4.5 1.1 5.7 0 1-.8 2.2-4.2 3-6.2l7.2-15.4c1.5-3 4-6.9 4.9-10.7.7-3.1-.4-8.5-.4-12L382 319.3Zm-6.8 1.1c.2 8.1 2.1 15 2 23.1 0 2-.8 2.7-1 4.2-.5 2.7-.3 7.4.6 9.7.9 2.7 2.5 5 3.8 7.3 2.5 5 5 10 7.5 15.4 1 2.3 3.4 5.4 3.8 8.4.7 7.3 0 17 0 24.3 0 2.3.3 6.5-.2 8.4-2 6.6-5.6 12-8 17.4-1 1.9-2.4 4.2-3 6.5-.5 3 1.8 4.2 1.7 7.3-.4 6.2-.4 12.7-1.1 18.9-.4 3-1 6.1-1.3 9.2l-4.8-160Zm50 11.9c.4 3.9-2 7-3 9.3l3-9.3Zm-51.1 7.4c0 3.4 1 5.3 2.2 7.7l-2.2-7.7Zm26.9 42.7c-1 1.9-3 3.4-4.5 3.8-1.6.4-3.2-.7-4.6 1.2l9.1-5Zm6.3 0c1.6 2.7 3 5.4 4.5 8.4.7 1.6 1.4 3.9 2.5 4.7 1.8.7 4.1 0 5.9 0 .7 0 1.8-.4 2.3.7 1.1 2 .8 7 .8 9.7v26.5c3.2-2.7 4.6-12 7.7-15.4 1-1.1 6.4.4 8.2.8l-32-35.4Zm20.3 3v.1Zm-27.3 69.7c2.1-4.6 4.5-12 7.2-15 1.4-1.1 3.4 0 4.8-.4.7 0 1.4-.7 2.2-1.1 2.8-.4 5.7 0 8.6 0L400.2 455Zm-1.8-2.3-5.2 11.2c-1.4 3-2.7 5.4-2.5 10l7.7-21.2Zm29.6 10.4c-.4 3-1.8 5.4-2.9 7.7-2.3 5-4.5 11.2-7.2 15l10.1-22.7Zm-.2 2.3c1.5 3.9 1 7.7 1 12.3.3 3.5 1.7 7 1.7 10 0 2-1 3.5-1.6 4.6-1.6 3.5-3.6 9.7-6 10.4l5-37.3Zm2.5 23.9c.4 1.1.6 2.7 0 3.8-1 4.3-4.3 11.2-6.3 13.1l6.3-17Z"/><path d="M258.3 354c0-.1 0-.3.2-.4l.4-.2V352c-1 0-2 .9-2 2v8c0 1.1 1 2 2 2v-1.4c-.1 0-.3 0-.4-.2l-.2-.4Zm16 2.9.1-.8v-2c0-1-.9-1.9-2-2h-11V364h12c1 0 1.9-1 1.9-2v-3.3a2 2 0 0 0-1-1.7Zm-1.9-3.4.4.2.2.5v1.8c0 .2 0 .3-.2.5s-.2.1-.4.1h-9.6v-3Zm1.5 8.4c0 .2 0 .4-.2.5l-.4.2h-10.5V358h10.5l.4.1.2.5Zm14.8-8.4v-1.3h-11v11.7h11v-1.3H279v-3.8h9.7v-1.4H279v-3.9Zm12.3-1.3h-11.1v1.3h4.8V364h1.4v-10.4h4.9Zm11 11.7h1.5l-5.4-11.7h-3l-5.5 11.7h1.6l1.1-2.5h8.5Zm-9-3.9 3-6.5h1.2l3 6.5Zm14-6c-.1-1.1-1-2-2-2v1.4s.2 0 .3.2l.2.4v8c0 .1 0 .3-.2.4l-.4.2v1.4a2 2 0 0 0 2-2Z"/><clipPath id="a"><path fill="#fff" d="M-2 0h431v597H-2Z"/></clipPath></g><path fill="#2b0000" d="M239.6 357.3v2.8H230v2.4h9.6v2.7h-12.3v-13h12.3v2.8H230v2.3Zm-12.5-2.3h-4.8v10.2h-2.8V355h-4.7v-2.8h12.3Zm-22 10.2h-12.7v-13h2.8v10.3h8.1l4.7-10.3h4l6 13h-3.1l-1.1-2.5h-7.6Zm7.4-5.2-2.3-5h-.4l-2.3 5Zm-40 1h2.8v1.7c0 1.4-1.2 2.6-2.6 2.6l-5 .1-5-.1-2.7-10.6c0-1.4 1.2-2.6 2.6-2.6l5-.1h5.2c1.4.2 2.5 1.3 2.5 2.7v1.8h-2.8v-1.7h-9.7v7.7c1.7.2 3.3.2 5 .2 1.5 0 3.1 0 4.7-.2Zm-9.9 4.3a2.8 2.8 0 0 1-2.6-2.6c-.2-2.7-.2-5.4 0-8Zm-2.8 0h-13.7l-1.1-2.6h-7.6l-1.1 2.5h-3l5.9-13h4l5.6 12.5v-12.5h2.8v10.3h8.2Zm-16.1-5.3-2.3-5h-.4l-2.3 5Zm-12.5 1h2.8v1.6c-.1 1.4-1.2 2.6-2.6 2.6l-5 .1-5.1-.1a2.6 2.6 0 0 1-2.6-2.6v-8c0-1.4 1.2-2.5 2.6-2.6l5-.1h5c1.5.1 2.6 1.3 2.7 2.7v1.8h-2.8v-1.7l-4.9-.1-4.9.1v7.7c1.6.2 3.3.2 5 .2l4.8-.2Zm44.8-9h2.7v10.5l-.1 2.7a2.8 2.8 0 0 1-2.6-2.6Zm12.5 0h2.8v10.6c0 1.4-1.2 2.5-2.6 2.6h-10.1l.1-2.7h9.8Z"/><path fill="#a73a24" d="M54.2 236.7c1 0 2 1 2 2.1v1.5h-2v-1.6h-9v7.6h9v-1.5h2.1v1.5c-.1 1-1 2.1-2.1 2.1h-9c-1 0-2-1-2-2.1v-7.5a2 2 0 0 1 2-2c3.1-.3 6-.3 9 0m29.6 2.1h-8.2v2.8h8.2m32.1-3h-8.8v.1c-.2 2.5-.2 5 0 7.4h9v-.1q.2-2.4 0-7.4m-8.9 9.6a2 2 0 0 1-2-2 47 47 0 0 1 0-7.5c0-1.2.8-2 2-2 1.4-.3 3-.3 4.5-.3l4.4.1c1 0 2 1 2 2.1v7.5c0 1.1-1 2-2 2l-4.4.3m-43.5-2.7h-7l-1 2.5h-2l4.9-11.4h3.4l4.9 11.4h-2Zm15.7-9c1.1 0 2 1 2 2v3.1c0 1.1-.9 2.2-2 2.2h-1l5 4.2h-3.8l-4.7-4.2h-3.8v4.3h-1.8v-11.7Zm17.3 4-.1.5c.5.4.8 1 .8 1.7v3.2c0 1-1 2-2 2H89v-11.5h10c1 0 2 1 2 2.1ZM91 238.6v2.2h8v-2.2Zm43.3-1.9v11.6h-2.7l-8.5-9.4v9.4h-2.4v-11.6h4l7 8.2v-8.2Zm4.8 9.6v2h-2v-2.1m-69.8-2.3-2.3-5.3h-.6l-2.3 5.3Zm32.3 2.4h.3V243h-9v3.4Z"/><path fill="#305673" d="M275.5 241h-2.6v-1.3h-8.1v1.9h8.3c1.3 0 2.3 1 2.3 2.3v2.3c0 1.3-1 2.3-2.3 2.3h-8.6c-1.2 0-2.3-1-2.4-2.3v-1.6h2.6v1.4h8.1v-2h-8.3c-1.3 0-2.3-1-2.4-2.2v-2.4a2.4 2.4 0 0 1 2.4-2.2c2.8-.2 5.7-.2 8.6 0 1.2 0 2.2 1 2.3 2.3Zm41 0h-2.6v-1.3h-8.1v1.9h8.3c1.3 0 2.3 1 2.3 2.3v2.3c0 1.3-1 2.3-2.3 2.3h-8.6c-1.2 0-2.3-1-2.4-2.3v-1.6h2.6v1.4h8.1v-2h-8.3c-1.3 0-2.3-1-2.4-2.2v-2.4a2.4 2.4 0 0 1 2.4-2.2c2.8-.2 5.7-.2 8.6 0 1.2 0 2.2 1 2.3 2.3Zm-155.7-4-5.3 11.6H153l-3.6-7.8-3.5 7.8h-2.5l-5.3-11.6h2.9l3.6 8 3.7-8h2.2l3.6 8 3.7-8Zm196.7 11.6-4.4-.1c-1.3 0-2.3-1-2.4-2.3v-6.7c0-1.3 1-2.3 2.4-2.3l4.4-.1h4.4c1.2.1 2.2 1.1 2.3 2.3.2 2.3.2 4.6 0 6.8 0 1.3-1 2.2-2.3 2.3Zm-4.2-9c-.1 2.2-.1 4.3 0 6.4h8.3v-6.3Zm-184.5 9-4.4-.2c-1.3 0-2.3-1-2.4-2.2v-6.8c0-1.3 1-2.3 2.4-2.3l4.4-.1 4.4.1c1.2 0 2.2 1 2.3 2.3v6.8c0 1.2-1 2.1-2.3 2.2Zm-4.3-9v6.3h8.4v-6.3Zm24-2.6c1.2 0 2.3 1.1 2.3 2.4v3c0 1.2-1 2.2-2.3 2.2h-1l5.7 4h-4.7l-5.7-4h-2v4h-2.6V237h10.3Zm-7.7 2.6v2.5h7.4v-2.5Zm22.4 9h-9.8V237h2.7v9h7.1Zm1.1-11.6H216c1.3 0 2.3 1 2.4 2.4v6.7a2.6 2.6 0 0 1-2.4 2.4h-11v-9h-.7Zm11.5 2.7h-8.2v6.2h8.2Zm18.4 1.3h-2.6v-1.4h-8l-.1 1.9h8.4c1.2 0 2.3 1 2.3 2.3v2.4a2.4 2.4 0 0 1-2.4 2.2c-2.8.2-5.7.2-8.5 0-1.3 0-2.3-1-2.4-2.2v-1.7h2.5l.1 1.4 4 .1h4l.1-2h-8.4c-1.2 0-2.3-1-2.3-2.3v-2.3c0-1.2 1.1-2.2 2.4-2.3h8.5c1.3 0 2.3 1 2.4 2.3Zm2.6 7.5V237h11v2.6h-8.4v1.9h7.6v2.6h-7.6v4.4Zm10.2 0 5.3-11.4h3.5l5.3 11.5h-3l-.9-2.1h-6.4l-1 2Zm9-4.6-1.9-4.2h-.2l-1.9 4.2Zm73-4.2h-4.2v8.9h-2.6v-9h-4.1v-2.5h11Zm-41 0h-4v8.9h-2.7v-9h-4.2v-2.5h11Zm13 1.8v2.6h-8.4v2h8.3v2.5h-11V237h11v2.6h-8.3v1.8Zm31.7 4.5v2.6h-2.6V246Zm13-1.4h2.6v1.6c0 1.3-1.1 2.3-2.4 2.3h-8.8c-1.3 0-2.3-1-2.4-2.3v-6.7c0-1.3 1.1-2.3 2.4-2.3l4.4-.1h4.4c1.3.1 2.3 1.1 2.4 2.4v1.6h-2.6v-1.4l-4.2-.1h-4.1a63 63 0 0 0 0 6.4h8.3Zm36-7.5v11.5h-2.6v-7.2l-3.8 7.2h-2l-3.8-7.2v7.2H367V237h3.2l4.2 7.8 4.2-7.8Z"/><text stroke-width="0" dx="0" dy="0" font-family="&quot;Arial&quot;" font-size="15.7" font-weight="400" transform="translate(124 274.2)"><tspan y="0"><![CDATA[
Find out how much carbon
]]></tspan></text><text stroke-width="0" dx="0" dy="0" font-family="&quot;Arial&quot;" font-size="15.8" font-weight="400" transform="translate(132 296)"><tspan y="0"><![CDATA[
your website is emitting 
]]></tspan></text></svg>