<svg xmlns="http://www.w3.org/2000/svg" viewBox="0 0 400 75"><path d="M0 0h43v60.48H0"/><path d="M2.78 3.3h34.26v33.93H3.11"/><path fill="#8c7a62" d="m22.2 59.91-19.5-.07-.84-2.18H41q1.55 2.28 1.01 2.28l-19.8-.07ZM9.25 35.35l.74-1.61.6-1.28 1.15 1.14c1.14 1.11 1.17 1.18 1 1.62-.2.4-.23.43-1.95.43-1.57 0-1.68 0-1.54-.3Z"/><path fill="#978369" d="M6.76 35.18v-.44c.06-.33.13-.54.24-.94.06-.6.37-1.24 1.04-3.49.56-1.25.3-1.14 1.08 0 .9 1.19 1.03.97.73 2.11-1.24 2.76 0 0-1.24 2.8 0 .13-1.85.1-1.85-.04Zm6.32.07c.17-.5 0-.5.54-.27 2.14.76 2.3.58.1.52-.68 0-.65 0-.65-.25Zm1-.5c-.07-.04-.45-.26-.43-.54.59-1.52 1.92-3.51 4.03-6.56l3.59 3.26c.58.37.58.37.24.88q-.2.23-2.22 3.59h-2.01a8.96 8.96 0 0 1-3.2-.64Zm6.05.56c-.1-.1 1.65-2.88 1.92-3.29.3-.55.01-.53.87 0q3.59 1.92 3.63 1.99.03.03-.54 1.41-4.88-.02-5.88-.1Zm6.62.07a4 4 0 0 1 .6-1.14q2.25 1.04 2.25 1.11c-.95.12-1.9.13-2.85.03Zm1.41-1.37c-.54-.24-.57-.3-.47-.75.51-.89 1-1.8 1.44-2.72 1.01-1.95 1.01-2.35 1.45-2.15.04.14 3.43 1.31 3.59 1.38s.28.17.2.27-.26.8-.5 1.65c-1.1 3.83-1.07 3.73-1.48 3.7m1.13.11q0 .31 1.63-5.42l1.01.36.08 5.08M11.1 32.29l-.44-.5.4-.91a28.93 28.93 0 0 1 4.33-6.75c-.16.5 1.8 2.92 1.88 3.19.04.13-.2.2-.52.7-1.23 1.53-2.03 3.1-3 4.8-.3.52-.65 1.15-.74 1.19s-.44-.38-.8-.67Zm13.16-.34c-1.52-.9-1.52-.9-1.3-1.34q.13-.23 3.26-4.3 3.35 1.91 3.35 1.99l-.4.87-1.67 3.22c-.41.9-.58 1.01-1.19.7Zm-17.5-.17q.24-.72.77-3.9.5.88.65 1.02.14.07-1.19 3.66c-.2.7-.33.6-.24-.78Zm3.53-.72c0-.21-1.68-1.66-1.38-2.67-.03-.01 5.3-7.88 5.41-7.86-.06.4-.03.48.03.78.12.6.41 1.11.57 1.57.2.48.24.48 0 .91-.43.8-.94 1.18-1.44 2.02-.57.6-1.98 3.09-3.2 5.25Zm10.92-1.22a46.98 46.98 0 0 1-3.12-2.69c0-.17 3.36-3.63 3.69-3.9l.47-.5.97.94 1.2 1.11c.15.1.52.37.79.64l.56.43-.63.75a31.02 31.02 0 0 0-2.92 3.92c-.08 0-.5-.33-1.01-.7Zm14.31-.3c-.2-.1-.34-.2 0-.64.16-.3.24-.68.34-.88.13-.8.33-.5.27.5-.07 1.05-.21 1.32-.61 1.02Zm-2.72-.78c-1.48-.54-2.02-.87-2.02-1.34 0-.13 2.7-4.6 3.1-5.17.26-.34.26-.34 1.27.13l1.01.5-.07 1.68a10.1 10.1 0 0 1-1.61 4.78l-1.68-.58Zm-4.37-1.94c-1.44-.78-1.68-.95-1.68-1.21q0-.1 2.08-2.59c1.21-1.48 2.12-2.48 2.52-2.48.44 0 1.71 1.1 1.85 1.1.4 0 .34.37-.24 1.14a63.8 63.8 0 0 0-2.32 3.9c-.13.37-.56.84-.77.84-.1 0-.77-.34-1.44-.67Zm-12.64-3.16c1.1-1.4 2.35-2.66 3.74-3.76.87-.92.8-1.18 1.57.73l.95 1.53c-.6.64-3.63 3.92-4.21 4.52M8 26.42c.25-.56.91-2.76 1.12-3.16.67-.99 2.72-3.55 3.49-4.44l1.04-1.15c.34-.35.43-.1.43-.1.1.12.02.03.07.48-.08.96.37 1-1.08 3.09-.7.88-3.87 6.33-4.46 6.75-.14 0-1.08-.74-.61-1.48Zm14.92-4q-.34.06 5.38-4.48l2.48 2.16q-4 4.7-4.56 5.34Zm-7.56.3c-.3-.54-.7-2.12-.7-2.7 0-.4.16-.7.73-1.3.44-.44 3.33-2.7 3.5-2.8s.3-.26.37-.26c.16 0 .74 2.18.88 2.45.2.61.36.37-.44 1.01l-1.76 1.48c-.56.47-1.3 1.31-1.8 1.82-.58.56-.64.6-.78.3Zm19.96-.85-.8-.33c.43-.85 1-1.62 1.7-2.28.08.97 0 1.77 0 2.78l-.9-.16ZM20.7 18.9c.7-.4 2.36-1.52 3.96-2.29l2.12-1c.48.6.9 1.27 1.15 1.98-.24.24-4.88 3.92-5.01 4.06-.7.5-.67 0-1.12-.64ZM9.65 22c.06-.1.26-.78.5-1.21s1.17-1.76 1.46-2.08c.3-.26.49-.7.77-1.04s.68-.88 1.1-1.42c.24-.24.63-.7.84-.88 0 .19.02.5 0 .61-.04.54-.18.61-.58 1.15-.52.61-1.08 1.2-1.54 1.75-.72.7-1.68 2.04-2.58 3.15Zm23.76-.98c-.14-.03-1.95-.87-1.79-.93.14-.08 4.14-3.84 4.24-3.84s.3.17.3.64c0 .84-.17 1.84-.6 2.22-.14.1-1.62 2.06-1.75 2.02m-2.86-1.71c-.67-.34-2.16-1.79-1.95-1.96a38.74 38.74 0 0 1 4.8-3.02c.4-.01.58.1 1.02.44.33.37.43.67.36.87a46.45 46.45 0 0 1-3.7 3.83l-.53-.2ZM14.7 16.4l1.14-1.14a10.3 10.3 0 0 1 1.84-1.55c.24-.2.68-.57 1.04-.77l.64-.4V13c.04 1.07-.02 2.01-.16 2.05q-4.03 3.35-4.24 3.48c-.33.27-.4.21-.33-.96Zm5-1a22.96 22.96 0 0 1 4.8-2.63c1.59-.47 1.69-.74 1.73.37 0 .33.12.54.12 1.1 0 .71.55.91-.93 1.35a111 111 0 0 0-4.44 2.52c-.27.27-.3.03-.47-.44Zm8.91 1.7c-.14-.03-1.18-1.48-1.25-1.5a69.4 69.4 0 0 1 5.68-2.09c.54-.3.58.21.58.47-.81.37-4.71 3.23-5.01 3.12Zm-13.94-1.74c0-.54.13-.78 1.2-1.85 1.15-1.11 3.26-2.96 3.44-2.96 0 0 .06.37.06.8 0 .68-.07.85-.37 1.02a19.6 19.6 0 0 0-2.76 2.18l-1.2 1.1-.37.34v-.64Zm5.04-1.85V12.3l1.37-.7c.94-.5 1.92-.93 2.92-1.29.49-.18.45-.14.44-.14.79-.22 1.2-.33 1.35-.33.44-.14.36-.04.3.97 0 .54-.1 1.04-.14 1.1s-.47.18-.97.34c-.9.26-1.8.59-2.62 1.04-.84.34-1.61.88-2.01 1.08l-.68.34v-1.2Zm7.12.67c-.27-1.64-.2-.77-.34-1.92 2.12-.33 6.32-1.2 6.32-1.1.03.37.16 1.6.24 1.68.13.13-5.02 1.71-5.11 1.88-1.18.64-.81.14-1.11-.54Zm7.26-.88c-.34-.1.47-.06 1.34-.16l.74-.04-.07.4c-.08.3-.16.82-.24 1.04-.07.6-.13.59-.77-.1Zm-.47-.7c-.1-.24-.1-1.72-.1-1.72l2.68-.19v1.84m-16.49-2.29a74.8 74.8 0 0 1 5.42-2.78c.78-.33 1.62-.7 1.69-.6.07.03-.24 1-.34 1.48-.1.97-.06.93-2.48 1.68l-1.95.76-2.22 1.12m6.58-1.15.14-1.04 6.24-1.34V9.4c0 1.11 0 1.11-.5 1.17l-5.61 1.15c-.26.1-.26.1-.26-.98Zm6.76-2.41 2.69-.37c.27-.07.3.06.3 1.1v1.11q-2.72.24-2.96.34m-6.01-3.06c.3-.94.13-.88 2.48-1.44q3.56-.64 3.67-.74c.16-.27.13 0-.17 1.4-.17.68-.4 1.29-.5 1.29q-.1 0-5.75 1.21M33.4 7.5q0-.28.51-2.35l2.25-.21V7.5h-.6c-.34 0-2.49.5-2.16 0Z"/><path fill="#c0a385" d="m40.14 58.16-.47-55.91.8-.77q.6-.6 1.89-.78v29.57c0 23.55-.04 29.57-.2 29.57"/><path fill="#e9c29b" d="M1.28 58.4q-.04-.17.4-56.02 38.98-.12 38.81.04c-.34.3-.34.44-.3 28.03l.03 27.72H21.14M37.3 3.72H7.86l-3.5 3.49v29.44H37.3"/><text stroke-width="0" dx="0" dy="0" font-family="Arial" font-size="6" font-weight="700" transform="translate(6.38 43.11)"><tspan y="0">
THE HTML</tspan><tspan x="0" y="6">  WRITERS</tspan><tspan x="0" y="12">   GUILD</tspan></text><path fill="#f6e6b4" d="M.67 30.27V.7h41.56l-.84.84-.8.84H1.68v55.44l.98 1.01.9 1.01H.67V30.27Z"/><path fill="#f6e6b4" d="M5.32 7.63h3.02V4.61h12.7c13 0 14.69.1 10.48.6-.43.03-2.72.57-3.6.91l-1.1.34-.94.33c-2.78 1.1-5.4 2.18-7.8 4.33-1.51 1.35-2.87 2.22-4.8 4.64-.87 1-1.11 1.6-1.35 1.92l-.31.43s-.42.56-.55.78c-.8 1.1-1.47 2.27-1.99 3.52-.18.4-.64 1.07-.74 1.38A28.88 28.88 0 0 0 6.36 34v1.54h-1"/><path fill="#f6e6b4" d="M5.36 7.08c0-.07 2.23-2.01 2.3-2.01q.07 0 .07 2.01"/><path fill="#fff" d="m163.95 12.48 7.36 25.04 7.36-25.04h20v2.48L191.07 28a10.4 10.4 0 0 1 6 4.64 14.88 14.88 0 0 1 2 7.84v-.08c0 3.68-.96 6.8-2.96 9.36a9.28 9.28 0 0 1-7.68 3.84 9.2 9.2 0 0 1-6.16-2.32 13.28 13.28 0 0 1-3.92-6.08l4.16-1.76a9.44 9.44 0 0 0 2.4 3.68 5.12 5.12 0 0 0 3.52 1.36c1.44 0 2.64-.8 3.6-2.4 1-1.72 1.5-3.69 1.44-5.68 0-2.48-.48-4.4-1.6-5.76-1.12-1.6-3.04-2.4-5.6-2.4h-2.08v-2.4l7.12-12.24h-8.64l-10.87 36h-.48l-7.6-25.6-7.6 25.6h-.48l-12.16-41.12h5.36l7.28 25.04 4.96-16.8-2.4-8.24h5.27Zm55.76-.24.8 5.28-3.04 5.84s-1.12-2.48-3.12-3.84c-1.6-1.2-2.72-1.44-4.32-1.12-2.16.48-4.64 3.04-5.6 6.24-1.36 3.76-1.36 5.6-1.36 7.2-.08 2.8.32 4.4.32 4.4s-1.84-3.44-1.84-8.48c0-3.6.56-6.88 2.24-10.08 1.44-2.8 3.6-4.48 5.6-4.72a6.4 6.4 0 0 1 4.72 1.84 15.2 15.2 0 0 1 2.56 3.44l3.04-6Zm.32 29.76.8 4-.8 1.36c-.56.9-1.2 1.76-1.92 2.56-.73.77-1.53 1.47-2.4 2.08a8.15 8.15 0 0 1-6.08 1.28c-3.28-.64-5.36-3.12-6.48-4.64-1.12-1.6-2-3.44-2.24-4-.48-1.04-1.2-3.44-1.2-3.44l2.16 3.6a16 16 0 0 0 3.04 3.04 9.12 9.12 0 0 0 4.08 1.6 7.76 7.76 0 0 0 4.72-.8c1.76-.8 3.36-2.4 4.16-3.36s2.16-3.36 2.16-3.36V42ZM87.05 60.56A28.96 28.96 0 0 1 59.75 30 28.96 28.96 0 0 1 90.32 2.64a28.96 28.96 0 0 1 27.36 30.56 28.96 28.96 0 0 1-30.56 27.36h-.07Zm.07-1.6.64-.4c.48-.56.56-1.6.16-2.16-.17-.2-.4-.33-.64-.4h-.4c-.8-.08-1.44.4-1.44 1.36-.08.64.16 1.2.64 1.44.24.16.72.16 1.04.16Zm3.44 0a1.6 1.6 0 0 0 1.04-1.44c0-1.04-.72-1.68-1.6-1.6-.48.08-.8.32-1.04.8-.32.56-.16 1.52.32 1.92l.48.32h.8Zm-6-.8-1.69-.32.82-.32c.8-.16.87-.32 1.03-.56 0-.16.08-.48 0-.64 0-.48-.64-.8-1.28-.8-.48 0-.8.16-.88.48v.4c.16.16.32.16.48 0l.08-.24c0-.32 0-.4.4-.4.1-.03.22-.03.32 0 .24.16.32.24.32.56a.8.8 0 0 1 0 .48c-.24.24-.32.32-.88.48l-1.04.48-.16.24v.16l2.4.48.08-.48Zm9.04.4c.48-.08.8-.4.96-.8.16-.32 0-.72-.16-.96-.16-.16-.32-.24-.64-.24h-.24l.16-.16c.32-.16.48-.4.48-.8a.8.8 0 0 0-.56-.8 1.6 1.6 0 0 0-1.04.16c-.24.08-.48.32-.56.48-.16.32 0 .8.32.72.24-.08.32-.32.16-.56v-.24s.24-.24.4-.24c.4-.08.64.08.64.56.08.48 0 .8-.56.8l-.16.08.08.24h.56c.24 0 .4 0 .48.32.08.16.16.56.08.72a.8.8 0 0 1-.32.4.95.95 0 0 1-.8.08v-.24c0-.24 0-.24-.16-.32l-.24-.08c-.24 0-.32.24-.16.56 0 .08.16.24.4.32h.88Zm-3.68-5.28a21.6 21.6 0 0 0 19.44-14.8 21.76 21.76 0 0 0-36-22.24 21.6 21.6 0 0 0 0 30.64 21.6 21.6 0 0 0 16.56 6.4ZM72.08 52l.8.56c-.21-.59-.3-.9-.24-.96l.72-.48h-1.04l-.32-.88-.32.88h-.88l.72.56c-.07.27-.15.54-.24.8l.8-.48Zm33.84 0 .8.56c-.21-.59-.27-.9-.16-.96l.64-.48h-.96l-.32-.88-.24.88h-.96l.72.56-.24.88.72-.56Zm8.16-10.88v-.08l-.72.4-1.76-.64 2.88-.88.4-.96-.32.16c-.24.24-2.06-.42-2.4-.56-.16 0-.3-.21-.4-.64l-.48 1.28.48-.32h.4l1.76.64-2.96.96c-.1 0-.19.08-.24.24l1.28.48 1.36.48c.16.1.27.35.32.72l.4-1.28Zm-47.52.32-.48-1.2c-.16 0-.16 0-.08.24 0 .32 0 .32-.56.32h-.32l-.4-1.04.72-.56.4.32c-.18-.7-.4-1.4-.64-2.08l-.08-.64h-.16v.24l-.16.32a.8.8 0 0 1-.32.16l-2.16.4 2.64-1.68c-1.7-.35-2.72-.56-3.04-.64l2.4-.48c.16 0 .32.48.48.48v-.08l-.24-1.44c-.1 0-.16.16-.16.48-.87.2-1.75.35-2.64.48-.16 0-.16 0-.24-.24 0-.08-.08-.16-.24-.08l.16 1.04 2.56.48-2.08 1.36.16 1.2h.16c.1-.32.19-.5.24-.56l2.4-.48.32.24v.16l.08.16c0 .24 0 .32-1.28 1.44l-1.2 1.12c0 .08 0 .16.16.16h1.6c1.6 0 1.6 0 1.84.32l.16.08Zm47.76-3.52c.42-.13.76-.41.96-.8.16-.32.24-.8.08-1.2-.32-1.2-2.16-1.6-3.04-.72a1.6 1.6 0 0 0 .56 2.56 2 2 0 0 0 1.44.16Zm1.44-5.12c-.1 0-.21.13-.32.4h-1.36c-1.07-.1-1.6-.32-1.6-.64l-.16 1.52.4-.48 1.36.08c1.44.08 1.36.08 1.36.4 0 .16 0 .24.16.24l.16-1.52Zm-54.31.8a.64.64 0 0 1 .08-.24c1.87-.05 2.8-.03 2.8.08 0 .24.08.24.16.24h.08v-2.8h-1.04c0 .16 0 .16.24.24.32.16.48.32.48.48.05.32.05.64 0 .96 0 .05-.43.1-1.28.16v-.64c0-.08.24-.24.4-.24.08 0 .16 0 .16-.16v-.08h-.4a12 12 0 0 1-.64 0h-.32v.16l.16.08c.32.08.4.24.4.72v.16h-1.28v-.32c0-.56 0-.64.16-.8l.24-.16.16-.16c0-.16 0-.16-.48-.16h-.4l.08 2.64c.16 0 .24-.05.24-.16Zm54.4-1.44-.08-2.88h-.96l.72.64v.56h-2.72c-.05 0-.19-.16-.4-.48v1.6c.21-.32.37-.48.48-.48l2.72-.08v.56c-.48.27-.72.45-.72.56h.96Zm-51.28-1.68.08-1.44h-.16l-.16.4h-.56c-.64-.08-.64 0-.64-.24v-.16l1.2-.64.48-.24v-.96l-.16.08c-.03.09-.56.46-1.6 1.12v-.16a1.44 1.44 0 0 0-.24-.48.88.88 0 0 0-.64-.24l-.32.08c-.24.16-.32.32-.4.56s-.32 1.84-.24 1.92l.24-.16c0-.16.08-.24.24-.24l2.56.32.08.32.24.16Zm48.16-1.44 2.8-1.68v-.24l-.88-.24c-2.48-.48-2.4-.48-2.56-.8 0-.08-.08-.08-.16 0l.16 1.2.16-.43.88-.05.24 1.2-.8.4-.32-.32c.05.46.13.91.24 1.36l.24-.4ZM65.2 26.4c.16-.56.16-.72.08-.8l-.32.4a20.8 20.8 0 0 1-2.64-.56l-.24-.48-.16.72-.16.8.24-.16c.16-.32 0-.32 1.44 0l1.36.24.25.56.16-.72h-.01Zm46.8-.64c0-.24 0-.32.16-.4.82-.25 1.65-.46 2.48-.64.21.27.35.37.4.32l-.32-1.44-.24.48-2.56.8c-.16-.32-.3-.48-.4-.48l.32 1.44c0 .08 0 .08.16 0v-.08Zm-46.95-.96c.32-.08.72-.4.8-.8.32-.56.24-1.12-.16-1.6l-.16-.16-.16.16.16.16c.24.24.24.4.24.8v.32c-.24.48-.8.72-1.36.56a2.4 2.4 0 0 1-1.28-.64c-.4-.4-.32-1.04.16-1.28.23-.1.47-.16.72-.16h.16c.08-.16.08-.16 0-.16l-1.04-.4v.32l-.08.16a1.6 1.6 0 0 0 0 2.16c.56.56 1.28.8 1.92.56h.08Zm47.2-1.04-.16-.08c-.4-.08-.56-.16-.8-.4-.48-.72 0-1.6 1.12-1.92h1.04c.48.24.64.72.48 1.12l-.56.56c-.08 0-.08.08 0 .16v.08l1.12-.48-.16-.16-.08-.24a1.6 1.6 0 0 0-.96-1.6h-.8c-.56 0-.96.24-1.28.56s-.48.64-.48 1.12c0 .24 0 .4.16.64.24.48.64.8 1.2.8.16 0 .16 0 .16-.16Zm-45.36-2.32c-.1-.05-.19-.05-.24 0-.16.24-.24.32-.32.24l-.56-.56.48-.96h.4c.48 0 .48 0 .48.16l.08.4 1.44-2.4h-.32l-.24.24-.48-.16-1.52-1.04 3.36-.08.16-.24c-1.65-1.17-2.48-1.81-2.48-1.92v-.4l-.8 1.04.24.08c.32-.32.32-.32 1.52.48l.56.4-3.12.16-.48.8h.24c.08-.16.32-.24.4-.24.1 0 .8.48 2.08 1.44v.32c-.08.24-.24.48-.48.48a63.12 63.12 0 0 1-3.2-.24l-.08.16.8.96c1.44 1.52 1.44 1.52 1.36 1.84v.16h.08l.64-1.12Zm44.4-.88c.64-.24 1.12-.8 1.28-1.28a1.6 1.6 0 0 0-1.04-1.92h-.88c-.4 0-.8.32-1.12.64a1.6 1.6 0 0 0 .8 2.56h.96Zm-2.4-2.88c.24-.08.56-.4.56-.56v-.96c-.24-.56-.24-.8 0-.96.08-.16.16-.24.32-.24.32 0 .56.32.56.64 0 .24 0 .4-.24.64v.4l.4-.32.48-.4v-.08c-.08 0-.16-.08-.16 0l-.16-.16c0-.4-.08-.48-.32-.72l-.32-.24h-.8a1.2 1.2 0 0 0-.48.56l.08.96.16.48c0 .24-.16.4-.24.56-.24.16-.48.16-.8 0-.32-.4-.32-.8 0-1.36.08-.16.08-.24 0-.32l-.88.72c.08.08.08.16.16.08l.16.24c.16.48.48.8.8 1.04h.72Zm-1.76-2.24c.16 0 .48-.32.56-.48v-.32c0-.24 0-.32-.32-1.04-.16-.4-.08-.64.16-.8 0-.08.08-.16.32-.16.16 0 .24.08.4.24.24.24.16.56 0 1.04l-.16.24.16.16.8-.8v-.08l-.24-.08-.08-.08c0-.24-.24-.48-.4-.64a.96.96 0 0 0-.72-.32.8.8 0 0 0-.64.32c-.16.16-.24.32-.24.64l.24.72c.16.48.16.64.08.8 0 .16-.24.4-.32.4-.24.08-.4 0-.64-.16-.16-.24-.24-.32-.24-.64 0-.24 0-.32.16-.56l.16-.24-.16-.08-.88.72.08.08.16.08.16.16c.08.24.24.48.48.64.32.32.8.4 1.12.24Zm-36.4-3.28 2.24 1.28.16-.16a103.3 103.3 0 0 1-1.28-2.88l-.16-.48-.72.72c.37-.05.61-.03.72.08l.88 1.84-2.32-1.2-.16.16 1.04 2.24-1.84-1.04.08-.56-1.04.96c.34-.05.56-.05.64 0l2.64 1.6.16-.16-1.04-2.4Zm34.4 1.92v-.16a.64.64 0 0 1-.08-.24l.88-3.28-3.28 1.52c-.08-.08-.16-.08-.16 0h-.08l.96.8h.08l-.24-.56c.43-.32.8-.37 1.12-.16l.48.4-.32.8.08.56.48.4.08-.08ZM76.65 10.8l-.48-.88c-.05.05-.08.37-.08.96-.24.24-.8.64-.96.64l-.8-1.12c.56-.4.64-.4.96-.08h.16l-.72-1.12-.16.24c.1.21-.05.48-.48.8l-.64-1.04c.53-.37.82-.55.88-.56l.72.16c-.1-.26-.23-.5-.4-.72a36 36 0 0 0-2.16 1.6c.32-.1.5-.1.56 0a45 45 0 0 1 1.44 2.16l-.16.53 2.32-1.57Zm24.4.08c.32 0 .88-.56.88-.88s-.08-.48-.32-.8c-.56-.64-.56-.72-.56-.88l.24-.48c.32-.16.8 0 .88.4v.96c.16 0 .16 0 .48-.56l.24-.4a.34.34 0 0 0-.32 0c-.4-.56-.72-.8-1.12-.8s-.72.24-.8.56a.8.8 0 0 0-.16.4c0 .32.16.48.48.96.32.4.4.48.4.72s-.24.48-.4.56a.72.72 0 0 1-.8-.48c-.16-.16-.16-.16-.16-.48a2.26 2.26 0 0 0-.08-.56l-.48.88-.08.16.4.08c.24.32.64.56.96.64h.32ZM78.89 9.6c.4-.48.4-1.12-.08-1.36a.8.8 0 0 0-.4-.08h-.48l.08-.08c.24-.24.24-.4.24-.64 0-.4-.24-.72-.72-.72a11 11 0 0 0-2 .8l.16.24c0 .05.13.03.4-.08l1.2 2.4-.24.48 1.84-.96Zm20-.08-.4-1.6h.24c.4 0 .64-.08.8-.4l.08-.32a.97.97 0 0 0-.4-.8l-1.76-.72c0 .03.07.2.24.48-.3.84-.65 1.67-1.04 2.48l-.4.16 1.28.56s-.24-.4-.24-.48l.24-.96.48.16.4 1.6.8.32-.32-.48Zm-17.84-.64-.24-.16c-.24 0-.32-.08-.4-.24l-.72-2.24 1.92 2.4.32-3.04c.48 1.65.64 2.53.48 2.64l-.16.24 1.44-.4c-.37-.1-.59-.24-.64-.4l-.64-2.4.32-.48-1.04.24-.24 2.56a234.2 234.2 0 0 0-1.6-2l-1.12.4c.37.05.59.13.64.24l.64 2.24c0 .24 0 .32-.24.4l-.08.24 1.36-.24Zm15.04-1.12c-.48.37-.77.56-.88.56l-.88-.24c-.16-.08-.16-.16 0-.8l.16-.56h.4c.24.16.32.24.32.48l.08.24h.08c.15-.42.25-.84.32-1.28l-.24.08c0 .16-.16.32-.32.32l-.56-.16.24-1.2.96.24.48.72.16-.8-2.48-.56.32.48-.64 2.48-.48.24 2.64.64.32-.88ZM84.56 8l.11-1.14 1.17-.14.59.91.85-.11-.48-.24-.8-1.44c-.23-.46-.47-.91-.72-1.36l-.56.08c-.43 2.13-.7 3.23-.8 3.28l-.07.16h.71Zm7.68-.16c0-.16 0-.16-.24-.16-.32-.16-.32 0-.16-1.52L92 4.8h.24c.32 0 .4.08.48.24l.16.4.16.16.16-.56v-.32l-2.88-.32-.08.88h.08l.16-.08c.08-.24.32-.4.4-.48h.64c-.1.94-.23 1.87-.4 2.8h-.24l-.24.08v.16l.64.08.8.08h.16v-.08Zm-3.19-.24c.24 0 .48-.32.56-.56.1-.26.1-.54 0-.8-.08-.24-.32-.32-.96-.64-.56-.16-.64-.32-.72-.56 0-.32.24-.64.64-.56.32 0 .56.24.72.72 0 .24 0 .24.16.24l.08-.16V4.24h-.16a.24.24 0 0 0-.16.08c0 .08 0 .08-.16 0-.3-.12-.65-.12-.96 0-.24 0-.4.24-.56.4v.4c0 .32 0 .48.24.64.16.16.24.24.8.4.32.16.4.16.48.32.24.32.24.8-.08.96h-.8c-.16-.16-.4-.4-.48-.8 0-.16-.08-.16-.16-.16h-.16v1.04c.4.16 1.36.24 1.68.08Zm-2.58 51.04c-.32-.08-.48-.4-.48-.96 0-.88.32-1.6.8-1.6.32 0 .56.32.72.64.08.4.08.8 0 1.2l-.32.64c-.2.17-.48.2-.72.08Zm3.52 0c-.4-.16-.72-.96-.56-1.6 0-.56.24-.8.64-.88.32 0 .64.24.8.72V58c0 .24-.16.56-.32.64a.8.8 0 0 1-.56 0Zm-12.96-33.6-.96-.72-.96-.24v-.8h7.76v.8c-1.12.21-1.7.37-1.76.48v.72c.97 2.83 1.96 5.66 2.96 8.48l3.2-10.4h2.24c2.36 6.58 3.67 10.2 3.92 10.88l2.56-9.44c0-.32-.56-.56-1.6-.72h-.56v-.8h5.84v.8h-.16c-.6.1-1.15.39-1.6.8a695.5 695.5 0 0 0-4.72 13.04V38h-2.08l-3.84-10.8L83.75 38h-2.08l-4.64-12.96ZM63.68 40.8l.96-.8.32.8h-1.28Zm49.84-3.44c-.72-.16-1.12-.48-1.28-.88 0-.32 0-.64.24-.8.24-.32.56-.4 1.12-.4.8 0 1.36.4 1.6.8v.4c0 .4-.16.64-.56.8l-1.12.08ZM61.6 29.2v-.24c0-.32.04-.49.2-.57.24-.32.84-.15 1.08.17.08.16.16.32.08.56v.24l-1.36-.16Zm51.92-2.24 1.2.24-1.12.64-.08-.88ZM64.64 20l1.28.08-.4.8-.88-.88Zm45.44.08a.8.8 0 0 1-.56-.4 1 1 0 0 1 .24-1.12c.35-.38.8-.65 1.28-.8l.8.08c.4.24.56.72.4 1.12-.16.48-.88 1.04-1.6 1.2h-.56v-.08Zm-5.92-8.48c.35-.25.75-.3 1.14-.48l-.42 1.04-.72-.56ZM77.68 9.84l-.56-1.2.24-.08c.56-.24.96-.16 1.12.32.08.24.08.48 0 .64-.16.24-.64.4-.8.32Zm-.88-1.92-.32-.56.24-.16c.48-.16.72-.16.88.24.24.4.08.8-.4.96h-.16l-.24-.48Zm20.88-.32.48-1.36.16.08c.48.16.64.32.64.64 0 .4-.4.8-.8.8l-.48-.16ZM85.03 5.2l.56 1.12-.88.16.32-1.28ZM70.75 39.12l1.04-.16a2.4 2.4 0 0 0 1.36-1.2l4.08-9.6h.24l.24.64.24.8-1.84 4.64h3.76l.32 1.2h-4.56c-.5 1.23-.82 2.1-.96 2.64 0 .32 0 .4.24.56.24.24.8.4 1.52.48h.32v.96h-6.08v-.48l.08-.48Zm28 .48v-.48h.4c.8-.16 1.28-.32 1.44-.48l.08-.16-1.28-3.2h-4.8l.4-1.04h3.92l-1.92-4.96 1.44-3.68h.48l.56.08a526.8 526.8 0 0 1 4.96 12.24l.4.56.64.4.96.24h.16V40h-7.92v-.48l.08.08Zm173.28 20.72a29.36 29.36 0 0 1-17.36-9.52c-2.75-3.16-5.62-9.16-5.76-10.68-.12-.33-.25-.85-.43-1.57-.56-2.06-.9-4.18-1-6.32V31.2h.04v-.63a28.8 28.8 0 0 1 31.76-28 28.8 28.8 0 0 1 22.8 14.24 28 28 0 0 1 3.68 13.28v1.44h-.04v1.81a26.47 26.47 0 0 1-1.09 6.74c0 .18-.02.27-.15.3-.02.37-.12.88-.29 1.39a37.92 37.92 0 0 1-2.56 5.2 32.8 32.8 0 0 1-6.32 7.2 28.72 28.72 0 0 1-14.16 6.16c-3 .3-6.03.3-9.04 0h-.08Zm-13.92-20.88c.56 1.76 2.64 4.72 4.72 6.64 3.7 3.6 8.67 5.62 13.84 5.6 5.4.08 10.61-2.06 14.4-5.92 1.4-1.41 2.6-3.01 3.55-4.75l.54-1.34a19.44 19.44 0 0 0 1.6-7.04l.12-1.14v-1.01c-.12-2.75-.8-5.44-2-7.92a21.6 21.6 0 0 0-6-7.2 25.92 25.92 0 0 0-5.84-3.04 21.2 21.2 0 0 0-8.4-.88c-9.8.99-17.47 8.9-18.16 18.72l-.08 1.36h-.04v1.35c.13 1.88.89 4.2 1.44 6.04.1.1.22.3.31.53Zm20.32 17.92a2 2 0 0 0 .96-1.84c-.16-.56-.8-1.2-1.44-1.44-1.04-.24-2.4.64-2.4 1.76 0 .96.96 1.84 1.92 1.84.32 0 .8-.08 1.04-.24l-.08-.08Zm-3.68-.16c.64-.72.4-1.36-.8-1.92l-.48-.4c0-.24.4-.32.8-.16.24.16.8.08.8-.16s-.8-.64-1.28-.64c-.56 0-1.04.48-1.04 1.04 0 .32.8 1.12 1.12 1.12.24 0 .48.32.4.56s-.8.24-1.12 0c-.16-.32-.4-.32-.72-.16-.16.16-.16.24.08.48.64.72 1.6.8 2.24.24Zm8-.4c.88-.72.48-1.12-.48-.56-.48.24-.56.32-.96.08-.32-.16-.48-.32-.64-.8-.08-.4 0-.56.24-.88.32-.32.48-.4.96-.32 1.04.08 1.36-.48.4-.72a2 2 0 0 0-1.92.56c-.64.64-.64 1.6-.08 2.4.67.72 1.77.83 2.56.24h-.08Zm-11.2 0c.32-.16.48-.96.24-1.36a2.4 2.4 0 0 0-.64-.56c-.32-.24-.48-.4-.48-.56 0-.24.56-.24.8 0h.48c.64-.16-.24-.96-1.12-.96-.48 0-1.04.64-1.04 1.04 0 .08.32.56.72.88.64.64.72.8.56.88-.24.24-.96 0-1.12-.32-.16-.24-.8-.16-.8.08l.48.56c.48.48 1.36.64 1.92.32Zm13.36-.48-.48-1.68c-.48-1.44-.56-1.6-.8-1.6-.16 0-.32.02-.48.08l.56 1.76c.48 1.52.48 1.6.8 1.6l.4-.16ZM268.6 54.4c0-1.76 0-1.84-.32-2-.32 0-.56.16-1.6 1.28-1.2 1.2-1.36 1.36-1.04 1.44h.56c.56-.32 1.6.16 1.6.64 0 .16.08.4.24.4.48.24.56.16.56-1.76Zm17.6 1.44c.15-.12.24-.3.24-.48 0-.32.08-.4.64-.64.56-.16.8-.24.88-.08.24.16.96 0 .96-.16 0 0-.56-.64-1.36-1.28-1.2-1.2-1.36-1.28-1.68-1.12s-.4.24-.32.8l.08 1.84c0 .72.08 1.28.16 1.28l.32-.16h.08Zm4-2.16c.24-.16.08-.4-.48-1.36L289 51.2l.4-.32c.32-.24.4-.32.24-.48 0-.16-.24-.24-.24-.24l-2.24 1.28.16.32c.24.32.24.32.56.16.08-.16.32-.24.4-.24s.48.48.8 1.12c.72 1.12.88 1.28 1.2.88h-.08Zm-26.56-.8c.08-.16.16-.48.08-.64 0-.32 0-.4.24-.48.16 0 .4-.24.48-.48.24-.48-.08-.96-.96-1.52l-.56-.4-2.16 2.88.8.56c1.04.64 1.68.72 2.08.16v-.08Zm28.64-.48c.16-.24.08-.4-.8-1.6a8.8 8.8 0 0 0-1.2-1.36l-.32.16c-.24.24-.16.32.8 1.6.35.48.72.94 1.12 1.36l.4-.16Zm-32.24-1.76c-.56-.56-.64-.8-.32-1.04l.8.4c.4.48.48.48.72.24s.24-.24-.32-.8c-.48-.48-.48-.56-.32-.8.24-.08.32 0 .8.4.56.56.56.56.8.24.13-.13.19-.21.1-.38a.1.1 0 0 1-.03.05s-.16 0-.24-.16l-.16-.32.15.08-.3-.31a4 4 0 0 0-.96-.8l-1.28 1.36-1.2 1.28.96.8c.8.8.92.72 1.28.32l-.48-.56Zm34.56-.32c.48-.48.56-.64.56-1.28 0-1.92-2.48-2.48-3.44-.8-.4.8-.32 1.44.32 2.08.48.56.64.64 1.28.64s.8-.08 1.28-.64Zm-35.84-2.4 1.6-.72s0-.16-.24-.32c-.16-.16-.32-.16-1.12.16a4 4 0 0 1-.96.24l.56-.8c.56-.8.56-.8.4-1.04-.24-.24-.32-.24-1.2.08l-.43.14c.03.02.07.05.11.1.08 0 .08.07 0 .07L257 46c-.22 0-.24 0-.05-.19l-.11.04.56-.88c.56-.8.64-.96.48-1.12l-.32-.24c-.16 0-2.08 2.8-2.08 2.96l.16.32c.24.16.48.08 1.12-.16.31-.14.63-.25.96-.32l-.48.8c-.4.56-.56.8-.48 1.04 0 .16.16.32.24.32l1.76-.64Zm38.08 0c.08-.24 0-.32-.72-.8a4 4 0 0 1-.8-.72l1.36-.08c.96 0 1.36 0 1.52-.24.24-.32.08-.4-1.36-1.44-.96-.8-1.28-.8-1.44-.72-.32.32-.24.4.64 1.04l.8.64h-.48c-1.28 0-2.4.16-2.48.4-.16.24.08.48 1.2 1.28.47.35.95.67 1.44.96l.32-.32Zm.28-26.72c.24-.16.24-.24-.16-.8a5.28 5.28 0 0 1-.4-.8l1.36-.8 1.44-.96c.08-.16-.24-.8-.4-.8-.24 0-3.6 2.08-3.6 2.16.34.81.8 1.57 1.36 2.24l.32-.24h.08ZM257.36 20l-3.52-2-.32.4c-.24.32-.24.32.4.72l3.12 1.68.32-.8Zm1.12-1.44-2.08-1.68 3.32-.16.52-.56-1.44-1.12-1.6-1.28c-.16-.08-.32 0-.48.16l-.32.32 2 1.6h-1.6c-1.44 0-1.76.16-1.92.4-.24.24-.24.32-.08.48a71.8 71.8 0 0 0 3.12 2.4l.56-.56Zm37.68-2c1.04-2 1.04-2 .8-2.32-.32-.24-.4-.24-2.56.4l-2.16.8.32.4c.32.32.4.32.64.16.32-.08.4 0 .96.56.56.64.64.8.48 1.04-.16.32-.16.48 0 .72l.4.24 1.12-2Zm-33.92-2.16-2.08-2.56c0-.08.16-.32.4-.48l.4-.32-.64-.64-2.4 2.08c-.08.08.32.64.48.64a.7.7 0 0 0 .48-.32c.4-.32.4-.32 1.76 1.2.88 1.04.88 1.04 1.2.8l.4-.4Zm30.96-1.12 1.28-1.68-.32-.24c-.12-.13-.26-.24-.4-.32s-.48.48-.8 1.04l-.8.96v-1.6c0-1.28-.08-1.6-.32-1.84l-.32-.32c-.16 0-2.64 3.2-2.64 3.36s.4.48.56.48l.96-1.04.8-1.04v1.76c0 1.44 0 1.76.32 1.92l.32.24 1.36-1.68ZM266 11.84s0-.24-.16-.4l-.24-.32-1.6.96-.32-.32c-.24-.32-.24-.4.56-.88s.8-.48.56-.8l-.32-.4-.72.48c-.56.32-.8.4-.88.32-.32-.32-.24-.56.56-1.04s.8-.56.48-.96c-.16-.24-.24-.24-1.28.4l-1.2.8c-.16.24 2 3.6 2.16 3.6l2.4-1.44Zm22.16-.4a2.53 2.53 0 0 0 1.28-2c0-1.04-.64-1.84-1.84-2.24-.48-.16-.64-.16-1.2.08-2 .8-2.08 3.2-.16 4.16.56.32 1.2.32 1.92 0Zm-20.64-.24-.16-.56c-.32-.8-.32-.8 0-.88.24-.08.56 0 .96.32.64.56.8.56 1.28.24l.4-.16-.8-.48c-.48-.4-.72-.64-.64-.8.4-.8.16-1.6-.64-2-.56-.24-.8-.24-2 .4l-.8.32 1.44 3.6c.16.32.16.4.56.24l.4-.24Zm16-.96.56-2.08c.22-.66.41-1.32.56-2l-.48-.08-.48-.16-.56 2a49 49 0 0 0-.56 2.08c0 .16.96.32.96.24Zm-12.24-.64-.24-1.28a5.73 5.73 0 0 1-.16-.96l1.36 1.04c1.04.88 1.28 1.04 1.6 1.04.4-.08.4-.16.32-.56l-.72-3.6h-.48c-.4-.08-.48 0-.4.16.08.48.4 2.16.32 2.24l-1.28-.96c-.96-.88-1.28-1.04-1.6-.96l-.32.16.8 4c0 .08.24.16.48 0 .24 0 .32-.08.32-.32Zm9.76-.96.24-1.6.16-.8.56.08c.48.08.56 0 .64-.24V5.6a23.68 23.68 0 0 0-3.12-.48l-.16.4c0 .4 0 .4.56.48.48.08.56.16.48.48l-.16 1.28-.24 1.36c-.08.32 0 .4.16.48.64.16.8 0 .88-.96Zm-2 .56-.8-2.16c-.64-1.6-.8-2-1.12-2.08-.48-.08-.64.08-1.04 1.12l-.8 2-.56 1.12h.56c.32 0 .48 0 .56-.24.16-.4.24-.4 1.2-.4.72.08.8.16.96.48.08.24.24.32.56.32.24 0 .48 0 .48-.16Zm15.23 6.55.64-.24c1.04-.4 1.04-.4.56.48l-.4.56-.8-.8Zm-7.92-5.04c-.48-.32-.8-1.12-.48-1.68.24-.56 1.04-.96 1.6-.8 1.04.4 1.28 1.6.48 2.24-.56.48-.96.56-1.6.24ZM266.51 8.8c-.24-.64-.24-.8.32-.96.4-.16.48-.16.8.08.32.32.24.64-.24.96-.64.32-.64.32-.88-.08Zm10.08-1.6.32-.8.24.64.32.64c0 .08-.24.16-.56.16h-.64l.32-.72v.08Zm-13.2 14.64h3.12l.11 18.65h-3.2l-.03-18.65Zm-.48 29.44c-.22-.07-.17-.28.02-.31v-.24c.16-.24.24-.24.48-.16.4.24.4.8-.08.8a.61.61 0 0 1-.35-.09h-.07Zm4.83-29.43c0-.1 1.12-.16 3.36-.16l1.14 6.84c.24 1.04 1.7-7.54 1.97-8.85.14-1.13 2.32 9.13 2.32 8.73.39-2.2.84-4.39 1.36-6.56 0-.08 3.12-.08 3.12 0a813.5 813.5 0 0 1-4.48 21.6l-2.08-9.28c-.06-.06-1.5 6.35-2.25 9.51l-4.46-21.83Zm17.7 15.26c-.07.1-.14 1.27-.19 3.54l-2.88-.08v-3.52h-1.6a45.13 45.13 0 0 1-1.84-2.88l3.44-.08v-5.12c0-4.64 0-5.2.24-5.68.56-1.2 1.6-1.84 3.2-2 1.36-.08 2.88.4 3.52 1.12.8.8.8 1.28.72 10.08v8l-3.12.08c0-2.33-.08-3.53-.25-3.58l-1.24.12Zm-8.59 19.7c-.64-.56-.56-1.52.24-1.92.4-.16.48-.16.8 0 .64.32.8.8.64 1.36-.24.64-1.12.96-1.6.56h-.08Zm-9.6-2.24c-.24-.16 0-.56.32-.88.24-.16.24-.08.24.4 0 .64-.08.8-.56.48Zm19.12-.88c-.08-.64.08-.56.48-.08.4.4.4.4 0 .64-.32.16-.4.16-.48-.4v-.16Zm-24.24-1.28c-.16-.24-.16-.32 0-.56 0-.16.24-.24.32-.24.24 0 .72.56.56.8-.08.32-.56.32-.8 0h-.08Zm30.4-2.48c-.48-.64-.4-1.28.32-1.68.48-.24 1.12-.16 1.36.32.8 1.12-.8 2.4-1.6 1.36h-.08Zm-5.6-20.72c0-4.48 0-4.64-.24-4.8-.4-.32-1.12-.24-1.2.08l-.08 9.44h1.44l.08-4.72Z"/></svg>