<svg xmlns="http://www.w3.org/2000/svg" viewBox="0 0 400 75" shape-rendering="geometricPrecision" text-rendering="geometricPrecision"><path d="M0 30.24V0h43v60.48H0V30.24Z"/><path d="M2.78 3.3h34.26v33.93H3.11"/><path d="m22.2 59.91-19.5-.07-.4-.47c-.27-.3-.43-.68-.44-1.07v-.64H41q1.55 2.28 1.01 2.28l-19.8-.07ZM9.25 35.35l.74-1.61.6-1.28 1.15 1.14c1.14 1.11 1.17 1.18 1 1.62-.2.4-.23.43-1.95.43-1.57 0-1.68 0-1.54-.3Z" fill="#8c7a62"/><path d="M6.76 35.18v-.44c.06-.33.13-.54.24-.94.06-.6.37-1.24 1.04-3.49.56-1.25.3-1.14 1.08 0 .9 1.19 1.03.97.73 2.11-1.24 2.76 0 0-1.24 2.8 0 .13-.27.2-1.01.2-.6 0-.84-.1-.84-.24Zm6.32.07c.17-.5 0-.5.54-.27 2.14.76 2.3.58.1.52-.68 0-.65 0-.65-.25Zm1-.5c-.07-.04-.45-.26-.43-.54.59-1.52 1.92-3.51 4.03-6.56l1.58 1.41 2.01 1.85c.58.37.58.37.24.88q-.2.23-1.41 2.22c-.16.26-.44.67-.57.97l-.24.4h-2.01a8.96 8.96 0 0 1-3.2-.64Zm6.05.56c-.1-.1 1.65-2.88 1.92-3.29.3-.55.01-.53.87 0l2.05 1.1c.84.45 1.54.82 1.58.89.03.03-.07.37-.24.73l-.3.68h-2.88c-1 .01-2-.02-3-.1Zm6.62.07a4 4 0 0 1 .6-1.14l.34.17 1.11.5c.44.2.8.37.8.44-.95.12-1.9.13-2.85.03Zm1.41-1.37c-.54-.24-.57-.3-.47-.75.51-.89 1-1.8 1.44-2.72 1.01-1.95 1.01-2.35 1.45-2.15.04.14 2.86 1.04 3.03 1.11.13.1.4.2.56.27s.28.17.2.27-.26.8-.5 1.65c-1.1 3.83-1.07 3.73-1.48 3.7m1.08-.2c0-.25.2-.85 1.28-3.91l.4-1.2.5.2.51.16v4.98h-1.34c-1.08 0-1.35-.04-1.35-.24Zm-22.37-2.9-.44-.5.4-.91a28.93 28.93 0 0 1 4.33-6.75c-.16.5 1.8 2.92 1.88 3.19.04.13-.2.2-.52.7-1.23 1.53-2.03 3.1-3 4.8-.3.52-.65 1.15-.74 1.19s-.44-.38-.8-.67Zm15.24.84-2.08-1.18c-1.52-.9-1.52-.9-1.3-1.34q.13-.23 3.26-4.3l.67.4c.33.24 1.1.67 1.68.95s1 .56 1 .64l-.4.87-1.67 3.22c-.41.9-.58 1.01-1.19.7ZM6.76 31.78q.24-.72.77-3.9.5.88.65 1.02c.14.07-.41 1-.65 1.81l-.54 1.85c-.2.7-.33.6-.24-.78Zm3.53-.72c0-.21-1.68-1.66-1.38-2.67-.03-.01 5.3-7.88 5.41-7.86-.06.4-.03.48.03.78.12.6.41 1.11.57 1.57.2.48.24.48 0 .91-.43.8-.94 1.18-1.44 2.02-.57.6-1.98 3.09-3.2 5.25Zm10.92-1.22a46.98 46.98 0 0 1-3.12-2.69c0-.17 3.36-3.63 3.69-3.9l.47-.5.97.94 1.2 1.11c.15.1.52.37.79.64l.56.43-.63.75a31.02 31.02 0 0 0-2.92 3.92c-.08 0-.5-.33-1.01-.7Zm14.31-.3c-.2-.1-.34-.2 0-.64.16-.3.24-.68.34-.88.13-.8.33-.5.27.5-.07 1.05-.21 1.32-.61 1.02Zm-2.72-.78c-1.48-.54-2.02-.87-2.02-1.34 0-.13 2.7-4.6 3.1-5.17.26-.34.26-.34 1.27.13l1.01.5-.07 1.68a10.1 10.1 0 0 1-1.61 4.78l-1.68-.58Zm-4.37-1.94c-1.44-.78-1.68-.95-1.68-1.21 0-.1.34-.61.8-1.08l1.28-1.51c1.21-1.48 2.12-2.48 2.52-2.48.44 0 1.71 1.1 1.85 1.1.4 0 .34.37-.24 1.14a63.8 63.8 0 0 0-2.32 3.9c-.13.37-.56.84-.77.84-.1 0-.77-.34-1.44-.67Zm-10.96-.4a12.3 12.3 0 0 1-1.68-2.76 22.06 22.06 0 0 1 3.74-3.76c.87-.92.8-1.18 1.57.73l.75 1.21c.23.27.16.4-1.12 1.68A16 16 0 0 0 19.36 25c-.42.63-.93 1.2-1.52 1.68-.06 0-.23-.14-.36-.27Zm-9.47 0c.25-.56.91-2.76 1.12-3.16.67-.99 2.72-3.55 3.49-4.44l1.04-1.15c.34-.35.43-.1.43-.1.1.12.02.03.07.48-.08.96.37 1-1.08 3.09-.7.88-3.87 6.33-4.46 6.75-.14 0-1.08-.74-.61-1.48Zm14.92-4q-.34.06 5.38-4.48l2.48 2.16q-4 4.7-4.56 5.34Zm-7.56.3c-.3-.54-.7-2.12-.7-2.7 0-.4.16-.7.73-1.3.44-.44 3.33-2.7 3.5-2.8s.3-.26.37-.26c.16 0 .74 2.18.88 2.45.2.61.36.37-.44 1.01l-1.76 1.48c-.56.47-1.3 1.31-1.8 1.82-.58.56-.64.6-.78.3Zm19.96-.85-.8-.33a8.22 8.22 0 0 1 1.7-2.28c.08.97 0 1.77 0 2.78l-.9-.16ZM20.7 18.9c.7-.4 2.36-1.52 3.96-2.29l2.12-1c.48.6.9 1.27 1.15 1.98-.24.24-4.88 3.92-5.01 4.06-.7.5-.67 0-1.12-.64ZM9.65 22c.06-.1.26-.78.5-1.21s1.17-1.76 1.46-2.08c.3-.26.49-.7.77-1.04s.68-.88 1.1-1.42c.24-.24.63-.7.84-.88 0 .19.02.5 0 .61-.04.54-.18.61-.58 1.15-.52.61-1.08 1.2-1.54 1.75-.72.7-1.68 2.04-2.58 3.15Zm23.76-.98c-.14-.03-1.95-.87-1.79-.93.14-.08 1.15-1.01 2.22-2.05s1.92-1.79 2.02-1.79.3.17.3.64c0 .84-.17 1.84-.6 2.22-.14.1-.58.6-.74.78s-.88 1.28-1.01 1.24l-.37-.1Zm-2.46-1.6c-.67-.34-2.16-1.79-1.95-1.96a38.74 38.74 0 0 1 4.8-3.02c.4-.01.58.1 1.02.44.33.37.43.67.36.87a46.45 46.45 0 0 1-3.7 3.83l-.53-.2ZM14.7 16.4l1.14-1.14a10.3 10.3 0 0 1 1.84-1.55c.24-.2.68-.57 1.04-.77l.64-.4V13c.04 1.07-.02 2.01-.16 2.05q-4.03 3.35-4.24 3.48c-.33.27-.4.21-.33-.96Zm5-1a22.96 22.96 0 0 1 4.8-2.63c1.59-.47 1.69-.74 1.73.37 0 .33.12.54.12 1.1 0 .71.55.91-.93 1.35a111 111 0 0 0-4.44 2.52c-.27.27-.3.03-.47-.44Zm8.91 1.7c-.14-.03-1.18-1.48-1.25-1.5-.1-.07 4.47-1.72 4.78-1.89.3-.1.6-.17.9-.2.54-.3.58.21.58.47-.81.37-1.44.96-2.35 1.41-.17.1-2.36 1.82-2.66 1.71Zm-13.94-1.74c0-.54.13-.78 1.2-1.85 1.15-1.11 3.26-2.96 3.44-2.96 0 0 .06.37.06.8 0 .68-.07.85-.37 1.02a19.6 19.6 0 0 0-2.76 2.18l-1.2 1.1-.37.34v-.64Zm5.04-1.85V12.3l1.37-.7A23.62 23.62 0 0 1 24 10.31c.49-.18.45-.14.44-.14.79-.22 1.2-.33 1.35-.33.44-.14.36-.04.3.97 0 .54-.1 1.04-.14 1.1-.04.06-.47.18-.97.34-.9.26-1.8.59-2.62 1.04-.84.34-1.61.88-2.01 1.08l-.68.34v-1.2Zm7.12.67c-.27-1.64-.2-.77-.34-1.92 2.12-.33 6.32-1.2 6.32-1.1.03.37.16 1.6.24 1.68.13.13-1.15.4-1.78.57a8.7 8.7 0 0 0-1.65.57c-.34.16-1.59.57-1.68.74-1.18.64-.81.14-1.11-.54Zm7.56-.48c-.2-.19-.3-.4-.3-.4-.34-.1.47-.06 1.34-.16l.74-.04-.07.4c-.08.3-.16.82-.24 1.04-.07.6-.13.59-.77-.1Zm-.77-1.1c-.1-.24-.1-.2-.1-.84 0-.74.03-.87.33-.87l1.34-.1 1.01-.1v1.84l-2.58.08m-13.93-1.49c0-.4.1-.84.24-.94 1.7-.98 3.43-1.89 5.2-2.72.78-.33 1.62-.7 1.69-.6.07.03-.24 1-.34 1.48-.1.97-.06.93-2.48 1.68l-1.95.76-2.22 1.12c-.07 0-.13-.34-.13-.78Zm6.72-.37.14-1.04.4-.24c1.75-.3 3.48-.64 5.2-1l.64-.1V9.4c0 1.11 0 1.11-.5 1.17l-2 .37c-.97.15-1.9.34-2.83.58l-.78.2c-.26.1-.26.1-.26-.98Zm6.76-2.41 1.31-.17 1.38-.2c.27-.07.3.06.3 1.1v1.11h-.94c-.5.14-1.78.24-2.02.34m-6.28-1.78c0-.24.1-.8.27-1.28.3-.94.13-.88 2.48-1.44l1.21-.34c.3-.1 2.35-.3 2.46-.4.16-.27.13 0-.17 1.4-.17.68-.4 1.29-.5 1.29s-4.53.83-4.98.97l-.77.24v-.44ZM33.4 7.5c0-.28.27-.68.34-1.25l.17-1.1c.07 0 .57-.11 1.17-.14l1.08-.07V7.5h-.6c-.34 0-2.49.5-2.16 0Z" fill="#978369"/><path d="M41.26 59c-.5-.64-.8-.84-1.14-.84h-.47V2.25l.8-.77c.6-.6.94-.78 1.35-.78h.54v29.57c0 23.55-.04 29.57-.2 29.57-.1 0-.54-.37-.88-.84Z" fill="#c0a385"/><path d="M1.28 58.4c-.04-.17-.1-12.94-.1-28.4V1.89H21c10.92 0 19.82.03 19.82.13 0 .07-.16.24-.33.4-.34.3-.34.44-.3 28.03l.03 27.72H21.14c-16.97 0-19.12.03-18.92.27s.13.24-.3.24c-.3 0-.54-.1-.6-.27ZM37.3 20.2V3.72H7.86l-1.7 1.79-1.8 1.7v29.44H37.3V20.18Z" fill="#e9c29b"/><text dx="0" dy="0" font-family="&quot;Arial&quot;" font-size="6" font-weight="700" transform="matrix(.97249 0 0 1.11138 6.38 43.11)" stroke-width="0"><tspan y="0"><![CDATA[THE HTML]]></tspan><tspan x="0" y="6"><![CDATA[ WRITERS ]]></tspan><tspan x="0" y="12"><![CDATA[     GUILD]]></tspan></text><path d="M.67 30.27V.7h41.56l-.84.84-.8.84H1.68v55.44l.98 1.01.9 1.01H.67V30.27Z" fill="#f6e6b4"/><path d="M5.32 21.58V7.63h3.02V4.61h12.7c13 0 14.69.1 10.48.6-.43.03-2.72.57-3.6.91l-1.1.34-.94.33c-2.78 1.1-5.4 2.18-7.8 4.33-1.51 1.35-2.87 2.22-4.8 4.64-.87 1-1.11 1.6-1.35 1.92l-.31.43s-.42.56-.55.78a17.43 17.43 0 0 0-1.99 3.52c-.18.4-.64 1.07-.74 1.38A28.88 28.88 0 0 0 6.36 34v1.54h-1V21.58Z" fill="#f6e6b4"/><path d="M5.71 7.02c0-.07.44-.53.95-1s.93-.95 1-.95.07.48.07 1.01v1H6.72c-.54 0-1-.02-1-.09Z" fill="#f6e6b4"/><path d="m163.95 12.48 7.36 25.04 7.36-25.04h5.28L171.8 53.6h-.48l-7.6-25.6-7.6 25.6h-.48l-12.16-41.12h5.36l7.28 25.04 4.96-16.8-2.4-8.24h5.28Z" fill="#e1e1e1"/><path d="M199.07 40.4c0 3.68-.96 6.8-2.96 9.36a9.28 9.28 0 0 1-7.68 3.84 9.2 9.2 0 0 1-6.16-2.32 13.28 13.28 0 0 1-3.92-6.08l4.16-1.76a9.44 9.44 0 0 0 2.4 3.68 5.12 5.12 0 0 0 3.52 1.36c1.44 0 2.64-.8 3.6-2.4 1-1.72 1.5-3.69 1.44-5.68 0-2.48-.48-4.4-1.6-5.76-1.12-1.6-3.04-2.4-5.6-2.4h-2.08v-2.4l7.12-12.24h-8.64l-2.4 4h-1.6v-9.12h20v2.48L191.07 28a10.4 10.4 0 0 1 6 4.64 14.88 14.88 0 0 1 2 7.84Zm20.64-28.16.8 5.28-3.04 5.84s-1.12-2.48-3.12-3.84c-1.6-1.2-2.72-1.44-4.32-1.12-2.16.48-4.64 3.04-5.6 6.24-1.36 3.76-1.36 5.6-1.36 7.2-.08 2.8.32 4.4.32 4.4s-1.84-3.44-1.84-8.48c0-3.6.56-6.88 2.24-10.08 1.44-2.8 3.6-4.48 5.6-4.72a6.4 6.4 0 0 1 4.72 1.84 15.2 15.2 0 0 1 2.56 3.44l3.04-6Zm.32 29.68s-1.36 2.4-2.16 3.36-2.4 2.56-4.16 3.36a7.76 7.76 0 0 1-4.72.8 9.12 9.12 0 0 1-4.08-1.6 16 16 0 0 1-3.04-3.04l-2.16-3.6s.72 2.4 1.2 3.44c.24.56 1.12 2.4 2.24 4 1.12 1.52 3.2 4 6.48 4.64a8.15 8.15 0 0 0 6.08-1.28c.87-.61 1.67-1.31 2.4-2.08a18.2 18.2 0 0 0 1.92-2.56l.8-1.36-.8-4Z" fill="#e1e1e1"/><path d="M87 60.56A28.96 28.96 0 0 1 59.7 30 28.96 28.96 0 0 1 90.27 2.64a28.96 28.96 0 0 1 27.36 30.56 28.96 28.96 0 0 1-30.56 27.36Zm.07-1.6.64-.4c.48-.56.56-1.6.16-2.16-.17-.2-.4-.33-.64-.4h-.4c-.8-.08-1.44.4-1.44 1.36-.08.64.16 1.2.64 1.44.24.16.72.16 1.04.16Zm3.44 0a1.6 1.6 0 0 0 1.04-1.44c0-1.04-.72-1.68-1.6-1.6-.48.08-.8.32-1.04.8-.32.56-.16 1.52.32 1.92l.48.32h.8Zm-6-.56v-.24l-.88-.16-.96-.24.8-.24c.8-.16 1.04-.32 1.2-.56 0-.16.08-.48 0-.64 0-.48-.64-.8-1.28-.8-.48 0-.8.16-.88.48v.4c.16.16.32.16.48 0l.08-.24c0-.32 0-.4.4-.4.1-.03.22-.03.32 0 .24.16.32.24.32.56a.8.8 0 0 1 0 .48c-.24.24-.32.32-.88.48l-1.04.48-.16.24v.16h.08l1.2.24 1.12.24.08-.24Zm9.04.16c.48-.08.8-.4.96-.8.16-.32 0-.72-.16-.96-.16-.16-.32-.24-.64-.24h-.24l.16-.16c.32-.16.48-.4.48-.8a.8.8 0 0 0-.56-.8 1.6 1.6 0 0 0-1.04.16c-.24.08-.48.32-.56.48-.16.32 0 .8.32.72.24-.08.32-.32.16-.56v-.24s.24-.24.4-.24c.4-.08.64.08.64.56.08.48 0 .8-.56.8l-.16.08v.16l.08.08h.56c.24 0 .4 0 .48.32.08.16.16.56.08.72a.8.8 0 0 1-.32.4.95.95 0 0 1-.8.08v-.24c0-.24 0-.24-.16-.32l-.24-.08c-.24 0-.32.24-.16.56 0 .08.16.24.4.32h.8Zm-3.68-5.28a21.6 21.6 0 0 0 19.44-14.8 21.76 21.76 0 0 0-36-22.24 21.6 21.6 0 0 0 0 30.64 21.6 21.6 0 0 0 16.56 6.4Zm-18.16-.96.32-.32.4.32.4.24-.16-.48c-.16-.4-.16-.4-.08-.48l.4-.24.32-.24h-1.04l-.16-.48-.16-.4-.16.4-.16.48h-.88l.16.16.56.4c-.07.27-.15.54-.24.8l.4-.16Zm33.84 0 .32-.32.4.32.4.24-.16-.48c-.16-.4-.16-.4 0-.48l.32-.24.32-.24h-.96l-.16-.48-.16-.4-.16.4-.08.48h-.96l.24.16.48.4-.16.4-.08.48.4-.24Zm8.32-10.56.16-.64v-.08h-.16l-.32.4h-.24l-1.76-.64 1.44-.48 1.44-.4.4-.96h-.16l-.16.16c-.24.24-.24.24-1.36-.16a28 28 0 0 1-1.04-.4c-.24 0-.24-.16-.24-.4v-.24h-.16l-.48 1.28h.08l.24-.08.16-.24h.4l1.76.64-2.96.96c-.16 0-.16.08-.24.16v.08l1.28.48 1.36.48c.24.16.24.24.24.48l.08.24.32-.64Zm-47.36-.32-.24-.64-.24-.56c-.16 0-.16 0-.08.24 0 .32 0 .32-.56.32h-.32l-.16-.48-.24-.56.72-.56.16.16c0 .16.08.16.16.16h.08c-.18-.7-.4-1.4-.64-2.08l-.08-.64h-.16v.24l-.16.32a.8.8 0 0 1-.32.16l-2.16.4 1.28-.8 1.36-.88-1.6-.32c-.48-.1-.96-.2-1.44-.32l2.4-.48c.16 0 .24.08.32.32 0 .16 0 .16.16.16v-.08l-.24-1.44c-.16 0-.16 0-.16.24v.24c-.87.2-1.75.35-2.64.48-.16 0-.16 0-.24-.24 0-.08-.08-.16-.24-.08l.16.88v.16h.16l2.4.48-.16.16-1.92 1.2.08.64.08.56h.16v-.24c0-.16.16-.24.24-.32l2.4-.48.32.24v.16l.08.16c0 .24 0 .32-1.28 1.44l-1.2 1.12c0 .08 0 .16.16.16h1.6c1.6 0 1.6 0 1.84.32l.16.08Zm47.76-3.52c.42-.13.76-.41.96-.8.16-.32.24-.8.08-1.2-.32-1.2-2.16-1.6-3.04-.72a1.6 1.6 0 0 0 .56 2.56 2 2 0 0 0 1.44.16Zm1.36-3.76v-.8l.08-.56c-.16 0-.16 0-.24.16l-.08.24h-1.36c-1.6-.16-1.44-.16-1.44-.48l-.08-.16h-.08l-.08.56v.8l-.08.16h.08c.16 0 .16 0 .16-.16l.16-.32 1.36.08c1.44.08 1.36.08 1.36.4 0 .16 0 .24.16.24l.08-.16ZM61.4 33.6a.64.64 0 0 1 .08-.24l1.76-.08c1.04 0 1.04 0 1.04.16 0 .24.08.24.16.24h.08v-2.8h-1.04c0 .16 0 .16.24.24.32.16.48.32.48.48.05.32.05.64 0 .96 0 .08-.08.16-.72.16h-.56v-.64c0-.08.24-.24.4-.24.08 0 .16 0 .16-.16v-.08h-.4a12 12 0 0 1-.64 0h-.32v.16l.16.08c.32.08.4.24.4.72v.16H61.4v-.32c0-.56 0-.64.16-.8l.24-.16.16-.16c0-.16 0-.16-.48-.16h-.4l.08 2.64h.08c.16 0 .16 0 .16-.16Zm54.4-1.44-.08-2.64v-.24h-.96v.08c0 .08 0 .16.24.16l.48.4v.56h-2.72c-.08 0-.16-.08-.16-.32 0-.16 0-.16-.16-.16h-.08v1.6h.24v-.16c0-.24.08-.32.24-.32l2.4-.08h.32v.56l-.56.4c-.08 0-.16 0-.16.16h.96Zm-51.28-1.68.08-1.28v-.16h-.16l-.16.4h-.56c-.64-.08-.64 0-.64-.24v-.16l1.2-.64.48-.24v-.96l-.16.08a.56.56 0 0 1-.24.32l-1.2.8H63v-.16a1.44 1.44 0 0 0-.24-.48.88.88 0 0 0-.64-.24l-.32.08c-.24.16-.32.32-.4.56s-.32 1.84-.24 1.92h.08l.16-.16c0-.16.08-.24.24-.24l2.56.32.08.32h.24Zm48-1.04v-.16l.16-.24 1.44-.88 1.36-.8v-.24l-.88-.24c-2.48-.48-2.4-.48-2.56-.8 0-.08-.08-.08-.16 0v.56l.16.64h.16v-.24c0-.24 0-.24.24-.24h.64l.24 1.2-.8.4-.16-.24-.08-.16c-.08 0-.16 0-.08.08.05.46.13.91.24 1.36h.08ZM65.15 26.4c.16-.56.16-.72.08-.8l-.16.08c0 .24-.16.32-.16.32a20.8 20.8 0 0 1-2.64-.56l-.08-.24v-.24h-.16l-.16.72-.16.8h.08l.16-.16c.16-.32 0-.32 1.44 0l1.36.24v.4l.08.16H65l.16-.72Zm46.8-.48v-.16c0-.24 0-.32.16-.4.82-.25 1.65-.46 2.48-.64l.16.16c.16.24.16.24.24.16l-.32-1.44h-.08l-.16.24v.24l-2.56.8-.24-.32c0-.16 0-.16-.16-.16l.08.72.24.72c0 .08 0 .08.16 0ZM65 24.8c.32-.08.72-.4.8-.8.32-.56.24-1.12-.16-1.6l-.16-.16-.16.16.16.16c.24.24.24.4.24.8v.32c-.24.48-.8.72-1.36.56a2.4 2.4 0 0 1-1.28-.64c-.4-.4-.32-1.04.16-1.28.23-.1.47-.16.72-.16h.16c.08-.16.08-.16 0-.16l-1.04-.4v.32l-.08.16a1.6 1.6 0 0 0 0 2.16c.56.56 1.28.8 1.92.56Zm47.2-1.04-.16-.08c-.4-.08-.56-.16-.8-.4-.48-.72 0-1.6 1.12-1.92h1.04c.48.24.64.72.48 1.12l-.56.56c-.08 0-.08.08 0 .16v.08l.56-.24.56-.24-.16-.16-.08-.24a1.6 1.6 0 0 0-.96-1.6h-.8c-.56 0-.96.24-1.28.56s-.48.64-.48 1.12c0 .24 0 .4.16.64.24.48.64.8 1.2.8.16 0 .16 0 .16-.16ZM66.6 22l.24-.56h-.08c-.08-.08-.08-.08-.16 0-.16.24-.24.32-.32.24l-.56-.56.24-.48.24-.48h.4c.48 0 .48 0 .48.16v.24l-.08.08h.08l.08.08.32-.64.72-1.2.4-.56h-.32l-.24.24-.48-.16-1.52-1.04 1.6-.08h1.76v-.16a.32.32 0 0 0 .16-.08l-1.12-.8c-1.12-.8-1.36-.96-1.36-1.12v-.4l-.48.48-.32.56v.08h.24c.32-.32.32-.32 1.52.48l.56.4-3.12.16-.24.4-.24.32v.08h.24c.08-.16.32-.24.4-.24.16 0 .24.08 1.04.64l1.04.8v.32c-.08.24-.24.48-.48.48a63.12 63.12 0 0 1-3.2-.24l-.08.16.8.96c1.44 1.52 1.44 1.52 1.36 1.84v.16h.08l.32-.48Zm44.64-1.44c.64-.24 1.12-.8 1.28-1.28a1.6 1.6 0 0 0-1.04-1.92h-.88c-.4 0-.8.32-1.12.64a1.6 1.6 0 0 0 .8 2.56h.96Zm-2.4-2.88c.24-.08.56-.4.56-.56v-.96c-.24-.56-.24-.8 0-.96.08-.16.16-.24.32-.24.32 0 .56.32.56.64 0 .24 0 .4-.24.64l-.16.24h.08l.08.16.4-.32.48-.4v-.08c-.08 0-.16-.08-.16 0l-.16-.16c0-.4-.08-.48-.32-.72l-.32-.24h-.8a1.2 1.2 0 0 0-.48.56l.08.96.16.48c0 .24-.16.4-.24.56-.24.16-.48.16-.8 0-.32-.4-.32-.8 0-1.36.08-.16.08-.24 0-.32l-.48.32-.4.4c.08.08.08.16.16.08l.16.24c.16.48.48.8.8 1.04h.8Zm-1.76-2.24c.16 0 .48-.32.56-.48v-.32c0-.24 0-.32-.32-1.04-.16-.4-.08-.64.16-.8 0-.08.08-.16.32-.16.16 0 .24.08.4.24.24.24.16.56 0 1.04l-.16.24.16.16.4-.4.4-.4v-.08l-.24-.08-.08-.08c0-.24-.24-.48-.4-.64a.96.96 0 0 0-.72-.32.8.8 0 0 0-.64.32c-.16.16-.24.32-.24.64l.24.72c.16.48.16.64.08.8 0 .16-.24.4-.32.4-.24.08-.4 0-.64-.16-.16-.24-.24-.32-.24-.64 0-.24 0-.32.16-.56l.16-.24-.08-.08h-.08l-.48.32-.4.4.08.08.16.08.16.16c.08.24.24.48.48.64.32.32.8.4 1.12.24Zm-35.84-2-.56-1.28 2.24 1.28.16-.16q-1.09-2.4-1.28-2.88v-.24c.16-.16.16-.16.08-.24h-.24l-.4.48-.32.24v.08l.16.08.08-.08c.24-.16.32-.16.48 0l.88 1.84L71.4 12l-1.12-.64h-.08l-.16.16.48 1.04.56 1.2-.56-.24-.8-.56-.48-.24v-.16l.16-.24v-.08l-.08-.08-.16.16-.48.48-.4.32h.24a.4.4 0 0 1 .4 0l2.64 1.6.16-.16-.48-1.12Zm33.84.64v-.16a.64.64 0 0 1-.08-.24l.56-2 .32-1.04v-.24h-.08l-.48.24-.8.48a16 16 0 0 1-1.6.8h-.32c-.08-.08-.16-.08-.16 0h-.08l.96.8h.08v-.24l-.24-.32.32-.16c.4-.32.32-.32.8 0l.48.4-.32.8h-.24l-.16-.08v.24l.48.4.48.4.08-.08Zm-29.6-2.48 1.12-.8-.48-.88c-.08.08-.16.08-.08.32v.64c-.24.24-.8.64-.96.64l-.48-.64-.32-.48c.56-.4.64-.4.96-.08h.16l-.72-1.12h-.16v.24c.16.32.08.4-.32.64l-.16.16-.32-.56-.32-.48.64-.48a.56.56 0 0 1 .24-.08l.48.16H75c-.1-.26-.23-.5-.4-.72a36 36 0 0 0-2.16 1.6h.24c.16-.16.24-.16.32 0a45 45 0 0 1 1.44 2.16l-.16.16c-.16.16-.16.16-.08.24l.08.13m27.04-1.57c.32-.16.56-.48.56-.8s-.08-.48-.32-.8c-.56-.64-.56-.72-.56-.88l.24-.48c.32-.16.8 0 .88.4v.96c.16 0 .16 0 .48-.56l.24-.4h-.16c0-.08 0-.08-.16 0-.4-.56-.72-.8-1.12-.8s-.72.24-.8.56a.8.8 0 0 0-.16.4c0 .32.16.48.48.96.32.4.4.48.4.72s-.24.48-.4.56a.72.72 0 0 1-.8-.48c-.16-.16-.16-.16-.16-.48v-.56a.4.4 0 0 0-.08 0l-.24.4-.24.48-.08.16h.24l.16.08c.24.32.64.56.96.64h.64Zm-23.52-.56 1.04-.64c.4-.48.4-1.12-.08-1.36a.8.8 0 0 0-.4-.08h-.48l.08-.08c.24-.24.24-.4.24-.64 0-.4-.24-.72-.72-.72-.24 0-.32 0-1.2.48l-.8.32.16.24q0 .08.4-.08l1.2 2.4-.24.32c-.08 0-.08 0 0 .08v.08l.8-.32Zm21.36-.4-.32-.32-.4-1.6h.24c.4 0 .64-.08.8-.4l.08-.32a.97.97 0 0 0-.4-.8l-1.76-.72a.32.32 0 0 0 0 .16l.24.32c-.3.84-.65 1.67-1.04 2.48h-.4v.16l1.28.56s.08-.16 0-.16l-.08-.16c-.16 0-.16-.08-.16-.16l.16-.56.24-.56h.08l.24.32.24 1.2.16.4.4.16.4.16c.08-.16.08-.16 0-.16Zm-18.8-.8.64-.16V8.8l-.24-.08c-.24 0-.32-.08-.4-.24l-.72-2.24.96 1.2.96 1.2.24-1.6.08-1.44.32 1.2c.4 1.36.4 1.28.16 1.44h-.24l.08.24 1.44-.4V8c0-.16 0-.16-.24-.08-.24 0-.32 0-.4-.24l-.64-2.4.24-.16c.08-.08.16-.08.08-.16V4.8l-.56.08-.48.16v.16l-.24 2.4-.8-.96c-.25-.36-.52-.7-.8-1.04l-1.12.32V6l.24.08c.24 0 .32 0 .4.16l.64 2.24c0 .24 0 .32-.24.4l-.16.08.08.16.64-.16Zm15.52-.8.16-.48-.32.16c-.24.24-.4.4-.56.4l-.88-.24c-.16-.08-.16-.16 0-.8l.16-.56h.4c.24.16.32.24.32.48l.08.24h.08c.15-.42.25-.84.32-1.28l-.24.08c0 .16-.16.32-.32.32l-.56-.16.24-1.2.96.24.24.56c0 .16 0 .16.16.16h.08l.16-.8-2.48-.56v.16l.32.32-.64 2.48-.24.08-.24.08V8l2.64.64.16-.4ZM84.51 8l.56-.08v-.16h-.16l-.24-.08-.08-.24v-.4l.08-.24.56-.08h.56l.24.32c.24.4.24.48 0 .56l-.24.08c0 .16 0 .16.8 0h.64v-.16l-.16-.08-.32-.16-.8-1.44c-.23-.46-.47-.91-.72-1.36h-.16l-.4 1.36-.4 1.6c0 .16-.24.32-.4.4L83.8 8h.72Zm7.68-.16c0-.16 0-.16-.24-.16-.32-.16-.32 0-.16-1.52l.16-1.36h.24c.32 0 .4.08.48.24l.16.4.16.16.16-.56v-.32l-1.44-.16-1.44-.16-.08.88h.08l.16-.08c.08-.24.32-.4.4-.48h.64c-.1.94-.23 1.87-.4 2.8h-.24l-.24.08v.16l.64.08.8.08h.16ZM89 7.6c.24 0 .48-.32.56-.56.1-.26.1-.54 0-.8-.08-.24-.32-.32-.96-.64-.56-.16-.64-.32-.72-.56 0-.32.24-.64.64-.56.32 0 .56.24.72.72 0 .24 0 .24.16.24l.08-.16V4.24h-.16a.24.24 0 0 0-.16.08c0 .08 0 .08-.16 0-.3-.12-.65-.12-.96 0-.24 0-.4.24-.56.4v.4c0 .32 0 .48.24.64.16.16.24.24.8.4.32.16.4.16.48.32.24.32.24.8-.08.96h-.8c-.16-.16-.4-.4-.48-.8 0-.16-.08-.16-.16-.16h-.16v.56c0 .64 0 .64.24.64l.08-.08h.24c.4.16.8.16 1.12 0Z" fill="#fff"/><path d="M86.43 58.64c-.32-.08-.48-.4-.48-.96 0-.88.32-1.6.8-1.6.32 0 .56.32.72.64.08.4.08.8 0 1.2l-.32.64c-.2.17-.48.2-.72.08Zm3.52 0c-.4-.16-.72-.96-.56-1.6 0-.56.24-.8.64-.88.32 0 .64.24.8.72V58c0 .24-.16.56-.32.64a.8.8 0 0 1-.56 0Zm-8.32-20.56-3.28-9.6c-1.12-3.36-1.12-3.12-1.36-3.44l-.96-.72-.96-.24v-.8h7.76v.8h-.16c-.96.16-1.52.32-1.6.48v.72a736.8 736.8 0 0 0 2.96 8.48l2.4-7.52.8-2.88h2.24l.8 2.4 2 5.44c.36 1.02.74 2.03 1.12 3.04l.4-1.2 2.16-7.2V24.8c0-.32-.56-.56-1.6-.72h-.56v-.8h5.84v.8h-.16c-.6.1-1.15.39-1.6.8-.9 2.3-1.79 4.63-2.64 6.96l-.64 1.76-.88 2.72-.56 1.6V38h-2.08l-.48-1.2-1.92-5.36-1.44-4.24-.56 1.44-1.6 5.2-1.36 4V38h-2.08ZM63.8 40.8h-.16l.48-.48.48-.4V40l.16.48.16.32H63.8Zm49.68-3.44c-.72-.16-1.12-.48-1.28-.88 0-.32 0-.64.24-.8.24-.32.56-.4 1.12-.4.8 0 1.36.4 1.6.8v.4c0 .4-.16.64-.56.8-.24.08-.8.16-1.12 0Zm-51.36-8.08-.56-.08v-.24c0-.32.08-.48.24-.56.24-.32.8-.16 1.04.16.08.16.16.32.08.56v.24h-.08l-.72-.08Zm51.52-1.44-.08-.48-.08-.4 1.2.24-.64.4-.48.24Zm-48.56-7.36L64.6 20l1.28.08-.4.8-.4-.4Zm44.96-.4a.8.8 0 0 1-.56-.4 1 1 0 0 1 .24-1.12c.35-.38.8-.65 1.28-.8l.8.08c.4.24.56.72.4 1.12-.16.48-.88 1.04-1.6 1.2h-.56Zm-5.6-8.16a5.2 5.2 0 0 1-.32-.32 6.9 6.9 0 0 1 1.12-.64l-.24.64-.16.56-.32-.24Zm-26.8-2.08-.56-1.2.24-.08c.56-.24.96-.16 1.12.32.08.24.08.48 0 .64-.16.24-.64.4-.8.32Zm-.88-1.92-.32-.56.24-.16c.48-.16.72-.16.88.24.24.4.08.8-.4.96H77l-.24-.48Zm21.12-.24-.24-.08.24-.72.24-.64.16.08c.48.16.64.32.64.64 0 .4-.4.8-.8.8l-.24-.08ZM84.67 6.4l.16-.64.16-.56.32.56.24.56h-.32l-.4.16h-.16Z" fill="#fff"/><path d="M70.75 39.6v-.48h.16l.88-.16a2.4 2.4 0 0 0 1.36-1.2l.48-.96 2.64-6.4.64-1.36.32-.88h.24l.24.64.24.8-.32 1.04-.96 2.24-.56 1.36h3.76l.16.48.16.56v.16h-4.56l-.16.32c-.32.75-.59 1.52-.8 2.32 0 .32 0 .4.24.56.24.24.8.4 1.52.48h.32v.96h-6.08v-.48Zm28 0v-.48h.4c.8-.16 1.28-.32 1.44-.48l.08-.16-.64-1.6-.64-1.6h-4.8l.24-.64.16-.4h3.92l-.32-.96-1.04-2.4-.56-1.6.8-1.84.64-1.84h.48l.56.08a526.8 526.8 0 0 1 4.96 12.24l.4.56.64.4.96.24h.16V40h-7.92v-.48Zm173.28 20.72a29.36 29.36 0 0 1-17.36-9.52c-3.2-3.68-6.56-11.2-5.6-11.04.08-.16.56-.24 3.36-.24 4.08 0 5.04 0 5.04-.4 0-.56.4-.32.64.32.56 1.76 2.64 4.72 4.72 6.64 3.7 3.6 8.67 5.62 13.84 5.6a19.77 19.77 0 0 0 14.4-5.92 21.76 21.76 0 0 0 3.84-5.28l.4-.8 2.4-.08 4.24-.16c1.44 0 1.76 0 2 .16.08.16.24.24.4.24.24 0 .16.96-.16 1.92a37.92 37.92 0 0 1-2.56 5.2 32.8 32.8 0 0 1-6.32 7.2 28.72 28.72 0 0 1-14.16 6.16c-3 .3-6.03.3-9.04 0Zm6.4-2.96a2 2 0 0 0 .96-1.84c-.16-.56-.8-1.2-1.44-1.44-1.04-.24-2.4.64-2.4 1.76 0 .96.96 1.84 1.92 1.84.32 0 .8-.08 1.04-.24Zm-3.68-.16c.64-.72.4-1.36-.8-1.92l-.48-.4c0-.24.4-.32.8-.16.24.16.8.08.8-.16s-.8-.64-1.28-.64c-.56 0-1.04.48-1.04 1.04 0 .32.8 1.12 1.12 1.12.24 0 .48.32.4.56s-.8.24-1.12 0c-.16-.32-.4-.32-.72-.16-.16.16-.16.24.08.48.64.72 1.6.8 2.24.24Zm8-.4c.88-.72.48-1.12-.48-.56-.48.24-.56.32-.96.08-.32-.16-.48-.32-.64-.8-.08-.4 0-.56.24-.88.32-.32.48-.4.96-.32 1.04.08 1.36-.48.4-.72a2 2 0 0 0-1.92.56c-.64.64-.64 1.6-.08 2.4.67.72 1.77.83 2.56.24Zm-11.2 0c.32-.16.48-.96.24-1.36a2.4 2.4 0 0 0-.64-.56c-.32-.24-.48-.4-.48-.56 0-.24.56-.24.8 0h.48c.64-.16-.24-.96-1.12-.96-.48 0-1.04.64-1.04 1.04 0 .08.32.56.72.88.64.64.72.8.56.88-.24.24-.96 0-1.12-.32-.16-.24-.8-.16-.8.08l.48.56c.48.48 1.36.64 1.92.32Zm13.36-.48-.48-1.68c-.48-1.44-.56-1.6-.8-1.6-.16 0-.32.02-.48.08l.56 1.76c.48 1.52.48 1.6.8 1.6l.4-.16ZM268.6 54.4c0-1.76 0-1.84-.32-2-.32 0-.56.16-1.6 1.28-1.2 1.2-1.36 1.36-1.04 1.44h.56c.56-.32 1.6.16 1.6.64 0 .16.08.4.24.4.48.24.56.16.56-1.76Zm17.6 1.44c.15-.12.24-.3.24-.48 0-.32.08-.4.64-.64.56-.16.8-.24.88-.08.24.16.96 0 .96-.16 0 0-.56-.64-1.36-1.28-1.2-1.2-1.36-1.28-1.68-1.12s-.4.24-.32.8l.08 1.84c0 .72.08 1.28.16 1.28l.32-.16Zm4-2.16c.24-.16.08-.4-.48-1.36L289 51.2l.4-.32c.32-.24.4-.32.24-.48 0-.16-.24-.24-.24-.24l-2.24 1.28.16.32c.24.32.24.32.56.16.08-.16.32-.24.4-.24s.48.48.8 1.12c.72 1.12.88 1.28 1.2.88Zm-26.56-.8c.08-.16.16-.48.08-.64 0-.32 0-.4.24-.48.16 0 .4-.24.48-.48.24-.48-.08-.96-.96-1.52l-.56-.4-2.16 2.88.8.56c1.04.64 1.68.72 2.08.16Zm28.64-.48c.16-.24.08-.4-.8-1.6a8.8 8.8 0 0 0-1.2-1.36l-.32.16c-.24.24-.16.32.8 1.6.35.48.72.94 1.12 1.36l.4-.16Zm-32.24-1.76c-.56-.56-.64-.8-.32-1.04l.8.4c.4.48.48.48.72.24s.24-.24-.32-.8c-.48-.48-.48-.56-.32-.8.24-.08.32 0 .8.4.56.56.56.56.8.24.24-.24.24-.32-.48-1.04a4 4 0 0 0-.96-.8l-1.28 1.36-1.2 1.28.96.8c.8.8.92.72 1.28.32m34.08-.88c.48-.48.56-.64.56-1.28 0-1.92-2.48-2.48-3.44-.8-.4.8-.32 1.44.32 2.08.48.56.64.64 1.28.64s.8-.08 1.28-.64Zm-35.84-2.4 1.6-.72s0-.16-.24-.32c-.16-.16-.32-.16-1.12.16a4 4 0 0 1-.96.24l.56-.8c.56-.8.56-.8.4-1.04-.24-.24-.32-.24-1.2.08l-.96.32.56-.88c.56-.8.64-.96.48-1.12l-.32-.24c-.16 0-2.08 2.8-2.08 2.96l.16.32c.24.16.48.08 1.12-.16.31-.14.63-.25.96-.32l-.48.8c-.4.56-.56.8-.48 1.04 0 .16.16.32.24.32l1.76-.64Zm38.08 0c.08-.24 0-.32-.72-.8a4 4 0 0 1-.8-.72l1.36-.08c.96 0 1.36 0 1.52-.24.24-.32.08-.4-1.36-1.44-.96-.8-1.28-.8-1.44-.72-.32.32-.24.4.64 1.04l.8.64h-.48c-1.28 0-2.4.16-2.48.4-.16.24.08.48 1.2 1.28.47.35.95.67 1.44.96l.32-.32Z" fill="#fff"/><path d="M276.85 56.8c-.64-.56-.56-1.52.24-1.92.4-.16.48-.16.8 0 .64.32.8.8.64 1.36-.24.64-1.12.96-1.6.56Zm-9.6-2.24c-.24-.16 0-.56.32-.88.24-.16.24-.08.24.4 0 .64-.08.8-.56.48Zm19.12-.88c-.08-.64.08-.56.48-.08.4.4.4.4 0 .64-.32.16-.4.16-.48-.4Zm-24.24-1.28c-.16-.24-.16-.32 0-.56 0-.16.24-.24.32-.24.24 0 .72.56.56.8-.08.32-.56.32-.8 0Zm.8-1.28v-.4c.16-.24.24-.24.48-.16.4.24.4.8-.08.8-.24 0-.4-.08-.48-.24Zm29.6-1.2c-.48-.64-.4-1.28.32-1.68.48-.24 1.12-.16 1.36.32.8 1.12-.8 2.4-1.6 1.36Zm-17.04-10.96-1.04-4.8c-.16-.16-.16 0-.4.96 0 .8-.08-1.68-.08-7.2 0-3.68.08-6.96.16-7.2.14-2.88.4-.64.56-.24l.88 4c.8 3.28.96 4.32.96 3.92.39-2.2.84-4.39 1.36-6.56 0-.08.72-.16 1.6-.16.8 0 1.52.08 1.52.16a813.52 813.52 0 0 1-4.48 21.6l-1.04-4.48Zm6.88 1.6v-3.52h-1.6l-.96-1.36a16 16 0 0 1-.88-1.52l1.68-.08h1.76v-5.12c0-4.64 0-5.2.24-5.68.56-1.2 1.6-1.84 3.2-2 1.36-.08 2.88.4 3.52 1.12.8.8.8 1.28.72 10.08v8l-1.6.08h-1.52V38.8c0-1.68 0-1.76-.32-1.84-.32 0-.88.08-1.04.08-.24 0-.24.32-.24 1.76l-.08 1.84h-1.52Zm4.56-11.36c0-4.48 0-4.64-.24-4.8-.4-.32-1.12-.24-1.2.08v4.8l-.08 4.64h1.44l.08-4.72Zm-23.49 3.6-.02-7.76h2.4l.7-.24.1 15.68h-3.2V32.8Zm7.5 4.08-1.6-7.44-1.6-7.6c0-.16.32-.24 1.68-.16h1.68l.4 2c.53 4.11.6 8.27.24 12.4q-.08.8-.8.8Z" fill="#fff"/><path d="M247.52 30.56a28.8 28.8 0 0 1 31.76-28 28.8 28.8 0 0 1 22.8 14.24 28 28 0 0 1 3.68 13.28v1.44h-8.88v-1.04c-.12-2.75-.8-5.44-2-7.92a21.6 21.6 0 0 0-6-7.2 25.92 25.92 0 0 0-5.84-3.04 21.2 21.2 0 0 0-8.4-.88c-9.8.99-17.47 8.9-18.16 18.72l-.08 1.36h-8.88v-.96Zm49.6-9.36c.24-.16.24-.24-.16-.8a5.28 5.28 0 0 1-.4-.8l1.36-.8 1.44-.96c.08-.16-.24-.8-.4-.8-.24 0-3.6 2.08-3.6 2.16.34.81.8 1.57 1.36 2.24l.32-.24Zm-39.76-.8c.16-.24.24-.32 0-.4l-3.52-2-.32.4c-.24.32-.24.32.4.72l1.84 1.04 1.28.64.32-.32Zm.8-1.44c.24-.16.32-.32.32-.4l-1.04-.88-1.04-.8h1.84c1.6-.08 1.76-.08 1.92-.4l.08-.32-1.44-1.12-1.6-1.28c-.16-.08-.32 0-.48.16l-.32.32.96.8 1.04.8h-1.6c-1.44 0-1.76.16-1.92.4-.24.24-.24.32-.08.48a71.8 71.8 0 0 0 3.12 2.4l.32-.16Zm38-2.4c1.04-2 1.04-2 .8-2.32-.32-.24-.4-.24-2.56.4l-2.16.8.32.4c.32.32.4.32.64.16.32-.08.4 0 .96.56.56.64.64.8.48 1.04-.16.32-.16.48 0 .72l.4.24 1.12-2Zm-33.92-2.16-1.04-1.28-1.04-1.28c0-.08.16-.32.4-.48l.4-.32-.32-.32-.32-.32-1.2 1.04-1.2 1.04c-.08.08.32.64.48.64a.7.7 0 0 0 .48-.32c.4-.32.4-.32 1.76 1.2.88 1.04.88 1.04 1.2.8l.4-.4Zm30.96-1.12 1.28-1.68-.32-.24c-.12-.13-.26-.24-.4-.32s-.48.48-.8 1.04l-.8.96v-1.6c0-1.28-.08-1.6-.32-1.84l-.32-.32c-.16 0-2.64 3.2-2.64 3.36s.4.48.56.48l.96-1.04.8-1.04v1.76c0 1.44 0 1.76.32 1.92l.32.24 1.36-1.68Zm-28.4-.64 1.2-.8s0-.24-.16-.4l-.24-.32-.8.48-.8.48-.32-.32c-.24-.32-.24-.4.56-.88s.8-.48.56-.8l-.32-.4-.72.48c-.56.32-.8.4-.88.32-.32-.32-.24-.56.56-1.04s.8-.56.48-.96c-.16-.24-.24-.24-1.28.4l-1.2.8c-.16.24 2 3.6 2.16 3.6l1.28-.64Zm23.36-1.28a2.4 2.4 0 0 0 1.28-1.92c0-1.04-.64-1.84-1.84-2.24-.48-.16-.64-.16-1.2.08-2 .8-2.08 3.2-.16 4.16.56.32 1.2.32 1.92 0Zm-20.64-.16-.16-.56c-.32-.8-.32-.8 0-.88.24-.08.56 0 .96.32.64.56.8.56 1.28.24l.4-.16-.8-.48c-.48-.4-.72-.64-.64-.8.4-.8.16-1.6-.64-2-.56-.24-.8-.24-2 .4l-.8.32.64 1.6.8 2c.16.32.16.4.56.24l.4-.24Zm16-.96.56-2.08c.22-.66.41-1.32.56-2l-.48-.08-.48-.16-.56 2a49 49 0 0 0-.56 2.08c0 .16.96.32.96.24Zm-12.24-.64-.24-1.28a5.73 5.73 0 0 1-.16-.96l1.36 1.04c1.04.88 1.28 1.04 1.6 1.04.4-.08.4-.16.32-.56l-.4-2-.32-1.6h-.48c-.4-.08-.48 0-.4.16.08.48.4 2.16.32 2.24l-1.28-.96c-.96-.88-1.28-1.04-1.6-.96l-.32.16.8 4c0 .08.24.16.48 0 .24 0 .32-.08.32-.32Zm9.76-.96.24-1.6.16-.8.56.08c.48.08.56 0 .64-.24V5.6a23.68 23.68 0 0 0-3.12-.48l-.16.4c0 .4 0 .4.56.48.48.08.56.16.48.48l-.16 1.28-.24 1.36c-.08.32 0 .4.16.48.64.16.8 0 .88-.96Zm-2 .56-.8-2.16c-.64-1.6-.8-2-1.12-2.08-.48-.08-.64.08-1.04 1.12l-.8 2-.56 1.12h.56c.32 0 .48 0 .56-.24.16-.4.24-.4 1.2-.4.72.08.8.16.96.48.08.24.24.32.56.32.24 0 .48 0 .48-.16Z" fill="#fff"/><path d="m294.67 16.08-.4-.4.64-.24c1.04-.4 1.04-.4.56.48l-.4.56-.4-.4Zm-8.32-5.44c-.48-.32-.8-1.12-.48-1.68.24-.56 1.04-.96 1.6-.8 1.04.4 1.28 1.6.48 2.24-.56.48-.96.56-1.6.24Zm-19.84-1.92c-.24-.64-.24-.8.32-.96.4-.16.48-.16.8.08.32.32.24.64-.24.96-.64.32-.64.32-.88-.08Zm10.08-1.6.32-.8.24.64.32.64c0 .08-.24.16-.56.16h-.64l.32-.72Zm-12.88 17.2c-.32-.08-.4-.16-.32-1.28v-1.28h3.12v2.64h-1.28l-1.6-.16Zm-.8 26.88c-.24-.08-.16-.32.08-.32.16 0 .16-.08.16-.16-.16-.24.16-.16.4 0 .24.4-.08.72-.56.48Zm-.88-2.48-.16-.32.32.16c.08.16.16.24.08.32 0 0-.16 0-.24-.16ZM257 45.68c.24-.16.32-.16.48 0 .08 0 .08.08 0 .08l-.48.16c-.24 0-.24 0 0-.24Zm14.48-5.44c-.64-3.2-.8-4.24-.56-3.84q.32.56.56-11.36c.08-.08.24.08.32.8l.4 1.76c.24 1.04.16 1.44 1.2-4.08.28-1.44.58-2.83.88-4.26l.24 1.3.16.48c.08.16.08.24-.08.24q-.16 0-.24 12.56a361.3 361.3 0 0 1-2.16 9.76l-.72-3.36Zm23.04.96.64-1.6a19.44 19.44 0 0 0 1.6-7.04l.16-1.52h4.16l4.64.16v2.06a26.47 26.47 0 0 1-1.09 6.74c0 .48-.16.32-2.08.08h-7.39l-.4.72-.24.4Zm-36.56-.8-.16-.48h-4.08l-4.24.24c-.4.72-.53.16-1-1.68a30.29 30.29 0 0 1-1-6.32v-1.04l8.88.08v1.6c.16 2.4 1.36 5.52 1.84 7.44.4.64.4.8.16.8-.16 0-.32-.32-.48-.56Zm27.36-6.16c-.08-.24 0-.24.8-.24.64 0 .72 0 .56.16q-.08.16 0 2.88h-.72c-.4 0-.8 0-.8-.16Z" fill="#fff"/><path d="M263.4 23.69c0 .15.8.13 1.75.13h1.36v1.76h-3.1m21.98-1.52v-2.72h1.12l.16.24c-.16 0-.16 1.6 0 2.08v.32c0 .16-1.12.24-1.28 0Zm-8.48-16.48c0-.08 0-.16.16-.16s.32 0 .32.16c0 0 0 .16-.16.16-.24 0-.32-.08-.32-.16Z" fill="#fff"/></svg>