<svg xmlns="http://www.w3.org/2000/svg" viewBox="0 0 400 75"><path d="M4.03 0h43v60.48h-43"/><path fill="#8c7a62" d="m26.23 59.91-19.5-.07-.84-2.18h39.14q1.55 2.28 1.01 2.28l-19.8-.07Z"/><path fill="#c0a385" d="M44.17 58.16 43.7 2.25l.8-.77q.6-.6 1.89-.78v29.57c0 23.55-.04 29.57-.2 29.57"/><path fill="#e9c29b" d="M5.31 58.4q-.04-.17.4-56.02 38.98-.12 38.81.04c-.34.3-.34.44-.3 28.03l.03 27.72H25.17M41.33 3.72H11.89l-3.5 3.49v29.44h32.94"/><text stroke-width="0" dx="0" dy="0" font-family="&quot;Arial&quot;" font-size="6" font-weight="700" transform="translate(10.41 43.11)"><tspan y="0">THE HTML</tspan><tspan x="0" y="6">  WRITERS</tspan><tspan x="0" y="12">   GUILD</tspan></text><path fill="#f6e6b4" d="M4.7 30.27V.7h41.56l-.84.84-.8.84H5.71v55.44l.98 1.01.9 1.01H4.7V30.27Z"/><path fill="#f6e6b4" d="M9.35 7.63h3.02V4.61h12.7c13 0 14.69.1 10.48.6-.43.03-2.72.57-3.6.91l-1.1.34-.94.33c-2.78 1.1-5.4 2.18-7.8 4.33-1.51 1.35-2.87 2.22-4.8 4.64a45.37 45.37 0 0 0-4.94 8.03A28.88 28.88 0 0 0 10.39 34v1.54h-1"/><path fill="#f6e6b4" d="M9.39 7.08c0-.07 2.23-2.01 2.3-2.01q.07 0 .07 2.01"/><path fill="#fff" d="m167.98 12.48 7.36 25.04 7.36-25.04h20v2.48L195.1 28a10.4 10.4 0 0 1 6 4.64 14.88 14.88 0 0 1 2 7.84v-.08c0 3.68-.96 6.8-2.96 9.36a9.28 9.28 0 0 1-7.68 3.84 9.2 9.2 0 0 1-6.16-2.32 13.28 13.28 0 0 1-3.92-6.08l4.16-1.76a9.44 9.44 0 0 0 2.4 3.68 5.12 5.12 0 0 0 3.52 1.36c1.44 0 2.64-.8 3.6-2.4 1-1.72 1.5-3.69 1.44-5.68 0-2.48-.48-4.4-1.6-5.76-1.12-1.6-3.04-2.4-5.6-2.4h-2.08v-2.4l7.12-12.24h-8.64l-10.87 36h-.48l-7.6-25.6-7.6 25.6h-.48l-12.16-41.12h5.36l7.28 25.04 4.96-16.8-2.4-8.24h5.27Zm55.76-.24.8 5.28-3.04 5.84s-1.12-2.48-3.12-3.84c-1.6-1.2-2.72-1.44-4.32-1.12-2.16.48-4.64 3.04-5.6 6.24-1.36 3.76-1.36 5.6-1.36 7.2-.08 2.8.32 4.4.32 4.4s-1.84-3.44-1.84-8.48c0-3.6.56-6.88 2.24-10.08 1.44-2.8 3.6-4.48 5.6-4.72a6.4 6.4 0 0 1 4.72 1.84 15.2 15.2 0 0 1 2.56 3.44l3.04-6Zm.32 29.76.8 4-.8 1.36c-.56.9-1.2 1.76-1.92 2.56-.73.77-1.53 1.47-2.4 2.08a8.15 8.15 0 0 1-6.08 1.28c-3.28-.64-5.36-3.12-6.48-4.64-1.12-1.6-2-3.44-2.24-4-.48-1.04-1.2-3.44-1.2-3.44l2.16 3.6a16 16 0 0 0 3.04 3.04 9.12 9.12 0 0 0 4.08 1.6 7.76 7.76 0 0 0 4.72-.8c1.76-.8 3.36-2.4 4.16-3.36s2.16-3.36 2.16-3.36V42ZM91.08 60.56A28.96 28.96 0 0 1 63.78 30 28.96 28.96 0 0 1 94.35 2.64a28.96 28.96 0 0 1 27.36 30.56 28.96 28.96 0 0 1-30.56 27.36h-.07Zm.07-1.6.64-.4c.48-.56.56-1.6.16-2.16-.17-.2-.4-.33-.64-.4h-.4c-.8-.08-1.44.4-1.44 1.36-.08.64.16 1.2.64 1.44.24.16.72.16 1.04.16Zm3.44 0a1.6 1.6 0 0 0 1.04-1.44c0-1.04-.72-1.68-1.6-1.6-.48.08-.8.32-1.04.8-.32.56-.16 1.52.32 1.92l.48.32h.8Zm-6-.8-1.69-.32.82-.32c.8-.16.87-.32 1.03-.56 0-.16.08-.48 0-.64 0-.48-.64-.8-1.28-.8-.48 0-.8.16-.88.48v.4c.16.16.32.16.48 0l.08-.24c0-.32 0-.4.4-.4.1-.03.22-.03.32 0 .24.16.32.24.32.56a.8.8 0 0 1 0 .48c-.24.24-.32.32-.88.48l-1.04.48-.16.24v.16l2.4.48.08-.48Zm9.04.4c.48-.08.8-.4.96-.8.16-.32 0-.72-.16-.96-.16-.16-.32-.24-.64-.24h-.24l.16-.16c.32-.16.48-.4.48-.8a.8.8 0 0 0-.56-.8 1.6 1.6 0 0 0-1.04.16c-.24.08-.48.32-.56.48-.16.32 0 .8.32.72.24-.08.32-.32.16-.56v-.24s.24-.24.4-.24c.4-.08.64.08.64.56.08.48 0 .8-.56.8l-.16.08.08.24h.56c.24 0 .4 0 .48.32.08.16.16.56.08.72a.8.8 0 0 1-.32.4.95.95 0 0 1-.8.08v-.24c0-.24 0-.24-.16-.32l-.24-.08c-.24 0-.32.24-.16.56 0 .08.16.24.4.32h.88Zm-3.68-5.28a21.6 21.6 0 0 0 19.44-14.8 21.76 21.76 0 0 0-36-22.24 21.6 21.6 0 0 0 0 30.64 21.6 21.6 0 0 0 16.56 6.4ZM76.11 52l.8.56c-.21-.59-.3-.9-.24-.96l.72-.48h-1.04l-.32-.88-.32.88h-.88l.72.56c-.07.27-.15.54-.24.8l.8-.48Zm33.84 0 .8.56c-.21-.59-.27-.9-.16-.96l.64-.48h-.96l-.32-.88-.24.88h-.96l.72.56-.24.88.72-.56Zm8.16-10.88v-.08l-.72.4-1.76-.64 2.88-.88.4-.96-.32.16c-.24.24-2.06-.42-2.4-.56-.16 0-.3-.21-.4-.64l-.48 1.28.48-.32h.4l1.76.64-2.96.96c-.1 0-.19.08-.24.24l1.28.48 1.36.48c.16.1.27.35.32.72l.4-1.28Zm-47.52.32-.48-1.2c-.16 0-.16 0-.08.24 0 .32 0 .32-.56.32h-.32l-.4-1.04.72-.56.4.32c-.18-.7-.4-1.4-.64-2.08l-.08-.64h-.16v.24l-.16.32a.8.8 0 0 1-.32.16l-2.16.4 2.64-1.68c-1.7-.35-2.72-.56-3.04-.64l2.4-.48c.16 0 .32.48.48.48v-.08l-.24-1.44c-.1 0-.16.16-.16.48-.87.2-1.75.35-2.64.48-.16 0-.16 0-.24-.24 0-.08-.08-.16-.24-.08l.16 1.04 2.56.48-2.08 1.36.16 1.2h.16c.1-.32.19-.5.24-.56l2.4-.48.32.24v.16l.08.16c0 .24 0 .32-1.28 1.44l-1.2 1.12c0 .08 0 .16.16.16h1.6c1.6 0 1.6 0 1.84.32l.16.08Zm47.76-3.52c.42-.13.76-.41.96-.8.16-.32.24-.8.08-1.2-.32-1.2-2.16-1.6-3.04-.72a1.6 1.6 0 0 0 .56 2.56 2 2 0 0 0 1.44.16Zm1.44-5.12c-.1 0-.21.13-.32.4h-1.36c-1.07-.1-1.6-.32-1.6-.64l-.16 1.52.4-.48 1.36.08c1.44.08 1.36.08 1.36.4 0 .16 0 .24.16.24l.16-1.52Zm-54.31.8a.64.64 0 0 1 .08-.24c1.87-.05 2.8-.03 2.8.08 0 .24.08.24.16.24h.08v-2.8h-1.04c0 .16 0 .16.24.24.32.16.48.32.48.48.05.32.05.64 0 .96 0 .05-.43.1-1.28.16v-.64c0-.08.24-.24.4-.24.08 0 .16 0 .16-.16v-.08h-.4a12 12 0 0 1-.64 0h-.32v.16l.16.08c.32.08.4.24.4.72v.16h-1.28v-.32c0-.56 0-.64.16-.8l.24-.16.16-.16c0-.16 0-.16-.48-.16h-.4l.08 2.64c.16 0 .24-.05.24-.16Zm54.4-1.44-.08-2.88h-.96l.72.64v.56h-2.72c-.05 0-.19-.16-.4-.48v1.6c.21-.32.37-.48.48-.48l2.72-.08v.56c-.48.27-.72.45-.72.56h.96ZM68.6 30.48l.08-1.44h-.16l-.16.4h-.56c-.64-.08-.64 0-.64-.24v-.16l1.2-.64.48-.24v-.96l-.16.08c-.03.09-.56.46-1.6 1.12v-.16a1.44 1.44 0 0 0-.24-.48.88.88 0 0 0-.64-.24l-.32.08c-.24.16-.32.32-.4.56s-.32 1.84-.24 1.92l.24-.16c0-.16.08-.24.24-.24l2.56.32.08.32.24.16Zm48.16-1.44 2.8-1.68v-.24l-.88-.24c-2.48-.48-2.4-.48-2.56-.8 0-.08-.08-.08-.16 0l.16 1.2.16-.43.88-.05.24 1.2-.8.4-.32-.32c.05.46.13.91.24 1.36l.24-.4ZM69.23 26.4c.16-.56.16-.72.08-.8l-.32.4a20.8 20.8 0 0 1-2.64-.56l-.24-.48-.16.72-.16.8.24-.16c.16-.32 0-.32 1.44 0l1.36.24.25.56.16-.72h-.01Zm46.8-.64c0-.24 0-.32.16-.4.82-.25 1.65-.46 2.48-.64.21.27.35.37.4.32l-.32-1.44-.24.48-2.56.8c-.16-.32-.3-.48-.4-.48l.32 1.44c0 .08 0 .08.16 0v-.08Zm-46.95-.96c.32-.08.72-.4.8-.8.32-.56.24-1.12-.16-1.6l-.16-.16-.16.16.16.16c.24.24.24.4.24.8v.32c-.24.48-.8.72-1.36.56a2.4 2.4 0 0 1-1.28-.64c-.4-.4-.32-1.04.16-1.28.23-.1.47-.16.72-.16h.16c.08-.16.08-.16 0-.16l-1.04-.4v.32l-.08.16a1.6 1.6 0 0 0 0 2.16c.56.56 1.28.8 1.92.56h.08Zm47.2-1.04-.16-.08c-.4-.08-.56-.16-.8-.4-.48-.72 0-1.6 1.12-1.92h1.04c.48.24.64.72.48 1.12l-.56.56c-.08 0-.08.08 0 .16v.08l1.12-.48-.16-.16-.08-.24a1.6 1.6 0 0 0-.96-1.6h-.8c-.56 0-.96.24-1.28.56s-.48.64-.48 1.12c0 .24 0 .4.16.64.24.48.64.8 1.2.8.16 0 .16 0 .16-.16Zm-45.36-2.32c-.1-.05-.19-.05-.24 0-.16.24-.24.32-.32.24l-.56-.56.48-.96h.4c.48 0 .48 0 .48.16l.08.4 1.44-2.4h-.32l-.24.24-.48-.16-1.52-1.04 3.36-.08.16-.24c-1.65-1.17-2.48-1.81-2.48-1.92v-.4l-.8 1.04.24.08c.32-.32.32-.32 1.52.48l.56.4-3.12.16-.48.8h.24c.08-.16.32-.24.4-.24.1 0 .8.48 2.08 1.44v.32c-.08.24-.24.48-.48.48a63.12 63.12 0 0 1-3.2-.24l-.08.16.8.96c1.44 1.52 1.44 1.52 1.36 1.84v.16h.08l.64-1.12Zm44.4-.88c.64-.24 1.12-.8 1.28-1.28a1.6 1.6 0 0 0-1.04-1.92h-.88c-.4 0-.8.32-1.12.64a1.6 1.6 0 0 0 .8 2.56h.96Zm-2.4-2.88c.24-.08.56-.4.56-.56v-.96c-.24-.56-.24-.8 0-.96.08-.16.16-.24.32-.24.32 0 .56.32.56.64 0 .24 0 .4-.24.64v.4l.4-.32.48-.4v-.08c-.08 0-.16-.08-.16 0l-.16-.16c0-.4-.08-.48-.32-.72l-.32-.24h-.8a1.2 1.2 0 0 0-.48.56l.08.96.16.48c0 .24-.16.4-.24.56-.24.16-.48.16-.8 0-.32-.4-.32-.8 0-1.36.08-.16.08-.24 0-.32l-.88.72c.08.08.08.16.16.08l.16.24c.16.48.48.8.8 1.04h.72Zm-1.76-2.24c.16 0 .48-.32.56-.48v-.32c0-.24 0-.32-.32-1.04-.16-.4-.08-.64.16-.8 0-.08.08-.16.32-.16.16 0 .24.08.4.24.24.24.16.56 0 1.04l-.16.24.16.16.8-.8v-.08l-.24-.08-.08-.08c0-.24-.24-.48-.4-.64a.96.96 0 0 0-.72-.32.8.8 0 0 0-.64.32c-.16.16-.24.32-.24.64l.24.72c.16.48.16.64.08.8 0 .16-.24.4-.32.4-.24.08-.4 0-.64-.16-.16-.24-.24-.32-.24-.64 0-.24 0-.32.16-.56l.16-.24-.16-.08-.88.72.08.08.16.08.16.16c.08.24.24.48.48.64.32.32.8.4 1.12.24Zm-36.4-3.28L77 13.44l.16-.16c-.44-.95-.87-1.91-1.28-2.88l-.16-.48-.72.72c.37-.05.61-.03.72.08l.88 1.84-2.32-1.2-.16.16 1.04 2.24-1.84-1.04.08-.56-1.04.96c.34-.05.56-.05.64 0l2.64 1.6.16-.16-1.04-2.4Zm34.4 1.92v-.16a.64.64 0 0 1-.08-.24l.88-3.28-3.28 1.52c-.08-.08-.16-.08-.16 0h-.08l.96.8h.08l-.24-.56c.43-.32.8-.37 1.12-.16l.48.4-.32.8.08.56.48.4.08-.08ZM80.68 10.8l-.48-.88c-.05.05-.08.37-.08.96-.24.24-.8.64-.96.64l-.8-1.12c.56-.4.64-.4.96-.08h.16l-.72-1.12-.16.24c.1.21-.05.48-.48.8l-.64-1.04c.53-.37.82-.55.88-.56l.72.16c-.1-.26-.23-.5-.4-.72a36 36 0 0 0-2.16 1.6c.32-.1.5-.1.56 0a45 45 0 0 1 1.44 2.16l-.16.53 2.32-1.57Zm24.4.08c.32 0 .88-.56.88-.88s-.08-.48-.32-.8c-.56-.64-.56-.72-.56-.88l.24-.48c.32-.16.8 0 .88.4v.96c.16 0 .16 0 .48-.56l.24-.4a.34.34 0 0 0-.32 0c-.4-.56-.72-.8-1.12-.8s-.72.24-.8.56a.8.8 0 0 0-.16.4c0 .32.16.48.48.96.32.4.4.48.4.72s-.24.48-.4.56a.72.72 0 0 1-.8-.48c-.16-.16-.16-.16-.16-.48 0-.19-.03-.38-.08-.56l-.48.88-.08.16.4.08c.24.32.64.56.96.64h.32ZM82.92 9.6c.4-.48.4-1.12-.08-1.36a.8.8 0 0 0-.4-.08h-.48l.08-.08c.24-.24.24-.4.24-.64 0-.4-.24-.72-.72-.72a11 11 0 0 0-2 .8l.16.24c0 .05.13.03.4-.08l1.2 2.4-.24.48 1.84-.96Zm20-.08-.4-1.6h.24c.4 0 .64-.08.8-.4l.08-.32a.97.97 0 0 0-.4-.8l-1.76-.72c0 .03.07.2.24.48-.3.84-.65 1.67-1.04 2.48l-.4.16 1.28.56s-.24-.4-.24-.48l.24-.96.48.16.4 1.6.8.32-.32-.48Zm-17.84-.64-.24-.16c-.24 0-.32-.08-.4-.24l-.72-2.24 1.92 2.4.32-3.04c.48 1.65.64 2.53.48 2.64l-.16.24 1.44-.4c-.37-.1-.59-.24-.64-.4l-.64-2.4.32-.48-1.04.24-.24 2.56a234.2 234.2 0 0 0-1.6-2l-1.12.4c.37.05.59.13.64.24l.64 2.24c0 .24 0 .32-.24.4l-.08.24 1.36-.24Zm15.04-1.12c-.48.37-.77.56-.88.56l-.88-.24c-.16-.08-.16-.16 0-.8l.16-.56h.4c.24.16.32.24.32.48l.08.24h.08c.15-.42.25-.84.32-1.28l-.24.08c0 .16-.16.32-.32.32l-.56-.16.24-1.2.96.24.48.72.16-.8-2.48-.56.32.48-.64 2.48-.48.24 2.64.64.32-.88ZM88.59 8l.11-1.14 1.17-.14.59.91.85-.11-.48-.24-.8-1.44c-.23-.46-.47-.91-.72-1.36l-.56.08c-.43 2.13-.7 3.23-.8 3.28l-.07.16h.71Zm7.68-.16c0-.16 0-.16-.24-.16-.32-.16-.32 0-.16-1.52l.16-1.36h.24c.32 0 .4.08.48.24l.16.4.16.16.16-.56v-.32l-2.88-.32-.08.88h.08l.16-.08c.08-.24.32-.4.4-.48h.64c-.1.94-.23 1.87-.4 2.8h-.24l-.24.08v.16l.64.08.8.08h.16v-.08Zm-3.19-.24c.24 0 .48-.32.56-.56.1-.26.1-.54 0-.8-.08-.24-.32-.32-.96-.64-.56-.16-.64-.32-.72-.56 0-.32.24-.64.64-.56.32 0 .56.24.72.72 0 .24 0 .24.16.24l.08-.16V4.24h-.16a.24.24 0 0 0-.16.08c0 .08 0 .08-.16 0-.3-.12-.65-.12-.96 0-.24 0-.4.24-.56.4v.4c0 .32 0 .48.24.64.16.16.24.24.8.4.32.16.4.16.48.32.24.32.24.8-.08.96h-.8c-.16-.16-.4-.4-.48-.8 0-.16-.08-.16-.16-.16h-.16v1.04c.4.16 1.36.24 1.68.08ZM90.5 58.64c-.32-.08-.48-.4-.48-.96 0-.88.32-1.6.8-1.6.32 0 .56.32.72.64.08.4.08.8 0 1.2l-.32.64c-.2.17-.48.2-.72.08Zm3.52 0c-.4-.16-.72-.96-.56-1.6 0-.56.24-.8.64-.88.32 0 .64.24.8.72V58c0 .24-.16.56-.32.64a.8.8 0 0 1-.56 0Zm-12.96-33.6-.96-.72-.96-.24v-.8h7.76v.8c-1.12.21-1.7.37-1.76.48v.72c.97 2.83 1.96 5.66 2.96 8.48l3.2-10.4h2.24c2.36 6.58 3.67 10.2 3.92 10.88l2.56-9.44c0-.32-.56-.56-1.6-.72h-.56v-.8h5.84v.8h-.16c-.6.1-1.15.39-1.6.8a695.5 695.5 0 0 0-4.72 13.04V38h-2.08L91.3 27.2 87.78 38H85.7l-4.64-12.96ZM67.71 40.8l.96-.8.32.8h-1.28Zm49.84-3.44c-.72-.16-1.12-.48-1.28-.88 0-.32 0-.64.24-.8.24-.32.56-.4 1.12-.4.8 0 1.36.4 1.6.8v.4c0 .4-.16.64-.56.8l-1.12.08ZM65.63 29.2v-.24c0-.32.04-.49.2-.57.24-.32.84-.15 1.08.17.08.16.16.32.08.56v.24l-1.36-.16Zm51.92-2.24 1.2.24-1.12.64-.08-.88ZM68.67 20l1.28.08-.4.8-.88-.88Zm45.44.08a.8.8 0 0 1-.56-.4 1 1 0 0 1 .24-1.12c.35-.38.8-.65 1.28-.8l.8.08c.4.24.56.72.4 1.12-.16.48-.88 1.04-1.6 1.2h-.56v-.08Zm-5.92-8.48c.35-.25.75-.3 1.14-.48l-.42 1.04-.72-.56ZM81.71 9.84l-.56-1.2.24-.08c.56-.24.96-.16 1.12.32.08.24.08.48 0 .64-.16.24-.64.4-.8.32Zm-.88-1.92-.32-.56.24-.16c.48-.16.72-.16.88.24.24.4.08.8-.4.96h-.16l-.24-.48Zm20.88-.32.48-1.36.16.08c.48.16.64.32.64.64 0 .4-.4.8-.8.8l-.48-.16ZM89.06 5.2l.56 1.12-.88.16.32-1.28ZM74.78 39.12l1.04-.16a2.4 2.4 0 0 0 1.36-1.2l4.08-9.6h.24l.24.64.24.8-1.84 4.64h3.76l.32 1.2h-4.56c-.5 1.23-.82 2.1-.96 2.64 0 .32 0 .4.24.56.24.24.8.4 1.52.48h.32v.96H74.7v-.48l.08-.48Zm28 .48v-.48h.4c.8-.16 1.28-.32 1.44-.48l.08-.16-1.28-3.2h-4.8l.4-1.04h3.92l-1.92-4.96 1.44-3.68h.48l.56.08a526.8 526.8 0 0 1 4.96 12.24l.4.56.64.4.96.24h.16V40h-7.92v-.48l.08.08Zm173.28 20.72a29.36 29.36 0 0 1-17.36-9.52c-2.75-3.16-5.62-9.16-5.76-10.68-.12-.33-.25-.85-.43-1.57-.56-2.06-.9-4.18-1-6.32V31.2h.04v-.63a28.8 28.8 0 0 1 31.76-28 28.8 28.8 0 0 1 22.8 14.24 28 28 0 0 1 3.68 13.28v1.44h-.04v1.81a26.47 26.47 0 0 1-1.09 6.74c0 .18-.02.27-.15.3-.02.37-.12.88-.29 1.39a37.92 37.92 0 0 1-2.56 5.2 32.8 32.8 0 0 1-6.32 7.2 28.72 28.72 0 0 1-14.16 6.16c-3 .3-6.03.3-9.04 0h-.08Zm-13.92-20.88c.56 1.76 2.64 4.72 4.72 6.64 3.7 3.6 8.67 5.62 13.84 5.6 5.4.08 10.61-2.06 14.4-5.92 1.4-1.41 2.6-3.01 3.55-4.75l.54-1.34a19.44 19.44 0 0 0 1.6-7.04l.12-1.14v-1.01c-.12-2.75-.8-5.44-2-7.92a21.6 21.6 0 0 0-6-7.2 25.92 25.92 0 0 0-5.84-3.04 21.2 21.2 0 0 0-8.4-.88c-9.8.99-17.47 8.9-18.16 18.72l-.08 1.36h-.04v1.35c.13 1.88.89 4.2 1.44 6.04.1.1.22.3.31.53Zm20.32 17.92a2 2 0 0 0 .96-1.84c-.16-.56-.8-1.2-1.44-1.44-1.04-.24-2.4.64-2.4 1.76 0 .96.96 1.84 1.92 1.84.32 0 .8-.08 1.04-.24l-.08-.08Zm-3.68-.16c.64-.72.4-1.36-.8-1.92l-.48-.4c0-.24.4-.32.8-.16.24.16.8.08.8-.16s-.8-.64-1.28-.64c-.56 0-1.04.48-1.04 1.04 0 .32.8 1.12 1.12 1.12.24 0 .48.32.4.56s-.8.24-1.12 0c-.16-.32-.4-.32-.72-.16-.16.16-.16.24.08.48.64.72 1.6.8 2.24.24Zm8-.4c.88-.72.48-1.12-.48-.56-.48.24-.56.32-.96.08-.32-.16-.48-.32-.64-.8-.08-.4 0-.56.24-.88.32-.32.48-.4.96-.32 1.04.08 1.36-.48.4-.72a2 2 0 0 0-1.92.56c-.64.64-.64 1.6-.08 2.4.67.72 1.77.83 2.56.24h-.08Zm-11.2 0c.32-.16.48-.96.24-1.36a2.4 2.4 0 0 0-.64-.56c-.32-.24-.48-.4-.48-.56 0-.24.56-.24.8 0h.48c.64-.16-.24-.96-1.12-.96-.48 0-1.04.64-1.04 1.04 0 .08.32.56.72.88.64.64.72.8.56.88-.24.24-.96 0-1.12-.32-.16-.24-.8-.16-.8.08l.48.56c.48.48 1.36.64 1.92.32Zm13.36-.48-.48-1.68c-.48-1.44-.56-1.6-.8-1.6-.16 0-.32.02-.48.08l.56 1.76c.48 1.52.48 1.6.8 1.6l.4-.16Zm-16.31-1.92c0-1.76 0-1.84-.32-2-.32 0-.56.16-1.6 1.28-1.2 1.2-1.36 1.36-1.04 1.44h.56c.56-.32 1.6.16 1.6.64 0 .16.08.4.24.4.48.24.56.16.56-1.76Zm17.6 1.44c.15-.12.24-.3.24-.48 0-.32.08-.4.64-.64.56-.16.8-.24.88-.08.24.16.96 0 .96-.16 0 0-.56-.64-1.36-1.28-1.2-1.2-1.36-1.28-1.68-1.12s-.4.24-.32.8l.08 1.84c0 .72.08 1.28.16 1.28l.32-.16h.08Zm4-2.16c.24-.16.08-.4-.48-1.36l-.72-1.12.4-.32c.32-.24.4-.32.24-.48 0-.16-.24-.24-.24-.24l-2.24 1.28.16.32c.24.32.24.32.56.16.08-.16.32-.24.4-.24s.48.48.8 1.12c.72 1.12.88 1.28 1.2.88h-.08Zm-26.56-.8c.08-.16.16-.48.08-.64 0-.32 0-.4.24-.48.16 0 .4-.24.48-.48.24-.48-.08-.96-.96-1.52l-.56-.4-2.16 2.88.8.56c1.04.64 1.68.72 2.08.16v-.08Zm28.64-.48c.16-.24.08-.4-.8-1.6a8.8 8.8 0 0 0-1.2-1.36l-.32.16c-.24.24-.16.32.8 1.6.35.48.72.94 1.12 1.36l.4-.16Zm-32.24-1.76c-.56-.56-.64-.8-.32-1.04l.8.4c.4.48.48.48.72.24s.24-.24-.32-.8c-.48-.48-.48-.56-.32-.8.24-.08.32 0 .8.4.56.56.56.56.8.24.13-.13.19-.21.1-.38 0 .02-.02.04-.03.05s-.16 0-.24-.16l-.16-.32.15.08-.3-.31a4 4 0 0 0-.96-.8l-1.28 1.36-1.2 1.28.96.8c.8.8.92.72 1.28.32l-.48-.56Zm34.56-.32c.48-.48.56-.64.56-1.28 0-1.92-2.48-2.48-3.44-.8-.4.8-.32 1.44.32 2.08.48.56.64.64 1.28.64s.8-.08 1.28-.64Zm-35.84-2.4 1.6-.72s0-.16-.24-.32c-.16-.16-.32-.16-1.12.16a4 4 0 0 1-.96.24l.56-.8c.56-.8.56-.8.4-1.04-.24-.24-.32-.24-1.2.08l-.43.14c.03.02.07.05.11.1.08 0 .08.07 0 .07l-.48.17c-.22 0-.24 0-.05-.19l-.11.04.56-.88c.56-.8.64-.96.48-1.12l-.32-.24c-.16 0-2.08 2.8-2.08 2.96l.16.32c.24.16.48.08 1.12-.16.31-.14.63-.25.96-.32l-.48.8c-.4.56-.56.8-.48 1.04 0 .16.16.32.24.32l1.76-.64Zm38.08 0c.08-.24 0-.32-.72-.8a4 4 0 0 1-.8-.72l1.36-.08c.96 0 1.36 0 1.52-.24.24-.32.08-.4-1.36-1.44-.96-.8-1.28-.8-1.44-.72-.32.32-.24.4.64 1.04l.8.64h-.48c-1.28 0-2.4.16-2.48.4-.16.24.08.48 1.2 1.28.47.35.95.67 1.44.96l.32-.32Zm.28-26.72c.24-.16.24-.24-.16-.8a5.28 5.28 0 0 1-.4-.8l1.36-.8 1.44-.96c.08-.16-.24-.8-.4-.8-.24 0-3.6 2.08-3.6 2.16.34.81.8 1.57 1.36 2.24l.32-.24h.08ZM261.39 20l-3.52-2-.32.4c-.24.32-.24.32.4.72l3.12 1.68.32-.8Zm1.12-1.44-2.08-1.68 3.32-.16.52-.56-1.44-1.12-1.6-1.28c-.16-.08-.32 0-.48.16l-.32.32 2 1.6h-1.6c-1.44 0-1.76.16-1.92.4-.24.24-.24.32-.08.48a71.8 71.8 0 0 0 3.12 2.4l.56-.56Zm37.68-2c1.04-2 1.04-2 .8-2.32-.32-.24-.4-.24-2.56.4l-2.16.8.32.4c.32.32.4.32.64.16.32-.08.4 0 .96.56.56.64.64.8.48 1.04-.16.32-.16.48 0 .72l.4.24 1.12-2Zm-33.92-2.16-2.08-2.56c0-.08.16-.32.4-.48l.4-.32-.64-.64-2.4 2.08c-.08.08.32.64.48.64a.7.7 0 0 0 .48-.32c.4-.32.4-.32 1.76 1.2.88 1.04.88 1.04 1.2.8l.4-.4Zm30.96-1.12 1.28-1.68-.32-.24c-.12-.13-.26-.24-.4-.32s-.48.48-.8 1.04l-.8.96v-1.6c0-1.28-.08-1.6-.32-1.84l-.32-.32c-.16 0-2.64 3.2-2.64 3.36s.4.48.56.48l.96-1.04.8-1.04v1.76c0 1.44 0 1.76.32 1.92l.32.24 1.36-1.68Zm-27.2-1.44s0-.24-.16-.4l-.24-.32-1.6.96-.32-.32c-.24-.32-.24-.4.56-.88s.8-.48.56-.8l-.32-.4-.72.48c-.56.32-.8.4-.88.32-.32-.32-.24-.56.56-1.04s.8-.56.48-.96c-.16-.24-.24-.24-1.28.4l-1.2.8c-.16.24 2 3.6 2.16 3.6l2.4-1.44Zm22.16-.4a2.53 2.53 0 0 0 1.28-2c0-1.04-.64-1.84-1.84-2.24-.48-.16-.64-.16-1.2.08-2 .8-2.08 3.2-.16 4.16.56.32 1.2.32 1.92 0Zm-20.64-.24-.16-.56c-.32-.8-.32-.8 0-.88.24-.08.56 0 .96.32.64.56.8.56 1.28.24l.4-.16-.8-.48c-.48-.4-.72-.64-.64-.8.4-.8.16-1.6-.64-2-.56-.24-.8-.24-2 .4l-.8.32 1.44 3.6c.16.32.16.4.56.24l.4-.24Zm16-.96.56-2.08c.22-.66.41-1.32.56-2l-.48-.08-.48-.16-.56 2a49 49 0 0 0-.56 2.08c0 .16.96.32.96.24Zm-12.24-.64-.24-1.28a5.73 5.73 0 0 1-.16-.96l1.36 1.04c1.04.88 1.28 1.04 1.6 1.04.4-.08.4-.16.32-.56l-.72-3.6h-.48c-.4-.08-.48 0-.4.16.08.48.4 2.16.32 2.24l-1.28-.96c-.96-.88-1.28-1.04-1.6-.96l-.32.16.8 4c0 .08.24.16.48 0 .24 0 .32-.08.32-.32Zm9.76-.96.24-1.6.16-.8.56.08c.48.08.56 0 .64-.24V5.6a23.68 23.68 0 0 0-3.12-.48l-.16.4c0 .4 0 .4.56.48.48.08.56.16.48.48l-.16 1.28-.24 1.36c-.08.32 0 .4.16.48.64.16.8 0 .88-.96Zm-2 .56-.8-2.16c-.64-1.6-.8-2-1.12-2.08-.48-.08-.64.08-1.04 1.12l-.8 2-.56 1.12h.56c.32 0 .48 0 .56-.24.16-.4.24-.4 1.2-.4.72.08.8.16.96.48.08.24.24.32.56.32.24 0 .48 0 .48-.16Zm15.23 6.55.64-.24c1.04-.4 1.04-.4.56.48l-.4.56-.8-.8Zm-7.92-5.04c-.48-.32-.8-1.12-.48-1.68.24-.56 1.04-.96 1.6-.8 1.04.4 1.28 1.6.48 2.24-.56.48-.96.56-1.6.24ZM270.54 8.8c-.24-.64-.24-.8.32-.96.4-.16.48-.16.8.08.32.32.24.64-.24.96-.64.32-.64.32-.88-.08Zm10.08-1.6.32-.8.24.64.32.64c0 .08-.24.16-.56.16h-.64l.32-.72v.08Zm-13.2 14.64h3.12l.11 18.65h-3.2l-.03-18.65Zm-.48 29.44c-.22-.07-.17-.28.02-.31v-.24c.16-.24.24-.24.48-.16.4.24.4.8-.08.8a.61.61 0 0 1-.35-.09h-.07Zm4.83-29.43c0-.1 1.12-.16 3.36-.16l1.14 6.84c.24 1.04 1.7-7.54 1.97-8.85.14-1.13 2.32 9.13 2.32 8.73.39-2.2.84-4.39 1.36-6.56 0-.08 3.12-.08 3.12 0a813.5 813.5 0 0 1-4.48 21.6l-2.08-9.28c-.06-.06-1.5 6.35-2.25 9.51l-4.46-21.83Zm17.7 15.26c-.07.1-.14 1.27-.19 3.54l-2.88-.08v-3.52h-1.6c-.65-.94-1.26-1.9-1.84-2.88l3.44-.08v-5.12c0-4.64 0-5.2.24-5.68.56-1.2 1.6-1.84 3.2-2 1.36-.08 2.88.4 3.52 1.12.8.8.8 1.28.72 10.08v8l-3.12.08c0-2.33-.08-3.53-.25-3.58l-1.24.12Zm-8.59 19.7c-.64-.56-.56-1.52.24-1.92.4-.16.48-.16.8 0 .64.32.8.8.64 1.36-.24.64-1.12.96-1.6.56h-.08Zm-9.6-2.24c-.24-.16 0-.56.32-.88.24-.16.24-.08.24.4 0 .64-.08.8-.56.48Zm19.12-.88c-.08-.64.08-.56.48-.08.4.4.4.4 0 .64-.32.16-.4.16-.48-.4v-.16Zm-24.24-1.28c-.16-.24-.16-.32 0-.56 0-.16.24-.24.32-.24.24 0 .72.56.56.8-.08.32-.56.32-.8 0h-.08Zm30.4-2.48c-.48-.64-.4-1.28.32-1.68.48-.24 1.12-.16 1.36.32.8 1.12-.8 2.4-1.6 1.36h-.08Zm-5.6-20.72c0-4.48 0-4.64-.24-4.8-.4-.32-1.12-.24-1.2.08l-.08 9.44h1.44l.08-4.72Z"/><g stroke="#000" stroke-width=".4" paint-order="fill markers stroke"><path fill="#978369" d="M40.53 5.08v30.11H10.08c-.1-5.37 1.15-8.75 1.67-9.82.46-1.9 1.49-3.53 2.44-5.24 1.5-2.73 3.41-5.1 4.9-6.23 2.06-2.5 4.7-4.24 7.8-5.71a32.43 32.43 0 0 1 13.64-3.12Z"/><path fill="none" d="M9.94 35.16c0-4.18 1-8.44 2.85-12.39C17.38 13 27.26 5.15 40.45 5.15l.01 2.78.09 27.27-30.61-.04Zm30.52-27.2c-.55.95-16.07-1.89-28.21 16.02"/><path fill="none" d="M40.25 10.41c-10.23 1.56-14.32 3.08-18.05 5.97S11.72 26.55 10.36 35.31"/><path fill="none" d="M40.45 12.82c-7 .92-13.56 4.24-15.6 5.65-2.26 1.55-8.96 7.6-11.98 16.67"/><path fill="none" d="M38.74 14c-3.59 1.26-11.33 7.19-12.35 8.28-.88.94-7.3 6.56-9.56 12.8M40.49 15.4c-8.73 7.7-11.62 10.92-16.69 19.68m16.72-16.33c-4.65 5.41-6.35 9.57-10.08 16.44m10.08-8.95c-1.78 3.84-1.98 5.72-3.01 9"/><path fill="none" d="M37.97 5.15c-1.25 4.8-1.25 7.17 2.48 10.76m-9.01-9.48c-1.64 6.03-1.8 11.46 9.01 15.85m-16.9-12.04c-.16 3.09.25 9.1 3.11 12.33 3.71 4.2 8.66 5.79 13.81 6.82M18.68 14.26c-1.51 10.22 4.33 16.62 17.74 20.94m-24.95-9.04c1.4 4.33 2.69 6.12 8.47 9.04"/></g></svg>