<svg id="e7BcSuMKVt21" xmlns="http://www.w3.org/2000/svg" xmlns:xlink="http://www.w3.org/1999/xlink" viewBox="0 0 400 75" shape-rendering="geometricPrecision" text-rendering="geometricPrecision"><path d="M0,0h43v60.48h-43" transform="translate(1 0)"/><path d="M22.2,59.91L2.7,59.84l-.84-2.18h39.14q1.55,2.28,1.01,2.28l-19.8-.07Z" transform="translate(1 0)" fill="#8c7a62"/><path d="M40.14,58.16L39.67,2.25l.8-.77q.6-.6,1.89-.78v29.57c0,23.55-.04,29.57-.2,29.57" transform="translate(1 0)" fill="#c0a385"/><path d="M1.28,58.4q-.04-.17.4-56.02q38.98-.12,38.81.04c-.34.3-.34.44-.3,28.03l.03,27.72h-19.08M37.3,3.72h-29.44L4.36,7.21v29.44h32.94" transform="translate(1 0)" fill="#e9c29b"/><text dx="0" dy="0" font-family="&quot;Arial&quot;" font-size="6" font-weight="700" transform="translate(7.38 43.110001)" stroke-width="0"><tspan y="0" font-family="&quot;Arial&quot;" font-size="6" font-weight="700" font-style="normal" stroke-width="0"><![CDATA[
THE HTML
]]></tspan><tspan x="0" y="6" font-family="&quot;Arial&quot;" font-size="6" font-weight="700" font-style="normal" stroke-width="0"><![CDATA[
  WRITERS
]]></tspan><tspan x="0" y="12" font-family="&quot;Arial&quot;" font-size="6" font-weight="700" font-style="normal" stroke-width="0"><![CDATA[
   GUILD
]]></tspan></text><path d="M0.67,30.27v-29.57h41.56l-.84.84-.8.84h-38.91v55.44l.98,1.01.9,1.01h-2.89v-29.57Z" transform="translate(1 0)" fill="#f6e6b4"/><path d="M5.32,7.63h3.02v-3.02h12.7c13,0,14.69.1,10.48.6-.43.03-2.72.57-3.6.91l-1.1.34-.94.33c-2.78,1.1-5.4,2.18-7.8,4.33-1.51,1.35-2.87,2.22-4.8,4.64-1.921058,2.497851-3.576661,5.189044-4.94,8.03C7.067588,27.045474,6.396712,30.50489,6.36,34v1.54h-1" transform="translate(1 0)" fill="#f6e6b4"/><path d="M5.36,7.08c0-.07,2.23-2.01,2.3-2.01q.07,0,.07,2.01" transform="translate(1 0)" fill="#f6e6b4"/><path d="M163.95,12.48l7.36,25.04l7.36-25.04h20v2.48L191.07,28c2.512798.736204,4.655423,2.393167,6,4.64c1.378015,2.378438,2.070276,5.0921,2,7.84v-.08c0,3.68-.96,6.8-2.96,9.36-1.778266,2.458593-4.646166,3.892543-7.68,3.84-2.269184.012827-4.463054-.813436-6.16-2.32-1.844129-1.624863-3.201149-3.729629-3.92-6.08l4.16-1.76c.499443,1.398349,1.321711,2.659159,2.4,3.68.957386.88496,2.216308,1.371362,3.52,1.36c1.44,0,2.64-.8,3.6-2.4c1-1.72,1.5-3.69,1.44-5.68c0-2.48-.48-4.4-1.6-5.76-1.12-1.6-3.04-2.4-5.6-2.4h-2.08v-2.4l7.12-12.24h-8.64l-10.87,36h-.48L163.72,28l-7.6,25.6h-.48L143.48,12.48h5.36l7.28,25.04l4.96-16.8-2.4-8.24h5.27Zm55.76-.24l.8,5.28-3.04,5.84c0,0-1.12-2.48-3.12-3.84-1.6-1.2-2.72-1.44-4.32-1.12-2.16.48-4.64,3.04-5.6,6.24-1.36,3.76-1.36,5.6-1.36,7.2-.08,2.8.32,4.4.32,4.4s-1.84-3.44-1.84-8.48c0-3.6.56-6.88,2.24-10.08c1.44-2.8,3.6-4.48,5.6-4.72c1.759441-.061969,3.466712.603577,4.72,1.84c1.0116,1.019935,1.873508,2.178124,2.56,3.44l3.04-6ZM220.03,42l.8,4-.8,1.36c-.56.9-1.2,1.76-1.92,2.56-.73.77-1.53,1.47-2.4,2.08-1.77814,1.212765-3.963823,1.672909-6.08,1.28-3.28-.64-5.36-3.12-6.48-4.64-1.12-1.6-2-3.44-2.24-4-.48-1.04-1.2-3.44-1.2-3.44l2.16,3.6c.871957,1.14548,1.89452,2.168043,3.04,3.04c1.209736.857029,2.610167,1.406218,4.08,1.6c1.618326.237438,3.270298-.042557,4.72-.8c1.76-.8,3.36-2.4,4.16-3.36s2.16-3.36,2.16-3.36v.08ZM87.05,60.56c-7.67424-.428166-14.86349-3.889522-19.984094-9.621598s-7.752492-13.264636-7.315906-20.938402c.412764-7.686741,3.868869-14.89287,9.604863-20.026557s13.279851-7.772469,20.965137-7.333443c7.684907.412817,14.889449,3.867528,20.022848,9.601324s7.773424,13.275065,7.337152,20.958676c-.412817,7.684907-3.867528,14.889449-9.601324,20.022848s-13.275065,7.773424-20.958676,7.337152h-.07Zm.07-1.6l.64-.4c.48-.56.56-1.6.16-2.16-.17-.2-.4-.33-.64-.4h-.4c-.8-.08-1.44.4-1.44,1.36-.08.64.16,1.2.64,1.44.24.16.72.16,1.04.16Zm3.44,0c.605743-.225821,1.016077-.793976,1.04-1.44c0-1.04-.72-1.68-1.6-1.6-.48.08-.8.32-1.04.8-.32.56-.16,1.52.32,1.92l.48.32h.8Zm-6-.8l-1.69-.32.82-.32c.8-.16.87-.32,1.03-.56c0-.16.08-.48,0-.64c0-.48-.64-.8-1.28-.8-.48,0-.8.16-.88.48v.4c.16.16.32.16.48,0l.08-.24c0-.32,0-.4.4-.4.1-.03.22-.03.32,0c.24.16.32.24.32.56.049132.156228.049132.323772,0,.48-.24.24-.32.32-.88.48l-1.04.48-.16.24v.16l2.4.48.08-.48Zm9.04.4c.48-.08.8-.4.96-.8.16-.32,0-.72-.16-.96-.16-.16-.32-.24-.64-.24h-.24l.16-.16c.32-.16.48-.4.48-.8.016613-.36288-.213353-.691402-.56-.8-.354791-.065444-.721287-.00906-1.04.16-.24.08-.48.32-.56.48-.16.32,0,.8.32.72.24-.08.32-.32.16-.56v-.24c0,0,.24-.24.4-.24.4-.08.64.08.64.56.08.48,0,.8-.56.8l-.16.08.08.24h.56c.24,0,.4,0,.48.32.08.16.16.56.08.72-.059942.164803-.172375.305344-.32.4-.241684.143755-.534636.17305-.8.08v-.24c0-.24,0-.24-.16-.32l-.24-.08c-.24,0-.32.24-.16.56c0,.08.16.24.4.32h.88Zm-3.68-5.28c8.91566-.442402,16.640734-6.323631,19.44-14.8c3.141327-9.55641-.677263-20.020412-9.235339-25.307401s-19.62462-4.018692-26.764661,3.067401c-4.079304,4.054506-6.373129,9.568501-6.373129,15.32s2.293825,11.265494,6.373129,15.32c4.347643,4.408109,10.377868,6.738631,16.56,6.4ZM72.08,52l.8.56c-.21-.59-.3-.9-.24-.96l.72-.48h-1.04L72,50.24l-.32.88h-.88l.72.56c-.07.27-.15.54-.24.8l.8-.48Zm33.84,0l.8.56c-.21-.59-.27-.9-.16-.96l.64-.48h-.96l-.32-.88-.24.88h-.96l.72.56-.24.88.72-.56Zm8.16-10.88v-.08l-.72.4-1.76-.64l2.88-.88.4-.96-.32.16c-.24.24-2.06-.42-2.4-.56-.16,0-.3-.21-.4-.64l-.48,1.28.48-.32h.4l1.76.64-2.96.96c-.1,0-.19.08-.24.24l1.28.48l1.36.48c.16.1.27.35.32.72l.4-1.28Zm-47.52.32l-.48-1.2c-.16,0-.16,0-.08.24c0,.32,0,.32-.56.32h-.32l-.4-1.04.72-.56.4.32c-.18-.7-.4-1.4-.64-2.08l-.08-.64h-.16v.24l-.16.32c-.09322.076807-.202622.131508-.32.16l-2.16.4l2.64-1.68c-1.7-.35-2.72-.56-3.04-.64l2.4-.48c.16,0,.32.48.48.48v-.08l-.24-1.44c-.1,0-.16.16-.16.48-.87.2-1.75.35-2.64.48-.16,0-.16,0-.24-.24c0-.08-.08-.16-.24-.08l.16,1.04l2.56.48-2.08,1.36.16,1.2h.16c.1-.32.19-.5.24-.56l2.4-.48.32.24v.16l.08.16c0,.24,0,.32-1.28,1.44l-1.2,1.12c0,.08,0,.16.16.16h1.6c1.6,0,1.6,0,1.84.32l.16.08Zm47.76-3.52c.42-.13.76-.41.96-.8.16-.32.24-.8.08-1.2-.32-1.2-2.16-1.6-3.04-.72-.353439.383859-.497498.915948-.385993,1.425686s.464565.933083.945993,1.134314c.443133.231433.956873.288515,1.44.16Zm1.44-5.12c-.1,0-.21.13-.32.4h-1.36c-1.07-.1-1.6-.32-1.6-.64l-.16,1.52.4-.48l1.36.08c1.44.08,1.36.08,1.36.4c0,.16,0,.24.16.24l.16-1.52Zm-54.31.8c.010432-.084526.03763-.16612.08-.24c1.87-.05,2.8-.03,2.8.08c0,.24.08.24.16.24h.08v-2.8h-1.04c0,.16,0,.16.24.24.32.16.48.32.48.48.05.32.05.64,0,.96c0,.05-.43.1-1.28.16v-.64c0-.08.24-.24.4-.24.08,0,.16,0,.16-.16v-.08h-.4c-.213295.00569-.426705.00569-.64,0h-.32v.16l.16.08c.32.08.4.24.4.72v.16h-1.28v-.32c0-.56,0-.64.16-.8l.24-.16.16-.16c0-.16,0-.16-.48-.16h-.4l.08,2.64c.16,0,.24-.05.24-.16Zm54.4-1.44l-.08-2.88h-.96l.72.64v.56h-2.72c-.05,0-.19-.16-.4-.48v1.6c.21-.32.37-.48.48-.48l2.72-.08v.56c-.48.27-.72.45-.72.56h.96ZM64.57,30.48l.08-1.44h-.16l-.16.4h-.56c-.64-.08-.64,0-.64-.24v-.16l1.2-.64.48-.24v-.96l-.16.08c-.03.09-.56.46-1.6,1.12v-.16c-.049216-.173625-.130629-.336452-.24-.48-.17228-.162967-.403043-.249503-.64-.24l-.32.08c-.24.16-.32.32-.4.56s-.32,1.84-.24,1.92l.24-.16c0-.16.08-.24.24-.24l2.56.32.08.32.24.16Zm48.16-1.44l2.8-1.68v-.24l-.88-.24c-2.48-.48-2.4-.48-2.56-.8c0-.08-.08-.08-.16,0l.16,1.2.16-.43.88-.05.24,1.2-.8.4-.32-.32c.05.46.13.91.24,1.36l.24-.4ZM65.2,26.4c.16-.56.16-.72.08-.8l-.32.4c-.891195-.129321-1.77305-.316381-2.64-.56l-.24-.48-.16.72-.16.8.24-.16c.16-.32,0-.32,1.44,0l1.36.24.25.56.16-.72h-.01Zm46.8-.64c0-.24,0-.32.16-.4.82-.25,1.65-.46,2.48-.64.21.27.35.37.4.32l-.32-1.44-.24.48-2.56.8c-.16-.32-.3-.48-.4-.48l.32,1.44c0,.08,0,.08.16,0v-.08ZM65.05,24.8c.32-.08.72-.4.8-.8.32-.56.24-1.12-.16-1.6l-.16-.16-.16.16.16.16c.24.24.24.4.24.8v.32c-.24.48-.8.72-1.36.56-.481822-.078202-.928345-.301463-1.28-.64-.4-.4-.32-1.04.16-1.28.23-.1.47-.16.72-.16h.16c.08-.16.08-.16,0-.16l-1.04-.4v.32l-.08.16c-.559322.611375-.559322,1.548625,0,2.16.56.56,1.28.8,1.92.56h.08Zm47.2-1.04l-.16-.08c-.4-.08-.56-.16-.8-.4-.48-.72,0-1.6,1.12-1.92h1.04c.48.24.64.72.48,1.12l-.56.56c-.08,0-.08.08,0,.16v.08l1.12-.48-.16-.16-.08-.24c.056295-.684034-.329949-1.327774-.96-1.6h-.8c-.56,0-.96.24-1.28.56s-.48.64-.48,1.12c0,.24,0,.4.16.64.24.48.64.8,1.2.8.16,0,.16,0,.16-.16ZM66.89,21.44c-.1-.05-.19-.05-.24,0-.16.24-.24.32-.32.24l-.56-.56.48-.96h.4c.48,0,.48,0,.48.16l.08.4l1.44-2.4h-.32l-.24.24-.48-.16-1.52-1.04l3.36-.08.16-.24c-1.65-1.17-2.48-1.81-2.48-1.92v-.4l-.8,1.04.24.08c.32-.32.32-.32,1.52.48l.56.4-3.12.16-.48.8h.24c.08-.16.32-.24.4-.24.1,0,.8.48,2.08,1.44v.32c-.08.24-.24.48-.48.48-1.068528-.052868-2.13554-.132894-3.2-.24l-.08.16.8.96c1.44,1.52,1.44,1.52,1.36,1.84v.16h.08l.64-1.12Zm44.4-.88c.64-.24,1.12-.8,1.28-1.28.211782-.81386-.242625-1.652766-1.04-1.92h-.88c-.4,0-.8.32-1.12.64-.344949.417098-.45564.980316-.294196,1.496936s.573132.916596,1.094196,1.063064h.96Zm-2.4-2.88c.24-.08.56-.4.56-.56v-.96c-.24-.56-.24-.8,0-.96.08-.16.16-.24.32-.24.32,0,.56.32.56.64c0,.24,0,.4-.24.64v.4l.4-.32.48-.4v-.08c-.08,0-.16-.08-.16,0l-.16-.16c0-.4-.08-.48-.32-.72l-.32-.24h-.8c-.214821.131648-.382756.327572-.48.56l.08.96.16.48c0,.24-.16.4-.24.56-.24.16-.48.16-.8,0-.32-.4-.32-.8,0-1.36.08-.16.08-.24,0-.32l-.88.72c.08.08.08.16.16.08l.16.24c.16.48.48.8.8,1.04h.72Zm-1.76-2.24c.16,0,.48-.32.56-.48v-.32c0-.24,0-.32-.32-1.04-.16-.4-.08-.64.16-.8c0-.08.08-.16.32-.16.16,0,.24.08.4.24.24.24.16.56,0,1.04l-.16.24.16.16.8-.8v-.08l-.24-.08-.08-.08c0-.24-.24-.48-.4-.64-.183154-.204778-.445267-.321273-.72-.32-.251806,0-.488916.118555-.64.32-.16.16-.24.32-.24.64l.24.72c.16.48.16.64.08.8c0,.16-.24.4-.32.4-.24.08-.4,0-.64-.16-.16-.24-.24-.32-.24-.64c0-.24,0-.32.16-.56l.16-.24-.16-.08-.88.72.08.08.16.08.16.16c.08.24.24.48.48.64.32.32.8.4,1.12.24Zm-36.4-3.28l2.24,1.28.16-.16c-.44-.95-.87-1.91-1.28-2.88l-.16-.48-.72.72c.37-.05.61-.03.72.08l.88,1.84-2.32-1.2-.16.16l1.04,2.24-1.84-1.04.08-.56-1.04.96c.34-.05.56-.05.64,0l2.64,1.6.16-.16-1.04-2.4Zm34.4,1.92v-.16c-.04237-.07388-.069568-.155474-.08-.24l.88-3.28-3.28,1.52c-.08-.08-.16-.08-.16,0h-.08l.96.8h.08l-.24-.56c.43-.32.8-.37,1.12-.16l.48.4-.32.8.08.56.48.4.08-.08ZM76.65,10.8l-.48-.88c-.05.05-.08.37-.08.96-.24.24-.8.64-.96.64l-.8-1.12c.56-.4.64-.4.96-.08h.16L74.73,9.2l-.16.24c.1.21-.05.48-.48.8L73.45,9.2c.53-.37.82-.55.88-.56l.72.16c-.1-.26-.23-.5-.4-.72-.739667.506258-1.460169,1.039963-2.16,1.6.32-.1.5-.1.56,0c.500672.706002.980872,1.426302,1.44,2.16l-.16.53l2.32-1.57Zm24.4.08c.32,0,.88-.56.88-.88s-.08-.48-.32-.8c-.56-.64-.56-.72-.56-.88l.24-.48c.32-.16.8,0,.88.4v.96c.16,0,.16,0,.48-.56l.24-.4c-.1-.053333-.22-.053333-.32,0-.4-.56-.72-.8-1.12-.8s-.72.24-.8.56c-.088906.116194-.144247.254545-.16.4c0,.32.16.48.48.96.32.4.4.48.4.72s-.24.48-.4.56c-.348283.057773-.687078-.145504-.8-.48-.16-.16-.16-.16-.16-.48c0-.19-.03-.38-.08-.56l-.48.88-.08.16.4.08c.24.32.64.56.96.64h.32ZM78.89,9.6c.4-.48.4-1.12-.08-1.36-.12418-.060783-.261994-.088346-.4-.08h-.48l.08-.08c.24-.24.24-.4.24-.64c0-.4-.24-.72-.72-.72-.691234.200593-1.361112.468544-2,.8l.16.24c0,.05.13.03.4-.08l1.2,2.4-.24.48l1.84-.96Zm20-.08l-.4-1.6h.24c.4,0,.64-.08.8-.4l.08-.32c.004905-.315895-.144341-.614387-.4-.8l-1.76-.72c0,.03.07.2.24.48-.3.84-.65,1.67-1.04,2.48l-.4.16l1.28.56c0,0-.24-.4-.24-.48l.24-.96.48.16.4,1.6.8.32-.32-.48ZM81.05,8.88l-.24-.16c-.24,0-.32-.08-.4-.24l-.72-2.24l1.92,2.4.32-3.04c.48,1.65.64,2.53.48,2.64l-.16.24l1.44-.4c-.37-.1-.59-.24-.64-.4l-.64-2.4.32-.48-1.04.24-.24,2.56c-.529684-.669578-1.063025-1.336255-1.6-2L78.73,6c.37.05.59.13.64.24l.64,2.24c0,.24,0,.32-.24.4l-.08.24l1.36-.24ZM96.09,7.76c-.48.37-.77.56-.88.56l-.88-.24c-.16-.08-.16-.16,0-.8l.16-.56h.4c.24.16.32.24.32.48l.08.24h.08c.15-.42.25-.84.32-1.28l-.24.08c0,.16-.16.32-.32.32l-.56-.16.24-1.2.96.24.48.72.16-.8-2.48-.56.32.48-.64,2.48-.48.24l2.64.64.32-.88ZM84.56,8l.11-1.14l1.17-.14.59.91.85-.11-.48-.24L86,5.84c-.23-.46-.47-.91-.72-1.36l-.56.08c-.43,2.13-.7,3.23-.8,3.28L83.85,8h.71Zm7.68-.16c0-.16,0-.16-.24-.16-.32-.16-.32,0-.16-1.52L92,4.8h.24c.32,0,.4.08.48.24l.16.4.16.16.16-.56v-.32L90.32,4.4l-.08.88h.08l.16-.08c.08-.24.32-.4.4-.48h.64c-.1.94-.23,1.87-.4,2.8h-.24l-.24.08v.16l.64.08.8.08h.16v-.08ZM89.05,7.6c.24,0,.48-.32.56-.56.1-.26.1-.54,0-.8-.08-.24-.32-.32-.96-.64-.56-.16-.64-.32-.72-.56c0-.32.24-.64.64-.56.32,0,.56.24.72.72c0,.24,0,.24.16.24l.08-.16v-1.04h-.16c-.06165.005051-.118969.033711-.16.08c0,.08,0,.08-.16,0-.3-.12-.65-.12-.96,0-.24,0-.4.24-.56.4v.4c0,.32,0,.48.24.64.16.16.24.24.8.4.32.16.4.16.48.32.24.32.24.8-.08.96h-.8c-.16-.16-.4-.4-.48-.8c0-.16-.08-.16-.16-.16h-.16v1.04c.4.16,1.36.24,1.68.08ZM86.47,58.64c-.32-.08-.48-.4-.48-.96c0-.88.32-1.6.8-1.6.32,0,.56.32.72.64.08.4.08.8,0,1.2l-.32.64c-.2.17-.48.2-.72.08Zm3.52,0c-.4-.16-.72-.96-.56-1.6c0-.56.24-.8.64-.88.32,0,.64.24.8.72v1.12c0,.24-.16.56-.32.64-.180571.067467-.379429.067467-.56,0ZM77.03,25.04l-.96-.72-.96-.24v-.8h7.76v.8c-1.12.21-1.7.37-1.76.48v.72c.97,2.83,1.96,5.66,2.96,8.48l3.2-10.4h2.24c2.36,6.58,3.67,10.2,3.92,10.88l2.56-9.44c0-.32-.56-.56-1.6-.72h-.56v-.8h5.84v.8h-.16c-.6.1-1.15.39-1.6.8-1.616631,4.330872-3.190042,8.677755-4.72,13.04v.08h-2.08L87.27,27.2L83.75,38h-2.08L77.03,25.04ZM63.68,40.8l.96-.8.32.8h-1.28Zm49.84-3.44c-.72-.16-1.12-.48-1.28-.88c0-.32,0-.64.24-.8.24-.32.56-.4,1.12-.4.8,0,1.36.4,1.6.8v.4c0,.4-.16.64-.56.8l-1.12.08ZM61.6,29.2v-.24c0-.32.04-.49.2-.57.24-.32.84-.15,1.08.17.08.16.16.32.08.56v.24L61.6,29.2Zm51.92-2.24l1.2.24-1.12.64-.08-.88ZM64.64,20l1.28.08-.4.8-.88-.88Zm45.44.08c-.237408-.042129-.443151-.189089-.56-.4-.162914-.38671-.067067-.834.24-1.12.35-.38.8-.65,1.28-.8l.8.08c.4.24.56.72.4,1.12-.16.48-.88,1.04-1.6,1.2h-.56v-.08Zm-5.92-8.48c.35-.25.75-.3,1.14-.48l-.42,1.04-.72-.56ZM77.68,9.84l-.56-1.2.24-.08c.56-.24.96-.16,1.12.32.08.24.08.48,0,.64-.16.24-.64.4-.8.32ZM76.8,7.92l-.32-.56.24-.16c.48-.16.72-.16.88.24.24.4.08.8-.4.96h-.16l-.24-.48ZM97.68,7.6l.48-1.36.16.08c.48.16.64.32.64.64c0,.4-.4.8-.8.8l-.48-.16ZM85.03,5.2l.56,1.12-.88.16.32-1.28ZM70.75,39.12l1.04-.16c.592844-.206711,1.08108-.637508,1.36-1.2l4.08-9.6h.24l.24.64.24.8-1.84,4.64h3.76l.32,1.2h-4.56c-.5,1.23-.82,2.1-.96,2.64c0,.32,0,.4.24.56.24.24.8.4,1.52.48h.32v.96h-6.08v-.48l.08-.48Zm28,.48v-.48h.4c.8-.16,1.28-.32,1.44-.48l.08-.16-1.28-3.2h-4.8l.4-1.04h3.92l-1.92-4.96l1.44-3.68h.48l.56.08c1.704413,4.059115,3.357876,8.139435,4.96,12.24l.4.56.64.4.96.24h.16v.88h-7.92v-.48l.08.08ZM272.03,60.32c-6.714373-1.067641-12.850118-4.432405-17.36-9.52-2.75-3.16-5.62-9.16-5.76-10.68-.12-.33-.25-.85-.43-1.57-.56-2.06-.9-4.18-1-6.32v-1.03h.04v-.63c.180592-8.039993,3.714606-15.638273,9.747035-20.956535s14.013742-7.872034,22.012965-7.043465c9.484964.691111,18.017257,6.020052,22.8,14.24c2.313834,4.050972,3.57881,8.615886,3.68,13.28v1.44h-.04v1.81c-.070847,2.284301-.437227,4.549809-1.09,6.74c0,.18-.02.27-.15.3-.02.37-.12.88-.29,1.39-.719421,1.796106-1.575254,3.534516-2.56,5.2-1.742924,2.696383-3.872299,5.122254-6.32,7.2-4.069132,3.307523-8.966151,5.437865-14.16,6.16-3,.3-6.03.3-9.04,0h-.08ZM258.11,39.44c.56,1.76,2.64,4.72,4.72,6.64c3.7,3.6,8.67,5.62,13.84,5.6c5.4.08,10.61-2.06,14.4-5.92c1.4-1.41,2.6-3.01,3.55-4.75l.54-1.34c.968224-2.22618,1.510914-4.614016,1.6-7.04l.12-1.14v-1.01c-.12-2.75-.8-5.44-2-7.92-1.448937-2.810207-3.497146-5.268058-6-7.2-1.809533-1.257452-3.772027-2.279025-5.84-3.04-2.712636-.853762-5.569318-1.153034-8.4-.88-9.8.99-17.47,8.9-18.16,18.72l-.08,1.36h-.04v1.35c.13,1.88.89,4.2,1.44,6.04.1.1.22.3.31.53Zm20.32,17.92c.638086-.386323,1.008162-1.095635.96-1.84-.16-.56-.8-1.2-1.44-1.44-1.04-.24-2.4.64-2.4,1.76c0,.96.96,1.84,1.92,1.84.32,0,.8-.08,1.04-.24l-.08-.08Zm-3.68-.16c.64-.72.4-1.36-.8-1.92l-.48-.4c0-.24.4-.32.8-.16.24.16.8.08.8-.16s-.8-.64-1.28-.64c-.56,0-1.04.48-1.04,1.04c0,.32.8,1.12,1.12,1.12.24,0,.48.32.4.56s-.8.24-1.12,0c-.16-.32-.4-.32-.72-.16-.16.16-.16.24.08.48.64.72,1.6.8,2.24.24Zm8-.4c.88-.72.48-1.12-.48-.56-.48.24-.56.32-.96.08-.32-.16-.48-.32-.64-.8-.08-.4,0-.56.24-.88.32-.32.48-.4.96-.32c1.04.08,1.36-.48.4-.72-.694084-.16971-1.425984.04376-1.92.56-.64.64-.64,1.6-.08,2.4.67.72,1.77.83,2.56.24h-.08Zm-11.2,0c.32-.16.48-.96.24-1.36-.178297-.223276-.395032-.412919-.64-.56-.32-.24-.48-.4-.48-.56c0-.24.56-.24.8,0h.48c.64-.16-.24-.96-1.12-.96-.48,0-1.04.64-1.04,1.04c0,.08.32.56.72.88.64.64.72.8.56.88-.24.24-.96,0-1.12-.32-.16-.24-.8-.16-.8.08l.48.56c.48.48,1.36.64,1.92.32Zm13.36-.48l-.48-1.68c-.48-1.44-.56-1.6-.8-1.6-.16,0-.32.02-.48.08l.56,1.76c.48,1.52.48,1.6.8,1.6l.4-.16ZM268.6,54.4c0-1.76,0-1.84-.32-2-.32,0-.56.16-1.6,1.28-1.2,1.2-1.36,1.36-1.04,1.44h.56c.56-.32,1.6.16,1.6.64c0,.16.08.4.24.4.48.24.56.16.56-1.76Zm17.6,1.44c.15-.12.24-.3.24-.48c0-.32.08-.4.64-.64.56-.16.8-.24.88-.08.24.16.96,0,.96-.16c0,0-.56-.64-1.36-1.28-1.2-1.2-1.36-1.28-1.68-1.12s-.4.24-.32.8l.08,1.84c0,.72.08,1.28.16,1.28l.32-.16h.08Zm4-2.16c.24-.16.08-.4-.48-1.36L289,51.2l.4-.32c.32-.24.4-.32.24-.48c0-.16-.24-.24-.24-.24l-2.24,1.28.16.32c.24.32.24.32.56.16.08-.16.32-.24.4-.24s.48.48.8,1.12c.72,1.12.88,1.28,1.2.88h-.08Zm-26.56-.8c.08-.16.16-.48.08-.64c0-.32,0-.4.24-.48.16,0,.4-.24.48-.48.24-.48-.08-.96-.96-1.52l-.56-.4-2.16,2.88.8.56c1.04.64,1.68.72,2.08.16v-.08Zm28.64-.48c.16-.24.08-.4-.8-1.6-.35209-.493454-.754226-.949208-1.2-1.36l-.32.16c-.24.24-.16.32.8,1.6.35.48.72.94,1.12,1.36l.4-.16Zm-32.24-1.76c-.56-.56-.64-.8-.32-1.04l.8.4c.4.48.48.48.72.24s.24-.24-.32-.8c-.48-.48-.48-.56-.32-.8.24-.08.32,0,.8.4.56.56.56.56.8.24.13-.13.19-.21.1-.38c0,.02-.02.04-.03.05s-.16,0-.24-.16l-.16-.32.15.08-.3-.31c-.276112-.315314-.600064-.585274-.96-.8l-1.28,1.36-1.2,1.28.96.8c.8.8.92.72,1.28.32l-.48-.56Zm34.56-.32c.48-.48.56-.64.56-1.28c0-1.92-2.48-2.48-3.44-.8-.4.8-.32,1.44.32,2.08.48.56.64.64,1.28.64s.8-.08,1.28-.64Zm-35.84-2.4l1.6-.72c0,0,0-.16-.24-.32-.16-.16-.32-.16-1.12.16-.308833.119426-.6313.200043-.96.24l.56-.8c.56-.8.56-.8.4-1.04-.24-.24-.32-.24-1.2.08l-.43.14c.03.02.07.05.11.1.08,0,.08.07,0,.07L257,46c-.22,0-.24,0-.05-.19l-.11.04.56-.88c.56-.8.64-.96.48-1.12l-.32-.24c-.16,0-2.08,2.8-2.08,2.96l.16.32c.24.16.48.08,1.12-.16.31-.14.63-.25.96-.32l-.48.8c-.4.56-.56.8-.48,1.04c0,.16.16.32.24.32l1.76-.64Zm38.08,0c.08-.24,0-.32-.72-.8-.297885-.202864-.566987-.445056-.8-.72l1.36-.08c.96,0,1.36,0,1.52-.24.24-.32.08-.4-1.36-1.44-.96-.8-1.28-.8-1.44-.72-.32.32-.24.4.64,1.04l.8.64h-.48c-1.28,0-2.4.16-2.48.4-.16.24.08.48,1.2,1.28.47.35.95.67,1.44.96l.32-.32Zm.28-26.72c.24-.16.24-.24-.16-.8-.155721-.254873-.289534-.5225-.4-.8l1.36-.8l1.44-.96c.08-.16-.24-.8-.4-.8-.24,0-3.6,2.08-3.6,2.16.34.81.8,1.57,1.36,2.24l.32-.24h.08ZM257.36,20l-3.52-2-.32.4c-.24.32-.24.32.4.72l3.12,1.68.32-.8Zm1.12-1.44l-2.08-1.68l3.32-.16.52-.56-1.44-1.12-1.6-1.28c-.16-.08-.32,0-.48.16l-.32.32l2,1.6h-1.6c-1.44,0-1.76.16-1.92.4-.24.24-.24.32-.08.48c1.017871.828363,2.058262,1.628664,3.12,2.4l.56-.56Zm37.68-2c1.04-2,1.04-2,.8-2.32-.32-.24-.4-.24-2.56.4l-2.16.8.32.4c.32.32.4.32.64.16.32-.08.4,0,.96.56.56.64.64.8.48,1.04-.16.32-.16.48,0,.72l.4.24l1.12-2ZM262.24,14.4l-2.08-2.56c0-.08.16-.32.4-.48l.4-.32-.64-.64-2.4,2.08c-.08.08.32.64.48.64.198559-.032713.373435-.149297.48-.32.4-.32.4-.32,1.76,1.2.88,1.04.88,1.04,1.2.8l.4-.4Zm30.96-1.12l1.28-1.68-.32-.24c-.12-.13-.26-.24-.4-.32s-.48.48-.8,1.04l-.8.96v-1.6c0-1.28-.08-1.6-.32-1.84l-.32-.32c-.16,0-2.64,3.2-2.64,3.36s.4.48.56.48l.96-1.04.8-1.04v1.76c0,1.44,0,1.76.32,1.92l.32.24l1.36-1.68ZM266,11.84c0,0,0-.24-.16-.4l-.24-.32-1.6.96-.32-.32c-.24-.32-.24-.4.56-.88s.8-.48.56-.8l-.32-.4-.72.48c-.56.32-.8.4-.88.32-.32-.32-.24-.56.56-1.04s.8-.56.48-.96c-.16-.24-.24-.24-1.28.4l-1.2.8c-.16.24,2,3.6,2.16,3.6l2.4-1.44Zm22.16-.4c.732448-.412604,1.212111-1.162078,1.28-2c0-1.04-.64-1.84-1.84-2.24-.48-.16-.64-.16-1.2.08-2,.8-2.08,3.2-.16,4.16.56.32,1.2.32,1.92,0Zm-20.64-.24l-.16-.56c-.32-.8-.32-.8,0-.88.24-.08.56,0,.96.32.64.56.8.56,1.28.24l.4-.16-.8-.48c-.48-.4-.72-.64-.64-.8.4-.8.16-1.6-.64-2-.56-.24-.8-.24-2,.4l-.8.32l1.44,3.6c.16.32.16.4.56.24l.4-.24Zm16-.96l.56-2.08c.22-.66.41-1.32.56-2l-.48-.08-.48-.16-.56,2c-.201886.689146-.388597,1.382647-.56,2.08c0,.16.96.32.96.24ZM271.28,9.6l-.24-1.28c-.080462-.314883-.133988-.636042-.16-.96l1.36,1.04c1.04.88,1.28,1.04,1.6,1.04.4-.08.4-.16.32-.56l-.72-3.6h-.48c-.4-.08-.48,0-.4.16.08.48.4,2.16.32,2.24l-1.28-.96c-.96-.88-1.28-1.04-1.6-.96l-.32.16.8,4c0,.08.24.16.48,0c.24,0,.32-.08.32-.32Zm9.76-.96l.24-1.6.16-.8.56.08c.48.08.56,0,.64-.24v-.48c-1.028166-.229219-2.070481-.389575-3.12-.48l-.16.4c0,.4,0,.4.56.48.48.08.56.16.48.48l-.16,1.28L280,9.12c-.08.32,0,.4.16.48.64.16.8,0,.88-.96Zm-2,.56l-.8-2.16c-.64-1.6-.8-2-1.12-2.08-.48-.08-.64.08-1.04,1.12l-.8,2-.56,1.12h.56c.32,0,.48,0,.56-.24.16-.4.24-.4,1.2-.4.72.08.8.16.96.48.08.24.24.32.56.32.24,0,.48,0,.48-.16Zm15.23,6.55l.64-.24c1.04-.4,1.04-.4.56.48l-.4.56-.8-.8Zm-7.92-5.04c-.48-.32-.8-1.12-.48-1.68.24-.56,1.04-.96,1.6-.8c1.04.4,1.28,1.6.48,2.24-.56.48-.96.56-1.6.24ZM266.51,8.8c-.24-.64-.24-.8.32-.96.4-.16.48-.16.8.08.32.32.24.64-.24.96-.64.32-.64.32-.88-.08Zm10.08-1.6l.32-.8.24.64.32.64c0,.08-.24.16-.56.16h-.64l.32-.72v.08Zm-13.2,14.64h3.12l.11,18.65h-3.2l-.03-18.65Zm-.48,29.44c-.22-.07-.17-.28.02-.31v-.24c.16-.24.24-.24.48-.16.4.24.4.8-.08.8-.123079.006041-.245102-.025337-.35-.09h-.07Zm4.83-29.43c0-.1,1.12-.16,3.36-.16l1.14,6.84c.24,1.04,1.7-7.54,1.97-8.85.14-1.13,2.32,9.13,2.32,8.73.39-2.2.84-4.39,1.36-6.56c0-.08,3.12-.08,3.12,0-1.395639,7.219917-2.88911,14.420579-4.48,21.6l-2.08-9.28c-.06-.06-1.5,6.35-2.25,9.51l-4.46-21.83Zm17.7,15.26c-.07.1-.14,1.27-.19,3.54l-2.88-.08v-3.52h-1.6c-.65-.94-1.26-1.9-1.84-2.88l3.44-.08v-5.12c0-4.64,0-5.2.24-5.68.56-1.2,1.6-1.84,3.2-2c1.36-.08,2.88.4,3.52,1.12.8.8.8,1.28.72,10.08v8l-3.12.08c0-2.33-.08-3.53-.25-3.58l-1.24.12Zm-8.59,19.7c-.64-.56-.56-1.52.24-1.92.4-.16.48-.16.8,0c.64.32.8.8.64,1.36-.24.64-1.12.96-1.6.56h-.08Zm-9.6-2.24c-.24-.16,0-.56.32-.88.24-.16.24-.08.24.4c0,.64-.08.8-.56.48Zm19.12-.88c-.08-.64.08-.56.48-.08.4.4.4.4,0,.64-.32.16-.4.16-.48-.4v-.16Zm-24.24-1.28c-.16-.24-.16-.32,0-.56c0-.16.24-.24.32-.24.24,0,.72.56.56.8-.08.32-.56.32-.8,0h-.08Zm30.4-2.48c-.48-.64-.4-1.28.32-1.68.48-.24,1.12-.16,1.36.32.8,1.12-.8,2.4-1.6,1.36h-.08Zm-5.6-20.72c0-4.48,0-4.64-.24-4.8-.4-.32-1.12-.24-1.2.08l-.08,9.44h1.44l.08-4.72Z" transform="translate(1 0)" fill="#fff"/><g transform="matrix(.5 0 0 0.5 38.139999 23.76)" paint-order="fill markers stroke"><path d="M-1.28,-37.37v60.23h-60.9c-.21-10.74,2.3-17.5,3.33-19.64.92-3.8,2.98-7.05,4.88-10.48c3.02-5.46,6.83-10.21,9.8-12.46c4.12-5,9.42-8.47,15.6-11.42c9.35-4.46,19.7-6.33,27.29-6.23Z" paint-order="fill markers stroke" fill="#978369" stroke="#000" stroke-width="0.8"/><path d="M-62.46,22.8c0-8.37,1.99-16.89,5.7-24.78c9.17-19.55,28.93-35.25,55.32-35.25l.02,5.56.18,54.55-61.22-.08Zm61.04-54.4c-1.11,1.9-32.14-3.78-56.42,32.03" paint-order="fill markers stroke" fill="none" stroke="#000" stroke-width="0.8"/><path d="M-1.84,-26.7c-20.46,3.11-28.65,6.15-36.11,11.93s-20.96,20.35-23.67,37.89" paint-order="fill markers stroke" fill="none" stroke="#000" stroke-width="0.8"/><path d="M-1.44,-21.88c-14,1.84-27.13,8.48-31.2,11.29-4.52,3.1-17.92,15.2-23.97,33.34" paint-order="fill markers stroke" fill="none" stroke="#000" stroke-width="0.8"/><path d="M-4.87,-19.51c-7.17,2.5-22.66,14.37-24.69,16.54-1.77,1.9-14.59,13.13-19.12,25.61m47.31-39.37c-17.46,15.4-23.23,21.85-33.37,39.37M-1.3,-10.03C-10.61,0.8,-14,9.12,-21.46,22.86M-1.3,4.96c-3.57,7.68-3.97,11.44-6.03,18.01" paint-order="fill markers stroke" fill="none" stroke="#000" stroke-width="0.8"/><path d="M-6.4,-37.23c-2.5,9.6-2.5,14.35,4.96,21.52m-18.02-18.95c-3.28,12.05-3.6,22.91,18.02,31.7m-33.8-24.09c-.33,6.19.5,18.2,6.22,24.67c7.42,8.4,17.31,11.57,27.62,13.63M-44.98,-19c-3.03,20.43,8.66,33.24,35.48,41.88M-59.41,4.8c2.8,8.66,5.39,12.24,16.95,18.08" paint-order="fill markers stroke" fill="none" stroke="#000" stroke-width="0.8"/></g></svg>
