<svg xmlns="http://www.w3.org/2000/svg" width="200" height="200"><path d="M20.19 39.5V1.7h53.76v75.6H20.19V39.5Z"/><path d="M23.65 5.82H66.5v42.42H24.07"/><path d="m47.95 76.59-24.4-.09-.5-.59a2.1 2.1 0 0 1-.55-1.34v-.8h48.93q1.93 2.86 1.26 2.86l-24.74-.09Zm-16.21-30.7.92-2.02.76-1.6 1.43 1.43c1.42 1.39 1.47 1.47 1.26 2.02-.26.5-.3.54-2.44.54-1.97 0-2.1 0-1.93-.38Z" fill="#8c7a62"/><path d="M28.63 45.68v-.55c.08-.42.16-.68.3-1.18.08-.76.47-1.55 1.3-4.36.71-1.56.38-1.43 1.35 0 1.13 1.48 1.3 1.21.92 2.64-1.56 3.45 0 0-1.56 3.49 0 .17-.33.25-1.26.25-.75 0-1.05-.13-1.05-.3Zm7.9.08c.22-.63 0-.63.67-.34 2.68.95 2.88.73.13.65-.84 0-.8 0-.8-.31Zm1.26-.63c-.09-.04-.57-.32-.55-.67.75-1.9 2.41-4.39 5.04-8.2l1.98 1.77 2.52 2.31c.71.46.71.46.3 1.1q-.26.29-1.77 2.77c-.21.33-.55.84-.72 1.21l-.29.5h-2.52a11.2 11.2 0 0 1-3.99-.79Zm7.56.71c-.13-.12 2.06-3.6 2.4-4.11.37-.69.02-.67 1.09 0l2.56 1.38c1.05.55 1.93 1.01 1.97 1.1.04.04-.08.46-.3.92l-.37.84h-3.61a37.8 37.8 0 0 1-3.74-.13Zm8.27.09c.18-.52.43-1 .76-1.43l.42.21 1.39.63c.54.25 1 .46 1 .55-1.18.14-2.38.16-3.57.04Zm1.77-1.72c-.67-.3-.72-.38-.59-.93a53.84 53.84 0 0 0 1.8-3.4c1.27-2.44 1.27-2.94 1.81-2.69.04.17 3.57 1.3 3.78 1.39.17.12.5.25.72.33s.33.21.25.34-.34 1-.63 2.06c-1.39 4.79-1.35 4.66-1.85 4.62m1.34-.25c0-.3.26-1.05 1.6-4.88l.5-1.5.63.24.63.21v6.22H63.7c-1.34 0-1.68-.04-1.68-.3Zm-27.97-3.62-.54-.63.5-1.13c1.35-3 3.29-5.95 5.42-8.44-.2.62 2.25 3.65 2.35 3.99.05.16-.26.25-.65.88-1.54 1.91-2.54 3.86-3.76 6-.38.64-.8 1.43-.92 1.48s-.55-.47-1.01-.84Zm19.07 1.05-2.6-1.47c-1.9-1.13-1.9-1.13-1.64-1.68q.17-.29 4.07-5.37l.84.5c.42.3 1.39.84 2.1 1.18s1.26.71 1.26.8l-.5 1.09-2.1 4.03c-.5 1.13-.72 1.26-1.47.88Zm-24.49-1.68q.3-.91.97-4.87.63 1.09.82 1.26c.17.09-.53 1.26-.82 2.27l-.67 2.31c-.25.88-.42.76-.3-.97Zm4.42-.91c0-.26-2.1-2.07-1.73-3.33-.04-.02 6.64-9.85 6.76-9.83-.07.51-.03.6.05.98.15.75.51 1.39.71 1.96.25.6.3.6 0 1.14-.55 1-1.18 1.47-1.8 2.52-.71.75-2.48 3.86-4 6.56ZM46.69 39a58.73 58.73 0 0 1-3.9-3.36c0-.21 4.2-4.54 4.62-4.87l.59-.63 1.21 1.17 1.52 1.39c.16.12.63.46.96.8l.72.54-.8.93a38.77 38.77 0 0 0-3.66 4.91c-.08 0-.63-.42-1.26-.88Zm17.9-.38c-.26-.13-.42-.25 0-.8.2-.38.29-.84.42-1.09.16-1 .42-.63.33.63-.08 1.3-.25 1.64-.75 1.26Zm-3.4-.97c-1.85-.67-2.53-1.09-2.53-1.68 0-.16 3.36-5.75 3.87-6.46.33-.42.33-.42 1.6.16l1.25.63-.08 2.1a12.6 12.6 0 0 1-2.02 5.97l-2.1-.72Zm-5.47-2.43c-1.8-.97-2.1-1.18-2.1-1.51 0-.13.42-.76 1.01-1.35l1.6-1.89c1.51-1.85 2.64-3.1 3.15-3.1.54 0 2.14 1.38 2.3 1.38.51 0 .43.46-.29 1.43-.33.42-2.32 3.77-2.9 4.87-.16.46-.7 1.05-.96 1.05-.13 0-.97-.42-1.8-.84Zm-13.69-.5a15.37 15.37 0 0 1-2.1-3.45 27.57 27.57 0 0 1 4.66-4.7c1.1-1.14 1.01-1.47 1.98.92l.92 1.51c.3.34.21.5-1.38 2.1-.62.58-1.2 1.2-1.73 1.85 0 .21-1.72 2.1-1.89 2.1-.08 0-.29-.17-.46-.34Zm-11.84 0c.31-.69 1.13-3.44 1.4-3.95.83-1.23 3.4-4.43 4.35-5.55.62-.7.81-.88 1.3-1.43.44-.44.55-.12.55-.12.13.14.03.03.08.59-.1 1.2.47 1.26-1.34 3.86-.88 1.1-4.84 7.92-5.59 8.44-.16 0-1.34-.92-.75-1.85Zm18.65-5q-.42.08 6.72-5.59l3.1 2.69q-5 5.88-5.7 6.68Zm-9.45.37c-.38-.67-.89-2.64-.89-3.36 0-.5.21-.88.93-1.63.54-.55 4.16-3.38 4.37-3.49s.37-.34.46-.34c.2 0 .92 2.73 1.09 3.07.25.76.46.46-.55 1.26l-2.18 1.85c-.71.59-1.64 1.64-2.27 2.27-.71.71-.8.75-.96.37Zm24.94-1.05-1-.42a10.27 10.27 0 0 1 2.14-2.85c.08 1.22 0 2.22 0 3.48l-1.14-.2Zm-18.27-3.73c.87-.5 2.94-1.9 4.96-2.86l2.65-1.26c.6.75 1.13 1.6 1.42 2.48-.29.3-6.09 4.91-6.25 5.08-.89.63-.84 0-1.4-.8Zm-13.81 3.9c.08-.12.33-.97.63-1.51s1.46-2.2 1.81-2.6c.39-.33.62-.88.98-1.3s.85-1.1 1.36-1.77c.3-.3.8-.89 1.05-1.1 0 .23.02.63 0 .76-.04.67-.21.76-.71 1.43-.67.77-1.35 1.5-1.93 2.19-.9.87-2.1 2.55-3.24 3.94ZM61.94 28c-.17-.04-2.44-1.09-2.23-1.17.17-.09 1.43-1.26 2.78-2.56s2.39-2.23 2.52-2.23.37.21.37.8c0 1.05-.2 2.3-.75 2.77-.17.13-.72.76-.93.97s-1.09 1.6-1.26 1.55l-.46-.13Zm-3.07-2.01c-.84-.42-2.68-2.23-2.43-2.44 1.9-1.4 3.91-2.67 6-3.78.5-.01.72.13 1.26.55.42.46.55.84.47 1.09a58.06 58.06 0 0 1-4.62 4.79l-.68-.25ZM38.55 22.2l1.42-1.43c.7-.73 1.47-1.38 2.31-1.93.3-.25.84-.72 1.3-.97l.8-.5v.59c.05 1.34-.04 2.52-.2 2.56q-5.05 4.19-5.3 4.35c-.42.34-.5.27-.42-1.2Zm6.25-1.26c1.74-1.17 4.03-2.6 6.01-3.28 1.97-.59 2.1-.92 2.14.46 0 .42.17.68.17 1.39 0 .88.67 1.13-1.18 1.68-.63.3-4.9 2.73-5.54 3.15-.34.34-.38.04-.59-.55Zm11.13 2.14c-.16-.04-1.47-1.85-1.55-1.89-.13-.08 5.59-2.14 5.96-2.35a5.2 5.2 0 0 1 1.14-.25c.67-.38.71.26.71.58-1 .47-1.79 1.2-2.94 1.77-.2.12-2.94 2.27-3.32 2.14ZM38.5 20.9c0-.68.17-.97 1.52-2.31 1.42-1.39 4.07-3.7 4.28-3.7 0 0 .08.46.08 1 0 .85-.08 1.06-.46 1.27-1.22.8-2.38 1.72-3.44 2.73l-1.51 1.38-.47.42v-.8Zm6.3-2.31v-1.52l1.73-.88c2.1-1.04 3.19-1.44 3.65-1.59.6-.22.55-.17.55-.17.98-.28 1.5-.42 1.68-.42.54-.17.46-.05.37 1.22 0 .67-.12 1.3-.16 1.38-.06.06-.6.22-1.22.42-1.12.32-2.25.73-3.28 1.3-1.05.42-2.01 1.1-2.52 1.35l-.84.42v-1.51Zm8.9.84c-.33-2.06-.24-.97-.41-2.4 2.64-.42 7.9-1.51 7.9-1.38.04.46.2 2.01.29 2.1.17.16-1.43.5-2.23.71-.7.17-1.4.41-2.06.71-.42.21-1.97.72-2.1.93-1.47.8-1 .17-1.38-.67Zm9.46-.6c-.25-.24-.38-.5-.38-.5-.42-.12.59-.08 1.68-.2l.92-.05-.08.5c-.1.37-.2 1.02-.3 1.3-.09.74-.16.73-.96-.12Zm-.97-1.38c-.12-.3-.12-.25-.12-1.05 0-.92.04-1.09.42-1.09l1.68-.13 1.26-.12v2.3l-3.24.1M44.8 15.6c0-.5.13-1.05.3-1.17a80.64 80.64 0 0 1 6.5-3.4c.97-.42 2.02-.89 2.1-.76.1.04-.29 1.26-.41 1.85-.13 1.22-.09 1.17-3.11 2.1l-2.44.96-2.77 1.39c-.08 0-.17-.42-.17-.97Zm8.4-.46.17-1.3.5-.3c2.18-.38 4.35-.8 6.52-1.25l.8-.13v1.3c0 1.39 0 1.39-.64 1.47l-2.52.46c-1.18.18-2.36.42-3.52.72l-.97.25c-.34.13-.34.13-.34-1.22Zm8.45-3.02 1.63-.21 1.73-.25c.33-.09.37.08.37 1.38v1.39h-1.17c-.63.17-2.23.3-2.52.42m-7.86-2.23c0-.3.13-1 .34-1.6.38-1.17.17-1.09 3.1-1.8l1.52-.42c.38-.13 2.94-.38 3.07-.5.2-.34.16 0-.21 1.76-.21.84-.5 1.6-.63 1.6s-5.67 1.05-6.22 1.21l-.97.3v-.55Zm8.11-1.55c0-.34.34-.84.42-1.56l.21-1.38c.08 0 .71-.13 1.47-.17l1.34-.08v3.19h-.75c-.42 0-3.11.63-2.69 0Z" fill="#978369"/><path d="M71.76 75.45c-.63-.8-1-1.05-1.42-1.05h-.6V4.51l1.02-.96c.75-.76 1.17-.97 1.68-.97h.67v36.96c0 29.44-.04 36.96-.25 36.96-.13 0-.68-.46-1.1-1.05Z" fill="#c0a385"/><path d="M21.78 74.7c-.04-.21-.12-16.17-.12-35.5V4.06h24.78c13.65 0 24.78.04 24.78.17 0 .08-.21.3-.42.5-.42.38-.42.55-.38 35.03l.04 34.65H46.61c-21.21 0-23.9.04-23.65.34s.17.3-.38.3c-.38 0-.67-.13-.75-.34Zm45.03-47.76V6.36H30L27.88 8.6l-2.22 2.14v36.8H66.8V26.93Z" fill="#e9c29b"/><text dx="0" dy="0" font-family="&quot;Arial&quot;" font-size="6" font-weight="700" transform="matrix(1.21561 0 0 1.38923 28.17 55.59)" stroke-width="0"><tspan y="0"><![CDATA[THE HTML]]></tspan><tspan x="0" y="6"><![CDATA[ WRITERS ]]></tspan><tspan x="0" y="12"><![CDATA[     GUILD]]></tspan></text><path d="M21.03 39.54V2.58h51.95l-1.05 1.05-1 1.05H22.28v69.3l1.22 1.26 1.13 1.26h-3.61V39.54Z" fill="#f6e6b4"/><path d="M26.83 28.67V11.24h3.78V7.46H46.5c16.25 0 18.35.12 13.1.75-.54.04-3.4.72-4.49 1.14l-1.39.42-1.17.42c-3.47 1.37-6.75 2.72-9.75 5.41-1.89 1.69-3.6 2.77-6 5.8-1.09 1.25-1.4 2-1.7 2.4l-.38.54s-.52.7-.68.97a21.85 21.85 0 0 0-2.5 4.4c-.22.51-.8 1.34-.92 1.73a36.1 36.1 0 0 0-2.47 12.77v1.93h-1.26V28.67Z" fill="#f6e6b4"/><path d="M27.33 10.48c0-.09.54-.67 1.17-1.26s1.18-1.18 1.26-1.18.09.6.09 1.26v1.26h-1.26c-.67 0-1.26-.04-1.26-.12Z" fill="#f6e6b4"/><g fill="#e1e1e1"><path d="m29.07 110.84 9.2 31.3 9.2-31.3h6.6l-15.2 51.4h-.6l-9.5-32-9.5 32h-.6l-15.2-51.4h6.7l9.1 31.3 6.2-21-3-10.3h6.6Z"/><path d="M72.97 145.74c0 4.6-1.2 8.5-3.7 11.7a11.6 11.6 0 0 1-9.6 4.8 11.5 11.5 0 0 1-7.7-2.9 16.6 16.6 0 0 1-4.9-7.6l5.2-2.2a11.8 11.8 0 0 0 3 4.6 6.4 6.4 0 0 0 4.4 1.7c1.8 0 3.3-1 4.5-3a13.4 13.4 0 0 0 1.8-7.1c0-3.1-.6-5.5-2-7.2-1.4-2-3.8-3-7-3h-2.6v-3l8.9-15.3h-10.8l-3 5h-2v-11.4h25v3.1l-9.5 16.3a13 13 0 0 1 7.5 5.8 18.6 18.6 0 0 1 2.5 9.8Zm25.8-35.2 1 6.6-3.8 7.3s-1.4-3.1-3.9-4.8c-2-1.5-3.4-1.8-5.4-1.4-2.7.6-5.8 3.8-7 7.8-1.7 4.7-1.7 7-1.7 9-.1 3.5.4 5.5.4 5.5s-2.3-4.3-2.3-10.6c0-4.5.7-8.6 2.8-12.6 1.8-3.5 4.5-5.6 7-5.9a8 8 0 0 1 5.9 2.3 19 19 0 0 1 3.2 4.3l3.8-7.5Zm.4 37.1s-1.7 3-2.7 4.2-3 3.2-5.2 4.2a9.7 9.7 0 0 1-5.9 1 11.4 11.4 0 0 1-5.1-2 20 20 0 0 1-3.8-3.8l-2.7-4.5s.9 3 1.5 4.3c.3.7 1.4 3 2.8 5 1.4 1.9 4 5 8.1 5.8 4.1.7 6.9-1.1 7.6-1.6a20.7 20.7 0 0 0 3-2.6c.89-1 1.69-2.07 2.4-3.2l1-1.7-1-5Z"/></g><g fill="#fff"><path d="M147.32 75.7a36.2 36.2 0 0 1-34.1-38.2 36.2 36.2 0 0 1 38.2-34.2 36.2 36.2 0 0 1 34.2 38.2 36.2 36.2 0 0 1-38.2 34.2Zm.1-2 .8-.5c.6-.7.7-2 .2-2.7a1.7 1.7 0 0 0-.8-.5h-.5c-1-.1-1.8.5-1.8 1.7-.1.8.2 1.5.8 1.8.3.2.9.2 1.3.2Zm4.3 0a2 2 0 0 0 1.3-1.8c0-1.3-.9-2.1-2-2-.6.1-1 .4-1.3 1-.4.7-.2 1.9.4 2.4l.6.4h1Zm-7.5-.7v-.3l-1.1-.2-1.2-.3 1-.3c1-.2 1.3-.4 1.5-.7 0-.2.1-.6 0-.8 0-.6-.8-1-1.6-1-.6 0-1 .2-1.1.6v.5c.2.2.4.2.6 0l.1-.3c0-.4 0-.5.5-.5a.7.7 0 0 1 .4 0c.3.2.4.3.4.7a1 1 0 0 1 0 .6c-.3.3-.4.4-1.1.6l-1.3.6-.2.3v.2h.1l1.5.3 1.4.3.1-.3Zm11.3.2c.6-.1 1-.5 1.2-1 .2-.4 0-.9-.2-1.2-.2-.2-.4-.3-.8-.3h-.3l.2-.2c.4-.2.6-.5.6-1a1 1 0 0 0-.7-1 2 2 0 0 0-1.3.2c-.3.1-.6.4-.7.6-.2.4 0 1 .4.9.3-.1.4-.4.2-.7v-.3s.3-.3.5-.3c.5-.1.8.1.8.7.1.6 0 1-.7 1l-.2.1v.2l.1.1h.7c.3 0 .5 0 .6.4.1.2.2.7.1.9a1 1 0 0 1-.4.5c-.3.2-.7.2-1 .1v-.3c0-.3 0-.3-.2-.4l-.3-.1c-.3 0-.4.3-.2.7 0 .1.2.3.5.4h1Zm-4.6-6.6a27 27 0 0 0 24.3-18.5 27.2 27.2 0 0 0-45-27.8 27 27 0 0 0 0 38.3 27 27 0 0 0 20.7 8Zm-22.7-1.2.4-.4.5.4.5.3-.2-.6c-.2-.5-.2-.5-.1-.6l.5-.3.4-.3h-1.3l-.2-.6-.2-.5-.2.5-.2.6h-1.1l.2.2.7.5-.3 1 .5-.2Zm42.3 0 .4-.4.5.4.5.3-.2-.6c-.2-.5-.2-.5 0-.6l.4-.3.4-.3h-1.2l-.2-.6-.2-.5-.2.5-.1.6h-1.2l.3.2.6.5-.2.5-.1.6.5-.3Zm10.4-13.2.2-.8v-.1h-.2l-.4.5h-.3l-2.2-.8 1.8-.6 1.8-.5.5-1.2h-.2l-.2.2c-.3.3-.3.3-1.7-.2a35 35 0 0 1-1.3-.5c-.3 0-.3-.2-.3-.5v-.3h-.2l-.6 1.6h.1l.3-.1.2-.3h.5l2.2.8-3.7 1.2c-.2 0-.2.1-.3.2v.1l1.6.6 1.7.6c.3.2.3.3.3.6l.1.3.4-.8Zm-59.2-.4-.3-.8-.3-.7c-.2 0-.2 0-.1.3 0 .4 0 .4-.7.4h-.4l-.2-.6-.3-.7.9-.7.2.2c0 .2.1.2.2.2h.1a35.3 35.3 0 0 0-.8-2.6l-.1-.8h-.2v.3l-.2.4a1 1 0 0 1-.4.2l-2.7.5 1.6-1a67.2 67.2 0 0 0 1.7-1.1l-2-.4c-.6-.12-1.2-.26-1.8-.4l3-.6c.2 0 .3.1.4.4 0 .2 0 .2.2.2v-.1l-.3-1.8c-.2 0-.2 0-.2.3v.3a44 44 0 0 1-3.3.6c-.2 0-.2 0-.3-.3 0-.1-.1-.2-.3-.1l.2 1.1v.2h.2l3 .6-.2.2-2.4 1.5.1.8.1.7h.2v-.3c0-.2.2-.3.3-.4l3-.6.4.3v.2l.1.2c0 .3 0 .4-1.6 1.8l-1.5 1.4c0 .1 0 .2.2.2h2c2 0 2 0 2.3.4l.2.1Zm59.7-4.4a2 2 0 0 0 1.2-1c.2-.4.3-1 .1-1.5-.4-1.5-2.7-2-3.8-.9a2 2 0 0 0 .7 3.2c.55.29 1.2.36 1.8.2Zm1.7-4.7v-1l.1-.7c-.2 0-.2 0-.3.2l-.1.3h-1.7c-2-.2-1.8-.2-1.8-.6l-.1-.2h-.1l-.1.7v1l-.1.2h.1c.2 0 .2 0 .2-.2l.2-.4 1.7.1c1.8.1 1.7.1 1.7.5 0 .2 0 .3.2.3l.1-.2Zm-67.8-.7a.8.8 0 0 1 .1-.3l2.2-.1c1.3 0 1.3 0 1.3.2 0 .3.1.3.2.3h.1v-3.5h-1.3c0 .2 0 .2.3.3.4.2.6.4.6.6a4 4 0 0 1 0 1.2c0 .1-.1.2-.9.2h-.7v-.8c0-.1.3-.3.5-.3.1 0 .2 0 .2-.2v-.1h-.5a15 15 0 0 1-.8 0h-.4v.2l.2.1c.4.1.5.3.5.9v.2h-.5a14 14 0 0 0-.8 0h-.3v-.4c0-.7 0-.8.2-1l.3-.2.2-.2c0-.2 0-.2-.6-.2h-.5l.1 3.3h.1c.2 0 .2 0 .2-.2Zm68-1.8-.1-3.3v-.3h-1.2v.1c0 .1 0 .2.3.2l.6.5v.7h-3.4c-.1 0-.2-.1-.2-.4 0-.2 0-.2-.2-.2h-.1v2h.3v-.2c0-.3.1-.4.3-.4l3-.1h.4v.7l-.7.5c-.1 0-.2 0-.2.2h1.2Zm-64.1-2.1.1-1.6v-.2h-.2l-.2.5h-.7c-.8-.1-.8 0-.8-.3v-.2l1.5-.8.6-.3V34l-.2.1a.7.7 0 0 1-.3.4l-1.5 1h-.2v-.2a1.8 1.8 0 0 0-.3-.6 1.1 1.1 0 0 0-.8-.3l-.4.1c-.3.2-.4.4-.5.7s-.4 2.3-.3 2.4h.1l.2-.2c0-.2.1-.3.3-.3l3.2.4.1.4h.3Zm60-1.3v-.2l.2-.3 1.8-1.1 1.7-1V34a.7.7 0 0 0 0-.1l-1.1-.3c-3.1-.6-3-.6-3.2-1 0-.1-.1-.1-.2 0v.7l.2.8h.2v-.3c0-.3 0-.3.3-.3h.8l.3 1.5-1 .5-.2-.3-.1-.2c-.1 0-.2 0-.1.1a13 13 0 0 0 .3 1.7h.1Zm-59.2-3.8c.2-.7.2-.9.1-1l-.2.1c0 .3-.2.4-.2.4a26 26 0 0 1-3.3-.7l-.1-.3v-.3h-.2l-.2.9-.2 1h.1l.2-.2c.2-.4 0-.4 1.8 0l1.7.3v.5l.1.2h.2l.2-.9Zm58.5-.6v-.2c0-.3 0-.4.2-.5a38.4 38.4 0 0 1 3.1-.8l.2.2c.2.3.2.3.3.2l-.4-1.8h-.1l-.2.3v.3l-3.2 1-.3-.4c0-.2 0-.2-.2-.2l.1.9.3.9c0 .1 0 .1.2 0Zm-58.7-1.4c.4-.1.9-.5 1-1 .4-.7.3-1.4-.2-2l-.2-.2-.2.2.2.2c.3.3.3.5.3 1v.4c-.3.6-1 .9-1.7.7a3 3 0 0 1-1.6-.8c-.5-.5-.4-1.3.2-1.6a2 2 0 0 1 .9-.2h.2c.1-.2.1-.2 0-.2a89.5 89.5 0 0 1-1.3-.5v.4l-.1.2a2 2 0 0 0 0 2.7c.7.7 1.6 1 2.4.7Zm59-1.3-.2-.1c-.5-.1-.7-.2-1-.5-.6-.9 0-2 1.4-2.4h1.3c.6.3.8.9.6 1.4l-.7.7c-.1 0-.1.1 0 .2v.1l.7-.3.7-.3-.2-.2-.1-.3a2 2 0 0 0-1.2-2h-1c-.7 0-1.2.3-1.6.7s-.6.8-.6 1.4c0 .3 0 .5.2.8.3.6.8 1 1.5 1 .2 0 .2 0 .2-.2Zm-57-2.2.3-.7h-.1c-.1-.1-.1-.1-.2 0-.2.3-.3.4-.4.3l-.7-.7.3-.6.3-.6h.5c.6 0 .6 0 .6.2v.3l-.1.1h.1l.1.1.4-.8.9-1.5.5-.7h-.4l-.3.3-.6-.2-1.9-1.3 2-.1h2.2v-.2a.4.4 0 0 0 .2-.1l-1.4-1c-1.4-1-1.7-1.2-1.7-1.4v-.5l-.6.6-.4.7v.1h.3c.4-.4.4-.4 1.9.6l.7.5-3.9.2-.3.5-.3.4v.1h.3c.1-.2.4-.3.5-.3.2 0 .3.1 1.3.8l1.3 1v.4c-.1.3-.3.6-.6.6a78.9 78.9 0 0 1-4-.3l-.1.2 1 1.2c1.8 1.9 1.8 1.9 1.7 2.3v.2h.1l.4-.6Zm55.8-1.8c.8-.3 1.4-1 1.6-1.6a2 2 0 0 0-1.3-2.4h-1.1c-.5 0-1 .4-1.4.8a2 2 0 0 0 1 3.2h1.2Zm-3-3.6c.3-.1.7-.5.7-.7v-1.2c-.3-.7-.3-1 0-1.2.1-.2.2-.3.4-.3.4 0 .7.4.7.8 0 .3 0 .5-.3.8l-.2.3h.1l.1.2.5-.4.6-.5v-.1c-.1 0-.2-.1-.2 0l-.2-.2c0-.5-.1-.6-.4-.9l-.4-.3h-1c-.27.16-.48.4-.6.7l.1 1.2.2.6c0 .3-.2.5-.3.7-.3.2-.6.2-1 0-.4-.5-.4-1 0-1.7.1-.2.1-.3 0-.4l-.6.4-.5.5c.1.1.1.2.2.1l.2.3c.2.6.6 1 1 1.3h1Zm-2.2-2.8c.2 0 .6-.4.7-.6v-.4c0-.3 0-.4-.4-1.3-.2-.5-.1-.8.2-1 0-.1.1-.2.4-.2.2 0 .3.1.5.3.3.3.2.7 0 1.3l-.2.3.2.2.5-.5.5-.5v-.1l-.3-.1-.1-.1c0-.3-.3-.6-.5-.8a1.2 1.2 0 0 0-.9-.4 1 1 0 0 0-.8.4c-.2.2-.3.4-.3.8l.3.9c.2.6.2.8.1 1 0 .2-.3.5-.4.5-.3.1-.5 0-.8-.2-.2-.3-.3-.4-.3-.8 0-.3 0-.4.2-.7l.2-.3-.1-.1h-.1l-.6.4-.5.5.1.1.2.1.2.2c.1.3.3.6.6.8.4.4 1 .5 1.4.3Zm-44.8-2.5-.7-1.6 2.8 1.6.2-.2q-1.37-2.99-1.6-3.6v-.3c.2-.2.2-.2.1-.3h-.3l-.5.6-.4.3v.1l.2.1.1-.1c.3-.2.4-.2.6 0l1.1 2.3-1.4-.7-1.4-.8h-.1l-.2.2.6 1.3.7 1.5-.7-.3-1-.7-.6-.3v-.2l.2-.3v-.1l-.1-.1-.2.2-.6.6-.5.4h.3a.5.5 0 0 1 .5 0l3.3 2 .2-.2-.6-1.4Zm42.3.8v-.2a.8.8 0 0 1-.1-.3l.7-2.5.4-1.3V13h-.1l-.6.3-1 .6a20 20 0 0 1-2 1h-.4c-.1-.1-.2-.1-.2 0h-.1l1.2 1h.1v-.3l-.3-.4.4-.2c.5-.4.4-.4 1 0l.6.5-.4 1h-.3l-.2-.1v.3l.6.5.6.5.1-.1Zm-37-3.1 1.4-1-.6-1.1c-.1.1-.2.1-.1.4v.8c-.3.3-1 .8-1.2.8l-.6-.8-.4-.6c.7-.5.8-.5 1.2-.1h.2l-.9-1.4h-.2v.3c.2.4.1.5-.4.8l-.2.2-.4-.7-.4-.6.8-.6a.7.7 0 0 1 .3-.1l.6.2h.3a3.7 3.7 0 0 0-.5-.9 45 45 0 0 0-2.7 2h.3c.2-.2.3-.2.4 0a60.8 60.8 0 0 1 1.8 2.7l-.2.2c-.2.2-.2.2-.1.3l.1.16m33.8-1.96c.4-.2.7-.6.7-1s-.1-.6-.4-1c-.7-.8-.7-.9-.7-1.1l.3-.6c.4-.2 1 0 1.1.5v1.2c.2 0 .2 0 .6-.7l.3-.5h-.2c0-.1 0-.1-.2 0-.5-.7-.9-1-1.4-1s-.9.3-1 .7a1 1 0 0 0-.2.5c0 .4.2.6.6 1.2.4.5.5.6.5.9s-.3.6-.5.7a.9.9 0 0 1-1-.6c-.2-.2-.2-.2-.2-.6v-.7a.5.5 0 0 0-.1 0l-.3.5-.3.6-.1.2h.3l.2.1c.3.4.8.7 1.2.8h.8Zm-29.4-.7 1.3-.8c.5-.6.5-1.4-.1-1.7a1 1 0 0 0-.5-.1h-.6l.1-.1c.3-.3.3-.5.3-.8 0-.5-.3-.9-.9-.9-.3 0-.4 0-1.5.6l-1 .4.2.3q0 .1.5-.1l1.5 3-.3.4c-.1 0-.1 0 0 .1v.1l1-.4Zm26.7-.5-.4-.4-.5-2h.3c.5 0 .8-.1 1-.5l.1-.4c0-.3-.1-.7-.5-1l-2.2-.9a.4.4 0 0 0 0 .2l.3.4a35.2 35.2 0 0 1-1.3 3.1h-.5a.6.6 0 0 0 0 .2l1.6.7s.1-.2 0-.2l-.1-.2c-.2 0-.2-.1-.2-.2l.2-.7.3-.7h.1l.3.4.3 1.5.2.5.5.2.5.2c.1-.2.1-.2 0-.2Zm-23.5-1 .8-.2V11l-.3-.1c-.3 0-.4-.1-.5-.3l-.9-2.8 1.2 1.5c.39.51.79 1.01 1.2 1.5l.3-2 .1-1.8.4 1.5c.5 1.7.5 1.6.2 1.8h-.3l.1.3 1.8-.5V10c0-.2 0-.2-.3-.1-.3 0-.4 0-.5-.3l-.8-3 .3-.2c.1-.1.2-.1.1-.2V6l-.7.1-.6.2v.2l-.3 3-1-1.2a19 19 0 0 0-1-1.3l-1.4.4v.1l.3.1c.3 0 .4 0 .5.2l.8 2.8c0 .3 0 .4-.3.5l-.2.1.1.2.8-.2Zm19.4-1 .2-.6-.4.2c-.3.3-.5.5-.7.5l-1.1-.3c-.2-.1-.2-.2 0-1l.2-.7h.5c.3.2.4.3.4.6l.1.3h.1a9.5 9.5 0 0 0 .4-1.6l-.3.1c0 .2-.2.4-.4.4l-.7-.2.3-1.5 1.2.3.3.7c0 .2 0 .2.2.2h.1l.2-1-3.1-.7v.2l.4.4-.8 3.1-.3.1-.3.1v.1l3.3.8.2-.5Zm-14.2-.3.7-.1v-.2h-.2l-.3-.1-.1-.3v-.5l.1-.3.7-.1h.7l.3.4c.3.5.3.6 0 .7l-.3.1c0 .2 0 .2 1 0h.8v-.2l-.2-.1-.4-.2-1-1.8c-.29-.57-.59-1.14-.9-1.7h-.2l-.5 1.7-.5 2c0 .2-.3.4-.5.5l-.1.2h.9Zm9.6-.2c0-.2 0-.2-.3-.2-.4-.2-.4 0-.2-1.9l.2-1.7h.3c.4 0 .5.1.6.3l.2.5.2.2.2-.7v-.4l-1.8-.2-1.8-.2-.1 1.1h.1l.2-.1c.1-.3.4-.5.5-.6h.8a49.2 49.2 0 0 1-.5 3.5h-.3l-.3.1v.2l.8.1 1 .1h.2Zm-4-.3c.3 0 .6-.4.7-.7a1.4 1.4 0 0 0 0-1c-.1-.3-.4-.4-1.2-.8-.7-.2-.8-.4-.9-.7 0-.4.3-.8.8-.7.4 0 .7.3.9.9 0 .3 0 .3.2.3l.1-.2V5.3h-.2a.3.3 0 0 0-.2.1c0 .1 0 .1-.2 0a1.7 1.7 0 0 0-1.2 0c-.3 0-.5.3-.7.5v.5c0 .4 0 .6.3.8.2.2.3.3 1 .5.4.2.5.2.6.4.3.4.3 1-.1 1.2h-1c-.2-.2-.5-.5-.6-1 0-.2-.1-.2-.2-.2h-.2v.7c0 .8 0 .8.3.8l.1-.1h.3c.5.2 1 .2 1.4 0Z"/><path d="M146.62 73.3c-.4-.1-.6-.5-.6-1.2 0-1.1.4-2 1-2 .4 0 .7.4.9.8.1.5.1 1 0 1.5l-.4.8a.8.8 0 0 1-.9.1Zm4.4 0c-.5-.2-.9-1.2-.7-2 0-.7.3-1 .8-1.1.4 0 .8.3 1 .9v1.4c0 .3-.2.7-.4.8a1 1 0 0 1-.7 0Zm-10.4-25.7-4.1-12c-1.4-4.2-1.4-3.9-1.7-4.3l-1.2-.9-1.2-.3v-1h9.7v1h-.2c-1.2.2-1.9.4-2 .6v.9a921 921 0 0 0 3.7 10.6l3-9.4 1-3.6h2.8l1 3 2.5 6.8c.45 1.27.92 2.54 1.4 3.8l.5-1.5 2.7-9V31c0-.4-.7-.7-2-.9h-.7v-1h7.3v1h-.2a4 4 0 0 0-2 1 368.8 368.8 0 0 0-3.3 8.7l-.8 2.2-1.1 3.4-.7 2v.1h-2.6l-.6-1.5-2.4-6.7-1.8-5.3-.7 1.8-2 6.5-1.7 5v.2h-2.6Zm-22.3 3.4h-.2l.6-.6.6-.5v.1l.2.6.2.4h-1.4Zm62.1-4.3c-.9-.2-1.4-.6-1.6-1.1 0-.4 0-.8.3-1 .3-.4.7-.5 1.4-.5 1 0 1.7.5 2 1v.5c0 .5-.2.8-.7 1-.3.1-1 .2-1.4 0Zm-64.2-10.1-.7-.1v-.3c0-.4.1-.6.3-.7.3-.4 1-.2 1.3.2.1.2.2.4.1.7v.3h-.1l-.9-.1Zm64.4-1.8-.1-.6-.1-.5 1.5.3-.8.5-.6.3Zm-60.7-9.2-.6-.6 1.6.1-.5 1-.5-.5Zm56.2-.5a1 1 0 0 1-.7-.5c-.2-.5-.1-1 .3-1.4a3.6 3.6 0 0 1 1.6-1l1 .1c.5.3.7.9.5 1.4-.2.6-1.1 1.3-2 1.5h-.7Zm-7-10.2a6.5 6.5 0 0 1-.4-.4c.44-.31.91-.58 1.4-.8l-.3.8-.2.7-.4-.3Zm-33.5-2.6-.7-1.5.3-.1c.7-.3 1.2-.2 1.4.4.1.3.1.6 0 .8-.2.3-.8.5-1 .4Zm-1.1-2.4-.4-.7.3-.2c.6-.2.9-.2 1.1.3.3.5.1 1-.5 1.2h-.2l-.3-.6Zm26.4-.3-.3-.1.3-.9.3-.8.2.1c.6.2.8.4.8.8 0 .5-.5 1-1 1l-.3-.1ZM144.42 8l.2-.8.2-.7.4.7.3.7h-.4l-.5.2h-.2Z"/><path d="M126.42 49.7v-.6h.2l1.1-.2a3 3 0 0 0 1.7-1.5l.6-1.2 3.3-8 .8-1.7.4-1.1h.3l.3.8.3 1-.4 1.3-1.2 2.8-.7 1.7h4.7l.2.6.2.7v.2h-5.7l-.2.4c-.41.94-.75 1.9-1 2.9 0 .4 0 .5.3.7.3.3 1 .5 1.9.6h.4v1.2h-7.6v-.6Zm35 0v-.6h.5c1-.2 1.6-.4 1.8-.6l.1-.2-.8-2-.8-2h-6l.3-.8.2-.5h4.9l-.4-1.2-1.3-3-.7-2 1-2.3.8-2.3h.6l.7.1a658.5 658.5 0 0 1 6.2 15.3l.5.7.8.5 1.2.3h.2v1.1h-9.9v-.6Z"/></g><g fill="#fff"><path d="M143.6 172.48a36.7 36.7 0 0 1-21.7-11.9c-4-4.6-8.2-14-7-13.8.1-.2.7-.3 4.2-.3 5.1 0 6.3 0 6.3-.5 0-.7.5-.4.8.4.7 2.2 3.3 5.9 5.9 8.3a24.7 24.7 0 0 0 17.3 7 24.7 24.7 0 0 0 18-7.4 27.2 27.2 0 0 0 4.8-6.6l.5-1 3-.1 5.3-.2c1.8 0 2.2 0 2.5.2.1.2.3.3.5.3.3 0 .2 1.2-.2 2.4a47.4 47.4 0 0 1-3.2 6.5 41 41 0 0 1-7.9 9 35.9 35.9 0 0 1-17.7 7.7 58.5 58.5 0 0 1-11.3 0h-.1Zm8-3.7a2.5 2.5 0 0 0 1.2-2.3c-.2-.7-1-1.5-1.8-1.8-1.3-.3-3 .8-3 2.2 0 1.2 1.2 2.3 2.4 2.3.4 0 1-.1 1.3-.3l-.1-.1Zm-4.6-.2c.8-.9.5-1.7-1-2.4l-.6-.5c0-.3.5-.4 1-.2.3.2 1 .1 1-.2s-1-.8-1.6-.8c-.7 0-1.3.6-1.3 1.3 0 .4 1 1.4 1.4 1.4.3 0 .6.4.5.7s-1 .3-1.4 0c-.2-.4-.5-.4-.9-.2-.2.2-.2.3.1.6.8.9 2 1 2.8.3Zm10-.5c1.1-.9.6-1.4-.6-.7-.6.3-.7.4-1.2.1-.4-.2-.6-.4-.8-1-.1-.5 0-.7.3-1.1.4-.4.6-.5 1.2-.4 1.3.1 1.7-.6.5-.9a2.5 2.5 0 0 0-2.4.7c-.8.8-.8 2-.1 3a2.4 2.4 0 0 0 3.2.3h-.1Zm-14 0c.4-.2.6-1.2.3-1.7a3 3 0 0 0-.8-.7c-.4-.3-.6-.5-.6-.7 0-.3.7-.3 1 0h.6c.8-.2-.3-1.2-1.4-1.2-.6 0-1.3.8-1.3 1.3 0 .1.4.7.9 1.1.8.8.9 1 .7 1.1-.3.3-1.2 0-1.4-.4-.2-.3-1-.2-1 .1l.6.7c.6.6 1.7.8 2.4.4Zm16.7-.6-.6-2.1c-.6-1.8-.7-2-1-2-.2 0-.41.03-.6.1l.7 2.2c.6 1.9.6 2 1 2l.5-.2Zm-20.4-2.4c0-2.2 0-2.3-.4-2.5-.4 0-.7.2-2 1.6-1.5 1.5-1.7 1.7-1.3 1.8h.7c.7-.4 2 .2 2 .8 0 .2.1.5.3.5.6.3.7.2.7-2.2Zm22 1.8a.8.8 0 0 0 .3-.6c0-.4.1-.5.8-.8.7-.2 1-.3 1.1-.1.3.2 1.2 0 1.2-.2 0 0-.7-.8-1.7-1.6-1.5-1.5-1.7-1.6-2.1-1.4s-.5.3-.4 1l.1 2.3c0 .9.1 1.6.2 1.6l.4-.2h.1Zm5-2.7c.3-.2.1-.5-.6-1.7l-.9-1.4.5-.4c.4-.3.5-.4.3-.6 0-.2-.3-.3-.3-.3l-2.8 1.6.2.4c.3.4.3.4.7.2.1-.2.4-.3.5-.3s.6.6 1 1.4c.9 1.4 1.1 1.6 1.5 1.1h-.1Zm-33.2-1c.1-.2.2-.6.1-.8 0-.4 0-.5.3-.6.2 0 .5-.3.6-.6.3-.6-.1-1.2-1.2-1.9l-.7-.5-2.7 3.6 1 .7c1.3.8 2.1.9 2.6.2v-.1Zm35.8-.6c.2-.3.1-.5-1-2a11 11 0 0 0-1.5-1.7l-.4.2c-.3.3-.2.4 1 2 .42.6.89 1.16 1.4 1.7l.5-.2Zm-40.3-2.2c-.7-.7-.8-1-.4-1.3l1 .5c.5.6.6.6.9.3s.3-.3-.4-1c-.6-.6-.6-.7-.4-1 .3-.1.4 0 1 .5.7.7.7.7 1 .3.3-.3.3-.4-.6-1.3a5 5 0 0 0-1.2-1l-1.6 1.7-1.5 1.6 1.2 1c1 1 1.14.9 1.6.4l-.6-.7Zm43.2-.4c.6-.6.7-.8.7-1.6 0-2.4-3.1-3.1-4.3-1-.5 1-.4 1.8.4 2.6.6.7.8.8 1.6.8s1-.1 1.6-.8Zm-44.8-3 2-.9s0-.2-.3-.4c-.2-.2-.4-.2-1.4.2a5 5 0 0 1-1.2.3l.7-1c.7-1 .7-1 .5-1.3-.3-.3-.4-.3-1.5.1l-1.2.4.7-1.1c.7-1 .8-1.2.6-1.4l-.4-.3c-.2 0-2.6 3.5-2.6 3.7l.2.4c.3.2.6.1 1.4-.2a6 6 0 0 1 1.2-.4l-.6 1c-.5.7-.7 1-.6 1.3 0 .2.2.4.3.4l2.2-.8Zm47.6 0c.1-.3 0-.4-.9-1a5 5 0 0 1-1-.9l1.7-.1c1.2 0 1.7 0 1.9-.3.3-.4.1-.5-1.7-1.8-1.2-1-1.6-1-1.8-.9-.4.4-.3.5.8 1.3l1 .8h-.6c-1.6 0-3 .2-3.1.5-.2.3.1.6 1.5 1.6.57.43 1.17.83 1.8 1.2l.4-.4Z"/><path d="M149.72 168c-.8-.7-.7-1.9.3-2.4.5-.2.6-.2 1 0 .8.4 1 1 .8 1.7-.3.8-1.4 1.2-2 .7Zm-12-2.8c-.3-.2 0-.7.4-1.1.3-.2.3-.1.3.5 0 .8-.1 1-.7.6Zm23.9-1.1c-.1-.8.1-.7.6-.1.5.5.5.5 0 .8-.4.2-.5.2-.6-.5Zm-30.3-1.6c-.2-.3-.2-.4 0-.7 0-.2.3-.3.4-.3.3 0 .9.7.7 1-.1.4-.7.4-1 0Zm1-1.6v-.5c.2-.3.3-.3.6-.2.5.3.5 1-.1 1-.3 0-.5-.1-.6-.3Zm37-1.5c-.6-.8-.5-1.6.4-2.1.6-.3 1.4-.2 1.7.4 1 1.4-1 3-2 1.7Zm-21.3-13.7-1.3-6c-.2-.2-.2 0-.5 1.2 0 1-.1-2.1-.1-9 0-4.6.1-8.7.2-9 .18-3.6.5-.8.7-.3l1.1 5c1 4.1 1.2 5.4 1.2 4.9a141.8 141.8 0 0 1 1.7-8.2c0-.1.9-.2 2-.2 1 0 1.9.1 1.9.2a1016.9 1016.9 0 0 1-5.6 27l-1.3-5.6Zm8.6 2v-4.4h-2l-1.2-1.7a20 20 0 0 1-1.1-1.9l2.1-.1h2.2v-6.4c0-5.8 0-6.5.3-7.1.7-1.5 2-2.3 4-2.5 1.7-.1 3.6.5 4.4 1.4 1 1 1 1.6.9 12.6v10l-2 .1h-1.9v-2.2c0-2.1 0-2.2-.4-2.3-.4 0-1.1.1-1.3.1-.3 0-.3.4-.3 2.2l-.1 2.3h-1.9Zm5.7-14.2c0-5.6 0-5.8-.3-6-.5-.4-1.4-.3-1.5.1v6l-.1 5.8h1.8l.1-5.9Zm-29.38 4.5-.02-9.7h3l.88-.3.12 19.6h-4V138Zm9.38 5.1-2-9.3-2-9.5c0-.2.4-.3 2.1-.2h2.1l.5 2.5a71.2 71.2 0 0 1 .3 15.5q-.1 1-1 1Z"/><path d="M113.04 135.2a36 36 0 0 1 39.7-35 36 36 0 0 1 28.5 17.8 35 35 0 0 1 4.6 16.6v1.8h-11.1v-1.3c-.14-3.45-.99-6.82-2.5-9.9a27 27 0 0 0-7.5-9 32.4 32.4 0 0 0-7.3-3.8 26.5 26.5 0 0 0-10.5-1.1 25.3 25.3 0 0 0-22.7 23.4l-.1 1.7h-11.1v-1.2Zm62-11.7c.3-.2.3-.3-.2-1a6.6 6.6 0 0 1-.5-1l1.7-1 1.8-1.2c.1-.2-.3-1-.5-1-.3 0-4.5 2.6-4.5 2.7a11 11 0 0 0 1.7 2.8l.4-.3Zm-49.7-1c.2-.3.3-.4 0-.5l-4.4-2.5-.4.5c-.3.4-.3.4.5.9l2.3 1.3 1.6.8.4-.4Zm1-1.8c.3-.2.4-.4.4-.5l-1.3-1.1-1.3-1h2.3c2-.1 2.2-.1 2.4-.5l.1-.4-1.8-1.4a91.7 91.7 0 0 0-2-1.6c-.2-.1-.4 0-.6.2l-.4.4 1.2 1 1.3 1h-2c-1.8 0-2.2.2-2.4.5-.3.3-.3.4-.1.6a94.1 94.1 0 0 0 3.9 3l.4-.2Zm47.5-3c1.3-2.5 1.3-2.5 1-2.9-.4-.3-.5-.3-3.2.5l-2.7 1 .4.5c.4.4.5.4.8.2.4-.1.5 0 1.2.7.7.8.8 1 .6 1.3-.2.4-.2.6 0 .9l.5.3 1.4-2.5Zm-42.4-2.7-1.3-1.6-1.3-1.6c0-.1.2-.4.5-.6l.5-.4-.4-.4-.4-.4-1.5 1.3-1.5 1.3c-.1.1.4.8.6.8.1 0 .4-.1.6-.4.5-.4.5-.4 2.2 1.5 1.1 1.3 1.1 1.3 1.5 1l.5-.5Zm38.7-1.4 1.6-2.1-.4-.3c-.14-.17-.3-.3-.5-.4s-.6.6-1 1.3l-1 1.2v-2c0-1.6-.1-2-.4-2.3l-.4-.4c-.2 0-3.3 4-3.3 4.2s.5.6.7.6l1.2-1.3 1-1.3v2.2c0 1.8 0 2.2.4 2.4l.4.3 1.7-2.1Zm-35.5-.8 1.5-1s0-.3-.2-.5l-.3-.4-1 .6-1 .6-.4-.4c-.3-.4-.3-.5.7-1.1s1-.6.7-1l-.4-.5-.9.6c-.7.4-1 .5-1.1.4-.4-.4-.3-.7.7-1.3s1-.7.6-1.2c-.2-.3-.3-.3-1.6.5l-1.5 1c-.2.3 2.5 4.5 2.7 4.5l1.6-.8Zm29.2-1.6a3 3 0 0 0 1.6-2.4c0-1.3-.8-2.3-2.3-2.8-.6-.2-.8-.2-1.5.1-2.5 1-2.6 4-.2 5.2.7.4 1.5.4 2.4 0Zm-25.8-.2-.2-.7c-.4-1-.4-1 0-1.1.3-.1.7 0 1.2.4.8.7 1 .7 1.6.3l.5-.2-1-.6c-.6-.5-.9-.8-.8-1 .5-1 .2-2-.8-2.5-.7-.3-1-.3-2.5.5l-1 .4.8 2 1 2.5c.2.4.2.5.7.3l.5-.3Zm20-1.2.7-2.6a23 23 0 0 0 .7-2.5l-.6-.1-.6-.2-.7 2.5a65.4 65.4 0 0 0-.7 2.6c0 .2 1.2.4 1.2.3Zm-15.3-.8-.3-1.6c-.09-.4-.15-.8-.2-1.2l1.7 1.3c1.3 1.1 1.6 1.3 2 1.3.5-.1.5-.2.4-.7l-.5-2.5-.4-2h-.6c-.5-.1-.6 0-.5.2.1.6.5 2.7.4 2.8l-1.6-1.2c-1.2-1.1-1.6-1.3-2-1.2l-.4.2 1 5c0 .1.3.2.6 0 .3 0 .4-.1.4-.4Zm12.2-1.2.3-2 .2-1 .7.1c.6.1.7 0 .8-.3v-.6a29.6 29.6 0 0 0-3.9-.6l-.2.5c0 .5 0 .5.7.6.6.1.7.2.6.6l-.2 1.6-.3 1.7c-.1.4 0 .5.2.6.8.2 1 0 1.1-1.2Zm-2.5.7-1-2.7c-.8-2-1-2.5-1.4-2.6-.6-.1-.8.1-1.3 1.4l-1 2.5-.7 1.4h.7c.4 0 .6 0 .7-.3.2-.5.3-.5 1.5-.5.9.1 1 .2 1.2.6.1.3.3.4.7.4.3 0 .6 0 .6-.2Z"/><path d="m172 117.1-.5-.5.8-.3c1.3-.5 1.3-.5.7.6l-.5.7-.5-.5Zm-10.4-6.8c-.6-.4-1-1.4-.6-2.1.3-.7 1.3-1.2 2-1 1.3.5 1.6 2 .6 2.8-.7.6-1.2.7-2 .3Zm-24.8-2.4c-.3-.8-.3-1 .4-1.2.5-.2.6-.2 1 .1.4.4.3.8-.3 1.2-.8.4-.8.4-1.1-.1Zm12.6-2 .4-1 .3.8.4.8c0 .1-.3.2-.7.2h-.8l.4-.9Zm-16.1 21.5c-.4-.1-.5-.2-.4-1.6v-1.6h3.9v3.3h-1.6l-2-.2Zm-1 33.6c-.3-.1-.2-.4.1-.4.2 0 .2-.1.2-.2-.2-.3.2-.2.5 0 .3.5-.1.9-.7.6Zm-1.1-3.1-.2-.4.4.2c.1.2.2.3.1.4 0 0-.2 0-.3-.2Zm-6.3-3.8c.3-.2.4-.2.6 0 .1 0 .1.1 0 .1l-.6.2c-.3 0-.3 0 0-.3Zm18.1-6.8c-.8-4-1-5.3-.7-4.8q.4.7.7-14.2c.1-.1.3.1.4 1l.5 2.2c.3 1.3.2 1.8 1.5-5.1.35-1.81.71-3.54 1.1-5.34l.3 1.63.2.6c.1.2.1.3-.1.3q-.2 0-.3 15.7a467.3 467.3 0 0 1-2.7 12.2l-.9-4.2Zm28.8 1.2.8-2a24.3 24.3 0 0 0 2-8.8l.2-1.9h5.2l5.8.2v2.57c-.2 3.9-.9 7.22-1.36 8.42 0 .6-.2.4-2.6.1h-9.24l-.8 1.4Zm-45.9-1.6-11.15.7q0-.6-.51-2.5a37.86 37.86 0 0 1-1.24-7.9v-1.3l11.1.1v2c.2 3 1.7 6.9 2.3 9.3m33.9-7.5c-.1-.3 0-.3 1-.3.8 0 .9 0 .7.2q-.1.2 0 3.6h-.9c-.5 0-1 0-1-.2Z"/><path d="M132.9 126.6c.02.2 1 .17 2.2.17h1.7v2.2h-3.88m27.48-1.9v-3.4h1.4l.2.3c-.2 0-.2 2 0 2.6v.4c0 .2-1.4.3-1.6 0Zm-10.6-20.6c0-.1 0-.2.2-.2s.4 0 .4.2c0 0 0 .2-.2.2-.3 0-.4-.1-.4-.2Z"/></g></svg>