<svg width="1440" height="156" fill="none" xmlns="http://www.w3.org/2000/svg"><path d="M0 143V20l3 1h4l5-2c2-2 6-3 7-3l3-1v-2h5l1-1h5l1 1 2 1h13l13-1 3-1h4l2-3 2-2h6l2 1 3 1h14l-1-1h2l7-1h4l1 1 1 1v1l2 2 3 1h26l12 1h1l1 1v-1h1l4 1h6l1 1 1 2-1 1-1 1h2v1h-1 6l2 1 2 1h5l2-1 8-5h2v-1l1-1 5-5V9h2l-1-1V6h2l8-4 3-1 3-1h2l5 2 14 4h4l7 3a194 194 0 0 1 19 7l16 4 12 3 6 2 5 2h10l2 1 3-1h4l3 1 3 1v5h5l-1 1h-2 2l9 2 1 1-1 5-1 5h4l5-2 4-2 2 1h1-1l-1-1 4-1 5-2 1-1 4 1h34l7-2h4v-1h3l6-1 4-1-1-1h-2 7l9 1h1v-1h2l2-1 1 2 1 2-1 1h4l8 2 5 1h32l2-1 1-2h5v-1l1-1h8l4-2 5-1h2v-1l2-1 3-1v-1h6l3 2 6 2 2 1h7l1-2 3-4 3-3h1l6 1 7 1 4 1h15l6-1 12-3 6-1v-1l1-2 2-2 2-2h2l8 1 7 2 2-1 6-1 6-1 2 1h2l-1-1h1l7-1h6l1 2v2h2l2 1v2h4l4 1 1 1h5l2 1h2l1-1 6 1 7 1 3-2 7-2 3-1 3 2 3 2 4 2 4 2h11l3 2 4 1 4 1 4 1 1-1h9l2-1 4-1h24l13-1 2 1h2l-1-1-1-1 1 1c1 0 6-2 7-4v-1l3-1 2-1h4l5 1 14 2 5 1 6 1 7 2h15v2h4v-1h13l3-1 3-1 4-1h4l3 1 2 2 7 4 6 4 3-1h6c4 0 5 1 7 3l1 2 3 1 3 1h5v1h-1 2l1 2 1 2h30v-2l4-2h2l1-1 5 1 4 1h30l1 1 5 1h6l3-1 2-1 3-2 1-2 1-2 1-3 1-1h1l1 1 1-1h44l1-1h1l5-1h7l3-1-1 1h-1 5l8-1 3-1 2 1h1l-1-1 3-1 5-1h2l1-2 3-2 2-1h1l1-1 3 1 3 1h6a3539 3539 0 0 1 26 2l4 1 4-1h3v1h11l-1 1h-1 5l-1-1h2l3-1 2 1 2 1v1h-4 8l6 1v-1h-1 7v2h2l7 1 5 1 8-3 19-8-2-1-1-1 1-1h2l-1-1h-1l2-1 2-1h16l4-1 3-2 4-1v-2h2l2-1 4 1h3l2-1 2-1 8-1 1-1h2l1 1v-1l-1-1 1 1 2 1 8-2a236 236 0 0 1 12-2h3l2 1 2 1-1 1 2 1h2v2l6-1h6l2-1 1-1 7-3h2l3 1 4 1h17l7 1h2l1 127v128H0V143Z" fill="#A73A24"/></svg>