<svg xmlns="http://www.w3.org/2000/svg" viewBox="0 0 1440 156"><path fill="#a73a24" d="M0 143V20c15 4 25-14 39-6 15 2 28-2 40-7 13 8 26-7 35 5 19 2 39 0 55 4-3 9 19 7 27 1 7-10 11-15 25-17 32 8 64 23 97 27 17-3 16 10 26 9 1 13 12 12 20 7 18-5 41 1 58-5 10-4 18-3 29-2 8 9 32 5 46 6 11-5 25-5 36-11 10-2 25 11 32-5 18 5 40 4 56-3 9-11 27-1 40-5 11-8 17 7 30 7 12 4 25-3 36-1 11 7 26 8 38 10 18-2 38-3 56-2 1-9 25-8 37-4 14 3 28 5 40 4 14-3 27-5 38 7 18 0 35 14 31 10 14 6 30-1 43-2l49 2c8-14 20-12 35-11 9 2 41-4 36-2 15-1 22-1 34-9 19 1 43 4 62 4l21 3c6-1 27 6 39-5 9-7 8-10 29-10 10-7 22-5 34-9 6-1 31-4 39 2 13-4 25-5 40-3 21-2 14 30 18 43 1 72-1 37-1 108L1 163Z"/></svg>