<svg width="475" height="41" fill="none" xmlns="http://www.w3.org/2000/svg"><path d="M202.6 37.97h-1.85v.88h1.84v-.88Zm1.62-.39a.93.93 0 0 0-.25.56h1.63c-.03-.25-.11-.45-.25-.56a.75.75 0 0 0-.55-.19c-.25 0-.44.06-.58.2Zm1.4-.82c.25.1.47.3.64.52.14.22.25.47.28.75.02.16.02.4.02.71h-2.62c.03.36.14.6.39.77.14.09.33.14.52.14a.8.8 0 0 0 .53-.16.6.6 0 0 0 .2-.25h.96c-.03.22-.14.44-.36.66-.33.36-.78.52-1.35.52a1.9 1.9 0 0 1-1.27-.44c-.36-.3-.55-.77-.55-1.43 0-.63.16-1.1.5-1.43.32-.34.77-.5 1.29-.5.3-.03.58.03.83.14Zm-11.58.82a.94.94 0 0 0-.25.56h1.63c-.02-.25-.1-.45-.25-.56a.75.75 0 0 0-.55-.19c-.27 0-.44.06-.58.2Zm1.41-.82c.25.1.47.3.63.52.14.22.25.47.28.75.03.16.03.4.03.71h-2.62c.02.36.14.6.38.77.14.09.34.14.53.14a.8.8 0 0 0 .52-.16.6.6 0 0 0 .2-.25h.96c-.03.22-.14.44-.36.66-.33.36-.77.52-1.35.52a1.9 1.9 0 0 1-1.27-.44c-.36-.3-.55-.77-.55-1.43 0-.63.17-1.1.5-1.43.33-.34.77-.5 1.3-.5.27-.03.57.03.82.14Zm-5.18.82a.93.93 0 0 0-.25.56h1.62c-.02-.25-.1-.45-.24-.56a.75.75 0 0 0-.56-.19c-.24 0-.44.06-.57.2Zm1.4-.82c.25.1.47.3.64.52.13.22.24.47.27.75.03.16.03.4.03.71h-2.62c.03.36.14.6.39.77.13.09.33.14.52.14a.8.8 0 0 0 .52-.16.6.6 0 0 0 .2-.25h.96c-.03.22-.14.44-.36.66-.33.36-.77.52-1.35.52-.47 0-.9-.13-1.27-.44-.35-.3-.55-.77-.55-1.43 0-.63.17-1.1.5-1.43.33-.34.77-.5 1.3-.5.3-.03.57.03.82.14Zm8.11.14c.25.19.36.52.36.96v2.43h-.97v-2.21c0-.2-.02-.33-.08-.44-.08-.2-.28-.28-.52-.28a.7.7 0 0 0-.67.42c-.05.13-.08.33-.08.55v1.96h-.94v-3.62h.91v.53c.11-.2.25-.33.34-.39.19-.14.44-.22.74-.22.36.03.66.11.91.3Zm-11.11-.28h.08v.96c-.06 0-.11 0-.17-.02h-.1c-.4 0-.64.1-.78.35a1.3 1.3 0 0 0-.1.64v1.74h-.95v-3.62h.89v.64c.13-.25.27-.42.38-.5.17-.14.42-.22.7-.22.02.03.05.03.05.03Zm-3.92.33a.93.93 0 0 0-.58-.69 1.23 1.23 0 0 0-.55-.1c-.39 0-.72.13-.97.43-.24.3-.38.75-.38 1.33 0 .6.14 1.02.41 1.26.28.25.58.39.94.39.33 0 .63-.11.85-.3.22-.2.36-.44.42-.78h-1.13v-.82h2.04v2.62h-.66l-.11-.61c-.2.22-.39.39-.53.5-.27.16-.6.24-.99.24-.63 0-1.19-.22-1.6-.66-.44-.44-.63-1.07-.63-1.84 0-.8.22-1.44.66-1.9a2.28 2.28 0 0 1 1.74-.72c.63 0 1.13.16 1.48.46.39.3.58.72.67 1.19h-1.08Zm21.18-20.21-.25-1.55-5.16.83c.14.5.23 1.02.25 1.54l5.16-.82Zm-6.43-2.79 3.98-3.47-1.05-1.19-3.97 3.48c.41.35.74.74 1.04 1.18Zm-2.75-2.29 1.6-5.1-1.52-.47-1.57 5.08c.52.1 1.02.27 1.49.5Zm-4.11-.5-1.52-4.96-1.52.47 1.52 5a7 7 0 0 1 1.52-.5Zm-3.26 1.6-3.94-3.52-1.05 1.18 3.95 3.53c.3-.44.66-.83 1.04-1.18Zm-2 3.18-5.08-.77-.25 1.57 5.02.77a8.8 8.8 0 0 1 .3-1.57Zm13.37 13.76c1.93-1.55 2.59-4.06 2.73-7.03-2.95.16-4.75.93-6.15 1.82a8.8 8.8 0 0 0-1.96 1.65l-.03-2.15a6.07 6.07 0 0 0 4.14-3.86h-2.79a3.17 3.17 0 0 1-2.78 1.52c-1.41 0-2.54-1.05-2.95-2.35h8.71c.06-.41.14-.83.14-1.24a5.92 5.92 0 0 0-5.77-5.93 6.01 6.01 0 0 0-1.13 11.92l-.02 7.47a13.53 13.53 0 1 1 14.61-13.49c0 5.3-2.73 9.63-7.09 12.03l.34-.36Zm-3.67-12.63a3.1 3.1 0 0 0-3.06-2.6 3.3 3.3 0 0 0-3.12 2.6h6.18Zm-1.63 13.51V29.1a6.77 6.77 0 0 1 2.87-3.17 9.93 9.93 0 0 1 3.17-1.19 6.85 6.85 0 0 1-1.99 3.76c-.99.88-1.68 1.43-4.05 2.1Zm-1.52 2.01a14.6 14.6 0 1 1 0-29.23 14.6 14.6 0 1 1 0 29.23Zm0-30.44a15.86 15.86 0 1 0 0 31.72 15.86 15.86 0 0 0 0-31.72Z" fill="#fff"/><path d="M206.37 32.1c0-.64.55-1.16 1.24-1.16.7 0 1.24.52 1.24 1.16 0 .63-.55 1.16-1.24 1.16s-1.24-.53-1.24-1.16Z" stroke="#fff" stroke-width=".5"/><path d="M207.28 32.1h.39c.08 0 .14 0 .19-.03a.4.4 0 0 0 .11-.08c.03-.03.03-.09.03-.11 0-.06-.03-.11-.09-.17-.05-.05-.1-.05-.22-.05h-.44v.44h.03Zm-.2.77v-1.38h.61c.12 0 .22 0 .28.03.06.03.11.05.17.14a.6.6 0 0 1 .05.22.4.4 0 0 1-.08.25.62.62 0 0 1-.3.13c.05.03.08.06.1.06.06.05.12.1.14.2l.25.38h-.22l-.2-.28-.13-.2c-.03-.05-.06-.07-.08-.07-.03-.03-.06-.03-.09-.03h-.33v.6h-.16v-.05Zm100.58-12.38c-.58.44-1.46.77-5.93 1.35-1.76.25-4.58.77-4.58 3.47 0 2.32 1.2 3.72 3.9 3.72 3.33 0 6.61-2.15 6.61-5.01v-3.53Zm-13.12-3.95c.16-5.1 3.55-7.09 8.82-7.09 1.71 0 7.91.5 7.91 5.96v12.25c0 .9.45 1.26 1.2 1.26.32 0 .76-.08 1.18-.16v2.62c-.61.16-1.13.41-1.96.41-3.17 0-3.67-1.62-3.8-3.25a9.69 9.69 0 0 1-7.73 3.47c-3.92 0-6.7-2.48-6.7-6.15 0-1.79.52-5.95 6.48-6.7l5.93-.74c.86-.09 1.88-.42 1.88-2.54 0-2.23-1.63-3.47-5.02-3.47-4.09 0-4.67 2.48-4.91 4.1h-3.28v.03Zm45.28 2.49c-.2-3.31-1.6-6.37-5.96-6.37-3.3 0-5.93 3.06-5.93 6.37h11.89Zm3.42 5.65a9.23 9.23 0 0 1-3.8 5.85c-1 .66-2.38 1.46-5.8 1.46-5.98 0-9.54-4.53-9.54-10.7 0-6.62 3.17-11.89 10.23-11.89 6.15 0 9.18 4.91 9.18 12.44h-15.58c0 4.44 2.07 7 6.2 7 3.4 0 5.38-2.62 5.52-4.19h3.59v.03Zm-81.19-14.64h3.4v3h.07c.78-1.13 2.62-3.64 6.46-3.64 3.83 0 5.04 2.32 5.68 3.48 1.8-1.99 3.22-3.48 6.53-3.48 2.3 0 6.62 1.19 6.62 7.17v14.78h-3.58V17.56c0-2.95-.91-4.93-3.97-4.93-3.01 0-5.02 2.87-5.02 5.7v13.02h-3.59V16.63c0-1.8-.69-3.97-3.33-3.97-2.05 0-5.63 1.3-5.63 7.08v11.64h-3.59V10.04h-.05Zm57.94 2.97v13.87c0 1.69 1.43 1.69 2.15 1.69h1.27v2.8c-1.3.12-2.32.29-2.7.29-3.56 0-4.33-2.02-4.33-4.58V13h-2.9v-2.98h2.9V4.08h3.58v5.95h3.42v2.98h-3.4Zm-61.94 18.37h-3.58V10.03h3.58v21.35Zm-3.58-29.29h3.58v4.08h-3.58V2.1Zm-4.06.01h-3.58v29.28h3.58V2.09Zm-10.64 8.79c-1.1-5.13-5.38-6.07-8.2-6.07-5.29 0-9.59 3.92-9.59 11.64 0 6.9 2.45 12.19 9.7 12.19 2.57 0 7.01-1.21 8.36-8.03h3.84c-1.63 11.06-10.62 11.56-12.83 11.56-6.64 0-13.18-4.33-13.18-15.58 0-9.02 5.13-15.25 13.68-15.25 7.55 0 11.47 4.69 12.02 9.6h-3.8v-.06Zm-109.34-7.3a6.38 6.38 0 0 1 6.35 6.35v21.89a6.38 6.38 0 0 1-6.35 6.35H8.94a6.38 6.38 0 0 1-6.35-6.35V9.94A6.38 6.38 0 0 1 8.94 3.6h121.49Zm0-2.24H8.94a8.61 8.61 0 0 0-8.6 8.6v21.88c0 4.74 3.87 8.6 8.6 8.6H130.4c4.74 0 8.6-3.86 8.6-8.6V9.94a8.58 8.58 0 0 0-8.57-8.6Z" fill="#fff"/><path d="M31.34 12.49h-.77c-1.57 0-2.26.44-2.86 2.05l-6.52 17.52h-4.55l-6.52-17.82c-.53-1.52-1.22-1.75-2.5-1.75H6.7V10h11.77v2.48H16.4c-1 0-1.43.23-1.43.76s.16.92.32 1.36l4.11 12.11h.07l4.48-12.1c.21-.59.33-.9.33-1.3 0-.6-.63-.83-1.6-.83h-2.03V10h10.63v2.48h.05Zm17.4-2.8h2.35v9.1h-2.44c-.44-3.62-2.3-6.58-6.3-6.58-4.87 0-6.11 4.46-6.11 8.8 0 4.3 1.34 8.85 6.12 8.85 3.79 0 5.62-2.65 5.98-6.19h2.87c-.4 5.8-3.72 9.04-9.54 9.04-6.98 0-10.63-4.93-10.63-12.02 0-6.26 4.11-11.37 11.04-11.37 2.17 0 4.6 1.04 6.06 2.43l.6-2.06Zm20.45.32h1.92v8.4h-2.4c-.82-3.64-2.9-6.22-6.85-6.22-3.1 0-4.36.8-4.36 3 0 5 14.83 1.27 14.83 10.54 0 5.29-4.11 7.02-8.78 7.02-2.5 0-5-1.06-6.9-2.63l-.75 1.96h-2.26v-9h2.47c.46 4.45 3.19 6.83 7.9 6.83 2.94 0 4.32-1.36 4.32-2.96 0-5.68-14.83-1.38-14.83-10.9 0-4.7 4.23-6.68 8.25-6.68 2.52 0 4.64 1.15 6.3 2.33l1.14-1.69ZM76.3 24.7c0-2.21-.46-3.23-2.51-3.85 2.05-.62 2.52-1.69 2.52-3.81v-5.99c0-4.02 1.82-4.71 6.58-4.71v.37c-1.82.57-2.42 1.82-2.42 4.18v5.64c0 2.33-.4 3.7-2.7 4.3v.07c2.28.6 2.7 1.9 2.7 4.34v5.62c0 2.33.6 3.65 2.42 4.18v.37c-4.76 0-6.58-.7-6.58-4.76V24.7Zm10.08-14.32v.63h-.46c-.14 0-.23.04-.23.14 0 .11.07.3.11.44l.74 2.33h.03l.76-2.33c.04-.14.11-.33.11-.44 0-.1-.07-.14-.2-.14h-.42v-.63h2.06v.63h-.16c-.3 0-.42.09-.56.44l-1.22 3.63h-1.28l-1.22-3.63c-.12-.35-.23-.44-.6-.44h-.14v-.63h2.68Zm7.74 2.36c0 1.55-1.01 2.5-2.56 2.5s-2.57-.95-2.57-2.5 1.02-2.5 2.57-2.5c1.55 0 2.56.95 2.56 2.5Zm-3.6 0c0 1.25.32 1.83 1.04 1.83.71 0 1.04-.58 1.04-1.83s-.33-1.83-1.04-1.83c-.72-.02-1.04.58-1.04 1.83Zm3.76 2.34v-.63h.44c.19 0 .28-.11.28-.28V11.3c0-.19-.1-.28-.28-.28h-.44v-.63h2.78v.63h-.44c-.19 0-.28.11-.28.28v3.16h.76c.86 0 1-.55 1-1.32h.67v1.95h-4.49Zm4.4-4.7h2.77v.63H101c-.19 0-.28.11-.28.28v2.5c0 .45.26.78.83.78.84 0 .97-.37.97-1.25v-2.03c0-.19-.09-.28-.27-.28h-.42v-.63H104v.63h-.42c-.18 0-.27.11-.27.28v2.26c0 1.04-.56 1.66-1.88 1.66-1.24 0-2-.39-2-1.6v-2.35c0-.18-.1-.28-.28-.28h-.44v-.6h-.02Zm9.72 3.24.03-2.33c0-.19-.1-.28-.28-.28h-.44v-.63h2.17v.63h-.41c-.19 0-.28.11-.28.28v3.79h-1.43l-1.97-3.5h-.02v2.6c0 .18.1.27.28.27h.44v.63h-2.2v-.63h.44c.18 0 .28-.11.28-.28V11.3c0-.19-.1-.28-.28-.28h-.44v-.63h2.29l1.82 3.24Zm1.83-1.43v-1.8h4.71v1.8h-.64c0-.72-.21-1.18-1.04-1.18v3.16c0 .19.09.28.27.28h.42v.63h-2.75v-.63h.44c.18 0 .28-.11.28-.28v-3.16c-.81 0-1.04.46-1.04 1.18h-.65Zm7.83-1.81 1.18 3.54c.14.44.23.53.49.53h.23v.63h-2.59v-.63h.2c.22 0 .4-.02.4-.11 0-.07 0-.14-.02-.26l-.14-.5h-1.46l-.09.27c-.07.25-.11.35-.11.46 0 .12.25.14.43.14h.21v.63h-2.08v-.63h.23c.26 0 .35-.1.49-.53l1.18-3.54h1.45Zm-1.48 2.57h1.02l-.5-1.53-.52 1.53Zm4.44-1.66c0-.19-.1-.28-.28-.28h-.43v-.63h3.25c1 0 1.58.4 1.58 1.16 0 .67-.47.97-1.07 1.06v.03c.53.13.83.32.83.9v.74c0 .13.05.23.23.23.19 0 .24-.21.24-.44v-.3h.48v.23c0 .7-.23 1.2-1.15 1.2-.67 0-1.14-.32-1.14-1.15v-.58c0-.42-.07-.53-.64-.53h-.58v1.22c0 .19.1.28.28.28h.44v.62h-2.75v-.6h.43c.19 0 .28-.11.28-.28V11.3Zm1.32 1.04h.67c.53 0 .78-.12.78-.68 0-.53-.3-.64-.94-.64h-.51v1.32Zm6.19-1.95v.63h-.3c-.14 0-.2.02-.2.11 0 .07.06.19.1.23l.63.98.63-.98c.04-.06.11-.16.11-.23 0-.09-.07-.11-.2-.11h-.3v-.63h2.03v.63h-.14c-.25 0-.4.04-.49.18l-1.27 1.99v1c0 .18.1.27.28.27h.49v.63h-2.87v-.63h.46c.19 0 .28-.11.28-.28v-.99l-1.13-1.78c-.19-.3-.3-.4-.7-.4h-.13v-.62h2.72ZM87.7 18.82h.65v1.91h-.67c0-.73-.4-1.34-1.2-1.34-.8 0-1.23.58-1.23 1.83 0 1.1.28 1.83 1.27 1.83.74 0 1.13-.63 1.13-1.28h.67c-.02 1.3-.78 1.95-2.1 1.95-1.48 0-2.5-.84-2.5-2.5 0-1.5 1.04-2.5 2.4-2.5.35 0 1.12.19 1.42.49l.16-.4Zm4.2.07 1.18 3.53c.14.44.23.53.49.53h.23v.63h-2.6v-.63h.2c.22 0 .4-.02.4-.11 0-.07 0-.14-.04-.26l-.14-.5h-1.44l-.09.27c-.07.26-.11.35-.11.46 0 .12.25.14.44.14h.2v.63h-2.08v-.63h.23c.26 0 .35-.09.49-.53l1.18-3.53h1.45Zm-1.5 2.58h1.02l-.5-1.52h-.03l-.49 1.52Zm4.44-1.68c0-.19-.1-.28-.28-.28h-.44v-.62h3.26c1 0 1.6.39 1.6 1.15 0 .67-.47.97-1.07 1.06v.03c.53.14.83.32.83.9v.74c0 .14.05.23.24.23.18 0 .23-.23.23-.44v-.28h.48v.23c0 .7-.23 1.23-1.15 1.23-.67 0-1.14-.32-1.14-1.16v-.57c0-.42-.07-.54-.64-.54h-.58v1.23c0 .18.1.28.28.28h.44v.62h-2.75v-.62h.43c.19 0 .28-.12.28-.28v-2.91h-.02Zm1.34 1.04h.7c.52 0 .78-.12.78-.67 0-.53-.3-.65-.95-.65h-.5v1.32h-.03Zm4.51-1.04c0-.19-.1-.28-.28-.28h-.42v-.62h3.05c1.02 0 1.5.46 1.5 1.1 0 .63-.43.98-1.01 1.11v.03c.6.18 1.25.37 1.25 1.22 0 .9-.54 1.27-1.92 1.27h-2.87V23h.4c.18 0 .27-.12.27-.28V19.8h.03Zm1.31 1.04h.4c.48 0 .83-.14.83-.67 0-.51-.35-.67-.83-.67h-.4v1.34Zm0 2.12h.49c.5 0 .9-.14.9-.76 0-.6-.4-.74-.9-.74H102v1.5Zm8.28-1.71c0 1.55-1.02 2.5-2.57 2.5-1.55 0-2.56-.95-2.56-2.5 0-1.54 1.01-2.5 2.56-2.5s2.57.96 2.57 2.5Zm-3.6 0c0 1.25.31 1.83 1.03 1.83s1.04-.58 1.04-1.83c0-1.24-.32-1.82-1.04-1.82s-1.04.58-1.04 1.82Zm7.89.88.03-2.33c0-.19-.1-.28-.28-.28h-.44v-.62h2.17v.62h-.41c-.19 0-.28.12-.28.28v3.79h-1.43l-1.97-3.5h-.02v2.6c0 .18.1.27.28.27h.44v.63h-2.2v-.63h.44c.18 0 .28-.11.28-.27v-2.9c0-.18-.1-.27-.28-.27h-.44v-.62h2.29l1.82 3.23Zm-26.73 6.96h-.65a1.38 1.38 0 0 0-1.39-1.16c-.41 0-.78.14-.78.6 0 .9 3.07.19 3.07 2.2 0 1.13-.97 1.52-1.96 1.52-.56 0-1.09-.11-1.55-.44l-.19.37h-.6v-1.85h.67c.1.74.72 1.28 1.55 1.28.37 0 .81-.21.81-.6 0-1.02-3.07-.19-3.07-2.22 0-1.18 1.06-1.48 2.03-1.48.49 0 .95.16 1.34.41l.12-.32h.57v1.69h.03Zm.48.12v-1.81h4.72v1.8h-.67c0-.71-.21-1.18-1.04-1.18v3.17c0 .19.09.28.27.28h.42v.62h-2.75v-.62h.44c.18 0 .28-.12.28-.28v-3.17c-.81 0-1.02.47-1.02 1.18h-.65Zm7.84-1.81 1.18 3.54c.13.44.23.53.48.53h.25v.62H95.5v-.62h.2c.21 0 .4-.03.4-.12 0-.07 0-.14-.05-.25l-.14-.51h-1.45l-.1.28c-.07.25-.11.34-.11.46 0 .11.25.14.44.14h.2v.62h-2.07v-.62h.23c.25 0 .34-.1.48-.53l1.18-3.54h1.46Zm-1.48 2.59h1.01l-.5-1.53h-.03l-.48 1.53Zm7.85.65.03-2.34c0-.18-.1-.28-.28-.28h-.44v-.62h2.2v.62h-.42c-.18 0-.28.12-.28.28v3.8h-1.43l-1.96-3.5h-.03v2.59c0 .19.1.28.28.28h.44v.62h-2.2v-.62h.44c.19 0 .28-.12.28-.28v-2.89c0-.18-.1-.28-.28-.28h-.44v-.62h2.3l1.8 3.24ZM105 28.3c0-.2-.08-.29-.27-.29h-.42v-.62h2.57c1.62 0 2.66.7 2.66 2.38 0 1.62-1.02 2.31-2.7 2.31h-2.53v-.62h.42c.19 0 .28-.12.28-.28v-2.89Zm1.32 3.16h.33c.94 0 1.36-.33 1.36-1.74 0-1.4-.42-1.73-1.36-1.73h-.33v3.47Zm6.57-4.07 1.18 3.54c.13.44.23.53.48.53h.23v.62h-2.59v-.62h.21c.21 0 .4-.03.4-.12 0-.07 0-.14-.05-.25l-.14-.51h-1.46l-.09.28c-.07.25-.11.34-.11.46 0 .11.25.14.44.14h.2v.62h-2.08v-.62h.23c.26 0 .35-.1.49-.53l1.18-3.54h1.48Zm-1.5 2.59h1.03l-.5-1.53h-.03l-.5 1.53Zm4.43-1.68c0-.2-.09-.29-.27-.29h-.44v-.62h3.25c1 0 1.58.4 1.58 1.16 0 .67-.47.97-1.07 1.06v.02c.53.14.83.33.83.9v.74c0 .14.05.23.23.23.19 0 .24-.2.24-.44v-.27h.48v.23c0 .7-.23 1.2-1.15 1.2-.67 0-1.14-.32-1.14-1.16v-.57c0-.42-.06-.53-.64-.53h-.58v1.22c0 .19.1.28.28.28h.44v.62h-2.75v-.62h.44c.18 0 .27-.12.27-.28v-2.89Zm1.34 1.03h.67c.53 0 .79-.11.79-.67 0-.53-.3-.65-.95-.65h-.5v1.32Zm4.51-1.03c0-.2-.1-.29-.28-.29h-.42v-.62h2.57c1.62 0 2.66.7 2.66 2.38 0 1.62-1.02 2.31-2.7 2.31h-2.53v-.62h.42c.19 0 .28-.12.28-.28v-2.89Zm1.34 3.16h.32c.95 0 1.37-.33 1.37-1.74 0-1.4-.42-1.73-1.37-1.73h-.32v3.47ZM469.93 30h4.37v1.41h-2.7v1.23h2.26v1.33h-2.27v.88h2.85v1.42h-4.51V30Zm-5.28 6.33c-.04.05-.08.05-.11 0L461.6 30h1.78l1.27 2.92L465.9 30h1.69l-2.94 6.33Zm-7.78-2.83c.76 0 1.03-.44 1.03-1.04 0-.6-.27-1.04-1.03-1.04h-.6v2.07h.6Zm2.7 2.76h-1.81l-.87-1.43h-.63v1.43h-1.66V30h2.36c1.68 0 2.63 1.07 2.63 2.46 0 .9-.4 1.62-1.14 2.02l1.12 1.78ZM446.61 30H451v1.41h-2.71v1.23h2.25v1.33h-2.25v.88h2.83v1.42h-4.5V30Zm-15.73 0h4.38v1.41h-2.7v1.23h2.26v1.33h-2.27v.88h2.84v1.42h-4.51V30Zm-5.78 3.5c.75 0 1.03-.44 1.03-1.04 0-.6-.28-1.04-1.02-1.04h-.63v2.07h.63Zm2.7 2.76H426l-.87-1.43h-.64v1.43h-1.66V30h2.36c1.69 0 2.63 1.07 2.63 2.46 0 .9-.39 1.62-1.12 2.02l1.11 1.78Zm10.5-1.06 1.2-.92c.31.38.68.68 1.32.68s.78-.14.78-.49c0-.34-.2-.4-.61-.54l-.74-.24c-.91-.3-1.55-.86-1.55-1.9s1.02-1.86 2.13-1.86c1.12 0 1.72.4 2.08.83l-.95 1a1.3 1.3 0 0 0-1.03-.46c-.4 0-.61.2-.61.44 0 .25.13.36.44.46l.83.28c1.25.41 1.67 1.01 1.67 1.9 0 1.15-.71 1.98-2.37 1.98-1.4 0-2.2-.65-2.6-1.16Zm14.23-16.86h-.97v6.2h.97v-6.2Zm-9.16.87h-1.84v-.87h4.64v.87h-1.84v5.33h-.96v-5.33Zm26.77 1.26v4.07h-.9v-6.28h.06l3.96 4.16v-4.08h.92v6.3h-.07l-3.97-4.17Zm-38.49.97c0-1.82 1.4-3.18 3.14-3.18 1.15 0 1.94.45 2.48 1.21l-.75.53c-.4-.57-.93-.86-1.75-.86-1.22 0-2.12 1-2.12 2.3 0 1.31.92 2.3 2.16 2.3.8 0 1.4-.3 1.86-.9l.74.51a3.04 3.04 0 0 1-2.64 1.28 3.09 3.09 0 0 1-3.12-3.19Zm31.72 0c0-1.3-.91-2.3-2.19-2.3-1.27 0-2.18 1-2.18 2.3 0 1.31.9 2.3 2.19 2.3 1.28 0 2.18-.99 2.18-2.3Zm-5.38 0a3.2 3.2 0 1 1 1.97 2.96 3.15 3.15 0 0 1-1.97-2.96Zm-33.18-1.09-1.03 2.45h2.05l-1.02-2.45Zm-1.74 4.2h-.98l2.71-6.33h.05l2.72 6.32h-1.03l-.36-.87h-2.75l-.36.87Zm-34.49-4.72a1.55 1.55 0 0 0 .86-2l-.42-1.05a1.51 1.51 0 0 0-1.98-.86l-1.04.42a1.53 1.53 0 0 0-.86 2l.42 1.04a1.53 1.53 0 0 0 1.98.87l1.04-.42Zm-2-5.77a1.17 1.17 0 0 0 .67-1.52 1.17 1.17 0 0 0-1.71-.54 1.16 1.16 0 0 0 1.04 2.06Zm83.64-6.96h3.93v.87h-2.96v2.5h2.62v.84h-2.62v1.13h3.09v.86h-4.06V7.1Zm-6.27.87h-1.82V7.1h4.64v.87h-1.84v5.33h-.98V7.97Zm-23.8-.87h-.97v6.2h.97V7.1Zm-8.39 0h.96v5.34h2.72v.86h-3.68V7.1Zm-9.48 3.1a3.1 3.1 0 0 1 3.15-3.18c1.13 0 1.93.45 2.47 1.2l-.75.53a2 2 0 0 0-1.75-.85c-1.22 0-2.12.99-2.12 2.3 0 1.31.9 2.3 2.16 2.3a2.2 2.2 0 0 0 1.85-.9l.74.51a3 3 0 0 1-2.63 1.27 3.09 3.09 0 0 1-3.12-3.18Zm35-1.09-1.03 2.46h2.03l-1-2.46Zm-1.75 4.19h-.98l2.7-6.32h.05l2.72 6.32h-1.01l-.36-.87h-2.77l-.35.87Zm-10.5-6.32h.04l3.01 3.49 2.99-3.49h.05v6.32h-.92V9.28l-2.12 2.52h-.04l-2.1-2.52v4.02h-.9V6.98Z" fill="#fff"/><path fill-rule="evenodd" clip-rule="evenodd" d="M389.83 1.44a19.45 19.45 0 0 1 25.36 10.77 19.48 19.48 0 1 1-36.12 14.66c-4.02-10 .78-21.4 10.76-25.43ZM413.73 15a17.18 17.18 0 0 0-33.76 4.31l2.92-1.2a1.43 1.43 0 0 1 1.87.79l.4.99a1.8 1.8 0 0 0 2.33 1l2.72-1.1a6.94 6.94 0 1 0 12.11-4.86l3.71-1.54a1.77 1.77 0 0 1 2.34.99l.44 1.05a1.44 1.44 0 0 0 1.88.8l3.03-1.23Zm-7.35 5.88c.11-.28.32-.5.6-.63a1.18 1.18 0 0 1 .87 2.18 1.18 1.18 0 0 1-1.47-1.55Zm-1.46-6.37a1.53 1.53 0 0 0-.86 1.99l.42 1.05a1.53 1.53 0 0 0 1.98.86l1.04-.42a1.53 1.53 0 0 0 .87-2l-.42-1.03a1.53 1.53 0 0 0-1.98-.86l-1.05.41Zm5.25 3.2c.13-.12.28-.22.44-.28l.9-.36a1.32 1.32 0 0 1 1.72.75l.36.9a1.32 1.32 0 0 1-.75 1.72l-.9.36a1.3 1.3 0 0 1-1.7-.74l-.38-.9a1.33 1.33 0 0 1 .31-1.45Z" fill="#fff"/><path d="M382.89 16.96a1.3 1.3 0 0 0 .74-1.71l-.36-.9a1.33 1.33 0 0 0-1.72-.74l-.9.35a1.32 1.32 0 0 0-.74 1.72l.35.9a1.32 1.32 0 0 0 1.72.75l.9-.37Z" fill="#fff"/></svg>