<svg xmlns="http://www.w3.org/2000/svg" width="475" height="41"><path fill="#fff" d="M202.6 38v.8h-1.8V38h1.8Zm1.6-.4a1 1 0 0 0-.2.5h1.6c0-.2 0-.4-.2-.5a.7.7 0 0 0-.6-.2c-.2 0-.4 0-.6.2Zm1.4-.8c.3 0 .5.3.7.5l.3.7v.7H204c0 .4.1.6.4.8l.5.2.5-.2.2-.3h1c0 .3-.2.5-.4.7-.3.4-.8.5-1.4.5-.4 0-.9-.1-1.2-.4-.4-.3-.6-.8-.6-1.4 0-.7.2-1.1.5-1.5.3-.3.8-.5 1.3-.5.3 0 .6 0 .8.2Zm-11.5.8a1 1 0 0 0-.3.5h1.6c0-.2 0-.4-.2-.5a.7.7 0 0 0-.6-.2c-.2 0-.4 0-.5.2Zm1.4-.8c.2 0 .4.3.6.5l.3.7v.7h-2.6c0 .4.1.6.4.8l.5.2.5-.2.2-.3h1c0 .3-.2.5-.4.7-.3.4-.8.5-1.3.5s-1-.1-1.3-.4c-.4-.3-.6-.8-.6-1.4 0-.7.2-1.1.5-1.5.4-.3.8-.5 1.3-.5.3 0 .6 0 .9.2Zm-5.2.8a1 1 0 0 0-.3.5h1.7c0-.2-.1-.4-.3-.5a.7.7 0 0 0-.5-.2c-.3 0-.5 0-.6.2Zm1.4-.8c.2 0 .5.3.6.5.2.2.3.5.3.7v.7H190c0 .4.1.6.4.8l.5.2.5-.2.2-.3h1c0 .3-.1.5-.4.7-.3.4-.7.5-1.3.5a2 2 0 0 1-1.3-.4 2 2 0 0 1-.5-1.4c0-.7.1-1.1.5-1.5.3-.3.7-.5 1.3-.5.3 0 .5 0 .8.2Zm8.1.1c.3.2.4.5.4 1v2.4h-1v-2.7c-.2-.2-.4-.2-.6-.2-.3 0-.6.1-.7.4v2.5h-1v-3.6h1v.5l.2-.4.8-.2c.4 0 .7.1.9.3Zm-11.1-.3v1h-.2c-.4 0-.6 0-.8.3v2.4h-1v-3.6h.9v.6c0-.2.2-.4.3-.5l.7-.2Zm-4 .3a1 1 0 0 0-.5-.6l-.6-.1c-.4 0-.7 0-1 .4-.2.3-.3.7-.3 1.3s.1 1 .4 1.3c.3.2.6.4 1 .4.3 0 .6-.1.8-.3l.4-.8h-1.1v-.8h2v2.6h-.6l-.2-.6-.5.5a2 2 0 0 1-1 .2c-.6 0-1.2-.2-1.6-.6-.4-.5-.6-1.1-.6-1.9s.2-1.4.7-1.9c.4-.5 1-.7 1.7-.7.6 0 1.1.2 1.5.5s.6.7.6 1.2h-1ZM206 16.7l-.3-1.5-5.2.8c.2.5.3 1 .3 1.6l5.2-.9Zm-6.5-2.8 4-3.4-1-1.2-4 3.5 1 1.1Zm-2.7-2.2 1.6-5.1-1.6-.5-1.5 5 1.5.6Zm-4.1-.5-1.6-5-1.5.5 1.5 5a7 7 0 0 1 1.6-.5Zm-3.3 1.6-4-3.6-1 1.2 4 3.5a7 7 0 0 1 1-1.1Zm-2 3.1-5-.7-.3 1.5 5 .8.3-1.6Zm13.4 13.8c1.9-1.6 2.6-4 2.7-7-3 .1-4.8.9-6.2 1.8-.7.4-1.3 1-2 1.6V24a6 6 0 0 0 4.2-3.9h-2.8a3 3 0 0 1-2.8 1.5c-1.4 0-2.5-1-3-2.3h8.8l.1-1.2a6 6 0 0 0-5.7-6 6 6 0 0 0-1.2 12v7.4A13.5 13.5 0 1 1 207.5 18c0 5.3-2.7 9.7-7 12l.3-.3Zm-9.9-12.6a3.3 3.3 0 0 1 3.1-2.6c1.6 0 2.9 1 3.1 2.6h-6.2Zm4.6 12a6.8 6.8 0 0 1 2.8-3.2c1-.5 2-1 3.2-1.2-.2 1.5-1 2.8-2 3.8-1 .9-1.7 1.4-4 2.1v-1.5Zm13-11.1c0-5.2-3.2-10-7.7-12.6s-9.6-2.7-14.1 0-7.4 7.4-7.4 12.6c0 8 6.6 14.7 14.7 14.7S208.5 26 208.5 18Zm1.5 0a16.1 16.1 0 0 1-23.8 14.3c-5.8-2.6-8.4-8.5-8.4-14.5 0-8.5 7.7-15.5 16-15.5S210 9.7 210 18Zm-2.3 14.1h.2V32l.1-.1v-.2h-.7v.4h.4Zm-.6-.6h.9l.1.2v.4l-.2.2.4.6h-.2a5 5 0 0 0-.5-.6h-.4v.6h-.1v-1.4Zm100.6-11c-.6.4-1.5.8-6 1.3-1.7.3-4.6.8-4.6 3.5 0 2.3 1.2 3.7 4 3.7 3.3 0 6.6-2.1 6.6-5v-3.5Zm-4.3-11c1.7 0 7.9.5 7.9 6v12.2c0 .9.4 1.2 1.2 1.2l1.1-.1v2.6c-.6.1-1 .4-2 .4-3 0-3.6-1.6-3.7-3.3a9.7 9.7 0 0 1-7.7 3.5c-4 0-6.7-2.5-6.7-6.1 0-1.8.5-6 6.4-6.7l6-.8c.8 0 1.9-.4 1.9-2.5 0-2.2-1.7-3.5-5-3.5-4.2 0-4.7 2.5-5 4.1h-3.3c.2-5 3.6-7 8.9-7Zm36.4 9.5c-.2-3.3-1.6-6.3-6-6.3-3.2 0-5.9 3-5.9 6.3h12Zm3.4 5.7a9.2 9.2 0 0 1-3.8 5.8c-1 .7-2.3 1.5-5.8 1.5-6 0-9.5-4.5-9.5-10.7 0-6.6 3.2-11.9 10.2-11.9 6.2 0 9.2 5 9.2 12.4H328c0 4.5 2.1 7 6.2 7 3.4 0 5.4-2.6 5.5-4.1h3.6ZM265.4 10v3h.1a7.5 7.5 0 0 1 6.5-3.6c3.8 0 5 2.3 5.7 3.5 1.8-2 3.2-3.5 6.5-3.5 2.3 0 6.6 1.2 6.6 7.2v14.7h-3.6V17.7c0-3-.9-5-4-5-3 0-5 2.9-5 5.7v13h-3.6V16.7c0-1.8-.6-4-3.3-4-2 0-5.6 1.4-5.6 7.1v11.7H262V10h3.4Zm54.6 3v14c0 1.7 1.4 1.7 2.1 1.7h1.3v2.8c-1.3 0-2.3.3-2.7.3-3.6 0-4.3-2-4.3-4.6V13h-3v-3h3V4h3.6v6h3.4v3H320Zm-62 18.4h-3.5V10h3.5v21.4ZM254.6 2h3.5v4h-3.5V2Zm-4 29.3h-3.7V2h3.6v29.3Zm-10.7-20.5c-1.1-5.1-5.4-6-8.2-6-5.3 0-9.6 3.8-9.6 11.6 0 6.9 2.4 12.2 9.7 12.2 2.6 0 7-1.3 8.3-8h3.9a12.4 12.4 0 0 1-13 11.5c-6.7 0-13.2-4.4-13.2-15.6 0-9 5.1-15.3 13.6-15.3 7.6 0 11.5 4.7 12 9.7h-3.7v-.1ZM130.4 3.6H9a6.4 6.4 0 0 0-6.3 6.3v22c0 3.4 2.8 6.3 6.3 6.3h121.5c3.5 0 6.4-2.9 6.4-6.4V10c0-3.5-2.9-6.3-6.4-6.3Zm0-2.3A8.6 8.6 0 0 1 139 10v22c0 4.7-3.9 8.5-8.6 8.5H8.9a8.6 8.6 0 0 1-8.6-8.6V10C.3 5.2 4.2 1.4 9 1.3h121.5Zm-99 11.2h-.7c-1.6 0-2.3.4-2.9 2l-6.5 17.6h-4.6l-6.5-17.9c-.5-1.5-1.2-1.7-2.5-1.7h-.9V10h11.8v2.5h-2.1c-1 0-1.4.2-1.4.7s.1 1 .3 1.4l4.1 12.1 4.5-12c.3-.7.4-1 .4-1.4 0-.6-.7-.8-1.6-.8h-2V10h10.6v2.5Zm17.4-2.8h2.4v9h-2.5c-.4-3.5-2.3-6.5-6.3-6.5-4.8 0-6 4.5-6 8.8s1.3 8.9 6 8.9c3.8 0 5.7-2.7 6-6.2h3c-.5 5.8-3.8 9-9.6 9-7 0-10.7-5-10.7-12 0-6.3 4.1-11.4 11-11.4 2.2 0 4.7 1 6.1 2.4l.6-2Zm20.5.3h2v8.4h-2.5c-.8-3.6-2.9-6.2-6.8-6.2-3.1 0-4.4.8-4.4 3 0 5 14.8 1.3 14.8 10.5 0 5.3-4 7-8.8 7-2.5 0-5-1-6.9-2.6l-.7 2h-2.3v-9h2.5c.5 4.4 3.2 6.8 8 6.8 2.8 0 4.2-1.4 4.2-3 0-5.6-14.8-1.3-14.8-10.9 0-4.7 4.2-6.6 8.2-6.6 2.3 0 4.5.9 6.3 2.3l1.2-1.7Zm7.1 14.7c0-2.2-.5-3.2-2.5-3.8 2-.7 2.5-1.7 2.5-3.9v-6c0-4 1.8-4.7 6.6-4.7v.4c-1.8.6-2.4 1.8-2.4 4.2v5.6c0 2.4-.4 3.7-2.7 4.3v.1c2.2.6 2.7 1.9 2.7 4.3V31c0 2.3.6 3.6 2.4 4.1v.4c-4.8 0-6.6-.7-6.6-4.7v-6Zm10-14.3v.6H86c-.1 0-.2 0-.2.2l.1.4.7 2.3.8-2.3.1-.4c0-.1 0-.2-.2-.2H87v-.6h2v.6c-.4 0-.5.1-.6.5L87 15h-1.2l-1.3-3.6c0-.4-.2-.5-.6-.5h-.1v-.6h2.7Zm7.8 2.3c0 1.6-1 2.5-2.5 2.5s-2.6-1-2.6-2.5 1-2.5 2.6-2.5 2.5 1 2.5 2.5Zm-3.6 0c0 1.3.3 1.9 1 1.9.8 0 1.1-.6 1.1-1.9s-.3-1.8-1-1.8c-.8 0-1 .6-1 1.8Zm3.8 1.8h.4c.2 0 .3-.2.3-.3v-2.9c0-.2-.1-.3-.3-.3h-.4v-.6h2.8v.6h-.5c-.2 0-.3.1-.3.3v3.2h.8c.9 0 1-.6 1-1.4h.7v2h-4.5v-.6Zm7.1-4.1v.6h-.4c-.2 0-.3.1-.3.3v2.5c0 .4.3.8.8.8.9 0 1-.4 1-1.3v-2c0-.2 0-.3-.3-.3h-.4v-.6h2.2v.6h-.4c-.2 0-.3.1-.3.3v2.3c0 1-.6 1.6-1.9 1.6-1.2 0-2-.4-2-1.6v-2.3c0-.2 0-.3-.3-.3h-.4v-.6h2.7Zm7 3.2v-2.3c0-.2 0-.3-.3-.3h-.4v-.6h2.2v.6h-.4c-.2 0-.3.1-.3.3V15h-1.4l-2-3.5v2.6c0 .2 0 .3.2.3h.5v.6h-2.2v-.6h.4c.2 0 .3-.2.3-.3v-2.9c0-.2 0-.3-.3-.3h-.4v-.6h2.3l1.8 3.2Zm1.8-1.4v-1.8h4.7v1.8h-.6c0-.7-.2-1.2-1-1.2v3.2c0 .2 0 .3.2.3h.4v.6h-2.7v-.6h.4c.2 0 .3-.2.3-.3V11c-.8 0-1 .5-1 1.2h-.7Zm7.9-1.8 1.1 3.5c.2.5.3.6.5.6h.3v.6h-2.6v-.6h.2c.2 0 .4 0 .4-.2v-.2l-.2-.5h-1.5v.3l-.2.4.5.2h.2v.6h-2v-.6h.1c.3 0 .4-.1.5-.6l1.2-3.5h1.5Zm-1.5 2.6h1l-.5-1.6-.5 1.6Zm4.4-1.7c0-.2 0-.3-.3-.3h-.4v-.6h3.3c1 0 1.5.4 1.5 1.1s-.4 1-1 1.1c.5.2.8.4.8 1v.7c0 .1 0 .2.2.2s.3-.2.3-.4v-.3h.4v.2c0 .7-.2 1.2-1.1 1.2-.7 0-1.1-.3-1.1-1.2v-.5c0-.5-.1-.6-.7-.6h-.6v1.3c0 .1.1.2.3.2h.5v.7h-2.8v-.6h.4c.2 0 .3-.2.3-.3v-3Zm1.3 1h.7c.5 0 .8 0 .8-.6s-.3-.7-1-.7h-.5v1.3Zm6.2-2v.7h-.3l-.2.1.1.3.7 1 .6-1 .1-.3h-.5v-.7h2v.6h-.1c-.3 0-.4 0-.5.2l-1.3 2v1c0 .2.1.3.3.3h.5v.6h-2.9v-.6h.5c.2 0 .3-.2.3-.3v-1l-1.2-1.8c-.2-.3-.3-.4-.7-.4v-.6h2.6Zm-40.8 8.5h.6v2h-.6c0-.8-.4-1.4-1.2-1.4s-1.3.6-1.3 1.8c0 1.1.3 1.8 1.3 1.8.8 0 1.1-.6 1.1-1.2h.7c0 1.3-.8 2-2 2-1.6 0-2.6-1-2.6-2.6 0-1.5 1-2.5 2.4-2.5.4 0 1.1.2 1.4.5l.2-.4Zm4.2 0 1.2 3.6c.1.5.2.6.5.6h.2v.6h-2.6V23h.2c.2 0 .4 0 .4-.2v-.2l-.2-.5h-1.4l-.1.3-.1.4.4.2h.2v.6h-2V23h.2c.2 0 .3-.1.5-.6l1.1-3.5H92Zm-1.5 2.7h1l-.5-1.6-.5 1.6Zm4.4-1.7c0-.2 0-.3-.2-.3h-.5V19h3.3c1 0 1.6.4 1.6 1.1s-.5 1-1 1.1c.4.2.7.3.7 1v.7c0 .1 0 .2.3.2.2 0 .2-.2.2-.4v-.3h.5v.2c0 .7-.2 1.2-1.2 1.2-.6 0-1.1-.3-1.1-1.1V22c0-.4 0-.5-.6-.5h-.6v1.2c0 .2 0 .3.3.3h.4v.6h-2.8V23h.5c.2 0 .3-.1.3-.3v-3Zm2 1c.6 0 .9 0 .9-.6s-.3-.7-1-.7h-.5v1.3h.7Zm3.9-1c0-.2-.1-.3-.3-.3h-.4V19h3c1 0 1.5.4 1.5 1 0 .7-.4 1-1 1.2.6.2 1.3.4 1.3 1.2 0 1-.6 1.3-2 1.3h-2.8V23h.4c.2 0 .3-.1.3-.3v-3Zm1.3 1h.4c.5 0 .8-.1.8-.6 0-.6-.3-.7-.8-.7h-.4v1.3Zm0 2.1h.5c.5 0 .9 0 .9-.7 0-.6-.4-.8-1-.8h-.4V23Zm8.3-1.7c0 1.6-1 2.5-2.6 2.5s-2.6-1-2.6-2.5 1-2.5 2.6-2.5 2.6 1 2.6 2.5Zm-3.6 0c0 1.3.3 1.9 1 1.9s1-.6 1-1.9c0-1.2-.3-1.8-1-1.8s-1 .6-1 1.8Zm7.9 1v-2.4c0-.2-.1-.3-.3-.3h-.4V19h2.1v.6h-.4c-.2 0-.2.1-.2.3v3.8H114l-2-3.5v2.6c0 .2.1.3.3.3h.5v.6h-2.2V23h.4c.2 0 .3 0 .3-.2v-3c0-.1-.1-.2-.3-.2h-.4V19h2.2l1.9 3.2ZM87.3 29c-.1-.7-.7-1.2-1.4-1.2-.4 0-.8.2-.8.6 0 1 3 .2 3 2.2 0 1.1-.9 1.5-1.9 1.5-.5 0-1 0-1.5-.4l-.2.4h-.6v-1.9h.7c0 .8.7 1.3 1.5 1.3.4 0 .8-.2.8-.6 0-1-3-.2-3-2.2 0-1.2 1-1.5 2-1.5.5 0 1 .2 1.3.4l.1-.3h.6V29h-.6Zm1.1-1.7h4.7v1.8h-.6c0-.7-.2-1.2-1-1.2v3.2c0 .2 0 .3.2.3h.4v.6h-2.7v-.6h.4c.2 0 .3-.2.3-.3V28c-.8 0-1 .5-1 1.2h-.7v-1.8Zm7.9 0 1.1 3.5c.2.5.3.6.5.6h.3v.6h-2.6v-.6h.2c.2 0 .4 0 .4-.2V31l-.2-.5h-1.4l-.1.3-.2.4.5.2h.2v.6h-2v-.6h.1c.3 0 .4-.1.5-.6l1.2-3.5h1.5ZM94.8 30h1l-.5-1.6-.5 1.6Zm7.9-1.7c0-.2-.1-.3-.3-.3h-.5v-.6h2.2v.6h-.4c-.2 0-.3.1-.3.3V32H102l-2-3.5v2.6c0 .2.1.3.3.3h.4v.6h-2.2v-.6h.5c.2 0 .3-.2.3-.3v-3s-.1-.2-.3-.2h-.5v-.6h2.3l1.8 3.2v-2.3Zm2.4 0c0-.2 0-.3-.3-.3h-.4v-.6h2.6c1.6 0 2.6.7 2.6 2.4 0 1.6-1 2.3-2.7 2.3h-2.5v-.6h.4c.2 0 .3-.2.3-.3v-3 .1Zm1.3 3.2h.3c1 0 1.4-.4 1.4-1.8s-.4-1.7-1.4-1.7h-.3v3.5Zm6.6-4.1 1.2 3.5c.1.5.2.6.4.6h.3v.6h-2.6v-.6h.2c.2 0 .4 0 .4-.2v-.2l-.2-.5h-1.5v.3l-.2.4.5.2h.2v.6h-2v-.6h.1c.3 0 .4-.1.5-.6l1.2-3.5h1.5Zm-1.5 2.6h1l-.5-1.6-.5 1.6Zm4.4-1.7c0-.2 0-.3-.3-.3h-.4v-.6h3.3c1 0 1.5.4 1.5 1.1s-.4 1-1 1.1c.5.2.8.4.8 1v.7c0 .1 0 .2.2.2s.3-.2.3-.4v-.3h.4v.2c0 .7-.2 1.2-1.1 1.2-.7 0-1.1-.3-1.1-1.1v-.6c0-.4-.1-.5-.7-.5h-.6v1.2c0 .2.1.3.3.3h.5v.6h-2.8v-.6h.4c.2 0 .3-.2.3-.3v-2.9Zm2 1c.6 0 .8 0 .8-.6s-.3-.7-1-.7h-.4v1.3h.6Zm3.9-1c0-.2-.1-.3-.3-.3h-.4v-.6h2.5c1.7 0 2.7.7 2.7 2.4 0 1.6-1 2.3-2.7 2.3h-2.5v-.6h.4c.2 0 .3-.2.3-.3v-2.9Zm1.3 3.2h.3c1 0 1.4-.4 1.4-1.8s-.4-1.7-1.4-1.7h-.3v3.5Zm347-1.5h4.3v1.4h-2.7v1.2h2.3V34h-2.3v.8h2.8v1.5H470V30Zm-5.4 6.3-3-6.3h1.8l1.2 3 1.3-3h1.7l-3 6.3Zm-7.7-2.8c.7 0 1-.4 1-1s-.3-1-1-1h-.6v2h.6Zm2.7 2.8h-1.8l-1-1.5h-.5v1.5h-1.7V30h2.4c1.6 0 2.6 1 2.6 2.5 0 .9-.4 1.6-1.2 2l1.2 1.8ZM451 30v1.4h-2.7v1.2h2.2V34h-2.2v.8h2.8v1.5h-4.5V30h4.4Zm-20 0h4.4v1.4h-2.7v1.2h2.2V34h-2.3v.8h2.9v1.5H431V30Zm-5.8 3.5c.7 0 1-.4 1-1s-.3-1-1-1h-.6v2h.6Zm.9 2.8-.9-1.5h-.6v1.5h-1.7V30h2.4c1.7 0 2.6 1 2.6 2.5 0 .9-.4 1.6-1.1 2l1.1 1.8h-1.8Zm12.3-1.1 1.2-1c.3.5.7.8 1.3.8s.8-.2.8-.5c0-.4-.2-.4-.6-.6l-.8-.2c-.9-.3-1.5-.9-1.5-2s1-1.8 2.1-1.8 1.7.4 2.1.9l-1 1c-.2-.3-.6-.5-1-.5s-.6.2-.6.4c0 .3.1.4.5.5l.8.3c1.2.4 1.7 1 1.7 1.9 0 1.1-.8 2-2.4 2-1.4 0-2.2-.7-2.6-1.2Zm14.2-10.7h-1v-6.2h1v6.2Zm-9.1-5.3h-1.9v-.9h4.7v1h-1.9v5.2h-1v-5.3Zm26.7 1.3v4h-.9v-6.2h.1l4 4.1v-4h.9v6.2l-4-4.1Zm-38.5 1c0-1.9 1.4-3.2 3.2-3.2 1.1 0 2 .4 2.5 1.2l-.8.5a2 2 0 0 0-1.7-.9c-1.3 0-2.2 1-2.2 2.3s1 2.3 2.2 2.3c.8 0 1.4-.3 1.9-.9l.7.5a3 3 0 0 1-2.6 1.3 3 3 0 0 1-3.2-3.2Zm31.8 0c0-1.4-1-2.4-2.2-2.4-1.3 0-2.2 1-2.2 2.3s.9 2.3 2.2 2.3 2.2-1 2.2-2.3Zm-5.4 0a3.2 3.2 0 1 1 6.4 0 3.2 3.2 0 0 1-6.4 0Zm-33.2-1.2-1 2.5h2l-1-2.5Zm-1.7 4.2h-1l2.7-6.3 2.8 6.3h-1l-.4-.8h-2.8l-.3.8Zm-35.6-4.3c-.7.4-1.6 0-2-.8l-.4-1a1.5 1.5 0 0 1 .9-2l1-.5a1.5 1.5 0 0 1 2 .9l.4 1c.3.8 0 1.7-.8 2l-1 .4Zm-2.4-6.7a1.2 1.2 0 0 1 1.4-1.6c.4 0 .6.3.7.6.2.3.2.7 0 1l-.6.6c-.6.2-1.2 0-1.5-.6Zm85.1-6.4h4V8h-3v2.5h2.6v.8h-2.6v1.1h3v.9h-4V7.1ZM464 8h-1.8V7h4.7v1H465v5.3h-1V8Zm-23.8 5.3h-1V7.1h1v6.2ZM432 7.1h1v5.3h2.6v.9H432V7.1Zm-9.5 3.1a3.1 3.1 0 0 1 3.1-3.2c1.2 0 2 .5 2.5 1.2l-.8.6a2 2 0 0 0-1.7-.9c-1.2 0-2.1 1-2.1 2.3s.9 2.3 2.1 2.3c.8 0 1.5-.3 1.9-.9l.7.5a3 3 0 0 1-2.6 1.3 3 3 0 0 1-3.1-3.2Zm35-1-1 2.4h2l-1-2.5Zm-1.8 4.1h-1l2.7-6.3h.1l2.7 6.3h-1l-.4-.9H456l-.4.9ZM445.2 7l3 3.5 3-3.5v6.3h-.9v-4l-2.1 2.5-2.2-2.5v4h-.9V7Zm-55.4-5.6a19.5 19.5 0 1 1 14.6 36.2 19.5 19.5 0 0 1-14.6-36.2Zm24 13.6a17.2 17.2 0 0 0-32.9-1l.6-.3c.7-.3 1.5 0 1.8.7l.3.9c.2.3.2.7 0 1s-.4.6-.7.7l-1 .4h-1s-.5-.4-.6-.8c-.2.8-.3 1.8-.3 2.7l2.9-1.2a1.4 1.4 0 0 1 1.9.8l.4 1c.3 1 1.4 1.4 2.3 1l2.7-1.1a7 7 0 1 0 12.1-4.9l3.7-1.5a1.8 1.8 0 0 1 2.4 1l.4 1c.2.4.4.7.8.8s.7.2 1 0l3.1-1.2Zm-7.2 7.1c.3.4.8.5 1.3.3a1.2 1.2 0 0 0-1-2.1c-.2 0-.4.3-.5.6-.2.4 0 .9.2 1.2Zm-1.7-7.6a1.5 1.5 0 0 0-.8 2l.4 1c.3.8 1.2 1.2 2 1l1-.5a1.5 1.5 0 0 0 .9-2l-.4-1a1.5 1.5 0 0 0-2-.9l-1 .4Zm5 4.7.3.9.7.7h1l1-.4c.3 0 .5-.3.7-.7s.1-.7 0-1l-.4-.9c-.3-.7-1-1-1.7-.7l-.9.3c-.2 0-.3.2-.4.3-.4.4-.5 1-.3 1.5Z"/><path fill="none" stroke="#fff" stroke-width=".5" d="M206.4 32.1c0-.6.5-1.2 1.2-1.2s1.3.6 1.3 1.2-.6 1.2-1.3 1.2-1.2-.6-1.2-1.2Z"/></svg>