<svg width="481" height="40" fill="none" xmlns="http://www.w3.org/2000/svg"><path d="M385.24 11.63c-.14-.34.04-.62.41-.62h2.73c.22 0 .38.14.41.27l4.74 11.09h.18L403.36.89c.04-.1.18-.26.4-.26h2.74c.37 0 .55.33.41.62l-12.72 27.5c-.07.15-.18.27-.41.27h-.27c-.23 0-.34-.1-.4-.27l-7.87-17.12Zm21.05.28c0-.26.18-.48.48-.48h10.06a.5.5 0 0 1 .48.48v2.04c0 .27-.18.48-.48.48h-7.33v4.07h6.1c.27 0 .48.23.48.48v2.07c0 .27-.23.48-.47.48h-6.1v4.33h7.32c.27 0 .48.23.48.48v2.04c0 .27-.18.48-.48.48h-10.06a.49.49 0 0 1-.48-.48V11.91Zm15.22 0c0-.26.18-.48.48-.48h7.07c2.96 0 5.4 2.36 5.4 5.33 0 2.29-1.52 4.13-3.66 4.99l3.4 6.28c.18.33 0 .7-.4.7h-2.6c-.23 0-.33-.1-.4-.22l-3.29-6.55h-2.73v6.32c0 .26-.23.47-.48.47h-2.29a.49.49 0 0 1-.48-.47l-.01-16.37Zm7.28 7.4c1.3 0 2.45-1.15 2.45-2.52 0-1.3-1.15-2.4-2.45-2.4h-4.03v4.92h4.03Zm9.8-7.4c0-.26.17-.48.48-.48h7.06c2.96 0 5.4 2.36 5.4 5.33 0 2.29-1.51 4.13-3.66 4.99l3.4 6.28c.18.33 0 .7-.4.7h-2.6c-.22 0-.33-.1-.4-.22l-3.29-6.55h-2.73v6.32c0 .26-.23.47-.48.47h-2.29a.49.49 0 0 1-.48-.47V11.9h-.01Zm7.29 7.4c1.3 0 2.45-1.15 2.45-2.52 0-1.3-1.15-2.4-2.45-2.4h-4.03v4.92h4.03Zm7.84 8.81 7.69-16.65c.07-.14.18-.27.4-.27h.27c.27 0 .34.11.41.27l7.61 16.65c.15.33-.03.62-.4.62h-2.15c-.37 0-.55-.14-.71-.48l-1.23-2.66h-7.4L457 28.26a.73.73 0 0 1-.71.48h-2.15c-.37 0-.56-.3-.4-.62Zm10.69-5.3-2.49-5.42h-.07l-2.45 5.43h5Z" fill="#fff"/><path d="M479.97 39.58H375.55c-.58 0-1.03-.48-1.03-1.03V1.57c0-.59.48-1.03 1.03-1.03h23.37c.23 0 .38.23.3.44l-1.02 2.63c-.04.1-.14.18-.3.18h-19.8a.34.34 0 0 0-.33.33v31.91c0 .18.14.34.34.34h99.3c.18 0 .34-.14.34-.34V4.1a.34.34 0 0 0-.33-.34h-67.33a.32.32 0 0 1-.3-.44l1.18-2.63c.04-.1.15-.18.3-.18h68.7c.59 0 1.03.48 1.03 1.03V38.5c0 .58-.48 1.08-1.03 1.08ZM331.65 3.63v1.16h.6c.3 0 .53-.02.65-.08.2-.09.3-.26.3-.52 0-.38-.26-.56-.8-.56h-.75Zm-.57 3.2V3.16h1.41c.86 0 1.29.35 1.29 1.04 0 .58-.32.92-.97 1.01l1.05 1.62h-.6l-1-1.58h-.6v1.58h-.58Zm-1.37-1.9c0 .78.24 1.43.71 1.94.49.54 1.12.8 1.88.8.75 0 1.36-.26 1.85-.78.48-.51.72-1.14.72-1.9 0-.74-.24-1.37-.72-1.88a2.44 2.44 0 0 0-1.85-.78c-.72 0-1.34.25-1.83.76-.5.5-.76 1.12-.76 1.84Zm-.57.11a3.09 3.09 0 0 1 3.16-3.17A3.08 3.08 0 0 1 335.44 5a3.06 3.06 0 0 1-3.14 3.13c-.86 0-1.6-.3-2.23-.9a2.93 2.93 0 0 1-.93-2.19ZM56.34 31.31c1.12-1.48 1.68-3.6 1.68-6.34 0-2.75-.56-4.86-1.68-6.34a5.7 5.7 0 0 0-4.83-2.22c-2.09 0-3.7.74-4.83 2.22-1.13 1.48-1.7 3.6-1.7 6.34 0 2.74.57 4.86 1.7 6.34a5.71 5.71 0 0 0 4.83 2.24c2.1 0 3.7-.75 4.83-2.24Zm5.73 3.96c-2.31 2.86-5.82 4.28-10.53 4.28-4.71 0-8.22-1.42-10.53-4.28a15.85 15.85 0 0 1-3.47-10.3c0-3.95 1.16-7.38 3.47-10.27 2.31-2.9 5.82-4.35 10.53-4.35 4.7 0 8.22 1.45 10.53 4.35a15.96 15.96 0 0 1 3.47 10.27c0 4.01-1.16 7.45-3.47 10.3Zm13.67 3.35h-7.16V1.58h7.16v37.04Zm21.48-7.44c1.06-1.5 1.58-3.46 1.58-5.85 0-3.35-.84-5.75-2.53-7.19a5.47 5.47 0 0 0-3.62-1.3c-2.1 0-3.63.79-4.61 2.37a11 11 0 0 0-1.47 5.9c0 2.52.5 4.55 1.5 6.06.99 1.52 2.5 2.27 4.53 2.27 2.03 0 3.57-.75 4.62-2.26Zm-1.76-19.5a8.7 8.7 0 0 1 3.14 3.02V1.63h7.26v37H98.9v-3.8a10.08 10.08 0 0 1-3.49 3.54 9.8 9.8 0 0 1-4.87 1.1c-3.2 0-5.9-1.29-8.08-3.88-2.19-2.58-3.28-5.9-3.28-9.96 0-4.68 1.07-8.35 3.23-11.03a10.5 10.5 0 0 1 8.63-4.02 8.7 8.7 0 0 1 4.42 1.1Zm32.9 15.52c.24 1.68.7 2.95 1.4 3.79 1.3 1.52 3.49 2.28 6.6 2.28 1.87 0 3.38-.2 4.54-.6 2.21-.77 3.31-2.2 3.31-4.3 0-1.22-.54-2.17-1.62-2.84-1.08-.65-2.8-1.23-5.14-1.73l-4.01-.88c-3.94-.87-6.65-1.82-8.12-2.84-2.5-1.71-3.75-4.38-3.75-8.02 0-3.31 1.22-6.07 3.67-8.27C127.68 1.6 131.26.5 136 .5c3.95 0 7.32 1.04 10.1 3.1 2.8 2.08 4.26 5.08 4.4 9.02h-7.44a5.3 5.3 0 0 0-2.99-4.75 10.26 10.26 0 0 0-4.61-.93c-2.05 0-3.68.4-4.9 1.2a3.81 3.81 0 0 0-1.83 3.37c0 1.32.6 2.31 1.8 2.97.78.43 2.42.94 4.93 1.53l6.5 1.53c2.85.67 4.98 1.57 6.4 2.69 2.21 1.74 3.32 4.26 3.32 7.56 0 3.39-1.31 6.2-3.93 8.44-2.61 2.23-6.3 3.35-11.08 3.35-4.88 0-8.72-1.1-11.5-3.3-2.8-2.2-4.2-5.23-4.2-9.09h7.39Zm24.46-10.61v-5.1h3.82V3.84h7.09v7.63h4.44v5.1h-4.44v14.48c0 1.12.14 1.82.42 2.1.29.27 1.16.41 2.62.41a19.43 19.43 0 0 0 1.4-.05v5.36l-3.39.12c-3.38.12-5.7-.47-6.94-1.76-.8-.82-1.2-2.08-1.2-3.8V16.6h-3.82Zm34.51 8.71a7.87 7.87 0 0 1-3.31 1.18l-1.63.3c-1.53.27-2.63.6-3.3.99a3.27 3.27 0 0 0-1.69 3.04c0 1.22.35 2.1 1.04 2.65.69.54 1.52.82 2.5.82 1.57 0 3.02-.46 4.34-1.36 1.31-.9 2-2.56 2.05-4.95V25.3Zm-4.38-3.34c1.33-.17 2.29-.38 2.86-.63 1.03-.43 1.54-1.11 1.54-2.03 0-1.12-.4-1.9-1.18-2.33a7.46 7.46 0 0 0-3.48-.64c-1.71 0-2.93.42-3.64 1.26a5.2 5.2 0 0 0-1.02 2.51h-6.91c.15-2.4.82-4.36 2.02-5.9 1.9-2.42 5.17-3.62 9.8-3.62 3 0 5.68.6 8.02 1.78 2.34 1.19 3.5 3.44 3.5 6.74v12.56c0 .87.02 1.93.05 3.17.06.94.2 1.57.43 1.9.24.34.59.62 1.06.84v1.05h-7.8a7.85 7.85 0 0 1-.44-1.56 19 19 0 0 1-.2-1.66c-1 1.08-2.15 2-3.44 2.75a10.4 10.4 0 0 1-5.26 1.33c-2.5 0-4.56-.71-6.18-2.13-1.63-1.41-2.44-3.42-2.44-6.01 0-3.37 1.3-5.81 3.92-7.32 1.44-.82 3.55-1.4 6.33-1.76l2.46-.3Zm37.85-9.16c1.79 1.49 2.69 3.94 2.69 7.38v18.44h-7.34V21.96c0-1.44-.2-2.54-.57-3.31-.7-1.41-2.04-2.11-4-2.11-2.4 0-4.06 1.03-4.96 3.09a10.6 10.6 0 0 0-.7 4.17v14.82h-7.16V11.28h6.94v4c.91-1.4 1.78-2.42 2.6-3.04a9.02 9.02 0 0 1 5.58-1.66c2.82 0 5.13.74 6.92 2.22Zm23.61 18.38c1.06-1.5 1.59-3.46 1.59-5.85 0-3.35-.85-5.75-2.54-7.19a5.48 5.48 0 0 0-3.62-1.3c-2.1 0-3.63.79-4.61 2.37a11 11 0 0 0-1.47 5.9c0 2.52.5 4.55 1.5 6.06 1 1.52 2.5 2.27 4.53 2.27 2.03 0 3.57-.75 4.62-2.26Zm-1.75-19.5a8.68 8.68 0 0 1 3.13 3.02V1.63h7.27v37h-6.96v-3.8a10.08 10.08 0 0 1-3.5 3.54 9.8 9.8 0 0 1-4.87 1.1c-3.2 0-5.9-1.29-8.08-3.88-2.19-2.58-3.28-5.9-3.28-9.96 0-4.68 1.08-8.35 3.23-11.03a10.5 10.5 0 0 1 8.63-4.02c1.66 0 3.14.36 4.43 1.1Zm30.12 13.62a7.8 7.8 0 0 1-1.39.7c-.46.17-1.1.33-1.92.48l-1.63.3c-1.53.27-2.63.6-3.3.99a3.27 3.27 0 0 0-1.69 3.04c0 1.22.35 2.1 1.04 2.65.69.54 1.52.82 2.51.82 1.57 0 3-.46 4.33-1.36 1.31-.9 2-2.56 2.05-4.95V25.3Zm-4.38-3.34a11.3 11.3 0 0 0 2.86-.63c1.03-.43 1.55-1.11 1.55-2.03 0-1.12-.4-1.9-1.19-2.33a7.48 7.48 0 0 0-3.48-.64c-1.71 0-2.93.42-3.64 1.26a5.3 5.3 0 0 0-1.02 2.51h-6.9c.14-2.4.82-4.36 2.01-5.9 1.9-2.42 5.17-3.62 9.8-3.62 3 0 5.68.6 8.02 1.78 2.34 1.19 3.5 3.44 3.5 6.74v12.56c0 .87.02 1.93.06 3.17.05.94.19 1.57.43 1.9.23.34.58.62 1.05.84v1.05h-7.79a8 8 0 0 1-.45-1.56 19 19 0 0 1-.2-1.66c-1 1.08-2.14 2-3.44 2.75a10.4 10.4 0 0 1-5.26 1.33c-2.5 0-4.55-.71-6.18-2.13-1.63-1.41-2.44-3.42-2.44-6.01 0-3.37 1.31-5.81 3.93-7.32 1.43-.82 3.54-1.4 6.33-1.76l2.45-.3Zm30.3-11.36.62.03v7.34a17.9 17.9 0 0 0-2.06-.13c-2.88 0-4.82.94-5.8 2.82-.56 1.05-.83 2.68-.83 4.87v13.1h-7.21v-27.4h6.83v4.78c1.1-1.83 2.07-3.08 2.9-3.75a7.86 7.86 0 0 1 5.56-1.67Zm19.09 20.58c1.05-1.5 1.58-3.46 1.58-5.85 0-3.35-.85-5.75-2.54-7.19a5.47 5.47 0 0 0-3.62-1.3c-2.1 0-3.63.79-4.6 2.37a11 11 0 0 0-1.48 5.9c0 2.52.5 4.55 1.5 6.06 1 1.52 2.5 2.27 4.54 2.27 2.02 0 3.56-.75 4.62-2.26Zm-1.76-19.5a8.7 8.7 0 0 1 3.14 3.02V1.63h7.26v37h-6.96v-3.8a10.1 10.1 0 0 1-3.5 3.54 9.8 9.8 0 0 1-4.87 1.1c-3.2 0-5.89-1.29-8.08-3.88-2.18-2.58-3.27-5.9-3.27-9.96 0-4.68 1.07-8.35 3.22-11.03a10.5 10.5 0 0 1 8.64-4.02c1.65 0 3.13.36 4.42 1.1ZM23.19 31.75a9.73 9.73 0 0 1-5.07 1.27c-2.65 0-5.01-.94-7.09-2.83-2.08-1.9-3.11-5.11-3.11-9.66 0-4.51.95-7.9 2.87-10.14A9.23 9.23 0 0 1 18.14 7c1.56 0 2.98.28 4.25.83a7.25 7.25 0 0 1 4.3 5.3h7.61a13.32 13.32 0 0 0-4.91-8.93C26.53 1.82 22.75.63 18.04.63c-5.42 0-9.79 1.8-13.09 5.42C1.65 9.67 0 14.48 0 20.47c0 5.93 1.64 10.6 4.9 14.01 3.13 3.4 7.15 5.1 12.06 5.1 2.38 0 4.45-.4 6.23-1.2v-6.63Z" fill="#fff"/><path d="M18.11 18.88v6.77h9.65v9.64h6.77V18.88H18.1Z" fill="#fff"/></svg>