<svg xmlns="http://www.w3.org/2000/svg" fill="none" width="481" height="40"><path fill="#fff" d="M385.2 11.6c-.1-.3 0-.6.5-.6h2.7c.2 0 .4.2.4.3l4.7 11h.2L403.4 1c0-.1.1-.3.4-.3h2.7c.4 0 .6.4.4.7l-12.7 27.4c0 .2-.2.3-.4.3h-.3c-.2 0-.3 0-.4-.3l-7.9-17Zm21 .3c0-.3.3-.5.6-.5h10a.5.5 0 0 1 .5.5v2c0 .3-.2.5-.5.5h-7.3v4.1h6.1c.3 0 .5.2.5.5v2c0 .3-.2.5-.5.5h-6V26h7.2c.3 0 .5.2.5.4v2c0 .3-.2.6-.5.6h-10a.5.5 0 0 1-.5-.5V11.9Zm15.3 0c0-.3.2-.5.5-.5h7c3 0 5.5 2.4 5.5 5.4 0 2.2-1.6 4-3.7 5l3.4 6.2c.2.4 0 .7-.4.7h-2.6c-.2 0-.3 0-.4-.2l-3.3-6.5h-2.7v6.3c0 .2-.3.5-.5.5H422a.5.5 0 0 1-.5-.5V11.9Zm7.3 7.4a2.5 2.5 0 0 0 0-4.9h-4v5h4Zm9.8-7.4c0-.2.2-.5.5-.5h7c3 0 5.4 2.4 5.4 5.4 0 2.3-1.5 4-3.6 5l3.4 6.2c.1.4 0 .7-.4.7h-2.6c-.3 0-.4 0-.4-.2l-3.3-6.5h-2.8v6.3c0 .2-.2.5-.4.5H439a.5.5 0 0 1-.5-.5V11.9Zm7.3 7.4a2.5 2.5 0 0 0 0-4.9h-4v5h4Zm7.8 8.8 7.7-16.6c0-.2.2-.3.4-.3h.3c.2 0 .3.1.4.3L470 28c.1.4 0 .6-.4.6h-2.1c-.4 0-.6-.1-.8-.4l-1.2-2.7h-7.4l-1.2 2.7a.7.7 0 0 1-.7.4H454c-.3 0-.5-.3-.4-.6Zm10.7-5.3-2.5-5.4-2.5 5.4h5Z"/><path fill="#fff" d="M480 39.6H375.6a1 1 0 0 1-1-1v-37c0-.6.4-1 1-1h23.3c.3 0 .4.2.3.4l-1 2.6c0 .1-.1.2-.3.2h-19.8a.3.3 0 0 0-.3.3v32c0 .1.1.3.3.3h99.3c.2 0 .4-.2.4-.4V4.1a.3.3 0 0 0-.4-.3h-67.3a.3.3 0 0 1-.3-.5L411 .7c0-.1.1-.2.3-.2H480c.6 0 1 .5 1 1v37c0 .6-.5 1-1 1Zm-148.4-36v1.2h1.4c.2-.2.3-.3.3-.6 0-.4-.3-.6-.8-.6h-.8Zm-.5 3.2V3.2h1.4c.9 0 1.3.3 1.3 1 0 .6-.3 1-1 1l1 1.6h-.5l-1-1.5h-.6v1.5h-.6ZM329.7 5c0 .8.2 1.5.7 2 .5.5 1.1.8 1.9.8.7 0 1.4-.3 1.8-.8.5-.5.8-1.1.8-2 0-.6-.3-1.3-.7-1.8a2.4 2.4 0 0 0-1.9-.8c-.7 0-1.3.3-1.8.8s-.8 1.1-.8 1.8Zm-.6.1a3 3 0 0 1 3.2-3.1 3 3 0 0 1 3.1 3.1 3 3 0 0 1-3.1 3.1 3 3 0 0 1-2.2-.9 3 3 0 0 1-1-2.2ZM56.3 31.3c1.2-1.5 1.7-3.6 1.7-6.3 0-2.8-.5-4.9-1.7-6.4a5.7 5.7 0 0 0-4.8-2.2 6 6 0 0 0-4.8 2.2A10.3 10.3 0 0 0 45 25c0 2.7.6 4.8 1.7 6.3a5.7 5.7 0 0 0 4.8 2.2c2.1 0 3.7-.7 4.8-2.2Zm5.8 4c-2.3 2.8-5.8 4.2-10.6 4.2-4.7 0-8.2-1.4-10.5-4.2A15.8 15.8 0 0 1 37.5 25c0-4 1.2-7.4 3.5-10.3 2.3-2.9 5.8-4.4 10.5-4.4s8.3 1.5 10.6 4.4A16 16 0 0 1 65.5 25c0 4-1.1 7.4-3.4 10.3Zm13.6 3.3h-7.1v-37h7.1v37Zm21.5-7.4a10 10 0 0 0 1.6-5.9c0-3.3-.8-5.7-2.5-7.2a5.5 5.5 0 0 0-3.6-1.3c-2.1 0-3.7.8-4.7 2.4a11 11 0 0 0-1.4 6c0 2.4.5 4.5 1.5 6s2.5 2.2 4.5 2.2 3.6-.7 4.6-2.2Zm-1.7-19.5a8.7 8.7 0 0 1 3.1 3v-13h7.3v37h-7v-3.9a10 10 0 0 1-3.5 3.6 9.8 9.8 0 0 1-4.9 1 9.8 9.8 0 0 1-8-3.8 14.9 14.9 0 0 1-3.3-10c0-4.7 1-8.3 3.2-11a10.5 10.5 0 0 1 8.6-4 8.7 8.7 0 0 1 4.5 1Zm32.9 15.5a7 7 0 0 0 1.4 3.8c1.3 1.5 3.5 2.3 6.6 2.3 1.8 0 3.3-.2 4.5-.6 2.2-.8 3.3-2.2 3.3-4.3 0-1.3-.5-2.2-1.6-2.9-1-.6-2.8-1.2-5.1-1.7l-4-.9a25 25 0 0 1-8.2-2.8c-2.5-1.7-3.7-4.4-3.7-8 0-3.4 1.2-6.1 3.6-8.3 2.5-2.2 6-3.3 10.8-3.3 4 0 7.3 1 10.1 3.1 2.8 2 4.3 5 4.4 9h-7.4a5.3 5.3 0 0 0-3-4.7 10.3 10.3 0 0 0-4.6-1c-2 0-3.7.4-5 1.2a3.8 3.8 0 0 0-1.8 3.4c0 1.3.6 2.3 1.8 3 .8.4 2.4 1 5 1.5l6.5 1.5c2.8.7 5 1.6 6.4 2.7a9 9 0 0 1 3.3 7.6c0 3.4-1.3 6.2-4 8.4a16.6 16.6 0 0 1-11 3.4 18 18 0 0 1-11.5-3.3 11 11 0 0 1-4.2-9.1h7.4Zm24.4-10.6v-5.1h3.8V3.8h7.1v7.7h4.5v5h-4.5v14.6c0 1 .2 1.8.5 2 .2.3 1.1.5 2.6.5a19.4 19.4 0 0 0 1.4 0v5.3h-3.4c-3.4.2-5.7-.4-7-1.7-.8-.8-1.2-2-1.2-3.8V16.6h-3.8Zm34.5 8.7a7.9 7.9 0 0 1-3.3 1.2l-1.6.3c-1.5.2-2.6.6-3.3 1a3.3 3.3 0 0 0-1.7 3c0 1.2.4 2.1 1 2.7a4 4 0 0 0 2.5.8 8 8 0 0 0 4.4-1.4c1.3-.9 2-2.5 2-5v-2.6ZM183 22c1.3-.2 2.2-.4 2.8-.7 1-.4 1.6-1 1.6-2 0-1.1-.4-1.9-1.2-2.3a7.5 7.5 0 0 0-3.5-.7c-1.7 0-3 .4-3.6 1.3a5.2 5.2 0 0 0-1 2.5h-7c.2-2.4.8-4.4 2-5.9 2-2.4 5.2-3.6 9.8-3.6 3 0 5.7.6 8 1.8 2.4 1.2 3.6 3.4 3.6 6.7v15.7c0 1 .2 1.6.4 2 .3.3.6.6 1.1.8v1h-7.8a7.8 7.8 0 0 1-.4-1.5 19 19 0 0 1-.2-1.7c-1 1-2.2 2-3.5 2.8a10.4 10.4 0 0 1-5.2 1.3 9 9 0 0 1-6.2-2.1 7.5 7.5 0 0 1-2.5-6c0-3.4 1.3-5.9 4-7.4 1.4-.8 3.5-1.4 6.3-1.7l2.5-.3Zm37.8-9.2c1.8 1.5 2.7 4 2.7 7.4v18.4h-7.3V22a7 7 0 0 0-.6-3.3c-.7-1.5-2-2.2-4-2.2-2.4 0-4 1-5 3.1a10.6 10.6 0 0 0-.7 4.2v14.8h-7.1V11.3h6.9v4a12 12 0 0 1 2.6-3 9 9 0 0 1 5.6-1.7c2.8 0 5.1.7 6.9 2.2Zm23.6 18.4a10 10 0 0 0 1.6-5.9c0-3.3-.8-5.7-2.5-7.2a5.5 5.5 0 0 0-3.7-1.3c-2 0-3.6.8-4.6 2.4a11 11 0 0 0-1.4 6c0 2.4.5 4.5 1.5 6s2.5 2.2 4.5 2.2 3.6-.7 4.6-2.2Zm-1.7-19.5a8.7 8.7 0 0 1 3 3v-13h7.4v37h-7v-3.9a10 10 0 0 1-3.5 3.6 9.8 9.8 0 0 1-4.9 1 9.8 9.8 0 0 1-8-3.8 14.9 14.9 0 0 1-3.3-10c0-4.7 1-8.3 3.2-11a10.5 10.5 0 0 1 8.6-4c1.7 0 3.2.3 4.5 1Zm30 13.6a7.8 7.8 0 0 1-1.3.7l-2 .5-1.6.3c-1.5.2-2.6.6-3.3 1a3.3 3.3 0 0 0-1.6 3c0 1.2.3 2.1 1 2.7a4 4 0 0 0 2.5.8c1.6 0 3-.5 4.3-1.4 1.3-.9 2-2.5 2-5v-2.6Zm-4.3-3.3a11.3 11.3 0 0 0 2.9-.7c1-.4 1.5-1 1.5-2 0-1.1-.4-1.9-1.2-2.3a7.5 7.5 0 0 0-3.5-.7c-1.7 0-2.9.4-3.6 1.3a5.3 5.3 0 0 0-1 2.5h-7c.2-2.4.9-4.4 2-5.9 2-2.4 5.3-3.6 9.9-3.6 3 0 5.7.6 8 1.8 2.4 1.2 3.5 3.4 3.5 6.7v15.7c.1 1 .3 1.6.5 2 .2.3.6.6 1 .8v1h-7.7a8 8 0 0 1-.5-1.5 19 19 0 0 1-.2-1.7c-1 1-2.1 2-3.4 2.8a10.4 10.4 0 0 1-5.3 1.3 9 9 0 0 1-6.2-2.1 7.5 7.5 0 0 1-2.4-6c0-3.4 1.3-5.9 4-7.4 1.4-.8 3.5-1.4 6.3-1.7l2.4-.3Zm30.3-11.4h.6V18a17.9 17.9 0 0 0-2-.2c-3 0-4.9 1-5.8 2.9-.6 1-.9 2.6-.9 4.8v13.1h-7.2V11.2h6.9V16c1-1.8 2-3 2.9-3.7a7.9 7.9 0 0 1 5.5-1.7Zm19 20.6a10 10 0 0 0 1.7-5.9c0-3.3-.9-5.7-2.6-7.2a5.5 5.5 0 0 0-3.6-1.3c-2 0-3.6.8-4.6 2.4a11 11 0 0 0-1.5 6c0 2.4.5 4.5 1.5 6s2.5 2.2 4.6 2.2c2 0 3.5-.7 4.6-2.2ZM316 11.7a8.7 8.7 0 0 1 3.2 3v-13h7.2v37h-7v-3.9a10.1 10.1 0 0 1-3.4 3.6 9.8 9.8 0 0 1-4.9 1 9.8 9.8 0 0 1-8-3.8 14.9 14.9 0 0 1-3.3-10c0-4.7 1-8.3 3.2-11a10.5 10.5 0 0 1 8.6-4 9 9 0 0 1 4.4 1Zm-292.8 20a9.7 9.7 0 0 1-5 1.3c-2.7 0-5-1-7.2-2.8-2-2-3-5.1-3-9.7 0-4.5.9-7.9 2.8-10.1A9.2 9.2 0 0 1 18 7c1.6 0 3 .3 4.3.8a7.3 7.3 0 0 1 4.3 5.3h7.6a13.3 13.3 0 0 0-5-8.9A17.2 17.2 0 0 0 18 .6C12.6.6 8.2 2.4 5 6.1a20 20 0 0 0-5 14.4c0 5.9 1.6 10.6 4.9 14 3.1 3.4 7.2 5 12 5a15 15 0 0 0 6.3-1.1v-6.7Z"/><path fill="#fff" d="M18.1 18.9v6.8h9.7v9.6h6.7V18.9H18.1Z"/></svg>