<svg xmlns="http://www.w3.org/2000/svg" fill="none" width="345" height="203" viewBox="0 0 345 203"><path fill="#fff" d="M198.6 164.8c-.2-.46.05-.84.55-.84h3.72c.3 0 .51.2.56.36l6.45 15.1h.24l13.15-29.24a.59.59 0 0 1 .56-.36h3.72c.5 0 .75.46.55.85l-17.32 37.46c-.1.19-.25.36-.56.36h-.36c-.32 0-.46-.15-.56-.37l-10.7-23.31Zm28.66.4c0-.37.24-.66.65-.66h13.7c.37 0 .66.31.66.65v2.78c0 .36-.25.65-.66.65h-9.98v5.54h8.32c.36 0 .65.31.65.65v2.83c0 .36-.32.65-.65.65h-8.32v5.9h9.98c.37 0 .66.31.66.65v2.78c0 .36-.25.65-.66.65h-13.7a.67.67 0 0 1-.65-.65v-22.43Zm20.74 0c0-.37.24-.66.65-.66h9.61a7.3 7.3 0 0 1 7.35 7.25c0 3.12-2.05 5.63-4.98 6.79l4.64 8.55c.25.46 0 .97-.55.97h-3.53c-.31 0-.46-.14-.56-.31l-4.47-8.92h-3.72v8.6c0 .37-.31.66-.65.66h-3.12a.67.67 0 0 1-.65-.66l-.03-22.28Zm9.9 10.07a3.46 3.46 0 0 0 3.34-3.43 3.38 3.38 0 0 0-3.34-3.27h-5.48v6.7h5.48Zm13.34-10.07c0-.37.24-.66.65-.66h9.62a7.3 7.3 0 0 1 7.35 7.25c0 3.12-2.06 5.63-4.98 6.79l4.64 8.55c.24.46 0 .97-.56.97h-3.52c-.32 0-.46-.14-.56-.31l-4.47-8.92h-3.72v8.6c0 .37-.32.66-.65.66h-3.12a.67.67 0 0 1-.65-.66V165.2h-.03Zm9.93 10.07a3.46 3.46 0 0 0 3.34-3.43 3.38 3.38 0 0 0-3.34-3.27h-5.48v6.7h5.48Zm10.69 11.98 10.46-22.66c.1-.2.24-.37.56-.37h.36c.36 0 .46.15.55.37l10.37 22.66c.2.47-.05.85-.55.85h-2.93c-.5 0-.75-.2-.97-.65l-1.66-3.63h-10.08l-1.67 3.63a1 1 0 0 1-.96.65h-2.93c-.5 0-.77-.41-.55-.84Zm14.54-7.2-3.38-7.4h-.1l-3.33 7.4h6.81Z"/><path fill="#fff" d="M327.6 202.87H185.4c-.8 0-1.4-.66-1.4-1.4V151.1c0-.8.65-1.4 1.4-1.4h31.83c.31 0 .5.31.41.6l-1.4 3.58c-.05.15-.2.24-.41.24h-26.95c-.24 0-.46.2-.46.46v43.45c0 .25.2.46.46.46h135.24c.24 0 .46-.19.46-.46v-43.5c0-.24-.2-.46-.46-.46h-91.69c-.31 0-.5-.3-.41-.6l1.62-3.58c.05-.14.2-.24.4-.24h93.56c.8 0 1.4.66 1.4 1.4v50.34c0 .8-.65 1.48-1.4 1.48Zm-201.59-14.2h5.69v1.83h-3.52v1.6h2.94v1.73h-2.94v1.15h3.7v1.85H126v-8.16Zm-6.86 8.23c-.05.07-.12.07-.15 0l-3.82-8.23h2.3l1.67 3.8 1.62-3.8h2.2l-3.82 8.24Zm-10.12-3.69c.99 0 1.34-.56 1.34-1.34s-.35-1.35-1.34-1.35h-.8v2.7h.8Zm3.5 3.6h-2.35l-1.13-1.86h-.81v1.86h-2.17v-8.14h3.07c2.19 0 3.43 1.39 3.43 3.2 0 1.17-.53 2.1-1.48 2.63l1.44 2.31Zm-16.85-8.14h5.7v1.83h-3.51v1.6h2.93v1.73h-2.93v1.15h3.68v1.85h-5.87v-8.16Zm-20.46 0h5.7v1.83H77.4v1.6h2.95v1.73H77.4v1.15h3.7v1.85h-5.88v-8.16Zm-7.5 4.54c.97 0 1.33-.56 1.33-1.34s-.36-1.35-1.33-1.35h-.82v2.7h.82Zm3.5 3.6h-2.36l-1.13-1.86h-.83v1.86h-2.16v-8.14h3.07c2.2 0 3.43 1.39 3.43 3.2 0 1.17-.51 2.1-1.47 2.63l1.45 2.31Zm13.65-1.38 1.58-1.2c.4.5.87.9 1.7.9s1.02-.2 1.02-.64c0-.45-.25-.53-.8-.7l-.95-.32c-1.2-.4-2.02-1.12-2.02-2.47s1.32-2.42 2.77-2.42 2.23.5 2.7 1.08l-1.24 1.3a1.7 1.7 0 0 0-1.34-.6c-.52 0-.8.26-.8.58 0 .31.18.46.58.59l1.08.36c1.63.54 2.17 1.32 2.17 2.47 0 1.5-.92 2.58-3.07 2.58a4.05 4.05 0 0 1-3.38-1.51Zm18.51-21.92h-1.26v8.06h1.26v-8.06Zm-11.92 1.13h-2.38v-1.13h6.03v1.13h-2.39v6.93h-1.26v-6.93Zm34.82 1.64v5.29h-1.18v-8.17h.1l5.14 5.41v-5.3h1.2v8.19h-.1l-5.16-5.42Zm-50.06 1.26a4.05 4.05 0 0 1 4.1-4.14c1.5 0 2.51.59 3.21 1.58l-.97.68a2.55 2.55 0 0 0-2.28-1.11c-1.59 0-2.75 1.29-2.75 2.99 0 1.7 1.2 2.98 2.8 2.98 1.05 0 1.82-.38 2.42-1.16l.97.66a3.96 3.96 0 0 1-3.44 1.66 4.02 4.02 0 0 1-4.06-4.14Zm41.25 0c0-1.7-1.18-3-2.83-3-1.66 0-2.84 1.3-2.84 3s1.17 2.98 2.84 2.98 2.83-1.28 2.83-2.98Zm-6.99 0a4.16 4.16 0 1 1 2.56 3.84 4.1 4.1 0 0 1-2.56-3.84Zm-43.15-1.42L66 179.31h2.66l-1.33-3.19Zm-2.26 5.45H63.8l3.52-8.22h.06l3.54 8.22h-1.34l-.46-1.13h-3.59l-.46 1.13Zm-44.86-6.13a2.01 2.01 0 0 0 1.12-2.6l-.54-1.36a1.97 1.97 0 0 0-2.58-1.12l-1.36.54a1.98 1.98 0 0 0-1.11 2.6l.54 1.35a2 2 0 0 0 2.58 1.13l1.35-.54Zm-2.59-7.5a1.53 1.53 0 0 0 .86-1.97 1.51 1.51 0 1 0-.86 1.97Zm108.78-9.05h5.1v1.13h-3.85v3.25h3.4v1.1h-3.4v1.46h4.01v1.12h-5.27v-8.06Zm-8.16 1.13h-2.38v-1.13h6.04v1.13h-2.39v6.93h-1.27v-6.93Zm-30.96-1.13h-1.26v8.06h1.26v-8.06Zm-10.92 0h1.26v6.94h3.54v1.12h-4.8v-8.06Zm-12.32 4.03c0-2.39 1.8-4.14 4.1-4.14a3.7 3.7 0 0 1 3.2 1.57l-.96.69a2.6 2.6 0 0 0-2.28-1.11c-1.6 0-2.76 1.28-2.76 2.99 0 1.7 1.18 3 2.8 3a2.85 2.85 0 0 0 2.41-1.18l.97.66a3.91 3.91 0 0 1-3.42 1.66 4.02 4.02 0 0 1-4.06-4.14Zm45.52-1.42-1.34 3.2h2.64c.02 0-1.3-3.2-1.3-3.2Zm-2.28 5.45H106l3.53-8.22h.06l3.53 8.22h-1.32l-.46-1.13h-3.6l-.46 1.13Zm-13.65-8.22h.05l3.92 4.54 3.88-4.54h.07v8.22h-1.2v-5.23L97.6 165h-.05l-2.74-3.28v5.23h-1.18v-8.22Z"/><path fill="#fff" fill-rule="evenodd" d="M21.84 151.52a25.3 25.3 0 0 1 32.98 14.01 25.43 25.43 0 0 1-13.96 33.09 25.34 25.34 0 0 1-33-14.02c-5.25-13 1-27.82 13.98-33.08Zm31.07 17.64A22.35 22.35 0 0 0 9 174.76l3.8-1.57a1.88 1.88 0 0 1 2.05.43c.17.17.3.38.4.6l.5 1.3a2.34 2.34 0 0 0 3.05 1.29l3.53-1.42a9.03 9.03 0 1 0 15.75-6.32l4.83-2a2.32 2.32 0 0 1 3.04 1.28l.58 1.37a1.88 1.88 0 0 0 2.43 1.04l3.95-1.6Zm-9.54 7.65c.14-.37.41-.66.77-.83a1.53 1.53 0 0 1 1.13 2.84 1.53 1.53 0 0 1-1.9-2.01Zm-1.91-8.28a1.99 1.99 0 0 0-1.11 2.58l.54 1.37a2 2 0 0 0 2.58 1.12l1.35-.55a1.98 1.98 0 0 0 1.13-2.6l-.54-1.35a2 2 0 0 0-2.58-1.11l-1.37.54Zm6.84 4.15c.16-.15.35-.28.57-.36l1.18-.46a1.72 1.72 0 0 1 2.22.97l.47 1.18a1.72 1.72 0 0 1-.97 2.23l-1.17.46a1.7 1.7 0 0 1-2.23-.96l-.48-1.18a1.72 1.72 0 0 1 .4-1.88Z" clip-rule="evenodd"/><path fill="#fff" d="M12.8 171.72a1.7 1.7 0 0 0 .98-2.23l-.48-1.18a1.72 1.72 0 0 0-2.23-.96l-1.18.46a1.72 1.72 0 0 0-.95 2.23l.46 1.18a1.72 1.72 0 0 0 2.23.97l1.18-.47Zm318.85-90.44v1.17h.6c.3 0 .53-.03.65-.09.2-.08.3-.26.3-.52 0-.37-.26-.56-.8-.56h-.75Zm-.57 3.2v-3.66h1.41c.86 0 1.29.34 1.29 1.04 0 .57-.32.9-.97 1l1.05 1.62h-.6l-1-1.58h-.6v1.58h-.58Zm-1.37-1.9c0 .78.24 1.43.71 1.95.49.53 1.12.8 1.88.8a2.4 2.4 0 0 0 1.85-.79c.48-.51.72-1.14.72-1.9 0-.74-.24-1.37-.72-1.88a2.44 2.44 0 0 0-1.85-.78c-.72 0-1.34.25-1.83.76-.5.5-.76 1.12-.76 1.85Zm-.57.12a3.09 3.09 0 0 1 3.16-3.18 3.08 3.08 0 0 1 3.14 3.13 3.09 3.09 0 0 1-3.14 3.14c-.86 0-1.6-.3-2.23-.9a2.93 2.93 0 0 1-.93-2.2Zm-272.8 26.27c1.12-1.5 1.68-3.6 1.68-6.35 0-2.74-.56-4.86-1.68-6.34a5.7 5.7 0 0 0-4.83-2.22c-2.09 0-3.7.74-4.83 2.22-1.13 1.48-1.7 3.6-1.7 6.34 0 2.74.57 4.86 1.7 6.35a5.71 5.71 0 0 0 4.83 2.23c2.1 0 3.7-.75 4.83-2.23Zm5.73 3.95c-2.31 2.86-5.82 4.29-10.53 4.29-4.71 0-8.22-1.43-10.53-4.29a15.85 15.85 0 0 1-3.47-10.3c0-3.95 1.16-7.38 3.47-10.27 2.31-2.9 5.82-4.35 10.53-4.35 4.7 0 8.22 1.45 10.53 4.35a15.96 15.96 0 0 1 3.47 10.27c0 4.02-1.16 7.45-3.47 10.3Zm13.67 3.36h-7.16V79.24h7.16v37.04Zm21.48-7.44c1.06-1.51 1.58-3.46 1.58-5.86 0-3.35-.84-5.75-2.53-7.19a5.47 5.47 0 0 0-3.62-1.3c-2.1 0-3.63.79-4.61 2.37a11 11 0 0 0-1.47 5.9c0 2.52.5 4.55 1.5 6.06.99 1.52 2.5 2.28 4.53 2.28 2.03 0 3.57-.75 4.62-2.26Zm-1.76-19.52a8.7 8.7 0 0 1 3.14 3.03V79.28h7.26v37H98.9v-3.8a10.07 10.07 0 0 1-3.49 3.54 9.78 9.78 0 0 1-4.87 1.11c-3.2 0-5.9-1.3-8.08-3.88-2.19-2.6-3.28-5.91-3.28-9.97 0-4.67 1.07-8.35 3.23-11.03a10.5 10.5 0 0 1 8.63-4.02 8.7 8.7 0 0 1 4.42 1.1Zm32.89 15.52c.25 1.7.72 2.96 1.42 3.8 1.28 1.52 3.48 2.29 6.6 2.29 1.86 0 3.37-.2 4.53-.6 2.21-.78 3.31-2.21 3.31-4.3 0-1.23-.54-2.17-1.62-2.84-1.08-.66-2.8-1.24-5.14-1.74l-4.01-.88c-3.94-.87-6.65-1.82-8.12-2.84-2.5-1.7-3.75-4.38-3.75-8.01 0-3.32 1.22-6.08 3.67-8.27 2.44-2.2 6.02-3.3 10.76-3.3 3.95 0 7.32 1.04 10.1 3.1 2.8 2.08 4.26 5.08 4.4 9.02h-7.44a5.3 5.3 0 0 0-2.99-4.75 10.26 10.26 0 0 0-4.61-.93c-2.05 0-3.68.4-4.9 1.2a3.81 3.81 0 0 0-1.83 3.37c0 1.33.6 2.31 1.8 2.97.78.43 2.42.95 4.93 1.53l6.5 1.53c2.85.67 4.98 1.57 6.4 2.7 2.21 1.74 3.32 4.26 3.32 7.56 0 3.38-1.31 6.2-3.93 8.43-2.61 2.23-6.3 3.35-11.08 3.35-4.88 0-8.72-1.1-11.5-3.3-2.8-2.2-4.2-5.23-4.2-9.09h7.38Zm24.47-10.6v-5.1h3.82V81.5h7.09v7.64h4.44v5.1h-4.44v14.47c0 1.13.14 1.83.42 2.1.29.28 1.16.41 2.62.41a21 21 0 0 0 1.4-.05v5.36l-3.39.12c-3.38.12-5.7-.47-6.94-1.76-.8-.82-1.2-2.08-1.2-3.79V94.24h-3.82Zm34.51 8.72a8.55 8.55 0 0 1-3.31 1.18l-1.63.3c-1.53.27-2.63.6-3.3.98a3.27 3.27 0 0 0-1.69 3.04c0 1.22.35 2.1 1.04 2.65.69.55 1.52.82 2.5.82 1.57 0 3.02-.46 4.34-1.36 1.31-.9 2-2.55 2.05-4.95v-2.66Zm-4.38-3.35c1.33-.16 2.29-.37 2.86-.63 1.03-.43 1.54-1.1 1.54-2.03 0-1.12-.39-1.9-1.18-2.32a7.46 7.46 0 0 0-3.48-.64c-1.71 0-2.93.41-3.64 1.25a5.2 5.2 0 0 0-1.02 2.51h-6.91c.15-2.4.82-4.36 2.02-5.9 1.9-2.41 5.17-3.62 9.8-3.62 3 0 5.68.6 8.02 1.78 2.34 1.2 3.5 3.44 3.5 6.74v12.56c0 .88.02 1.93.05 3.17.06.94.2 1.58.43 1.91.24.33.59.61 1.06.83v1.06h-7.8a7.86 7.86 0 0 1-.44-1.56c-.09-.49-.16-1.04-.2-1.66-1 1.07-2.15 1.98-3.44 2.74a10.4 10.4 0 0 1-5.26 1.33c-2.5 0-4.56-.7-6.18-2.13-1.63-1.41-2.44-3.42-2.44-6.01 0-3.37 1.3-5.8 3.92-7.31 1.44-.83 3.55-1.41 6.33-1.76l2.46-.3Zm37.85-9.15c1.79 1.48 2.69 3.94 2.69 7.37v18.45h-7.34V99.62c0-1.45-.2-2.55-.57-3.32-.7-1.4-2.04-2.11-4-2.11-2.4 0-4.06 1.03-4.96 3.09a10.7 10.7 0 0 0-.7 4.17v14.83h-7.16V88.93h6.94v4c.91-1.4 1.78-2.42 2.6-3.04a9.02 9.02 0 0 1 5.58-1.66c2.82 0 5.13.74 6.92 2.23Zm23.61 18.38c1.06-1.51 1.59-3.46 1.59-5.86 0-3.35-.85-5.75-2.54-7.19a5.48 5.48 0 0 0-3.62-1.3c-2.1 0-3.63.79-4.61 2.37a11 11 0 0 0-1.47 5.9c0 2.52.5 4.55 1.5 6.06 1 1.52 2.5 2.28 4.53 2.28 2.03 0 3.57-.75 4.62-2.26Zm-1.75-19.52a8.69 8.69 0 0 1 3.13 3.03V79.28h7.27v37h-6.96v-3.8a10.07 10.07 0 0 1-3.5 3.54 9.79 9.79 0 0 1-4.87 1.11c-3.2 0-5.9-1.3-8.08-3.88-2.19-2.6-3.28-5.91-3.28-9.97 0-4.67 1.08-8.35 3.23-11.03a10.5 10.5 0 0 1 8.63-4.02c1.66 0 3.14.36 4.43 1.1Zm30.12 13.64a8.55 8.55 0 0 1-3.31 1.18l-1.63.3c-1.53.27-2.63.6-3.3.98a3.27 3.27 0 0 0-1.69 3.04c0 1.22.35 2.1 1.04 2.65.69.55 1.52.82 2.51.82 1.57 0 3-.46 4.33-1.36 1.31-.9 2-2.55 2.05-4.95v-2.66Zm-4.38-3.35a11.3 11.3 0 0 0 2.86-.63c1.03-.43 1.55-1.1 1.55-2.03 0-1.12-.4-1.9-1.19-2.32a7.48 7.48 0 0 0-3.48-.64c-1.71 0-2.93.41-3.64 1.25a5.3 5.3 0 0 0-1.02 2.51h-6.9c.14-2.4.82-4.36 2.01-5.9 1.9-2.41 5.17-3.62 9.8-3.62 3 0 5.68.6 8.02 1.78 2.34 1.2 3.5 3.44 3.5 6.74v12.56c0 .88.02 1.93.06 3.17.05.94.19 1.58.43 1.91.23.33.58.61 1.05.83v1.06h-7.79a8.01 8.01 0 0 1-.45-1.56c-.09-.49-.15-1.04-.2-1.66a15.1 15.1 0 0 1-3.44 2.74 10.4 10.4 0 0 1-5.26 1.33 9 9 0 0 1-6.18-2.13c-1.63-1.41-2.44-3.42-2.44-6.01 0-3.37 1.31-5.8 3.93-7.31 1.43-.83 3.54-1.41 6.33-1.76l2.45-.3Zm30.3-11.37c.1.01.3.03.62.04v7.34a17.94 17.94 0 0 0-2.06-.12c-2.88 0-4.82.93-5.8 2.8-.56 1.06-.83 2.69-.83 4.88v13.1h-7.21v-27.4h6.83v4.78a14.67 14.67 0 0 1 2.9-3.74 7.86 7.86 0 0 1 5.56-1.68Zm19.09 20.6c1.05-1.51 1.58-3.46 1.58-5.86 0-3.35-.85-5.75-2.54-7.19a5.47 5.47 0 0 0-3.62-1.3c-2.1 0-3.63.79-4.6 2.37a11 11 0 0 0-1.48 5.9c0 2.52.5 4.55 1.5 6.06 1 1.52 2.5 2.28 4.54 2.28 2.02 0 3.56-.75 4.62-2.26Zm-1.76-19.52a8.7 8.7 0 0 1 3.14 3.03V79.28h7.26v37h-6.96v-3.8a10.1 10.1 0 0 1-3.5 3.54 9.79 9.79 0 0 1-4.87 1.11c-3.2 0-5.89-1.3-8.08-3.88-2.18-2.6-3.27-5.91-3.27-9.97 0-4.67 1.07-8.35 3.22-11.03a10.5 10.5 0 0 1 8.64-4.02c1.65 0 3.13.36 4.42 1.1ZM23.19 109.4a9.73 9.73 0 0 1-5.07 1.27c-2.65 0-5.01-.94-7.09-2.83-2.08-1.89-3.11-5.1-3.11-9.66 0-4.51.95-7.9 2.87-10.14a9.23 9.23 0 0 1 7.35-3.38c1.56 0 2.98.28 4.25.83a7.26 7.26 0 0 1 4.3 5.3h7.61a13.32 13.32 0 0 0-4.91-8.93c-2.86-2.38-6.64-3.58-11.35-3.58-5.42 0-9.79 1.8-13.09 5.43C1.65 87.32 0 92.13 0 98.12c0 5.93 1.64 10.6 4.9 14.01 3.13 3.4 7.15 5.1 12.06 5.1 2.38 0 4.45-.4 6.23-1.2v-6.63Z"/><path fill="#fff" d="M18.11 96.53v6.77h9.65v9.64h6.77v-16.4H18.1ZM203.6 36.62h-1.85v.88h1.84v-.88Zm1.62-.38a.93.93 0 0 0-.25.55h1.63c-.03-.25-.11-.44-.25-.55a.75.75 0 0 0-.55-.2c-.25 0-.44.06-.58.2Zm1.4-.83c.25.11.47.3.64.52.14.22.25.47.28.75.02.16.02.41.02.72h-2.62c.03.35.14.6.39.77.14.08.33.14.52.14a.8.8 0 0 0 .53-.17.6.6 0 0 0 .2-.25h.96c-.03.22-.14.44-.36.66-.33.36-.78.53-1.35.53-.47 0-.91-.14-1.27-.44s-.55-.78-.55-1.44c0-.63.16-1.1.5-1.43.32-.33.77-.5 1.29-.5.3-.03.58.03.83.14Zm-11.58.83a.93.93 0 0 0-.25.55h1.63c-.02-.25-.1-.44-.25-.55a.75.75 0 0 0-.55-.2c-.27 0-.44.06-.58.2Zm1.41-.83c.25.11.47.3.63.52.14.22.25.47.28.75.03.16.03.41.03.72h-2.62c.02.35.13.6.38.77.14.08.34.14.53.14a.8.8 0 0 0 .52-.17.61.61 0 0 0 .2-.25h.96c-.03.22-.14.44-.36.66-.33.36-.77.53-1.35.53-.47 0-.91-.14-1.27-.44s-.55-.78-.55-1.44c0-.63.16-1.1.5-1.43.33-.33.77-.5 1.3-.5.27-.03.57.03.82.14Zm-5.18.83a.93.93 0 0 0-.25.55h1.62c-.02-.25-.1-.44-.24-.55a.75.75 0 0 0-.56-.2c-.24 0-.44.06-.57.2Zm1.4-.83c.25.11.47.3.64.52.13.22.24.47.27.75.03.16.03.41.03.72h-2.62c.03.35.14.6.39.77.13.08.33.14.52.14a.8.8 0 0 0 .52-.17.6.6 0 0 0 .2-.25h.96c-.03.22-.14.44-.36.66-.33.36-.77.53-1.35.53-.47 0-.9-.14-1.27-.44-.35-.3-.55-.78-.55-1.44 0-.63.17-1.1.5-1.43.33-.33.77-.5 1.3-.5.3-.03.57.03.82.14Zm8.11.14c.25.19.36.52.36.96v2.43h-.97v-2.2c0-.2-.02-.34-.08-.45-.08-.2-.28-.27-.52-.27a.7.7 0 0 0-.67.4 1.8 1.8 0 0 0-.08.56v1.96h-.94v-3.61h.91v.52c.11-.2.25-.33.34-.39.19-.13.44-.22.74-.22.36.03.66.11.91.3Zm-11.11-.28h.08v.97c-.06 0-.11 0-.17-.03h-.1c-.4 0-.64.1-.78.36a1.3 1.3 0 0 0-.1.63v1.74h-.95v-3.61h.89v.63c.13-.25.27-.41.38-.5.17-.13.42-.22.7-.22.02.03.05.03.05.03Zm-3.92.33a.93.93 0 0 0-.58-.69 1.23 1.23 0 0 0-.55-.1c-.39 0-.72.13-.97.43-.24.3-.38.75-.38 1.33 0 .6.14 1.02.41 1.27.28.24.58.38.94.38a1.24 1.24 0 0 0 1.27-1.07h-1.13v-.83h2.04v2.62h-.66l-.11-.6c-.2.21-.39.38-.53.49-.27.16-.6.25-.99.25-.63 0-1.19-.22-1.6-.66-.44-.45-.63-1.08-.63-1.85 0-.8.22-1.44.66-1.9a2.28 2.28 0 0 1 1.74-.72c.63 0 1.13.16 1.48.47.39.3.58.71.67 1.18h-1.08Zm21.18-20.21-.25-1.54-5.16.82c.14.5.22 1.02.25 1.55l5.16-.83Zm-6.43-2.79 3.98-3.47-1.05-1.19-3.97 3.48c.41.36.74.74 1.04 1.18Zm-2.75-2.28 1.6-5.1-1.52-.48-1.57 5.08c.52.1 1.02.27 1.49.5Zm-4.11-.5-1.52-4.96-1.52.46 1.52 5c.47-.23 1-.4 1.52-.5Zm-3.26 1.6-3.94-3.53-1.05 1.18 3.95 3.53c.3-.44.66-.82 1.04-1.18Zm-2.01 3.17-5.07-.77-.25 1.57 5.02.77a8.9 8.9 0 0 1 .3-1.57Zm13.38 13.76c1.93-1.54 2.59-4.05 2.73-7.03-2.95.16-4.75.94-6.15 1.82a8.8 8.8 0 0 0-1.96 1.65l-.03-2.15a6.07 6.07 0 0 0 4.14-3.86h-2.79a3.17 3.17 0 0 1-2.78 1.52c-1.41 0-2.54-1.05-2.95-2.35h8.71c.06-.4.14-.82.14-1.24a5.92 5.92 0 0 0-5.77-5.93 6.02 6.02 0 0 0-1.13 11.92l-.02 7.47A13.53 13.53 0 1 1 208.5 16.7c0 5.3-2.73 9.62-7.09 12.02l.34-.36Zm-3.67-12.63a3.1 3.1 0 0 0-3.06-2.6 3.3 3.3 0 0 0-3.12 2.6h6.18Zm-1.63 13.51v-1.49a6.77 6.77 0 0 1 2.87-3.17 9.93 9.93 0 0 1 3.17-1.18 6.85 6.85 0 0 1-1.99 3.75c-.99.88-1.68 1.43-4.05 2.1Zm-1.52 2.02a14.6 14.6 0 1 1 0-29.24 14.6 14.6 0 1 1 0 29.24Zm0-30.45a15.86 15.86 0 1 0 0 31.72 15.86 15.86 0 0 0 0-31.72Z"/><path stroke="#fff" stroke-width=".5" d="M207.37 30.75c0-.63.55-1.16 1.24-1.16.7 0 1.24.53 1.24 1.16 0 .63-.55 1.16-1.24 1.16s-1.24-.53-1.24-1.16Z"/><path fill="#fff" d="M208.28 30.75h.39c.08 0 .14 0 .19-.03a.37.37 0 0 0 .11-.08c.03-.03.03-.08.03-.11 0-.06-.03-.11-.09-.17-.05-.05-.1-.05-.22-.05h-.44v.44h.03Zm-.2.77v-1.38h.61c.12 0 .22 0 .28.03.06.03.11.06.17.14.02.05.05.14.05.22 0 .11-.03.2-.08.25a.62.62 0 0 1-.3.14l.1.05c.06.06.12.11.14.2l.25.38h-.22l-.2-.28-.13-.19c-.03-.05-.06-.08-.08-.08-.03-.03-.06-.03-.09-.03h-.33v.6h-.16v-.05Zm100.58-12.38c-.58.44-1.46.77-5.93 1.35-1.76.25-4.58.77-4.58 3.47 0 2.32 1.2 3.73 3.9 3.73 3.33 0 6.61-2.15 6.61-5.02v-3.53Zm-13.12-3.95c.16-5.1 3.55-7.08 8.82-7.08 1.71 0 7.91.5 7.91 5.95v12.25c0 .9.45 1.27 1.2 1.27.32 0 .76-.09 1.18-.17v2.62c-.61.17-1.13.41-1.96.41-3.17 0-3.67-1.62-3.8-3.25a9.69 9.69 0 0 1-7.73 3.48c-3.92 0-6.7-2.49-6.7-6.15 0-1.8.52-5.96 6.48-6.7l5.93-.75c.86-.08 1.88-.41 1.88-2.54 0-2.23-1.63-3.47-5.02-3.47-4.09 0-4.67 2.48-4.91 4.1h-3.28v.03Zm45.28 2.49c-.2-3.31-1.6-6.37-5.96-6.37-3.3 0-5.93 3.06-5.93 6.37h11.89Zm3.42 5.65a9.23 9.23 0 0 1-3.8 5.85c-1 .66-2.38 1.46-5.8 1.46-5.98 0-9.54-4.52-9.54-10.7 0-6.62 3.17-11.89 10.23-11.89 6.15 0 9.18 4.91 9.18 12.44h-15.58c0 4.44 2.07 7 6.2 7 3.4 0 5.38-2.61 5.52-4.19h3.59v.03ZM263.05 8.69h3.4v3h.07c.78-1.13 2.62-3.64 6.46-3.64 3.83 0 5.04 2.32 5.68 3.48 1.79-1.99 3.22-3.48 6.53-3.48 2.3 0 6.62 1.19 6.62 7.17v14.79h-3.58V16.2c0-2.94-.91-4.93-3.97-4.93-3.01 0-5.02 2.87-5.02 5.7V30h-3.59V15.28c0-1.8-.69-3.97-3.33-3.97-2.05 0-5.63 1.3-5.63 7.09v11.63h-3.59V8.7h-.05Zm57.94 2.98v13.87c0 1.68 1.43 1.68 2.15 1.68h1.27v2.81c-1.3.11-2.32.28-2.7.28-3.56 0-4.33-2.02-4.33-4.58V11.67h-2.9V8.69h2.9V2.73h3.58v5.96h3.42v2.98h-3.4Zm-61.94 18.36h-3.58V8.7h3.58v21.34ZM255.47.74h3.58v4.09h-3.58V.74Zm-4.06 0h-3.58v29.3h3.58V.73Zm-10.64 8.8c-1.1-5.13-5.38-6.07-8.2-6.07-5.29 0-9.59 3.92-9.59 11.64 0 6.9 2.45 12.2 9.7 12.2 2.57 0 7.01-1.22 8.36-8.03h3.84c-1.63 11.06-10.62 11.55-12.83 11.55-6.64 0-13.18-4.33-13.18-15.58C218.87 6.23 224 0 232.55 0c7.55 0 11.47 4.69 12.02 9.6h-3.8v-.06Zm-109.34-7.3a6.38 6.38 0 0 1 6.35 6.36v21.88a6.38 6.38 0 0 1-6.35 6.36H9.94a6.38 6.38 0 0 1-6.35-6.36V8.6a6.38 6.38 0 0 1 6.35-6.36h121.49Zm0-2.24H9.94a8.61 8.61 0 0 0-8.6 8.6v21.88c0 4.74 3.87 8.6 8.6 8.6H131.4c4.74 0 8.6-3.86 8.6-8.6V8.6a8.58 8.58 0 0 0-8.57-8.6Z"/><path fill="#fff" d="M32.34 11.14h-.77c-1.57 0-2.26.44-2.86 2.06l-6.52 17.5h-4.55l-6.52-17.8c-.53-1.53-1.22-1.76-2.5-1.76H7.7V8.67h11.77v2.47H17.4c-1 0-1.43.23-1.43.76s.16.93.32 1.37l4.11 12.1h.07l4.48-12.1c.21-.58.33-.9.33-1.3 0-.6-.63-.83-1.6-.83h-2.03V8.67h10.63v2.47h.05Zm17.4-2.8h2.35v9.1h-2.44c-.44-3.62-2.3-6.58-6.3-6.58-4.87 0-6.11 4.46-6.11 8.8 0 4.3 1.34 8.86 6.12 8.86 3.79 0 5.62-2.66 5.98-6.2h2.87c-.4 5.8-3.72 9.04-9.54 9.04-6.98 0-10.63-4.92-10.63-12.02 0-6.26 4.11-11.37 11.04-11.37 2.17 0 4.6 1.04 6.06 2.43l.6-2.06Zm20.45.33h1.92v8.39h-2.4c-.82-3.63-2.9-6.22-6.85-6.22-3.1 0-4.36.8-4.36 3 0 5 14.83 1.27 14.83 10.54 0 5.3-4.11 7.03-8.78 7.03-2.5 0-5-1.07-6.9-2.64l-.75 1.97h-2.26v-9.02h2.47c.46 4.46 3.19 6.84 7.9 6.84 2.94 0 4.32-1.36 4.32-2.95 0-5.69-14.83-1.4-14.83-10.91 0-4.7 4.23-6.68 8.25-6.68 2.52 0 4.64 1.15 6.3 2.33l1.14-1.68Zm7.11 14.69c0-2.22-.46-3.23-2.51-3.86 2.05-.62 2.52-1.68 2.52-3.81V9.7C77.3 5.68 79.13 5 83.89 5v.37c-1.82.58-2.42 1.83-2.42 4.18v5.64c0 2.33-.4 3.7-2.7 4.3v.07c2.28.6 2.7 1.9 2.7 4.34v5.62c0 2.33.6 3.65 2.42 4.18v.37c-4.76 0-6.58-.7-6.58-4.76v-5.94ZM87.38 9.04v.62h-.46c-.14 0-.23.05-.23.14 0 .11.07.3.11.44l.74 2.33h.03l.76-2.33c.04-.14.11-.33.11-.44 0-.1-.07-.14-.2-.14h-.42v-.62h2.06v.62h-.16c-.3 0-.42.1-.56.44l-1.22 3.63h-1.28l-1.22-3.63c-.12-.35-.23-.44-.6-.44h-.14v-.62h2.68Zm7.74 2.36c0 1.54-1.01 2.49-2.56 2.49s-2.57-.95-2.57-2.5 1.02-2.5 2.57-2.5c1.55 0 2.56.95 2.56 2.5Zm-3.6 0c0 1.24.32 1.82 1.04 1.82.71 0 1.04-.58 1.04-1.83 0-1.24-.33-1.82-1.04-1.82-.72-.03-1.04.58-1.04 1.82Zm3.76 2.33v-.63h.44c.19 0 .28-.11.28-.27v-2.9c0-.18-.1-.27-.28-.27h-.44v-.62h2.78v.62h-.44c-.19 0-.28.12-.28.28v3.16h.76c.86 0 1-.55 1-1.31h.67v1.94h-4.49Zm4.4-4.69h2.77v.62H102c-.19 0-.28.12-.28.28v2.5c0 .46.26.78.83.78.84 0 .97-.37.97-1.25V9.94c0-.19-.09-.28-.27-.28h-.42v-.62H105v.62h-.42c-.18 0-.27.12-.27.28v2.26c0 1.04-.56 1.67-1.88 1.67-1.24 0-2-.4-2-1.6V9.91c0-.18-.1-.27-.28-.27h-.44v-.6h-.02Zm9.72 3.23.03-2.33c0-.19-.1-.28-.28-.28h-.44v-.62h2.17v.62h-.41c-.19 0-.28.12-.28.28v3.79h-1.43l-1.97-3.5h-.02v2.6c0 .18.1.27.28.27h.44v.63h-2.2v-.63h.44c.18 0 .28-.11.28-.27v-2.9c0-.18-.1-.27-.28-.27h-.44v-.62h2.29l1.82 3.23Zm1.83-1.43v-1.8h4.71v1.8h-.64c0-.72-.21-1.18-1.04-1.18v3.17c0 .18.09.27.27.27h.42v.63h-2.75v-.63h.44c.18 0 .28-.11.28-.27V9.66c-.81 0-1.04.46-1.04 1.18h-.65Zm7.83-1.8 1.18 3.53c.14.44.23.53.49.53h.23v.63h-2.59v-.63h.2c.22 0 .4-.02.4-.11 0-.07 0-.14-.02-.26l-.14-.5h-1.46l-.09.27c-.07.26-.11.35-.11.47 0 .11.25.13.43.13h.21v.63h-2.08v-.63h.23c.26 0 .35-.09.49-.53l1.18-3.53h1.45Zm-1.48 2.56h1.02l-.5-1.52-.52 1.52Zm4.44-1.66c0-.19-.1-.28-.28-.28h-.43v-.62h3.25c1 0 1.58.39 1.58 1.15 0 .67-.47.97-1.07 1.07v.02c.53.14.83.32.83.9v.74c0 .14.05.23.23.23.19 0 .24-.2.24-.44v-.3h.48v.23c0 .7-.23 1.2-1.15 1.2-.67 0-1.14-.32-1.14-1.15v-.58c0-.42-.07-.53-.64-.53h-.58v1.22c0 .19.1.28.28.28h.44v.62h-2.75v-.6h.43c.19 0 .28-.11.28-.27v-2.9Zm1.32 1.04h.67c.53 0 .78-.12.78-.67 0-.53-.3-.65-.94-.65h-.51v1.32Zm6.19-1.94v.62h-.3c-.14 0-.2.02-.2.12 0 .07.06.18.1.23l.63.97.63-.97c.04-.07.11-.16.11-.23 0-.1-.07-.12-.2-.12h-.3v-.62h2.03v.62h-.14c-.25 0-.4.05-.49.19l-1.27 1.98v1c0 .18.1.27.28.27h.49v.63h-2.87v-.63h.46c.19 0 .28-.11.28-.27v-1l-1.13-1.78c-.19-.3-.3-.39-.7-.39h-.13v-.62h2.72ZM88.7 17.47h.65v1.92h-.67c0-.74-.4-1.34-1.2-1.34-.8 0-1.23.57-1.23 1.82 0 1.11.28 1.83 1.27 1.83.74 0 1.13-.63 1.13-1.27h.67c-.02 1.3-.78 1.94-2.1 1.94-1.48 0-2.5-.83-2.5-2.5 0-1.5 1.04-2.5 2.4-2.5.35 0 1.12.2 1.42.5l.16-.4Zm4.2.07 1.18 3.53c.14.44.23.54.49.54h.23v.62h-2.6v-.62h.2c.22 0 .4-.03.4-.12 0-.07 0-.14-.04-.25l-.14-.51h-1.44l-.09.27c-.07.26-.11.35-.11.47 0 .11.25.14.44.14h.2v.62h-2.08v-.62h.23c.26 0 .35-.1.49-.54l1.18-3.53h1.45Zm-1.5 2.59h1.02l-.5-1.53h-.03l-.49 1.53Zm4.44-1.69c0-.19-.1-.28-.28-.28h-.44v-.62h3.26c1 0 1.6.4 1.6 1.15 0 .67-.47.97-1.07 1.07v.02c.53.14.83.32.83.9v.74c0 .14.05.23.24.23.18 0 .23-.23.23-.44v-.27h.48v.23c0 .69-.23 1.22-1.15 1.22-.67 0-1.14-.32-1.14-1.15v-.58c0-.42-.07-.53-.64-.53h-.58v1.22c0 .19.1.28.28.28h.44v.62h-2.75v-.62h.43c.19 0 .28-.12.28-.28v-2.91h-.02Zm1.34 1.04h.7c.52 0 .78-.12.78-.67 0-.53-.3-.65-.95-.65h-.5v1.32h-.03Zm4.51-1.04c0-.19-.1-.28-.28-.28h-.42v-.62h3.05c1.02 0 1.5.46 1.5 1.1 0 .63-.43.98-1.01 1.12v.02c.6.18 1.25.37 1.25 1.22 0 .9-.54 1.28-1.92 1.28h-2.87v-.63h.4c.18 0 .27-.11.27-.28v-2.93h.03Zm1.31 1.04h.4c.48 0 .83-.14.83-.67 0-.5-.35-.67-.83-.67h-.4v1.34Zm0 2.13h.49c.5 0 .9-.14.9-.77 0-.6-.4-.74-.9-.74H103v1.5Zm8.28-1.71c0 1.55-1.02 2.5-2.57 2.5-1.55 0-2.56-.95-2.56-2.5s1.01-2.5 2.56-2.5 2.57.95 2.57 2.5Zm-3.6 0c0 1.25.31 1.82 1.03 1.82s1.04-.57 1.04-1.82-.32-1.83-1.04-1.83-1.04.58-1.04 1.83Zm7.89.87.03-2.33c0-.19-.1-.28-.28-.28h-.44v-.62h2.17v.62h-.41c-.19 0-.28.12-.28.28v3.79h-1.43l-1.97-3.49h-.02v2.59c0 .18.1.28.28.28h.44v.62h-2.2v-.62h.44c.18 0 .28-.12.28-.28v-2.89c0-.19-.1-.28-.28-.28h-.44v-.62h2.29l1.82 3.23Zm-26.73 6.96h-.65a1.38 1.38 0 0 0-1.39-1.16c-.41 0-.78.14-.78.6 0 .9 3.07.19 3.07 2.2 0 1.13-.97 1.52-1.96 1.52-.56 0-1.09-.11-1.55-.43l-.19.37h-.6v-1.85h.67c.1.74.72 1.27 1.55 1.27.37 0 .81-.21.81-.6 0-1.02-3.07-.19-3.07-2.22 0-1.18 1.06-1.48 2.03-1.48.49 0 .95.16 1.34.42l.12-.33h.57v1.69h.03Zm.48.12v-1.8h4.72v1.8h-.67c0-.72-.21-1.18-1.04-1.18v3.16c0 .19.09.28.27.28h.42v.62h-2.75v-.62h.44c.18 0 .28-.12.28-.28v-3.16c-.81 0-1.02.46-1.02 1.18h-.65Zm7.84-1.81 1.18 3.54c.13.44.23.53.48.53h.25v.62H96.5v-.62h.2c.21 0 .4-.02.4-.12 0-.06 0-.13-.05-.25l-.14-.5h-1.45l-.1.27c-.07.25-.11.35-.11.46 0 .12.25.14.44.14h.2v.62h-2.07v-.62h.23c.25 0 .34-.1.48-.53l1.18-3.54h1.46Zm-1.48 2.6h1.01l-.5-1.53h-.03l-.48 1.52Zm7.85.64.03-2.34c0-.18-.1-.27-.28-.27h-.44v-.63h2.2v.63h-.42c-.18 0-.28.11-.28.27v3.8h-1.43l-1.96-3.5h-.03v2.6c0 .18.1.27.28.27h.44v.62h-2.2v-.62h.44c.19 0 .28-.12.28-.28v-2.89c0-.18-.1-.27-.28-.27h-.44v-.63h2.3l1.8 3.24Zm2.47-2.34c0-.18-.08-.27-.27-.27h-.42v-.63h2.57c1.62 0 2.66.7 2.66 2.38 0 1.62-1.02 2.31-2.7 2.31h-2.53v-.62h.42c.19 0 .28-.12.28-.28v-2.89Zm1.32 3.17h.33c.94 0 1.36-.32 1.36-1.73s-.42-1.74-1.36-1.74h-.33v3.47Zm6.57-4.07 1.18 3.54c.13.44.23.53.48.53h.23v.62h-2.59v-.62h.21c.21 0 .4-.02.4-.12 0-.06 0-.13-.05-.25l-.14-.5h-1.46l-.09.27c-.07.25-.11.35-.11.46 0 .12.25.14.44.14h.2v.62h-2.08v-.62h.23c.26 0 .35-.1.49-.53l1.18-3.54h1.48Zm-1.5 2.6h1.03l-.5-1.53h-.03l-.5 1.52Zm4.43-1.7c0-.18-.09-.27-.27-.27h-.44v-.63h3.25c1 0 1.58.4 1.58 1.16 0 .67-.47.97-1.07 1.06v.02c.53.14.83.33.83.9v.75c0 .13.05.23.23.23.19 0 .24-.21.24-.44v-.28h.48v.23c0 .7-.23 1.2-1.15 1.2-.67 0-1.14-.32-1.14-1.15v-.58c0-.42-.06-.53-.64-.53h-.58v1.22c0 .19.1.28.28.28h.44v.62h-2.75v-.62h.44c.18 0 .27-.12.27-.28v-2.89Zm1.34 1.04h.67c.53 0 .79-.11.79-.67 0-.53-.3-.64-.95-.64h-.5v1.31Zm4.51-1.04c0-.18-.1-.27-.28-.27h-.42v-.63h2.57c1.62 0 2.66.7 2.66 2.38 0 1.62-1.02 2.31-2.7 2.31h-2.53v-.62h.42c.19 0 .28-.12.28-.28v-2.89Zm1.34 3.17h.32c.95 0 1.37-.32 1.37-1.73s-.42-1.74-1.37-1.74h-.32v3.47Z"/></svg>