<svg xmlns="http://www.w3.org/2000/svg" fill="none" viewBox="0 0 464 489"><path fill="#3F8CA8" d="m4 258 4 2 4-1 3-2-5-2-5-3 6 1 5 1 1 3v4l4 1h6l2-1-5-2-5-3 8 2c11 3 12 4 6 4l-4 1-2 9-3 8 3 3c1 1 4 2 8 1l11 1 16 1c11-1 26 0 32 1l5 1 3-4 3-3H84l-27-1h-6l11-5 12-4 13 1c7 1 24 0 37-1l23-2 20-5 20-5 28-12 58-28 30-15 2 2 1 2 7-5 8-6 16-6c15-6 19-9 16-10l-120 54-30 15-23 7-22 7-17 2c-19 3-47 4-57 3-8-2-5-3 8-3 28-1 64-10 84-21l5-3-1-2-1-1-17 6c-17 6-39 11-62 13l-11 2 12-9 12-8 11-2a1131 1131 0 0 0 214-76l19-8 6-4 6-6-2 5-1 4 8-5c11-7 17-8 18-6l1 1 3-3 4-4 1 2 1 2 10-6 9-6 1 2 1 2 3-3 3-3 1 4v5l2-4 1-4 15-6 14-6-4 6-4 6-17 9-16 9 2 1h2l15-8 14-8 6-8 6-8-1-1-2-1 3-2 3-1v4h8l9-1 1-2 1-2 7 1h7l6-5 7-5-1-2-2-2-7 4-7 4-6-3-4-3 1-4-1-7-3-4 3-1c1-1 4 0 6 1l4 3 2 5 1 6 3-2 4-2-3-5-2-4h6l5 10 5 10-4 2-4 2 1 2 4 2 4-1 1 6c0 7 1 9 9 25l3 8h-6l1 5c2 5 0 8-4 5l-2-2-4 3-3 4 8-1 7-1 1-5 1-6 2 4 3 4-2-7-4-14-2-7 4-1h4l-1-4v-3l9 17 10 17h-8l5 2 5 2 2 6 2 6-6 3-6 3-1-5-1-5-2 3-1 3-3-7-2-7-11 6-10 5-1-1-1-2-6 5-7 7v2l6-5 6-4 8 1 7 1-6 2-16 5-9 4-1 3v4l3-3 3-4h4l5 1v2l-5 2c-15 6-39 13-40 12l2-5 2-5-4 2-4 2v-2l1-2 9-3 9-3-4 6-3 6 6-5 7-6-1 4v3l5-4c2-2 5-6 5-9l2-4-11 3-11 2 7-3 8-3-1-2-7 1-6 1-3 5c-4 7-7 7-3 0l4-6-5 4-5 4-22 6-21 7 11-7 11-6 7-1 7-1 2-4 2-4-3 3-4 3-4-1h-4l-18 10-17 9-1 3-1 3 19-6c10-4 19-6 21-6l2 1 3-3 3-4-1 6-1 5-4 1h-4l-11 6-10 7-19 5c-24 7-86 30-120 43l-26 10-6 1h-7l-21 12-21 12-14 1-23 3h-9l-2 3-3 3-1-3-2-3 3-4 3-5-1-2-5 6-6 5 4 5 4 4-5 5-5 4 2 1h2l6-6 6-7 9-2 9-1 1 1 1 2-3 1-6 1h-4l-7 7-9 9-3 3 4 1 8-2 3-1-3-2-3-1 4-1 6-1c1-1 0 2-3 5l-4 7-19 8c-21 10-19 10-35 4l-12-4 20-1h20v-3l-1-4 4-2 4-2-1-2-1-2-3 1-8 1-21-2H66l-1-3-2-2-2 1-2 1v-6l-2 1-2 2-5-6-7-8c0-2-1-2-2-1l-3 1v-3l-1-4-2-1c-2 0-4-3-10-10a401 401 0 0 1-18-23l-7-10 4 3Z"/><path fill="#3F8CA8" d="m71 406-1-2 5-1 12-8 16-10 33-16c30-14 39-18 33-18l-20-14 39-18 14-9 14-9-6 6-5 6 18-10c23-13 34-18 35-16l1 1 8-6 9-6v2l2 2 20-11 20-12 1 2 1 2 7-5 6-6v6l-1 5 4-5 5-6 29-14 28-14-10 9-10 10-34 19-34 18h7l30-17 31-17 15-13 14-13h-2l-3-1 6-3 7-3-2 2-1 3 16-4 16-4 3-4 3-3 13-2 12-3 13-9 15-9-1-2-1-2-16 9-16 8-7-2-8-1 4-6c2-2 2-6 1-9l-2-3 5-3c2-1 7-2 10-1l7 2v12l7-4 8-4-3-4-2-5 5-1 5-1 6 10 5 9-9 5-9 5 1 2c0 1 4 1 8-1l6-2-1 7c-2 8-1 11 5 28l3 8-5 1-6 1v6c0 6-5 11-10 8l-3-1-8 5-9 6 15-4 15-5 4-7 3-7 3 4 3 4v-25l-1-7 7-3 7-2 1-4v-3l10 16 10 17-7 2-6 1h8l8 1v13l-11 7-12 6v-11l-4 4-4 4-1-7-2-8-22 12-21 12-1-2-1-1-14 9-16 11-1 3 14-9 13-8 13-2 13-2-12 5-31 14-20 9-2 4-2 5 7-5 7-6 7-2c4-2 8-2 8-1l1 1-10 5c-31 15-79 35-80 35l6-9 7-7-9 5-9 4 2-2 2-3 17-7 18-8-9 9-9 9 15-10 14-10-2 5-2 4 10-7 15-14 5-5-22 8-21 8 15-7 15-8-1-1c0-1-6 0-13 3l-11 5-8 7c-12 11-16 12-5 1l9-9-11 7-10 7-43 18-43 18 23-13 24-13 13-4 13-4 6-6 6-7-8 6-9 5-7 1-7 2-36 20-37 20-3 4-3 4 37-16c20-9 39-17 42-17h4l7-6 7-5-4 7-5 7-8 3-8 2-22 13-23 13-35 15-183 30-4 3Z"/></svg>