<svg xmlns="http://www.w3.org/2000/svg" width="548" height="51"><path fill="#fff" fill-rule="evenodd" d="M2 12.3h2.1v37H2v-37ZM2 .1h2.1v7H2v-7Zm28.9 46.8c5.7-1.4 8.5-5 8.5-11.2 0-7.9-4.3-11.1-14.9-11.1h-1.4v5.6c0 6.3 1.1 10.7 3.6 13.6 1.2 1.4 2.6 2.4 4.2 3.1Zm-6 .6c1 0 2 0 2.9-.2-4.5-3-6.6-8.6-6.6-17.2v-5.5H8.9v23h16Zm-16-24.7h12.3v-21H9v21Zm14.2 0h1.4c8.6 0 12.8-3.5 12.8-10.6 0-7-4.5-10.4-14.1-10.4H23v21ZM55.3 0h1.9v30.2c0 13.8-5.6 20-18.1 20-3 0-5.8-.4-8.5-1.3-1.8.3-3.6.5-5.4.5H7V0h16.4c4-.3 7.9.6 11.3 2.5 3.1 2 4.6 5.2 4.6 9.6 0 5.8-2.7 9.7-7.7 11.3 4.6 1 9.8 3.8 9.8 12.2 0 4.7-1.5 8.2-4.5 10.5-1 .7-2 1.3-3 1.7 1.7.4 3.5.6 5.3.6 5.8 0 9.9-1.5 12.4-4.6 2.6-3 3.8-7.4 3.8-13.7L55.3 0Zm5.2.2h2v49.2h-2V0Zm28.6 1.7v45.7h6.3v1.8H65.6V0h1.9v47.5h19.7V1.8H70.6V0H106v1.8H89.1Z" clip-rule="evenodd"/><path fill="#fff" d="M200.3 6.1h-.9V.8h1v2.1h2.3V.8h1v5.3h-1V3.7h-2.4v2.4Zm18.4-1.5c-.4 1-1.4 1.6-2.5 1.6a2.7 2.7 0 0 1-2.7-2.8 2.7 2.7 0 0 1 5.4.1c0 .4 0 .7-.2 1Zm-.9-1.8c-.2-.7-.9-1.1-1.6-1.2a1.6 1.6 0 0 0-1.7 1.7 1.8 1.8 0 0 0 1.8 2 1.6 1.6 0 0 0 1.6-1.7v-.8Zm10-1.2V.8h4.4v.8h-1.7v4.5h-1V1.6h-1.7Zm17.4 3.7-.2.8h-3.2V.8h3v.8h-2V3h1.8v.8h-1.8v1.6h2.4Zm12.6.8h-3V.8h1v4.5h2.2l-.2.8ZM156 44h-2l-13.4-15-2.8 3.2V44h-1.4V15.7h1.4v14.4L150 15.7h1.7l-10 12.3Zm8.8-28.3h9.8v.7h-4.2v27h4.2v.7h-9.8v-.7h4.2v-27h-4.2v-.7Zm39.2 0 1.1.2v28.2h-1.4l-17-26.7V44h-1.5V16h2.4l16.1 25 .3-25.3Zm58.2 21.5h1.2v6.9h-15.7V15.7h1.5v26.9h13v-5.4Zm28.5-.9h.6v7.8h-16.7V15.7h16.7v7h-.7V17l-14.6-.1v11.7h9.2v.8H276v14h14.6v-7ZM321 15.7l-9.8 17V44h-1.5V32.6l-9.6-16.9h1.6v.1l9 15.7 9-16 1.3.2Zm-84.4 18.7c.8 2.2-.2 4.6-.7 5.6a8 8 0 0 1-2 2.6 12 12 0 0 1-7.1 2.4 15 15 0 0 1-10.3-4v-.1l1-.8.6.5 2.1 1.4c3 1.4 3 1.4 7.6 1.4 3.6-.3 3.7-.8 5.2-2 1.5-1.3 2.4-2.6 2.3-4.6 0-.8-.2-1.6-.5-2.4s-.8-1.5-1.5-2c-1.8-1.5-4-2.5-6.3-3.1-1.3-.4-2.5-1-3.8-1.5-1-.5-2-1-3-2.2 0 0-1.3-1.5-1.6-3.3 0-1.5 0-1.8.3-2.6s.7-1.8 1.4-2.3c2.5-2.3 6-3.2 9.2-2.3l2.7.9q1 .5 2.8 2.3l-1.2.8-.8-.9c-.4-.5-1-.9-1.5-1.2-.7-.4-.7-.3-2-.7-1.7-.3-1.7-.3-3.7-.3-2.1.4-2.6.9-3.4 1.4-.7.5-1 .9-1.5 1.6-.6.7-1.1 1.3-1.1 2.2 0 1.1 0 1.1.5 2.1.3.7.7 1.3 1.4 1.7 1.6 1.1 3.3 2 5.2 2.5l.6.2c2.6.6 5 1.8 7 3.6.8.7.8.7 1.4 1.8ZM379.8 0v14.5l-28.5 16V15.1L379.8 0Zm.1 29.1V14.5l13 7.1v14.5l-13-7Zm-13 6.8 13-6.8v14.4l-13 7V35.8Zm39-20H419v3.3h-9.3v4.2h8.2v3.3h-8.2v7.8h-3.9V15.9Zm19 3.2h-3.6v-3.3h3.6V19Zm-3.6 1.6h3.6v13.8h-3.6V20.7ZM432 34.5h-3.6V15.9h3.6v18.6ZM444.4 21c1 .4 1.8 1.1 2.4 2 .5.9 1 1.9 1 2.9.2.9.2 1.8.2 2.7h-10c0 1.4.5 2.3 1.4 2.9.6.4 1.3.5 2 .5a3 3 0 0 0 2.7-1.6h3.7c0 .9-.6 1.7-1.3 2.5a7 7 0 0 1-5.2 2c-1.7 0-3.4-.6-4.8-1.7s-2-3-2-5.5.5-4.2 1.8-5.4c1.3-1.3 3-2 5-2 1 0 2.1.2 3.1.7Zm-5.3 3c-.6.6-.9 1.3-1 2.2h6.2c0-1-.4-1.7-1-2.1a3 3 0 0 0-2-.8 3 3 0 0 0-2.2.8Zm13.7 4.7c.2.9.4 1.5.8 2 .6.7 1.7 1 3.2 1 .8.1 1.6 0 2.3-.2 1.1-.4 1.6-1.1 1.6-2.2 0-.6-.3-1.1-.8-1.4s-1.4-.6-2.5-.9l-2-.4c-2-.5-3.3-1-4-1.5-1.3-.8-2-2.2-2-4 0-1.6.7-3 2-4.1 1.1-1.1 3-1.7 5.3-1.7 2 0 3.6.6 5 1.6s2.1 2.5 2.2 4.5h-3.7c0-1.1-.6-1.9-1.5-2.4a5 5 0 0 0-2.3-.4c-1 0-1.8.2-2.5.6-.6.4-1 1-.9 1.7 0 .6.4 1.2 1 1.4.3.3 1.1.5 2.4.8l3.2.8c1.4.3 2.5.8 3.2 1.3 1.1.9 1.7 2.2 1.7 3.8s-.7 3.2-2 4.2c-1.3 1.2-3 1.7-5.5 1.7s-4.4-.5-5.8-1.6a5.5 5.5 0 0 1-2-4.6h3.6Zm22.3-3c0-.5-.3-1-.5-1.4-.5-.6-1-.9-2-.9s-2 .6-2.4 1.8c-.3.8-.4 1.7-.3 2.6 0 .8 0 1.6.3 2.4.3 1 1.3 1.7 2.4 1.7 1 0 1.5-.2 1.8-.7.4-.5.6-1.1.6-1.7h3.7a6 6 0 0 1-1.2 3 5.8 5.8 0 0 1-5 2.4c-2.2 0-3.8-.6-4.8-2s-1.6-3-1.6-5a8 8 0 0 1 1.7-5.5 6 6 0 0 1 4.8-2c1.7 0 3 .4 4.2 1.1s1.7 2.2 2 4.1H475Zm9.8-6.6h-3.7v-3.3h3.7V19Zm-3.7 1.6h3.7v13.8h-3.7V20.7Zm16 .4c1 .5 1.8 1.2 2.4 2 .6 1 1 2 1 3 .2.8.2 1.7.2 2.6h-10c0 1.4.6 2.4 1.5 3a4 4 0 0 0 2 .5 3 3 0 0 0 2-.7c.2-.2.5-.6.6-1h3.7c0 1-.5 1.7-1.3 2.6a7 7 0 0 1-5.2 2c-1.7 0-3.4-.6-4.8-1.7s-2-3-2-5.5.5-4.2 1.8-5.5 3-1.9 5-1.9c1 0 2.1.2 3.1.6Zm-5.3 3.1a4 4 0 0 0-1 2.2h6.2a3 3 0 0 0-1-2.2 3 3 0 0 0-2-.7c-1 0-1.7.2-2.2.7Zm21.7-2.7c1 .8 1.3 2 1.3 3.7v9.3h-3.6V26a4 4 0 0 0-.3-1.7c-.4-.7-1-1-2-1s-2 .5-2.5 1.5l-.3 2.1v7.5h-3.6V20.7h3.5v2c.3-.6.8-1 1.3-1.5.7-.5 1.6-.8 2.8-.8 1.4 0 2.5.4 3.4 1.1Zm12.8 4.1c0-.4-.2-1-.5-1.3a2 2 0 0 0-1.8-.9c-1.2 0-2 .6-2.5 1.8-.3.8-.4 1.7-.4 2.6 0 .8.1 1.6.4 2.4.3 1 1.3 1.7 2.4 1.7.8 0 1.4-.2 1.8-.7s.6-1.1.6-1.7h3.7a6 6 0 0 1-1.2 3 5.8 5.8 0 0 1-5 2.4c-2.2 0-3.8-.6-4.9-2s-1.5-3-1.5-5a8 8 0 0 1 1.7-5.5 6 6 0 0 1 4.8-2 8 8 0 0 1 4.2 1.1c1 .8 1.7 2.2 2 4.1h-3.8Zm15-4.6c1 .4 1.8 1.1 2.4 2s1 1.9 1.1 2.9c.1.9.2 1.8.1 2.7h-10c.1 1.4.6 2.3 1.5 2.9.6.4 1.3.5 2 .5a3 3 0 0 0 2-.6l.7-1h3.6c0 .9-.5 1.7-1.3 2.5-1.2 1.3-3 2-5 2-1.9 0-3.6-.6-4.9-1.7-1.4-1.1-2-3-2-5.5s.5-4.2 1.8-5.4a7.1 7.1 0 0 1 8-1.3Zm-5.3 3c-.5.7-.9 1.4-1 2.2h6.2c0-1-.4-1.7-1-2.1a3 3 0 0 0-2-.8 3 3 0 0 0-2.2.8Z"/></svg>