<svg xmlns="http://www.w3.org/2000/svg" width="336" height="376" fill="none"><path fill="#fff" d="M155 375h155v-1l-1-1 3-1 4-2h3v-2h2v-1l-1-1h-1v-7l1-1 1-1h3l3-1v-1l-1-1-1-1v-3h1v-1l1-1v-2h-4l-2-1h-2v-10h-1l-1-1h1l-1-1v-2h-8v-1l-1-1h-1v-2h1l6-2h1v-1h2l7-1h1v-1h4l4-2 2-1 1-1-2-2-5-3-1-1-3-2-5-3-4-2-5-4-4-3-2-2-3-1v-3h-1v-2l-1-1-1-1h-6v-1h-1l-1 1v-1l-2-2h-13l-1-1 2-1 3-1-1-1h2l3-2h1l-1-1v-8l1-1 1-2v-1h2v-1l2-1 1-1h1v-1l-1-3h-1 2v-1h-5v-1l-2-2-2-2v-8h1l2-1h1v-1h2v-2l2-2 2-1h-1 3v-1l2-1v-1l-1-1-3-1-2-1 1-1v-1h2l5-1 4-1-1-1-2-2-1-1v-4l2-2 3-3 2-1h1l2-1h3l2-1-1-3-2-1 1-1 1-1 1-2h-1v-1h2v-2l1-1h-3l-2-1h-4l-1-2-1-1v-1l-1-1h-2 2l-1-2-1-2 2-1 3-2-1-1-3-1-3-1-2-1v-3l-2-1-2-1-1-1-1-1h1v-2l2-1 1-1-1-1v-1l1-4v-4l-1-1 1 1h1l4-2h2l1-1 2-1h-1l-1-2-3-3v-2l-2-1-2-2v-4h-3v-1h2v-3l1-1 1-1 1-1v-1l-2-1h-2l-5-2-4-2v-1l1-1-5-2h-2l-1-1-2-1v-1h-1l-2-1h-3v-4l1-3v-1h1l4-1h-1 1v-1l-1-1v-1l-1-2v-6h-1l-1-1-1-1 1-1 1-1h1l3-1a58 58 0 0 0 5 0l3-1h2-1l1-1v-1l-1-1 1-2v-7l1-1 1-1 1-2h-1l1-1 1-2 1-1-1-1h2l1-2h3l1-1h2l1-1h-1 2l-1-1-1-1-1-2a197 197 0 0 0-1-5l-2-1v-1l1-1 1-1h-2v-3h-2v-1h2v-1l-2-1v1h-1v-4 1h1l-1-1v-1h-3v-1l-1-2-1-1 4-2 10-5 2 1h1l1-1 1 1 1-1h1v-4l1-1 1-1h2l2-1h2l1-1v-1l-1-1 2-1h1c-1-1 0-2 1-2l1-1h-1 2-1l-1-1 2-2a25 25 0 0 0 3-3v-1h-1l-2-1h-2v-1h-2l1-1v-2h1l2-1 3-1V9l-1-1-2-1V1l-1-1H5C2 0 0 2 0 5v366c0 2 2 4 5 4h150Z"/></svg>